<?xml version="1.0" encoding="UTF-8" standalone="no"?>
<!DOCTYPE svg PUBLIC "-//W3C//DTD SVG 1.1//EN"
 "http://www.w3.org/Graphics/SVG/1.1/DTD/svg11.dtd">
<!-- Generated by graphviz version 2.43.0 (0)
 -->
<!-- Pages: 1 -->
<svg width="646pt" height="268pt"
 viewBox="0.00 0.00 645.82 268.00" xmlns="http://www.w3.org/2000/svg" xmlns:xlink="http://www.w3.org/1999/xlink">
<g id="graph0" class="graph" transform="scale(1 1) rotate(0) translate(4 264)">
<polygon fill="white" stroke="transparent" points="-4,4 -4,-264 641.82,-264 641.82,4 -4,4"/>
<g id="clust1" class="cluster">
<title>cluster_0</title>
<polygon fill="white" stroke="blue" points="9.82,-8 9.82,-211 345.82,-211 345.82,-8 9.82,-8"/>
<text text-anchor="middle" x="177.82" y="-195.8" font-family="Times,serif" font-size="14.00">warps</text>
</g>
<!-- 7 -->
<g id="node1" class="node">
<title>7</title>
<path fill="none" stroke="#565bd8" stroke-width="2" d="M326.82,-44C326.82,-44 242.82,-44 242.82,-44 236.82,-44 230.82,-38 230.82,-32 230.82,-32 230.82,-20 230.82,-20 230.82,-14 236.82,-8 242.82,-8 242.82,-8 326.82,-8 326.82,-8 332.82,-8 338.82,-14 338.82,-20 338.82,-20 338.82,-32 338.82,-32 338.82,-38 332.82,-44 326.82,-44"/>
<text text-anchor="middle" x="284.82" y="-23.5" font-family="sans" font-size="10.00">create_warps_hipp</text>
</g>
<!-- 8 -->
<g id="node2" class="node">
<title>8</title>
<path fill="none" stroke="#59d856" stroke-width="2" d="M140.82,-188C140.82,-188 62.82,-188 62.82,-188 56.82,-188 50.82,-182 50.82,-176 50.82,-176 50.82,-164 50.82,-164 50.82,-158 56.82,-152 62.82,-152 62.82,-152 140.82,-152 140.82,-152 146.82,-152 152.82,-158 152.82,-164 152.82,-164 152.82,-176 152.82,-176 152.82,-182 146.82,-188 140.82,-188"/>
<text text-anchor="middle" x="101.82" y="-167.5" font-family="sans" font-size="10.00">create_unfold_ref</text>
</g>
<!-- 8&#45;&gt;7 -->
<g id="edge1" class="edge">
<title>8&#45;&gt;7</title>
<path fill="none" stroke="grey" stroke-width="2" d="M135.68,-151.83C151.36,-142.7 169.43,-130.4 182.82,-116 195.28,-102.6 190.31,-93.37 202.82,-80 213.93,-68.12 228.24,-57.7 241.78,-49.31"/>
<polygon fill="grey" stroke="grey" stroke-width="2" points="243.73,-52.22 250.53,-44.1 240.15,-46.21 243.73,-52.22"/>
</g>
<!-- 9 -->
<g id="node3" class="node">
<title>9</title>
<path fill="none" stroke="#56d882" stroke-width="2" d="M161.32,-116C161.32,-116 42.32,-116 42.32,-116 36.32,-116 30.32,-110 30.32,-104 30.32,-104 30.32,-92 30.32,-92 30.32,-86 36.32,-80 42.32,-80 42.32,-80 161.32,-80 161.32,-80 167.32,-80 173.32,-86 173.32,-92 173.32,-92 173.32,-104 173.32,-104 173.32,-110 167.32,-116 161.32,-116"/>
<text text-anchor="middle" x="101.82" y="-95.5" font-family="sans" font-size="10.00">create_unfold_coord_map</text>
</g>
<!-- 8&#45;&gt;9 -->
<g id="edge2" class="edge">
<title>8&#45;&gt;9</title>
<path fill="none" stroke="grey" stroke-width="2" d="M101.82,-151.7C101.82,-143.98 101.82,-134.71 101.82,-126.11"/>
<polygon fill="grey" stroke="grey" stroke-width="2" points="105.32,-126.1 101.82,-116.1 98.32,-126.1 105.32,-126.1"/>
</g>
<!-- 34 -->
<g id="node4" class="node">
<title>34</title>
<path fill="none" stroke="#5692d8" stroke-width="2" d="M200.32,-44C200.32,-44 99.32,-44 99.32,-44 93.32,-44 87.32,-38 87.32,-32 87.32,-32 87.32,-20 87.32,-20 87.32,-14 93.32,-8 99.32,-8 99.32,-8 200.32,-8 200.32,-8 206.32,-8 212.32,-14 212.32,-20 212.32,-20 212.32,-32 212.32,-32 212.32,-38 206.32,-44 200.32,-44"/>
<text text-anchor="middle" x="149.82" y="-23.5" font-family="sans" font-size="10.00">create_warps_dentate</text>
</g>
<!-- 8&#45;&gt;34 -->
<g id="edge3" class="edge">
<title>8&#45;&gt;34</title>
<path fill="none" stroke="grey" stroke-width="2" d="M60.63,-152C45.61,-143.54 30.25,-131.71 21.82,-116 14.25,-101.9 12.93,-93.3 21.82,-80 34.68,-60.75 55.97,-48.48 77.52,-40.67"/>
<polygon fill="grey" stroke="grey" stroke-width="2" points="78.7,-43.97 87.09,-37.49 76.49,-37.33 78.7,-43.97"/>
</g>
<!-- 9&#45;&gt;7 -->
<g id="edge4" class="edge">
<title>9&#45;&gt;7</title>
<path fill="none" stroke="grey" stroke-width="2" d="M146.59,-79.88C171.94,-70.18 203.83,-57.98 230.59,-47.74"/>
<polygon fill="grey" stroke="grey" stroke-width="2" points="232.11,-50.91 240.2,-44.07 229.61,-44.37 232.11,-50.91"/>
</g>
<!-- 9&#45;&gt;34 -->
<g id="edge5" class="edge">
<title>9&#45;&gt;34</title>
<path fill="none" stroke="grey" stroke-width="2" d="M113.68,-79.7C119.32,-71.47 126.17,-61.48 132.39,-52.42"/>
<polygon fill="grey" stroke="grey" stroke-width="2" points="135.32,-54.33 138.09,-44.1 129.55,-50.37 135.32,-54.33"/>
</g>
<!-- 24 -->
<g id="node5" class="node">
<title>24</title>
<path fill="none" stroke="#56d8b9" stroke-width="2" d="M333.82,-116C333.82,-116 223.82,-116 223.82,-116 217.82,-116 211.82,-110 211.82,-104 211.82,-104 211.82,-92 211.82,-92 211.82,-86 217.82,-80 223.82,-80 223.82,-80 333.82,-80 333.82,-80 339.82,-80 345.82,-86 345.82,-92 345.82,-92 345.82,-104 345.82,-104 345.82,-110 339.82,-116 333.82,-116"/>
<text text-anchor="middle" x="278.82" y="-95.5" font-family="sans" font-size="10.00">create_native_coord_ref</text>
</g>
<!-- 24&#45;&gt;7 -->
<g id="edge6" class="edge">
<title>24&#45;&gt;7</title>
<path fill="none" stroke="grey" stroke-width="2" d="M280.3,-79.7C280.96,-71.98 281.76,-62.71 282.49,-54.11"/>
<polygon fill="grey" stroke="grey" stroke-width="2" points="285.99,-54.37 283.35,-44.1 279.01,-53.77 285.99,-54.37"/>
</g>
<!-- 24&#45;&gt;34 -->
<g id="edge7" class="edge">
<title>24&#45;&gt;34</title>
<path fill="none" stroke="grey" stroke-width="2" d="M247.26,-79.88C230.16,-70.6 208.84,-59.03 190.5,-49.08"/>
<polygon fill="grey" stroke="grey" stroke-width="2" points="191.96,-45.88 181.5,-44.19 188.62,-52.04 191.96,-45.88"/>
</g>
<!-- 10 -->
<g id="node6" class="node">
<title>10</title>
<path fill="none" stroke="#d8bc56" stroke-width="2" d="M415.32,-188C415.32,-188 358.32,-188 358.32,-188 352.32,-188 346.32,-182 346.32,-176 346.32,-176 346.32,-164 346.32,-164 346.32,-158 352.32,-152 358.32,-152 358.32,-152 415.32,-152 415.32,-152 421.32,-152 427.32,-158 427.32,-164 427.32,-164 427.32,-176 427.32,-176 427.32,-182 421.32,-188 415.32,-188"/>
<text text-anchor="middle" x="386.82" y="-167.5" font-family="sans" font-size="10.00">unflip_coords</text>
</g>
<!-- 10&#45;&gt;7 -->
<g id="edge8" class="edge">
<title>10&#45;&gt;7</title>
<path fill="none" stroke="grey" stroke-width="2" d="M392.06,-151.85C396.79,-132.82 401.18,-101.9 387.82,-80 378.67,-65 363.77,-54.07 348.11,-46.17"/>
<polygon fill="grey" stroke="grey" stroke-width="2" points="349.39,-42.91 338.84,-41.87 346.44,-49.25 349.39,-42.91"/>
</g>
<!-- 10&#45;&gt;34 -->
<g id="edge10" class="edge">
<title>10&#45;&gt;34</title>
<path fill="none" stroke="grey" stroke-width="2" d="M385.39,-151.98C382.79,-131.88 375.44,-98.81 354.82,-80 352.23,-77.64 280.27,-59.36 222.33,-44.91"/>
<polygon fill="grey" stroke="grey" stroke-width="2" points="222.98,-41.47 212.43,-42.45 221.29,-48.26 222.98,-41.47"/>
</g>
<!-- 10&#45;&gt;24 -->
<g id="edge9" class="edge">
<title>10&#45;&gt;24</title>
<path fill="none" stroke="grey" stroke-width="2" d="M360.4,-151.88C346.41,-142.81 329.04,-131.55 313.93,-121.76"/>
<polygon fill="grey" stroke="grey" stroke-width="2" points="315.64,-118.69 305.34,-116.19 311.83,-124.57 315.64,-118.69"/>
</g>
<!-- 11 -->
<g id="node7" class="node">
<title>11</title>
<path fill="none" stroke="#d8a456" stroke-width="2" d="M294.82,-260C294.82,-260 202.82,-260 202.82,-260 196.82,-260 190.82,-254 190.82,-248 190.82,-248 190.82,-236 190.82,-236 190.82,-230 196.82,-224 202.82,-224 202.82,-224 294.82,-224 294.82,-224 300.82,-224 306.82,-230 306.82,-236 306.82,-236 306.82,-248 306.82,-248 306.82,-254 300.82,-260 294.82,-260"/>
<text text-anchor="middle" x="248.82" y="-239.5" font-family="sans" font-size="10.00">laplace_coords_hipp</text>
</g>
<!-- 11&#45;&gt;7 -->
<g id="edge11" class="edge">
<title>11&#45;&gt;7</title>
<path fill="none" stroke="grey" stroke-width="2" d="M190.74,-239.83C137.15,-237.5 62.8,-230.69 41.82,-211 -1.13,-170.7 -15.96,-125.18 21.82,-80 49.09,-47.38 163.21,-53.04 220.58,-43.85"/>
<polygon fill="grey" stroke="grey" stroke-width="2" points="221.42,-47.25 230.6,-41.95 220.12,-40.37 221.42,-47.25"/>
</g>
<!-- 11&#45;&gt;24 -->
<g id="edge13" class="edge">
<title>11&#45;&gt;24</title>
<path fill="none" stroke="grey" stroke-width="2" d="M252.44,-223.87C257.57,-199.56 267.03,-154.82 273.11,-126.01"/>
<polygon fill="grey" stroke="grey" stroke-width="2" points="276.54,-126.7 275.19,-116.19 269.7,-125.25 276.54,-126.7"/>
</g>
<!-- 11&#45;&gt;10 -->
<g id="edge12" class="edge">
<title>11&#45;&gt;10</title>
<path fill="none" stroke="grey" stroke-width="2" d="M307.15,-226.68C319.35,-222.52 331.84,-217.34 342.82,-211 350.24,-206.72 357.47,-201.01 363.86,-195.25"/>
<polygon fill="grey" stroke="grey" stroke-width="2" points="366.61,-197.46 371.44,-188.03 361.79,-192.39 366.61,-197.46"/>
</g>
<!-- 21 -->
<g id="node8" class="node">
<title>21</title>
<path fill="none" stroke="#56d892" stroke-width="2" d="M625.82,-116C625.82,-116 527.82,-116 527.82,-116 521.82,-116 515.82,-110 515.82,-104 515.82,-104 515.82,-92 515.82,-92 515.82,-86 521.82,-80 527.82,-80 527.82,-80 625.82,-80 625.82,-80 631.82,-80 637.82,-86 637.82,-92 637.82,-92 637.82,-104 637.82,-104 637.82,-110 631.82,-116 625.82,-116"/>
<text text-anchor="middle" x="576.82" y="-95.5" font-family="sans" font-size="10.00">unflip_coords_equivol</text>
</g>
<!-- 21&#45;&gt;7 -->
<g id="edge14" class="edge">
<title>21&#45;&gt;7</title>
<path fill="none" stroke="grey" stroke-width="2" d="M515.61,-82.33C466.79,-70.62 398.63,-54.28 349.04,-42.4"/>
<polygon fill="grey" stroke="grey" stroke-width="2" points="349.61,-38.93 339.07,-40 347.98,-45.74 349.61,-38.93"/>
</g>
<!-- 22 -->
<g id="node9" class="node">
<title>22</title>
<path fill="none" stroke="#56d8d8" stroke-width="2" d="M601.82,-188C601.82,-188 513.82,-188 513.82,-188 507.82,-188 501.82,-182 501.82,-176 501.82,-176 501.82,-164 501.82,-164 501.82,-158 507.82,-152 513.82,-152 513.82,-152 601.82,-152 601.82,-152 607.82,-152 613.82,-158 613.82,-164 613.82,-164 613.82,-176 613.82,-176 613.82,-182 607.82,-188 601.82,-188"/>
<text text-anchor="middle" x="557.82" y="-167.5" font-family="sans" font-size="10.00">equivolume_coords</text>
</g>
<!-- 22&#45;&gt;7 -->
<g id="edge15" class="edge">
<title>22&#45;&gt;7</title>
<path fill="none" stroke="grey" stroke-width="2" d="M530.9,-151.94C500.92,-133.26 450.77,-102.91 405.82,-80 383.48,-68.62 358.15,-57.29 336.47,-48.05"/>
<polygon fill="grey" stroke="grey" stroke-width="2" points="337.67,-44.76 327.1,-44.09 334.95,-51.21 337.67,-44.76"/>
</g>
<!-- 22&#45;&gt;21 -->
<g id="edge16" class="edge">
<title>22&#45;&gt;21</title>
<path fill="none" stroke="grey" stroke-width="2" d="M562.52,-151.7C564.63,-143.9 567.18,-134.51 569.54,-125.83"/>
<polygon fill="grey" stroke="grey" stroke-width="2" points="572.93,-126.67 572.18,-116.1 566.18,-124.84 572.93,-126.67"/>
</g>
<!-- 35 -->
<g id="node10" class="node">
<title>35</title>
<path fill="none" stroke="#80d856" stroke-width="2" d="M444.82,-260C444.82,-260 336.82,-260 336.82,-260 330.82,-260 324.82,-254 324.82,-248 324.82,-248 324.82,-236 324.82,-236 324.82,-230 330.82,-224 336.82,-224 336.82,-224 444.82,-224 444.82,-224 450.82,-224 456.82,-230 456.82,-236 456.82,-236 456.82,-248 456.82,-248 456.82,-254 450.82,-260 444.82,-260"/>
<text text-anchor="middle" x="390.82" y="-239.5" font-family="sans" font-size="10.00">laplace_coords_dentate</text>
</g>
<!-- 35&#45;&gt;34 -->
<g id="edge19" class="edge">
<title>35&#45;&gt;34</title>
<path fill="none" stroke="grey" stroke-width="2" d="M426.08,-223.65C430.38,-220.06 434.18,-215.86 436.82,-211 449.31,-187.94 445.54,-176.73 436.82,-152 423.15,-113.25 413.65,-101.79 378.82,-80 320.74,-43.66 293.89,-58.77 222.53,-44.03"/>
<polygon fill="grey" stroke="grey" stroke-width="2" points="223.16,-40.59 212.64,-41.86 221.66,-47.42 223.16,-40.59"/>
</g>
<!-- 35&#45;&gt;24 -->
<g id="edge18" class="edge">
<title>35&#45;&gt;24</title>
<path fill="none" stroke="grey" stroke-width="2" d="M354.05,-223.88C348.2,-220.16 342.53,-215.86 337.82,-211 313.88,-186.32 297.16,-149.98 287.78,-125.44"/>
<polygon fill="grey" stroke="grey" stroke-width="2" points="291.06,-124.22 284.33,-116.04 284.49,-126.63 291.06,-124.22"/>
</g>
<!-- 35&#45;&gt;10 -->
<g id="edge17" class="edge">
<title>35&#45;&gt;10</title>
<path fill="none" stroke="grey" stroke-width="2" d="M389.83,-223.7C389.39,-215.98 388.86,-206.71 388.37,-198.11"/>
<polygon fill="grey" stroke="grey" stroke-width="2" points="391.86,-197.89 387.8,-188.1 384.87,-198.29 391.86,-197.89"/>
</g>
</g>
</svg>
