<?xml version="1.0" encoding="UTF-8" standalone="no"?>
<!DOCTYPE svg PUBLIC "-//W3C//DTD SVG 1.1//EN"
 "http://www.w3.org/Graphics/SVG/1.1/DTD/svg11.dtd">
<!-- Generated by graphviz version 2.43.0 (0)
 -->
<!-- Pages: 1 -->
<svg width="1058pt" height="659pt"
 viewBox="0.00 0.00 1057.84 659.00" xmlns="http://www.w3.org/2000/svg" xmlns:xlink="http://www.w3.org/1999/xlink">
<g id="graph0" class="graph" transform="scale(1 1) rotate(0) translate(4 655)">
<polygon fill="white" stroke="transparent" points="-4,4 -4,-655 1053.84,-655 1053.84,4 -4,4"/>
<g id="clust1" class="cluster">
<title>cluster_0</title>
<polygon fill="white" stroke="blue" points="8,-8 8,-643 768,-643 768,-8 8,-8"/>
<text text-anchor="middle" x="388" y="-627.8" font-family="Times,serif" font-size="14.00">gifti</text>
</g>
<!-- 1 -->
<g id="node1" class="node">
<title>1</title>
<path fill="none" stroke="#d8b456" stroke-width="2" d="M304,-44C304,-44 220,-44 220,-44 214,-44 208,-38 208,-32 208,-32 208,-20 208,-20 208,-14 214,-8 220,-8 220,-8 304,-8 304,-8 310,-8 316,-14 316,-20 316,-20 316,-32 316,-32 316,-38 310,-44 304,-44"/>
<text text-anchor="middle" x="262" y="-23.5" font-family="sans" font-size="10.00">merge_lr_spec_file</text>
</g>
<!-- 2 -->
<g id="node2" class="node">
<title>2</title>
<path fill="none" stroke="#56a2d8" stroke-width="2" d="M405,-116C405,-116 307,-116 307,-116 301,-116 295,-110 295,-104 295,-104 295,-92 295,-92 295,-86 301,-80 307,-80 307,-80 405,-80 405,-80 411,-80 417,-86 417,-92 417,-92 417,-104 417,-104 417,-110 411,-116 405,-116"/>
<text text-anchor="middle" x="356" y="-95.5" font-family="sans" font-size="10.00">create_spec_file_hipp</text>
</g>
<!-- 2&#45;&gt;1 -->
<g id="edge1" class="edge">
<title>2&#45;&gt;1</title>
<path fill="none" stroke="grey" stroke-width="2" d="M332.76,-79.7C320.81,-70.8 306.08,-59.82 293.15,-50.2"/>
<polygon fill="grey" stroke="grey" stroke-width="2" points="295.08,-47.27 284.97,-44.1 290.9,-52.88 295.08,-47.27"/>
</g>
<!-- 3 -->
<g id="node3" class="node">
<title>3</title>
<path fill="none" stroke="#d8d356" stroke-width="2" d="M377.5,-260C377.5,-260 280.5,-260 280.5,-260 274.5,-260 268.5,-254 268.5,-248 268.5,-248 268.5,-236 268.5,-236 268.5,-230 274.5,-224 280.5,-224 280.5,-224 377.5,-224 377.5,-224 383.5,-224 389.5,-230 389.5,-236 389.5,-236 389.5,-248 389.5,-248 389.5,-254 383.5,-260 377.5,-260"/>
<text text-anchor="middle" x="329" y="-239.5" font-family="sans" font-size="10.00">calculate_gyrification</text>
</g>
<!-- 3&#45;&gt;2 -->
<g id="edge2" class="edge">
<title>3&#45;&gt;2</title>
<path fill="none" stroke="grey" stroke-width="2" d="M349.82,-223.62C359.46,-214.2 369.89,-201.7 375,-188 382.6,-167.64 376.55,-143.47 369.32,-125.46"/>
<polygon fill="grey" stroke="grey" stroke-width="2" points="372.47,-123.92 365.27,-116.15 366.05,-126.72 372.47,-123.92"/>
</g>
<!-- 32 -->
<g id="node4" class="node">
<title>32</title>
<path fill="none" stroke="#5663d8" stroke-width="2" d="M354,-188C354,-188 230,-188 230,-188 224,-188 218,-182 218,-176 218,-176 218,-164 218,-164 218,-158 224,-152 230,-152 230,-152 354,-152 354,-152 360,-152 366,-158 366,-164 366,-164 366,-176 366,-176 366,-182 360,-188 354,-188"/>
<text text-anchor="middle" x="292" y="-167.5" font-family="sans" font-size="10.00">create_dscalar_metric_cifti</text>
</g>
<!-- 3&#45;&gt;32 -->
<g id="edge3" class="edge">
<title>3&#45;&gt;32</title>
<path fill="none" stroke="grey" stroke-width="2" d="M319.85,-223.7C315.6,-215.64 310.44,-205.89 305.73,-196.98"/>
<polygon fill="grey" stroke="grey" stroke-width="2" points="308.81,-195.31 301.04,-188.1 302.62,-198.58 308.81,-195.31"/>
</g>
<!-- 33 -->
<g id="node5" class="node">
<title>33</title>
<path fill="none" stroke="#d88d56" stroke-width="2" d="M226,-116C226,-116 112,-116 112,-116 106,-116 100,-110 100,-104 100,-104 100,-92 100,-92 100,-86 106,-80 112,-80 112,-80 226,-80 226,-80 232,-80 238,-86 238,-92 238,-92 238,-104 238,-104 238,-110 232,-116 226,-116"/>
<text text-anchor="middle" x="169" y="-95.5" font-family="sans" font-size="10.00">create_spec_file_dentate</text>
</g>
<!-- 3&#45;&gt;33 -->
<g id="edge4" class="edge">
<title>3&#45;&gt;33</title>
<path fill="none" stroke="grey" stroke-width="2" d="M268.24,-224.07C247.44,-215.88 225.32,-204.21 209,-188 191.89,-171 181.44,-145.37 175.53,-125.98"/>
<polygon fill="grey" stroke="grey" stroke-width="2" points="178.86,-124.88 172.77,-116.21 172.12,-126.78 178.86,-124.88"/>
</g>
<!-- 32&#45;&gt;2 -->
<g id="edge24" class="edge">
<title>32&#45;&gt;2</title>
<path fill="none" stroke="grey" stroke-width="2" d="M307.82,-151.7C315.57,-143.22 325.04,-132.86 333.52,-123.58"/>
<polygon fill="grey" stroke="grey" stroke-width="2" points="336.2,-125.85 340.36,-116.1 331.03,-121.12 336.2,-125.85"/>
</g>
<!-- 32&#45;&gt;33 -->
<g id="edge25" class="edge">
<title>32&#45;&gt;33</title>
<path fill="none" stroke="grey" stroke-width="2" d="M261.91,-151.88C245.68,-142.64 225.46,-131.13 208.03,-121.21"/>
<polygon fill="grey" stroke="grey" stroke-width="2" points="209.63,-118.09 199.2,-116.19 206.16,-124.18 209.63,-118.09"/>
</g>
<!-- 33&#45;&gt;1 -->
<g id="edge26" class="edge">
<title>33&#45;&gt;1</title>
<path fill="none" stroke="grey" stroke-width="2" d="M191.99,-79.7C203.81,-70.8 218.39,-59.82 231.18,-50.2"/>
<polygon fill="grey" stroke="grey" stroke-width="2" points="233.39,-52.91 239.28,-44.1 229.18,-47.32 233.39,-52.91"/>
</g>
<!-- 4 -->
<g id="node6" class="node">
<title>4</title>
<path fill="none" stroke="#56d87b" stroke-width="2" d="M402.5,-332C402.5,-332 297.5,-332 297.5,-332 291.5,-332 285.5,-326 285.5,-320 285.5,-320 285.5,-308 285.5,-308 285.5,-302 291.5,-296 297.5,-296 297.5,-296 402.5,-296 402.5,-296 408.5,-296 414.5,-302 414.5,-308 414.5,-308 414.5,-320 414.5,-320 414.5,-326 408.5,-332 402.5,-332"/>
<text text-anchor="middle" x="350" y="-311.5" font-family="sans" font-size="10.00">calculate_surface_area</text>
</g>
<!-- 4&#45;&gt;3 -->
<g id="edge5" class="edge">
<title>4&#45;&gt;3</title>
<path fill="none" stroke="grey" stroke-width="2" d="M344.81,-295.7C342.47,-287.9 339.65,-278.51 337.05,-269.83"/>
<polygon fill="grey" stroke="grey" stroke-width="2" points="340.36,-268.68 334.13,-260.1 333.65,-270.69 340.36,-268.68"/>
</g>
<!-- 5 -->
<g id="node7" class="node">
<title>5</title>
<path fill="none" stroke="#9fd856" stroke-width="2" d="M450,-404C450,-404 356,-404 356,-404 350,-404 344,-398 344,-392 344,-392 344,-380 344,-380 344,-374 350,-368 356,-368 356,-368 450,-368 450,-368 456,-368 462,-374 462,-380 462,-380 462,-392 462,-392 462,-398 456,-404 450,-404"/>
<text text-anchor="middle" x="403" y="-383.5" font-family="sans" font-size="10.00">correct_nan_vertices</text>
</g>
<!-- 5&#45;&gt;2 -->
<g id="edge6" class="edge">
<title>5&#45;&gt;2</title>
<path fill="none" stroke="grey" stroke-width="2" d="M457.87,-367.9C529.12,-342.61 639.83,-290.91 599,-224 561.8,-163.03 484.32,-130.54 426.8,-114.12"/>
<polygon fill="grey" stroke="grey" stroke-width="2" points="427.6,-110.71 417.03,-111.43 425.74,-117.46 427.6,-110.71"/>
</g>
<!-- 5&#45;&gt;33 -->
<g id="edge10" class="edge">
<title>5&#45;&gt;33</title>
<path fill="none" stroke="grey" stroke-width="2" d="M343.75,-381.28C289.44,-375.96 207.99,-363.09 144,-332 99.47,-310.36 79.82,-304.92 59,-260 34.36,-206.84 93.32,-151.97 134.1,-122"/>
<polygon fill="grey" stroke="grey" stroke-width="2" points="136.14,-124.84 142.23,-116.17 132.07,-119.15 136.14,-124.84"/>
</g>
<!-- 5&#45;&gt;4 -->
<g id="edge7" class="edge">
<title>5&#45;&gt;4</title>
<path fill="none" stroke="grey" stroke-width="2" d="M389.9,-367.7C383.61,-359.39 375.95,-349.28 369.04,-340.14"/>
<polygon fill="grey" stroke="grey" stroke-width="2" points="371.78,-337.96 362.95,-332.1 366.2,-342.19 371.78,-337.96"/>
</g>
<!-- 28 -->
<g id="node8" class="node">
<title>28</title>
<path fill="none" stroke="#70d856" stroke-width="2" d="M235.5,-332C235.5,-332 164.5,-332 164.5,-332 158.5,-332 152.5,-326 152.5,-320 152.5,-320 152.5,-308 152.5,-308 152.5,-302 158.5,-296 164.5,-296 164.5,-296 235.5,-296 235.5,-296 241.5,-296 247.5,-302 247.5,-308 247.5,-308 247.5,-320 247.5,-320 247.5,-326 241.5,-332 235.5,-332"/>
<text text-anchor="middle" x="200" y="-311.5" font-family="sans" font-size="10.00">smooth_surface</text>
</g>
<!-- 5&#45;&gt;28 -->
<g id="edge8" class="edge">
<title>5&#45;&gt;28</title>
<path fill="none" stroke="grey" stroke-width="2" d="M353.6,-367.97C324.48,-357.92 287.5,-345.17 257.13,-334.7"/>
<polygon fill="grey" stroke="grey" stroke-width="2" points="258.11,-331.34 247.52,-331.39 255.83,-337.95 258.11,-331.34"/>
</g>
<!-- 29 -->
<g id="node9" class="node">
<title>29</title>
<path fill="none" stroke="#bed856" stroke-width="2" d="M578,-260C578,-260 420,-260 420,-260 414,-260 408,-254 408,-248 408,-248 408,-236 408,-236 408,-230 414,-224 420,-224 420,-224 578,-224 578,-224 584,-224 590,-230 590,-236 590,-236 590,-248 590,-248 590,-254 584,-260 578,-260"/>
<text text-anchor="middle" x="499" y="-239.5" font-family="sans" font-size="10.00">calculate_thickness_from_surface</text>
</g>
<!-- 5&#45;&gt;29 -->
<g id="edge9" class="edge">
<title>5&#45;&gt;29</title>
<path fill="none" stroke="grey" stroke-width="2" d="M414.58,-367.87C431.3,-343.14 462.33,-297.24 481.75,-268.51"/>
<polygon fill="grey" stroke="grey" stroke-width="2" points="484.68,-270.43 487.38,-260.19 478.88,-266.51 484.68,-270.43"/>
</g>
<!-- 27 -->
<g id="node13" class="node">
<title>27</title>
<path fill="none" stroke="#56d86b" stroke-width="2" d="M238,-260C238,-260 80,-260 80,-260 74,-260 68,-254 68,-248 68,-248 68,-236 68,-236 68,-230 74,-224 80,-224 80,-224 238,-224 238,-224 244,-224 250,-230 250,-236 250,-236 250,-248 250,-248 250,-254 244,-260 238,-260"/>
<text text-anchor="middle" x="159" y="-239.5" font-family="sans" font-size="10.00">calculate_curvature_from_surface</text>
</g>
<!-- 28&#45;&gt;27 -->
<g id="edge19" class="edge">
<title>28&#45;&gt;27</title>
<path fill="none" stroke="grey" stroke-width="2" d="M189.87,-295.7C185.15,-287.64 179.44,-277.89 174.22,-268.98"/>
<polygon fill="grey" stroke="grey" stroke-width="2" points="177.09,-266.96 169.02,-260.1 171.05,-270.5 177.09,-266.96"/>
</g>
<!-- 29&#45;&gt;2 -->
<g id="edge20" class="edge">
<title>29&#45;&gt;2</title>
<path fill="none" stroke="grey" stroke-width="2" d="M481.75,-223.87C456.52,-198.82 409.43,-152.05 380.58,-123.41"/>
<polygon fill="grey" stroke="grey" stroke-width="2" points="382.87,-120.75 373.31,-116.19 377.94,-125.72 382.87,-120.75"/>
</g>
<!-- 29&#45;&gt;32 -->
<g id="edge21" class="edge">
<title>29&#45;&gt;32</title>
<path fill="none" stroke="grey" stroke-width="2" d="M448.63,-223.97C419.58,-214.14 382.87,-201.73 352.29,-191.39"/>
<polygon fill="grey" stroke="grey" stroke-width="2" points="353.19,-188 342.6,-188.11 350.95,-194.63 353.19,-188"/>
</g>
<!-- 6 -->
<g id="node10" class="node">
<title>6</title>
<path fill="none" stroke="#d8cb56" stroke-width="2" d="M747.5,-476C747.5,-476 640.5,-476 640.5,-476 634.5,-476 628.5,-470 628.5,-464 628.5,-464 628.5,-452 628.5,-452 628.5,-446 634.5,-440 640.5,-440 640.5,-440 747.5,-440 747.5,-440 753.5,-440 759.5,-446 759.5,-452 759.5,-452 759.5,-464 759.5,-464 759.5,-470 753.5,-476 747.5,-476"/>
<text text-anchor="middle" x="694" y="-455.5" font-family="sans" font-size="10.00">warp_gii_unfold2native</text>
</g>
<!-- 6&#45;&gt;5 -->
<g id="edge11" class="edge">
<title>6&#45;&gt;5</title>
<path fill="none" stroke="grey" stroke-width="2" d="M628.33,-441.2C581.69,-429.98 519.21,-414.95 471.87,-403.57"/>
<polygon fill="grey" stroke="grey" stroke-width="2" points="472.55,-400.13 462.01,-401.19 470.91,-406.94 472.55,-400.13"/>
</g>
<!-- 25 -->
<g id="node11" class="node">
<title>25</title>
<path fill="none" stroke="#d8ac56" stroke-width="2" d="M738,-548C738,-548 632,-548 632,-548 626,-548 620,-542 620,-536 620,-536 620,-524 620,-524 620,-518 626,-512 632,-512 632,-512 738,-512 738,-512 744,-512 750,-518 750,-524 750,-524 750,-536 750,-536 750,-542 744,-548 738,-548"/>
<text text-anchor="middle" x="685" y="-527.5" font-family="sans" font-size="10.00">constrain_surf_to_bbox</text>
</g>
<!-- 25&#45;&gt;6 -->
<g id="edge12" class="edge">
<title>25&#45;&gt;6</title>
<path fill="none" stroke="grey" stroke-width="2" d="M687.22,-511.7C688.22,-503.98 689.41,-494.71 690.51,-486.11"/>
<polygon fill="grey" stroke="grey" stroke-width="2" points="694,-486.47 691.8,-476.1 687.05,-485.58 694,-486.47"/>
</g>
<!-- 26 -->
<g id="node12" class="node">
<title>26</title>
<path fill="none" stroke="#afd856" stroke-width="2" d="M124,-620C124,-620 20,-620 20,-620 14,-620 8,-614 8,-608 8,-608 8,-596 8,-596 8,-590 14,-584 20,-584 20,-584 124,-584 124,-584 130,-584 136,-590 136,-596 136,-596 136,-608 136,-608 136,-614 130,-620 124,-620"/>
<text text-anchor="middle" x="72" y="-599.5" font-family="sans" font-size="10.00">cp_template_to_unfold</text>
</g>
<!-- 26&#45;&gt;2 -->
<g id="edge13" class="edge">
<title>26&#45;&gt;2</title>
<path fill="none" stroke="grey" stroke-width="2" d="M63.09,-583.58C50.5,-557.3 29,-505.62 29,-459 29,-459 29,-459 29,-313 29,-215.8 88.17,-191.44 177,-152 211.51,-136.68 251.68,-124.32 285.21,-115.41"/>
<polygon fill="grey" stroke="grey" stroke-width="2" points="286.14,-118.79 294.94,-112.87 284.38,-112.01 286.14,-118.79"/>
</g>
<!-- 26&#45;&gt;33 -->
<g id="edge15" class="edge">
<title>26&#45;&gt;33</title>
<path fill="none" stroke="grey" stroke-width="2" d="M51.74,-583.84C41.82,-574.3 30.61,-561.63 24,-548 6.5,-511.91 9,-499.11 9,-459 9,-459 9,-459 9,-241 9,-182.85 68.84,-142.72 115.33,-120.31"/>
<polygon fill="grey" stroke="grey" stroke-width="2" points="116.85,-123.47 124.43,-116.07 113.89,-117.12 116.85,-123.47"/>
</g>
<!-- 26&#45;&gt;25 -->
<g id="edge14" class="edge">
<title>26&#45;&gt;25</title>
<path fill="none" stroke="grey" stroke-width="2" d="M136.15,-593.67C250.38,-580.63 488.4,-553.45 609.99,-539.57"/>
<polygon fill="grey" stroke="grey" stroke-width="2" points="610.43,-543.04 619.97,-538.43 609.63,-536.08 610.43,-543.04"/>
</g>
<!-- 27&#45;&gt;2 -->
<g id="edge16" class="edge">
<title>27&#45;&gt;2</title>
<path fill="none" stroke="grey" stroke-width="2" d="M164.48,-223.85C171.67,-203.94 186.14,-171.35 209,-152 230.57,-133.74 258.94,-121.56 284.99,-113.54"/>
<polygon fill="grey" stroke="grey" stroke-width="2" points="286.22,-116.83 294.84,-110.67 284.26,-110.11 286.22,-116.83"/>
</g>
<!-- 27&#45;&gt;32 -->
<g id="edge17" class="edge">
<title>27&#45;&gt;32</title>
<path fill="none" stroke="grey" stroke-width="2" d="M191.54,-223.88C209.25,-214.55 231.35,-202.92 250.32,-192.94"/>
<polygon fill="grey" stroke="grey" stroke-width="2" points="252.12,-195.94 259.34,-188.19 248.86,-189.75 252.12,-195.94"/>
</g>
<!-- 27&#45;&gt;33 -->
<g id="edge18" class="edge">
<title>27&#45;&gt;33</title>
<path fill="none" stroke="grey" stroke-width="2" d="M160.21,-223.87C161.91,-199.67 165.04,-155.21 167.07,-126.39"/>
<polygon fill="grey" stroke="grey" stroke-width="2" points="170.58,-126.41 167.79,-116.19 163.6,-125.92 170.58,-126.41"/>
</g>
<!-- 30 -->
<g id="node14" class="node">
<title>30</title>
<path fill="none" stroke="#56d8c9" stroke-width="2" d="M718,-188C718,-188 652,-188 652,-188 646,-188 640,-182 640,-176 640,-176 640,-164 640,-164 640,-158 646,-152 652,-152 652,-152 718,-152 718,-152 724,-152 730,-158 730,-164 730,-164 730,-176 730,-176 730,-182 724,-188 718,-188"/>
<text text-anchor="middle" x="685" y="-167.5" font-family="sans" font-size="10.00">nii_to_label_gii</text>
</g>
<!-- 30&#45;&gt;2 -->
<g id="edge22" class="edge">
<title>30&#45;&gt;2</title>
<path fill="none" stroke="grey" stroke-width="2" d="M639.98,-157.99C631.37,-155.95 622.41,-153.87 614,-152 551.02,-138 479.09,-123.33 427.21,-112.98"/>
<polygon fill="grey" stroke="grey" stroke-width="2" points="427.6,-109.49 417.11,-110.97 426.23,-116.36 427.6,-109.49"/>
</g>
<!-- 31 -->
<g id="node15" class="node">
<title>31</title>
<path fill="none" stroke="#56d873" stroke-width="2" d="M756,-260C756,-260 640,-260 640,-260 634,-260 628,-254 628,-248 628,-248 628,-236 628,-236 628,-230 634,-224 640,-224 640,-224 756,-224 756,-224 762,-224 768,-230 768,-236 768,-236 768,-248 768,-248 768,-254 762,-260 756,-260"/>
<text text-anchor="middle" x="698" y="-239.5" font-family="sans" font-size="10.00">resample_atlas_to_refvol</text>
</g>
<!-- 31&#45;&gt;30 -->
<g id="edge23" class="edge">
<title>31&#45;&gt;30</title>
<path fill="none" stroke="grey" stroke-width="2" d="M694.79,-223.7C693.35,-215.98 691.63,-206.71 690.04,-198.11"/>
<polygon fill="grey" stroke="grey" stroke-width="2" points="693.44,-197.3 688.18,-188.1 686.56,-198.58 693.44,-197.3"/>
</g>
<!-- 7 -->
<g id="node16" class="node">
<title>7</title>
<path fill="none" stroke="#565bd8" stroke-width="2" d="M864,-548C864,-548 780,-548 780,-548 774,-548 768,-542 768,-536 768,-536 768,-524 768,-524 768,-518 774,-512 780,-512 780,-512 864,-512 864,-512 870,-512 876,-518 876,-524 876,-524 876,-536 876,-536 876,-542 870,-548 864,-548"/>
<text text-anchor="middle" x="822" y="-527.5" font-family="sans" font-size="10.00">create_warps_hipp</text>
</g>
<!-- 7&#45;&gt;6 -->
<g id="edge27" class="edge">
<title>7&#45;&gt;6</title>
<path fill="none" stroke="grey" stroke-width="2" d="M790.69,-511.88C773.8,-502.64 752.75,-491.13 734.62,-481.21"/>
<polygon fill="grey" stroke="grey" stroke-width="2" points="735.89,-477.92 725.43,-476.19 732.53,-484.06 735.89,-477.92"/>
</g>
<!-- 8 -->
<g id="node17" class="node">
<title>8</title>
<path fill="none" stroke="#59d856" stroke-width="2" d="M928,-620C928,-620 850,-620 850,-620 844,-620 838,-614 838,-608 838,-608 838,-596 838,-596 838,-590 844,-584 850,-584 850,-584 928,-584 928,-584 934,-584 940,-590 940,-596 940,-596 940,-608 940,-608 940,-614 934,-620 928,-620"/>
<text text-anchor="middle" x="889" y="-599.5" font-family="sans" font-size="10.00">create_unfold_ref</text>
</g>
<!-- 8&#45;&gt;25 -->
<g id="edge29" class="edge">
<title>8&#45;&gt;25</title>
<path fill="none" stroke="grey" stroke-width="2" d="M839.36,-583.97C810.73,-574.14 774.55,-561.73 744.42,-551.39"/>
<polygon fill="grey" stroke="grey" stroke-width="2" points="745.46,-548.05 734.87,-548.11 743.19,-554.67 745.46,-548.05"/>
</g>
<!-- 8&#45;&gt;31 -->
<g id="edge30" class="edge">
<title>8&#45;&gt;31</title>
<path fill="none" stroke="grey" stroke-width="2" d="M940.33,-593.98C970.4,-587.2 1006.73,-573.93 1029,-548 1055.35,-517.32 1048,-499.45 1048,-459 1048,-459 1048,-459 1048,-385 1048,-327.11 881.53,-281.53 778.2,-258.81"/>
<polygon fill="grey" stroke="grey" stroke-width="2" points="778.92,-255.39 768.41,-256.69 777.44,-262.23 778.92,-255.39"/>
</g>
<!-- 8&#45;&gt;7 -->
<g id="edge28" class="edge">
<title>8&#45;&gt;7</title>
<path fill="none" stroke="grey" stroke-width="2" d="M872.44,-583.7C864.32,-575.22 854.41,-564.86 845.53,-555.58"/>
<polygon fill="grey" stroke="grey" stroke-width="2" points="847.81,-552.91 838.37,-548.1 842.76,-557.75 847.81,-552.91"/>
</g>
<!-- 34 -->
<g id="node18" class="node">
<title>34</title>
<path fill="none" stroke="#5692d8" stroke-width="2" d="M1007.5,-548C1007.5,-548 906.5,-548 906.5,-548 900.5,-548 894.5,-542 894.5,-536 894.5,-536 894.5,-524 894.5,-524 894.5,-518 900.5,-512 906.5,-512 906.5,-512 1007.5,-512 1007.5,-512 1013.5,-512 1019.5,-518 1019.5,-524 1019.5,-524 1019.5,-536 1019.5,-536 1019.5,-542 1013.5,-548 1007.5,-548"/>
<text text-anchor="middle" x="957" y="-527.5" font-family="sans" font-size="10.00">create_warps_dentate</text>
</g>
<!-- 8&#45;&gt;34 -->
<g id="edge31" class="edge">
<title>8&#45;&gt;34</title>
<path fill="none" stroke="grey" stroke-width="2" d="M905.81,-583.7C914.13,-575.14 924.31,-564.66 933.39,-555.3"/>
<polygon fill="grey" stroke="grey" stroke-width="2" points="935.93,-557.72 940.38,-548.1 930.91,-552.84 935.93,-557.72"/>
</g>
<!-- 34&#45;&gt;6 -->
<g id="edge32" class="edge">
<title>34&#45;&gt;6</title>
<path fill="none" stroke="grey" stroke-width="2" d="M894.34,-512.32C856.3,-502.2 807.56,-489.23 767.68,-478.61"/>
<polygon fill="grey" stroke="grey" stroke-width="2" points="768.57,-475.23 758.01,-476.04 766.77,-481.99 768.57,-475.23"/>
</g>
</g>
</svg>
