<?xml version="1.0" encoding="UTF-8" standalone="no"?>
<!DOCTYPE svg PUBLIC "-//W3C//DTD SVG 1.1//EN"
 "http://www.w3.org/Graphics/SVG/1.1/DTD/svg11.dtd">
<!-- Generated by graphviz version 2.43.0 (0)
 -->
<!-- Pages: 1 -->
<svg width="753pt" height="268pt"
 viewBox="0.00 0.00 752.56 268.00" xmlns="http://www.w3.org/2000/svg" xmlns:xlink="http://www.w3.org/1999/xlink">
<g id="graph0" class="graph" transform="scale(1 1) rotate(0) translate(4 264)">
<polygon fill="white" stroke="transparent" points="-4,4 -4,-264 748.56,-264 748.56,4 -4,4"/>
<g id="clust1" class="cluster">
<title>cluster_0</title>
<polygon fill="white" stroke="blue" points="173.56,-8 173.56,-67 601.56,-67 601.56,-8 173.56,-8"/>
<text text-anchor="middle" x="387.56" y="-51.8" font-family="Times,serif" font-size="14.00">common</text>
</g>
<!-- 36 -->
<g id="node1" class="node">
<title>36</title>
<path fill="none" stroke="#68d856" stroke-width="2" d="M589.56,-44C589.56,-44 471.56,-44 471.56,-44 465.56,-44 459.56,-38 459.56,-32 459.56,-32 459.56,-20 459.56,-20 459.56,-14 465.56,-8 471.56,-8 471.56,-8 589.56,-8 589.56,-8 595.56,-8 601.56,-14 601.56,-20 601.56,-20 601.56,-32 601.56,-32 601.56,-38 595.56,-44 589.56,-44"/>
<text text-anchor="middle" x="530.56" y="-23.5" font-family="sans" font-size="10.00">copy_subfields_to_results</text>
</g>
<!-- 40 -->
<g id="node2" class="node">
<title>40</title>
<path fill="none" stroke="#88d856" stroke-width="2" d="M293.06,-44C293.06,-44 186.06,-44 186.06,-44 180.06,-44 174.06,-38 174.06,-32 174.06,-32 174.06,-20 174.06,-20 174.06,-14 180.06,-8 186.06,-8 186.06,-8 293.06,-8 293.06,-8 299.06,-8 305.06,-14 305.06,-20 305.06,-20 305.06,-32 305.06,-32 305.06,-38 299.06,-44 293.06,-44"/>
<text text-anchor="middle" x="239.56" y="-23.5" font-family="sans" font-size="10.00">copy_coords_to_results</text>
</g>
<!-- 41 -->
<g id="node3" class="node">
<title>41</title>
<path fill="none" stroke="#56b9d8" stroke-width="2" d="M429.56,-44C429.56,-44 335.56,-44 335.56,-44 329.56,-44 323.56,-38 323.56,-32 323.56,-32 323.56,-20 323.56,-20 323.56,-14 329.56,-8 335.56,-8 335.56,-8 429.56,-8 429.56,-8 435.56,-8 441.56,-14 441.56,-20 441.56,-20 441.56,-32 441.56,-32 441.56,-38 435.56,-44 429.56,-44"/>
<text text-anchor="middle" x="382.56" y="-23.5" font-family="sans" font-size="10.00">copy_xfm_to_results</text>
</g>
<!-- 7 -->
<g id="node4" class="node">
<title>7</title>
<path fill="none" stroke="#565bd8" stroke-width="2" d="M288.56,-116C288.56,-116 204.56,-116 204.56,-116 198.56,-116 192.56,-110 192.56,-104 192.56,-104 192.56,-92 192.56,-92 192.56,-86 198.56,-80 204.56,-80 204.56,-80 288.56,-80 288.56,-80 294.56,-80 300.56,-86 300.56,-92 300.56,-92 300.56,-104 300.56,-104 300.56,-110 294.56,-116 288.56,-116"/>
<text text-anchor="middle" x="246.56" y="-95.5" font-family="sans" font-size="10.00">create_warps_hipp</text>
</g>
<!-- 7&#45;&gt;41 -->
<g id="edge1" class="edge">
<title>7&#45;&gt;41</title>
<path fill="none" stroke="grey" stroke-width="2" d="M286.56,-79.91C295.53,-75.85 304.93,-71.41 313.56,-67 324.23,-61.53 335.58,-55.19 345.93,-49.18"/>
<polygon fill="grey" stroke="grey" stroke-width="2" points="347.87,-52.1 354.72,-44.02 344.33,-46.06 347.87,-52.1"/>
</g>
<!-- 10 -->
<g id="node5" class="node">
<title>10</title>
<path fill="none" stroke="#d8bc56" stroke-width="2" d="M338.06,-188C338.06,-188 281.06,-188 281.06,-188 275.06,-188 269.06,-182 269.06,-176 269.06,-176 269.06,-164 269.06,-164 269.06,-158 275.06,-152 281.06,-152 281.06,-152 338.06,-152 338.06,-152 344.06,-152 350.06,-158 350.06,-164 350.06,-164 350.06,-176 350.06,-176 350.06,-182 344.06,-188 338.06,-188"/>
<text text-anchor="middle" x="309.56" y="-167.5" font-family="sans" font-size="10.00">unflip_coords</text>
</g>
<!-- 10&#45;&gt;40 -->
<g id="edge4" class="edge">
<title>10&#45;&gt;40</title>
<path fill="none" stroke="grey" stroke-width="2" d="M313.86,-151.91C317.62,-133.2 320.91,-102.83 309.56,-80 303.55,-67.93 293.34,-57.87 282.55,-49.88"/>
<polygon fill="grey" stroke="grey" stroke-width="2" points="284.46,-46.95 274.24,-44.17 280.5,-52.71 284.46,-46.95"/>
</g>
<!-- 10&#45;&gt;7 -->
<g id="edge2" class="edge">
<title>10&#45;&gt;7</title>
<path fill="none" stroke="grey" stroke-width="2" d="M293.98,-151.7C286.35,-143.22 277.03,-132.86 268.68,-123.58"/>
<polygon fill="grey" stroke="grey" stroke-width="2" points="271.24,-121.2 261.95,-116.1 266.04,-125.88 271.24,-121.2"/>
</g>
<!-- 34 -->
<g id="node6" class="node">
<title>34</title>
<path fill="none" stroke="#5692d8" stroke-width="2" d="M508.06,-116C508.06,-116 407.06,-116 407.06,-116 401.06,-116 395.06,-110 395.06,-104 395.06,-104 395.06,-92 395.06,-92 395.06,-86 401.06,-80 407.06,-80 407.06,-80 508.06,-80 508.06,-80 514.06,-80 520.06,-86 520.06,-92 520.06,-92 520.06,-104 520.06,-104 520.06,-110 514.06,-116 508.06,-116"/>
<text text-anchor="middle" x="457.56" y="-95.5" font-family="sans" font-size="10.00">create_warps_dentate</text>
</g>
<!-- 10&#45;&gt;34 -->
<g id="edge3" class="edge">
<title>10&#45;&gt;34</title>
<path fill="none" stroke="grey" stroke-width="2" d="M345.76,-151.88C365.81,-142.39 390.93,-130.51 412.27,-120.42"/>
<polygon fill="grey" stroke="grey" stroke-width="2" points="413.92,-123.51 421.47,-116.07 410.93,-117.18 413.92,-123.51"/>
</g>
<!-- 34&#45;&gt;41 -->
<g id="edge13" class="edge">
<title>34&#45;&gt;41</title>
<path fill="none" stroke="grey" stroke-width="2" d="M439.02,-79.7C429.75,-71.05 418.39,-60.45 408.3,-51.03"/>
<polygon fill="grey" stroke="grey" stroke-width="2" points="410.58,-48.37 400.88,-44.1 405.8,-53.49 410.58,-48.37"/>
</g>
<!-- 11 -->
<g id="node7" class="node">
<title>11</title>
<path fill="none" stroke="#d8a456" stroke-width="2" d="M284.56,-260C284.56,-260 192.56,-260 192.56,-260 186.56,-260 180.56,-254 180.56,-248 180.56,-248 180.56,-236 180.56,-236 180.56,-230 186.56,-224 192.56,-224 192.56,-224 284.56,-224 284.56,-224 290.56,-224 296.56,-230 296.56,-236 296.56,-236 296.56,-248 296.56,-248 296.56,-254 290.56,-260 284.56,-260"/>
<text text-anchor="middle" x="238.56" y="-239.5" font-family="sans" font-size="10.00">laplace_coords_hipp</text>
</g>
<!-- 11&#45;&gt;40 -->
<g id="edge7" class="edge">
<title>11&#45;&gt;40</title>
<path fill="none" stroke="grey" stroke-width="2" d="M224.33,-223.75C201.55,-193.93 161.6,-131.01 183.56,-80 188.34,-68.87 196.75,-58.99 205.61,-50.86"/>
<polygon fill="grey" stroke="grey" stroke-width="2" points="208.1,-53.34 213.43,-44.18 203.55,-48.01 208.1,-53.34"/>
</g>
<!-- 11&#45;&gt;7 -->
<g id="edge5" class="edge">
<title>11&#45;&gt;7</title>
<path fill="none" stroke="grey" stroke-width="2" d="M239.52,-223.87C240.88,-199.67 243.39,-155.21 245.01,-126.39"/>
<polygon fill="grey" stroke="grey" stroke-width="2" points="248.52,-126.37 245.59,-116.19 241.53,-125.98 248.52,-126.37"/>
</g>
<!-- 11&#45;&gt;10 -->
<g id="edge6" class="edge">
<title>11&#45;&gt;10</title>
<path fill="none" stroke="grey" stroke-width="2" d="M256.11,-223.7C264.79,-215.14 275.42,-204.66 284.9,-195.3"/>
<polygon fill="grey" stroke="grey" stroke-width="2" points="287.54,-197.62 292.21,-188.1 282.63,-192.63 287.54,-197.62"/>
</g>
<!-- 21 -->
<g id="node8" class="node">
<title>21</title>
<path fill="none" stroke="#56d892" stroke-width="2" d="M124.56,-188C124.56,-188 26.56,-188 26.56,-188 20.56,-188 14.56,-182 14.56,-176 14.56,-176 14.56,-164 14.56,-164 14.56,-158 20.56,-152 26.56,-152 26.56,-152 124.56,-152 124.56,-152 130.56,-152 136.56,-158 136.56,-164 136.56,-164 136.56,-176 136.56,-176 136.56,-182 130.56,-188 124.56,-188"/>
<text text-anchor="middle" x="75.56" y="-167.5" font-family="sans" font-size="10.00">unflip_coords_equivol</text>
</g>
<!-- 21&#45;&gt;40 -->
<g id="edge9" class="edge">
<title>21&#45;&gt;40</title>
<path fill="none" stroke="grey" stroke-width="2" d="M87.37,-151.78C101.04,-132.68 124.98,-101.71 150.56,-80 164.18,-68.43 180.64,-57.86 195.68,-49.25"/>
<polygon fill="grey" stroke="grey" stroke-width="2" points="197.79,-52.08 204.82,-44.16 194.38,-45.97 197.79,-52.08"/>
</g>
<!-- 21&#45;&gt;7 -->
<g id="edge8" class="edge">
<title>21&#45;&gt;7</title>
<path fill="none" stroke="grey" stroke-width="2" d="M117.39,-151.88C140.97,-142.22 170.62,-130.09 195.55,-119.88"/>
<polygon fill="grey" stroke="grey" stroke-width="2" points="196.93,-123.1 204.86,-116.07 194.28,-116.62 196.93,-123.1"/>
</g>
<!-- 22 -->
<g id="node9" class="node">
<title>22</title>
<path fill="none" stroke="#56d8d8" stroke-width="2" d="M119.56,-260C119.56,-260 31.56,-260 31.56,-260 25.56,-260 19.56,-254 19.56,-248 19.56,-248 19.56,-236 19.56,-236 19.56,-230 25.56,-224 31.56,-224 31.56,-224 119.56,-224 119.56,-224 125.56,-224 131.56,-230 131.56,-236 131.56,-236 131.56,-248 131.56,-248 131.56,-254 125.56,-260 119.56,-260"/>
<text text-anchor="middle" x="75.56" y="-239.5" font-family="sans" font-size="10.00">equivolume_coords</text>
</g>
<!-- 22&#45;&gt;40 -->
<g id="edge12" class="edge">
<title>22&#45;&gt;40</title>
<path fill="none" stroke="grey" stroke-width="2" d="M40.87,-223.83C27.25,-215.13 13.09,-203.15 5.56,-188 -1.57,-173.67 -1.99,-166.11 5.56,-152 37.18,-92.91 108.46,-60.61 164.09,-43.73"/>
<polygon fill="grey" stroke="grey" stroke-width="2" points="165.31,-47.02 173.93,-40.86 163.35,-40.3 165.31,-47.02"/>
</g>
<!-- 22&#45;&gt;7 -->
<g id="edge10" class="edge">
<title>22&#45;&gt;7</title>
<path fill="none" stroke="grey" stroke-width="2" d="M98.9,-224C112.67,-213.8 130.33,-200.44 145.56,-188 171.6,-166.72 200.27,-141.24 220.4,-123.01"/>
<polygon fill="grey" stroke="grey" stroke-width="2" points="222.89,-125.48 227.93,-116.16 218.18,-120.3 222.89,-125.48"/>
</g>
<!-- 22&#45;&gt;21 -->
<g id="edge11" class="edge">
<title>22&#45;&gt;21</title>
<path fill="none" stroke="grey" stroke-width="2" d="M75.56,-223.7C75.56,-215.98 75.56,-206.71 75.56,-198.11"/>
<polygon fill="grey" stroke="grey" stroke-width="2" points="79.06,-198.1 75.56,-188.1 72.06,-198.1 79.06,-198.1"/>
</g>
<!-- 35 -->
<g id="node10" class="node">
<title>35</title>
<path fill="none" stroke="#80d856" stroke-width="2" d="M434.56,-260C434.56,-260 326.56,-260 326.56,-260 320.56,-260 314.56,-254 314.56,-248 314.56,-248 314.56,-236 314.56,-236 314.56,-230 320.56,-224 326.56,-224 326.56,-224 434.56,-224 434.56,-224 440.56,-224 446.56,-230 446.56,-236 446.56,-236 446.56,-248 446.56,-248 446.56,-254 440.56,-260 434.56,-260"/>
<text text-anchor="middle" x="380.56" y="-239.5" font-family="sans" font-size="10.00">laplace_coords_dentate</text>
</g>
<!-- 35&#45;&gt;40 -->
<g id="edge16" class="edge">
<title>35&#45;&gt;40</title>
<path fill="none" stroke="grey" stroke-width="2" d="M379.24,-223.82C375.95,-191.84 364.71,-122.56 327.56,-80 316.78,-67.66 302.4,-57.35 288.4,-49.2"/>
<polygon fill="grey" stroke="grey" stroke-width="2" points="289.74,-45.94 279.29,-44.16 286.35,-52.06 289.74,-45.94"/>
</g>
<!-- 35&#45;&gt;10 -->
<g id="edge14" class="edge">
<title>35&#45;&gt;10</title>
<path fill="none" stroke="grey" stroke-width="2" d="M363,-223.7C354.32,-215.14 343.69,-204.66 334.21,-195.3"/>
<polygon fill="grey" stroke="grey" stroke-width="2" points="336.48,-192.63 326.9,-188.1 331.57,-197.62 336.48,-192.63"/>
</g>
<!-- 35&#45;&gt;34 -->
<g id="edge15" class="edge">
<title>35&#45;&gt;34</title>
<path fill="none" stroke="grey" stroke-width="2" d="M389.84,-223.87C403.14,-199.35 427.71,-154.03 443.32,-125.26"/>
<polygon fill="grey" stroke="grey" stroke-width="2" points="446.54,-126.65 448.23,-116.19 440.39,-123.31 446.54,-126.65"/>
</g>
<!-- 37 -->
<g id="node11" class="node">
<title>37</title>
<path fill="none" stroke="#5673d8" stroke-width="2" d="M732.56,-116C732.56,-116 550.56,-116 550.56,-116 544.56,-116 538.56,-110 538.56,-104 538.56,-104 538.56,-92 538.56,-92 538.56,-86 544.56,-80 550.56,-80 550.56,-80 732.56,-80 732.56,-80 738.56,-80 744.56,-86 744.56,-92 744.56,-92 744.56,-104 744.56,-104 744.56,-110 738.56,-116 732.56,-116"/>
<text text-anchor="middle" x="641.56" y="-95.5" font-family="sans" font-size="10.00">combine_tissue_subfield_labels_corobl</text>
</g>
<!-- 37&#45;&gt;36 -->
<g id="edge17" class="edge">
<title>37&#45;&gt;36</title>
<path fill="none" stroke="grey" stroke-width="2" d="M614.4,-79.88C600.02,-70.81 582.17,-59.55 566.65,-49.76"/>
<polygon fill="grey" stroke="grey" stroke-width="2" points="568.14,-46.56 557.81,-44.19 564.41,-52.48 568.14,-46.56"/>
</g>
</g>
</svg>
