<?xml version="1.0" encoding="UTF-8" standalone="no"?>
<!DOCTYPE svg PUBLIC "-//W3C//DTD SVG 1.1//EN"
 "http://www.w3.org/Graphics/SVG/1.1/DTD/svg11.dtd">
<!-- Generated by graphviz version 2.43.0 (0)
 -->
<!-- Pages: 1 -->
<svg width="178pt" height="196pt"
 viewBox="0.00 0.00 178.00 196.00" xmlns="http://www.w3.org/2000/svg" xmlns:xlink="http://www.w3.org/1999/xlink">
<g id="graph0" class="graph" transform="scale(1 1) rotate(0) translate(4 192)">
<polygon fill="white" stroke="transparent" points="-4,4 -4,-192 174,-192 174,4 -4,4"/>
<g id="clust1" class="cluster">
<title>cluster_0</title>
<polygon fill="white" stroke="blue" points="44,-8 44,-67 128,-67 128,-8 44,-8"/>
<text text-anchor="middle" x="86" y="-51.8" font-family="Times,serif" font-size="14.00">nnunet</text>
</g>
<!-- 15 -->
<g id="node1" class="node">
<title>15</title>
<path fill="none" stroke="#8fd856" stroke-width="2" d="M115.5,-44C115.5,-44 56.5,-44 56.5,-44 50.5,-44 44.5,-38 44.5,-32 44.5,-32 44.5,-20 44.5,-20 44.5,-14 50.5,-8 56.5,-8 56.5,-8 115.5,-8 115.5,-8 121.5,-8 127.5,-14 127.5,-20 127.5,-20 127.5,-32 127.5,-32 127.5,-38 121.5,-44 115.5,-44"/>
<text text-anchor="middle" x="86" y="-23.5" font-family="sans" font-size="10.00">run_inference</text>
</g>
<!-- 16 -->
<g id="node2" class="node">
<title>16</title>
<path fill="none" stroke="#56d863" stroke-width="2" d="M142.5,-116C142.5,-116 93.5,-116 93.5,-116 87.5,-116 81.5,-110 81.5,-104 81.5,-104 81.5,-92 81.5,-92 81.5,-86 87.5,-80 93.5,-80 93.5,-80 142.5,-80 142.5,-80 148.5,-80 154.5,-86 154.5,-92 154.5,-92 154.5,-104 154.5,-104 154.5,-110 148.5,-116 142.5,-116"/>
<text text-anchor="middle" x="118" y="-95.5" font-family="sans" font-size="10.00">lr_flip_b500</text>
</g>
<!-- 16&#45;&gt;15 -->
<g id="edge1" class="edge">
<title>16&#45;&gt;15</title>
<path fill="none" stroke="grey" stroke-width="2" d="M110.09,-79.7C106.45,-71.73 102.05,-62.1 98.01,-53.26"/>
<polygon fill="grey" stroke="grey" stroke-width="2" points="101.16,-51.74 93.82,-44.1 94.79,-54.65 101.16,-51.74"/>
</g>
<!-- 17 -->
<g id="node3" class="node">
<title>17</title>
<path fill="none" stroke="#56b9d8" stroke-width="2" d="M158,-188C158,-188 12,-188 12,-188 6,-188 0,-182 0,-176 0,-176 0,-164 0,-164 0,-158 6,-152 12,-152 12,-152 158,-152 158,-152 164,-152 170,-158 170,-164 170,-164 170,-176 170,-176 170,-182 164,-188 158,-188"/>
<text text-anchor="middle" x="85" y="-167.5" font-family="sans" font-size="10.00">resample_hippdwi_to_template</text>
</g>
<!-- 17&#45;&gt;15 -->
<g id="edge2" class="edge">
<title>17&#45;&gt;15</title>
<path fill="none" stroke="grey" stroke-width="2" d="M80.13,-151.98C77.44,-141.67 74.36,-128.19 73,-116 71.22,-100.1 71.08,-95.88 73,-80 74.02,-71.53 75.93,-62.47 77.98,-54.28"/>
<polygon fill="grey" stroke="grey" stroke-width="2" points="81.4,-55.03 80.59,-44.47 74.64,-53.23 81.4,-55.03"/>
</g>
<!-- 17&#45;&gt;16 -->
<g id="edge3" class="edge">
<title>17&#45;&gt;16</title>
<path fill="none" stroke="grey" stroke-width="2" d="M93.16,-151.7C96.91,-143.73 101.45,-134.1 105.62,-125.26"/>
<polygon fill="grey" stroke="grey" stroke-width="2" points="108.84,-126.64 109.94,-116.1 102.51,-123.66 108.84,-126.64"/>
</g>
</g>
</svg>
