<?xml version="1.0" encoding="UTF-8" standalone="no"?>
<!DOCTYPE svg PUBLIC "-//W3C//DTD SVG 1.1//EN"
 "http://www.w3.org/Graphics/SVG/1.1/DTD/svg11.dtd">
<!-- Generated by graphviz version 2.43.0 (0)
 -->
<!-- Pages: 1 -->
<svg width="1971pt" height="1371pt"
 viewBox="0.00 0.00 1970.75 1371.00" xmlns="http://www.w3.org/2000/svg" xmlns:xlink="http://www.w3.org/1999/xlink">
<g id="graph0" class="graph" transform="scale(1 1) rotate(0) translate(4 1367)">
<polygon fill="white" stroke="transparent" points="-4,4 -4,-1367 1966.75,-1367 1966.75,4 -4,4"/>
<g id="clust1" class="cluster">
<title>cluster_5</title>
<polygon fill="white" stroke="blue" points="1220.75,-648 1220.75,-851 1644.75,-851 1644.75,-648 1220.75,-648"/>
<text text-anchor="middle" x="1432.75" y="-835.8" font-family="Times,serif" font-size="14.00">autotop</text>
</g>
<g id="clust2" class="cluster">
<title>cluster_2</title>
<polygon fill="white" stroke="blue" points="848.75,-576 848.75,-779 1184.75,-779 1184.75,-576 848.75,-576"/>
<text text-anchor="middle" x="1016.75" y="-763.8" font-family="Times,serif" font-size="14.00">warps</text>
</g>
<g id="clust3" class="cluster">
<title>cluster_0</title>
<polygon fill="white" stroke="blue" points="1365.75,-1224 1365.75,-1355 1574.75,-1355 1574.75,-1224 1365.75,-1224"/>
<text text-anchor="middle" x="1470.25" y="-1339.8" font-family="Times,serif" font-size="14.00">preproc_hippb500</text>
</g>
<g id="clust6" class="cluster">
<title>cluster_9</title>
<polygon fill="white" stroke="blue" points="88.75,-72 88.75,-707 848.75,-707 848.75,-72 88.75,-72"/>
<text text-anchor="middle" x="468.75" y="-691.8" font-family="Times,serif" font-size="14.00">gifti</text>
</g>
<g id="clust7" class="cluster">
<title>cluster_3</title>
<polygon fill="white" stroke="blue" points="895.75,-72 895.75,-203 1225.75,-203 1225.75,-72 895.75,-72"/>
<text text-anchor="middle" x="1060.75" y="-187.8" font-family="Times,serif" font-size="14.00">qc</text>
</g>
<g id="clust12" class="cluster">
<title>cluster_10</title>
<polygon fill="white" stroke="blue" points="1644.75,-792 1644.75,-1211 1934.75,-1211 1934.75,-792 1644.75,-792"/>
<text text-anchor="middle" x="1789.75" y="-1195.8" font-family="Times,serif" font-size="14.00">shape_inject</text>
</g>
<g id="clust13" class="cluster">
<title>cluster_12</title>
<polygon fill="white" stroke="blue" points="1560.75,-1152 1560.75,-1211 1644.75,-1211 1644.75,-1152 1560.75,-1152"/>
<text text-anchor="middle" x="1602.75" y="-1195.8" font-family="Times,serif" font-size="14.00">nnunet</text>
</g>
<g id="clust14" class="cluster">
<title>cluster_11</title>
<polygon fill="white" stroke="blue" points="1684.75,-288 1684.75,-419 1896.75,-419 1896.75,-288 1684.75,-288"/>
<text text-anchor="middle" x="1790.75" y="-403.8" font-family="Times,serif" font-size="14.00">subfields</text>
</g>
<g id="clust15" class="cluster">
<title>cluster_14</title>
<polygon fill="white" stroke="blue" points="1194.75,-216 1194.75,-275 1622.75,-275 1622.75,-216 1194.75,-216"/>
<text text-anchor="middle" x="1408.75" y="-259.8" font-family="Times,serif" font-size="14.00">common</text>
</g>
<!-- 10 -->
<g id="node1" class="node">
<title>10</title>
<path fill="none" stroke="#d8bc56" stroke-width="2" d="M1386.25,-756C1386.25,-756 1329.25,-756 1329.25,-756 1323.25,-756 1317.25,-750 1317.25,-744 1317.25,-744 1317.25,-732 1317.25,-732 1317.25,-726 1323.25,-720 1329.25,-720 1329.25,-720 1386.25,-720 1386.25,-720 1392.25,-720 1398.25,-726 1398.25,-732 1398.25,-732 1398.25,-744 1398.25,-744 1398.25,-750 1392.25,-756 1386.25,-756"/>
<text text-anchor="middle" x="1357.75" y="-735.5" font-family="sans" font-size="10.00">unflip_coords</text>
</g>
<!-- 7 -->
<g id="node7" class="node">
<title>7</title>
<path fill="none" stroke="#565bd8" stroke-width="2" d="M1172.75,-612C1172.75,-612 1088.75,-612 1088.75,-612 1082.75,-612 1076.75,-606 1076.75,-600 1076.75,-600 1076.75,-588 1076.75,-588 1076.75,-582 1082.75,-576 1088.75,-576 1088.75,-576 1172.75,-576 1172.75,-576 1178.75,-576 1184.75,-582 1184.75,-588 1184.75,-588 1184.75,-600 1184.75,-600 1184.75,-606 1178.75,-612 1172.75,-612"/>
<text text-anchor="middle" x="1130.75" y="-591.5" font-family="sans" font-size="10.00">create_warps_hipp</text>
</g>
<!-- 10&#45;&gt;7 -->
<g id="edge56" class="edge">
<title>10&#45;&gt;7</title>
<path fill="none" stroke="grey" stroke-width="2" d="M1351.43,-719.65C1343.23,-699.55 1327.04,-666.77 1302.75,-648 1271.7,-624 1229.72,-610.79 1195,-603.56"/>
<polygon fill="grey" stroke="grey" stroke-width="2" points="1195.44,-600.08 1184.95,-601.59 1194.09,-606.95 1195.44,-600.08"/>
</g>
<!-- 34 -->
<g id="node10" class="node">
<title>34</title>
<path fill="none" stroke="#5692d8" stroke-width="2" d="M1046.25,-612C1046.25,-612 945.25,-612 945.25,-612 939.25,-612 933.25,-606 933.25,-600 933.25,-600 933.25,-588 933.25,-588 933.25,-582 939.25,-576 945.25,-576 945.25,-576 1046.25,-576 1046.25,-576 1052.25,-576 1058.25,-582 1058.25,-588 1058.25,-588 1058.25,-600 1058.25,-600 1058.25,-606 1052.25,-612 1046.25,-612"/>
<text text-anchor="middle" x="995.75" y="-591.5" font-family="sans" font-size="10.00">create_warps_dentate</text>
</g>
<!-- 10&#45;&gt;34 -->
<g id="edge58" class="edge">
<title>10&#45;&gt;34</title>
<path fill="none" stroke="grey" stroke-width="2" d="M1321.18,-719.96C1313.59,-716 1305.78,-711.59 1298.75,-707 1264.11,-684.38 1263.92,-666.17 1226.75,-648 1164.45,-617.55 1140.43,-627.36 1068.55,-612.08"/>
<polygon fill="grey" stroke="grey" stroke-width="2" points="1069.1,-608.62 1058.57,-609.87 1067.58,-615.45 1069.1,-608.62"/>
</g>
<!-- 24 -->
<g id="node11" class="node">
<title>24</title>
<path fill="none" stroke="#56d8b9" stroke-width="2" d="M1172.75,-684C1172.75,-684 1062.75,-684 1062.75,-684 1056.75,-684 1050.75,-678 1050.75,-672 1050.75,-672 1050.75,-660 1050.75,-660 1050.75,-654 1056.75,-648 1062.75,-648 1062.75,-648 1172.75,-648 1172.75,-648 1178.75,-648 1184.75,-654 1184.75,-660 1184.75,-660 1184.75,-672 1184.75,-672 1184.75,-678 1178.75,-684 1172.75,-684"/>
<text text-anchor="middle" x="1117.75" y="-663.5" font-family="sans" font-size="10.00">create_native_coord_ref</text>
</g>
<!-- 10&#45;&gt;24 -->
<g id="edge57" class="edge">
<title>10&#45;&gt;24</title>
<path fill="none" stroke="grey" stroke-width="2" d="M1317.17,-730.3C1288.73,-725.14 1250.02,-717.17 1216.75,-707 1199.56,-701.74 1181.19,-694.73 1165,-688.04"/>
<polygon fill="grey" stroke="grey" stroke-width="2" points="1166.32,-684.8 1155.75,-684.16 1163.61,-691.26 1166.32,-684.8"/>
</g>
<!-- 39 -->
<g id="node43" class="node">
<title>39</title>
<path fill="none" stroke="#d89556" stroke-width="2" d="M1884.25,-396C1884.25,-396 1697.25,-396 1697.25,-396 1691.25,-396 1685.25,-390 1685.25,-384 1685.25,-384 1685.25,-372 1685.25,-372 1685.25,-366 1691.25,-360 1697.25,-360 1697.25,-360 1884.25,-360 1884.25,-360 1890.25,-360 1896.25,-366 1896.25,-372 1896.25,-372 1896.25,-384 1896.25,-384 1896.25,-390 1890.25,-396 1884.25,-396"/>
<text text-anchor="middle" x="1790.75" y="-375.5" font-family="sans" font-size="10.00">label_subfields_from_vol_coords_corobl</text>
</g>
<!-- 10&#45;&gt;39 -->
<g id="edge59" class="edge">
<title>10&#45;&gt;39</title>
<path fill="none" stroke="grey" stroke-width="2" d="M1398.71,-732.59C1453.03,-726.47 1543.61,-715.22 1556.75,-707 1588.18,-687.33 1723.23,-461.45 1745.75,-432 1752.94,-422.6 1761.22,-412.64 1768.7,-403.91"/>
<polygon fill="grey" stroke="grey" stroke-width="2" points="1771.39,-406.15 1775.3,-396.3 1766.1,-401.56 1771.39,-406.15"/>
</g>
<!-- 40 -->
<g id="node45" class="node">
<title>40</title>
<path fill="none" stroke="#88d856" stroke-width="2" d="M1450.25,-252C1450.25,-252 1343.25,-252 1343.25,-252 1337.25,-252 1331.25,-246 1331.25,-240 1331.25,-240 1331.25,-228 1331.25,-228 1331.25,-222 1337.25,-216 1343.25,-216 1343.25,-216 1450.25,-216 1450.25,-216 1456.25,-216 1462.25,-222 1462.25,-228 1462.25,-228 1462.25,-240 1462.25,-240 1462.25,-246 1456.25,-252 1450.25,-252"/>
<text text-anchor="middle" x="1396.75" y="-231.5" font-family="sans" font-size="10.00">copy_coords_to_results</text>
</g>
<!-- 10&#45;&gt;40 -->
<g id="edge60" class="edge">
<title>10&#45;&gt;40</title>
<path fill="none" stroke="grey" stroke-width="2" d="M1398.54,-734.89C1441.94,-731.76 1506.66,-724.28 1523.75,-707 1559.26,-671.11 1542.75,-645.49 1542.75,-595 1542.75,-595 1542.75,-595 1542.75,-377 1542.75,-345.67 1472.81,-289.69 1429.75,-258.18"/>
<polygon fill="grey" stroke="grey" stroke-width="2" points="1431.67,-255.25 1421.52,-252.22 1427.57,-260.92 1431.67,-255.25"/>
</g>
<!-- 11 -->
<g id="node2" class="node">
<title>11</title>
<path fill="none" stroke="#d8a456" stroke-width="2" d="M1474.75,-828C1474.75,-828 1382.75,-828 1382.75,-828 1376.75,-828 1370.75,-822 1370.75,-816 1370.75,-816 1370.75,-804 1370.75,-804 1370.75,-798 1376.75,-792 1382.75,-792 1382.75,-792 1474.75,-792 1474.75,-792 1480.75,-792 1486.75,-798 1486.75,-804 1486.75,-804 1486.75,-816 1486.75,-816 1486.75,-822 1480.75,-828 1474.75,-828"/>
<text text-anchor="middle" x="1428.75" y="-807.5" font-family="sans" font-size="10.00">laplace_coords_hipp</text>
</g>
<!-- 11&#45;&gt;10 -->
<g id="edge1" class="edge">
<title>11&#45;&gt;10</title>
<path fill="none" stroke="grey" stroke-width="2" d="M1411.2,-791.7C1402.52,-783.14 1391.89,-772.66 1382.41,-763.3"/>
<polygon fill="grey" stroke="grey" stroke-width="2" points="1384.68,-760.63 1375.1,-756.1 1379.77,-765.62 1384.68,-760.63"/>
</g>
<!-- 11&#45;&gt;7 -->
<g id="edge61" class="edge">
<title>11&#45;&gt;7</title>
<path fill="none" stroke="grey" stroke-width="2" d="M1370.66,-794.23C1367.65,-793.47 1364.67,-792.73 1361.75,-792 1338.22,-786.13 1328.52,-793.05 1308.75,-779 1252.18,-738.79 1274.22,-695.64 1223.75,-648 1210.76,-635.74 1194.41,-625.21 1179.06,-616.84"/>
<polygon fill="grey" stroke="grey" stroke-width="2" points="1180.65,-613.73 1170.17,-612.17 1177.39,-619.92 1180.65,-613.73"/>
</g>
<!-- 11&#45;&gt;24 -->
<g id="edge62" class="edge">
<title>11&#45;&gt;24</title>
<path fill="none" stroke="grey" stroke-width="2" d="M1370.73,-793.9C1367.7,-793.23 1364.7,-792.59 1361.75,-792 1323.43,-784.29 1311,-793.65 1274.75,-779 1223.39,-758.25 1172.85,-717.54 1143.51,-691.34"/>
<polygon fill="grey" stroke="grey" stroke-width="2" points="1145.58,-688.49 1135.82,-684.36 1140.87,-693.67 1145.58,-688.49"/>
</g>
<!-- 11&#45;&gt;39 -->
<g id="edge63" class="edge">
<title>11&#45;&gt;39</title>
<path fill="none" stroke="grey" stroke-width="2" d="M1486.84,-793.69C1490.18,-793.06 1493.5,-792.49 1496.75,-792 1524.26,-787.89 1724.85,-796.14 1746.75,-779 1787.72,-746.94 1780.75,-719.02 1780.75,-667 1780.75,-667 1780.75,-667 1780.75,-521 1780.75,-480.9 1784.77,-434.58 1787.71,-406.04"/>
<polygon fill="grey" stroke="grey" stroke-width="2" points="1791.2,-406.34 1788.78,-396.02 1784.24,-405.6 1791.2,-406.34"/>
</g>
<!-- 11&#45;&gt;40 -->
<g id="edge64" class="edge">
<title>11&#45;&gt;40</title>
<path fill="none" stroke="grey" stroke-width="2" d="M1486.85,-793.73C1490.19,-793.09 1493.51,-792.5 1496.75,-792 1520.08,-788.4 1692.59,-796.19 1708.75,-779 1770.57,-713.28 1720.36,-665.47 1708.75,-576 1704.5,-543.18 1658.14,-309.24 1632.75,-288 1605.22,-264.97 1506.2,-285.1 1471.75,-275 1457.87,-270.93 1443.63,-264.11 1431.33,-257.25"/>
<polygon fill="grey" stroke="grey" stroke-width="2" points="1432.75,-254.03 1422.35,-252.04 1429.24,-260.08 1432.75,-254.03"/>
</g>
<!-- 21 -->
<g id="node3" class="node">
<title>21</title>
<path fill="none" stroke="#56d892" stroke-width="2" d="M1502.75,-684C1502.75,-684 1404.75,-684 1404.75,-684 1398.75,-684 1392.75,-678 1392.75,-672 1392.75,-672 1392.75,-660 1392.75,-660 1392.75,-654 1398.75,-648 1404.75,-648 1404.75,-648 1502.75,-648 1502.75,-648 1508.75,-648 1514.75,-654 1514.75,-660 1514.75,-660 1514.75,-672 1514.75,-672 1514.75,-678 1508.75,-684 1502.75,-684"/>
<text text-anchor="middle" x="1453.75" y="-663.5" font-family="sans" font-size="10.00">unflip_coords_equivol</text>
</g>
<!-- 21&#45;&gt;7 -->
<g id="edge76" class="edge">
<title>21&#45;&gt;7</title>
<path fill="none" stroke="grey" stroke-width="2" d="M1392.37,-651.02C1387.77,-649.99 1383.19,-648.98 1378.75,-648 1316.4,-634.27 1245.12,-619.09 1195.02,-608.51"/>
<polygon fill="grey" stroke="grey" stroke-width="2" points="1195.49,-605.03 1184.98,-606.39 1194.04,-611.88 1195.49,-605.03"/>
</g>
<!-- 21&#45;&gt;39 -->
<g id="edge77" class="edge">
<title>21&#45;&gt;39</title>
<path fill="none" stroke="grey" stroke-width="2" d="M1462.78,-647.83C1479.87,-616.47 1519.53,-548.98 1566.75,-504 1616.49,-456.63 1687.59,-420.97 1736.27,-400.1"/>
<polygon fill="grey" stroke="grey" stroke-width="2" points="1737.84,-403.24 1745.69,-396.13 1735.12,-396.79 1737.84,-403.24"/>
</g>
<!-- 21&#45;&gt;40 -->
<g id="edge78" class="edge">
<title>21&#45;&gt;40</title>
<path fill="none" stroke="grey" stroke-width="2" d="M1446.87,-647.83C1436.94,-621.44 1419.75,-569.14 1419.75,-523 1419.75,-523 1419.75,-523 1419.75,-377 1419.75,-336.7 1410.61,-290.78 1403.86,-262.34"/>
<polygon fill="grey" stroke="grey" stroke-width="2" points="1407.19,-261.22 1401.41,-252.34 1400.39,-262.89 1407.19,-261.22"/>
</g>
<!-- 22 -->
<g id="node4" class="node">
<title>22</title>
<path fill="none" stroke="#56d8d8" stroke-width="2" d="M1618.75,-756C1618.75,-756 1530.75,-756 1530.75,-756 1524.75,-756 1518.75,-750 1518.75,-744 1518.75,-744 1518.75,-732 1518.75,-732 1518.75,-726 1524.75,-720 1530.75,-720 1530.75,-720 1618.75,-720 1618.75,-720 1624.75,-720 1630.75,-726 1630.75,-732 1630.75,-732 1630.75,-744 1630.75,-744 1630.75,-750 1624.75,-756 1618.75,-756"/>
<text text-anchor="middle" x="1574.75" y="-735.5" font-family="sans" font-size="10.00">equivolume_coords</text>
</g>
<!-- 22&#45;&gt;21 -->
<g id="edge2" class="edge">
<title>22&#45;&gt;21</title>
<path fill="none" stroke="grey" stroke-width="2" d="M1545.15,-719.88C1529.19,-710.64 1509.29,-699.13 1492.15,-689.21"/>
<polygon fill="grey" stroke="grey" stroke-width="2" points="1493.88,-686.17 1483.47,-684.19 1490.37,-692.23 1493.88,-686.17"/>
</g>
<!-- 22&#45;&gt;7 -->
<g id="edge79" class="edge">
<title>22&#45;&gt;7</title>
<path fill="none" stroke="grey" stroke-width="2" d="M1518.56,-732.75C1470.62,-728.31 1406.03,-720.11 1383.75,-707 1355.1,-690.13 1365.57,-666.21 1337.75,-648 1294.94,-619.97 1238.16,-606.76 1194.9,-600.54"/>
<polygon fill="grey" stroke="grey" stroke-width="2" points="1195.15,-597.04 1184.77,-599.17 1194.22,-603.98 1195.15,-597.04"/>
</g>
<!-- 22&#45;&gt;39 -->
<g id="edge80" class="edge">
<title>22&#45;&gt;39</title>
<path fill="none" stroke="grey" stroke-width="2" d="M1616.05,-719.93C1622.12,-716.26 1627.93,-711.96 1632.75,-707 1644.32,-695.1 1743.29,-481.87 1778.44,-405.74"/>
<polygon fill="grey" stroke="grey" stroke-width="2" points="1781.76,-406.89 1782.77,-396.34 1775.4,-403.96 1781.76,-406.89"/>
</g>
<!-- 22&#45;&gt;40 -->
<g id="edge81" class="edge">
<title>22&#45;&gt;40</title>
<path fill="none" stroke="grey" stroke-width="2" d="M1587.98,-719.71C1590.36,-715.74 1592.48,-711.38 1593.75,-707 1601.06,-681.82 1595.43,-674.17 1593.75,-648 1585.52,-519.21 1605.82,-479.36 1556.75,-360 1541.44,-322.76 1533.47,-312.81 1501.75,-288 1490.31,-279.05 1484.84,-281.31 1471.75,-275 1460.11,-269.38 1447.66,-262.93 1436.31,-256.87"/>
<polygon fill="grey" stroke="grey" stroke-width="2" points="1437.95,-253.77 1427.48,-252.11 1434.63,-259.94 1437.95,-253.77"/>
</g>
<!-- 23 -->
<g id="node5" class="node">
<title>23</title>
<path fill="none" stroke="#56d8d8" stroke-width="2" d="M1632.25,-828C1632.25,-828 1517.25,-828 1517.25,-828 1511.25,-828 1505.25,-822 1505.25,-816 1505.25,-816 1505.25,-804 1505.25,-804 1505.25,-798 1511.25,-792 1517.25,-792 1517.25,-792 1632.25,-792 1632.25,-792 1638.25,-792 1644.25,-798 1644.25,-804 1644.25,-804 1644.25,-816 1644.25,-816 1644.25,-822 1638.25,-828 1632.25,-828"/>
<text text-anchor="middle" x="1574.75" y="-807.5" font-family="sans" font-size="10.00">prep_equivolume_coords</text>
</g>
<!-- 23&#45;&gt;22 -->
<g id="edge3" class="edge">
<title>23&#45;&gt;22</title>
<path fill="none" stroke="grey" stroke-width="2" d="M1574.75,-791.7C1574.75,-783.98 1574.75,-774.71 1574.75,-766.11"/>
<polygon fill="grey" stroke="grey" stroke-width="2" points="1578.25,-766.1 1574.75,-756.1 1571.25,-766.1 1578.25,-766.1"/>
</g>
<!-- 35 -->
<g id="node6" class="node">
<title>35</title>
<path fill="none" stroke="#80d856" stroke-width="2" d="M1340.75,-828C1340.75,-828 1232.75,-828 1232.75,-828 1226.75,-828 1220.75,-822 1220.75,-816 1220.75,-816 1220.75,-804 1220.75,-804 1220.75,-798 1226.75,-792 1232.75,-792 1232.75,-792 1340.75,-792 1340.75,-792 1346.75,-792 1352.75,-798 1352.75,-804 1352.75,-804 1352.75,-816 1352.75,-816 1352.75,-822 1346.75,-828 1340.75,-828"/>
<text text-anchor="middle" x="1286.75" y="-807.5" font-family="sans" font-size="10.00">laplace_coords_dentate</text>
</g>
<!-- 35&#45;&gt;10 -->
<g id="edge4" class="edge">
<title>35&#45;&gt;10</title>
<path fill="none" stroke="grey" stroke-width="2" d="M1304.3,-791.7C1312.99,-783.14 1323.62,-772.66 1333.1,-763.3"/>
<polygon fill="grey" stroke="grey" stroke-width="2" points="1335.74,-765.62 1340.41,-756.1 1330.83,-760.63 1335.74,-765.62"/>
</g>
<!-- 35&#45;&gt;34 -->
<g id="edge86" class="edge">
<title>35&#45;&gt;34</title>
<path fill="none" stroke="grey" stroke-width="2" d="M1276.45,-791.74C1264.4,-771.51 1243.93,-736.94 1226.75,-707 1211.8,-680.94 1217.47,-666.45 1193.75,-648 1188.54,-643.94 1122.74,-626.76 1068.41,-613.04"/>
<polygon fill="grey" stroke="grey" stroke-width="2" points="1068.97,-609.57 1058.41,-610.52 1067.26,-616.36 1068.97,-609.57"/>
</g>
<!-- 35&#45;&gt;24 -->
<g id="edge85" class="edge">
<title>35&#45;&gt;24</title>
<path fill="none" stroke="grey" stroke-width="2" d="M1220.73,-799.97C1193.4,-795.02 1165.76,-788.03 1155.75,-779 1131.75,-757.33 1122.9,-719.93 1119.64,-694.36"/>
<polygon fill="grey" stroke="grey" stroke-width="2" points="1123.1,-693.78 1118.56,-684.2 1116.14,-694.52 1123.1,-693.78"/>
</g>
<!-- 35&#45;&gt;40 -->
<g id="edge87" class="edge">
<title>35&#45;&gt;40</title>
<path fill="none" stroke="grey" stroke-width="2" d="M1352.89,-793.34C1355.88,-792.85 1358.84,-792.39 1361.75,-792 1377.08,-789.92 1629.08,-790.19 1639.75,-779 1769.59,-642.95 1654.87,-532.84 1580.75,-360 1565.69,-324.88 1565.3,-309.56 1533.75,-288 1510.51,-272.11 1498.22,-284.61 1471.75,-275 1458.71,-270.26 1445.13,-263.61 1433.17,-257.09"/>
<polygon fill="grey" stroke="grey" stroke-width="2" points="1434.81,-253.99 1424.37,-252.16 1431.38,-260.1 1434.81,-253.99"/>
</g>
<!-- 6 -->
<g id="node24" class="node">
<title>6</title>
<path fill="none" stroke="#d8cb56" stroke-width="2" d="M836.25,-540C836.25,-540 729.25,-540 729.25,-540 723.25,-540 717.25,-534 717.25,-528 717.25,-528 717.25,-516 717.25,-516 717.25,-510 723.25,-504 729.25,-504 729.25,-504 836.25,-504 836.25,-504 842.25,-504 848.25,-510 848.25,-516 848.25,-516 848.25,-528 848.25,-528 848.25,-534 842.25,-540 836.25,-540"/>
<text text-anchor="middle" x="782.75" y="-519.5" font-family="sans" font-size="10.00">warp_gii_unfold2native</text>
</g>
<!-- 7&#45;&gt;6 -->
<g id="edge51" class="edge">
<title>7&#45;&gt;6</title>
<path fill="none" stroke="grey" stroke-width="2" d="M1076.53,-578.07C1073.56,-577.35 1070.63,-576.65 1067.75,-576 997.27,-559.96 916.17,-545.24 858.55,-535.4"/>
<polygon fill="grey" stroke="grey" stroke-width="2" points="858.87,-531.91 848.43,-533.68 857.7,-538.81 858.87,-531.91"/>
</g>
<!-- 41 -->
<g id="node46" class="node">
<title>41</title>
<path fill="none" stroke="#56b9d8" stroke-width="2" d="M1300.75,-252C1300.75,-252 1206.75,-252 1206.75,-252 1200.75,-252 1194.75,-246 1194.75,-240 1194.75,-240 1194.75,-228 1194.75,-228 1194.75,-222 1200.75,-216 1206.75,-216 1206.75,-216 1300.75,-216 1300.75,-216 1306.75,-216 1312.75,-222 1312.75,-228 1312.75,-228 1312.75,-240 1312.75,-240 1312.75,-246 1306.75,-252 1300.75,-252"/>
<text text-anchor="middle" x="1253.75" y="-231.5" font-family="sans" font-size="10.00">copy_xfm_to_results</text>
</g>
<!-- 7&#45;&gt;41 -->
<g id="edge52" class="edge">
<title>7&#45;&gt;41</title>
<path fill="none" stroke="grey" stroke-width="2" d="M1145.18,-575.89C1165.14,-550.42 1198.75,-500.2 1198.75,-451 1198.75,-451 1198.75,-451 1198.75,-377 1198.75,-334.01 1220.95,-288.34 1237.14,-260.74"/>
<polygon fill="grey" stroke="grey" stroke-width="2" points="1240.18,-262.47 1242.36,-252.1 1234.19,-258.85 1240.18,-262.47"/>
</g>
<!-- 8 -->
<g id="node8" class="node">
<title>8</title>
<path fill="none" stroke="#59d856" stroke-width="2" d="M938.75,-756C938.75,-756 860.75,-756 860.75,-756 854.75,-756 848.75,-750 848.75,-744 848.75,-744 848.75,-732 848.75,-732 848.75,-726 854.75,-720 860.75,-720 860.75,-720 938.75,-720 938.75,-720 944.75,-720 950.75,-726 950.75,-732 950.75,-732 950.75,-744 950.75,-744 950.75,-750 944.75,-756 938.75,-756"/>
<text text-anchor="middle" x="899.75" y="-735.5" font-family="sans" font-size="10.00">create_unfold_ref</text>
</g>
<!-- 8&#45;&gt;7 -->
<g id="edge5" class="edge">
<title>8&#45;&gt;7</title>
<path fill="none" stroke="grey" stroke-width="2" d="M951.05,-735.46C975.16,-732.2 1002.71,-724.48 1021.75,-707 1042.15,-688.28 1024.34,-669.52 1041.75,-648 1051.96,-635.38 1066.03,-625.08 1079.97,-617.02"/>
<polygon fill="grey" stroke="grey" stroke-width="2" points="1081.97,-619.91 1089.07,-612.05 1078.62,-613.77 1081.97,-619.91"/>
</g>
<!-- 9 -->
<g id="node9" class="node">
<title>9</title>
<path fill="none" stroke="#56d882" stroke-width="2" d="M1000.25,-684C1000.25,-684 881.25,-684 881.25,-684 875.25,-684 869.25,-678 869.25,-672 869.25,-672 869.25,-660 869.25,-660 869.25,-654 875.25,-648 881.25,-648 881.25,-648 1000.25,-648 1000.25,-648 1006.25,-648 1012.25,-654 1012.25,-660 1012.25,-660 1012.25,-672 1012.25,-672 1012.25,-678 1006.25,-684 1000.25,-684"/>
<text text-anchor="middle" x="940.75" y="-663.5" font-family="sans" font-size="10.00">create_unfold_coord_map</text>
</g>
<!-- 8&#45;&gt;9 -->
<g id="edge6" class="edge">
<title>8&#45;&gt;9</title>
<path fill="none" stroke="grey" stroke-width="2" d="M909.89,-719.7C914.61,-711.64 920.32,-701.89 925.54,-692.98"/>
<polygon fill="grey" stroke="grey" stroke-width="2" points="928.7,-694.5 930.74,-684.1 922.66,-690.96 928.7,-694.5"/>
</g>
<!-- 8&#45;&gt;34 -->
<g id="edge7" class="edge">
<title>8&#45;&gt;34</title>
<path fill="none" stroke="grey" stroke-width="2" d="M870.92,-719.96C866.81,-716.23 863.17,-711.9 860.75,-707 849.17,-683.48 845.98,-669.67 860.75,-648 875.15,-626.88 899.36,-614.18 923.33,-606.53"/>
<polygon fill="grey" stroke="grey" stroke-width="2" points="924.58,-609.82 933.2,-603.66 922.62,-603.1 924.58,-609.82"/>
</g>
<!-- 25 -->
<g id="node25" class="node">
<title>25</title>
<path fill="none" stroke="#d8ac56" stroke-width="2" d="M835.75,-612C835.75,-612 729.75,-612 729.75,-612 723.75,-612 717.75,-606 717.75,-600 717.75,-600 717.75,-588 717.75,-588 717.75,-582 723.75,-576 729.75,-576 729.75,-576 835.75,-576 835.75,-576 841.75,-576 847.75,-582 847.75,-588 847.75,-588 847.75,-600 847.75,-600 847.75,-606 841.75,-612 835.75,-612"/>
<text text-anchor="middle" x="782.75" y="-591.5" font-family="sans" font-size="10.00">constrain_surf_to_bbox</text>
</g>
<!-- 8&#45;&gt;25 -->
<g id="edge54" class="edge">
<title>8&#45;&gt;25</title>
<path fill="none" stroke="grey" stroke-width="2" d="M863.4,-719.92C857.44,-716.17 851.62,-711.85 846.75,-707 821.93,-682.28 803.54,-645.94 793,-621.42"/>
<polygon fill="grey" stroke="grey" stroke-width="2" points="796.16,-619.91 789.09,-612.02 789.7,-622.6 796.16,-619.91"/>
</g>
<!-- 31 -->
<g id="node29" class="node">
<title>31</title>
<path fill="none" stroke="#56d873" stroke-width="2" d="M256.75,-324C256.75,-324 140.75,-324 140.75,-324 134.75,-324 128.75,-318 128.75,-312 128.75,-312 128.75,-300 128.75,-300 128.75,-294 134.75,-288 140.75,-288 140.75,-288 256.75,-288 256.75,-288 262.75,-288 268.75,-294 268.75,-300 268.75,-300 268.75,-312 268.75,-312 268.75,-318 262.75,-324 256.75,-324"/>
<text text-anchor="middle" x="198.75" y="-303.5" font-family="sans" font-size="10.00">resample_atlas_to_refvol</text>
</g>
<!-- 8&#45;&gt;31 -->
<g id="edge55" class="edge">
<title>8&#45;&gt;31</title>
<path fill="none" stroke="grey" stroke-width="2" d="M848.46,-733.57C668.94,-720.91 79.75,-673.38 79.75,-595 79.75,-595 79.75,-595 79.75,-449 79.75,-397.41 126.47,-354.72 161.37,-330.03"/>
<polygon fill="grey" stroke="grey" stroke-width="2" points="163.68,-332.69 169.95,-324.15 159.72,-326.92 163.68,-332.69"/>
</g>
<!-- 0 -->
<g id="node47" class="node">
<title>0</title>
<path fill="none" stroke="#c6d856" stroke-width="2" d="M1136.75,-36C1136.75,-36 1106.75,-36 1106.75,-36 1100.75,-36 1094.75,-30 1094.75,-24 1094.75,-24 1094.75,-12 1094.75,-12 1094.75,-6 1100.75,0 1106.75,0 1106.75,0 1136.75,0 1136.75,0 1142.75,0 1148.75,-6 1148.75,-12 1148.75,-12 1148.75,-24 1148.75,-24 1148.75,-30 1142.75,-36 1136.75,-36"/>
<text text-anchor="middle" x="1121.75" y="-15.5" font-family="sans" font-size="10.00">all</text>
</g>
<!-- 8&#45;&gt;0 -->
<g id="edge53" class="edge">
<title>8&#45;&gt;0</title>
<path fill="none" stroke="grey" stroke-width="2" d="M848.56,-736.66C674.68,-735.3 115.86,-729.23 84.75,-707 41.37,-676 41.75,-648.32 41.75,-595 41.75,-595 41.75,-595 41.75,-521 41.75,-424.4 3.75,-403.6 3.75,-307 3.75,-307 3.75,-307 3.75,-161 3.75,-107.52 36.4,-94.87 84.75,-72 176.54,-28.59 909.86,-20.54 1084.51,-19.23"/>
<polygon fill="grey" stroke="grey" stroke-width="2" points="1084.76,-22.73 1094.74,-19.16 1084.71,-15.73 1084.76,-22.73"/>
</g>
<!-- 9&#45;&gt;7 -->
<g id="edge8" class="edge">
<title>9&#45;&gt;7</title>
<path fill="none" stroke="grey" stroke-width="2" d="M987.23,-647.88C1013.67,-638.14 1046.96,-625.87 1074.82,-615.61"/>
<polygon fill="grey" stroke="grey" stroke-width="2" points="1076.25,-618.81 1084.43,-612.07 1073.83,-612.24 1076.25,-618.81"/>
</g>
<!-- 9&#45;&gt;34 -->
<g id="edge9" class="edge">
<title>9&#45;&gt;34</title>
<path fill="none" stroke="grey" stroke-width="2" d="M954.35,-647.7C960.88,-639.39 968.82,-629.28 976,-620.14"/>
<polygon fill="grey" stroke="grey" stroke-width="2" points="978.89,-622.13 982.32,-612.1 973.38,-617.81 978.89,-622.13"/>
</g>
<!-- 34&#45;&gt;6 -->
<g id="edge83" class="edge">
<title>34&#45;&gt;6</title>
<path fill="none" stroke="grey" stroke-width="2" d="M943.92,-575.97C913.9,-566.1 875.93,-553.62 844.39,-543.25"/>
<polygon fill="grey" stroke="grey" stroke-width="2" points="845.41,-539.91 834.82,-540.11 843.23,-546.56 845.41,-539.91"/>
</g>
<!-- 34&#45;&gt;41 -->
<g id="edge84" class="edge">
<title>34&#45;&gt;41</title>
<path fill="none" stroke="grey" stroke-width="2" d="M1007.36,-575.93C1023.76,-550.09 1051.75,-498.97 1051.75,-451 1051.75,-451 1051.75,-451 1051.75,-377 1051.75,-310.3 1126.37,-272.23 1184.9,-252.62"/>
<polygon fill="grey" stroke="grey" stroke-width="2" points="1186.07,-255.92 1194.51,-249.51 1183.92,-249.26 1186.07,-255.92"/>
</g>
<!-- 24&#45;&gt;7 -->
<g id="edge10" class="edge">
<title>24&#45;&gt;7</title>
<path fill="none" stroke="grey" stroke-width="2" d="M1120.97,-647.7C1122.4,-639.98 1124.12,-630.71 1125.72,-622.11"/>
<polygon fill="grey" stroke="grey" stroke-width="2" points="1129.19,-622.58 1127.58,-612.1 1122.31,-621.3 1129.19,-622.58"/>
</g>
<!-- 24&#45;&gt;34 -->
<g id="edge11" class="edge">
<title>24&#45;&gt;34</title>
<path fill="none" stroke="grey" stroke-width="2" d="M1087.91,-647.88C1071.81,-638.64 1051.75,-627.13 1034.47,-617.21"/>
<polygon fill="grey" stroke="grey" stroke-width="2" points="1036.13,-614.13 1025.71,-612.19 1032.65,-620.2 1036.13,-614.13"/>
</g>
<!-- 16 -->
<g id="node12" class="node">
<title>16</title>
<path fill="none" stroke="#56d863" stroke-width="2" d="M1562.25,-1260C1562.25,-1260 1513.25,-1260 1513.25,-1260 1507.25,-1260 1501.25,-1254 1501.25,-1248 1501.25,-1248 1501.25,-1236 1501.25,-1236 1501.25,-1230 1507.25,-1224 1513.25,-1224 1513.25,-1224 1562.25,-1224 1562.25,-1224 1568.25,-1224 1574.25,-1230 1574.25,-1236 1574.25,-1236 1574.25,-1248 1574.25,-1248 1574.25,-1254 1568.25,-1260 1562.25,-1260"/>
<text text-anchor="middle" x="1537.75" y="-1239.5" font-family="sans" font-size="10.00">lr_flip_b500</text>
</g>
<!-- 15 -->
<g id="node41" class="node">
<title>15</title>
<path fill="none" stroke="#8fd856" stroke-width="2" d="M1632.25,-1188C1632.25,-1188 1573.25,-1188 1573.25,-1188 1567.25,-1188 1561.25,-1182 1561.25,-1176 1561.25,-1176 1561.25,-1164 1561.25,-1164 1561.25,-1158 1567.25,-1152 1573.25,-1152 1573.25,-1152 1632.25,-1152 1632.25,-1152 1638.25,-1152 1644.25,-1158 1644.25,-1164 1644.25,-1164 1644.25,-1176 1644.25,-1176 1644.25,-1182 1638.25,-1188 1632.25,-1188"/>
<text text-anchor="middle" x="1602.75" y="-1167.5" font-family="sans" font-size="10.00">run_inference</text>
</g>
<!-- 16&#45;&gt;15 -->
<g id="edge72" class="edge">
<title>16&#45;&gt;15</title>
<path fill="none" stroke="grey" stroke-width="2" d="M1553.82,-1223.7C1561.69,-1215.22 1571.31,-1204.86 1579.93,-1195.58"/>
<polygon fill="grey" stroke="grey" stroke-width="2" points="1582.63,-1197.81 1586.87,-1188.1 1577.5,-1193.05 1582.63,-1197.81"/>
</g>
<!-- 17 -->
<g id="node13" class="node">
<title>17</title>
<path fill="none" stroke="#56b9d8" stroke-width="2" d="M1562.75,-1332C1562.75,-1332 1416.75,-1332 1416.75,-1332 1410.75,-1332 1404.75,-1326 1404.75,-1320 1404.75,-1320 1404.75,-1308 1404.75,-1308 1404.75,-1302 1410.75,-1296 1416.75,-1296 1416.75,-1296 1562.75,-1296 1562.75,-1296 1568.75,-1296 1574.75,-1302 1574.75,-1308 1574.75,-1308 1574.75,-1320 1574.75,-1320 1574.75,-1326 1568.75,-1332 1562.75,-1332"/>
<text text-anchor="middle" x="1489.75" y="-1311.5" font-family="sans" font-size="10.00">resample_hippdwi_to_template</text>
</g>
<!-- 17&#45;&gt;16 -->
<g id="edge12" class="edge">
<title>17&#45;&gt;16</title>
<path fill="none" stroke="grey" stroke-width="2" d="M1501.62,-1295.7C1507.26,-1287.47 1514.11,-1277.48 1520.32,-1268.42"/>
<polygon fill="grey" stroke="grey" stroke-width="2" points="1523.26,-1270.33 1526.03,-1260.1 1517.48,-1266.37 1523.26,-1270.33"/>
</g>
<!-- 43 -->
<g id="node14" class="node">
<title>43</title>
<path fill="none" stroke="#56d8c1" stroke-width="2" d="M1471.25,-1260C1471.25,-1260 1378.25,-1260 1378.25,-1260 1372.25,-1260 1366.25,-1254 1366.25,-1248 1366.25,-1248 1366.25,-1236 1366.25,-1236 1366.25,-1230 1372.25,-1224 1378.25,-1224 1378.25,-1224 1471.25,-1224 1471.25,-1224 1477.25,-1224 1483.25,-1230 1483.25,-1236 1483.25,-1236 1483.25,-1248 1483.25,-1248 1483.25,-1254 1477.25,-1260 1471.25,-1260"/>
<text text-anchor="middle" x="1424.75" y="-1239.5" font-family="sans" font-size="10.00">cp_b500_to_anat_dir</text>
</g>
<!-- 17&#45;&gt;43 -->
<g id="edge13" class="edge">
<title>17&#45;&gt;43</title>
<path fill="none" stroke="grey" stroke-width="2" d="M1473.69,-1295.7C1465.82,-1287.22 1456.2,-1276.86 1447.58,-1267.58"/>
<polygon fill="grey" stroke="grey" stroke-width="2" points="1450.01,-1265.05 1440.64,-1260.1 1444.88,-1269.81 1450.01,-1265.05"/>
</g>
<!-- 17&#45;&gt;15 -->
<g id="edge73" class="edge">
<title>17&#45;&gt;15</title>
<path fill="none" stroke="grey" stroke-width="2" d="M1537.13,-1295.98C1554.2,-1287.61 1572.1,-1275.85 1583.75,-1260 1596.88,-1242.15 1601.33,-1217.14 1602.66,-1198.18"/>
<polygon fill="grey" stroke="grey" stroke-width="2" points="1606.16,-1198.23 1603.13,-1188.08 1599.17,-1197.91 1606.16,-1198.23"/>
</g>
<!-- 42 -->
<g id="node30" class="node">
<title>42</title>
<path fill="none" stroke="#56d8b9" stroke-width="2" d="M1213.25,-180C1213.25,-180 1166.25,-180 1166.25,-180 1160.25,-180 1154.25,-174 1154.25,-168 1154.25,-168 1154.25,-156 1154.25,-156 1154.25,-150 1160.25,-144 1166.25,-144 1166.25,-144 1213.25,-144 1213.25,-144 1219.25,-144 1225.25,-150 1225.25,-156 1225.25,-156 1225.25,-168 1225.25,-168 1225.25,-174 1219.25,-180 1213.25,-180"/>
<text text-anchor="middle" x="1189.75" y="-159.5" font-family="sans" font-size="10.00">qc_subfield</text>
</g>
<!-- 43&#45;&gt;42 -->
<g id="edge96" class="edge">
<title>43&#45;&gt;42</title>
<path fill="none" stroke="grey" stroke-width="2" d="M1365.95,-1241.4C1097.79,-1242.45 3.75,-1238.23 3.75,-1099 3.75,-1099 3.75,-1099 3.75,-521 3.75,-380.75 -25.9,-302.18 84.75,-216 108.01,-197.89 1118.33,-213.8 1145.75,-203 1154.32,-199.63 1162.25,-193.76 1168.95,-187.53"/>
<polygon fill="grey" stroke="grey" stroke-width="2" points="1171.67,-189.76 1176.22,-180.2 1166.7,-184.84 1171.67,-189.76"/>
</g>
<!-- 1 -->
<g id="node15" class="node">
<title>1</title>
<path fill="none" stroke="#d8b456" stroke-width="2" d="M789.75,-108C789.75,-108 705.75,-108 705.75,-108 699.75,-108 693.75,-102 693.75,-96 693.75,-96 693.75,-84 693.75,-84 693.75,-78 699.75,-72 705.75,-72 705.75,-72 789.75,-72 789.75,-72 795.75,-72 801.75,-78 801.75,-84 801.75,-84 801.75,-96 801.75,-96 801.75,-102 795.75,-108 789.75,-108"/>
<text text-anchor="middle" x="747.75" y="-87.5" font-family="sans" font-size="10.00">merge_lr_spec_file</text>
</g>
<!-- 1&#45;&gt;0 -->
<g id="edge49" class="edge">
<title>1&#45;&gt;0</title>
<path fill="none" stroke="grey" stroke-width="2" d="M802.14,-78.82C879.25,-64.39 1018.36,-38.35 1084.66,-25.94"/>
<polygon fill="grey" stroke="grey" stroke-width="2" points="1085.47,-29.35 1094.66,-24.07 1084.18,-22.47 1085.47,-29.35"/>
</g>
<!-- 2 -->
<g id="node16" class="node">
<title>2</title>
<path fill="none" stroke="#56a2d8" stroke-width="2" d="M458.75,-180C458.75,-180 360.75,-180 360.75,-180 354.75,-180 348.75,-174 348.75,-168 348.75,-168 348.75,-156 348.75,-156 348.75,-150 354.75,-144 360.75,-144 360.75,-144 458.75,-144 458.75,-144 464.75,-144 470.75,-150 470.75,-156 470.75,-156 470.75,-168 470.75,-168 470.75,-174 464.75,-180 458.75,-180"/>
<text text-anchor="middle" x="409.75" y="-159.5" font-family="sans" font-size="10.00">create_spec_file_hipp</text>
</g>
<!-- 2&#45;&gt;1 -->
<g id="edge14" class="edge">
<title>2&#45;&gt;1</title>
<path fill="none" stroke="grey" stroke-width="2" d="M470.96,-148.32C531.15,-135.86 622.65,-116.91 683.78,-104.25"/>
<polygon fill="grey" stroke="grey" stroke-width="2" points="684.61,-107.65 693.69,-102.2 683.19,-100.8 684.61,-107.65"/>
</g>
<!-- 3 -->
<g id="node17" class="node">
<title>3</title>
<path fill="none" stroke="#d8d356" stroke-width="2" d="M796.25,-324C796.25,-324 699.25,-324 699.25,-324 693.25,-324 687.25,-318 687.25,-312 687.25,-312 687.25,-300 687.25,-300 687.25,-294 693.25,-288 699.25,-288 699.25,-288 796.25,-288 796.25,-288 802.25,-288 808.25,-294 808.25,-300 808.25,-300 808.25,-312 808.25,-312 808.25,-318 802.25,-324 796.25,-324"/>
<text text-anchor="middle" x="747.75" y="-303.5" font-family="sans" font-size="10.00">calculate_gyrification</text>
</g>
<!-- 3&#45;&gt;2 -->
<g id="edge15" class="edge">
<title>3&#45;&gt;2</title>
<path fill="none" stroke="grey" stroke-width="2" d="M736.06,-287.97C721.08,-267.53 693.14,-233.79 660.75,-216 605.13,-185.44 533.66,-172.48 481.22,-166.99"/>
<polygon fill="grey" stroke="grey" stroke-width="2" points="481.29,-163.48 471,-165.99 480.61,-170.45 481.29,-163.48"/>
</g>
<!-- 32 -->
<g id="node18" class="node">
<title>32</title>
<path fill="none" stroke="#5663d8" stroke-width="2" d="M639.75,-252C639.75,-252 515.75,-252 515.75,-252 509.75,-252 503.75,-246 503.75,-240 503.75,-240 503.75,-228 503.75,-228 503.75,-222 509.75,-216 515.75,-216 515.75,-216 639.75,-216 639.75,-216 645.75,-216 651.75,-222 651.75,-228 651.75,-228 651.75,-240 651.75,-240 651.75,-246 645.75,-252 639.75,-252"/>
<text text-anchor="middle" x="577.75" y="-231.5" font-family="sans" font-size="10.00">create_dscalar_metric_cifti</text>
</g>
<!-- 3&#45;&gt;32 -->
<g id="edge16" class="edge">
<title>3&#45;&gt;32</title>
<path fill="none" stroke="grey" stroke-width="2" d="M706.17,-287.88C682.72,-278.22 653.25,-266.09 628.46,-255.88"/>
<polygon fill="grey" stroke="grey" stroke-width="2" points="629.79,-252.64 619.21,-252.07 627.12,-259.11 629.79,-252.64"/>
</g>
<!-- 33 -->
<g id="node19" class="node">
<title>33</title>
<path fill="none" stroke="#d88d56" stroke-width="2" d="M804.75,-180C804.75,-180 690.75,-180 690.75,-180 684.75,-180 678.75,-174 678.75,-168 678.75,-168 678.75,-156 678.75,-156 678.75,-150 684.75,-144 690.75,-144 690.75,-144 804.75,-144 804.75,-144 810.75,-144 816.75,-150 816.75,-156 816.75,-156 816.75,-168 816.75,-168 816.75,-174 810.75,-180 804.75,-180"/>
<text text-anchor="middle" x="747.75" y="-159.5" font-family="sans" font-size="10.00">create_spec_file_dentate</text>
</g>
<!-- 3&#45;&gt;33 -->
<g id="edge17" class="edge">
<title>3&#45;&gt;33</title>
<path fill="none" stroke="grey" stroke-width="2" d="M747.75,-287.87C747.75,-263.67 747.75,-219.21 747.75,-190.39"/>
<polygon fill="grey" stroke="grey" stroke-width="2" points="751.25,-190.19 747.75,-180.19 744.25,-190.19 751.25,-190.19"/>
</g>
<!-- 32&#45;&gt;2 -->
<g id="edge37" class="edge">
<title>32&#45;&gt;2</title>
<path fill="none" stroke="grey" stroke-width="2" d="M536.66,-215.88C513.59,-206.26 484.62,-194.19 460.18,-184.01"/>
<polygon fill="grey" stroke="grey" stroke-width="2" points="461.3,-180.68 450.72,-180.07 458.6,-187.15 461.3,-180.68"/>
</g>
<!-- 32&#45;&gt;33 -->
<g id="edge38" class="edge">
<title>32&#45;&gt;33</title>
<path fill="none" stroke="grey" stroke-width="2" d="M619.34,-215.88C642.79,-206.22 672.26,-194.09 697.05,-183.88"/>
<polygon fill="grey" stroke="grey" stroke-width="2" points="698.39,-187.11 706.3,-180.07 695.72,-180.64 698.39,-187.11"/>
</g>
<!-- 33&#45;&gt;1 -->
<g id="edge39" class="edge">
<title>33&#45;&gt;1</title>
<path fill="none" stroke="grey" stroke-width="2" d="M747.75,-143.7C747.75,-135.98 747.75,-126.71 747.75,-118.11"/>
<polygon fill="grey" stroke="grey" stroke-width="2" points="751.25,-118.1 747.75,-108.1 744.25,-118.1 751.25,-118.1"/>
</g>
<!-- 4 -->
<g id="node20" class="node">
<title>4</title>
<path fill="none" stroke="#56d87b" stroke-width="2" d="M796.25,-396C796.25,-396 691.25,-396 691.25,-396 685.25,-396 679.25,-390 679.25,-384 679.25,-384 679.25,-372 679.25,-372 679.25,-366 685.25,-360 691.25,-360 691.25,-360 796.25,-360 796.25,-360 802.25,-360 808.25,-366 808.25,-372 808.25,-372 808.25,-384 808.25,-384 808.25,-390 802.25,-396 796.25,-396"/>
<text text-anchor="middle" x="743.75" y="-375.5" font-family="sans" font-size="10.00">calculate_surface_area</text>
</g>
<!-- 4&#45;&gt;3 -->
<g id="edge18" class="edge">
<title>4&#45;&gt;3</title>
<path fill="none" stroke="grey" stroke-width="2" d="M744.74,-359.7C745.18,-351.98 745.71,-342.71 746.2,-334.11"/>
<polygon fill="grey" stroke="grey" stroke-width="2" points="749.7,-334.29 746.78,-324.1 742.71,-333.89 749.7,-334.29"/>
</g>
<!-- 5 -->
<g id="node21" class="node">
<title>5</title>
<path fill="none" stroke="#9fd856" stroke-width="2" d="M790.75,-468C790.75,-468 696.75,-468 696.75,-468 690.75,-468 684.75,-462 684.75,-456 684.75,-456 684.75,-444 684.75,-444 684.75,-438 690.75,-432 696.75,-432 696.75,-432 790.75,-432 790.75,-432 796.75,-432 802.75,-438 802.75,-444 802.75,-444 802.75,-456 802.75,-456 802.75,-462 796.75,-468 790.75,-468"/>
<text text-anchor="middle" x="743.75" y="-447.5" font-family="sans" font-size="10.00">correct_nan_vertices</text>
</g>
<!-- 5&#45;&gt;2 -->
<g id="edge19" class="edge">
<title>5&#45;&gt;2</title>
<path fill="none" stroke="grey" stroke-width="2" d="M684.53,-446.77C542.06,-439.98 186.99,-414.18 119.75,-324 56.48,-239.14 233.6,-193.14 338.5,-173.94"/>
<polygon fill="grey" stroke="grey" stroke-width="2" points="339.19,-177.37 348.42,-172.17 337.96,-170.48 339.19,-177.37"/>
</g>
<!-- 5&#45;&gt;33 -->
<g id="edge23" class="edge">
<title>5&#45;&gt;33</title>
<path fill="none" stroke="grey" stroke-width="2" d="M802.87,-433.15C808.7,-429.4 813.88,-424.75 817.75,-419 850.28,-370.71 832.45,-344.34 817.75,-288 808.02,-250.7 784.42,-212.76 767.31,-188.61"/>
<polygon fill="grey" stroke="grey" stroke-width="2" points="770.04,-186.41 761.34,-180.37 764.37,-190.52 770.04,-186.41"/>
</g>
<!-- 5&#45;&gt;4 -->
<g id="edge20" class="edge">
<title>5&#45;&gt;4</title>
<path fill="none" stroke="grey" stroke-width="2" d="M743.75,-431.7C743.75,-423.98 743.75,-414.71 743.75,-406.11"/>
<polygon fill="grey" stroke="grey" stroke-width="2" points="747.25,-406.1 743.75,-396.1 740.25,-406.1 747.25,-406.1"/>
</g>
<!-- 28 -->
<g id="node22" class="node">
<title>28</title>
<path fill="none" stroke="#70d856" stroke-width="2" d="M631.25,-396C631.25,-396 560.25,-396 560.25,-396 554.25,-396 548.25,-390 548.25,-384 548.25,-384 548.25,-372 548.25,-372 548.25,-366 554.25,-360 560.25,-360 560.25,-360 631.25,-360 631.25,-360 637.25,-360 643.25,-366 643.25,-372 643.25,-372 643.25,-384 643.25,-384 643.25,-390 637.25,-396 631.25,-396"/>
<text text-anchor="middle" x="595.75" y="-375.5" font-family="sans" font-size="10.00">smooth_surface</text>
</g>
<!-- 5&#45;&gt;28 -->
<g id="edge21" class="edge">
<title>5&#45;&gt;28</title>
<path fill="none" stroke="grey" stroke-width="2" d="M700.21,-431.94C690.44,-427.88 680.18,-423.43 670.75,-419 658.95,-413.45 646.36,-406.96 634.93,-400.85"/>
<polygon fill="grey" stroke="grey" stroke-width="2" points="636.52,-397.72 626.05,-396.05 633.19,-403.88 636.52,-397.72"/>
</g>
<!-- 29 -->
<g id="node23" class="node">
<title>29</title>
<path fill="none" stroke="#bed856" stroke-width="2" d="M456.75,-324C456.75,-324 298.75,-324 298.75,-324 292.75,-324 286.75,-318 286.75,-312 286.75,-312 286.75,-300 286.75,-300 286.75,-294 292.75,-288 298.75,-288 298.75,-288 456.75,-288 456.75,-288 462.75,-288 468.75,-294 468.75,-300 468.75,-300 468.75,-312 468.75,-312 468.75,-318 462.75,-324 456.75,-324"/>
<text text-anchor="middle" x="377.75" y="-303.5" font-family="sans" font-size="10.00">calculate_thickness_from_surface</text>
</g>
<!-- 5&#45;&gt;29 -->
<g id="edge22" class="edge">
<title>5&#45;&gt;29</title>
<path fill="none" stroke="grey" stroke-width="2" d="M684.33,-447.39C642.61,-444.58 586.21,-437.31 539.75,-419 486.9,-398.17 434.41,-357.2 404.08,-331.01"/>
<polygon fill="grey" stroke="grey" stroke-width="2" points="406.32,-328.32 396.5,-324.36 401.71,-333.58 406.32,-328.32"/>
</g>
<!-- 44 -->
<g id="node31" class="node">
<title>44</title>
<path fill="none" stroke="#56d0d8" stroke-width="2" d="M979.25,-180C979.25,-180 908.25,-180 908.25,-180 902.25,-180 896.25,-174 896.25,-168 896.25,-168 896.25,-156 896.25,-156 896.25,-150 902.25,-144 908.25,-144 908.25,-144 979.25,-144 979.25,-144 985.25,-144 991.25,-150 991.25,-156 991.25,-156 991.25,-168 991.25,-168 991.25,-174 985.25,-180 979.25,-180"/>
<text text-anchor="middle" x="943.75" y="-159.5" font-family="sans" font-size="10.00">qc_subfield_surf</text>
</g>
<!-- 5&#45;&gt;44 -->
<g id="edge50" class="edge">
<title>5&#45;&gt;44</title>
<path fill="none" stroke="grey" stroke-width="2" d="M802.9,-436.43C813.38,-432.19 823.56,-426.54 831.75,-419 900.77,-355.55 929.41,-242.01 939.31,-190.16"/>
<polygon fill="grey" stroke="grey" stroke-width="2" points="942.79,-190.54 941.14,-180.08 935.91,-189.29 942.79,-190.54"/>
</g>
<!-- 27 -->
<g id="node27" class="node">
<title>27</title>
<path fill="none" stroke="#56d86b" stroke-width="2" d="M656.75,-324C656.75,-324 498.75,-324 498.75,-324 492.75,-324 486.75,-318 486.75,-312 486.75,-312 486.75,-300 486.75,-300 486.75,-294 492.75,-288 498.75,-288 498.75,-288 656.75,-288 656.75,-288 662.75,-288 668.75,-294 668.75,-300 668.75,-300 668.75,-312 668.75,-312 668.75,-318 662.75,-324 656.75,-324"/>
<text text-anchor="middle" x="577.75" y="-303.5" font-family="sans" font-size="10.00">calculate_curvature_from_surface</text>
</g>
<!-- 28&#45;&gt;27 -->
<g id="edge32" class="edge">
<title>28&#45;&gt;27</title>
<path fill="none" stroke="grey" stroke-width="2" d="M591.3,-359.7C589.3,-351.9 586.89,-342.51 584.65,-333.83"/>
<polygon fill="grey" stroke="grey" stroke-width="2" points="588.03,-332.92 582.15,-324.1 581.25,-334.66 588.03,-332.92"/>
</g>
<!-- 29&#45;&gt;2 -->
<g id="edge33" class="edge">
<title>29&#45;&gt;2</title>
<path fill="none" stroke="grey" stroke-width="2" d="M381.61,-287.87C387.09,-263.56 397.18,-218.82 403.67,-190.01"/>
<polygon fill="grey" stroke="grey" stroke-width="2" points="407.1,-190.71 405.88,-180.19 400.27,-189.18 407.1,-190.71"/>
</g>
<!-- 29&#45;&gt;32 -->
<g id="edge34" class="edge">
<title>29&#45;&gt;32</title>
<path fill="none" stroke="grey" stroke-width="2" d="M426.42,-287.97C454.37,-278.19 489.65,-265.84 519.12,-255.52"/>
<polygon fill="grey" stroke="grey" stroke-width="2" points="520.58,-258.72 528.87,-252.11 518.27,-252.11 520.58,-258.72"/>
</g>
<!-- 6&#45;&gt;5 -->
<g id="edge24" class="edge">
<title>6&#45;&gt;5</title>
<path fill="none" stroke="grey" stroke-width="2" d="M773.11,-503.7C768.63,-495.64 763.2,-485.89 758.23,-476.98"/>
<polygon fill="grey" stroke="grey" stroke-width="2" points="761.21,-475.14 753.28,-468.1 755.09,-478.54 761.21,-475.14"/>
</g>
<!-- 25&#45;&gt;6 -->
<g id="edge25" class="edge">
<title>25&#45;&gt;6</title>
<path fill="none" stroke="grey" stroke-width="2" d="M782.75,-575.7C782.75,-567.98 782.75,-558.71 782.75,-550.11"/>
<polygon fill="grey" stroke="grey" stroke-width="2" points="786.25,-550.1 782.75,-540.1 779.25,-550.1 786.25,-550.1"/>
</g>
<!-- 26 -->
<g id="node26" class="node">
<title>26</title>
<path fill="none" stroke="#afd856" stroke-width="2" d="M749.75,-684C749.75,-684 645.75,-684 645.75,-684 639.75,-684 633.75,-678 633.75,-672 633.75,-672 633.75,-660 633.75,-660 633.75,-654 639.75,-648 645.75,-648 645.75,-648 749.75,-648 749.75,-648 755.75,-648 761.75,-654 761.75,-660 761.75,-660 761.75,-672 761.75,-672 761.75,-678 755.75,-684 749.75,-684"/>
<text text-anchor="middle" x="697.75" y="-663.5" font-family="sans" font-size="10.00">cp_template_to_unfold</text>
</g>
<!-- 26&#45;&gt;2 -->
<g id="edge26" class="edge">
<title>26&#45;&gt;2</title>
<path fill="none" stroke="grey" stroke-width="2" d="M633.6,-663.04C480.94,-656.63 108.75,-630.03 108.75,-523 108.75,-523 108.75,-523 108.75,-449 108.75,-345.43 36.45,-293.85 104.75,-216 134.71,-181.86 258.06,-169.7 338.43,-165.37"/>
<polygon fill="grey" stroke="grey" stroke-width="2" points="338.68,-168.87 348.49,-164.86 338.33,-161.87 338.68,-168.87"/>
</g>
<!-- 26&#45;&gt;33 -->
<g id="edge28" class="edge">
<title>26&#45;&gt;33</title>
<path fill="none" stroke="grey" stroke-width="2" d="M693.36,-647.86C686.26,-615.95 676.14,-546.78 708.75,-504 738.16,-465.44 776.6,-501.4 811.75,-468 828.81,-451.8 827.23,-442.08 831.75,-419 849.28,-329.69 853.52,-292.85 804.75,-216 797.91,-205.21 788.35,-195.17 779.01,-186.78"/>
<polygon fill="grey" stroke="grey" stroke-width="2" points="781.15,-184.01 771.28,-180.15 776.59,-189.32 781.15,-184.01"/>
</g>
<!-- 26&#45;&gt;25 -->
<g id="edge27" class="edge">
<title>26&#45;&gt;25</title>
<path fill="none" stroke="grey" stroke-width="2" d="M718.77,-647.7C729.47,-638.88 742.64,-628.03 754.25,-618.47"/>
<polygon fill="grey" stroke="grey" stroke-width="2" points="756.49,-621.16 761.98,-612.1 752.04,-615.76 756.49,-621.16"/>
</g>
<!-- 27&#45;&gt;2 -->
<g id="edge29" class="edge">
<title>27&#45;&gt;2</title>
<path fill="none" stroke="grey" stroke-width="2" d="M517.59,-287.99C509.53,-284.38 501.67,-280.08 494.75,-275 463.54,-252.04 438.36,-214.5 423.73,-189.28"/>
<polygon fill="grey" stroke="grey" stroke-width="2" points="426.61,-187.26 418.65,-180.28 420.51,-190.7 426.61,-187.26"/>
</g>
<!-- 27&#45;&gt;32 -->
<g id="edge30" class="edge">
<title>27&#45;&gt;32</title>
<path fill="none" stroke="grey" stroke-width="2" d="M577.75,-287.7C577.75,-279.98 577.75,-270.71 577.75,-262.11"/>
<polygon fill="grey" stroke="grey" stroke-width="2" points="581.25,-262.1 577.75,-252.1 574.25,-262.1 581.25,-262.1"/>
</g>
<!-- 27&#45;&gt;33 -->
<g id="edge31" class="edge">
<title>27&#45;&gt;33</title>
<path fill="none" stroke="grey" stroke-width="2" d="M637.87,-287.92C645.94,-284.32 653.81,-280.05 660.75,-275 692.5,-251.92 718.45,-214.15 733.51,-188.94"/>
<polygon fill="grey" stroke="grey" stroke-width="2" points="736.55,-190.67 738.55,-180.27 730.5,-187.15 736.55,-190.67"/>
</g>
<!-- 30 -->
<g id="node28" class="node">
<title>30</title>
<path fill="none" stroke="#56d8c9" stroke-width="2" d="M296.75,-252C296.75,-252 230.75,-252 230.75,-252 224.75,-252 218.75,-246 218.75,-240 218.75,-240 218.75,-228 218.75,-228 218.75,-222 224.75,-216 230.75,-216 230.75,-216 296.75,-216 296.75,-216 302.75,-216 308.75,-222 308.75,-228 308.75,-228 308.75,-240 308.75,-240 308.75,-246 302.75,-252 296.75,-252"/>
<text text-anchor="middle" x="263.75" y="-231.5" font-family="sans" font-size="10.00">nii_to_label_gii</text>
</g>
<!-- 30&#45;&gt;2 -->
<g id="edge35" class="edge">
<title>30&#45;&gt;2</title>
<path fill="none" stroke="grey" stroke-width="2" d="M299.47,-215.88C319.25,-206.39 344.03,-194.51 365.08,-184.42"/>
<polygon fill="grey" stroke="grey" stroke-width="2" points="366.65,-187.55 374.15,-180.07 363.62,-181.24 366.65,-187.55"/>
</g>
<!-- 31&#45;&gt;30 -->
<g id="edge36" class="edge">
<title>31&#45;&gt;30</title>
<path fill="none" stroke="grey" stroke-width="2" d="M214.82,-287.7C222.69,-279.22 232.31,-268.86 240.93,-259.58"/>
<polygon fill="grey" stroke="grey" stroke-width="2" points="243.63,-261.81 247.87,-252.1 238.5,-257.05 243.63,-261.81"/>
</g>
<!-- 31&#45;&gt;39 -->
<g id="edge82" class="edge">
<title>31&#45;&gt;39</title>
<path fill="none" stroke="grey" stroke-width="2" d="M268.86,-322.76C271.85,-323.22 274.83,-323.64 277.75,-324 547.59,-357.49 1369.54,-371.47 1674.91,-375.59"/>
<polygon fill="grey" stroke="grey" stroke-width="2" points="1675.07,-379.1 1685.11,-375.73 1675.16,-372.1 1675.07,-379.1"/>
</g>
<!-- 42&#45;&gt;0 -->
<g id="edge95" class="edge">
<title>42&#45;&gt;0</title>
<path fill="none" stroke="grey" stroke-width="2" d="M1181.55,-143.87C1169.81,-119.35 1148.11,-74.03 1134.33,-45.26"/>
<polygon fill="grey" stroke="grey" stroke-width="2" points="1137.46,-43.7 1129.99,-36.19 1131.15,-46.72 1137.46,-43.7"/>
</g>
<!-- 44&#45;&gt;0 -->
<g id="edge97" class="edge">
<title>44&#45;&gt;0</title>
<path fill="none" stroke="grey" stroke-width="2" d="M954.65,-143.78C967.58,-124.39 990.71,-92.87 1016.75,-72 1037.34,-55.5 1063.9,-42.15 1085.15,-32.98"/>
<polygon fill="grey" stroke="grey" stroke-width="2" points="1086.63,-36.16 1094.5,-29.06 1083.93,-29.7 1086.63,-36.16"/>
</g>
<!-- 45 -->
<g id="node32" class="node">
<title>45</title>
<path fill="none" stroke="#d8c356" stroke-width="2" d="M1123.75,-108C1123.75,-108 1037.75,-108 1037.75,-108 1031.75,-108 1025.75,-102 1025.75,-96 1025.75,-96 1025.75,-84 1025.75,-84 1025.75,-78 1031.75,-72 1037.75,-72 1037.75,-72 1123.75,-72 1123.75,-72 1129.75,-72 1135.75,-78 1135.75,-84 1135.75,-84 1135.75,-96 1135.75,-96 1135.75,-102 1129.75,-108 1123.75,-108"/>
<text text-anchor="middle" x="1080.75" y="-87.5" font-family="sans" font-size="10.00">plot_subj_subfields</text>
</g>
<!-- 45&#45;&gt;0 -->
<g id="edge98" class="edge">
<title>45&#45;&gt;0</title>
<path fill="none" stroke="grey" stroke-width="2" d="M1090.89,-71.7C1095.61,-63.64 1101.32,-53.89 1106.54,-44.98"/>
<polygon fill="grey" stroke="grey" stroke-width="2" points="1109.7,-46.5 1111.74,-36.1 1103.66,-42.96 1109.7,-46.5"/>
</g>
<!-- 46 -->
<g id="node33" class="node">
<title>46</title>
<path fill="none" stroke="#59d856" stroke-width="2" d="M1124.25,-180C1124.25,-180 1021.25,-180 1021.25,-180 1015.25,-180 1009.25,-174 1009.25,-168 1009.25,-168 1009.25,-156 1009.25,-156 1009.25,-150 1015.25,-144 1021.25,-144 1021.25,-144 1124.25,-144 1124.25,-144 1130.25,-144 1136.25,-150 1136.25,-156 1136.25,-156 1136.25,-168 1136.25,-168 1136.25,-174 1130.25,-180 1124.25,-180"/>
<text text-anchor="middle" x="1072.75" y="-159.5" font-family="sans" font-size="10.00">get_subfield_vols_subj</text>
</g>
<!-- 46&#45;&gt;45 -->
<g id="edge40" class="edge">
<title>46&#45;&gt;45</title>
<path fill="none" stroke="grey" stroke-width="2" d="M1074.73,-143.7C1075.61,-135.98 1076.67,-126.71 1077.66,-118.11"/>
<polygon fill="grey" stroke="grey" stroke-width="2" points="1081.14,-118.44 1078.8,-108.1 1074.19,-117.64 1081.14,-118.44"/>
</g>
<!-- 12 -->
<g id="node34" class="node">
<title>12</title>
<path fill="none" stroke="#5692d8" stroke-width="2" d="M1842.25,-900C1842.25,-900 1737.25,-900 1737.25,-900 1731.25,-900 1725.25,-894 1725.25,-888 1725.25,-888 1725.25,-876 1725.25,-876 1725.25,-870 1731.25,-864 1737.25,-864 1737.25,-864 1842.25,-864 1842.25,-864 1848.25,-864 1854.25,-870 1854.25,-876 1854.25,-876 1854.25,-888 1854.25,-888 1854.25,-894 1848.25,-900 1842.25,-900"/>
<text text-anchor="middle" x="1789.75" y="-879.5" font-family="sans" font-size="10.00">reinsert_subject_labels</text>
</g>
<!-- 12&#45;&gt;11 -->
<g id="edge65" class="edge">
<title>12&#45;&gt;11</title>
<path fill="none" stroke="grey" stroke-width="2" d="M1724.99,-875.84C1645.29,-869.27 1517.86,-857.92 1496.75,-851 1484.35,-846.93 1471.76,-840.35 1460.83,-833.69"/>
<polygon fill="grey" stroke="grey" stroke-width="2" points="1462.41,-830.54 1452.09,-828.13 1458.65,-836.45 1462.41,-830.54"/>
</g>
<!-- 12&#45;&gt;23 -->
<g id="edge66" class="edge">
<title>12&#45;&gt;23</title>
<path fill="none" stroke="grey" stroke-width="2" d="M1725.14,-871.27C1700.76,-866.56 1673.06,-859.95 1648.75,-851 1635.99,-846.3 1622.73,-839.73 1611.01,-833.27"/>
<polygon fill="grey" stroke="grey" stroke-width="2" points="1612.41,-830.04 1601.98,-828.15 1608.95,-836.13 1612.41,-830.04"/>
</g>
<!-- 38 -->
<g id="node35" class="node">
<title>38</title>
<path fill="none" stroke="#d8cb56" stroke-width="2" d="M1872.25,-828C1872.25,-828 1805.25,-828 1805.25,-828 1799.25,-828 1793.25,-822 1793.25,-816 1793.25,-816 1793.25,-804 1793.25,-804 1793.25,-798 1799.25,-792 1805.25,-792 1805.25,-792 1872.25,-792 1872.25,-792 1878.25,-792 1884.25,-798 1884.25,-804 1884.25,-804 1884.25,-816 1884.25,-816 1884.25,-822 1878.25,-828 1872.25,-828"/>
<text text-anchor="middle" x="1838.75" y="-807.5" font-family="sans" font-size="10.00">unflip_postproc</text>
</g>
<!-- 12&#45;&gt;38 -->
<g id="edge41" class="edge">
<title>12&#45;&gt;38</title>
<path fill="none" stroke="grey" stroke-width="2" d="M1801.87,-863.7C1807.62,-855.47 1814.62,-845.48 1820.96,-836.42"/>
<polygon fill="grey" stroke="grey" stroke-width="2" points="1823.91,-838.3 1826.78,-828.1 1818.18,-834.29 1823.91,-838.3"/>
</g>
<!-- 37 -->
<g id="node42" class="node">
<title>37</title>
<path fill="none" stroke="#5673d8" stroke-width="2" d="M1883.75,-324C1883.75,-324 1701.75,-324 1701.75,-324 1695.75,-324 1689.75,-318 1689.75,-312 1689.75,-312 1689.75,-300 1689.75,-300 1689.75,-294 1695.75,-288 1701.75,-288 1701.75,-288 1883.75,-288 1883.75,-288 1889.75,-288 1895.75,-294 1895.75,-300 1895.75,-300 1895.75,-312 1895.75,-312 1895.75,-318 1889.75,-324 1883.75,-324"/>
<text text-anchor="middle" x="1792.75" y="-303.5" font-family="sans" font-size="10.00">combine_tissue_subfield_labels_corobl</text>
</g>
<!-- 12&#45;&gt;37 -->
<g id="edge67" class="edge">
<title>12&#45;&gt;37</title>
<path fill="none" stroke="grey" stroke-width="2" d="M1854.29,-870.35C1868.23,-865.96 1882.23,-859.75 1893.75,-851 1940.31,-815.63 1962.75,-797.47 1962.75,-739 1962.75,-739 1962.75,-739 1962.75,-449 1962.75,-406.66 1958.6,-390.04 1928.75,-360 1914.7,-345.85 1896.43,-335.39 1877.87,-327.69"/>
<polygon fill="grey" stroke="grey" stroke-width="2" points="1879.05,-324.39 1868.46,-324.02 1876.5,-330.91 1879.05,-324.39"/>
</g>
<!-- 38&#45;&gt;37 -->
<g id="edge92" class="edge">
<title>38&#45;&gt;37</title>
<path fill="none" stroke="grey" stroke-width="2" d="M1857.84,-791.77C1883.18,-766.91 1924.75,-718.3 1924.75,-667 1924.75,-667 1924.75,-667 1924.75,-449 1924.75,-408.55 1930.91,-391.67 1905.75,-360 1894.88,-346.31 1879.64,-335.99 1863.87,-328.27"/>
<polygon fill="grey" stroke="grey" stroke-width="2" points="1865.09,-324.98 1854.54,-324.02 1862.19,-331.35 1865.09,-324.98"/>
</g>
<!-- 13 -->
<g id="node36" class="node">
<title>13</title>
<path fill="none" stroke="#b6d856" stroke-width="2" d="M1922.75,-972C1922.75,-972 1818.75,-972 1818.75,-972 1812.75,-972 1806.75,-966 1806.75,-960 1806.75,-960 1806.75,-948 1806.75,-948 1806.75,-942 1812.75,-936 1818.75,-936 1818.75,-936 1922.75,-936 1922.75,-936 1928.75,-936 1934.75,-942 1934.75,-948 1934.75,-948 1934.75,-960 1934.75,-960 1934.75,-966 1928.75,-972 1922.75,-972"/>
<text text-anchor="middle" x="1870.75" y="-951.5" font-family="sans" font-size="10.00">template_shape_inject</text>
</g>
<!-- 13&#45;&gt;12 -->
<g id="edge42" class="edge">
<title>13&#45;&gt;12</title>
<path fill="none" stroke="grey" stroke-width="2" d="M1850.73,-935.7C1840.63,-926.97 1828.22,-916.24 1817.24,-906.75"/>
<polygon fill="grey" stroke="grey" stroke-width="2" points="1819.4,-903.99 1809.55,-900.1 1814.82,-909.29 1819.4,-903.99"/>
</g>
<!-- 14 -->
<g id="node37" class="node">
<title>14</title>
<path fill="none" stroke="#56c9d8" stroke-width="2" d="M1880.25,-1188C1880.25,-1188 1771.25,-1188 1771.25,-1188 1765.25,-1188 1759.25,-1182 1759.25,-1176 1759.25,-1176 1759.25,-1164 1759.25,-1164 1759.25,-1158 1765.25,-1152 1771.25,-1152 1771.25,-1152 1880.25,-1152 1880.25,-1152 1886.25,-1152 1892.25,-1158 1892.25,-1164 1892.25,-1164 1892.25,-1176 1892.25,-1176 1892.25,-1182 1886.25,-1188 1880.25,-1188"/>
<text text-anchor="middle" x="1825.75" y="-1167.5" font-family="sans" font-size="10.00">import_template_shape</text>
</g>
<!-- 14&#45;&gt;13 -->
<g id="edge43" class="edge">
<title>14&#45;&gt;13</title>
<path fill="none" stroke="grey" stroke-width="2" d="M1838.47,-1151.78C1845.11,-1141.84 1852.68,-1128.8 1856.75,-1116 1871.12,-1070.84 1872.62,-1015.19 1871.98,-982.54"/>
<polygon fill="grey" stroke="grey" stroke-width="2" points="1875.48,-982.3 1871.7,-972.4 1868.48,-982.5 1875.48,-982.3"/>
</g>
<!-- 19 -->
<g id="node38" class="node">
<title>19</title>
<path fill="none" stroke="#56b1d8" stroke-width="2" d="M1835.75,-1116C1835.75,-1116 1735.75,-1116 1735.75,-1116 1729.75,-1116 1723.75,-1110 1723.75,-1104 1723.75,-1104 1723.75,-1092 1723.75,-1092 1723.75,-1086 1729.75,-1080 1735.75,-1080 1735.75,-1080 1835.75,-1080 1835.75,-1080 1841.75,-1080 1847.75,-1086 1847.75,-1092 1847.75,-1092 1847.75,-1104 1847.75,-1104 1847.75,-1110 1841.75,-1116 1835.75,-1116"/>
<text text-anchor="middle" x="1785.75" y="-1095.5" font-family="sans" font-size="10.00">prep_segs_for_greedy</text>
</g>
<!-- 14&#45;&gt;19 -->
<g id="edge44" class="edge">
<title>14&#45;&gt;19</title>
<path fill="none" stroke="grey" stroke-width="2" d="M1815.87,-1151.7C1811.26,-1143.64 1805.69,-1133.89 1800.6,-1124.98"/>
<polygon fill="grey" stroke="grey" stroke-width="2" points="1803.53,-1123.05 1795.53,-1116.1 1797.45,-1126.52 1803.53,-1123.05"/>
</g>
<!-- 18 -->
<g id="node39" class="node">
<title>18</title>
<path fill="none" stroke="#78d856" stroke-width="2" d="M1831.75,-1044C1831.75,-1044 1739.75,-1044 1739.75,-1044 1733.75,-1044 1727.75,-1038 1727.75,-1032 1727.75,-1032 1727.75,-1020 1727.75,-1020 1727.75,-1014 1733.75,-1008 1739.75,-1008 1739.75,-1008 1831.75,-1008 1831.75,-1008 1837.75,-1008 1843.75,-1014 1843.75,-1020 1843.75,-1020 1843.75,-1032 1843.75,-1032 1843.75,-1038 1837.75,-1044 1831.75,-1044"/>
<text text-anchor="middle" x="1785.75" y="-1023.5" font-family="sans" font-size="10.00">template_shape_reg</text>
</g>
<!-- 19&#45;&gt;18 -->
<g id="edge47" class="edge">
<title>19&#45;&gt;18</title>
<path fill="none" stroke="grey" stroke-width="2" d="M1785.75,-1079.7C1785.75,-1071.98 1785.75,-1062.71 1785.75,-1054.11"/>
<polygon fill="grey" stroke="grey" stroke-width="2" points="1789.25,-1054.1 1785.75,-1044.1 1782.25,-1054.1 1789.25,-1054.1"/>
</g>
<!-- 18&#45;&gt;13 -->
<g id="edge45" class="edge">
<title>18&#45;&gt;13</title>
<path fill="none" stroke="grey" stroke-width="2" d="M1806.77,-1007.7C1817.47,-998.88 1830.64,-988.03 1842.25,-978.47"/>
<polygon fill="grey" stroke="grey" stroke-width="2" points="1844.49,-981.16 1849.98,-972.1 1840.04,-975.76 1844.49,-981.16"/>
</g>
<!-- 20 -->
<g id="node40" class="node">
<title>20</title>
<path fill="none" stroke="#d88d56" stroke-width="2" d="M1776.25,-972C1776.25,-972 1657.25,-972 1657.25,-972 1651.25,-972 1645.25,-966 1645.25,-960 1645.25,-960 1645.25,-948 1645.25,-948 1645.25,-942 1651.25,-936 1657.25,-936 1657.25,-936 1776.25,-936 1776.25,-936 1782.25,-936 1788.25,-942 1788.25,-948 1788.25,-948 1788.25,-960 1788.25,-960 1788.25,-966 1782.25,-972 1776.25,-972"/>
<text text-anchor="middle" x="1716.75" y="-951.5" font-family="sans" font-size="10.00">inject_init_laplace_coords</text>
</g>
<!-- 18&#45;&gt;20 -->
<g id="edge46" class="edge">
<title>18&#45;&gt;20</title>
<path fill="none" stroke="grey" stroke-width="2" d="M1768.7,-1007.7C1760.26,-999.14 1749.93,-988.66 1740.71,-979.3"/>
<polygon fill="grey" stroke="grey" stroke-width="2" points="1743.13,-976.77 1733.61,-972.1 1738.14,-981.68 1743.13,-976.77"/>
</g>
<!-- 20&#45;&gt;11 -->
<g id="edge74" class="edge">
<title>20&#45;&gt;11</title>
<path fill="none" stroke="grey" stroke-width="2" d="M1676.85,-935.9C1632.33,-916.51 1558.46,-883.36 1496.75,-851 1486.34,-845.54 1475.26,-839.24 1465.14,-833.29"/>
<polygon fill="grey" stroke="grey" stroke-width="2" points="1466.91,-830.27 1456.53,-828.17 1463.34,-836.28 1466.91,-830.27"/>
</g>
<!-- 20&#45;&gt;35 -->
<g id="edge75" class="edge">
<title>20&#45;&gt;35</title>
<path fill="none" stroke="grey" stroke-width="2" d="M1645.09,-937.48C1572.21,-920.54 1456.81,-890.47 1361.75,-851 1349.39,-845.86 1336.36,-839.34 1324.7,-833.07"/>
<polygon fill="grey" stroke="grey" stroke-width="2" points="1326.13,-829.86 1315.68,-828.11 1322.77,-835.99 1326.13,-829.86"/>
</g>
<!-- 15&#45;&gt;12 -->
<g id="edge68" class="edge">
<title>15&#45;&gt;12</title>
<path fill="none" stroke="grey" stroke-width="2" d="M1599.77,-1151.71C1593.52,-1109.52 1583.73,-1000.1 1636.75,-936 1656.15,-912.55 1686.49,-899.46 1715.06,-892.16"/>
<polygon fill="grey" stroke="grey" stroke-width="2" points="1716.14,-895.5 1725.07,-889.81 1714.54,-888.68 1716.14,-895.5"/>
</g>
<!-- 15&#45;&gt;13 -->
<g id="edge69" class="edge">
<title>15&#45;&gt;13</title>
<path fill="none" stroke="grey" stroke-width="2" d="M1618.31,-1151.78C1627.24,-1141.62 1638.49,-1128.37 1647.75,-1116 1682.19,-1070.02 1673.46,-1043.33 1718.75,-1008 1732.09,-997.6 1766.8,-985.18 1799.69,-974.98"/>
<polygon fill="grey" stroke="grey" stroke-width="2" points="1800.81,-978.3 1809.35,-972.03 1798.77,-971.61 1800.81,-978.3"/>
</g>
<!-- 15&#45;&gt;19 -->
<g id="edge70" class="edge">
<title>15&#45;&gt;19</title>
<path fill="none" stroke="grey" stroke-width="2" d="M1644.28,-1153.12C1670.13,-1143.23 1703.65,-1130.41 1731.57,-1119.72"/>
<polygon fill="grey" stroke="grey" stroke-width="2" points="1733.11,-1122.89 1741.2,-1116.04 1730.61,-1116.35 1733.11,-1122.89"/>
</g>
<!-- 15&#45;&gt;20 -->
<g id="edge71" class="edge">
<title>15&#45;&gt;20</title>
<path fill="none" stroke="grey" stroke-width="2" d="M1610.16,-1151.66C1623.17,-1121.69 1651.54,-1058.56 1680.75,-1008 1686.04,-998.85 1692.36,-989.19 1698.22,-980.66"/>
<polygon fill="grey" stroke="grey" stroke-width="2" points="1701.24,-982.46 1704.1,-972.25 1695.5,-978.45 1701.24,-982.46"/>
</g>
<!-- 36 -->
<g id="node44" class="node">
<title>36</title>
<path fill="none" stroke="#68d856" stroke-width="2" d="M1610.75,-252C1610.75,-252 1492.75,-252 1492.75,-252 1486.75,-252 1480.75,-246 1480.75,-240 1480.75,-240 1480.75,-228 1480.75,-228 1480.75,-222 1486.75,-216 1492.75,-216 1492.75,-216 1610.75,-216 1610.75,-216 1616.75,-216 1622.75,-222 1622.75,-228 1622.75,-228 1622.75,-240 1622.75,-240 1622.75,-246 1616.75,-252 1610.75,-252"/>
<text text-anchor="middle" x="1551.75" y="-231.5" font-family="sans" font-size="10.00">copy_subfields_to_results</text>
</g>
<!-- 37&#45;&gt;36 -->
<g id="edge91" class="edge">
<title>37&#45;&gt;36</title>
<path fill="none" stroke="grey" stroke-width="2" d="M1734.11,-287.97C1699.85,-278.01 1656.44,-265.41 1620.57,-254.99"/>
<polygon fill="grey" stroke="grey" stroke-width="2" points="1621.24,-251.54 1610.66,-252.11 1619.29,-258.26 1621.24,-251.54"/>
</g>
<!-- 39&#45;&gt;37 -->
<g id="edge48" class="edge">
<title>39&#45;&gt;37</title>
<path fill="none" stroke="grey" stroke-width="2" d="M1791.25,-359.7C1791.47,-351.98 1791.73,-342.71 1791.98,-334.11"/>
<polygon fill="grey" stroke="grey" stroke-width="2" points="1795.48,-334.2 1792.27,-324.1 1788.48,-334 1795.48,-334.2"/>
</g>
<!-- 36&#45;&gt;42 -->
<g id="edge89" class="edge">
<title>36&#45;&gt;42</title>
<path fill="none" stroke="grey" stroke-width="2" d="M1480.67,-217.8C1477.66,-217.19 1474.68,-216.59 1471.75,-216 1388.52,-199.34 1291.16,-181.38 1235.34,-171.23"/>
<polygon fill="grey" stroke="grey" stroke-width="2" points="1235.88,-167.77 1225.42,-169.42 1234.63,-174.65 1235.88,-167.77"/>
</g>
<!-- 36&#45;&gt;46 -->
<g id="edge90" class="edge">
<title>36&#45;&gt;46</title>
<path fill="none" stroke="grey" stroke-width="2" d="M1480.33,-217.2C1477.44,-216.75 1474.57,-216.35 1471.75,-216 1399.81,-206.99 1215.62,-222.38 1145.75,-203 1131.99,-199.18 1117.98,-192.35 1105.96,-185.41"/>
<polygon fill="grey" stroke="grey" stroke-width="2" points="1107.56,-182.29 1097.19,-180.12 1103.95,-188.28 1107.56,-182.29"/>
</g>
<!-- 36&#45;&gt;0 -->
<g id="edge88" class="edge">
<title>36&#45;&gt;0</title>
<path fill="none" stroke="grey" stroke-width="2" d="M1527.98,-215.89C1482.83,-184.03 1380.77,-114.93 1286.75,-72 1244.34,-52.63 1192.81,-37.29 1158.75,-28.2"/>
<polygon fill="grey" stroke="grey" stroke-width="2" points="1159.33,-24.73 1148.77,-25.58 1157.55,-31.5 1159.33,-24.73"/>
</g>
<!-- 40&#45;&gt;0 -->
<g id="edge93" class="edge">
<title>40&#45;&gt;0</title>
<path fill="none" stroke="grey" stroke-width="2" d="M1385.18,-215.63C1362.87,-183.32 1310.85,-113.52 1251.75,-72 1223.16,-51.91 1185.81,-37.7 1158.49,-29.08"/>
<polygon fill="grey" stroke="grey" stroke-width="2" points="1159.49,-25.73 1148.91,-26.16 1157.45,-32.43 1159.49,-25.73"/>
</g>
<!-- 41&#45;&gt;0 -->
<g id="edge94" class="edge">
<title>41&#45;&gt;0</title>
<path fill="none" stroke="grey" stroke-width="2" d="M1256.03,-215.81C1259.28,-184.11 1261.69,-115.69 1229.75,-72 1212.82,-48.84 1182.96,-35.27 1158.92,-27.67"/>
<polygon fill="grey" stroke="grey" stroke-width="2" points="1159.61,-24.23 1149.03,-24.77 1157.64,-30.95 1159.61,-24.23"/>
</g>
</g>
</svg>
