<?xml version="1.0" encoding="UTF-8" standalone="no"?>
<!DOCTYPE svg PUBLIC "-//W3C//DTD SVG 1.1//EN"
 "http://www.w3.org/Graphics/SVG/1.1/DTD/svg11.dtd">
<!-- Generated by graphviz version 2.43.0 (0)
 -->
<!-- Pages: 1 -->
<svg width="422pt" height="196pt"
 viewBox="0.00 0.00 421.50 196.00" xmlns="http://www.w3.org/2000/svg" xmlns:xlink="http://www.w3.org/1999/xlink">
<g id="graph0" class="graph" transform="scale(1 1) rotate(0) translate(4 192)">
<polygon fill="white" stroke="transparent" points="-4,4 -4,-192 417.5,-192 417.5,4 -4,4"/>
<g id="clust1" class="cluster">
<title>cluster_0</title>
<polygon fill="white" stroke="blue" points="20,-8 20,-139 350,-139 350,-8 20,-8"/>
<text text-anchor="middle" x="185" y="-123.8" font-family="Times,serif" font-size="14.00">qc</text>
</g>
<!-- 42 -->
<g id="node1" class="node">
<title>42</title>
<path fill="none" stroke="#56d8b9" stroke-width="2" d="M337.5,-116C337.5,-116 290.5,-116 290.5,-116 284.5,-116 278.5,-110 278.5,-104 278.5,-104 278.5,-92 278.5,-92 278.5,-86 284.5,-80 290.5,-80 290.5,-80 337.5,-80 337.5,-80 343.5,-80 349.5,-86 349.5,-92 349.5,-92 349.5,-104 349.5,-104 349.5,-110 343.5,-116 337.5,-116"/>
<text text-anchor="middle" x="314" y="-95.5" font-family="sans" font-size="10.00">qc_subfield</text>
</g>
<!-- 44 -->
<g id="node2" class="node">
<title>44</title>
<path fill="none" stroke="#56d0d8" stroke-width="2" d="M103.5,-116C103.5,-116 32.5,-116 32.5,-116 26.5,-116 20.5,-110 20.5,-104 20.5,-104 20.5,-92 20.5,-92 20.5,-86 26.5,-80 32.5,-80 32.5,-80 103.5,-80 103.5,-80 109.5,-80 115.5,-86 115.5,-92 115.5,-92 115.5,-104 115.5,-104 115.5,-110 109.5,-116 103.5,-116"/>
<text text-anchor="middle" x="68" y="-95.5" font-family="sans" font-size="10.00">qc_subfield_surf</text>
</g>
<!-- 45 -->
<g id="node3" class="node">
<title>45</title>
<path fill="none" stroke="#d8c356" stroke-width="2" d="M240,-44C240,-44 154,-44 154,-44 148,-44 142,-38 142,-32 142,-32 142,-20 142,-20 142,-14 148,-8 154,-8 154,-8 240,-8 240,-8 246,-8 252,-14 252,-20 252,-20 252,-32 252,-32 252,-38 246,-44 240,-44"/>
<text text-anchor="middle" x="197" y="-23.5" font-family="sans" font-size="10.00">plot_subj_subfields</text>
</g>
<!-- 46 -->
<g id="node4" class="node">
<title>46</title>
<path fill="none" stroke="#59d856" stroke-width="2" d="M248.5,-116C248.5,-116 145.5,-116 145.5,-116 139.5,-116 133.5,-110 133.5,-104 133.5,-104 133.5,-92 133.5,-92 133.5,-86 139.5,-80 145.5,-80 145.5,-80 248.5,-80 248.5,-80 254.5,-80 260.5,-86 260.5,-92 260.5,-92 260.5,-104 260.5,-104 260.5,-110 254.5,-116 248.5,-116"/>
<text text-anchor="middle" x="197" y="-95.5" font-family="sans" font-size="10.00">get_subfield_vols_subj</text>
</g>
<!-- 46&#45;&gt;45 -->
<g id="edge1" class="edge">
<title>46&#45;&gt;45</title>
<path fill="none" stroke="grey" stroke-width="2" d="M197,-79.7C197,-71.98 197,-62.71 197,-54.11"/>
<polygon fill="grey" stroke="grey" stroke-width="2" points="200.5,-54.1 197,-44.1 193.5,-54.1 200.5,-54.1"/>
</g>
<!-- 5 -->
<g id="node5" class="node">
<title>5</title>
<path fill="none" stroke="#9fd856" stroke-width="2" d="M106,-188C106,-188 12,-188 12,-188 6,-188 0,-182 0,-176 0,-176 0,-164 0,-164 0,-158 6,-152 12,-152 12,-152 106,-152 106,-152 112,-152 118,-158 118,-164 118,-164 118,-176 118,-176 118,-182 112,-188 106,-188"/>
<text text-anchor="middle" x="59" y="-167.5" font-family="sans" font-size="10.00">correct_nan_vertices</text>
</g>
<!-- 5&#45;&gt;44 -->
<g id="edge2" class="edge">
<title>5&#45;&gt;44</title>
<path fill="none" stroke="grey" stroke-width="2" d="M61.22,-151.7C62.22,-143.98 63.41,-134.71 64.51,-126.11"/>
<polygon fill="grey" stroke="grey" stroke-width="2" points="68,-126.47 65.8,-116.1 61.05,-125.58 68,-126.47"/>
</g>
<!-- 36 -->
<g id="node6" class="node">
<title>36</title>
<path fill="none" stroke="#68d856" stroke-width="2" d="M266,-188C266,-188 148,-188 148,-188 142,-188 136,-182 136,-176 136,-176 136,-164 136,-164 136,-158 142,-152 148,-152 148,-152 266,-152 266,-152 272,-152 278,-158 278,-164 278,-164 278,-176 278,-176 278,-182 272,-188 266,-188"/>
<text text-anchor="middle" x="207" y="-167.5" font-family="sans" font-size="10.00">copy_subfields_to_results</text>
</g>
<!-- 36&#45;&gt;42 -->
<g id="edge3" class="edge">
<title>36&#45;&gt;42</title>
<path fill="none" stroke="grey" stroke-width="2" d="M246.6,-151.86C254.25,-148 262.04,-143.65 269,-139 275.97,-134.35 282.98,-128.69 289.34,-123.11"/>
<polygon fill="grey" stroke="grey" stroke-width="2" points="291.93,-125.48 296.97,-116.16 287.22,-120.3 291.93,-125.48"/>
</g>
<!-- 36&#45;&gt;46 -->
<g id="edge4" class="edge">
<title>36&#45;&gt;46</title>
<path fill="none" stroke="grey" stroke-width="2" d="M204.53,-151.7C203.43,-143.98 202.1,-134.71 200.87,-126.11"/>
<polygon fill="grey" stroke="grey" stroke-width="2" points="204.32,-125.51 199.44,-116.1 197.39,-126.5 204.32,-125.51"/>
</g>
<!-- 43 -->
<g id="node7" class="node">
<title>43</title>
<path fill="none" stroke="#56d8c1" stroke-width="2" d="M401.5,-188C401.5,-188 308.5,-188 308.5,-188 302.5,-188 296.5,-182 296.5,-176 296.5,-176 296.5,-164 296.5,-164 296.5,-158 302.5,-152 308.5,-152 308.5,-152 401.5,-152 401.5,-152 407.5,-152 413.5,-158 413.5,-164 413.5,-164 413.5,-176 413.5,-176 413.5,-182 407.5,-188 401.5,-188"/>
<text text-anchor="middle" x="355" y="-167.5" font-family="sans" font-size="10.00">cp_b500_to_anat_dir</text>
</g>
<!-- 43&#45;&gt;42 -->
<g id="edge5" class="edge">
<title>43&#45;&gt;42</title>
<path fill="none" stroke="grey" stroke-width="2" d="M344.87,-151.7C340.15,-143.64 334.44,-133.89 329.22,-124.98"/>
<polygon fill="grey" stroke="grey" stroke-width="2" points="332.09,-122.96 324.02,-116.1 326.05,-126.5 332.09,-122.96"/>
</g>
</g>
</svg>
