<?xml version="1.0" encoding="UTF-8" standalone="no"?>
<!DOCTYPE svg PUBLIC "-//W3C//DTD SVG 1.1//EN"
 "http://www.w3.org/Graphics/SVG/1.1/DTD/svg11.dtd">
<!-- Generated by graphviz version 2.43.0 (0)
 -->
<!-- Pages: 1 -->
<svg width="233pt" height="155pt"
 viewBox="0.00 0.00 233.00 155.00" xmlns="http://www.w3.org/2000/svg" xmlns:xlink="http://www.w3.org/1999/xlink">
<g id="graph0" class="graph" transform="scale(1 1) rotate(0) translate(4 151)">
<polygon fill="white" stroke="transparent" points="-4,4 -4,-151 229,-151 229,4 -4,4"/>
<g id="clust1" class="cluster">
<title>cluster_0</title>
<polygon fill="white" stroke="blue" points="8,-8 8,-139 217,-139 217,-8 8,-8"/>
<text text-anchor="middle" x="112.5" y="-123.8" font-family="Times,serif" font-size="14.00">preproc_hippb500</text>
</g>
<!-- 16 -->
<g id="node1" class="node">
<title>16</title>
<path fill="none" stroke="#56d863" stroke-width="2" d="M69.5,-44C69.5,-44 20.5,-44 20.5,-44 14.5,-44 8.5,-38 8.5,-32 8.5,-32 8.5,-20 8.5,-20 8.5,-14 14.5,-8 20.5,-8 20.5,-8 69.5,-8 69.5,-8 75.5,-8 81.5,-14 81.5,-20 81.5,-20 81.5,-32 81.5,-32 81.5,-38 75.5,-44 69.5,-44"/>
<text text-anchor="middle" x="45" y="-23.5" font-family="sans" font-size="10.00">lr_flip_b500</text>
</g>
<!-- 17 -->
<g id="node2" class="node">
<title>17</title>
<path fill="none" stroke="#56b9d8" stroke-width="2" d="M185,-116C185,-116 39,-116 39,-116 33,-116 27,-110 27,-104 27,-104 27,-92 27,-92 27,-86 33,-80 39,-80 39,-80 185,-80 185,-80 191,-80 197,-86 197,-92 197,-92 197,-104 197,-104 197,-110 191,-116 185,-116"/>
<text text-anchor="middle" x="112" y="-95.5" font-family="sans" font-size="10.00">resample_hippdwi_to_template</text>
</g>
<!-- 17&#45;&gt;16 -->
<g id="edge1" class="edge">
<title>17&#45;&gt;16</title>
<path fill="none" stroke="grey" stroke-width="2" d="M95.44,-79.7C87.32,-71.22 77.41,-60.86 68.53,-51.58"/>
<polygon fill="grey" stroke="grey" stroke-width="2" points="70.81,-48.91 61.37,-44.1 65.76,-53.75 70.81,-48.91"/>
</g>
<!-- 43 -->
<g id="node3" class="node">
<title>43</title>
<path fill="none" stroke="#56d8c1" stroke-width="2" d="M204.5,-44C204.5,-44 111.5,-44 111.5,-44 105.5,-44 99.5,-38 99.5,-32 99.5,-32 99.5,-20 99.5,-20 99.5,-14 105.5,-8 111.5,-8 111.5,-8 204.5,-8 204.5,-8 210.5,-8 216.5,-14 216.5,-20 216.5,-20 216.5,-32 216.5,-32 216.5,-38 210.5,-44 204.5,-44"/>
<text text-anchor="middle" x="158" y="-23.5" font-family="sans" font-size="10.00">cp_b500_to_anat_dir</text>
</g>
<!-- 17&#45;&gt;43 -->
<g id="edge2" class="edge">
<title>17&#45;&gt;43</title>
<path fill="none" stroke="grey" stroke-width="2" d="M123.37,-79.7C128.72,-71.56 135.2,-61.69 141.11,-52.7"/>
<polygon fill="grey" stroke="grey" stroke-width="2" points="144.19,-54.38 146.76,-44.1 138.34,-50.54 144.19,-54.38"/>
</g>
</g>
</svg>
