<?xml version="1.0" encoding="UTF-8" standalone="no"?>
<!DOCTYPE svg PUBLIC "-//W3C//DTD SVG 1.1//EN"
 "http://www.w3.org/Graphics/SVG/1.1/DTD/svg11.dtd">
<!-- Generated by graphviz version 2.43.0 (0)
 -->
<!-- Pages: 1 -->
<svg width="611pt" height="340pt"
 viewBox="0.00 0.00 611.00 340.00" xmlns="http://www.w3.org/2000/svg" xmlns:xlink="http://www.w3.org/1999/xlink">
<g id="graph0" class="graph" transform="scale(1 1) rotate(0) translate(4 336)">
<polygon fill="white" stroke="transparent" points="-4,4 -4,-336 607,-336 607,4 -4,4"/>
<g id="clust1" class="cluster">
<title>cluster_0</title>
<polygon fill="white" stroke="blue" points="191.5,-8 191.5,-139 403.5,-139 403.5,-8 191.5,-8"/>
<text text-anchor="middle" x="297.5" y="-123.8" font-family="Times,serif" font-size="14.00">subfields</text>
</g>
<!-- 37 -->
<g id="node1" class="node">
<title>37</title>
<path fill="none" stroke="#5673d8" stroke-width="2" d="M385.5,-44C385.5,-44 203.5,-44 203.5,-44 197.5,-44 191.5,-38 191.5,-32 191.5,-32 191.5,-20 191.5,-20 191.5,-14 197.5,-8 203.5,-8 203.5,-8 385.5,-8 385.5,-8 391.5,-8 397.5,-14 397.5,-20 397.5,-20 397.5,-32 397.5,-32 397.5,-38 391.5,-44 385.5,-44"/>
<text text-anchor="middle" x="294.5" y="-23.5" font-family="sans" font-size="10.00">combine_tissue_subfield_labels_corobl</text>
</g>
<!-- 39 -->
<g id="node2" class="node">
<title>39</title>
<path fill="none" stroke="#d89556" stroke-width="2" d="M391,-116C391,-116 204,-116 204,-116 198,-116 192,-110 192,-104 192,-104 192,-92 192,-92 192,-86 198,-80 204,-80 204,-80 391,-80 391,-80 397,-80 403,-86 403,-92 403,-92 403,-104 403,-104 403,-110 397,-116 391,-116"/>
<text text-anchor="middle" x="297.5" y="-95.5" font-family="sans" font-size="10.00">label_subfields_from_vol_coords_corobl</text>
</g>
<!-- 39&#45;&gt;37 -->
<g id="edge1" class="edge">
<title>39&#45;&gt;37</title>
<path fill="none" stroke="grey" stroke-width="2" d="M296.76,-79.7C296.43,-71.98 296.03,-62.71 295.66,-54.11"/>
<polygon fill="grey" stroke="grey" stroke-width="2" points="299.16,-53.95 295.23,-44.1 292.16,-54.25 299.16,-53.95"/>
</g>
<!-- 10 -->
<g id="node3" class="node">
<title>10</title>
<path fill="none" stroke="#d8bc56" stroke-width="2" d="M591,-188C591,-188 534,-188 534,-188 528,-188 522,-182 522,-176 522,-176 522,-164 522,-164 522,-158 528,-152 534,-152 534,-152 591,-152 591,-152 597,-152 603,-158 603,-164 603,-164 603,-176 603,-176 603,-182 597,-188 591,-188"/>
<text text-anchor="middle" x="562.5" y="-167.5" font-family="sans" font-size="10.00">unflip_coords</text>
</g>
<!-- 10&#45;&gt;39 -->
<g id="edge2" class="edge">
<title>10&#45;&gt;39</title>
<path fill="none" stroke="grey" stroke-width="2" d="M521.72,-156.14C516.94,-154.7 512.12,-153.3 507.5,-152 465.28,-140.16 417.95,-128.1 378.92,-118.49"/>
<polygon fill="grey" stroke="grey" stroke-width="2" points="379.73,-115.09 369.19,-116.1 378.06,-121.89 379.73,-115.09"/>
</g>
<!-- 11 -->
<g id="node4" class="node">
<title>11</title>
<path fill="none" stroke="#d8a456" stroke-width="2" d="M539.5,-260C539.5,-260 447.5,-260 447.5,-260 441.5,-260 435.5,-254 435.5,-248 435.5,-248 435.5,-236 435.5,-236 435.5,-230 441.5,-224 447.5,-224 447.5,-224 539.5,-224 539.5,-224 545.5,-224 551.5,-230 551.5,-236 551.5,-236 551.5,-248 551.5,-248 551.5,-254 545.5,-260 539.5,-260"/>
<text text-anchor="middle" x="493.5" y="-239.5" font-family="sans" font-size="10.00">laplace_coords_hipp</text>
</g>
<!-- 11&#45;&gt;39 -->
<g id="edge4" class="edge">
<title>11&#45;&gt;39</title>
<path fill="none" stroke="grey" stroke-width="2" d="M494.68,-223.95C495.09,-204.13 492.6,-171.63 474.5,-152 458.06,-134.18 435.9,-122.26 412.83,-114.31"/>
<polygon fill="grey" stroke="grey" stroke-width="2" points="413.84,-110.96 403.25,-111.25 411.71,-117.63 413.84,-110.96"/>
</g>
<!-- 11&#45;&gt;10 -->
<g id="edge3" class="edge">
<title>11&#45;&gt;10</title>
<path fill="none" stroke="grey" stroke-width="2" d="M510.56,-223.7C519,-215.14 529.32,-204.66 538.54,-195.3"/>
<polygon fill="grey" stroke="grey" stroke-width="2" points="541.11,-197.68 545.64,-188.1 536.13,-192.77 541.11,-197.68"/>
</g>
<!-- 12 -->
<g id="node5" class="node">
<title>12</title>
<path fill="none" stroke="#5692d8" stroke-width="2" d="M172,-332C172,-332 67,-332 67,-332 61,-332 55,-326 55,-320 55,-320 55,-308 55,-308 55,-302 61,-296 67,-296 67,-296 172,-296 172,-296 178,-296 184,-302 184,-308 184,-308 184,-320 184,-320 184,-326 178,-332 172,-332"/>
<text text-anchor="middle" x="119.5" y="-311.5" font-family="sans" font-size="10.00">reinsert_subject_labels</text>
</g>
<!-- 12&#45;&gt;37 -->
<g id="edge6" class="edge">
<title>12&#45;&gt;37</title>
<path fill="none" stroke="grey" stroke-width="2" d="M118.47,-295.76C116.9,-252.23 119.35,-137.27 183.5,-80 198.29,-66.8 216.94,-56.2 234.72,-48.06"/>
<polygon fill="grey" stroke="grey" stroke-width="2" points="236.16,-51.25 243.91,-44.02 233.35,-44.84 236.16,-51.25"/>
</g>
<!-- 12&#45;&gt;11 -->
<g id="edge5" class="edge">
<title>12&#45;&gt;11</title>
<path fill="none" stroke="grey" stroke-width="2" d="M184.22,-300.89C251.67,-288.26 356.92,-268.56 425.55,-255.72"/>
<polygon fill="grey" stroke="grey" stroke-width="2" points="426.22,-259.15 435.4,-253.87 424.93,-252.27 426.22,-259.15"/>
</g>
<!-- 38 -->
<g id="node6" class="node">
<title>38</title>
<path fill="none" stroke="#d8cb56" stroke-width="2" d="M79,-116C79,-116 12,-116 12,-116 6,-116 0,-110 0,-104 0,-104 0,-92 0,-92 0,-86 6,-80 12,-80 12,-80 79,-80 79,-80 85,-80 91,-86 91,-92 91,-92 91,-104 91,-104 91,-110 85,-116 79,-116"/>
<text text-anchor="middle" x="45.5" y="-95.5" font-family="sans" font-size="10.00">unflip_postproc</text>
</g>
<!-- 12&#45;&gt;38 -->
<g id="edge7" class="edge">
<title>12&#45;&gt;38</title>
<path fill="none" stroke="grey" stroke-width="2" d="M113.57,-295.85C100.71,-258.68 70.2,-170.44 54.77,-125.82"/>
<polygon fill="grey" stroke="grey" stroke-width="2" points="58.03,-124.54 51.46,-116.23 51.42,-126.83 58.03,-124.54"/>
</g>
<!-- 38&#45;&gt;37 -->
<g id="edge12" class="edge">
<title>38&#45;&gt;37</title>
<path fill="none" stroke="grey" stroke-width="2" d="M91.03,-84.09C95.92,-82.7 100.81,-81.32 105.5,-80 144.63,-68.97 188.32,-56.71 223.84,-46.77"/>
<polygon fill="grey" stroke="grey" stroke-width="2" points="224.94,-50.09 233.63,-44.02 223.06,-43.35 224.94,-50.09"/>
</g>
<!-- 21 -->
<g id="node7" class="node">
<title>21</title>
<path fill="none" stroke="#56d892" stroke-width="2" d="M257.5,-188C257.5,-188 159.5,-188 159.5,-188 153.5,-188 147.5,-182 147.5,-176 147.5,-176 147.5,-164 147.5,-164 147.5,-158 153.5,-152 159.5,-152 159.5,-152 257.5,-152 257.5,-152 263.5,-152 269.5,-158 269.5,-164 269.5,-164 269.5,-176 269.5,-176 269.5,-182 263.5,-188 257.5,-188"/>
<text text-anchor="middle" x="208.5" y="-167.5" font-family="sans" font-size="10.00">unflip_coords_equivol</text>
</g>
<!-- 21&#45;&gt;39 -->
<g id="edge8" class="edge">
<title>21&#45;&gt;39</title>
<path fill="none" stroke="grey" stroke-width="2" d="M230.5,-151.7C241.71,-142.88 255.5,-132.03 267.65,-122.47"/>
<polygon fill="grey" stroke="grey" stroke-width="2" points="270.06,-125.04 275.75,-116.1 265.73,-119.54 270.06,-125.04"/>
</g>
<!-- 22 -->
<g id="node8" class="node">
<title>22</title>
<path fill="none" stroke="#56d8d8" stroke-width="2" d="M296.5,-260C296.5,-260 208.5,-260 208.5,-260 202.5,-260 196.5,-254 196.5,-248 196.5,-248 196.5,-236 196.5,-236 196.5,-230 202.5,-224 208.5,-224 208.5,-224 296.5,-224 296.5,-224 302.5,-224 308.5,-230 308.5,-236 308.5,-236 308.5,-248 308.5,-248 308.5,-254 302.5,-260 296.5,-260"/>
<text text-anchor="middle" x="252.5" y="-239.5" font-family="sans" font-size="10.00">equivolume_coords</text>
</g>
<!-- 22&#45;&gt;39 -->
<g id="edge10" class="edge">
<title>22&#45;&gt;39</title>
<path fill="none" stroke="grey" stroke-width="2" d="M262.28,-223.8C267.71,-213.65 274.21,-200.4 278.5,-188 285.51,-167.75 290.42,-143.98 293.5,-126.1"/>
<polygon fill="grey" stroke="grey" stroke-width="2" points="296.98,-126.5 295.13,-116.07 290.07,-125.37 296.98,-126.5"/>
</g>
<!-- 22&#45;&gt;21 -->
<g id="edge9" class="edge">
<title>22&#45;&gt;21</title>
<path fill="none" stroke="grey" stroke-width="2" d="M241.62,-223.7C236.51,-215.56 230.3,-205.69 224.66,-196.7"/>
<polygon fill="grey" stroke="grey" stroke-width="2" points="227.54,-194.71 219.25,-188.1 221.61,-198.43 227.54,-194.71"/>
</g>
<!-- 31 -->
<g id="node9" class="node">
<title>31</title>
<path fill="none" stroke="#56d873" stroke-width="2" d="M453.5,-188C453.5,-188 337.5,-188 337.5,-188 331.5,-188 325.5,-182 325.5,-176 325.5,-176 325.5,-164 325.5,-164 325.5,-158 331.5,-152 337.5,-152 337.5,-152 453.5,-152 453.5,-152 459.5,-152 465.5,-158 465.5,-164 465.5,-164 465.5,-176 465.5,-176 465.5,-182 459.5,-188 453.5,-188"/>
<text text-anchor="middle" x="395.5" y="-167.5" font-family="sans" font-size="10.00">resample_atlas_to_refvol</text>
</g>
<!-- 31&#45;&gt;39 -->
<g id="edge11" class="edge">
<title>31&#45;&gt;39</title>
<path fill="none" stroke="grey" stroke-width="2" d="M371.53,-151.88C358.95,-142.89 343.37,-131.76 329.75,-122.03"/>
<polygon fill="grey" stroke="grey" stroke-width="2" points="331.74,-119.15 321.57,-116.19 327.67,-124.85 331.74,-119.15"/>
</g>
</g>
</svg>
