<?xml version="1.0" encoding="UTF-8" standalone="no"?>
<!DOCTYPE svg PUBLIC "-//W3C//DTD SVG 1.1//EN"
 "http://www.w3.org/Graphics/SVG/1.1/DTD/svg11.dtd">
<!-- Generated by graphviz version 2.43.0 (0)
 -->
<!-- Pages: 1 -->
<svg width="2679pt" height="1451pt"
 viewBox="0.00 0.00 2679.00 1451.00" xmlns="http://www.w3.org/2000/svg" xmlns:xlink="http://www.w3.org/1999/xlink">
<g id="graph0" class="graph" transform="scale(1 1) rotate(0) translate(4 1447)">
<polygon fill="white" stroke="transparent" points="-4,4 -4,-1447 2675,-1447 2675,4 -4,4"/>
<g id="clust1" class="cluster">
<title>cluster_1</title>
<polygon fill="white" stroke="blue" points="256,-944 256,-1435 531,-1435 531,-944 256,-944"/>
<text text-anchor="middle" x="393.5" y="-1419.8" font-family="Times,serif" font-size="14.00">preproc_t1</text>
</g>
<g id="clust3" class="cluster">
<title>cluster_2</title>
<polygon fill="white" stroke="blue" points="1079,-440 1079,-715 1489,-715 1489,-440 1079,-440"/>
<text text-anchor="middle" x="1284" y="-699.8" font-family="Times,serif" font-size="14.00">warps</text>
</g>
<g id="clust5" class="cluster">
<title>cluster_3</title>
<polygon fill="white" stroke="blue" points="470,-224 470,-355 931,-355 931,-224 470,-224"/>
<text text-anchor="middle" x="700.5" y="-339.8" font-family="Times,serif" font-size="14.00">qc</text>
</g>
<g id="clust7" class="cluster">
<title>cluster_5</title>
<polygon fill="white" stroke="blue" points="651,-584 651,-787 1075,-787 1075,-584 651,-584"/>
<text text-anchor="middle" x="863" y="-771.8" font-family="Times,serif" font-size="14.00">autotop</text>
</g>
<g id="clust10" class="cluster">
<title>cluster_9</title>
<polygon fill="white" stroke="blue" points="1903,-8 1903,-715 2663,-715 2663,-8 1903,-8"/>
<text text-anchor="middle" x="2283" y="-699.8" font-family="Times,serif" font-size="14.00">gifti</text>
</g>
<g id="clust11" class="cluster">
<title>cluster_11</title>
<polygon fill="white" stroke="blue" points="1539,-368 1539,-571 1751,-571 1751,-368 1539,-368"/>
<text text-anchor="middle" x="1645" y="-555.8" font-family="Times,serif" font-size="14.00">subfields</text>
</g>
<g id="clust12" class="cluster">
<title>cluster_10</title>
<polygon fill="white" stroke="blue" points="1113,-728 1113,-1147 1403,-1147 1403,-728 1113,-728"/>
<text text-anchor="middle" x="1258" y="-1131.8" font-family="Times,serif" font-size="14.00">shape_inject</text>
</g>
<g id="clust13" class="cluster">
<title>cluster_13</title>
<polygon fill="white" stroke="blue" points="508,-368 508,-499 1020,-499 1020,-368 508,-368"/>
<text text-anchor="middle" x="764" y="-483.8" font-family="Times,serif" font-size="14.00">resample_final_to_crop_native</text>
</g>
<g id="clust14" class="cluster">
<title>cluster_12</title>
<polygon fill="white" stroke="blue" points="531,-728 531,-1003 651,-1003 651,-728 531,-728"/>
<text text-anchor="middle" x="591" y="-987.8" font-family="Times,serif" font-size="14.00">nnunet</text>
</g>
<!-- 17 -->
<g id="node1" class="node">
<title>17</title>
<path fill="none" stroke="#d89556" stroke-width="2" d="M474.5,-980C474.5,-980 439.5,-980 439.5,-980 433.5,-980 427.5,-974 427.5,-968 427.5,-968 427.5,-956 427.5,-956 427.5,-950 433.5,-944 439.5,-944 439.5,-944 474.5,-944 474.5,-944 480.5,-944 486.5,-950 486.5,-956 486.5,-956 486.5,-968 486.5,-968 486.5,-974 480.5,-980 474.5,-980"/>
<text text-anchor="middle" x="457" y="-959.5" font-family="sans" font-size="10.00">lr_flip_t1</text>
</g>
<!-- 16 -->
<g id="node57" class="node">
<title>16</title>
<path fill="none" stroke="#5692d8" stroke-width="2" d="M634.5,-980C634.5,-980 575.5,-980 575.5,-980 569.5,-980 563.5,-974 563.5,-968 563.5,-968 563.5,-956 563.5,-956 563.5,-950 569.5,-944 575.5,-944 575.5,-944 634.5,-944 634.5,-944 640.5,-944 646.5,-950 646.5,-956 646.5,-956 646.5,-968 646.5,-968 646.5,-974 640.5,-980 634.5,-980"/>
<text text-anchor="middle" x="605" y="-959.5" font-family="sans" font-size="10.00">run_inference</text>
</g>
<!-- 17&#45;&gt;16 -->
<g id="edge92" class="edge">
<title>17&#45;&gt;16</title>
<path fill="none" stroke="grey" stroke-width="2" d="M486.77,-962C508.93,-962 531.09,-962 553.25,-962"/>
<polygon fill="grey" stroke="grey" stroke-width="2" points="553.44,-965.5 563.44,-962 553.44,-958.5 553.44,-965.5"/>
</g>
<!-- 18 -->
<g id="node2" class="node">
<title>18</title>
<path fill="none" stroke="#56d8d0" stroke-width="2" d="M376,-1052C376,-1052 268,-1052 268,-1052 262,-1052 256,-1046 256,-1040 256,-1040 256,-1028 256,-1028 256,-1022 262,-1016 268,-1016 268,-1016 376,-1016 376,-1016 382,-1016 388,-1022 388,-1028 388,-1028 388,-1040 388,-1040 388,-1046 382,-1052 376,-1052"/>
<text text-anchor="middle" x="322" y="-1031.5" font-family="sans" font-size="10.00">warp_t1_to_corobl_crop</text>
</g>
<!-- 18&#45;&gt;17 -->
<g id="edge1" class="edge">
<title>18&#45;&gt;17</title>
<path fill="none" stroke="grey" stroke-width="2" d="M355.02,-1015.88C374.03,-1006.02 398.01,-993.59 417.95,-983.25"/>
<polygon fill="grey" stroke="grey" stroke-width="2" points="419.81,-986.22 427.08,-978.51 416.59,-980.01 419.81,-986.22"/>
</g>
<!-- 18&#45;&gt;16 -->
<g id="edge93" class="edge">
<title>18&#45;&gt;16</title>
<path fill="none" stroke="grey" stroke-width="2" d="M388.23,-1017.67C391.52,-1017.07 394.8,-1016.51 398,-1016 458.41,-1006.42 476.69,-1021.48 535,-1003 547.84,-998.93 560.93,-992.26 572.25,-985.53"/>
<polygon fill="grey" stroke="grey" stroke-width="2" points="574.26,-988.4 580.92,-980.17 570.58,-982.45 574.26,-988.4"/>
</g>
<!-- 59 -->
<g id="node58" class="node">
<title>59</title>
<path fill="none" stroke="#9fd856" stroke-width="2" d="M608,-836C608,-836 544,-836 544,-836 538,-836 532,-830 532,-824 532,-824 532,-812 532,-812 532,-806 538,-800 544,-800 544,-800 608,-800 608,-800 614,-800 620,-806 620,-812 620,-812 620,-824 620,-824 620,-830 614,-836 608,-836"/>
<text text-anchor="middle" x="576" y="-815.5" font-family="sans" font-size="10.00">qc_nnunet_f3d</text>
</g>
<!-- 18&#45;&gt;59 -->
<g id="edge94" class="edge">
<title>18&#45;&gt;59</title>
<path fill="none" stroke="grey" stroke-width="2" d="M339.89,-1015.88C359.1,-997.67 390.69,-968.21 419,-944 461.9,-907.32 513.39,-867 545.41,-842.34"/>
<polygon fill="grey" stroke="grey" stroke-width="2" points="547.71,-844.98 553.5,-836.12 543.44,-839.43 547.71,-844.98"/>
</g>
<!-- 19 -->
<g id="node3" class="node">
<title>19</title>
<path fill="none" stroke="#d86e56" stroke-width="2" d="M408,-1340C408,-1340 378,-1340 378,-1340 372,-1340 366,-1334 366,-1328 366,-1328 366,-1316 366,-1316 366,-1310 372,-1304 378,-1304 378,-1304 408,-1304 408,-1304 414,-1304 420,-1310 420,-1316 420,-1316 420,-1328 420,-1328 420,-1334 414,-1340 408,-1340"/>
<text text-anchor="middle" x="393" y="-1319.5" font-family="sans" font-size="10.00">n4_t1</text>
</g>
<!-- 19&#45;&gt;18 -->
<g id="edge2" class="edge">
<title>19&#45;&gt;18</title>
<path fill="none" stroke="grey" stroke-width="2" d="M403.59,-1303.93C427.38,-1263.15 479.64,-1158.25 435,-1088 426.1,-1073.99 412.4,-1063.62 397.59,-1055.96"/>
<polygon fill="grey" stroke="grey" stroke-width="2" points="398.78,-1052.66 388.25,-1051.54 395.79,-1058.98 398.78,-1052.66"/>
</g>
<!-- 23 -->
<g id="node4" class="node">
<title>23</title>
<path fill="none" stroke="#565bd8" stroke-width="2" d="M377.5,-1268C377.5,-1268 304.5,-1268 304.5,-1268 298.5,-1268 292.5,-1262 292.5,-1256 292.5,-1256 292.5,-1244 292.5,-1244 292.5,-1238 298.5,-1232 304.5,-1232 304.5,-1232 377.5,-1232 377.5,-1232 383.5,-1232 389.5,-1238 389.5,-1244 389.5,-1244 389.5,-1256 389.5,-1256 389.5,-1262 383.5,-1268 377.5,-1268"/>
<text text-anchor="middle" x="341" y="-1247.5" font-family="sans" font-size="10.00">reg_to_template</text>
</g>
<!-- 19&#45;&gt;23 -->
<g id="edge3" class="edge">
<title>19&#45;&gt;23</title>
<path fill="none" stroke="grey" stroke-width="2" d="M380.15,-1303.7C373.97,-1295.39 366.46,-1285.28 359.68,-1276.14"/>
<polygon fill="grey" stroke="grey" stroke-width="2" points="362.48,-1274.04 353.71,-1268.1 356.86,-1278.22 362.48,-1274.04"/>
</g>
<!-- 48 -->
<g id="node44" class="node">
<title>48</title>
<path fill="none" stroke="#56d8c9" stroke-width="2" d="M1703,-404C1703,-404 1565,-404 1565,-404 1559,-404 1553,-398 1553,-392 1553,-392 1553,-380 1553,-380 1553,-374 1559,-368 1565,-368 1565,-368 1703,-368 1703,-368 1709,-368 1715,-374 1715,-380 1715,-380 1715,-392 1715,-392 1715,-398 1709,-404 1703,-404"/>
<text text-anchor="middle" x="1634" y="-383.5" font-family="sans" font-size="10.00">resample_subfields_to_native</text>
</g>
<!-- 19&#45;&gt;48 -->
<g id="edge95" class="edge">
<title>19&#45;&gt;48</title>
<path fill="none" stroke="grey" stroke-width="2" d="M420.32,-1319.9C623.62,-1311.5 1893,-1256 1893,-1179 1893,-1179 1893,-1179 1893,-529 1893,-450.23 1799.76,-414.87 1725.16,-399.18"/>
<polygon fill="grey" stroke="grey" stroke-width="2" points="1725.73,-395.72 1715.24,-397.18 1724.35,-402.58 1725.73,-395.72"/>
</g>
<!-- 52 -->
<g id="node56" class="node">
<title>52</title>
<path fill="none" stroke="#56d8b9" stroke-width="2" d="M636,-404C636,-404 520,-404 520,-404 514,-404 508,-398 508,-392 508,-392 508,-380 508,-380 508,-374 514,-368 520,-368 520,-368 636,-368 636,-368 642,-368 648,-374 648,-380 648,-380 648,-392 648,-392 648,-398 642,-404 636,-404"/>
<text text-anchor="middle" x="578" y="-383.5" font-family="sans" font-size="10.00">resample_native_to_crop</text>
</g>
<!-- 19&#45;&gt;52 -->
<g id="edge96" class="edge">
<title>19&#45;&gt;52</title>
<path fill="none" stroke="grey" stroke-width="2" d="M365.99,-1317.24C277.2,-1304.14 0,-1256.99 0,-1179 0,-1179 0,-1179 0,-1033 0,-932.07 76,-919.93 76,-819 76,-819 76,-819 76,-745 76,-604.28 51.99,-528.99 161,-440 218.66,-392.93 420.45,-415.39 494,-404 495.28,-403.8 496.57,-403.6 497.87,-403.39"/>
<polygon fill="grey" stroke="grey" stroke-width="2" points="498.69,-406.8 507.96,-401.68 497.52,-399.9 498.69,-406.8"/>
</g>
<!-- 22 -->
<g id="node8" class="node">
<title>22</title>
<path fill="none" stroke="#d89c56" stroke-width="2" d="M412.5,-1196C412.5,-1196 269.5,-1196 269.5,-1196 263.5,-1196 257.5,-1190 257.5,-1184 257.5,-1184 257.5,-1172 257.5,-1172 257.5,-1166 263.5,-1160 269.5,-1160 269.5,-1160 412.5,-1160 412.5,-1160 418.5,-1160 424.5,-1166 424.5,-1172 424.5,-1172 424.5,-1184 424.5,-1184 424.5,-1190 418.5,-1196 412.5,-1196"/>
<text text-anchor="middle" x="341" y="-1175.5" font-family="sans" font-size="10.00">convert_template_xfm_ras2itk</text>
</g>
<!-- 23&#45;&gt;22 -->
<g id="edge8" class="edge">
<title>23&#45;&gt;22</title>
<path fill="none" stroke="grey" stroke-width="2" d="M341,-1231.7C341,-1223.98 341,-1214.71 341,-1206.11"/>
<polygon fill="grey" stroke="grey" stroke-width="2" points="344.5,-1206.1 341,-1196.1 337.5,-1206.1 344.5,-1206.1"/>
</g>
<!-- 53 -->
<g id="node16" class="node">
<title>53</title>
<path fill="none" stroke="#56c9d8" stroke-width="2" d="M571.5,-332C571.5,-332 482.5,-332 482.5,-332 476.5,-332 470.5,-326 470.5,-320 470.5,-320 470.5,-308 470.5,-308 470.5,-302 476.5,-296 482.5,-296 482.5,-296 571.5,-296 571.5,-296 577.5,-296 583.5,-302 583.5,-308 583.5,-308 583.5,-320 583.5,-320 583.5,-326 577.5,-332 571.5,-332"/>
<text text-anchor="middle" x="527" y="-311.5" font-family="sans" font-size="10.00">qc_reg_to_template</text>
</g>
<!-- 23&#45;&gt;53 -->
<g id="edge102" class="edge">
<title>23&#45;&gt;53</title>
<path fill="none" stroke="grey" stroke-width="2" d="M292.32,-1247.65C206.67,-1242.39 38,-1217.96 38,-1107 38,-1107 38,-1107 38,-601 38,-523.83 45.85,-491.86 103,-440 203.93,-348.41 368.88,-323.74 460.45,-317.22"/>
<polygon fill="grey" stroke="grey" stroke-width="2" points="460.68,-320.71 470.43,-316.56 460.22,-313.73 460.68,-320.71"/>
</g>
<!-- 20 -->
<g id="node5" class="node">
<title>20</title>
<path fill="none" stroke="#d88d56" stroke-width="2" d="M413,-1412C413,-1412 373,-1412 373,-1412 367,-1412 361,-1406 361,-1400 361,-1400 361,-1388 361,-1388 361,-1382 367,-1376 373,-1376 373,-1376 413,-1376 413,-1376 419,-1376 425,-1382 425,-1388 425,-1388 425,-1400 425,-1400 425,-1406 419,-1412 413,-1412"/>
<text text-anchor="middle" x="393" y="-1391.5" font-family="sans" font-size="10.00">import_t1</text>
</g>
<!-- 20&#45;&gt;19 -->
<g id="edge4" class="edge">
<title>20&#45;&gt;19</title>
<path fill="none" stroke="grey" stroke-width="2" d="M393,-1375.7C393,-1367.98 393,-1358.71 393,-1350.11"/>
<polygon fill="grey" stroke="grey" stroke-width="2" points="396.5,-1350.1 393,-1340.1 389.5,-1350.1 396.5,-1350.1"/>
</g>
<!-- 21 -->
<g id="node6" class="node">
<title>21</title>
<path fill="none" stroke="#567bd8" stroke-width="2" d="M414,-1124C414,-1124 268,-1124 268,-1124 262,-1124 256,-1118 256,-1112 256,-1112 256,-1100 256,-1100 256,-1094 262,-1088 268,-1088 268,-1088 414,-1088 414,-1088 420,-1088 426,-1094 426,-1100 426,-1100 426,-1112 426,-1112 426,-1118 420,-1124 414,-1124"/>
<text text-anchor="middle" x="341" y="-1103.5" font-family="sans" font-size="10.00">compose_template_xfm_corobl</text>
</g>
<!-- 21&#45;&gt;18 -->
<g id="edge5" class="edge">
<title>21&#45;&gt;18</title>
<path fill="none" stroke="grey" stroke-width="2" d="M336.3,-1087.7C334.19,-1079.9 331.64,-1070.51 329.28,-1061.83"/>
<polygon fill="grey" stroke="grey" stroke-width="2" points="332.64,-1060.84 326.64,-1052.1 325.88,-1062.67 332.64,-1060.84"/>
</g>
<!-- 33 -->
<g id="node7" class="node">
<title>33</title>
<path fill="none" stroke="#8fd856" stroke-width="2" d="M519.5,-1052C519.5,-1052 418.5,-1052 418.5,-1052 412.5,-1052 406.5,-1046 406.5,-1040 406.5,-1040 406.5,-1028 406.5,-1028 406.5,-1022 412.5,-1016 418.5,-1016 418.5,-1016 519.5,-1016 519.5,-1016 525.5,-1016 531.5,-1022 531.5,-1028 531.5,-1028 531.5,-1040 531.5,-1040 531.5,-1046 525.5,-1052 519.5,-1052"/>
<text text-anchor="middle" x="469" y="-1031.5" font-family="sans" font-size="10.00">template_xfm_itk2ras</text>
</g>
<!-- 21&#45;&gt;33 -->
<g id="edge6" class="edge">
<title>21&#45;&gt;33</title>
<path fill="none" stroke="grey" stroke-width="2" d="M372.31,-1087.88C389.2,-1078.64 410.25,-1067.13 428.38,-1057.21"/>
<polygon fill="grey" stroke="grey" stroke-width="2" points="430.47,-1060.06 437.57,-1052.19 427.11,-1053.92 430.47,-1060.06"/>
</g>
<!-- 50 -->
<g id="node10" class="node">
<title>50</title>
<path fill="none" stroke="#d8d356" stroke-width="2" d="M1477,-476C1477,-476 1319,-476 1319,-476 1313,-476 1307,-470 1307,-464 1307,-464 1307,-452 1307,-452 1307,-446 1313,-440 1319,-440 1319,-440 1477,-440 1477,-440 1483,-440 1489,-446 1489,-452 1489,-452 1489,-464 1489,-464 1489,-470 1483,-476 1477,-476"/>
<text text-anchor="middle" x="1398" y="-455.5" font-family="sans" font-size="10.00">compose_warps_native_to_unfold</text>
</g>
<!-- 21&#45;&gt;50 -->
<g id="edge100" class="edge">
<title>21&#45;&gt;50</title>
<path fill="none" stroke="grey" stroke-width="2" d="M261.12,-1087.99C242.63,-1080.15 225.13,-1068.7 214,-1052 205.13,-1038.68 208.2,-1030.91 214,-1016 260.21,-897.2 134.75,-840.08 647,-584 836.81,-489.11 908.12,-535.7 1119,-512 1198.27,-503.09 1220.27,-516.91 1298,-499 1316.58,-494.72 1336.23,-487.5 1353.14,-480.36"/>
<polygon fill="grey" stroke="grey" stroke-width="2" points="1354.98,-483.38 1362.76,-476.19 1352.19,-476.96 1354.98,-483.38"/>
</g>
<!-- 51 -->
<g id="node11" class="node">
<title>51</title>
<path fill="none" stroke="#5682d8" stroke-width="2" d="M1276.5,-476C1276.5,-476 1091.5,-476 1091.5,-476 1085.5,-476 1079.5,-470 1079.5,-464 1079.5,-464 1079.5,-452 1079.5,-452 1079.5,-446 1085.5,-440 1091.5,-440 1091.5,-440 1276.5,-440 1276.5,-440 1282.5,-440 1288.5,-446 1288.5,-452 1288.5,-452 1288.5,-464 1288.5,-464 1288.5,-470 1282.5,-476 1276.5,-476"/>
<text text-anchor="middle" x="1184" y="-455.5" font-family="sans" font-size="10.00">compose_warps_unfold_to_crop_native</text>
</g>
<!-- 21&#45;&gt;51 -->
<g id="edge101" class="edge">
<title>21&#45;&gt;51</title>
<path fill="none" stroke="grey" stroke-width="2" d="M255.93,-1098.08C225.71,-1091.03 194.61,-1077.53 176,-1052 156.52,-1025.28 148.19,-830.61 310,-656 361.9,-599.99 396.48,-615.59 466,-584 537.36,-551.58 550.62,-529.61 627,-512 713.01,-492.17 936.58,-511.22 1024,-499 1055.45,-494.6 1089.69,-486.51 1118.39,-478.74"/>
<polygon fill="grey" stroke="grey" stroke-width="2" points="1119.58,-482.05 1128.3,-476.02 1117.73,-475.3 1119.58,-482.05"/>
</g>
<!-- 21&#45;&gt;48 -->
<g id="edge98" class="edge">
<title>21&#45;&gt;48</title>
<path fill="none" stroke="grey" stroke-width="2" d="M289.35,-1087.96C272.86,-1079.8 256.45,-1068.18 247,-1052 238.93,-1038.18 238.67,-1029.66 247,-1016 319.89,-896.55 393.9,-915.21 527,-872 763.1,-795.36 870.79,-922.14 1079,-787 1105.16,-770.02 1089.88,-743.41 1117,-728 1153.35,-707.35 1461.71,-742.72 1493,-715 1585.58,-632.95 1464.62,-541.04 1536,-440 1545.38,-426.72 1559.17,-416.45 1573.45,-408.64"/>
<polygon fill="grey" stroke="grey" stroke-width="2" points="1575.06,-411.75 1582.38,-404.09 1571.88,-405.51 1575.06,-411.75"/>
</g>
<!-- 43 -->
<g id="node53" class="node">
<title>43</title>
<path fill="none" stroke="#5663d8" stroke-width="2" d="M1007.5,-404C1007.5,-404 858.5,-404 858.5,-404 852.5,-404 846.5,-398 846.5,-392 846.5,-392 846.5,-380 846.5,-380 846.5,-374 852.5,-368 858.5,-368 858.5,-368 1007.5,-368 1007.5,-368 1013.5,-368 1019.5,-374 1019.5,-380 1019.5,-380 1019.5,-392 1019.5,-392 1019.5,-398 1013.5,-404 1007.5,-404"/>
<text text-anchor="middle" x="933" y="-383.5" font-family="sans" font-size="10.00">resample_subfields_native_crop</text>
</g>
<!-- 21&#45;&gt;43 -->
<g id="edge97" class="edge">
<title>21&#45;&gt;43</title>
<path fill="none" stroke="grey" stroke-width="2" d="M255.89,-1092.28C207.3,-1083.29 152.8,-1069.69 136,-1052 111.01,-1025.69 114,-991.41 114,-819 114,-819 114,-819 114,-745 114,-587.28 630.38,-454.31 843.08,-406.23"/>
<polygon fill="grey" stroke="grey" stroke-width="2" points="843.99,-409.62 852.98,-404.01 842.46,-402.79 843.99,-409.62"/>
</g>
<!-- 49 -->
<g id="node55" class="node">
<title>49</title>
<path fill="none" stroke="#56d8a9" stroke-width="2" d="M816,-404C816,-404 678,-404 678,-404 672,-404 666,-398 666,-392 666,-392 666,-380 666,-380 666,-374 672,-368 678,-368 678,-368 816,-368 816,-368 822,-368 828,-374 828,-380 828,-380 828,-392 828,-392 828,-398 822,-404 816,-404"/>
<text text-anchor="middle" x="747" y="-383.5" font-family="sans" font-size="10.00">resample_coords_native_crop</text>
</g>
<!-- 21&#45;&gt;49 -->
<g id="edge99" class="edge">
<title>21&#45;&gt;49</title>
<path fill="none" stroke="grey" stroke-width="2" d="M255.55,-1100.63C221.06,-1094.21 184.24,-1080.48 162,-1052 98.21,-970.3 152,-922.65 152,-819 152,-819 152,-819 152,-529 152,-421 579.34,-407.97 655.19,-403.45"/>
<polygon fill="grey" stroke="grey" stroke-width="2" points="655.92,-406.9 665.6,-402.61 655.35,-399.93 655.92,-406.9"/>
</g>
<!-- 5 -->
<g id="node33" class="node">
<title>5</title>
<path fill="none" stroke="#56d8b1" stroke-width="2" d="M2136.5,-404C2136.5,-404 2051.5,-404 2051.5,-404 2045.5,-404 2039.5,-398 2039.5,-392 2039.5,-392 2039.5,-380 2039.5,-380 2039.5,-374 2045.5,-368 2051.5,-368 2051.5,-368 2136.5,-368 2136.5,-368 2142.5,-368 2148.5,-374 2148.5,-380 2148.5,-380 2148.5,-392 2148.5,-392 2148.5,-398 2142.5,-404 2136.5,-404"/>
<text text-anchor="middle" x="2094" y="-383.5" font-family="sans" font-size="10.00">warp_gii_to_native</text>
</g>
<!-- 33&#45;&gt;5 -->
<g id="edge111" class="edge">
<title>33&#45;&gt;5</title>
<path fill="none" stroke="grey" stroke-width="2" d="M531.55,-1031.37C734.44,-1026.02 1363.73,-1009.03 1407,-1003 1610.27,-974.67 1855,-1096.24 1855,-891 1855,-891 1855,-891 1855,-817 1855,-716.07 1931,-703.93 1931,-603 1931,-603 1931,-603 1931,-529 1931,-470.42 1991.6,-430.48 2038.9,-408.23"/>
<polygon fill="grey" stroke="grey" stroke-width="2" points="2040.51,-411.35 2048.16,-404.02 2037.61,-404.98 2040.51,-411.35"/>
</g>
<!-- 22&#45;&gt;21 -->
<g id="edge7" class="edge">
<title>22&#45;&gt;21</title>
<path fill="none" stroke="grey" stroke-width="2" d="M341,-1159.7C341,-1151.98 341,-1142.71 341,-1134.11"/>
<polygon fill="grey" stroke="grey" stroke-width="2" points="344.5,-1134.1 341,-1124.1 337.5,-1134.1 344.5,-1134.1"/>
</g>
<!-- 8 -->
<g id="node9" class="node">
<title>8</title>
<path fill="none" stroke="#70d856" stroke-width="2" d="M1224,-548C1224,-548 1140,-548 1140,-548 1134,-548 1128,-542 1128,-536 1128,-536 1128,-524 1128,-524 1128,-518 1134,-512 1140,-512 1140,-512 1224,-512 1224,-512 1230,-512 1236,-518 1236,-524 1236,-524 1236,-536 1236,-536 1236,-542 1230,-548 1224,-548"/>
<text text-anchor="middle" x="1182" y="-527.5" font-family="sans" font-size="10.00">create_warps_hipp</text>
</g>
<!-- 8&#45;&gt;50 -->
<g id="edge9" class="edge">
<title>8&#45;&gt;50</title>
<path fill="none" stroke="grey" stroke-width="2" d="M1236.12,-516.52C1255.77,-511.6 1278.04,-505.54 1298,-499 1314.93,-493.45 1333.12,-486.49 1349.27,-479.94"/>
<polygon fill="grey" stroke="grey" stroke-width="2" points="1350.6,-483.17 1358.53,-476.14 1347.95,-476.7 1350.6,-483.17"/>
</g>
<!-- 8&#45;&gt;51 -->
<g id="edge10" class="edge">
<title>8&#45;&gt;51</title>
<path fill="none" stroke="grey" stroke-width="2" d="M1182.49,-511.7C1182.71,-503.98 1182.98,-494.71 1183.23,-486.11"/>
<polygon fill="grey" stroke="grey" stroke-width="2" points="1186.72,-486.2 1183.51,-476.1 1179.73,-486 1186.72,-486.2"/>
</g>
<!-- 7 -->
<g id="node37" class="node">
<title>7</title>
<path fill="none" stroke="#56d882" stroke-width="2" d="M2078.5,-548C2078.5,-548 1971.5,-548 1971.5,-548 1965.5,-548 1959.5,-542 1959.5,-536 1959.5,-536 1959.5,-524 1959.5,-524 1959.5,-518 1965.5,-512 1971.5,-512 1971.5,-512 2078.5,-512 2078.5,-512 2084.5,-512 2090.5,-518 2090.5,-524 2090.5,-524 2090.5,-536 2090.5,-536 2090.5,-542 2084.5,-548 2078.5,-548"/>
<text text-anchor="middle" x="2025" y="-527.5" font-family="sans" font-size="10.00">warp_gii_unfold2native</text>
</g>
<!-- 8&#45;&gt;7 -->
<g id="edge72" class="edge">
<title>8&#45;&gt;7</title>
<path fill="none" stroke="grey" stroke-width="2" d="M1208.82,-548.21C1226.48,-559.07 1250.59,-571.81 1274,-577.5 1291.87,-581.84 1918.16,-581.96 1936,-577.5 1955.03,-572.74 1974.45,-563.05 1990.27,-553.66"/>
<polygon fill="grey" stroke="grey" stroke-width="2" points="1992.46,-556.42 1999.14,-548.2 1988.79,-550.46 1992.46,-556.42"/>
</g>
<!-- 0 -->
<g id="node61" class="node">
<title>0</title>
<path fill="none" stroke="#bed856" stroke-width="2" d="M955,-188C955,-188 925,-188 925,-188 919,-188 913,-182 913,-176 913,-176 913,-164 913,-164 913,-158 919,-152 925,-152 925,-152 955,-152 955,-152 961,-152 967,-158 967,-164 967,-164 967,-176 967,-176 967,-182 961,-188 955,-188"/>
<text text-anchor="middle" x="940" y="-167.5" font-family="sans" font-size="10.00">all</text>
</g>
<!-- 50&#45;&gt;0 -->
<g id="edge125" class="edge">
<title>50&#45;&gt;0</title>
<path fill="none" stroke="grey" stroke-width="2" d="M1376.48,-439.92C1324.44,-399.12 1186.79,-294.18 1061,-224 1033.72,-208.78 1001.21,-194.75 976.76,-184.95"/>
<polygon fill="grey" stroke="grey" stroke-width="2" points="977.73,-181.57 967.15,-181.15 975.16,-188.08 977.73,-181.57"/>
</g>
<!-- 51&#45;&gt;0 -->
<g id="edge126" class="edge">
<title>51&#45;&gt;0</title>
<path fill="none" stroke="grey" stroke-width="2" d="M1176.31,-439.84C1157.07,-398.41 1103.22,-291.38 1032,-224 1015.81,-208.68 994.39,-196.01 976.29,-186.9"/>
<polygon fill="grey" stroke="grey" stroke-width="2" points="977.7,-183.69 967.17,-182.47 974.63,-189.99 977.7,-183.69"/>
</g>
<!-- 9 -->
<g id="node12" class="node">
<title>9</title>
<path fill="none" stroke="#d87556" stroke-width="2" d="M1477,-692C1477,-692 1399,-692 1399,-692 1393,-692 1387,-686 1387,-680 1387,-680 1387,-668 1387,-668 1387,-662 1393,-656 1399,-656 1399,-656 1477,-656 1477,-656 1483,-656 1489,-662 1489,-668 1489,-668 1489,-680 1489,-680 1489,-686 1483,-692 1477,-692"/>
<text text-anchor="middle" x="1438" y="-671.5" font-family="sans" font-size="10.00">create_unfold_ref</text>
</g>
<!-- 9&#45;&gt;8 -->
<g id="edge11" class="edge">
<title>9&#45;&gt;8</title>
<path fill="none" stroke="grey" stroke-width="2" d="M1386.66,-665.81C1352.56,-658.85 1308.45,-645.45 1277,-620 1262.6,-608.35 1268.47,-597.7 1256,-584 1245.63,-572.61 1232.42,-562.21 1220.04,-553.69"/>
<polygon fill="grey" stroke="grey" stroke-width="2" points="1221.92,-550.74 1211.65,-548.11 1218.04,-556.56 1221.92,-550.74"/>
</g>
<!-- 9&#45;&gt;50 -->
<g id="edge14" class="edge">
<title>9&#45;&gt;50</title>
<path fill="none" stroke="grey" stroke-width="2" d="M1453.18,-655.7C1460.73,-645.94 1469.07,-633.1 1473,-620 1479.36,-598.81 1470.44,-518.31 1467,-512 1460.49,-500.06 1450.02,-489.96 1439.18,-481.89"/>
<polygon fill="grey" stroke="grey" stroke-width="2" points="1441.09,-478.95 1430.88,-476.11 1437.09,-484.7 1441.09,-478.95"/>
</g>
<!-- 9&#45;&gt;51 -->
<g id="edge15" class="edge">
<title>9&#45;&gt;51</title>
<path fill="none" stroke="grey" stroke-width="2" d="M1441.65,-655.91C1443.68,-645.57 1445.98,-632.09 1447,-620 1451.29,-569.15 1450.23,-540.65 1408,-512 1387.63,-498.18 1321.98,-504.55 1298,-499 1277.02,-494.14 1254.54,-486.75 1235.13,-479.63"/>
<polygon fill="grey" stroke="grey" stroke-width="2" points="1236.17,-476.29 1225.58,-476.07 1233.72,-482.84 1236.17,-476.29"/>
</g>
<!-- 10 -->
<g id="node13" class="node">
<title>10</title>
<path fill="none" stroke="#78d856" stroke-width="2" d="M1416.5,-620C1416.5,-620 1297.5,-620 1297.5,-620 1291.5,-620 1285.5,-614 1285.5,-608 1285.5,-608 1285.5,-596 1285.5,-596 1285.5,-590 1291.5,-584 1297.5,-584 1297.5,-584 1416.5,-584 1416.5,-584 1422.5,-584 1428.5,-590 1428.5,-596 1428.5,-596 1428.5,-608 1428.5,-608 1428.5,-614 1422.5,-620 1416.5,-620"/>
<text text-anchor="middle" x="1357" y="-599.5" font-family="sans" font-size="10.00">create_unfold_coord_map</text>
</g>
<!-- 9&#45;&gt;10 -->
<g id="edge12" class="edge">
<title>9&#45;&gt;10</title>
<path fill="none" stroke="grey" stroke-width="2" d="M1417.98,-655.7C1407.87,-646.97 1395.46,-636.24 1384.48,-626.75"/>
<polygon fill="grey" stroke="grey" stroke-width="2" points="1386.65,-623.99 1376.79,-620.1 1382.07,-629.29 1386.65,-623.99"/>
</g>
<!-- 41 -->
<g id="node14" class="node">
<title>41</title>
<path fill="none" stroke="#56d88a" stroke-width="2" d="M1386.5,-548C1386.5,-548 1285.5,-548 1285.5,-548 1279.5,-548 1273.5,-542 1273.5,-536 1273.5,-536 1273.5,-524 1273.5,-524 1273.5,-518 1279.5,-512 1285.5,-512 1285.5,-512 1386.5,-512 1386.5,-512 1392.5,-512 1398.5,-518 1398.5,-524 1398.5,-524 1398.5,-536 1398.5,-536 1398.5,-542 1392.5,-548 1386.5,-548"/>
<text text-anchor="middle" x="1336" y="-527.5" font-family="sans" font-size="10.00">create_warps_dentate</text>
</g>
<!-- 9&#45;&gt;41 -->
<g id="edge13" class="edge">
<title>9&#45;&gt;41</title>
<path fill="none" stroke="grey" stroke-width="2" d="M1442.94,-655.86C1447.36,-636.84 1451.31,-605.92 1438,-584 1429.84,-570.57 1417.05,-560.38 1403.25,-552.72"/>
<polygon fill="grey" stroke="grey" stroke-width="2" points="1404.57,-549.47 1394.07,-548.04 1401.39,-555.7 1404.57,-549.47"/>
</g>
<!-- 31 -->
<g id="node38" class="node">
<title>31</title>
<path fill="none" stroke="#d86656" stroke-width="2" d="M2078,-620C2078,-620 1972,-620 1972,-620 1966,-620 1960,-614 1960,-608 1960,-608 1960,-596 1960,-596 1960,-590 1966,-584 1972,-584 1972,-584 2078,-584 2078,-584 2084,-584 2090,-590 2090,-596 2090,-596 2090,-608 2090,-608 2090,-614 2084,-620 2078,-620"/>
<text text-anchor="middle" x="2025" y="-599.5" font-family="sans" font-size="10.00">constrain_surf_to_bbox</text>
</g>
<!-- 9&#45;&gt;31 -->
<g id="edge74" class="edge">
<title>9&#45;&gt;31</title>
<path fill="none" stroke="grey" stroke-width="2" d="M1489.07,-666.91C1592.84,-654.54 1828.78,-626.4 1950.02,-611.94"/>
<polygon fill="grey" stroke="grey" stroke-width="2" points="1950.45,-615.42 1959.96,-610.76 1949.62,-608.46 1950.45,-615.42"/>
</g>
<!-- 38 -->
<g id="node42" class="node">
<title>38</title>
<path fill="none" stroke="#ced856" stroke-width="2" d="M2031,-260C2031,-260 1915,-260 1915,-260 1909,-260 1903,-254 1903,-248 1903,-248 1903,-236 1903,-236 1903,-230 1909,-224 1915,-224 1915,-224 2031,-224 2031,-224 2037,-224 2043,-230 2043,-236 2043,-236 2043,-248 2043,-248 2043,-254 2037,-260 2031,-260"/>
<text text-anchor="middle" x="1973" y="-239.5" font-family="sans" font-size="10.00">resample_atlas_to_refvol</text>
</g>
<!-- 9&#45;&gt;38 -->
<g id="edge75" class="edge">
<title>9&#45;&gt;38</title>
<path fill="none" stroke="grey" stroke-width="2" d="M1489.13,-670.12C1600.48,-660.82 1855,-621.75 1855,-459 1855,-459 1855,-459 1855,-385 1855,-333.44 1901.59,-290.6 1936.23,-265.89"/>
<polygon fill="grey" stroke="grey" stroke-width="2" points="1938.5,-268.57 1944.74,-260.01 1934.52,-262.82 1938.5,-268.57"/>
</g>
<!-- 9&#45;&gt;0 -->
<g id="edge73" class="edge">
<title>9&#45;&gt;0</title>
<path fill="none" stroke="grey" stroke-width="2" d="M1386.87,-669.02C1305.79,-662.03 1151.97,-645.78 1104,-620 1084.88,-609.73 1090.16,-594.19 1071,-584 846.03,-464.34 693.75,-669.08 504,-499 412.12,-416.65 383.74,-315.97 466,-224 495.02,-191.56 796.09,-176.66 902.77,-172.36"/>
<polygon fill="grey" stroke="grey" stroke-width="2" points="902.91,-175.86 912.77,-171.97 902.64,-168.87 902.91,-175.86"/>
</g>
<!-- 10&#45;&gt;8 -->
<g id="edge16" class="edge">
<title>10&#45;&gt;8</title>
<path fill="none" stroke="grey" stroke-width="2" d="M1300.62,-583.94C1288.75,-579.98 1276.38,-575.57 1265,-571 1251.5,-565.58 1237.12,-558.96 1224.19,-552.68"/>
<polygon fill="grey" stroke="grey" stroke-width="2" points="1225.58,-549.46 1215.06,-548.19 1222.49,-555.74 1225.58,-549.46"/>
</g>
<!-- 10&#45;&gt;41 -->
<g id="edge17" class="edge">
<title>10&#45;&gt;41</title>
<path fill="none" stroke="grey" stroke-width="2" d="M1351.81,-583.7C1349.47,-575.9 1346.65,-566.51 1344.05,-557.83"/>
<polygon fill="grey" stroke="grey" stroke-width="2" points="1347.36,-556.68 1341.13,-548.1 1340.65,-558.69 1347.36,-556.68"/>
</g>
<!-- 41&#45;&gt;50 -->
<g id="edge20" class="edge">
<title>41&#45;&gt;50</title>
<path fill="none" stroke="grey" stroke-width="2" d="M1351.33,-511.7C1358.76,-503.3 1367.82,-493.07 1375.98,-483.86"/>
<polygon fill="grey" stroke="grey" stroke-width="2" points="1378.84,-485.91 1382.85,-476.1 1373.6,-481.27 1378.84,-485.91"/>
</g>
<!-- 41&#45;&gt;51 -->
<g id="edge21" class="edge">
<title>41&#45;&gt;51</title>
<path fill="none" stroke="grey" stroke-width="2" d="M1298.82,-511.88C1278.13,-502.35 1252.2,-490.41 1230.22,-480.28"/>
<polygon fill="grey" stroke="grey" stroke-width="2" points="1231.61,-477.07 1221.06,-476.07 1228.68,-483.43 1231.61,-477.07"/>
</g>
<!-- 41&#45;&gt;7 -->
<g id="edge113" class="edge">
<title>41&#45;&gt;7</title>
<path fill="none" stroke="grey" stroke-width="2" d="M1398.17,-548.05C1439.18,-559 1494.31,-571.9 1544,-577.5 1587.28,-582.38 1893.75,-588.07 1936,-577.5 1955.03,-572.74 1974.45,-563.05 1990.27,-553.66"/>
<polygon fill="grey" stroke="grey" stroke-width="2" points="1992.46,-556.42 1999.14,-548.2 1988.79,-550.46 1992.46,-556.42"/>
</g>
<!-- 30 -->
<g id="node15" class="node">
<title>30</title>
<path fill="none" stroke="#68d856" stroke-width="2" d="M1235,-620C1235,-620 1125,-620 1125,-620 1119,-620 1113,-614 1113,-608 1113,-608 1113,-596 1113,-596 1113,-590 1119,-584 1125,-584 1125,-584 1235,-584 1235,-584 1241,-584 1247,-590 1247,-596 1247,-596 1247,-608 1247,-608 1247,-614 1241,-620 1235,-620"/>
<text text-anchor="middle" x="1180" y="-599.5" font-family="sans" font-size="10.00">create_native_coord_ref</text>
</g>
<!-- 30&#45;&gt;8 -->
<g id="edge18" class="edge">
<title>30&#45;&gt;8</title>
<path fill="none" stroke="grey" stroke-width="2" d="M1180.49,-583.7C1180.71,-575.98 1180.98,-566.71 1181.23,-558.11"/>
<polygon fill="grey" stroke="grey" stroke-width="2" points="1184.72,-558.2 1181.51,-548.1 1177.73,-558 1184.72,-558.2"/>
</g>
<!-- 30&#45;&gt;41 -->
<g id="edge19" class="edge">
<title>30&#45;&gt;41</title>
<path fill="none" stroke="grey" stroke-width="2" d="M1218.16,-583.88C1239.39,-574.35 1266.01,-562.41 1288.57,-552.28"/>
<polygon fill="grey" stroke="grey" stroke-width="2" points="1290.27,-555.36 1297.96,-548.07 1287.41,-548.97 1290.27,-555.36"/>
</g>
<!-- 53&#45;&gt;0 -->
<g id="edge129" class="edge">
<title>53&#45;&gt;0</title>
<path fill="none" stroke="grey" stroke-width="2" d="M583.51,-298.36C586.72,-297.56 589.9,-296.76 593,-296 660.83,-279.29 679.93,-282.68 746,-260 802.71,-240.54 865.22,-210.13 903.56,-190.38"/>
<polygon fill="grey" stroke="grey" stroke-width="2" points="905.5,-193.32 912.76,-185.6 902.27,-187.1 905.5,-193.32"/>
</g>
<!-- 54 -->
<g id="node17" class="node">
<title>54</title>
<path fill="none" stroke="#56d85b" stroke-width="2" d="M805.5,-332C805.5,-332 758.5,-332 758.5,-332 752.5,-332 746.5,-326 746.5,-320 746.5,-320 746.5,-308 746.5,-308 746.5,-302 752.5,-296 758.5,-296 758.5,-296 805.5,-296 805.5,-296 811.5,-296 817.5,-302 817.5,-308 817.5,-308 817.5,-320 817.5,-320 817.5,-326 811.5,-332 805.5,-332"/>
<text text-anchor="middle" x="782" y="-311.5" font-family="sans" font-size="10.00">qc_subfield</text>
</g>
<!-- 54&#45;&gt;0 -->
<g id="edge130" class="edge">
<title>54&#45;&gt;0</title>
<path fill="none" stroke="grey" stroke-width="2" d="M801.06,-295.87C829.05,-270.71 881.41,-223.65 913.25,-195.04"/>
<polygon fill="grey" stroke="grey" stroke-width="2" points="915.78,-197.48 920.87,-188.19 911.1,-192.27 915.78,-197.48"/>
</g>
<!-- 55 -->
<g id="node18" class="node">
<title>55</title>
<path fill="none" stroke="#d85656" stroke-width="2" d="M918.5,-332C918.5,-332 847.5,-332 847.5,-332 841.5,-332 835.5,-326 835.5,-320 835.5,-320 835.5,-308 835.5,-308 835.5,-302 841.5,-296 847.5,-296 847.5,-296 918.5,-296 918.5,-296 924.5,-296 930.5,-302 930.5,-308 930.5,-308 930.5,-320 930.5,-320 930.5,-326 924.5,-332 918.5,-332"/>
<text text-anchor="middle" x="883" y="-311.5" font-family="sans" font-size="10.00">qc_subfield_surf</text>
</g>
<!-- 55&#45;&gt;0 -->
<g id="edge131" class="edge">
<title>55&#45;&gt;0</title>
<path fill="none" stroke="grey" stroke-width="2" d="M889.88,-295.87C899.68,-271.46 917.75,-226.43 929.31,-197.64"/>
<polygon fill="grey" stroke="grey" stroke-width="2" points="932.62,-198.77 933.1,-188.19 926.13,-196.17 932.62,-198.77"/>
</g>
<!-- 56 -->
<g id="node19" class="node">
<title>56</title>
<path fill="none" stroke="#c6d856" stroke-width="2" d="M725,-260C725,-260 639,-260 639,-260 633,-260 627,-254 627,-248 627,-248 627,-236 627,-236 627,-230 633,-224 639,-224 639,-224 725,-224 725,-224 731,-224 737,-230 737,-236 737,-236 737,-248 737,-248 737,-254 731,-260 725,-260"/>
<text text-anchor="middle" x="682" y="-239.5" font-family="sans" font-size="10.00">plot_subj_subfields</text>
</g>
<!-- 56&#45;&gt;0 -->
<g id="edge132" class="edge">
<title>56&#45;&gt;0</title>
<path fill="none" stroke="grey" stroke-width="2" d="M737.03,-226.07C787.04,-212.5 859.45,-192.86 902.9,-181.06"/>
<polygon fill="grey" stroke="grey" stroke-width="2" points="904.04,-184.38 912.77,-178.39 902.2,-177.63 904.04,-184.38"/>
</g>
<!-- 57 -->
<g id="node20" class="node">
<title>57</title>
<path fill="none" stroke="#566bd8" stroke-width="2" d="M716.5,-332C716.5,-332 613.5,-332 613.5,-332 607.5,-332 601.5,-326 601.5,-320 601.5,-320 601.5,-308 601.5,-308 601.5,-302 607.5,-296 613.5,-296 613.5,-296 716.5,-296 716.5,-296 722.5,-296 728.5,-302 728.5,-308 728.5,-308 728.5,-320 728.5,-320 728.5,-326 722.5,-332 716.5,-332"/>
<text text-anchor="middle" x="665" y="-311.5" font-family="sans" font-size="10.00">get_subfield_vols_subj</text>
</g>
<!-- 57&#45;&gt;56 -->
<g id="edge22" class="edge">
<title>57&#45;&gt;56</title>
<path fill="none" stroke="grey" stroke-width="2" d="M669.2,-295.7C671.1,-287.9 673.38,-278.51 675.48,-269.83"/>
<polygon fill="grey" stroke="grey" stroke-width="2" points="678.89,-270.65 677.85,-260.1 672.08,-269 678.89,-270.65"/>
</g>
<!-- 11 -->
<g id="node21" class="node">
<title>11</title>
<path fill="none" stroke="#61d856" stroke-width="2" d="M821.5,-692C821.5,-692 764.5,-692 764.5,-692 758.5,-692 752.5,-686 752.5,-680 752.5,-680 752.5,-668 752.5,-668 752.5,-662 758.5,-656 764.5,-656 764.5,-656 821.5,-656 821.5,-656 827.5,-656 833.5,-662 833.5,-668 833.5,-668 833.5,-680 833.5,-680 833.5,-686 827.5,-692 821.5,-692"/>
<text text-anchor="middle" x="793" y="-671.5" font-family="sans" font-size="10.00">unflip_coords</text>
</g>
<!-- 11&#45;&gt;8 -->
<g id="edge76" class="edge">
<title>11&#45;&gt;8</title>
<path fill="none" stroke="grey" stroke-width="2" d="M783.03,-655.68C773.12,-635.91 761.67,-603.76 779,-584 800.95,-558.98 1009.42,-542.05 1117.58,-534.88"/>
<polygon fill="grey" stroke="grey" stroke-width="2" points="1117.97,-538.36 1127.72,-534.21 1117.51,-531.37 1117.97,-538.36"/>
</g>
<!-- 11&#45;&gt;41 -->
<g id="edge78" class="edge">
<title>11&#45;&gt;41</title>
<path fill="none" stroke="grey" stroke-width="2" d="M791.03,-655.8C789.75,-635.2 791.25,-601.31 812,-584 830.48,-568.58 1221.52,-576.3 1245,-571 1262.29,-567.1 1280.35,-559.89 1295.78,-552.66"/>
<polygon fill="grey" stroke="grey" stroke-width="2" points="1297.54,-555.69 1305.02,-548.18 1294.49,-549.39 1297.54,-555.69"/>
</g>
<!-- 11&#45;&gt;30 -->
<g id="edge77" class="edge">
<title>11&#45;&gt;30</title>
<path fill="none" stroke="grey" stroke-width="2" d="M833.68,-665.64C897.33,-654.13 1021.54,-631.66 1102.61,-617"/>
<polygon fill="grey" stroke="grey" stroke-width="2" points="1103.55,-620.39 1112.77,-615.16 1102.3,-613.5 1103.55,-620.39"/>
</g>
<!-- 46 -->
<g id="node45" class="node">
<title>46</title>
<path fill="none" stroke="#d8cb56" stroke-width="2" d="M1738.5,-548C1738.5,-548 1551.5,-548 1551.5,-548 1545.5,-548 1539.5,-542 1539.5,-536 1539.5,-536 1539.5,-524 1539.5,-524 1539.5,-518 1545.5,-512 1551.5,-512 1551.5,-512 1738.5,-512 1738.5,-512 1744.5,-512 1750.5,-518 1750.5,-524 1750.5,-524 1750.5,-536 1750.5,-536 1750.5,-542 1744.5,-548 1738.5,-548"/>
<text text-anchor="middle" x="1645" y="-527.5" font-family="sans" font-size="10.00">label_subfields_from_vol_coords_corobl</text>
</g>
<!-- 11&#45;&gt;46 -->
<g id="edge79" class="edge">
<title>11&#45;&gt;46</title>
<path fill="none" stroke="grey" stroke-width="2" d="M833.59,-660.72C865.96,-650.62 912.29,-635.51 952,-620 988.32,-605.82 994,-592.72 1032,-584 1131.89,-561.08 1391.56,-585.58 1493,-571 1522.83,-566.71 1555.21,-558.68 1582.39,-550.93"/>
<polygon fill="grey" stroke="grey" stroke-width="2" points="1583.52,-554.25 1592.15,-548.1 1581.57,-547.52 1583.52,-554.25"/>
</g>
<!-- 11&#45;&gt;49 -->
<g id="edge80" class="edge">
<title>11&#45;&gt;49</title>
<path fill="none" stroke="grey" stroke-width="2" d="M752.4,-665.2C695.84,-653.94 599.07,-633.03 589,-620 540.06,-556.72 542.28,-504.94 589,-440 598.19,-427.23 628.08,-415.74 659.43,-406.76"/>
<polygon fill="grey" stroke="grey" stroke-width="2" points="660.49,-410.1 669.19,-404.05 658.61,-403.35 660.49,-410.1"/>
</g>
<!-- 12 -->
<g id="node22" class="node">
<title>12</title>
<path fill="none" stroke="#56b9d8" stroke-width="2" d="M905,-764C905,-764 813,-764 813,-764 807,-764 801,-758 801,-752 801,-752 801,-740 801,-740 801,-734 807,-728 813,-728 813,-728 905,-728 905,-728 911,-728 917,-734 917,-740 917,-740 917,-752 917,-752 917,-758 911,-764 905,-764"/>
<text text-anchor="middle" x="859" y="-743.5" font-family="sans" font-size="10.00">laplace_coords_hipp</text>
</g>
<!-- 12&#45;&gt;8 -->
<g id="edge81" class="edge">
<title>12&#45;&gt;8</title>
<path fill="none" stroke="grey" stroke-width="2" d="M800.87,-730.23C772.58,-722.98 744.5,-715.65 744,-715 707.91,-668.28 720.86,-622.05 766,-584 817.8,-540.33 1014.14,-532.14 1117.49,-530.93"/>
<polygon fill="grey" stroke="grey" stroke-width="2" points="1117.84,-534.43 1127.8,-530.83 1117.77,-527.43 1117.84,-534.43"/>
</g>
<!-- 12&#45;&gt;30 -->
<g id="edge82" class="edge">
<title>12&#45;&gt;30</title>
<path fill="none" stroke="grey" stroke-width="2" d="M917.1,-729.74C920.44,-729.09 923.75,-728.51 927,-728 949.22,-724.54 1110.49,-727.77 1129,-715 1157.13,-695.59 1170.02,-656.71 1175.73,-630.27"/>
<polygon fill="grey" stroke="grey" stroke-width="2" points="1179.23,-630.61 1177.7,-620.13 1172.36,-629.28 1179.23,-630.61"/>
</g>
<!-- 12&#45;&gt;11 -->
<g id="edge23" class="edge">
<title>12&#45;&gt;11</title>
<path fill="none" stroke="grey" stroke-width="2" d="M842.69,-727.7C834.69,-719.22 824.93,-708.86 816.18,-699.58"/>
<polygon fill="grey" stroke="grey" stroke-width="2" points="818.53,-696.98 809.13,-692.1 813.44,-701.78 818.53,-696.98"/>
</g>
<!-- 12&#45;&gt;46 -->
<g id="edge83" class="edge">
<title>12&#45;&gt;46</title>
<path fill="none" stroke="grey" stroke-width="2" d="M917.07,-729.58C920.42,-728.97 923.74,-728.44 927,-728 958.17,-723.8 1464.7,-728.73 1493,-715 1562.34,-681.36 1611.17,-599.46 1632.68,-557.2"/>
<polygon fill="grey" stroke="grey" stroke-width="2" points="1635.89,-558.6 1637.2,-548.08 1629.62,-555.48 1635.89,-558.6"/>
</g>
<!-- 12&#45;&gt;49 -->
<g id="edge84" class="edge">
<title>12&#45;&gt;49</title>
<path fill="none" stroke="grey" stroke-width="2" d="M800.96,-730C797.93,-729.3 794.93,-728.63 792,-728 759.79,-721.05 749.84,-726.62 719,-715 642.68,-686.25 610.9,-685.27 562,-620 513.99,-555.91 503.27,-501.96 554,-440 561.19,-431.21 611.38,-417.58 658.77,-406.34"/>
<polygon fill="grey" stroke="grey" stroke-width="2" points="659.57,-409.74 668.51,-404.05 657.97,-402.93 659.57,-409.74"/>
</g>
<!-- 27 -->
<g id="node23" class="node">
<title>27</title>
<path fill="none" stroke="#d87d56" stroke-width="2" d="M931,-620C931,-620 833,-620 833,-620 827,-620 821,-614 821,-608 821,-608 821,-596 821,-596 821,-590 827,-584 833,-584 833,-584 931,-584 931,-584 937,-584 943,-590 943,-596 943,-596 943,-608 943,-608 943,-614 937,-620 931,-620"/>
<text text-anchor="middle" x="882" y="-599.5" font-family="sans" font-size="10.00">unflip_coords_equivol</text>
</g>
<!-- 27&#45;&gt;8 -->
<g id="edge105" class="edge">
<title>27&#45;&gt;8</title>
<path fill="none" stroke="grey" stroke-width="2" d="M943.07,-586.75C993.82,-574.91 1065.84,-558.1 1117.51,-546.05"/>
<polygon fill="grey" stroke="grey" stroke-width="2" points="1118.62,-549.38 1127.57,-543.7 1117.03,-542.57 1118.62,-549.38"/>
</g>
<!-- 27&#45;&gt;46 -->
<g id="edge106" class="edge">
<title>27&#45;&gt;46</title>
<path fill="none" stroke="grey" stroke-width="2" d="M943.22,-586.08C947.86,-585.27 952.5,-584.56 957,-584 1193.48,-554.63 1257.07,-604.44 1493,-571 1522.96,-566.75 1555.48,-558.68 1582.73,-550.9"/>
<polygon fill="grey" stroke="grey" stroke-width="2" points="1583.89,-554.2 1592.51,-548.05 1581.93,-547.48 1583.89,-554.2"/>
</g>
<!-- 27&#45;&gt;49 -->
<g id="edge107" class="edge">
<title>27&#45;&gt;49</title>
<path fill="none" stroke="grey" stroke-width="2" d="M871.18,-583.85C847.53,-546.36 791.13,-456.95 763.21,-412.7"/>
<polygon fill="grey" stroke="grey" stroke-width="2" points="766.17,-410.82 757.87,-404.23 760.25,-414.56 766.17,-410.82"/>
</g>
<!-- 28 -->
<g id="node24" class="node">
<title>28</title>
<path fill="none" stroke="#d8bc56" stroke-width="2" d="M1049,-692C1049,-692 961,-692 961,-692 955,-692 949,-686 949,-680 949,-680 949,-668 949,-668 949,-662 955,-656 961,-656 961,-656 1049,-656 1049,-656 1055,-656 1061,-662 1061,-668 1061,-668 1061,-680 1061,-680 1061,-686 1055,-692 1049,-692"/>
<text text-anchor="middle" x="1005" y="-671.5" font-family="sans" font-size="10.00">equivolume_coords</text>
</g>
<!-- 28&#45;&gt;8 -->
<g id="edge108" class="edge">
<title>28&#45;&gt;8</title>
<path fill="none" stroke="grey" stroke-width="2" d="M1005.92,-655.98C1007.89,-636.18 1014,-603.71 1033,-584 1055.42,-560.73 1088.72,-547.66 1118.16,-540.32"/>
<polygon fill="grey" stroke="grey" stroke-width="2" points="1119.02,-543.71 1127.97,-538.04 1117.44,-536.89 1119.02,-543.71"/>
</g>
<!-- 28&#45;&gt;27 -->
<g id="edge24" class="edge">
<title>28&#45;&gt;27</title>
<path fill="none" stroke="grey" stroke-width="2" d="M974.91,-655.88C958.68,-646.64 938.46,-635.13 921.03,-625.21"/>
<polygon fill="grey" stroke="grey" stroke-width="2" points="922.63,-622.09 912.2,-620.19 919.16,-628.18 922.63,-622.09"/>
</g>
<!-- 28&#45;&gt;46 -->
<g id="edge109" class="edge">
<title>28&#45;&gt;46</title>
<path fill="none" stroke="grey" stroke-width="2" d="M1012.73,-655.84C1023.35,-634.59 1044.64,-599.33 1075,-584 1116.48,-563.05 1447.02,-577.68 1493,-571 1522.82,-566.67 1555.2,-558.63 1582.38,-550.89"/>
<polygon fill="grey" stroke="grey" stroke-width="2" points="1583.52,-554.21 1592.15,-548.06 1581.57,-547.48 1583.52,-554.21"/>
</g>
<!-- 28&#45;&gt;49 -->
<g id="edge110" class="edge">
<title>28&#45;&gt;49</title>
<path fill="none" stroke="grey" stroke-width="2" d="M948.73,-671.79C905.81,-667.86 848.11,-655.63 812,-620 755.16,-563.93 746.9,-462.63 746.41,-414.21"/>
<polygon fill="grey" stroke="grey" stroke-width="2" points="749.91,-414.17 746.41,-404.17 742.91,-414.17 749.91,-414.17"/>
</g>
<!-- 29 -->
<g id="node25" class="node">
<title>29</title>
<path fill="none" stroke="#97d856" stroke-width="2" d="M1062.5,-764C1062.5,-764 947.5,-764 947.5,-764 941.5,-764 935.5,-758 935.5,-752 935.5,-752 935.5,-740 935.5,-740 935.5,-734 941.5,-728 947.5,-728 947.5,-728 1062.5,-728 1062.5,-728 1068.5,-728 1074.5,-734 1074.5,-740 1074.5,-740 1074.5,-752 1074.5,-752 1074.5,-758 1068.5,-764 1062.5,-764"/>
<text text-anchor="middle" x="1005" y="-743.5" font-family="sans" font-size="10.00">prep_equivolume_coords</text>
</g>
<!-- 29&#45;&gt;28 -->
<g id="edge25" class="edge">
<title>29&#45;&gt;28</title>
<path fill="none" stroke="grey" stroke-width="2" d="M1005,-727.7C1005,-719.98 1005,-710.71 1005,-702.11"/>
<polygon fill="grey" stroke="grey" stroke-width="2" points="1008.5,-702.1 1005,-692.1 1001.5,-702.1 1008.5,-702.1"/>
</g>
<!-- 42 -->
<g id="node26" class="node">
<title>42</title>
<path fill="none" stroke="#568ad8" stroke-width="2" d="M771,-764C771,-764 663,-764 663,-764 657,-764 651,-758 651,-752 651,-752 651,-740 651,-740 651,-734 657,-728 663,-728 663,-728 771,-728 771,-728 777,-728 783,-734 783,-740 783,-740 783,-752 783,-752 783,-758 777,-764 771,-764"/>
<text text-anchor="middle" x="717" y="-743.5" font-family="sans" font-size="10.00">laplace_coords_dentate</text>
</g>
<!-- 42&#45;&gt;41 -->
<g id="edge115" class="edge">
<title>42&#45;&gt;41</title>
<path fill="none" stroke="grey" stroke-width="2" d="M718.4,-727.8C722.31,-692.76 736.8,-613.91 789,-584 832.98,-558.8 1195.55,-582.13 1245,-571 1262.29,-567.11 1280.35,-559.9 1295.78,-552.67"/>
<polygon fill="grey" stroke="grey" stroke-width="2" points="1297.55,-555.7 1305.02,-548.19 1294.49,-549.4 1297.55,-555.7"/>
</g>
<!-- 42&#45;&gt;30 -->
<g id="edge114" class="edge">
<title>42&#45;&gt;30</title>
<path fill="none" stroke="grey" stroke-width="2" d="M783.14,-729.34C786.13,-728.85 789.09,-728.39 792,-728 822.64,-723.84 1041.77,-727.63 1070,-715 1072.76,-713.76 1124.72,-660.25 1156.23,-627.65"/>
<polygon fill="grey" stroke="grey" stroke-width="2" points="1158.94,-629.87 1163.37,-620.25 1153.91,-625.01 1158.94,-629.87"/>
</g>
<!-- 42&#45;&gt;11 -->
<g id="edge26" class="edge">
<title>42&#45;&gt;11</title>
<path fill="none" stroke="grey" stroke-width="2" d="M735.79,-727.7C745.17,-719.05 756.68,-708.45 766.91,-699.03"/>
<polygon fill="grey" stroke="grey" stroke-width="2" points="769.45,-701.45 774.43,-692.1 764.7,-696.3 769.45,-701.45"/>
</g>
<!-- 42&#45;&gt;49 -->
<g id="edge116" class="edge">
<title>42&#45;&gt;49</title>
<path fill="none" stroke="grey" stroke-width="2" d="M661.29,-727.88C564.38,-697.3 375,-633.62 375,-603 375,-603 375,-603 375,-529 375,-488.03 368.28,-467.11 399,-440 440.29,-403.57 584.77,-412.35 655.34,-403.99"/>
<polygon fill="grey" stroke="grey" stroke-width="2" points="656.18,-407.41 665.6,-402.56 655.21,-400.47 656.18,-407.41"/>
</g>
<!-- 1 -->
<g id="node27" class="node">
<title>1</title>
<path fill="none" stroke="#ced856" stroke-width="2" d="M2330,-44C2330,-44 2246,-44 2246,-44 2240,-44 2234,-38 2234,-32 2234,-32 2234,-20 2234,-20 2234,-14 2240,-8 2246,-8 2246,-8 2330,-8 2330,-8 2336,-8 2342,-14 2342,-20 2342,-20 2342,-32 2342,-32 2342,-38 2336,-44 2330,-44"/>
<text text-anchor="middle" x="2288" y="-23.5" font-family="sans" font-size="10.00">merge_lr_spec_file</text>
</g>
<!-- 1&#45;&gt;0 -->
<g id="edge70" class="edge">
<title>1&#45;&gt;0</title>
<path fill="none" stroke="grey" stroke-width="2" d="M2233.83,-32.71C2010.62,-56.22 1165.14,-145.28 977.18,-165.08"/>
<polygon fill="grey" stroke="grey" stroke-width="2" points="976.81,-161.6 967.23,-166.13 977.54,-168.56 976.81,-161.6"/>
</g>
<!-- 2 -->
<g id="node28" class="node">
<title>2</title>
<path fill="none" stroke="#56d87b" stroke-width="2" d="M2337,-116C2337,-116 2239,-116 2239,-116 2233,-116 2227,-110 2227,-104 2227,-104 2227,-92 2227,-92 2227,-86 2233,-80 2239,-80 2239,-80 2337,-80 2337,-80 2343,-80 2349,-86 2349,-92 2349,-92 2349,-104 2349,-104 2349,-110 2343,-116 2337,-116"/>
<text text-anchor="middle" x="2288" y="-95.5" font-family="sans" font-size="10.00">create_spec_file_hipp</text>
</g>
<!-- 2&#45;&gt;1 -->
<g id="edge27" class="edge">
<title>2&#45;&gt;1</title>
<path fill="none" stroke="grey" stroke-width="2" d="M2288,-79.7C2288,-71.98 2288,-62.71 2288,-54.11"/>
<polygon fill="grey" stroke="grey" stroke-width="2" points="2291.5,-54.1 2288,-44.1 2284.5,-54.1 2291.5,-54.1"/>
</g>
<!-- 3 -->
<g id="node29" class="node">
<title>3</title>
<path fill="none" stroke="#56d892" stroke-width="2" d="M2590.5,-260C2590.5,-260 2493.5,-260 2493.5,-260 2487.5,-260 2481.5,-254 2481.5,-248 2481.5,-248 2481.5,-236 2481.5,-236 2481.5,-230 2487.5,-224 2493.5,-224 2493.5,-224 2590.5,-224 2590.5,-224 2596.5,-224 2602.5,-230 2602.5,-236 2602.5,-236 2602.5,-248 2602.5,-248 2602.5,-254 2596.5,-260 2590.5,-260"/>
<text text-anchor="middle" x="2542" y="-239.5" font-family="sans" font-size="10.00">calculate_gyrification</text>
</g>
<!-- 3&#45;&gt;2 -->
<g id="edge28" class="edge">
<title>3&#45;&gt;2</title>
<path fill="none" stroke="grey" stroke-width="2" d="M2531.21,-223.66C2517.84,-203.56 2493.2,-170.79 2464,-152 2432.49,-131.72 2392.87,-118.9 2359.19,-110.95"/>
<polygon fill="grey" stroke="grey" stroke-width="2" points="2359.94,-107.53 2349.41,-108.74 2358.39,-114.36 2359.94,-107.53"/>
</g>
<!-- 39 -->
<g id="node30" class="node">
<title>39</title>
<path fill="none" stroke="#d8ac56" stroke-width="2" d="M2443,-188C2443,-188 2319,-188 2319,-188 2313,-188 2307,-182 2307,-176 2307,-176 2307,-164 2307,-164 2307,-158 2313,-152 2319,-152 2319,-152 2443,-152 2443,-152 2449,-152 2455,-158 2455,-164 2455,-164 2455,-176 2455,-176 2455,-182 2449,-188 2443,-188"/>
<text text-anchor="middle" x="2381" y="-167.5" font-family="sans" font-size="10.00">create_dscalar_metric_cifti</text>
</g>
<!-- 3&#45;&gt;39 -->
<g id="edge29" class="edge">
<title>3&#45;&gt;39</title>
<path fill="none" stroke="grey" stroke-width="2" d="M2502.61,-223.88C2480.61,-214.31 2452.99,-202.3 2429.64,-192.15"/>
<polygon fill="grey" stroke="grey" stroke-width="2" points="2430.82,-188.85 2420.26,-188.07 2428.03,-195.27 2430.82,-188.85"/>
</g>
<!-- 40 -->
<g id="node31" class="node">
<title>40</title>
<path fill="none" stroke="#56d8a2" stroke-width="2" d="M2642,-116C2642,-116 2528,-116 2528,-116 2522,-116 2516,-110 2516,-104 2516,-104 2516,-92 2516,-92 2516,-86 2522,-80 2528,-80 2528,-80 2642,-80 2642,-80 2648,-80 2654,-86 2654,-92 2654,-92 2654,-104 2654,-104 2654,-110 2648,-116 2642,-116"/>
<text text-anchor="middle" x="2585" y="-95.5" font-family="sans" font-size="10.00">create_spec_file_dentate</text>
</g>
<!-- 3&#45;&gt;40 -->
<g id="edge30" class="edge">
<title>3&#45;&gt;40</title>
<path fill="none" stroke="grey" stroke-width="2" d="M2547.19,-223.87C2554.55,-199.56 2568.1,-154.82 2576.82,-126.01"/>
<polygon fill="grey" stroke="grey" stroke-width="2" points="2580.25,-126.77 2579.79,-116.19 2573.55,-124.75 2580.25,-126.77"/>
</g>
<!-- 39&#45;&gt;2 -->
<g id="edge51" class="edge">
<title>39&#45;&gt;2</title>
<path fill="none" stroke="grey" stroke-width="2" d="M2358.01,-151.7C2346.19,-142.8 2331.61,-131.82 2318.82,-122.2"/>
<polygon fill="grey" stroke="grey" stroke-width="2" points="2320.82,-119.32 2310.72,-116.1 2316.61,-124.91 2320.82,-119.32"/>
</g>
<!-- 39&#45;&gt;40 -->
<g id="edge52" class="edge">
<title>39&#45;&gt;40</title>
<path fill="none" stroke="grey" stroke-width="2" d="M2430.64,-151.97C2459.27,-142.14 2495.45,-129.73 2525.58,-119.39"/>
<polygon fill="grey" stroke="grey" stroke-width="2" points="2526.81,-122.67 2535.13,-116.11 2524.54,-116.05 2526.81,-122.67"/>
</g>
<!-- 40&#45;&gt;1 -->
<g id="edge53" class="edge">
<title>40&#45;&gt;1</title>
<path fill="none" stroke="grey" stroke-width="2" d="M2515.74,-80.68C2466.29,-69.02 2400.27,-53.46 2352.04,-42.09"/>
<polygon fill="grey" stroke="grey" stroke-width="2" points="2352.57,-38.62 2342.04,-39.74 2350.97,-45.44 2352.57,-38.62"/>
</g>
<!-- 4 -->
<g id="node32" class="node">
<title>4</title>
<path fill="none" stroke="#56d8c1" stroke-width="2" d="M2528.5,-332C2528.5,-332 2423.5,-332 2423.5,-332 2417.5,-332 2411.5,-326 2411.5,-320 2411.5,-320 2411.5,-308 2411.5,-308 2411.5,-302 2417.5,-296 2423.5,-296 2423.5,-296 2528.5,-296 2528.5,-296 2534.5,-296 2540.5,-302 2540.5,-308 2540.5,-308 2540.5,-320 2540.5,-320 2540.5,-326 2534.5,-332 2528.5,-332"/>
<text text-anchor="middle" x="2476" y="-311.5" font-family="sans" font-size="10.00">calculate_surface_area</text>
</g>
<!-- 4&#45;&gt;3 -->
<g id="edge31" class="edge">
<title>4&#45;&gt;3</title>
<path fill="none" stroke="grey" stroke-width="2" d="M2492.31,-295.7C2500.31,-287.22 2510.07,-276.86 2518.82,-267.58"/>
<polygon fill="grey" stroke="grey" stroke-width="2" points="2521.56,-269.78 2525.87,-260.1 2516.47,-264.98 2521.56,-269.78"/>
</g>
<!-- 5&#45;&gt;55 -->
<g id="edge71" class="edge">
<title>5&#45;&gt;55</title>
<path fill="none" stroke="grey" stroke-width="2" d="M2039.22,-381.83C1838.84,-370.25 1146.79,-330.25 941.1,-318.36"/>
<polygon fill="grey" stroke="grey" stroke-width="2" points="941,-314.85 930.81,-317.76 940.6,-321.84 941,-314.85"/>
</g>
<!-- 5&#45;&gt;2 -->
<g id="edge32" class="edge">
<title>5&#45;&gt;2</title>
<path fill="none" stroke="grey" stroke-width="2" d="M2085.03,-367.67C2070.31,-336.63 2045.22,-270.43 2072,-224 2103.01,-170.23 2166.96,-137.49 2217.27,-119.09"/>
<polygon fill="grey" stroke="grey" stroke-width="2" points="2218.56,-122.35 2226.81,-115.71 2216.22,-115.75 2218.56,-122.35"/>
</g>
<!-- 5&#45;&gt;40 -->
<g id="edge36" class="edge">
<title>5&#45;&gt;40</title>
<path fill="none" stroke="grey" stroke-width="2" d="M2148.82,-384.12C2262.5,-381.91 2516.14,-374.8 2550,-355 2593.52,-329.55 2597.63,-308.33 2612,-260 2625.71,-213.92 2609.39,-158.21 2596.82,-125.87"/>
<polygon fill="grey" stroke="grey" stroke-width="2" points="2599.92,-124.19 2592.92,-116.23 2593.43,-126.82 2599.92,-124.19"/>
</g>
<!-- 5&#45;&gt;4 -->
<g id="edge33" class="edge">
<title>5&#45;&gt;4</title>
<path fill="none" stroke="grey" stroke-width="2" d="M2148.65,-380.93C2198.78,-376.59 2274.9,-368.45 2340,-355 2365.1,-349.82 2392.28,-342.23 2415.69,-335.06"/>
<polygon fill="grey" stroke="grey" stroke-width="2" points="2416.97,-338.33 2425.48,-332.02 2414.89,-331.64 2416.97,-338.33"/>
</g>
<!-- 35 -->
<g id="node34" class="node">
<title>35</title>
<path fill="none" stroke="#d8c356" stroke-width="2" d="M2318.5,-332C2318.5,-332 2247.5,-332 2247.5,-332 2241.5,-332 2235.5,-326 2235.5,-320 2235.5,-320 2235.5,-308 2235.5,-308 2235.5,-302 2241.5,-296 2247.5,-296 2247.5,-296 2318.5,-296 2318.5,-296 2324.5,-296 2330.5,-302 2330.5,-308 2330.5,-308 2330.5,-320 2330.5,-320 2330.5,-326 2324.5,-332 2318.5,-332"/>
<text text-anchor="middle" x="2283" y="-311.5" font-family="sans" font-size="10.00">smooth_surface</text>
</g>
<!-- 5&#45;&gt;35 -->
<g id="edge34" class="edge">
<title>5&#45;&gt;35</title>
<path fill="none" stroke="grey" stroke-width="2" d="M2140.23,-367.88C2166.53,-358.14 2199.64,-345.87 2227.36,-335.61"/>
<polygon fill="grey" stroke="grey" stroke-width="2" points="2228.75,-338.82 2236.92,-332.07 2226.32,-332.26 2228.75,-338.82"/>
</g>
<!-- 36 -->
<g id="node35" class="node">
<title>36</title>
<path fill="none" stroke="#56a2d8" stroke-width="2" d="M2251,-260C2251,-260 2093,-260 2093,-260 2087,-260 2081,-254 2081,-248 2081,-248 2081,-236 2081,-236 2081,-230 2087,-224 2093,-224 2093,-224 2251,-224 2251,-224 2257,-224 2263,-230 2263,-236 2263,-236 2263,-248 2263,-248 2263,-254 2257,-260 2251,-260"/>
<text text-anchor="middle" x="2172" y="-239.5" font-family="sans" font-size="10.00">calculate_thickness_from_surface</text>
</g>
<!-- 5&#45;&gt;36 -->
<g id="edge35" class="edge">
<title>5&#45;&gt;36</title>
<path fill="none" stroke="grey" stroke-width="2" d="M2103.41,-367.87C2116.88,-343.35 2141.77,-298.03 2157.58,-269.26"/>
<polygon fill="grey" stroke="grey" stroke-width="2" points="2160.81,-270.64 2162.56,-260.19 2154.68,-267.27 2160.81,-270.64"/>
</g>
<!-- 34 -->
<g id="node40" class="node">
<title>34</title>
<path fill="none" stroke="#d8b456" stroke-width="2" d="M2451,-260C2451,-260 2293,-260 2293,-260 2287,-260 2281,-254 2281,-248 2281,-248 2281,-236 2281,-236 2281,-230 2287,-224 2293,-224 2293,-224 2451,-224 2451,-224 2457,-224 2463,-230 2463,-236 2463,-236 2463,-248 2463,-248 2463,-254 2457,-260 2451,-260"/>
<text text-anchor="middle" x="2372" y="-239.5" font-family="sans" font-size="10.00">calculate_curvature_from_surface</text>
</g>
<!-- 35&#45;&gt;34 -->
<g id="edge46" class="edge">
<title>35&#45;&gt;34</title>
<path fill="none" stroke="grey" stroke-width="2" d="M2305,-295.7C2316.21,-286.88 2330,-276.03 2342.15,-266.47"/>
<polygon fill="grey" stroke="grey" stroke-width="2" points="2344.56,-269.04 2350.25,-260.1 2340.23,-263.54 2344.56,-269.04"/>
</g>
<!-- 36&#45;&gt;2 -->
<g id="edge47" class="edge">
<title>36&#45;&gt;2</title>
<path fill="none" stroke="grey" stroke-width="2" d="M2185.99,-223.87C2206.28,-199.03 2244.01,-152.85 2267.46,-124.14"/>
<polygon fill="grey" stroke="grey" stroke-width="2" points="2270.34,-126.15 2273.96,-116.19 2264.92,-121.72 2270.34,-126.15"/>
</g>
<!-- 36&#45;&gt;39 -->
<g id="edge48" class="edge">
<title>36&#45;&gt;39</title>
<path fill="none" stroke="grey" stroke-width="2" d="M2222.86,-223.97C2252.19,-214.14 2289.25,-201.73 2320.12,-191.39"/>
<polygon fill="grey" stroke="grey" stroke-width="2" points="2321.54,-194.61 2329.91,-188.11 2319.32,-187.97 2321.54,-194.61"/>
</g>
<!-- 6 -->
<g id="node36" class="node">
<title>6</title>
<path fill="none" stroke="#56d89a" stroke-width="2" d="M2106,-476C2106,-476 2012,-476 2012,-476 2006,-476 2000,-470 2000,-464 2000,-464 2000,-452 2000,-452 2000,-446 2006,-440 2012,-440 2012,-440 2106,-440 2106,-440 2112,-440 2118,-446 2118,-452 2118,-452 2118,-464 2118,-464 2118,-470 2112,-476 2106,-476"/>
<text text-anchor="middle" x="2059" y="-455.5" font-family="sans" font-size="10.00">correct_nan_vertices</text>
</g>
<!-- 6&#45;&gt;5 -->
<g id="edge37" class="edge">
<title>6&#45;&gt;5</title>
<path fill="none" stroke="grey" stroke-width="2" d="M2067.65,-439.7C2071.64,-431.73 2076.45,-422.1 2080.87,-413.26"/>
<polygon fill="grey" stroke="grey" stroke-width="2" points="2084.11,-414.61 2085.45,-404.1 2077.85,-411.48 2084.11,-414.61"/>
</g>
<!-- 7&#45;&gt;6 -->
<g id="edge38" class="edge">
<title>7&#45;&gt;6</title>
<path fill="none" stroke="grey" stroke-width="2" d="M2033.4,-511.7C2037.27,-503.73 2041.95,-494.1 2046.24,-485.26"/>
<polygon fill="grey" stroke="grey" stroke-width="2" points="2049.47,-486.63 2050.69,-476.1 2043.17,-483.57 2049.47,-486.63"/>
</g>
<!-- 31&#45;&gt;7 -->
<g id="edge39" class="edge">
<title>31&#45;&gt;7</title>
<path fill="none" stroke="grey" stroke-width="2" d="M2025,-583.7C2025,-575.98 2025,-566.71 2025,-558.11"/>
<polygon fill="grey" stroke="grey" stroke-width="2" points="2028.5,-558.1 2025,-548.1 2021.5,-558.1 2028.5,-558.1"/>
</g>
<!-- 32 -->
<g id="node39" class="node">
<title>32</title>
<path fill="none" stroke="#97d856" stroke-width="2" d="M2651,-692C2651,-692 2547,-692 2547,-692 2541,-692 2535,-686 2535,-680 2535,-680 2535,-668 2535,-668 2535,-662 2541,-656 2547,-656 2547,-656 2651,-656 2651,-656 2657,-656 2663,-662 2663,-668 2663,-668 2663,-680 2663,-680 2663,-686 2657,-692 2651,-692"/>
<text text-anchor="middle" x="2599" y="-671.5" font-family="sans" font-size="10.00">cp_template_to_unfold</text>
</g>
<!-- 32&#45;&gt;2 -->
<g id="edge40" class="edge">
<title>32&#45;&gt;2</title>
<path fill="none" stroke="grey" stroke-width="2" d="M2607.91,-655.58C2620.5,-629.3 2642,-577.62 2642,-531 2642,-531 2642,-531 2642,-313 2642,-213.98 2579.49,-189.88 2488,-152 2446.72,-134.91 2398.34,-121.91 2359.5,-113.07"/>
<polygon fill="grey" stroke="grey" stroke-width="2" points="2359.85,-109.56 2349.33,-110.8 2358.33,-116.39 2359.85,-109.56"/>
</g>
<!-- 32&#45;&gt;40 -->
<g id="edge42" class="edge">
<title>32&#45;&gt;40</title>
<path fill="none" stroke="grey" stroke-width="2" d="M2619.26,-655.84C2629.18,-646.3 2640.39,-633.63 2647,-620 2664.5,-583.91 2662,-571.11 2662,-531 2662,-531 2662,-531 2662,-241 2662,-195.51 2631.08,-150.65 2608.43,-123.89"/>
<polygon fill="grey" stroke="grey" stroke-width="2" points="2610.92,-121.42 2601.71,-116.19 2605.64,-126.02 2610.92,-121.42"/>
</g>
<!-- 32&#45;&gt;31 -->
<g id="edge41" class="edge">
<title>32&#45;&gt;31</title>
<path fill="none" stroke="grey" stroke-width="2" d="M2534.83,-665.17C2427.91,-652.14 2213.86,-626.03 2100.1,-612.16"/>
<polygon fill="grey" stroke="grey" stroke-width="2" points="2100.43,-608.67 2090.08,-610.94 2099.58,-615.62 2100.43,-608.67"/>
</g>
<!-- 34&#45;&gt;2 -->
<g id="edge43" class="edge">
<title>34&#45;&gt;2</title>
<path fill="none" stroke="grey" stroke-width="2" d="M2336.22,-223.81C2321.97,-215.1 2306.88,-203.13 2298,-188 2287.08,-169.39 2285.06,-144.81 2285.5,-126.19"/>
<polygon fill="grey" stroke="grey" stroke-width="2" points="2289.01,-126.17 2286,-116.01 2282.01,-125.83 2289.01,-126.17"/>
</g>
<!-- 34&#45;&gt;39 -->
<g id="edge44" class="edge">
<title>34&#45;&gt;39</title>
<path fill="none" stroke="grey" stroke-width="2" d="M2374.22,-223.7C2375.22,-215.98 2376.41,-206.71 2377.51,-198.11"/>
<polygon fill="grey" stroke="grey" stroke-width="2" points="2381,-198.47 2378.8,-188.1 2374.05,-197.58 2381,-198.47"/>
</g>
<!-- 34&#45;&gt;40 -->
<g id="edge45" class="edge">
<title>34&#45;&gt;40</title>
<path fill="none" stroke="grey" stroke-width="2" d="M2403.61,-223.94C2421.6,-213.94 2444.4,-200.8 2464,-188 2496.03,-167.09 2531.09,-140.91 2555.18,-122.38"/>
<polygon fill="grey" stroke="grey" stroke-width="2" points="2557.45,-125.05 2563.23,-116.16 2553.17,-119.51 2557.45,-125.05"/>
</g>
<!-- 37 -->
<g id="node41" class="node">
<title>37</title>
<path fill="none" stroke="#5682d8" stroke-width="2" d="M2019,-188C2019,-188 1953,-188 1953,-188 1947,-188 1941,-182 1941,-176 1941,-176 1941,-164 1941,-164 1941,-158 1947,-152 1953,-152 1953,-152 2019,-152 2019,-152 2025,-152 2031,-158 2031,-164 2031,-164 2031,-176 2031,-176 2031,-182 2025,-188 2019,-188"/>
<text text-anchor="middle" x="1986" y="-167.5" font-family="sans" font-size="10.00">nii_to_label_gii</text>
</g>
<!-- 37&#45;&gt;2 -->
<g id="edge49" class="edge">
<title>37&#45;&gt;2</title>
<path fill="none" stroke="grey" stroke-width="2" d="M2031.06,-158.14C2039.67,-156.09 2048.61,-153.97 2057,-152 2110.56,-139.44 2171.17,-125.55 2216.87,-115.14"/>
<polygon fill="grey" stroke="grey" stroke-width="2" points="2217.71,-118.54 2226.68,-112.9 2216.15,-111.71 2217.71,-118.54"/>
</g>
<!-- 38&#45;&gt;37 -->
<g id="edge50" class="edge">
<title>38&#45;&gt;37</title>
<path fill="none" stroke="grey" stroke-width="2" d="M1976.21,-223.7C1977.65,-215.98 1979.37,-206.71 1980.96,-198.11"/>
<polygon fill="grey" stroke="grey" stroke-width="2" points="1984.44,-198.58 1982.82,-188.1 1977.56,-197.3 1984.44,-198.58"/>
</g>
<!-- 38&#45;&gt;46 -->
<g id="edge112" class="edge">
<title>38&#45;&gt;46</title>
<path fill="none" stroke="grey" stroke-width="2" d="M1902.73,-259.44C1880.73,-267.45 1857.83,-279.13 1841,-296 1772.39,-364.76 1832.83,-434.72 1760,-499 1756.74,-501.88 1753.23,-504.49 1749.54,-506.85"/>
<polygon fill="grey" stroke="grey" stroke-width="2" points="1747.59,-503.94 1740.64,-511.93 1751.06,-510.02 1747.59,-503.94"/>
</g>
<!-- 44 -->
<g id="node43" class="node">
<title>44</title>
<path fill="none" stroke="#56c1d8" stroke-width="2" d="M1739,-476C1739,-476 1557,-476 1557,-476 1551,-476 1545,-470 1545,-464 1545,-464 1545,-452 1545,-452 1545,-446 1551,-440 1557,-440 1557,-440 1739,-440 1739,-440 1745,-440 1751,-446 1751,-452 1751,-452 1751,-464 1751,-464 1751,-470 1745,-476 1739,-476"/>
<text text-anchor="middle" x="1648" y="-455.5" font-family="sans" font-size="10.00">combine_tissue_subfield_labels_corobl</text>
</g>
<!-- 44&#45;&gt;48 -->
<g id="edge54" class="edge">
<title>44&#45;&gt;48</title>
<path fill="none" stroke="grey" stroke-width="2" d="M1644.54,-439.7C1643,-431.98 1641.14,-422.71 1639.42,-414.11"/>
<polygon fill="grey" stroke="grey" stroke-width="2" points="1642.81,-413.22 1637.42,-404.1 1635.95,-414.6 1642.81,-413.22"/>
</g>
<!-- 44&#45;&gt;43 -->
<g id="edge120" class="edge">
<title>44&#45;&gt;43</title>
<path fill="none" stroke="grey" stroke-width="2" d="M1544.64,-445.45C1527.4,-443.58 1509.7,-441.71 1493,-440 1330.72,-423.42 1141.8,-405.91 1030.09,-395.75"/>
<polygon fill="grey" stroke="grey" stroke-width="2" points="1030.13,-392.24 1019.86,-394.82 1029.5,-399.21 1030.13,-392.24"/>
</g>
<!-- 47 -->
<g id="node54" class="node">
<title>47</title>
<path fill="none" stroke="#b6d856" stroke-width="2" d="M985,-476C985,-476 881,-476 881,-476 875,-476 869,-470 869,-464 869,-464 869,-452 869,-452 869,-446 875,-440 881,-440 881,-440 985,-440 985,-440 991,-440 997,-446 997,-452 997,-452 997,-464 997,-464 997,-470 991,-476 985,-476"/>
<text text-anchor="middle" x="933" y="-455.5" font-family="sans" font-size="10.00">create_native_crop_ref</text>
</g>
<!-- 48&#45;&gt;47 -->
<g id="edge123" class="edge">
<title>48&#45;&gt;47</title>
<path fill="none" stroke="grey" stroke-width="2" d="M1552.94,-394.06C1444.13,-403.67 1244.87,-421.78 1075,-440 1053.05,-442.35 1029.22,-445.12 1007.46,-447.74"/>
<polygon fill="grey" stroke="grey" stroke-width="2" points="1006.8,-444.29 997.29,-448.96 1007.64,-451.24 1006.8,-444.29"/>
</g>
<!-- 46&#45;&gt;44 -->
<g id="edge55" class="edge">
<title>46&#45;&gt;44</title>
<path fill="none" stroke="grey" stroke-width="2" d="M1645.74,-511.7C1646.07,-503.98 1646.47,-494.71 1646.84,-486.11"/>
<polygon fill="grey" stroke="grey" stroke-width="2" points="1650.34,-486.25 1647.27,-476.1 1643.34,-485.95 1650.34,-486.25"/>
</g>
<!-- 13 -->
<g id="node46" class="node">
<title>13</title>
<path fill="none" stroke="#61d856" stroke-width="2" d="M1310.5,-836C1310.5,-836 1205.5,-836 1205.5,-836 1199.5,-836 1193.5,-830 1193.5,-824 1193.5,-824 1193.5,-812 1193.5,-812 1193.5,-806 1199.5,-800 1205.5,-800 1205.5,-800 1310.5,-800 1310.5,-800 1316.5,-800 1322.5,-806 1322.5,-812 1322.5,-812 1322.5,-824 1322.5,-824 1322.5,-830 1316.5,-836 1310.5,-836"/>
<text text-anchor="middle" x="1258" y="-815.5" font-family="sans" font-size="10.00">reinsert_subject_labels</text>
</g>
<!-- 13&#45;&gt;12 -->
<g id="edge85" class="edge">
<title>13&#45;&gt;12</title>
<path fill="none" stroke="grey" stroke-width="2" d="M1193.22,-812.66C1104.04,-806.45 951.62,-794.91 927,-787 914.57,-783 901.97,-776.44 891.05,-769.77"/>
<polygon fill="grey" stroke="grey" stroke-width="2" points="892.63,-766.63 882.31,-764.2 888.86,-772.53 892.63,-766.63"/>
</g>
<!-- 13&#45;&gt;29 -->
<g id="edge86" class="edge">
<title>13&#45;&gt;29</title>
<path fill="none" stroke="grey" stroke-width="2" d="M1193.25,-806.42C1166.87,-801.48 1136.24,-794.92 1109,-787 1090.99,-781.76 1071.7,-774.75 1054.69,-768.07"/>
<polygon fill="grey" stroke="grey" stroke-width="2" points="1055.54,-764.64 1044.96,-764.18 1052.95,-771.14 1055.54,-764.64"/>
</g>
<!-- 13&#45;&gt;44 -->
<g id="edge87" class="edge">
<title>13&#45;&gt;44</title>
<path fill="none" stroke="grey" stroke-width="2" d="M1322.67,-814.18C1469.82,-806 1817,-776.01 1817,-675 1817,-675 1817,-675 1817,-601 1817,-557.81 1808.93,-542.14 1778,-512 1763.66,-498.03 1745.15,-487.57 1726.61,-479.8"/>
<polygon fill="grey" stroke="grey" stroke-width="2" points="1727.82,-476.52 1717.23,-476.09 1725.24,-483.03 1727.82,-476.52"/>
</g>
<!-- 45 -->
<g id="node47" class="node">
<title>45</title>
<path fill="none" stroke="#59d856" stroke-width="2" d="M1340.5,-764C1340.5,-764 1273.5,-764 1273.5,-764 1267.5,-764 1261.5,-758 1261.5,-752 1261.5,-752 1261.5,-740 1261.5,-740 1261.5,-734 1267.5,-728 1273.5,-728 1273.5,-728 1340.5,-728 1340.5,-728 1346.5,-728 1352.5,-734 1352.5,-740 1352.5,-740 1352.5,-752 1352.5,-752 1352.5,-758 1346.5,-764 1340.5,-764"/>
<text text-anchor="middle" x="1307" y="-743.5" font-family="sans" font-size="10.00">unflip_postproc</text>
</g>
<!-- 13&#45;&gt;45 -->
<g id="edge56" class="edge">
<title>13&#45;&gt;45</title>
<path fill="none" stroke="grey" stroke-width="2" d="M1270.11,-799.7C1275.87,-791.47 1282.86,-781.48 1289.21,-772.42"/>
<polygon fill="grey" stroke="grey" stroke-width="2" points="1292.16,-774.3 1295.03,-764.1 1286.42,-770.29 1292.16,-774.3"/>
</g>
<!-- 45&#45;&gt;44 -->
<g id="edge121" class="edge">
<title>45&#45;&gt;44</title>
<path fill="none" stroke="grey" stroke-width="2" d="M1352.71,-742.66C1417.07,-738.88 1530.79,-730.26 1569,-715 1667.73,-675.57 1712.58,-666.15 1760,-571 1771.7,-547.53 1774.03,-534.16 1760,-512 1751.33,-498.3 1738.06,-488.08 1723.64,-480.47"/>
<polygon fill="grey" stroke="grey" stroke-width="2" points="1725.08,-477.27 1714.56,-476.06 1722.03,-483.57 1725.08,-477.27"/>
</g>
<!-- 14 -->
<g id="node48" class="node">
<title>14</title>
<path fill="none" stroke="#56d873" stroke-width="2" d="M1391,-908C1391,-908 1287,-908 1287,-908 1281,-908 1275,-902 1275,-896 1275,-896 1275,-884 1275,-884 1275,-878 1281,-872 1287,-872 1287,-872 1391,-872 1391,-872 1397,-872 1403,-878 1403,-884 1403,-884 1403,-896 1403,-896 1403,-902 1397,-908 1391,-908"/>
<text text-anchor="middle" x="1339" y="-887.5" font-family="sans" font-size="10.00">template_shape_inject</text>
</g>
<!-- 14&#45;&gt;13 -->
<g id="edge57" class="edge">
<title>14&#45;&gt;13</title>
<path fill="none" stroke="grey" stroke-width="2" d="M1318.98,-871.7C1308.87,-862.97 1296.46,-852.24 1285.48,-842.75"/>
<polygon fill="grey" stroke="grey" stroke-width="2" points="1287.65,-839.99 1277.79,-836.1 1283.07,-845.29 1287.65,-839.99"/>
</g>
<!-- 15 -->
<g id="node49" class="node">
<title>15</title>
<path fill="none" stroke="#d88556" stroke-width="2" d="M1297.5,-1124C1297.5,-1124 1188.5,-1124 1188.5,-1124 1182.5,-1124 1176.5,-1118 1176.5,-1112 1176.5,-1112 1176.5,-1100 1176.5,-1100 1176.5,-1094 1182.5,-1088 1188.5,-1088 1188.5,-1088 1297.5,-1088 1297.5,-1088 1303.5,-1088 1309.5,-1094 1309.5,-1100 1309.5,-1100 1309.5,-1112 1309.5,-1112 1309.5,-1118 1303.5,-1124 1297.5,-1124"/>
<text text-anchor="middle" x="1243" y="-1103.5" font-family="sans" font-size="10.00">import_template_shape</text>
</g>
<!-- 15&#45;&gt;14 -->
<g id="edge58" class="edge">
<title>15&#45;&gt;14</title>
<path fill="none" stroke="grey" stroke-width="2" d="M1253.99,-1087.69C1260.24,-1077.5 1267.99,-1064.25 1274,-1052 1296.54,-1006.1 1317.75,-950.33 1329.49,-917.93"/>
<polygon fill="grey" stroke="grey" stroke-width="2" points="1332.88,-918.87 1332.97,-908.28 1326.29,-916.5 1332.88,-918.87"/>
</g>
<!-- 25 -->
<g id="node50" class="node">
<title>25</title>
<path fill="none" stroke="#d8ac56" stroke-width="2" d="M1253,-1052C1253,-1052 1153,-1052 1153,-1052 1147,-1052 1141,-1046 1141,-1040 1141,-1040 1141,-1028 1141,-1028 1141,-1022 1147,-1016 1153,-1016 1153,-1016 1253,-1016 1253,-1016 1259,-1016 1265,-1022 1265,-1028 1265,-1028 1265,-1040 1265,-1040 1265,-1046 1259,-1052 1253,-1052"/>
<text text-anchor="middle" x="1203" y="-1031.5" font-family="sans" font-size="10.00">prep_segs_for_greedy</text>
</g>
<!-- 15&#45;&gt;25 -->
<g id="edge59" class="edge">
<title>15&#45;&gt;25</title>
<path fill="none" stroke="grey" stroke-width="2" d="M1233.11,-1087.7C1228.51,-1079.64 1222.94,-1069.89 1217.85,-1060.98"/>
<polygon fill="grey" stroke="grey" stroke-width="2" points="1220.77,-1059.05 1212.77,-1052.1 1214.7,-1062.52 1220.77,-1059.05"/>
</g>
<!-- 24 -->
<g id="node51" class="node">
<title>24</title>
<path fill="none" stroke="#d8a456" stroke-width="2" d="M1249,-980C1249,-980 1157,-980 1157,-980 1151,-980 1145,-974 1145,-968 1145,-968 1145,-956 1145,-956 1145,-950 1151,-944 1157,-944 1157,-944 1249,-944 1249,-944 1255,-944 1261,-950 1261,-956 1261,-956 1261,-968 1261,-968 1261,-974 1255,-980 1249,-980"/>
<text text-anchor="middle" x="1203" y="-959.5" font-family="sans" font-size="10.00">template_shape_reg</text>
</g>
<!-- 25&#45;&gt;24 -->
<g id="edge62" class="edge">
<title>25&#45;&gt;24</title>
<path fill="none" stroke="grey" stroke-width="2" d="M1203,-1015.7C1203,-1007.98 1203,-998.71 1203,-990.11"/>
<polygon fill="grey" stroke="grey" stroke-width="2" points="1206.5,-990.1 1203,-980.1 1199.5,-990.1 1206.5,-990.1"/>
</g>
<!-- 24&#45;&gt;14 -->
<g id="edge60" class="edge">
<title>24&#45;&gt;14</title>
<path fill="none" stroke="grey" stroke-width="2" d="M1236.27,-943.88C1254.46,-934.51 1277.19,-922.81 1296.64,-912.8"/>
<polygon fill="grey" stroke="grey" stroke-width="2" points="1298.31,-915.88 1305.6,-908.19 1295.11,-909.65 1298.31,-915.88"/>
</g>
<!-- 26 -->
<g id="node52" class="node">
<title>26</title>
<path fill="none" stroke="#569ad8" stroke-width="2" d="M1244.5,-908C1244.5,-908 1125.5,-908 1125.5,-908 1119.5,-908 1113.5,-902 1113.5,-896 1113.5,-896 1113.5,-884 1113.5,-884 1113.5,-878 1119.5,-872 1125.5,-872 1125.5,-872 1244.5,-872 1244.5,-872 1250.5,-872 1256.5,-878 1256.5,-884 1256.5,-884 1256.5,-896 1256.5,-896 1256.5,-902 1250.5,-908 1244.5,-908"/>
<text text-anchor="middle" x="1185" y="-887.5" font-family="sans" font-size="10.00">inject_init_laplace_coords</text>
</g>
<!-- 24&#45;&gt;26 -->
<g id="edge61" class="edge">
<title>24&#45;&gt;26</title>
<path fill="none" stroke="grey" stroke-width="2" d="M1198.55,-943.7C1196.55,-935.9 1194.13,-926.51 1191.9,-917.83"/>
<polygon fill="grey" stroke="grey" stroke-width="2" points="1195.28,-916.92 1189.4,-908.1 1188.5,-918.66 1195.28,-916.92"/>
</g>
<!-- 26&#45;&gt;12 -->
<g id="edge103" class="edge">
<title>26&#45;&gt;12</title>
<path fill="none" stroke="grey" stroke-width="2" d="M1141.36,-871.95C1070.47,-844.23 937.13,-791.95 927,-787 916.24,-781.75 904.9,-775.42 894.64,-769.36"/>
<polygon fill="grey" stroke="grey" stroke-width="2" points="896.31,-766.28 885.93,-764.14 892.71,-772.29 896.31,-766.28"/>
</g>
<!-- 26&#45;&gt;42 -->
<g id="edge104" class="edge">
<title>26&#45;&gt;42</title>
<path fill="none" stroke="grey" stroke-width="2" d="M1113.22,-876.41C1032.99,-860.96 900.13,-831.26 792,-787 779.61,-781.93 766.58,-775.43 754.92,-769.14"/>
<polygon fill="grey" stroke="grey" stroke-width="2" points="756.35,-765.94 745.9,-764.19 752.98,-772.07 756.35,-765.94"/>
</g>
<!-- 43&#45;&gt;54 -->
<g id="edge118" class="edge">
<title>43&#45;&gt;54</title>
<path fill="none" stroke="grey" stroke-width="2" d="M856.64,-367.91C846.38,-364.32 836.23,-360.05 827,-355 819.23,-350.74 811.66,-344.91 805.03,-339.02"/>
<polygon fill="grey" stroke="grey" stroke-width="2" points="807.4,-336.45 797.7,-332.17 802.61,-341.56 807.4,-336.45"/>
</g>
<!-- 43&#45;&gt;57 -->
<g id="edge119" class="edge">
<title>43&#45;&gt;57</title>
<path fill="none" stroke="grey" stroke-width="2" d="M846.42,-369.49C843.24,-368.97 840.09,-368.48 837,-368 793.14,-361.24 780.18,-368.79 738,-355 724.76,-350.67 711.13,-343.93 699.29,-337.2"/>
<polygon fill="grey" stroke="grey" stroke-width="2" points="701.02,-334.16 690.62,-332.11 697.47,-340.19 701.02,-334.16"/>
</g>
<!-- 43&#45;&gt;0 -->
<g id="edge117" class="edge">
<title>43&#45;&gt;0</title>
<path fill="none" stroke="grey" stroke-width="2" d="M997.8,-367.94C1002.92,-364.4 1007.47,-360.14 1011,-355 1043.96,-307.01 1037.1,-276.05 1011,-224 1003.48,-209 989.47,-197.16 975.87,-188.51"/>
<polygon fill="grey" stroke="grey" stroke-width="2" points="977.46,-185.38 967.07,-183.28 973.88,-191.4 977.46,-185.38"/>
</g>
<!-- 47&#45;&gt;51 -->
<g id="edge122" class="edge">
<title>47&#45;&gt;51</title>
<path fill="none" stroke="grey" stroke-width="2" d="M997.22,-458C1021.16,-458 1045.1,-458 1069.04,-458"/>
<polygon fill="grey" stroke="grey" stroke-width="2" points="1069.3,-461.5 1079.3,-458 1069.3,-454.5 1069.3,-461.5"/>
</g>
<!-- 47&#45;&gt;43 -->
<g id="edge63" class="edge">
<title>47&#45;&gt;43</title>
<path fill="none" stroke="grey" stroke-width="2" d="M933,-439.7C933,-431.98 933,-422.71 933,-414.11"/>
<polygon fill="grey" stroke="grey" stroke-width="2" points="936.5,-414.1 933,-404.1 929.5,-414.1 936.5,-414.1"/>
</g>
<!-- 47&#45;&gt;49 -->
<g id="edge64" class="edge">
<title>47&#45;&gt;49</title>
<path fill="none" stroke="grey" stroke-width="2" d="M887.5,-439.88C861.62,-430.14 829.03,-417.87 801.76,-407.61"/>
<polygon fill="grey" stroke="grey" stroke-width="2" points="802.94,-404.31 792.35,-404.07 800.48,-410.87 802.94,-404.31"/>
</g>
<!-- 47&#45;&gt;52 -->
<g id="edge65" class="edge">
<title>47&#45;&gt;52</title>
<path fill="none" stroke="grey" stroke-width="2" d="M868.79,-445.09C815.09,-435.03 736.23,-420.04 658.2,-404.22"/>
<polygon fill="grey" stroke="grey" stroke-width="2" points="658.69,-400.75 648.19,-402.19 657.3,-407.61 658.69,-400.75"/>
</g>
<!-- 49&#45;&gt;0 -->
<g id="edge124" class="edge">
<title>49&#45;&gt;0</title>
<path fill="none" stroke="grey" stroke-width="2" d="M828.31,-369.44C831.58,-368.93 834.82,-368.45 838,-368 852.92,-365.89 962.87,-366.15 973,-355 1012.15,-311.9 989,-279.98 973,-224 970.29,-214.51 965.33,-205.06 960.07,-196.83"/>
<polygon fill="grey" stroke="grey" stroke-width="2" points="962.86,-194.72 954.33,-188.43 957.08,-198.67 962.86,-194.72"/>
</g>
<!-- 52&#45;&gt;54 -->
<g id="edge128" class="edge">
<title>52&#45;&gt;54</title>
<path fill="none" stroke="grey" stroke-width="2" d="M648.17,-369.7C651.15,-369.11 654.1,-368.54 657,-368 692.83,-361.27 705.14,-370.81 738,-355 746.02,-351.14 753.64,-345.34 760.2,-339.35"/>
<polygon fill="grey" stroke="grey" stroke-width="2" points="762.68,-341.82 767.39,-332.32 757.79,-336.81 762.68,-341.82"/>
</g>
<!-- 52&#45;&gt;0 -->
<g id="edge127" class="edge">
<title>52&#45;&gt;0</title>
<path fill="none" stroke="grey" stroke-width="2" d="M648.11,-369.29C651.1,-368.81 654.08,-368.38 657,-368 672.33,-366.01 924.17,-366.04 935,-355 975.75,-313.44 961.05,-237.87 949.17,-197.73"/>
<polygon fill="grey" stroke="grey" stroke-width="2" points="952.48,-196.61 946.17,-188.1 945.8,-198.69 952.48,-196.61"/>
</g>
<!-- 16&#45;&gt;13 -->
<g id="edge88" class="edge">
<title>16&#45;&gt;13</title>
<path fill="none" stroke="grey" stroke-width="2" d="M646.84,-951.9C755.04,-928.37 1045.24,-865.27 1183.18,-835.27"/>
<polygon fill="grey" stroke="grey" stroke-width="2" points="1184.22,-838.63 1193.25,-833.08 1182.73,-831.79 1184.22,-838.63"/>
</g>
<!-- 16&#45;&gt;14 -->
<g id="edge89" class="edge">
<title>16&#45;&gt;14</title>
<path fill="none" stroke="grey" stroke-width="2" d="M646.63,-959.81C749.86,-956.41 1025.97,-944.49 1264.71,-908.07"/>
<polygon fill="grey" stroke="grey" stroke-width="2" points="1265.27,-911.53 1274.62,-906.54 1264.2,-904.61 1265.27,-911.53"/>
</g>
<!-- 16&#45;&gt;25 -->
<g id="edge90" class="edge">
<title>16&#45;&gt;25</title>
<path fill="none" stroke="grey" stroke-width="2" d="M646.51,-967.86C747.07,-979.63 1004.71,-1009.79 1131.01,-1024.57"/>
<polygon fill="grey" stroke="grey" stroke-width="2" points="1130.64,-1028.05 1140.98,-1025.74 1131.45,-1021.1 1130.64,-1028.05"/>
</g>
<!-- 16&#45;&gt;26 -->
<g id="edge91" class="edge">
<title>16&#45;&gt;26</title>
<path fill="none" stroke="grey" stroke-width="2" d="M646.71,-955.97C742.18,-944.44 977.98,-915.99 1103.43,-900.84"/>
<polygon fill="grey" stroke="grey" stroke-width="2" points="1103.87,-904.32 1113.38,-899.64 1103.03,-897.37 1103.87,-904.32"/>
</g>
<!-- 16&#45;&gt;59 -->
<g id="edge66" class="edge">
<title>16&#45;&gt;59</title>
<path fill="none" stroke="grey" stroke-width="2" d="M574.7,-943.8C562.12,-934.9 548.88,-922.77 542,-908 532.22,-886.99 543.32,-862.33 555.38,-844.3"/>
<polygon fill="grey" stroke="grey" stroke-width="2" points="558.33,-846.2 561.29,-836.03 552.63,-842.13 558.33,-846.2"/>
</g>
<!-- 60 -->
<g id="node59" class="node">
<title>60</title>
<path fill="none" stroke="#56d8b9" stroke-width="2" d="M639,-908C639,-908 563,-908 563,-908 557,-908 551,-902 551,-896 551,-896 551,-884 551,-884 551,-878 557,-872 563,-872 563,-872 639,-872 639,-872 645,-872 651,-878 651,-884 651,-884 651,-896 651,-896 651,-902 645,-908 639,-908"/>
<text text-anchor="middle" x="601" y="-887.5" font-family="sans" font-size="10.00">unflip_nnunet_nii</text>
</g>
<!-- 16&#45;&gt;60 -->
<g id="edge67" class="edge">
<title>16&#45;&gt;60</title>
<path fill="none" stroke="grey" stroke-width="2" d="M604.01,-943.7C603.57,-935.98 603.04,-926.71 602.55,-918.11"/>
<polygon fill="grey" stroke="grey" stroke-width="2" points="606.04,-917.89 601.98,-908.1 599.05,-918.29 606.04,-917.89"/>
</g>
<!-- 58 -->
<g id="node60" class="node">
<title>58</title>
<path fill="none" stroke="#56d0d8" stroke-width="2" d="M611,-764C611,-764 543,-764 543,-764 537,-764 531,-758 531,-752 531,-752 531,-740 531,-740 531,-734 537,-728 543,-728 543,-728 611,-728 611,-728 617,-728 623,-734 623,-740 623,-740 623,-752 623,-752 623,-758 617,-764 611,-764"/>
<text text-anchor="middle" x="577" y="-743.5" font-family="sans" font-size="10.00">qc_nnunet_dice</text>
</g>
<!-- 59&#45;&gt;58 -->
<g id="edge68" class="edge">
<title>59&#45;&gt;58</title>
<path fill="none" stroke="grey" stroke-width="2" d="M576.25,-799.7C576.36,-791.98 576.49,-782.71 576.61,-774.11"/>
<polygon fill="grey" stroke="grey" stroke-width="2" points="580.11,-774.15 576.76,-764.1 573.11,-774.05 580.11,-774.15"/>
</g>
<!-- 60&#45;&gt;59 -->
<g id="edge69" class="edge">
<title>60&#45;&gt;59</title>
<path fill="none" stroke="grey" stroke-width="2" d="M594.82,-871.7C592,-863.81 588.61,-854.3 585.48,-845.55"/>
<polygon fill="grey" stroke="grey" stroke-width="2" points="588.77,-844.34 582.11,-836.1 582.18,-846.7 588.77,-844.34"/>
</g>
<!-- 58&#45;&gt;0 -->
<g id="edge133" class="edge">
<title>58&#45;&gt;0</title>
<path fill="none" stroke="grey" stroke-width="2" d="M530.58,-737.24C399.84,-712.47 38,-622.63 38,-387 38,-387 38,-387 38,-313 38,-224.01 731.98,-181.88 902.5,-172.87"/>
<polygon fill="grey" stroke="grey" stroke-width="2" points="902.71,-176.37 912.51,-172.35 902.34,-169.38 902.71,-176.37"/>
</g>
</g>
</svg>
