<?xml version="1.0" encoding="UTF-8" standalone="no"?>
<!DOCTYPE svg PUBLIC "-//W3C//DTD SVG 1.1//EN"
 "http://www.w3.org/Graphics/SVG/1.1/DTD/svg11.dtd">
<!-- Generated by graphviz version 2.43.0 (0)
 -->
<!-- Pages: 1 -->
<svg width="299pt" height="515pt"
 viewBox="0.00 0.00 299.00 515.00" xmlns="http://www.w3.org/2000/svg" xmlns:xlink="http://www.w3.org/1999/xlink">
<g id="graph0" class="graph" transform="scale(1 1) rotate(0) translate(4 511)">
<polygon fill="white" stroke="transparent" points="-4,4 -4,-511 295,-511 295,4 -4,4"/>
<g id="clust1" class="cluster">
<title>cluster_0</title>
<polygon fill="white" stroke="blue" points="8,-8 8,-499 283,-499 283,-8 8,-8"/>
<text text-anchor="middle" x="145.5" y="-483.8" font-family="Times,serif" font-size="14.00">preproc_t1</text>
</g>
<!-- 17 -->
<g id="node1" class="node">
<title>17</title>
<path fill="none" stroke="#d89556" stroke-width="2" d="M91.5,-44C91.5,-44 56.5,-44 56.5,-44 50.5,-44 44.5,-38 44.5,-32 44.5,-32 44.5,-20 44.5,-20 44.5,-14 50.5,-8 56.5,-8 56.5,-8 91.5,-8 91.5,-8 97.5,-8 103.5,-14 103.5,-20 103.5,-20 103.5,-32 103.5,-32 103.5,-38 97.5,-44 91.5,-44"/>
<text text-anchor="middle" x="74" y="-23.5" font-family="sans" font-size="10.00">lr_flip_t1</text>
</g>
<!-- 18 -->
<g id="node2" class="node">
<title>18</title>
<path fill="none" stroke="#56d8d0" stroke-width="2" d="M128,-116C128,-116 20,-116 20,-116 14,-116 8,-110 8,-104 8,-104 8,-92 8,-92 8,-86 14,-80 20,-80 20,-80 128,-80 128,-80 134,-80 140,-86 140,-92 140,-92 140,-104 140,-104 140,-110 134,-116 128,-116"/>
<text text-anchor="middle" x="74" y="-95.5" font-family="sans" font-size="10.00">warp_t1_to_corobl_crop</text>
</g>
<!-- 18&#45;&gt;17 -->
<g id="edge1" class="edge">
<title>18&#45;&gt;17</title>
<path fill="none" stroke="grey" stroke-width="2" d="M74,-79.7C74,-71.98 74,-62.71 74,-54.11"/>
<polygon fill="grey" stroke="grey" stroke-width="2" points="77.5,-54.1 74,-44.1 70.5,-54.1 77.5,-54.1"/>
</g>
<!-- 19 -->
<g id="node3" class="node">
<title>19</title>
<path fill="none" stroke="#d86e56" stroke-width="2" d="M123,-404C123,-404 93,-404 93,-404 87,-404 81,-398 81,-392 81,-392 81,-380 81,-380 81,-374 87,-368 93,-368 93,-368 123,-368 123,-368 129,-368 135,-374 135,-380 135,-380 135,-392 135,-392 135,-398 129,-404 123,-404"/>
<text text-anchor="middle" x="108" y="-383.5" font-family="sans" font-size="10.00">n4_t1</text>
</g>
<!-- 19&#45;&gt;18 -->
<g id="edge2" class="edge">
<title>19&#45;&gt;18</title>
<path fill="none" stroke="grey" stroke-width="2" d="M104.17,-367.71C99,-343.67 89.87,-298.75 85,-260 79.15,-213.5 76.25,-159.03 74.94,-126.85"/>
<polygon fill="grey" stroke="grey" stroke-width="2" points="78.42,-126.31 74.54,-116.45 71.43,-126.58 78.42,-126.31"/>
</g>
<!-- 23 -->
<g id="node4" class="node">
<title>23</title>
<path fill="none" stroke="#565bd8" stroke-width="2" d="M195.5,-332C195.5,-332 122.5,-332 122.5,-332 116.5,-332 110.5,-326 110.5,-320 110.5,-320 110.5,-308 110.5,-308 110.5,-302 116.5,-296 122.5,-296 122.5,-296 195.5,-296 195.5,-296 201.5,-296 207.5,-302 207.5,-308 207.5,-308 207.5,-320 207.5,-320 207.5,-326 201.5,-332 195.5,-332"/>
<text text-anchor="middle" x="159" y="-311.5" font-family="sans" font-size="10.00">reg_to_template</text>
</g>
<!-- 19&#45;&gt;23 -->
<g id="edge3" class="edge">
<title>19&#45;&gt;23</title>
<path fill="none" stroke="grey" stroke-width="2" d="M120.61,-367.7C126.6,-359.47 133.88,-349.48 140.48,-340.42"/>
<polygon fill="grey" stroke="grey" stroke-width="2" points="143.48,-342.25 146.54,-332.1 137.82,-338.13 143.48,-342.25"/>
</g>
<!-- 22 -->
<g id="node8" class="node">
<title>22</title>
<path fill="none" stroke="#d89c56" stroke-width="2" d="M248.5,-260C248.5,-260 105.5,-260 105.5,-260 99.5,-260 93.5,-254 93.5,-248 93.5,-248 93.5,-236 93.5,-236 93.5,-230 99.5,-224 105.5,-224 105.5,-224 248.5,-224 248.5,-224 254.5,-224 260.5,-230 260.5,-236 260.5,-236 260.5,-248 260.5,-248 260.5,-254 254.5,-260 248.5,-260"/>
<text text-anchor="middle" x="177" y="-239.5" font-family="sans" font-size="10.00">convert_template_xfm_ras2itk</text>
</g>
<!-- 23&#45;&gt;22 -->
<g id="edge8" class="edge">
<title>23&#45;&gt;22</title>
<path fill="none" stroke="grey" stroke-width="2" d="M163.45,-295.7C165.45,-287.9 167.87,-278.51 170.1,-269.83"/>
<polygon fill="grey" stroke="grey" stroke-width="2" points="173.5,-270.66 172.6,-260.1 166.72,-268.92 173.5,-270.66"/>
</g>
<!-- 20 -->
<g id="node5" class="node">
<title>20</title>
<path fill="none" stroke="#d88d56" stroke-width="2" d="M128,-476C128,-476 88,-476 88,-476 82,-476 76,-470 76,-464 76,-464 76,-452 76,-452 76,-446 82,-440 88,-440 88,-440 128,-440 128,-440 134,-440 140,-446 140,-452 140,-452 140,-464 140,-464 140,-470 134,-476 128,-476"/>
<text text-anchor="middle" x="108" y="-455.5" font-family="sans" font-size="10.00">import_t1</text>
</g>
<!-- 20&#45;&gt;19 -->
<g id="edge4" class="edge">
<title>20&#45;&gt;19</title>
<path fill="none" stroke="grey" stroke-width="2" d="M108,-439.7C108,-431.98 108,-422.71 108,-414.11"/>
<polygon fill="grey" stroke="grey" stroke-width="2" points="111.5,-414.1 108,-404.1 104.5,-414.1 111.5,-414.1"/>
</g>
<!-- 21 -->
<g id="node6" class="node">
<title>21</title>
<path fill="none" stroke="#567bd8" stroke-width="2" d="M251,-188C251,-188 105,-188 105,-188 99,-188 93,-182 93,-176 93,-176 93,-164 93,-164 93,-158 99,-152 105,-152 105,-152 251,-152 251,-152 257,-152 263,-158 263,-164 263,-164 263,-176 263,-176 263,-182 257,-188 251,-188"/>
<text text-anchor="middle" x="178" y="-167.5" font-family="sans" font-size="10.00">compose_template_xfm_corobl</text>
</g>
<!-- 21&#45;&gt;18 -->
<g id="edge5" class="edge">
<title>21&#45;&gt;18</title>
<path fill="none" stroke="grey" stroke-width="2" d="M152.56,-151.88C139.21,-142.89 122.68,-131.76 108.22,-122.03"/>
<polygon fill="grey" stroke="grey" stroke-width="2" points="109.79,-118.87 99.54,-116.19 105.88,-124.68 109.79,-118.87"/>
</g>
<!-- 33 -->
<g id="node7" class="node">
<title>33</title>
<path fill="none" stroke="#8fd856" stroke-width="2" d="M271.5,-116C271.5,-116 170.5,-116 170.5,-116 164.5,-116 158.5,-110 158.5,-104 158.5,-104 158.5,-92 158.5,-92 158.5,-86 164.5,-80 170.5,-80 170.5,-80 271.5,-80 271.5,-80 277.5,-80 283.5,-86 283.5,-92 283.5,-92 283.5,-104 283.5,-104 283.5,-110 277.5,-116 271.5,-116"/>
<text text-anchor="middle" x="221" y="-95.5" font-family="sans" font-size="10.00">template_xfm_itk2ras</text>
</g>
<!-- 21&#45;&gt;33 -->
<g id="edge6" class="edge">
<title>21&#45;&gt;33</title>
<path fill="none" stroke="grey" stroke-width="2" d="M188.63,-151.7C193.63,-143.56 199.69,-133.69 205.21,-124.7"/>
<polygon fill="grey" stroke="grey" stroke-width="2" points="208.24,-126.46 210.49,-116.1 202.28,-122.79 208.24,-126.46"/>
</g>
<!-- 22&#45;&gt;21 -->
<g id="edge7" class="edge">
<title>22&#45;&gt;21</title>
<path fill="none" stroke="grey" stroke-width="2" d="M177.25,-223.7C177.36,-215.98 177.49,-206.71 177.61,-198.11"/>
<polygon fill="grey" stroke="grey" stroke-width="2" points="181.11,-198.15 177.76,-188.1 174.11,-198.05 181.11,-198.15"/>
</g>
</g>
</svg>
