<?xml version="1.0" encoding="UTF-8" standalone="no"?>
<!DOCTYPE svg PUBLIC "-//W3C//DTD SVG 1.1//EN"
 "http://www.w3.org/Graphics/SVG/1.1/DTD/svg11.dtd">
<!-- Generated by graphviz version 2.43.0 (0)
 -->
<!-- Pages: 1 -->
<svg width="1058pt" height="659pt"
 viewBox="0.00 0.00 1057.84 659.00" xmlns="http://www.w3.org/2000/svg" xmlns:xlink="http://www.w3.org/1999/xlink">
<g id="graph0" class="graph" transform="scale(1 1) rotate(0) translate(4 655)">
<polygon fill="white" stroke="transparent" points="-4,4 -4,-655 1053.84,-655 1053.84,4 -4,4"/>
<g id="clust1" class="cluster">
<title>cluster_0</title>
<polygon fill="white" stroke="blue" points="8,-8 8,-643 768,-643 768,-8 8,-8"/>
<text text-anchor="middle" x="388" y="-627.8" font-family="Times,serif" font-size="14.00">gifti</text>
</g>
<!-- 1 -->
<g id="node1" class="node">
<title>1</title>
<path fill="none" stroke="#d87d56" stroke-width="2" d="M466,-44C466,-44 368,-44 368,-44 362,-44 356,-38 356,-32 356,-32 356,-20 356,-20 356,-14 362,-8 368,-8 368,-8 466,-8 466,-8 472,-8 478,-14 478,-20 478,-20 478,-32 478,-32 478,-38 472,-44 466,-44"/>
<text text-anchor="middle" x="417" y="-23.5" font-family="sans" font-size="10.00">create_spec_file_hipp</text>
</g>
<!-- 2 -->
<g id="node2" class="node">
<title>2</title>
<path fill="none" stroke="#70d856" stroke-width="2" d="M377.5,-188C377.5,-188 280.5,-188 280.5,-188 274.5,-188 268.5,-182 268.5,-176 268.5,-176 268.5,-164 268.5,-164 268.5,-158 274.5,-152 280.5,-152 280.5,-152 377.5,-152 377.5,-152 383.5,-152 389.5,-158 389.5,-164 389.5,-164 389.5,-176 389.5,-176 389.5,-182 383.5,-188 377.5,-188"/>
<text text-anchor="middle" x="329" y="-167.5" font-family="sans" font-size="10.00">calculate_gyrification</text>
</g>
<!-- 2&#45;&gt;1 -->
<g id="edge1" class="edge">
<title>2&#45;&gt;1</title>
<path fill="none" stroke="grey" stroke-width="2" d="M367.09,-151.99C381.99,-143.37 397.7,-131.42 407,-116 418.15,-97.53 420.15,-72.93 419.64,-54.28"/>
<polygon fill="grey" stroke="grey" stroke-width="2" points="423.13,-53.87 419.11,-44.07 416.14,-54.24 423.13,-53.87"/>
</g>
<!-- 35 -->
<g id="node3" class="node">
<title>35</title>
<path fill="none" stroke="#ced856" stroke-width="2" d="M386,-116C386,-116 262,-116 262,-116 256,-116 250,-110 250,-104 250,-104 250,-92 250,-92 250,-86 256,-80 262,-80 262,-80 386,-80 386,-80 392,-80 398,-86 398,-92 398,-92 398,-104 398,-104 398,-110 392,-116 386,-116"/>
<text text-anchor="middle" x="324" y="-95.5" font-family="sans" font-size="10.00">create_dscalar_metric_cifti</text>
</g>
<!-- 2&#45;&gt;35 -->
<g id="edge2" class="edge">
<title>2&#45;&gt;35</title>
<path fill="none" stroke="grey" stroke-width="2" d="M327.76,-151.7C327.21,-143.98 326.55,-134.71 325.94,-126.11"/>
<polygon fill="grey" stroke="grey" stroke-width="2" points="329.43,-125.83 325.22,-116.1 322.44,-126.33 329.43,-125.83"/>
</g>
<!-- 36 -->
<g id="node4" class="node">
<title>36</title>
<path fill="none" stroke="#97d856" stroke-width="2" d="M216,-44C216,-44 102,-44 102,-44 96,-44 90,-38 90,-32 90,-32 90,-20 90,-20 90,-14 96,-8 102,-8 102,-8 216,-8 216,-8 222,-8 228,-14 228,-20 228,-20 228,-32 228,-32 228,-38 222,-44 216,-44"/>
<text text-anchor="middle" x="159" y="-23.5" font-family="sans" font-size="10.00">create_spec_file_dentate</text>
</g>
<!-- 2&#45;&gt;36 -->
<g id="edge3" class="edge">
<title>2&#45;&gt;36</title>
<path fill="none" stroke="grey" stroke-width="2" d="M295.77,-151.94C278.64,-142.43 257.86,-129.75 241,-116 217.46,-96.8 194.35,-70.89 178.69,-51.98"/>
<polygon fill="grey" stroke="grey" stroke-width="2" points="181.29,-49.63 172.26,-44.09 175.87,-54.05 181.29,-49.63"/>
</g>
<!-- 35&#45;&gt;1 -->
<g id="edge24" class="edge">
<title>35&#45;&gt;1</title>
<path fill="none" stroke="grey" stroke-width="2" d="M346.99,-79.7C358.81,-70.8 373.39,-59.82 386.18,-50.2"/>
<polygon fill="grey" stroke="grey" stroke-width="2" points="388.39,-52.91 394.28,-44.1 384.18,-47.32 388.39,-52.91"/>
</g>
<!-- 35&#45;&gt;36 -->
<g id="edge25" class="edge">
<title>35&#45;&gt;36</title>
<path fill="none" stroke="grey" stroke-width="2" d="M283.64,-79.88C260.98,-70.26 232.53,-58.19 208.53,-48.01"/>
<polygon fill="grey" stroke="grey" stroke-width="2" points="209.81,-44.75 199.23,-44.07 207.07,-51.2 209.81,-44.75"/>
</g>
<!-- 3 -->
<g id="node5" class="node">
<title>3</title>
<path fill="none" stroke="#5663d8" stroke-width="2" d="M436.5,-260C436.5,-260 331.5,-260 331.5,-260 325.5,-260 319.5,-254 319.5,-248 319.5,-248 319.5,-236 319.5,-236 319.5,-230 325.5,-224 331.5,-224 331.5,-224 436.5,-224 436.5,-224 442.5,-224 448.5,-230 448.5,-236 448.5,-236 448.5,-248 448.5,-248 448.5,-254 442.5,-260 436.5,-260"/>
<text text-anchor="middle" x="384" y="-239.5" font-family="sans" font-size="10.00">calculate_surface_area</text>
</g>
<!-- 3&#45;&gt;2 -->
<g id="edge4" class="edge">
<title>3&#45;&gt;2</title>
<path fill="none" stroke="grey" stroke-width="2" d="M370.4,-223.7C363.88,-215.39 355.93,-205.28 348.75,-196.14"/>
<polygon fill="grey" stroke="grey" stroke-width="2" points="351.37,-193.81 342.44,-188.1 345.87,-198.13 351.37,-193.81"/>
</g>
<!-- 4 -->
<g id="node6" class="node">
<title>4</title>
<path fill="none" stroke="#d85e56" stroke-width="2" d="M541.5,-332C541.5,-332 456.5,-332 456.5,-332 450.5,-332 444.5,-326 444.5,-320 444.5,-320 444.5,-308 444.5,-308 444.5,-302 450.5,-296 456.5,-296 456.5,-296 541.5,-296 541.5,-296 547.5,-296 553.5,-302 553.5,-308 553.5,-308 553.5,-320 553.5,-320 553.5,-326 547.5,-332 541.5,-332"/>
<text text-anchor="middle" x="499" y="-311.5" font-family="sans" font-size="10.00">warp_gii_to_native</text>
</g>
<!-- 4&#45;&gt;1 -->
<g id="edge5" class="edge">
<title>4&#45;&gt;1</title>
<path fill="none" stroke="grey" stroke-width="2" d="M523.43,-295.85C561.45,-266.93 627.58,-206.3 599,-152 572.55,-101.75 515.78,-67.8 472.62,-48.11"/>
<polygon fill="grey" stroke="grey" stroke-width="2" points="473.92,-44.86 463.36,-44.01 471.09,-51.26 473.92,-44.86"/>
</g>
<!-- 4&#45;&gt;36 -->
<g id="edge9" class="edge">
<title>4&#45;&gt;36</title>
<path fill="none" stroke="grey" stroke-width="2" d="M444.22,-309.09C356.38,-302.15 188.44,-285.91 135,-260 82.19,-234.39 39.57,-207.38 59,-152 73.19,-111.54 106.61,-74.44 130.91,-51.35"/>
<polygon fill="grey" stroke="grey" stroke-width="2" points="133.5,-53.73 138.45,-44.36 128.74,-48.59 133.5,-53.73"/>
</g>
<!-- 4&#45;&gt;3 -->
<g id="edge6" class="edge">
<title>4&#45;&gt;3</title>
<path fill="none" stroke="grey" stroke-width="2" d="M470.87,-295.88C455.83,-286.72 437.13,-275.34 420.94,-265.48"/>
<polygon fill="grey" stroke="grey" stroke-width="2" points="422.6,-262.4 412.24,-260.19 418.96,-268.38 422.6,-262.4"/>
</g>
<!-- 31 -->
<g id="node7" class="node">
<title>31</title>
<path fill="none" stroke="#d87556" stroke-width="2" d="M226.5,-260C226.5,-260 155.5,-260 155.5,-260 149.5,-260 143.5,-254 143.5,-248 143.5,-248 143.5,-236 143.5,-236 143.5,-230 149.5,-224 155.5,-224 155.5,-224 226.5,-224 226.5,-224 232.5,-224 238.5,-230 238.5,-236 238.5,-236 238.5,-248 238.5,-248 238.5,-254 232.5,-260 226.5,-260"/>
<text text-anchor="middle" x="191" y="-239.5" font-family="sans" font-size="10.00">smooth_surface</text>
</g>
<!-- 4&#45;&gt;31 -->
<g id="edge7" class="edge">
<title>4&#45;&gt;31</title>
<path fill="none" stroke="grey" stroke-width="2" d="M444.29,-300.57C389.17,-288.04 304.47,-268.79 248.41,-256.05"/>
<polygon fill="grey" stroke="grey" stroke-width="2" points="249.16,-252.63 238.63,-253.83 247.61,-259.45 249.16,-252.63"/>
</g>
<!-- 32 -->
<g id="node8" class="node">
<title>32</title>
<path fill="none" stroke="#d86e56" stroke-width="2" d="M578,-188C578,-188 420,-188 420,-188 414,-188 408,-182 408,-176 408,-176 408,-164 408,-164 408,-158 414,-152 420,-152 420,-152 578,-152 578,-152 584,-152 590,-158 590,-164 590,-164 590,-176 590,-176 590,-182 584,-188 578,-188"/>
<text text-anchor="middle" x="499" y="-167.5" font-family="sans" font-size="10.00">calculate_thickness_from_surface</text>
</g>
<!-- 4&#45;&gt;32 -->
<g id="edge8" class="edge">
<title>4&#45;&gt;32</title>
<path fill="none" stroke="grey" stroke-width="2" d="M499,-295.87C499,-271.67 499,-227.21 499,-198.39"/>
<polygon fill="grey" stroke="grey" stroke-width="2" points="502.5,-198.19 499,-188.19 495.5,-198.19 502.5,-198.19"/>
</g>
<!-- 30 -->
<g id="node13" class="node">
<title>30</title>
<path fill="none" stroke="#56d8b9" stroke-width="2" d="M238,-188C238,-188 80,-188 80,-188 74,-188 68,-182 68,-176 68,-176 68,-164 68,-164 68,-158 74,-152 80,-152 80,-152 238,-152 238,-152 244,-152 250,-158 250,-164 250,-164 250,-176 250,-176 250,-182 244,-188 238,-188"/>
<text text-anchor="middle" x="159" y="-167.5" font-family="sans" font-size="10.00">calculate_curvature_from_surface</text>
</g>
<!-- 31&#45;&gt;30 -->
<g id="edge19" class="edge">
<title>31&#45;&gt;30</title>
<path fill="none" stroke="grey" stroke-width="2" d="M183.09,-223.7C179.45,-215.73 175.05,-206.1 171.01,-197.26"/>
<polygon fill="grey" stroke="grey" stroke-width="2" points="174.16,-195.74 166.82,-188.1 167.79,-198.65 174.16,-195.74"/>
</g>
<!-- 32&#45;&gt;1 -->
<g id="edge20" class="edge">
<title>32&#45;&gt;1</title>
<path fill="none" stroke="grey" stroke-width="2" d="M489.11,-151.87C474.89,-127.24 448.55,-81.64 431.95,-52.88"/>
<polygon fill="grey" stroke="grey" stroke-width="2" points="434.96,-51.1 426.93,-44.19 428.9,-54.6 434.96,-51.1"/>
</g>
<!-- 32&#45;&gt;35 -->
<g id="edge21" class="edge">
<title>32&#45;&gt;35</title>
<path fill="none" stroke="grey" stroke-width="2" d="M456.19,-151.88C432.05,-142.22 401.72,-130.09 376.19,-119.88"/>
<polygon fill="grey" stroke="grey" stroke-width="2" points="377.26,-116.53 366.67,-116.07 374.66,-123.03 377.26,-116.53"/>
</g>
<!-- 5 -->
<g id="node9" class="node">
<title>5</title>
<path fill="none" stroke="#5673d8" stroke-width="2" d="M641,-404C641,-404 547,-404 547,-404 541,-404 535,-398 535,-392 535,-392 535,-380 535,-380 535,-374 541,-368 547,-368 547,-368 641,-368 641,-368 647,-368 653,-374 653,-380 653,-380 653,-392 653,-392 653,-398 647,-404 641,-404"/>
<text text-anchor="middle" x="594" y="-383.5" font-family="sans" font-size="10.00">correct_nan_vertices</text>
</g>
<!-- 5&#45;&gt;4 -->
<g id="edge10" class="edge">
<title>5&#45;&gt;4</title>
<path fill="none" stroke="grey" stroke-width="2" d="M570.52,-367.7C558.44,-358.8 543.55,-347.82 530.48,-338.2"/>
<polygon fill="grey" stroke="grey" stroke-width="2" points="532.34,-335.22 522.21,-332.1 528.19,-340.85 532.34,-335.22"/>
</g>
<!-- 6 -->
<g id="node10" class="node">
<title>6</title>
<path fill="none" stroke="#568ad8" stroke-width="2" d="M747.5,-476C747.5,-476 640.5,-476 640.5,-476 634.5,-476 628.5,-470 628.5,-464 628.5,-464 628.5,-452 628.5,-452 628.5,-446 634.5,-440 640.5,-440 640.5,-440 747.5,-440 747.5,-440 753.5,-440 759.5,-446 759.5,-452 759.5,-452 759.5,-464 759.5,-464 759.5,-470 753.5,-476 747.5,-476"/>
<text text-anchor="middle" x="694" y="-455.5" font-family="sans" font-size="10.00">warp_gii_unfold2native</text>
</g>
<!-- 6&#45;&gt;5 -->
<g id="edge11" class="edge">
<title>6&#45;&gt;5</title>
<path fill="none" stroke="grey" stroke-width="2" d="M669.54,-439.88C656.7,-430.89 640.8,-419.76 626.91,-410.03"/>
<polygon fill="grey" stroke="grey" stroke-width="2" points="628.76,-407.06 618.56,-404.19 624.74,-412.79 628.76,-407.06"/>
</g>
<!-- 27 -->
<g id="node11" class="node">
<title>27</title>
<path fill="none" stroke="#5692d8" stroke-width="2" d="M738,-548C738,-548 632,-548 632,-548 626,-548 620,-542 620,-536 620,-536 620,-524 620,-524 620,-518 626,-512 632,-512 632,-512 738,-512 738,-512 744,-512 750,-518 750,-524 750,-524 750,-536 750,-536 750,-542 744,-548 738,-548"/>
<text text-anchor="middle" x="685" y="-527.5" font-family="sans" font-size="10.00">constrain_surf_to_bbox</text>
</g>
<!-- 27&#45;&gt;6 -->
<g id="edge12" class="edge">
<title>27&#45;&gt;6</title>
<path fill="none" stroke="grey" stroke-width="2" d="M687.22,-511.7C688.22,-503.98 689.41,-494.71 690.51,-486.11"/>
<polygon fill="grey" stroke="grey" stroke-width="2" points="694,-486.47 691.8,-476.1 687.05,-485.58 694,-486.47"/>
</g>
<!-- 28 -->
<g id="node12" class="node">
<title>28</title>
<path fill="none" stroke="#d8ac56" stroke-width="2" d="M124,-620C124,-620 20,-620 20,-620 14,-620 8,-614 8,-608 8,-608 8,-596 8,-596 8,-590 14,-584 20,-584 20,-584 124,-584 124,-584 130,-584 136,-590 136,-596 136,-596 136,-608 136,-608 136,-614 130,-620 124,-620"/>
<text text-anchor="middle" x="72" y="-599.5" font-family="sans" font-size="10.00">cp_template_to_unfold</text>
</g>
<!-- 28&#45;&gt;1 -->
<g id="edge13" class="edge">
<title>28&#45;&gt;1</title>
<path fill="none" stroke="grey" stroke-width="2" d="M63.09,-583.58C50.5,-557.3 29,-505.62 29,-459 29,-459 29,-459 29,-241 29,-137.9 99.5,-116.28 196,-80 244.65,-61.71 301.76,-48.21 345.73,-39.41"/>
<polygon fill="grey" stroke="grey" stroke-width="2" points="346.62,-42.8 355.76,-37.44 345.27,-35.93 346.62,-42.8"/>
</g>
<!-- 28&#45;&gt;36 -->
<g id="edge15" class="edge">
<title>28&#45;&gt;36</title>
<path fill="none" stroke="grey" stroke-width="2" d="M51.74,-583.84C41.82,-574.3 30.61,-561.63 24,-548 6.5,-511.91 9,-499.11 9,-459 9,-459 9,-459 9,-169 9,-112.42 65.98,-71.65 109.7,-48.68"/>
<polygon fill="grey" stroke="grey" stroke-width="2" points="111.48,-51.71 118.8,-44.06 108.3,-45.47 111.48,-51.71"/>
</g>
<!-- 28&#45;&gt;27 -->
<g id="edge14" class="edge">
<title>28&#45;&gt;27</title>
<path fill="none" stroke="grey" stroke-width="2" d="M136.15,-593.67C250.38,-580.63 488.4,-553.45 609.99,-539.57"/>
<polygon fill="grey" stroke="grey" stroke-width="2" points="610.43,-543.04 619.97,-538.43 609.63,-536.08 610.43,-543.04"/>
</g>
<!-- 30&#45;&gt;1 -->
<g id="edge16" class="edge">
<title>30&#45;&gt;1</title>
<path fill="none" stroke="grey" stroke-width="2" d="M170.55,-151.68C184.81,-131.59 210.91,-98.84 241,-80 272.76,-60.12 312.4,-47.32 346.02,-39.3"/>
<polygon fill="grey" stroke="grey" stroke-width="2" points="346.83,-42.71 355.79,-37.06 345.26,-35.88 346.83,-42.71"/>
</g>
<!-- 30&#45;&gt;35 -->
<g id="edge17" class="edge">
<title>30&#45;&gt;35</title>
<path fill="none" stroke="grey" stroke-width="2" d="M199.36,-151.88C222.02,-142.26 250.47,-130.19 274.47,-120.01"/>
<polygon fill="grey" stroke="grey" stroke-width="2" points="275.93,-123.2 283.77,-116.07 273.19,-116.75 275.93,-123.2"/>
</g>
<!-- 30&#45;&gt;36 -->
<g id="edge18" class="edge">
<title>30&#45;&gt;36</title>
<path fill="none" stroke="grey" stroke-width="2" d="M159,-151.87C159,-127.67 159,-83.21 159,-54.39"/>
<polygon fill="grey" stroke="grey" stroke-width="2" points="162.5,-54.19 159,-44.19 155.5,-54.19 162.5,-54.19"/>
</g>
<!-- 33 -->
<g id="node14" class="node">
<title>33</title>
<path fill="none" stroke="#d8d356" stroke-width="2" d="M718,-116C718,-116 652,-116 652,-116 646,-116 640,-110 640,-104 640,-104 640,-92 640,-92 640,-86 646,-80 652,-80 652,-80 718,-80 718,-80 724,-80 730,-86 730,-92 730,-92 730,-104 730,-104 730,-110 724,-116 718,-116"/>
<text text-anchor="middle" x="685" y="-95.5" font-family="sans" font-size="10.00">nii_to_label_gii</text>
</g>
<!-- 33&#45;&gt;1 -->
<g id="edge22" class="edge">
<title>33&#45;&gt;1</title>
<path fill="none" stroke="grey" stroke-width="2" d="M639.84,-85.2C598.39,-74.38 536.3,-58.16 488.18,-45.59"/>
<polygon fill="grey" stroke="grey" stroke-width="2" points="489,-42.19 478.44,-43.05 487.24,-48.96 489,-42.19"/>
</g>
<!-- 34 -->
<g id="node15" class="node">
<title>34</title>
<path fill="none" stroke="#56c1d8" stroke-width="2" d="M756,-188C756,-188 640,-188 640,-188 634,-188 628,-182 628,-176 628,-176 628,-164 628,-164 628,-158 634,-152 640,-152 640,-152 756,-152 756,-152 762,-152 768,-158 768,-164 768,-164 768,-176 768,-176 768,-182 762,-188 756,-188"/>
<text text-anchor="middle" x="698" y="-167.5" font-family="sans" font-size="10.00">resample_atlas_to_refvol</text>
</g>
<!-- 34&#45;&gt;33 -->
<g id="edge23" class="edge">
<title>34&#45;&gt;33</title>
<path fill="none" stroke="grey" stroke-width="2" d="M694.79,-151.7C693.35,-143.98 691.63,-134.71 690.04,-126.11"/>
<polygon fill="grey" stroke="grey" stroke-width="2" points="693.44,-125.3 688.18,-116.1 686.56,-126.58 693.44,-125.3"/>
</g>
<!-- 7 -->
<g id="node16" class="node">
<title>7</title>
<path fill="none" stroke="#61d856" stroke-width="2" d="M864,-548C864,-548 780,-548 780,-548 774,-548 768,-542 768,-536 768,-536 768,-524 768,-524 768,-518 774,-512 780,-512 780,-512 864,-512 864,-512 870,-512 876,-518 876,-524 876,-524 876,-536 876,-536 876,-542 870,-548 864,-548"/>
<text text-anchor="middle" x="822" y="-527.5" font-family="sans" font-size="10.00">create_warps_hipp</text>
</g>
<!-- 7&#45;&gt;6 -->
<g id="edge26" class="edge">
<title>7&#45;&gt;6</title>
<path fill="none" stroke="grey" stroke-width="2" d="M790.69,-511.88C773.8,-502.64 752.75,-491.13 734.62,-481.21"/>
<polygon fill="grey" stroke="grey" stroke-width="2" points="735.89,-477.92 725.43,-476.19 732.53,-484.06 735.89,-477.92"/>
</g>
<!-- 8 -->
<g id="node17" class="node">
<title>8</title>
<path fill="none" stroke="#56d882" stroke-width="2" d="M928,-620C928,-620 850,-620 850,-620 844,-620 838,-614 838,-608 838,-608 838,-596 838,-596 838,-590 844,-584 850,-584 850,-584 928,-584 928,-584 934,-584 940,-590 940,-596 940,-596 940,-608 940,-608 940,-614 934,-620 928,-620"/>
<text text-anchor="middle" x="889" y="-599.5" font-family="sans" font-size="10.00">create_unfold_ref</text>
</g>
<!-- 8&#45;&gt;27 -->
<g id="edge28" class="edge">
<title>8&#45;&gt;27</title>
<path fill="none" stroke="grey" stroke-width="2" d="M839.36,-583.97C810.73,-574.14 774.55,-561.73 744.42,-551.39"/>
<polygon fill="grey" stroke="grey" stroke-width="2" points="745.46,-548.05 734.87,-548.11 743.19,-554.67 745.46,-548.05"/>
</g>
<!-- 8&#45;&gt;34 -->
<g id="edge29" class="edge">
<title>8&#45;&gt;34</title>
<path fill="none" stroke="grey" stroke-width="2" d="M940.33,-593.98C970.4,-587.2 1006.73,-573.93 1029,-548 1055.35,-517.32 1048,-499.45 1048,-459 1048,-459 1048,-459 1048,-313 1048,-255.11 881.53,-209.53 778.2,-186.81"/>
<polygon fill="grey" stroke="grey" stroke-width="2" points="778.92,-183.39 768.41,-184.69 777.44,-190.23 778.92,-183.39"/>
</g>
<!-- 8&#45;&gt;7 -->
<g id="edge27" class="edge">
<title>8&#45;&gt;7</title>
<path fill="none" stroke="grey" stroke-width="2" d="M872.44,-583.7C864.32,-575.22 854.41,-564.86 845.53,-555.58"/>
<polygon fill="grey" stroke="grey" stroke-width="2" points="847.81,-552.91 838.37,-548.1 842.76,-557.75 847.81,-552.91"/>
</g>
<!-- 37 -->
<g id="node18" class="node">
<title>37</title>
<path fill="none" stroke="#56d86b" stroke-width="2" d="M1007.5,-548C1007.5,-548 906.5,-548 906.5,-548 900.5,-548 894.5,-542 894.5,-536 894.5,-536 894.5,-524 894.5,-524 894.5,-518 900.5,-512 906.5,-512 906.5,-512 1007.5,-512 1007.5,-512 1013.5,-512 1019.5,-518 1019.5,-524 1019.5,-524 1019.5,-536 1019.5,-536 1019.5,-542 1013.5,-548 1007.5,-548"/>
<text text-anchor="middle" x="957" y="-527.5" font-family="sans" font-size="10.00">create_warps_dentate</text>
</g>
<!-- 8&#45;&gt;37 -->
<g id="edge30" class="edge">
<title>8&#45;&gt;37</title>
<path fill="none" stroke="grey" stroke-width="2" d="M905.81,-583.7C914.13,-575.14 924.31,-564.66 933.39,-555.3"/>
<polygon fill="grey" stroke="grey" stroke-width="2" points="935.93,-557.72 940.38,-548.1 930.91,-552.84 935.93,-557.72"/>
</g>
<!-- 37&#45;&gt;6 -->
<g id="edge32" class="edge">
<title>37&#45;&gt;6</title>
<path fill="none" stroke="grey" stroke-width="2" d="M894.34,-512.32C856.3,-502.2 807.56,-489.23 767.68,-478.61"/>
<polygon fill="grey" stroke="grey" stroke-width="2" points="768.57,-475.23 758.01,-476.04 766.77,-481.99 768.57,-475.23"/>
</g>
<!-- 29 -->
<g id="node19" class="node">
<title>29</title>
<path fill="none" stroke="#b6d856" stroke-width="2" d="M880.5,-404C880.5,-404 779.5,-404 779.5,-404 773.5,-404 767.5,-398 767.5,-392 767.5,-392 767.5,-380 767.5,-380 767.5,-374 773.5,-368 779.5,-368 779.5,-368 880.5,-368 880.5,-368 886.5,-368 892.5,-374 892.5,-380 892.5,-380 892.5,-392 892.5,-392 892.5,-398 886.5,-404 880.5,-404"/>
<text text-anchor="middle" x="830" y="-383.5" font-family="sans" font-size="10.00">template_xfm_itk2ras</text>
</g>
<!-- 29&#45;&gt;4 -->
<g id="edge31" class="edge">
<title>29&#45;&gt;4</title>
<path fill="none" stroke="grey" stroke-width="2" d="M767.49,-368.81C766.32,-368.53 765.15,-368.26 764,-368 696,-352.46 617.61,-337.09 563.83,-326.94"/>
<polygon fill="grey" stroke="grey" stroke-width="2" points="564.22,-323.45 553.75,-325.04 562.93,-330.33 564.22,-323.45"/>
</g>
</g>
</svg>
