<?xml version="1.0" encoding="UTF-8" standalone="no"?>
<!DOCTYPE svg PUBLIC "-//W3C//DTD SVG 1.1//EN"
 "http://www.w3.org/Graphics/SVG/1.1/DTD/svg11.dtd">
<!-- Generated by graphviz version 2.43.0 (0)
 -->
<!-- Pages: 1 -->
<svg width="299pt" height="443pt"
 viewBox="0.00 0.00 299.00 443.00" xmlns="http://www.w3.org/2000/svg" xmlns:xlink="http://www.w3.org/1999/xlink">
<g id="graph0" class="graph" transform="scale(1 1) rotate(0) translate(4 439)">
<polygon fill="white" stroke="transparent" points="-4,4 -4,-439 295,-439 295,4 -4,4"/>
<g id="clust1" class="cluster">
<title>cluster_0</title>
<polygon fill="white" stroke="blue" points="8,-8 8,-427 283,-427 283,-8 8,-8"/>
<text text-anchor="middle" x="145.5" y="-411.8" font-family="Times,serif" font-size="14.00">preproc_t1</text>
</g>
<!-- 15 -->
<g id="node1" class="node">
<title>15</title>
<path fill="none" stroke="#56d8d8" stroke-width="2" d="M128,-44C128,-44 20,-44 20,-44 14,-44 8,-38 8,-32 8,-32 8,-20 8,-20 8,-14 14,-8 20,-8 20,-8 128,-8 128,-8 134,-8 140,-14 140,-20 140,-20 140,-32 140,-32 140,-38 134,-44 128,-44"/>
<text text-anchor="middle" x="74" y="-23.5" font-family="sans" font-size="10.00">warp_t1_to_corobl_crop</text>
</g>
<!-- 16 -->
<g id="node2" class="node">
<title>16</title>
<path fill="none" stroke="#56d8c9" stroke-width="2" d="M123,-332C123,-332 93,-332 93,-332 87,-332 81,-326 81,-320 81,-320 81,-308 81,-308 81,-302 87,-296 93,-296 93,-296 123,-296 123,-296 129,-296 135,-302 135,-308 135,-308 135,-320 135,-320 135,-326 129,-332 123,-332"/>
<text text-anchor="middle" x="108" y="-311.5" font-family="sans" font-size="10.00">n4_t1</text>
</g>
<!-- 16&#45;&gt;15 -->
<g id="edge1" class="edge">
<title>16&#45;&gt;15</title>
<path fill="none" stroke="grey" stroke-width="2" d="M104.17,-295.71C99,-271.67 89.87,-226.75 85,-188 79.15,-141.5 76.25,-87.03 74.94,-54.85"/>
<polygon fill="grey" stroke="grey" stroke-width="2" points="78.42,-54.31 74.54,-44.45 71.43,-54.58 78.42,-54.31"/>
</g>
<!-- 20 -->
<g id="node3" class="node">
<title>20</title>
<path fill="none" stroke="#56a9d8" stroke-width="2" d="M195.5,-260C195.5,-260 122.5,-260 122.5,-260 116.5,-260 110.5,-254 110.5,-248 110.5,-248 110.5,-236 110.5,-236 110.5,-230 116.5,-224 122.5,-224 122.5,-224 195.5,-224 195.5,-224 201.5,-224 207.5,-230 207.5,-236 207.5,-236 207.5,-248 207.5,-248 207.5,-254 201.5,-260 195.5,-260"/>
<text text-anchor="middle" x="159" y="-239.5" font-family="sans" font-size="10.00">reg_to_template</text>
</g>
<!-- 16&#45;&gt;20 -->
<g id="edge2" class="edge">
<title>16&#45;&gt;20</title>
<path fill="none" stroke="grey" stroke-width="2" d="M120.61,-295.7C126.6,-287.47 133.88,-277.48 140.48,-268.42"/>
<polygon fill="grey" stroke="grey" stroke-width="2" points="143.48,-270.25 146.54,-260.1 137.82,-266.13 143.48,-270.25"/>
</g>
<!-- 19 -->
<g id="node7" class="node">
<title>19</title>
<path fill="none" stroke="#5682d8" stroke-width="2" d="M248.5,-188C248.5,-188 105.5,-188 105.5,-188 99.5,-188 93.5,-182 93.5,-176 93.5,-176 93.5,-164 93.5,-164 93.5,-158 99.5,-152 105.5,-152 105.5,-152 248.5,-152 248.5,-152 254.5,-152 260.5,-158 260.5,-164 260.5,-164 260.5,-176 260.5,-176 260.5,-182 254.5,-188 248.5,-188"/>
<text text-anchor="middle" x="177" y="-167.5" font-family="sans" font-size="10.00">convert_template_xfm_ras2itk</text>
</g>
<!-- 20&#45;&gt;19 -->
<g id="edge7" class="edge">
<title>20&#45;&gt;19</title>
<path fill="none" stroke="grey" stroke-width="2" d="M163.45,-223.7C165.45,-215.9 167.87,-206.51 170.1,-197.83"/>
<polygon fill="grey" stroke="grey" stroke-width="2" points="173.5,-198.66 172.6,-188.1 166.72,-196.92 173.5,-198.66"/>
</g>
<!-- 17 -->
<g id="node4" class="node">
<title>17</title>
<path fill="none" stroke="#56d873" stroke-width="2" d="M128,-404C128,-404 88,-404 88,-404 82,-404 76,-398 76,-392 76,-392 76,-380 76,-380 76,-374 82,-368 88,-368 88,-368 128,-368 128,-368 134,-368 140,-374 140,-380 140,-380 140,-392 140,-392 140,-398 134,-404 128,-404"/>
<text text-anchor="middle" x="108" y="-383.5" font-family="sans" font-size="10.00">import_t1</text>
</g>
<!-- 17&#45;&gt;16 -->
<g id="edge3" class="edge">
<title>17&#45;&gt;16</title>
<path fill="none" stroke="grey" stroke-width="2" d="M108,-367.7C108,-359.98 108,-350.71 108,-342.11"/>
<polygon fill="grey" stroke="grey" stroke-width="2" points="111.5,-342.1 108,-332.1 104.5,-342.1 111.5,-342.1"/>
</g>
<!-- 18 -->
<g id="node5" class="node">
<title>18</title>
<path fill="none" stroke="#56d85b" stroke-width="2" d="M251,-116C251,-116 105,-116 105,-116 99,-116 93,-110 93,-104 93,-104 93,-92 93,-92 93,-86 99,-80 105,-80 105,-80 251,-80 251,-80 257,-80 263,-86 263,-92 263,-92 263,-104 263,-104 263,-110 257,-116 251,-116"/>
<text text-anchor="middle" x="178" y="-95.5" font-family="sans" font-size="10.00">compose_template_xfm_corobl</text>
</g>
<!-- 18&#45;&gt;15 -->
<g id="edge4" class="edge">
<title>18&#45;&gt;15</title>
<path fill="none" stroke="grey" stroke-width="2" d="M152.56,-79.88C139.21,-70.89 122.68,-59.76 108.22,-50.03"/>
<polygon fill="grey" stroke="grey" stroke-width="2" points="109.79,-46.87 99.54,-44.19 105.88,-52.68 109.79,-46.87"/>
</g>
<!-- 29 -->
<g id="node6" class="node">
<title>29</title>
<path fill="none" stroke="#b6d856" stroke-width="2" d="M271.5,-44C271.5,-44 170.5,-44 170.5,-44 164.5,-44 158.5,-38 158.5,-32 158.5,-32 158.5,-20 158.5,-20 158.5,-14 164.5,-8 170.5,-8 170.5,-8 271.5,-8 271.5,-8 277.5,-8 283.5,-14 283.5,-20 283.5,-20 283.5,-32 283.5,-32 283.5,-38 277.5,-44 271.5,-44"/>
<text text-anchor="middle" x="221" y="-23.5" font-family="sans" font-size="10.00">template_xfm_itk2ras</text>
</g>
<!-- 18&#45;&gt;29 -->
<g id="edge5" class="edge">
<title>18&#45;&gt;29</title>
<path fill="none" stroke="grey" stroke-width="2" d="M188.63,-79.7C193.63,-71.56 199.69,-61.69 205.21,-52.7"/>
<polygon fill="grey" stroke="grey" stroke-width="2" points="208.24,-54.46 210.49,-44.1 202.28,-50.79 208.24,-54.46"/>
</g>
<!-- 19&#45;&gt;18 -->
<g id="edge6" class="edge">
<title>19&#45;&gt;18</title>
<path fill="none" stroke="grey" stroke-width="2" d="M177.25,-151.7C177.36,-143.98 177.49,-134.71 177.61,-126.11"/>
<polygon fill="grey" stroke="grey" stroke-width="2" points="181.11,-126.15 177.76,-116.1 174.11,-126.05 181.11,-126.15"/>
</g>
</g>
</svg>
