<?xml version="1.0" encoding="UTF-8" standalone="no"?>
<!DOCTYPE svg PUBLIC "-//W3C//DTD SVG 1.1//EN"
 "http://www.w3.org/Graphics/SVG/1.1/DTD/svg11.dtd">
<!-- Generated by graphviz version 2.43.0 (0)
 -->
<!-- Pages: 1 -->
<svg width="889pt" height="659pt"
 viewBox="0.00 0.00 889.00 659.00" xmlns="http://www.w3.org/2000/svg" xmlns:xlink="http://www.w3.org/1999/xlink">
<g id="graph0" class="graph" transform="scale(1 1) rotate(0) translate(4 655)">
<polygon fill="white" stroke="transparent" points="-4,4 -4,-655 885,-655 885,4 -4,4"/>
<g id="clust1" class="cluster">
<title>cluster_0</title>
<polygon fill="white" stroke="blue" points="8,-8 8,-643 728,-643 728,-8 8,-8"/>
<text text-anchor="middle" x="368" y="-627.8" font-family="Times,serif" font-size="14.00">gifti</text>
</g>
<!-- 1 -->
<g id="node1" class="node">
<title>1</title>
<path fill="none" stroke="#56b9d8" stroke-width="2" d="M461,-44C461,-44 363,-44 363,-44 357,-44 351,-38 351,-32 351,-32 351,-20 351,-20 351,-14 357,-8 363,-8 363,-8 461,-8 461,-8 467,-8 473,-14 473,-20 473,-20 473,-32 473,-32 473,-38 467,-44 461,-44"/>
<text text-anchor="middle" x="412" y="-23.5" font-family="sans" font-size="10.00">create_spec_file_hipp</text>
</g>
<!-- 2 -->
<g id="node2" class="node">
<title>2</title>
<path fill="none" stroke="#d85656" stroke-width="2" d="M537.5,-188C537.5,-188 440.5,-188 440.5,-188 434.5,-188 428.5,-182 428.5,-176 428.5,-176 428.5,-164 428.5,-164 428.5,-158 434.5,-152 440.5,-152 440.5,-152 537.5,-152 537.5,-152 543.5,-152 549.5,-158 549.5,-164 549.5,-164 549.5,-176 549.5,-176 549.5,-182 543.5,-188 537.5,-188"/>
<text text-anchor="middle" x="489" y="-167.5" font-family="sans" font-size="10.00">calculate_gyrification</text>
</g>
<!-- 2&#45;&gt;1 -->
<g id="edge1" class="edge">
<title>2&#45;&gt;1</title>
<path fill="none" stroke="grey" stroke-width="2" d="M479.71,-151.87C466.42,-127.35 441.84,-82.03 426.24,-53.26"/>
<polygon fill="grey" stroke="grey" stroke-width="2" points="429.16,-51.31 421.32,-44.19 423.01,-54.65 429.16,-51.31"/>
</g>
<!-- 35 -->
<g id="node3" class="node">
<title>35</title>
<path fill="none" stroke="#56d89a" stroke-width="2" d="M381,-116C381,-116 257,-116 257,-116 251,-116 245,-110 245,-104 245,-104 245,-92 245,-92 245,-86 251,-80 257,-80 257,-80 381,-80 381,-80 387,-80 393,-86 393,-92 393,-92 393,-104 393,-104 393,-110 387,-116 381,-116"/>
<text text-anchor="middle" x="319" y="-95.5" font-family="sans" font-size="10.00">create_dscalar_metric_cifti</text>
</g>
<!-- 2&#45;&gt;35 -->
<g id="edge2" class="edge">
<title>2&#45;&gt;35</title>
<path fill="none" stroke="grey" stroke-width="2" d="M447.41,-151.88C423.97,-142.22 394.5,-130.09 369.7,-119.88"/>
<polygon fill="grey" stroke="grey" stroke-width="2" points="371.03,-116.64 360.45,-116.07 368.37,-123.11 371.03,-116.64"/>
</g>
<!-- 35&#45;&gt;1 -->
<g id="edge20" class="edge">
<title>35&#45;&gt;1</title>
<path fill="none" stroke="grey" stroke-width="2" d="M341.99,-79.7C353.81,-70.8 368.39,-59.82 381.18,-50.2"/>
<polygon fill="grey" stroke="grey" stroke-width="2" points="383.39,-52.91 389.28,-44.1 379.18,-47.32 383.39,-52.91"/>
</g>
<!-- 3 -->
<g id="node4" class="node">
<title>3</title>
<path fill="none" stroke="#56a2d8" stroke-width="2" d="M537.5,-260C537.5,-260 432.5,-260 432.5,-260 426.5,-260 420.5,-254 420.5,-248 420.5,-248 420.5,-236 420.5,-236 420.5,-230 426.5,-224 432.5,-224 432.5,-224 537.5,-224 537.5,-224 543.5,-224 549.5,-230 549.5,-236 549.5,-236 549.5,-248 549.5,-248 549.5,-254 543.5,-260 537.5,-260"/>
<text text-anchor="middle" x="485" y="-239.5" font-family="sans" font-size="10.00">calculate_surface_area</text>
</g>
<!-- 3&#45;&gt;2 -->
<g id="edge3" class="edge">
<title>3&#45;&gt;2</title>
<path fill="none" stroke="grey" stroke-width="2" d="M485.99,-223.7C486.43,-215.98 486.96,-206.71 487.45,-198.11"/>
<polygon fill="grey" stroke="grey" stroke-width="2" points="490.95,-198.29 488.02,-188.1 483.96,-197.89 490.95,-198.29"/>
</g>
<!-- 4 -->
<g id="node5" class="node">
<title>4</title>
<path fill="none" stroke="#d8a456" stroke-width="2" d="M569.5,-332C569.5,-332 484.5,-332 484.5,-332 478.5,-332 472.5,-326 472.5,-320 472.5,-320 472.5,-308 472.5,-308 472.5,-302 478.5,-296 484.5,-296 484.5,-296 569.5,-296 569.5,-296 575.5,-296 581.5,-302 581.5,-308 581.5,-308 581.5,-320 581.5,-320 581.5,-326 575.5,-332 569.5,-332"/>
<text text-anchor="middle" x="527" y="-311.5" font-family="sans" font-size="10.00">warp_gii_to_native</text>
</g>
<!-- 4&#45;&gt;1 -->
<g id="edge4" class="edge">
<title>4&#45;&gt;1</title>
<path fill="none" stroke="grey" stroke-width="2" d="M540.56,-295.97C547.56,-286.09 555.37,-273.05 559,-260 571.88,-213.76 579.14,-195.57 559,-152 537.62,-105.75 489.75,-70.33 454.41,-49.2"/>
<polygon fill="grey" stroke="grey" stroke-width="2" points="456.13,-46.15 445.73,-44.14 452.6,-52.19 456.13,-46.15"/>
</g>
<!-- 4&#45;&gt;3 -->
<g id="edge5" class="edge">
<title>4&#45;&gt;3</title>
<path fill="none" stroke="grey" stroke-width="2" d="M516.62,-295.7C511.74,-287.56 505.81,-277.69 500.42,-268.7"/>
<polygon fill="grey" stroke="grey" stroke-width="2" points="503.41,-266.88 495.26,-260.1 497.41,-270.48 503.41,-266.88"/>
</g>
<!-- 31 -->
<g id="node6" class="node">
<title>31</title>
<path fill="none" stroke="#569ad8" stroke-width="2" d="M241.5,-260C241.5,-260 170.5,-260 170.5,-260 164.5,-260 158.5,-254 158.5,-248 158.5,-248 158.5,-236 158.5,-236 158.5,-230 164.5,-224 170.5,-224 170.5,-224 241.5,-224 241.5,-224 247.5,-224 253.5,-230 253.5,-236 253.5,-236 253.5,-248 253.5,-248 253.5,-254 247.5,-260 241.5,-260"/>
<text text-anchor="middle" x="206" y="-239.5" font-family="sans" font-size="10.00">smooth_surface</text>
</g>
<!-- 4&#45;&gt;31 -->
<g id="edge6" class="edge">
<title>4&#45;&gt;31</title>
<path fill="none" stroke="grey" stroke-width="2" d="M472.18,-301.05C414.04,-288.37 322.58,-268.42 263.45,-255.53"/>
<polygon fill="grey" stroke="grey" stroke-width="2" points="264.04,-252.08 253.53,-253.36 262.55,-258.91 264.04,-252.08"/>
</g>
<!-- 32 -->
<g id="node7" class="node">
<title>32</title>
<path fill="none" stroke="#56c9d8" stroke-width="2" d="M398,-188C398,-188 240,-188 240,-188 234,-188 228,-182 228,-176 228,-176 228,-164 228,-164 228,-158 234,-152 240,-152 240,-152 398,-152 398,-152 404,-152 410,-158 410,-164 410,-164 410,-176 410,-176 410,-182 404,-188 398,-188"/>
<text text-anchor="middle" x="319" y="-167.5" font-family="sans" font-size="10.00">calculate_thickness_from_surface</text>
</g>
<!-- 4&#45;&gt;32 -->
<g id="edge7" class="edge">
<title>4&#45;&gt;32</title>
<path fill="none" stroke="grey" stroke-width="2" d="M480.91,-295.89C459.11,-286.79 433.26,-274.47 412,-260 384.88,-241.54 358.29,-214.99 340.53,-195.7"/>
<polygon fill="grey" stroke="grey" stroke-width="2" points="343.03,-193.24 333.72,-188.18 337.84,-197.94 343.03,-193.24"/>
</g>
<!-- 30 -->
<g id="node12" class="node">
<title>30</title>
<path fill="none" stroke="#5682d8" stroke-width="2" d="M198,-188C198,-188 40,-188 40,-188 34,-188 28,-182 28,-176 28,-176 28,-164 28,-164 28,-158 34,-152 40,-152 40,-152 198,-152 198,-152 204,-152 210,-158 210,-164 210,-164 210,-176 210,-176 210,-182 204,-188 198,-188"/>
<text text-anchor="middle" x="119" y="-167.5" font-family="sans" font-size="10.00">calculate_curvature_from_surface</text>
</g>
<!-- 31&#45;&gt;30 -->
<g id="edge15" class="edge">
<title>31&#45;&gt;30</title>
<path fill="none" stroke="grey" stroke-width="2" d="M184.49,-223.7C173.54,-214.88 160.05,-204.03 148.18,-194.47"/>
<polygon fill="grey" stroke="grey" stroke-width="2" points="150.24,-191.65 140.26,-188.1 145.86,-197.1 150.24,-191.65"/>
</g>
<!-- 32&#45;&gt;1 -->
<g id="edge16" class="edge">
<title>32&#45;&gt;1</title>
<path fill="none" stroke="grey" stroke-width="2" d="M360.79,-151.82C376.24,-143.33 392.33,-131.53 402,-116 413.41,-97.69 415.39,-73.08 414.81,-54.38"/>
<polygon fill="grey" stroke="grey" stroke-width="2" points="418.29,-53.93 414.22,-44.14 411.3,-54.33 418.29,-53.93"/>
</g>
<!-- 32&#45;&gt;35 -->
<g id="edge17" class="edge">
<title>32&#45;&gt;35</title>
<path fill="none" stroke="grey" stroke-width="2" d="M319,-151.7C319,-143.98 319,-134.71 319,-126.11"/>
<polygon fill="grey" stroke="grey" stroke-width="2" points="322.5,-126.1 319,-116.1 315.5,-126.1 322.5,-126.1"/>
</g>
<!-- 5 -->
<g id="node8" class="node">
<title>5</title>
<path fill="none" stroke="#565bd8" stroke-width="2" d="M633,-404C633,-404 539,-404 539,-404 533,-404 527,-398 527,-392 527,-392 527,-380 527,-380 527,-374 533,-368 539,-368 539,-368 633,-368 633,-368 639,-368 645,-374 645,-380 645,-380 645,-392 645,-392 645,-398 639,-404 633,-404"/>
<text text-anchor="middle" x="586" y="-383.5" font-family="sans" font-size="10.00">correct_nan_vertices</text>
</g>
<!-- 5&#45;&gt;4 -->
<g id="edge8" class="edge">
<title>5&#45;&gt;4</title>
<path fill="none" stroke="grey" stroke-width="2" d="M571.42,-367.7C564.34,-359.3 555.72,-349.07 547.95,-339.86"/>
<polygon fill="grey" stroke="grey" stroke-width="2" points="550.54,-337.49 541.42,-332.1 545.19,-342.01 550.54,-337.49"/>
</g>
<!-- 6 -->
<g id="node9" class="node">
<title>6</title>
<path fill="none" stroke="#5682d8" stroke-width="2" d="M668.5,-476C668.5,-476 561.5,-476 561.5,-476 555.5,-476 549.5,-470 549.5,-464 549.5,-464 549.5,-452 549.5,-452 549.5,-446 555.5,-440 561.5,-440 561.5,-440 668.5,-440 668.5,-440 674.5,-440 680.5,-446 680.5,-452 680.5,-452 680.5,-464 680.5,-464 680.5,-470 674.5,-476 668.5,-476"/>
<text text-anchor="middle" x="615" y="-455.5" font-family="sans" font-size="10.00">warp_gii_unfold2native</text>
</g>
<!-- 6&#45;&gt;5 -->
<g id="edge9" class="edge">
<title>6&#45;&gt;5</title>
<path fill="none" stroke="grey" stroke-width="2" d="M607.83,-439.7C604.57,-431.81 600.63,-422.3 597,-413.55"/>
<polygon fill="grey" stroke="grey" stroke-width="2" points="600.15,-412 593.09,-404.1 593.68,-414.68 600.15,-412"/>
</g>
<!-- 27 -->
<g id="node10" class="node">
<title>27</title>
<path fill="none" stroke="#70d856" stroke-width="2" d="M668,-548C668,-548 562,-548 562,-548 556,-548 550,-542 550,-536 550,-536 550,-524 550,-524 550,-518 556,-512 562,-512 562,-512 668,-512 668,-512 674,-512 680,-518 680,-524 680,-524 680,-536 680,-536 680,-542 674,-548 668,-548"/>
<text text-anchor="middle" x="615" y="-527.5" font-family="sans" font-size="10.00">constrain_surf_to_bbox</text>
</g>
<!-- 27&#45;&gt;6 -->
<g id="edge10" class="edge">
<title>27&#45;&gt;6</title>
<path fill="none" stroke="grey" stroke-width="2" d="M615,-511.7C615,-503.98 615,-494.71 615,-486.11"/>
<polygon fill="grey" stroke="grey" stroke-width="2" points="618.5,-486.1 615,-476.1 611.5,-486.1 618.5,-486.1"/>
</g>
<!-- 28 -->
<g id="node11" class="node">
<title>28</title>
<path fill="none" stroke="#d88556" stroke-width="2" d="M395,-620C395,-620 291,-620 291,-620 285,-620 279,-614 279,-608 279,-608 279,-596 279,-596 279,-590 285,-584 291,-584 291,-584 395,-584 395,-584 401,-584 407,-590 407,-596 407,-596 407,-608 407,-608 407,-614 401,-620 395,-620"/>
<text text-anchor="middle" x="343" y="-599.5" font-family="sans" font-size="10.00">cp_template_to_unfold</text>
</g>
<!-- 28&#45;&gt;1 -->
<g id="edge11" class="edge">
<title>28&#45;&gt;1</title>
<path fill="none" stroke="grey" stroke-width="2" d="M279,-601.15C182.01,-597.63 9,-575.09 9,-459 9,-459 9,-459 9,-169 9,-99.51 224.83,-55.68 340.59,-37.17"/>
<polygon fill="grey" stroke="grey" stroke-width="2" points="341.46,-40.57 350.79,-35.56 340.37,-33.66 341.46,-40.57"/>
</g>
<!-- 28&#45;&gt;27 -->
<g id="edge12" class="edge">
<title>28&#45;&gt;27</title>
<path fill="none" stroke="grey" stroke-width="2" d="M407.12,-584.5C446.96,-574.25 498.35,-561.02 540.06,-550.29"/>
<polygon fill="grey" stroke="grey" stroke-width="2" points="541.09,-553.64 549.9,-547.75 539.34,-546.86 541.09,-553.64"/>
</g>
<!-- 30&#45;&gt;1 -->
<g id="edge13" class="edge">
<title>30&#45;&gt;1</title>
<path fill="none" stroke="grey" stroke-width="2" d="M137.04,-151.94C158.89,-132.1 197.57,-99.59 236,-80 268.85,-63.26 307.9,-50.83 340.86,-42.23"/>
<polygon fill="grey" stroke="grey" stroke-width="2" points="342.05,-45.54 350.88,-39.69 340.33,-38.76 342.05,-45.54"/>
</g>
<!-- 30&#45;&gt;35 -->
<g id="edge14" class="edge">
<title>30&#45;&gt;35</title>
<path fill="none" stroke="grey" stroke-width="2" d="M167.67,-151.97C195.61,-142.19 230.9,-129.84 260.36,-119.52"/>
<polygon fill="grey" stroke="grey" stroke-width="2" points="261.83,-122.72 270.11,-116.11 259.52,-116.11 261.83,-122.72"/>
</g>
<!-- 33 -->
<g id="node13" class="node">
<title>33</title>
<path fill="none" stroke="#56b9d8" stroke-width="2" d="M678,-116C678,-116 612,-116 612,-116 606,-116 600,-110 600,-104 600,-104 600,-92 600,-92 600,-86 606,-80 612,-80 612,-80 678,-80 678,-80 684,-80 690,-86 690,-92 690,-92 690,-104 690,-104 690,-110 684,-116 678,-116"/>
<text text-anchor="middle" x="645" y="-95.5" font-family="sans" font-size="10.00">nii_to_label_gii</text>
</g>
<!-- 33&#45;&gt;1 -->
<g id="edge18" class="edge">
<title>33&#45;&gt;1</title>
<path fill="none" stroke="grey" stroke-width="2" d="M599.8,-83.42C565.27,-73.05 517.17,-58.6 478.29,-46.92"/>
<polygon fill="grey" stroke="grey" stroke-width="2" points="479.21,-43.54 468.62,-44.01 477.19,-50.24 479.21,-43.54"/>
</g>
<!-- 34 -->
<g id="node14" class="node">
<title>34</title>
<path fill="none" stroke="#9fd856" stroke-width="2" d="M716,-188C716,-188 600,-188 600,-188 594,-188 588,-182 588,-176 588,-176 588,-164 588,-164 588,-158 594,-152 600,-152 600,-152 716,-152 716,-152 722,-152 728,-158 728,-164 728,-164 728,-176 728,-176 728,-182 722,-188 716,-188"/>
<text text-anchor="middle" x="658" y="-167.5" font-family="sans" font-size="10.00">resample_atlas_to_refvol</text>
</g>
<!-- 34&#45;&gt;33 -->
<g id="edge19" class="edge">
<title>34&#45;&gt;33</title>
<path fill="none" stroke="grey" stroke-width="2" d="M654.79,-151.7C653.35,-143.98 651.63,-134.71 650.04,-126.11"/>
<polygon fill="grey" stroke="grey" stroke-width="2" points="653.44,-125.3 648.18,-116.1 646.56,-126.58 653.44,-125.3"/>
</g>
<!-- 7 -->
<g id="node15" class="node">
<title>7</title>
<path fill="none" stroke="#68d856" stroke-width="2" d="M824,-548C824,-548 740,-548 740,-548 734,-548 728,-542 728,-536 728,-536 728,-524 728,-524 728,-518 734,-512 740,-512 740,-512 824,-512 824,-512 830,-512 836,-518 836,-524 836,-524 836,-536 836,-536 836,-542 830,-548 824,-548"/>
<text text-anchor="middle" x="782" y="-527.5" font-family="sans" font-size="10.00">create_warps_hipp</text>
</g>
<!-- 7&#45;&gt;6 -->
<g id="edge21" class="edge">
<title>7&#45;&gt;6</title>
<path fill="none" stroke="grey" stroke-width="2" d="M741.15,-511.88C718.22,-502.26 689.42,-490.19 665.13,-480.01"/>
<polygon fill="grey" stroke="grey" stroke-width="2" points="666.3,-476.71 655.72,-476.07 663.59,-483.16 666.3,-476.71"/>
</g>
<!-- 8 -->
<g id="node16" class="node">
<title>8</title>
<path fill="none" stroke="#d85e56" stroke-width="2" d="M821,-620C821,-620 743,-620 743,-620 737,-620 731,-614 731,-608 731,-608 731,-596 731,-596 731,-590 737,-584 743,-584 743,-584 821,-584 821,-584 827,-584 833,-590 833,-596 833,-596 833,-608 833,-608 833,-614 827,-620 821,-620"/>
<text text-anchor="middle" x="782" y="-599.5" font-family="sans" font-size="10.00">create_unfold_ref</text>
</g>
<!-- 8&#45;&gt;27 -->
<g id="edge23" class="edge">
<title>8&#45;&gt;27</title>
<path fill="none" stroke="grey" stroke-width="2" d="M741.15,-583.88C718.22,-574.26 689.42,-562.19 665.13,-552.01"/>
<polygon fill="grey" stroke="grey" stroke-width="2" points="666.3,-548.71 655.72,-548.07 663.59,-555.16 666.3,-548.71"/>
</g>
<!-- 8&#45;&gt;34 -->
<g id="edge24" class="edge">
<title>8&#45;&gt;34</title>
<path fill="none" stroke="grey" stroke-width="2" d="M807.92,-583.77C820.45,-574.39 834.92,-561.88 845,-548 870.07,-513.47 881,-501.67 881,-459 881,-459 881,-459 881,-313 881,-243.04 801.94,-206.05 737.97,-187.57"/>
<polygon fill="grey" stroke="grey" stroke-width="2" points="738.82,-184.17 728.25,-184.87 736.95,-190.92 738.82,-184.17"/>
</g>
<!-- 8&#45;&gt;7 -->
<g id="edge22" class="edge">
<title>8&#45;&gt;7</title>
<path fill="none" stroke="grey" stroke-width="2" d="M782,-583.7C782,-575.98 782,-566.71 782,-558.11"/>
<polygon fill="grey" stroke="grey" stroke-width="2" points="785.5,-558.1 782,-548.1 778.5,-558.1 785.5,-558.1"/>
</g>
<!-- 29 -->
<g id="node17" class="node">
<title>29</title>
<path fill="none" stroke="#80d856" stroke-width="2" d="M840.5,-404C840.5,-404 739.5,-404 739.5,-404 733.5,-404 727.5,-398 727.5,-392 727.5,-392 727.5,-380 727.5,-380 727.5,-374 733.5,-368 739.5,-368 739.5,-368 840.5,-368 840.5,-368 846.5,-368 852.5,-374 852.5,-380 852.5,-380 852.5,-392 852.5,-392 852.5,-398 846.5,-404 840.5,-404"/>
<text text-anchor="middle" x="790" y="-383.5" font-family="sans" font-size="10.00">template_xfm_itk2ras</text>
</g>
<!-- 29&#45;&gt;4 -->
<g id="edge25" class="edge">
<title>29&#45;&gt;4</title>
<path fill="none" stroke="grey" stroke-width="2" d="M727.34,-368.32C686.27,-357.39 632.72,-343.14 591.32,-332.12"/>
<polygon fill="grey" stroke="grey" stroke-width="2" points="592.17,-328.72 581.61,-329.53 590.37,-335.49 592.17,-328.72"/>
</g>
</g>
</svg>
