<?xml version="1.0" encoding="UTF-8" standalone="no"?>
<!DOCTYPE svg PUBLIC "-//W3C//DTD SVG 1.1//EN"
 "http://www.w3.org/Graphics/SVG/1.1/DTD/svg11.dtd">
<!-- Generated by graphviz version 2.43.0 (0)
 -->
<!-- Pages: 1 -->
<svg width="832pt" height="268pt"
 viewBox="0.00 0.00 832.39 268.00" xmlns="http://www.w3.org/2000/svg" xmlns:xlink="http://www.w3.org/1999/xlink">
<g id="graph0" class="graph" transform="scale(1 1) rotate(0) translate(4 264)">
<polygon fill="white" stroke="transparent" points="-4,4 -4,-264 828.39,-264 828.39,4 -4,4"/>
<g id="clust1" class="cluster">
<title>cluster_0</title>
<polygon fill="white" stroke="blue" points="135.95,-8 135.95,-139 647.95,-139 647.95,-8 135.95,-8"/>
<text text-anchor="middle" x="391.95" y="-123.8" font-family="Times,serif" font-size="14.00">resample_final_to_crop_native</text>
</g>
<!-- 36 -->
<g id="node1" class="node">
<title>36</title>
<path fill="none" stroke="#97d856" stroke-width="2" d="M635.45,-44C635.45,-44 486.45,-44 486.45,-44 480.45,-44 474.45,-38 474.45,-32 474.45,-32 474.45,-20 474.45,-20 474.45,-14 480.45,-8 486.45,-8 486.45,-8 635.45,-8 635.45,-8 641.45,-8 647.45,-14 647.45,-20 647.45,-20 647.45,-32 647.45,-32 647.45,-38 641.45,-44 635.45,-44"/>
<text text-anchor="middle" x="560.95" y="-23.5" font-family="sans" font-size="10.00">resample_subfields_native_crop</text>
</g>
<!-- 39 -->
<g id="node2" class="node">
<title>39</title>
<path fill="none" stroke="#61d856" stroke-width="2" d="M426.95,-116C426.95,-116 322.95,-116 322.95,-116 316.95,-116 310.95,-110 310.95,-104 310.95,-104 310.95,-92 310.95,-92 310.95,-86 316.95,-80 322.95,-80 322.95,-80 426.95,-80 426.95,-80 432.95,-80 438.95,-86 438.95,-92 438.95,-92 438.95,-104 438.95,-104 438.95,-110 432.95,-116 426.95,-116"/>
<text text-anchor="middle" x="374.95" y="-95.5" font-family="sans" font-size="10.00">create_native_crop_ref</text>
</g>
<!-- 39&#45;&gt;36 -->
<g id="edge1" class="edge">
<title>39&#45;&gt;36</title>
<path fill="none" stroke="grey" stroke-width="2" d="M420.45,-79.88C446.33,-70.14 478.91,-57.87 506.19,-47.61"/>
<polygon fill="grey" stroke="grey" stroke-width="2" points="507.47,-50.87 515.59,-44.07 505,-44.31 507.47,-50.87"/>
</g>
<!-- 41 -->
<g id="node3" class="node">
<title>41</title>
<path fill="none" stroke="#d87556" stroke-width="2" d="M443.95,-44C443.95,-44 305.95,-44 305.95,-44 299.95,-44 293.95,-38 293.95,-32 293.95,-32 293.95,-20 293.95,-20 293.95,-14 299.95,-8 305.95,-8 305.95,-8 443.95,-8 443.95,-8 449.95,-8 455.95,-14 455.95,-20 455.95,-20 455.95,-32 455.95,-32 455.95,-38 449.95,-44 443.95,-44"/>
<text text-anchor="middle" x="374.95" y="-23.5" font-family="sans" font-size="10.00">resample_coords_native_crop</text>
</g>
<!-- 39&#45;&gt;41 -->
<g id="edge2" class="edge">
<title>39&#45;&gt;41</title>
<path fill="none" stroke="grey" stroke-width="2" d="M374.95,-79.7C374.95,-71.98 374.95,-62.71 374.95,-54.11"/>
<polygon fill="grey" stroke="grey" stroke-width="2" points="378.45,-54.1 374.95,-44.1 371.45,-54.1 378.45,-54.1"/>
</g>
<!-- 44 -->
<g id="node4" class="node">
<title>44</title>
<path fill="none" stroke="#61d856" stroke-width="2" d="M263.95,-44C263.95,-44 147.95,-44 147.95,-44 141.95,-44 135.95,-38 135.95,-32 135.95,-32 135.95,-20 135.95,-20 135.95,-14 141.95,-8 147.95,-8 147.95,-8 263.95,-8 263.95,-8 269.95,-8 275.95,-14 275.95,-20 275.95,-20 275.95,-32 275.95,-32 275.95,-38 269.95,-44 263.95,-44"/>
<text text-anchor="middle" x="205.95" y="-23.5" font-family="sans" font-size="10.00">resample_native_to_crop</text>
</g>
<!-- 39&#45;&gt;44 -->
<g id="edge3" class="edge">
<title>39&#45;&gt;44</title>
<path fill="none" stroke="grey" stroke-width="2" d="M333.61,-79.88C310.4,-70.26 281.26,-58.19 256.68,-48.01"/>
<polygon fill="grey" stroke="grey" stroke-width="2" points="257.73,-44.66 247.16,-44.07 255.05,-51.13 257.73,-44.66"/>
</g>
<!-- 10 -->
<g id="node5" class="node">
<title>10</title>
<path fill="none" stroke="#c6d856" stroke-width="2" d="M123.95,-116C123.95,-116 31.95,-116 31.95,-116 25.95,-116 19.95,-110 19.95,-104 19.95,-104 19.95,-92 19.95,-92 19.95,-86 25.95,-80 31.95,-80 31.95,-80 123.95,-80 123.95,-80 129.95,-80 135.95,-86 135.95,-92 135.95,-92 135.95,-104 135.95,-104 135.95,-110 129.95,-116 123.95,-116"/>
<text text-anchor="middle" x="77.95" y="-95.5" font-family="sans" font-size="10.00">laplace_coords_hipp</text>
</g>
<!-- 10&#45;&gt;41 -->
<g id="edge4" class="edge">
<title>10&#45;&gt;41</title>
<path fill="none" stroke="grey" stroke-width="2" d="M136.01,-80.99C137.33,-80.66 138.65,-80.32 139.95,-80 187.86,-68.04 241.56,-55.83 285.53,-46.16"/>
<polygon fill="grey" stroke="grey" stroke-width="2" points="286.31,-49.57 295.33,-44.01 284.81,-42.73 286.31,-49.57"/>
</g>
<!-- 16 -->
<g id="node6" class="node">
<title>16</title>
<path fill="none" stroke="#56d86b" stroke-width="2" d="M124.95,-260C124.95,-260 94.95,-260 94.95,-260 88.95,-260 82.95,-254 82.95,-248 82.95,-248 82.95,-236 82.95,-236 82.95,-230 88.95,-224 94.95,-224 94.95,-224 124.95,-224 124.95,-224 130.95,-224 136.95,-230 136.95,-236 136.95,-236 136.95,-248 136.95,-248 136.95,-254 130.95,-260 124.95,-260"/>
<text text-anchor="middle" x="109.95" y="-239.5" font-family="sans" font-size="10.00">n4_t1</text>
</g>
<!-- 16&#45;&gt;44 -->
<g id="edge6" class="edge">
<title>16&#45;&gt;44</title>
<path fill="none" stroke="grey" stroke-width="2" d="M85.41,-223.81C45.19,-193.54 -26.72,-129.27 10.95,-80 25.29,-61.23 78.51,-47.54 125.73,-38.78"/>
<polygon fill="grey" stroke="grey" stroke-width="2" points="126.48,-42.21 135.7,-36.99 125.24,-35.32 126.48,-42.21"/>
</g>
<!-- 40 -->
<g id="node7" class="node">
<title>40</title>
<path fill="none" stroke="#afd856" stroke-width="2" d="M443.95,-188C443.95,-188 305.95,-188 305.95,-188 299.95,-188 293.95,-182 293.95,-176 293.95,-176 293.95,-164 293.95,-164 293.95,-158 299.95,-152 305.95,-152 305.95,-152 443.95,-152 443.95,-152 449.95,-152 455.95,-158 455.95,-164 455.95,-164 455.95,-176 455.95,-176 455.95,-182 449.95,-188 443.95,-188"/>
<text text-anchor="middle" x="374.95" y="-167.5" font-family="sans" font-size="10.00">resample_subfields_to_native</text>
</g>
<!-- 16&#45;&gt;40 -->
<g id="edge5" class="edge">
<title>16&#45;&gt;40</title>
<path fill="none" stroke="grey" stroke-width="2" d="M137.31,-233.77C175.47,-223.69 246.09,-205.04 300.47,-190.67"/>
<polygon fill="grey" stroke="grey" stroke-width="2" points="301.64,-193.98 310.42,-188.05 299.86,-187.22 301.64,-193.98"/>
</g>
<!-- 40&#45;&gt;39 -->
<g id="edge13" class="edge">
<title>40&#45;&gt;39</title>
<path fill="none" stroke="grey" stroke-width="2" d="M374.95,-151.7C374.95,-143.98 374.95,-134.71 374.95,-126.11"/>
<polygon fill="grey" stroke="grey" stroke-width="2" points="378.45,-126.1 374.95,-116.1 371.45,-126.1 378.45,-126.1"/>
</g>
<!-- 18 -->
<g id="node8" class="node">
<title>18</title>
<path fill="none" stroke="#56d87b" stroke-width="2" d="M653.95,-260C653.95,-260 507.95,-260 507.95,-260 501.95,-260 495.95,-254 495.95,-248 495.95,-248 495.95,-236 495.95,-236 495.95,-230 501.95,-224 507.95,-224 507.95,-224 653.95,-224 653.95,-224 659.95,-224 665.95,-230 665.95,-236 665.95,-236 665.95,-248 665.95,-248 665.95,-254 659.95,-260 653.95,-260"/>
<text text-anchor="middle" x="580.95" y="-239.5" font-family="sans" font-size="10.00">compose_template_xfm_corobl</text>
</g>
<!-- 18&#45;&gt;36 -->
<g id="edge7" class="edge">
<title>18&#45;&gt;36</title>
<path fill="none" stroke="grey" stroke-width="2" d="M666.01,-231.49C720.81,-223.41 784.91,-209.61 801.95,-188 831.67,-150.31 832.02,-117.41 801.95,-80 783.65,-57.24 716.46,-43.69 657.67,-35.99"/>
<polygon fill="grey" stroke="grey" stroke-width="2" points="657.92,-32.5 647.56,-34.71 657.04,-39.44 657.92,-32.5"/>
</g>
<!-- 18&#45;&gt;41 -->
<g id="edge9" class="edge">
<title>18&#45;&gt;41</title>
<path fill="none" stroke="grey" stroke-width="2" d="M569,-223.82C547.1,-193 498.15,-127.16 447.95,-80 436.45,-69.2 422.69,-58.69 410.24,-49.91"/>
<polygon fill="grey" stroke="grey" stroke-width="2" points="412.09,-46.94 401.87,-44.14 408.11,-52.7 412.09,-46.94"/>
</g>
<!-- 18&#45;&gt;40 -->
<g id="edge8" class="edge">
<title>18&#45;&gt;40</title>
<path fill="none" stroke="grey" stroke-width="2" d="M530.82,-223.97C501.91,-214.14 465.38,-201.73 434.95,-191.39"/>
<polygon fill="grey" stroke="grey" stroke-width="2" points="435.9,-188.01 425.3,-188.11 433.64,-194.64 435.9,-188.01"/>
</g>
<!-- 24 -->
<g id="node9" class="node">
<title>24</title>
<path fill="none" stroke="#bed856" stroke-width="2" d="M747.95,-116C747.95,-116 659.95,-116 659.95,-116 653.95,-116 647.95,-110 647.95,-104 647.95,-104 647.95,-92 647.95,-92 647.95,-86 653.95,-80 659.95,-80 659.95,-80 747.95,-80 747.95,-80 753.95,-80 759.95,-86 759.95,-92 759.95,-92 759.95,-104 759.95,-104 759.95,-110 753.95,-116 747.95,-116"/>
<text text-anchor="middle" x="703.95" y="-95.5" font-family="sans" font-size="10.00">equivolume_coords</text>
</g>
<!-- 24&#45;&gt;41 -->
<g id="edge10" class="edge">
<title>24&#45;&gt;41</title>
<path fill="none" stroke="grey" stroke-width="2" d="M647.77,-80.93C646.49,-80.61 645.21,-80.3 643.95,-80 610.77,-72.05 530.42,-56.39 466.12,-44.14"/>
<polygon fill="grey" stroke="grey" stroke-width="2" points="466.43,-40.64 455.95,-42.21 465.12,-47.51 466.43,-40.64"/>
</g>
<!-- 37 -->
<g id="node10" class="node">
<title>37</title>
<path fill="none" stroke="#ced856" stroke-width="2" d="M465.95,-260C465.95,-260 283.95,-260 283.95,-260 277.95,-260 271.95,-254 271.95,-248 271.95,-248 271.95,-236 271.95,-236 271.95,-230 277.95,-224 283.95,-224 283.95,-224 465.95,-224 465.95,-224 471.95,-224 477.95,-230 477.95,-236 477.95,-236 477.95,-248 477.95,-248 477.95,-254 471.95,-260 465.95,-260"/>
<text text-anchor="middle" x="374.95" y="-239.5" font-family="sans" font-size="10.00">combine_tissue_subfield_labels_corobl</text>
</g>
<!-- 37&#45;&gt;36 -->
<g id="edge11" class="edge">
<title>37&#45;&gt;36</title>
<path fill="none" stroke="grey" stroke-width="2" d="M463.58,-223.98C573.87,-201.91 750.08,-163.37 768.95,-139 785,-118.26 785.04,-100.7 768.95,-80 754.67,-61.63 704.83,-48.57 657.53,-40.01"/>
<polygon fill="grey" stroke="grey" stroke-width="2" points="657.94,-36.53 647.48,-38.25 656.73,-43.43 657.94,-36.53"/>
</g>
<!-- 37&#45;&gt;40 -->
<g id="edge12" class="edge">
<title>37&#45;&gt;40</title>
<path fill="none" stroke="grey" stroke-width="2" d="M374.95,-223.7C374.95,-215.98 374.95,-206.71 374.95,-198.11"/>
<polygon fill="grey" stroke="grey" stroke-width="2" points="378.45,-198.1 374.95,-188.1 371.45,-198.1 378.45,-198.1"/>
</g>
</g>
</svg>
