<?xml version="1.0" encoding="UTF-8" standalone="no"?>
<!DOCTYPE svg PUBLIC "-//W3C//DTD SVG 1.1//EN"
 "http://www.w3.org/Graphics/SVG/1.1/DTD/svg11.dtd">
<!-- Generated by graphviz version 2.43.0 (0)
 -->
<!-- Pages: 1 -->
<svg width="544pt" height="340pt"
 viewBox="0.00 0.00 544.00 340.00" xmlns="http://www.w3.org/2000/svg" xmlns:xlink="http://www.w3.org/1999/xlink">
<g id="graph0" class="graph" transform="scale(1 1) rotate(0) translate(4 336)">
<polygon fill="white" stroke="transparent" points="-4,4 -4,-336 540,-336 540,4 -4,4"/>
<g id="clust1" class="cluster">
<title>cluster_0</title>
<polygon fill="white" stroke="blue" points="138,-8 138,-211 350,-211 350,-8 138,-8"/>
<text text-anchor="middle" x="244" y="-195.8" font-family="Times,serif" font-size="14.00">subfields</text>
</g>
<!-- 37 -->
<g id="node1" class="node">
<title>37</title>
<path fill="none" stroke="#ced856" stroke-width="2" d="M336,-116C336,-116 154,-116 154,-116 148,-116 142,-110 142,-104 142,-104 142,-92 142,-92 142,-86 148,-80 154,-80 154,-80 336,-80 336,-80 342,-80 348,-86 348,-92 348,-92 348,-104 348,-104 348,-110 342,-116 336,-116"/>
<text text-anchor="middle" x="245" y="-95.5" font-family="sans" font-size="10.00">combine_tissue_subfield_labels_corobl</text>
</g>
<!-- 40 -->
<g id="node2" class="node">
<title>40</title>
<path fill="none" stroke="#afd856" stroke-width="2" d="M314,-44C314,-44 176,-44 176,-44 170,-44 164,-38 164,-32 164,-32 164,-20 164,-20 164,-14 170,-8 176,-8 176,-8 314,-8 314,-8 320,-8 326,-14 326,-20 326,-20 326,-32 326,-32 326,-38 320,-44 314,-44"/>
<text text-anchor="middle" x="245" y="-23.5" font-family="sans" font-size="10.00">resample_subfields_to_native</text>
</g>
<!-- 37&#45;&gt;40 -->
<g id="edge1" class="edge">
<title>37&#45;&gt;40</title>
<path fill="none" stroke="grey" stroke-width="2" d="M245,-79.7C245,-71.98 245,-62.71 245,-54.11"/>
<polygon fill="grey" stroke="grey" stroke-width="2" points="248.5,-54.1 245,-44.1 241.5,-54.1 248.5,-54.1"/>
</g>
<!-- 38 -->
<g id="node3" class="node">
<title>38</title>
<path fill="none" stroke="#5692d8" stroke-width="2" d="M337.5,-188C337.5,-188 150.5,-188 150.5,-188 144.5,-188 138.5,-182 138.5,-176 138.5,-176 138.5,-164 138.5,-164 138.5,-158 144.5,-152 150.5,-152 150.5,-152 337.5,-152 337.5,-152 343.5,-152 349.5,-158 349.5,-164 349.5,-164 349.5,-176 349.5,-176 349.5,-182 343.5,-188 337.5,-188"/>
<text text-anchor="middle" x="244" y="-167.5" font-family="sans" font-size="10.00">label_subfields_from_vol_coords_corobl</text>
</g>
<!-- 38&#45;&gt;37 -->
<g id="edge2" class="edge">
<title>38&#45;&gt;37</title>
<path fill="none" stroke="grey" stroke-width="2" d="M244.25,-151.7C244.36,-143.98 244.49,-134.71 244.61,-126.11"/>
<polygon fill="grey" stroke="grey" stroke-width="2" points="248.11,-126.15 244.76,-116.1 241.11,-126.05 248.11,-126.15"/>
</g>
<!-- 10 -->
<g id="node4" class="node">
<title>10</title>
<path fill="none" stroke="#c6d856" stroke-width="2" d="M104,-260C104,-260 12,-260 12,-260 6,-260 0,-254 0,-248 0,-248 0,-236 0,-236 0,-230 6,-224 12,-224 12,-224 104,-224 104,-224 110,-224 116,-230 116,-236 116,-236 116,-248 116,-248 116,-254 110,-260 104,-260"/>
<text text-anchor="middle" x="58" y="-239.5" font-family="sans" font-size="10.00">laplace_coords_hipp</text>
</g>
<!-- 10&#45;&gt;38 -->
<g id="edge3" class="edge">
<title>10&#45;&gt;38</title>
<path fill="none" stroke="grey" stroke-width="2" d="M103.5,-223.88C129.38,-214.14 161.97,-201.87 189.24,-191.61"/>
<polygon fill="grey" stroke="grey" stroke-width="2" points="190.52,-194.87 198.65,-188.07 188.06,-188.31 190.52,-194.87"/>
</g>
<!-- 11 -->
<g id="node5" class="node">
<title>11</title>
<path fill="none" stroke="#59d856" stroke-width="2" d="M297.5,-332C297.5,-332 192.5,-332 192.5,-332 186.5,-332 180.5,-326 180.5,-320 180.5,-320 180.5,-308 180.5,-308 180.5,-302 186.5,-296 192.5,-296 192.5,-296 297.5,-296 297.5,-296 303.5,-296 309.5,-302 309.5,-308 309.5,-308 309.5,-320 309.5,-320 309.5,-326 303.5,-332 297.5,-332"/>
<text text-anchor="middle" x="245" y="-311.5" font-family="sans" font-size="10.00">reinsert_subject_labels</text>
</g>
<!-- 11&#45;&gt;37 -->
<g id="edge5" class="edge">
<title>11&#45;&gt;37</title>
<path fill="none" stroke="grey" stroke-width="2" d="M309.53,-310.48C346.21,-305.33 389.4,-292.19 413,-260 444.73,-216.72 400.69,-185.8 359,-152 342.9,-138.95 323.06,-128.29 304.47,-120.04"/>
<polygon fill="grey" stroke="grey" stroke-width="2" points="305.75,-116.78 295.18,-116.06 302.99,-123.21 305.75,-116.78"/>
</g>
<!-- 11&#45;&gt;10 -->
<g id="edge4" class="edge">
<title>11&#45;&gt;10</title>
<path fill="none" stroke="grey" stroke-width="2" d="M199.25,-295.88C173.24,-286.14 140.47,-273.87 113.05,-263.61"/>
<polygon fill="grey" stroke="grey" stroke-width="2" points="114.19,-260.3 103.6,-260.07 111.74,-266.85 114.19,-260.3"/>
</g>
<!-- 16 -->
<g id="node6" class="node">
<title>16</title>
<path fill="none" stroke="#56d86b" stroke-width="2" d="M112,-116C112,-116 82,-116 82,-116 76,-116 70,-110 70,-104 70,-104 70,-92 70,-92 70,-86 76,-80 82,-80 82,-80 112,-80 112,-80 118,-80 124,-86 124,-92 124,-92 124,-104 124,-104 124,-110 118,-116 112,-116"/>
<text text-anchor="middle" x="97" y="-95.5" font-family="sans" font-size="10.00">n4_t1</text>
</g>
<!-- 16&#45;&gt;40 -->
<g id="edge6" class="edge">
<title>16&#45;&gt;40</title>
<path fill="none" stroke="grey" stroke-width="2" d="M124.15,-84.16C145.23,-74.19 174.95,-60.13 199.63,-48.46"/>
<polygon fill="grey" stroke="grey" stroke-width="2" points="201.28,-51.55 208.82,-44.11 198.29,-45.22 201.28,-51.55"/>
</g>
<!-- 18 -->
<g id="node7" class="node">
<title>18</title>
<path fill="none" stroke="#56d87b" stroke-width="2" d="M524,-116C524,-116 378,-116 378,-116 372,-116 366,-110 366,-104 366,-104 366,-92 366,-92 366,-86 372,-80 378,-80 378,-80 524,-80 524,-80 530,-80 536,-86 536,-92 536,-92 536,-104 536,-104 536,-110 530,-116 524,-116"/>
<text text-anchor="middle" x="451" y="-95.5" font-family="sans" font-size="10.00">compose_template_xfm_corobl</text>
</g>
<!-- 18&#45;&gt;40 -->
<g id="edge7" class="edge">
<title>18&#45;&gt;40</title>
<path fill="none" stroke="grey" stroke-width="2" d="M400.87,-79.97C371.96,-70.14 335.43,-57.73 305,-47.39"/>
<polygon fill="grey" stroke="grey" stroke-width="2" points="305.95,-44.01 295.35,-44.11 303.7,-50.64 305.95,-44.01"/>
</g>
<!-- 24 -->
<g id="node8" class="node">
<title>24</title>
<path fill="none" stroke="#bed856" stroke-width="2" d="M234,-260C234,-260 146,-260 146,-260 140,-260 134,-254 134,-248 134,-248 134,-236 134,-236 134,-230 140,-224 146,-224 146,-224 234,-224 234,-224 240,-224 246,-230 246,-236 246,-236 246,-248 246,-248 246,-254 240,-260 234,-260"/>
<text text-anchor="middle" x="190" y="-239.5" font-family="sans" font-size="10.00">equivolume_coords</text>
</g>
<!-- 24&#45;&gt;38 -->
<g id="edge8" class="edge">
<title>24&#45;&gt;38</title>
<path fill="none" stroke="grey" stroke-width="2" d="M203.35,-223.7C209.76,-215.39 217.56,-205.28 224.61,-196.14"/>
<polygon fill="grey" stroke="grey" stroke-width="2" points="227.47,-198.16 230.81,-188.1 221.93,-193.88 227.47,-198.16"/>
</g>
<!-- 34 -->
<g id="node9" class="node">
<title>34</title>
<path fill="none" stroke="#9fd856" stroke-width="2" d="M392,-260C392,-260 276,-260 276,-260 270,-260 264,-254 264,-248 264,-248 264,-236 264,-236 264,-230 270,-224 276,-224 276,-224 392,-224 392,-224 398,-224 404,-230 404,-236 404,-236 404,-248 404,-248 404,-254 398,-260 392,-260"/>
<text text-anchor="middle" x="334" y="-239.5" font-family="sans" font-size="10.00">resample_atlas_to_refvol</text>
</g>
<!-- 34&#45;&gt;38 -->
<g id="edge9" class="edge">
<title>34&#45;&gt;38</title>
<path fill="none" stroke="grey" stroke-width="2" d="M311.75,-223.7C300.42,-214.88 286.47,-204.03 274.18,-194.47"/>
<polygon fill="grey" stroke="grey" stroke-width="2" points="276.03,-191.48 265.99,-188.1 271.74,-197.01 276.03,-191.48"/>
</g>
</g>
</svg>
