<?xml version="1.0" encoding="UTF-8" standalone="no"?>
<!DOCTYPE svg PUBLIC "-//W3C//DTD SVG 1.1//EN"
 "http://www.w3.org/Graphics/SVG/1.1/DTD/svg11.dtd">
<!-- Generated by graphviz version 2.43.0 (0)
 -->
<!-- Pages: 1 -->
<svg width="756pt" height="299pt"
 viewBox="0.00 0.00 756.00 299.00" xmlns="http://www.w3.org/2000/svg" xmlns:xlink="http://www.w3.org/1999/xlink">
<g id="graph0" class="graph" transform="scale(1 1) rotate(0) translate(4 295)">
<polygon fill="white" stroke="transparent" points="-4,4 -4,-295 752,-295 752,4 -4,4"/>
<g id="clust1" class="cluster">
<title>cluster_0</title>
<polygon fill="white" stroke="blue" points="170,-8 170,-283 580,-283 580,-8 170,-8"/>
<text text-anchor="middle" x="375" y="-267.8" font-family="Times,serif" font-size="14.00">warps</text>
</g>
<!-- 7 -->
<g id="node1" class="node">
<title>7</title>
<path fill="none" stroke="#68d856" stroke-width="2" d="M517,-116C517,-116 433,-116 433,-116 427,-116 421,-110 421,-104 421,-104 421,-92 421,-92 421,-86 427,-80 433,-80 433,-80 517,-80 517,-80 523,-80 529,-86 529,-92 529,-92 529,-104 529,-104 529,-110 523,-116 517,-116"/>
<text text-anchor="middle" x="475" y="-95.5" font-family="sans" font-size="10.00">create_warps_hipp</text>
</g>
<!-- 42 -->
<g id="node2" class="node">
<title>42</title>
<path fill="none" stroke="#5673d8" stroke-width="2" d="M340,-44C340,-44 182,-44 182,-44 176,-44 170,-38 170,-32 170,-32 170,-20 170,-20 170,-14 176,-8 182,-8 182,-8 340,-8 340,-8 346,-8 352,-14 352,-20 352,-20 352,-32 352,-32 352,-38 346,-44 340,-44"/>
<text text-anchor="middle" x="261" y="-23.5" font-family="sans" font-size="10.00">compose_warps_native_to_unfold</text>
</g>
<!-- 7&#45;&gt;42 -->
<g id="edge1" class="edge">
<title>7&#45;&gt;42</title>
<path fill="none" stroke="grey" stroke-width="2" d="M422.92,-79.97C392.76,-70.1 354.61,-57.62 322.92,-47.25"/>
<polygon fill="grey" stroke="grey" stroke-width="2" points="323.9,-43.89 313.31,-44.11 321.73,-50.55 323.9,-43.89"/>
</g>
<!-- 43 -->
<g id="node3" class="node">
<title>43</title>
<path fill="none" stroke="#56d0d8" stroke-width="2" d="M567.5,-44C567.5,-44 382.5,-44 382.5,-44 376.5,-44 370.5,-38 370.5,-32 370.5,-32 370.5,-20 370.5,-20 370.5,-14 376.5,-8 382.5,-8 382.5,-8 567.5,-8 567.5,-8 573.5,-8 579.5,-14 579.5,-20 579.5,-20 579.5,-32 579.5,-32 579.5,-38 573.5,-44 567.5,-44"/>
<text text-anchor="middle" x="475" y="-23.5" font-family="sans" font-size="10.00">compose_warps_unfold_to_crop_native</text>
</g>
<!-- 7&#45;&gt;43 -->
<g id="edge2" class="edge">
<title>7&#45;&gt;43</title>
<path fill="none" stroke="grey" stroke-width="2" d="M475,-79.7C475,-71.98 475,-62.71 475,-54.11"/>
<polygon fill="grey" stroke="grey" stroke-width="2" points="478.5,-54.1 475,-44.1 471.5,-54.1 478.5,-54.1"/>
</g>
<!-- 8 -->
<g id="node4" class="node">
<title>8</title>
<path fill="none" stroke="#d85e56" stroke-width="2" d="M329,-260C329,-260 251,-260 251,-260 245,-260 239,-254 239,-248 239,-248 239,-236 239,-236 239,-230 245,-224 251,-224 251,-224 329,-224 329,-224 335,-224 341,-230 341,-236 341,-236 341,-248 341,-248 341,-254 335,-260 329,-260"/>
<text text-anchor="middle" x="290" y="-239.5" font-family="sans" font-size="10.00">create_unfold_ref</text>
</g>
<!-- 8&#45;&gt;7 -->
<g id="edge3" class="edge">
<title>8&#45;&gt;7</title>
<path fill="none" stroke="grey" stroke-width="2" d="M341.04,-228.3C366.14,-220.06 395.54,-207.19 417,-188 430.64,-175.8 427.21,-167.46 437,-152 442.82,-142.82 449.61,-133.07 455.84,-124.47"/>
<polygon fill="grey" stroke="grey" stroke-width="2" points="458.73,-126.45 461.82,-116.32 453.08,-122.31 458.73,-126.45"/>
</g>
<!-- 8&#45;&gt;42 -->
<g id="edge5" class="edge">
<title>8&#45;&gt;42</title>
<path fill="none" stroke="grey" stroke-width="2" d="M267.4,-223.96C256.94,-214.63 245.6,-202.11 240,-188 222.28,-143.39 231,-127.15 240,-80 241.71,-71.06 244.9,-61.7 248.29,-53.37"/>
<polygon fill="grey" stroke="grey" stroke-width="2" points="251.51,-54.73 252.28,-44.17 245.09,-51.95 251.51,-54.73"/>
</g>
<!-- 8&#45;&gt;43 -->
<g id="edge6" class="edge">
<title>8&#45;&gt;43</title>
<path fill="none" stroke="grey" stroke-width="2" d="M274.71,-223.87C260.16,-205.39 242.38,-175.46 256,-152 287.13,-98.38 350.84,-65.83 401.56,-47.45"/>
<polygon fill="grey" stroke="grey" stroke-width="2" points="402.91,-50.69 411.19,-44.07 400.6,-44.08 402.91,-50.69"/>
</g>
<!-- 9 -->
<g id="node5" class="node">
<title>9</title>
<path fill="none" stroke="#d8d356" stroke-width="2" d="M395.5,-188C395.5,-188 276.5,-188 276.5,-188 270.5,-188 264.5,-182 264.5,-176 264.5,-176 264.5,-164 264.5,-164 264.5,-158 270.5,-152 276.5,-152 276.5,-152 395.5,-152 395.5,-152 401.5,-152 407.5,-158 407.5,-164 407.5,-164 407.5,-176 407.5,-176 407.5,-182 401.5,-188 395.5,-188"/>
<text text-anchor="middle" x="336" y="-167.5" font-family="sans" font-size="10.00">create_unfold_coord_map</text>
</g>
<!-- 8&#45;&gt;9 -->
<g id="edge4" class="edge">
<title>8&#45;&gt;9</title>
<path fill="none" stroke="grey" stroke-width="2" d="M301.37,-223.7C306.72,-215.56 313.2,-205.69 319.11,-196.7"/>
<polygon fill="grey" stroke="grey" stroke-width="2" points="322.19,-198.38 324.76,-188.1 316.34,-194.54 322.19,-198.38"/>
</g>
<!-- 9&#45;&gt;7 -->
<g id="edge7" class="edge">
<title>9&#45;&gt;7</title>
<path fill="none" stroke="grey" stroke-width="2" d="M370,-151.88C388.6,-142.51 411.83,-130.81 431.71,-120.8"/>
<polygon fill="grey" stroke="grey" stroke-width="2" points="433.51,-123.81 440.87,-116.19 430.36,-117.56 433.51,-123.81"/>
</g>
<!-- 26 -->
<g id="node6" class="node">
<title>26</title>
<path fill="none" stroke="#d87d56" stroke-width="2" d="M568,-188C568,-188 458,-188 458,-188 452,-188 446,-182 446,-176 446,-176 446,-164 446,-164 446,-158 452,-152 458,-152 458,-152 568,-152 568,-152 574,-152 580,-158 580,-164 580,-164 580,-176 580,-176 580,-182 574,-188 568,-188"/>
<text text-anchor="middle" x="513" y="-167.5" font-family="sans" font-size="10.00">create_native_coord_ref</text>
</g>
<!-- 26&#45;&gt;7 -->
<g id="edge8" class="edge">
<title>26&#45;&gt;7</title>
<path fill="none" stroke="grey" stroke-width="2" d="M503.61,-151.7C499.24,-143.64 493.94,-133.89 489.1,-124.98"/>
<polygon fill="grey" stroke="grey" stroke-width="2" points="492.13,-123.22 484.29,-116.1 485.98,-126.56 492.13,-123.22"/>
</g>
<!-- 10 -->
<g id="node7" class="node">
<title>10</title>
<path fill="none" stroke="#c6d856" stroke-width="2" d="M684,-260C684,-260 592,-260 592,-260 586,-260 580,-254 580,-248 580,-248 580,-236 580,-236 580,-230 586,-224 592,-224 592,-224 684,-224 684,-224 690,-224 696,-230 696,-236 696,-236 696,-248 696,-248 696,-254 690,-260 684,-260"/>
<text text-anchor="middle" x="638" y="-239.5" font-family="sans" font-size="10.00">laplace_coords_hipp</text>
</g>
<!-- 10&#45;&gt;7 -->
<g id="edge9" class="edge">
<title>10&#45;&gt;7</title>
<path fill="none" stroke="grey" stroke-width="2" d="M632.29,-223.85C624.99,-204.24 610.65,-172.23 589,-152 574.6,-138.55 556.19,-128 538.37,-119.97"/>
<polygon fill="grey" stroke="grey" stroke-width="2" points="539.71,-116.73 529.14,-116 536.94,-123.16 539.71,-116.73"/>
</g>
<!-- 10&#45;&gt;26 -->
<g id="edge10" class="edge">
<title>10&#45;&gt;26</title>
<path fill="none" stroke="grey" stroke-width="2" d="M607.42,-223.88C590.93,-214.64 570.38,-203.13 552.66,-193.21"/>
<polygon fill="grey" stroke="grey" stroke-width="2" points="554.13,-190.02 543.7,-188.19 550.71,-196.13 554.13,-190.02"/>
</g>
<!-- 18 -->
<g id="node8" class="node">
<title>18</title>
<path fill="none" stroke="#56d87b" stroke-width="2" d="M158,-116C158,-116 12,-116 12,-116 6,-116 0,-110 0,-104 0,-104 0,-92 0,-92 0,-86 6,-80 12,-80 12,-80 158,-80 158,-80 164,-80 170,-86 170,-92 170,-92 170,-104 170,-104 170,-110 164,-116 158,-116"/>
<text text-anchor="middle" x="85" y="-95.5" font-family="sans" font-size="10.00">compose_template_xfm_corobl</text>
</g>
<!-- 18&#45;&gt;42 -->
<g id="edge11" class="edge">
<title>18&#45;&gt;42</title>
<path fill="none" stroke="grey" stroke-width="2" d="M128.05,-79.88C152.33,-70.22 182.84,-58.09 208.51,-47.88"/>
<polygon fill="grey" stroke="grey" stroke-width="2" points="210.09,-51.02 218.09,-44.07 207.5,-44.51 210.09,-51.02"/>
</g>
<!-- 18&#45;&gt;43 -->
<g id="edge12" class="edge">
<title>18&#45;&gt;43</title>
<path fill="none" stroke="grey" stroke-width="2" d="M170.26,-80.69C171.51,-80.46 172.76,-80.23 174,-80 237.63,-68.32 308.93,-55.74 366.16,-45.77"/>
<polygon fill="grey" stroke="grey" stroke-width="2" points="367.06,-49.17 376.31,-44.01 365.86,-42.27 367.06,-49.17"/>
</g>
<!-- 24 -->
<g id="node9" class="node">
<title>24</title>
<path fill="none" stroke="#bed856" stroke-width="2" d="M736,-188C736,-188 648,-188 648,-188 642,-188 636,-182 636,-176 636,-176 636,-164 636,-164 636,-158 642,-152 648,-152 648,-152 736,-152 736,-152 742,-152 748,-158 748,-164 748,-164 748,-176 748,-176 748,-182 742,-188 736,-188"/>
<text text-anchor="middle" x="692" y="-167.5" font-family="sans" font-size="10.00">equivolume_coords</text>
</g>
<!-- 24&#45;&gt;7 -->
<g id="edge13" class="edge">
<title>24&#45;&gt;7</title>
<path fill="none" stroke="grey" stroke-width="2" d="M639.19,-151.97C608.61,-142.1 569.93,-129.62 537.79,-119.25"/>
<polygon fill="grey" stroke="grey" stroke-width="2" points="538.64,-115.85 528.04,-116.11 536.49,-122.51 538.64,-115.85"/>
</g>
<!-- 39 -->
<g id="node10" class="node">
<title>39</title>
<path fill="none" stroke="#61d856" stroke-width="2" d="M696,-116C696,-116 592,-116 592,-116 586,-116 580,-110 580,-104 580,-104 580,-92 580,-92 580,-86 586,-80 592,-80 592,-80 696,-80 696,-80 702,-80 708,-86 708,-92 708,-92 708,-104 708,-104 708,-110 702,-116 696,-116"/>
<text text-anchor="middle" x="644" y="-95.5" font-family="sans" font-size="10.00">create_native_crop_ref</text>
</g>
<!-- 39&#45;&gt;43 -->
<g id="edge14" class="edge">
<title>39&#45;&gt;43</title>
<path fill="none" stroke="grey" stroke-width="2" d="M602.66,-79.88C579.45,-70.26 550.31,-58.19 525.73,-48.01"/>
<polygon fill="grey" stroke="grey" stroke-width="2" points="526.79,-44.66 516.21,-44.07 524.11,-51.13 526.79,-44.66"/>
</g>
</g>
</svg>
