<?xml version="1.0" encoding="UTF-8" standalone="no"?>
<!DOCTYPE svg PUBLIC "-//W3C//DTD SVG 1.1//EN"
 "http://www.w3.org/Graphics/SVG/1.1/DTD/svg11.dtd">
<!-- Generated by graphviz version 2.43.0 (0)
 -->
<!-- Pages: 1 -->
<svg width="161pt" height="268pt"
 viewBox="0.00 0.00 161.00 268.00" xmlns="http://www.w3.org/2000/svg" xmlns:xlink="http://www.w3.org/1999/xlink">
<g id="graph0" class="graph" transform="scale(1 1) rotate(0) translate(4 264)">
<polygon fill="white" stroke="transparent" points="-4,4 -4,-264 157,-264 157,4 -4,4"/>
<g id="clust1" class="cluster">
<title>cluster_0</title>
<polygon fill="white" stroke="blue" points="8,-8 8,-211 100,-211 100,-8 8,-8"/>
<text text-anchor="middle" x="54" y="-195.8" font-family="Times,serif" font-size="14.00">nnunet</text>
</g>
<!-- 14 -->
<g id="node1" class="node">
<title>14</title>
<path fill="none" stroke="#d87556" stroke-width="2" d="M81.5,-188C81.5,-188 22.5,-188 22.5,-188 16.5,-188 10.5,-182 10.5,-176 10.5,-176 10.5,-164 10.5,-164 10.5,-158 16.5,-152 22.5,-152 22.5,-152 81.5,-152 81.5,-152 87.5,-152 93.5,-158 93.5,-164 93.5,-164 93.5,-176 93.5,-176 93.5,-182 87.5,-188 81.5,-188"/>
<text text-anchor="middle" x="52" y="-167.5" font-family="sans" font-size="10.00">run_inference</text>
</g>
<!-- 52 -->
<g id="node2" class="node">
<title>52</title>
<path fill="none" stroke="#5682d8" stroke-width="2" d="M86,-116C86,-116 22,-116 22,-116 16,-116 10,-110 10,-104 10,-104 10,-92 10,-92 10,-86 16,-80 22,-80 22,-80 86,-80 86,-80 92,-80 98,-86 98,-92 98,-92 98,-104 98,-104 98,-110 92,-116 86,-116"/>
<text text-anchor="middle" x="54" y="-95.5" font-family="sans" font-size="10.00">qc_nnunet_f3d</text>
</g>
<!-- 14&#45;&gt;52 -->
<g id="edge1" class="edge">
<title>14&#45;&gt;52</title>
<path fill="none" stroke="grey" stroke-width="2" d="M52.49,-151.7C52.71,-143.98 52.98,-134.71 53.23,-126.11"/>
<polygon fill="grey" stroke="grey" stroke-width="2" points="56.72,-126.2 53.51,-116.1 49.73,-126 56.72,-126.2"/>
</g>
<!-- 51 -->
<g id="node3" class="node">
<title>51</title>
<path fill="none" stroke="#8fd856" stroke-width="2" d="M88,-44C88,-44 20,-44 20,-44 14,-44 8,-38 8,-32 8,-32 8,-20 8,-20 8,-14 14,-8 20,-8 20,-8 88,-8 88,-8 94,-8 100,-14 100,-20 100,-20 100,-32 100,-32 100,-38 94,-44 88,-44"/>
<text text-anchor="middle" x="54" y="-23.5" font-family="sans" font-size="10.00">qc_nnunet_dice</text>
</g>
<!-- 52&#45;&gt;51 -->
<g id="edge2" class="edge">
<title>52&#45;&gt;51</title>
<path fill="none" stroke="grey" stroke-width="2" d="M54,-79.7C54,-71.98 54,-62.71 54,-54.11"/>
<polygon fill="grey" stroke="grey" stroke-width="2" points="57.5,-54.1 54,-44.1 50.5,-54.1 57.5,-54.1"/>
</g>
<!-- 15 -->
<g id="node4" class="node">
<title>15</title>
<path fill="none" stroke="#56d8d8" stroke-width="2" d="M141,-260C141,-260 33,-260 33,-260 27,-260 21,-254 21,-248 21,-248 21,-236 21,-236 21,-230 27,-224 33,-224 33,-224 141,-224 141,-224 147,-224 153,-230 153,-236 153,-236 153,-248 153,-248 153,-254 147,-260 141,-260"/>
<text text-anchor="middle" x="87" y="-239.5" font-family="sans" font-size="10.00">warp_t1_to_corobl_crop</text>
</g>
<!-- 15&#45;&gt;14 -->
<g id="edge3" class="edge">
<title>15&#45;&gt;14</title>
<path fill="none" stroke="grey" stroke-width="2" d="M78.35,-223.7C74.36,-215.73 69.55,-206.1 65.13,-197.26"/>
<polygon fill="grey" stroke="grey" stroke-width="2" points="68.15,-195.48 60.55,-188.1 61.89,-198.61 68.15,-195.48"/>
</g>
<!-- 15&#45;&gt;52 -->
<g id="edge4" class="edge">
<title>15&#45;&gt;52</title>
<path fill="none" stroke="grey" stroke-width="2" d="M97.99,-223.82C100.06,-219.76 101.91,-215.35 103,-211 109.36,-185.56 112.56,-176.42 103,-152 98.8,-141.28 91.31,-131.43 83.42,-123.2"/>
<polygon fill="grey" stroke="grey" stroke-width="2" points="85.76,-120.59 76.15,-116.13 80.88,-125.61 85.76,-120.59"/>
</g>
</g>
</svg>
