<?xml version="1.0" encoding="UTF-8" standalone="no"?>
<!DOCTYPE svg PUBLIC "-//W3C//DTD SVG 1.1//EN"
 "http://www.w3.org/Graphics/SVG/1.1/DTD/svg11.dtd">
<!-- Generated by graphviz version 2.43.0 (0)
 -->
<!-- Pages: 1 -->
<svg width="390pt" height="371pt"
 viewBox="0.00 0.00 389.50 371.00" xmlns="http://www.w3.org/2000/svg" xmlns:xlink="http://www.w3.org/1999/xlink">
<g id="graph0" class="graph" transform="scale(1 1) rotate(0) translate(4 367)">
<polygon fill="white" stroke="transparent" points="-4,4 -4,-367 385.5,-367 385.5,4 -4,4"/>
<g id="clust1" class="cluster">
<title>cluster_0</title>
<polygon fill="white" stroke="blue" points="8,-8 8,-355 298,-355 298,-8 8,-8"/>
<text text-anchor="middle" x="153" y="-339.8" font-family="Times,serif" font-size="14.00">shape_inject</text>
</g>
<!-- 11 -->
<g id="node1" class="node">
<title>11</title>
<path fill="none" stroke="#59d856" stroke-width="2" d="M205.5,-44C205.5,-44 100.5,-44 100.5,-44 94.5,-44 88.5,-38 88.5,-32 88.5,-32 88.5,-20 88.5,-20 88.5,-14 94.5,-8 100.5,-8 100.5,-8 205.5,-8 205.5,-8 211.5,-8 217.5,-14 217.5,-20 217.5,-20 217.5,-32 217.5,-32 217.5,-38 211.5,-44 205.5,-44"/>
<text text-anchor="middle" x="153" y="-23.5" font-family="sans" font-size="10.00">reinsert_subject_labels</text>
</g>
<!-- 12 -->
<g id="node2" class="node">
<title>12</title>
<path fill="none" stroke="#d8c356" stroke-width="2" d="M124,-116C124,-116 20,-116 20,-116 14,-116 8,-110 8,-104 8,-104 8,-92 8,-92 8,-86 14,-80 20,-80 20,-80 124,-80 124,-80 130,-80 136,-86 136,-92 136,-92 136,-104 136,-104 136,-110 130,-116 124,-116"/>
<text text-anchor="middle" x="72" y="-95.5" font-family="sans" font-size="10.00">template_shape_inject</text>
</g>
<!-- 12&#45;&gt;11 -->
<g id="edge1" class="edge">
<title>12&#45;&gt;11</title>
<path fill="none" stroke="grey" stroke-width="2" d="M92.02,-79.7C102.13,-70.97 114.54,-60.24 125.52,-50.75"/>
<polygon fill="grey" stroke="grey" stroke-width="2" points="127.93,-53.29 133.21,-44.1 123.35,-47.99 127.93,-53.29"/>
</g>
<!-- 13 -->
<g id="node3" class="node">
<title>13</title>
<path fill="none" stroke="#56d8d0" stroke-width="2" d="M174.5,-332C174.5,-332 65.5,-332 65.5,-332 59.5,-332 53.5,-326 53.5,-320 53.5,-320 53.5,-308 53.5,-308 53.5,-302 59.5,-296 65.5,-296 65.5,-296 174.5,-296 174.5,-296 180.5,-296 186.5,-302 186.5,-308 186.5,-308 186.5,-320 186.5,-320 186.5,-326 180.5,-332 174.5,-332"/>
<text text-anchor="middle" x="120" y="-311.5" font-family="sans" font-size="10.00">import_template_shape</text>
</g>
<!-- 13&#45;&gt;12 -->
<g id="edge2" class="edge">
<title>13&#45;&gt;12</title>
<path fill="none" stroke="grey" stroke-width="2" d="M108.72,-295.56C102.78,-285.54 95.94,-272.51 92,-260 77.72,-214.62 73.58,-159.03 72.41,-126.47"/>
<polygon fill="grey" stroke="grey" stroke-width="2" points="75.91,-126.25 72.12,-116.35 68.91,-126.45 75.91,-126.25"/>
</g>
<!-- 22 -->
<g id="node4" class="node">
<title>22</title>
<path fill="none" stroke="#56d88a" stroke-width="2" d="M213,-260C213,-260 113,-260 113,-260 107,-260 101,-254 101,-248 101,-248 101,-236 101,-236 101,-230 107,-224 113,-224 113,-224 213,-224 213,-224 219,-224 225,-230 225,-236 225,-236 225,-248 225,-248 225,-254 219,-260 213,-260"/>
<text text-anchor="middle" x="163" y="-239.5" font-family="sans" font-size="10.00">prep_segs_for_greedy</text>
</g>
<!-- 13&#45;&gt;22 -->
<g id="edge3" class="edge">
<title>13&#45;&gt;22</title>
<path fill="none" stroke="grey" stroke-width="2" d="M130.63,-295.7C135.63,-287.56 141.69,-277.69 147.21,-268.7"/>
<polygon fill="grey" stroke="grey" stroke-width="2" points="150.24,-270.46 152.49,-260.1 144.28,-266.79 150.24,-270.46"/>
</g>
<!-- 21 -->
<g id="node5" class="node">
<title>21</title>
<path fill="none" stroke="#d89c56" stroke-width="2" d="M209,-188C209,-188 117,-188 117,-188 111,-188 105,-182 105,-176 105,-176 105,-164 105,-164 105,-158 111,-152 117,-152 117,-152 209,-152 209,-152 215,-152 221,-158 221,-164 221,-164 221,-176 221,-176 221,-182 215,-188 209,-188"/>
<text text-anchor="middle" x="163" y="-167.5" font-family="sans" font-size="10.00">template_shape_reg</text>
</g>
<!-- 22&#45;&gt;21 -->
<g id="edge6" class="edge">
<title>22&#45;&gt;21</title>
<path fill="none" stroke="grey" stroke-width="2" d="M163,-223.7C163,-215.98 163,-206.71 163,-198.11"/>
<polygon fill="grey" stroke="grey" stroke-width="2" points="166.5,-198.1 163,-188.1 159.5,-198.1 166.5,-198.1"/>
</g>
<!-- 21&#45;&gt;12 -->
<g id="edge4" class="edge">
<title>21&#45;&gt;12</title>
<path fill="none" stroke="grey" stroke-width="2" d="M140.51,-151.7C129.04,-142.88 114.94,-132.03 102.52,-122.47"/>
<polygon fill="grey" stroke="grey" stroke-width="2" points="104.3,-119.43 94.24,-116.1 100.03,-124.98 104.3,-119.43"/>
</g>
<!-- 23 -->
<g id="node6" class="node">
<title>23</title>
<path fill="none" stroke="#56d8c9" stroke-width="2" d="M285.5,-116C285.5,-116 166.5,-116 166.5,-116 160.5,-116 154.5,-110 154.5,-104 154.5,-104 154.5,-92 154.5,-92 154.5,-86 160.5,-80 166.5,-80 166.5,-80 285.5,-80 285.5,-80 291.5,-80 297.5,-86 297.5,-92 297.5,-92 297.5,-104 297.5,-104 297.5,-110 291.5,-116 285.5,-116"/>
<text text-anchor="middle" x="226" y="-95.5" font-family="sans" font-size="10.00">inject_init_laplace_coords</text>
</g>
<!-- 21&#45;&gt;23 -->
<g id="edge5" class="edge">
<title>21&#45;&gt;23</title>
<path fill="none" stroke="grey" stroke-width="2" d="M178.57,-151.7C186.2,-143.22 195.52,-132.86 203.88,-123.58"/>
<polygon fill="grey" stroke="grey" stroke-width="2" points="206.52,-125.88 210.61,-116.1 201.31,-121.2 206.52,-125.88"/>
</g>
<!-- 14 -->
<g id="node7" class="node">
<title>14</title>
<path fill="none" stroke="#56d882" stroke-width="2" d="M369.5,-332C369.5,-332 310.5,-332 310.5,-332 304.5,-332 298.5,-326 298.5,-320 298.5,-320 298.5,-308 298.5,-308 298.5,-302 304.5,-296 310.5,-296 310.5,-296 369.5,-296 369.5,-296 375.5,-296 381.5,-302 381.5,-308 381.5,-308 381.5,-320 381.5,-320 381.5,-326 375.5,-332 369.5,-332"/>
<text text-anchor="middle" x="340" y="-311.5" font-family="sans" font-size="10.00">run_inference</text>
</g>
<!-- 14&#45;&gt;11 -->
<g id="edge7" class="edge">
<title>14&#45;&gt;11</title>
<path fill="none" stroke="grey" stroke-width="2" d="M343.08,-295.71C349.56,-253.53 359.92,-144.12 307,-80 287.44,-56.3 256.73,-43.17 227.86,-35.91"/>
<polygon fill="grey" stroke="grey" stroke-width="2" points="228.28,-32.41 217.75,-33.58 226.71,-39.23 228.28,-32.41"/>
</g>
<!-- 14&#45;&gt;12 -->
<g id="edge8" class="edge">
<title>14&#45;&gt;12</title>
<path fill="none" stroke="grey" stroke-width="2" d="M325.93,-295.63C317.82,-285.43 307.57,-272.18 299,-260 266.21,-213.43 274.89,-187.06 230,-152 216.25,-141.26 180.39,-128.88 146.31,-118.79"/>
<polygon fill="grey" stroke="grey" stroke-width="2" points="146.87,-115.3 136.29,-115.87 144.91,-122.02 146.87,-115.3"/>
</g>
<!-- 14&#45;&gt;22 -->
<g id="edge9" class="edge">
<title>14&#45;&gt;22</title>
<path fill="none" stroke="grey" stroke-width="2" d="M298.05,-296.41C273.38,-286.65 241.96,-274.23 215.63,-263.81"/>
<polygon fill="grey" stroke="grey" stroke-width="2" points="216.77,-260.5 206.18,-260.08 214.2,-267.01 216.77,-260.5"/>
</g>
<!-- 14&#45;&gt;23 -->
<g id="edge10" class="edge">
<title>14&#45;&gt;23</title>
<path fill="none" stroke="grey" stroke-width="2" d="M333.01,-295.94C318.2,-260.05 283.72,-177.92 268,-152 262.19,-142.42 254.87,-132.61 247.97,-124.08"/>
<polygon fill="grey" stroke="grey" stroke-width="2" points="250.63,-121.8 241.56,-116.34 245.24,-126.27 250.63,-121.8"/>
</g>
</g>
</svg>
