<?xml version="1.0" encoding="UTF-8" standalone="no"?>
<!DOCTYPE svg PUBLIC "-//W3C//DTD SVG 1.1//EN"
 "http://www.w3.org/Graphics/SVG/1.1/DTD/svg11.dtd">
<!-- Generated by graphviz version 2.43.0 (0)
 -->
<!-- Pages: 1 -->
<svg width="2345pt" height="1299pt"
 viewBox="0.00 0.00 2344.80 1299.00" xmlns="http://www.w3.org/2000/svg" xmlns:xlink="http://www.w3.org/1999/xlink">
<g id="graph0" class="graph" transform="scale(1 1) rotate(0) translate(4 1295)">
<polygon fill="white" stroke="transparent" points="-4,4 -4,-1295 2340.8,-1295 2340.8,4 -4,4"/>
<g id="clust1" class="cluster">
<title>cluster_1</title>
<polygon fill="white" stroke="blue" points="1062.11,-864 1062.11,-1283 1337.11,-1283 1337.11,-864 1062.11,-864"/>
<text text-anchor="middle" x="1199.61" y="-1267.8" font-family="Times,serif" font-size="14.00">preproc_t1</text>
</g>
<g id="clust3" class="cluster">
<title>cluster_2</title>
<polygon fill="white" stroke="blue" points="926.11,-432 926.11,-707 1336.11,-707 1336.11,-432 926.11,-432"/>
<text text-anchor="middle" x="1131.11" y="-691.8" font-family="Times,serif" font-size="14.00">warps</text>
</g>
<g id="clust4" class="cluster">
<title>cluster_3</title>
<polygon fill="white" stroke="blue" points="402.11,-288 402.11,-347 718.11,-347 718.11,-288 402.11,-288"/>
<text text-anchor="middle" x="560.11" y="-331.8" font-family="Times,serif" font-size="14.00">qc</text>
</g>
<g id="clust5" class="cluster">
<title>cluster_5</title>
<polygon fill="white" stroke="blue" points="312.11,-576 312.11,-707 736.11,-707 736.11,-576 312.11,-576"/>
<text text-anchor="middle" x="524.11" y="-691.8" font-family="Times,serif" font-size="14.00">autotop</text>
</g>
<g id="clust10" class="cluster">
<title>cluster_9</title>
<polygon fill="white" stroke="blue" points="1508.11,-72 1508.11,-707 2268.11,-707 2268.11,-72 1508.11,-72"/>
<text text-anchor="middle" x="1888.11" y="-691.8" font-family="Times,serif" font-size="14.00">gifti</text>
</g>
<g id="clust11" class="cluster">
<title>cluster_10</title>
<polygon fill="white" stroke="blue" points="525.11,-720 525.11,-1067 815.11,-1067 815.11,-720 525.11,-720"/>
<text text-anchor="middle" x="670.11" y="-1051.8" font-family="Times,serif" font-size="14.00">shape_inject</text>
</g>
<g id="clust12" class="cluster">
<title>cluster_11</title>
<polygon fill="white" stroke="blue" points="582.11,-360 582.11,-563 794.11,-563 794.11,-360 582.11,-360"/>
<text text-anchor="middle" x="688.11" y="-547.8" font-family="Times,serif" font-size="14.00">subfields</text>
</g>
<g id="clust13" class="cluster">
<title>cluster_12</title>
<polygon fill="white" stroke="blue" points="960.11,-720 960.11,-923 1052.11,-923 1052.11,-720 960.11,-720"/>
<text text-anchor="middle" x="1006.11" y="-907.8" font-family="Times,serif" font-size="14.00">nnunet</text>
</g>
<g id="clust14" class="cluster">
<title>cluster_13</title>
<polygon fill="white" stroke="blue" points="38.11,-360 38.11,-491 550.11,-491 550.11,-360 38.11,-360"/>
<text text-anchor="middle" x="294.11" y="-475.8" font-family="Times,serif" font-size="14.00">resample_final_to_crop_native</text>
</g>
<!-- 15 -->
<g id="node1" class="node">
<title>15</title>
<path fill="none" stroke="#56d8d8" stroke-width="2" d="M1182.11,-900C1182.11,-900 1074.11,-900 1074.11,-900 1068.11,-900 1062.11,-894 1062.11,-888 1062.11,-888 1062.11,-876 1062.11,-876 1062.11,-870 1068.11,-864 1074.11,-864 1074.11,-864 1182.11,-864 1182.11,-864 1188.11,-864 1194.11,-870 1194.11,-876 1194.11,-876 1194.11,-888 1194.11,-888 1194.11,-894 1188.11,-900 1182.11,-900"/>
<text text-anchor="middle" x="1128.11" y="-879.5" font-family="sans" font-size="10.00">warp_t1_to_corobl_crop</text>
</g>
<!-- 14 -->
<g id="node46" class="node">
<title>14</title>
<path fill="none" stroke="#d87556" stroke-width="2" d="M1031.61,-900C1031.61,-900 972.61,-900 972.61,-900 966.61,-900 960.61,-894 960.61,-888 960.61,-888 960.61,-876 960.61,-876 960.61,-870 966.61,-864 972.61,-864 972.61,-864 1031.61,-864 1031.61,-864 1037.61,-864 1043.61,-870 1043.61,-876 1043.61,-876 1043.61,-888 1043.61,-888 1043.61,-894 1037.61,-900 1031.61,-900"/>
<text text-anchor="middle" x="1002.11" y="-879.5" font-family="sans" font-size="10.00">run_inference</text>
</g>
<!-- 15&#45;&gt;14 -->
<g id="edge77" class="edge">
<title>15&#45;&gt;14</title>
<path fill="none" stroke="grey" stroke-width="2" d="M1062.02,-882C1059.39,-882 1056.75,-882 1054.11,-882"/>
<polygon fill="grey" stroke="grey" stroke-width="2" points="1053.94,-878.5 1043.94,-882 1053.94,-885.5 1053.94,-878.5"/>
</g>
<!-- 52 -->
<g id="node47" class="node">
<title>52</title>
<path fill="none" stroke="#5682d8" stroke-width="2" d="M1040.11,-828C1040.11,-828 976.11,-828 976.11,-828 970.11,-828 964.11,-822 964.11,-816 964.11,-816 964.11,-804 964.11,-804 964.11,-798 970.11,-792 976.11,-792 976.11,-792 1040.11,-792 1040.11,-792 1046.11,-792 1052.11,-798 1052.11,-804 1052.11,-804 1052.11,-816 1052.11,-816 1052.11,-822 1046.11,-828 1040.11,-828"/>
<text text-anchor="middle" x="1008.11" y="-807.5" font-family="sans" font-size="10.00">qc_nnunet_f3d</text>
</g>
<!-- 15&#45;&gt;52 -->
<g id="edge78" class="edge">
<title>15&#45;&gt;52</title>
<path fill="none" stroke="grey" stroke-width="2" d="M1098.75,-863.88C1083.06,-854.72 1063.55,-843.34 1046.65,-833.48"/>
<polygon fill="grey" stroke="grey" stroke-width="2" points="1047.98,-830.21 1037.57,-828.19 1044.45,-836.25 1047.98,-830.21"/>
</g>
<!-- 16 -->
<g id="node2" class="node">
<title>16</title>
<path fill="none" stroke="#56d8c9" stroke-width="2" d="M1117.11,-1188C1117.11,-1188 1087.11,-1188 1087.11,-1188 1081.11,-1188 1075.11,-1182 1075.11,-1176 1075.11,-1176 1075.11,-1164 1075.11,-1164 1075.11,-1158 1081.11,-1152 1087.11,-1152 1087.11,-1152 1117.11,-1152 1117.11,-1152 1123.11,-1152 1129.11,-1158 1129.11,-1164 1129.11,-1164 1129.11,-1176 1129.11,-1176 1129.11,-1182 1123.11,-1188 1117.11,-1188"/>
<text text-anchor="middle" x="1102.11" y="-1167.5" font-family="sans" font-size="10.00">n4_t1</text>
</g>
<!-- 16&#45;&gt;15 -->
<g id="edge1" class="edge">
<title>16&#45;&gt;15</title>
<path fill="none" stroke="grey" stroke-width="2" d="M1129.28,-1154.7C1143.37,-1145.67 1159.24,-1132.57 1167.11,-1116 1173.97,-1101.55 1171.88,-1095.27 1167.11,-1080 1165.01,-1073.29 1160.74,-1073.52 1158.11,-1067 1136.86,-1014.37 1130.65,-947.5 1128.84,-910.6"/>
<polygon fill="grey" stroke="grey" stroke-width="2" points="1132.32,-910.01 1128.41,-900.16 1125.32,-910.3 1132.32,-910.01"/>
</g>
<!-- 20 -->
<g id="node3" class="node">
<title>20</title>
<path fill="none" stroke="#56a9d8" stroke-width="2" d="M1146.61,-1116C1146.61,-1116 1073.61,-1116 1073.61,-1116 1067.61,-1116 1061.61,-1110 1061.61,-1104 1061.61,-1104 1061.61,-1092 1061.61,-1092 1061.61,-1086 1067.61,-1080 1073.61,-1080 1073.61,-1080 1146.61,-1080 1146.61,-1080 1152.61,-1080 1158.61,-1086 1158.61,-1092 1158.61,-1092 1158.61,-1104 1158.61,-1104 1158.61,-1110 1152.61,-1116 1146.61,-1116"/>
<text text-anchor="middle" x="1110.11" y="-1095.5" font-family="sans" font-size="10.00">reg_to_template</text>
</g>
<!-- 16&#45;&gt;20 -->
<g id="edge2" class="edge">
<title>16&#45;&gt;20</title>
<path fill="none" stroke="grey" stroke-width="2" d="M1104.08,-1151.7C1104.96,-1143.98 1106.02,-1134.71 1107.01,-1126.11"/>
<polygon fill="grey" stroke="grey" stroke-width="2" points="1110.49,-1126.44 1108.15,-1116.1 1103.54,-1125.64 1110.49,-1126.44"/>
</g>
<!-- 43 -->
<g id="node44" class="node">
<title>43</title>
<path fill="none" stroke="#56d8b9" stroke-width="2" d="M746.11,-396C746.11,-396 608.11,-396 608.11,-396 602.11,-396 596.11,-390 596.11,-384 596.11,-384 596.11,-372 596.11,-372 596.11,-366 602.11,-360 608.11,-360 608.11,-360 746.11,-360 746.11,-360 752.11,-360 758.11,-366 758.11,-372 758.11,-372 758.11,-384 758.11,-384 758.11,-390 752.11,-396 746.11,-396"/>
<text text-anchor="middle" x="677.11" y="-375.5" font-family="sans" font-size="10.00">resample_subfields_to_native</text>
</g>
<!-- 16&#45;&gt;43 -->
<g id="edge79" class="edge">
<title>16&#45;&gt;43</title>
<path fill="none" stroke="grey" stroke-width="2" d="M1074.93,-1168.62C950.86,-1166.45 438.68,-1152.37 308.11,-1067 290.75,-1055.65 284.11,-1047.73 284.11,-1027 284.11,-1027 284.11,-1027 284.11,-737 284.11,-664.21 267.11,-631.58 314.11,-576 385.01,-492.15 462.54,-562.25 546.11,-491 568.97,-471.51 557.71,-453.09 579.11,-432 592,-419.29 608.57,-408.78 624.41,-400.57"/>
<polygon fill="grey" stroke="grey" stroke-width="2" points="626.21,-403.59 633.61,-396.01 623.1,-397.32 626.21,-403.59"/>
</g>
<!-- 47 -->
<g id="node52" class="node">
<title>47</title>
<path fill="none" stroke="#d6d856" stroke-width="2" d="M166.11,-396C166.11,-396 50.11,-396 50.11,-396 44.11,-396 38.11,-390 38.11,-384 38.11,-384 38.11,-372 38.11,-372 38.11,-366 44.11,-360 50.11,-360 50.11,-360 166.11,-360 166.11,-360 172.11,-360 178.11,-366 178.11,-372 178.11,-372 178.11,-384 178.11,-384 178.11,-390 172.11,-396 166.11,-396"/>
<text text-anchor="middle" x="108.11" y="-375.5" font-family="sans" font-size="10.00">resample_native_to_crop</text>
</g>
<!-- 16&#45;&gt;47 -->
<g id="edge80" class="edge">
<title>16&#45;&gt;47</title>
<path fill="none" stroke="grey" stroke-width="2" d="M1074.71,-1168.69C955.17,-1167.09 478.82,-1158.13 336.11,-1116 257.69,-1092.85 175.11,-1108.76 175.11,-1027 175.11,-1027 175.11,-1027 175.11,-521 175.11,-476.73 148.14,-431.47 128.42,-404.3"/>
<polygon fill="grey" stroke="grey" stroke-width="2" points="131.11,-402.05 122.31,-396.14 125.5,-406.25 131.11,-402.05"/>
</g>
<!-- 19 -->
<g id="node7" class="node">
<title>19</title>
<path fill="none" stroke="#5682d8" stroke-width="2" d="M1322.61,-1044C1322.61,-1044 1179.61,-1044 1179.61,-1044 1173.61,-1044 1167.61,-1038 1167.61,-1032 1167.61,-1032 1167.61,-1020 1167.61,-1020 1167.61,-1014 1173.61,-1008 1179.61,-1008 1179.61,-1008 1322.61,-1008 1322.61,-1008 1328.61,-1008 1334.61,-1014 1334.61,-1020 1334.61,-1020 1334.61,-1032 1334.61,-1032 1334.61,-1038 1328.61,-1044 1322.61,-1044"/>
<text text-anchor="middle" x="1251.11" y="-1023.5" font-family="sans" font-size="10.00">convert_template_xfm_ras2itk</text>
</g>
<!-- 20&#45;&gt;19 -->
<g id="edge7" class="edge">
<title>20&#45;&gt;19</title>
<path fill="none" stroke="grey" stroke-width="2" d="M1144.6,-1079.88C1163.55,-1070.47 1187.24,-1058.71 1207.46,-1048.67"/>
<polygon fill="grey" stroke="grey" stroke-width="2" points="1209.08,-1051.77 1216.48,-1044.19 1205.97,-1045.5 1209.08,-1051.77"/>
</g>
<!-- 48 -->
<g id="node15" class="node">
<title>48</title>
<path fill="none" stroke="#d8a456" stroke-width="2" d="M503.61,-324C503.61,-324 414.61,-324 414.61,-324 408.61,-324 402.61,-318 402.61,-312 402.61,-312 402.61,-300 402.61,-300 402.61,-294 408.61,-288 414.61,-288 414.61,-288 503.61,-288 503.61,-288 509.61,-288 515.61,-294 515.61,-300 515.61,-300 515.61,-312 515.61,-312 515.61,-318 509.61,-324 503.61,-324"/>
<text text-anchor="middle" x="459.11" y="-303.5" font-family="sans" font-size="10.00">qc_reg_to_template</text>
</g>
<!-- 20&#45;&gt;48 -->
<g id="edge86" class="edge">
<title>20&#45;&gt;48</title>
<path fill="none" stroke="grey" stroke-width="2" d="M1061.29,-1097.38C938.97,-1097.86 621.92,-1096.18 521.11,-1067 423.62,-1038.78 322.11,-1056.49 322.11,-955 322.11,-955 322.11,-955 322.11,-809 322.11,-571.92 -122.82,-537.71 34.11,-360 57.4,-333.62 278.6,-317.28 392.31,-310.55"/>
<polygon fill="grey" stroke="grey" stroke-width="2" points="392.52,-314.04 402.3,-309.97 392.11,-307.05 392.52,-314.04"/>
</g>
<!-- 17 -->
<g id="node4" class="node">
<title>17</title>
<path fill="none" stroke="#56d873" stroke-width="2" d="M1122.11,-1260C1122.11,-1260 1082.11,-1260 1082.11,-1260 1076.11,-1260 1070.11,-1254 1070.11,-1248 1070.11,-1248 1070.11,-1236 1070.11,-1236 1070.11,-1230 1076.11,-1224 1082.11,-1224 1082.11,-1224 1122.11,-1224 1122.11,-1224 1128.11,-1224 1134.11,-1230 1134.11,-1236 1134.11,-1236 1134.11,-1248 1134.11,-1248 1134.11,-1254 1128.11,-1260 1122.11,-1260"/>
<text text-anchor="middle" x="1102.11" y="-1239.5" font-family="sans" font-size="10.00">import_t1</text>
</g>
<!-- 17&#45;&gt;16 -->
<g id="edge3" class="edge">
<title>17&#45;&gt;16</title>
<path fill="none" stroke="grey" stroke-width="2" d="M1102.11,-1223.7C1102.11,-1215.98 1102.11,-1206.71 1102.11,-1198.11"/>
<polygon fill="grey" stroke="grey" stroke-width="2" points="1105.61,-1198.1 1102.11,-1188.1 1098.61,-1198.1 1105.61,-1198.1"/>
</g>
<!-- 18 -->
<g id="node5" class="node">
<title>18</title>
<path fill="none" stroke="#56d85b" stroke-width="2" d="M1325.11,-972C1325.11,-972 1179.11,-972 1179.11,-972 1173.11,-972 1167.11,-966 1167.11,-960 1167.11,-960 1167.11,-948 1167.11,-948 1167.11,-942 1173.11,-936 1179.11,-936 1179.11,-936 1325.11,-936 1325.11,-936 1331.11,-936 1337.11,-942 1337.11,-948 1337.11,-948 1337.11,-960 1337.11,-960 1337.11,-966 1331.11,-972 1325.11,-972"/>
<text text-anchor="middle" x="1252.11" y="-951.5" font-family="sans" font-size="10.00">compose_template_xfm_corobl</text>
</g>
<!-- 18&#45;&gt;15 -->
<g id="edge4" class="edge">
<title>18&#45;&gt;15</title>
<path fill="none" stroke="grey" stroke-width="2" d="M1221.77,-935.88C1205.41,-926.64 1185.02,-915.13 1167.45,-905.21"/>
<polygon fill="grey" stroke="grey" stroke-width="2" points="1168.99,-902.06 1158.56,-900.19 1165.54,-908.15 1168.99,-902.06"/>
</g>
<!-- 29 -->
<g id="node6" class="node">
<title>29</title>
<path fill="none" stroke="#b6d856" stroke-width="2" d="M1325.61,-900C1325.61,-900 1224.61,-900 1224.61,-900 1218.61,-900 1212.61,-894 1212.61,-888 1212.61,-888 1212.61,-876 1212.61,-876 1212.61,-870 1218.61,-864 1224.61,-864 1224.61,-864 1325.61,-864 1325.61,-864 1331.61,-864 1337.61,-870 1337.61,-876 1337.61,-876 1337.61,-888 1337.61,-888 1337.61,-894 1331.61,-900 1325.61,-900"/>
<text text-anchor="middle" x="1275.11" y="-879.5" font-family="sans" font-size="10.00">template_xfm_itk2ras</text>
</g>
<!-- 18&#45;&gt;29 -->
<g id="edge5" class="edge">
<title>18&#45;&gt;29</title>
<path fill="none" stroke="grey" stroke-width="2" d="M1257.79,-935.7C1260.35,-927.9 1263.44,-918.51 1266.29,-909.83"/>
<polygon fill="grey" stroke="grey" stroke-width="2" points="1269.69,-910.7 1269.49,-900.1 1263.04,-908.51 1269.69,-910.7"/>
</g>
<!-- 45 -->
<g id="node9" class="node">
<title>45</title>
<path fill="none" stroke="#d86656" stroke-width="2" d="M1324.11,-468C1324.11,-468 1166.11,-468 1166.11,-468 1160.11,-468 1154.11,-462 1154.11,-456 1154.11,-456 1154.11,-444 1154.11,-444 1154.11,-438 1160.11,-432 1166.11,-432 1166.11,-432 1324.11,-432 1324.11,-432 1330.11,-432 1336.11,-438 1336.11,-444 1336.11,-444 1336.11,-456 1336.11,-456 1336.11,-462 1330.11,-468 1324.11,-468"/>
<text text-anchor="middle" x="1245.11" y="-447.5" font-family="sans" font-size="10.00">compose_warps_native_to_unfold</text>
</g>
<!-- 18&#45;&gt;45 -->
<g id="edge84" class="edge">
<title>18&#45;&gt;45</title>
<path fill="none" stroke="grey" stroke-width="2" d="M1337.25,-953.38C1579.18,-954.09 2255.67,-953.34 2292.11,-923 2331.23,-890.43 2316.11,-861.91 2316.11,-811 2316.11,-811 2316.11,-811 2316.11,-665 2316.11,-624.03 2324.42,-601.18 2292.11,-576 2257.57,-549.09 1546.39,-574.35 1504.11,-563 1452.03,-549.02 1447.32,-526.02 1398.11,-504 1370.45,-491.63 1338.97,-480.28 1311.78,-471.29"/>
<polygon fill="grey" stroke="grey" stroke-width="2" points="1312.56,-467.86 1301.97,-468.08 1310.39,-474.52 1312.56,-467.86"/>
</g>
<!-- 46 -->
<g id="node10" class="node">
<title>46</title>
<path fill="none" stroke="#56a2d8" stroke-width="2" d="M1123.61,-468C1123.61,-468 938.61,-468 938.61,-468 932.61,-468 926.61,-462 926.61,-456 926.61,-456 926.61,-444 926.61,-444 926.61,-438 932.61,-432 938.61,-432 938.61,-432 1123.61,-432 1123.61,-432 1129.61,-432 1135.61,-438 1135.61,-444 1135.61,-444 1135.61,-456 1135.61,-456 1135.61,-462 1129.61,-468 1123.61,-468"/>
<text text-anchor="middle" x="1031.11" y="-447.5" font-family="sans" font-size="10.00">compose_warps_unfold_to_crop_native</text>
</g>
<!-- 18&#45;&gt;46 -->
<g id="edge85" class="edge">
<title>18&#45;&gt;46</title>
<path fill="none" stroke="grey" stroke-width="2" d="M1337.38,-950.12C1583.58,-940.69 2278.11,-905.69 2278.11,-811 2278.11,-811 2278.11,-811 2278.11,-665 2278.11,-624.96 2294.34,-602.25 2264.11,-576 2245.94,-560.23 1421.66,-567.91 1398.11,-563 1331.61,-549.13 1322.82,-521.2 1257.11,-504 1208.63,-491.31 1193.94,-502.25 1145.11,-491 1124.12,-486.16 1101.64,-478.78 1082.23,-471.66"/>
<polygon fill="grey" stroke="grey" stroke-width="2" points="1083.27,-468.31 1072.68,-468.09 1080.82,-474.87 1083.27,-468.31"/>
</g>
<!-- 18&#45;&gt;43 -->
<g id="edge82" class="edge">
<title>18&#45;&gt;43</title>
<path fill="none" stroke="grey" stroke-width="2" d="M1166.79,-953.2C1091.72,-951.81 989.37,-945.61 956.11,-923 909.75,-891.49 898.11,-867.06 898.11,-811 898.11,-811 898.11,-811 898.11,-521 898.11,-480.03 903.08,-460.96 874.11,-432 846.28,-404.19 805.51,-390.54 768.28,-383.99"/>
<polygon fill="grey" stroke="grey" stroke-width="2" points="768.82,-380.53 758.39,-382.4 767.71,-387.44 768.82,-380.53"/>
</g>
<!-- 39 -->
<g id="node49" class="node">
<title>39</title>
<path fill="none" stroke="#d88556" stroke-width="2" d="M537.61,-396C537.61,-396 388.61,-396 388.61,-396 382.61,-396 376.61,-390 376.61,-384 376.61,-384 376.61,-372 376.61,-372 376.61,-366 382.61,-360 388.61,-360 388.61,-360 537.61,-360 537.61,-360 543.61,-360 549.61,-366 549.61,-372 549.61,-372 549.61,-384 549.61,-384 549.61,-390 543.61,-396 537.61,-396"/>
<text text-anchor="middle" x="463.11" y="-375.5" font-family="sans" font-size="10.00">resample_subfields_native_crop</text>
</g>
<!-- 18&#45;&gt;39 -->
<g id="edge81" class="edge">
<title>18&#45;&gt;39</title>
<path fill="none" stroke="grey" stroke-width="2" d="M1337.11,-939.74C1408.21,-923.25 1498.11,-887.31 1498.11,-811 1498.11,-811 1498.11,-811 1498.11,-737 1498.11,-584.34 1468.63,-514.38 1340.11,-432 1268.75,-386.26 662.47,-404.21 578.11,-396 572.19,-395.42 566.11,-394.76 559.98,-394.02"/>
<polygon fill="grey" stroke="grey" stroke-width="2" points="560,-390.5 549.65,-392.74 559.14,-397.45 560,-390.5"/>
</g>
<!-- 44 -->
<g id="node51" class="node">
<title>44</title>
<path fill="none" stroke="#9fd856" stroke-width="2" d="M346.11,-396C346.11,-396 208.11,-396 208.11,-396 202.11,-396 196.11,-390 196.11,-384 196.11,-384 196.11,-372 196.11,-372 196.11,-366 202.11,-360 208.11,-360 208.11,-360 346.11,-360 346.11,-360 352.11,-360 358.11,-366 358.11,-372 358.11,-372 358.11,-384 358.11,-384 358.11,-390 352.11,-396 346.11,-396"/>
<text text-anchor="middle" x="277.11" y="-375.5" font-family="sans" font-size="10.00">resample_coords_native_crop</text>
</g>
<!-- 18&#45;&gt;44 -->
<g id="edge83" class="edge">
<title>18&#45;&gt;44</title>
<path fill="none" stroke="grey" stroke-width="2" d="M1167.09,-951.01C1069.82,-947.91 921.38,-940.38 902.11,-923 736.45,-773.61 973.47,-569.85 798.11,-432 724.91,-374.46 478.42,-406.76 368.66,-395.95"/>
<polygon fill="grey" stroke="grey" stroke-width="2" points="368.82,-392.44 358.48,-394.76 368.01,-399.39 368.82,-392.44"/>
</g>
<!-- 4 -->
<g id="node27" class="node">
<title>4</title>
<path fill="none" stroke="#d85e56" stroke-width="2" d="M1742.61,-396C1742.61,-396 1657.61,-396 1657.61,-396 1651.61,-396 1645.61,-390 1645.61,-384 1645.61,-384 1645.61,-372 1645.61,-372 1645.61,-366 1651.61,-360 1657.61,-360 1657.61,-360 1742.61,-360 1742.61,-360 1748.61,-360 1754.61,-366 1754.61,-372 1754.61,-372 1754.61,-384 1754.61,-384 1754.61,-390 1748.61,-396 1742.61,-396"/>
<text text-anchor="middle" x="1700.11" y="-375.5" font-family="sans" font-size="10.00">warp_gii_to_native</text>
</g>
<!-- 29&#45;&gt;4 -->
<g id="edge92" class="edge">
<title>29&#45;&gt;4</title>
<path fill="none" stroke="grey" stroke-width="2" d="M1293.39,-863.85C1324.79,-833.85 1390.01,-769.15 1436.11,-707 1520.47,-593.24 1494.27,-529.38 1597.11,-432 1610.72,-419.11 1628.08,-408.58 1644.65,-400.4"/>
<polygon fill="grey" stroke="grey" stroke-width="2" points="1646.2,-403.53 1653.75,-396.09 1643.21,-397.21 1646.2,-403.53"/>
</g>
<!-- 19&#45;&gt;18 -->
<g id="edge6" class="edge">
<title>19&#45;&gt;18</title>
<path fill="none" stroke="grey" stroke-width="2" d="M1251.35,-1007.7C1251.46,-999.98 1251.6,-990.71 1251.72,-982.11"/>
<polygon fill="grey" stroke="grey" stroke-width="2" points="1255.22,-982.15 1251.86,-972.1 1248.22,-982.05 1255.22,-982.15"/>
</g>
<!-- 7 -->
<g id="node8" class="node">
<title>7</title>
<path fill="none" stroke="#61d856" stroke-width="2" d="M1075.11,-540C1075.11,-540 991.11,-540 991.11,-540 985.11,-540 979.11,-534 979.11,-528 979.11,-528 979.11,-516 979.11,-516 979.11,-510 985.11,-504 991.11,-504 991.11,-504 1075.11,-504 1075.11,-504 1081.11,-504 1087.11,-510 1087.11,-516 1087.11,-516 1087.11,-528 1087.11,-528 1087.11,-534 1081.11,-540 1075.11,-540"/>
<text text-anchor="middle" x="1033.11" y="-519.5" font-family="sans" font-size="10.00">create_warps_hipp</text>
</g>
<!-- 7&#45;&gt;45 -->
<g id="edge8" class="edge">
<title>7&#45;&gt;45</title>
<path fill="none" stroke="grey" stroke-width="2" d="M1087.14,-506.69C1112.43,-499.94 1138.28,-492.93 1144.11,-491 1161.16,-485.34 1179.52,-478.35 1195.84,-471.8"/>
<polygon fill="grey" stroke="grey" stroke-width="2" points="1197.23,-475.01 1205.19,-468.02 1194.61,-468.53 1197.23,-475.01"/>
</g>
<!-- 7&#45;&gt;46 -->
<g id="edge9" class="edge">
<title>7&#45;&gt;46</title>
<path fill="none" stroke="grey" stroke-width="2" d="M1032.61,-503.7C1032.39,-495.98 1032.13,-486.71 1031.88,-478.11"/>
<polygon fill="grey" stroke="grey" stroke-width="2" points="1035.38,-478 1031.59,-468.1 1028.38,-478.2 1035.38,-478"/>
</g>
<!-- 6 -->
<g id="node31" class="node">
<title>6</title>
<path fill="none" stroke="#568ad8" stroke-width="2" d="M1683.61,-540C1683.61,-540 1576.61,-540 1576.61,-540 1570.61,-540 1564.61,-534 1564.61,-528 1564.61,-528 1564.61,-516 1564.61,-516 1564.61,-510 1570.61,-504 1576.61,-504 1576.61,-504 1683.61,-504 1683.61,-504 1689.61,-504 1695.61,-510 1695.61,-516 1695.61,-516 1695.61,-528 1695.61,-528 1695.61,-534 1689.61,-540 1683.61,-540"/>
<text text-anchor="middle" x="1630.11" y="-519.5" font-family="sans" font-size="10.00">warp_gii_unfold2native</text>
</g>
<!-- 7&#45;&gt;6 -->
<g id="edge62" class="edge">
<title>7&#45;&gt;6</title>
<path fill="none" stroke="grey" stroke-width="2" d="M1054.13,-540.16C1068.12,-551 1087.48,-563.74 1107.11,-569.5 1130.24,-576.29 1517.72,-575.35 1541.11,-569.5 1560.14,-564.74 1579.55,-555.05 1595.38,-545.66"/>
<polygon fill="grey" stroke="grey" stroke-width="2" points="1597.56,-548.42 1604.24,-540.2 1593.89,-542.46 1597.56,-548.42"/>
</g>
<!-- 0 -->
<g id="node53" class="node">
<title>0</title>
<path fill="none" stroke="#78d856" stroke-width="2" d="M856.11,-36C856.11,-36 826.11,-36 826.11,-36 820.11,-36 814.11,-30 814.11,-24 814.11,-24 814.11,-12 814.11,-12 814.11,-6 820.11,0 826.11,0 826.11,0 856.11,0 856.11,0 862.11,0 868.11,-6 868.11,-12 868.11,-12 868.11,-24 868.11,-24 868.11,-30 862.11,-36 856.11,-36"/>
<text text-anchor="middle" x="841.11" y="-15.5" font-family="sans" font-size="10.00">all</text>
</g>
<!-- 45&#45;&gt;0 -->
<g id="edge105" class="edge">
<title>45&#45;&gt;0</title>
<path fill="none" stroke="grey" stroke-width="2" d="M1282.72,-431.86C1332.26,-410.29 1422.62,-374.32 1504.11,-360 1525.12,-356.31 2255.63,-360.55 2272.11,-347 2311.42,-314.66 2296.11,-285.91 2296.11,-235 2296.11,-235 2296.11,-235 2296.11,-161 2296.11,-120.03 2304.16,-97.51 2272.11,-72 2215.98,-27.33 1097.49,-20.12 878.22,-19.14"/>
<polygon fill="grey" stroke="grey" stroke-width="2" points="878.19,-15.64 868.18,-19.1 878.16,-22.64 878.19,-15.64"/>
</g>
<!-- 46&#45;&gt;0 -->
<g id="edge106" class="edge">
<title>46&#45;&gt;0</title>
<path fill="none" stroke="grey" stroke-width="2" d="M981.19,-431.87C930.71,-411.01 860.11,-370.48 860.11,-307 860.11,-307 860.11,-307 860.11,-161 860.11,-120.86 852.56,-74.9 846.97,-46.4"/>
<polygon fill="grey" stroke="grey" stroke-width="2" points="850.36,-45.5 844.95,-36.39 843.5,-46.88 850.36,-45.5"/>
</g>
<!-- 8 -->
<g id="node11" class="node">
<title>8</title>
<path fill="none" stroke="#56d882" stroke-width="2" d="M1322.11,-684C1322.11,-684 1244.11,-684 1244.11,-684 1238.11,-684 1232.11,-678 1232.11,-672 1232.11,-672 1232.11,-660 1232.11,-660 1232.11,-654 1238.11,-648 1244.11,-648 1244.11,-648 1322.11,-648 1322.11,-648 1328.11,-648 1334.11,-654 1334.11,-660 1334.11,-660 1334.11,-672 1334.11,-672 1334.11,-678 1328.11,-684 1322.11,-684"/>
<text text-anchor="middle" x="1283.11" y="-663.5" font-family="sans" font-size="10.00">create_unfold_ref</text>
</g>
<!-- 8&#45;&gt;7 -->
<g id="edge10" class="edge">
<title>8&#45;&gt;7</title>
<path fill="none" stroke="grey" stroke-width="2" d="M1232.06,-661.89C1189.83,-656.97 1130.31,-644.32 1089.11,-612 1074.7,-600.7 1078.7,-591.59 1069.11,-576 1063.57,-567 1057.18,-557.38 1051.34,-548.84"/>
<polygon fill="grey" stroke="grey" stroke-width="2" points="1054.07,-546.64 1045.51,-540.41 1048.31,-550.62 1054.07,-546.64"/>
</g>
<!-- 8&#45;&gt;45 -->
<g id="edge13" class="edge">
<title>8&#45;&gt;45</title>
<path fill="none" stroke="grey" stroke-width="2" d="M1284.32,-647.82C1285,-637.46 1285.77,-623.98 1286.11,-612 1286.56,-596.01 1288.47,-591.82 1286.11,-576 1281.16,-542.91 1274.64,-535.76 1264.11,-504 1261.26,-495.43 1257.99,-486.13 1254.98,-477.76"/>
<polygon fill="grey" stroke="grey" stroke-width="2" points="1258.18,-476.32 1251.47,-468.11 1251.6,-478.71 1258.18,-476.32"/>
</g>
<!-- 8&#45;&gt;46 -->
<g id="edge14" class="edge">
<title>8&#45;&gt;46</title>
<path fill="none" stroke="grey" stroke-width="2" d="M1280.27,-647.79C1277.15,-629.76 1271.69,-600.68 1265.11,-576 1256.41,-543.41 1267.08,-525.52 1241.11,-504 1224.53,-490.27 1166.04,-496.03 1145.11,-491 1124.35,-486.01 1102.07,-478.66 1082.77,-471.62"/>
<polygon fill="grey" stroke="grey" stroke-width="2" points="1083.85,-468.29 1073.26,-468.09 1081.41,-474.85 1083.85,-468.29"/>
</g>
<!-- 9 -->
<g id="node12" class="node">
<title>9</title>
<path fill="none" stroke="#56c9d8" stroke-width="2" d="M1229.61,-612C1229.61,-612 1110.61,-612 1110.61,-612 1104.61,-612 1098.61,-606 1098.61,-600 1098.61,-600 1098.61,-588 1098.61,-588 1098.61,-582 1104.61,-576 1110.61,-576 1110.61,-576 1229.61,-576 1229.61,-576 1235.61,-576 1241.61,-582 1241.61,-588 1241.61,-588 1241.61,-600 1241.61,-600 1241.61,-606 1235.61,-612 1229.61,-612"/>
<text text-anchor="middle" x="1170.11" y="-591.5" font-family="sans" font-size="10.00">create_unfold_coord_map</text>
</g>
<!-- 8&#45;&gt;9 -->
<g id="edge11" class="edge">
<title>8&#45;&gt;9</title>
<path fill="none" stroke="grey" stroke-width="2" d="M1255.46,-647.88C1240.69,-638.72 1222.31,-627.34 1206.4,-617.48"/>
<polygon fill="grey" stroke="grey" stroke-width="2" points="1208.2,-614.48 1197.86,-612.19 1204.51,-620.43 1208.2,-614.48"/>
</g>
<!-- 37 -->
<g id="node13" class="node">
<title>37</title>
<path fill="none" stroke="#56d86b" stroke-width="2" d="M1220.61,-540C1220.61,-540 1119.61,-540 1119.61,-540 1113.61,-540 1107.61,-534 1107.61,-528 1107.61,-528 1107.61,-516 1107.61,-516 1107.61,-510 1113.61,-504 1119.61,-504 1119.61,-504 1220.61,-504 1220.61,-504 1226.61,-504 1232.61,-510 1232.61,-516 1232.61,-516 1232.61,-528 1232.61,-528 1232.61,-534 1226.61,-540 1220.61,-540"/>
<text text-anchor="middle" x="1170.11" y="-519.5" font-family="sans" font-size="10.00">create_warps_dentate</text>
</g>
<!-- 8&#45;&gt;37 -->
<g id="edge12" class="edge">
<title>8&#45;&gt;37</title>
<path fill="none" stroke="grey" stroke-width="2" d="M1280.04,-647.68C1275.93,-628.49 1267.1,-597.44 1250.11,-576 1240.52,-563.91 1227.4,-553.63 1214.55,-545.43"/>
<polygon fill="grey" stroke="grey" stroke-width="2" points="1216.12,-542.29 1205.75,-540.09 1212.49,-548.27 1216.12,-542.29"/>
</g>
<!-- 27 -->
<g id="node32" class="node">
<title>27</title>
<path fill="none" stroke="#5692d8" stroke-width="2" d="M1683.11,-612C1683.11,-612 1577.11,-612 1577.11,-612 1571.11,-612 1565.11,-606 1565.11,-600 1565.11,-600 1565.11,-588 1565.11,-588 1565.11,-582 1571.11,-576 1577.11,-576 1577.11,-576 1683.11,-576 1683.11,-576 1689.11,-576 1695.11,-582 1695.11,-588 1695.11,-588 1695.11,-600 1695.11,-600 1695.11,-606 1689.11,-612 1683.11,-612"/>
<text text-anchor="middle" x="1630.11" y="-591.5" font-family="sans" font-size="10.00">constrain_surf_to_bbox</text>
</g>
<!-- 8&#45;&gt;27 -->
<g id="edge64" class="edge">
<title>8&#45;&gt;27</title>
<path fill="none" stroke="grey" stroke-width="2" d="M1334.31,-654.67C1392.59,-642.91 1488.32,-623.6 1555.04,-610.14"/>
<polygon fill="grey" stroke="grey" stroke-width="2" points="1555.96,-613.53 1565.07,-608.12 1554.58,-606.67 1555.96,-613.53"/>
</g>
<!-- 34 -->
<g id="node36" class="node">
<title>34</title>
<path fill="none" stroke="#56c1d8" stroke-width="2" d="M1636.11,-252C1636.11,-252 1520.11,-252 1520.11,-252 1514.11,-252 1508.11,-246 1508.11,-240 1508.11,-240 1508.11,-228 1508.11,-228 1508.11,-222 1514.11,-216 1520.11,-216 1520.11,-216 1636.11,-216 1636.11,-216 1642.11,-216 1648.11,-222 1648.11,-228 1648.11,-228 1648.11,-240 1648.11,-240 1648.11,-246 1642.11,-252 1636.11,-252"/>
<text text-anchor="middle" x="1578.11" y="-231.5" font-family="sans" font-size="10.00">resample_atlas_to_refvol</text>
</g>
<!-- 8&#45;&gt;34 -->
<g id="edge65" class="edge">
<title>8&#45;&gt;34</title>
<path fill="none" stroke="grey" stroke-width="2" d="M1294.85,-647.88C1340.46,-581.4 1505.96,-340.15 1560.53,-260.63"/>
<polygon fill="grey" stroke="grey" stroke-width="2" points="1563.55,-262.4 1566.33,-252.17 1557.78,-258.44 1563.55,-262.4"/>
</g>
<!-- 8&#45;&gt;0 -->
<g id="edge63" class="edge">
<title>8&#45;&gt;0</title>
<path fill="none" stroke="grey" stroke-width="2" d="M1303.84,-647.99C1350.98,-609.75 1465.67,-519.13 1512.11,-504 1551.83,-491.05 2231.11,-516.64 2264.11,-491 2357.25,-418.63 2334.11,-352.95 2334.11,-235 2334.11,-235 2334.11,-235 2334.11,-161 2334.11,-118.33 2333.05,-96.49 2298.11,-72 2238.27,-30.05 1100.41,-20.65 878.46,-19.22"/>
<polygon fill="grey" stroke="grey" stroke-width="2" points="878.32,-15.72 868.3,-19.15 878.28,-22.72 878.32,-15.72"/>
</g>
<!-- 9&#45;&gt;7 -->
<g id="edge15" class="edge">
<title>9&#45;&gt;7</title>
<path fill="none" stroke="grey" stroke-width="2" d="M1126.2,-576C1116.8,-572 1107.03,-567.57 1098.11,-563 1087.9,-557.78 1077.17,-551.51 1067.44,-545.51"/>
<polygon fill="grey" stroke="grey" stroke-width="2" points="1069.15,-542.46 1058.82,-540.11 1065.43,-548.39 1069.15,-542.46"/>
</g>
<!-- 9&#45;&gt;37 -->
<g id="edge16" class="edge">
<title>9&#45;&gt;37</title>
<path fill="none" stroke="grey" stroke-width="2" d="M1170.11,-575.7C1170.11,-567.98 1170.11,-558.71 1170.11,-550.11"/>
<polygon fill="grey" stroke="grey" stroke-width="2" points="1173.61,-550.1 1170.11,-540.1 1166.61,-550.1 1173.61,-550.1"/>
</g>
<!-- 37&#45;&gt;45 -->
<g id="edge19" class="edge">
<title>37&#45;&gt;45</title>
<path fill="none" stroke="grey" stroke-width="2" d="M1188.65,-503.7C1197.91,-495.05 1209.27,-484.45 1219.36,-475.03"/>
<polygon fill="grey" stroke="grey" stroke-width="2" points="1221.86,-477.49 1226.78,-468.1 1217.08,-472.37 1221.86,-477.49"/>
</g>
<!-- 37&#45;&gt;46 -->
<g id="edge20" class="edge">
<title>37&#45;&gt;46</title>
<path fill="none" stroke="grey" stroke-width="2" d="M1136.1,-503.88C1117.51,-494.51 1094.28,-482.81 1074.4,-472.8"/>
<polygon fill="grey" stroke="grey" stroke-width="2" points="1075.75,-469.56 1065.24,-468.19 1072.6,-475.81 1075.75,-469.56"/>
</g>
<!-- 37&#45;&gt;6 -->
<g id="edge95" class="edge">
<title>37&#45;&gt;6</title>
<path fill="none" stroke="grey" stroke-width="2" d="M1233,-522C1340.17,-522 1447.35,-522 1554.53,-522"/>
<polygon fill="grey" stroke="grey" stroke-width="2" points="1554.57,-525.5 1564.57,-522 1554.57,-518.5 1554.57,-525.5"/>
</g>
<!-- 26 -->
<g id="node14" class="node">
<title>26</title>
<path fill="none" stroke="#56b9d8" stroke-width="2" d="M1048.11,-612C1048.11,-612 938.11,-612 938.11,-612 932.11,-612 926.11,-606 926.11,-600 926.11,-600 926.11,-588 926.11,-588 926.11,-582 932.11,-576 938.11,-576 938.11,-576 1048.11,-576 1048.11,-576 1054.11,-576 1060.11,-582 1060.11,-588 1060.11,-588 1060.11,-600 1060.11,-600 1060.11,-606 1054.11,-612 1048.11,-612"/>
<text text-anchor="middle" x="993.11" y="-591.5" font-family="sans" font-size="10.00">create_native_coord_ref</text>
</g>
<!-- 26&#45;&gt;7 -->
<g id="edge17" class="edge">
<title>26&#45;&gt;7</title>
<path fill="none" stroke="grey" stroke-width="2" d="M1002.99,-575.7C1007.6,-567.64 1013.17,-557.89 1018.26,-548.98"/>
<polygon fill="grey" stroke="grey" stroke-width="2" points="1021.41,-550.52 1023.33,-540.1 1015.33,-547.05 1021.41,-550.52"/>
</g>
<!-- 26&#45;&gt;37 -->
<g id="edge18" class="edge">
<title>26&#45;&gt;37</title>
<path fill="none" stroke="grey" stroke-width="2" d="M1059.48,-575.92C1071.82,-572.12 1084.48,-567.77 1096.11,-563 1108.47,-557.92 1121.46,-551.36 1133.03,-545.03"/>
<polygon fill="grey" stroke="grey" stroke-width="2" points="1134.96,-547.97 1141.98,-540.03 1131.54,-541.86 1134.96,-547.97"/>
</g>
<!-- 48&#45;&gt;0 -->
<g id="edge109" class="edge">
<title>48&#45;&gt;0</title>
<path fill="none" stroke="grey" stroke-width="2" d="M469.79,-287.78C497.33,-244.79 575.23,-131.92 669.11,-72 710.94,-45.3 767.07,-31.33 803.65,-24.57"/>
<polygon fill="grey" stroke="grey" stroke-width="2" points="804.64,-27.95 813.88,-22.78 803.43,-21.06 804.64,-27.95"/>
</g>
<!-- 49 -->
<g id="node16" class="node">
<title>49</title>
<path fill="none" stroke="#97d856" stroke-width="2" d="M592.61,-324C592.61,-324 545.61,-324 545.61,-324 539.61,-324 533.61,-318 533.61,-312 533.61,-312 533.61,-300 533.61,-300 533.61,-294 539.61,-288 545.61,-288 545.61,-288 592.61,-288 592.61,-288 598.61,-288 604.61,-294 604.61,-300 604.61,-300 604.61,-312 604.61,-312 604.61,-318 598.61,-324 592.61,-324"/>
<text text-anchor="middle" x="569.11" y="-303.5" font-family="sans" font-size="10.00">qc_subfield</text>
</g>
<!-- 49&#45;&gt;0 -->
<g id="edge110" class="edge">
<title>49&#45;&gt;0</title>
<path fill="none" stroke="grey" stroke-width="2" d="M574.84,-287.77C589.83,-245.25 634.15,-134.25 707.11,-72 735.11,-48.11 775.19,-34.17 804.22,-26.64"/>
<polygon fill="grey" stroke="grey" stroke-width="2" points="805.11,-30.02 813.99,-24.24 803.44,-23.23 805.11,-30.02"/>
</g>
<!-- 50 -->
<g id="node17" class="node">
<title>50</title>
<path fill="none" stroke="#59d856" stroke-width="2" d="M705.61,-324C705.61,-324 634.61,-324 634.61,-324 628.61,-324 622.61,-318 622.61,-312 622.61,-312 622.61,-300 622.61,-300 622.61,-294 628.61,-288 634.61,-288 634.61,-288 705.61,-288 705.61,-288 711.61,-288 717.61,-294 717.61,-300 717.61,-300 717.61,-312 717.61,-312 717.61,-318 711.61,-324 705.61,-324"/>
<text text-anchor="middle" x="670.11" y="-303.5" font-family="sans" font-size="10.00">qc_subfield_surf</text>
</g>
<!-- 50&#45;&gt;0 -->
<g id="edge111" class="edge">
<title>50&#45;&gt;0</title>
<path fill="none" stroke="grey" stroke-width="2" d="M670.02,-287.92C670.71,-246.2 677.94,-137.74 732.11,-72 750.37,-49.83 780.15,-36.24 803.97,-28.37"/>
<polygon fill="grey" stroke="grey" stroke-width="2" points="805.24,-31.64 813.76,-25.35 803.17,-24.96 805.24,-31.64"/>
</g>
<!-- 10 -->
<g id="node18" class="node">
<title>10</title>
<path fill="none" stroke="#56d87b" stroke-width="2" d="M416.11,-684C416.11,-684 324.11,-684 324.11,-684 318.11,-684 312.11,-678 312.11,-672 312.11,-672 312.11,-660 312.11,-660 312.11,-654 318.11,-648 324.11,-648 324.11,-648 416.11,-648 416.11,-648 422.11,-648 428.11,-654 428.11,-660 428.11,-660 428.11,-672 428.11,-672 428.11,-678 422.11,-684 416.11,-684"/>
<text text-anchor="middle" x="370.11" y="-663.5" font-family="sans" font-size="10.00">laplace_coords_hipp</text>
</g>
<!-- 10&#45;&gt;7 -->
<g id="edge66" class="edge">
<title>10&#45;&gt;7</title>
<path fill="none" stroke="grey" stroke-width="2" d="M428.14,-649.96C431.17,-649.27 434.17,-648.61 437.11,-648 532.79,-627.96 558.24,-631.19 654.11,-612 765.58,-589.69 894.18,-558.28 969.28,-539.35"/>
<polygon fill="grey" stroke="grey" stroke-width="2" points="970.22,-542.72 979.06,-536.88 968.51,-535.94 970.22,-542.72"/>
</g>
<!-- 10&#45;&gt;26 -->
<g id="edge67" class="edge">
<title>10&#45;&gt;26</title>
<path fill="none" stroke="grey" stroke-width="2" d="M428.45,-649.62C431.37,-649.03 434.27,-648.49 437.11,-648 612.62,-618.01 658.92,-629.58 836.11,-612 862.12,-609.42 890.53,-606.4 915.95,-603.63"/>
<polygon fill="grey" stroke="grey" stroke-width="2" points="916.34,-607.11 925.9,-602.54 915.58,-600.15 916.34,-607.11"/>
</g>
<!-- 41 -->
<g id="node45" class="node">
<title>41</title>
<path fill="none" stroke="#d89556" stroke-width="2" d="M781.61,-540C781.61,-540 594.61,-540 594.61,-540 588.61,-540 582.61,-534 582.61,-528 582.61,-528 582.61,-516 582.61,-516 582.61,-510 588.61,-504 594.61,-504 594.61,-504 781.61,-504 781.61,-504 787.61,-504 793.61,-510 793.61,-516 793.61,-516 793.61,-528 793.61,-528 793.61,-534 787.61,-540 781.61,-540"/>
<text text-anchor="middle" x="688.11" y="-519.5" font-family="sans" font-size="10.00">label_subfields_from_vol_coords_corobl</text>
</g>
<!-- 10&#45;&gt;41 -->
<g id="edge68" class="edge">
<title>10&#45;&gt;41</title>
<path fill="none" stroke="grey" stroke-width="2" d="M395.65,-647.98C425.5,-628.63 476.84,-597.01 524.11,-576 553.09,-563.11 586.2,-551.81 615.04,-542.99"/>
<polygon fill="grey" stroke="grey" stroke-width="2" points="616.08,-546.33 624.64,-540.1 614.06,-539.63 616.08,-546.33"/>
</g>
<!-- 10&#45;&gt;44 -->
<g id="edge69" class="edge">
<title>10&#45;&gt;44</title>
<path fill="none" stroke="grey" stroke-width="2" d="M361.18,-647.69C351.14,-627.7 334.83,-593.62 324.11,-563 304.96,-508.34 289.96,-442.06 282.43,-405.84"/>
<polygon fill="grey" stroke="grey" stroke-width="2" points="285.86,-405.13 280.42,-396.03 279,-406.53 285.86,-405.13"/>
</g>
<!-- 24 -->
<g id="node19" class="node">
<title>24</title>
<path fill="none" stroke="#88d856" stroke-width="2" d="M633.11,-612C633.11,-612 545.11,-612 545.11,-612 539.11,-612 533.11,-606 533.11,-600 533.11,-600 533.11,-588 533.11,-588 533.11,-582 539.11,-576 545.11,-576 545.11,-576 633.11,-576 633.11,-576 639.11,-576 645.11,-582 645.11,-588 645.11,-588 645.11,-600 645.11,-600 645.11,-606 639.11,-612 633.11,-612"/>
<text text-anchor="middle" x="589.11" y="-591.5" font-family="sans" font-size="10.00">equivolume_coords</text>
</g>
<!-- 24&#45;&gt;7 -->
<g id="edge89" class="edge">
<title>24&#45;&gt;7</title>
<path fill="none" stroke="grey" stroke-width="2" d="M645.49,-585.31C687.59,-579.47 746.5,-571.09 798.11,-563 856,-553.92 921.75,-542.64 968.96,-534.38"/>
<polygon fill="grey" stroke="grey" stroke-width="2" points="969.79,-537.79 979.04,-532.61 968.58,-530.9 969.79,-537.79"/>
</g>
<!-- 24&#45;&gt;41 -->
<g id="edge90" class="edge">
<title>24&#45;&gt;41</title>
<path fill="none" stroke="grey" stroke-width="2" d="M613.32,-575.88C626.03,-566.89 641.77,-555.76 655.53,-546.03"/>
<polygon fill="grey" stroke="grey" stroke-width="2" points="657.65,-548.82 663.79,-540.19 653.61,-543.11 657.65,-548.82"/>
</g>
<!-- 24&#45;&gt;44 -->
<g id="edge91" class="edge">
<title>24&#45;&gt;44</title>
<path fill="none" stroke="grey" stroke-width="2" d="M543.18,-575.9C501.44,-558.82 439.74,-529.56 395.11,-491 370.55,-469.79 375.22,-454.78 352.11,-432 340.85,-420.91 327.07,-410.46 314.4,-401.82"/>
<polygon fill="grey" stroke="grey" stroke-width="2" points="316.12,-398.76 305.85,-396.14 312.24,-404.59 316.12,-398.76"/>
</g>
<!-- 25 -->
<g id="node20" class="node">
<title>25</title>
<path fill="none" stroke="#a7d856" stroke-width="2" d="M573.61,-684C573.61,-684 458.61,-684 458.61,-684 452.61,-684 446.61,-678 446.61,-672 446.61,-672 446.61,-660 446.61,-660 446.61,-654 452.61,-648 458.61,-648 458.61,-648 573.61,-648 573.61,-648 579.61,-648 585.61,-654 585.61,-660 585.61,-660 585.61,-672 585.61,-672 585.61,-678 579.61,-684 573.61,-684"/>
<text text-anchor="middle" x="516.11" y="-663.5" font-family="sans" font-size="10.00">prep_equivolume_coords</text>
</g>
<!-- 25&#45;&gt;24 -->
<g id="edge21" class="edge">
<title>25&#45;&gt;24</title>
<path fill="none" stroke="grey" stroke-width="2" d="M534.15,-647.7C543.17,-639.05 554.22,-628.45 564.05,-619.03"/>
<polygon fill="grey" stroke="grey" stroke-width="2" points="566.47,-621.55 571.27,-612.1 561.63,-616.5 566.47,-621.55"/>
</g>
<!-- 38 -->
<g id="node21" class="node">
<title>38</title>
<path fill="none" stroke="#56d0d8" stroke-width="2" d="M724.11,-684C724.11,-684 616.11,-684 616.11,-684 610.11,-684 604.11,-678 604.11,-672 604.11,-672 604.11,-660 604.11,-660 604.11,-654 610.11,-648 616.11,-648 616.11,-648 724.11,-648 724.11,-648 730.11,-648 736.11,-654 736.11,-660 736.11,-660 736.11,-672 736.11,-672 736.11,-678 730.11,-684 724.11,-684"/>
<text text-anchor="middle" x="670.11" y="-663.5" font-family="sans" font-size="10.00">laplace_coords_dentate</text>
</g>
<!-- 38&#45;&gt;37 -->
<g id="edge97" class="edge">
<title>38&#45;&gt;37</title>
<path fill="none" stroke="grey" stroke-width="2" d="M729.03,-647.9C761,-638.19 801.05,-625.34 836.11,-612 872.93,-597.99 878.89,-585.57 917.11,-576 994.48,-556.62 1019.54,-585.35 1096.11,-563 1109.85,-558.99 1123.91,-552.19 1136.04,-545.32"/>
<polygon fill="grey" stroke="grey" stroke-width="2" points="1138.06,-548.19 1144.9,-540.1 1134.51,-542.16 1138.06,-548.19"/>
</g>
<!-- 38&#45;&gt;26 -->
<g id="edge96" class="edge">
<title>38&#45;&gt;26</title>
<path fill="none" stroke="grey" stroke-width="2" d="M736.25,-650.67C788.37,-639.37 861.15,-623.6 915.93,-611.73"/>
<polygon fill="grey" stroke="grey" stroke-width="2" points="916.91,-615.09 925.94,-609.56 915.43,-608.25 916.91,-615.09"/>
</g>
<!-- 38&#45;&gt;44 -->
<g id="edge98" class="edge">
<title>38&#45;&gt;44</title>
<path fill="none" stroke="grey" stroke-width="2" d="M604.1,-650.4C547.75,-635.49 466.76,-608.03 408.11,-563 375.95,-538.31 375.84,-523.86 352.11,-491 331.18,-462.03 308.53,-427.76 293.66,-404.83"/>
<polygon fill="grey" stroke="grey" stroke-width="2" points="296.54,-402.84 288.17,-396.34 290.66,-406.63 296.54,-402.84"/>
</g>
<!-- 1 -->
<g id="node22" class="node">
<title>1</title>
<path fill="none" stroke="#d87d56" stroke-width="2" d="M1874.11,-108C1874.11,-108 1776.11,-108 1776.11,-108 1770.11,-108 1764.11,-102 1764.11,-96 1764.11,-96 1764.11,-84 1764.11,-84 1764.11,-78 1770.11,-72 1776.11,-72 1776.11,-72 1874.11,-72 1874.11,-72 1880.11,-72 1886.11,-78 1886.11,-84 1886.11,-84 1886.11,-96 1886.11,-96 1886.11,-102 1880.11,-108 1874.11,-108"/>
<text text-anchor="middle" x="1825.11" y="-87.5" font-family="sans" font-size="10.00">create_spec_file_hipp</text>
</g>
<!-- 1&#45;&gt;0 -->
<g id="edge60" class="edge">
<title>1&#45;&gt;0</title>
<path fill="none" stroke="grey" stroke-width="2" d="M1763.92,-84.65C1578.59,-71.46 1026.93,-32.22 878.33,-21.65"/>
<polygon fill="grey" stroke="grey" stroke-width="2" points="878.56,-18.16 868.34,-20.94 878.06,-25.14 878.56,-18.16"/>
</g>
<!-- 2 -->
<g id="node23" class="node">
<title>2</title>
<path fill="none" stroke="#70d856" stroke-width="2" d="M2195.61,-252C2195.61,-252 2098.61,-252 2098.61,-252 2092.61,-252 2086.61,-246 2086.61,-240 2086.61,-240 2086.61,-228 2086.61,-228 2086.61,-222 2092.61,-216 2098.61,-216 2098.61,-216 2195.61,-216 2195.61,-216 2201.61,-216 2207.61,-222 2207.61,-228 2207.61,-228 2207.61,-240 2207.61,-240 2207.61,-246 2201.61,-252 2195.61,-252"/>
<text text-anchor="middle" x="2147.11" y="-231.5" font-family="sans" font-size="10.00">calculate_gyrification</text>
</g>
<!-- 2&#45;&gt;1 -->
<g id="edge22" class="edge">
<title>2&#45;&gt;1</title>
<path fill="none" stroke="grey" stroke-width="2" d="M2135.11,-215.68C2120.02,-195.28 2092.18,-161.91 2060.11,-144 2009.65,-115.82 1945.2,-102.62 1896.56,-96.44"/>
<polygon fill="grey" stroke="grey" stroke-width="2" points="1896.78,-92.94 1886.44,-95.23 1895.95,-99.89 1896.78,-92.94"/>
</g>
<!-- 35 -->
<g id="node24" class="node">
<title>35</title>
<path fill="none" stroke="#ced856" stroke-width="2" d="M2039.11,-180C2039.11,-180 1915.11,-180 1915.11,-180 1909.11,-180 1903.11,-174 1903.11,-168 1903.11,-168 1903.11,-156 1903.11,-156 1903.11,-150 1909.11,-144 1915.11,-144 1915.11,-144 2039.11,-144 2039.11,-144 2045.11,-144 2051.11,-150 2051.11,-156 2051.11,-156 2051.11,-168 2051.11,-168 2051.11,-174 2045.11,-180 2039.11,-180"/>
<text text-anchor="middle" x="1977.11" y="-159.5" font-family="sans" font-size="10.00">create_dscalar_metric_cifti</text>
</g>
<!-- 2&#45;&gt;35 -->
<g id="edge23" class="edge">
<title>2&#45;&gt;35</title>
<path fill="none" stroke="grey" stroke-width="2" d="M2105.52,-215.88C2082.07,-206.22 2052.6,-194.09 2027.81,-183.88"/>
<polygon fill="grey" stroke="grey" stroke-width="2" points="2029.14,-180.64 2018.56,-180.07 2026.47,-187.11 2029.14,-180.64"/>
</g>
<!-- 36 -->
<g id="node25" class="node">
<title>36</title>
<path fill="none" stroke="#97d856" stroke-width="2" d="M2256.11,-108C2256.11,-108 2142.11,-108 2142.11,-108 2136.11,-108 2130.11,-102 2130.11,-96 2130.11,-96 2130.11,-84 2130.11,-84 2130.11,-78 2136.11,-72 2142.11,-72 2142.11,-72 2256.11,-72 2256.11,-72 2262.11,-72 2268.11,-78 2268.11,-84 2268.11,-84 2268.11,-96 2268.11,-96 2268.11,-102 2262.11,-108 2256.11,-108"/>
<text text-anchor="middle" x="2199.11" y="-87.5" font-family="sans" font-size="10.00">create_spec_file_dentate</text>
</g>
<!-- 2&#45;&gt;36 -->
<g id="edge24" class="edge">
<title>2&#45;&gt;36</title>
<path fill="none" stroke="grey" stroke-width="2" d="M2173.69,-215.91C2185.34,-206.81 2197.79,-194.49 2204.11,-180 2212.58,-160.55 2210.54,-136.41 2206.82,-118.18"/>
<polygon fill="grey" stroke="grey" stroke-width="2" points="2210.18,-117.15 2204.51,-108.21 2203.36,-118.74 2210.18,-117.15"/>
</g>
<!-- 35&#45;&gt;1 -->
<g id="edge45" class="edge">
<title>35&#45;&gt;1</title>
<path fill="none" stroke="grey" stroke-width="2" d="M1939.92,-143.88C1919.24,-134.35 1893.3,-122.41 1871.32,-112.28"/>
<polygon fill="grey" stroke="grey" stroke-width="2" points="1872.72,-109.07 1862.17,-108.07 1869.79,-115.43 1872.72,-109.07"/>
</g>
<!-- 35&#45;&gt;36 -->
<g id="edge46" class="edge">
<title>35&#45;&gt;36</title>
<path fill="none" stroke="grey" stroke-width="2" d="M2031.13,-143.97C2062.55,-134.06 2102.33,-121.51 2135.29,-111.12"/>
<polygon fill="grey" stroke="grey" stroke-width="2" points="2136.36,-114.46 2144.84,-108.11 2134.25,-107.78 2136.36,-114.46"/>
</g>
<!-- 36&#45;&gt;0 -->
<g id="edge94" class="edge">
<title>36&#45;&gt;0</title>
<path fill="none" stroke="grey" stroke-width="2" d="M2129.99,-85.02C2068.38,-81.51 1975.74,-76.28 1895.11,-72 1497.42,-50.88 1015.2,-27.42 878.71,-20.81"/>
<polygon fill="grey" stroke="grey" stroke-width="2" points="878.54,-17.3 868.39,-20.32 878.21,-24.29 878.54,-17.3"/>
</g>
<!-- 3 -->
<g id="node26" class="node">
<title>3</title>
<path fill="none" stroke="#5663d8" stroke-width="2" d="M2132.61,-324C2132.61,-324 2027.61,-324 2027.61,-324 2021.61,-324 2015.61,-318 2015.61,-312 2015.61,-312 2015.61,-300 2015.61,-300 2015.61,-294 2021.61,-288 2027.61,-288 2027.61,-288 2132.61,-288 2132.61,-288 2138.61,-288 2144.61,-294 2144.61,-300 2144.61,-300 2144.61,-312 2144.61,-312 2144.61,-318 2138.61,-324 2132.61,-324"/>
<text text-anchor="middle" x="2080.11" y="-303.5" font-family="sans" font-size="10.00">calculate_surface_area</text>
</g>
<!-- 3&#45;&gt;2 -->
<g id="edge25" class="edge">
<title>3&#45;&gt;2</title>
<path fill="none" stroke="grey" stroke-width="2" d="M2096.67,-287.7C2104.78,-279.22 2114.69,-268.86 2123.58,-259.58"/>
<polygon fill="grey" stroke="grey" stroke-width="2" points="2126.35,-261.75 2130.73,-252.1 2121.29,-256.91 2126.35,-261.75"/>
</g>
<!-- 4&#45;&gt;50 -->
<g id="edge61" class="edge">
<title>4&#45;&gt;50</title>
<path fill="none" stroke="grey" stroke-width="2" d="M1645.46,-373.29C1468.09,-361.23 909.49,-323.27 727.82,-310.92"/>
<polygon fill="grey" stroke="grey" stroke-width="2" points="727.88,-307.42 717.67,-310.23 727.41,-314.4 727.88,-307.42"/>
</g>
<!-- 4&#45;&gt;1 -->
<g id="edge26" class="edge">
<title>4&#45;&gt;1</title>
<path fill="none" stroke="grey" stroke-width="2" d="M1691.59,-359.63C1677.88,-329.09 1654.63,-264.4 1677.11,-216 1698.65,-169.6 1746.84,-134.21 1782.41,-113.13"/>
<polygon fill="grey" stroke="grey" stroke-width="2" points="1784.25,-116.11 1791.16,-108.08 1780.75,-110.04 1784.25,-116.11"/>
</g>
<!-- 4&#45;&gt;36 -->
<g id="edge30" class="edge">
<title>4&#45;&gt;36</title>
<path fill="none" stroke="grey" stroke-width="2" d="M1754.99,-376.08C1868.1,-373.78 2119.44,-366.53 2153.11,-347 2196.93,-321.58 2201.48,-300.51 2216.11,-252 2229.87,-206.35 2217.93,-150.5 2208.3,-118.02"/>
<polygon fill="grey" stroke="grey" stroke-width="2" points="2211.6,-116.85 2205.3,-108.34 2204.92,-118.92 2211.6,-116.85"/>
</g>
<!-- 4&#45;&gt;3 -->
<g id="edge27" class="edge">
<title>4&#45;&gt;3</title>
<path fill="none" stroke="grey" stroke-width="2" d="M1754.79,-372.86C1804.52,-368.48 1879.74,-360.33 1944.11,-347 1969.2,-341.8 1996.38,-334.22 2019.8,-327.04"/>
<polygon fill="grey" stroke="grey" stroke-width="2" points="2021.07,-330.31 2029.59,-324 2019,-323.63 2021.07,-330.31"/>
</g>
<!-- 31 -->
<g id="node28" class="node">
<title>31</title>
<path fill="none" stroke="#d87556" stroke-width="2" d="M1923.61,-324C1923.61,-324 1852.61,-324 1852.61,-324 1846.61,-324 1840.61,-318 1840.61,-312 1840.61,-312 1840.61,-300 1840.61,-300 1840.61,-294 1846.61,-288 1852.61,-288 1852.61,-288 1923.61,-288 1923.61,-288 1929.61,-288 1935.61,-294 1935.61,-300 1935.61,-300 1935.61,-312 1935.61,-312 1935.61,-318 1929.61,-324 1923.61,-324"/>
<text text-anchor="middle" x="1888.11" y="-303.5" font-family="sans" font-size="10.00">smooth_surface</text>
</g>
<!-- 4&#45;&gt;31 -->
<g id="edge28" class="edge">
<title>4&#45;&gt;31</title>
<path fill="none" stroke="grey" stroke-width="2" d="M1746.1,-359.88C1772.25,-350.14 1805.19,-337.87 1832.76,-327.61"/>
<polygon fill="grey" stroke="grey" stroke-width="2" points="1834.12,-330.84 1842.27,-324.07 1831.67,-324.28 1834.12,-330.84"/>
</g>
<!-- 32 -->
<g id="node29" class="node">
<title>32</title>
<path fill="none" stroke="#d86e56" stroke-width="2" d="M1856.11,-252C1856.11,-252 1698.11,-252 1698.11,-252 1692.11,-252 1686.11,-246 1686.11,-240 1686.11,-240 1686.11,-228 1686.11,-228 1686.11,-222 1692.11,-216 1698.11,-216 1698.11,-216 1856.11,-216 1856.11,-216 1862.11,-216 1868.11,-222 1868.11,-228 1868.11,-228 1868.11,-240 1868.11,-240 1868.11,-246 1862.11,-252 1856.11,-252"/>
<text text-anchor="middle" x="1777.11" y="-231.5" font-family="sans" font-size="10.00">calculate_thickness_from_surface</text>
</g>
<!-- 4&#45;&gt;32 -->
<g id="edge29" class="edge">
<title>4&#45;&gt;32</title>
<path fill="none" stroke="grey" stroke-width="2" d="M1709.39,-359.87C1722.69,-335.35 1747.26,-290.03 1762.87,-261.26"/>
<polygon fill="grey" stroke="grey" stroke-width="2" points="1766.09,-262.65 1767.78,-252.19 1759.94,-259.31 1766.09,-262.65"/>
</g>
<!-- 30 -->
<g id="node34" class="node">
<title>30</title>
<path fill="none" stroke="#56d8b9" stroke-width="2" d="M2056.11,-252C2056.11,-252 1898.11,-252 1898.11,-252 1892.11,-252 1886.11,-246 1886.11,-240 1886.11,-240 1886.11,-228 1886.11,-228 1886.11,-222 1892.11,-216 1898.11,-216 1898.11,-216 2056.11,-216 2056.11,-216 2062.11,-216 2068.11,-222 2068.11,-228 2068.11,-228 2068.11,-240 2068.11,-240 2068.11,-246 2062.11,-252 2056.11,-252"/>
<text text-anchor="middle" x="1977.11" y="-231.5" font-family="sans" font-size="10.00">calculate_curvature_from_surface</text>
</g>
<!-- 31&#45;&gt;30 -->
<g id="edge40" class="edge">
<title>31&#45;&gt;30</title>
<path fill="none" stroke="grey" stroke-width="2" d="M1910.11,-287.7C1921.31,-278.88 1935.11,-268.03 1947.26,-258.47"/>
<polygon fill="grey" stroke="grey" stroke-width="2" points="1949.66,-261.04 1955.36,-252.1 1945.34,-255.54 1949.66,-261.04"/>
</g>
<!-- 32&#45;&gt;1 -->
<g id="edge41" class="edge">
<title>32&#45;&gt;1</title>
<path fill="none" stroke="grey" stroke-width="2" d="M1782.9,-215.87C1791.11,-191.56 1806.24,-146.82 1815.97,-118.01"/>
<polygon fill="grey" stroke="grey" stroke-width="2" points="1819.41,-118.78 1819.3,-108.19 1812.78,-116.54 1819.41,-118.78"/>
</g>
<!-- 32&#45;&gt;35 -->
<g id="edge42" class="edge">
<title>32&#45;&gt;35</title>
<path fill="none" stroke="grey" stroke-width="2" d="M1825.78,-215.97C1853.72,-206.19 1889,-193.84 1918.47,-183.52"/>
<polygon fill="grey" stroke="grey" stroke-width="2" points="1919.94,-186.72 1928.22,-180.11 1917.62,-180.11 1919.94,-186.72"/>
</g>
<!-- 5 -->
<g id="node30" class="node">
<title>5</title>
<path fill="none" stroke="#5673d8" stroke-width="2" d="M1712.11,-468C1712.11,-468 1618.11,-468 1618.11,-468 1612.11,-468 1606.11,-462 1606.11,-456 1606.11,-456 1606.11,-444 1606.11,-444 1606.11,-438 1612.11,-432 1618.11,-432 1618.11,-432 1712.11,-432 1712.11,-432 1718.11,-432 1724.11,-438 1724.11,-444 1724.11,-444 1724.11,-456 1724.11,-456 1724.11,-462 1718.11,-468 1712.11,-468"/>
<text text-anchor="middle" x="1665.11" y="-447.5" font-family="sans" font-size="10.00">correct_nan_vertices</text>
</g>
<!-- 5&#45;&gt;4 -->
<g id="edge31" class="edge">
<title>5&#45;&gt;4</title>
<path fill="none" stroke="grey" stroke-width="2" d="M1673.76,-431.7C1677.74,-423.73 1682.56,-414.1 1686.97,-405.26"/>
<polygon fill="grey" stroke="grey" stroke-width="2" points="1690.21,-406.61 1691.55,-396.1 1683.95,-403.48 1690.21,-406.61"/>
</g>
<!-- 6&#45;&gt;5 -->
<g id="edge32" class="edge">
<title>6&#45;&gt;5</title>
<path fill="none" stroke="grey" stroke-width="2" d="M1638.76,-503.7C1642.74,-495.73 1647.56,-486.1 1651.97,-477.26"/>
<polygon fill="grey" stroke="grey" stroke-width="2" points="1655.21,-478.61 1656.55,-468.1 1648.95,-475.48 1655.21,-478.61"/>
</g>
<!-- 27&#45;&gt;6 -->
<g id="edge33" class="edge">
<title>27&#45;&gt;6</title>
<path fill="none" stroke="grey" stroke-width="2" d="M1630.11,-575.7C1630.11,-567.98 1630.11,-558.71 1630.11,-550.11"/>
<polygon fill="grey" stroke="grey" stroke-width="2" points="1633.61,-550.1 1630.11,-540.1 1626.61,-550.1 1633.61,-550.1"/>
</g>
<!-- 28 -->
<g id="node33" class="node">
<title>28</title>
<path fill="none" stroke="#d8ac56" stroke-width="2" d="M2238.11,-684C2238.11,-684 2134.11,-684 2134.11,-684 2128.11,-684 2122.11,-678 2122.11,-672 2122.11,-672 2122.11,-660 2122.11,-660 2122.11,-654 2128.11,-648 2134.11,-648 2134.11,-648 2238.11,-648 2238.11,-648 2244.11,-648 2250.11,-654 2250.11,-660 2250.11,-660 2250.11,-672 2250.11,-672 2250.11,-678 2244.11,-684 2238.11,-684"/>
<text text-anchor="middle" x="2186.11" y="-663.5" font-family="sans" font-size="10.00">cp_template_to_unfold</text>
</g>
<!-- 28&#45;&gt;1 -->
<g id="edge34" class="edge">
<title>28&#45;&gt;1</title>
<path fill="none" stroke="grey" stroke-width="2" d="M2194.4,-647.97C2206.38,-621.77 2227.11,-569.7 2227.11,-523 2227.11,-523 2227.11,-523 2227.11,-305 2227.11,-265.14 2238.3,-249.1 2216.11,-216 2179.75,-161.79 2149.29,-166.73 2088.11,-144 2025.35,-120.69 1950.15,-106.85 1896.27,-99.19"/>
<polygon fill="grey" stroke="grey" stroke-width="2" points="1896.51,-95.69 1886.13,-97.79 1895.55,-102.62 1896.51,-95.69"/>
</g>
<!-- 28&#45;&gt;36 -->
<g id="edge36" class="edge">
<title>28&#45;&gt;36</title>
<path fill="none" stroke="grey" stroke-width="2" d="M2206.93,-647.62C2216.56,-638.2 2226.99,-625.7 2232.11,-612 2304.88,-417.12 2273.33,-346.12 2224.11,-144 2221.87,-134.81 2217.96,-125.3 2213.88,-116.92"/>
<polygon fill="grey" stroke="grey" stroke-width="2" points="2216.99,-115.3 2209.29,-108.01 2210.76,-118.5 2216.99,-115.3"/>
</g>
<!-- 28&#45;&gt;27 -->
<g id="edge35" class="edge">
<title>28&#45;&gt;27</title>
<path fill="none" stroke="grey" stroke-width="2" d="M2122.05,-656.94C2018.63,-643.92 1815.35,-618.32 1705.25,-604.46"/>
<polygon fill="grey" stroke="grey" stroke-width="2" points="1705.57,-600.97 1695.21,-603.2 1704.7,-607.92 1705.57,-600.97"/>
</g>
<!-- 30&#45;&gt;1 -->
<g id="edge37" class="edge">
<title>30&#45;&gt;1</title>
<path fill="none" stroke="grey" stroke-width="2" d="M1944.95,-215.96C1928.76,-206.55 1909.39,-193.95 1894.11,-180 1873.41,-161.11 1854.26,-135.48 1841.42,-116.58"/>
<polygon fill="grey" stroke="grey" stroke-width="2" points="1844.26,-114.54 1835.81,-108.15 1838.44,-118.42 1844.26,-114.54"/>
</g>
<!-- 30&#45;&gt;35 -->
<g id="edge38" class="edge">
<title>30&#45;&gt;35</title>
<path fill="none" stroke="grey" stroke-width="2" d="M1977.11,-215.7C1977.11,-207.98 1977.11,-198.71 1977.11,-190.11"/>
<polygon fill="grey" stroke="grey" stroke-width="2" points="1980.61,-190.1 1977.11,-180.1 1973.61,-190.1 1980.61,-190.1"/>
</g>
<!-- 30&#45;&gt;36 -->
<g id="edge39" class="edge">
<title>30&#45;&gt;36</title>
<path fill="none" stroke="grey" stroke-width="2" d="M2004.02,-215.82C2020.27,-205.45 2041.38,-191.97 2060.11,-180 2095.4,-157.43 2135.71,-131.62 2163.8,-113.63"/>
<polygon fill="grey" stroke="grey" stroke-width="2" points="2165.93,-116.41 2172.46,-108.07 2162.16,-110.52 2165.93,-116.41"/>
</g>
<!-- 33 -->
<g id="node35" class="node">
<title>33</title>
<path fill="none" stroke="#d8d356" stroke-width="2" d="M1623.11,-180C1623.11,-180 1557.11,-180 1557.11,-180 1551.11,-180 1545.11,-174 1545.11,-168 1545.11,-168 1545.11,-156 1545.11,-156 1545.11,-150 1551.11,-144 1557.11,-144 1557.11,-144 1623.11,-144 1623.11,-144 1629.11,-144 1635.11,-150 1635.11,-156 1635.11,-156 1635.11,-168 1635.11,-168 1635.11,-174 1629.11,-180 1623.11,-180"/>
<text text-anchor="middle" x="1590.11" y="-159.5" font-family="sans" font-size="10.00">nii_to_label_gii</text>
</g>
<!-- 33&#45;&gt;1 -->
<g id="edge43" class="edge">
<title>33&#45;&gt;1</title>
<path fill="none" stroke="grey" stroke-width="2" d="M1635.14,-147.59C1669.91,-137.23 1718.57,-122.73 1757.93,-111.01"/>
<polygon fill="grey" stroke="grey" stroke-width="2" points="1759.14,-114.3 1767.73,-108.09 1757.15,-107.59 1759.14,-114.3"/>
</g>
<!-- 34&#45;&gt;33 -->
<g id="edge44" class="edge">
<title>34&#45;&gt;33</title>
<path fill="none" stroke="grey" stroke-width="2" d="M1581.07,-215.7C1582.39,-207.98 1583.98,-198.71 1585.46,-190.11"/>
<polygon fill="grey" stroke="grey" stroke-width="2" points="1588.93,-190.55 1587.17,-180.1 1582.03,-189.37 1588.93,-190.55"/>
</g>
<!-- 34&#45;&gt;41 -->
<g id="edge93" class="edge">
<title>34&#45;&gt;41</title>
<path fill="none" stroke="grey" stroke-width="2" d="M1507.85,-251.94C1386.36,-282.14 1130.04,-349.91 922.11,-432 867.2,-453.68 858.4,-470.33 803.11,-491 793.37,-494.64 783,-498.01 772.64,-501.08"/>
<polygon fill="grey" stroke="grey" stroke-width="2" points="771.38,-497.8 762.73,-503.92 773.31,-504.53 771.38,-497.8"/>
</g>
<!-- 11 -->
<g id="node37" class="node">
<title>11</title>
<path fill="none" stroke="#d88d56" stroke-width="2" d="M802.61,-756C802.61,-756 697.61,-756 697.61,-756 691.61,-756 685.61,-750 685.61,-744 685.61,-744 685.61,-732 685.61,-732 685.61,-726 691.61,-720 697.61,-720 697.61,-720 802.61,-720 802.61,-720 808.61,-720 814.61,-726 814.61,-732 814.61,-732 814.61,-744 814.61,-744 814.61,-750 808.61,-756 802.61,-756"/>
<text text-anchor="middle" x="750.11" y="-735.5" font-family="sans" font-size="10.00">reinsert_subject_labels</text>
</g>
<!-- 11&#45;&gt;10 -->
<g id="edge70" class="edge">
<title>11&#45;&gt;10</title>
<path fill="none" stroke="grey" stroke-width="2" d="M685.53,-734.15C607.67,-730.14 481.72,-721.63 437.11,-707 424.84,-702.98 412.42,-696.4 401.66,-689.74"/>
<polygon fill="grey" stroke="grey" stroke-width="2" points="403.35,-686.66 393.05,-684.17 399.55,-692.54 403.35,-686.66"/>
</g>
<!-- 11&#45;&gt;25 -->
<g id="edge71" class="edge">
<title>11&#45;&gt;25</title>
<path fill="none" stroke="grey" stroke-width="2" d="M685.34,-728.58C657.15,-723.87 624.02,-716.9 595.11,-707 581.18,-702.23 566.62,-695.43 553.84,-688.79"/>
<polygon fill="grey" stroke="grey" stroke-width="2" points="555.36,-685.63 544.89,-684.01 552.07,-691.81 555.36,-685.63"/>
</g>
<!-- 40 -->
<g id="node43" class="node">
<title>40</title>
<path fill="none" stroke="#56b1d8" stroke-width="2" d="M782.11,-468C782.11,-468 600.11,-468 600.11,-468 594.11,-468 588.11,-462 588.11,-456 588.11,-456 588.11,-444 588.11,-444 588.11,-438 594.11,-432 600.11,-432 600.11,-432 782.11,-432 782.11,-432 788.11,-432 794.11,-438 794.11,-444 794.11,-444 794.11,-456 794.11,-456 794.11,-462 788.11,-468 782.11,-468"/>
<text text-anchor="middle" x="691.11" y="-447.5" font-family="sans" font-size="10.00">combine_tissue_subfield_labels_corobl</text>
</g>
<!-- 11&#45;&gt;40 -->
<g id="edge72" class="edge">
<title>11&#45;&gt;40</title>
<path fill="none" stroke="grey" stroke-width="2" d="M747.06,-719.89C742.4,-688.02 737.2,-618.91 770.11,-576 779.45,-563.82 793.53,-575.73 802.11,-563 816.75,-541.25 816.09,-526.18 802.11,-504 793.47,-490.31 780.23,-480.09 765.85,-472.47"/>
<polygon fill="grey" stroke="grey" stroke-width="2" points="767.31,-469.29 756.79,-468.05 764.25,-475.58 767.31,-469.29"/>
</g>
<!-- 12 -->
<g id="node38" class="node">
<title>12</title>
<path fill="none" stroke="#d8bc56" stroke-width="2" d="M803.11,-828C803.11,-828 699.11,-828 699.11,-828 693.11,-828 687.11,-822 687.11,-816 687.11,-816 687.11,-804 687.11,-804 687.11,-798 693.11,-792 699.11,-792 699.11,-792 803.11,-792 803.11,-792 809.11,-792 815.11,-798 815.11,-804 815.11,-804 815.11,-816 815.11,-816 815.11,-822 809.11,-828 803.11,-828"/>
<text text-anchor="middle" x="751.11" y="-807.5" font-family="sans" font-size="10.00">template_shape_inject</text>
</g>
<!-- 12&#45;&gt;11 -->
<g id="edge47" class="edge">
<title>12&#45;&gt;11</title>
<path fill="none" stroke="grey" stroke-width="2" d="M750.86,-791.7C750.75,-783.98 750.62,-774.71 750.49,-766.11"/>
<polygon fill="grey" stroke="grey" stroke-width="2" points="753.99,-766.05 750.35,-756.1 746.99,-766.15 753.99,-766.05"/>
</g>
<!-- 13 -->
<g id="node39" class="node">
<title>13</title>
<path fill="none" stroke="#d8cb56" stroke-width="2" d="M782.61,-1044C782.61,-1044 673.61,-1044 673.61,-1044 667.61,-1044 661.61,-1038 661.61,-1032 661.61,-1032 661.61,-1020 661.61,-1020 661.61,-1014 667.61,-1008 673.61,-1008 673.61,-1008 782.61,-1008 782.61,-1008 788.61,-1008 794.61,-1014 794.61,-1020 794.61,-1020 794.61,-1032 794.61,-1032 794.61,-1038 788.61,-1044 782.61,-1044"/>
<text text-anchor="middle" x="728.11" y="-1023.5" font-family="sans" font-size="10.00">import_template_shape</text>
</g>
<!-- 13&#45;&gt;12 -->
<g id="edge48" class="edge">
<title>13&#45;&gt;12</title>
<path fill="none" stroke="grey" stroke-width="2" d="M741.67,-1007.97C748.66,-998.09 756.47,-985.05 760.11,-972 772.79,-926.45 764.82,-870.92 757.93,-838.41"/>
<polygon fill="grey" stroke="grey" stroke-width="2" points="761.27,-837.3 755.66,-828.31 754.44,-838.84 761.27,-837.3"/>
</g>
<!-- 22 -->
<g id="node40" class="node">
<title>22</title>
<path fill="none" stroke="#569ad8" stroke-width="2" d="M739.11,-972C739.11,-972 639.11,-972 639.11,-972 633.11,-972 627.11,-966 627.11,-960 627.11,-960 627.11,-948 627.11,-948 627.11,-942 633.11,-936 639.11,-936 639.11,-936 739.11,-936 739.11,-936 745.11,-936 751.11,-942 751.11,-948 751.11,-948 751.11,-960 751.11,-960 751.11,-966 745.11,-972 739.11,-972"/>
<text text-anchor="middle" x="689.11" y="-951.5" font-family="sans" font-size="10.00">prep_segs_for_greedy</text>
</g>
<!-- 13&#45;&gt;22 -->
<g id="edge49" class="edge">
<title>13&#45;&gt;22</title>
<path fill="none" stroke="grey" stroke-width="2" d="M718.47,-1007.7C713.98,-999.64 708.55,-989.89 703.58,-980.98"/>
<polygon fill="grey" stroke="grey" stroke-width="2" points="706.56,-979.14 698.64,-972.1 700.44,-982.54 706.56,-979.14"/>
</g>
<!-- 21 -->
<g id="node41" class="node">
<title>21</title>
<path fill="none" stroke="#56d8b1" stroke-width="2" d="M735.11,-900C735.11,-900 643.11,-900 643.11,-900 637.11,-900 631.11,-894 631.11,-888 631.11,-888 631.11,-876 631.11,-876 631.11,-870 637.11,-864 643.11,-864 643.11,-864 735.11,-864 735.11,-864 741.11,-864 747.11,-870 747.11,-876 747.11,-876 747.11,-888 747.11,-888 747.11,-894 741.11,-900 735.11,-900"/>
<text text-anchor="middle" x="689.11" y="-879.5" font-family="sans" font-size="10.00">template_shape_reg</text>
</g>
<!-- 22&#45;&gt;21 -->
<g id="edge52" class="edge">
<title>22&#45;&gt;21</title>
<path fill="none" stroke="grey" stroke-width="2" d="M689.11,-935.7C689.11,-927.98 689.11,-918.71 689.11,-910.11"/>
<polygon fill="grey" stroke="grey" stroke-width="2" points="692.61,-910.1 689.11,-900.1 685.61,-910.1 692.61,-910.1"/>
</g>
<!-- 21&#45;&gt;12 -->
<g id="edge50" class="edge">
<title>21&#45;&gt;12</title>
<path fill="none" stroke="grey" stroke-width="2" d="M704.43,-863.7C711.86,-855.3 720.93,-845.07 729.09,-835.86"/>
<polygon fill="grey" stroke="grey" stroke-width="2" points="731.95,-837.91 735.96,-828.1 726.71,-833.27 731.95,-837.91"/>
</g>
<!-- 23 -->
<g id="node42" class="node">
<title>23</title>
<path fill="none" stroke="#56d8a2" stroke-width="2" d="M656.61,-828C656.61,-828 537.61,-828 537.61,-828 531.61,-828 525.61,-822 525.61,-816 525.61,-816 525.61,-804 525.61,-804 525.61,-798 531.61,-792 537.61,-792 537.61,-792 656.61,-792 656.61,-792 662.61,-792 668.61,-798 668.61,-804 668.61,-804 668.61,-816 668.61,-816 668.61,-822 662.61,-828 656.61,-828"/>
<text text-anchor="middle" x="597.11" y="-807.5" font-family="sans" font-size="10.00">inject_init_laplace_coords</text>
</g>
<!-- 21&#45;&gt;23 -->
<g id="edge51" class="edge">
<title>21&#45;&gt;23</title>
<path fill="none" stroke="grey" stroke-width="2" d="M666.36,-863.7C654.67,-854.8 640.24,-843.82 627.6,-834.2"/>
<polygon fill="grey" stroke="grey" stroke-width="2" points="629.66,-831.37 619.59,-828.1 625.42,-836.94 629.66,-831.37"/>
</g>
<!-- 23&#45;&gt;10 -->
<g id="edge87" class="edge">
<title>23&#45;&gt;10</title>
<path fill="none" stroke="grey" stroke-width="2" d="M569.72,-791.87C528.82,-766.28 451.72,-718.05 406.24,-689.6"/>
<polygon fill="grey" stroke="grey" stroke-width="2" points="407.92,-686.53 397.58,-684.19 404.21,-692.46 407.92,-686.53"/>
</g>
<!-- 23&#45;&gt;38 -->
<g id="edge88" class="edge">
<title>23&#45;&gt;38</title>
<path fill="none" stroke="grey" stroke-width="2" d="M605.91,-791.87C618.52,-767.35 641.81,-722.03 656.61,-693.26"/>
<polygon fill="grey" stroke="grey" stroke-width="2" points="659.81,-694.68 661.27,-684.19 653.58,-691.48 659.81,-694.68"/>
</g>
<!-- 40&#45;&gt;43 -->
<g id="edge53" class="edge">
<title>40&#45;&gt;43</title>
<path fill="none" stroke="grey" stroke-width="2" d="M687.65,-431.7C686.1,-423.98 684.25,-414.71 682.53,-406.11"/>
<polygon fill="grey" stroke="grey" stroke-width="2" points="685.92,-405.22 680.53,-396.1 679.06,-406.6 685.92,-405.22"/>
</g>
<!-- 40&#45;&gt;39 -->
<g id="edge101" class="edge">
<title>40&#45;&gt;39</title>
<path fill="none" stroke="grey" stroke-width="2" d="M635.62,-431.97C603.35,-422.06 562.49,-409.51 528.64,-399.12"/>
<polygon fill="grey" stroke="grey" stroke-width="2" points="529.43,-395.7 518.84,-396.11 527.37,-402.39 529.43,-395.7"/>
</g>
<!-- 42 -->
<g id="node50" class="node">
<title>42</title>
<path fill="none" stroke="#56d863" stroke-width="2" d="M520.11,-468C520.11,-468 416.11,-468 416.11,-468 410.11,-468 404.11,-462 404.11,-456 404.11,-456 404.11,-444 404.11,-444 404.11,-438 410.11,-432 416.11,-432 416.11,-432 520.11,-432 520.11,-432 526.11,-432 532.11,-438 532.11,-444 532.11,-444 532.11,-456 532.11,-456 532.11,-462 526.11,-468 520.11,-468"/>
<text text-anchor="middle" x="468.11" y="-447.5" font-family="sans" font-size="10.00">create_native_crop_ref</text>
</g>
<!-- 43&#45;&gt;42 -->
<g id="edge103" class="edge">
<title>43&#45;&gt;42</title>
<path fill="none" stroke="grey" stroke-width="2" d="M626.02,-396.11C596.65,-405.95 559.58,-418.36 528.74,-428.69"/>
<polygon fill="grey" stroke="grey" stroke-width="2" points="527.34,-425.47 518.97,-431.97 529.56,-432.11 527.34,-425.47"/>
</g>
<!-- 41&#45;&gt;40 -->
<g id="edge54" class="edge">
<title>41&#45;&gt;40</title>
<path fill="none" stroke="grey" stroke-width="2" d="M688.85,-503.7C689.18,-495.98 689.58,-486.71 689.94,-478.11"/>
<polygon fill="grey" stroke="grey" stroke-width="2" points="693.44,-478.25 690.37,-468.1 686.45,-477.95 693.44,-478.25"/>
</g>
<!-- 14&#45;&gt;11 -->
<g id="edge73" class="edge">
<title>14&#45;&gt;11</title>
<path fill="none" stroke="grey" stroke-width="2" d="M971.71,-863.87C926.11,-838.18 839.99,-789.65 789.59,-761.25"/>
<polygon fill="grey" stroke="grey" stroke-width="2" points="791.04,-758.05 780.61,-756.19 787.6,-764.15 791.04,-758.05"/>
</g>
<!-- 14&#45;&gt;12 -->
<g id="edge74" class="edge">
<title>14&#45;&gt;12</title>
<path fill="none" stroke="grey" stroke-width="2" d="M960.38,-869.36C922.71,-858.86 866.53,-843.19 821.85,-830.73"/>
<polygon fill="grey" stroke="grey" stroke-width="2" points="822.79,-827.36 812.22,-828.04 820.91,-834.1 822.79,-827.36"/>
</g>
<!-- 14&#45;&gt;22 -->
<g id="edge75" class="edge">
<title>14&#45;&gt;22</title>
<path fill="none" stroke="grey" stroke-width="2" d="M960.49,-892.31C909.75,-903.66 823.12,-923.03 761.39,-936.83"/>
<polygon fill="grey" stroke="grey" stroke-width="2" points="760.31,-933.49 751.32,-939.09 761.84,-940.32 760.31,-933.49"/>
</g>
<!-- 14&#45;&gt;23 -->
<g id="edge76" class="edge">
<title>14&#45;&gt;23</title>
<path fill="none" stroke="grey" stroke-width="2" d="M960.57,-874.81C900.7,-865.76 786.43,-847.99 678.69,-828.06"/>
<polygon fill="grey" stroke="grey" stroke-width="2" points="679.1,-824.58 668.63,-826.19 677.82,-831.46 679.1,-824.58"/>
</g>
<!-- 14&#45;&gt;52 -->
<g id="edge55" class="edge">
<title>14&#45;&gt;52</title>
<path fill="none" stroke="grey" stroke-width="2" d="M1003.59,-863.7C1004.25,-855.98 1005.04,-846.71 1005.78,-838.11"/>
<polygon fill="grey" stroke="grey" stroke-width="2" points="1009.27,-838.37 1006.64,-828.1 1002.3,-837.77 1009.27,-838.37"/>
</g>
<!-- 51 -->
<g id="node48" class="node">
<title>51</title>
<path fill="none" stroke="#8fd856" stroke-width="2" d="M1040.11,-756C1040.11,-756 972.11,-756 972.11,-756 966.11,-756 960.11,-750 960.11,-744 960.11,-744 960.11,-732 960.11,-732 960.11,-726 966.11,-720 972.11,-720 972.11,-720 1040.11,-720 1040.11,-720 1046.11,-720 1052.11,-726 1052.11,-732 1052.11,-732 1052.11,-744 1052.11,-744 1052.11,-750 1046.11,-756 1040.11,-756"/>
<text text-anchor="middle" x="1006.11" y="-735.5" font-family="sans" font-size="10.00">qc_nnunet_dice</text>
</g>
<!-- 52&#45;&gt;51 -->
<g id="edge56" class="edge">
<title>52&#45;&gt;51</title>
<path fill="none" stroke="grey" stroke-width="2" d="M1007.61,-791.7C1007.39,-783.98 1007.13,-774.71 1006.88,-766.11"/>
<polygon fill="grey" stroke="grey" stroke-width="2" points="1010.38,-766 1006.59,-756.1 1003.38,-766.2 1010.38,-766"/>
</g>
<!-- 51&#45;&gt;0 -->
<g id="edge112" class="edge">
<title>51&#45;&gt;0</title>
<path fill="none" stroke="grey" stroke-width="2" d="M1052.32,-735.38C1138.48,-732.01 1317.07,-723.14 1340.11,-707 1443.03,-634.91 1460.11,-576.66 1460.11,-451 1460.11,-451 1460.11,-451 1460.11,-161 1460.11,-41.04 1012.85,-22.42 878.7,-19.53"/>
<polygon fill="grey" stroke="grey" stroke-width="2" points="878.57,-16.03 868.5,-19.33 878.43,-23.02 878.57,-16.03"/>
</g>
<!-- 39&#45;&gt;49 -->
<g id="edge100" class="edge">
<title>39&#45;&gt;49</title>
<path fill="none" stroke="grey" stroke-width="2" d="M501.74,-359.97C509.36,-356.06 517.15,-351.67 524.11,-347 531.06,-342.33 538.07,-336.66 544.42,-331.07"/>
<polygon fill="grey" stroke="grey" stroke-width="2" points="547.01,-333.45 552.06,-324.13 542.3,-328.27 547.01,-333.45"/>
</g>
<!-- 39&#45;&gt;0 -->
<g id="edge99" class="edge">
<title>39&#45;&gt;0</title>
<path fill="none" stroke="grey" stroke-width="2" d="M549.66,-363.37C559.24,-362.11 568.87,-360.95 578.11,-360 602.46,-357.48 779.53,-362.95 798.11,-347 836.73,-313.84 822.11,-285.91 822.11,-235 822.11,-235 822.11,-235 822.11,-161 822.11,-120.86 829.66,-74.9 835.24,-46.4"/>
<polygon fill="grey" stroke="grey" stroke-width="2" points="838.71,-46.88 837.26,-36.39 831.85,-45.5 838.71,-46.88"/>
</g>
<!-- 42&#45;&gt;46 -->
<g id="edge102" class="edge">
<title>42&#45;&gt;46</title>
<path fill="none" stroke="grey" stroke-width="2" d="M502.96,-468C526.14,-478.93 557.62,-491.83 587.11,-497.5 621.59,-504.13 868.55,-503.71 903.11,-497.5 930.79,-492.53 960.31,-481.96 984.01,-472.05"/>
<polygon fill="grey" stroke="grey" stroke-width="2" points="985.64,-475.16 993.46,-468.01 982.89,-468.73 985.64,-475.16"/>
</g>
<!-- 42&#45;&gt;39 -->
<g id="edge57" class="edge">
<title>42&#45;&gt;39</title>
<path fill="none" stroke="grey" stroke-width="2" d="M466.87,-431.7C466.32,-423.98 465.66,-414.71 465.04,-406.11"/>
<polygon fill="grey" stroke="grey" stroke-width="2" points="468.53,-405.83 464.33,-396.1 461.55,-406.33 468.53,-405.83"/>
</g>
<!-- 42&#45;&gt;44 -->
<g id="edge58" class="edge">
<title>42&#45;&gt;44</title>
<path fill="none" stroke="grey" stroke-width="2" d="M421.38,-431.88C394.81,-422.14 361.34,-409.87 333.34,-399.61"/>
<polygon fill="grey" stroke="grey" stroke-width="2" points="334.27,-396.22 323.68,-396.07 331.86,-402.8 334.27,-396.22"/>
</g>
<!-- 42&#45;&gt;47 -->
<g id="edge59" class="edge">
<title>42&#45;&gt;47</title>
<path fill="none" stroke="grey" stroke-width="2" d="M403.84,-437.36C349.17,-427.35 268.28,-412.28 188.52,-396.26"/>
<polygon fill="grey" stroke="grey" stroke-width="2" points="188.79,-392.75 178.3,-394.2 187.41,-399.61 188.79,-392.75"/>
</g>
<!-- 44&#45;&gt;0 -->
<g id="edge104" class="edge">
<title>44&#45;&gt;0</title>
<path fill="none" stroke="grey" stroke-width="2" d="M358.46,-361.05C361.37,-360.67 364.26,-360.31 367.11,-360 388.82,-357.6 743.35,-361.01 760.11,-347 799.16,-314.35 784.11,-285.91 784.11,-235 784.11,-235 784.11,-235 784.11,-161 784.11,-117.8 807.11,-72.19 823.89,-44.66"/>
<polygon fill="grey" stroke="grey" stroke-width="2" points="826.94,-46.37 829.3,-36.04 821.01,-42.65 826.94,-46.37"/>
</g>
<!-- 47&#45;&gt;49 -->
<g id="edge108" class="edge">
<title>47&#45;&gt;49</title>
<path fill="none" stroke="grey" stroke-width="2" d="M178.21,-361.25C181.21,-360.79 184.18,-360.37 187.11,-360 224.28,-355.32 489.34,-360.99 524.11,-347 532.75,-343.52 540.83,-337.62 547.69,-331.4"/>
<polygon fill="grey" stroke="grey" stroke-width="2" points="550.46,-333.58 555.14,-324.08 545.55,-328.59 550.46,-333.58"/>
</g>
<!-- 47&#45;&gt;0 -->
<g id="edge107" class="edge">
<title>47&#45;&gt;0</title>
<path fill="none" stroke="grey" stroke-width="2" d="M178.2,-361.2C181.2,-360.75 184.18,-360.35 187.11,-360 216.63,-356.5 699.21,-365.97 722.11,-347 761.3,-314.52 746.11,-285.91 746.11,-235 746.11,-235 746.11,-235 746.11,-161 746.11,-113.01 784.05,-68.96 811.98,-43.04"/>
<polygon fill="grey" stroke="grey" stroke-width="2" points="814.46,-45.52 819.55,-36.22 809.78,-40.31 814.46,-45.52"/>
</g>
</g>
</svg>
