<?xml version="1.0" encoding="UTF-8" standalone="no"?>
<!DOCTYPE svg PUBLIC "-//W3C//DTD SVG 1.1//EN"
 "http://www.w3.org/Graphics/SVG/1.1/DTD/svg11.dtd">
<!-- Generated by graphviz version 2.43.0 (0)
 -->
<!-- Pages: 1 -->
<svg width="2252pt" height="1083pt"
 viewBox="0.00 0.00 2252.43 1083.00" xmlns="http://www.w3.org/2000/svg" xmlns:xlink="http://www.w3.org/1999/xlink">
<g id="graph0" class="graph" transform="scale(1 1) rotate(0) translate(4 1079)">
<polygon fill="white" stroke="transparent" points="-4,4 -4,-1079 2248.43,-1079 2248.43,4 -4,4"/>
<g id="clust1" class="cluster">
<title>cluster_1</title>
<polygon fill="white" stroke="blue" points="902.84,-648 902.84,-1067 1177.84,-1067 1177.84,-648 902.84,-648"/>
<text text-anchor="middle" x="1040.34" y="-1051.8" font-family="Times,serif" font-size="14.00">preproc_t1</text>
</g>
<g id="clust2" class="cluster">
<title>cluster_9</title>
<polygon fill="white" stroke="blue" points="144.84,-72 144.84,-707 864.84,-707 864.84,-72 144.84,-72"/>
<text text-anchor="middle" x="504.84" y="-691.8" font-family="Times,serif" font-size="14.00">gifti</text>
</g>
<g id="clust4" class="cluster">
<title>cluster_2</title>
<polygon fill="white" stroke="blue" points="1490.84,-216 1490.84,-491 1900.84,-491 1900.84,-216 1490.84,-216"/>
<text text-anchor="middle" x="1695.84" y="-475.8" font-family="Times,serif" font-size="14.00">warps</text>
</g>
<g id="clust5" class="cluster">
<title>cluster_3</title>
<polygon fill="white" stroke="blue" points="864.84,-72 864.84,-131 1180.84,-131 1180.84,-72 864.84,-72"/>
<text text-anchor="middle" x="1022.84" y="-115.8" font-family="Times,serif" font-size="14.00">qc</text>
</g>
<g id="clust7" class="cluster">
<title>cluster_5</title>
<polygon fill="white" stroke="blue" points="1900.84,-360 1900.84,-491 2174.84,-491 2174.84,-360 1900.84,-360"/>
<text text-anchor="middle" x="2037.84" y="-475.8" font-family="Times,serif" font-size="14.00">autotop</text>
</g>
<g id="clust8" class="cluster">
<title>cluster_11</title>
<polygon fill="white" stroke="blue" points="1994.84,-144 1994.84,-347 2206.84,-347 2206.84,-144 1994.84,-144"/>
<text text-anchor="middle" x="2100.84" y="-331.8" font-family="Times,serif" font-size="14.00">subfields</text>
</g>
<g id="clust12" class="cluster">
<title>cluster_10</title>
<polygon fill="white" stroke="blue" points="1678.84,-504 1678.84,-851 1968.84,-851 1968.84,-504 1678.84,-504"/>
<text text-anchor="middle" x="1823.84" y="-835.8" font-family="Times,serif" font-size="14.00">shape_inject</text>
</g>
<g id="clust13" class="cluster">
<title>cluster_12</title>
<polygon fill="white" stroke="blue" points="1315.84,-504 1315.84,-707 1407.84,-707 1407.84,-504 1315.84,-504"/>
<text text-anchor="middle" x="1361.84" y="-691.8" font-family="Times,serif" font-size="14.00">nnunet</text>
</g>
<g id="clust14" class="cluster">
<title>cluster_13</title>
<polygon fill="white" stroke="blue" points="902.84,-144 902.84,-275 1414.84,-275 1414.84,-144 902.84,-144"/>
<text text-anchor="middle" x="1158.84" y="-259.8" font-family="Times,serif" font-size="14.00">resample_final_to_crop_native</text>
</g>
<!-- 15 -->
<g id="node1" class="node">
<title>15</title>
<path fill="none" stroke="#d88d56" stroke-width="2" d="M1022.84,-684C1022.84,-684 914.84,-684 914.84,-684 908.84,-684 902.84,-678 902.84,-672 902.84,-672 902.84,-660 902.84,-660 902.84,-654 908.84,-648 914.84,-648 914.84,-648 1022.84,-648 1022.84,-648 1028.84,-648 1034.84,-654 1034.84,-660 1034.84,-660 1034.84,-672 1034.84,-672 1034.84,-678 1028.84,-684 1022.84,-684"/>
<text text-anchor="middle" x="968.84" y="-663.5" font-family="sans" font-size="10.00">warp_t1_to_corobl_crop</text>
</g>
<!-- 14 -->
<g id="node43" class="node">
<title>14</title>
<path fill="none" stroke="#56d882" stroke-width="2" d="M1395.34,-684C1395.34,-684 1336.34,-684 1336.34,-684 1330.34,-684 1324.34,-678 1324.34,-672 1324.34,-672 1324.34,-660 1324.34,-660 1324.34,-654 1330.34,-648 1336.34,-648 1336.34,-648 1395.34,-648 1395.34,-648 1401.34,-648 1407.34,-654 1407.34,-660 1407.34,-660 1407.34,-672 1407.34,-672 1407.34,-678 1401.34,-684 1395.34,-684"/>
<text text-anchor="middle" x="1365.84" y="-663.5" font-family="sans" font-size="10.00">run_inference</text>
</g>
<!-- 15&#45;&gt;14 -->
<g id="edge67" class="edge">
<title>15&#45;&gt;14</title>
<path fill="none" stroke="grey" stroke-width="2" d="M993.41,-684.19C1009.65,-695.04 1031.92,-707.79 1053.84,-713.5 1079.53,-720.19 1267.38,-721.05 1292.84,-713.5 1308.62,-708.82 1324.18,-699.53 1336.85,-690.39"/>
<polygon fill="grey" stroke="grey" stroke-width="2" points="1339.25,-692.97 1345.14,-684.15 1335.04,-687.38 1339.25,-692.97"/>
</g>
<!-- 49 -->
<g id="node44" class="node">
<title>49</title>
<path fill="none" stroke="#56d892" stroke-width="2" d="M1393.84,-612C1393.84,-612 1329.84,-612 1329.84,-612 1323.84,-612 1317.84,-606 1317.84,-600 1317.84,-600 1317.84,-588 1317.84,-588 1317.84,-582 1323.84,-576 1329.84,-576 1329.84,-576 1393.84,-576 1393.84,-576 1399.84,-576 1405.84,-582 1405.84,-588 1405.84,-588 1405.84,-600 1405.84,-600 1405.84,-606 1399.84,-612 1393.84,-612"/>
<text text-anchor="middle" x="1361.84" y="-591.5" font-family="sans" font-size="10.00">qc_nnunet_f3d</text>
</g>
<!-- 15&#45;&gt;49 -->
<g id="edge68" class="edge">
<title>15&#45;&gt;49</title>
<path fill="none" stroke="grey" stroke-width="2" d="M1035.11,-649.95C1038.4,-649.28 1041.65,-648.62 1044.84,-648 1136.66,-630.07 1244.18,-612.89 1307.45,-603.17"/>
<polygon fill="grey" stroke="grey" stroke-width="2" points="1308.24,-606.59 1317.6,-601.62 1307.18,-599.67 1308.24,-606.59"/>
</g>
<!-- 16 -->
<g id="node2" class="node">
<title>16</title>
<path fill="none" stroke="#56d86b" stroke-width="2" d="M947.84,-972C947.84,-972 917.84,-972 917.84,-972 911.84,-972 905.84,-966 905.84,-960 905.84,-960 905.84,-948 905.84,-948 905.84,-942 911.84,-936 917.84,-936 917.84,-936 947.84,-936 947.84,-936 953.84,-936 959.84,-942 959.84,-948 959.84,-948 959.84,-960 959.84,-960 959.84,-966 953.84,-972 947.84,-972"/>
<text text-anchor="middle" x="932.84" y="-951.5" font-family="sans" font-size="10.00">n4_t1</text>
</g>
<!-- 16&#45;&gt;15 -->
<g id="edge1" class="edge">
<title>16&#45;&gt;15</title>
<path fill="none" stroke="grey" stroke-width="2" d="M934.93,-935.94C937.13,-918.02 940.7,-889.03 943.84,-864 951.42,-803.44 960.47,-732.44 965.33,-694.39"/>
<polygon fill="grey" stroke="grey" stroke-width="2" points="968.85,-694.49 966.64,-684.13 961.9,-693.6 968.85,-694.49"/>
</g>
<!-- 20 -->
<g id="node3" class="node">
<title>20</title>
<path fill="none" stroke="#5663d8" stroke-width="2" d="M1037.34,-900C1037.34,-900 964.34,-900 964.34,-900 958.34,-900 952.34,-894 952.34,-888 952.34,-888 952.34,-876 952.34,-876 952.34,-870 958.34,-864 964.34,-864 964.34,-864 1037.34,-864 1037.34,-864 1043.34,-864 1049.34,-870 1049.34,-876 1049.34,-876 1049.34,-888 1049.34,-888 1049.34,-894 1043.34,-900 1037.34,-900"/>
<text text-anchor="middle" x="1000.84" y="-879.5" font-family="sans" font-size="10.00">reg_to_template</text>
</g>
<!-- 16&#45;&gt;20 -->
<g id="edge2" class="edge">
<title>16&#45;&gt;20</title>
<path fill="none" stroke="grey" stroke-width="2" d="M949.65,-935.7C957.96,-927.14 968.14,-916.66 977.23,-907.3"/>
<polygon fill="grey" stroke="grey" stroke-width="2" points="979.76,-909.72 984.22,-900.1 974.74,-904.84 979.76,-909.72"/>
</g>
<!-- 40 -->
<g id="node35" class="node">
<title>40</title>
<path fill="none" stroke="#afd856" stroke-width="2" d="M2144.84,-180C2144.84,-180 2006.84,-180 2006.84,-180 2000.84,-180 1994.84,-174 1994.84,-168 1994.84,-168 1994.84,-156 1994.84,-156 1994.84,-150 2000.84,-144 2006.84,-144 2006.84,-144 2144.84,-144 2144.84,-144 2150.84,-144 2156.84,-150 2156.84,-156 2156.84,-156 2156.84,-168 2156.84,-168 2156.84,-174 2150.84,-180 2144.84,-180"/>
<text text-anchor="middle" x="2075.84" y="-159.5" font-family="sans" font-size="10.00">resample_subfields_to_native</text>
</g>
<!-- 16&#45;&gt;40 -->
<g id="edge69" class="edge">
<title>16&#45;&gt;40</title>
<path fill="none" stroke="grey" stroke-width="2" d="M905.39,-951.41C759.21,-942.58 78.84,-896.86 78.84,-811 78.84,-811 78.84,-811 78.84,-305 78.84,-256.79 98.41,-238.89 140.84,-216 145.97,-213.23 1601.9,-175.29 1984.58,-165.36"/>
<polygon fill="grey" stroke="grey" stroke-width="2" points="1984.87,-168.86 1994.78,-165.1 1984.69,-161.86 1984.87,-168.86"/>
</g>
<!-- 44 -->
<g id="node49" class="node">
<title>44</title>
<path fill="none" stroke="#61d856" stroke-width="2" d="M1030.84,-180C1030.84,-180 914.84,-180 914.84,-180 908.84,-180 902.84,-174 902.84,-168 902.84,-168 902.84,-156 902.84,-156 902.84,-150 908.84,-144 914.84,-144 914.84,-144 1030.84,-144 1030.84,-144 1036.84,-144 1042.84,-150 1042.84,-156 1042.84,-156 1042.84,-168 1042.84,-168 1042.84,-174 1036.84,-180 1030.84,-180"/>
<text text-anchor="middle" x="972.84" y="-159.5" font-family="sans" font-size="10.00">resample_native_to_crop</text>
</g>
<!-- 16&#45;&gt;44 -->
<g id="edge70" class="edge">
<title>16&#45;&gt;44</title>
<path fill="none" stroke="grey" stroke-width="2" d="M905.74,-952.74C767,-951.22 139.71,-942.04 64.84,-900 22.8,-876.4 2.84,-859.21 2.84,-811 2.84,-811 2.84,-811 2.84,-449 2.84,-341.84 -18.64,-283.19 64.84,-216 134.5,-159.93 779.89,-189.23 868.84,-180 876.58,-179.2 884.62,-178.19 892.64,-177.07"/>
<polygon fill="grey" stroke="grey" stroke-width="2" points="893.38,-180.5 902.78,-175.6 892.38,-173.57 893.38,-180.5"/>
</g>
<!-- 19 -->
<g id="node7" class="node">
<title>19</title>
<path fill="none" stroke="#d8bc56" stroke-width="2" d="M1135.34,-828C1135.34,-828 992.34,-828 992.34,-828 986.34,-828 980.34,-822 980.34,-816 980.34,-816 980.34,-804 980.34,-804 980.34,-798 986.34,-792 992.34,-792 992.34,-792 1135.34,-792 1135.34,-792 1141.34,-792 1147.34,-798 1147.34,-804 1147.34,-804 1147.34,-816 1147.34,-816 1147.34,-822 1141.34,-828 1135.34,-828"/>
<text text-anchor="middle" x="1063.84" y="-807.5" font-family="sans" font-size="10.00">convert_template_xfm_ras2itk</text>
</g>
<!-- 20&#45;&gt;19 -->
<g id="edge7" class="edge">
<title>20&#45;&gt;19</title>
<path fill="none" stroke="grey" stroke-width="2" d="M1016.41,-863.7C1024.04,-855.22 1033.36,-844.86 1041.71,-835.58"/>
<polygon fill="grey" stroke="grey" stroke-width="2" points="1044.35,-837.88 1048.44,-828.1 1039.15,-833.2 1044.35,-837.88"/>
</g>
<!-- 45 -->
<g id="node28" class="node">
<title>45</title>
<path fill="none" stroke="#d89556" stroke-width="2" d="M966.34,-108C966.34,-108 877.34,-108 877.34,-108 871.34,-108 865.34,-102 865.34,-96 865.34,-96 865.34,-84 865.34,-84 865.34,-78 871.34,-72 877.34,-72 877.34,-72 966.34,-72 966.34,-72 972.34,-72 978.34,-78 978.34,-84 978.34,-84 978.34,-96 978.34,-96 978.34,-102 972.34,-108 966.34,-108"/>
<text text-anchor="middle" x="921.84" y="-87.5" font-family="sans" font-size="10.00">qc_reg_to_template</text>
</g>
<!-- 20&#45;&gt;45 -->
<g id="edge76" class="edge">
<title>20&#45;&gt;45</title>
<path fill="none" stroke="grey" stroke-width="2" d="M952.05,-878.37C766.73,-867.72 116.84,-824.3 116.84,-739 116.84,-739 116.84,-739 116.84,-521 116.84,-383.49 10.5,-342.32 64.84,-216 83.22,-173.26 97.77,-161.61 140.84,-144 215,-113.67 785.36,-154.91 861.84,-131 873.39,-127.39 884.77,-120.8 894.47,-114"/>
<polygon fill="grey" stroke="grey" stroke-width="2" points="896.56,-116.8 902.52,-108.03 892.4,-111.18 896.56,-116.8"/>
</g>
<!-- 17 -->
<g id="node4" class="node">
<title>17</title>
<path fill="none" stroke="#d8cb56" stroke-width="2" d="M954.84,-1044C954.84,-1044 914.84,-1044 914.84,-1044 908.84,-1044 902.84,-1038 902.84,-1032 902.84,-1032 902.84,-1020 902.84,-1020 902.84,-1014 908.84,-1008 914.84,-1008 914.84,-1008 954.84,-1008 954.84,-1008 960.84,-1008 966.84,-1014 966.84,-1020 966.84,-1020 966.84,-1032 966.84,-1032 966.84,-1038 960.84,-1044 954.84,-1044"/>
<text text-anchor="middle" x="934.84" y="-1023.5" font-family="sans" font-size="10.00">import_t1</text>
</g>
<!-- 17&#45;&gt;16 -->
<g id="edge3" class="edge">
<title>17&#45;&gt;16</title>
<path fill="none" stroke="grey" stroke-width="2" d="M934.34,-1007.7C934.12,-999.98 933.86,-990.71 933.61,-982.11"/>
<polygon fill="grey" stroke="grey" stroke-width="2" points="937.11,-982 933.33,-972.1 930.11,-982.2 937.11,-982"/>
</g>
<!-- 18 -->
<g id="node5" class="node">
<title>18</title>
<path fill="none" stroke="#56d87b" stroke-width="2" d="M1165.84,-756C1165.84,-756 1019.84,-756 1019.84,-756 1013.84,-756 1007.84,-750 1007.84,-744 1007.84,-744 1007.84,-732 1007.84,-732 1007.84,-726 1013.84,-720 1019.84,-720 1019.84,-720 1165.84,-720 1165.84,-720 1171.84,-720 1177.84,-726 1177.84,-732 1177.84,-732 1177.84,-744 1177.84,-744 1177.84,-750 1171.84,-756 1165.84,-756"/>
<text text-anchor="middle" x="1092.84" y="-735.5" font-family="sans" font-size="10.00">compose_template_xfm_corobl</text>
</g>
<!-- 18&#45;&gt;15 -->
<g id="edge4" class="edge">
<title>18&#45;&gt;15</title>
<path fill="none" stroke="grey" stroke-width="2" d="M1062.5,-719.88C1046.14,-710.64 1025.75,-699.13 1008.18,-689.21"/>
<polygon fill="grey" stroke="grey" stroke-width="2" points="1009.72,-686.06 999.29,-684.19 1006.27,-692.15 1009.72,-686.06"/>
</g>
<!-- 29 -->
<g id="node6" class="node">
<title>29</title>
<path fill="none" stroke="#80d856" stroke-width="2" d="M1166.34,-684C1166.34,-684 1065.34,-684 1065.34,-684 1059.34,-684 1053.34,-678 1053.34,-672 1053.34,-672 1053.34,-660 1053.34,-660 1053.34,-654 1059.34,-648 1065.34,-648 1065.34,-648 1166.34,-648 1166.34,-648 1172.34,-648 1178.34,-654 1178.34,-660 1178.34,-660 1178.34,-672 1178.34,-672 1178.34,-678 1172.34,-684 1166.34,-684"/>
<text text-anchor="middle" x="1115.84" y="-663.5" font-family="sans" font-size="10.00">template_xfm_itk2ras</text>
</g>
<!-- 18&#45;&gt;29 -->
<g id="edge5" class="edge">
<title>18&#45;&gt;29</title>
<path fill="none" stroke="grey" stroke-width="2" d="M1098.52,-719.7C1101.08,-711.9 1104.17,-702.51 1107.02,-693.83"/>
<polygon fill="grey" stroke="grey" stroke-width="2" points="1110.42,-694.7 1110.22,-684.1 1103.77,-692.51 1110.42,-694.7"/>
</g>
<!-- 42 -->
<g id="node23" class="node">
<title>42</title>
<path fill="none" stroke="#5673d8" stroke-width="2" d="M1888.84,-252C1888.84,-252 1730.84,-252 1730.84,-252 1724.84,-252 1718.84,-246 1718.84,-240 1718.84,-240 1718.84,-228 1718.84,-228 1718.84,-222 1724.84,-216 1730.84,-216 1730.84,-216 1888.84,-216 1888.84,-216 1894.84,-216 1900.84,-222 1900.84,-228 1900.84,-228 1900.84,-240 1900.84,-240 1900.84,-246 1894.84,-252 1888.84,-252"/>
<text text-anchor="middle" x="1809.84" y="-231.5" font-family="sans" font-size="10.00">compose_warps_native_to_unfold</text>
</g>
<!-- 18&#45;&gt;42 -->
<g id="edge74" class="edge">
<title>18&#45;&gt;42</title>
<path fill="none" stroke="grey" stroke-width="2" d="M1178.09,-730.02C1212.33,-725.53 1246.59,-718.34 1258.84,-707 1327.25,-643.64 1261.21,-582.31 1311.84,-504 1332.6,-471.88 1544.45,-302.51 1579.84,-288 1633.56,-265.98 1653.44,-288.81 1709.84,-275 1728.21,-270.5 1747.67,-263.31 1764.5,-256.26"/>
<polygon fill="grey" stroke="grey" stroke-width="2" points="1766.27,-259.31 1774.07,-252.15 1763.5,-252.88 1766.27,-259.31"/>
</g>
<!-- 43 -->
<g id="node24" class="node">
<title>43</title>
<path fill="none" stroke="#56d0d8" stroke-width="2" d="M1688.34,-252C1688.34,-252 1503.34,-252 1503.34,-252 1497.34,-252 1491.34,-246 1491.34,-240 1491.34,-240 1491.34,-228 1491.34,-228 1491.34,-222 1497.34,-216 1503.34,-216 1503.34,-216 1688.34,-216 1688.34,-216 1694.34,-216 1700.34,-222 1700.34,-228 1700.34,-228 1700.34,-240 1700.34,-240 1700.34,-246 1694.34,-252 1688.34,-252"/>
<text text-anchor="middle" x="1595.84" y="-231.5" font-family="sans" font-size="10.00">compose_warps_unfold_to_crop_native</text>
</g>
<!-- 18&#45;&gt;43 -->
<g id="edge75" class="edge">
<title>18&#45;&gt;43</title>
<path fill="none" stroke="grey" stroke-width="2" d="M1178.2,-734.12C1266.74,-730.33 1394.66,-722.27 1411.84,-707 1449.88,-673.18 1435.84,-645.91 1435.84,-595 1435.84,-595 1435.84,-595 1435.84,-449 1435.84,-372.32 1447.2,-345.58 1497.84,-288 1509.21,-275.07 1524.52,-264.72 1539.66,-256.73"/>
<polygon fill="grey" stroke="grey" stroke-width="2" points="1541.64,-259.65 1549.03,-252.05 1538.52,-253.39 1541.64,-259.65"/>
</g>
<!-- 18&#45;&gt;40 -->
<g id="edge72" class="edge">
<title>18&#45;&gt;40</title>
<path fill="none" stroke="grey" stroke-width="2" d="M1007.78,-734.95C960.72,-731.82 908.79,-724.38 893.84,-707 876.73,-687.12 881.6,-671.19 893.84,-648 1030.76,-388.37 1222.88,-473.78 1438.84,-275 1463.71,-252.11 1456.99,-231.87 1486.84,-216 1570.71,-171.39 1841.11,-163.58 1984.54,-162.68"/>
<polygon fill="grey" stroke="grey" stroke-width="2" points="1984.66,-166.18 1994.64,-162.62 1984.62,-159.18 1984.66,-166.18"/>
</g>
<!-- 36 -->
<g id="node46" class="node">
<title>36</title>
<path fill="none" stroke="#97d856" stroke-width="2" d="M1222.34,-180C1222.34,-180 1073.34,-180 1073.34,-180 1067.34,-180 1061.34,-174 1061.34,-168 1061.34,-168 1061.34,-156 1061.34,-156 1061.34,-150 1067.34,-144 1073.34,-144 1073.34,-144 1222.34,-144 1222.34,-144 1228.34,-144 1234.34,-150 1234.34,-156 1234.34,-156 1234.34,-168 1234.34,-168 1234.34,-174 1228.34,-180 1222.34,-180"/>
<text text-anchor="middle" x="1147.84" y="-159.5" font-family="sans" font-size="10.00">resample_subfields_native_crop</text>
</g>
<!-- 18&#45;&gt;36 -->
<g id="edge71" class="edge">
<title>18&#45;&gt;36</title>
<path fill="none" stroke="grey" stroke-width="2" d="M1174.57,-719.74C1179.63,-716.23 1184.16,-712.02 1187.84,-707 1203.34,-685.85 1189.1,-674.19 1187.84,-648 1183.61,-560.14 1168.84,-538.96 1168.84,-451 1168.84,-451 1168.84,-451 1168.84,-305 1168.84,-264.78 1160.49,-218.84 1154.32,-190.37"/>
<polygon fill="grey" stroke="grey" stroke-width="2" points="1157.68,-189.36 1152.09,-180.37 1150.85,-190.89 1157.68,-189.36"/>
</g>
<!-- 41 -->
<g id="node48" class="node">
<title>41</title>
<path fill="none" stroke="#d87556" stroke-width="2" d="M1402.84,-180C1402.84,-180 1264.84,-180 1264.84,-180 1258.84,-180 1252.84,-174 1252.84,-168 1252.84,-168 1252.84,-156 1252.84,-156 1252.84,-150 1258.84,-144 1264.84,-144 1264.84,-144 1402.84,-144 1402.84,-144 1408.84,-144 1414.84,-150 1414.84,-156 1414.84,-156 1414.84,-168 1414.84,-168 1414.84,-174 1408.84,-180 1402.84,-180"/>
<text text-anchor="middle" x="1333.84" y="-159.5" font-family="sans" font-size="10.00">resample_coords_native_crop</text>
</g>
<!-- 18&#45;&gt;41 -->
<g id="edge73" class="edge">
<title>18&#45;&gt;41</title>
<path fill="none" stroke="grey" stroke-width="2" d="M1177.94,-726.22C1188.18,-721.69 1197.56,-715.48 1204.84,-707 1300.34,-595.71 1240.84,-525.65 1240.84,-379 1240.84,-379 1240.84,-379 1240.84,-305 1240.84,-264.55 1237.68,-249.84 1259.84,-216 1267.71,-203.98 1279.32,-193.81 1291.03,-185.7"/>
<polygon fill="grey" stroke="grey" stroke-width="2" points="1293.06,-188.55 1299.52,-180.15 1289.23,-182.69 1293.06,-188.55"/>
</g>
<!-- 4 -->
<g id="node12" class="node">
<title>4</title>
<path fill="none" stroke="#d8a456" stroke-width="2" d="M748.34,-396C748.34,-396 663.34,-396 663.34,-396 657.34,-396 651.34,-390 651.34,-384 651.34,-384 651.34,-372 651.34,-372 651.34,-366 657.34,-360 663.34,-360 663.34,-360 748.34,-360 748.34,-360 754.34,-360 760.34,-366 760.34,-372 760.34,-372 760.34,-384 760.34,-384 760.34,-390 754.34,-396 748.34,-396"/>
<text text-anchor="middle" x="705.84" y="-375.5" font-family="sans" font-size="10.00">warp_gii_to_native</text>
</g>
<!-- 29&#45;&gt;4 -->
<g id="edge81" class="edge">
<title>29&#45;&gt;4</title>
<path fill="none" stroke="grey" stroke-width="2" d="M1097.24,-647.81C1052.21,-606.77 932.67,-501.34 819.84,-432 800.33,-420.01 777.67,-408.95 757.72,-400.07"/>
<polygon fill="grey" stroke="grey" stroke-width="2" points="759.03,-396.82 748.46,-396.02 756.22,-403.24 759.03,-396.82"/>
</g>
<!-- 19&#45;&gt;18 -->
<g id="edge6" class="edge">
<title>19&#45;&gt;18</title>
<path fill="none" stroke="grey" stroke-width="2" d="M1071,-791.7C1074.27,-783.81 1078.21,-774.3 1081.84,-765.55"/>
<polygon fill="grey" stroke="grey" stroke-width="2" points="1085.16,-766.68 1085.75,-756.1 1078.69,-764 1085.16,-766.68"/>
</g>
<!-- 1 -->
<g id="node8" class="node">
<title>1</title>
<path fill="none" stroke="#56b9d8" stroke-width="2" d="M594.84,-108C594.84,-108 496.84,-108 496.84,-108 490.84,-108 484.84,-102 484.84,-96 484.84,-96 484.84,-84 484.84,-84 484.84,-78 490.84,-72 496.84,-72 496.84,-72 594.84,-72 594.84,-72 600.84,-72 606.84,-78 606.84,-84 606.84,-84 606.84,-96 606.84,-96 606.84,-102 600.84,-108 594.84,-108"/>
<text text-anchor="middle" x="545.84" y="-87.5" font-family="sans" font-size="10.00">create_spec_file_hipp</text>
</g>
<!-- 0 -->
<g id="node50" class="node">
<title>0</title>
<path fill="none" stroke="#566bd8" stroke-width="2" d="M1223.84,-36C1223.84,-36 1193.84,-36 1193.84,-36 1187.84,-36 1181.84,-30 1181.84,-24 1181.84,-24 1181.84,-12 1181.84,-12 1181.84,-6 1187.84,0 1193.84,0 1193.84,0 1223.84,0 1223.84,0 1229.84,0 1235.84,-6 1235.84,-12 1235.84,-12 1235.84,-24 1235.84,-24 1235.84,-30 1229.84,-36 1223.84,-36"/>
<text text-anchor="middle" x="1208.84" y="-15.5" font-family="sans" font-size="10.00">all</text>
</g>
<!-- 1&#45;&gt;0 -->
<g id="edge50" class="edge">
<title>1&#45;&gt;0</title>
<path fill="none" stroke="grey" stroke-width="2" d="M607.02,-82.54C741.97,-68.29 1061.87,-34.52 1171.34,-22.96"/>
<polygon fill="grey" stroke="grey" stroke-width="2" points="1171.98,-26.41 1181.56,-21.88 1171.25,-19.45 1171.98,-26.41"/>
</g>
<!-- 2 -->
<g id="node9" class="node">
<title>2</title>
<path fill="none" stroke="#d85656" stroke-width="2" d="M274.34,-252C274.34,-252 177.34,-252 177.34,-252 171.34,-252 165.34,-246 165.34,-240 165.34,-240 165.34,-228 165.34,-228 165.34,-222 171.34,-216 177.34,-216 177.34,-216 274.34,-216 274.34,-216 280.34,-216 286.34,-222 286.34,-228 286.34,-228 286.34,-240 286.34,-240 286.34,-246 280.34,-252 274.34,-252"/>
<text text-anchor="middle" x="225.84" y="-231.5" font-family="sans" font-size="10.00">calculate_gyrification</text>
</g>
<!-- 2&#45;&gt;1 -->
<g id="edge8" class="edge">
<title>2&#45;&gt;1</title>
<path fill="none" stroke="grey" stroke-width="2" d="M254.91,-215.86C287.89,-196.83 343.62,-165.91 393.84,-144 421.78,-131.81 453.52,-120.38 480.73,-111.28"/>
<polygon fill="grey" stroke="grey" stroke-width="2" points="482.15,-114.5 490.54,-108.04 479.95,-107.86 482.15,-114.5"/>
</g>
<!-- 35 -->
<g id="node10" class="node">
<title>35</title>
<path fill="none" stroke="#56d89a" stroke-width="2" d="M559.84,-180C559.84,-180 435.84,-180 435.84,-180 429.84,-180 423.84,-174 423.84,-168 423.84,-168 423.84,-156 423.84,-156 423.84,-150 429.84,-144 435.84,-144 435.84,-144 559.84,-144 559.84,-144 565.84,-144 571.84,-150 571.84,-156 571.84,-156 571.84,-168 571.84,-168 571.84,-174 565.84,-180 559.84,-180"/>
<text text-anchor="middle" x="497.84" y="-159.5" font-family="sans" font-size="10.00">create_dscalar_metric_cifti</text>
</g>
<!-- 2&#45;&gt;35 -->
<g id="edge9" class="edge">
<title>2&#45;&gt;35</title>
<path fill="none" stroke="grey" stroke-width="2" d="M286.54,-217.38C326.49,-207.1 379.09,-193.56 421.81,-182.57"/>
<polygon fill="grey" stroke="grey" stroke-width="2" points="422.79,-185.93 431.61,-180.04 421.05,-179.15 422.79,-185.93"/>
</g>
<!-- 35&#45;&gt;1 -->
<g id="edge27" class="edge">
<title>35&#45;&gt;1</title>
<path fill="none" stroke="grey" stroke-width="2" d="M509.7,-143.7C515.34,-135.47 522.19,-125.48 528.4,-116.42"/>
<polygon fill="grey" stroke="grey" stroke-width="2" points="531.34,-118.33 534.11,-108.1 525.57,-114.37 531.34,-118.33"/>
</g>
<!-- 3 -->
<g id="node11" class="node">
<title>3</title>
<path fill="none" stroke="#56a2d8" stroke-width="2" d="M325.34,-324C325.34,-324 220.34,-324 220.34,-324 214.34,-324 208.34,-318 208.34,-312 208.34,-312 208.34,-300 208.34,-300 208.34,-294 214.34,-288 220.34,-288 220.34,-288 325.34,-288 325.34,-288 331.34,-288 337.34,-294 337.34,-300 337.34,-300 337.34,-312 337.34,-312 337.34,-318 331.34,-324 325.34,-324"/>
<text text-anchor="middle" x="272.84" y="-303.5" font-family="sans" font-size="10.00">calculate_surface_area</text>
</g>
<!-- 3&#45;&gt;2 -->
<g id="edge10" class="edge">
<title>3&#45;&gt;2</title>
<path fill="none" stroke="grey" stroke-width="2" d="M261.22,-287.7C255.7,-279.47 248.99,-269.48 242.9,-260.42"/>
<polygon fill="grey" stroke="grey" stroke-width="2" points="245.8,-258.46 237.32,-252.1 239.99,-262.36 245.8,-258.46"/>
</g>
<!-- 4&#45;&gt;1 -->
<g id="edge11" class="edge">
<title>4&#45;&gt;1</title>
<path fill="none" stroke="grey" stroke-width="2" d="M708.98,-359.88C713.75,-329.16 719.89,-263.46 695.84,-216 672.46,-169.87 623.67,-134.32 588.06,-113.13"/>
<polygon fill="grey" stroke="grey" stroke-width="2" points="589.72,-110.05 579.31,-108.06 586.2,-116.1 589.72,-110.05"/>
</g>
<!-- 4&#45;&gt;3 -->
<g id="edge12" class="edge">
<title>4&#45;&gt;3</title>
<path fill="none" stroke="grey" stroke-width="2" d="M651.32,-370.9C604.62,-365.43 535.65,-356.78 475.84,-347 433.21,-340.03 385.83,-330.78 347.58,-322.93"/>
<polygon fill="grey" stroke="grey" stroke-width="2" points="348.05,-319.46 337.55,-320.86 346.64,-326.31 348.05,-319.46"/>
</g>
<!-- 31 -->
<g id="node13" class="node">
<title>31</title>
<path fill="none" stroke="#569ad8" stroke-width="2" d="M567.34,-324C567.34,-324 496.34,-324 496.34,-324 490.34,-324 484.34,-318 484.34,-312 484.34,-312 484.34,-300 484.34,-300 484.34,-294 490.34,-288 496.34,-288 496.34,-288 567.34,-288 567.34,-288 573.34,-288 579.34,-294 579.34,-300 579.34,-300 579.34,-312 579.34,-312 579.34,-318 573.34,-324 567.34,-324"/>
<text text-anchor="middle" x="531.84" y="-303.5" font-family="sans" font-size="10.00">smooth_surface</text>
</g>
<!-- 4&#45;&gt;31 -->
<g id="edge13" class="edge">
<title>4&#45;&gt;31</title>
<path fill="none" stroke="grey" stroke-width="2" d="M663.27,-359.88C639.27,-350.22 609.11,-338.09 583.73,-327.88"/>
<polygon fill="grey" stroke="grey" stroke-width="2" points="584.85,-324.55 574.26,-324.07 582.23,-331.05 584.85,-324.55"/>
</g>
<!-- 32 -->
<g id="node14" class="node">
<title>32</title>
<path fill="none" stroke="#56c9d8" stroke-width="2" d="M674.84,-252C674.84,-252 516.84,-252 516.84,-252 510.84,-252 504.84,-246 504.84,-240 504.84,-240 504.84,-228 504.84,-228 504.84,-222 510.84,-216 516.84,-216 516.84,-216 674.84,-216 674.84,-216 680.84,-216 686.84,-222 686.84,-228 686.84,-228 686.84,-240 686.84,-240 686.84,-246 680.84,-252 674.84,-252"/>
<text text-anchor="middle" x="595.84" y="-231.5" font-family="sans" font-size="10.00">calculate_thickness_from_surface</text>
</g>
<!-- 4&#45;&gt;32 -->
<g id="edge14" class="edge">
<title>4&#45;&gt;32</title>
<path fill="none" stroke="grey" stroke-width="2" d="M692.57,-359.87C673.32,-335.03 637.55,-288.85 615.31,-260.14"/>
<polygon fill="grey" stroke="grey" stroke-width="2" points="618.04,-257.95 609.15,-252.19 612.51,-262.24 618.04,-257.95"/>
</g>
<!-- 47 -->
<g id="node30" class="node">
<title>47</title>
<path fill="none" stroke="#ced856" stroke-width="2" d="M1079.34,-108C1079.34,-108 1008.34,-108 1008.34,-108 1002.34,-108 996.34,-102 996.34,-96 996.34,-96 996.34,-84 996.34,-84 996.34,-78 1002.34,-72 1008.34,-72 1008.34,-72 1079.34,-72 1079.34,-72 1085.34,-72 1091.34,-78 1091.34,-84 1091.34,-84 1091.34,-96 1091.34,-96 1091.34,-102 1085.34,-108 1079.34,-108"/>
<text text-anchor="middle" x="1043.84" y="-87.5" font-family="sans" font-size="10.00">qc_subfield_surf</text>
</g>
<!-- 4&#45;&gt;47 -->
<g id="edge51" class="edge">
<title>4&#45;&gt;47</title>
<path fill="none" stroke="grey" stroke-width="2" d="M755.32,-359.84C793.74,-343.91 845.13,-316.34 873.84,-275 907.64,-226.31 856.02,-184.99 898.84,-144 927.71,-116.36 950.75,-145.93 987.84,-131 997.89,-126.95 1007.86,-120.75 1016.53,-114.42"/>
<polygon fill="grey" stroke="grey" stroke-width="2" points="1018.93,-117 1024.73,-108.14 1014.67,-111.44 1018.93,-117"/>
</g>
<!-- 30 -->
<g id="node19" class="node">
<title>30</title>
<path fill="none" stroke="#5682d8" stroke-width="2" d="M474.84,-252C474.84,-252 316.84,-252 316.84,-252 310.84,-252 304.84,-246 304.84,-240 304.84,-240 304.84,-228 304.84,-228 304.84,-222 310.84,-216 316.84,-216 316.84,-216 474.84,-216 474.84,-216 480.84,-216 486.84,-222 486.84,-228 486.84,-228 486.84,-240 486.84,-240 486.84,-246 480.84,-252 474.84,-252"/>
<text text-anchor="middle" x="395.84" y="-231.5" font-family="sans" font-size="10.00">calculate_curvature_from_surface</text>
</g>
<!-- 31&#45;&gt;30 -->
<g id="edge22" class="edge">
<title>31&#45;&gt;30</title>
<path fill="none" stroke="grey" stroke-width="2" d="M498.57,-287.88C480.37,-278.51 457.65,-266.81 438.2,-256.8"/>
<polygon fill="grey" stroke="grey" stroke-width="2" points="439.73,-253.65 429.23,-252.19 436.52,-259.88 439.73,-253.65"/>
</g>
<!-- 32&#45;&gt;1 -->
<g id="edge23" class="edge">
<title>32&#45;&gt;1</title>
<path fill="none" stroke="grey" stroke-width="2" d="M595.04,-215.71C593.72,-197.35 590.2,-167.76 580.84,-144 577.06,-134.41 571.37,-124.75 565.67,-116.36"/>
<polygon fill="grey" stroke="grey" stroke-width="2" points="568.46,-114.24 559.81,-108.12 562.76,-118.3 568.46,-114.24"/>
</g>
<!-- 32&#45;&gt;35 -->
<g id="edge24" class="edge">
<title>32&#45;&gt;35</title>
<path fill="none" stroke="grey" stroke-width="2" d="M571.86,-215.88C559.29,-206.89 543.7,-195.76 530.08,-186.03"/>
<polygon fill="grey" stroke="grey" stroke-width="2" points="532.07,-183.15 521.9,-180.19 528,-188.85 532.07,-183.15"/>
</g>
<!-- 5 -->
<g id="node15" class="node">
<title>5</title>
<path fill="none" stroke="#565bd8" stroke-width="2" d="M798.84,-468C798.84,-468 704.84,-468 704.84,-468 698.84,-468 692.84,-462 692.84,-456 692.84,-456 692.84,-444 692.84,-444 692.84,-438 698.84,-432 704.84,-432 704.84,-432 798.84,-432 798.84,-432 804.84,-432 810.84,-438 810.84,-444 810.84,-444 810.84,-456 810.84,-456 810.84,-462 804.84,-468 798.84,-468"/>
<text text-anchor="middle" x="751.84" y="-447.5" font-family="sans" font-size="10.00">correct_nan_vertices</text>
</g>
<!-- 5&#45;&gt;4 -->
<g id="edge15" class="edge">
<title>5&#45;&gt;4</title>
<path fill="none" stroke="grey" stroke-width="2" d="M740.47,-431.7C735.12,-423.56 728.63,-413.69 722.73,-404.7"/>
<polygon fill="grey" stroke="grey" stroke-width="2" points="725.49,-402.54 717.08,-396.1 719.64,-406.38 725.49,-402.54"/>
</g>
<!-- 6 -->
<g id="node16" class="node">
<title>6</title>
<path fill="none" stroke="#5682d8" stroke-width="2" d="M828.34,-540C828.34,-540 721.34,-540 721.34,-540 715.34,-540 709.34,-534 709.34,-528 709.34,-528 709.34,-516 709.34,-516 709.34,-510 715.34,-504 721.34,-504 721.34,-504 828.34,-504 828.34,-504 834.34,-504 840.34,-510 840.34,-516 840.34,-516 840.34,-528 840.34,-528 840.34,-534 834.34,-540 828.34,-540"/>
<text text-anchor="middle" x="774.84" y="-519.5" font-family="sans" font-size="10.00">warp_gii_unfold2native</text>
</g>
<!-- 6&#45;&gt;5 -->
<g id="edge16" class="edge">
<title>6&#45;&gt;5</title>
<path fill="none" stroke="grey" stroke-width="2" d="M769.15,-503.7C766.59,-495.9 763.5,-486.51 760.65,-477.83"/>
<polygon fill="grey" stroke="grey" stroke-width="2" points="763.9,-476.51 757.46,-468.1 757.25,-478.7 763.9,-476.51"/>
</g>
<!-- 27 -->
<g id="node17" class="node">
<title>27</title>
<path fill="none" stroke="#70d856" stroke-width="2" d="M827.84,-612C827.84,-612 721.84,-612 721.84,-612 715.84,-612 709.84,-606 709.84,-600 709.84,-600 709.84,-588 709.84,-588 709.84,-582 715.84,-576 721.84,-576 721.84,-576 827.84,-576 827.84,-576 833.84,-576 839.84,-582 839.84,-588 839.84,-588 839.84,-600 839.84,-600 839.84,-606 833.84,-612 827.84,-612"/>
<text text-anchor="middle" x="774.84" y="-591.5" font-family="sans" font-size="10.00">constrain_surf_to_bbox</text>
</g>
<!-- 27&#45;&gt;6 -->
<g id="edge17" class="edge">
<title>27&#45;&gt;6</title>
<path fill="none" stroke="grey" stroke-width="2" d="M774.84,-575.7C774.84,-567.98 774.84,-558.71 774.84,-550.11"/>
<polygon fill="grey" stroke="grey" stroke-width="2" points="778.34,-550.1 774.84,-540.1 771.34,-550.1 778.34,-550.1"/>
</g>
<!-- 28 -->
<g id="node18" class="node">
<title>28</title>
<path fill="none" stroke="#d88556" stroke-width="2" d="M260.84,-684C260.84,-684 156.84,-684 156.84,-684 150.84,-684 144.84,-678 144.84,-672 144.84,-672 144.84,-660 144.84,-660 144.84,-654 150.84,-648 156.84,-648 156.84,-648 260.84,-648 260.84,-648 266.84,-648 272.84,-654 272.84,-660 272.84,-660 272.84,-672 272.84,-672 272.84,-678 266.84,-684 260.84,-684"/>
<text text-anchor="middle" x="208.84" y="-663.5" font-family="sans" font-size="10.00">cp_template_to_unfold</text>
</g>
<!-- 28&#45;&gt;1 -->
<g id="edge18" class="edge">
<title>28&#45;&gt;1</title>
<path fill="none" stroke="grey" stroke-width="2" d="M195.48,-647.72C176.98,-622.03 145.84,-571.55 145.84,-523 145.84,-523 145.84,-523 145.84,-233 145.84,-164.06 359.51,-120.04 474.51,-101.34"/>
<polygon fill="grey" stroke="grey" stroke-width="2" points="475.33,-104.75 484.65,-99.72 474.22,-97.84 475.33,-104.75"/>
</g>
<!-- 28&#45;&gt;27 -->
<g id="edge19" class="edge">
<title>28&#45;&gt;27</title>
<path fill="none" stroke="grey" stroke-width="2" d="M272.94,-657.07C378.19,-644.06 587.11,-618.22 699.35,-604.34"/>
<polygon fill="grey" stroke="grey" stroke-width="2" points="700.08,-607.77 709.57,-603.07 699.22,-600.83 700.08,-607.77"/>
</g>
<!-- 30&#45;&gt;1 -->
<g id="edge20" class="edge">
<title>30&#45;&gt;1</title>
<path fill="none" stroke="grey" stroke-width="2" d="M394.98,-215.89C394.92,-196.31 397.77,-164.33 414.84,-144 430.16,-125.75 452.71,-113.72 474.8,-105.81"/>
<polygon fill="grey" stroke="grey" stroke-width="2" points="476.17,-109.05 484.55,-102.57 473.96,-102.41 476.17,-109.05"/>
</g>
<!-- 30&#45;&gt;35 -->
<g id="edge21" class="edge">
<title>30&#45;&gt;35</title>
<path fill="none" stroke="grey" stroke-width="2" d="M420.79,-215.88C433.88,-206.89 450.1,-195.76 464.27,-186.03"/>
<polygon fill="grey" stroke="grey" stroke-width="2" points="466.52,-188.73 472.79,-180.19 462.56,-182.96 466.52,-188.73"/>
</g>
<!-- 33 -->
<g id="node20" class="node">
<title>33</title>
<path fill="none" stroke="#56b9d8" stroke-width="2" d="M815.84,-180C815.84,-180 749.84,-180 749.84,-180 743.84,-180 737.84,-174 737.84,-168 737.84,-168 737.84,-156 737.84,-156 737.84,-150 743.84,-144 749.84,-144 749.84,-144 815.84,-144 815.84,-144 821.84,-144 827.84,-150 827.84,-156 827.84,-156 827.84,-168 827.84,-168 827.84,-174 821.84,-180 815.84,-180"/>
<text text-anchor="middle" x="782.84" y="-159.5" font-family="sans" font-size="10.00">nii_to_label_gii</text>
</g>
<!-- 33&#45;&gt;1 -->
<g id="edge25" class="edge">
<title>33&#45;&gt;1</title>
<path fill="none" stroke="grey" stroke-width="2" d="M737.7,-147.67C702.46,-137.26 652.96,-122.64 613.06,-110.86"/>
<polygon fill="grey" stroke="grey" stroke-width="2" points="613.98,-107.48 603.4,-108 612,-114.19 613.98,-107.48"/>
</g>
<!-- 34 -->
<g id="node21" class="node">
<title>34</title>
<path fill="none" stroke="#9fd856" stroke-width="2" d="M852.84,-252C852.84,-252 736.84,-252 736.84,-252 730.84,-252 724.84,-246 724.84,-240 724.84,-240 724.84,-228 724.84,-228 724.84,-222 730.84,-216 736.84,-216 736.84,-216 852.84,-216 852.84,-216 858.84,-216 864.84,-222 864.84,-228 864.84,-228 864.84,-240 864.84,-240 864.84,-246 858.84,-252 852.84,-252"/>
<text text-anchor="middle" x="794.84" y="-231.5" font-family="sans" font-size="10.00">resample_atlas_to_refvol</text>
</g>
<!-- 34&#45;&gt;33 -->
<g id="edge26" class="edge">
<title>34&#45;&gt;33</title>
<path fill="none" stroke="grey" stroke-width="2" d="M791.87,-215.7C790.55,-207.98 788.96,-198.71 787.48,-190.11"/>
<polygon fill="grey" stroke="grey" stroke-width="2" points="790.91,-189.37 785.77,-180.1 784.01,-190.55 790.91,-189.37"/>
</g>
<!-- 38 -->
<g id="node36" class="node">
<title>38</title>
<path fill="none" stroke="#5692d8" stroke-width="2" d="M2194.34,-324C2194.34,-324 2007.34,-324 2007.34,-324 2001.34,-324 1995.34,-318 1995.34,-312 1995.34,-312 1995.34,-300 1995.34,-300 1995.34,-294 2001.34,-288 2007.34,-288 2007.34,-288 2194.34,-288 2194.34,-288 2200.34,-288 2206.34,-294 2206.34,-300 2206.34,-300 2206.34,-312 2206.34,-312 2206.34,-318 2200.34,-324 2194.34,-324"/>
<text text-anchor="middle" x="2100.84" y="-303.5" font-family="sans" font-size="10.00">label_subfields_from_vol_coords_corobl</text>
</g>
<!-- 34&#45;&gt;38 -->
<g id="edge82" class="edge">
<title>34&#45;&gt;38</title>
<path fill="none" stroke="grey" stroke-width="2" d="M830.01,-252.11C849.74,-260.79 875.09,-270.43 898.84,-275 1008.61,-296.12 1793.19,-282.44 1904.84,-288 1930.85,-289.29 1958.76,-291.33 1985.12,-293.54"/>
<polygon fill="grey" stroke="grey" stroke-width="2" points="1984.88,-297.03 1995.14,-294.4 1985.48,-290.06 1984.88,-297.03"/>
</g>
<!-- 7 -->
<g id="node22" class="node">
<title>7</title>
<path fill="none" stroke="#68d856" stroke-width="2" d="M1782.84,-324C1782.84,-324 1698.84,-324 1698.84,-324 1692.84,-324 1686.84,-318 1686.84,-312 1686.84,-312 1686.84,-300 1686.84,-300 1686.84,-294 1692.84,-288 1698.84,-288 1698.84,-288 1782.84,-288 1782.84,-288 1788.84,-288 1794.84,-294 1794.84,-300 1794.84,-300 1794.84,-312 1794.84,-312 1794.84,-318 1788.84,-324 1782.84,-324"/>
<text text-anchor="middle" x="1740.84" y="-303.5" font-family="sans" font-size="10.00">create_warps_hipp</text>
</g>
<!-- 7&#45;&gt;6 -->
<g id="edge52" class="edge">
<title>7&#45;&gt;6</title>
<path fill="none" stroke="grey" stroke-width="2" d="M1686.73,-318.99C1523.92,-355.05 1038.22,-462.65 850.27,-504.29"/>
<polygon fill="grey" stroke="grey" stroke-width="2" points="849.48,-500.88 840.47,-506.46 850.99,-507.71 849.48,-500.88"/>
</g>
<!-- 7&#45;&gt;42 -->
<g id="edge28" class="edge">
<title>7&#45;&gt;42</title>
<path fill="none" stroke="grey" stroke-width="2" d="M1757.89,-287.7C1766.33,-279.14 1776.66,-268.66 1785.88,-259.3"/>
<polygon fill="grey" stroke="grey" stroke-width="2" points="1788.45,-261.68 1792.98,-252.1 1783.46,-256.77 1788.45,-261.68"/>
</g>
<!-- 7&#45;&gt;43 -->
<g id="edge29" class="edge">
<title>7&#45;&gt;43</title>
<path fill="none" stroke="grey" stroke-width="2" d="M1705.37,-287.88C1685.72,-278.39 1661.11,-266.51 1640.2,-256.42"/>
<polygon fill="grey" stroke="grey" stroke-width="2" points="1641.72,-253.26 1631.19,-252.07 1638.68,-259.57 1641.72,-253.26"/>
</g>
<!-- 42&#45;&gt;0 -->
<g id="edge89" class="edge">
<title>42&#45;&gt;0</title>
<path fill="none" stroke="grey" stroke-width="2" d="M1783.97,-215.91C1732.63,-182.82 1613.27,-109.91 1502.84,-72 1413.66,-41.39 1302.89,-27.53 1246.15,-22.06"/>
<polygon fill="grey" stroke="grey" stroke-width="2" points="1246.16,-18.55 1235.88,-21.11 1245.51,-25.52 1246.16,-18.55"/>
</g>
<!-- 43&#45;&gt;0 -->
<g id="edge90" class="edge">
<title>43&#45;&gt;0</title>
<path fill="none" stroke="grey" stroke-width="2" d="M1586.33,-215.92C1566.77,-182.52 1518.64,-108.59 1456.84,-72 1389.99,-32.42 1297.47,-22.22 1246.43,-19.71"/>
<polygon fill="grey" stroke="grey" stroke-width="2" points="1246.33,-16.2 1236.19,-19.28 1246.04,-23.19 1246.33,-16.2"/>
</g>
<!-- 8 -->
<g id="node25" class="node">
<title>8</title>
<path fill="none" stroke="#d85e56" stroke-width="2" d="M1629.84,-468C1629.84,-468 1551.84,-468 1551.84,-468 1545.84,-468 1539.84,-462 1539.84,-456 1539.84,-456 1539.84,-444 1539.84,-444 1539.84,-438 1545.84,-432 1551.84,-432 1551.84,-432 1629.84,-432 1629.84,-432 1635.84,-432 1641.84,-438 1641.84,-444 1641.84,-444 1641.84,-456 1641.84,-456 1641.84,-462 1635.84,-468 1629.84,-468"/>
<text text-anchor="middle" x="1590.84" y="-447.5" font-family="sans" font-size="10.00">create_unfold_ref</text>
</g>
<!-- 8&#45;&gt;27 -->
<g id="edge54" class="edge">
<title>8&#45;&gt;27</title>
<path fill="none" stroke="grey" stroke-width="2" d="M1554.48,-468.17C1535.13,-476.52 1510.66,-485.85 1487.84,-491 1411.33,-508.28 1389.72,-494.69 1311.84,-504 1146.11,-523.81 953.45,-558.65 849.91,-578.35"/>
<polygon fill="grey" stroke="grey" stroke-width="2" points="849.03,-574.95 839.87,-580.27 850.35,-581.83 849.03,-574.95"/>
</g>
<!-- 8&#45;&gt;34 -->
<g id="edge55" class="edge">
<title>8&#45;&gt;34</title>
<path fill="none" stroke="grey" stroke-width="2" d="M1574.43,-431.83C1539.71,-396.84 1454.59,-318.09 1364.84,-288 1315.72,-271.54 949.63,-285.17 898.84,-275 878.99,-271.03 857.99,-263.62 840.1,-256.25"/>
<polygon fill="grey" stroke="grey" stroke-width="2" points="841.09,-252.87 830.51,-252.18 838.35,-259.31 841.09,-252.87"/>
</g>
<!-- 8&#45;&gt;7 -->
<g id="edge30" class="edge">
<title>8&#45;&gt;7</title>
<path fill="none" stroke="grey" stroke-width="2" d="M1585.68,-431.82C1580.98,-412.48 1576.84,-381 1591.84,-360 1611.2,-332.88 1645.69,-319.57 1676.62,-313.06"/>
<polygon fill="grey" stroke="grey" stroke-width="2" points="1677.34,-316.48 1686.51,-311.18 1676.03,-309.61 1677.34,-316.48"/>
</g>
<!-- 8&#45;&gt;42 -->
<g id="edge32" class="edge">
<title>8&#45;&gt;42</title>
<path fill="none" stroke="grey" stroke-width="2" d="M1582.31,-431.95C1574.25,-413.28 1565.02,-382.94 1576.84,-360 1602.08,-310.99 1629.47,-314.46 1677.84,-288 1678.82,-287.46 1721.06,-270.52 1757.49,-255.94"/>
<polygon fill="grey" stroke="grey" stroke-width="2" points="1759.1,-259.06 1767.08,-252.1 1756.5,-252.56 1759.1,-259.06"/>
</g>
<!-- 8&#45;&gt;43 -->
<g id="edge33" class="edge">
<title>8&#45;&gt;43</title>
<path fill="none" stroke="grey" stroke-width="2" d="M1575.65,-431.7C1568.1,-421.94 1559.77,-409.1 1555.84,-396 1542.03,-350.03 1540.59,-333.51 1555.84,-288 1559.19,-278 1565.25,-268.38 1571.66,-260.14"/>
<polygon fill="grey" stroke="grey" stroke-width="2" points="1574.4,-262.33 1578.1,-252.4 1569.02,-257.85 1574.4,-262.33"/>
</g>
<!-- 9 -->
<g id="node26" class="node">
<title>9</title>
<path fill="none" stroke="#d8d356" stroke-width="2" d="M1731.34,-396C1731.34,-396 1612.34,-396 1612.34,-396 1606.34,-396 1600.34,-390 1600.34,-384 1600.34,-384 1600.34,-372 1600.34,-372 1600.34,-366 1606.34,-360 1612.34,-360 1612.34,-360 1731.34,-360 1731.34,-360 1737.34,-360 1743.34,-366 1743.34,-372 1743.34,-372 1743.34,-384 1743.34,-384 1743.34,-390 1737.34,-396 1731.34,-396"/>
<text text-anchor="middle" x="1671.84" y="-375.5" font-family="sans" font-size="10.00">create_unfold_coord_map</text>
</g>
<!-- 8&#45;&gt;9 -->
<g id="edge31" class="edge">
<title>8&#45;&gt;9</title>
<path fill="none" stroke="grey" stroke-width="2" d="M1610.86,-431.7C1620.96,-422.97 1633.37,-412.24 1644.35,-402.75"/>
<polygon fill="grey" stroke="grey" stroke-width="2" points="1646.77,-405.29 1652.04,-396.1 1642.19,-399.99 1646.77,-405.29"/>
</g>
<!-- 8&#45;&gt;0 -->
<g id="edge53" class="edge">
<title>8&#45;&gt;0</title>
<path fill="none" stroke="grey" stroke-width="2" d="M1539.8,-433.88C1422.58,-399.97 1124.52,-318.47 868.84,-288 848.75,-285.61 155.01,-289.43 140.84,-275 77.61,-210.64 78.64,-137.36 140.84,-72 177.11,-33.89 986.83,-21.71 1171.55,-19.43"/>
<polygon fill="grey" stroke="grey" stroke-width="2" points="1171.64,-22.92 1181.59,-19.3 1171.55,-15.93 1171.64,-22.92"/>
</g>
<!-- 9&#45;&gt;7 -->
<g id="edge34" class="edge">
<title>9&#45;&gt;7</title>
<path fill="none" stroke="grey" stroke-width="2" d="M1688.89,-359.7C1697.33,-351.14 1707.66,-340.66 1716.88,-331.3"/>
<polygon fill="grey" stroke="grey" stroke-width="2" points="1719.45,-333.68 1723.98,-324.1 1714.46,-328.77 1719.45,-333.68"/>
</g>
<!-- 26 -->
<g id="node27" class="node">
<title>26</title>
<path fill="none" stroke="#d87d56" stroke-width="2" d="M1883.84,-396C1883.84,-396 1773.84,-396 1773.84,-396 1767.84,-396 1761.84,-390 1761.84,-384 1761.84,-384 1761.84,-372 1761.84,-372 1761.84,-366 1767.84,-360 1773.84,-360 1773.84,-360 1883.84,-360 1883.84,-360 1889.84,-360 1895.84,-366 1895.84,-372 1895.84,-372 1895.84,-384 1895.84,-384 1895.84,-390 1889.84,-396 1883.84,-396"/>
<text text-anchor="middle" x="1828.84" y="-375.5" font-family="sans" font-size="10.00">create_native_coord_ref</text>
</g>
<!-- 26&#45;&gt;7 -->
<g id="edge35" class="edge">
<title>26&#45;&gt;7</title>
<path fill="none" stroke="grey" stroke-width="2" d="M1807.08,-359.7C1796,-350.88 1782.36,-340.03 1770.35,-330.47"/>
<polygon fill="grey" stroke="grey" stroke-width="2" points="1772.34,-327.59 1762.34,-324.1 1767.99,-333.07 1772.34,-327.59"/>
</g>
<!-- 45&#45;&gt;0 -->
<g id="edge93" class="edge">
<title>45&#45;&gt;0</title>
<path fill="none" stroke="grey" stroke-width="2" d="M978.35,-74.38C981.56,-73.57 984.74,-72.77 987.84,-72 1052.35,-55.96 1127.68,-38.07 1171.64,-27.72"/>
<polygon fill="grey" stroke="grey" stroke-width="2" points="1172.65,-31.08 1181.58,-25.38 1171.05,-24.26 1172.65,-31.08"/>
</g>
<!-- 46 -->
<g id="node29" class="node">
<title>46</title>
<path fill="none" stroke="#56d873" stroke-width="2" d="M1168.34,-108C1168.34,-108 1121.34,-108 1121.34,-108 1115.34,-108 1109.34,-102 1109.34,-96 1109.34,-96 1109.34,-84 1109.34,-84 1109.34,-78 1115.34,-72 1121.34,-72 1121.34,-72 1168.34,-72 1168.34,-72 1174.34,-72 1180.34,-78 1180.34,-84 1180.34,-84 1180.34,-96 1180.34,-96 1180.34,-102 1174.34,-108 1168.34,-108"/>
<text text-anchor="middle" x="1144.84" y="-87.5" font-family="sans" font-size="10.00">qc_subfield</text>
</g>
<!-- 46&#45;&gt;0 -->
<g id="edge94" class="edge">
<title>46&#45;&gt;0</title>
<path fill="none" stroke="grey" stroke-width="2" d="M1160.66,-71.7C1168.41,-63.22 1177.88,-52.86 1186.36,-43.58"/>
<polygon fill="grey" stroke="grey" stroke-width="2" points="1189.03,-45.85 1193.2,-36.1 1183.87,-41.12 1189.03,-45.85"/>
</g>
<!-- 47&#45;&gt;0 -->
<g id="edge95" class="edge">
<title>47&#45;&gt;0</title>
<path fill="none" stroke="grey" stroke-width="2" d="M1084.2,-71.88C1111.1,-60.46 1146.18,-45.58 1172.26,-34.52"/>
<polygon fill="grey" stroke="grey" stroke-width="2" points="1173.94,-37.61 1181.78,-30.48 1171.21,-31.16 1173.94,-37.61"/>
</g>
<!-- 10 -->
<g id="node31" class="node">
<title>10</title>
<path fill="none" stroke="#c6d856" stroke-width="2" d="M2004.84,-468C2004.84,-468 1912.84,-468 1912.84,-468 1906.84,-468 1900.84,-462 1900.84,-456 1900.84,-456 1900.84,-444 1900.84,-444 1900.84,-438 1906.84,-432 1912.84,-432 1912.84,-432 2004.84,-432 2004.84,-432 2010.84,-432 2016.84,-438 2016.84,-444 2016.84,-444 2016.84,-456 2016.84,-456 2016.84,-462 2010.84,-468 2004.84,-468"/>
<text text-anchor="middle" x="1958.84" y="-447.5" font-family="sans" font-size="10.00">laplace_coords_hipp</text>
</g>
<!-- 10&#45;&gt;7 -->
<g id="edge56" class="edge">
<title>10&#45;&gt;7</title>
<path fill="none" stroke="grey" stroke-width="2" d="M1952.67,-431.71C1944.65,-411.66 1928.8,-378.94 1904.84,-360 1876.12,-337.3 1837.39,-324.19 1804.79,-316.69"/>
<polygon fill="grey" stroke="grey" stroke-width="2" points="1805.39,-313.24 1794.88,-314.54 1803.91,-320.08 1805.39,-313.24"/>
</g>
<!-- 10&#45;&gt;26 -->
<g id="edge57" class="edge">
<title>10&#45;&gt;26</title>
<path fill="none" stroke="grey" stroke-width="2" d="M1927.03,-431.88C1909.72,-422.55 1888.12,-410.92 1869.58,-400.94"/>
<polygon fill="grey" stroke="grey" stroke-width="2" points="1871.22,-397.85 1860.76,-396.19 1867.91,-404.01 1871.22,-397.85"/>
</g>
<!-- 10&#45;&gt;38 -->
<g id="edge58" class="edge">
<title>10&#45;&gt;38</title>
<path fill="none" stroke="grey" stroke-width="2" d="M2015.81,-431.9C2054.73,-419.65 2100.24,-403.96 2105.84,-396 2118.43,-378.07 2115.57,-352.76 2110.49,-333.71"/>
<polygon fill="grey" stroke="grey" stroke-width="2" points="2113.84,-332.7 2107.62,-324.12 2107.14,-334.71 2113.84,-332.7"/>
</g>
<!-- 10&#45;&gt;41 -->
<g id="edge59" class="edge">
<title>10&#45;&gt;41</title>
<path fill="none" stroke="grey" stroke-width="2" d="M2008.64,-431.93C2035.7,-421.54 2065.18,-408.01 2072.84,-396 2081.44,-382.51 2083.23,-372.17 2072.84,-360 2048.87,-331.94 2020.16,-369.4 1990.84,-347 1940.1,-308.23 1983.88,-253 1931.84,-216 1891.55,-187.36 1582.57,-172.06 1425.26,-166.06"/>
<polygon fill="grey" stroke="grey" stroke-width="2" points="1425.25,-162.56 1415.12,-165.68 1424.98,-169.55 1425.25,-162.56"/>
</g>
<!-- 24 -->
<g id="node32" class="node">
<title>24</title>
<path fill="none" stroke="#bed856" stroke-width="2" d="M2051.84,-396C2051.84,-396 1963.84,-396 1963.84,-396 1957.84,-396 1951.84,-390 1951.84,-384 1951.84,-384 1951.84,-372 1951.84,-372 1951.84,-366 1957.84,-360 1963.84,-360 1963.84,-360 2051.84,-360 2051.84,-360 2057.84,-360 2063.84,-366 2063.84,-372 2063.84,-372 2063.84,-384 2063.84,-384 2063.84,-390 2057.84,-396 2051.84,-396"/>
<text text-anchor="middle" x="2007.84" y="-375.5" font-family="sans" font-size="10.00">equivolume_coords</text>
</g>
<!-- 24&#45;&gt;7 -->
<g id="edge78" class="edge">
<title>24&#45;&gt;7</title>
<path fill="none" stroke="grey" stroke-width="2" d="M1951.54,-362.24C1908.72,-351.02 1849.77,-335.56 1805.11,-323.85"/>
<polygon fill="grey" stroke="grey" stroke-width="2" points="1805.79,-320.41 1795.23,-321.26 1804.02,-327.18 1805.79,-320.41"/>
</g>
<!-- 24&#45;&gt;38 -->
<g id="edge79" class="edge">
<title>24&#45;&gt;38</title>
<path fill="none" stroke="grey" stroke-width="2" d="M2030.83,-359.7C2042.65,-350.8 2057.23,-339.82 2070.01,-330.2"/>
<polygon fill="grey" stroke="grey" stroke-width="2" points="2072.23,-332.91 2078.11,-324.1 2068.02,-327.32 2072.23,-332.91"/>
</g>
<!-- 24&#45;&gt;41 -->
<g id="edge80" class="edge">
<title>24&#45;&gt;41</title>
<path fill="none" stroke="grey" stroke-width="2" d="M1967.98,-359.86C1962.38,-356.22 1957.1,-351.94 1952.84,-347 1912.35,-300.03 1953.97,-253.82 1904.84,-216 1867.75,-187.45 1577.03,-172.24 1425.32,-166.18"/>
<polygon fill="grey" stroke="grey" stroke-width="2" points="1425.22,-162.68 1415.09,-165.78 1424.94,-169.67 1425.22,-162.68"/>
</g>
<!-- 25 -->
<g id="node33" class="node">
<title>25</title>
<path fill="none" stroke="#56d8a9" stroke-width="2" d="M2162.34,-468C2162.34,-468 2047.34,-468 2047.34,-468 2041.34,-468 2035.34,-462 2035.34,-456 2035.34,-456 2035.34,-444 2035.34,-444 2035.34,-438 2041.34,-432 2047.34,-432 2047.34,-432 2162.34,-432 2162.34,-432 2168.34,-432 2174.34,-438 2174.34,-444 2174.34,-444 2174.34,-456 2174.34,-456 2174.34,-462 2168.34,-468 2162.34,-468"/>
<text text-anchor="middle" x="2104.84" y="-447.5" font-family="sans" font-size="10.00">prep_equivolume_coords</text>
</g>
<!-- 25&#45;&gt;24 -->
<g id="edge36" class="edge">
<title>25&#45;&gt;24</title>
<path fill="none" stroke="grey" stroke-width="2" d="M2080.86,-431.7C2068.52,-422.8 2053.32,-411.82 2039.98,-402.2"/>
<polygon fill="grey" stroke="grey" stroke-width="2" points="2041.7,-399.12 2031.54,-396.1 2037.6,-404.79 2041.7,-399.12"/>
</g>
<!-- 37 -->
<g id="node34" class="node">
<title>37</title>
<path fill="none" stroke="#ced856" stroke-width="2" d="M2189.84,-252C2189.84,-252 2007.84,-252 2007.84,-252 2001.84,-252 1995.84,-246 1995.84,-240 1995.84,-240 1995.84,-228 1995.84,-228 1995.84,-222 2001.84,-216 2007.84,-216 2007.84,-216 2189.84,-216 2189.84,-216 2195.84,-216 2201.84,-222 2201.84,-228 2201.84,-228 2201.84,-240 2201.84,-240 2201.84,-246 2195.84,-252 2189.84,-252"/>
<text text-anchor="middle" x="2098.84" y="-231.5" font-family="sans" font-size="10.00">combine_tissue_subfield_labels_corobl</text>
</g>
<!-- 37&#45;&gt;40 -->
<g id="edge37" class="edge">
<title>37&#45;&gt;40</title>
<path fill="none" stroke="grey" stroke-width="2" d="M2093.15,-215.7C2090.59,-207.9 2087.5,-198.51 2084.65,-189.83"/>
<polygon fill="grey" stroke="grey" stroke-width="2" points="2087.9,-188.51 2081.46,-180.1 2081.25,-190.7 2087.9,-188.51"/>
</g>
<!-- 37&#45;&gt;36 -->
<g id="edge85" class="edge">
<title>37&#45;&gt;36</title>
<path fill="none" stroke="grey" stroke-width="2" d="M1995.69,-223.32C1966.35,-220.75 1934.35,-218.1 1904.84,-216 1614.66,-195.39 1537.83,-213.3 1244.45,-179.98"/>
<polygon fill="grey" stroke="grey" stroke-width="2" points="1244.71,-176.48 1234.37,-178.82 1243.91,-183.44 1244.71,-176.48"/>
</g>
<!-- 39 -->
<g id="node47" class="node">
<title>39</title>
<path fill="none" stroke="#61d856" stroke-width="2" d="M1384.84,-252C1384.84,-252 1280.84,-252 1280.84,-252 1274.84,-252 1268.84,-246 1268.84,-240 1268.84,-240 1268.84,-228 1268.84,-228 1268.84,-222 1274.84,-216 1280.84,-216 1280.84,-216 1384.84,-216 1384.84,-216 1390.84,-216 1396.84,-222 1396.84,-228 1396.84,-228 1396.84,-240 1396.84,-240 1396.84,-246 1390.84,-252 1384.84,-252"/>
<text text-anchor="middle" x="1332.84" y="-231.5" font-family="sans" font-size="10.00">create_native_crop_ref</text>
</g>
<!-- 40&#45;&gt;39 -->
<g id="edge87" class="edge">
<title>40&#45;&gt;39</title>
<path fill="none" stroke="grey" stroke-width="2" d="M1994.51,-168.28C1874.8,-176.41 1644.18,-193.45 1448.84,-216 1435.25,-217.57 1420.81,-219.48 1406.89,-221.46"/>
<polygon fill="grey" stroke="grey" stroke-width="2" points="1406.27,-218.01 1396.87,-222.9 1407.26,-224.94 1406.27,-218.01"/>
</g>
<!-- 38&#45;&gt;37 -->
<g id="edge38" class="edge">
<title>38&#45;&gt;37</title>
<path fill="none" stroke="grey" stroke-width="2" d="M2100.34,-287.7C2100.12,-279.98 2099.86,-270.71 2099.61,-262.11"/>
<polygon fill="grey" stroke="grey" stroke-width="2" points="2103.11,-262 2099.33,-252.1 2096.11,-262.2 2103.11,-262"/>
</g>
<!-- 11 -->
<g id="node37" class="node">
<title>11</title>
<path fill="none" stroke="#59d856" stroke-width="2" d="M1956.34,-540C1956.34,-540 1851.34,-540 1851.34,-540 1845.34,-540 1839.34,-534 1839.34,-528 1839.34,-528 1839.34,-516 1839.34,-516 1839.34,-510 1845.34,-504 1851.34,-504 1851.34,-504 1956.34,-504 1956.34,-504 1962.34,-504 1968.34,-510 1968.34,-516 1968.34,-516 1968.34,-528 1968.34,-528 1968.34,-534 1962.34,-540 1956.34,-540"/>
<text text-anchor="middle" x="1903.84" y="-519.5" font-family="sans" font-size="10.00">reinsert_subject_labels</text>
</g>
<!-- 11&#45;&gt;10 -->
<g id="edge60" class="edge">
<title>11&#45;&gt;10</title>
<path fill="none" stroke="grey" stroke-width="2" d="M1917.43,-503.7C1923.96,-495.39 1931.9,-485.28 1939.08,-476.14"/>
<polygon fill="grey" stroke="grey" stroke-width="2" points="1941.97,-478.13 1945.4,-468.1 1936.47,-473.81 1941.97,-478.13"/>
</g>
<!-- 11&#45;&gt;25 -->
<g id="edge61" class="edge">
<title>11&#45;&gt;25</title>
<path fill="none" stroke="grey" stroke-width="2" d="M1968.61,-507.97C1987.34,-503.43 2007.63,-497.75 2025.84,-491 2039.41,-485.97 2053.68,-479.23 2066.31,-472.72"/>
<polygon fill="grey" stroke="grey" stroke-width="2" points="2067.96,-475.8 2075.17,-468.04 2064.7,-469.61 2067.96,-475.8"/>
</g>
<!-- 11&#45;&gt;37 -->
<g id="edge62" class="edge">
<title>11&#45;&gt;37</title>
<path fill="none" stroke="grey" stroke-width="2" d="M1968.52,-517.78C2044.8,-513.39 2163.25,-504.5 2178.84,-491 2248.15,-430.95 2265.54,-365.07 2215.84,-288 2206.98,-274.26 2193.6,-264.05 2179.02,-256.47"/>
<polygon fill="grey" stroke="grey" stroke-width="2" points="2180.35,-253.22 2169.82,-252.08 2177.34,-259.54 2180.35,-253.22"/>
</g>
<!-- 12 -->
<g id="node38" class="node">
<title>12</title>
<path fill="none" stroke="#d8c356" stroke-width="2" d="M1956.84,-612C1956.84,-612 1852.84,-612 1852.84,-612 1846.84,-612 1840.84,-606 1840.84,-600 1840.84,-600 1840.84,-588 1840.84,-588 1840.84,-582 1846.84,-576 1852.84,-576 1852.84,-576 1956.84,-576 1956.84,-576 1962.84,-576 1968.84,-582 1968.84,-588 1968.84,-588 1968.84,-600 1968.84,-600 1968.84,-606 1962.84,-612 1956.84,-612"/>
<text text-anchor="middle" x="1904.84" y="-591.5" font-family="sans" font-size="10.00">template_shape_inject</text>
</g>
<!-- 12&#45;&gt;11 -->
<g id="edge39" class="edge">
<title>12&#45;&gt;11</title>
<path fill="none" stroke="grey" stroke-width="2" d="M1904.59,-575.7C1904.48,-567.98 1904.35,-558.71 1904.22,-550.11"/>
<polygon fill="grey" stroke="grey" stroke-width="2" points="1907.72,-550.05 1904.08,-540.1 1900.72,-550.15 1907.72,-550.05"/>
</g>
<!-- 13 -->
<g id="node39" class="node">
<title>13</title>
<path fill="none" stroke="#56d8d0" stroke-width="2" d="M1863.34,-828C1863.34,-828 1754.34,-828 1754.34,-828 1748.34,-828 1742.34,-822 1742.34,-816 1742.34,-816 1742.34,-804 1742.34,-804 1742.34,-798 1748.34,-792 1754.34,-792 1754.34,-792 1863.34,-792 1863.34,-792 1869.34,-792 1875.34,-798 1875.34,-804 1875.34,-804 1875.34,-816 1875.34,-816 1875.34,-822 1869.34,-828 1863.34,-828"/>
<text text-anchor="middle" x="1808.84" y="-807.5" font-family="sans" font-size="10.00">import_template_shape</text>
</g>
<!-- 13&#45;&gt;12 -->
<g id="edge40" class="edge">
<title>13&#45;&gt;12</title>
<path fill="none" stroke="grey" stroke-width="2" d="M1819.83,-791.69C1826.07,-781.5 1833.82,-768.25 1839.84,-756 1862.38,-710.1 1883.59,-654.33 1895.33,-621.93"/>
<polygon fill="grey" stroke="grey" stroke-width="2" points="1898.71,-622.87 1898.8,-612.28 1892.13,-620.5 1898.71,-622.87"/>
</g>
<!-- 22 -->
<g id="node40" class="node">
<title>22</title>
<path fill="none" stroke="#56d88a" stroke-width="2" d="M1818.84,-756C1818.84,-756 1718.84,-756 1718.84,-756 1712.84,-756 1706.84,-750 1706.84,-744 1706.84,-744 1706.84,-732 1706.84,-732 1706.84,-726 1712.84,-720 1718.84,-720 1718.84,-720 1818.84,-720 1818.84,-720 1824.84,-720 1830.84,-726 1830.84,-732 1830.84,-732 1830.84,-744 1830.84,-744 1830.84,-750 1824.84,-756 1818.84,-756"/>
<text text-anchor="middle" x="1768.84" y="-735.5" font-family="sans" font-size="10.00">prep_segs_for_greedy</text>
</g>
<!-- 13&#45;&gt;22 -->
<g id="edge41" class="edge">
<title>13&#45;&gt;22</title>
<path fill="none" stroke="grey" stroke-width="2" d="M1798.95,-791.7C1794.35,-783.64 1788.78,-773.89 1783.68,-764.98"/>
<polygon fill="grey" stroke="grey" stroke-width="2" points="1786.61,-763.05 1778.61,-756.1 1780.53,-766.52 1786.61,-763.05"/>
</g>
<!-- 21 -->
<g id="node41" class="node">
<title>21</title>
<path fill="none" stroke="#d89c56" stroke-width="2" d="M1814.84,-684C1814.84,-684 1722.84,-684 1722.84,-684 1716.84,-684 1710.84,-678 1710.84,-672 1710.84,-672 1710.84,-660 1710.84,-660 1710.84,-654 1716.84,-648 1722.84,-648 1722.84,-648 1814.84,-648 1814.84,-648 1820.84,-648 1826.84,-654 1826.84,-660 1826.84,-660 1826.84,-672 1826.84,-672 1826.84,-678 1820.84,-684 1814.84,-684"/>
<text text-anchor="middle" x="1768.84" y="-663.5" font-family="sans" font-size="10.00">template_shape_reg</text>
</g>
<!-- 22&#45;&gt;21 -->
<g id="edge44" class="edge">
<title>22&#45;&gt;21</title>
<path fill="none" stroke="grey" stroke-width="2" d="M1768.84,-719.7C1768.84,-711.98 1768.84,-702.71 1768.84,-694.11"/>
<polygon fill="grey" stroke="grey" stroke-width="2" points="1772.34,-694.1 1768.84,-684.1 1765.34,-694.1 1772.34,-694.1"/>
</g>
<!-- 21&#45;&gt;12 -->
<g id="edge42" class="edge">
<title>21&#45;&gt;12</title>
<path fill="none" stroke="grey" stroke-width="2" d="M1802.11,-647.88C1820.3,-638.51 1843.03,-626.81 1862.48,-616.8"/>
<polygon fill="grey" stroke="grey" stroke-width="2" points="1864.15,-619.88 1871.44,-612.19 1860.95,-613.65 1864.15,-619.88"/>
</g>
<!-- 23 -->
<g id="node42" class="node">
<title>23</title>
<path fill="none" stroke="#56d8c9" stroke-width="2" d="M1810.34,-612C1810.34,-612 1691.34,-612 1691.34,-612 1685.34,-612 1679.34,-606 1679.34,-600 1679.34,-600 1679.34,-588 1679.34,-588 1679.34,-582 1685.34,-576 1691.34,-576 1691.34,-576 1810.34,-576 1810.34,-576 1816.34,-576 1822.34,-582 1822.34,-588 1822.34,-588 1822.34,-600 1822.34,-600 1822.34,-606 1816.34,-612 1810.34,-612"/>
<text text-anchor="middle" x="1750.84" y="-591.5" font-family="sans" font-size="10.00">inject_init_laplace_coords</text>
</g>
<!-- 21&#45;&gt;23 -->
<g id="edge43" class="edge">
<title>21&#45;&gt;23</title>
<path fill="none" stroke="grey" stroke-width="2" d="M1764.39,-647.7C1762.38,-639.9 1759.97,-630.51 1757.74,-621.83"/>
<polygon fill="grey" stroke="grey" stroke-width="2" points="1761.11,-620.92 1755.23,-612.1 1754.34,-622.66 1761.11,-620.92"/>
</g>
<!-- 23&#45;&gt;10 -->
<g id="edge77" class="edge">
<title>23&#45;&gt;10</title>
<path fill="none" stroke="grey" stroke-width="2" d="M1761.22,-575.88C1774.63,-555.36 1799.94,-521.55 1830.84,-504 1856.83,-489.23 1869.11,-502.19 1896.84,-491 1907.75,-486.59 1918.81,-480.2 1928.52,-473.81"/>
<polygon fill="grey" stroke="grey" stroke-width="2" points="1930.73,-476.54 1937,-468 1926.77,-470.76 1930.73,-476.54"/>
</g>
<!-- 14&#45;&gt;11 -->
<g id="edge63" class="edge">
<title>14&#45;&gt;11</title>
<path fill="none" stroke="grey" stroke-width="2" d="M1407.55,-651.96C1466.09,-633.86 1576.06,-600.58 1670.84,-576 1723.59,-562.32 1783.55,-548.72 1829.44,-538.73"/>
<polygon fill="grey" stroke="grey" stroke-width="2" points="1830.27,-542.13 1839.3,-536.59 1828.79,-535.29 1830.27,-542.13"/>
</g>
<!-- 14&#45;&gt;12 -->
<g id="edge64" class="edge">
<title>14&#45;&gt;12</title>
<path fill="none" stroke="grey" stroke-width="2" d="M1407.52,-661.89C1487.63,-655.55 1668.75,-639.52 1830.68,-612.09"/>
<polygon fill="grey" stroke="grey" stroke-width="2" points="1831.56,-615.49 1840.83,-610.35 1830.38,-608.59 1831.56,-615.49"/>
</g>
<!-- 14&#45;&gt;22 -->
<g id="edge65" class="edge">
<title>14&#45;&gt;22</title>
<path fill="none" stroke="grey" stroke-width="2" d="M1407.36,-674.21C1475.63,-686.07 1612.39,-709.83 1696.73,-724.48"/>
<polygon fill="grey" stroke="grey" stroke-width="2" points="1696.3,-727.95 1706.75,-726.22 1697.5,-721.06 1696.3,-727.95"/>
</g>
<!-- 14&#45;&gt;23 -->
<g id="edge66" class="edge">
<title>14&#45;&gt;23</title>
<path fill="none" stroke="grey" stroke-width="2" d="M1407.4,-657.44C1469.78,-646.1 1588.8,-624.46 1669.01,-609.88"/>
<polygon fill="grey" stroke="grey" stroke-width="2" points="1669.87,-613.28 1679.08,-608.05 1668.61,-606.39 1669.87,-613.28"/>
</g>
<!-- 14&#45;&gt;49 -->
<g id="edge45" class="edge">
<title>14&#45;&gt;49</title>
<path fill="none" stroke="grey" stroke-width="2" d="M1364.85,-647.7C1364.41,-639.98 1363.88,-630.71 1363.39,-622.11"/>
<polygon fill="grey" stroke="grey" stroke-width="2" points="1366.88,-621.89 1362.81,-612.1 1359.89,-622.29 1366.88,-621.89"/>
</g>
<!-- 48 -->
<g id="node45" class="node">
<title>48</title>
<path fill="none" stroke="#a7d856" stroke-width="2" d="M1395.84,-540C1395.84,-540 1327.84,-540 1327.84,-540 1321.84,-540 1315.84,-534 1315.84,-528 1315.84,-528 1315.84,-516 1315.84,-516 1315.84,-510 1321.84,-504 1327.84,-504 1327.84,-504 1395.84,-504 1395.84,-504 1401.84,-504 1407.84,-510 1407.84,-516 1407.84,-516 1407.84,-528 1407.84,-528 1407.84,-534 1401.84,-540 1395.84,-540"/>
<text text-anchor="middle" x="1361.84" y="-519.5" font-family="sans" font-size="10.00">qc_nnunet_dice</text>
</g>
<!-- 49&#45;&gt;48 -->
<g id="edge46" class="edge">
<title>49&#45;&gt;48</title>
<path fill="none" stroke="grey" stroke-width="2" d="M1361.84,-575.7C1361.84,-567.98 1361.84,-558.71 1361.84,-550.11"/>
<polygon fill="grey" stroke="grey" stroke-width="2" points="1365.34,-550.1 1361.84,-540.1 1358.34,-550.1 1365.34,-550.1"/>
</g>
<!-- 48&#45;&gt;0 -->
<g id="edge96" class="edge">
<title>48&#45;&gt;0</title>
<path fill="none" stroke="grey" stroke-width="2" d="M1367.31,-503.6C1387.48,-438.11 1454.66,-207.01 1418.84,-144 1381.66,-78.61 1295.26,-43.84 1245.64,-28.64"/>
<polygon fill="grey" stroke="grey" stroke-width="2" points="1246.52,-25.25 1235.94,-25.77 1244.54,-31.96 1246.52,-25.25"/>
</g>
<!-- 36&#45;&gt;46 -->
<g id="edge84" class="edge">
<title>36&#45;&gt;46</title>
<path fill="none" stroke="grey" stroke-width="2" d="M1147.09,-143.7C1146.76,-135.98 1146.37,-126.71 1146,-118.11"/>
<polygon fill="grey" stroke="grey" stroke-width="2" points="1149.49,-117.95 1145.57,-108.1 1142.5,-118.25 1149.49,-117.95"/>
</g>
<!-- 36&#45;&gt;0 -->
<g id="edge83" class="edge">
<title>36&#45;&gt;0</title>
<path fill="none" stroke="grey" stroke-width="2" d="M1209.83,-143.87C1214.89,-140.35 1219.38,-136.11 1222.84,-131 1239.93,-105.76 1231.08,-69.83 1221.5,-45.53"/>
<polygon fill="grey" stroke="grey" stroke-width="2" points="1224.68,-44.06 1217.57,-36.21 1218.23,-46.78 1224.68,-44.06"/>
</g>
<!-- 39&#45;&gt;43 -->
<g id="edge86" class="edge">
<title>39&#45;&gt;43</title>
<path fill="none" stroke="grey" stroke-width="2" d="M1397.05,-234C1424.94,-234 1452.83,-234 1480.73,-234"/>
<polygon fill="grey" stroke="grey" stroke-width="2" points="1481.01,-237.5 1491.01,-234 1481.01,-230.5 1481.01,-237.5"/>
</g>
<!-- 39&#45;&gt;36 -->
<g id="edge47" class="edge">
<title>39&#45;&gt;36</title>
<path fill="none" stroke="grey" stroke-width="2" d="M1287.58,-215.88C1261.84,-206.14 1229.43,-193.87 1202.3,-183.61"/>
<polygon fill="grey" stroke="grey" stroke-width="2" points="1203.54,-180.33 1192.95,-180.07 1201.06,-186.88 1203.54,-180.33"/>
</g>
<!-- 39&#45;&gt;41 -->
<g id="edge48" class="edge">
<title>39&#45;&gt;41</title>
<path fill="none" stroke="grey" stroke-width="2" d="M1333.08,-215.7C1333.19,-207.98 1333.33,-198.71 1333.45,-190.11"/>
<polygon fill="grey" stroke="grey" stroke-width="2" points="1336.95,-190.15 1333.59,-180.1 1329.95,-190.05 1336.95,-190.15"/>
</g>
<!-- 39&#45;&gt;44 -->
<g id="edge49" class="edge">
<title>39&#45;&gt;44</title>
<path fill="none" stroke="grey" stroke-width="2" d="M1268.81,-221.3C1214.23,-211.23 1133.42,-196.1 1052.88,-179.98"/>
<polygon fill="grey" stroke="grey" stroke-width="2" points="1053.55,-176.55 1043.06,-178.01 1052.17,-183.41 1053.55,-176.55"/>
</g>
<!-- 41&#45;&gt;0 -->
<g id="edge88" class="edge">
<title>41&#45;&gt;0</title>
<path fill="none" stroke="grey" stroke-width="2" d="M1318.76,-143.87C1296.8,-118.92 1255.89,-72.45 1230.64,-43.77"/>
<polygon fill="grey" stroke="grey" stroke-width="2" points="1233.2,-41.38 1223.97,-36.19 1227.95,-46.01 1233.2,-41.38"/>
</g>
<!-- 44&#45;&gt;46 -->
<g id="edge92" class="edge">
<title>44&#45;&gt;46</title>
<path fill="none" stroke="grey" stroke-width="2" d="M1043.05,-146.1C1069.75,-140.14 1095.15,-133.99 1100.84,-131 1108.42,-127.01 1115.71,-121.41 1122.1,-115.66"/>
<polygon fill="grey" stroke="grey" stroke-width="2" points="1124.87,-117.85 1129.66,-108.4 1120.02,-112.79 1124.87,-117.85"/>
</g>
<!-- 44&#45;&gt;0 -->
<g id="edge91" class="edge">
<title>44&#45;&gt;0</title>
<path fill="none" stroke="grey" stroke-width="2" d="M1042.99,-145.63C1046.32,-145.05 1049.61,-144.5 1052.84,-144 1081.96,-139.49 1162.85,-150.63 1184.84,-131 1208.33,-110.02 1211.94,-72.13 1211.28,-46.29"/>
<polygon fill="grey" stroke="grey" stroke-width="2" points="1214.76,-45.85 1210.78,-36.03 1207.77,-46.19 1214.76,-45.85"/>
</g>
</g>
</svg>
