<?xml version="1.0" encoding="UTF-8" standalone="no"?>
<!DOCTYPE svg PUBLIC "-//W3C//DTD SVG 1.1//EN"
 "http://www.w3.org/Graphics/SVG/1.1/DTD/svg11.dtd">
<!-- Generated by graphviz version 2.43.0 (0)
 -->
<!-- Pages: 1 -->
<svg width="448pt" height="196pt"
 viewBox="0.00 0.00 448.00 196.00" xmlns="http://www.w3.org/2000/svg" xmlns:xlink="http://www.w3.org/1999/xlink">
<g id="graph0" class="graph" transform="scale(1 1) rotate(0) translate(4 192)">
<polygon fill="white" stroke="transparent" points="-4,4 -4,-192 444,-192 444,4 -4,4"/>
<g id="clust1" class="cluster">
<title>cluster_0</title>
<polygon fill="white" stroke="blue" points="8,-8 8,-139 432,-139 432,-8 8,-8"/>
<text text-anchor="middle" x="220" y="-123.8" font-family="Times,serif" font-size="14.00">autotop</text>
</g>
<!-- 10 -->
<g id="node1" class="node">
<title>10</title>
<path fill="none" stroke="#56d87b" stroke-width="2" d="M270,-116C270,-116 178,-116 178,-116 172,-116 166,-110 166,-104 166,-104 166,-92 166,-92 166,-86 172,-80 178,-80 178,-80 270,-80 270,-80 276,-80 282,-86 282,-92 282,-92 282,-104 282,-104 282,-110 276,-116 270,-116"/>
<text text-anchor="middle" x="224" y="-95.5" font-family="sans" font-size="10.00">laplace_coords_hipp</text>
</g>
<!-- 24 -->
<g id="node2" class="node">
<title>24</title>
<path fill="none" stroke="#88d856" stroke-width="2" d="M122,-44C122,-44 34,-44 34,-44 28,-44 22,-38 22,-32 22,-32 22,-20 22,-20 22,-14 28,-8 34,-8 34,-8 122,-8 122,-8 128,-8 134,-14 134,-20 134,-20 134,-32 134,-32 134,-38 128,-44 122,-44"/>
<text text-anchor="middle" x="78" y="-23.5" font-family="sans" font-size="10.00">equivolume_coords</text>
</g>
<!-- 25 -->
<g id="node3" class="node">
<title>25</title>
<path fill="none" stroke="#a7d856" stroke-width="2" d="M135.5,-116C135.5,-116 20.5,-116 20.5,-116 14.5,-116 8.5,-110 8.5,-104 8.5,-104 8.5,-92 8.5,-92 8.5,-86 14.5,-80 20.5,-80 20.5,-80 135.5,-80 135.5,-80 141.5,-80 147.5,-86 147.5,-92 147.5,-92 147.5,-104 147.5,-104 147.5,-110 141.5,-116 135.5,-116"/>
<text text-anchor="middle" x="78" y="-95.5" font-family="sans" font-size="10.00">prep_equivolume_coords</text>
</g>
<!-- 25&#45;&gt;24 -->
<g id="edge1" class="edge">
<title>25&#45;&gt;24</title>
<path fill="none" stroke="grey" stroke-width="2" d="M78,-79.7C78,-71.98 78,-62.71 78,-54.11"/>
<polygon fill="grey" stroke="grey" stroke-width="2" points="81.5,-54.1 78,-44.1 74.5,-54.1 81.5,-54.1"/>
</g>
<!-- 38 -->
<g id="node4" class="node">
<title>38</title>
<path fill="none" stroke="#56d0d8" stroke-width="2" d="M420,-116C420,-116 312,-116 312,-116 306,-116 300,-110 300,-104 300,-104 300,-92 300,-92 300,-86 306,-80 312,-80 312,-80 420,-80 420,-80 426,-80 432,-86 432,-92 432,-92 432,-104 432,-104 432,-110 426,-116 420,-116"/>
<text text-anchor="middle" x="366" y="-95.5" font-family="sans" font-size="10.00">laplace_coords_dentate</text>
</g>
<!-- 11 -->
<g id="node5" class="node">
<title>11</title>
<path fill="none" stroke="#d88d56" stroke-width="2" d="M197.5,-188C197.5,-188 92.5,-188 92.5,-188 86.5,-188 80.5,-182 80.5,-176 80.5,-176 80.5,-164 80.5,-164 80.5,-158 86.5,-152 92.5,-152 92.5,-152 197.5,-152 197.5,-152 203.5,-152 209.5,-158 209.5,-164 209.5,-164 209.5,-176 209.5,-176 209.5,-182 203.5,-188 197.5,-188"/>
<text text-anchor="middle" x="145" y="-167.5" font-family="sans" font-size="10.00">reinsert_subject_labels</text>
</g>
<!-- 11&#45;&gt;10 -->
<g id="edge2" class="edge">
<title>11&#45;&gt;10</title>
<path fill="none" stroke="grey" stroke-width="2" d="M164.53,-151.7C174.38,-142.97 186.49,-132.24 197.2,-122.75"/>
<polygon fill="grey" stroke="grey" stroke-width="2" points="199.53,-125.36 204.7,-116.1 194.89,-120.12 199.53,-125.36"/>
</g>
<!-- 11&#45;&gt;25 -->
<g id="edge3" class="edge">
<title>11&#45;&gt;25</title>
<path fill="none" stroke="grey" stroke-width="2" d="M128.44,-151.7C120.32,-143.22 110.41,-132.86 101.53,-123.58"/>
<polygon fill="grey" stroke="grey" stroke-width="2" points="103.81,-120.91 94.37,-116.1 98.76,-125.75 103.81,-120.91"/>
</g>
<!-- 23 -->
<g id="node6" class="node">
<title>23</title>
<path fill="none" stroke="#56d8a2" stroke-width="2" d="M391.5,-188C391.5,-188 272.5,-188 272.5,-188 266.5,-188 260.5,-182 260.5,-176 260.5,-176 260.5,-164 260.5,-164 260.5,-158 266.5,-152 272.5,-152 272.5,-152 391.5,-152 391.5,-152 397.5,-152 403.5,-158 403.5,-164 403.5,-164 403.5,-176 403.5,-176 403.5,-182 397.5,-188 391.5,-188"/>
<text text-anchor="middle" x="332" y="-167.5" font-family="sans" font-size="10.00">inject_init_laplace_coords</text>
</g>
<!-- 23&#45;&gt;10 -->
<g id="edge4" class="edge">
<title>23&#45;&gt;10</title>
<path fill="none" stroke="grey" stroke-width="2" d="M305.58,-151.88C291.59,-142.81 274.22,-131.55 259.11,-121.76"/>
<polygon fill="grey" stroke="grey" stroke-width="2" points="260.82,-118.69 250.52,-116.19 257.01,-124.57 260.82,-118.69"/>
</g>
<!-- 23&#45;&gt;38 -->
<g id="edge5" class="edge">
<title>23&#45;&gt;38</title>
<path fill="none" stroke="grey" stroke-width="2" d="M340.4,-151.7C344.27,-143.73 348.95,-134.1 353.24,-125.26"/>
<polygon fill="grey" stroke="grey" stroke-width="2" points="356.47,-126.63 357.69,-116.1 350.17,-123.57 356.47,-126.63"/>
</g>
</g>
</svg>
