<?xml version="1.0" encoding="UTF-8" standalone="no"?>
<!DOCTYPE svg PUBLIC "-//W3C//DTD SVG 1.1//EN"
 "http://www.w3.org/Graphics/SVG/1.1/DTD/svg11.dtd">
<!-- Generated by graphviz version 2.43.0 (0)
 -->
<!-- Pages: 1 -->
<svg width="742pt" height="299pt"
 viewBox="0.00 0.00 742.00 299.00" xmlns="http://www.w3.org/2000/svg" xmlns:xlink="http://www.w3.org/1999/xlink">
<g id="graph0" class="graph" transform="scale(1 1) rotate(0) translate(4 295)">
<polygon fill="white" stroke="transparent" points="-4,4 -4,-295 738,-295 738,4 -4,4"/>
<g id="clust1" class="cluster">
<title>cluster_0</title>
<polygon fill="white" stroke="blue" points="8,-8 8,-283 418,-283 418,-8 8,-8"/>
<text text-anchor="middle" x="213" y="-267.8" font-family="Times,serif" font-size="14.00">warps</text>
</g>
<!-- 7 -->
<g id="node1" class="node">
<title>7</title>
<path fill="none" stroke="#61d856" stroke-width="2" d="M355,-116C355,-116 271,-116 271,-116 265,-116 259,-110 259,-104 259,-104 259,-92 259,-92 259,-86 265,-80 271,-80 271,-80 355,-80 355,-80 361,-80 367,-86 367,-92 367,-92 367,-104 367,-104 367,-110 361,-116 355,-116"/>
<text text-anchor="middle" x="313" y="-95.5" font-family="sans" font-size="10.00">create_warps_hipp</text>
</g>
<!-- 45 -->
<g id="node2" class="node">
<title>45</title>
<path fill="none" stroke="#d86656" stroke-width="2" d="M178,-44C178,-44 20,-44 20,-44 14,-44 8,-38 8,-32 8,-32 8,-20 8,-20 8,-14 14,-8 20,-8 20,-8 178,-8 178,-8 184,-8 190,-14 190,-20 190,-20 190,-32 190,-32 190,-38 184,-44 178,-44"/>
<text text-anchor="middle" x="99" y="-23.5" font-family="sans" font-size="10.00">compose_warps_native_to_unfold</text>
</g>
<!-- 7&#45;&gt;45 -->
<g id="edge1" class="edge">
<title>7&#45;&gt;45</title>
<path fill="none" stroke="grey" stroke-width="2" d="M260.92,-79.97C230.76,-70.1 192.61,-57.62 160.92,-47.25"/>
<polygon fill="grey" stroke="grey" stroke-width="2" points="161.9,-43.89 151.31,-44.11 159.73,-50.55 161.9,-43.89"/>
</g>
<!-- 46 -->
<g id="node3" class="node">
<title>46</title>
<path fill="none" stroke="#56a2d8" stroke-width="2" d="M405.5,-44C405.5,-44 220.5,-44 220.5,-44 214.5,-44 208.5,-38 208.5,-32 208.5,-32 208.5,-20 208.5,-20 208.5,-14 214.5,-8 220.5,-8 220.5,-8 405.5,-8 405.5,-8 411.5,-8 417.5,-14 417.5,-20 417.5,-20 417.5,-32 417.5,-32 417.5,-38 411.5,-44 405.5,-44"/>
<text text-anchor="middle" x="313" y="-23.5" font-family="sans" font-size="10.00">compose_warps_unfold_to_crop_native</text>
</g>
<!-- 7&#45;&gt;46 -->
<g id="edge2" class="edge">
<title>7&#45;&gt;46</title>
<path fill="none" stroke="grey" stroke-width="2" d="M313,-79.7C313,-71.98 313,-62.71 313,-54.11"/>
<polygon fill="grey" stroke="grey" stroke-width="2" points="316.5,-54.1 313,-44.1 309.5,-54.1 316.5,-54.1"/>
</g>
<!-- 8 -->
<g id="node4" class="node">
<title>8</title>
<path fill="none" stroke="#56d882" stroke-width="2" d="M122,-260C122,-260 44,-260 44,-260 38,-260 32,-254 32,-248 32,-248 32,-236 32,-236 32,-230 38,-224 44,-224 44,-224 122,-224 122,-224 128,-224 134,-230 134,-236 134,-236 134,-248 134,-248 134,-254 128,-260 122,-260"/>
<text text-anchor="middle" x="83" y="-239.5" font-family="sans" font-size="10.00">create_unfold_ref</text>
</g>
<!-- 8&#45;&gt;7 -->
<g id="edge3" class="edge">
<title>8&#45;&gt;7</title>
<path fill="none" stroke="grey" stroke-width="2" d="M134.05,-235.52C171.04,-229.29 220.41,-216.04 255,-188 269.22,-176.47 265.21,-167.46 275,-152 280.82,-142.82 287.61,-133.07 293.84,-124.47"/>
<polygon fill="grey" stroke="grey" stroke-width="2" points="296.73,-126.45 299.82,-116.32 291.08,-122.31 296.73,-126.45"/>
</g>
<!-- 8&#45;&gt;45 -->
<g id="edge6" class="edge">
<title>8&#45;&gt;45</title>
<path fill="none" stroke="grey" stroke-width="2" d="M72.37,-223.56C66.9,-213.54 60.8,-200.51 58,-188 47.51,-141.16 42.48,-125.42 58,-80 61.44,-69.93 67.66,-60.28 74.23,-52.05"/>
<polygon fill="grey" stroke="grey" stroke-width="2" points="77,-54.2 80.83,-44.32 71.68,-49.65 77,-54.2"/>
</g>
<!-- 8&#45;&gt;46 -->
<g id="edge7" class="edge">
<title>8&#45;&gt;46</title>
<path fill="none" stroke="grey" stroke-width="2" d="M79.02,-223.96C72.36,-190.63 63.38,-116.82 104,-80 118.96,-66.44 158.41,-54.9 199.06,-46.09"/>
<polygon fill="grey" stroke="grey" stroke-width="2" points="199.79,-49.51 208.85,-44.02 198.34,-42.66 199.79,-49.51"/>
</g>
<!-- 9 -->
<g id="node5" class="node">
<title>9</title>
<path fill="none" stroke="#56c9d8" stroke-width="2" d="M233.5,-188C233.5,-188 114.5,-188 114.5,-188 108.5,-188 102.5,-182 102.5,-176 102.5,-176 102.5,-164 102.5,-164 102.5,-158 108.5,-152 114.5,-152 114.5,-152 233.5,-152 233.5,-152 239.5,-152 245.5,-158 245.5,-164 245.5,-164 245.5,-176 245.5,-176 245.5,-182 239.5,-188 233.5,-188"/>
<text text-anchor="middle" x="174" y="-167.5" font-family="sans" font-size="10.00">create_unfold_coord_map</text>
</g>
<!-- 8&#45;&gt;9 -->
<g id="edge4" class="edge">
<title>8&#45;&gt;9</title>
<path fill="none" stroke="grey" stroke-width="2" d="M105.49,-223.7C116.96,-214.88 131.06,-204.03 143.48,-194.47"/>
<polygon fill="grey" stroke="grey" stroke-width="2" points="145.97,-196.98 151.76,-188.1 141.7,-191.43 145.97,-196.98"/>
</g>
<!-- 37 -->
<g id="node6" class="node">
<title>37</title>
<path fill="none" stroke="#56d86b" stroke-width="2" d="M226.5,-116C226.5,-116 125.5,-116 125.5,-116 119.5,-116 113.5,-110 113.5,-104 113.5,-104 113.5,-92 113.5,-92 113.5,-86 119.5,-80 125.5,-80 125.5,-80 226.5,-80 226.5,-80 232.5,-80 238.5,-86 238.5,-92 238.5,-92 238.5,-104 238.5,-104 238.5,-110 232.5,-116 226.5,-116"/>
<text text-anchor="middle" x="176" y="-95.5" font-family="sans" font-size="10.00">create_warps_dentate</text>
</g>
<!-- 8&#45;&gt;37 -->
<g id="edge5" class="edge">
<title>8&#45;&gt;37</title>
<path fill="none" stroke="grey" stroke-width="2" d="M80.78,-223.86C79.2,-204.82 79.35,-173.91 93,-152 100.86,-139.38 112.95,-129.23 125.5,-121.31"/>
<polygon fill="grey" stroke="grey" stroke-width="2" points="127.37,-124.27 134.21,-116.18 123.82,-118.24 127.37,-124.27"/>
</g>
<!-- 9&#45;&gt;7 -->
<g id="edge8" class="edge">
<title>9&#45;&gt;7</title>
<path fill="none" stroke="grey" stroke-width="2" d="M208,-151.88C226.6,-142.51 249.83,-130.81 269.71,-120.8"/>
<polygon fill="grey" stroke="grey" stroke-width="2" points="271.51,-123.81 278.87,-116.19 268.36,-117.56 271.51,-123.81"/>
</g>
<!-- 9&#45;&gt;37 -->
<g id="edge9" class="edge">
<title>9&#45;&gt;37</title>
<path fill="none" stroke="grey" stroke-width="2" d="M174.49,-151.7C174.71,-143.98 174.98,-134.71 175.23,-126.11"/>
<polygon fill="grey" stroke="grey" stroke-width="2" points="178.72,-126.2 175.51,-116.1 171.73,-126 178.72,-126.2"/>
</g>
<!-- 37&#45;&gt;45 -->
<g id="edge12" class="edge">
<title>37&#45;&gt;45</title>
<path fill="none" stroke="grey" stroke-width="2" d="M156.97,-79.7C147.46,-71.05 135.79,-60.45 125.43,-51.03"/>
<polygon fill="grey" stroke="grey" stroke-width="2" points="127.57,-48.24 117.81,-44.1 122.86,-53.42 127.57,-48.24"/>
</g>
<!-- 37&#45;&gt;46 -->
<g id="edge13" class="edge">
<title>37&#45;&gt;46</title>
<path fill="none" stroke="grey" stroke-width="2" d="M209.51,-79.88C227.84,-70.51 250.74,-58.81 270.33,-48.8"/>
<polygon fill="grey" stroke="grey" stroke-width="2" points="272.04,-51.86 279.36,-44.19 268.86,-45.62 272.04,-51.86"/>
</g>
<!-- 26 -->
<g id="node7" class="node">
<title>26</title>
<path fill="none" stroke="#56b9d8" stroke-width="2" d="M406,-188C406,-188 296,-188 296,-188 290,-188 284,-182 284,-176 284,-176 284,-164 284,-164 284,-158 290,-152 296,-152 296,-152 406,-152 406,-152 412,-152 418,-158 418,-164 418,-164 418,-176 418,-176 418,-182 412,-188 406,-188"/>
<text text-anchor="middle" x="351" y="-167.5" font-family="sans" font-size="10.00">create_native_coord_ref</text>
</g>
<!-- 26&#45;&gt;7 -->
<g id="edge10" class="edge">
<title>26&#45;&gt;7</title>
<path fill="none" stroke="grey" stroke-width="2" d="M341.61,-151.7C337.24,-143.64 331.94,-133.89 327.1,-124.98"/>
<polygon fill="grey" stroke="grey" stroke-width="2" points="330.13,-123.22 322.29,-116.1 323.98,-126.56 330.13,-123.22"/>
</g>
<!-- 26&#45;&gt;37 -->
<g id="edge11" class="edge">
<title>26&#45;&gt;37</title>
<path fill="none" stroke="grey" stroke-width="2" d="M308.19,-151.88C284.05,-142.22 253.72,-130.09 228.19,-119.88"/>
<polygon fill="grey" stroke="grey" stroke-width="2" points="229.26,-116.53 218.67,-116.07 226.66,-123.03 229.26,-116.53"/>
</g>
<!-- 10 -->
<g id="node8" class="node">
<title>10</title>
<path fill="none" stroke="#56d87b" stroke-width="2" d="M672,-260C672,-260 580,-260 580,-260 574,-260 568,-254 568,-248 568,-248 568,-236 568,-236 568,-230 574,-224 580,-224 580,-224 672,-224 672,-224 678,-224 684,-230 684,-236 684,-236 684,-248 684,-248 684,-254 678,-260 672,-260"/>
<text text-anchor="middle" x="626" y="-239.5" font-family="sans" font-size="10.00">laplace_coords_hipp</text>
</g>
<!-- 10&#45;&gt;7 -->
<g id="edge14" class="edge">
<title>10&#45;&gt;7</title>
<path fill="none" stroke="grey" stroke-width="2" d="M578.77,-223.96C555.29,-214.67 526.9,-202.18 503,-188 480.67,-174.75 479.68,-164.64 457,-152 431.93,-138.03 402.46,-126.43 376.73,-117.68"/>
<polygon fill="grey" stroke="grey" stroke-width="2" points="377.66,-114.3 367.07,-114.47 375.45,-120.95 377.66,-114.3"/>
</g>
<!-- 10&#45;&gt;26 -->
<g id="edge15" class="edge">
<title>10&#45;&gt;26</title>
<path fill="none" stroke="grey" stroke-width="2" d="M567.68,-226.15C526.93,-215.78 472.11,-201.83 427.8,-190.55"/>
<polygon fill="grey" stroke="grey" stroke-width="2" points="428.5,-187.12 417.94,-188.04 426.77,-193.9 428.5,-187.12"/>
</g>
<!-- 18 -->
<g id="node9" class="node">
<title>18</title>
<path fill="none" stroke="#56d85b" stroke-width="2" d="M576,-116C576,-116 430,-116 430,-116 424,-116 418,-110 418,-104 418,-104 418,-92 418,-92 418,-86 424,-80 430,-80 430,-80 576,-80 576,-80 582,-80 588,-86 588,-92 588,-92 588,-104 588,-104 588,-110 582,-116 576,-116"/>
<text text-anchor="middle" x="503" y="-95.5" font-family="sans" font-size="10.00">compose_template_xfm_corobl</text>
</g>
<!-- 18&#45;&gt;45 -->
<g id="edge16" class="edge">
<title>18&#45;&gt;45</title>
<path fill="none" stroke="grey" stroke-width="2" d="M417.74,-80.67C416.49,-80.45 415.24,-80.22 414,-80 321.8,-63.48 296.21,-60.32 200.17,-44.19"/>
<polygon fill="grey" stroke="grey" stroke-width="2" points="200.46,-40.69 190.02,-42.48 199.3,-47.59 200.46,-40.69"/>
</g>
<!-- 18&#45;&gt;46 -->
<g id="edge17" class="edge">
<title>18&#45;&gt;46</title>
<path fill="none" stroke="grey" stroke-width="2" d="M456.52,-79.88C430.08,-70.14 396.8,-57.87 368.94,-47.61"/>
<polygon fill="grey" stroke="grey" stroke-width="2" points="369.92,-44.24 359.33,-44.07 367.5,-50.81 369.92,-44.24"/>
</g>
<!-- 24 -->
<g id="node10" class="node">
<title>24</title>
<path fill="none" stroke="#88d856" stroke-width="2" d="M612,-188C612,-188 524,-188 524,-188 518,-188 512,-182 512,-176 512,-176 512,-164 512,-164 512,-158 518,-152 524,-152 524,-152 612,-152 612,-152 618,-152 624,-158 624,-164 624,-164 624,-176 624,-176 624,-182 618,-188 612,-188"/>
<text text-anchor="middle" x="568" y="-167.5" font-family="sans" font-size="10.00">equivolume_coords</text>
</g>
<!-- 24&#45;&gt;7 -->
<g id="edge18" class="edge">
<title>24&#45;&gt;7</title>
<path fill="none" stroke="grey" stroke-width="2" d="M511.72,-153.55C471.94,-142.63 418.53,-127.97 377.1,-116.6"/>
<polygon fill="grey" stroke="grey" stroke-width="2" points="377.95,-113.2 367.38,-113.93 376.1,-119.95 377.95,-113.2"/>
</g>
<!-- 38 -->
<g id="node11" class="node">
<title>38</title>
<path fill="none" stroke="#56d0d8" stroke-width="2" d="M538,-260C538,-260 430,-260 430,-260 424,-260 418,-254 418,-248 418,-248 418,-236 418,-236 418,-230 424,-224 430,-224 430,-224 538,-224 538,-224 544,-224 550,-230 550,-236 550,-236 550,-248 550,-248 550,-254 544,-260 538,-260"/>
<text text-anchor="middle" x="484" y="-239.5" font-family="sans" font-size="10.00">laplace_coords_dentate</text>
</g>
<!-- 38&#45;&gt;37 -->
<g id="edge20" class="edge">
<title>38&#45;&gt;37</title>
<path fill="none" stroke="grey" stroke-width="2" d="M477.88,-223.95C469.62,-203.49 452.88,-169.74 427,-152 360.79,-106.61 328.46,-132.99 250,-116 249.53,-115.9 249.06,-115.8 248.59,-115.7"/>
<polygon fill="grey" stroke="grey" stroke-width="2" points="249.07,-112.22 238.55,-113.49 247.57,-119.05 249.07,-112.22"/>
</g>
<!-- 38&#45;&gt;26 -->
<g id="edge19" class="edge">
<title>38&#45;&gt;26</title>
<path fill="none" stroke="grey" stroke-width="2" d="M451.46,-223.88C433.75,-214.55 411.65,-202.92 392.68,-192.94"/>
<polygon fill="grey" stroke="grey" stroke-width="2" points="394.14,-189.75 383.66,-188.19 390.88,-195.94 394.14,-189.75"/>
</g>
<!-- 42 -->
<g id="node12" class="node">
<title>42</title>
<path fill="none" stroke="#56d863" stroke-width="2" d="M722,-116C722,-116 618,-116 618,-116 612,-116 606,-110 606,-104 606,-104 606,-92 606,-92 606,-86 612,-80 618,-80 618,-80 722,-80 722,-80 728,-80 734,-86 734,-92 734,-92 734,-104 734,-104 734,-110 728,-116 722,-116"/>
<text text-anchor="middle" x="670" y="-95.5" font-family="sans" font-size="10.00">create_native_crop_ref</text>
</g>
<!-- 42&#45;&gt;46 -->
<g id="edge21" class="edge">
<title>42&#45;&gt;46</title>
<path fill="none" stroke="grey" stroke-width="2" d="M605.94,-81.91C602.92,-81.26 599.93,-80.61 597,-80 538.78,-67.79 473.54,-55.52 420.29,-45.86"/>
<polygon fill="grey" stroke="grey" stroke-width="2" points="420.61,-42.37 410.15,-44.03 419.37,-49.25 420.61,-42.37"/>
</g>
</g>
</svg>
