<?xml version="1.0" encoding="UTF-8" standalone="no"?>
<!DOCTYPE svg PUBLIC "-//W3C//DTD SVG 1.1//EN"
 "http://www.w3.org/Graphics/SVG/1.1/DTD/svg11.dtd">
<!-- Generated by graphviz version 2.43.0 (0)
 -->
<!-- Pages: 1 -->
<svg width="920pt" height="268pt"
 viewBox="0.00 0.00 919.65 268.00" xmlns="http://www.w3.org/2000/svg" xmlns:xlink="http://www.w3.org/1999/xlink">
<g id="graph0" class="graph" transform="scale(1 1) rotate(0) translate(4 264)">
<polygon fill="white" stroke="transparent" points="-4,4 -4,-264 915.65,-264 915.65,4 -4,4"/>
<g id="clust1" class="cluster">
<title>cluster_0</title>
<polygon fill="white" stroke="blue" points="137.65,-8 137.65,-139 649.65,-139 649.65,-8 137.65,-8"/>
<text text-anchor="middle" x="393.65" y="-123.8" font-family="Times,serif" font-size="14.00">resample_final_to_crop_native</text>
</g>
<!-- 39 -->
<g id="node1" class="node">
<title>39</title>
<path fill="none" stroke="#d88556" stroke-width="2" d="M457.15,-44C457.15,-44 308.15,-44 308.15,-44 302.15,-44 296.15,-38 296.15,-32 296.15,-32 296.15,-20 296.15,-20 296.15,-14 302.15,-8 308.15,-8 308.15,-8 457.15,-8 457.15,-8 463.15,-8 469.15,-14 469.15,-20 469.15,-20 469.15,-32 469.15,-32 469.15,-38 463.15,-44 457.15,-44"/>
<text text-anchor="middle" x="382.65" y="-23.5" font-family="sans" font-size="10.00">resample_subfields_native_crop</text>
</g>
<!-- 42 -->
<g id="node2" class="node">
<title>42</title>
<path fill="none" stroke="#56d863" stroke-width="2" d="M334.65,-116C334.65,-116 230.65,-116 230.65,-116 224.65,-116 218.65,-110 218.65,-104 218.65,-104 218.65,-92 218.65,-92 218.65,-86 224.65,-80 230.65,-80 230.65,-80 334.65,-80 334.65,-80 340.65,-80 346.65,-86 346.65,-92 346.65,-92 346.65,-104 346.65,-104 346.65,-110 340.65,-116 334.65,-116"/>
<text text-anchor="middle" x="282.65" y="-95.5" font-family="sans" font-size="10.00">create_native_crop_ref</text>
</g>
<!-- 42&#45;&gt;39 -->
<g id="edge1" class="edge">
<title>42&#45;&gt;39</title>
<path fill="none" stroke="grey" stroke-width="2" d="M307.11,-79.88C319.95,-70.89 335.85,-59.76 349.75,-50.03"/>
<polygon fill="grey" stroke="grey" stroke-width="2" points="351.91,-52.79 358.09,-44.19 347.89,-47.06 351.91,-52.79"/>
</g>
<!-- 44 -->
<g id="node3" class="node">
<title>44</title>
<path fill="none" stroke="#9fd856" stroke-width="2" d="M637.65,-44C637.65,-44 499.65,-44 499.65,-44 493.65,-44 487.65,-38 487.65,-32 487.65,-32 487.65,-20 487.65,-20 487.65,-14 493.65,-8 499.65,-8 499.65,-8 637.65,-8 637.65,-8 643.65,-8 649.65,-14 649.65,-20 649.65,-20 649.65,-32 649.65,-32 649.65,-38 643.65,-44 637.65,-44"/>
<text text-anchor="middle" x="568.65" y="-23.5" font-family="sans" font-size="10.00">resample_coords_native_crop</text>
</g>
<!-- 42&#45;&gt;44 -->
<g id="edge2" class="edge">
<title>42&#45;&gt;44</title>
<path fill="none" stroke="grey" stroke-width="2" d="M346.84,-81.29C388.94,-70.99 444.3,-57.43 489.19,-46.45"/>
<polygon fill="grey" stroke="grey" stroke-width="2" points="490.3,-49.78 499.18,-44 488.63,-42.98 490.3,-49.78"/>
</g>
<!-- 47 -->
<g id="node4" class="node">
<title>47</title>
<path fill="none" stroke="#d6d856" stroke-width="2" d="M265.65,-44C265.65,-44 149.65,-44 149.65,-44 143.65,-44 137.65,-38 137.65,-32 137.65,-32 137.65,-20 137.65,-20 137.65,-14 143.65,-8 149.65,-8 149.65,-8 265.65,-8 265.65,-8 271.65,-8 277.65,-14 277.65,-20 277.65,-20 277.65,-32 277.65,-32 277.65,-38 271.65,-44 265.65,-44"/>
<text text-anchor="middle" x="207.65" y="-23.5" font-family="sans" font-size="10.00">resample_native_to_crop</text>
</g>
<!-- 42&#45;&gt;47 -->
<g id="edge3" class="edge">
<title>42&#45;&gt;47</title>
<path fill="none" stroke="grey" stroke-width="2" d="M264.11,-79.7C254.85,-71.05 243.49,-60.45 233.39,-51.03"/>
<polygon fill="grey" stroke="grey" stroke-width="2" points="235.68,-48.37 225.98,-44.1 230.9,-53.49 235.68,-48.37"/>
</g>
<!-- 10 -->
<g id="node5" class="node">
<title>10</title>
<path fill="none" stroke="#56d87b" stroke-width="2" d="M125.65,-116C125.65,-116 33.65,-116 33.65,-116 27.65,-116 21.65,-110 21.65,-104 21.65,-104 21.65,-92 21.65,-92 21.65,-86 27.65,-80 33.65,-80 33.65,-80 125.65,-80 125.65,-80 131.65,-80 137.65,-86 137.65,-92 137.65,-92 137.65,-104 137.65,-104 137.65,-110 131.65,-116 125.65,-116"/>
<text text-anchor="middle" x="79.65" y="-95.5" font-family="sans" font-size="10.00">laplace_coords_hipp</text>
</g>
<!-- 10&#45;&gt;44 -->
<g id="edge4" class="edge">
<title>10&#45;&gt;44</title>
<path fill="none" stroke="grey" stroke-width="2" d="M137.67,-80.79C139.01,-80.51 140.34,-80.25 141.65,-80 286.47,-52.59 327.87,-65.41 477.27,-44.13"/>
<polygon fill="grey" stroke="grey" stroke-width="2" points="477.87,-47.58 487.27,-42.68 476.87,-40.65 477.87,-47.58"/>
</g>
<!-- 16 -->
<g id="node6" class="node">
<title>16</title>
<path fill="none" stroke="#56d8c9" stroke-width="2" d="M74.65,-260C74.65,-260 44.65,-260 44.65,-260 38.65,-260 32.65,-254 32.65,-248 32.65,-248 32.65,-236 32.65,-236 32.65,-230 38.65,-224 44.65,-224 44.65,-224 74.65,-224 74.65,-224 80.65,-224 86.65,-230 86.65,-236 86.65,-236 86.65,-248 86.65,-248 86.65,-254 80.65,-260 74.65,-260"/>
<text text-anchor="middle" x="59.65" y="-239.5" font-family="sans" font-size="10.00">n4_t1</text>
</g>
<!-- 16&#45;&gt;47 -->
<g id="edge6" class="edge">
<title>16&#45;&gt;47</title>
<path fill="none" stroke="grey" stroke-width="2" d="M45.57,-223.68C21.66,-192.06 -21.13,-124.18 12.65,-80 27,-61.23 80.21,-47.54 127.43,-38.78"/>
<polygon fill="grey" stroke="grey" stroke-width="2" points="128.18,-42.21 137.4,-36.99 126.94,-35.32 128.18,-42.21"/>
</g>
<!-- 43 -->
<g id="node7" class="node">
<title>43</title>
<path fill="none" stroke="#56d8b9" stroke-width="2" d="M342.65,-188C342.65,-188 204.65,-188 204.65,-188 198.65,-188 192.65,-182 192.65,-176 192.65,-176 192.65,-164 192.65,-164 192.65,-158 198.65,-152 204.65,-152 204.65,-152 342.65,-152 342.65,-152 348.65,-152 354.65,-158 354.65,-164 354.65,-164 354.65,-176 354.65,-176 354.65,-182 348.65,-188 342.65,-188"/>
<text text-anchor="middle" x="273.65" y="-167.5" font-family="sans" font-size="10.00">resample_subfields_to_native</text>
</g>
<!-- 16&#45;&gt;43 -->
<g id="edge5" class="edge">
<title>16&#45;&gt;43</title>
<path fill="none" stroke="grey" stroke-width="2" d="M86.75,-232.13C117.99,-221.92 170.33,-204.8 211.69,-191.27"/>
<polygon fill="grey" stroke="grey" stroke-width="2" points="213,-194.52 221.41,-188.09 210.82,-187.87 213,-194.52"/>
</g>
<!-- 43&#45;&gt;42 -->
<g id="edge14" class="edge">
<title>43&#45;&gt;42</title>
<path fill="none" stroke="grey" stroke-width="2" d="M275.88,-151.7C276.87,-143.98 278.06,-134.71 279.17,-126.11"/>
<polygon fill="grey" stroke="grey" stroke-width="2" points="282.65,-126.47 280.45,-116.1 275.71,-125.58 282.65,-126.47"/>
</g>
<!-- 18 -->
<g id="node8" class="node">
<title>18</title>
<path fill="none" stroke="#56d85b" stroke-width="2" d="M552.65,-260C552.65,-260 406.65,-260 406.65,-260 400.65,-260 394.65,-254 394.65,-248 394.65,-248 394.65,-236 394.65,-236 394.65,-230 400.65,-224 406.65,-224 406.65,-224 552.65,-224 552.65,-224 558.65,-224 564.65,-230 564.65,-236 564.65,-236 564.65,-248 564.65,-248 564.65,-254 558.65,-260 552.65,-260"/>
<text text-anchor="middle" x="479.65" y="-239.5" font-family="sans" font-size="10.00">compose_template_xfm_corobl</text>
</g>
<!-- 18&#45;&gt;39 -->
<g id="edge7" class="edge">
<title>18&#45;&gt;39</title>
<path fill="none" stroke="grey" stroke-width="2" d="M471.88,-223.85C454.99,-186.6 414.86,-98.07 394.68,-53.54"/>
<polygon fill="grey" stroke="grey" stroke-width="2" points="397.78,-51.9 390.46,-44.23 391.4,-54.79 397.78,-51.9"/>
</g>
<!-- 18&#45;&gt;44 -->
<g id="edge9" class="edge">
<title>18&#45;&gt;44</title>
<path fill="none" stroke="grey" stroke-width="2" d="M486.78,-223.85C502.28,-186.6 539.1,-98.07 557.61,-53.54"/>
<polygon fill="grey" stroke="grey" stroke-width="2" points="560.88,-54.81 561.48,-44.23 554.41,-52.12 560.88,-54.81"/>
</g>
<!-- 18&#45;&gt;43 -->
<g id="edge8" class="edge">
<title>18&#45;&gt;43</title>
<path fill="none" stroke="grey" stroke-width="2" d="M429.52,-223.97C400.61,-214.14 364.08,-201.73 333.65,-191.39"/>
<polygon fill="grey" stroke="grey" stroke-width="2" points="334.6,-188.01 324.01,-188.11 332.35,-194.64 334.6,-188.01"/>
</g>
<!-- 24 -->
<g id="node9" class="node">
<title>24</title>
<path fill="none" stroke="#88d856" stroke-width="2" d="M749.65,-116C749.65,-116 661.65,-116 661.65,-116 655.65,-116 649.65,-110 649.65,-104 649.65,-104 649.65,-92 649.65,-92 649.65,-86 655.65,-80 661.65,-80 661.65,-80 749.65,-80 749.65,-80 755.65,-80 761.65,-86 761.65,-92 761.65,-92 761.65,-104 761.65,-104 761.65,-110 755.65,-116 749.65,-116"/>
<text text-anchor="middle" x="705.65" y="-95.5" font-family="sans" font-size="10.00">equivolume_coords</text>
</g>
<!-- 24&#45;&gt;44 -->
<g id="edge10" class="edge">
<title>24&#45;&gt;44</title>
<path fill="none" stroke="grey" stroke-width="2" d="M672.14,-79.88C653.81,-70.51 630.91,-58.81 611.32,-48.8"/>
<polygon fill="grey" stroke="grey" stroke-width="2" points="612.79,-45.62 602.29,-44.19 609.61,-51.86 612.79,-45.62"/>
</g>
<!-- 38 -->
<g id="node10" class="node">
<title>38</title>
<path fill="none" stroke="#56d0d8" stroke-width="2" d="M899.65,-116C899.65,-116 791.65,-116 791.65,-116 785.65,-116 779.65,-110 779.65,-104 779.65,-104 779.65,-92 779.65,-92 779.65,-86 785.65,-80 791.65,-80 791.65,-80 899.65,-80 899.65,-80 905.65,-80 911.65,-86 911.65,-92 911.65,-92 911.65,-104 911.65,-104 911.65,-110 905.65,-116 899.65,-116"/>
<text text-anchor="middle" x="845.65" y="-95.5" font-family="sans" font-size="10.00">laplace_coords_dentate</text>
</g>
<!-- 38&#45;&gt;44 -->
<g id="edge11" class="edge">
<title>38&#45;&gt;44</title>
<path fill="none" stroke="grey" stroke-width="2" d="M779.3,-80.23C739.3,-70.12 688.14,-57.2 646.27,-46.61"/>
<polygon fill="grey" stroke="grey" stroke-width="2" points="646.94,-43.17 636.38,-44.12 645.22,-49.96 646.94,-43.17"/>
</g>
<!-- 40 -->
<g id="node11" class="node">
<title>40</title>
<path fill="none" stroke="#56b1d8" stroke-width="2" d="M364.65,-260C364.65,-260 182.65,-260 182.65,-260 176.65,-260 170.65,-254 170.65,-248 170.65,-248 170.65,-236 170.65,-236 170.65,-230 176.65,-224 182.65,-224 182.65,-224 364.65,-224 364.65,-224 370.65,-224 376.65,-230 376.65,-236 376.65,-236 376.65,-248 376.65,-248 376.65,-254 370.65,-260 364.65,-260"/>
<text text-anchor="middle" x="273.65" y="-239.5" font-family="sans" font-size="10.00">combine_tissue_subfield_labels_corobl</text>
</g>
<!-- 40&#45;&gt;39 -->
<g id="edge12" class="edge">
<title>40&#45;&gt;39</title>
<path fill="none" stroke="grey" stroke-width="2" d="M320.26,-223.84C336.56,-215.5 353.35,-203.79 363.65,-188 390.15,-147.37 389.58,-88.48 386.38,-54.32"/>
<polygon fill="grey" stroke="grey" stroke-width="2" points="389.84,-53.72 385.28,-44.16 382.88,-54.48 389.84,-53.72"/>
</g>
<!-- 40&#45;&gt;43 -->
<g id="edge13" class="edge">
<title>40&#45;&gt;43</title>
<path fill="none" stroke="grey" stroke-width="2" d="M273.65,-223.7C273.65,-215.98 273.65,-206.71 273.65,-198.11"/>
<polygon fill="grey" stroke="grey" stroke-width="2" points="277.15,-198.1 273.65,-188.1 270.15,-198.1 277.15,-198.1"/>
</g>
</g>
</svg>
