<?xml version="1.0" encoding="UTF-8" standalone="no"?>
<!DOCTYPE svg PUBLIC "-//W3C//DTD SVG 1.1//EN"
 "http://www.w3.org/Graphics/SVG/1.1/DTD/svg11.dtd">
<!-- Generated by graphviz version 2.43.0 (0)
 -->
<!-- Pages: 1 -->
<svg width="312pt" height="196pt"
 viewBox="0.00 0.00 311.50 196.00" xmlns="http://www.w3.org/2000/svg" xmlns:xlink="http://www.w3.org/1999/xlink">
<g id="graph0" class="graph" transform="scale(1 1) rotate(0) translate(4 192)">
<polygon fill="white" stroke="transparent" points="-4,4 -4,-192 307.5,-192 307.5,4 -4,4"/>
<g id="clust1" class="cluster">
<title>cluster_0</title>
<polygon fill="white" stroke="blue" points="8,-8 8,-139 282,-139 282,-8 8,-8"/>
<text text-anchor="middle" x="145" y="-123.8" font-family="Times,serif" font-size="14.00">autotop</text>
</g>
<!-- 10 -->
<g id="node1" class="node">
<title>10</title>
<path fill="none" stroke="#c6d856" stroke-width="2" d="M270,-116C270,-116 178,-116 178,-116 172,-116 166,-110 166,-104 166,-104 166,-92 166,-92 166,-86 172,-80 178,-80 178,-80 270,-80 270,-80 276,-80 282,-86 282,-92 282,-92 282,-104 282,-104 282,-110 276,-116 270,-116"/>
<text text-anchor="middle" x="224" y="-95.5" font-family="sans" font-size="10.00">laplace_coords_hipp</text>
</g>
<!-- 24 -->
<g id="node2" class="node">
<title>24</title>
<path fill="none" stroke="#bed856" stroke-width="2" d="M122,-44C122,-44 34,-44 34,-44 28,-44 22,-38 22,-32 22,-32 22,-20 22,-20 22,-14 28,-8 34,-8 34,-8 122,-8 122,-8 128,-8 134,-14 134,-20 134,-20 134,-32 134,-32 134,-38 128,-44 122,-44"/>
<text text-anchor="middle" x="78" y="-23.5" font-family="sans" font-size="10.00">equivolume_coords</text>
</g>
<!-- 25 -->
<g id="node3" class="node">
<title>25</title>
<path fill="none" stroke="#56d8a9" stroke-width="2" d="M135.5,-116C135.5,-116 20.5,-116 20.5,-116 14.5,-116 8.5,-110 8.5,-104 8.5,-104 8.5,-92 8.5,-92 8.5,-86 14.5,-80 20.5,-80 20.5,-80 135.5,-80 135.5,-80 141.5,-80 147.5,-86 147.5,-92 147.5,-92 147.5,-104 147.5,-104 147.5,-110 141.5,-116 135.5,-116"/>
<text text-anchor="middle" x="78" y="-95.5" font-family="sans" font-size="10.00">prep_equivolume_coords</text>
</g>
<!-- 25&#45;&gt;24 -->
<g id="edge1" class="edge">
<title>25&#45;&gt;24</title>
<path fill="none" stroke="grey" stroke-width="2" d="M78,-79.7C78,-71.98 78,-62.71 78,-54.11"/>
<polygon fill="grey" stroke="grey" stroke-width="2" points="81.5,-54.1 78,-44.1 74.5,-54.1 81.5,-54.1"/>
</g>
<!-- 11 -->
<g id="node4" class="node">
<title>11</title>
<path fill="none" stroke="#59d856" stroke-width="2" d="M130.5,-188C130.5,-188 25.5,-188 25.5,-188 19.5,-188 13.5,-182 13.5,-176 13.5,-176 13.5,-164 13.5,-164 13.5,-158 19.5,-152 25.5,-152 25.5,-152 130.5,-152 130.5,-152 136.5,-152 142.5,-158 142.5,-164 142.5,-164 142.5,-176 142.5,-176 142.5,-182 136.5,-188 130.5,-188"/>
<text text-anchor="middle" x="78" y="-167.5" font-family="sans" font-size="10.00">reinsert_subject_labels</text>
</g>
<!-- 11&#45;&gt;10 -->
<g id="edge2" class="edge">
<title>11&#45;&gt;10</title>
<path fill="none" stroke="grey" stroke-width="2" d="M125.97,-151.98C136.02,-148.02 146.46,-143.6 156,-139 166.88,-133.75 178.33,-127.38 188.67,-121.27"/>
<polygon fill="grey" stroke="grey" stroke-width="2" points="190.66,-124.16 197.43,-116.01 187.05,-118.16 190.66,-124.16"/>
</g>
<!-- 11&#45;&gt;25 -->
<g id="edge3" class="edge">
<title>11&#45;&gt;25</title>
<path fill="none" stroke="grey" stroke-width="2" d="M78,-151.7C78,-143.98 78,-134.71 78,-126.11"/>
<polygon fill="grey" stroke="grey" stroke-width="2" points="81.5,-126.1 78,-116.1 74.5,-126.1 81.5,-126.1"/>
</g>
<!-- 23 -->
<g id="node5" class="node">
<title>23</title>
<path fill="none" stroke="#56d8c9" stroke-width="2" d="M291.5,-188C291.5,-188 172.5,-188 172.5,-188 166.5,-188 160.5,-182 160.5,-176 160.5,-176 160.5,-164 160.5,-164 160.5,-158 166.5,-152 172.5,-152 172.5,-152 291.5,-152 291.5,-152 297.5,-152 303.5,-158 303.5,-164 303.5,-164 303.5,-176 303.5,-176 303.5,-182 297.5,-188 291.5,-188"/>
<text text-anchor="middle" x="232" y="-167.5" font-family="sans" font-size="10.00">inject_init_laplace_coords</text>
</g>
<!-- 23&#45;&gt;10 -->
<g id="edge4" class="edge">
<title>23&#45;&gt;10</title>
<path fill="none" stroke="grey" stroke-width="2" d="M230.02,-151.7C229.14,-143.98 228.08,-134.71 227.1,-126.11"/>
<polygon fill="grey" stroke="grey" stroke-width="2" points="230.57,-125.64 225.95,-116.1 223.61,-126.44 230.57,-125.64"/>
</g>
</g>
</svg>
