<?xml version="1.0" encoding="UTF-8" standalone="no"?>
<!DOCTYPE svg PUBLIC "-//W3C//DTD SVG 1.1//EN"
 "http://www.w3.org/Graphics/SVG/1.1/DTD/svg11.dtd">
<!-- Generated by graphviz version 2.43.0 (0)
 -->
<!-- Pages: 1 -->
<svg width="582pt" height="124pt"
 viewBox="0.00 0.00 581.50 124.00" xmlns="http://www.w3.org/2000/svg" xmlns:xlink="http://www.w3.org/1999/xlink">
<g id="graph0" class="graph" transform="scale(1 1) rotate(0) translate(4 120)">
<polygon fill="white" stroke="transparent" points="-4,4 -4,-120 577.5,-120 577.5,4 -4,4"/>
<g id="clust1" class="cluster">
<title>cluster_0</title>
<polygon fill="white" stroke="blue" points="27.5,-8 27.5,-67 343.5,-67 343.5,-8 27.5,-8"/>
<text text-anchor="middle" x="185.5" y="-51.8" font-family="Times,serif" font-size="14.00">qc</text>
</g>
<!-- 45 -->
<g id="node1" class="node">
<title>45</title>
<path fill="none" stroke="#d89556" stroke-width="2" d="M242,-44C242,-44 153,-44 153,-44 147,-44 141,-38 141,-32 141,-32 141,-20 141,-20 141,-14 147,-8 153,-8 153,-8 242,-8 242,-8 248,-8 254,-14 254,-20 254,-20 254,-32 254,-32 254,-38 248,-44 242,-44"/>
<text text-anchor="middle" x="197.5" y="-23.5" font-family="sans" font-size="10.00">qc_reg_to_template</text>
</g>
<!-- 46 -->
<g id="node2" class="node">
<title>46</title>
<path fill="none" stroke="#56d873" stroke-width="2" d="M331,-44C331,-44 284,-44 284,-44 278,-44 272,-38 272,-32 272,-32 272,-20 272,-20 272,-14 278,-8 284,-8 284,-8 331,-8 331,-8 337,-8 343,-14 343,-20 343,-20 343,-32 343,-32 343,-38 337,-44 331,-44"/>
<text text-anchor="middle" x="307.5" y="-23.5" font-family="sans" font-size="10.00">qc_subfield</text>
</g>
<!-- 47 -->
<g id="node3" class="node">
<title>47</title>
<path fill="none" stroke="#ced856" stroke-width="2" d="M111,-44C111,-44 40,-44 40,-44 34,-44 28,-38 28,-32 28,-32 28,-20 28,-20 28,-14 34,-8 40,-8 40,-8 111,-8 111,-8 117,-8 123,-14 123,-20 123,-20 123,-32 123,-32 123,-38 117,-44 111,-44"/>
<text text-anchor="middle" x="75.5" y="-23.5" font-family="sans" font-size="10.00">qc_subfield_surf</text>
</g>
<!-- 4 -->
<g id="node4" class="node">
<title>4</title>
<path fill="none" stroke="#d8a456" stroke-width="2" d="M97,-116C97,-116 12,-116 12,-116 6,-116 0,-110 0,-104 0,-104 0,-92 0,-92 0,-86 6,-80 12,-80 12,-80 97,-80 97,-80 103,-80 109,-86 109,-92 109,-92 109,-104 109,-104 109,-110 103,-116 97,-116"/>
<text text-anchor="middle" x="54.5" y="-95.5" font-family="sans" font-size="10.00">warp_gii_to_native</text>
</g>
<!-- 4&#45;&gt;47 -->
<g id="edge1" class="edge">
<title>4&#45;&gt;47</title>
<path fill="none" stroke="grey" stroke-width="2" d="M59.69,-79.7C62.03,-71.9 64.85,-62.51 67.45,-53.83"/>
<polygon fill="grey" stroke="grey" stroke-width="2" points="70.85,-54.69 70.37,-44.1 64.14,-52.68 70.85,-54.69"/>
</g>
<!-- 20 -->
<g id="node5" class="node">
<title>20</title>
<path fill="none" stroke="#5663d8" stroke-width="2" d="M212,-116C212,-116 139,-116 139,-116 133,-116 127,-110 127,-104 127,-104 127,-92 127,-92 127,-86 133,-80 139,-80 139,-80 212,-80 212,-80 218,-80 224,-86 224,-92 224,-92 224,-104 224,-104 224,-110 218,-116 212,-116"/>
<text text-anchor="middle" x="175.5" y="-95.5" font-family="sans" font-size="10.00">reg_to_template</text>
</g>
<!-- 20&#45;&gt;45 -->
<g id="edge2" class="edge">
<title>20&#45;&gt;45</title>
<path fill="none" stroke="grey" stroke-width="2" d="M180.94,-79.7C183.39,-71.9 186.34,-62.51 189.07,-53.83"/>
<polygon fill="grey" stroke="grey" stroke-width="2" points="192.46,-54.69 192.12,-44.1 185.79,-52.59 192.46,-54.69"/>
</g>
<!-- 36 -->
<g id="node6" class="node">
<title>36</title>
<path fill="none" stroke="#97d856" stroke-width="2" d="M403,-116C403,-116 254,-116 254,-116 248,-116 242,-110 242,-104 242,-104 242,-92 242,-92 242,-86 248,-80 254,-80 254,-80 403,-80 403,-80 409,-80 415,-86 415,-92 415,-92 415,-104 415,-104 415,-110 409,-116 403,-116"/>
<text text-anchor="middle" x="328.5" y="-95.5" font-family="sans" font-size="10.00">resample_subfields_native_crop</text>
</g>
<!-- 36&#45;&gt;46 -->
<g id="edge3" class="edge">
<title>36&#45;&gt;46</title>
<path fill="none" stroke="grey" stroke-width="2" d="M323.31,-79.7C320.97,-71.9 318.15,-62.51 315.55,-53.83"/>
<polygon fill="grey" stroke="grey" stroke-width="2" points="318.86,-52.68 312.63,-44.1 312.15,-54.69 318.86,-52.68"/>
</g>
<!-- 44 -->
<g id="node7" class="node">
<title>44</title>
<path fill="none" stroke="#61d856" stroke-width="2" d="M561.5,-116C561.5,-116 445.5,-116 445.5,-116 439.5,-116 433.5,-110 433.5,-104 433.5,-104 433.5,-92 433.5,-92 433.5,-86 439.5,-80 445.5,-80 445.5,-80 561.5,-80 561.5,-80 567.5,-80 573.5,-86 573.5,-92 573.5,-92 573.5,-104 573.5,-104 573.5,-110 567.5,-116 561.5,-116"/>
<text text-anchor="middle" x="503.5" y="-95.5" font-family="sans" font-size="10.00">resample_native_to_crop</text>
</g>
<!-- 44&#45;&gt;46 -->
<g id="edge4" class="edge">
<title>44&#45;&gt;46</title>
<path fill="none" stroke="grey" stroke-width="2" d="M455.8,-79.97C424.41,-68.75 383.58,-54.17 352.7,-43.14"/>
<polygon fill="grey" stroke="grey" stroke-width="2" points="353.65,-39.77 343.06,-39.7 351.3,-46.36 353.65,-39.77"/>
</g>
</g>
</svg>
