<?xml version="1.0" encoding="UTF-8" standalone="no"?>
<!DOCTYPE svg PUBLIC "-//W3C//DTD SVG 1.1//EN"
 "http://www.w3.org/Graphics/SVG/1.1/DTD/svg11.dtd">
<!-- Generated by graphviz version 2.43.0 (0)
 -->
<!-- Pages: 1 -->
<svg width="2907pt" height="1307pt"
 viewBox="0.00 0.00 2906.50 1307.00" xmlns="http://www.w3.org/2000/svg" xmlns:xlink="http://www.w3.org/1999/xlink">
<g id="graph0" class="graph" transform="scale(1 1) rotate(0) translate(4 1303)">
<polygon fill="white" stroke="transparent" points="-4,4 -4,-1303 2902.5,-1303 2902.5,4 -4,4"/>
<g id="clust1" class="cluster">
<title>cluster_1</title>
<polygon fill="white" stroke="blue" points="2344,-944 2344,-1003 2653,-1003 2653,-944 2344,-944"/>
<text text-anchor="middle" x="2498.5" y="-987.8" font-family="Times,serif" font-size="14.00">preproc_t1</text>
</g>
<g id="clust3" class="cluster">
<title>cluster_2</title>
<polygon fill="white" stroke="blue" points="768,-440 768,-715 1178,-715 1178,-440 768,-440"/>
<text text-anchor="middle" x="973" y="-699.8" font-family="Times,serif" font-size="14.00">warps</text>
</g>
<g id="clust4" class="cluster">
<title>cluster_3</title>
<polygon fill="white" stroke="blue" points="1871,-224 1871,-355 2332,-355 2332,-224 1871,-224"/>
<text text-anchor="middle" x="2101.5" y="-339.8" font-family="Times,serif" font-size="14.00">qc</text>
</g>
<g id="clust6" class="cluster">
<title>cluster_5</title>
<polygon fill="white" stroke="blue" points="1178,-584 1178,-787 1602,-787 1602,-584 1178,-584"/>
<text text-anchor="middle" x="1390" y="-771.8" font-family="Times,serif" font-size="14.00">autotop</text>
</g>
<g id="clust9" class="cluster">
<title>cluster_11</title>
<polygon fill="white" stroke="blue" points="1770,-368 1770,-571 1982,-571 1982,-368 1770,-368"/>
<text text-anchor="middle" x="1876" y="-555.8" font-family="Times,serif" font-size="14.00">subfields</text>
</g>
<g id="clust10" class="cluster">
<title>cluster_8</title>
<polygon fill="white" stroke="blue" points="2068,-944 2068,-1291 2344,-1291 2344,-944 2068,-944"/>
<text text-anchor="middle" x="2206" y="-1275.8" font-family="Times,serif" font-size="14.00">preproc_t2</text>
</g>
<g id="clust11" class="cluster">
<title>cluster_9</title>
<polygon fill="white" stroke="blue" points="8,-8 8,-715 768,-715 768,-8 8,-8"/>
<text text-anchor="middle" x="388" y="-699.8" font-family="Times,serif" font-size="14.00">gifti</text>
</g>
<g id="clust12" class="cluster">
<title>cluster_10</title>
<polygon fill="white" stroke="blue" points="1602,-728 1602,-1147 1892,-1147 1892,-728 1602,-728"/>
<text text-anchor="middle" x="1747" y="-1131.8" font-family="Times,serif" font-size="14.00">shape_inject</text>
</g>
<g id="clust13" class="cluster">
<title>cluster_12</title>
<polygon fill="white" stroke="blue" points="1948,-728 1948,-1003 2068,-1003 2068,-728 1948,-728"/>
<text text-anchor="middle" x="2008" y="-987.8" font-family="Times,serif" font-size="14.00">nnunet</text>
</g>
<g id="clust14" class="cluster">
<title>cluster_13</title>
<polygon fill="white" stroke="blue" points="2090,-368 2090,-499 2602,-499 2602,-368 2090,-368"/>
<text text-anchor="middle" x="2346" y="-483.8" font-family="Times,serif" font-size="14.00">resample_final_to_crop_native</text>
</g>
<!-- 23 -->
<g id="node1" class="node">
<title>23</title>
<path fill="none" stroke="#d8ac56" stroke-width="2" d="M2498.5,-980C2498.5,-980 2355.5,-980 2355.5,-980 2349.5,-980 2343.5,-974 2343.5,-968 2343.5,-968 2343.5,-956 2343.5,-956 2343.5,-950 2349.5,-944 2355.5,-944 2355.5,-944 2498.5,-944 2498.5,-944 2504.5,-944 2510.5,-950 2510.5,-956 2510.5,-956 2510.5,-968 2510.5,-968 2510.5,-974 2504.5,-980 2498.5,-980"/>
<text text-anchor="middle" x="2427" y="-959.5" font-family="sans" font-size="10.00">convert_template_xfm_ras2itk</text>
</g>
<!-- 22 -->
<g id="node30" class="node">
<title>22</title>
<path fill="none" stroke="#80d856" stroke-width="2" d="M2332,-1124C2332,-1124 2220,-1124 2220,-1124 2214,-1124 2208,-1118 2208,-1112 2208,-1112 2208,-1100 2208,-1100 2208,-1094 2214,-1088 2220,-1088 2220,-1088 2332,-1088 2332,-1088 2338,-1088 2344,-1094 2344,-1100 2344,-1100 2344,-1112 2344,-1112 2344,-1118 2338,-1124 2332,-1124"/>
<text text-anchor="middle" x="2276" y="-1103.5" font-family="sans" font-size="10.00">compose_t2_xfm_corobl</text>
</g>
<!-- 23&#45;&gt;22 -->
<g id="edge101" class="edge">
<title>23&#45;&gt;22</title>
<path fill="none" stroke="grey" stroke-width="2" d="M2428.33,-980.1C2428.91,-999.67 2426.85,-1031.64 2410,-1052 2395.61,-1069.38 2374.73,-1081.09 2353.72,-1088.97"/>
<polygon fill="grey" stroke="grey" stroke-width="2" points="2352.37,-1085.74 2344.08,-1092.33 2354.67,-1092.35 2352.37,-1085.74"/>
</g>
<!-- 34 -->
<g id="node2" class="node">
<title>34</title>
<path fill="none" stroke="#56d8b1" stroke-width="2" d="M2641.5,-980C2641.5,-980 2540.5,-980 2540.5,-980 2534.5,-980 2528.5,-974 2528.5,-968 2528.5,-968 2528.5,-956 2528.5,-956 2528.5,-950 2534.5,-944 2540.5,-944 2540.5,-944 2641.5,-944 2641.5,-944 2647.5,-944 2653.5,-950 2653.5,-956 2653.5,-956 2653.5,-968 2653.5,-968 2653.5,-974 2647.5,-980 2641.5,-980"/>
<text text-anchor="middle" x="2591" y="-959.5" font-family="sans" font-size="10.00">template_xfm_itk2ras</text>
</g>
<!-- 5 -->
<g id="node37" class="node">
<title>5</title>
<path fill="none" stroke="#59d856" stroke-width="2" d="M619.5,-404C619.5,-404 534.5,-404 534.5,-404 528.5,-404 522.5,-398 522.5,-392 522.5,-392 522.5,-380 522.5,-380 522.5,-374 528.5,-368 534.5,-368 534.5,-368 619.5,-368 619.5,-368 625.5,-368 631.5,-374 631.5,-380 631.5,-380 631.5,-392 631.5,-392 631.5,-398 625.5,-404 619.5,-404"/>
<text text-anchor="middle" x="577" y="-383.5" font-family="sans" font-size="10.00">warp_gii_to_native</text>
</g>
<!-- 34&#45;&gt;5 -->
<g id="edge112" class="edge">
<title>34&#45;&gt;5</title>
<path fill="none" stroke="grey" stroke-width="2" d="M2545.02,-943.98C2476.1,-917.03 2354,-863.07 2354,-819 2354,-819 2354,-819 2354,-673 2354,-632.03 2362.23,-609.29 2330,-584 2305.34,-564.65 1794.15,-584.79 1766,-571 1735.64,-556.13 1747.49,-528.52 1718,-512 1508.31,-394.52 1420.9,-466.5 1182,-440 985.62,-418.22 752.55,-399.93 641.74,-391.69"/>
<polygon fill="grey" stroke="grey" stroke-width="2" points="641.96,-388.19 631.73,-390.94 641.44,-395.17 641.96,-388.19"/>
</g>
<!-- 8 -->
<g id="node3" class="node">
<title>8</title>
<path fill="none" stroke="#d8cb56" stroke-width="2" d="M1166,-548C1166,-548 1082,-548 1082,-548 1076,-548 1070,-542 1070,-536 1070,-536 1070,-524 1070,-524 1070,-518 1076,-512 1082,-512 1082,-512 1166,-512 1166,-512 1172,-512 1178,-518 1178,-524 1178,-524 1178,-536 1178,-536 1178,-542 1172,-548 1166,-548"/>
<text text-anchor="middle" x="1124" y="-527.5" font-family="sans" font-size="10.00">create_warps_hipp</text>
</g>
<!-- 51 -->
<g id="node4" class="node">
<title>51</title>
<path fill="none" stroke="#8fd856" stroke-width="2" d="M938,-476C938,-476 780,-476 780,-476 774,-476 768,-470 768,-464 768,-464 768,-452 768,-452 768,-446 774,-440 780,-440 780,-440 938,-440 938,-440 944,-440 950,-446 950,-452 950,-452 950,-464 950,-464 950,-470 944,-476 938,-476"/>
<text text-anchor="middle" x="859" y="-455.5" font-family="sans" font-size="10.00">compose_warps_native_to_unfold</text>
</g>
<!-- 8&#45;&gt;51 -->
<g id="edge1" class="edge">
<title>8&#45;&gt;51</title>
<path fill="none" stroke="grey" stroke-width="2" d="M1069.99,-514.12C1066.62,-513.36 1063.27,-512.64 1060,-512 1015.59,-503.28 1002.8,-510.38 959,-499 940.85,-494.28 921.56,-487.12 904.83,-480.15"/>
<polygon fill="grey" stroke="grey" stroke-width="2" points="905.87,-476.79 895.29,-476.09 903.12,-483.23 905.87,-476.79"/>
</g>
<!-- 52 -->
<g id="node5" class="node">
<title>52</title>
<path fill="none" stroke="#56d8a9" stroke-width="2" d="M1165.5,-476C1165.5,-476 980.5,-476 980.5,-476 974.5,-476 968.5,-470 968.5,-464 968.5,-464 968.5,-452 968.5,-452 968.5,-446 974.5,-440 980.5,-440 980.5,-440 1165.5,-440 1165.5,-440 1171.5,-440 1177.5,-446 1177.5,-452 1177.5,-452 1177.5,-464 1177.5,-464 1177.5,-470 1171.5,-476 1165.5,-476"/>
<text text-anchor="middle" x="1073" y="-455.5" font-family="sans" font-size="10.00">compose_warps_unfold_to_crop_native</text>
</g>
<!-- 8&#45;&gt;52 -->
<g id="edge2" class="edge">
<title>8&#45;&gt;52</title>
<path fill="none" stroke="grey" stroke-width="2" d="M1111.39,-511.7C1105.4,-503.47 1098.12,-493.48 1091.52,-484.42"/>
<polygon fill="grey" stroke="grey" stroke-width="2" points="1094.18,-482.13 1085.46,-476.1 1088.52,-486.25 1094.18,-482.13"/>
</g>
<!-- 7 -->
<g id="node41" class="node">
<title>7</title>
<path fill="none" stroke="#5673d8" stroke-width="2" d="M755.5,-548C755.5,-548 648.5,-548 648.5,-548 642.5,-548 636.5,-542 636.5,-536 636.5,-536 636.5,-524 636.5,-524 636.5,-518 642.5,-512 648.5,-512 648.5,-512 755.5,-512 755.5,-512 761.5,-512 767.5,-518 767.5,-524 767.5,-524 767.5,-536 767.5,-536 767.5,-542 761.5,-548 755.5,-548"/>
<text text-anchor="middle" x="702" y="-527.5" font-family="sans" font-size="10.00">warp_gii_unfold2native</text>
</g>
<!-- 8&#45;&gt;7 -->
<g id="edge70" class="edge">
<title>8&#45;&gt;7</title>
<path fill="none" stroke="grey" stroke-width="2" d="M1103.3,-548.15C1089.51,-558.99 1070.42,-571.74 1051,-577.5 1022.13,-586.06 808.99,-585.63 780,-577.5 763.22,-572.79 746.47,-563.37 732.82,-554.15"/>
<polygon fill="grey" stroke="grey" stroke-width="2" points="734.51,-551.07 724.32,-548.17 730.49,-556.79 734.51,-551.07"/>
</g>
<!-- 0 -->
<g id="node62" class="node">
<title>0</title>
<path fill="none" stroke="#ced856" stroke-width="2" d="M2081,-188C2081,-188 2051,-188 2051,-188 2045,-188 2039,-182 2039,-176 2039,-176 2039,-164 2039,-164 2039,-158 2045,-152 2051,-152 2051,-152 2081,-152 2081,-152 2087,-152 2093,-158 2093,-164 2093,-164 2093,-176 2093,-176 2093,-182 2087,-188 2081,-188"/>
<text text-anchor="middle" x="2066" y="-167.5" font-family="sans" font-size="10.00">all</text>
</g>
<!-- 51&#45;&gt;0 -->
<g id="edge126" class="edge">
<title>51&#45;&gt;0</title>
<path fill="none" stroke="grey" stroke-width="2" d="M922.35,-439.93C1072.67,-399.7 1462.93,-296.86 1792,-224 1876.26,-205.34 1975.92,-186.99 2028.75,-177.55"/>
<polygon fill="grey" stroke="grey" stroke-width="2" points="2029.44,-180.98 2038.68,-175.78 2028.22,-174.09 2029.44,-180.98"/>
</g>
<!-- 52&#45;&gt;0 -->
<g id="edge127" class="edge">
<title>52&#45;&gt;0</title>
<path fill="none" stroke="grey" stroke-width="2" d="M1177.62,-451.6C1317.38,-443.64 1557.24,-427.15 1642,-404 1691.29,-390.54 1707.69,-388.81 1746,-355 1797.67,-309.39 1772.63,-263.66 1829,-224 1889.69,-181.31 1978.94,-172.27 2028.8,-170.78"/>
<polygon fill="grey" stroke="grey" stroke-width="2" points="2028.89,-174.28 2038.82,-170.57 2028.74,-167.29 2028.89,-174.28"/>
</g>
<!-- 9 -->
<g id="node6" class="node">
<title>9</title>
<path fill="none" stroke="#56c1d8" stroke-width="2" d="M1117,-692C1117,-692 1039,-692 1039,-692 1033,-692 1027,-686 1027,-680 1027,-680 1027,-668 1027,-668 1027,-662 1033,-656 1039,-656 1039,-656 1117,-656 1117,-656 1123,-656 1129,-662 1129,-668 1129,-668 1129,-680 1129,-680 1129,-686 1123,-692 1117,-692"/>
<text text-anchor="middle" x="1078" y="-671.5" font-family="sans" font-size="10.00">create_unfold_ref</text>
</g>
<!-- 9&#45;&gt;8 -->
<g id="edge3" class="edge">
<title>9&#45;&gt;8</title>
<path fill="none" stroke="grey" stroke-width="2" d="M1126.03,-655.85C1141.97,-647.6 1157.94,-635.95 1167,-620 1178.99,-598.91 1164.63,-573.98 1149.36,-555.87"/>
<polygon fill="grey" stroke="grey" stroke-width="2" points="1151.65,-553.19 1142.37,-548.08 1146.44,-557.86 1151.65,-553.19"/>
</g>
<!-- 9&#45;&gt;51 -->
<g id="edge6" class="edge">
<title>9&#45;&gt;51</title>
<path fill="none" stroke="grey" stroke-width="2" d="M1026.95,-670.04C958.85,-664.9 843.86,-651.67 818,-620 785.84,-580.63 817.4,-519.15 840.18,-484.68"/>
<polygon fill="grey" stroke="grey" stroke-width="2" points="843.28,-486.35 846.03,-476.11 837.5,-482.4 843.28,-486.35"/>
</g>
<!-- 9&#45;&gt;52 -->
<g id="edge7" class="edge">
<title>9&#45;&gt;52</title>
<path fill="none" stroke="grey" stroke-width="2" d="M1026.84,-669.32C962.32,-663.48 856.88,-649.59 833,-620 785.64,-561.3 895.6,-523.81 917,-512 934.11,-502.56 940.44,-505.12 959,-499 977.66,-492.84 997.92,-485.84 1016.12,-479.43"/>
<polygon fill="grey" stroke="grey" stroke-width="2" points="1017.45,-482.67 1025.71,-476.04 1015.12,-476.07 1017.45,-482.67"/>
</g>
<!-- 10 -->
<g id="node7" class="node">
<title>10</title>
<path fill="none" stroke="#56d87b" stroke-width="2" d="M1145.5,-620C1145.5,-620 1026.5,-620 1026.5,-620 1020.5,-620 1014.5,-614 1014.5,-608 1014.5,-608 1014.5,-596 1014.5,-596 1014.5,-590 1020.5,-584 1026.5,-584 1026.5,-584 1145.5,-584 1145.5,-584 1151.5,-584 1157.5,-590 1157.5,-596 1157.5,-596 1157.5,-608 1157.5,-608 1157.5,-614 1151.5,-620 1145.5,-620"/>
<text text-anchor="middle" x="1086" y="-599.5" font-family="sans" font-size="10.00">create_unfold_coord_map</text>
</g>
<!-- 9&#45;&gt;10 -->
<g id="edge4" class="edge">
<title>9&#45;&gt;10</title>
<path fill="none" stroke="grey" stroke-width="2" d="M1079.98,-655.7C1080.86,-647.98 1081.92,-638.71 1082.9,-630.11"/>
<polygon fill="grey" stroke="grey" stroke-width="2" points="1086.39,-630.44 1084.05,-620.1 1079.43,-629.64 1086.39,-630.44"/>
</g>
<!-- 42 -->
<g id="node8" class="node">
<title>42</title>
<path fill="none" stroke="#565bd8" stroke-width="2" d="M1039.5,-548C1039.5,-548 938.5,-548 938.5,-548 932.5,-548 926.5,-542 926.5,-536 926.5,-536 926.5,-524 926.5,-524 926.5,-518 932.5,-512 938.5,-512 938.5,-512 1039.5,-512 1039.5,-512 1045.5,-512 1051.5,-518 1051.5,-524 1051.5,-524 1051.5,-536 1051.5,-536 1051.5,-542 1045.5,-548 1039.5,-548"/>
<text text-anchor="middle" x="989" y="-527.5" font-family="sans" font-size="10.00">create_warps_dentate</text>
</g>
<!-- 9&#45;&gt;42 -->
<g id="edge5" class="edge">
<title>9&#45;&gt;42</title>
<path fill="none" stroke="grey" stroke-width="2" d="M1044.83,-655.99C1030.75,-647.12 1015.44,-634.97 1006,-620 994.36,-601.53 990.34,-576.94 989.11,-558.28"/>
<polygon fill="grey" stroke="grey" stroke-width="2" points="992.59,-557.91 988.66,-548.08 985.6,-558.22 992.59,-557.91"/>
</g>
<!-- 32 -->
<g id="node42" class="node">
<title>32</title>
<path fill="none" stroke="#56a9d8" stroke-width="2" d="M755,-620C755,-620 649,-620 649,-620 643,-620 637,-614 637,-608 637,-608 637,-596 637,-596 637,-590 643,-584 649,-584 649,-584 755,-584 755,-584 761,-584 767,-590 767,-596 767,-596 767,-608 767,-608 767,-614 761,-620 755,-620"/>
<text text-anchor="middle" x="702" y="-599.5" font-family="sans" font-size="10.00">constrain_surf_to_bbox</text>
</g>
<!-- 9&#45;&gt;32 -->
<g id="edge72" class="edge">
<title>9&#45;&gt;32</title>
<path fill="none" stroke="grey" stroke-width="2" d="M1026.73,-665.28C967.75,-656.15 867.81,-639.91 777.21,-621.27"/>
<polygon fill="grey" stroke="grey" stroke-width="2" points="777.85,-617.83 767.35,-619.22 776.43,-624.68 777.85,-617.83"/>
</g>
<!-- 39 -->
<g id="node46" class="node">
<title>39</title>
<path fill="none" stroke="#bed856" stroke-width="2" d="M756,-260C756,-260 640,-260 640,-260 634,-260 628,-254 628,-248 628,-248 628,-236 628,-236 628,-230 634,-224 640,-224 640,-224 756,-224 756,-224 762,-224 768,-230 768,-236 768,-236 768,-248 768,-248 768,-254 762,-260 756,-260"/>
<text text-anchor="middle" x="698" y="-239.5" font-family="sans" font-size="10.00">resample_atlas_to_refvol</text>
</g>
<!-- 9&#45;&gt;39 -->
<g id="edge73" class="edge">
<title>9&#45;&gt;39</title>
<path fill="none" stroke="grey" stroke-width="2" d="M1129.18,-663.04C1143.63,-660.47 1159.4,-657.9 1174,-656 1269.53,-643.59 1522.9,-668.73 1606,-620 1647.15,-595.87 1666,-578.7 1666,-531 1666,-531 1666,-531 1666,-457 1666,-275.64 1010.01,-247.85 778.07,-243.7"/>
<polygon fill="grey" stroke="grey" stroke-width="2" points="778.06,-240.2 768.01,-243.53 777.94,-247.19 778.06,-240.2"/>
</g>
<!-- 9&#45;&gt;0 -->
<g id="edge71" class="edge">
<title>9&#45;&gt;0</title>
<path fill="none" stroke="grey" stroke-width="2" d="M1129.17,-662.98C1143.62,-660.41 1159.39,-657.85 1174,-656 1380.96,-629.78 1434.41,-640.63 1642,-620 1856.85,-598.65 2463.36,-661.08 2606,-499 2644.46,-455.29 2646.81,-409.53 2606,-368 2577.22,-338.71 1895.78,-384.29 1867,-355 1826.19,-313.47 1831.52,-270.16 1867,-224 1886.57,-198.54 1976.65,-182.72 2028.66,-175.54"/>
<polygon fill="grey" stroke="grey" stroke-width="2" points="2029.38,-178.97 2038.83,-174.18 2028.45,-172.04 2029.38,-178.97"/>
</g>
<!-- 10&#45;&gt;8 -->
<g id="edge8" class="edge">
<title>10&#45;&gt;8</title>
<path fill="none" stroke="grey" stroke-width="2" d="M1095.39,-583.7C1099.76,-575.64 1105.06,-565.89 1109.9,-556.98"/>
<polygon fill="grey" stroke="grey" stroke-width="2" points="1113.02,-558.56 1114.71,-548.1 1106.87,-555.22 1113.02,-558.56"/>
</g>
<!-- 10&#45;&gt;42 -->
<g id="edge9" class="edge">
<title>10&#45;&gt;42</title>
<path fill="none" stroke="grey" stroke-width="2" d="M1062.02,-583.7C1049.69,-574.8 1034.48,-563.82 1021.15,-554.2"/>
<polygon fill="grey" stroke="grey" stroke-width="2" points="1022.86,-551.12 1012.7,-548.1 1018.76,-556.79 1022.86,-551.12"/>
</g>
<!-- 42&#45;&gt;51 -->
<g id="edge12" class="edge">
<title>42&#45;&gt;51</title>
<path fill="none" stroke="grey" stroke-width="2" d="M957.2,-511.88C939.89,-502.55 918.28,-490.92 899.74,-480.94"/>
<polygon fill="grey" stroke="grey" stroke-width="2" points="901.39,-477.85 890.92,-476.19 898.07,-484.01 901.39,-477.85"/>
</g>
<!-- 42&#45;&gt;52 -->
<g id="edge13" class="edge">
<title>42&#45;&gt;52</title>
<path fill="none" stroke="grey" stroke-width="2" d="M1009.76,-511.7C1020.24,-502.97 1033.11,-492.24 1044.5,-482.75"/>
<polygon fill="grey" stroke="grey" stroke-width="2" points="1047.03,-485.19 1052.47,-476.1 1042.55,-479.82 1047.03,-485.19"/>
</g>
<!-- 42&#45;&gt;7 -->
<g id="edge114" class="edge">
<title>42&#45;&gt;7</title>
<path fill="none" stroke="grey" stroke-width="2" d="M926.29,-530C876.8,-530 827.31,-530 777.81,-530"/>
<polygon fill="grey" stroke="grey" stroke-width="2" points="777.58,-526.5 767.58,-530 777.58,-533.5 777.58,-526.5"/>
</g>
<!-- 31 -->
<g id="node9" class="node">
<title>31</title>
<path fill="none" stroke="#d87d56" stroke-width="2" d="M964,-620C964,-620 854,-620 854,-620 848,-620 842,-614 842,-608 842,-608 842,-596 842,-596 842,-590 848,-584 854,-584 854,-584 964,-584 964,-584 970,-584 976,-590 976,-596 976,-596 976,-608 976,-608 976,-614 970,-620 964,-620"/>
<text text-anchor="middle" x="909" y="-599.5" font-family="sans" font-size="10.00">create_native_coord_ref</text>
</g>
<!-- 31&#45;&gt;8 -->
<g id="edge10" class="edge">
<title>31&#45;&gt;8</title>
<path fill="none" stroke="grey" stroke-width="2" d="M976.03,-588.83C1012.51,-582.01 1051.86,-574.23 1060,-571 1071.21,-566.56 1082.63,-560.14 1092.67,-553.74"/>
<polygon fill="grey" stroke="grey" stroke-width="2" points="1094.67,-556.61 1101.08,-548.17 1090.81,-550.77 1094.67,-556.61"/>
</g>
<!-- 31&#45;&gt;42 -->
<g id="edge11" class="edge">
<title>31&#45;&gt;42</title>
<path fill="none" stroke="grey" stroke-width="2" d="M928.78,-583.7C938.75,-574.97 951.01,-564.24 961.86,-554.75"/>
<polygon fill="grey" stroke="grey" stroke-width="2" points="964.23,-557.32 969.45,-548.1 959.62,-552.06 964.23,-557.32"/>
</g>
<!-- 54 -->
<g id="node10" class="node">
<title>54</title>
<path fill="none" stroke="#56a2d8" stroke-width="2" d="M2085.5,-332C2085.5,-332 1996.5,-332 1996.5,-332 1990.5,-332 1984.5,-326 1984.5,-320 1984.5,-320 1984.5,-308 1984.5,-308 1984.5,-302 1990.5,-296 1996.5,-296 1996.5,-296 2085.5,-296 2085.5,-296 2091.5,-296 2097.5,-302 2097.5,-308 2097.5,-308 2097.5,-320 2097.5,-320 2097.5,-326 2091.5,-332 2085.5,-332"/>
<text text-anchor="middle" x="2041" y="-311.5" font-family="sans" font-size="10.00">qc_reg_to_template</text>
</g>
<!-- 54&#45;&gt;0 -->
<g id="edge130" class="edge">
<title>54&#45;&gt;0</title>
<path fill="none" stroke="grey" stroke-width="2" d="M2044.02,-295.87C2048.28,-271.67 2056.1,-227.21 2061.18,-198.39"/>
<polygon fill="grey" stroke="grey" stroke-width="2" points="2064.69,-198.64 2062.97,-188.19 2057.79,-197.43 2064.69,-198.64"/>
</g>
<!-- 55 -->
<g id="node11" class="node">
<title>55</title>
<path fill="none" stroke="#56d0d8" stroke-width="2" d="M2319.5,-332C2319.5,-332 2272.5,-332 2272.5,-332 2266.5,-332 2260.5,-326 2260.5,-320 2260.5,-320 2260.5,-308 2260.5,-308 2260.5,-302 2266.5,-296 2272.5,-296 2272.5,-296 2319.5,-296 2319.5,-296 2325.5,-296 2331.5,-302 2331.5,-308 2331.5,-308 2331.5,-320 2331.5,-320 2331.5,-326 2325.5,-332 2319.5,-332"/>
<text text-anchor="middle" x="2296" y="-311.5" font-family="sans" font-size="10.00">qc_subfield</text>
</g>
<!-- 55&#45;&gt;0 -->
<g id="edge131" class="edge">
<title>55&#45;&gt;0</title>
<path fill="none" stroke="grey" stroke-width="2" d="M2260.1,-298.74C2257.37,-297.77 2254.65,-296.85 2252,-296 2190.82,-276.39 2162.25,-300.03 2112,-260 2092.31,-244.31 2080.18,-217.9 2073.35,-197.92"/>
<polygon fill="grey" stroke="grey" stroke-width="2" points="2076.61,-196.62 2070.26,-188.15 2069.94,-198.74 2076.61,-196.62"/>
</g>
<!-- 56 -->
<g id="node12" class="node">
<title>56</title>
<path fill="none" stroke="#9fd856" stroke-width="2" d="M1954.5,-332C1954.5,-332 1883.5,-332 1883.5,-332 1877.5,-332 1871.5,-326 1871.5,-320 1871.5,-320 1871.5,-308 1871.5,-308 1871.5,-302 1877.5,-296 1883.5,-296 1883.5,-296 1954.5,-296 1954.5,-296 1960.5,-296 1966.5,-302 1966.5,-308 1966.5,-308 1966.5,-320 1966.5,-320 1966.5,-326 1960.5,-332 1954.5,-332"/>
<text text-anchor="middle" x="1919" y="-311.5" font-family="sans" font-size="10.00">qc_subfield_surf</text>
</g>
<!-- 56&#45;&gt;0 -->
<g id="edge132" class="edge">
<title>56&#45;&gt;0</title>
<path fill="none" stroke="grey" stroke-width="2" d="M1936.73,-295.87C1962.67,-270.82 2011.08,-224.05 2040.73,-195.41"/>
<polygon fill="grey" stroke="grey" stroke-width="2" points="2043.44,-197.65 2048.21,-188.19 2038.58,-192.62 2043.44,-197.65"/>
</g>
<!-- 57 -->
<g id="node13" class="node">
<title>57</title>
<path fill="none" stroke="#d89c56" stroke-width="2" d="M2219,-260C2219,-260 2133,-260 2133,-260 2127,-260 2121,-254 2121,-248 2121,-248 2121,-236 2121,-236 2121,-230 2127,-224 2133,-224 2133,-224 2219,-224 2219,-224 2225,-224 2231,-230 2231,-236 2231,-236 2231,-248 2231,-248 2231,-254 2225,-260 2219,-260"/>
<text text-anchor="middle" x="2176" y="-239.5" font-family="sans" font-size="10.00">plot_subj_subfields</text>
</g>
<!-- 57&#45;&gt;0 -->
<g id="edge133" class="edge">
<title>57&#45;&gt;0</title>
<path fill="none" stroke="grey" stroke-width="2" d="M2149.09,-223.88C2134.84,-214.81 2117.15,-203.55 2101.76,-193.76"/>
<polygon fill="grey" stroke="grey" stroke-width="2" points="2103.33,-190.61 2093.01,-188.19 2099.57,-196.51 2103.33,-190.61"/>
</g>
<!-- 58 -->
<g id="node14" class="node">
<title>58</title>
<path fill="none" stroke="#d8c356" stroke-width="2" d="M2230.5,-332C2230.5,-332 2127.5,-332 2127.5,-332 2121.5,-332 2115.5,-326 2115.5,-320 2115.5,-320 2115.5,-308 2115.5,-308 2115.5,-302 2121.5,-296 2127.5,-296 2127.5,-296 2230.5,-296 2230.5,-296 2236.5,-296 2242.5,-302 2242.5,-308 2242.5,-308 2242.5,-320 2242.5,-320 2242.5,-326 2236.5,-332 2230.5,-332"/>
<text text-anchor="middle" x="2179" y="-311.5" font-family="sans" font-size="10.00">get_subfield_vols_subj</text>
</g>
<!-- 58&#45;&gt;57 -->
<g id="edge14" class="edge">
<title>58&#45;&gt;57</title>
<path fill="none" stroke="grey" stroke-width="2" d="M2178.26,-295.7C2177.93,-287.98 2177.53,-278.71 2177.16,-270.11"/>
<polygon fill="grey" stroke="grey" stroke-width="2" points="2180.66,-269.95 2176.73,-260.1 2173.66,-270.25 2180.66,-269.95"/>
</g>
<!-- 11 -->
<g id="node15" class="node">
<title>11</title>
<path fill="none" stroke="#56d8b1" stroke-width="2" d="M1272.5,-692C1272.5,-692 1215.5,-692 1215.5,-692 1209.5,-692 1203.5,-686 1203.5,-680 1203.5,-680 1203.5,-668 1203.5,-668 1203.5,-662 1209.5,-656 1215.5,-656 1215.5,-656 1272.5,-656 1272.5,-656 1278.5,-656 1284.5,-662 1284.5,-668 1284.5,-668 1284.5,-680 1284.5,-680 1284.5,-686 1278.5,-692 1272.5,-692"/>
<text text-anchor="middle" x="1244" y="-671.5" font-family="sans" font-size="10.00">unflip_coords</text>
</g>
<!-- 11&#45;&gt;8 -->
<g id="edge74" class="edge">
<title>11&#45;&gt;8</title>
<path fill="none" stroke="grey" stroke-width="2" d="M1243.29,-655.83C1241.68,-636.5 1236.49,-605.03 1220,-584 1209.79,-570.97 1195.44,-560.68 1180.94,-552.77"/>
<polygon fill="grey" stroke="grey" stroke-width="2" points="1182.42,-549.6 1171.93,-548.15 1179.23,-555.82 1182.42,-549.6"/>
</g>
<!-- 11&#45;&gt;42 -->
<g id="edge76" class="edge">
<title>11&#45;&gt;42</title>
<path fill="none" stroke="grey" stroke-width="2" d="M1234.59,-655.88C1222.11,-635.03 1198.01,-600.53 1167,-584 1125.12,-561.67 1106.14,-585.69 1061,-571 1048.02,-566.78 1034.7,-560.14 1023.11,-553.48"/>
<polygon fill="grey" stroke="grey" stroke-width="2" points="1024.6,-550.29 1014.22,-548.17 1021.02,-556.3 1024.6,-550.29"/>
</g>
<!-- 11&#45;&gt;31 -->
<g id="edge75" class="edge">
<title>11&#45;&gt;31</title>
<path fill="none" stroke="grey" stroke-width="2" d="M1203.43,-661.4C1196.31,-659.5 1188.96,-657.63 1182,-656 1145.61,-647.49 1053.41,-629.89 986.19,-617.31"/>
<polygon fill="grey" stroke="grey" stroke-width="2" points="986.52,-613.81 976.05,-615.41 985.24,-620.69 986.52,-613.81"/>
</g>
<!-- 47 -->
<g id="node23" class="node">
<title>47</title>
<path fill="none" stroke="#d89556" stroke-width="2" d="M1969.5,-548C1969.5,-548 1782.5,-548 1782.5,-548 1776.5,-548 1770.5,-542 1770.5,-536 1770.5,-536 1770.5,-524 1770.5,-524 1770.5,-518 1776.5,-512 1782.5,-512 1782.5,-512 1969.5,-512 1969.5,-512 1975.5,-512 1981.5,-518 1981.5,-524 1981.5,-524 1981.5,-536 1981.5,-536 1981.5,-542 1975.5,-548 1969.5,-548"/>
<text text-anchor="middle" x="1876" y="-527.5" font-family="sans" font-size="10.00">label_subfields_from_vol_coords_corobl</text>
</g>
<!-- 11&#45;&gt;47 -->
<g id="edge77" class="edge">
<title>11&#45;&gt;47</title>
<path fill="none" stroke="grey" stroke-width="2" d="M1284.81,-669.64C1378.39,-661.67 1606.03,-640.76 1680,-620 1737.13,-603.97 1798.79,-573.59 1837.38,-552.82"/>
<polygon fill="grey" stroke="grey" stroke-width="2" points="1839.09,-555.88 1846.2,-548.03 1835.75,-549.73 1839.09,-555.88"/>
</g>
<!-- 50 -->
<g id="node60" class="node">
<title>50</title>
<path fill="none" stroke="#56b9d8" stroke-width="2" d="M2590,-404C2590,-404 2452,-404 2452,-404 2446,-404 2440,-398 2440,-392 2440,-392 2440,-380 2440,-380 2440,-374 2446,-368 2452,-368 2452,-368 2590,-368 2590,-368 2596,-368 2602,-374 2602,-380 2602,-380 2602,-392 2602,-392 2602,-398 2596,-404 2590,-404"/>
<text text-anchor="middle" x="2521" y="-383.5" font-family="sans" font-size="10.00">resample_coords_native_crop</text>
</g>
<!-- 11&#45;&gt;50 -->
<g id="edge78" class="edge">
<title>11&#45;&gt;50</title>
<path fill="none" stroke="grey" stroke-width="2" d="M1284.63,-669.7C1369.48,-662.58 1571.59,-644.43 1740,-620 1827.65,-607.29 1848.44,-597.3 1936,-584 1983.8,-576.74 2000.61,-592.33 2044,-571 2077,-554.78 2068.63,-527.44 2102,-512 2137.99,-495.34 2246.15,-519.66 2280,-499 2306.22,-483 2291.32,-458.29 2316,-440 2325.99,-432.6 2382.67,-418.22 2433.9,-406.3"/>
<polygon fill="grey" stroke="grey" stroke-width="2" points="2434.77,-409.69 2443.72,-404.03 2433.19,-402.87 2434.77,-409.69"/>
</g>
<!-- 12 -->
<g id="node16" class="node">
<title>12</title>
<path fill="none" stroke="#d86656" stroke-width="2" d="M1432,-764C1432,-764 1340,-764 1340,-764 1334,-764 1328,-758 1328,-752 1328,-752 1328,-740 1328,-740 1328,-734 1334,-728 1340,-728 1340,-728 1432,-728 1432,-728 1438,-728 1444,-734 1444,-740 1444,-740 1444,-752 1444,-752 1444,-758 1438,-764 1432,-764"/>
<text text-anchor="middle" x="1386" y="-743.5" font-family="sans" font-size="10.00">laplace_coords_hipp</text>
</g>
<!-- 12&#45;&gt;8 -->
<g id="edge79" class="edge">
<title>12&#45;&gt;8</title>
<path fill="none" stroke="grey" stroke-width="2" d="M1444.1,-729.77C1447.44,-729.11 1450.76,-728.52 1454,-728 1474.02,-724.81 1622.18,-729.84 1636,-715 1675.68,-672.39 1674.99,-627.24 1636,-584 1606.54,-551.33 1319.46,-537.56 1188.52,-532.95"/>
<polygon fill="grey" stroke="grey" stroke-width="2" points="1188.35,-529.44 1178.23,-532.59 1188.11,-536.43 1188.35,-529.44"/>
</g>
<!-- 12&#45;&gt;31 -->
<g id="edge80" class="edge">
<title>12&#45;&gt;31</title>
<path fill="none" stroke="grey" stroke-width="2" d="M1327.68,-729.45C1324.75,-728.91 1321.85,-728.42 1319,-728 1285.88,-723.14 1048.4,-729.01 1018,-715 985.44,-700 988.02,-681.67 963,-656 953.83,-646.59 943.59,-636.45 934.5,-627.58"/>
<polygon fill="grey" stroke="grey" stroke-width="2" points="936.81,-624.93 927.2,-620.47 931.93,-629.95 936.81,-624.93"/>
</g>
<!-- 12&#45;&gt;11 -->
<g id="edge15" class="edge">
<title>12&#45;&gt;11</title>
<path fill="none" stroke="grey" stroke-width="2" d="M1351.26,-727.88C1332.18,-718.47 1308.32,-706.71 1287.95,-696.67"/>
<polygon fill="grey" stroke="grey" stroke-width="2" points="1289.39,-693.47 1278.87,-692.19 1286.29,-699.75 1289.39,-693.47"/>
</g>
<!-- 12&#45;&gt;47 -->
<g id="edge81" class="edge">
<title>12&#45;&gt;47</title>
<path fill="none" stroke="grey" stroke-width="2" d="M1444.1,-729.73C1447.43,-729.09 1450.75,-728.5 1454,-728 1500.21,-720.86 1620.73,-732.7 1664,-715 1748.4,-680.47 1822.68,-598.12 1856.54,-556.3"/>
<polygon fill="grey" stroke="grey" stroke-width="2" points="1859.45,-558.26 1862.96,-548.26 1853.98,-553.9 1859.45,-558.26"/>
</g>
<!-- 12&#45;&gt;50 -->
<g id="edge82" class="edge">
<title>12&#45;&gt;50</title>
<path fill="none" stroke="grey" stroke-width="2" d="M1444.07,-729.57C1447.42,-728.96 1450.74,-728.43 1454,-728 1491.79,-722.98 2104.38,-728.56 2140,-715 2183.27,-698.52 2416.61,-483.97 2495.17,-411.06"/>
<polygon fill="grey" stroke="grey" stroke-width="2" points="2497.76,-413.43 2502.7,-404.06 2492.99,-408.3 2497.76,-413.43"/>
</g>
<!-- 28 -->
<g id="node17" class="node">
<title>28</title>
<path fill="none" stroke="#5682d8" stroke-width="2" d="M1590,-620C1590,-620 1492,-620 1492,-620 1486,-620 1480,-614 1480,-608 1480,-608 1480,-596 1480,-596 1480,-590 1486,-584 1492,-584 1492,-584 1590,-584 1590,-584 1596,-584 1602,-590 1602,-596 1602,-596 1602,-608 1602,-608 1602,-614 1596,-620 1590,-620"/>
<text text-anchor="middle" x="1541" y="-599.5" font-family="sans" font-size="10.00">unflip_coords_equivol</text>
</g>
<!-- 28&#45;&gt;8 -->
<g id="edge106" class="edge">
<title>28&#45;&gt;8</title>
<path fill="none" stroke="grey" stroke-width="2" d="M1479.92,-590.75C1401.93,-577.65 1267.59,-555.1 1188.15,-541.77"/>
<polygon fill="grey" stroke="grey" stroke-width="2" points="1188.71,-538.31 1178.27,-540.11 1187.55,-545.22 1188.71,-538.31"/>
</g>
<!-- 28&#45;&gt;47 -->
<g id="edge107" class="edge">
<title>28&#45;&gt;47</title>
<path fill="none" stroke="grey" stroke-width="2" d="M1602.05,-588.24C1653.08,-577.58 1726.6,-562.22 1784.63,-550.09"/>
<polygon fill="grey" stroke="grey" stroke-width="2" points="1785.47,-553.49 1794.54,-548.02 1784.04,-546.64 1785.47,-553.49"/>
</g>
<!-- 28&#45;&gt;50 -->
<g id="edge108" class="edge">
<title>28&#45;&gt;50</title>
<path fill="none" stroke="grey" stroke-width="2" d="M1602.08,-593.59C1631.62,-590.23 1667.61,-586.47 1700,-584 1763.44,-579.17 1925.57,-590.89 1986,-571 2030.73,-556.28 2029.5,-527.4 2074,-512 2110.01,-499.53 2211.71,-517.55 2245,-499 2273.34,-483.2 2260.9,-457.85 2288,-440 2300.25,-431.94 2370.03,-416.61 2430.06,-404.51"/>
<polygon fill="grey" stroke="grey" stroke-width="2" points="2430.87,-407.92 2439.99,-402.52 2429.5,-401.05 2430.87,-407.92"/>
</g>
<!-- 29 -->
<g id="node18" class="node">
<title>29</title>
<path fill="none" stroke="#68d856" stroke-width="2" d="M1585,-692C1585,-692 1497,-692 1497,-692 1491,-692 1485,-686 1485,-680 1485,-680 1485,-668 1485,-668 1485,-662 1491,-656 1497,-656 1497,-656 1585,-656 1585,-656 1591,-656 1597,-662 1597,-668 1597,-668 1597,-680 1597,-680 1597,-686 1591,-692 1585,-692"/>
<text text-anchor="middle" x="1541" y="-671.5" font-family="sans" font-size="10.00">equivolume_coords</text>
</g>
<!-- 29&#45;&gt;8 -->
<g id="edge109" class="edge">
<title>29&#45;&gt;8</title>
<path fill="none" stroke="grey" stroke-width="2" d="M1490.7,-655.87C1413.5,-629.58 1266.1,-579.39 1183.64,-551.31"/>
<polygon fill="grey" stroke="grey" stroke-width="2" points="1184.75,-547.99 1174.15,-548.08 1182.49,-554.62 1184.75,-547.99"/>
</g>
<!-- 29&#45;&gt;28 -->
<g id="edge16" class="edge">
<title>29&#45;&gt;28</title>
<path fill="none" stroke="grey" stroke-width="2" d="M1541,-655.7C1541,-647.98 1541,-638.71 1541,-630.11"/>
<polygon fill="grey" stroke="grey" stroke-width="2" points="1544.5,-630.1 1541,-620.1 1537.5,-630.1 1544.5,-630.1"/>
</g>
<!-- 29&#45;&gt;47 -->
<g id="edge110" class="edge">
<title>29&#45;&gt;47</title>
<path fill="none" stroke="grey" stroke-width="2" d="M1597.45,-666.83C1644.44,-660.05 1712.13,-646.41 1766,-620 1799.4,-603.63 1831.77,-575.49 1852.64,-555.23"/>
<polygon fill="grey" stroke="grey" stroke-width="2" points="1855.14,-557.68 1859.79,-548.16 1850.22,-552.7 1855.14,-557.68"/>
</g>
<!-- 29&#45;&gt;50 -->
<g id="edge111" class="edge">
<title>29&#45;&gt;50</title>
<path fill="none" stroke="grey" stroke-width="2" d="M1597.09,-667.77C1721.57,-655.38 2016.68,-621.44 2102,-571 2131.1,-553.8 2120.06,-527.7 2150,-512 2215.54,-477.63 2250.46,-533.37 2316,-499 2345.94,-483.3 2336.23,-459.27 2364,-440 2384.56,-425.73 2409.29,-415.03 2432.97,-407.14"/>
<polygon fill="grey" stroke="grey" stroke-width="2" points="2434.22,-410.41 2442.68,-404.03 2432.09,-403.74 2434.22,-410.41"/>
</g>
<!-- 30 -->
<g id="node19" class="node">
<title>30</title>
<path fill="none" stroke="#56a9d8" stroke-width="2" d="M1589.5,-764C1589.5,-764 1474.5,-764 1474.5,-764 1468.5,-764 1462.5,-758 1462.5,-752 1462.5,-752 1462.5,-740 1462.5,-740 1462.5,-734 1468.5,-728 1474.5,-728 1474.5,-728 1589.5,-728 1589.5,-728 1595.5,-728 1601.5,-734 1601.5,-740 1601.5,-740 1601.5,-752 1601.5,-752 1601.5,-758 1595.5,-764 1589.5,-764"/>
<text text-anchor="middle" x="1532" y="-743.5" font-family="sans" font-size="10.00">prep_equivolume_coords</text>
</g>
<!-- 30&#45;&gt;29 -->
<g id="edge17" class="edge">
<title>30&#45;&gt;29</title>
<path fill="none" stroke="grey" stroke-width="2" d="M1534.22,-727.7C1535.22,-719.98 1536.41,-710.71 1537.51,-702.11"/>
<polygon fill="grey" stroke="grey" stroke-width="2" points="1541,-702.47 1538.8,-692.1 1534.05,-701.58 1541,-702.47"/>
</g>
<!-- 43 -->
<g id="node20" class="node">
<title>43</title>
<path fill="none" stroke="#d8d356" stroke-width="2" d="M1298,-764C1298,-764 1190,-764 1190,-764 1184,-764 1178,-758 1178,-752 1178,-752 1178,-740 1178,-740 1178,-734 1184,-728 1190,-728 1190,-728 1298,-728 1298,-728 1304,-728 1310,-734 1310,-740 1310,-740 1310,-752 1310,-752 1310,-758 1304,-764 1298,-764"/>
<text text-anchor="middle" x="1244" y="-743.5" font-family="sans" font-size="10.00">laplace_coords_dentate</text>
</g>
<!-- 43&#45;&gt;42 -->
<g id="edge116" class="edge">
<title>43&#45;&gt;42</title>
<path fill="none" stroke="grey" stroke-width="2" d="M1310.14,-729.34C1313.12,-728.84 1316.09,-728.39 1319,-728 1334.82,-725.87 1594.67,-726.24 1606,-715 1647.35,-673.95 1651.71,-625.68 1611,-584 1589.64,-562.13 1090.49,-579.02 1061,-571 1047.25,-567.26 1033.31,-560.38 1021.39,-553.36"/>
<polygon fill="grey" stroke="grey" stroke-width="2" points="1023.07,-550.28 1012.72,-548.02 1019.4,-556.24 1023.07,-550.28"/>
</g>
<!-- 43&#45;&gt;31 -->
<g id="edge115" class="edge">
<title>43&#45;&gt;31</title>
<path fill="none" stroke="grey" stroke-width="2" d="M1177.81,-744.67C1107.77,-743.13 1002.89,-737.05 970,-715 940.45,-695.19 923.96,-656.13 915.78,-629.78"/>
<polygon fill="grey" stroke="grey" stroke-width="2" points="919.1,-628.67 912.95,-620.04 912.38,-630.62 919.1,-628.67"/>
</g>
<!-- 43&#45;&gt;11 -->
<g id="edge18" class="edge">
<title>43&#45;&gt;11</title>
<path fill="none" stroke="grey" stroke-width="2" d="M1244,-727.7C1244,-719.98 1244,-710.71 1244,-702.11"/>
<polygon fill="grey" stroke="grey" stroke-width="2" points="1247.5,-702.1 1244,-692.1 1240.5,-702.1 1247.5,-702.1"/>
</g>
<!-- 43&#45;&gt;50 -->
<g id="edge117" class="edge">
<title>43&#45;&gt;50</title>
<path fill="none" stroke="grey" stroke-width="2" d="M1310.14,-729.32C1313.12,-728.83 1316.09,-728.39 1319,-728 1458.78,-709.45 1496.41,-734.96 1636,-715 1948.22,-670.34 2018.57,-616.94 2316,-512 2332.83,-506.06 2339.63,-509.59 2354,-499 2380.12,-479.74 2371.62,-460.21 2397,-440 2413.84,-426.59 2434.58,-415.98 2454.25,-407.88"/>
<polygon fill="grey" stroke="grey" stroke-width="2" points="2455.78,-411.04 2463.8,-404.1 2453.21,-404.53 2455.78,-411.04"/>
</g>
<!-- 45 -->
<g id="node21" class="node">
<title>45</title>
<path fill="none" stroke="#d88d56" stroke-width="2" d="M1964,-476C1964,-476 1782,-476 1782,-476 1776,-476 1770,-470 1770,-464 1770,-464 1770,-452 1770,-452 1770,-446 1776,-440 1782,-440 1782,-440 1964,-440 1964,-440 1970,-440 1976,-446 1976,-452 1976,-452 1976,-464 1976,-464 1976,-470 1970,-476 1964,-476"/>
<text text-anchor="middle" x="1873" y="-455.5" font-family="sans" font-size="10.00">combine_tissue_subfield_labels_corobl</text>
</g>
<!-- 49 -->
<g id="node22" class="node">
<title>49</title>
<path fill="none" stroke="#d8b456" stroke-width="2" d="M1970,-404C1970,-404 1832,-404 1832,-404 1826,-404 1820,-398 1820,-392 1820,-392 1820,-380 1820,-380 1820,-374 1826,-368 1832,-368 1832,-368 1970,-368 1970,-368 1976,-368 1982,-374 1982,-380 1982,-380 1982,-392 1982,-392 1982,-398 1976,-404 1970,-404"/>
<text text-anchor="middle" x="1901" y="-383.5" font-family="sans" font-size="10.00">resample_subfields_to_native</text>
</g>
<!-- 45&#45;&gt;49 -->
<g id="edge19" class="edge">
<title>45&#45;&gt;49</title>
<path fill="none" stroke="grey" stroke-width="2" d="M1879.92,-439.7C1883.07,-431.81 1886.88,-422.3 1890.38,-413.55"/>
<polygon fill="grey" stroke="grey" stroke-width="2" points="1893.69,-414.69 1894.16,-404.1 1887.19,-412.09 1893.69,-414.69"/>
</g>
<!-- 44 -->
<g id="node58" class="node">
<title>44</title>
<path fill="none" stroke="#d86656" stroke-width="2" d="M2251.5,-404C2251.5,-404 2102.5,-404 2102.5,-404 2096.5,-404 2090.5,-398 2090.5,-392 2090.5,-392 2090.5,-380 2090.5,-380 2090.5,-374 2096.5,-368 2102.5,-368 2102.5,-368 2251.5,-368 2251.5,-368 2257.5,-368 2263.5,-374 2263.5,-380 2263.5,-380 2263.5,-392 2263.5,-392 2263.5,-398 2257.5,-404 2251.5,-404"/>
<text text-anchor="middle" x="2177" y="-383.5" font-family="sans" font-size="10.00">resample_subfields_native_crop</text>
</g>
<!-- 45&#45;&gt;44 -->
<g id="edge121" class="edge">
<title>45&#45;&gt;44</title>
<path fill="none" stroke="grey" stroke-width="2" d="M1946.98,-439.97C1991.11,-429.8 2047.27,-416.87 2093.05,-406.33"/>
<polygon fill="grey" stroke="grey" stroke-width="2" points="2093.99,-409.7 2102.95,-404.05 2092.42,-402.88 2093.99,-409.7"/>
</g>
<!-- 48 -->
<g id="node59" class="node">
<title>48</title>
<path fill="none" stroke="#56d86b" stroke-width="2" d="M2224,-476C2224,-476 2120,-476 2120,-476 2114,-476 2108,-470 2108,-464 2108,-464 2108,-452 2108,-452 2108,-446 2114,-440 2120,-440 2120,-440 2224,-440 2224,-440 2230,-440 2236,-446 2236,-452 2236,-452 2236,-464 2236,-464 2236,-470 2230,-476 2224,-476"/>
<text text-anchor="middle" x="2172" y="-455.5" font-family="sans" font-size="10.00">create_native_crop_ref</text>
</g>
<!-- 49&#45;&gt;48 -->
<g id="edge124" class="edge">
<title>49&#45;&gt;48</title>
<path fill="none" stroke="grey" stroke-width="2" d="M1967.12,-404.08C2006.66,-414.29 2056.99,-427.29 2097.87,-437.85"/>
<polygon fill="grey" stroke="grey" stroke-width="2" points="2097.22,-441.3 2107.78,-440.41 2098.97,-434.52 2097.22,-441.3"/>
</g>
<!-- 47&#45;&gt;45 -->
<g id="edge20" class="edge">
<title>47&#45;&gt;45</title>
<path fill="none" stroke="grey" stroke-width="2" d="M1875.26,-511.7C1874.93,-503.98 1874.53,-494.71 1874.16,-486.11"/>
<polygon fill="grey" stroke="grey" stroke-width="2" points="1877.66,-485.95 1873.73,-476.1 1870.66,-486.25 1877.66,-485.95"/>
</g>
<!-- 17 -->
<g id="node24" class="node">
<title>17</title>
<path fill="none" stroke="#56d88a" stroke-width="2" d="M2115.5,-980C2115.5,-980 2080.5,-980 2080.5,-980 2074.5,-980 2068.5,-974 2068.5,-968 2068.5,-968 2068.5,-956 2068.5,-956 2068.5,-950 2074.5,-944 2080.5,-944 2080.5,-944 2115.5,-944 2115.5,-944 2121.5,-944 2127.5,-950 2127.5,-956 2127.5,-956 2127.5,-968 2127.5,-968 2127.5,-974 2121.5,-980 2115.5,-980"/>
<text text-anchor="middle" x="2098" y="-959.5" font-family="sans" font-size="10.00">lr_flip_t2</text>
</g>
<!-- 16 -->
<g id="node54" class="node">
<title>16</title>
<path fill="none" stroke="#56b1d8" stroke-width="2" d="M2019.5,-980C2019.5,-980 1960.5,-980 1960.5,-980 1954.5,-980 1948.5,-974 1948.5,-968 1948.5,-968 1948.5,-956 1948.5,-956 1948.5,-950 1954.5,-944 1960.5,-944 1960.5,-944 2019.5,-944 2019.5,-944 2025.5,-944 2031.5,-950 2031.5,-956 2031.5,-956 2031.5,-968 2031.5,-968 2031.5,-974 2025.5,-980 2019.5,-980"/>
<text text-anchor="middle" x="1990" y="-959.5" font-family="sans" font-size="10.00">run_inference</text>
</g>
<!-- 17&#45;&gt;16 -->
<g id="edge90" class="edge">
<title>17&#45;&gt;16</title>
<path fill="none" stroke="grey" stroke-width="2" d="M2068.25,-962C2059.51,-962 2050.77,-962 2042.03,-962"/>
<polygon fill="grey" stroke="grey" stroke-width="2" points="2041.77,-958.5 2031.77,-962 2041.77,-965.5 2041.77,-958.5"/>
</g>
<!-- 18 -->
<g id="node25" class="node">
<title>18</title>
<path fill="none" stroke="#568ad8" stroke-width="2" d="M2188,-1052C2188,-1052 2080,-1052 2080,-1052 2074,-1052 2068,-1046 2068,-1040 2068,-1040 2068,-1028 2068,-1028 2068,-1022 2074,-1016 2080,-1016 2080,-1016 2188,-1016 2188,-1016 2194,-1016 2200,-1022 2200,-1028 2200,-1028 2200,-1040 2200,-1040 2200,-1046 2194,-1052 2188,-1052"/>
<text text-anchor="middle" x="2134" y="-1031.5" font-family="sans" font-size="10.00">warp_t2_to_corobl_crop</text>
</g>
<!-- 18&#45;&gt;17 -->
<g id="edge21" class="edge">
<title>18&#45;&gt;17</title>
<path fill="none" stroke="grey" stroke-width="2" d="M2125.1,-1015.7C2121,-1007.73 2116.05,-998.1 2111.51,-989.26"/>
<polygon fill="grey" stroke="grey" stroke-width="2" points="2114.48,-987.4 2106.8,-980.1 2108.26,-990.6 2114.48,-987.4"/>
</g>
<!-- 18&#45;&gt;16 -->
<g id="edge91" class="edge">
<title>18&#45;&gt;16</title>
<path fill="none" stroke="grey" stroke-width="2" d="M2092.26,-1015.85C2082.89,-1011.79 2073.05,-1007.37 2064,-1003 2052.6,-997.49 2040.43,-991.12 2029.32,-985.11"/>
<polygon fill="grey" stroke="grey" stroke-width="2" points="2030.73,-981.89 2020.28,-980.17 2027.38,-988.04 2030.73,-981.89"/>
</g>
<!-- 60 -->
<g id="node55" class="node">
<title>60</title>
<path fill="none" stroke="#569ad8" stroke-width="2" d="M2051,-836C2051,-836 1987,-836 1987,-836 1981,-836 1975,-830 1975,-824 1975,-824 1975,-812 1975,-812 1975,-806 1981,-800 1987,-800 1987,-800 2051,-800 2051,-800 2057,-800 2063,-806 2063,-812 2063,-812 2063,-824 2063,-824 2063,-830 2057,-836 2051,-836"/>
<text text-anchor="middle" x="2019" y="-815.5" font-family="sans" font-size="10.00">qc_nnunet_f3d</text>
</g>
<!-- 18&#45;&gt;60 -->
<g id="edge92" class="edge">
<title>18&#45;&gt;60</title>
<path fill="none" stroke="grey" stroke-width="2" d="M2138.3,-1015.68C2142.02,-997.3 2145.58,-967.69 2137,-944 2121.37,-900.84 2081.93,-864.42 2052.92,-842.22"/>
<polygon fill="grey" stroke="grey" stroke-width="2" points="2054.78,-839.24 2044.67,-836.07 2050.6,-844.85 2054.78,-839.24"/>
</g>
<!-- 19 -->
<g id="node26" class="node">
<title>19</title>
<path fill="none" stroke="#61d856" stroke-width="2" d="M2178,-1124C2178,-1124 2080,-1124 2080,-1124 2074,-1124 2068,-1118 2068,-1112 2068,-1112 2068,-1100 2068,-1100 2068,-1094 2074,-1088 2080,-1088 2080,-1088 2178,-1088 2178,-1088 2184,-1088 2190,-1094 2190,-1100 2190,-1100 2190,-1112 2190,-1112 2190,-1118 2184,-1124 2178,-1124"/>
<text text-anchor="middle" x="2129" y="-1103.5" font-family="sans" font-size="10.00">avg_aligned_or_cp_t2</text>
</g>
<!-- 19&#45;&gt;49 -->
<g id="edge93" class="edge">
<title>19&#45;&gt;49</title>
<path fill="none" stroke="grey" stroke-width="2" d="M2190.03,-1089.92C2193.06,-1089.25 2196.06,-1088.61 2199,-1088 2424.21,-1041.45 2776.89,-1159.28 2696,-944 2582.57,-642.11 2417.02,-619.58 2113,-512 2092.57,-504.77 2085.52,-508.42 2066,-499 2025.89,-479.64 2021.85,-465.01 1985,-440 1969.88,-429.74 1952.87,-418.89 1938.14,-409.69"/>
<polygon fill="grey" stroke="grey" stroke-width="2" points="1939.64,-406.51 1929.3,-404.21 1935.95,-412.45 1939.64,-406.51"/>
</g>
<!-- 19&#45;&gt;18 -->
<g id="edge22" class="edge">
<title>19&#45;&gt;18</title>
<path fill="none" stroke="grey" stroke-width="2" d="M2130.24,-1087.7C2130.79,-1079.98 2131.45,-1070.71 2132.06,-1062.11"/>
<polygon fill="grey" stroke="grey" stroke-width="2" points="2135.56,-1062.33 2132.78,-1052.1 2128.57,-1061.83 2135.56,-1062.33"/>
</g>
<!-- 24 -->
<g id="node27" class="node">
<title>24</title>
<path fill="none" stroke="#d86e56" stroke-width="2" d="M2318,-1052C2318,-1052 2230,-1052 2230,-1052 2224,-1052 2218,-1046 2218,-1040 2218,-1040 2218,-1028 2218,-1028 2218,-1022 2224,-1016 2230,-1016 2230,-1016 2318,-1016 2318,-1016 2324,-1016 2330,-1022 2330,-1028 2330,-1028 2330,-1040 2330,-1040 2330,-1046 2324,-1052 2318,-1052"/>
<text text-anchor="middle" x="2274" y="-1031.5" font-family="sans" font-size="10.00">reg_t2_to_template</text>
</g>
<!-- 19&#45;&gt;24 -->
<g id="edge23" class="edge">
<title>19&#45;&gt;24</title>
<path fill="none" stroke="grey" stroke-width="2" d="M2164.47,-1087.88C2184.12,-1078.39 2208.72,-1066.51 2229.63,-1056.42"/>
<polygon fill="grey" stroke="grey" stroke-width="2" points="2231.16,-1059.57 2238.64,-1052.07 2228.12,-1053.26 2231.16,-1059.57"/>
</g>
<!-- 53 -->
<g id="node61" class="node">
<title>53</title>
<path fill="none" stroke="#d88556" stroke-width="2" d="M2410,-404C2410,-404 2294,-404 2294,-404 2288,-404 2282,-398 2282,-392 2282,-392 2282,-380 2282,-380 2282,-374 2288,-368 2294,-368 2294,-368 2410,-368 2410,-368 2416,-368 2422,-374 2422,-380 2422,-380 2422,-392 2422,-392 2422,-398 2416,-404 2410,-404"/>
<text text-anchor="middle" x="2352" y="-383.5" font-family="sans" font-size="10.00">resample_native_to_crop</text>
</g>
<!-- 19&#45;&gt;53 -->
<g id="edge94" class="edge">
<title>19&#45;&gt;53</title>
<path fill="none" stroke="grey" stroke-width="2" d="M2190.34,-1089.47C2193.26,-1088.93 2196.16,-1088.44 2199,-1088 2257.89,-1078.94 2693.31,-1095.52 2734,-1052 2908.62,-865.23 2555.11,-639.14 2454,-512 2426.28,-477.14 2393.64,-437.35 2372.89,-412.21"/>
<polygon fill="grey" stroke="grey" stroke-width="2" points="2375.4,-409.76 2366.33,-404.28 2370,-414.22 2375.4,-409.76"/>
</g>
<!-- 24&#45;&gt;23 -->
<g id="edge102" class="edge">
<title>24&#45;&gt;23</title>
<path fill="none" stroke="grey" stroke-width="2" d="M2311.71,-1015.89C2320.96,-1011.69 2330.84,-1007.19 2340,-1003 2353.14,-996.99 2367.38,-990.45 2380.47,-984.44"/>
<polygon fill="grey" stroke="grey" stroke-width="2" points="2382.14,-987.52 2389.76,-980.16 2379.21,-981.16 2382.14,-987.52"/>
</g>
<!-- 24&#45;&gt;54 -->
<g id="edge103" class="edge">
<title>24&#45;&gt;54</title>
<path fill="none" stroke="grey" stroke-width="2" d="M2330.16,-1032.72C2431.23,-1031.61 2635.29,-1026.47 2657,-1003 2674.8,-983.75 2668.4,-967.61 2657,-944 2589.88,-804.99 2243.8,-593.99 2113,-512 2101.72,-504.93 2094.38,-509.35 2086,-499 2048.81,-453.11 2041.66,-381.04 2040.7,-342.11"/>
<polygon fill="grey" stroke="grey" stroke-width="2" points="2044.2,-342.02 2040.57,-332.06 2037.2,-342.11 2044.2,-342.02"/>
</g>
<!-- 20 -->
<g id="node28" class="node">
<title>20</title>
<path fill="none" stroke="#56d8d0" stroke-width="2" d="M2144,-1196C2144,-1196 2114,-1196 2114,-1196 2108,-1196 2102,-1190 2102,-1184 2102,-1184 2102,-1172 2102,-1172 2102,-1166 2108,-1160 2114,-1160 2114,-1160 2144,-1160 2144,-1160 2150,-1160 2156,-1166 2156,-1172 2156,-1172 2156,-1184 2156,-1184 2156,-1190 2150,-1196 2144,-1196"/>
<text text-anchor="middle" x="2129" y="-1175.5" font-family="sans" font-size="10.00">n4_t2</text>
</g>
<!-- 20&#45;&gt;19 -->
<g id="edge24" class="edge">
<title>20&#45;&gt;19</title>
<path fill="none" stroke="grey" stroke-width="2" d="M2129,-1159.7C2129,-1151.98 2129,-1142.71 2129,-1134.11"/>
<polygon fill="grey" stroke="grey" stroke-width="2" points="2132.5,-1134.1 2129,-1124.1 2125.5,-1134.1 2132.5,-1134.1"/>
</g>
<!-- 21 -->
<g id="node29" class="node">
<title>21</title>
<path fill="none" stroke="#d85e56" stroke-width="2" d="M2149,-1268C2149,-1268 2109,-1268 2109,-1268 2103,-1268 2097,-1262 2097,-1256 2097,-1256 2097,-1244 2097,-1244 2097,-1238 2103,-1232 2109,-1232 2109,-1232 2149,-1232 2149,-1232 2155,-1232 2161,-1238 2161,-1244 2161,-1244 2161,-1256 2161,-1256 2161,-1262 2155,-1268 2149,-1268"/>
<text text-anchor="middle" x="2129" y="-1247.5" font-family="sans" font-size="10.00">import_t2</text>
</g>
<!-- 21&#45;&gt;20 -->
<g id="edge25" class="edge">
<title>21&#45;&gt;20</title>
<path fill="none" stroke="grey" stroke-width="2" d="M2129,-1231.7C2129,-1223.98 2129,-1214.71 2129,-1206.11"/>
<polygon fill="grey" stroke="grey" stroke-width="2" points="2132.5,-1206.1 2129,-1196.1 2125.5,-1206.1 2132.5,-1206.1"/>
</g>
<!-- 22&#45;&gt;34 -->
<g id="edge95" class="edge">
<title>22&#45;&gt;34</title>
<path fill="none" stroke="grey" stroke-width="2" d="M2333.6,-1087.94C2363.18,-1078.52 2399.53,-1065.92 2431,-1052 2472.3,-1033.74 2480.55,-1024.97 2520,-1003 2530.32,-997.25 2541.47,-990.99 2551.8,-985.17"/>
<polygon fill="grey" stroke="grey" stroke-width="2" points="2553.64,-988.16 2560.63,-980.19 2550.2,-982.06 2553.64,-988.16"/>
</g>
<!-- 22&#45;&gt;51 -->
<g id="edge99" class="edge">
<title>22&#45;&gt;51</title>
<path fill="none" stroke="grey" stroke-width="2" d="M2306.3,-1087.8C2318.88,-1078.9 2332.12,-1066.77 2339,-1052 2345.75,-1037.49 2347.61,-1029.49 2339,-1016 2331.62,-1004.43 2319.96,-1013.39 2311,-1003 2277.12,-963.69 2278,-942.89 2278,-891 2278,-891 2278,-891 2278,-673 2278,-657.68 1202.24,-513.56 1187,-512 1086.03,-501.69 1058.08,-521.02 959,-499 940.06,-494.79 920.04,-487.42 902.93,-480.14"/>
<polygon fill="grey" stroke="grey" stroke-width="2" points="904.31,-476.93 893.75,-476.13 901.51,-483.34 904.31,-476.93"/>
</g>
<!-- 22&#45;&gt;52 -->
<g id="edge100" class="edge">
<title>22&#45;&gt;52</title>
<path fill="none" stroke="grey" stroke-width="2" d="M2329.22,-1087.96C2345.89,-1079.84 2362.42,-1068.23 2372,-1052 2380.13,-1038.22 2380.93,-1029.27 2372,-1016 2363.43,-1003.27 2349.87,-1014.76 2340,-1003 2307.28,-964 2316,-941.91 2316,-891 2316,-891 2316,-891 2316,-673 2316,-632.03 2324.24,-609.28 2292,-584 2266.9,-564.32 1748.06,-581.68 1718,-571 1677.71,-556.68 1682.25,-526.43 1642,-512 1593.87,-494.75 1232.21,-508.66 1182,-499 1161,-494.96 1138.69,-487.4 1119.76,-479.93"/>
<polygon fill="grey" stroke="grey" stroke-width="2" points="1121.06,-476.68 1110.48,-476.17 1118.43,-483.17 1121.06,-476.68"/>
</g>
<!-- 22&#45;&gt;49 -->
<g id="edge97" class="edge">
<title>22&#45;&gt;49</title>
<path fill="none" stroke="grey" stroke-width="2" d="M2344.12,-1105.8C2461.74,-1105.85 2696.5,-1099.76 2761,-1052 2825.69,-1004.1 2796.39,-951.01 2781,-872 2774.44,-838.3 2774.73,-826.59 2753,-800 2631.29,-651.07 2553.06,-663.67 2378,-584 2304.8,-550.69 2289.73,-532.63 2212,-512 2161,-498.46 2141.16,-522.66 2094,-499 2061.96,-482.92 2068.72,-460.05 2039,-440 2018.9,-426.43 1994.83,-415.66 1972.47,-407.47"/>
<polygon fill="grey" stroke="grey" stroke-width="2" points="1973.6,-404.16 1963,-404.12 1971.26,-410.75 1973.6,-404.16"/>
</g>
<!-- 22&#45;&gt;18 -->
<g id="edge26" class="edge">
<title>22&#45;&gt;18</title>
<path fill="none" stroke="grey" stroke-width="2" d="M2241.26,-1087.88C2222.18,-1078.47 2198.32,-1066.71 2177.95,-1056.67"/>
<polygon fill="grey" stroke="grey" stroke-width="2" points="2179.39,-1053.47 2168.87,-1052.19 2176.29,-1059.75 2179.39,-1053.47"/>
</g>
<!-- 22&#45;&gt;44 -->
<g id="edge96" class="edge">
<title>22&#45;&gt;44</title>
<path fill="none" stroke="grey" stroke-width="2" d="M2344.15,-1103.24C2481.1,-1098.99 2779.28,-1085.92 2810,-1052 2863.7,-992.7 2824.3,-950.53 2809,-872 2788.36,-766.06 2766.42,-739.48 2698,-656 2667.26,-618.49 2652.82,-615.57 2616,-584 2578.16,-551.55 2573.29,-536.71 2530,-512 2442.46,-462.03 2331.48,-426.74 2257.56,-406.68"/>
<polygon fill="grey" stroke="grey" stroke-width="2" points="2258.4,-403.28 2247.83,-404.06 2256.58,-410.04 2258.4,-403.28"/>
</g>
<!-- 22&#45;&gt;50 -->
<g id="edge98" class="edge">
<title>22&#45;&gt;50</title>
<path fill="none" stroke="grey" stroke-width="2" d="M2344.26,-1102.9C2485.25,-1097.95 2798.56,-1083.49 2835,-1052 3048.24,-867.76 2660.33,-506.86 2549.39,-410.9"/>
<polygon fill="grey" stroke="grey" stroke-width="2" points="2551.46,-408.07 2541.59,-404.2 2546.89,-413.38 2551.46,-408.07"/>
</g>
<!-- 1 -->
<g id="node31" class="node">
<title>1</title>
<path fill="none" stroke="#566bd8" stroke-width="2" d="M461,-44C461,-44 377,-44 377,-44 371,-44 365,-38 365,-32 365,-32 365,-20 365,-20 365,-14 371,-8 377,-8 377,-8 461,-8 461,-8 467,-8 473,-14 473,-20 473,-20 473,-32 473,-32 473,-38 467,-44 461,-44"/>
<text text-anchor="middle" x="419" y="-23.5" font-family="sans" font-size="10.00">merge_lr_spec_file</text>
</g>
<!-- 1&#45;&gt;0 -->
<g id="edge68" class="edge">
<title>1&#45;&gt;0</title>
<path fill="none" stroke="grey" stroke-width="2" d="M473.16,-31.67C729,-53.73 1813.01,-147.19 2028.62,-165.78"/>
<polygon fill="grey" stroke="grey" stroke-width="2" points="2028.52,-169.28 2038.79,-166.65 2029.13,-162.31 2028.52,-169.28"/>
</g>
<!-- 2 -->
<g id="node32" class="node">
<title>2</title>
<path fill="none" stroke="#d8a456" stroke-width="2" d="M468,-116C468,-116 370,-116 370,-116 364,-116 358,-110 358,-104 358,-104 358,-92 358,-92 358,-86 364,-80 370,-80 370,-80 468,-80 468,-80 474,-80 480,-86 480,-92 480,-92 480,-104 480,-104 480,-110 474,-116 468,-116"/>
<text text-anchor="middle" x="419" y="-95.5" font-family="sans" font-size="10.00">create_spec_file_hipp</text>
</g>
<!-- 2&#45;&gt;1 -->
<g id="edge27" class="edge">
<title>2&#45;&gt;1</title>
<path fill="none" stroke="grey" stroke-width="2" d="M419,-79.7C419,-71.98 419,-62.71 419,-54.11"/>
<polygon fill="grey" stroke="grey" stroke-width="2" points="422.5,-54.1 419,-44.1 415.5,-54.1 422.5,-54.1"/>
</g>
<!-- 3 -->
<g id="node33" class="node">
<title>3</title>
<path fill="none" stroke="#d8d356" stroke-width="2" d="M377.5,-260C377.5,-260 280.5,-260 280.5,-260 274.5,-260 268.5,-254 268.5,-248 268.5,-248 268.5,-236 268.5,-236 268.5,-230 274.5,-224 280.5,-224 280.5,-224 377.5,-224 377.5,-224 383.5,-224 389.5,-230 389.5,-236 389.5,-236 389.5,-248 389.5,-248 389.5,-254 383.5,-260 377.5,-260"/>
<text text-anchor="middle" x="329" y="-239.5" font-family="sans" font-size="10.00">calculate_gyrification</text>
</g>
<!-- 3&#45;&gt;2 -->
<g id="edge28" class="edge">
<title>3&#45;&gt;2</title>
<path fill="none" stroke="grey" stroke-width="2" d="M368.47,-223.97C383.62,-215.4 399.53,-203.49 409,-188 420.26,-169.59 422.25,-144.99 421.71,-126.32"/>
<polygon fill="grey" stroke="grey" stroke-width="2" points="425.19,-125.9 421.15,-116.1 418.2,-126.28 425.19,-125.9"/>
</g>
<!-- 40 -->
<g id="node34" class="node">
<title>40</title>
<path fill="none" stroke="#56d882" stroke-width="2" d="M388,-188C388,-188 264,-188 264,-188 258,-188 252,-182 252,-176 252,-176 252,-164 252,-164 252,-158 258,-152 264,-152 264,-152 388,-152 388,-152 394,-152 400,-158 400,-164 400,-164 400,-176 400,-176 400,-182 394,-188 388,-188"/>
<text text-anchor="middle" x="326" y="-167.5" font-family="sans" font-size="10.00">create_dscalar_metric_cifti</text>
</g>
<!-- 3&#45;&gt;40 -->
<g id="edge29" class="edge">
<title>3&#45;&gt;40</title>
<path fill="none" stroke="grey" stroke-width="2" d="M328.26,-223.7C327.93,-215.98 327.53,-206.71 327.16,-198.11"/>
<polygon fill="grey" stroke="grey" stroke-width="2" points="330.66,-197.95 326.73,-188.1 323.66,-198.25 330.66,-197.95"/>
</g>
<!-- 41 -->
<g id="node35" class="node">
<title>41</title>
<path fill="none" stroke="#56d8c1" stroke-width="2" d="M238,-116C238,-116 124,-116 124,-116 118,-116 112,-110 112,-104 112,-104 112,-92 112,-92 112,-86 118,-80 124,-80 124,-80 238,-80 238,-80 244,-80 250,-86 250,-92 250,-92 250,-104 250,-104 250,-110 244,-116 238,-116"/>
<text text-anchor="middle" x="181" y="-95.5" font-family="sans" font-size="10.00">create_spec_file_dentate</text>
</g>
<!-- 3&#45;&gt;41 -->
<g id="edge30" class="edge">
<title>3&#45;&gt;41</title>
<path fill="none" stroke="grey" stroke-width="2" d="M294.08,-223.79C277.49,-214.59 258.04,-202.22 243,-188 223.48,-169.55 206.46,-144.02 195.22,-125.04"/>
<polygon fill="grey" stroke="grey" stroke-width="2" points="198.21,-123.21 190.18,-116.3 192.15,-126.71 198.21,-123.21"/>
</g>
<!-- 40&#45;&gt;2 -->
<g id="edge51" class="edge">
<title>40&#45;&gt;2</title>
<path fill="none" stroke="grey" stroke-width="2" d="M348.99,-151.7C360.81,-142.8 375.39,-131.82 388.18,-122.2"/>
<polygon fill="grey" stroke="grey" stroke-width="2" points="390.39,-124.91 396.28,-116.1 386.18,-119.32 390.39,-124.91"/>
</g>
<!-- 40&#45;&gt;41 -->
<g id="edge52" class="edge">
<title>40&#45;&gt;41</title>
<path fill="none" stroke="grey" stroke-width="2" d="M290.53,-151.88C270.88,-142.39 246.28,-130.51 225.37,-120.42"/>
<polygon fill="grey" stroke="grey" stroke-width="2" points="226.88,-117.26 216.36,-116.07 223.84,-123.57 226.88,-117.26"/>
</g>
<!-- 41&#45;&gt;1 -->
<g id="edge53" class="edge">
<title>41&#45;&gt;1</title>
<path fill="none" stroke="grey" stroke-width="2" d="M238.92,-79.97C274.01,-69.65 318.82,-56.47 354.96,-45.83"/>
<polygon fill="grey" stroke="grey" stroke-width="2" points="356.3,-49.09 364.91,-42.91 354.33,-42.37 356.3,-49.09"/>
</g>
<!-- 4 -->
<g id="node36" class="node">
<title>4</title>
<path fill="none" stroke="#88d856" stroke-width="2" d="M481.5,-332C481.5,-332 376.5,-332 376.5,-332 370.5,-332 364.5,-326 364.5,-320 364.5,-320 364.5,-308 364.5,-308 364.5,-302 370.5,-296 376.5,-296 376.5,-296 481.5,-296 481.5,-296 487.5,-296 493.5,-302 493.5,-308 493.5,-308 493.5,-320 493.5,-320 493.5,-326 487.5,-332 481.5,-332"/>
<text text-anchor="middle" x="429" y="-311.5" font-family="sans" font-size="10.00">calculate_surface_area</text>
</g>
<!-- 4&#45;&gt;3 -->
<g id="edge31" class="edge">
<title>4&#45;&gt;3</title>
<path fill="none" stroke="grey" stroke-width="2" d="M404.54,-295.88C391.7,-286.89 375.8,-275.76 361.91,-266.03"/>
<polygon fill="grey" stroke="grey" stroke-width="2" points="363.76,-263.06 353.56,-260.19 359.74,-268.79 363.76,-263.06"/>
</g>
<!-- 5&#45;&gt;56 -->
<g id="edge69" class="edge">
<title>5&#45;&gt;56</title>
<path fill="none" stroke="grey" stroke-width="2" d="M631.69,-382.15C847.6,-370.89 1639.76,-329.57 1861.17,-318.02"/>
<polygon fill="grey" stroke="grey" stroke-width="2" points="1861.47,-321.51 1871.28,-317.49 1861.11,-314.52 1861.47,-321.51"/>
</g>
<!-- 5&#45;&gt;2 -->
<g id="edge32" class="edge">
<title>5&#45;&gt;2</title>
<path fill="none" stroke="grey" stroke-width="2" d="M585.59,-367.89C599.69,-337.18 623.84,-271.5 599,-224 572.88,-174.06 516.72,-140.06 474.03,-120.28"/>
<polygon fill="grey" stroke="grey" stroke-width="2" points="475.42,-117.07 464.87,-116.15 472.55,-123.45 475.42,-117.07"/>
</g>
<!-- 5&#45;&gt;41 -->
<g id="edge36" class="edge">
<title>5&#45;&gt;41</title>
<path fill="none" stroke="grey" stroke-width="2" d="M522.18,-383.76C411.2,-380.9 167.54,-372.68 134,-355 74.65,-323.72 33.7,-286.14 59,-224 76.59,-180.8 117.08,-144.39 146.61,-122.2"/>
<polygon fill="grey" stroke="grey" stroke-width="2" points="149,-124.79 155,-116.05 144.87,-119.14 149,-124.79"/>
</g>
<!-- 5&#45;&gt;4 -->
<g id="edge33" class="edge">
<title>5&#45;&gt;4</title>
<path fill="none" stroke="grey" stroke-width="2" d="M540.8,-367.88C520.74,-358.39 495.63,-346.51 474.29,-336.42"/>
<polygon fill="grey" stroke="grey" stroke-width="2" points="475.62,-333.18 465.09,-332.07 472.63,-339.51 475.62,-333.18"/>
</g>
<!-- 36 -->
<g id="node38" class="node">
<title>36</title>
<path fill="none" stroke="#68d856" stroke-width="2" d="M226.5,-332C226.5,-332 155.5,-332 155.5,-332 149.5,-332 143.5,-326 143.5,-320 143.5,-320 143.5,-308 143.5,-308 143.5,-302 149.5,-296 155.5,-296 155.5,-296 226.5,-296 226.5,-296 232.5,-296 238.5,-302 238.5,-308 238.5,-308 238.5,-320 238.5,-320 238.5,-326 232.5,-332 226.5,-332"/>
<text text-anchor="middle" x="191" y="-311.5" font-family="sans" font-size="10.00">smooth_surface</text>
</g>
<!-- 5&#45;&gt;36 -->
<g id="edge34" class="edge">
<title>5&#45;&gt;36</title>
<path fill="none" stroke="grey" stroke-width="2" d="M522.46,-379.25C477.36,-374.1 411.75,-365.72 355,-355 319.4,-348.27 279.94,-338.71 248.65,-330.63"/>
<polygon fill="grey" stroke="grey" stroke-width="2" points="249.35,-327.2 238.79,-328.06 247.59,-333.97 249.35,-327.2"/>
</g>
<!-- 37 -->
<g id="node39" class="node">
<title>37</title>
<path fill="none" stroke="#567bd8" stroke-width="2" d="M578,-260C578,-260 420,-260 420,-260 414,-260 408,-254 408,-248 408,-248 408,-236 408,-236 408,-230 414,-224 420,-224 420,-224 578,-224 578,-224 584,-224 590,-230 590,-236 590,-236 590,-248 590,-248 590,-254 584,-260 578,-260"/>
<text text-anchor="middle" x="499" y="-239.5" font-family="sans" font-size="10.00">calculate_thickness_from_surface</text>
</g>
<!-- 5&#45;&gt;37 -->
<g id="edge35" class="edge">
<title>5&#45;&gt;37</title>
<path fill="none" stroke="grey" stroke-width="2" d="M567.59,-367.87C554.12,-343.35 529.23,-298.03 513.42,-269.26"/>
<polygon fill="grey" stroke="grey" stroke-width="2" points="516.32,-267.27 508.44,-260.19 510.19,-270.64 516.32,-267.27"/>
</g>
<!-- 35 -->
<g id="node44" class="node">
<title>35</title>
<path fill="none" stroke="#5692d8" stroke-width="2" d="M238,-260C238,-260 80,-260 80,-260 74,-260 68,-254 68,-248 68,-248 68,-236 68,-236 68,-230 74,-224 80,-224 80,-224 238,-224 238,-224 244,-224 250,-230 250,-236 250,-236 250,-248 250,-248 250,-254 244,-260 238,-260"/>
<text text-anchor="middle" x="159" y="-239.5" font-family="sans" font-size="10.00">calculate_curvature_from_surface</text>
</g>
<!-- 36&#45;&gt;35 -->
<g id="edge46" class="edge">
<title>36&#45;&gt;35</title>
<path fill="none" stroke="grey" stroke-width="2" d="M183.09,-295.7C179.45,-287.73 175.05,-278.1 171.01,-269.26"/>
<polygon fill="grey" stroke="grey" stroke-width="2" points="174.16,-267.74 166.82,-260.1 167.79,-270.65 174.16,-267.74"/>
</g>
<!-- 37&#45;&gt;2 -->
<g id="edge47" class="edge">
<title>37&#45;&gt;2</title>
<path fill="none" stroke="grey" stroke-width="2" d="M489.35,-223.87C475.54,-199.35 450,-154.03 433.79,-125.26"/>
<polygon fill="grey" stroke="grey" stroke-width="2" points="436.64,-123.18 428.68,-116.19 430.54,-126.62 436.64,-123.18"/>
</g>
<!-- 37&#45;&gt;40 -->
<g id="edge48" class="edge">
<title>37&#45;&gt;40</title>
<path fill="none" stroke="grey" stroke-width="2" d="M456.68,-223.88C432.82,-214.22 402.83,-202.09 377.6,-191.88"/>
<polygon fill="grey" stroke="grey" stroke-width="2" points="378.77,-188.57 368.18,-188.07 376.14,-195.06 378.77,-188.57"/>
</g>
<!-- 6 -->
<g id="node40" class="node">
<title>6</title>
<path fill="none" stroke="#d8bc56" stroke-width="2" d="M697,-476C697,-476 603,-476 603,-476 597,-476 591,-470 591,-464 591,-464 591,-452 591,-452 591,-446 597,-440 603,-440 603,-440 697,-440 697,-440 703,-440 709,-446 709,-452 709,-452 709,-464 709,-464 709,-470 703,-476 697,-476"/>
<text text-anchor="middle" x="650" y="-455.5" font-family="sans" font-size="10.00">correct_nan_vertices</text>
</g>
<!-- 6&#45;&gt;5 -->
<g id="edge37" class="edge">
<title>6&#45;&gt;5</title>
<path fill="none" stroke="grey" stroke-width="2" d="M631.96,-439.7C622.94,-431.05 611.88,-420.45 602.06,-411.03"/>
<polygon fill="grey" stroke="grey" stroke-width="2" points="604.48,-408.5 594.84,-404.1 599.63,-413.55 604.48,-408.5"/>
</g>
<!-- 7&#45;&gt;6 -->
<g id="edge38" class="edge">
<title>7&#45;&gt;6</title>
<path fill="none" stroke="grey" stroke-width="2" d="M689.15,-511.7C682.97,-503.39 675.46,-493.28 668.68,-484.14"/>
<polygon fill="grey" stroke="grey" stroke-width="2" points="671.48,-482.04 662.71,-476.1 665.86,-486.22 671.48,-482.04"/>
</g>
<!-- 32&#45;&gt;7 -->
<g id="edge39" class="edge">
<title>32&#45;&gt;7</title>
<path fill="none" stroke="grey" stroke-width="2" d="M702,-583.7C702,-575.98 702,-566.71 702,-558.11"/>
<polygon fill="grey" stroke="grey" stroke-width="2" points="705.5,-558.1 702,-548.1 698.5,-558.1 705.5,-558.1"/>
</g>
<!-- 33 -->
<g id="node43" class="node">
<title>33</title>
<path fill="none" stroke="#56d8c9" stroke-width="2" d="M124,-692C124,-692 20,-692 20,-692 14,-692 8,-686 8,-680 8,-680 8,-668 8,-668 8,-662 14,-656 20,-656 20,-656 124,-656 124,-656 130,-656 136,-662 136,-668 136,-668 136,-680 136,-680 136,-686 130,-692 124,-692"/>
<text text-anchor="middle" x="72" y="-671.5" font-family="sans" font-size="10.00">cp_template_to_unfold</text>
</g>
<!-- 33&#45;&gt;2 -->
<g id="edge40" class="edge">
<title>33&#45;&gt;2</title>
<path fill="none" stroke="grey" stroke-width="2" d="M67.35,-655.66C60.62,-629.05 49,-576.45 49,-531 49,-531 49,-531 49,-241 49,-177.68 240.27,-132.01 347.77,-111.34"/>
<polygon fill="grey" stroke="grey" stroke-width="2" points="348.73,-114.72 357.9,-109.41 347.42,-107.84 348.73,-114.72"/>
</g>
<!-- 33&#45;&gt;41 -->
<g id="edge42" class="edge">
<title>33&#45;&gt;41</title>
<path fill="none" stroke="grey" stroke-width="2" d="M58.64,-655.72C40.15,-630.03 9,-579.55 9,-531 9,-531 9,-531 9,-241 9,-181.16 71.68,-141.82 121.36,-120.04"/>
<polygon fill="grey" stroke="grey" stroke-width="2" points="122.95,-123.17 130.79,-116.04 120.22,-116.72 122.95,-123.17"/>
</g>
<!-- 33&#45;&gt;32 -->
<g id="edge41" class="edge">
<title>33&#45;&gt;32</title>
<path fill="none" stroke="grey" stroke-width="2" d="M136.17,-665.87C253.3,-652.86 501.22,-625.31 626.36,-611.4"/>
<polygon fill="grey" stroke="grey" stroke-width="2" points="627.06,-614.85 636.61,-610.27 626.29,-607.89 627.06,-614.85"/>
</g>
<!-- 35&#45;&gt;2 -->
<g id="edge43" class="edge">
<title>35&#45;&gt;2</title>
<path fill="none" stroke="grey" stroke-width="2" d="M170.93,-223.69C185.63,-203.61 212.45,-170.87 243,-152 274.87,-132.31 314.53,-119.53 348.13,-111.47"/>
<polygon fill="grey" stroke="grey" stroke-width="2" points="348.93,-114.87 357.89,-109.22 347.36,-108.05 348.93,-114.87"/>
</g>
<!-- 35&#45;&gt;40 -->
<g id="edge44" class="edge">
<title>35&#45;&gt;40</title>
<path fill="none" stroke="grey" stroke-width="2" d="M199.85,-223.88C222.78,-214.26 251.58,-202.19 275.87,-192.01"/>
<polygon fill="grey" stroke="grey" stroke-width="2" points="277.41,-195.16 285.28,-188.07 274.7,-188.71 277.41,-195.16"/>
</g>
<!-- 35&#45;&gt;41 -->
<g id="edge45" class="edge">
<title>35&#45;&gt;41</title>
<path fill="none" stroke="grey" stroke-width="2" d="M161.65,-223.87C165.4,-199.67 172.29,-155.21 176.76,-126.39"/>
<polygon fill="grey" stroke="grey" stroke-width="2" points="180.26,-126.61 178.34,-116.19 173.35,-125.54 180.26,-126.61"/>
</g>
<!-- 38 -->
<g id="node45" class="node">
<title>38</title>
<path fill="none" stroke="#56d87b" stroke-width="2" d="M718,-188C718,-188 652,-188 652,-188 646,-188 640,-182 640,-176 640,-176 640,-164 640,-164 640,-158 646,-152 652,-152 652,-152 718,-152 718,-152 724,-152 730,-158 730,-164 730,-164 730,-176 730,-176 730,-182 724,-188 718,-188"/>
<text text-anchor="middle" x="685" y="-167.5" font-family="sans" font-size="10.00">nii_to_label_gii</text>
</g>
<!-- 38&#45;&gt;2 -->
<g id="edge49" class="edge">
<title>38&#45;&gt;2</title>
<path fill="none" stroke="grey" stroke-width="2" d="M639.88,-157.13C598.92,-146.35 537.83,-130.27 490.27,-117.76"/>
<polygon fill="grey" stroke="grey" stroke-width="2" points="490.9,-114.3 480.34,-115.14 489.12,-121.07 490.9,-114.3"/>
</g>
<!-- 39&#45;&gt;47 -->
<g id="edge113" class="edge">
<title>39&#45;&gt;47</title>
<path fill="none" stroke="grey" stroke-width="2" d="M768.1,-242.66C978.76,-242.22 1596.22,-245.31 1670,-296 1751.5,-351.98 1685.52,-435.13 1761,-499 1764.51,-501.97 1768.27,-504.64 1772.22,-507.06"/>
<polygon fill="grey" stroke="grey" stroke-width="2" points="1770.7,-510.22 1781.15,-511.94 1774.06,-504.07 1770.7,-510.22"/>
</g>
<!-- 39&#45;&gt;38 -->
<g id="edge50" class="edge">
<title>39&#45;&gt;38</title>
<path fill="none" stroke="grey" stroke-width="2" d="M694.79,-223.7C693.35,-215.98 691.63,-206.71 690.04,-198.11"/>
<polygon fill="grey" stroke="grey" stroke-width="2" points="693.44,-197.3 688.18,-188.1 686.56,-198.58 693.44,-197.3"/>
</g>
<!-- 13 -->
<g id="node47" class="node">
<title>13</title>
<path fill="none" stroke="#56d8a2" stroke-width="2" d="M1879.5,-836C1879.5,-836 1774.5,-836 1774.5,-836 1768.5,-836 1762.5,-830 1762.5,-824 1762.5,-824 1762.5,-812 1762.5,-812 1762.5,-806 1768.5,-800 1774.5,-800 1774.5,-800 1879.5,-800 1879.5,-800 1885.5,-800 1891.5,-806 1891.5,-812 1891.5,-812 1891.5,-824 1891.5,-824 1891.5,-830 1885.5,-836 1879.5,-836"/>
<text text-anchor="middle" x="1827" y="-815.5" font-family="sans" font-size="10.00">reinsert_subject_labels</text>
</g>
<!-- 13&#45;&gt;12 -->
<g id="edge83" class="edge">
<title>13&#45;&gt;12</title>
<path fill="none" stroke="grey" stroke-width="2" d="M1762.25,-813.38C1663.21,-807.59 1482.53,-796.01 1454,-787 1441.32,-783 1428.49,-776.28 1417.43,-769.48"/>
<polygon fill="grey" stroke="grey" stroke-width="2" points="1419.29,-766.52 1408.98,-764.06 1415.51,-772.41 1419.29,-766.52"/>
</g>
<!-- 13&#45;&gt;30 -->
<g id="edge84" class="edge">
<title>13&#45;&gt;30</title>
<path fill="none" stroke="grey" stroke-width="2" d="M1762.29,-814.35C1717.49,-811.04 1656.98,-803.63 1606,-787 1592.61,-782.63 1578.81,-775.88 1566.81,-769.16"/>
<polygon fill="grey" stroke="grey" stroke-width="2" points="1568.42,-766.05 1558.02,-764.07 1564.91,-772.11 1568.42,-766.05"/>
</g>
<!-- 13&#45;&gt;45 -->
<g id="edge85" class="edge">
<title>13&#45;&gt;45</title>
<path fill="none" stroke="grey" stroke-width="2" d="M1891.61,-807.1C1908.63,-804.64 1926.99,-802.1 1944,-800 2048.03,-787.17 2118.09,-809.23 2164,-715 2208.58,-623.5 2149.16,-557.26 2058,-512 2030.44,-498.32 2019.74,-506.89 1990,-499 1969.41,-493.54 1947.2,-486.3 1927.72,-479.49"/>
<polygon fill="grey" stroke="grey" stroke-width="2" points="1928.7,-476.12 1918.11,-476.08 1926.36,-482.72 1928.7,-476.12"/>
</g>
<!-- 46 -->
<g id="node48" class="node">
<title>46</title>
<path fill="none" stroke="#56d863" stroke-width="2" d="M1869.5,-764C1869.5,-764 1802.5,-764 1802.5,-764 1796.5,-764 1790.5,-758 1790.5,-752 1790.5,-752 1790.5,-740 1790.5,-740 1790.5,-734 1796.5,-728 1802.5,-728 1802.5,-728 1869.5,-728 1869.5,-728 1875.5,-728 1881.5,-734 1881.5,-740 1881.5,-740 1881.5,-752 1881.5,-752 1881.5,-758 1875.5,-764 1869.5,-764"/>
<text text-anchor="middle" x="1836" y="-743.5" font-family="sans" font-size="10.00">unflip_postproc</text>
</g>
<!-- 13&#45;&gt;46 -->
<g id="edge54" class="edge">
<title>13&#45;&gt;46</title>
<path fill="none" stroke="grey" stroke-width="2" d="M1829.22,-799.7C1830.22,-791.98 1831.41,-782.71 1832.51,-774.11"/>
<polygon fill="grey" stroke="grey" stroke-width="2" points="1836,-774.47 1833.8,-764.1 1829.05,-773.58 1836,-774.47"/>
</g>
<!-- 46&#45;&gt;45 -->
<g id="edge122" class="edge">
<title>46&#45;&gt;45</title>
<path fill="none" stroke="grey" stroke-width="2" d="M1881.6,-736.89C1900.81,-733.72 1923.44,-730.3 1944,-728 1965.69,-725.58 2125.09,-730.94 2140,-715 2225.66,-623.47 2025.44,-522.68 1925.52,-479.97"/>
<polygon fill="grey" stroke="grey" stroke-width="2" points="1926.75,-476.69 1916.17,-476.02 1924.02,-483.14 1926.75,-476.69"/>
</g>
<!-- 14 -->
<g id="node49" class="node">
<title>14</title>
<path fill="none" stroke="#56d8d8" stroke-width="2" d="M1880,-908C1880,-908 1776,-908 1776,-908 1770,-908 1764,-902 1764,-896 1764,-896 1764,-884 1764,-884 1764,-878 1770,-872 1776,-872 1776,-872 1880,-872 1880,-872 1886,-872 1892,-878 1892,-884 1892,-884 1892,-896 1892,-896 1892,-902 1886,-908 1880,-908"/>
<text text-anchor="middle" x="1828" y="-887.5" font-family="sans" font-size="10.00">template_shape_inject</text>
</g>
<!-- 14&#45;&gt;13 -->
<g id="edge55" class="edge">
<title>14&#45;&gt;13</title>
<path fill="none" stroke="grey" stroke-width="2" d="M1827.75,-871.7C1827.64,-863.98 1827.51,-854.71 1827.39,-846.11"/>
<polygon fill="grey" stroke="grey" stroke-width="2" points="1830.89,-846.05 1827.24,-836.1 1823.89,-846.15 1830.89,-846.05"/>
</g>
<!-- 15 -->
<g id="node50" class="node">
<title>15</title>
<path fill="none" stroke="#70d856" stroke-width="2" d="M1841.5,-1124C1841.5,-1124 1732.5,-1124 1732.5,-1124 1726.5,-1124 1720.5,-1118 1720.5,-1112 1720.5,-1112 1720.5,-1100 1720.5,-1100 1720.5,-1094 1726.5,-1088 1732.5,-1088 1732.5,-1088 1841.5,-1088 1841.5,-1088 1847.5,-1088 1853.5,-1094 1853.5,-1100 1853.5,-1100 1853.5,-1112 1853.5,-1112 1853.5,-1118 1847.5,-1124 1841.5,-1124"/>
<text text-anchor="middle" x="1787" y="-1103.5" font-family="sans" font-size="10.00">import_template_shape</text>
</g>
<!-- 15&#45;&gt;14 -->
<g id="edge56" class="edge">
<title>15&#45;&gt;14</title>
<path fill="none" stroke="grey" stroke-width="2" d="M1775.11,-1087.72C1768.99,-1077.76 1762.16,-1064.73 1759,-1052 1755.15,-1036.47 1755.01,-1031.49 1759,-1016 1768.64,-978.59 1792.12,-940.4 1809.01,-916.24"/>
<polygon fill="grey" stroke="grey" stroke-width="2" points="1811.93,-918.18 1814.9,-908.01 1806.24,-914.11 1811.93,-918.18"/>
</g>
<!-- 26 -->
<g id="node51" class="node">
<title>26</title>
<path fill="none" stroke="#56c1d8" stroke-width="2" d="M1880,-1052C1880,-1052 1780,-1052 1780,-1052 1774,-1052 1768,-1046 1768,-1040 1768,-1040 1768,-1028 1768,-1028 1768,-1022 1774,-1016 1780,-1016 1780,-1016 1880,-1016 1880,-1016 1886,-1016 1892,-1022 1892,-1028 1892,-1028 1892,-1040 1892,-1040 1892,-1046 1886,-1052 1880,-1052"/>
<text text-anchor="middle" x="1830" y="-1031.5" font-family="sans" font-size="10.00">prep_segs_for_greedy</text>
</g>
<!-- 15&#45;&gt;26 -->
<g id="edge57" class="edge">
<title>15&#45;&gt;26</title>
<path fill="none" stroke="grey" stroke-width="2" d="M1797.63,-1087.7C1802.63,-1079.56 1808.69,-1069.69 1814.21,-1060.7"/>
<polygon fill="grey" stroke="grey" stroke-width="2" points="1817.24,-1062.46 1819.49,-1052.1 1811.28,-1058.79 1817.24,-1062.46"/>
</g>
<!-- 25 -->
<g id="node52" class="node">
<title>25</title>
<path fill="none" stroke="#d87d56" stroke-width="2" d="M1719,-980C1719,-980 1627,-980 1627,-980 1621,-980 1615,-974 1615,-968 1615,-968 1615,-956 1615,-956 1615,-950 1621,-944 1627,-944 1627,-944 1719,-944 1719,-944 1725,-944 1731,-950 1731,-956 1731,-956 1731,-968 1731,-968 1731,-974 1725,-980 1719,-980"/>
<text text-anchor="middle" x="1673" y="-959.5" font-family="sans" font-size="10.00">template_shape_reg</text>
</g>
<!-- 26&#45;&gt;25 -->
<g id="edge60" class="edge">
<title>26&#45;&gt;25</title>
<path fill="none" stroke="grey" stroke-width="2" d="M1791.59,-1015.88C1770.13,-1006.31 1743.2,-994.3 1720.43,-984.15"/>
<polygon fill="grey" stroke="grey" stroke-width="2" points="1721.84,-980.94 1711.28,-980.07 1718.99,-987.34 1721.84,-980.94"/>
</g>
<!-- 25&#45;&gt;14 -->
<g id="edge58" class="edge">
<title>25&#45;&gt;14</title>
<path fill="none" stroke="grey" stroke-width="2" d="M1710.92,-943.88C1732.01,-934.35 1758.46,-922.41 1780.87,-912.28"/>
<polygon fill="grey" stroke="grey" stroke-width="2" points="1782.53,-915.37 1790.21,-908.07 1779.65,-908.99 1782.53,-915.37"/>
</g>
<!-- 27 -->
<g id="node53" class="node">
<title>27</title>
<path fill="none" stroke="#566bd8" stroke-width="2" d="M1733.5,-908C1733.5,-908 1614.5,-908 1614.5,-908 1608.5,-908 1602.5,-902 1602.5,-896 1602.5,-896 1602.5,-884 1602.5,-884 1602.5,-878 1608.5,-872 1614.5,-872 1614.5,-872 1733.5,-872 1733.5,-872 1739.5,-872 1745.5,-878 1745.5,-884 1745.5,-884 1745.5,-896 1745.5,-896 1745.5,-902 1739.5,-908 1733.5,-908"/>
<text text-anchor="middle" x="1674" y="-887.5" font-family="sans" font-size="10.00">inject_init_laplace_coords</text>
</g>
<!-- 25&#45;&gt;27 -->
<g id="edge59" class="edge">
<title>25&#45;&gt;27</title>
<path fill="none" stroke="grey" stroke-width="2" d="M1673.25,-943.7C1673.36,-935.98 1673.49,-926.71 1673.61,-918.11"/>
<polygon fill="grey" stroke="grey" stroke-width="2" points="1677.11,-918.15 1673.76,-908.1 1670.11,-918.05 1677.11,-918.15"/>
</g>
<!-- 27&#45;&gt;12 -->
<g id="edge104" class="edge">
<title>27&#45;&gt;12</title>
<path fill="none" stroke="grey" stroke-width="2" d="M1634.09,-871.9C1589.58,-852.51 1515.71,-819.36 1454,-787 1443.59,-781.54 1432.51,-775.24 1422.39,-769.29"/>
<polygon fill="grey" stroke="grey" stroke-width="2" points="1424.16,-766.27 1413.77,-764.17 1420.58,-772.28 1424.16,-766.27"/>
</g>
<!-- 27&#45;&gt;43 -->
<g id="edge105" class="edge">
<title>27&#45;&gt;43</title>
<path fill="none" stroke="grey" stroke-width="2" d="M1602.33,-873.48C1529.46,-856.54 1414.05,-826.47 1319,-787 1306.63,-781.86 1293.61,-775.34 1281.95,-769.07"/>
<polygon fill="grey" stroke="grey" stroke-width="2" points="1283.38,-765.86 1272.93,-764.11 1280.01,-771.99 1283.38,-765.86"/>
</g>
<!-- 16&#45;&gt;13 -->
<g id="edge86" class="edge">
<title>16&#45;&gt;13</title>
<path fill="none" stroke="grey" stroke-width="2" d="M1974.37,-943.76C1957.17,-925.19 1928.33,-895.18 1901,-872 1888.66,-861.54 1874.36,-850.96 1861.63,-842.05"/>
<polygon fill="grey" stroke="grey" stroke-width="2" points="1863.34,-838.97 1853.12,-836.16 1859.35,-844.72 1863.34,-838.97"/>
</g>
<!-- 16&#45;&gt;14 -->
<g id="edge87" class="edge">
<title>16&#45;&gt;14</title>
<path fill="none" stroke="grey" stroke-width="2" d="M1950.37,-943.88C1928.22,-934.31 1900.44,-922.3 1876.94,-912.15"/>
<polygon fill="grey" stroke="grey" stroke-width="2" points="1878.07,-908.82 1867.5,-908.07 1875.29,-915.25 1878.07,-908.82"/>
</g>
<!-- 16&#45;&gt;26 -->
<g id="edge88" class="edge">
<title>16&#45;&gt;26</title>
<path fill="none" stroke="grey" stroke-width="2" d="M1950.99,-980.07C1929.14,-989.63 1901.69,-1001.63 1878.47,-1011.79"/>
<polygon fill="grey" stroke="grey" stroke-width="2" points="1876.9,-1008.66 1869.14,-1015.88 1879.7,-1015.07 1876.9,-1008.66"/>
</g>
<!-- 16&#45;&gt;27 -->
<g id="edge89" class="edge">
<title>16&#45;&gt;27</title>
<path fill="none" stroke="grey" stroke-width="2" d="M1948.36,-951.78C1899.55,-940.96 1817.47,-922.78 1755.78,-909.12"/>
<polygon fill="grey" stroke="grey" stroke-width="2" points="1756.2,-905.62 1745.68,-906.88 1754.69,-912.46 1756.2,-905.62"/>
</g>
<!-- 16&#45;&gt;60 -->
<g id="edge61" class="edge">
<title>16&#45;&gt;60</title>
<path fill="none" stroke="grey" stroke-width="2" d="M1976.36,-943.92C1963.6,-925.75 1948.04,-896.31 1959,-872 1964.18,-860.52 1973.21,-850.52 1982.72,-842.4"/>
<polygon fill="grey" stroke="grey" stroke-width="2" points="1985.09,-844.99 1990.74,-836.03 1980.73,-839.51 1985.09,-844.99"/>
</g>
<!-- 61 -->
<g id="node56" class="node">
<title>61</title>
<path fill="none" stroke="#568ad8" stroke-width="2" d="M2056,-908C2056,-908 1980,-908 1980,-908 1974,-908 1968,-902 1968,-896 1968,-896 1968,-884 1968,-884 1968,-878 1974,-872 1980,-872 1980,-872 2056,-872 2056,-872 2062,-872 2068,-878 2068,-884 2068,-884 2068,-896 2068,-896 2068,-902 2062,-908 2056,-908"/>
<text text-anchor="middle" x="2018" y="-887.5" font-family="sans" font-size="10.00">unflip_nnunet_nii</text>
</g>
<!-- 16&#45;&gt;61 -->
<g id="edge62" class="edge">
<title>16&#45;&gt;61</title>
<path fill="none" stroke="grey" stroke-width="2" d="M1996.92,-943.7C2000.07,-935.81 2003.88,-926.3 2007.38,-917.55"/>
<polygon fill="grey" stroke="grey" stroke-width="2" points="2010.69,-918.69 2011.16,-908.1 2004.19,-916.09 2010.69,-918.69"/>
</g>
<!-- 59 -->
<g id="node57" class="node">
<title>59</title>
<path fill="none" stroke="#a7d856" stroke-width="2" d="M2054,-764C2054,-764 1986,-764 1986,-764 1980,-764 1974,-758 1974,-752 1974,-752 1974,-740 1974,-740 1974,-734 1980,-728 1986,-728 1986,-728 2054,-728 2054,-728 2060,-728 2066,-734 2066,-740 2066,-740 2066,-752 2066,-752 2066,-758 2060,-764 2054,-764"/>
<text text-anchor="middle" x="2020" y="-743.5" font-family="sans" font-size="10.00">qc_nnunet_dice</text>
</g>
<!-- 60&#45;&gt;59 -->
<g id="edge63" class="edge">
<title>60&#45;&gt;59</title>
<path fill="none" stroke="grey" stroke-width="2" d="M2019.25,-799.7C2019.36,-791.98 2019.49,-782.71 2019.61,-774.11"/>
<polygon fill="grey" stroke="grey" stroke-width="2" points="2023.11,-774.15 2019.76,-764.1 2016.11,-774.05 2023.11,-774.15"/>
</g>
<!-- 61&#45;&gt;60 -->
<g id="edge64" class="edge">
<title>61&#45;&gt;60</title>
<path fill="none" stroke="grey" stroke-width="2" d="M2018.25,-871.7C2018.36,-863.98 2018.49,-854.71 2018.61,-846.11"/>
<polygon fill="grey" stroke="grey" stroke-width="2" points="2022.11,-846.15 2018.76,-836.1 2015.11,-846.05 2022.11,-846.15"/>
</g>
<!-- 59&#45;&gt;0 -->
<g id="edge134" class="edge">
<title>59&#45;&gt;0</title>
<path fill="none" stroke="grey" stroke-width="2" d="M2066.08,-745.68C2214.12,-745.26 2668,-722.46 2668,-459 2668,-459 2668,-459 2668,-313 2668,-196.41 2234.87,-175.44 2103.39,-171.76"/>
<polygon fill="grey" stroke="grey" stroke-width="2" points="2103.12,-168.26 2093.04,-171.49 2102.94,-175.25 2103.12,-168.26"/>
</g>
<!-- 44&#45;&gt;55 -->
<g id="edge119" class="edge">
<title>44&#45;&gt;55</title>
<path fill="none" stroke="grey" stroke-width="2" d="M2227.05,-367.9C2235.63,-364.15 2244.27,-359.84 2252,-355 2259.14,-350.53 2266.19,-344.85 2272.5,-339.18"/>
<polygon fill="grey" stroke="grey" stroke-width="2" points="2275.14,-341.51 2280.02,-332.1 2270.34,-336.41 2275.14,-341.51"/>
</g>
<!-- 44&#45;&gt;58 -->
<g id="edge120" class="edge">
<title>44&#45;&gt;58</title>
<path fill="none" stroke="grey" stroke-width="2" d="M2177.49,-367.7C2177.71,-359.98 2177.98,-350.71 2178.23,-342.11"/>
<polygon fill="grey" stroke="grey" stroke-width="2" points="2181.72,-342.2 2178.51,-332.1 2174.73,-342 2181.72,-342.2"/>
</g>
<!-- 44&#45;&gt;0 -->
<g id="edge118" class="edge">
<title>44&#45;&gt;0</title>
<path fill="none" stroke="grey" stroke-width="2" d="M2263.84,-369.2C2300.64,-362.4 2335.33,-355.81 2336,-355 2373.16,-310.18 2372.99,-268.96 2336,-224 2306.97,-188.72 2170.6,-176.57 2103.49,-172.69"/>
<polygon fill="grey" stroke="grey" stroke-width="2" points="2103.52,-169.18 2093.34,-172.13 2103.14,-176.17 2103.52,-169.18"/>
</g>
<!-- 48&#45;&gt;52 -->
<g id="edge123" class="edge">
<title>48&#45;&gt;52</title>
<path fill="none" stroke="grey" stroke-width="2" d="M2146.78,-476.2C2130.13,-487.05 2107.34,-499.8 2085,-505.5 2000.11,-527.16 1434.38,-486.34 1187.67,-467.17"/>
<polygon fill="grey" stroke="grey" stroke-width="2" points="1187.84,-463.67 1177.6,-466.38 1187.3,-470.65 1187.84,-463.67"/>
</g>
<!-- 48&#45;&gt;44 -->
<g id="edge65" class="edge">
<title>48&#45;&gt;44</title>
<path fill="none" stroke="grey" stroke-width="2" d="M2173.24,-439.7C2173.79,-431.98 2174.45,-422.71 2175.06,-414.11"/>
<polygon fill="grey" stroke="grey" stroke-width="2" points="2178.56,-414.33 2175.78,-404.1 2171.57,-413.83 2178.56,-414.33"/>
</g>
<!-- 48&#45;&gt;50 -->
<g id="edge66" class="edge">
<title>48&#45;&gt;50</title>
<path fill="none" stroke="grey" stroke-width="2" d="M2236.25,-442.88C2240.9,-441.9 2245.52,-440.93 2250,-440 2309.87,-427.62 2377.35,-414.42 2429.99,-404.29"/>
<polygon fill="grey" stroke="grey" stroke-width="2" points="2430.82,-407.7 2439.98,-402.38 2429.5,-400.83 2430.82,-407.7"/>
</g>
<!-- 48&#45;&gt;53 -->
<g id="edge67" class="edge">
<title>48&#45;&gt;53</title>
<path fill="none" stroke="grey" stroke-width="2" d="M2216.03,-439.88C2240.97,-430.18 2272.34,-417.98 2298.66,-407.74"/>
<polygon fill="grey" stroke="grey" stroke-width="2" points="2300.06,-410.95 2308.11,-404.07 2297.52,-404.43 2300.06,-410.95"/>
</g>
<!-- 50&#45;&gt;0 -->
<g id="edge125" class="edge">
<title>50&#45;&gt;0</title>
<path fill="none" stroke="grey" stroke-width="2" d="M2511.77,-367.95C2492.56,-334.24 2444.76,-259.3 2382,-224 2334.75,-197.42 2176.26,-180.59 2103.32,-174.07"/>
<polygon fill="grey" stroke="grey" stroke-width="2" points="2103.47,-170.57 2093.2,-173.19 2102.86,-177.55 2103.47,-170.57"/>
</g>
<!-- 53&#45;&gt;55 -->
<g id="edge129" class="edge">
<title>53&#45;&gt;55</title>
<path fill="none" stroke="grey" stroke-width="2" d="M2338.16,-367.7C2331.51,-359.39 2323.42,-349.28 2316.11,-340.14"/>
<polygon fill="grey" stroke="grey" stroke-width="2" points="2318.66,-337.73 2309.68,-332.1 2313.2,-342.1 2318.66,-337.73"/>
</g>
<!-- 53&#45;&gt;0 -->
<g id="edge128" class="edge">
<title>53&#45;&gt;0</title>
<path fill="none" stroke="grey" stroke-width="2" d="M2359.66,-367.94C2372.92,-335.55 2395.49,-264.71 2360,-224 2326.93,-186.07 2175.09,-175.19 2103.52,-172.15"/>
<polygon fill="grey" stroke="grey" stroke-width="2" points="2103.29,-168.63 2093.16,-171.74 2103.01,-175.63 2103.29,-168.63"/>
</g>
</g>
</svg>
