<?xml version="1.0" encoding="UTF-8" standalone="no"?>
<!DOCTYPE svg PUBLIC "-//W3C//DTD SVG 1.1//EN"
 "http://www.w3.org/Graphics/SVG/1.1/DTD/svg11.dtd">
<!-- Generated by graphviz version 2.43.0 (0)
 -->
<!-- Pages: 1 -->
<svg width="172pt" height="412pt"
 viewBox="0.00 0.00 172.00 412.00" xmlns="http://www.w3.org/2000/svg" xmlns:xlink="http://www.w3.org/1999/xlink">
<g id="graph0" class="graph" transform="scale(1 1) rotate(0) translate(4 408)">
<polygon fill="white" stroke="transparent" points="-4,4 -4,-408 168,-408 168,4 -4,4"/>
<g id="clust1" class="cluster">
<title>cluster_0</title>
<polygon fill="white" stroke="blue" points="8,-8 8,-283 128,-283 128,-8 8,-8"/>
<text text-anchor="middle" x="68" y="-267.8" font-family="Times,serif" font-size="14.00">nnunet</text>
</g>
<!-- 16 -->
<g id="node1" class="node">
<title>16</title>
<path fill="none" stroke="#56b1d8" stroke-width="2" d="M93.5,-260C93.5,-260 34.5,-260 34.5,-260 28.5,-260 22.5,-254 22.5,-248 22.5,-248 22.5,-236 22.5,-236 22.5,-230 28.5,-224 34.5,-224 34.5,-224 93.5,-224 93.5,-224 99.5,-224 105.5,-230 105.5,-236 105.5,-236 105.5,-248 105.5,-248 105.5,-254 99.5,-260 93.5,-260"/>
<text text-anchor="middle" x="64" y="-239.5" font-family="sans" font-size="10.00">run_inference</text>
</g>
<!-- 60 -->
<g id="node2" class="node">
<title>60</title>
<path fill="none" stroke="#569ad8" stroke-width="2" d="M110,-116C110,-116 46,-116 46,-116 40,-116 34,-110 34,-104 34,-104 34,-92 34,-92 34,-86 40,-80 46,-80 46,-80 110,-80 110,-80 116,-80 122,-86 122,-92 122,-92 122,-104 122,-104 122,-110 116,-116 110,-116"/>
<text text-anchor="middle" x="78" y="-95.5" font-family="sans" font-size="10.00">qc_nnunet_f3d</text>
</g>
<!-- 16&#45;&gt;60 -->
<g id="edge1" class="edge">
<title>16&#45;&gt;60</title>
<path fill="none" stroke="grey" stroke-width="2" d="M43.62,-223.53C34.19,-214.09 23.99,-201.6 19,-188 13.48,-172.98 12.48,-166.61 19,-152 24.08,-140.6 32.96,-130.63 42.31,-122.51"/>
<polygon fill="grey" stroke="grey" stroke-width="2" points="44.63,-125.14 50.2,-116.13 40.22,-119.69 44.63,-125.14"/>
</g>
<!-- 61 -->
<g id="node3" class="node">
<title>61</title>
<path fill="none" stroke="#568ad8" stroke-width="2" d="M116,-188C116,-188 40,-188 40,-188 34,-188 28,-182 28,-176 28,-176 28,-164 28,-164 28,-158 34,-152 40,-152 40,-152 116,-152 116,-152 122,-152 128,-158 128,-164 128,-164 128,-176 128,-176 128,-182 122,-188 116,-188"/>
<text text-anchor="middle" x="78" y="-167.5" font-family="sans" font-size="10.00">unflip_nnunet_nii</text>
</g>
<!-- 16&#45;&gt;61 -->
<g id="edge2" class="edge">
<title>16&#45;&gt;61</title>
<path fill="none" stroke="grey" stroke-width="2" d="M67.46,-223.7C69,-215.98 70.86,-206.71 72.58,-198.11"/>
<polygon fill="grey" stroke="grey" stroke-width="2" points="76.05,-198.6 74.58,-188.1 69.19,-197.22 76.05,-198.6"/>
</g>
<!-- 59 -->
<g id="node4" class="node">
<title>59</title>
<path fill="none" stroke="#a7d856" stroke-width="2" d="M112,-44C112,-44 44,-44 44,-44 38,-44 32,-38 32,-32 32,-32 32,-20 32,-20 32,-14 38,-8 44,-8 44,-8 112,-8 112,-8 118,-8 124,-14 124,-20 124,-20 124,-32 124,-32 124,-38 118,-44 112,-44"/>
<text text-anchor="middle" x="78" y="-23.5" font-family="sans" font-size="10.00">qc_nnunet_dice</text>
</g>
<!-- 60&#45;&gt;59 -->
<g id="edge3" class="edge">
<title>60&#45;&gt;59</title>
<path fill="none" stroke="grey" stroke-width="2" d="M78,-79.7C78,-71.98 78,-62.71 78,-54.11"/>
<polygon fill="grey" stroke="grey" stroke-width="2" points="81.5,-54.1 78,-44.1 74.5,-54.1 81.5,-54.1"/>
</g>
<!-- 61&#45;&gt;60 -->
<g id="edge4" class="edge">
<title>61&#45;&gt;60</title>
<path fill="none" stroke="grey" stroke-width="2" d="M78,-151.7C78,-143.98 78,-134.71 78,-126.11"/>
<polygon fill="grey" stroke="grey" stroke-width="2" points="81.5,-126.1 78,-116.1 74.5,-126.1 81.5,-126.1"/>
</g>
<!-- 17 -->
<g id="node5" class="node">
<title>17</title>
<path fill="none" stroke="#56d88a" stroke-width="2" d="M115.5,-332C115.5,-332 80.5,-332 80.5,-332 74.5,-332 68.5,-326 68.5,-320 68.5,-320 68.5,-308 68.5,-308 68.5,-302 74.5,-296 80.5,-296 80.5,-296 115.5,-296 115.5,-296 121.5,-296 127.5,-302 127.5,-308 127.5,-308 127.5,-320 127.5,-320 127.5,-326 121.5,-332 115.5,-332"/>
<text text-anchor="middle" x="98" y="-311.5" font-family="sans" font-size="10.00">lr_flip_t2</text>
</g>
<!-- 17&#45;&gt;16 -->
<g id="edge5" class="edge">
<title>17&#45;&gt;16</title>
<path fill="none" stroke="grey" stroke-width="2" d="M89.6,-295.7C85.73,-287.73 81.05,-278.1 76.76,-269.26"/>
<polygon fill="grey" stroke="grey" stroke-width="2" points="79.83,-267.57 72.31,-260.1 73.53,-270.63 79.83,-267.57"/>
</g>
<!-- 18 -->
<g id="node6" class="node">
<title>18</title>
<path fill="none" stroke="#568ad8" stroke-width="2" d="M152,-404C152,-404 44,-404 44,-404 38,-404 32,-398 32,-392 32,-392 32,-380 32,-380 32,-374 38,-368 44,-368 44,-368 152,-368 152,-368 158,-368 164,-374 164,-380 164,-380 164,-392 164,-392 164,-398 158,-404 152,-404"/>
<text text-anchor="middle" x="98" y="-383.5" font-family="sans" font-size="10.00">warp_t2_to_corobl_crop</text>
</g>
<!-- 18&#45;&gt;16 -->
<g id="edge6" class="edge">
<title>18&#45;&gt;16</title>
<path fill="none" stroke="grey" stroke-width="2" d="M81.54,-367.92C73.35,-358.22 64.3,-345.37 60,-332 53.58,-312.03 55.09,-288.24 57.92,-270.28"/>
<polygon fill="grey" stroke="grey" stroke-width="2" points="61.41,-270.66 59.75,-260.2 54.52,-269.42 61.41,-270.66"/>
</g>
<!-- 18&#45;&gt;60 -->
<g id="edge8" class="edge">
<title>18&#45;&gt;60</title>
<path fill="none" stroke="grey" stroke-width="2" d="M114.89,-367.99C123.29,-358.31 132.58,-345.46 137,-332 161.95,-255.99 169.58,-225.06 137,-152 131.92,-140.6 123.04,-130.63 113.69,-122.51"/>
<polygon fill="grey" stroke="grey" stroke-width="2" points="115.78,-119.69 105.8,-116.13 111.37,-125.14 115.78,-119.69"/>
</g>
<!-- 18&#45;&gt;17 -->
<g id="edge7" class="edge">
<title>18&#45;&gt;17</title>
<path fill="none" stroke="grey" stroke-width="2" d="M98,-367.7C98,-359.98 98,-350.71 98,-342.11"/>
<polygon fill="grey" stroke="grey" stroke-width="2" points="101.5,-342.1 98,-332.1 94.5,-342.1 101.5,-342.1"/>
</g>
</g>
</svg>
