<?xml version="1.0" encoding="UTF-8" standalone="no"?>
<!DOCTYPE svg PUBLIC "-//W3C//DTD SVG 1.1//EN"
 "http://www.w3.org/Graphics/SVG/1.1/DTD/svg11.dtd">
<!-- Generated by graphviz version 2.43.0 (0)
 -->
<!-- Pages: 1 -->
<svg width="448pt" height="268pt"
 viewBox="0.00 0.00 448.00 268.00" xmlns="http://www.w3.org/2000/svg" xmlns:xlink="http://www.w3.org/1999/xlink">
<g id="graph0" class="graph" transform="scale(1 1) rotate(0) translate(4 264)">
<polygon fill="white" stroke="transparent" points="-4,4 -4,-264 444,-264 444,4 -4,4"/>
<g id="clust1" class="cluster">
<title>cluster_0</title>
<polygon fill="white" stroke="blue" points="8,-8 8,-211 432,-211 432,-8 8,-8"/>
<text text-anchor="middle" x="220" y="-195.8" font-family="Times,serif" font-size="14.00">autotop</text>
</g>
<!-- 11 -->
<g id="node1" class="node">
<title>11</title>
<path fill="none" stroke="#56d8b1" stroke-width="2" d="M323.5,-116C323.5,-116 266.5,-116 266.5,-116 260.5,-116 254.5,-110 254.5,-104 254.5,-104 254.5,-92 254.5,-92 254.5,-86 260.5,-80 266.5,-80 266.5,-80 323.5,-80 323.5,-80 329.5,-80 335.5,-86 335.5,-92 335.5,-92 335.5,-104 335.5,-104 335.5,-110 329.5,-116 323.5,-116"/>
<text text-anchor="middle" x="295" y="-95.5" font-family="sans" font-size="10.00">unflip_coords</text>
</g>
<!-- 12 -->
<g id="node2" class="node">
<title>12</title>
<path fill="none" stroke="#d86656" stroke-width="2" d="M270,-188C270,-188 178,-188 178,-188 172,-188 166,-182 166,-176 166,-176 166,-164 166,-164 166,-158 172,-152 178,-152 178,-152 270,-152 270,-152 276,-152 282,-158 282,-164 282,-164 282,-176 282,-176 282,-182 276,-188 270,-188"/>
<text text-anchor="middle" x="224" y="-167.5" font-family="sans" font-size="10.00">laplace_coords_hipp</text>
</g>
<!-- 12&#45;&gt;11 -->
<g id="edge1" class="edge">
<title>12&#45;&gt;11</title>
<path fill="none" stroke="grey" stroke-width="2" d="M241.55,-151.7C250.23,-143.14 260.86,-132.66 270.35,-123.3"/>
<polygon fill="grey" stroke="grey" stroke-width="2" points="272.99,-125.62 277.65,-116.1 268.07,-120.63 272.99,-125.62"/>
</g>
<!-- 28 -->
<g id="node3" class="node">
<title>28</title>
<path fill="none" stroke="#5682d8" stroke-width="2" d="M127,-44C127,-44 29,-44 29,-44 23,-44 17,-38 17,-32 17,-32 17,-20 17,-20 17,-14 23,-8 29,-8 29,-8 127,-8 127,-8 133,-8 139,-14 139,-20 139,-20 139,-32 139,-32 139,-38 133,-44 127,-44"/>
<text text-anchor="middle" x="78" y="-23.5" font-family="sans" font-size="10.00">unflip_coords_equivol</text>
</g>
<!-- 29 -->
<g id="node4" class="node">
<title>29</title>
<path fill="none" stroke="#68d856" stroke-width="2" d="M122,-116C122,-116 34,-116 34,-116 28,-116 22,-110 22,-104 22,-104 22,-92 22,-92 22,-86 28,-80 34,-80 34,-80 122,-80 122,-80 128,-80 134,-86 134,-92 134,-92 134,-104 134,-104 134,-110 128,-116 122,-116"/>
<text text-anchor="middle" x="78" y="-95.5" font-family="sans" font-size="10.00">equivolume_coords</text>
</g>
<!-- 29&#45;&gt;28 -->
<g id="edge2" class="edge">
<title>29&#45;&gt;28</title>
<path fill="none" stroke="grey" stroke-width="2" d="M78,-79.7C78,-71.98 78,-62.71 78,-54.11"/>
<polygon fill="grey" stroke="grey" stroke-width="2" points="81.5,-54.1 78,-44.1 74.5,-54.1 81.5,-54.1"/>
</g>
<!-- 30 -->
<g id="node5" class="node">
<title>30</title>
<path fill="none" stroke="#56a9d8" stroke-width="2" d="M135.5,-188C135.5,-188 20.5,-188 20.5,-188 14.5,-188 8.5,-182 8.5,-176 8.5,-176 8.5,-164 8.5,-164 8.5,-158 14.5,-152 20.5,-152 20.5,-152 135.5,-152 135.5,-152 141.5,-152 147.5,-158 147.5,-164 147.5,-164 147.5,-176 147.5,-176 147.5,-182 141.5,-188 135.5,-188"/>
<text text-anchor="middle" x="78" y="-167.5" font-family="sans" font-size="10.00">prep_equivolume_coords</text>
</g>
<!-- 30&#45;&gt;29 -->
<g id="edge3" class="edge">
<title>30&#45;&gt;29</title>
<path fill="none" stroke="grey" stroke-width="2" d="M78,-151.7C78,-143.98 78,-134.71 78,-126.11"/>
<polygon fill="grey" stroke="grey" stroke-width="2" points="81.5,-126.1 78,-116.1 74.5,-126.1 81.5,-126.1"/>
</g>
<!-- 43 -->
<g id="node6" class="node">
<title>43</title>
<path fill="none" stroke="#d8d356" stroke-width="2" d="M420,-188C420,-188 312,-188 312,-188 306,-188 300,-182 300,-176 300,-176 300,-164 300,-164 300,-158 306,-152 312,-152 312,-152 420,-152 420,-152 426,-152 432,-158 432,-164 432,-164 432,-176 432,-176 432,-182 426,-188 420,-188"/>
<text text-anchor="middle" x="366" y="-167.5" font-family="sans" font-size="10.00">laplace_coords_dentate</text>
</g>
<!-- 43&#45;&gt;11 -->
<g id="edge4" class="edge">
<title>43&#45;&gt;11</title>
<path fill="none" stroke="grey" stroke-width="2" d="M348.45,-151.7C339.77,-143.14 329.14,-132.66 319.65,-123.3"/>
<polygon fill="grey" stroke="grey" stroke-width="2" points="321.93,-120.63 312.35,-116.1 317.01,-125.62 321.93,-120.63"/>
</g>
<!-- 13 -->
<g id="node7" class="node">
<title>13</title>
<path fill="none" stroke="#56d8a2" stroke-width="2" d="M197.5,-260C197.5,-260 92.5,-260 92.5,-260 86.5,-260 80.5,-254 80.5,-248 80.5,-248 80.5,-236 80.5,-236 80.5,-230 86.5,-224 92.5,-224 92.5,-224 197.5,-224 197.5,-224 203.5,-224 209.5,-230 209.5,-236 209.5,-236 209.5,-248 209.5,-248 209.5,-254 203.5,-260 197.5,-260"/>
<text text-anchor="middle" x="145" y="-239.5" font-family="sans" font-size="10.00">reinsert_subject_labels</text>
</g>
<!-- 13&#45;&gt;12 -->
<g id="edge5" class="edge">
<title>13&#45;&gt;12</title>
<path fill="none" stroke="grey" stroke-width="2" d="M164.53,-223.7C174.38,-214.97 186.49,-204.24 197.2,-194.75"/>
<polygon fill="grey" stroke="grey" stroke-width="2" points="199.53,-197.36 204.7,-188.1 194.89,-192.12 199.53,-197.36"/>
</g>
<!-- 13&#45;&gt;30 -->
<g id="edge6" class="edge">
<title>13&#45;&gt;30</title>
<path fill="none" stroke="grey" stroke-width="2" d="M128.44,-223.7C120.32,-215.22 110.41,-204.86 101.53,-195.58"/>
<polygon fill="grey" stroke="grey" stroke-width="2" points="103.81,-192.91 94.37,-188.1 98.76,-197.75 103.81,-192.91"/>
</g>
<!-- 27 -->
<g id="node8" class="node">
<title>27</title>
<path fill="none" stroke="#566bd8" stroke-width="2" d="M391.5,-260C391.5,-260 272.5,-260 272.5,-260 266.5,-260 260.5,-254 260.5,-248 260.5,-248 260.5,-236 260.5,-236 260.5,-230 266.5,-224 272.5,-224 272.5,-224 391.5,-224 391.5,-224 397.5,-224 403.5,-230 403.5,-236 403.5,-236 403.5,-248 403.5,-248 403.5,-254 397.5,-260 391.5,-260"/>
<text text-anchor="middle" x="332" y="-239.5" font-family="sans" font-size="10.00">inject_init_laplace_coords</text>
</g>
<!-- 27&#45;&gt;12 -->
<g id="edge7" class="edge">
<title>27&#45;&gt;12</title>
<path fill="none" stroke="grey" stroke-width="2" d="M305.58,-223.88C291.59,-214.81 274.22,-203.55 259.11,-193.76"/>
<polygon fill="grey" stroke="grey" stroke-width="2" points="260.82,-190.69 250.52,-188.19 257.01,-196.57 260.82,-190.69"/>
</g>
<!-- 27&#45;&gt;43 -->
<g id="edge8" class="edge">
<title>27&#45;&gt;43</title>
<path fill="none" stroke="grey" stroke-width="2" d="M340.4,-223.7C344.27,-215.73 348.95,-206.1 353.24,-197.26"/>
<polygon fill="grey" stroke="grey" stroke-width="2" points="356.47,-198.63 357.69,-188.1 350.17,-195.57 356.47,-198.63"/>
</g>
</g>
</svg>
