<?xml version="1.0" encoding="UTF-8" standalone="no"?>
<!DOCTYPE svg PUBLIC "-//W3C//DTD SVG 1.1//EN"
 "http://www.w3.org/Graphics/SVG/1.1/DTD/svg11.dtd">
<!-- Generated by graphviz version 2.43.0 (0)
 -->
<!-- Pages: 1 -->
<svg width="611pt" height="412pt"
 viewBox="0.00 0.00 611.00 412.00" xmlns="http://www.w3.org/2000/svg" xmlns:xlink="http://www.w3.org/1999/xlink">
<g id="graph0" class="graph" transform="scale(1 1) rotate(0) translate(4 408)">
<polygon fill="white" stroke="transparent" points="-4,4 -4,-408 607,-408 607,4 -4,4"/>
<g id="clust1" class="cluster">
<title>cluster_0</title>
<polygon fill="white" stroke="blue" points="191.5,-8 191.5,-211 403.5,-211 403.5,-8 191.5,-8"/>
<text text-anchor="middle" x="297.5" y="-195.8" font-family="Times,serif" font-size="14.00">subfields</text>
</g>
<!-- 49 -->
<g id="node1" class="node">
<title>49</title>
<path fill="none" stroke="#c6d856" stroke-width="2" d="M385.5,-116C385.5,-116 203.5,-116 203.5,-116 197.5,-116 191.5,-110 191.5,-104 191.5,-104 191.5,-92 191.5,-92 191.5,-86 197.5,-80 203.5,-80 203.5,-80 385.5,-80 385.5,-80 391.5,-80 397.5,-86 397.5,-92 397.5,-92 397.5,-104 397.5,-104 397.5,-110 391.5,-116 385.5,-116"/>
<text text-anchor="middle" x="294.5" y="-95.5" font-family="sans" font-size="10.00">combine_tissue_subfield_labels_corobl</text>
</g>
<!-- 53 -->
<g id="node2" class="node">
<title>53</title>
<path fill="none" stroke="#56d8d0" stroke-width="2" d="M363.5,-44C363.5,-44 225.5,-44 225.5,-44 219.5,-44 213.5,-38 213.5,-32 213.5,-32 213.5,-20 213.5,-20 213.5,-14 219.5,-8 225.5,-8 225.5,-8 363.5,-8 363.5,-8 369.5,-8 375.5,-14 375.5,-20 375.5,-20 375.5,-32 375.5,-32 375.5,-38 369.5,-44 363.5,-44"/>
<text text-anchor="middle" x="294.5" y="-23.5" font-family="sans" font-size="10.00">resample_subfields_to_native</text>
</g>
<!-- 49&#45;&gt;53 -->
<g id="edge1" class="edge">
<title>49&#45;&gt;53</title>
<path fill="none" stroke="grey" stroke-width="2" d="M294.5,-79.7C294.5,-71.98 294.5,-62.71 294.5,-54.11"/>
<polygon fill="grey" stroke="grey" stroke-width="2" points="298,-54.1 294.5,-44.1 291,-54.1 298,-54.1"/>
</g>
<!-- 51 -->
<g id="node3" class="node">
<title>51</title>
<path fill="none" stroke="#5663d8" stroke-width="2" d="M391,-188C391,-188 204,-188 204,-188 198,-188 192,-182 192,-176 192,-176 192,-164 192,-164 192,-158 198,-152 204,-152 204,-152 391,-152 391,-152 397,-152 403,-158 403,-164 403,-164 403,-176 403,-176 403,-182 397,-188 391,-188"/>
<text text-anchor="middle" x="297.5" y="-167.5" font-family="sans" font-size="10.00">label_subfields_from_vol_coords_corobl</text>
</g>
<!-- 51&#45;&gt;49 -->
<g id="edge2" class="edge">
<title>51&#45;&gt;49</title>
<path fill="none" stroke="grey" stroke-width="2" d="M296.76,-151.7C296.43,-143.98 296.03,-134.71 295.66,-126.11"/>
<polygon fill="grey" stroke="grey" stroke-width="2" points="299.16,-125.95 295.23,-116.1 292.16,-126.25 299.16,-125.95"/>
</g>
<!-- 11 -->
<g id="node4" class="node">
<title>11</title>
<path fill="none" stroke="#d8c356" stroke-width="2" d="M591,-260C591,-260 534,-260 534,-260 528,-260 522,-254 522,-248 522,-248 522,-236 522,-236 522,-230 528,-224 534,-224 534,-224 591,-224 591,-224 597,-224 603,-230 603,-236 603,-236 603,-248 603,-248 603,-254 597,-260 591,-260"/>
<text text-anchor="middle" x="562.5" y="-239.5" font-family="sans" font-size="10.00">unflip_coords</text>
</g>
<!-- 11&#45;&gt;51 -->
<g id="edge3" class="edge">
<title>11&#45;&gt;51</title>
<path fill="none" stroke="grey" stroke-width="2" d="M521.72,-228.14C516.94,-226.7 512.12,-225.3 507.5,-224 465.28,-212.16 417.95,-200.1 378.92,-190.49"/>
<polygon fill="grey" stroke="grey" stroke-width="2" points="379.73,-187.09 369.19,-188.1 378.06,-193.89 379.73,-187.09"/>
</g>
<!-- 12 -->
<g id="node5" class="node">
<title>12</title>
<path fill="none" stroke="#56d87b" stroke-width="2" d="M539.5,-332C539.5,-332 447.5,-332 447.5,-332 441.5,-332 435.5,-326 435.5,-320 435.5,-320 435.5,-308 435.5,-308 435.5,-302 441.5,-296 447.5,-296 447.5,-296 539.5,-296 539.5,-296 545.5,-296 551.5,-302 551.5,-308 551.5,-308 551.5,-320 551.5,-320 551.5,-326 545.5,-332 539.5,-332"/>
<text text-anchor="middle" x="493.5" y="-311.5" font-family="sans" font-size="10.00">laplace_coords_hipp</text>
</g>
<!-- 12&#45;&gt;51 -->
<g id="edge5" class="edge">
<title>12&#45;&gt;51</title>
<path fill="none" stroke="grey" stroke-width="2" d="M494.68,-295.95C495.09,-276.13 492.6,-243.63 474.5,-224 458.06,-206.18 435.9,-194.26 412.83,-186.31"/>
<polygon fill="grey" stroke="grey" stroke-width="2" points="413.84,-182.96 403.25,-183.25 411.71,-189.63 413.84,-182.96"/>
</g>
<!-- 12&#45;&gt;11 -->
<g id="edge4" class="edge">
<title>12&#45;&gt;11</title>
<path fill="none" stroke="grey" stroke-width="2" d="M510.56,-295.7C519,-287.14 529.32,-276.66 538.54,-267.3"/>
<polygon fill="grey" stroke="grey" stroke-width="2" points="541.11,-269.68 545.64,-260.1 536.13,-264.77 541.11,-269.68"/>
</g>
<!-- 13 -->
<g id="node6" class="node">
<title>13</title>
<path fill="none" stroke="#d8b456" stroke-width="2" d="M172,-404C172,-404 67,-404 67,-404 61,-404 55,-398 55,-392 55,-392 55,-380 55,-380 55,-374 61,-368 67,-368 67,-368 172,-368 172,-368 178,-368 184,-374 184,-380 184,-380 184,-392 184,-392 184,-398 178,-404 172,-404"/>
<text text-anchor="middle" x="119.5" y="-383.5" font-family="sans" font-size="10.00">reinsert_subject_labels</text>
</g>
<!-- 13&#45;&gt;49 -->
<g id="edge7" class="edge">
<title>13&#45;&gt;49</title>
<path fill="none" stroke="grey" stroke-width="2" d="M118.47,-367.76C116.9,-324.23 119.35,-209.27 183.5,-152 198.29,-138.8 216.94,-128.2 234.72,-120.06"/>
<polygon fill="grey" stroke="grey" stroke-width="2" points="236.16,-123.25 243.91,-116.02 233.35,-116.84 236.16,-123.25"/>
</g>
<!-- 13&#45;&gt;12 -->
<g id="edge6" class="edge">
<title>13&#45;&gt;12</title>
<path fill="none" stroke="grey" stroke-width="2" d="M184.22,-372.89C251.67,-360.26 356.92,-340.56 425.55,-327.72"/>
<polygon fill="grey" stroke="grey" stroke-width="2" points="426.22,-331.15 435.4,-325.87 424.93,-324.27 426.22,-331.15"/>
</g>
<!-- 50 -->
<g id="node7" class="node">
<title>50</title>
<path fill="none" stroke="#afd856" stroke-width="2" d="M79,-188C79,-188 12,-188 12,-188 6,-188 0,-182 0,-176 0,-176 0,-164 0,-164 0,-158 6,-152 12,-152 12,-152 79,-152 79,-152 85,-152 91,-158 91,-164 91,-164 91,-176 91,-176 91,-182 85,-188 79,-188"/>
<text text-anchor="middle" x="45.5" y="-167.5" font-family="sans" font-size="10.00">unflip_postproc</text>
</g>
<!-- 13&#45;&gt;50 -->
<g id="edge8" class="edge">
<title>13&#45;&gt;50</title>
<path fill="none" stroke="grey" stroke-width="2" d="M113.57,-367.85C100.71,-330.68 70.2,-242.44 54.77,-197.82"/>
<polygon fill="grey" stroke="grey" stroke-width="2" points="58.03,-196.54 51.46,-188.23 51.42,-198.83 58.03,-196.54"/>
</g>
<!-- 50&#45;&gt;49 -->
<g id="edge15" class="edge">
<title>50&#45;&gt;49</title>
<path fill="none" stroke="grey" stroke-width="2" d="M91.03,-156.09C95.92,-154.7 100.81,-153.32 105.5,-152 144.63,-140.97 188.32,-128.71 223.84,-118.77"/>
<polygon fill="grey" stroke="grey" stroke-width="2" points="224.94,-122.09 233.63,-116.02 223.06,-115.35 224.94,-122.09"/>
</g>
<!-- 19 -->
<g id="node8" class="node">
<title>19</title>
<path fill="none" stroke="#d88556" stroke-width="2" d="M161.5,-116C161.5,-116 63.5,-116 63.5,-116 57.5,-116 51.5,-110 51.5,-104 51.5,-104 51.5,-92 51.5,-92 51.5,-86 57.5,-80 63.5,-80 63.5,-80 161.5,-80 161.5,-80 167.5,-80 173.5,-86 173.5,-92 173.5,-92 173.5,-104 173.5,-104 173.5,-110 167.5,-116 161.5,-116"/>
<text text-anchor="middle" x="112.5" y="-95.5" font-family="sans" font-size="10.00">avg_aligned_or_cp_t2</text>
</g>
<!-- 19&#45;&gt;53 -->
<g id="edge9" class="edge">
<title>19&#45;&gt;53</title>
<path fill="none" stroke="grey" stroke-width="2" d="M157.02,-79.88C182.23,-70.18 213.95,-57.98 240.57,-47.74"/>
<polygon fill="grey" stroke="grey" stroke-width="2" points="242.05,-50.92 250.12,-44.07 239.53,-44.39 242.05,-50.92"/>
</g>
<!-- 22 -->
<g id="node9" class="node">
<title>22</title>
<path fill="none" stroke="#56c9d8" stroke-width="2" d="M539.5,-116C539.5,-116 427.5,-116 427.5,-116 421.5,-116 415.5,-110 415.5,-104 415.5,-104 415.5,-92 415.5,-92 415.5,-86 421.5,-80 427.5,-80 427.5,-80 539.5,-80 539.5,-80 545.5,-80 551.5,-86 551.5,-92 551.5,-92 551.5,-104 551.5,-104 551.5,-110 545.5,-116 539.5,-116"/>
<text text-anchor="middle" x="483.5" y="-95.5" font-family="sans" font-size="10.00">compose_t2_xfm_corobl</text>
</g>
<!-- 22&#45;&gt;53 -->
<g id="edge10" class="edge">
<title>22&#45;&gt;53</title>
<path fill="none" stroke="grey" stroke-width="2" d="M437.27,-79.88C410.97,-70.14 377.86,-57.87 350.14,-47.61"/>
<polygon fill="grey" stroke="grey" stroke-width="2" points="351.18,-44.26 340.58,-44.07 348.75,-50.82 351.18,-44.26"/>
</g>
<!-- 32 -->
<g id="node10" class="node">
<title>32</title>
<path fill="none" stroke="#78d856" stroke-width="2" d="M257.5,-260C257.5,-260 159.5,-260 159.5,-260 153.5,-260 147.5,-254 147.5,-248 147.5,-248 147.5,-236 147.5,-236 147.5,-230 153.5,-224 159.5,-224 159.5,-224 257.5,-224 257.5,-224 263.5,-224 269.5,-230 269.5,-236 269.5,-236 269.5,-248 269.5,-248 269.5,-254 263.5,-260 257.5,-260"/>
<text text-anchor="middle" x="208.5" y="-239.5" font-family="sans" font-size="10.00">unflip_coords_equivol</text>
</g>
<!-- 32&#45;&gt;51 -->
<g id="edge11" class="edge">
<title>32&#45;&gt;51</title>
<path fill="none" stroke="grey" stroke-width="2" d="M230.5,-223.7C241.71,-214.88 255.5,-204.03 267.65,-194.47"/>
<polygon fill="grey" stroke="grey" stroke-width="2" points="270.06,-197.04 275.75,-188.1 265.73,-191.54 270.06,-197.04"/>
</g>
<!-- 33 -->
<g id="node11" class="node">
<title>33</title>
<path fill="none" stroke="#56d863" stroke-width="2" d="M296.5,-332C296.5,-332 208.5,-332 208.5,-332 202.5,-332 196.5,-326 196.5,-320 196.5,-320 196.5,-308 196.5,-308 196.5,-302 202.5,-296 208.5,-296 208.5,-296 296.5,-296 296.5,-296 302.5,-296 308.5,-302 308.5,-308 308.5,-308 308.5,-320 308.5,-320 308.5,-326 302.5,-332 296.5,-332"/>
<text text-anchor="middle" x="252.5" y="-311.5" font-family="sans" font-size="10.00">equivolume_coords</text>
</g>
<!-- 33&#45;&gt;51 -->
<g id="edge13" class="edge">
<title>33&#45;&gt;51</title>
<path fill="none" stroke="grey" stroke-width="2" d="M262.28,-295.8C267.71,-285.65 274.21,-272.4 278.5,-260 285.51,-239.75 290.42,-215.98 293.5,-198.1"/>
<polygon fill="grey" stroke="grey" stroke-width="2" points="296.98,-198.5 295.13,-188.07 290.07,-197.37 296.98,-198.5"/>
</g>
<!-- 33&#45;&gt;32 -->
<g id="edge12" class="edge">
<title>33&#45;&gt;32</title>
<path fill="none" stroke="grey" stroke-width="2" d="M241.62,-295.7C236.51,-287.56 230.3,-277.69 224.66,-268.7"/>
<polygon fill="grey" stroke="grey" stroke-width="2" points="227.54,-266.71 219.25,-260.1 221.61,-270.43 227.54,-266.71"/>
</g>
<!-- 43 -->
<g id="node12" class="node">
<title>43</title>
<path fill="none" stroke="#56d8d8" stroke-width="2" d="M453.5,-260C453.5,-260 337.5,-260 337.5,-260 331.5,-260 325.5,-254 325.5,-248 325.5,-248 325.5,-236 325.5,-236 325.5,-230 331.5,-224 337.5,-224 337.5,-224 453.5,-224 453.5,-224 459.5,-224 465.5,-230 465.5,-236 465.5,-236 465.5,-248 465.5,-248 465.5,-254 459.5,-260 453.5,-260"/>
<text text-anchor="middle" x="395.5" y="-239.5" font-family="sans" font-size="10.00">resample_atlas_to_refvol</text>
</g>
<!-- 43&#45;&gt;51 -->
<g id="edge14" class="edge">
<title>43&#45;&gt;51</title>
<path fill="none" stroke="grey" stroke-width="2" d="M371.53,-223.88C358.95,-214.89 343.37,-203.76 329.75,-194.03"/>
<polygon fill="grey" stroke="grey" stroke-width="2" points="331.74,-191.15 321.57,-188.19 327.67,-196.85 331.74,-191.15"/>
</g>
</g>
</svg>
