<?xml version="1.0" encoding="UTF-8" standalone="no"?>
<!DOCTYPE svg PUBLIC "-//W3C//DTD SVG 1.1//EN"
 "http://www.w3.org/Graphics/SVG/1.1/DTD/svg11.dtd">
<!-- Generated by graphviz version 2.43.0 (0)
 -->
<!-- Pages: 1 -->
<svg width="1058pt" height="731pt"
 viewBox="0.00 0.00 1057.84 731.00" xmlns="http://www.w3.org/2000/svg" xmlns:xlink="http://www.w3.org/1999/xlink">
<g id="graph0" class="graph" transform="scale(1 1) rotate(0) translate(4 727)">
<polygon fill="white" stroke="transparent" points="-4,4 -4,-727 1053.84,-727 1053.84,4 -4,4"/>
<g id="clust1" class="cluster">
<title>cluster_0</title>
<polygon fill="white" stroke="blue" points="8,-8 8,-715 768,-715 768,-8 8,-8"/>
<text text-anchor="middle" x="388" y="-699.8" font-family="Times,serif" font-size="14.00">gifti</text>
</g>
<!-- 1 -->
<g id="node1" class="node">
<title>1</title>
<path fill="none" stroke="#566bd8" stroke-width="2" d="M304,-44C304,-44 220,-44 220,-44 214,-44 208,-38 208,-32 208,-32 208,-20 208,-20 208,-14 214,-8 220,-8 220,-8 304,-8 304,-8 310,-8 316,-14 316,-20 316,-20 316,-32 316,-32 316,-38 310,-44 304,-44"/>
<text text-anchor="middle" x="262" y="-23.5" font-family="sans" font-size="10.00">merge_lr_spec_file</text>
</g>
<!-- 2 -->
<g id="node2" class="node">
<title>2</title>
<path fill="none" stroke="#ced856" stroke-width="2" d="M405,-116C405,-116 307,-116 307,-116 301,-116 295,-110 295,-104 295,-104 295,-92 295,-92 295,-86 301,-80 307,-80 307,-80 405,-80 405,-80 411,-80 417,-86 417,-92 417,-92 417,-104 417,-104 417,-110 411,-116 405,-116"/>
<text text-anchor="middle" x="356" y="-95.5" font-family="sans" font-size="10.00">create_spec_file_hipp</text>
</g>
<!-- 2&#45;&gt;1 -->
<g id="edge1" class="edge">
<title>2&#45;&gt;1</title>
<path fill="none" stroke="grey" stroke-width="2" d="M332.76,-79.7C320.81,-70.8 306.08,-59.82 293.15,-50.2"/>
<polygon fill="grey" stroke="grey" stroke-width="2" points="295.08,-47.27 284.97,-44.1 290.9,-52.88 295.08,-47.27"/>
</g>
<!-- 3 -->
<g id="node3" class="node">
<title>3</title>
<path fill="none" stroke="#d8a456" stroke-width="2" d="M377.5,-260C377.5,-260 280.5,-260 280.5,-260 274.5,-260 268.5,-254 268.5,-248 268.5,-248 268.5,-236 268.5,-236 268.5,-230 274.5,-224 280.5,-224 280.5,-224 377.5,-224 377.5,-224 383.5,-224 389.5,-230 389.5,-236 389.5,-236 389.5,-248 389.5,-248 389.5,-254 383.5,-260 377.5,-260"/>
<text text-anchor="middle" x="329" y="-239.5" font-family="sans" font-size="10.00">calculate_gyrification</text>
</g>
<!-- 3&#45;&gt;2 -->
<g id="edge2" class="edge">
<title>3&#45;&gt;2</title>
<path fill="none" stroke="grey" stroke-width="2" d="M349.82,-223.62C359.46,-214.2 369.89,-201.7 375,-188 382.6,-167.64 376.55,-143.47 369.32,-125.46"/>
<polygon fill="grey" stroke="grey" stroke-width="2" points="372.47,-123.92 365.27,-116.15 366.05,-126.72 372.47,-123.92"/>
</g>
<!-- 41 -->
<g id="node4" class="node">
<title>41</title>
<path fill="none" stroke="#56d8a2" stroke-width="2" d="M354,-188C354,-188 230,-188 230,-188 224,-188 218,-182 218,-176 218,-176 218,-164 218,-164 218,-158 224,-152 230,-152 230,-152 354,-152 354,-152 360,-152 366,-158 366,-164 366,-164 366,-176 366,-176 366,-182 360,-188 354,-188"/>
<text text-anchor="middle" x="292" y="-167.5" font-family="sans" font-size="10.00">create_dscalar_metric_cifti</text>
</g>
<!-- 3&#45;&gt;41 -->
<g id="edge3" class="edge">
<title>3&#45;&gt;41</title>
<path fill="none" stroke="grey" stroke-width="2" d="M319.85,-223.7C315.6,-215.64 310.44,-205.89 305.73,-196.98"/>
<polygon fill="grey" stroke="grey" stroke-width="2" points="308.81,-195.31 301.04,-188.1 302.62,-198.58 308.81,-195.31"/>
</g>
<!-- 42 -->
<g id="node5" class="node">
<title>42</title>
<path fill="none" stroke="#56b9d8" stroke-width="2" d="M226,-116C226,-116 112,-116 112,-116 106,-116 100,-110 100,-104 100,-104 100,-92 100,-92 100,-86 106,-80 112,-80 112,-80 226,-80 226,-80 232,-80 238,-86 238,-92 238,-92 238,-104 238,-104 238,-110 232,-116 226,-116"/>
<text text-anchor="middle" x="169" y="-95.5" font-family="sans" font-size="10.00">create_spec_file_dentate</text>
</g>
<!-- 3&#45;&gt;42 -->
<g id="edge4" class="edge">
<title>3&#45;&gt;42</title>
<path fill="none" stroke="grey" stroke-width="2" d="M268.24,-224.07C247.44,-215.88 225.32,-204.21 209,-188 191.89,-171 181.44,-145.37 175.53,-125.98"/>
<polygon fill="grey" stroke="grey" stroke-width="2" points="178.86,-124.88 172.77,-116.21 172.12,-126.78 178.86,-124.88"/>
</g>
<!-- 41&#45;&gt;2 -->
<g id="edge25" class="edge">
<title>41&#45;&gt;2</title>
<path fill="none" stroke="grey" stroke-width="2" d="M307.82,-151.7C315.57,-143.22 325.04,-132.86 333.52,-123.58"/>
<polygon fill="grey" stroke="grey" stroke-width="2" points="336.2,-125.85 340.36,-116.1 331.03,-121.12 336.2,-125.85"/>
</g>
<!-- 41&#45;&gt;42 -->
<g id="edge26" class="edge">
<title>41&#45;&gt;42</title>
<path fill="none" stroke="grey" stroke-width="2" d="M261.91,-151.88C245.68,-142.64 225.46,-131.13 208.03,-121.21"/>
<polygon fill="grey" stroke="grey" stroke-width="2" points="209.63,-118.09 199.2,-116.19 206.16,-124.18 209.63,-118.09"/>
</g>
<!-- 42&#45;&gt;1 -->
<g id="edge27" class="edge">
<title>42&#45;&gt;1</title>
<path fill="none" stroke="grey" stroke-width="2" d="M191.99,-79.7C203.81,-70.8 218.39,-59.82 231.18,-50.2"/>
<polygon fill="grey" stroke="grey" stroke-width="2" points="233.39,-52.91 239.28,-44.1 229.18,-47.32 233.39,-52.91"/>
</g>
<!-- 4 -->
<g id="node6" class="node">
<title>4</title>
<path fill="none" stroke="#56d89a" stroke-width="2" d="M436.5,-332C436.5,-332 331.5,-332 331.5,-332 325.5,-332 319.5,-326 319.5,-320 319.5,-320 319.5,-308 319.5,-308 319.5,-302 325.5,-296 331.5,-296 331.5,-296 436.5,-296 436.5,-296 442.5,-296 448.5,-302 448.5,-308 448.5,-308 448.5,-320 448.5,-320 448.5,-326 442.5,-332 436.5,-332"/>
<text text-anchor="middle" x="384" y="-311.5" font-family="sans" font-size="10.00">calculate_surface_area</text>
</g>
<!-- 4&#45;&gt;3 -->
<g id="edge5" class="edge">
<title>4&#45;&gt;3</title>
<path fill="none" stroke="grey" stroke-width="2" d="M370.4,-295.7C363.88,-287.39 355.93,-277.28 348.75,-268.14"/>
<polygon fill="grey" stroke="grey" stroke-width="2" points="351.37,-265.81 342.44,-260.1 345.87,-270.13 351.37,-265.81"/>
</g>
<!-- 5 -->
<g id="node7" class="node">
<title>5</title>
<path fill="none" stroke="#566bd8" stroke-width="2" d="M541.5,-404C541.5,-404 456.5,-404 456.5,-404 450.5,-404 444.5,-398 444.5,-392 444.5,-392 444.5,-380 444.5,-380 444.5,-374 450.5,-368 456.5,-368 456.5,-368 541.5,-368 541.5,-368 547.5,-368 553.5,-374 553.5,-380 553.5,-380 553.5,-392 553.5,-392 553.5,-398 547.5,-404 541.5,-404"/>
<text text-anchor="middle" x="499" y="-383.5" font-family="sans" font-size="10.00">warp_gii_to_native</text>
</g>
<!-- 5&#45;&gt;2 -->
<g id="edge6" class="edge">
<title>5&#45;&gt;2</title>
<path fill="none" stroke="grey" stroke-width="2" d="M523.55,-367.9C562.55,-338.55 631.13,-276.67 599,-224 561.8,-163.03 484.32,-130.54 426.8,-114.12"/>
<polygon fill="grey" stroke="grey" stroke-width="2" points="427.6,-110.71 417.03,-111.43 425.74,-117.46 427.6,-110.71"/>
</g>
<!-- 5&#45;&gt;42 -->
<g id="edge10" class="edge">
<title>5&#45;&gt;42</title>
<path fill="none" stroke="grey" stroke-width="2" d="M444.22,-381.09C356.38,-374.15 188.44,-357.91 135,-332 82.19,-306.39 38.28,-278.91 59,-224 74.72,-182.33 111.36,-145.54 138.05,-122.85"/>
<polygon fill="grey" stroke="grey" stroke-width="2" points="140.51,-125.36 145.97,-116.28 136.04,-119.97 140.51,-125.36"/>
</g>
<!-- 5&#45;&gt;4 -->
<g id="edge7" class="edge">
<title>5&#45;&gt;4</title>
<path fill="none" stroke="grey" stroke-width="2" d="M470.87,-367.88C455.83,-358.72 437.13,-347.34 420.94,-337.48"/>
<polygon fill="grey" stroke="grey" stroke-width="2" points="422.6,-334.4 412.24,-332.19 418.96,-340.38 422.6,-334.4"/>
</g>
<!-- 37 -->
<g id="node8" class="node">
<title>37</title>
<path fill="none" stroke="#56a9d8" stroke-width="2" d="M226.5,-332C226.5,-332 155.5,-332 155.5,-332 149.5,-332 143.5,-326 143.5,-320 143.5,-320 143.5,-308 143.5,-308 143.5,-302 149.5,-296 155.5,-296 155.5,-296 226.5,-296 226.5,-296 232.5,-296 238.5,-302 238.5,-308 238.5,-308 238.5,-320 238.5,-320 238.5,-326 232.5,-332 226.5,-332"/>
<text text-anchor="middle" x="191" y="-311.5" font-family="sans" font-size="10.00">smooth_surface</text>
</g>
<!-- 5&#45;&gt;37 -->
<g id="edge8" class="edge">
<title>5&#45;&gt;37</title>
<path fill="none" stroke="grey" stroke-width="2" d="M444.29,-372.57C389.17,-360.04 304.47,-340.79 248.41,-328.05"/>
<polygon fill="grey" stroke="grey" stroke-width="2" points="249.16,-324.63 238.63,-325.83 247.61,-331.45 249.16,-324.63"/>
</g>
<!-- 38 -->
<g id="node9" class="node">
<title>38</title>
<path fill="none" stroke="#bed856" stroke-width="2" d="M578,-260C578,-260 420,-260 420,-260 414,-260 408,-254 408,-248 408,-248 408,-236 408,-236 408,-230 414,-224 420,-224 420,-224 578,-224 578,-224 584,-224 590,-230 590,-236 590,-236 590,-248 590,-248 590,-254 584,-260 578,-260"/>
<text text-anchor="middle" x="499" y="-239.5" font-family="sans" font-size="10.00">calculate_thickness_from_surface</text>
</g>
<!-- 5&#45;&gt;38 -->
<g id="edge9" class="edge">
<title>5&#45;&gt;38</title>
<path fill="none" stroke="grey" stroke-width="2" d="M499,-367.87C499,-343.67 499,-299.21 499,-270.39"/>
<polygon fill="grey" stroke="grey" stroke-width="2" points="502.5,-270.19 499,-260.19 495.5,-270.19 502.5,-270.19"/>
</g>
<!-- 36 -->
<g id="node14" class="node">
<title>36</title>
<path fill="none" stroke="#d8d356" stroke-width="2" d="M238,-260C238,-260 80,-260 80,-260 74,-260 68,-254 68,-248 68,-248 68,-236 68,-236 68,-230 74,-224 80,-224 80,-224 238,-224 238,-224 244,-224 250,-230 250,-236 250,-236 250,-248 250,-248 250,-254 244,-260 238,-260"/>
<text text-anchor="middle" x="159" y="-239.5" font-family="sans" font-size="10.00">calculate_curvature_from_surface</text>
</g>
<!-- 37&#45;&gt;36 -->
<g id="edge20" class="edge">
<title>37&#45;&gt;36</title>
<path fill="none" stroke="grey" stroke-width="2" d="M183.09,-295.7C179.45,-287.73 175.05,-278.1 171.01,-269.26"/>
<polygon fill="grey" stroke="grey" stroke-width="2" points="174.16,-267.74 166.82,-260.1 167.79,-270.65 174.16,-267.74"/>
</g>
<!-- 38&#45;&gt;2 -->
<g id="edge21" class="edge">
<title>38&#45;&gt;2</title>
<path fill="none" stroke="grey" stroke-width="2" d="M481.75,-223.87C456.52,-198.82 409.43,-152.05 380.58,-123.41"/>
<polygon fill="grey" stroke="grey" stroke-width="2" points="382.87,-120.75 373.31,-116.19 377.94,-125.72 382.87,-120.75"/>
</g>
<!-- 38&#45;&gt;41 -->
<g id="edge22" class="edge">
<title>38&#45;&gt;41</title>
<path fill="none" stroke="grey" stroke-width="2" d="M448.63,-223.97C419.58,-214.14 382.87,-201.73 352.29,-191.39"/>
<polygon fill="grey" stroke="grey" stroke-width="2" points="353.19,-188 342.6,-188.11 350.95,-194.63 353.19,-188"/>
</g>
<!-- 6 -->
<g id="node10" class="node">
<title>6</title>
<path fill="none" stroke="#59d856" stroke-width="2" d="M641,-476C641,-476 547,-476 547,-476 541,-476 535,-470 535,-464 535,-464 535,-452 535,-452 535,-446 541,-440 547,-440 547,-440 641,-440 641,-440 647,-440 653,-446 653,-452 653,-452 653,-464 653,-464 653,-470 647,-476 641,-476"/>
<text text-anchor="middle" x="594" y="-455.5" font-family="sans" font-size="10.00">correct_nan_vertices</text>
</g>
<!-- 6&#45;&gt;5 -->
<g id="edge11" class="edge">
<title>6&#45;&gt;5</title>
<path fill="none" stroke="grey" stroke-width="2" d="M570.52,-439.7C558.44,-430.8 543.55,-419.82 530.48,-410.2"/>
<polygon fill="grey" stroke="grey" stroke-width="2" points="532.34,-407.22 522.21,-404.1 528.19,-412.85 532.34,-407.22"/>
</g>
<!-- 7 -->
<g id="node11" class="node">
<title>7</title>
<path fill="none" stroke="#bed856" stroke-width="2" d="M747.5,-548C747.5,-548 640.5,-548 640.5,-548 634.5,-548 628.5,-542 628.5,-536 628.5,-536 628.5,-524 628.5,-524 628.5,-518 634.5,-512 640.5,-512 640.5,-512 747.5,-512 747.5,-512 753.5,-512 759.5,-518 759.5,-524 759.5,-524 759.5,-536 759.5,-536 759.5,-542 753.5,-548 747.5,-548"/>
<text text-anchor="middle" x="694" y="-527.5" font-family="sans" font-size="10.00">warp_gii_unfold2native</text>
</g>
<!-- 7&#45;&gt;6 -->
<g id="edge12" class="edge">
<title>7&#45;&gt;6</title>
<path fill="none" stroke="grey" stroke-width="2" d="M669.54,-511.88C656.7,-502.89 640.8,-491.76 626.91,-482.03"/>
<polygon fill="grey" stroke="grey" stroke-width="2" points="628.76,-479.06 618.56,-476.19 624.74,-484.79 628.76,-479.06"/>
</g>
<!-- 33 -->
<g id="node12" class="node">
<title>33</title>
<path fill="none" stroke="#9fd856" stroke-width="2" d="M738,-620C738,-620 632,-620 632,-620 626,-620 620,-614 620,-608 620,-608 620,-596 620,-596 620,-590 626,-584 632,-584 632,-584 738,-584 738,-584 744,-584 750,-590 750,-596 750,-596 750,-608 750,-608 750,-614 744,-620 738,-620"/>
<text text-anchor="middle" x="685" y="-599.5" font-family="sans" font-size="10.00">constrain_surf_to_bbox</text>
</g>
<!-- 33&#45;&gt;7 -->
<g id="edge13" class="edge">
<title>33&#45;&gt;7</title>
<path fill="none" stroke="grey" stroke-width="2" d="M687.22,-583.7C688.22,-575.98 689.41,-566.71 690.51,-558.11"/>
<polygon fill="grey" stroke="grey" stroke-width="2" points="694,-558.47 691.8,-548.1 687.05,-557.58 694,-558.47"/>
</g>
<!-- 34 -->
<g id="node13" class="node">
<title>34</title>
<path fill="none" stroke="#56d87b" stroke-width="2" d="M124,-692C124,-692 20,-692 20,-692 14,-692 8,-686 8,-680 8,-680 8,-668 8,-668 8,-662 14,-656 20,-656 20,-656 124,-656 124,-656 130,-656 136,-662 136,-668 136,-668 136,-680 136,-680 136,-686 130,-692 124,-692"/>
<text text-anchor="middle" x="72" y="-671.5" font-family="sans" font-size="10.00">cp_template_to_unfold</text>
</g>
<!-- 34&#45;&gt;2 -->
<g id="edge14" class="edge">
<title>34&#45;&gt;2</title>
<path fill="none" stroke="grey" stroke-width="2" d="M63.09,-655.58C50.5,-629.3 29,-577.62 29,-531 29,-531 29,-531 29,-313 29,-215.8 88.17,-191.44 177,-152 211.51,-136.68 251.68,-124.32 285.21,-115.41"/>
<polygon fill="grey" stroke="grey" stroke-width="2" points="286.14,-118.79 294.94,-112.87 284.38,-112.01 286.14,-118.79"/>
</g>
<!-- 34&#45;&gt;42 -->
<g id="edge16" class="edge">
<title>34&#45;&gt;42</title>
<path fill="none" stroke="grey" stroke-width="2" d="M51.74,-655.84C41.82,-646.3 30.61,-633.63 24,-620 6.5,-583.91 9,-571.11 9,-531 9,-531 9,-531 9,-241 9,-182.85 68.84,-142.72 115.33,-120.31"/>
<polygon fill="grey" stroke="grey" stroke-width="2" points="116.85,-123.47 124.43,-116.07 113.89,-117.12 116.85,-123.47"/>
</g>
<!-- 34&#45;&gt;33 -->
<g id="edge15" class="edge">
<title>34&#45;&gt;33</title>
<path fill="none" stroke="grey" stroke-width="2" d="M136.15,-665.67C250.38,-652.63 488.4,-625.45 609.99,-611.57"/>
<polygon fill="grey" stroke="grey" stroke-width="2" points="610.43,-615.04 619.97,-610.43 609.63,-608.08 610.43,-615.04"/>
</g>
<!-- 36&#45;&gt;2 -->
<g id="edge17" class="edge">
<title>36&#45;&gt;2</title>
<path fill="none" stroke="grey" stroke-width="2" d="M164.48,-223.85C171.67,-203.94 186.14,-171.35 209,-152 230.57,-133.74 258.94,-121.56 284.99,-113.54"/>
<polygon fill="grey" stroke="grey" stroke-width="2" points="286.22,-116.83 294.84,-110.67 284.26,-110.11 286.22,-116.83"/>
</g>
<!-- 36&#45;&gt;41 -->
<g id="edge18" class="edge">
<title>36&#45;&gt;41</title>
<path fill="none" stroke="grey" stroke-width="2" d="M191.54,-223.88C209.25,-214.55 231.35,-202.92 250.32,-192.94"/>
<polygon fill="grey" stroke="grey" stroke-width="2" points="252.12,-195.94 259.34,-188.19 248.86,-189.75 252.12,-195.94"/>
</g>
<!-- 36&#45;&gt;42 -->
<g id="edge19" class="edge">
<title>36&#45;&gt;42</title>
<path fill="none" stroke="grey" stroke-width="2" d="M160.21,-223.87C161.91,-199.67 165.04,-155.21 167.07,-126.39"/>
<polygon fill="grey" stroke="grey" stroke-width="2" points="170.58,-126.41 167.79,-116.19 163.6,-125.92 170.58,-126.41"/>
</g>
<!-- 39 -->
<g id="node15" class="node">
<title>39</title>
<path fill="none" stroke="#56c1d8" stroke-width="2" d="M718,-188C718,-188 652,-188 652,-188 646,-188 640,-182 640,-176 640,-176 640,-164 640,-164 640,-158 646,-152 652,-152 652,-152 718,-152 718,-152 724,-152 730,-158 730,-164 730,-164 730,-176 730,-176 730,-182 724,-188 718,-188"/>
<text text-anchor="middle" x="685" y="-167.5" font-family="sans" font-size="10.00">nii_to_label_gii</text>
</g>
<!-- 39&#45;&gt;2 -->
<g id="edge23" class="edge">
<title>39&#45;&gt;2</title>
<path fill="none" stroke="grey" stroke-width="2" d="M639.98,-157.99C631.37,-155.95 622.41,-153.87 614,-152 551.02,-138 479.09,-123.33 427.21,-112.98"/>
<polygon fill="grey" stroke="grey" stroke-width="2" points="427.6,-109.49 417.11,-110.97 426.23,-116.36 427.6,-109.49"/>
</g>
<!-- 40 -->
<g id="node16" class="node">
<title>40</title>
<path fill="none" stroke="#56d892" stroke-width="2" d="M756,-260C756,-260 640,-260 640,-260 634,-260 628,-254 628,-248 628,-248 628,-236 628,-236 628,-230 634,-224 640,-224 640,-224 756,-224 756,-224 762,-224 768,-230 768,-236 768,-236 768,-248 768,-248 768,-254 762,-260 756,-260"/>
<text text-anchor="middle" x="698" y="-239.5" font-family="sans" font-size="10.00">resample_atlas_to_refvol</text>
</g>
<!-- 40&#45;&gt;39 -->
<g id="edge24" class="edge">
<title>40&#45;&gt;39</title>
<path fill="none" stroke="grey" stroke-width="2" d="M694.79,-223.7C693.35,-215.98 691.63,-206.71 690.04,-198.11"/>
<polygon fill="grey" stroke="grey" stroke-width="2" points="693.44,-197.3 688.18,-188.1 686.56,-198.58 693.44,-197.3"/>
</g>
<!-- 8 -->
<g id="node17" class="node">
<title>8</title>
<path fill="none" stroke="#56d863" stroke-width="2" d="M864,-620C864,-620 780,-620 780,-620 774,-620 768,-614 768,-608 768,-608 768,-596 768,-596 768,-590 774,-584 780,-584 780,-584 864,-584 864,-584 870,-584 876,-590 876,-596 876,-596 876,-608 876,-608 876,-614 870,-620 864,-620"/>
<text text-anchor="middle" x="822" y="-599.5" font-family="sans" font-size="10.00">create_warps_hipp</text>
</g>
<!-- 8&#45;&gt;7 -->
<g id="edge28" class="edge">
<title>8&#45;&gt;7</title>
<path fill="none" stroke="grey" stroke-width="2" d="M790.69,-583.88C773.8,-574.64 752.75,-563.13 734.62,-553.21"/>
<polygon fill="grey" stroke="grey" stroke-width="2" points="735.89,-549.92 725.43,-548.19 732.53,-556.06 735.89,-549.92"/>
</g>
<!-- 9 -->
<g id="node18" class="node">
<title>9</title>
<path fill="none" stroke="#d8bc56" stroke-width="2" d="M928,-692C928,-692 850,-692 850,-692 844,-692 838,-686 838,-680 838,-680 838,-668 838,-668 838,-662 844,-656 850,-656 850,-656 928,-656 928,-656 934,-656 940,-662 940,-668 940,-668 940,-680 940,-680 940,-686 934,-692 928,-692"/>
<text text-anchor="middle" x="889" y="-671.5" font-family="sans" font-size="10.00">create_unfold_ref</text>
</g>
<!-- 9&#45;&gt;33 -->
<g id="edge30" class="edge">
<title>9&#45;&gt;33</title>
<path fill="none" stroke="grey" stroke-width="2" d="M839.36,-655.97C810.73,-646.14 774.55,-633.73 744.42,-623.39"/>
<polygon fill="grey" stroke="grey" stroke-width="2" points="745.46,-620.05 734.87,-620.11 743.19,-626.67 745.46,-620.05"/>
</g>
<!-- 9&#45;&gt;40 -->
<g id="edge31" class="edge">
<title>9&#45;&gt;40</title>
<path fill="none" stroke="grey" stroke-width="2" d="M940.33,-665.98C970.4,-659.2 1006.73,-645.93 1029,-620 1055.35,-589.32 1048,-571.45 1048,-531 1048,-531 1048,-531 1048,-385 1048,-327.11 881.53,-281.53 778.2,-258.81"/>
<polygon fill="grey" stroke="grey" stroke-width="2" points="778.92,-255.39 768.41,-256.69 777.44,-262.23 778.92,-255.39"/>
</g>
<!-- 9&#45;&gt;8 -->
<g id="edge29" class="edge">
<title>9&#45;&gt;8</title>
<path fill="none" stroke="grey" stroke-width="2" d="M872.44,-655.7C864.32,-647.22 854.41,-636.86 845.53,-627.58"/>
<polygon fill="grey" stroke="grey" stroke-width="2" points="847.81,-624.91 838.37,-620.1 842.76,-629.75 847.81,-624.91"/>
</g>
<!-- 43 -->
<g id="node19" class="node">
<title>43</title>
<path fill="none" stroke="#56c1d8" stroke-width="2" d="M1007.5,-620C1007.5,-620 906.5,-620 906.5,-620 900.5,-620 894.5,-614 894.5,-608 894.5,-608 894.5,-596 894.5,-596 894.5,-590 900.5,-584 906.5,-584 906.5,-584 1007.5,-584 1007.5,-584 1013.5,-584 1019.5,-590 1019.5,-596 1019.5,-596 1019.5,-608 1019.5,-608 1019.5,-614 1013.5,-620 1007.5,-620"/>
<text text-anchor="middle" x="957" y="-599.5" font-family="sans" font-size="10.00">create_warps_dentate</text>
</g>
<!-- 9&#45;&gt;43 -->
<g id="edge32" class="edge">
<title>9&#45;&gt;43</title>
<path fill="none" stroke="grey" stroke-width="2" d="M905.81,-655.7C914.13,-647.14 924.31,-636.66 933.39,-627.3"/>
<polygon fill="grey" stroke="grey" stroke-width="2" points="935.93,-629.72 940.38,-620.1 930.91,-624.84 935.93,-629.72"/>
</g>
<!-- 43&#45;&gt;7 -->
<g id="edge34" class="edge">
<title>43&#45;&gt;7</title>
<path fill="none" stroke="grey" stroke-width="2" d="M894.34,-584.32C856.3,-574.2 807.56,-561.23 767.68,-550.61"/>
<polygon fill="grey" stroke="grey" stroke-width="2" points="768.57,-547.23 758.01,-548.04 766.77,-553.99 768.57,-547.23"/>
</g>
<!-- 35 -->
<g id="node20" class="node">
<title>35</title>
<path fill="none" stroke="#5682d8" stroke-width="2" d="M880.5,-476C880.5,-476 779.5,-476 779.5,-476 773.5,-476 767.5,-470 767.5,-464 767.5,-464 767.5,-452 767.5,-452 767.5,-446 773.5,-440 779.5,-440 779.5,-440 880.5,-440 880.5,-440 886.5,-440 892.5,-446 892.5,-452 892.5,-452 892.5,-464 892.5,-464 892.5,-470 886.5,-476 880.5,-476"/>
<text text-anchor="middle" x="830" y="-455.5" font-family="sans" font-size="10.00">template_xfm_itk2ras</text>
</g>
<!-- 35&#45;&gt;5 -->
<g id="edge33" class="edge">
<title>35&#45;&gt;5</title>
<path fill="none" stroke="grey" stroke-width="2" d="M767.49,-440.81C766.32,-440.53 765.15,-440.26 764,-440 696,-424.46 617.61,-409.09 563.83,-398.94"/>
<polygon fill="grey" stroke="grey" stroke-width="2" points="564.22,-395.45 553.75,-397.04 562.93,-402.33 564.22,-395.45"/>
</g>
</g>
</svg>
