<?xml version="1.0" encoding="UTF-8" standalone="no"?>
<!DOCTYPE svg PUBLIC "-//W3C//DTD SVG 1.1//EN"
 "http://www.w3.org/Graphics/SVG/1.1/DTD/svg11.dtd">
<!-- Generated by graphviz version 2.43.0 (0)
 -->
<!-- Pages: 1 -->
<svg width="2893pt" height="1379pt"
 viewBox="0.00 0.00 2892.52 1379.00" xmlns="http://www.w3.org/2000/svg" xmlns:xlink="http://www.w3.org/1999/xlink">
<g id="graph0" class="graph" transform="scale(1 1) rotate(0) translate(4 1375)">
<polygon fill="white" stroke="transparent" points="-4,4 -4,-1375 2888.52,-1375 2888.52,4 -4,4"/>
<g id="clust2" class="cluster">
<title>cluster_1</title>
<polygon fill="white" stroke="blue" points="2344,-944 2344,-1003 2653,-1003 2653,-944 2344,-944"/>
<text text-anchor="middle" x="2498.5" y="-987.8" font-family="Times,serif" font-size="14.00">preproc_t1</text>
</g>
<g id="clust4" class="cluster">
<title>cluster_2</title>
<polygon fill="white" stroke="blue" points="768,-440 768,-715 1178,-715 1178,-440 768,-440"/>
<text text-anchor="middle" x="973" y="-699.8" font-family="Times,serif" font-size="14.00">warps</text>
</g>
<g id="clust5" class="cluster">
<title>cluster_3</title>
<polygon fill="white" stroke="blue" points="1867,-224 1867,-355 2328,-355 2328,-224 1867,-224"/>
<text text-anchor="middle" x="2097.5" y="-339.8" font-family="Times,serif" font-size="14.00">qc</text>
</g>
<g id="clust7" class="cluster">
<title>cluster_5</title>
<polygon fill="white" stroke="blue" points="1178,-584 1178,-787 1602,-787 1602,-584 1178,-584"/>
<text text-anchor="middle" x="1390" y="-771.8" font-family="Times,serif" font-size="14.00">autotop</text>
</g>
<g id="clust9" class="cluster">
<title>cluster_8</title>
<polygon fill="white" stroke="blue" points="2068,-944 2068,-1363 2344,-1363 2344,-944 2068,-944"/>
<text text-anchor="middle" x="2206" y="-1347.8" font-family="Times,serif" font-size="14.00">preproc_t2</text>
</g>
<g id="clust10" class="cluster">
<title>cluster_11</title>
<polygon fill="white" stroke="blue" points="1766,-368 1766,-571 1978,-571 1978,-368 1766,-368"/>
<text text-anchor="middle" x="1872" y="-555.8" font-family="Times,serif" font-size="14.00">subfields</text>
</g>
<g id="clust11" class="cluster">
<title>cluster_9</title>
<polygon fill="white" stroke="blue" points="8,-8 8,-715 768,-715 768,-8 8,-8"/>
<text text-anchor="middle" x="388" y="-699.8" font-family="Times,serif" font-size="14.00">gifti</text>
</g>
<g id="clust12" class="cluster">
<title>cluster_10</title>
<polygon fill="white" stroke="blue" points="1602,-728 1602,-1147 1892,-1147 1892,-728 1602,-728"/>
<text text-anchor="middle" x="1747" y="-1131.8" font-family="Times,serif" font-size="14.00">shape_inject</text>
</g>
<g id="clust13" class="cluster">
<title>cluster_12</title>
<polygon fill="white" stroke="blue" points="1948,-728 1948,-1003 2068,-1003 2068,-728 1948,-728"/>
<text text-anchor="middle" x="2008" y="-987.8" font-family="Times,serif" font-size="14.00">nnunet</text>
</g>
<g id="clust14" class="cluster">
<title>cluster_13</title>
<polygon fill="white" stroke="blue" points="2086,-368 2086,-499 2598,-499 2598,-368 2086,-368"/>
<text text-anchor="middle" x="2342" y="-483.8" font-family="Times,serif" font-size="14.00">resample_final_to_crop_native</text>
</g>
<!-- 22 -->
<g id="node1" class="node">
<title>22</title>
<path fill="none" stroke="#68d856" stroke-width="2" d="M2498.5,-980C2498.5,-980 2355.5,-980 2355.5,-980 2349.5,-980 2343.5,-974 2343.5,-968 2343.5,-968 2343.5,-956 2343.5,-956 2343.5,-950 2349.5,-944 2355.5,-944 2355.5,-944 2498.5,-944 2498.5,-944 2504.5,-944 2510.5,-950 2510.5,-956 2510.5,-956 2510.5,-968 2510.5,-968 2510.5,-974 2504.5,-980 2498.5,-980"/>
<text text-anchor="middle" x="2427" y="-959.5" font-family="sans" font-size="10.00">convert_template_xfm_ras2itk</text>
</g>
<!-- 21 -->
<g id="node27" class="node">
<title>21</title>
<path fill="none" stroke="#56d873" stroke-width="2" d="M2332,-1124C2332,-1124 2220,-1124 2220,-1124 2214,-1124 2208,-1118 2208,-1112 2208,-1112 2208,-1100 2208,-1100 2208,-1094 2214,-1088 2220,-1088 2220,-1088 2332,-1088 2332,-1088 2338,-1088 2344,-1094 2344,-1100 2344,-1100 2344,-1112 2344,-1112 2344,-1118 2338,-1124 2332,-1124"/>
<text text-anchor="middle" x="2276" y="-1103.5" font-family="sans" font-size="10.00">compose_t2_xfm_corobl</text>
</g>
<!-- 22&#45;&gt;21 -->
<g id="edge100" class="edge">
<title>22&#45;&gt;21</title>
<path fill="none" stroke="grey" stroke-width="2" d="M2428.33,-980.1C2428.91,-999.67 2426.85,-1031.64 2410,-1052 2395.61,-1069.38 2374.73,-1081.09 2353.72,-1088.97"/>
<polygon fill="grey" stroke="grey" stroke-width="2" points="2352.37,-1085.74 2344.08,-1092.33 2354.67,-1092.35 2352.37,-1085.74"/>
</g>
<!-- 35 -->
<g id="node2" class="node">
<title>35</title>
<path fill="none" stroke="#5682d8" stroke-width="2" d="M2641.5,-980C2641.5,-980 2540.5,-980 2540.5,-980 2534.5,-980 2528.5,-974 2528.5,-968 2528.5,-968 2528.5,-956 2528.5,-956 2528.5,-950 2534.5,-944 2540.5,-944 2540.5,-944 2641.5,-944 2641.5,-944 2647.5,-944 2653.5,-950 2653.5,-956 2653.5,-956 2653.5,-968 2653.5,-968 2653.5,-974 2647.5,-980 2641.5,-980"/>
<text text-anchor="middle" x="2591" y="-959.5" font-family="sans" font-size="10.00">template_xfm_itk2ras</text>
</g>
<!-- 5 -->
<g id="node38" class="node">
<title>5</title>
<path fill="none" stroke="#566bd8" stroke-width="2" d="M619.5,-404C619.5,-404 534.5,-404 534.5,-404 528.5,-404 522.5,-398 522.5,-392 522.5,-392 522.5,-380 522.5,-380 522.5,-374 528.5,-368 534.5,-368 534.5,-368 619.5,-368 619.5,-368 625.5,-368 631.5,-374 631.5,-380 631.5,-380 631.5,-392 631.5,-392 631.5,-398 625.5,-404 619.5,-404"/>
<text text-anchor="middle" x="577" y="-383.5" font-family="sans" font-size="10.00">warp_gii_to_native</text>
</g>
<!-- 35&#45;&gt;5 -->
<g id="edge114" class="edge">
<title>35&#45;&gt;5</title>
<path fill="none" stroke="grey" stroke-width="2" d="M2545.02,-943.98C2476.1,-917.03 2354,-863.07 2354,-819 2354,-819 2354,-819 2354,-673 2354,-632.03 2362.24,-609.28 2330,-584 2305.16,-564.52 1790.35,-584.88 1762,-571 1731.64,-556.13 1743.48,-528.54 1714,-512 1505.9,-395.27 1419.13,-466.42 1182,-440 985.63,-418.12 752.56,-399.87 641.74,-391.66"/>
<polygon fill="grey" stroke="grey" stroke-width="2" points="641.96,-388.17 631.73,-390.93 641.44,-395.15 641.96,-388.17"/>
</g>
<!-- 8 -->
<g id="node3" class="node">
<title>8</title>
<path fill="none" stroke="#56d863" stroke-width="2" d="M1166,-548C1166,-548 1082,-548 1082,-548 1076,-548 1070,-542 1070,-536 1070,-536 1070,-524 1070,-524 1070,-518 1076,-512 1082,-512 1082,-512 1166,-512 1166,-512 1172,-512 1178,-518 1178,-524 1178,-524 1178,-536 1178,-536 1178,-542 1172,-548 1166,-548"/>
<text text-anchor="middle" x="1124" y="-527.5" font-family="sans" font-size="10.00">create_warps_hipp</text>
</g>
<!-- 52 -->
<g id="node4" class="node">
<title>52</title>
<path fill="none" stroke="#b6d856" stroke-width="2" d="M938,-476C938,-476 780,-476 780,-476 774,-476 768,-470 768,-464 768,-464 768,-452 768,-452 768,-446 774,-440 780,-440 780,-440 938,-440 938,-440 944,-440 950,-446 950,-452 950,-452 950,-464 950,-464 950,-470 944,-476 938,-476"/>
<text text-anchor="middle" x="859" y="-455.5" font-family="sans" font-size="10.00">compose_warps_native_to_unfold</text>
</g>
<!-- 8&#45;&gt;52 -->
<g id="edge1" class="edge">
<title>8&#45;&gt;52</title>
<path fill="none" stroke="grey" stroke-width="2" d="M1069.99,-514.12C1066.62,-513.36 1063.27,-512.64 1060,-512 1015.59,-503.28 1002.8,-510.38 959,-499 940.85,-494.28 921.56,-487.12 904.83,-480.15"/>
<polygon fill="grey" stroke="grey" stroke-width="2" points="905.87,-476.79 895.29,-476.09 903.12,-483.23 905.87,-476.79"/>
</g>
<!-- 53 -->
<g id="node5" class="node">
<title>53</title>
<path fill="none" stroke="#d86656" stroke-width="2" d="M1165.5,-476C1165.5,-476 980.5,-476 980.5,-476 974.5,-476 968.5,-470 968.5,-464 968.5,-464 968.5,-452 968.5,-452 968.5,-446 974.5,-440 980.5,-440 980.5,-440 1165.5,-440 1165.5,-440 1171.5,-440 1177.5,-446 1177.5,-452 1177.5,-452 1177.5,-464 1177.5,-464 1177.5,-470 1171.5,-476 1165.5,-476"/>
<text text-anchor="middle" x="1073" y="-455.5" font-family="sans" font-size="10.00">compose_warps_unfold_to_crop_native</text>
</g>
<!-- 8&#45;&gt;53 -->
<g id="edge2" class="edge">
<title>8&#45;&gt;53</title>
<path fill="none" stroke="grey" stroke-width="2" d="M1111.39,-511.7C1105.4,-503.47 1098.12,-493.48 1091.52,-484.42"/>
<polygon fill="grey" stroke="grey" stroke-width="2" points="1094.18,-482.13 1085.46,-476.1 1088.52,-486.25 1094.18,-482.13"/>
</g>
<!-- 7 -->
<g id="node42" class="node">
<title>7</title>
<path fill="none" stroke="#bed856" stroke-width="2" d="M755.5,-548C755.5,-548 648.5,-548 648.5,-548 642.5,-548 636.5,-542 636.5,-536 636.5,-536 636.5,-524 636.5,-524 636.5,-518 642.5,-512 648.5,-512 648.5,-512 755.5,-512 755.5,-512 761.5,-512 767.5,-518 767.5,-524 767.5,-524 767.5,-536 767.5,-536 767.5,-542 761.5,-548 755.5,-548"/>
<text text-anchor="middle" x="702" y="-527.5" font-family="sans" font-size="10.00">warp_gii_unfold2native</text>
</g>
<!-- 8&#45;&gt;7 -->
<g id="edge72" class="edge">
<title>8&#45;&gt;7</title>
<path fill="none" stroke="grey" stroke-width="2" d="M1103.3,-548.15C1089.51,-558.99 1070.42,-571.74 1051,-577.5 1022.13,-586.06 808.99,-585.63 780,-577.5 763.22,-572.79 746.47,-563.37 732.82,-554.15"/>
<polygon fill="grey" stroke="grey" stroke-width="2" points="734.51,-551.07 724.32,-548.17 730.49,-556.79 734.51,-551.07"/>
</g>
<!-- 0 -->
<g id="node63" class="node">
<title>0</title>
<path fill="none" stroke="#d6d856" stroke-width="2" d="M2077,-188C2077,-188 2047,-188 2047,-188 2041,-188 2035,-182 2035,-176 2035,-176 2035,-164 2035,-164 2035,-158 2041,-152 2047,-152 2047,-152 2077,-152 2077,-152 2083,-152 2089,-158 2089,-164 2089,-164 2089,-176 2089,-176 2089,-182 2083,-188 2077,-188"/>
<text text-anchor="middle" x="2062" y="-167.5" font-family="sans" font-size="10.00">all</text>
</g>
<!-- 52&#45;&gt;0 -->
<g id="edge128" class="edge">
<title>52&#45;&gt;0</title>
<path fill="none" stroke="grey" stroke-width="2" d="M921.8,-439.99C1071.25,-399.77 1460.09,-296.78 1788,-224 1872.25,-205.3 1971.91,-186.96 2024.75,-177.54"/>
<polygon fill="grey" stroke="grey" stroke-width="2" points="2025.44,-180.97 2034.67,-175.77 2024.22,-174.08 2025.44,-180.97"/>
</g>
<!-- 53&#45;&gt;0 -->
<g id="edge129" class="edge">
<title>53&#45;&gt;0</title>
<path fill="none" stroke="grey" stroke-width="2" d="M1177.77,-451.51C1316.67,-443.48 1554.02,-426.97 1638,-404 1687.29,-390.52 1703.69,-388.81 1742,-355 1793.67,-309.39 1768.63,-263.66 1825,-224 1885.69,-181.31 1974.94,-172.27 2024.8,-170.78"/>
<polygon fill="grey" stroke="grey" stroke-width="2" points="2024.89,-174.28 2034.82,-170.57 2024.74,-167.29 2024.89,-174.28"/>
</g>
<!-- 9 -->
<g id="node6" class="node">
<title>9</title>
<path fill="none" stroke="#d8bc56" stroke-width="2" d="M1117,-692C1117,-692 1039,-692 1039,-692 1033,-692 1027,-686 1027,-680 1027,-680 1027,-668 1027,-668 1027,-662 1033,-656 1039,-656 1039,-656 1117,-656 1117,-656 1123,-656 1129,-662 1129,-668 1129,-668 1129,-680 1129,-680 1129,-686 1123,-692 1117,-692"/>
<text text-anchor="middle" x="1078" y="-671.5" font-family="sans" font-size="10.00">create_unfold_ref</text>
</g>
<!-- 9&#45;&gt;8 -->
<g id="edge3" class="edge">
<title>9&#45;&gt;8</title>
<path fill="none" stroke="grey" stroke-width="2" d="M1126.03,-655.85C1141.97,-647.6 1157.94,-635.95 1167,-620 1178.99,-598.91 1164.63,-573.98 1149.36,-555.87"/>
<polygon fill="grey" stroke="grey" stroke-width="2" points="1151.65,-553.19 1142.37,-548.08 1146.44,-557.86 1151.65,-553.19"/>
</g>
<!-- 9&#45;&gt;52 -->
<g id="edge6" class="edge">
<title>9&#45;&gt;52</title>
<path fill="none" stroke="grey" stroke-width="2" d="M1026.95,-670.04C958.85,-664.9 843.86,-651.67 818,-620 785.84,-580.63 817.4,-519.15 840.18,-484.68"/>
<polygon fill="grey" stroke="grey" stroke-width="2" points="843.28,-486.35 846.03,-476.11 837.5,-482.4 843.28,-486.35"/>
</g>
<!-- 9&#45;&gt;53 -->
<g id="edge7" class="edge">
<title>9&#45;&gt;53</title>
<path fill="none" stroke="grey" stroke-width="2" d="M1026.84,-669.32C962.32,-663.48 856.88,-649.59 833,-620 785.64,-561.3 895.6,-523.81 917,-512 934.11,-502.56 940.44,-505.12 959,-499 977.66,-492.84 997.92,-485.84 1016.12,-479.43"/>
<polygon fill="grey" stroke="grey" stroke-width="2" points="1017.45,-482.67 1025.71,-476.04 1015.12,-476.07 1017.45,-482.67"/>
</g>
<!-- 10 -->
<g id="node7" class="node">
<title>10</title>
<path fill="none" stroke="#d85656" stroke-width="2" d="M1145.5,-620C1145.5,-620 1026.5,-620 1026.5,-620 1020.5,-620 1014.5,-614 1014.5,-608 1014.5,-608 1014.5,-596 1014.5,-596 1014.5,-590 1020.5,-584 1026.5,-584 1026.5,-584 1145.5,-584 1145.5,-584 1151.5,-584 1157.5,-590 1157.5,-596 1157.5,-596 1157.5,-608 1157.5,-608 1157.5,-614 1151.5,-620 1145.5,-620"/>
<text text-anchor="middle" x="1086" y="-599.5" font-family="sans" font-size="10.00">create_unfold_coord_map</text>
</g>
<!-- 9&#45;&gt;10 -->
<g id="edge4" class="edge">
<title>9&#45;&gt;10</title>
<path fill="none" stroke="grey" stroke-width="2" d="M1079.98,-655.7C1080.86,-647.98 1081.92,-638.71 1082.9,-630.11"/>
<polygon fill="grey" stroke="grey" stroke-width="2" points="1086.39,-630.44 1084.05,-620.1 1079.43,-629.64 1086.39,-630.44"/>
</g>
<!-- 43 -->
<g id="node8" class="node">
<title>43</title>
<path fill="none" stroke="#56c1d8" stroke-width="2" d="M1039.5,-548C1039.5,-548 938.5,-548 938.5,-548 932.5,-548 926.5,-542 926.5,-536 926.5,-536 926.5,-524 926.5,-524 926.5,-518 932.5,-512 938.5,-512 938.5,-512 1039.5,-512 1039.5,-512 1045.5,-512 1051.5,-518 1051.5,-524 1051.5,-524 1051.5,-536 1051.5,-536 1051.5,-542 1045.5,-548 1039.5,-548"/>
<text text-anchor="middle" x="989" y="-527.5" font-family="sans" font-size="10.00">create_warps_dentate</text>
</g>
<!-- 9&#45;&gt;43 -->
<g id="edge5" class="edge">
<title>9&#45;&gt;43</title>
<path fill="none" stroke="grey" stroke-width="2" d="M1044.83,-655.99C1030.75,-647.12 1015.44,-634.97 1006,-620 994.36,-601.53 990.34,-576.94 989.11,-558.28"/>
<polygon fill="grey" stroke="grey" stroke-width="2" points="992.59,-557.91 988.66,-548.08 985.6,-558.22 992.59,-557.91"/>
</g>
<!-- 33 -->
<g id="node43" class="node">
<title>33</title>
<path fill="none" stroke="#9fd856" stroke-width="2" d="M755,-620C755,-620 649,-620 649,-620 643,-620 637,-614 637,-608 637,-608 637,-596 637,-596 637,-590 643,-584 649,-584 649,-584 755,-584 755,-584 761,-584 767,-590 767,-596 767,-596 767,-608 767,-608 767,-614 761,-620 755,-620"/>
<text text-anchor="middle" x="702" y="-599.5" font-family="sans" font-size="10.00">constrain_surf_to_bbox</text>
</g>
<!-- 9&#45;&gt;33 -->
<g id="edge74" class="edge">
<title>9&#45;&gt;33</title>
<path fill="none" stroke="grey" stroke-width="2" d="M1026.73,-665.28C967.75,-656.15 867.81,-639.91 777.21,-621.27"/>
<polygon fill="grey" stroke="grey" stroke-width="2" points="777.85,-617.83 767.35,-619.22 776.43,-624.68 777.85,-617.83"/>
</g>
<!-- 40 -->
<g id="node47" class="node">
<title>40</title>
<path fill="none" stroke="#56d892" stroke-width="2" d="M756,-260C756,-260 640,-260 640,-260 634,-260 628,-254 628,-248 628,-248 628,-236 628,-236 628,-230 634,-224 640,-224 640,-224 756,-224 756,-224 762,-224 768,-230 768,-236 768,-236 768,-248 768,-248 768,-254 762,-260 756,-260"/>
<text text-anchor="middle" x="698" y="-239.5" font-family="sans" font-size="10.00">resample_atlas_to_refvol</text>
</g>
<!-- 9&#45;&gt;40 -->
<g id="edge75" class="edge">
<title>9&#45;&gt;40</title>
<path fill="none" stroke="grey" stroke-width="2" d="M1129.18,-663.04C1143.63,-660.47 1159.4,-657.9 1174,-656 1269.53,-643.59 1523.68,-670.04 1606,-620 1645.94,-595.73 1662,-577.73 1662,-531 1662,-531 1662,-531 1662,-457 1662,-276.46 1009.48,-248.14 778.14,-243.77"/>
<polygon fill="grey" stroke="grey" stroke-width="2" points="778.17,-240.27 768.11,-243.59 778.04,-247.27 778.17,-240.27"/>
</g>
<!-- 9&#45;&gt;0 -->
<g id="edge73" class="edge">
<title>9&#45;&gt;0</title>
<path fill="none" stroke="grey" stroke-width="2" d="M1129.17,-662.98C1143.62,-660.41 1159.39,-657.85 1174,-656 1380.08,-629.86 1433.29,-640.57 1640,-620 1854.4,-598.66 2459.69,-660.78 2602,-499 2640.45,-455.28 2642.81,-409.53 2602,-368 2573.22,-338.71 1891.78,-384.29 1863,-355 1822.19,-313.47 1827.52,-270.16 1863,-224 1882.57,-198.54 1972.65,-182.72 2024.66,-175.54"/>
<polygon fill="grey" stroke="grey" stroke-width="2" points="2025.38,-178.97 2034.83,-174.18 2024.45,-172.04 2025.38,-178.97"/>
</g>
<!-- 10&#45;&gt;8 -->
<g id="edge8" class="edge">
<title>10&#45;&gt;8</title>
<path fill="none" stroke="grey" stroke-width="2" d="M1095.39,-583.7C1099.76,-575.64 1105.06,-565.89 1109.9,-556.98"/>
<polygon fill="grey" stroke="grey" stroke-width="2" points="1113.02,-558.56 1114.71,-548.1 1106.87,-555.22 1113.02,-558.56"/>
</g>
<!-- 10&#45;&gt;43 -->
<g id="edge9" class="edge">
<title>10&#45;&gt;43</title>
<path fill="none" stroke="grey" stroke-width="2" d="M1062.02,-583.7C1049.69,-574.8 1034.48,-563.82 1021.15,-554.2"/>
<polygon fill="grey" stroke="grey" stroke-width="2" points="1022.86,-551.12 1012.7,-548.1 1018.76,-556.79 1022.86,-551.12"/>
</g>
<!-- 43&#45;&gt;52 -->
<g id="edge12" class="edge">
<title>43&#45;&gt;52</title>
<path fill="none" stroke="grey" stroke-width="2" d="M957.2,-511.88C939.89,-502.55 918.28,-490.92 899.74,-480.94"/>
<polygon fill="grey" stroke="grey" stroke-width="2" points="901.39,-477.85 890.92,-476.19 898.07,-484.01 901.39,-477.85"/>
</g>
<!-- 43&#45;&gt;53 -->
<g id="edge13" class="edge">
<title>43&#45;&gt;53</title>
<path fill="none" stroke="grey" stroke-width="2" d="M1009.76,-511.7C1020.24,-502.97 1033.11,-492.24 1044.5,-482.75"/>
<polygon fill="grey" stroke="grey" stroke-width="2" points="1047.03,-485.19 1052.47,-476.1 1042.55,-479.82 1047.03,-485.19"/>
</g>
<!-- 43&#45;&gt;7 -->
<g id="edge116" class="edge">
<title>43&#45;&gt;7</title>
<path fill="none" stroke="grey" stroke-width="2" d="M926.29,-530C876.8,-530 827.31,-530 777.81,-530"/>
<polygon fill="grey" stroke="grey" stroke-width="2" points="777.58,-526.5 767.58,-530 777.58,-533.5 777.58,-526.5"/>
</g>
<!-- 32 -->
<g id="node9" class="node">
<title>32</title>
<path fill="none" stroke="#56d8b1" stroke-width="2" d="M964,-620C964,-620 854,-620 854,-620 848,-620 842,-614 842,-608 842,-608 842,-596 842,-596 842,-590 848,-584 854,-584 854,-584 964,-584 964,-584 970,-584 976,-590 976,-596 976,-596 976,-608 976,-608 976,-614 970,-620 964,-620"/>
<text text-anchor="middle" x="909" y="-599.5" font-family="sans" font-size="10.00">create_native_coord_ref</text>
</g>
<!-- 32&#45;&gt;8 -->
<g id="edge10" class="edge">
<title>32&#45;&gt;8</title>
<path fill="none" stroke="grey" stroke-width="2" d="M976.03,-588.83C1012.51,-582.01 1051.86,-574.23 1060,-571 1071.21,-566.56 1082.63,-560.14 1092.67,-553.74"/>
<polygon fill="grey" stroke="grey" stroke-width="2" points="1094.67,-556.61 1101.08,-548.17 1090.81,-550.77 1094.67,-556.61"/>
</g>
<!-- 32&#45;&gt;43 -->
<g id="edge11" class="edge">
<title>32&#45;&gt;43</title>
<path fill="none" stroke="grey" stroke-width="2" d="M928.78,-583.7C938.75,-574.97 951.01,-564.24 961.86,-554.75"/>
<polygon fill="grey" stroke="grey" stroke-width="2" points="964.23,-557.32 969.45,-548.1 959.62,-552.06 964.23,-557.32"/>
</g>
<!-- 55 -->
<g id="node10" class="node">
<title>55</title>
<path fill="none" stroke="#56d8a9" stroke-width="2" d="M2081.5,-332C2081.5,-332 1992.5,-332 1992.5,-332 1986.5,-332 1980.5,-326 1980.5,-320 1980.5,-320 1980.5,-308 1980.5,-308 1980.5,-302 1986.5,-296 1992.5,-296 1992.5,-296 2081.5,-296 2081.5,-296 2087.5,-296 2093.5,-302 2093.5,-308 2093.5,-308 2093.5,-320 2093.5,-320 2093.5,-326 2087.5,-332 2081.5,-332"/>
<text text-anchor="middle" x="2037" y="-311.5" font-family="sans" font-size="10.00">qc_reg_to_template</text>
</g>
<!-- 55&#45;&gt;0 -->
<g id="edge132" class="edge">
<title>55&#45;&gt;0</title>
<path fill="none" stroke="grey" stroke-width="2" d="M2040.02,-295.87C2044.28,-271.67 2052.1,-227.21 2057.18,-198.39"/>
<polygon fill="grey" stroke="grey" stroke-width="2" points="2060.69,-198.64 2058.97,-188.19 2053.79,-197.43 2060.69,-198.64"/>
</g>
<!-- 56 -->
<g id="node11" class="node">
<title>56</title>
<path fill="none" stroke="#80d856" stroke-width="2" d="M2315.5,-332C2315.5,-332 2268.5,-332 2268.5,-332 2262.5,-332 2256.5,-326 2256.5,-320 2256.5,-320 2256.5,-308 2256.5,-308 2256.5,-302 2262.5,-296 2268.5,-296 2268.5,-296 2315.5,-296 2315.5,-296 2321.5,-296 2327.5,-302 2327.5,-308 2327.5,-308 2327.5,-320 2327.5,-320 2327.5,-326 2321.5,-332 2315.5,-332"/>
<text text-anchor="middle" x="2292" y="-311.5" font-family="sans" font-size="10.00">qc_subfield</text>
</g>
<!-- 56&#45;&gt;0 -->
<g id="edge133" class="edge">
<title>56&#45;&gt;0</title>
<path fill="none" stroke="grey" stroke-width="2" d="M2256.1,-298.74C2253.37,-297.77 2250.65,-296.85 2248,-296 2186.82,-276.39 2158.25,-300.03 2108,-260 2088.31,-244.31 2076.18,-217.9 2069.35,-197.92"/>
<polygon fill="grey" stroke="grey" stroke-width="2" points="2072.61,-196.62 2066.26,-188.15 2065.94,-198.74 2072.61,-196.62"/>
</g>
<!-- 57 -->
<g id="node12" class="node">
<title>57</title>
<path fill="none" stroke="#68d856" stroke-width="2" d="M1950.5,-332C1950.5,-332 1879.5,-332 1879.5,-332 1873.5,-332 1867.5,-326 1867.5,-320 1867.5,-320 1867.5,-308 1867.5,-308 1867.5,-302 1873.5,-296 1879.5,-296 1879.5,-296 1950.5,-296 1950.5,-296 1956.5,-296 1962.5,-302 1962.5,-308 1962.5,-308 1962.5,-320 1962.5,-320 1962.5,-326 1956.5,-332 1950.5,-332"/>
<text text-anchor="middle" x="1915" y="-311.5" font-family="sans" font-size="10.00">qc_subfield_surf</text>
</g>
<!-- 57&#45;&gt;0 -->
<g id="edge134" class="edge">
<title>57&#45;&gt;0</title>
<path fill="none" stroke="grey" stroke-width="2" d="M1932.73,-295.87C1958.67,-270.82 2007.08,-224.05 2036.73,-195.41"/>
<polygon fill="grey" stroke="grey" stroke-width="2" points="2039.44,-197.65 2044.21,-188.19 2034.58,-192.62 2039.44,-197.65"/>
</g>
<!-- 58 -->
<g id="node13" class="node">
<title>58</title>
<path fill="none" stroke="#d88d56" stroke-width="2" d="M2215,-260C2215,-260 2129,-260 2129,-260 2123,-260 2117,-254 2117,-248 2117,-248 2117,-236 2117,-236 2117,-230 2123,-224 2129,-224 2129,-224 2215,-224 2215,-224 2221,-224 2227,-230 2227,-236 2227,-236 2227,-248 2227,-248 2227,-254 2221,-260 2215,-260"/>
<text text-anchor="middle" x="2172" y="-239.5" font-family="sans" font-size="10.00">plot_subj_subfields</text>
</g>
<!-- 58&#45;&gt;0 -->
<g id="edge135" class="edge">
<title>58&#45;&gt;0</title>
<path fill="none" stroke="grey" stroke-width="2" d="M2145.09,-223.88C2130.84,-214.81 2113.15,-203.55 2097.76,-193.76"/>
<polygon fill="grey" stroke="grey" stroke-width="2" points="2099.33,-190.61 2089.01,-188.19 2095.57,-196.51 2099.33,-190.61"/>
</g>
<!-- 59 -->
<g id="node14" class="node">
<title>59</title>
<path fill="none" stroke="#56d8d8" stroke-width="2" d="M2226.5,-332C2226.5,-332 2123.5,-332 2123.5,-332 2117.5,-332 2111.5,-326 2111.5,-320 2111.5,-320 2111.5,-308 2111.5,-308 2111.5,-302 2117.5,-296 2123.5,-296 2123.5,-296 2226.5,-296 2226.5,-296 2232.5,-296 2238.5,-302 2238.5,-308 2238.5,-308 2238.5,-320 2238.5,-320 2238.5,-326 2232.5,-332 2226.5,-332"/>
<text text-anchor="middle" x="2175" y="-311.5" font-family="sans" font-size="10.00">get_subfield_vols_subj</text>
</g>
<!-- 59&#45;&gt;58 -->
<g id="edge14" class="edge">
<title>59&#45;&gt;58</title>
<path fill="none" stroke="grey" stroke-width="2" d="M2174.26,-295.7C2173.93,-287.98 2173.53,-278.71 2173.16,-270.11"/>
<polygon fill="grey" stroke="grey" stroke-width="2" points="2176.66,-269.95 2172.73,-260.1 2169.66,-270.25 2176.66,-269.95"/>
</g>
<!-- 11 -->
<g id="node15" class="node">
<title>11</title>
<path fill="none" stroke="#d8c356" stroke-width="2" d="M1272.5,-692C1272.5,-692 1215.5,-692 1215.5,-692 1209.5,-692 1203.5,-686 1203.5,-680 1203.5,-680 1203.5,-668 1203.5,-668 1203.5,-662 1209.5,-656 1215.5,-656 1215.5,-656 1272.5,-656 1272.5,-656 1278.5,-656 1284.5,-662 1284.5,-668 1284.5,-668 1284.5,-680 1284.5,-680 1284.5,-686 1278.5,-692 1272.5,-692"/>
<text text-anchor="middle" x="1244" y="-671.5" font-family="sans" font-size="10.00">unflip_coords</text>
</g>
<!-- 11&#45;&gt;8 -->
<g id="edge76" class="edge">
<title>11&#45;&gt;8</title>
<path fill="none" stroke="grey" stroke-width="2" d="M1243.29,-655.83C1241.68,-636.5 1236.49,-605.03 1220,-584 1209.79,-570.97 1195.44,-560.68 1180.94,-552.77"/>
<polygon fill="grey" stroke="grey" stroke-width="2" points="1182.42,-549.6 1171.93,-548.15 1179.23,-555.82 1182.42,-549.6"/>
</g>
<!-- 11&#45;&gt;43 -->
<g id="edge78" class="edge">
<title>11&#45;&gt;43</title>
<path fill="none" stroke="grey" stroke-width="2" d="M1234.59,-655.88C1222.11,-635.03 1198.01,-600.53 1167,-584 1125.12,-561.67 1106.14,-585.69 1061,-571 1048.02,-566.78 1034.7,-560.14 1023.11,-553.48"/>
<polygon fill="grey" stroke="grey" stroke-width="2" points="1024.6,-550.29 1014.22,-548.17 1021.02,-556.3 1024.6,-550.29"/>
</g>
<!-- 11&#45;&gt;32 -->
<g id="edge77" class="edge">
<title>11&#45;&gt;32</title>
<path fill="none" stroke="grey" stroke-width="2" d="M1203.43,-661.4C1196.31,-659.5 1188.96,-657.63 1182,-656 1145.61,-647.49 1053.41,-629.89 986.19,-617.31"/>
<polygon fill="grey" stroke="grey" stroke-width="2" points="986.52,-613.81 976.05,-615.41 985.24,-620.69 986.52,-613.81"/>
</g>
<!-- 48 -->
<g id="node31" class="node">
<title>48</title>
<path fill="none" stroke="#56d8b1" stroke-width="2" d="M1965.5,-548C1965.5,-548 1778.5,-548 1778.5,-548 1772.5,-548 1766.5,-542 1766.5,-536 1766.5,-536 1766.5,-524 1766.5,-524 1766.5,-518 1772.5,-512 1778.5,-512 1778.5,-512 1965.5,-512 1965.5,-512 1971.5,-512 1977.5,-518 1977.5,-524 1977.5,-524 1977.5,-536 1977.5,-536 1977.5,-542 1971.5,-548 1965.5,-548"/>
<text text-anchor="middle" x="1872" y="-527.5" font-family="sans" font-size="10.00">label_subfields_from_vol_coords_corobl</text>
</g>
<!-- 11&#45;&gt;48 -->
<g id="edge79" class="edge">
<title>11&#45;&gt;48</title>
<path fill="none" stroke="grey" stroke-width="2" d="M1284.78,-669.59C1377.71,-661.56 1602.81,-640.59 1676,-620 1733.12,-603.94 1794.78,-573.56 1833.38,-552.81"/>
<polygon fill="grey" stroke="grey" stroke-width="2" points="1835.08,-555.87 1842.2,-548.02 1831.74,-549.72 1835.08,-555.87"/>
</g>
<!-- 51 -->
<g id="node61" class="node">
<title>51</title>
<path fill="none" stroke="#56c9d8" stroke-width="2" d="M2586,-404C2586,-404 2448,-404 2448,-404 2442,-404 2436,-398 2436,-392 2436,-392 2436,-380 2436,-380 2436,-374 2442,-368 2448,-368 2448,-368 2586,-368 2586,-368 2592,-368 2598,-374 2598,-380 2598,-380 2598,-392 2598,-392 2598,-398 2592,-404 2586,-404"/>
<text text-anchor="middle" x="2517" y="-383.5" font-family="sans" font-size="10.00">resample_coords_native_crop</text>
</g>
<!-- 11&#45;&gt;51 -->
<g id="edge80" class="edge">
<title>11&#45;&gt;51</title>
<path fill="none" stroke="grey" stroke-width="2" d="M1284.62,-669.6C1368.96,-662.34 1569.11,-643.98 1736,-620 1825.4,-607.16 1846.7,-597.5 1936,-584 1982.93,-576.9 1999.25,-591.62 2042,-571 2075.68,-554.75 2067.94,-527.45 2102,-512 2137.31,-495.98 2242.92,-519.23 2276,-499 2302.21,-482.98 2287.32,-458.29 2312,-440 2321.99,-432.6 2378.67,-418.22 2429.9,-406.3"/>
<polygon fill="grey" stroke="grey" stroke-width="2" points="2430.77,-409.69 2439.72,-404.03 2429.19,-402.87 2430.77,-409.69"/>
</g>
<!-- 12 -->
<g id="node16" class="node">
<title>12</title>
<path fill="none" stroke="#97d856" stroke-width="2" d="M1432,-764C1432,-764 1340,-764 1340,-764 1334,-764 1328,-758 1328,-752 1328,-752 1328,-740 1328,-740 1328,-734 1334,-728 1340,-728 1340,-728 1432,-728 1432,-728 1438,-728 1444,-734 1444,-740 1444,-740 1444,-752 1444,-752 1444,-758 1438,-764 1432,-764"/>
<text text-anchor="middle" x="1386" y="-743.5" font-family="sans" font-size="10.00">laplace_coords_hipp</text>
</g>
<!-- 12&#45;&gt;8 -->
<g id="edge81" class="edge">
<title>12&#45;&gt;8</title>
<path fill="none" stroke="grey" stroke-width="2" d="M1444.1,-729.77C1447.44,-729.11 1450.76,-728.52 1454,-728 1474.02,-724.81 1622.18,-729.84 1636,-715 1675.68,-672.39 1674.99,-627.24 1636,-584 1606.54,-551.33 1319.46,-537.56 1188.52,-532.95"/>
<polygon fill="grey" stroke="grey" stroke-width="2" points="1188.35,-529.44 1178.23,-532.59 1188.11,-536.43 1188.35,-529.44"/>
</g>
<!-- 12&#45;&gt;32 -->
<g id="edge82" class="edge">
<title>12&#45;&gt;32</title>
<path fill="none" stroke="grey" stroke-width="2" d="M1327.68,-729.45C1324.75,-728.91 1321.85,-728.42 1319,-728 1285.88,-723.14 1048.4,-729.01 1018,-715 985.44,-700 988.02,-681.67 963,-656 953.83,-646.59 943.59,-636.45 934.5,-627.58"/>
<polygon fill="grey" stroke="grey" stroke-width="2" points="936.81,-624.93 927.2,-620.47 931.93,-629.95 936.81,-624.93"/>
</g>
<!-- 12&#45;&gt;11 -->
<g id="edge15" class="edge">
<title>12&#45;&gt;11</title>
<path fill="none" stroke="grey" stroke-width="2" d="M1351.26,-727.88C1332.18,-718.47 1308.32,-706.71 1287.95,-696.67"/>
<polygon fill="grey" stroke="grey" stroke-width="2" points="1289.39,-693.47 1278.87,-692.19 1286.29,-699.75 1289.39,-693.47"/>
</g>
<!-- 12&#45;&gt;48 -->
<g id="edge83" class="edge">
<title>12&#45;&gt;48</title>
<path fill="none" stroke="grey" stroke-width="2" d="M1444.1,-729.73C1447.43,-729.09 1450.75,-728.5 1454,-728 1500.21,-720.86 1620.81,-732.91 1664,-715 1747.33,-680.45 1819.97,-598.11 1853.02,-556.3"/>
<polygon fill="grey" stroke="grey" stroke-width="2" points="1855.9,-558.3 1859.28,-548.26 1850.38,-554 1855.9,-558.3"/>
</g>
<!-- 12&#45;&gt;51 -->
<g id="edge84" class="edge">
<title>12&#45;&gt;51</title>
<path fill="none" stroke="grey" stroke-width="2" d="M1444.07,-729.57C1447.42,-728.96 1450.74,-728.43 1454,-728 1491.79,-722.98 2104.43,-728.69 2140,-715 2182.95,-698.46 2413.75,-483.95 2491.45,-411.05"/>
<polygon fill="grey" stroke="grey" stroke-width="2" points="2494.01,-413.46 2498.9,-404.06 2489.22,-408.35 2494.01,-413.46"/>
</g>
<!-- 29 -->
<g id="node17" class="node">
<title>29</title>
<path fill="none" stroke="#d8bc56" stroke-width="2" d="M1590,-620C1590,-620 1492,-620 1492,-620 1486,-620 1480,-614 1480,-608 1480,-608 1480,-596 1480,-596 1480,-590 1486,-584 1492,-584 1492,-584 1590,-584 1590,-584 1596,-584 1602,-590 1602,-596 1602,-596 1602,-608 1602,-608 1602,-614 1596,-620 1590,-620"/>
<text text-anchor="middle" x="1541" y="-599.5" font-family="sans" font-size="10.00">unflip_coords_equivol</text>
</g>
<!-- 29&#45;&gt;8 -->
<g id="edge108" class="edge">
<title>29&#45;&gt;8</title>
<path fill="none" stroke="grey" stroke-width="2" d="M1479.92,-590.75C1401.93,-577.65 1267.59,-555.1 1188.15,-541.77"/>
<polygon fill="grey" stroke="grey" stroke-width="2" points="1188.71,-538.31 1178.27,-540.11 1187.55,-545.22 1188.71,-538.31"/>
</g>
<!-- 29&#45;&gt;48 -->
<g id="edge109" class="edge">
<title>29&#45;&gt;48</title>
<path fill="none" stroke="grey" stroke-width="2" d="M1602.1,-588.08C1652.41,-577.44 1724.47,-562.2 1781.48,-550.14"/>
<polygon fill="grey" stroke="grey" stroke-width="2" points="1782.52,-553.5 1791.58,-548.01 1781.07,-546.65 1782.52,-553.5"/>
</g>
<!-- 29&#45;&gt;51 -->
<g id="edge110" class="edge">
<title>29&#45;&gt;51</title>
<path fill="none" stroke="grey" stroke-width="2" d="M1602.02,-593.4C1630.53,-590.08 1664.96,-586.41 1696,-584 1759.43,-579.08 1921.37,-590.28 1982,-571 2028.29,-556.28 2027.95,-527.46 2074,-512 2109.29,-500.15 2208.5,-517.15 2241,-499 2269.33,-483.18 2256.9,-457.85 2284,-440 2296.25,-431.94 2366.03,-416.61 2426.06,-404.51"/>
<polygon fill="grey" stroke="grey" stroke-width="2" points="2426.87,-407.92 2435.99,-402.52 2425.5,-401.05 2426.87,-407.92"/>
</g>
<!-- 30 -->
<g id="node18" class="node">
<title>30</title>
<path fill="none" stroke="#88d856" stroke-width="2" d="M1585,-692C1585,-692 1497,-692 1497,-692 1491,-692 1485,-686 1485,-680 1485,-680 1485,-668 1485,-668 1485,-662 1491,-656 1497,-656 1497,-656 1585,-656 1585,-656 1591,-656 1597,-662 1597,-668 1597,-668 1597,-680 1597,-680 1597,-686 1591,-692 1585,-692"/>
<text text-anchor="middle" x="1541" y="-671.5" font-family="sans" font-size="10.00">equivolume_coords</text>
</g>
<!-- 30&#45;&gt;8 -->
<g id="edge111" class="edge">
<title>30&#45;&gt;8</title>
<path fill="none" stroke="grey" stroke-width="2" d="M1490.7,-655.87C1413.5,-629.58 1266.1,-579.39 1183.64,-551.31"/>
<polygon fill="grey" stroke="grey" stroke-width="2" points="1184.75,-547.99 1174.15,-548.08 1182.49,-554.62 1184.75,-547.99"/>
</g>
<!-- 30&#45;&gt;29 -->
<g id="edge16" class="edge">
<title>30&#45;&gt;29</title>
<path fill="none" stroke="grey" stroke-width="2" d="M1541,-655.7C1541,-647.98 1541,-638.71 1541,-630.11"/>
<polygon fill="grey" stroke="grey" stroke-width="2" points="1544.5,-630.1 1541,-620.1 1537.5,-630.1 1544.5,-630.1"/>
</g>
<!-- 30&#45;&gt;48 -->
<g id="edge112" class="edge">
<title>30&#45;&gt;48</title>
<path fill="none" stroke="grey" stroke-width="2" d="M1597.38,-666.51C1643.49,-659.58 1709.44,-645.9 1762,-620 1795.36,-603.56 1827.74,-575.44 1848.63,-555.2"/>
<polygon fill="grey" stroke="grey" stroke-width="2" points="1851.12,-557.65 1855.78,-548.13 1846.21,-552.67 1851.12,-557.65"/>
</g>
<!-- 30&#45;&gt;51 -->
<g id="edge113" class="edge">
<title>30&#45;&gt;51</title>
<path fill="none" stroke="grey" stroke-width="2" d="M1597.09,-667.77C1721.57,-655.38 2016.68,-621.44 2102,-571 2131.1,-553.8 2120.08,-527.73 2150,-512 2213.94,-478.39 2248.06,-532.61 2312,-499 2341.92,-483.27 2332.23,-459.27 2360,-440 2380.56,-425.73 2405.29,-415.03 2428.97,-407.14"/>
<polygon fill="grey" stroke="grey" stroke-width="2" points="2430.22,-410.41 2438.68,-404.03 2428.09,-403.74 2430.22,-410.41"/>
</g>
<!-- 31 -->
<g id="node19" class="node">
<title>31</title>
<path fill="none" stroke="#56d86b" stroke-width="2" d="M1589.5,-764C1589.5,-764 1474.5,-764 1474.5,-764 1468.5,-764 1462.5,-758 1462.5,-752 1462.5,-752 1462.5,-740 1462.5,-740 1462.5,-734 1468.5,-728 1474.5,-728 1474.5,-728 1589.5,-728 1589.5,-728 1595.5,-728 1601.5,-734 1601.5,-740 1601.5,-740 1601.5,-752 1601.5,-752 1601.5,-758 1595.5,-764 1589.5,-764"/>
<text text-anchor="middle" x="1532" y="-743.5" font-family="sans" font-size="10.00">prep_equivolume_coords</text>
</g>
<!-- 31&#45;&gt;30 -->
<g id="edge17" class="edge">
<title>31&#45;&gt;30</title>
<path fill="none" stroke="grey" stroke-width="2" d="M1534.22,-727.7C1535.22,-719.98 1536.41,-710.71 1537.51,-702.11"/>
<polygon fill="grey" stroke="grey" stroke-width="2" points="1541,-702.47 1538.8,-692.1 1534.05,-701.58 1541,-702.47"/>
</g>
<!-- 44 -->
<g id="node20" class="node">
<title>44</title>
<path fill="none" stroke="#d87d56" stroke-width="2" d="M1298,-764C1298,-764 1190,-764 1190,-764 1184,-764 1178,-758 1178,-752 1178,-752 1178,-740 1178,-740 1178,-734 1184,-728 1190,-728 1190,-728 1298,-728 1298,-728 1304,-728 1310,-734 1310,-740 1310,-740 1310,-752 1310,-752 1310,-758 1304,-764 1298,-764"/>
<text text-anchor="middle" x="1244" y="-743.5" font-family="sans" font-size="10.00">laplace_coords_dentate</text>
</g>
<!-- 44&#45;&gt;43 -->
<g id="edge118" class="edge">
<title>44&#45;&gt;43</title>
<path fill="none" stroke="grey" stroke-width="2" d="M1310.14,-729.34C1313.12,-728.84 1316.09,-728.39 1319,-728 1334.82,-725.87 1594.67,-726.24 1606,-715 1647.35,-673.95 1651.71,-625.68 1611,-584 1589.64,-562.13 1090.49,-579.02 1061,-571 1047.25,-567.26 1033.31,-560.38 1021.39,-553.36"/>
<polygon fill="grey" stroke="grey" stroke-width="2" points="1023.07,-550.28 1012.72,-548.02 1019.4,-556.24 1023.07,-550.28"/>
</g>
<!-- 44&#45;&gt;32 -->
<g id="edge117" class="edge">
<title>44&#45;&gt;32</title>
<path fill="none" stroke="grey" stroke-width="2" d="M1177.81,-744.67C1107.77,-743.13 1002.89,-737.05 970,-715 940.45,-695.19 923.96,-656.13 915.78,-629.78"/>
<polygon fill="grey" stroke="grey" stroke-width="2" points="919.1,-628.67 912.95,-620.04 912.38,-630.62 919.1,-628.67"/>
</g>
<!-- 44&#45;&gt;11 -->
<g id="edge18" class="edge">
<title>44&#45;&gt;11</title>
<path fill="none" stroke="grey" stroke-width="2" d="M1244,-727.7C1244,-719.98 1244,-710.71 1244,-702.11"/>
<polygon fill="grey" stroke="grey" stroke-width="2" points="1247.5,-702.1 1244,-692.1 1240.5,-702.1 1247.5,-702.1"/>
</g>
<!-- 44&#45;&gt;51 -->
<g id="edge119" class="edge">
<title>44&#45;&gt;51</title>
<path fill="none" stroke="grey" stroke-width="2" d="M1310.14,-729.32C1313.12,-728.83 1316.09,-728.39 1319,-728 1458.78,-709.45 1496.41,-734.96 1636,-715 1809.61,-690.17 1851.29,-671.29 2019,-620 2020.17,-619.64 2349.01,-499.73 2350,-499 2376.55,-479.44 2369.04,-460.34 2395,-440 2412.03,-426.66 2432.93,-415.99 2452.59,-407.81"/>
<polygon fill="grey" stroke="grey" stroke-width="2" points="2454.13,-410.97 2462.12,-404 2451.53,-404.47 2454.13,-410.97"/>
</g>
<!-- 17 -->
<g id="node21" class="node">
<title>17</title>
<path fill="none" stroke="#56b1d8" stroke-width="2" d="M2178,-1124C2178,-1124 2080,-1124 2080,-1124 2074,-1124 2068,-1118 2068,-1112 2068,-1112 2068,-1100 2068,-1100 2068,-1094 2074,-1088 2080,-1088 2080,-1088 2178,-1088 2178,-1088 2184,-1088 2190,-1094 2190,-1100 2190,-1100 2190,-1112 2190,-1112 2190,-1118 2184,-1124 2178,-1124"/>
<text text-anchor="middle" x="2129" y="-1103.5" font-family="sans" font-size="10.00">avg_aligned_or_cp_t2</text>
</g>
<!-- 23 -->
<g id="node22" class="node">
<title>23</title>
<path fill="none" stroke="#a7d856" stroke-width="2" d="M2318,-1052C2318,-1052 2230,-1052 2230,-1052 2224,-1052 2218,-1046 2218,-1040 2218,-1040 2218,-1028 2218,-1028 2218,-1022 2224,-1016 2230,-1016 2230,-1016 2318,-1016 2318,-1016 2324,-1016 2330,-1022 2330,-1028 2330,-1028 2330,-1040 2330,-1040 2330,-1046 2324,-1052 2318,-1052"/>
<text text-anchor="middle" x="2274" y="-1031.5" font-family="sans" font-size="10.00">reg_t2_to_template</text>
</g>
<!-- 17&#45;&gt;23 -->
<g id="edge19" class="edge">
<title>17&#45;&gt;23</title>
<path fill="none" stroke="grey" stroke-width="2" d="M2164.47,-1087.88C2184.12,-1078.39 2208.72,-1066.51 2229.63,-1056.42"/>
<polygon fill="grey" stroke="grey" stroke-width="2" points="2231.16,-1059.57 2238.64,-1052.07 2228.12,-1053.26 2231.16,-1059.57"/>
</g>
<!-- 25 -->
<g id="node23" class="node">
<title>25</title>
<path fill="none" stroke="#9fd856" stroke-width="2" d="M2188,-1052C2188,-1052 2080,-1052 2080,-1052 2074,-1052 2068,-1046 2068,-1040 2068,-1040 2068,-1028 2068,-1028 2068,-1022 2074,-1016 2080,-1016 2080,-1016 2188,-1016 2188,-1016 2194,-1016 2200,-1022 2200,-1028 2200,-1028 2200,-1040 2200,-1040 2200,-1046 2194,-1052 2188,-1052"/>
<text text-anchor="middle" x="2134" y="-1031.5" font-family="sans" font-size="10.00">warp_t2_to_corobl_crop</text>
</g>
<!-- 17&#45;&gt;25 -->
<g id="edge20" class="edge">
<title>17&#45;&gt;25</title>
<path fill="none" stroke="grey" stroke-width="2" d="M2130.24,-1087.7C2130.79,-1079.98 2131.45,-1070.71 2132.06,-1062.11"/>
<polygon fill="grey" stroke="grey" stroke-width="2" points="2135.56,-1062.33 2132.78,-1052.1 2128.57,-1061.83 2135.56,-1062.33"/>
</g>
<!-- 50 -->
<g id="node30" class="node">
<title>50</title>
<path fill="none" stroke="#56d8b9" stroke-width="2" d="M1966,-404C1966,-404 1828,-404 1828,-404 1822,-404 1816,-398 1816,-392 1816,-392 1816,-380 1816,-380 1816,-374 1822,-368 1828,-368 1828,-368 1966,-368 1966,-368 1972,-368 1978,-374 1978,-380 1978,-380 1978,-392 1978,-392 1978,-398 1972,-404 1966,-404"/>
<text text-anchor="middle" x="1897" y="-383.5" font-family="sans" font-size="10.00">resample_subfields_to_native</text>
</g>
<!-- 17&#45;&gt;50 -->
<g id="edge92" class="edge">
<title>17&#45;&gt;50</title>
<path fill="none" stroke="grey" stroke-width="2" d="M2190.03,-1089.92C2193.06,-1089.25 2196.06,-1088.61 2199,-1088 2424.21,-1041.45 2772.94,-1160.72 2696,-944 2588.1,-640.09 2419.08,-613.59 2113,-512 2090.8,-504.63 2083.17,-508.95 2062,-499 2021.7,-480.05 2017.85,-465.01 1981,-440 1965.88,-429.74 1948.87,-418.89 1934.14,-409.69"/>
<polygon fill="grey" stroke="grey" stroke-width="2" points="1935.64,-406.51 1925.3,-404.21 1931.95,-412.45 1935.64,-406.51"/>
</g>
<!-- 54 -->
<g id="node62" class="node">
<title>54</title>
<path fill="none" stroke="#c6d856" stroke-width="2" d="M2406,-404C2406,-404 2290,-404 2290,-404 2284,-404 2278,-398 2278,-392 2278,-392 2278,-380 2278,-380 2278,-374 2284,-368 2290,-368 2290,-368 2406,-368 2406,-368 2412,-368 2418,-374 2418,-380 2418,-380 2418,-392 2418,-392 2418,-398 2412,-404 2406,-404"/>
<text text-anchor="middle" x="2348" y="-383.5" font-family="sans" font-size="10.00">resample_native_to_crop</text>
</g>
<!-- 17&#45;&gt;54 -->
<g id="edge93" class="edge">
<title>17&#45;&gt;54</title>
<path fill="none" stroke="grey" stroke-width="2" d="M2190.34,-1089.47C2193.26,-1088.93 2196.16,-1088.44 2199,-1088 2257.89,-1078.94 2693.31,-1095.52 2734,-1052 2835.73,-943.2 2466.76,-518.74 2370.44,-411.64"/>
<polygon fill="grey" stroke="grey" stroke-width="2" points="2373.03,-409.29 2363.73,-404.21 2367.83,-413.98 2373.03,-409.29"/>
</g>
<!-- 23&#45;&gt;22 -->
<g id="edge101" class="edge">
<title>23&#45;&gt;22</title>
<path fill="none" stroke="grey" stroke-width="2" d="M2311.71,-1015.89C2320.96,-1011.69 2330.84,-1007.19 2340,-1003 2353.14,-996.99 2367.38,-990.45 2380.47,-984.44"/>
<polygon fill="grey" stroke="grey" stroke-width="2" points="2382.14,-987.52 2389.76,-980.16 2379.21,-981.16 2382.14,-987.52"/>
</g>
<!-- 23&#45;&gt;55 -->
<g id="edge102" class="edge">
<title>23&#45;&gt;55</title>
<path fill="none" stroke="grey" stroke-width="2" d="M2330.16,-1032.72C2431.23,-1031.61 2635.29,-1026.47 2657,-1003 2674.8,-983.75 2668.4,-967.61 2657,-944 2522.76,-665.97 2378.74,-669.17 2113,-512 2100.14,-504.39 2091.7,-510.36 2082,-499 2043.64,-454.08 2036.96,-381.62 2036.38,-342.37"/>
<polygon fill="grey" stroke="grey" stroke-width="2" points="2039.88,-342.23 2036.36,-332.23 2032.88,-342.24 2039.88,-342.23"/>
</g>
<!-- 24 -->
<g id="node28" class="node">
<title>24</title>
<path fill="none" stroke="#88d856" stroke-width="2" d="M2115.5,-980C2115.5,-980 2080.5,-980 2080.5,-980 2074.5,-980 2068.5,-974 2068.5,-968 2068.5,-968 2068.5,-956 2068.5,-956 2068.5,-950 2074.5,-944 2080.5,-944 2080.5,-944 2115.5,-944 2115.5,-944 2121.5,-944 2127.5,-950 2127.5,-956 2127.5,-956 2127.5,-968 2127.5,-968 2127.5,-974 2121.5,-980 2115.5,-980"/>
<text text-anchor="middle" x="2098" y="-959.5" font-family="sans" font-size="10.00">lr_flip_t2</text>
</g>
<!-- 25&#45;&gt;24 -->
<g id="edge26" class="edge">
<title>25&#45;&gt;24</title>
<path fill="none" stroke="grey" stroke-width="2" d="M2125.1,-1015.7C2121,-1007.73 2116.05,-998.1 2111.51,-989.26"/>
<polygon fill="grey" stroke="grey" stroke-width="2" points="2114.48,-987.4 2106.8,-980.1 2108.26,-990.6 2114.48,-987.4"/>
</g>
<!-- 16 -->
<g id="node55" class="node">
<title>16</title>
<path fill="none" stroke="#d85e56" stroke-width="2" d="M2019.5,-980C2019.5,-980 1960.5,-980 1960.5,-980 1954.5,-980 1948.5,-974 1948.5,-968 1948.5,-968 1948.5,-956 1948.5,-956 1948.5,-950 1954.5,-944 1960.5,-944 1960.5,-944 2019.5,-944 2019.5,-944 2025.5,-944 2031.5,-950 2031.5,-956 2031.5,-956 2031.5,-968 2031.5,-968 2031.5,-974 2025.5,-980 2019.5,-980"/>
<text text-anchor="middle" x="1990" y="-959.5" font-family="sans" font-size="10.00">run_inference</text>
</g>
<!-- 25&#45;&gt;16 -->
<g id="edge104" class="edge">
<title>25&#45;&gt;16</title>
<path fill="none" stroke="grey" stroke-width="2" d="M2092.26,-1015.85C2082.89,-1011.79 2073.05,-1007.37 2064,-1003 2052.6,-997.49 2040.43,-991.12 2029.32,-985.11"/>
<polygon fill="grey" stroke="grey" stroke-width="2" points="2030.73,-981.89 2020.28,-980.17 2027.38,-988.04 2030.73,-981.89"/>
</g>
<!-- 61 -->
<g id="node56" class="node">
<title>61</title>
<path fill="none" stroke="#d89c56" stroke-width="2" d="M2051,-836C2051,-836 1987,-836 1987,-836 1981,-836 1975,-830 1975,-824 1975,-824 1975,-812 1975,-812 1975,-806 1981,-800 1987,-800 1987,-800 2051,-800 2051,-800 2057,-800 2063,-806 2063,-812 2063,-812 2063,-824 2063,-824 2063,-830 2057,-836 2051,-836"/>
<text text-anchor="middle" x="2019" y="-815.5" font-family="sans" font-size="10.00">qc_nnunet_f3d</text>
</g>
<!-- 25&#45;&gt;61 -->
<g id="edge105" class="edge">
<title>25&#45;&gt;61</title>
<path fill="none" stroke="grey" stroke-width="2" d="M2138.3,-1015.68C2142.02,-997.3 2145.58,-967.69 2137,-944 2121.37,-900.84 2081.93,-864.42 2052.92,-842.22"/>
<polygon fill="grey" stroke="grey" stroke-width="2" points="2054.78,-839.24 2044.67,-836.07 2050.6,-844.85 2054.78,-839.24"/>
</g>
<!-- 18 -->
<g id="node24" class="node">
<title>18</title>
<path fill="none" stroke="#5663d8" stroke-width="2" d="M2129,-1268C2129,-1268 2099,-1268 2099,-1268 2093,-1268 2087,-1262 2087,-1256 2087,-1256 2087,-1244 2087,-1244 2087,-1238 2093,-1232 2099,-1232 2099,-1232 2129,-1232 2129,-1232 2135,-1232 2141,-1238 2141,-1244 2141,-1244 2141,-1256 2141,-1256 2141,-1262 2135,-1268 2129,-1268"/>
<text text-anchor="middle" x="2114" y="-1247.5" font-family="sans" font-size="10.00">n4_t2</text>
</g>
<!-- 18&#45;&gt;17 -->
<g id="edge21" class="edge">
<title>18&#45;&gt;17</title>
<path fill="none" stroke="grey" stroke-width="2" d="M2107.95,-1231.75C2102.48,-1213.68 2096.1,-1184.56 2102,-1160 2104.21,-1150.81 2108.29,-1141.41 2112.62,-1133.13"/>
<polygon fill="grey" stroke="grey" stroke-width="2" points="2115.72,-1134.77 2117.53,-1124.33 2109.6,-1131.36 2115.72,-1134.77"/>
</g>
<!-- 20 -->
<g id="node25" class="node">
<title>20</title>
<path fill="none" stroke="#d8ac56" stroke-width="2" d="M2179.5,-1196C2179.5,-1196 2122.5,-1196 2122.5,-1196 2116.5,-1196 2110.5,-1190 2110.5,-1184 2110.5,-1184 2110.5,-1172 2110.5,-1172 2110.5,-1166 2116.5,-1160 2122.5,-1160 2122.5,-1160 2179.5,-1160 2179.5,-1160 2185.5,-1160 2191.5,-1166 2191.5,-1172 2191.5,-1172 2191.5,-1184 2191.5,-1184 2191.5,-1190 2185.5,-1196 2179.5,-1196"/>
<text text-anchor="middle" x="2151" y="-1175.5" font-family="sans" font-size="10.00">reg_t2_to_ref</text>
</g>
<!-- 18&#45;&gt;20 -->
<g id="edge22" class="edge">
<title>18&#45;&gt;20</title>
<path fill="none" stroke="grey" stroke-width="2" d="M2123.15,-1231.7C2127.4,-1223.64 2132.56,-1213.89 2137.27,-1204.98"/>
<polygon fill="grey" stroke="grey" stroke-width="2" points="2140.38,-1206.58 2141.96,-1196.1 2134.19,-1203.31 2140.38,-1206.58"/>
</g>
<!-- 20&#45;&gt;17 -->
<g id="edge24" class="edge">
<title>20&#45;&gt;17</title>
<path fill="none" stroke="grey" stroke-width="2" d="M2145.56,-1159.7C2143.11,-1151.9 2140.16,-1142.51 2137.43,-1133.83"/>
<polygon fill="grey" stroke="grey" stroke-width="2" points="2140.71,-1132.59 2134.38,-1124.1 2134.04,-1134.69 2140.71,-1132.59"/>
</g>
<!-- 19 -->
<g id="node26" class="node">
<title>19</title>
<path fill="none" stroke="#56d0d8" stroke-width="2" d="M2134,-1340C2134,-1340 2094,-1340 2094,-1340 2088,-1340 2082,-1334 2082,-1328 2082,-1328 2082,-1316 2082,-1316 2082,-1310 2088,-1304 2094,-1304 2094,-1304 2134,-1304 2134,-1304 2140,-1304 2146,-1310 2146,-1316 2146,-1316 2146,-1328 2146,-1328 2146,-1334 2140,-1340 2134,-1340"/>
<text text-anchor="middle" x="2114" y="-1319.5" font-family="sans" font-size="10.00">import_t2</text>
</g>
<!-- 19&#45;&gt;18 -->
<g id="edge23" class="edge">
<title>19&#45;&gt;18</title>
<path fill="none" stroke="grey" stroke-width="2" d="M2114,-1303.7C2114,-1295.98 2114,-1286.71 2114,-1278.11"/>
<polygon fill="grey" stroke="grey" stroke-width="2" points="2117.5,-1278.1 2114,-1268.1 2110.5,-1278.1 2117.5,-1278.1"/>
</g>
<!-- 21&#45;&gt;35 -->
<g id="edge94" class="edge">
<title>21&#45;&gt;35</title>
<path fill="none" stroke="grey" stroke-width="2" d="M2333.6,-1087.94C2363.18,-1078.52 2399.53,-1065.92 2431,-1052 2472.3,-1033.74 2480.55,-1024.97 2520,-1003 2530.32,-997.25 2541.47,-990.99 2551.8,-985.17"/>
<polygon fill="grey" stroke="grey" stroke-width="2" points="2553.64,-988.16 2560.63,-980.19 2550.2,-982.06 2553.64,-988.16"/>
</g>
<!-- 21&#45;&gt;52 -->
<g id="edge98" class="edge">
<title>21&#45;&gt;52</title>
<path fill="none" stroke="grey" stroke-width="2" d="M2306.3,-1087.8C2318.88,-1078.9 2332.12,-1066.77 2339,-1052 2345.75,-1037.49 2347.61,-1029.49 2339,-1016 2331.62,-1004.43 2319.96,-1013.39 2311,-1003 2277.12,-963.69 2278,-942.89 2278,-891 2278,-891 2278,-891 2278,-673 2278,-657.68 1202.24,-513.56 1187,-512 1086.03,-501.69 1058.08,-521.02 959,-499 940.06,-494.79 920.04,-487.42 902.93,-480.14"/>
<polygon fill="grey" stroke="grey" stroke-width="2" points="904.31,-476.93 893.75,-476.13 901.51,-483.34 904.31,-476.93"/>
</g>
<!-- 21&#45;&gt;53 -->
<g id="edge99" class="edge">
<title>21&#45;&gt;53</title>
<path fill="none" stroke="grey" stroke-width="2" d="M2329.22,-1087.96C2345.89,-1079.84 2362.42,-1068.23 2372,-1052 2380.13,-1038.22 2380.93,-1029.27 2372,-1016 2363.43,-1003.27 2349.87,-1014.76 2340,-1003 2307.28,-964 2316,-941.91 2316,-891 2316,-891 2316,-891 2316,-673 2316,-632.03 2324.24,-609.28 2292,-584 2266.72,-564.18 1744.27,-581.75 1714,-571 1673.71,-556.69 1678.25,-526.43 1638,-512 1590.29,-494.89 1231.77,-508.58 1182,-499 1161,-494.96 1138.69,-487.4 1119.76,-479.93"/>
<polygon fill="grey" stroke="grey" stroke-width="2" points="1121.06,-476.68 1110.48,-476.17 1118.43,-483.17 1121.06,-476.68"/>
</g>
<!-- 21&#45;&gt;25 -->
<g id="edge25" class="edge">
<title>21&#45;&gt;25</title>
<path fill="none" stroke="grey" stroke-width="2" d="M2241.26,-1087.88C2222.18,-1078.47 2198.32,-1066.71 2177.95,-1056.67"/>
<polygon fill="grey" stroke="grey" stroke-width="2" points="2179.39,-1053.47 2168.87,-1052.19 2176.29,-1059.75 2179.39,-1053.47"/>
</g>
<!-- 21&#45;&gt;50 -->
<g id="edge96" class="edge">
<title>21&#45;&gt;50</title>
<path fill="none" stroke="grey" stroke-width="2" d="M2344.27,-1102.2C2469.97,-1096.36 2727.84,-1080.97 2756,-1052 2763.47,-1044.31 2760.01,-944.03 2760,-944 2731.07,-784.44 2670.35,-746.8 2536,-656 2406.79,-568.67 2367.12,-550.53 2216,-512 2161.45,-498.09 2140.4,-524.08 2090,-499 2057.9,-483.03 2064.72,-460.05 2035,-440 2014.9,-426.43 1990.83,-415.66 1968.47,-407.47"/>
<polygon fill="grey" stroke="grey" stroke-width="2" points="1969.6,-404.16 1959,-404.12 1967.26,-410.75 1969.6,-404.16"/>
</g>
<!-- 45 -->
<g id="node59" class="node">
<title>45</title>
<path fill="none" stroke="#d88556" stroke-width="2" d="M2247.5,-404C2247.5,-404 2098.5,-404 2098.5,-404 2092.5,-404 2086.5,-398 2086.5,-392 2086.5,-392 2086.5,-380 2086.5,-380 2086.5,-374 2092.5,-368 2098.5,-368 2098.5,-368 2247.5,-368 2247.5,-368 2253.5,-368 2259.5,-374 2259.5,-380 2259.5,-380 2259.5,-392 2259.5,-392 2259.5,-398 2253.5,-404 2247.5,-404"/>
<text text-anchor="middle" x="2173" y="-383.5" font-family="sans" font-size="10.00">resample_subfields_native_crop</text>
</g>
<!-- 21&#45;&gt;45 -->
<g id="edge95" class="edge">
<title>21&#45;&gt;45</title>
<path fill="none" stroke="grey" stroke-width="2" d="M2344.15,-1103.24C2481.1,-1098.99 2779.28,-1085.92 2810,-1052 2842.22,-1016.42 2811.66,-991.97 2810,-944 2803.85,-766.78 2767.2,-705.45 2638,-584 2628.59,-575.15 2623.13,-577.56 2612,-571 2572.06,-547.47 2567.31,-533.03 2526,-512 2433.73,-465.03 2319.64,-428.13 2246.6,-406.94"/>
<polygon fill="grey" stroke="grey" stroke-width="2" points="2247.15,-403.46 2236.57,-404.05 2245.21,-410.18 2247.15,-403.46"/>
</g>
<!-- 21&#45;&gt;51 -->
<g id="edge97" class="edge">
<title>21&#45;&gt;51</title>
<path fill="none" stroke="grey" stroke-width="2" d="M2344.13,-1103.52C2485.19,-1099.74 2798.81,-1087.41 2831,-1052 3019.54,-844.6 2653.81,-503.88 2545.78,-411.01"/>
<polygon fill="grey" stroke="grey" stroke-width="2" points="2547.75,-408.1 2537.88,-404.27 2543.21,-413.42 2547.75,-408.1"/>
</g>
<!-- 24&#45;&gt;16 -->
<g id="edge103" class="edge">
<title>24&#45;&gt;16</title>
<path fill="none" stroke="grey" stroke-width="2" d="M2068.25,-962C2059.51,-962 2050.77,-962 2042.03,-962"/>
<polygon fill="grey" stroke="grey" stroke-width="2" points="2041.77,-958.5 2031.77,-962 2041.77,-965.5 2041.77,-958.5"/>
</g>
<!-- 46 -->
<g id="node29" class="node">
<title>46</title>
<path fill="none" stroke="#5673d8" stroke-width="2" d="M1960,-476C1960,-476 1778,-476 1778,-476 1772,-476 1766,-470 1766,-464 1766,-464 1766,-452 1766,-452 1766,-446 1772,-440 1778,-440 1778,-440 1960,-440 1960,-440 1966,-440 1972,-446 1972,-452 1972,-452 1972,-464 1972,-464 1972,-470 1966,-476 1960,-476"/>
<text text-anchor="middle" x="1869" y="-455.5" font-family="sans" font-size="10.00">combine_tissue_subfield_labels_corobl</text>
</g>
<!-- 46&#45;&gt;50 -->
<g id="edge27" class="edge">
<title>46&#45;&gt;50</title>
<path fill="none" stroke="grey" stroke-width="2" d="M1875.92,-439.7C1879.07,-431.81 1882.88,-422.3 1886.38,-413.55"/>
<polygon fill="grey" stroke="grey" stroke-width="2" points="1889.69,-414.69 1890.16,-404.1 1883.19,-412.09 1889.69,-414.69"/>
</g>
<!-- 46&#45;&gt;45 -->
<g id="edge123" class="edge">
<title>46&#45;&gt;45</title>
<path fill="none" stroke="grey" stroke-width="2" d="M1942.98,-439.97C1987.11,-429.8 2043.27,-416.87 2089.05,-406.33"/>
<polygon fill="grey" stroke="grey" stroke-width="2" points="2089.99,-409.7 2098.95,-404.05 2088.42,-402.88 2089.99,-409.7"/>
</g>
<!-- 49 -->
<g id="node60" class="node">
<title>49</title>
<path fill="none" stroke="#56d87b" stroke-width="2" d="M2220,-476C2220,-476 2116,-476 2116,-476 2110,-476 2104,-470 2104,-464 2104,-464 2104,-452 2104,-452 2104,-446 2110,-440 2116,-440 2116,-440 2220,-440 2220,-440 2226,-440 2232,-446 2232,-452 2232,-452 2232,-464 2232,-464 2232,-470 2226,-476 2220,-476"/>
<text text-anchor="middle" x="2168" y="-455.5" font-family="sans" font-size="10.00">create_native_crop_ref</text>
</g>
<!-- 50&#45;&gt;49 -->
<g id="edge126" class="edge">
<title>50&#45;&gt;49</title>
<path fill="none" stroke="grey" stroke-width="2" d="M1963.12,-404.08C2002.66,-414.29 2052.99,-427.29 2093.87,-437.85"/>
<polygon fill="grey" stroke="grey" stroke-width="2" points="2093.22,-441.3 2103.78,-440.41 2094.97,-434.52 2093.22,-441.3"/>
</g>
<!-- 48&#45;&gt;46 -->
<g id="edge28" class="edge">
<title>48&#45;&gt;46</title>
<path fill="none" stroke="grey" stroke-width="2" d="M1871.26,-511.7C1870.93,-503.98 1870.53,-494.71 1870.16,-486.11"/>
<polygon fill="grey" stroke="grey" stroke-width="2" points="1873.66,-485.95 1869.73,-476.1 1866.66,-486.25 1873.66,-485.95"/>
</g>
<!-- 1 -->
<g id="node32" class="node">
<title>1</title>
<path fill="none" stroke="#566bd8" stroke-width="2" d="M461,-44C461,-44 377,-44 377,-44 371,-44 365,-38 365,-32 365,-32 365,-20 365,-20 365,-14 371,-8 377,-8 377,-8 461,-8 461,-8 467,-8 473,-14 473,-20 473,-20 473,-32 473,-32 473,-38 467,-44 461,-44"/>
<text text-anchor="middle" x="419" y="-23.5" font-family="sans" font-size="10.00">merge_lr_spec_file</text>
</g>
<!-- 1&#45;&gt;0 -->
<g id="edge70" class="edge">
<title>1&#45;&gt;0</title>
<path fill="none" stroke="grey" stroke-width="2" d="M473.03,-31.67C728.25,-53.73 1809.62,-147.19 2024.71,-165.78"/>
<polygon fill="grey" stroke="grey" stroke-width="2" points="2024.59,-169.28 2034.85,-166.65 2025.19,-162.31 2024.59,-169.28"/>
</g>
<!-- 2 -->
<g id="node33" class="node">
<title>2</title>
<path fill="none" stroke="#ced856" stroke-width="2" d="M468,-116C468,-116 370,-116 370,-116 364,-116 358,-110 358,-104 358,-104 358,-92 358,-92 358,-86 364,-80 370,-80 370,-80 468,-80 468,-80 474,-80 480,-86 480,-92 480,-92 480,-104 480,-104 480,-110 474,-116 468,-116"/>
<text text-anchor="middle" x="419" y="-95.5" font-family="sans" font-size="10.00">create_spec_file_hipp</text>
</g>
<!-- 2&#45;&gt;1 -->
<g id="edge29" class="edge">
<title>2&#45;&gt;1</title>
<path fill="none" stroke="grey" stroke-width="2" d="M419,-79.7C419,-71.98 419,-62.71 419,-54.11"/>
<polygon fill="grey" stroke="grey" stroke-width="2" points="422.5,-54.1 419,-44.1 415.5,-54.1 422.5,-54.1"/>
</g>
<!-- 3 -->
<g id="node34" class="node">
<title>3</title>
<path fill="none" stroke="#d8a456" stroke-width="2" d="M377.5,-260C377.5,-260 280.5,-260 280.5,-260 274.5,-260 268.5,-254 268.5,-248 268.5,-248 268.5,-236 268.5,-236 268.5,-230 274.5,-224 280.5,-224 280.5,-224 377.5,-224 377.5,-224 383.5,-224 389.5,-230 389.5,-236 389.5,-236 389.5,-248 389.5,-248 389.5,-254 383.5,-260 377.5,-260"/>
<text text-anchor="middle" x="329" y="-239.5" font-family="sans" font-size="10.00">calculate_gyrification</text>
</g>
<!-- 3&#45;&gt;2 -->
<g id="edge30" class="edge">
<title>3&#45;&gt;2</title>
<path fill="none" stroke="grey" stroke-width="2" d="M368.47,-223.97C383.62,-215.4 399.53,-203.49 409,-188 420.26,-169.59 422.25,-144.99 421.71,-126.32"/>
<polygon fill="grey" stroke="grey" stroke-width="2" points="425.19,-125.9 421.15,-116.1 418.2,-126.28 425.19,-125.9"/>
</g>
<!-- 41 -->
<g id="node35" class="node">
<title>41</title>
<path fill="none" stroke="#56d8a2" stroke-width="2" d="M388,-188C388,-188 264,-188 264,-188 258,-188 252,-182 252,-176 252,-176 252,-164 252,-164 252,-158 258,-152 264,-152 264,-152 388,-152 388,-152 394,-152 400,-158 400,-164 400,-164 400,-176 400,-176 400,-182 394,-188 388,-188"/>
<text text-anchor="middle" x="326" y="-167.5" font-family="sans" font-size="10.00">create_dscalar_metric_cifti</text>
</g>
<!-- 3&#45;&gt;41 -->
<g id="edge31" class="edge">
<title>3&#45;&gt;41</title>
<path fill="none" stroke="grey" stroke-width="2" d="M328.26,-223.7C327.93,-215.98 327.53,-206.71 327.16,-198.11"/>
<polygon fill="grey" stroke="grey" stroke-width="2" points="330.66,-197.95 326.73,-188.1 323.66,-198.25 330.66,-197.95"/>
</g>
<!-- 42 -->
<g id="node36" class="node">
<title>42</title>
<path fill="none" stroke="#56b9d8" stroke-width="2" d="M238,-116C238,-116 124,-116 124,-116 118,-116 112,-110 112,-104 112,-104 112,-92 112,-92 112,-86 118,-80 124,-80 124,-80 238,-80 238,-80 244,-80 250,-86 250,-92 250,-92 250,-104 250,-104 250,-110 244,-116 238,-116"/>
<text text-anchor="middle" x="181" y="-95.5" font-family="sans" font-size="10.00">create_spec_file_dentate</text>
</g>
<!-- 3&#45;&gt;42 -->
<g id="edge32" class="edge">
<title>3&#45;&gt;42</title>
<path fill="none" stroke="grey" stroke-width="2" d="M294.08,-223.79C277.49,-214.59 258.04,-202.22 243,-188 223.48,-169.55 206.46,-144.02 195.22,-125.04"/>
<polygon fill="grey" stroke="grey" stroke-width="2" points="198.21,-123.21 190.18,-116.3 192.15,-126.71 198.21,-123.21"/>
</g>
<!-- 41&#45;&gt;2 -->
<g id="edge53" class="edge">
<title>41&#45;&gt;2</title>
<path fill="none" stroke="grey" stroke-width="2" d="M348.99,-151.7C360.81,-142.8 375.39,-131.82 388.18,-122.2"/>
<polygon fill="grey" stroke="grey" stroke-width="2" points="390.39,-124.91 396.28,-116.1 386.18,-119.32 390.39,-124.91"/>
</g>
<!-- 41&#45;&gt;42 -->
<g id="edge54" class="edge">
<title>41&#45;&gt;42</title>
<path fill="none" stroke="grey" stroke-width="2" d="M290.53,-151.88C270.88,-142.39 246.28,-130.51 225.37,-120.42"/>
<polygon fill="grey" stroke="grey" stroke-width="2" points="226.88,-117.26 216.36,-116.07 223.84,-123.57 226.88,-117.26"/>
</g>
<!-- 42&#45;&gt;1 -->
<g id="edge55" class="edge">
<title>42&#45;&gt;1</title>
<path fill="none" stroke="grey" stroke-width="2" d="M238.92,-79.97C274.01,-69.65 318.82,-56.47 354.96,-45.83"/>
<polygon fill="grey" stroke="grey" stroke-width="2" points="356.3,-49.09 364.91,-42.91 354.33,-42.37 356.3,-49.09"/>
</g>
<!-- 4 -->
<g id="node37" class="node">
<title>4</title>
<path fill="none" stroke="#56d89a" stroke-width="2" d="M469.5,-332C469.5,-332 364.5,-332 364.5,-332 358.5,-332 352.5,-326 352.5,-320 352.5,-320 352.5,-308 352.5,-308 352.5,-302 358.5,-296 364.5,-296 364.5,-296 469.5,-296 469.5,-296 475.5,-296 481.5,-302 481.5,-308 481.5,-308 481.5,-320 481.5,-320 481.5,-326 475.5,-332 469.5,-332"/>
<text text-anchor="middle" x="417" y="-311.5" font-family="sans" font-size="10.00">calculate_surface_area</text>
</g>
<!-- 4&#45;&gt;3 -->
<g id="edge33" class="edge">
<title>4&#45;&gt;3</title>
<path fill="none" stroke="grey" stroke-width="2" d="M395.25,-295.7C384.16,-286.88 370.53,-276.03 358.51,-266.47"/>
<polygon fill="grey" stroke="grey" stroke-width="2" points="360.51,-263.59 350.5,-260.1 356.15,-269.07 360.51,-263.59"/>
</g>
<!-- 5&#45;&gt;57 -->
<g id="edge71" class="edge">
<title>5&#45;&gt;57</title>
<path fill="none" stroke="grey" stroke-width="2" d="M631.53,-382.15C846.8,-370.89 1636.59,-329.57 1857.34,-318.02"/>
<polygon fill="grey" stroke="grey" stroke-width="2" points="1857.61,-321.51 1867.42,-317.49 1857.25,-314.52 1857.61,-321.51"/>
</g>
<!-- 5&#45;&gt;2 -->
<g id="edge34" class="edge">
<title>5&#45;&gt;2</title>
<path fill="none" stroke="grey" stroke-width="2" d="M585.59,-367.89C599.69,-337.18 623.84,-271.5 599,-224 572.88,-174.06 516.72,-140.06 474.03,-120.28"/>
<polygon fill="grey" stroke="grey" stroke-width="2" points="475.42,-117.07 464.87,-116.15 472.55,-123.45 475.42,-117.07"/>
</g>
<!-- 5&#45;&gt;42 -->
<g id="edge38" class="edge">
<title>5&#45;&gt;42</title>
<path fill="none" stroke="grey" stroke-width="2" d="M522.39,-383.48C413.76,-380.13 178.14,-371.1 145,-355 82.35,-324.57 32.74,-288.51 59,-224 76.59,-180.8 117.08,-144.39 146.61,-122.2"/>
<polygon fill="grey" stroke="grey" stroke-width="2" points="149,-124.79 155,-116.05 144.87,-119.14 149,-124.79"/>
</g>
<!-- 5&#45;&gt;4 -->
<g id="edge35" class="edge">
<title>5&#45;&gt;4</title>
<path fill="none" stroke="grey" stroke-width="2" d="M537.86,-367.88C515.99,-358.31 488.54,-346.3 465.34,-336.15"/>
<polygon fill="grey" stroke="grey" stroke-width="2" points="466.58,-332.87 456.01,-332.07 463.77,-339.28 466.58,-332.87"/>
</g>
<!-- 37 -->
<g id="node39" class="node">
<title>37</title>
<path fill="none" stroke="#56a9d8" stroke-width="2" d="M237.5,-332C237.5,-332 166.5,-332 166.5,-332 160.5,-332 154.5,-326 154.5,-320 154.5,-320 154.5,-308 154.5,-308 154.5,-302 160.5,-296 166.5,-296 166.5,-296 237.5,-296 237.5,-296 243.5,-296 249.5,-302 249.5,-308 249.5,-308 249.5,-320 249.5,-320 249.5,-326 243.5,-332 237.5,-332"/>
<text text-anchor="middle" x="202" y="-311.5" font-family="sans" font-size="10.00">smooth_surface</text>
</g>
<!-- 5&#45;&gt;37 -->
<g id="edge36" class="edge">
<title>5&#45;&gt;37</title>
<path fill="none" stroke="grey" stroke-width="2" d="M522.25,-380.31C474.58,-375.67 403.79,-367.45 343,-355 315.16,-349.3 284.78,-340.96 259.37,-333.37"/>
<polygon fill="grey" stroke="grey" stroke-width="2" points="260.12,-329.94 249.53,-330.39 258.09,-336.64 260.12,-329.94"/>
</g>
<!-- 38 -->
<g id="node40" class="node">
<title>38</title>
<path fill="none" stroke="#bed856" stroke-width="2" d="M578,-260C578,-260 420,-260 420,-260 414,-260 408,-254 408,-248 408,-248 408,-236 408,-236 408,-230 414,-224 420,-224 420,-224 578,-224 578,-224 584,-224 590,-230 590,-236 590,-236 590,-248 590,-248 590,-254 584,-260 578,-260"/>
<text text-anchor="middle" x="499" y="-239.5" font-family="sans" font-size="10.00">calculate_thickness_from_surface</text>
</g>
<!-- 5&#45;&gt;38 -->
<g id="edge37" class="edge">
<title>5&#45;&gt;38</title>
<path fill="none" stroke="grey" stroke-width="2" d="M567.59,-367.87C554.12,-343.35 529.23,-298.03 513.42,-269.26"/>
<polygon fill="grey" stroke="grey" stroke-width="2" points="516.32,-267.27 508.44,-260.19 510.19,-270.64 516.32,-267.27"/>
</g>
<!-- 36 -->
<g id="node45" class="node">
<title>36</title>
<path fill="none" stroke="#d8d356" stroke-width="2" d="M238,-260C238,-260 80,-260 80,-260 74,-260 68,-254 68,-248 68,-248 68,-236 68,-236 68,-230 74,-224 80,-224 80,-224 238,-224 238,-224 244,-224 250,-230 250,-236 250,-236 250,-248 250,-248 250,-254 244,-260 238,-260"/>
<text text-anchor="middle" x="159" y="-239.5" font-family="sans" font-size="10.00">calculate_curvature_from_surface</text>
</g>
<!-- 37&#45;&gt;36 -->
<g id="edge48" class="edge">
<title>37&#45;&gt;36</title>
<path fill="none" stroke="grey" stroke-width="2" d="M191.37,-295.7C186.37,-287.56 180.31,-277.69 174.79,-268.7"/>
<polygon fill="grey" stroke="grey" stroke-width="2" points="177.72,-266.79 169.51,-260.1 171.76,-270.46 177.72,-266.79"/>
</g>
<!-- 38&#45;&gt;2 -->
<g id="edge49" class="edge">
<title>38&#45;&gt;2</title>
<path fill="none" stroke="grey" stroke-width="2" d="M489.35,-223.87C475.54,-199.35 450,-154.03 433.79,-125.26"/>
<polygon fill="grey" stroke="grey" stroke-width="2" points="436.64,-123.18 428.68,-116.19 430.54,-126.62 436.64,-123.18"/>
</g>
<!-- 38&#45;&gt;41 -->
<g id="edge50" class="edge">
<title>38&#45;&gt;41</title>
<path fill="none" stroke="grey" stroke-width="2" d="M456.68,-223.88C432.82,-214.22 402.83,-202.09 377.6,-191.88"/>
<polygon fill="grey" stroke="grey" stroke-width="2" points="378.77,-188.57 368.18,-188.07 376.14,-195.06 378.77,-188.57"/>
</g>
<!-- 6 -->
<g id="node41" class="node">
<title>6</title>
<path fill="none" stroke="#59d856" stroke-width="2" d="M697,-476C697,-476 603,-476 603,-476 597,-476 591,-470 591,-464 591,-464 591,-452 591,-452 591,-446 597,-440 603,-440 603,-440 697,-440 697,-440 703,-440 709,-446 709,-452 709,-452 709,-464 709,-464 709,-470 703,-476 697,-476"/>
<text text-anchor="middle" x="650" y="-455.5" font-family="sans" font-size="10.00">correct_nan_vertices</text>
</g>
<!-- 6&#45;&gt;5 -->
<g id="edge39" class="edge">
<title>6&#45;&gt;5</title>
<path fill="none" stroke="grey" stroke-width="2" d="M631.96,-439.7C622.94,-431.05 611.88,-420.45 602.06,-411.03"/>
<polygon fill="grey" stroke="grey" stroke-width="2" points="604.48,-408.5 594.84,-404.1 599.63,-413.55 604.48,-408.5"/>
</g>
<!-- 7&#45;&gt;6 -->
<g id="edge40" class="edge">
<title>7&#45;&gt;6</title>
<path fill="none" stroke="grey" stroke-width="2" d="M689.15,-511.7C682.97,-503.39 675.46,-493.28 668.68,-484.14"/>
<polygon fill="grey" stroke="grey" stroke-width="2" points="671.48,-482.04 662.71,-476.1 665.86,-486.22 671.48,-482.04"/>
</g>
<!-- 33&#45;&gt;7 -->
<g id="edge41" class="edge">
<title>33&#45;&gt;7</title>
<path fill="none" stroke="grey" stroke-width="2" d="M702,-583.7C702,-575.98 702,-566.71 702,-558.11"/>
<polygon fill="grey" stroke="grey" stroke-width="2" points="705.5,-558.1 702,-548.1 698.5,-558.1 705.5,-558.1"/>
</g>
<!-- 34 -->
<g id="node44" class="node">
<title>34</title>
<path fill="none" stroke="#56d87b" stroke-width="2" d="M124,-692C124,-692 20,-692 20,-692 14,-692 8,-686 8,-680 8,-680 8,-668 8,-668 8,-662 14,-656 20,-656 20,-656 124,-656 124,-656 130,-656 136,-662 136,-668 136,-668 136,-680 136,-680 136,-686 130,-692 124,-692"/>
<text text-anchor="middle" x="72" y="-671.5" font-family="sans" font-size="10.00">cp_template_to_unfold</text>
</g>
<!-- 34&#45;&gt;2 -->
<g id="edge42" class="edge">
<title>34&#45;&gt;2</title>
<path fill="none" stroke="grey" stroke-width="2" d="M67.35,-655.66C60.62,-629.05 49,-576.45 49,-531 49,-531 49,-531 49,-241 49,-177.68 240.27,-132.01 347.77,-111.34"/>
<polygon fill="grey" stroke="grey" stroke-width="2" points="348.73,-114.72 357.9,-109.41 347.42,-107.84 348.73,-114.72"/>
</g>
<!-- 34&#45;&gt;42 -->
<g id="edge44" class="edge">
<title>34&#45;&gt;42</title>
<path fill="none" stroke="grey" stroke-width="2" d="M58.64,-655.72C40.15,-630.03 9,-579.55 9,-531 9,-531 9,-531 9,-241 9,-181.16 71.68,-141.82 121.36,-120.04"/>
<polygon fill="grey" stroke="grey" stroke-width="2" points="122.95,-123.17 130.79,-116.04 120.22,-116.72 122.95,-123.17"/>
</g>
<!-- 34&#45;&gt;33 -->
<g id="edge43" class="edge">
<title>34&#45;&gt;33</title>
<path fill="none" stroke="grey" stroke-width="2" d="M136.17,-665.87C253.3,-652.86 501.22,-625.31 626.36,-611.4"/>
<polygon fill="grey" stroke="grey" stroke-width="2" points="627.06,-614.85 636.61,-610.27 626.29,-607.89 627.06,-614.85"/>
</g>
<!-- 36&#45;&gt;2 -->
<g id="edge45" class="edge">
<title>36&#45;&gt;2</title>
<path fill="none" stroke="grey" stroke-width="2" d="M170.93,-223.69C185.63,-203.61 212.45,-170.87 243,-152 274.87,-132.31 314.53,-119.53 348.13,-111.47"/>
<polygon fill="grey" stroke="grey" stroke-width="2" points="348.93,-114.87 357.89,-109.22 347.36,-108.05 348.93,-114.87"/>
</g>
<!-- 36&#45;&gt;41 -->
<g id="edge46" class="edge">
<title>36&#45;&gt;41</title>
<path fill="none" stroke="grey" stroke-width="2" d="M199.85,-223.88C222.78,-214.26 251.58,-202.19 275.87,-192.01"/>
<polygon fill="grey" stroke="grey" stroke-width="2" points="277.41,-195.16 285.28,-188.07 274.7,-188.71 277.41,-195.16"/>
</g>
<!-- 36&#45;&gt;42 -->
<g id="edge47" class="edge">
<title>36&#45;&gt;42</title>
<path fill="none" stroke="grey" stroke-width="2" d="M161.65,-223.87C165.4,-199.67 172.29,-155.21 176.76,-126.39"/>
<polygon fill="grey" stroke="grey" stroke-width="2" points="180.26,-126.61 178.34,-116.19 173.35,-125.54 180.26,-126.61"/>
</g>
<!-- 39 -->
<g id="node46" class="node">
<title>39</title>
<path fill="none" stroke="#56c1d8" stroke-width="2" d="M718,-188C718,-188 652,-188 652,-188 646,-188 640,-182 640,-176 640,-176 640,-164 640,-164 640,-158 646,-152 652,-152 652,-152 718,-152 718,-152 724,-152 730,-158 730,-164 730,-164 730,-176 730,-176 730,-182 724,-188 718,-188"/>
<text text-anchor="middle" x="685" y="-167.5" font-family="sans" font-size="10.00">nii_to_label_gii</text>
</g>
<!-- 39&#45;&gt;2 -->
<g id="edge51" class="edge">
<title>39&#45;&gt;2</title>
<path fill="none" stroke="grey" stroke-width="2" d="M639.88,-157.13C598.92,-146.35 537.83,-130.27 490.27,-117.76"/>
<polygon fill="grey" stroke="grey" stroke-width="2" points="490.9,-114.3 480.34,-115.14 489.12,-121.07 490.9,-114.3"/>
</g>
<!-- 40&#45;&gt;48 -->
<g id="edge115" class="edge">
<title>40&#45;&gt;48</title>
<path fill="none" stroke="grey" stroke-width="2" d="M768.18,-242.68C978.33,-242.3 1592.57,-245.54 1666,-296 1747.49,-351.99 1681.52,-435.13 1757,-499 1760.51,-501.97 1764.27,-504.64 1768.22,-507.06"/>
<polygon fill="grey" stroke="grey" stroke-width="2" points="1766.7,-510.22 1777.15,-511.94 1770.06,-504.07 1766.7,-510.22"/>
</g>
<!-- 40&#45;&gt;39 -->
<g id="edge52" class="edge">
<title>40&#45;&gt;39</title>
<path fill="none" stroke="grey" stroke-width="2" d="M694.79,-223.7C693.35,-215.98 691.63,-206.71 690.04,-198.11"/>
<polygon fill="grey" stroke="grey" stroke-width="2" points="693.44,-197.3 688.18,-188.1 686.56,-198.58 693.44,-197.3"/>
</g>
<!-- 13 -->
<g id="node48" class="node">
<title>13</title>
<path fill="none" stroke="#56d85b" stroke-width="2" d="M1879.5,-836C1879.5,-836 1774.5,-836 1774.5,-836 1768.5,-836 1762.5,-830 1762.5,-824 1762.5,-824 1762.5,-812 1762.5,-812 1762.5,-806 1768.5,-800 1774.5,-800 1774.5,-800 1879.5,-800 1879.5,-800 1885.5,-800 1891.5,-806 1891.5,-812 1891.5,-812 1891.5,-824 1891.5,-824 1891.5,-830 1885.5,-836 1879.5,-836"/>
<text text-anchor="middle" x="1827" y="-815.5" font-family="sans" font-size="10.00">reinsert_subject_labels</text>
</g>
<!-- 13&#45;&gt;12 -->
<g id="edge85" class="edge">
<title>13&#45;&gt;12</title>
<path fill="none" stroke="grey" stroke-width="2" d="M1762.25,-813.38C1663.21,-807.59 1482.53,-796.01 1454,-787 1441.32,-783 1428.49,-776.28 1417.43,-769.48"/>
<polygon fill="grey" stroke="grey" stroke-width="2" points="1419.29,-766.52 1408.98,-764.06 1415.51,-772.41 1419.29,-766.52"/>
</g>
<!-- 13&#45;&gt;31 -->
<g id="edge86" class="edge">
<title>13&#45;&gt;31</title>
<path fill="none" stroke="grey" stroke-width="2" d="M1762.29,-814.35C1717.49,-811.04 1656.98,-803.63 1606,-787 1592.61,-782.63 1578.81,-775.88 1566.81,-769.16"/>
<polygon fill="grey" stroke="grey" stroke-width="2" points="1568.42,-766.05 1558.02,-764.07 1564.91,-772.11 1568.42,-766.05"/>
</g>
<!-- 13&#45;&gt;46 -->
<g id="edge87" class="edge">
<title>13&#45;&gt;46</title>
<path fill="none" stroke="grey" stroke-width="2" d="M1891.61,-807.1C1908.63,-804.64 1926.99,-802.1 1944,-800 2048.03,-787.17 2118.09,-809.23 2164,-715 2208.76,-623.13 2148.19,-556.09 2056,-512 2027.45,-498.35 2016.61,-507.03 1986,-499 1965.31,-493.57 1942.99,-486.31 1923.46,-479.46"/>
<polygon fill="grey" stroke="grey" stroke-width="2" points="1924.41,-476.08 1913.81,-476.04 1922.07,-482.68 1924.41,-476.08"/>
</g>
<!-- 47 -->
<g id="node49" class="node">
<title>47</title>
<path fill="none" stroke="#56d8c1" stroke-width="2" d="M1869.5,-764C1869.5,-764 1802.5,-764 1802.5,-764 1796.5,-764 1790.5,-758 1790.5,-752 1790.5,-752 1790.5,-740 1790.5,-740 1790.5,-734 1796.5,-728 1802.5,-728 1802.5,-728 1869.5,-728 1869.5,-728 1875.5,-728 1881.5,-734 1881.5,-740 1881.5,-740 1881.5,-752 1881.5,-752 1881.5,-758 1875.5,-764 1869.5,-764"/>
<text text-anchor="middle" x="1836" y="-743.5" font-family="sans" font-size="10.00">unflip_postproc</text>
</g>
<!-- 13&#45;&gt;47 -->
<g id="edge56" class="edge">
<title>13&#45;&gt;47</title>
<path fill="none" stroke="grey" stroke-width="2" d="M1829.22,-799.7C1830.22,-791.98 1831.41,-782.71 1832.51,-774.11"/>
<polygon fill="grey" stroke="grey" stroke-width="2" points="1836,-774.47 1833.8,-764.1 1829.05,-773.58 1836,-774.47"/>
</g>
<!-- 47&#45;&gt;46 -->
<g id="edge124" class="edge">
<title>47&#45;&gt;46</title>
<path fill="none" stroke="grey" stroke-width="2" d="M1881.6,-736.89C1900.81,-733.72 1923.44,-730.3 1944,-728 1965.69,-725.58 2125.09,-730.94 2140,-715 2226.22,-622.87 2023.94,-522.59 1922.58,-480.01"/>
<polygon fill="grey" stroke="grey" stroke-width="2" points="1923.67,-476.67 1913.1,-476.07 1920.99,-483.14 1923.67,-476.67"/>
</g>
<!-- 14 -->
<g id="node50" class="node">
<title>14</title>
<path fill="none" stroke="#568ad8" stroke-width="2" d="M1880,-908C1880,-908 1776,-908 1776,-908 1770,-908 1764,-902 1764,-896 1764,-896 1764,-884 1764,-884 1764,-878 1770,-872 1776,-872 1776,-872 1880,-872 1880,-872 1886,-872 1892,-878 1892,-884 1892,-884 1892,-896 1892,-896 1892,-902 1886,-908 1880,-908"/>
<text text-anchor="middle" x="1828" y="-887.5" font-family="sans" font-size="10.00">template_shape_inject</text>
</g>
<!-- 14&#45;&gt;13 -->
<g id="edge57" class="edge">
<title>14&#45;&gt;13</title>
<path fill="none" stroke="grey" stroke-width="2" d="M1827.75,-871.7C1827.64,-863.98 1827.51,-854.71 1827.39,-846.11"/>
<polygon fill="grey" stroke="grey" stroke-width="2" points="1830.89,-846.05 1827.24,-836.1 1823.89,-846.15 1830.89,-846.05"/>
</g>
<!-- 15 -->
<g id="node51" class="node">
<title>15</title>
<path fill="none" stroke="#d87d56" stroke-width="2" d="M1841.5,-1124C1841.5,-1124 1732.5,-1124 1732.5,-1124 1726.5,-1124 1720.5,-1118 1720.5,-1112 1720.5,-1112 1720.5,-1100 1720.5,-1100 1720.5,-1094 1726.5,-1088 1732.5,-1088 1732.5,-1088 1841.5,-1088 1841.5,-1088 1847.5,-1088 1853.5,-1094 1853.5,-1100 1853.5,-1100 1853.5,-1112 1853.5,-1112 1853.5,-1118 1847.5,-1124 1841.5,-1124"/>
<text text-anchor="middle" x="1787" y="-1103.5" font-family="sans" font-size="10.00">import_template_shape</text>
</g>
<!-- 15&#45;&gt;14 -->
<g id="edge58" class="edge">
<title>15&#45;&gt;14</title>
<path fill="none" stroke="grey" stroke-width="2" d="M1775.11,-1087.72C1768.99,-1077.76 1762.16,-1064.73 1759,-1052 1755.15,-1036.47 1755.01,-1031.49 1759,-1016 1768.64,-978.59 1792.12,-940.4 1809.01,-916.24"/>
<polygon fill="grey" stroke="grey" stroke-width="2" points="1811.93,-918.18 1814.9,-908.01 1806.24,-914.11 1811.93,-918.18"/>
</g>
<!-- 27 -->
<g id="node52" class="node">
<title>27</title>
<path fill="none" stroke="#d89556" stroke-width="2" d="M1880,-1052C1880,-1052 1780,-1052 1780,-1052 1774,-1052 1768,-1046 1768,-1040 1768,-1040 1768,-1028 1768,-1028 1768,-1022 1774,-1016 1780,-1016 1780,-1016 1880,-1016 1880,-1016 1886,-1016 1892,-1022 1892,-1028 1892,-1028 1892,-1040 1892,-1040 1892,-1046 1886,-1052 1880,-1052"/>
<text text-anchor="middle" x="1830" y="-1031.5" font-family="sans" font-size="10.00">prep_segs_for_greedy</text>
</g>
<!-- 15&#45;&gt;27 -->
<g id="edge59" class="edge">
<title>15&#45;&gt;27</title>
<path fill="none" stroke="grey" stroke-width="2" d="M1797.63,-1087.7C1802.63,-1079.56 1808.69,-1069.69 1814.21,-1060.7"/>
<polygon fill="grey" stroke="grey" stroke-width="2" points="1817.24,-1062.46 1819.49,-1052.1 1811.28,-1058.79 1817.24,-1062.46"/>
</g>
<!-- 26 -->
<g id="node53" class="node">
<title>26</title>
<path fill="none" stroke="#d89c56" stroke-width="2" d="M1719,-980C1719,-980 1627,-980 1627,-980 1621,-980 1615,-974 1615,-968 1615,-968 1615,-956 1615,-956 1615,-950 1621,-944 1627,-944 1627,-944 1719,-944 1719,-944 1725,-944 1731,-950 1731,-956 1731,-956 1731,-968 1731,-968 1731,-974 1725,-980 1719,-980"/>
<text text-anchor="middle" x="1673" y="-959.5" font-family="sans" font-size="10.00">template_shape_reg</text>
</g>
<!-- 27&#45;&gt;26 -->
<g id="edge62" class="edge">
<title>27&#45;&gt;26</title>
<path fill="none" stroke="grey" stroke-width="2" d="M1791.59,-1015.88C1770.13,-1006.31 1743.2,-994.3 1720.43,-984.15"/>
<polygon fill="grey" stroke="grey" stroke-width="2" points="1721.84,-980.94 1711.28,-980.07 1718.99,-987.34 1721.84,-980.94"/>
</g>
<!-- 26&#45;&gt;14 -->
<g id="edge60" class="edge">
<title>26&#45;&gt;14</title>
<path fill="none" stroke="grey" stroke-width="2" d="M1710.92,-943.88C1732.01,-934.35 1758.46,-922.41 1780.87,-912.28"/>
<polygon fill="grey" stroke="grey" stroke-width="2" points="1782.53,-915.37 1790.21,-908.07 1779.65,-908.99 1782.53,-915.37"/>
</g>
<!-- 28 -->
<g id="node54" class="node">
<title>28</title>
<path fill="none" stroke="#565bd8" stroke-width="2" d="M1733.5,-908C1733.5,-908 1614.5,-908 1614.5,-908 1608.5,-908 1602.5,-902 1602.5,-896 1602.5,-896 1602.5,-884 1602.5,-884 1602.5,-878 1608.5,-872 1614.5,-872 1614.5,-872 1733.5,-872 1733.5,-872 1739.5,-872 1745.5,-878 1745.5,-884 1745.5,-884 1745.5,-896 1745.5,-896 1745.5,-902 1739.5,-908 1733.5,-908"/>
<text text-anchor="middle" x="1674" y="-887.5" font-family="sans" font-size="10.00">inject_init_laplace_coords</text>
</g>
<!-- 26&#45;&gt;28 -->
<g id="edge61" class="edge">
<title>26&#45;&gt;28</title>
<path fill="none" stroke="grey" stroke-width="2" d="M1673.25,-943.7C1673.36,-935.98 1673.49,-926.71 1673.61,-918.11"/>
<polygon fill="grey" stroke="grey" stroke-width="2" points="1677.11,-918.15 1673.76,-908.1 1670.11,-918.05 1677.11,-918.15"/>
</g>
<!-- 28&#45;&gt;12 -->
<g id="edge106" class="edge">
<title>28&#45;&gt;12</title>
<path fill="none" stroke="grey" stroke-width="2" d="M1634.09,-871.9C1589.58,-852.51 1515.71,-819.36 1454,-787 1443.59,-781.54 1432.51,-775.24 1422.39,-769.29"/>
<polygon fill="grey" stroke="grey" stroke-width="2" points="1424.16,-766.27 1413.77,-764.17 1420.58,-772.28 1424.16,-766.27"/>
</g>
<!-- 28&#45;&gt;44 -->
<g id="edge107" class="edge">
<title>28&#45;&gt;44</title>
<path fill="none" stroke="grey" stroke-width="2" d="M1602.33,-873.48C1529.46,-856.54 1414.05,-826.47 1319,-787 1306.63,-781.86 1293.61,-775.34 1281.95,-769.07"/>
<polygon fill="grey" stroke="grey" stroke-width="2" points="1283.38,-765.86 1272.93,-764.11 1280.01,-771.99 1283.38,-765.86"/>
</g>
<!-- 16&#45;&gt;13 -->
<g id="edge88" class="edge">
<title>16&#45;&gt;13</title>
<path fill="none" stroke="grey" stroke-width="2" d="M1974.37,-943.76C1957.17,-925.19 1928.33,-895.18 1901,-872 1888.66,-861.54 1874.36,-850.96 1861.63,-842.05"/>
<polygon fill="grey" stroke="grey" stroke-width="2" points="1863.34,-838.97 1853.12,-836.16 1859.35,-844.72 1863.34,-838.97"/>
</g>
<!-- 16&#45;&gt;14 -->
<g id="edge89" class="edge">
<title>16&#45;&gt;14</title>
<path fill="none" stroke="grey" stroke-width="2" d="M1950.37,-943.88C1928.22,-934.31 1900.44,-922.3 1876.94,-912.15"/>
<polygon fill="grey" stroke="grey" stroke-width="2" points="1878.07,-908.82 1867.5,-908.07 1875.29,-915.25 1878.07,-908.82"/>
</g>
<!-- 16&#45;&gt;27 -->
<g id="edge90" class="edge">
<title>16&#45;&gt;27</title>
<path fill="none" stroke="grey" stroke-width="2" d="M1950.99,-980.07C1929.14,-989.63 1901.69,-1001.63 1878.47,-1011.79"/>
<polygon fill="grey" stroke="grey" stroke-width="2" points="1876.9,-1008.66 1869.14,-1015.88 1879.7,-1015.07 1876.9,-1008.66"/>
</g>
<!-- 16&#45;&gt;28 -->
<g id="edge91" class="edge">
<title>16&#45;&gt;28</title>
<path fill="none" stroke="grey" stroke-width="2" d="M1948.36,-951.78C1899.55,-940.96 1817.47,-922.78 1755.78,-909.12"/>
<polygon fill="grey" stroke="grey" stroke-width="2" points="1756.2,-905.62 1745.68,-906.88 1754.69,-912.46 1756.2,-905.62"/>
</g>
<!-- 16&#45;&gt;61 -->
<g id="edge63" class="edge">
<title>16&#45;&gt;61</title>
<path fill="none" stroke="grey" stroke-width="2" d="M1976.36,-943.92C1963.6,-925.75 1948.04,-896.31 1959,-872 1964.18,-860.52 1973.21,-850.52 1982.72,-842.4"/>
<polygon fill="grey" stroke="grey" stroke-width="2" points="1985.09,-844.99 1990.74,-836.03 1980.73,-839.51 1985.09,-844.99"/>
</g>
<!-- 62 -->
<g id="node57" class="node">
<title>62</title>
<path fill="none" stroke="#56a2d8" stroke-width="2" d="M2056,-908C2056,-908 1980,-908 1980,-908 1974,-908 1968,-902 1968,-896 1968,-896 1968,-884 1968,-884 1968,-878 1974,-872 1980,-872 1980,-872 2056,-872 2056,-872 2062,-872 2068,-878 2068,-884 2068,-884 2068,-896 2068,-896 2068,-902 2062,-908 2056,-908"/>
<text text-anchor="middle" x="2018" y="-887.5" font-family="sans" font-size="10.00">unflip_nnunet_nii</text>
</g>
<!-- 16&#45;&gt;62 -->
<g id="edge64" class="edge">
<title>16&#45;&gt;62</title>
<path fill="none" stroke="grey" stroke-width="2" d="M1996.92,-943.7C2000.07,-935.81 2003.88,-926.3 2007.38,-917.55"/>
<polygon fill="grey" stroke="grey" stroke-width="2" points="2010.69,-918.69 2011.16,-908.1 2004.19,-916.09 2010.69,-918.69"/>
</g>
<!-- 60 -->
<g id="node58" class="node">
<title>60</title>
<path fill="none" stroke="#8fd856" stroke-width="2" d="M2055,-764C2055,-764 1987,-764 1987,-764 1981,-764 1975,-758 1975,-752 1975,-752 1975,-740 1975,-740 1975,-734 1981,-728 1987,-728 1987,-728 2055,-728 2055,-728 2061,-728 2067,-734 2067,-740 2067,-740 2067,-752 2067,-752 2067,-758 2061,-764 2055,-764"/>
<text text-anchor="middle" x="2021" y="-743.5" font-family="sans" font-size="10.00">qc_nnunet_dice</text>
</g>
<!-- 61&#45;&gt;60 -->
<g id="edge65" class="edge">
<title>61&#45;&gt;60</title>
<path fill="none" stroke="grey" stroke-width="2" d="M2019.49,-799.7C2019.71,-791.98 2019.98,-782.71 2020.23,-774.11"/>
<polygon fill="grey" stroke="grey" stroke-width="2" points="2023.72,-774.2 2020.51,-764.1 2016.73,-774 2023.72,-774.2"/>
</g>
<!-- 62&#45;&gt;61 -->
<g id="edge66" class="edge">
<title>62&#45;&gt;61</title>
<path fill="none" stroke="grey" stroke-width="2" d="M2018.25,-871.7C2018.36,-863.98 2018.49,-854.71 2018.61,-846.11"/>
<polygon fill="grey" stroke="grey" stroke-width="2" points="2022.11,-846.15 2018.76,-836.1 2015.11,-846.05 2022.11,-846.15"/>
</g>
<!-- 60&#45;&gt;0 -->
<g id="edge136" class="edge">
<title>60&#45;&gt;0</title>
<path fill="none" stroke="grey" stroke-width="2" d="M2067.24,-745.54C2214.68,-744.65 2664,-720.46 2664,-459 2664,-459 2664,-459 2664,-313 2664,-196.41 2230.87,-175.44 2099.39,-171.76"/>
<polygon fill="grey" stroke="grey" stroke-width="2" points="2099.12,-168.26 2089.04,-171.49 2098.94,-175.25 2099.12,-168.26"/>
</g>
<!-- 45&#45;&gt;56 -->
<g id="edge121" class="edge">
<title>45&#45;&gt;56</title>
<path fill="none" stroke="grey" stroke-width="2" d="M2223.05,-367.9C2231.63,-364.15 2240.27,-359.84 2248,-355 2255.14,-350.53 2262.19,-344.85 2268.5,-339.18"/>
<polygon fill="grey" stroke="grey" stroke-width="2" points="2271.14,-341.51 2276.02,-332.1 2266.34,-336.41 2271.14,-341.51"/>
</g>
<!-- 45&#45;&gt;59 -->
<g id="edge122" class="edge">
<title>45&#45;&gt;59</title>
<path fill="none" stroke="grey" stroke-width="2" d="M2173.49,-367.7C2173.71,-359.98 2173.98,-350.71 2174.23,-342.11"/>
<polygon fill="grey" stroke="grey" stroke-width="2" points="2177.72,-342.2 2174.51,-332.1 2170.73,-342 2177.72,-342.2"/>
</g>
<!-- 45&#45;&gt;0 -->
<g id="edge120" class="edge">
<title>45&#45;&gt;0</title>
<path fill="none" stroke="grey" stroke-width="2" d="M2259.84,-369.2C2296.64,-362.4 2331.33,-355.81 2332,-355 2369.16,-310.18 2368.99,-268.96 2332,-224 2302.97,-188.72 2166.6,-176.57 2099.49,-172.69"/>
<polygon fill="grey" stroke="grey" stroke-width="2" points="2099.52,-169.18 2089.34,-172.13 2099.14,-176.17 2099.52,-169.18"/>
</g>
<!-- 49&#45;&gt;53 -->
<g id="edge125" class="edge">
<title>49&#45;&gt;53</title>
<path fill="none" stroke="grey" stroke-width="2" d="M2142.78,-476.2C2126.13,-487.05 2103.34,-499.8 2081,-505.5 2047.63,-514.02 1805.42,-506.67 1771,-505.5 1565.23,-498.51 1325.93,-479.95 1187.72,-468.21"/>
<polygon fill="grey" stroke="grey" stroke-width="2" points="1187.8,-464.7 1177.54,-467.34 1187.21,-471.68 1187.8,-464.7"/>
</g>
<!-- 49&#45;&gt;45 -->
<g id="edge67" class="edge">
<title>49&#45;&gt;45</title>
<path fill="none" stroke="grey" stroke-width="2" d="M2169.24,-439.7C2169.79,-431.98 2170.45,-422.71 2171.06,-414.11"/>
<polygon fill="grey" stroke="grey" stroke-width="2" points="2174.56,-414.33 2171.78,-404.1 2167.57,-413.83 2174.56,-414.33"/>
</g>
<!-- 49&#45;&gt;51 -->
<g id="edge68" class="edge">
<title>49&#45;&gt;51</title>
<path fill="none" stroke="grey" stroke-width="2" d="M2232.25,-442.88C2236.9,-441.9 2241.52,-440.93 2246,-440 2305.87,-427.62 2373.35,-414.42 2425.99,-404.29"/>
<polygon fill="grey" stroke="grey" stroke-width="2" points="2426.82,-407.7 2435.98,-402.38 2425.5,-400.83 2426.82,-407.7"/>
</g>
<!-- 49&#45;&gt;54 -->
<g id="edge69" class="edge">
<title>49&#45;&gt;54</title>
<path fill="none" stroke="grey" stroke-width="2" d="M2212.03,-439.88C2236.97,-430.18 2268.34,-417.98 2294.66,-407.74"/>
<polygon fill="grey" stroke="grey" stroke-width="2" points="2296.06,-410.95 2304.11,-404.07 2293.52,-404.43 2296.06,-410.95"/>
</g>
<!-- 51&#45;&gt;0 -->
<g id="edge127" class="edge">
<title>51&#45;&gt;0</title>
<path fill="none" stroke="grey" stroke-width="2" d="M2507.77,-367.95C2488.56,-334.24 2440.76,-259.3 2378,-224 2330.75,-197.42 2172.26,-180.59 2099.32,-174.07"/>
<polygon fill="grey" stroke="grey" stroke-width="2" points="2099.47,-170.57 2089.2,-173.19 2098.86,-177.55 2099.47,-170.57"/>
</g>
<!-- 54&#45;&gt;56 -->
<g id="edge131" class="edge">
<title>54&#45;&gt;56</title>
<path fill="none" stroke="grey" stroke-width="2" d="M2334.16,-367.7C2327.51,-359.39 2319.42,-349.28 2312.11,-340.14"/>
<polygon fill="grey" stroke="grey" stroke-width="2" points="2314.66,-337.73 2305.68,-332.1 2309.2,-342.1 2314.66,-337.73"/>
</g>
<!-- 54&#45;&gt;0 -->
<g id="edge130" class="edge">
<title>54&#45;&gt;0</title>
<path fill="none" stroke="grey" stroke-width="2" d="M2355.66,-367.94C2368.92,-335.55 2391.49,-264.71 2356,-224 2322.93,-186.07 2171.09,-175.19 2099.52,-172.15"/>
<polygon fill="grey" stroke="grey" stroke-width="2" points="2099.29,-168.63 2089.16,-171.74 2099.01,-175.63 2099.29,-168.63"/>
</g>
</g>
</svg>
