<?xml version="1.0" encoding="UTF-8" standalone="no"?>
<!DOCTYPE svg PUBLIC "-//W3C//DTD SVG 1.1//EN"
 "http://www.w3.org/Graphics/SVG/1.1/DTD/svg11.dtd">
<!-- Generated by graphviz version 2.43.0 (0)
 -->
<!-- Pages: 1 -->
<svg width="583pt" height="196pt"
 viewBox="0.00 0.00 583.00 196.00" xmlns="http://www.w3.org/2000/svg" xmlns:xlink="http://www.w3.org/1999/xlink">
<g id="graph0" class="graph" transform="scale(1 1) rotate(0) translate(4 192)">
<polygon fill="white" stroke="transparent" points="-4,4 -4,-192 579,-192 579,4 -4,4"/>
<g id="clust1" class="cluster">
<title>cluster_0</title>
<polygon fill="white" stroke="blue" points="8,-8 8,-139 469,-139 469,-8 8,-8"/>
<text text-anchor="middle" x="238.5" y="-123.8" font-family="Times,serif" font-size="14.00">qc</text>
</g>
<!-- 58 -->
<g id="node1" class="node">
<title>58</title>
<path fill="none" stroke="#68d856" stroke-width="2" d="M222.5,-116C222.5,-116 133.5,-116 133.5,-116 127.5,-116 121.5,-110 121.5,-104 121.5,-104 121.5,-92 121.5,-92 121.5,-86 127.5,-80 133.5,-80 133.5,-80 222.5,-80 222.5,-80 228.5,-80 234.5,-86 234.5,-92 234.5,-92 234.5,-104 234.5,-104 234.5,-110 228.5,-116 222.5,-116"/>
<text text-anchor="middle" x="178" y="-95.5" font-family="sans" font-size="10.00">qc_reg_to_template</text>
</g>
<!-- 59 -->
<g id="node2" class="node">
<title>59</title>
<path fill="none" stroke="#567bd8" stroke-width="2" d="M456.5,-116C456.5,-116 409.5,-116 409.5,-116 403.5,-116 397.5,-110 397.5,-104 397.5,-104 397.5,-92 397.5,-92 397.5,-86 403.5,-80 409.5,-80 409.5,-80 456.5,-80 456.5,-80 462.5,-80 468.5,-86 468.5,-92 468.5,-92 468.5,-104 468.5,-104 468.5,-110 462.5,-116 456.5,-116"/>
<text text-anchor="middle" x="433" y="-95.5" font-family="sans" font-size="10.00">qc_subfield</text>
</g>
<!-- 60 -->
<g id="node3" class="node">
<title>60</title>
<path fill="none" stroke="#56d8c9" stroke-width="2" d="M91.5,-116C91.5,-116 20.5,-116 20.5,-116 14.5,-116 8.5,-110 8.5,-104 8.5,-104 8.5,-92 8.5,-92 8.5,-86 14.5,-80 20.5,-80 20.5,-80 91.5,-80 91.5,-80 97.5,-80 103.5,-86 103.5,-92 103.5,-92 103.5,-104 103.5,-104 103.5,-110 97.5,-116 91.5,-116"/>
<text text-anchor="middle" x="56" y="-95.5" font-family="sans" font-size="10.00">qc_subfield_surf</text>
</g>
<!-- 61 -->
<g id="node4" class="node">
<title>61</title>
<path fill="none" stroke="#d89c56" stroke-width="2" d="M359,-44C359,-44 273,-44 273,-44 267,-44 261,-38 261,-32 261,-32 261,-20 261,-20 261,-14 267,-8 273,-8 273,-8 359,-8 359,-8 365,-8 371,-14 371,-20 371,-20 371,-32 371,-32 371,-38 365,-44 359,-44"/>
<text text-anchor="middle" x="316" y="-23.5" font-family="sans" font-size="10.00">plot_subj_subfields</text>
</g>
<!-- 62 -->
<g id="node5" class="node">
<title>62</title>
<path fill="none" stroke="#97d856" stroke-width="2" d="M367.5,-116C367.5,-116 264.5,-116 264.5,-116 258.5,-116 252.5,-110 252.5,-104 252.5,-104 252.5,-92 252.5,-92 252.5,-86 258.5,-80 264.5,-80 264.5,-80 367.5,-80 367.5,-80 373.5,-80 379.5,-86 379.5,-92 379.5,-92 379.5,-104 379.5,-104 379.5,-110 373.5,-116 367.5,-116"/>
<text text-anchor="middle" x="316" y="-95.5" font-family="sans" font-size="10.00">get_subfield_vols_subj</text>
</g>
<!-- 62&#45;&gt;61 -->
<g id="edge1" class="edge">
<title>62&#45;&gt;61</title>
<path fill="none" stroke="grey" stroke-width="2" d="M316,-79.7C316,-71.98 316,-62.71 316,-54.11"/>
<polygon fill="grey" stroke="grey" stroke-width="2" points="319.5,-54.1 316,-44.1 312.5,-54.1 319.5,-54.1"/>
</g>
<!-- 5 -->
<g id="node6" class="node">
<title>5</title>
<path fill="none" stroke="#5673d8" stroke-width="2" d="M98.5,-188C98.5,-188 13.5,-188 13.5,-188 7.5,-188 1.5,-182 1.5,-176 1.5,-176 1.5,-164 1.5,-164 1.5,-158 7.5,-152 13.5,-152 13.5,-152 98.5,-152 98.5,-152 104.5,-152 110.5,-158 110.5,-164 110.5,-164 110.5,-176 110.5,-176 110.5,-182 104.5,-188 98.5,-188"/>
<text text-anchor="middle" x="56" y="-167.5" font-family="sans" font-size="10.00">warp_gii_to_native</text>
</g>
<!-- 5&#45;&gt;60 -->
<g id="edge2" class="edge">
<title>5&#45;&gt;60</title>
<path fill="none" stroke="grey" stroke-width="2" d="M56,-151.7C56,-143.98 56,-134.71 56,-126.11"/>
<polygon fill="grey" stroke="grey" stroke-width="2" points="59.5,-126.1 56,-116.1 52.5,-126.1 59.5,-126.1"/>
</g>
<!-- 28 -->
<g id="node7" class="node">
<title>28</title>
<path fill="none" stroke="#56d863" stroke-width="2" d="M213.5,-188C213.5,-188 140.5,-188 140.5,-188 134.5,-188 128.5,-182 128.5,-176 128.5,-176 128.5,-164 128.5,-164 128.5,-158 134.5,-152 140.5,-152 140.5,-152 213.5,-152 213.5,-152 219.5,-152 225.5,-158 225.5,-164 225.5,-164 225.5,-176 225.5,-176 225.5,-182 219.5,-188 213.5,-188"/>
<text text-anchor="middle" x="177" y="-167.5" font-family="sans" font-size="10.00">reg_to_template</text>
</g>
<!-- 28&#45;&gt;58 -->
<g id="edge3" class="edge">
<title>28&#45;&gt;58</title>
<path fill="none" stroke="grey" stroke-width="2" d="M177.25,-151.7C177.36,-143.98 177.49,-134.71 177.61,-126.11"/>
<polygon fill="grey" stroke="grey" stroke-width="2" points="181.11,-126.15 177.76,-116.1 174.11,-126.05 181.11,-126.15"/>
</g>
<!-- 48 -->
<g id="node8" class="node">
<title>48</title>
<path fill="none" stroke="#56d88a" stroke-width="2" d="M404.5,-188C404.5,-188 255.5,-188 255.5,-188 249.5,-188 243.5,-182 243.5,-176 243.5,-176 243.5,-164 243.5,-164 243.5,-158 249.5,-152 255.5,-152 255.5,-152 404.5,-152 404.5,-152 410.5,-152 416.5,-158 416.5,-164 416.5,-164 416.5,-176 416.5,-176 416.5,-182 410.5,-188 404.5,-188"/>
<text text-anchor="middle" x="330" y="-167.5" font-family="sans" font-size="10.00">resample_subfields_native_crop</text>
</g>
<!-- 48&#45;&gt;59 -->
<g id="edge4" class="edge">
<title>48&#45;&gt;59</title>
<path fill="none" stroke="grey" stroke-width="2" d="M366.39,-151.95C373.74,-148.02 381.27,-143.62 388,-139 394.91,-134.26 401.9,-128.56 408.25,-122.98"/>
<polygon fill="grey" stroke="grey" stroke-width="2" points="410.84,-125.35 415.89,-116.04 406.13,-120.17 410.84,-125.35"/>
</g>
<!-- 48&#45;&gt;62 -->
<g id="edge5" class="edge">
<title>48&#45;&gt;62</title>
<path fill="none" stroke="grey" stroke-width="2" d="M326.54,-151.7C325,-143.98 323.14,-134.71 321.42,-126.11"/>
<polygon fill="grey" stroke="grey" stroke-width="2" points="324.81,-125.22 319.42,-116.1 317.95,-126.6 324.81,-125.22"/>
</g>
<!-- 57 -->
<g id="node9" class="node">
<title>57</title>
<path fill="none" stroke="#56c1d8" stroke-width="2" d="M563,-188C563,-188 447,-188 447,-188 441,-188 435,-182 435,-176 435,-176 435,-164 435,-164 435,-158 441,-152 447,-152 447,-152 563,-152 563,-152 569,-152 575,-158 575,-164 575,-164 575,-176 575,-176 575,-182 569,-188 563,-188"/>
<text text-anchor="middle" x="505" y="-167.5" font-family="sans" font-size="10.00">resample_native_to_crop</text>
</g>
<!-- 57&#45;&gt;59 -->
<g id="edge6" class="edge">
<title>57&#45;&gt;59</title>
<path fill="none" stroke="grey" stroke-width="2" d="M487.2,-151.7C478.4,-143.14 467.62,-132.66 458,-123.3"/>
<polygon fill="grey" stroke="grey" stroke-width="2" points="460.2,-120.57 450.59,-116.1 455.32,-125.58 460.2,-120.57"/>
</g>
</g>
</svg>
