<?xml version="1.0" encoding="UTF-8" standalone="no"?>
<!DOCTYPE svg PUBLIC "-//W3C//DTD SVG 1.1//EN"
 "http://www.w3.org/Graphics/SVG/1.1/DTD/svg11.dtd">
<!-- Generated by graphviz version 2.43.0 (0)
 -->
<!-- Pages: 1 -->
<svg width="390pt" height="443pt"
 viewBox="0.00 0.00 389.50 443.00" xmlns="http://www.w3.org/2000/svg" xmlns:xlink="http://www.w3.org/1999/xlink">
<g id="graph0" class="graph" transform="scale(1 1) rotate(0) translate(4 439)">
<polygon fill="white" stroke="transparent" points="-4,4 -4,-439 385.5,-439 385.5,4 -4,4"/>
<g id="clust1" class="cluster">
<title>cluster_0</title>
<polygon fill="white" stroke="blue" points="8,-8 8,-427 298,-427 298,-8 8,-8"/>
<text text-anchor="middle" x="153" y="-411.8" font-family="Times,serif" font-size="14.00">shape_inject</text>
</g>
<!-- 13 -->
<g id="node1" class="node">
<title>13</title>
<path fill="none" stroke="#56d85b" stroke-width="2" d="M205.5,-116C205.5,-116 100.5,-116 100.5,-116 94.5,-116 88.5,-110 88.5,-104 88.5,-104 88.5,-92 88.5,-92 88.5,-86 94.5,-80 100.5,-80 100.5,-80 205.5,-80 205.5,-80 211.5,-80 217.5,-86 217.5,-92 217.5,-92 217.5,-104 217.5,-104 217.5,-110 211.5,-116 205.5,-116"/>
<text text-anchor="middle" x="153" y="-95.5" font-family="sans" font-size="10.00">reinsert_subject_labels</text>
</g>
<!-- 47 -->
<g id="node2" class="node">
<title>47</title>
<path fill="none" stroke="#56d8c1" stroke-width="2" d="M186.5,-44C186.5,-44 119.5,-44 119.5,-44 113.5,-44 107.5,-38 107.5,-32 107.5,-32 107.5,-20 107.5,-20 107.5,-14 113.5,-8 119.5,-8 119.5,-8 186.5,-8 186.5,-8 192.5,-8 198.5,-14 198.5,-20 198.5,-20 198.5,-32 198.5,-32 198.5,-38 192.5,-44 186.5,-44"/>
<text text-anchor="middle" x="153" y="-23.5" font-family="sans" font-size="10.00">unflip_postproc</text>
</g>
<!-- 13&#45;&gt;47 -->
<g id="edge1" class="edge">
<title>13&#45;&gt;47</title>
<path fill="none" stroke="grey" stroke-width="2" d="M153,-79.7C153,-71.98 153,-62.71 153,-54.11"/>
<polygon fill="grey" stroke="grey" stroke-width="2" points="156.5,-54.1 153,-44.1 149.5,-54.1 156.5,-54.1"/>
</g>
<!-- 14 -->
<g id="node3" class="node">
<title>14</title>
<path fill="none" stroke="#568ad8" stroke-width="2" d="M124,-188C124,-188 20,-188 20,-188 14,-188 8,-182 8,-176 8,-176 8,-164 8,-164 8,-158 14,-152 20,-152 20,-152 124,-152 124,-152 130,-152 136,-158 136,-164 136,-164 136,-176 136,-176 136,-182 130,-188 124,-188"/>
<text text-anchor="middle" x="72" y="-167.5" font-family="sans" font-size="10.00">template_shape_inject</text>
</g>
<!-- 14&#45;&gt;13 -->
<g id="edge2" class="edge">
<title>14&#45;&gt;13</title>
<path fill="none" stroke="grey" stroke-width="2" d="M92.02,-151.7C102.13,-142.97 114.54,-132.24 125.52,-122.75"/>
<polygon fill="grey" stroke="grey" stroke-width="2" points="127.93,-125.29 133.21,-116.1 123.35,-119.99 127.93,-125.29"/>
</g>
<!-- 15 -->
<g id="node4" class="node">
<title>15</title>
<path fill="none" stroke="#d87d56" stroke-width="2" d="M174.5,-404C174.5,-404 65.5,-404 65.5,-404 59.5,-404 53.5,-398 53.5,-392 53.5,-392 53.5,-380 53.5,-380 53.5,-374 59.5,-368 65.5,-368 65.5,-368 174.5,-368 174.5,-368 180.5,-368 186.5,-374 186.5,-380 186.5,-380 186.5,-392 186.5,-392 186.5,-398 180.5,-404 174.5,-404"/>
<text text-anchor="middle" x="120" y="-383.5" font-family="sans" font-size="10.00">import_template_shape</text>
</g>
<!-- 15&#45;&gt;14 -->
<g id="edge3" class="edge">
<title>15&#45;&gt;14</title>
<path fill="none" stroke="grey" stroke-width="2" d="M108.72,-367.56C102.78,-357.54 95.94,-344.51 92,-332 77.72,-286.62 73.58,-231.03 72.41,-198.47"/>
<polygon fill="grey" stroke="grey" stroke-width="2" points="75.91,-198.25 72.12,-188.35 68.91,-198.45 75.91,-198.25"/>
</g>
<!-- 27 -->
<g id="node5" class="node">
<title>27</title>
<path fill="none" stroke="#d89556" stroke-width="2" d="M213,-332C213,-332 113,-332 113,-332 107,-332 101,-326 101,-320 101,-320 101,-308 101,-308 101,-302 107,-296 113,-296 113,-296 213,-296 213,-296 219,-296 225,-302 225,-308 225,-308 225,-320 225,-320 225,-326 219,-332 213,-332"/>
<text text-anchor="middle" x="163" y="-311.5" font-family="sans" font-size="10.00">prep_segs_for_greedy</text>
</g>
<!-- 15&#45;&gt;27 -->
<g id="edge4" class="edge">
<title>15&#45;&gt;27</title>
<path fill="none" stroke="grey" stroke-width="2" d="M130.63,-367.7C135.63,-359.56 141.69,-349.69 147.21,-340.7"/>
<polygon fill="grey" stroke="grey" stroke-width="2" points="150.24,-342.46 152.49,-332.1 144.28,-338.79 150.24,-342.46"/>
</g>
<!-- 26 -->
<g id="node6" class="node">
<title>26</title>
<path fill="none" stroke="#d89c56" stroke-width="2" d="M209,-260C209,-260 117,-260 117,-260 111,-260 105,-254 105,-248 105,-248 105,-236 105,-236 105,-230 111,-224 117,-224 117,-224 209,-224 209,-224 215,-224 221,-230 221,-236 221,-236 221,-248 221,-248 221,-254 215,-260 209,-260"/>
<text text-anchor="middle" x="163" y="-239.5" font-family="sans" font-size="10.00">template_shape_reg</text>
</g>
<!-- 27&#45;&gt;26 -->
<g id="edge7" class="edge">
<title>27&#45;&gt;26</title>
<path fill="none" stroke="grey" stroke-width="2" d="M163,-295.7C163,-287.98 163,-278.71 163,-270.11"/>
<polygon fill="grey" stroke="grey" stroke-width="2" points="166.5,-270.1 163,-260.1 159.5,-270.1 166.5,-270.1"/>
</g>
<!-- 26&#45;&gt;14 -->
<g id="edge5" class="edge">
<title>26&#45;&gt;14</title>
<path fill="none" stroke="grey" stroke-width="2" d="M140.51,-223.7C129.04,-214.88 114.94,-204.03 102.52,-194.47"/>
<polygon fill="grey" stroke="grey" stroke-width="2" points="104.3,-191.43 94.24,-188.1 100.03,-196.98 104.3,-191.43"/>
</g>
<!-- 28 -->
<g id="node7" class="node">
<title>28</title>
<path fill="none" stroke="#565bd8" stroke-width="2" d="M285.5,-188C285.5,-188 166.5,-188 166.5,-188 160.5,-188 154.5,-182 154.5,-176 154.5,-176 154.5,-164 154.5,-164 154.5,-158 160.5,-152 166.5,-152 166.5,-152 285.5,-152 285.5,-152 291.5,-152 297.5,-158 297.5,-164 297.5,-164 297.5,-176 297.5,-176 297.5,-182 291.5,-188 285.5,-188"/>
<text text-anchor="middle" x="226" y="-167.5" font-family="sans" font-size="10.00">inject_init_laplace_coords</text>
</g>
<!-- 26&#45;&gt;28 -->
<g id="edge6" class="edge">
<title>26&#45;&gt;28</title>
<path fill="none" stroke="grey" stroke-width="2" d="M178.57,-223.7C186.2,-215.22 195.52,-204.86 203.88,-195.58"/>
<polygon fill="grey" stroke="grey" stroke-width="2" points="206.52,-197.88 210.61,-188.1 201.31,-193.2 206.52,-197.88"/>
</g>
<!-- 16 -->
<g id="node8" class="node">
<title>16</title>
<path fill="none" stroke="#d85e56" stroke-width="2" d="M369.5,-404C369.5,-404 310.5,-404 310.5,-404 304.5,-404 298.5,-398 298.5,-392 298.5,-392 298.5,-380 298.5,-380 298.5,-374 304.5,-368 310.5,-368 310.5,-368 369.5,-368 369.5,-368 375.5,-368 381.5,-374 381.5,-380 381.5,-380 381.5,-392 381.5,-392 381.5,-398 375.5,-404 369.5,-404"/>
<text text-anchor="middle" x="340" y="-383.5" font-family="sans" font-size="10.00">run_inference</text>
</g>
<!-- 16&#45;&gt;13 -->
<g id="edge8" class="edge">
<title>16&#45;&gt;13</title>
<path fill="none" stroke="grey" stroke-width="2" d="M343.08,-367.71C349.56,-325.53 359.92,-216.12 307,-152 287.44,-128.3 256.73,-115.17 227.86,-107.91"/>
<polygon fill="grey" stroke="grey" stroke-width="2" points="228.28,-104.41 217.75,-105.58 226.71,-111.23 228.28,-104.41"/>
</g>
<!-- 16&#45;&gt;14 -->
<g id="edge9" class="edge">
<title>16&#45;&gt;14</title>
<path fill="none" stroke="grey" stroke-width="2" d="M325.93,-367.63C317.82,-357.43 307.57,-344.18 299,-332 266.21,-285.43 274.89,-259.06 230,-224 216.25,-213.26 180.39,-200.88 146.31,-190.79"/>
<polygon fill="grey" stroke="grey" stroke-width="2" points="146.87,-187.3 136.29,-187.87 144.91,-194.02 146.87,-187.3"/>
</g>
<!-- 16&#45;&gt;27 -->
<g id="edge10" class="edge">
<title>16&#45;&gt;27</title>
<path fill="none" stroke="grey" stroke-width="2" d="M298.05,-368.41C273.38,-358.65 241.96,-346.23 215.63,-335.81"/>
<polygon fill="grey" stroke="grey" stroke-width="2" points="216.77,-332.5 206.18,-332.08 214.2,-339.01 216.77,-332.5"/>
</g>
<!-- 16&#45;&gt;28 -->
<g id="edge11" class="edge">
<title>16&#45;&gt;28</title>
<path fill="none" stroke="grey" stroke-width="2" d="M333.01,-367.94C318.2,-332.05 283.72,-249.92 268,-224 262.19,-214.42 254.87,-204.61 247.97,-196.08"/>
<polygon fill="grey" stroke="grey" stroke-width="2" points="250.63,-193.8 241.56,-188.34 245.24,-198.27 250.63,-193.8"/>
</g>
</g>
</svg>
