<?xml version="1.0" encoding="UTF-8" standalone="no"?>
<!DOCTYPE svg PUBLIC "-//W3C//DTD SVG 1.1//EN"
 "http://www.w3.org/Graphics/SVG/1.1/DTD/svg11.dtd">
<!-- Generated by graphviz version 2.43.0 (0)
 -->
<!-- Pages: 1 -->
<svg width="231pt" height="435pt"
 viewBox="0.00 0.00 231.00 435.00" xmlns="http://www.w3.org/2000/svg" xmlns:xlink="http://www.w3.org/1999/xlink">
<g id="graph0" class="graph" transform="scale(1 1) rotate(0) translate(4 431)">
<polygon fill="white" stroke="transparent" points="-4,4 -4,-431 227,-431 227,4 -4,4"/>
<g id="clust1" class="cluster">
<title>cluster_0</title>
<polygon fill="white" stroke="blue" points="8,-72 8,-419 215,-419 215,-72 8,-72"/>
<text text-anchor="middle" x="111.5" y="-403.8" font-family="Times,serif" font-size="14.00">preproc_t1</text>
</g>
<!-- 24 -->
<g id="node1" class="node">
<title>24</title>
<path fill="none" stroke="#56d8c1" stroke-width="2" d="M81,-324C81,-324 51,-324 51,-324 45,-324 39,-318 39,-312 39,-312 39,-300 39,-300 39,-294 45,-288 51,-288 51,-288 81,-288 81,-288 87,-288 93,-294 93,-300 93,-300 93,-312 93,-312 93,-318 87,-324 81,-324"/>
<text text-anchor="middle" x="66" y="-303.5" font-family="sans" font-size="10.00">n4_t1</text>
</g>
<!-- 28 -->
<g id="node2" class="node">
<title>28</title>
<path fill="none" stroke="#56d863" stroke-width="2" d="M115.5,-252C115.5,-252 42.5,-252 42.5,-252 36.5,-252 30.5,-246 30.5,-240 30.5,-240 30.5,-228 30.5,-228 30.5,-222 36.5,-216 42.5,-216 42.5,-216 115.5,-216 115.5,-216 121.5,-216 127.5,-222 127.5,-228 127.5,-228 127.5,-240 127.5,-240 127.5,-246 121.5,-252 115.5,-252"/>
<text text-anchor="middle" x="79" y="-231.5" font-family="sans" font-size="10.00">reg_to_template</text>
</g>
<!-- 24&#45;&gt;28 -->
<g id="edge1" class="edge">
<title>24&#45;&gt;28</title>
<path fill="none" stroke="grey" stroke-width="2" d="M69.21,-287.7C70.65,-279.98 72.37,-270.71 73.96,-262.11"/>
<polygon fill="grey" stroke="grey" stroke-width="2" points="77.44,-262.58 75.82,-252.1 70.56,-261.3 77.44,-262.58"/>
</g>
<!-- 27 -->
<g id="node5" class="node">
<title>27</title>
<path fill="none" stroke="#565bd8" stroke-width="2" d="M163.5,-180C163.5,-180 20.5,-180 20.5,-180 14.5,-180 8.5,-174 8.5,-168 8.5,-168 8.5,-156 8.5,-156 8.5,-150 14.5,-144 20.5,-144 20.5,-144 163.5,-144 163.5,-144 169.5,-144 175.5,-150 175.5,-156 175.5,-156 175.5,-168 175.5,-168 175.5,-174 169.5,-180 163.5,-180"/>
<text text-anchor="middle" x="92" y="-159.5" font-family="sans" font-size="10.00">convert_template_xfm_ras2itk</text>
</g>
<!-- 28&#45;&gt;27 -->
<g id="edge4" class="edge">
<title>28&#45;&gt;27</title>
<path fill="none" stroke="grey" stroke-width="2" d="M82.21,-215.7C83.65,-207.98 85.37,-198.71 86.96,-190.11"/>
<polygon fill="grey" stroke="grey" stroke-width="2" points="90.44,-190.58 88.82,-180.1 83.56,-189.3 90.44,-190.58"/>
</g>
<!-- 25 -->
<g id="node3" class="node">
<title>25</title>
<path fill="none" stroke="#568ad8" stroke-width="2" d="M60,-396C60,-396 20,-396 20,-396 14,-396 8,-390 8,-384 8,-384 8,-372 8,-372 8,-366 14,-360 20,-360 20,-360 60,-360 60,-360 66,-360 72,-366 72,-372 72,-372 72,-384 72,-384 72,-390 66,-396 60,-396"/>
<text text-anchor="middle" x="40" y="-375.5" font-family="sans" font-size="10.00">import_t1</text>
</g>
<!-- 25&#45;&gt;24 -->
<g id="edge2" class="edge">
<title>25&#45;&gt;24</title>
<path fill="none" stroke="grey" stroke-width="2" d="M46.43,-359.7C49.36,-351.81 52.89,-342.3 56.14,-333.55"/>
<polygon fill="grey" stroke="grey" stroke-width="2" points="59.45,-334.7 59.65,-324.1 52.88,-332.26 59.45,-334.7"/>
</g>
<!-- 26 -->
<g id="node4" class="node">
<title>26</title>
<path fill="none" stroke="#56d8a9" stroke-width="2" d="M166,-108C166,-108 20,-108 20,-108 14,-108 8,-102 8,-96 8,-96 8,-84 8,-84 8,-78 14,-72 20,-72 20,-72 166,-72 166,-72 172,-72 178,-78 178,-84 178,-84 178,-96 178,-96 178,-102 172,-108 166,-108"/>
<text text-anchor="middle" x="93" y="-87.5" font-family="sans" font-size="10.00">compose_template_xfm_corobl</text>
</g>
<!-- 22 -->
<g id="node7" class="node">
<title>22</title>
<path fill="none" stroke="#56c9d8" stroke-width="2" d="M205,-36C205,-36 93,-36 93,-36 87,-36 81,-30 81,-24 81,-24 81,-12 81,-12 81,-6 87,0 93,0 93,0 205,0 205,0 211,0 217,-6 217,-12 217,-12 217,-24 217,-24 217,-30 211,-36 205,-36"/>
<text text-anchor="middle" x="149" y="-15.5" font-family="sans" font-size="10.00">compose_t2_xfm_corobl</text>
</g>
<!-- 26&#45;&gt;22 -->
<g id="edge6" class="edge">
<title>26&#45;&gt;22</title>
<path fill="none" stroke="grey" stroke-width="2" d="M106.84,-71.7C113.49,-63.39 121.58,-53.28 128.89,-44.14"/>
<polygon fill="grey" stroke="grey" stroke-width="2" points="131.8,-46.1 135.32,-36.1 126.34,-41.73 131.8,-46.1"/>
</g>
<!-- 27&#45;&gt;26 -->
<g id="edge3" class="edge">
<title>27&#45;&gt;26</title>
<path fill="none" stroke="grey" stroke-width="2" d="M92.25,-143.7C92.36,-135.98 92.49,-126.71 92.61,-118.11"/>
<polygon fill="grey" stroke="grey" stroke-width="2" points="96.11,-118.15 92.76,-108.1 89.11,-118.05 96.11,-118.15"/>
</g>
<!-- 38 -->
<g id="node6" class="node">
<title>38</title>
<path fill="none" stroke="#d85e56" stroke-width="2" d="M203.5,-396C203.5,-396 102.5,-396 102.5,-396 96.5,-396 90.5,-390 90.5,-384 90.5,-384 90.5,-372 90.5,-372 90.5,-366 96.5,-360 102.5,-360 102.5,-360 203.5,-360 203.5,-360 209.5,-360 215.5,-366 215.5,-372 215.5,-372 215.5,-384 215.5,-384 215.5,-390 209.5,-396 203.5,-396"/>
<text text-anchor="middle" x="153" y="-375.5" font-family="sans" font-size="10.00">template_xfm_itk2ras</text>
</g>
<!-- 22&#45;&gt;38 -->
<g id="edge5" class="edge">
<title>22&#45;&gt;38</title>
<path fill="none" stroke="grey" stroke-width="2" d="M163.98,-36.03C171.94,-45.91 181.23,-58.95 187,-72 203.35,-108.99 206,-120.55 206,-161 206,-235 206,-235 206,-235 206,-277.79 184.61,-323.52 169.01,-351.18"/>
<polygon fill="grey" stroke="grey" stroke-width="2" points="165.98,-349.44 163.98,-359.84 172.03,-352.95 165.98,-349.44"/>
</g>
</g>
</svg>
