<?xml version="1.0" encoding="UTF-8" standalone="no"?>
<!DOCTYPE svg PUBLIC "-//W3C//DTD SVG 1.1//EN"
 "http://www.w3.org/Graphics/SVG/1.1/DTD/svg11.dtd">
<!-- Generated by graphviz version 2.43.0 (0)
 -->
<!-- Pages: 1 -->
<svg width="342pt" height="515pt"
 viewBox="0.00 0.00 342.00 515.00" xmlns="http://www.w3.org/2000/svg" xmlns:xlink="http://www.w3.org/1999/xlink">
<g id="graph0" class="graph" transform="scale(1 1) rotate(0) translate(4 511)">
<polygon fill="white" stroke="transparent" points="-4,4 -4,-511 338,-511 338,4 -4,4"/>
<g id="clust1" class="cluster">
<title>cluster_0</title>
<polygon fill="white" stroke="blue" points="8,-8 8,-499 164,-499 164,-8 8,-8"/>
<text text-anchor="middle" x="86" y="-483.8" font-family="Times,serif" font-size="14.00">preproc_t2</text>
</g>
<!-- 17 -->
<g id="node1" class="node">
<title>17</title>
<path fill="none" stroke="#56a2d8" stroke-width="2" d="M102.5,-44C102.5,-44 67.5,-44 67.5,-44 61.5,-44 55.5,-38 55.5,-32 55.5,-32 55.5,-20 55.5,-20 55.5,-14 61.5,-8 67.5,-8 67.5,-8 102.5,-8 102.5,-8 108.5,-8 114.5,-14 114.5,-20 114.5,-20 114.5,-32 114.5,-32 114.5,-38 108.5,-44 102.5,-44"/>
<text text-anchor="middle" x="85" y="-23.5" font-family="sans" font-size="10.00">lr_flip_t2</text>
</g>
<!-- 18 -->
<g id="node2" class="node">
<title>18</title>
<path fill="none" stroke="#59d856" stroke-width="2" d="M139,-116C139,-116 31,-116 31,-116 25,-116 19,-110 19,-104 19,-104 19,-92 19,-92 19,-86 25,-80 31,-80 31,-80 139,-80 139,-80 145,-80 151,-86 151,-92 151,-92 151,-104 151,-104 151,-110 145,-116 139,-116"/>
<text text-anchor="middle" x="85" y="-95.5" font-family="sans" font-size="10.00">warp_t2_to_corobl_crop</text>
</g>
<!-- 18&#45;&gt;17 -->
<g id="edge1" class="edge">
<title>18&#45;&gt;17</title>
<path fill="none" stroke="grey" stroke-width="2" d="M85,-79.7C85,-71.98 85,-62.71 85,-54.11"/>
<polygon fill="grey" stroke="grey" stroke-width="2" points="88.5,-54.1 85,-44.1 81.5,-54.1 88.5,-54.1"/>
</g>
<!-- 19 -->
<g id="node3" class="node">
<title>19</title>
<path fill="none" stroke="#d88556" stroke-width="2" d="M126,-332C126,-332 28,-332 28,-332 22,-332 16,-326 16,-320 16,-320 16,-308 16,-308 16,-302 22,-296 28,-296 28,-296 126,-296 126,-296 132,-296 138,-302 138,-308 138,-308 138,-320 138,-320 138,-326 132,-332 126,-332"/>
<text text-anchor="middle" x="77" y="-311.5" font-family="sans" font-size="10.00">avg_aligned_or_cp_t2</text>
</g>
<!-- 19&#45;&gt;18 -->
<g id="edge2" class="edge">
<title>19&#45;&gt;18</title>
<path fill="none" stroke="grey" stroke-width="2" d="M61.79,-295.62C37.45,-265.58 -5.15,-202.36 19,-152 24.67,-140.18 34.39,-130.17 44.66,-122.14"/>
<polygon fill="grey" stroke="grey" stroke-width="2" points="46.91,-124.83 52.95,-116.12 42.8,-119.16 46.91,-124.83"/>
</g>
<!-- 23 -->
<g id="node4" class="node">
<title>23</title>
<path fill="none" stroke="#d87d56" stroke-width="2" d="M122.5,-260C122.5,-260 69.5,-260 69.5,-260 63.5,-260 57.5,-254 57.5,-248 57.5,-248 57.5,-236 57.5,-236 57.5,-230 63.5,-224 69.5,-224 69.5,-224 122.5,-224 122.5,-224 128.5,-224 134.5,-230 134.5,-236 134.5,-236 134.5,-248 134.5,-248 134.5,-254 128.5,-260 122.5,-260"/>
<text text-anchor="middle" x="96" y="-239.5" font-family="sans" font-size="10.00">reg_t2_to_t1</text>
</g>
<!-- 19&#45;&gt;23 -->
<g id="edge3" class="edge">
<title>19&#45;&gt;23</title>
<path fill="none" stroke="grey" stroke-width="2" d="M81.7,-295.7C83.81,-287.9 86.36,-278.51 88.72,-269.83"/>
<polygon fill="grey" stroke="grey" stroke-width="2" points="92.12,-270.67 91.36,-260.1 85.36,-268.84 92.12,-270.67"/>
</g>
<!-- 22 -->
<g id="node7" class="node">
<title>22</title>
<path fill="none" stroke="#56c9d8" stroke-width="2" d="M152,-188C152,-188 40,-188 40,-188 34,-188 28,-182 28,-176 28,-176 28,-164 28,-164 28,-158 34,-152 40,-152 40,-152 152,-152 152,-152 158,-152 164,-158 164,-164 164,-164 164,-176 164,-176 164,-182 158,-188 152,-188"/>
<text text-anchor="middle" x="96" y="-167.5" font-family="sans" font-size="10.00">compose_t2_xfm_corobl</text>
</g>
<!-- 23&#45;&gt;22 -->
<g id="edge7" class="edge">
<title>23&#45;&gt;22</title>
<path fill="none" stroke="grey" stroke-width="2" d="M96,-223.7C96,-215.98 96,-206.71 96,-198.11"/>
<polygon fill="grey" stroke="grey" stroke-width="2" points="99.5,-198.1 96,-188.1 92.5,-198.1 99.5,-198.1"/>
</g>
<!-- 20 -->
<g id="node5" class="node">
<title>20</title>
<path fill="none" stroke="#56d873" stroke-width="2" d="M92,-404C92,-404 62,-404 62,-404 56,-404 50,-398 50,-392 50,-392 50,-380 50,-380 50,-374 56,-368 62,-368 62,-368 92,-368 92,-368 98,-368 104,-374 104,-380 104,-380 104,-392 104,-392 104,-398 98,-404 92,-404"/>
<text text-anchor="middle" x="77" y="-383.5" font-family="sans" font-size="10.00">n4_t2</text>
</g>
<!-- 20&#45;&gt;19 -->
<g id="edge4" class="edge">
<title>20&#45;&gt;19</title>
<path fill="none" stroke="grey" stroke-width="2" d="M77,-367.7C77,-359.98 77,-350.71 77,-342.11"/>
<polygon fill="grey" stroke="grey" stroke-width="2" points="80.5,-342.1 77,-332.1 73.5,-342.1 80.5,-342.1"/>
</g>
<!-- 21 -->
<g id="node6" class="node">
<title>21</title>
<path fill="none" stroke="#56a9d8" stroke-width="2" d="M97,-476C97,-476 57,-476 57,-476 51,-476 45,-470 45,-464 45,-464 45,-452 45,-452 45,-446 51,-440 57,-440 57,-440 97,-440 97,-440 103,-440 109,-446 109,-452 109,-452 109,-464 109,-464 109,-470 103,-476 97,-476"/>
<text text-anchor="middle" x="77" y="-455.5" font-family="sans" font-size="10.00">import_t2</text>
</g>
<!-- 21&#45;&gt;20 -->
<g id="edge5" class="edge">
<title>21&#45;&gt;20</title>
<path fill="none" stroke="grey" stroke-width="2" d="M77,-439.7C77,-431.98 77,-422.71 77,-414.11"/>
<polygon fill="grey" stroke="grey" stroke-width="2" points="80.5,-414.1 77,-404.1 73.5,-414.1 80.5,-414.1"/>
</g>
<!-- 22&#45;&gt;18 -->
<g id="edge6" class="edge">
<title>22&#45;&gt;18</title>
<path fill="none" stroke="grey" stroke-width="2" d="M93.28,-151.7C92.07,-143.98 90.61,-134.71 89.26,-126.11"/>
<polygon fill="grey" stroke="grey" stroke-width="2" points="92.7,-125.44 87.69,-116.1 85.78,-126.53 92.7,-125.44"/>
</g>
<!-- 24 -->
<g id="node8" class="node">
<title>24</title>
<path fill="none" stroke="#56d8c1" stroke-width="2" d="M206,-332C206,-332 176,-332 176,-332 170,-332 164,-326 164,-320 164,-320 164,-308 164,-308 164,-302 170,-296 176,-296 176,-296 206,-296 206,-296 212,-296 218,-302 218,-308 218,-308 218,-320 218,-320 218,-326 212,-332 206,-332"/>
<text text-anchor="middle" x="191" y="-311.5" font-family="sans" font-size="10.00">n4_t1</text>
</g>
<!-- 24&#45;&gt;23 -->
<g id="edge8" class="edge">
<title>24&#45;&gt;23</title>
<path fill="none" stroke="grey" stroke-width="2" d="M167.52,-295.7C155.44,-286.8 140.55,-275.82 127.48,-266.2"/>
<polygon fill="grey" stroke="grey" stroke-width="2" points="129.34,-263.22 119.21,-260.1 125.19,-268.85 129.34,-263.22"/>
</g>
<!-- 26 -->
<g id="node9" class="node">
<title>26</title>
<path fill="none" stroke="#56d8a9" stroke-width="2" d="M322,-260C322,-260 176,-260 176,-260 170,-260 164,-254 164,-248 164,-248 164,-236 164,-236 164,-230 170,-224 176,-224 176,-224 322,-224 322,-224 328,-224 334,-230 334,-236 334,-236 334,-248 334,-248 334,-254 328,-260 322,-260"/>
<text text-anchor="middle" x="249" y="-239.5" font-family="sans" font-size="10.00">compose_template_xfm_corobl</text>
</g>
<!-- 26&#45;&gt;22 -->
<g id="edge9" class="edge">
<title>26&#45;&gt;22</title>
<path fill="none" stroke="grey" stroke-width="2" d="M211.57,-223.88C190.75,-214.35 164.65,-202.41 142.52,-192.28"/>
<polygon fill="grey" stroke="grey" stroke-width="2" points="143.86,-189.05 133.31,-188.07 140.94,-195.41 143.86,-189.05"/>
</g>
</g>
</svg>
