<?xml version="1.0" encoding="UTF-8" standalone="no"?>
<!DOCTYPE svg PUBLIC "-//W3C//DTD SVG 1.1//EN"
 "http://www.w3.org/Graphics/SVG/1.1/DTD/svg11.dtd">
<!-- Generated by graphviz version 2.43.0 (0)
 -->
<!-- Pages: 1 -->
<svg width="2488pt" height="1451pt"
 viewBox="0.00 0.00 2488.00 1451.00" xmlns="http://www.w3.org/2000/svg" xmlns:xlink="http://www.w3.org/1999/xlink">
<g id="graph0" class="graph" transform="scale(1 1) rotate(0) translate(4 1447)">
<polygon fill="white" stroke="transparent" points="-4,4 -4,-1447 2484,-1447 2484,4 -4,4"/>
<g id="clust1" class="cluster">
<title>cluster_1</title>
<polygon fill="white" stroke="blue" points="268,-1016 268,-1363 475,-1363 475,-1016 268,-1016"/>
<text text-anchor="middle" x="371.5" y="-1347.8" font-family="Times,serif" font-size="14.00">preproc_t1</text>
</g>
<g id="clust4" class="cluster">
<title>cluster_2</title>
<polygon fill="white" stroke="blue" points="2004,-440 2004,-715 2414,-715 2414,-440 2004,-440"/>
<text text-anchor="middle" x="2209" y="-699.8" font-family="Times,serif" font-size="14.00">warps</text>
</g>
<g id="clust5" class="cluster">
<title>cluster_3</title>
<polygon fill="white" stroke="blue" points="864,-224 864,-355 1325,-355 1325,-224 864,-224"/>
<text text-anchor="middle" x="1094.5" y="-339.8" font-family="Times,serif" font-size="14.00">qc</text>
</g>
<g id="clust6" class="cluster">
<title>cluster_5</title>
<polygon fill="white" stroke="blue" points="1462,-584 1462,-787 1886,-787 1886,-584 1462,-584"/>
<text text-anchor="middle" x="1674" y="-771.8" font-family="Times,serif" font-size="14.00">autotop</text>
</g>
<g id="clust9" class="cluster">
<title>cluster_8</title>
<polygon fill="white" stroke="blue" points="574,-944 574,-1435 730,-1435 730,-944 574,-944"/>
<text text-anchor="middle" x="652" y="-1419.8" font-family="Times,serif" font-size="14.00">preproc_t2</text>
</g>
<g id="clust10" class="cluster">
<title>cluster_9</title>
<polygon fill="white" stroke="blue" points="28,-8 28,-715 788,-715 788,-8 28,-8"/>
<text text-anchor="middle" x="408" y="-699.8" font-family="Times,serif" font-size="14.00">gifti</text>
</g>
<g id="clust11" class="cluster">
<title>cluster_11</title>
<polygon fill="white" stroke="blue" points="984,-368 984,-571 1196,-571 1196,-368 984,-368"/>
<text text-anchor="middle" x="1090" y="-555.8" font-family="Times,serif" font-size="14.00">subfields</text>
</g>
<g id="clust12" class="cluster">
<title>cluster_10</title>
<polygon fill="white" stroke="blue" points="1134,-728 1134,-1147 1424,-1147 1424,-728 1134,-728"/>
<text text-anchor="middle" x="1279" y="-1131.8" font-family="Times,serif" font-size="14.00">shape_inject</text>
</g>
<g id="clust13" class="cluster">
<title>cluster_13</title>
<polygon fill="white" stroke="blue" points="1196,-368 1196,-499 1708,-499 1708,-368 1196,-368"/>
<text text-anchor="middle" x="1452" y="-483.8" font-family="Times,serif" font-size="14.00">resample_final_to_crop_native</text>
</g>
<g id="clust14" class="cluster">
<title>cluster_12</title>
<polygon fill="white" stroke="blue" points="730,-728 730,-1003 850,-1003 850,-728 730,-728"/>
<text text-anchor="middle" x="790" y="-987.8" font-family="Times,serif" font-size="14.00">nnunet</text>
</g>
<!-- 24 -->
<g id="node1" class="node">
<title>24</title>
<path fill="none" stroke="#56d8c1" stroke-width="2" d="M458,-1268C458,-1268 428,-1268 428,-1268 422,-1268 416,-1262 416,-1256 416,-1256 416,-1244 416,-1244 416,-1238 422,-1232 428,-1232 428,-1232 458,-1232 458,-1232 464,-1232 470,-1238 470,-1244 470,-1244 470,-1256 470,-1256 470,-1262 464,-1268 458,-1268"/>
<text text-anchor="middle" x="443" y="-1247.5" font-family="sans" font-size="10.00">n4_t1</text>
</g>
<!-- 28 -->
<g id="node2" class="node">
<title>28</title>
<path fill="none" stroke="#56d863" stroke-width="2" d="M417.5,-1196C417.5,-1196 344.5,-1196 344.5,-1196 338.5,-1196 332.5,-1190 332.5,-1184 332.5,-1184 332.5,-1172 332.5,-1172 332.5,-1166 338.5,-1160 344.5,-1160 344.5,-1160 417.5,-1160 417.5,-1160 423.5,-1160 429.5,-1166 429.5,-1172 429.5,-1172 429.5,-1184 429.5,-1184 429.5,-1190 423.5,-1196 417.5,-1196"/>
<text text-anchor="middle" x="381" y="-1175.5" font-family="sans" font-size="10.00">reg_to_template</text>
</g>
<!-- 24&#45;&gt;28 -->
<g id="edge1" class="edge">
<title>24&#45;&gt;28</title>
<path fill="none" stroke="grey" stroke-width="2" d="M427.67,-1231.7C420.24,-1223.3 411.18,-1213.07 403.02,-1203.86"/>
<polygon fill="grey" stroke="grey" stroke-width="2" points="405.4,-1201.27 396.15,-1196.1 400.16,-1205.91 405.4,-1201.27"/>
</g>
<!-- 23 -->
<g id="node28" class="node">
<title>23</title>
<path fill="none" stroke="#d87d56" stroke-width="2" d="M668.5,-1196C668.5,-1196 615.5,-1196 615.5,-1196 609.5,-1196 603.5,-1190 603.5,-1184 603.5,-1184 603.5,-1172 603.5,-1172 603.5,-1166 609.5,-1160 615.5,-1160 615.5,-1160 668.5,-1160 668.5,-1160 674.5,-1160 680.5,-1166 680.5,-1172 680.5,-1172 680.5,-1184 680.5,-1184 680.5,-1190 674.5,-1196 668.5,-1196"/>
<text text-anchor="middle" x="642" y="-1175.5" font-family="sans" font-size="10.00">reg_t2_to_t1</text>
</g>
<!-- 24&#45;&gt;23 -->
<g id="edge106" class="edge">
<title>24&#45;&gt;23</title>
<path fill="none" stroke="grey" stroke-width="2" d="M470.25,-1239.41C502.05,-1228.23 555.2,-1209.53 593.96,-1195.9"/>
<polygon fill="grey" stroke="grey" stroke-width="2" points="595.22,-1199.17 603.49,-1192.55 592.89,-1192.56 595.22,-1199.17"/>
</g>
<!-- 27 -->
<g id="node5" class="node">
<title>27</title>
<path fill="none" stroke="#565bd8" stroke-width="2" d="M452.5,-1124C452.5,-1124 309.5,-1124 309.5,-1124 303.5,-1124 297.5,-1118 297.5,-1112 297.5,-1112 297.5,-1100 297.5,-1100 297.5,-1094 303.5,-1088 309.5,-1088 309.5,-1088 452.5,-1088 452.5,-1088 458.5,-1088 464.5,-1094 464.5,-1100 464.5,-1100 464.5,-1112 464.5,-1112 464.5,-1118 458.5,-1124 452.5,-1124"/>
<text text-anchor="middle" x="381" y="-1103.5" font-family="sans" font-size="10.00">convert_template_xfm_ras2itk</text>
</g>
<!-- 28&#45;&gt;27 -->
<g id="edge4" class="edge">
<title>28&#45;&gt;27</title>
<path fill="none" stroke="grey" stroke-width="2" d="M381,-1159.7C381,-1151.98 381,-1142.71 381,-1134.11"/>
<polygon fill="grey" stroke="grey" stroke-width="2" points="384.5,-1134.1 381,-1124.1 377.5,-1134.1 384.5,-1134.1"/>
</g>
<!-- 58 -->
<g id="node14" class="node">
<title>58</title>
<path fill="none" stroke="#68d856" stroke-width="2" d="M1078.5,-332C1078.5,-332 989.5,-332 989.5,-332 983.5,-332 977.5,-326 977.5,-320 977.5,-320 977.5,-308 977.5,-308 977.5,-302 983.5,-296 989.5,-296 989.5,-296 1078.5,-296 1078.5,-296 1084.5,-296 1090.5,-302 1090.5,-308 1090.5,-308 1090.5,-320 1090.5,-320 1090.5,-326 1084.5,-332 1078.5,-332"/>
<text text-anchor="middle" x="1034" y="-311.5" font-family="sans" font-size="10.00">qc_reg_to_template</text>
</g>
<!-- 28&#45;&gt;58 -->
<g id="edge108" class="edge">
<title>28&#45;&gt;58</title>
<path fill="none" stroke="grey" stroke-width="2" d="M332.26,-1172.43C315.89,-1168.32 299.21,-1160.76 289,-1147 254.3,-1100.24 259.33,-1067.24 287,-1016 397.87,-810.67 511.12,-818.99 726,-728 750.33,-717.7 766.24,-734.56 784,-715 817.73,-677.86 798,-653.17 798,-603 798,-603 798,-603 798,-457 798,-391.67 855.98,-396.02 915,-368 937.3,-357.41 946.21,-364.48 969,-355 980.17,-350.36 991.63,-343.94 1001.77,-337.61"/>
<polygon fill="grey" stroke="grey" stroke-width="2" points="1003.78,-340.47 1010.29,-332.11 999.99,-334.59 1003.78,-340.47"/>
</g>
<!-- 25 -->
<g id="node3" class="node">
<title>25</title>
<path fill="none" stroke="#568ad8" stroke-width="2" d="M463,-1340C463,-1340 423,-1340 423,-1340 417,-1340 411,-1334 411,-1328 411,-1328 411,-1316 411,-1316 411,-1310 417,-1304 423,-1304 423,-1304 463,-1304 463,-1304 469,-1304 475,-1310 475,-1316 475,-1316 475,-1328 475,-1328 475,-1334 469,-1340 463,-1340"/>
<text text-anchor="middle" x="443" y="-1319.5" font-family="sans" font-size="10.00">import_t1</text>
</g>
<!-- 25&#45;&gt;24 -->
<g id="edge2" class="edge">
<title>25&#45;&gt;24</title>
<path fill="none" stroke="grey" stroke-width="2" d="M443,-1303.7C443,-1295.98 443,-1286.71 443,-1278.11"/>
<polygon fill="grey" stroke="grey" stroke-width="2" points="446.5,-1278.1 443,-1268.1 439.5,-1278.1 446.5,-1278.1"/>
</g>
<!-- 26 -->
<g id="node4" class="node">
<title>26</title>
<path fill="none" stroke="#56d8a9" stroke-width="2" d="M454,-1052C454,-1052 308,-1052 308,-1052 302,-1052 296,-1046 296,-1040 296,-1040 296,-1028 296,-1028 296,-1022 302,-1016 308,-1016 308,-1016 454,-1016 454,-1016 460,-1016 466,-1022 466,-1028 466,-1028 466,-1040 466,-1040 466,-1046 460,-1052 454,-1052"/>
<text text-anchor="middle" x="381" y="-1031.5" font-family="sans" font-size="10.00">compose_template_xfm_corobl</text>
</g>
<!-- 22 -->
<g id="node31" class="node">
<title>22</title>
<path fill="none" stroke="#56c9d8" stroke-width="2" d="M698,-1124C698,-1124 586,-1124 586,-1124 580,-1124 574,-1118 574,-1112 574,-1112 574,-1100 574,-1100 574,-1094 580,-1088 586,-1088 586,-1088 698,-1088 698,-1088 704,-1088 710,-1094 710,-1100 710,-1100 710,-1112 710,-1112 710,-1118 704,-1124 698,-1124"/>
<text text-anchor="middle" x="642" y="-1103.5" font-family="sans" font-size="10.00">compose_t2_xfm_corobl</text>
</g>
<!-- 26&#45;&gt;22 -->
<g id="edge107" class="edge">
<title>26&#45;&gt;22</title>
<path fill="none" stroke="grey" stroke-width="2" d="M444.8,-1052.11C482.27,-1062.16 529.77,-1074.9 568.77,-1085.36"/>
<polygon fill="grey" stroke="grey" stroke-width="2" points="567.92,-1088.76 578.49,-1087.97 569.73,-1081.99 567.92,-1088.76"/>
</g>
<!-- 27&#45;&gt;26 -->
<g id="edge3" class="edge">
<title>27&#45;&gt;26</title>
<path fill="none" stroke="grey" stroke-width="2" d="M381,-1087.7C381,-1079.98 381,-1070.71 381,-1062.11"/>
<polygon fill="grey" stroke="grey" stroke-width="2" points="384.5,-1062.1 381,-1052.1 377.5,-1062.1 384.5,-1062.1"/>
</g>
<!-- 38 -->
<g id="node6" class="node">
<title>38</title>
<path fill="none" stroke="#d85e56" stroke-width="2" d="M380.5,-1340C380.5,-1340 279.5,-1340 279.5,-1340 273.5,-1340 267.5,-1334 267.5,-1328 267.5,-1328 267.5,-1316 267.5,-1316 267.5,-1310 273.5,-1304 279.5,-1304 279.5,-1304 380.5,-1304 380.5,-1304 386.5,-1304 392.5,-1310 392.5,-1316 392.5,-1316 392.5,-1328 392.5,-1328 392.5,-1334 386.5,-1340 380.5,-1340"/>
<text text-anchor="middle" x="330" y="-1319.5" font-family="sans" font-size="10.00">template_xfm_itk2ras</text>
</g>
<!-- 5 -->
<g id="node38" class="node">
<title>5</title>
<path fill="none" stroke="#5673d8" stroke-width="2" d="M424.5,-404C424.5,-404 339.5,-404 339.5,-404 333.5,-404 327.5,-398 327.5,-392 327.5,-392 327.5,-380 327.5,-380 327.5,-374 333.5,-368 339.5,-368 339.5,-368 424.5,-368 424.5,-368 430.5,-368 436.5,-374 436.5,-380 436.5,-380 436.5,-392 436.5,-392 436.5,-398 430.5,-404 424.5,-404"/>
<text text-anchor="middle" x="382" y="-383.5" font-family="sans" font-size="10.00">warp_gii_to_native</text>
</g>
<!-- 38&#45;&gt;5 -->
<g id="edge117" class="edge">
<title>38&#45;&gt;5</title>
<path fill="none" stroke="grey" stroke-width="2" d="M267.36,-1317.64C181.56,-1309.29 38,-1280.19 38,-1179 38,-1179 38,-1179 38,-529 38,-469.19 217.92,-421.62 317.52,-399.87"/>
<polygon fill="grey" stroke="grey" stroke-width="2" points="318.45,-403.25 327.49,-397.72 316.98,-396.41 318.45,-403.25"/>
</g>
<!-- 8 -->
<g id="node7" class="node">
<title>8</title>
<path fill="none" stroke="#bed856" stroke-width="2" d="M2100,-548C2100,-548 2016,-548 2016,-548 2010,-548 2004,-542 2004,-536 2004,-536 2004,-524 2004,-524 2004,-518 2010,-512 2016,-512 2016,-512 2100,-512 2100,-512 2106,-512 2112,-518 2112,-524 2112,-524 2112,-536 2112,-536 2112,-542 2106,-548 2100,-548"/>
<text text-anchor="middle" x="2058" y="-527.5" font-family="sans" font-size="10.00">create_warps_hipp</text>
</g>
<!-- 55 -->
<g id="node8" class="node">
<title>55</title>
<path fill="none" stroke="#56d0d8" stroke-width="2" d="M2402,-476C2402,-476 2244,-476 2244,-476 2238,-476 2232,-470 2232,-464 2232,-464 2232,-452 2232,-452 2232,-446 2238,-440 2244,-440 2244,-440 2402,-440 2402,-440 2408,-440 2414,-446 2414,-452 2414,-452 2414,-464 2414,-464 2414,-470 2408,-476 2402,-476"/>
<text text-anchor="middle" x="2323" y="-455.5" font-family="sans" font-size="10.00">compose_warps_native_to_unfold</text>
</g>
<!-- 8&#45;&gt;55 -->
<g id="edge5" class="edge">
<title>8&#45;&gt;55</title>
<path fill="none" stroke="grey" stroke-width="2" d="M2112.01,-514.12C2115.38,-513.36 2118.73,-512.64 2122,-512 2166.41,-503.28 2179.2,-510.38 2223,-499 2241.15,-494.28 2260.44,-487.12 2277.17,-480.15"/>
<polygon fill="grey" stroke="grey" stroke-width="2" points="2278.88,-483.23 2286.71,-476.09 2276.13,-476.79 2278.88,-483.23"/>
</g>
<!-- 56 -->
<g id="node9" class="node">
<title>56</title>
<path fill="none" stroke="#d89556" stroke-width="2" d="M2201.5,-476C2201.5,-476 2016.5,-476 2016.5,-476 2010.5,-476 2004.5,-470 2004.5,-464 2004.5,-464 2004.5,-452 2004.5,-452 2004.5,-446 2010.5,-440 2016.5,-440 2016.5,-440 2201.5,-440 2201.5,-440 2207.5,-440 2213.5,-446 2213.5,-452 2213.5,-452 2213.5,-464 2213.5,-464 2213.5,-470 2207.5,-476 2201.5,-476"/>
<text text-anchor="middle" x="2109" y="-455.5" font-family="sans" font-size="10.00">compose_warps_unfold_to_crop_native</text>
</g>
<!-- 8&#45;&gt;56 -->
<g id="edge6" class="edge">
<title>8&#45;&gt;56</title>
<path fill="none" stroke="grey" stroke-width="2" d="M2070.61,-511.7C2076.6,-503.47 2083.88,-493.48 2090.48,-484.42"/>
<polygon fill="grey" stroke="grey" stroke-width="2" points="2093.48,-486.25 2096.54,-476.1 2087.82,-482.13 2093.48,-486.25"/>
</g>
<!-- 7 -->
<g id="node42" class="node">
<title>7</title>
<path fill="none" stroke="#56c1d8" stroke-width="2" d="M737.5,-548C737.5,-548 630.5,-548 630.5,-548 624.5,-548 618.5,-542 618.5,-536 618.5,-536 618.5,-524 618.5,-524 618.5,-518 624.5,-512 630.5,-512 630.5,-512 737.5,-512 737.5,-512 743.5,-512 749.5,-518 749.5,-524 749.5,-524 749.5,-536 749.5,-536 749.5,-542 743.5,-548 737.5,-548"/>
<text text-anchor="middle" x="684" y="-527.5" font-family="sans" font-size="10.00">warp_gii_unfold2native</text>
</g>
<!-- 8&#45;&gt;7 -->
<g id="edge75" class="edge">
<title>8&#45;&gt;7</title>
<path fill="none" stroke="grey" stroke-width="2" d="M2034.71,-548.18C2019.29,-559.03 1998.08,-571.77 1977,-577.5 1950.51,-584.69 1016.36,-579.62 989,-577.5 910.3,-571.41 821.19,-556.6 759.7,-545.12"/>
<polygon fill="grey" stroke="grey" stroke-width="2" points="760.17,-541.65 749.7,-543.24 758.88,-548.53 760.17,-541.65"/>
</g>
<!-- 0 -->
<g id="node66" class="node">
<title>0</title>
<path fill="none" stroke="#88d856" stroke-width="2" d="M1387,-188C1387,-188 1357,-188 1357,-188 1351,-188 1345,-182 1345,-176 1345,-176 1345,-164 1345,-164 1345,-158 1351,-152 1357,-152 1357,-152 1387,-152 1387,-152 1393,-152 1399,-158 1399,-164 1399,-164 1399,-176 1399,-176 1399,-182 1393,-188 1387,-188"/>
<text text-anchor="middle" x="1372" y="-167.5" font-family="sans" font-size="10.00">all</text>
</g>
<!-- 55&#45;&gt;0 -->
<g id="edge131" class="edge">
<title>55&#45;&gt;0</title>
<path fill="none" stroke="grey" stroke-width="2" d="M2269.56,-439.85C2146.2,-400.42 1831.81,-300.77 1567,-224 1512.14,-208.09 1448.18,-190.98 1408.89,-180.63"/>
<polygon fill="grey" stroke="grey" stroke-width="2" points="1409.77,-177.24 1399.21,-178.09 1407.99,-184.01 1409.77,-177.24"/>
</g>
<!-- 56&#45;&gt;0 -->
<g id="edge132" class="edge">
<title>56&#45;&gt;0</title>
<path fill="none" stroke="grey" stroke-width="2" d="M2065.1,-439.97C1931.59,-388.16 1532.01,-233.09 1408.67,-185.23"/>
<polygon fill="grey" stroke="grey" stroke-width="2" points="1409.86,-181.94 1399.27,-181.58 1407.32,-188.46 1409.86,-181.94"/>
</g>
<!-- 9 -->
<g id="node10" class="node">
<title>9</title>
<path fill="none" stroke="#56d87b" stroke-width="2" d="M2177,-692C2177,-692 2099,-692 2099,-692 2093,-692 2087,-686 2087,-680 2087,-680 2087,-668 2087,-668 2087,-662 2093,-656 2099,-656 2099,-656 2177,-656 2177,-656 2183,-656 2189,-662 2189,-668 2189,-668 2189,-680 2189,-680 2189,-686 2183,-692 2177,-692"/>
<text text-anchor="middle" x="2138" y="-671.5" font-family="sans" font-size="10.00">create_unfold_ref</text>
</g>
<!-- 9&#45;&gt;8 -->
<g id="edge7" class="edge">
<title>9&#45;&gt;8</title>
<path fill="none" stroke="grey" stroke-width="2" d="M2090.96,-655.97C2075.05,-647.7 2059.04,-635.99 2050,-620 2039.37,-601.2 2042.67,-576.52 2047.89,-557.93"/>
<polygon fill="grey" stroke="grey" stroke-width="2" points="2051.26,-558.88 2050.91,-548.29 2044.58,-556.79 2051.26,-558.88"/>
</g>
<!-- 9&#45;&gt;55 -->
<g id="edge10" class="edge">
<title>9&#45;&gt;55</title>
<path fill="none" stroke="grey" stroke-width="2" d="M2189.1,-669.71C2255.54,-664.25 2366.07,-650.7 2391,-620 2424.83,-578.35 2379.48,-517.43 2348.2,-483.72"/>
<polygon fill="grey" stroke="grey" stroke-width="2" points="2350.43,-480.99 2340.99,-476.17 2345.36,-485.82 2350.43,-480.99"/>
</g>
<!-- 9&#45;&gt;56 -->
<g id="edge11" class="edge">
<title>9&#45;&gt;56</title>
<path fill="none" stroke="grey" stroke-width="2" d="M2189.16,-673.21C2272.59,-671.45 2424.7,-658.29 2383,-584 2343.59,-513.78 2299.47,-524.24 2223,-499 2204.34,-492.84 2184.08,-485.84 2165.88,-479.43"/>
<polygon fill="grey" stroke="grey" stroke-width="2" points="2166.88,-476.07 2156.29,-476.04 2164.55,-482.67 2166.88,-476.07"/>
</g>
<!-- 10 -->
<g id="node11" class="node">
<title>10</title>
<path fill="none" stroke="#56d86b" stroke-width="2" d="M2189.5,-620C2189.5,-620 2070.5,-620 2070.5,-620 2064.5,-620 2058.5,-614 2058.5,-608 2058.5,-608 2058.5,-596 2058.5,-596 2058.5,-590 2064.5,-584 2070.5,-584 2070.5,-584 2189.5,-584 2189.5,-584 2195.5,-584 2201.5,-590 2201.5,-596 2201.5,-596 2201.5,-608 2201.5,-608 2201.5,-614 2195.5,-620 2189.5,-620"/>
<text text-anchor="middle" x="2130" y="-599.5" font-family="sans" font-size="10.00">create_unfold_coord_map</text>
</g>
<!-- 9&#45;&gt;10 -->
<g id="edge8" class="edge">
<title>9&#45;&gt;10</title>
<path fill="none" stroke="grey" stroke-width="2" d="M2136.02,-655.7C2135.14,-647.98 2134.08,-638.71 2133.1,-630.11"/>
<polygon fill="grey" stroke="grey" stroke-width="2" points="2136.57,-629.64 2131.95,-620.1 2129.61,-630.44 2136.57,-629.64"/>
</g>
<!-- 46 -->
<g id="node12" class="node">
<title>46</title>
<path fill="none" stroke="#a7d856" stroke-width="2" d="M2243.5,-548C2243.5,-548 2142.5,-548 2142.5,-548 2136.5,-548 2130.5,-542 2130.5,-536 2130.5,-536 2130.5,-524 2130.5,-524 2130.5,-518 2136.5,-512 2142.5,-512 2142.5,-512 2243.5,-512 2243.5,-512 2249.5,-512 2255.5,-518 2255.5,-524 2255.5,-524 2255.5,-536 2255.5,-536 2255.5,-542 2249.5,-548 2243.5,-548"/>
<text text-anchor="middle" x="2193" y="-527.5" font-family="sans" font-size="10.00">create_warps_dentate</text>
</g>
<!-- 9&#45;&gt;46 -->
<g id="edge9" class="edge">
<title>9&#45;&gt;46</title>
<path fill="none" stroke="grey" stroke-width="2" d="M2174.51,-655.92C2188.6,-647.29 2203.18,-635.35 2211,-620 2220.95,-600.48 2214.79,-575.91 2207.08,-557.54"/>
<polygon fill="grey" stroke="grey" stroke-width="2" points="2210.19,-555.94 2202.85,-548.3 2203.83,-558.85 2210.19,-555.94"/>
</g>
<!-- 36 -->
<g id="node43" class="node">
<title>36</title>
<path fill="none" stroke="#56b9d8" stroke-width="2" d="M737,-620C737,-620 631,-620 631,-620 625,-620 619,-614 619,-608 619,-608 619,-596 619,-596 619,-590 625,-584 631,-584 631,-584 737,-584 737,-584 743,-584 749,-590 749,-596 749,-596 749,-608 749,-608 749,-614 743,-620 737,-620"/>
<text text-anchor="middle" x="684" y="-599.5" font-family="sans" font-size="10.00">constrain_surf_to_bbox</text>
</g>
<!-- 9&#45;&gt;36 -->
<g id="edge77" class="edge">
<title>9&#45;&gt;36</title>
<path fill="none" stroke="grey" stroke-width="2" d="M2086.73,-669.12C2036.59,-665.41 1958.08,-659.83 1890,-656 1462.37,-631.95 948.93,-612.52 759.21,-605.66"/>
<polygon fill="grey" stroke="grey" stroke-width="2" points="759.19,-602.16 749.07,-605.3 758.93,-609.16 759.19,-602.16"/>
</g>
<!-- 43 -->
<g id="node47" class="node">
<title>43</title>
<path fill="none" stroke="#56d8d8" stroke-width="2" d="M736,-260C736,-260 620,-260 620,-260 614,-260 608,-254 608,-248 608,-248 608,-236 608,-236 608,-230 614,-224 620,-224 620,-224 736,-224 736,-224 742,-224 748,-230 748,-236 748,-236 748,-248 748,-248 748,-254 742,-260 736,-260"/>
<text text-anchor="middle" x="678" y="-239.5" font-family="sans" font-size="10.00">resample_atlas_to_refvol</text>
</g>
<!-- 9&#45;&gt;43 -->
<g id="edge78" class="edge">
<title>9&#45;&gt;43</title>
<path fill="none" stroke="grey" stroke-width="2" d="M2086.74,-668.88C2036.61,-665 1958.11,-659.29 1890,-656 1321.55,-628.53 1176.99,-669.17 610,-620 473.52,-608.17 0,-667.99 0,-531 0,-531 0,-531 0,-385 0,-322.11 51.53,-319.14 110,-296 208.54,-257 475.98,-274.47 597.95,-259.92"/>
<polygon fill="grey" stroke="grey" stroke-width="2" points="598.42,-263.39 607.88,-258.62 597.51,-256.45 598.42,-263.39"/>
</g>
<!-- 9&#45;&gt;0 -->
<g id="edge76" class="edge">
<title>9&#45;&gt;0</title>
<path fill="none" stroke="grey" stroke-width="2" d="M2189.01,-668.22C2255.96,-661.03 2368.76,-645.49 2401,-620 2435.16,-592.99 2442,-574.55 2442,-531 2442,-531 2442,-531 2442,-313 2442,-206.5 1598.26,-177.17 1409.26,-171.94"/>
<polygon fill="grey" stroke="grey" stroke-width="2" points="1409.35,-168.44 1399.25,-171.67 1409.16,-175.44 1409.35,-168.44"/>
</g>
<!-- 10&#45;&gt;8 -->
<g id="edge12" class="edge">
<title>10&#45;&gt;8</title>
<path fill="none" stroke="grey" stroke-width="2" d="M2112.2,-583.7C2103.4,-575.14 2092.62,-564.66 2083,-555.3"/>
<polygon fill="grey" stroke="grey" stroke-width="2" points="2085.2,-552.57 2075.59,-548.1 2080.32,-557.58 2085.2,-552.57"/>
</g>
<!-- 10&#45;&gt;46 -->
<g id="edge13" class="edge">
<title>10&#45;&gt;46</title>
<path fill="none" stroke="grey" stroke-width="2" d="M2145.57,-583.7C2153.2,-575.22 2162.52,-564.86 2170.88,-555.58"/>
<polygon fill="grey" stroke="grey" stroke-width="2" points="2173.52,-557.88 2177.61,-548.1 2168.31,-553.2 2173.52,-557.88"/>
</g>
<!-- 46&#45;&gt;55 -->
<g id="edge16" class="edge">
<title>46&#45;&gt;55</title>
<path fill="none" stroke="grey" stroke-width="2" d="M2224.8,-511.88C2242.11,-502.55 2263.72,-490.92 2282.26,-480.94"/>
<polygon fill="grey" stroke="grey" stroke-width="2" points="2283.93,-484.01 2291.08,-476.19 2280.61,-477.85 2283.93,-484.01"/>
</g>
<!-- 46&#45;&gt;56 -->
<g id="edge17" class="edge">
<title>46&#45;&gt;56</title>
<path fill="none" stroke="grey" stroke-width="2" d="M2172.24,-511.7C2161.76,-502.97 2148.89,-492.24 2137.5,-482.75"/>
<polygon fill="grey" stroke="grey" stroke-width="2" points="2139.45,-479.82 2129.53,-476.1 2134.97,-485.19 2139.45,-479.82"/>
</g>
<!-- 46&#45;&gt;7 -->
<g id="edge119" class="edge">
<title>46&#45;&gt;7</title>
<path fill="none" stroke="grey" stroke-width="2" d="M2169.71,-548.18C2154.29,-559.03 2133.08,-571.77 2112,-577.5 2081.9,-585.68 1020.1,-579.91 989,-577.5 910.3,-571.41 821.19,-556.6 759.7,-545.12"/>
<polygon fill="grey" stroke="grey" stroke-width="2" points="760.17,-541.65 749.7,-543.24 758.88,-548.53 760.17,-541.65"/>
</g>
<!-- 35 -->
<g id="node13" class="node">
<title>35</title>
<path fill="none" stroke="#d8d356" stroke-width="2" d="M2362,-620C2362,-620 2252,-620 2252,-620 2246,-620 2240,-614 2240,-608 2240,-608 2240,-596 2240,-596 2240,-590 2246,-584 2252,-584 2252,-584 2362,-584 2362,-584 2368,-584 2374,-590 2374,-596 2374,-596 2374,-608 2374,-608 2374,-614 2368,-620 2362,-620"/>
<text text-anchor="middle" x="2307" y="-599.5" font-family="sans" font-size="10.00">create_native_coord_ref</text>
</g>
<!-- 35&#45;&gt;8 -->
<g id="edge14" class="edge">
<title>35&#45;&gt;8</title>
<path fill="none" stroke="grey" stroke-width="2" d="M2239.91,-588.85C2230.21,-587.18 2220.36,-585.51 2211,-584 2171.54,-577.63 2159.53,-584.78 2122,-571 2110.49,-566.77 2098.84,-560.29 2088.69,-553.77"/>
<polygon fill="grey" stroke="grey" stroke-width="2" points="2090.46,-550.74 2080.21,-548.08 2086.56,-556.56 2090.46,-550.74"/>
</g>
<!-- 35&#45;&gt;46 -->
<g id="edge15" class="edge">
<title>35&#45;&gt;46</title>
<path fill="none" stroke="grey" stroke-width="2" d="M2279.11,-583.88C2264.21,-574.72 2245.67,-563.34 2229.62,-553.48"/>
<polygon fill="grey" stroke="grey" stroke-width="2" points="2231.35,-550.44 2220.99,-548.19 2227.69,-556.41 2231.35,-550.44"/>
</g>
<!-- 58&#45;&gt;0 -->
<g id="edge135" class="edge">
<title>58&#45;&gt;0</title>
<path fill="none" stroke="grey" stroke-width="2" d="M1090.51,-298.36C1093.72,-297.56 1096.9,-296.76 1100,-296 1167.83,-279.29 1189.7,-289.54 1253,-260 1288.55,-243.41 1323.86,-215.12 1346.66,-194.89"/>
<polygon fill="grey" stroke="grey" stroke-width="2" points="1349.11,-197.4 1354.19,-188.1 1344.42,-192.2 1349.11,-197.4"/>
</g>
<!-- 59 -->
<g id="node15" class="node">
<title>59</title>
<path fill="none" stroke="#567bd8" stroke-width="2" d="M1312.5,-332C1312.5,-332 1265.5,-332 1265.5,-332 1259.5,-332 1253.5,-326 1253.5,-320 1253.5,-320 1253.5,-308 1253.5,-308 1253.5,-302 1259.5,-296 1265.5,-296 1265.5,-296 1312.5,-296 1312.5,-296 1318.5,-296 1324.5,-302 1324.5,-308 1324.5,-308 1324.5,-320 1324.5,-320 1324.5,-326 1318.5,-332 1312.5,-332"/>
<text text-anchor="middle" x="1289" y="-311.5" font-family="sans" font-size="10.00">qc_subfield</text>
</g>
<!-- 59&#45;&gt;0 -->
<g id="edge136" class="edge">
<title>59&#45;&gt;0</title>
<path fill="none" stroke="grey" stroke-width="2" d="M1298.36,-295.81C1308.24,-277.79 1324.38,-248.71 1339,-224 1344.33,-215 1350.33,-205.26 1355.73,-196.61"/>
<polygon fill="grey" stroke="grey" stroke-width="2" points="1358.74,-198.39 1361.1,-188.07 1352.82,-194.67 1358.74,-198.39"/>
</g>
<!-- 60 -->
<g id="node16" class="node">
<title>60</title>
<path fill="none" stroke="#56d8c9" stroke-width="2" d="M947.5,-332C947.5,-332 876.5,-332 876.5,-332 870.5,-332 864.5,-326 864.5,-320 864.5,-320 864.5,-308 864.5,-308 864.5,-302 870.5,-296 876.5,-296 876.5,-296 947.5,-296 947.5,-296 953.5,-296 959.5,-302 959.5,-308 959.5,-308 959.5,-320 959.5,-320 959.5,-326 953.5,-332 947.5,-332"/>
<text text-anchor="middle" x="912" y="-311.5" font-family="sans" font-size="10.00">qc_subfield_surf</text>
</g>
<!-- 60&#45;&gt;0 -->
<g id="edge137" class="edge">
<title>60&#45;&gt;0</title>
<path fill="none" stroke="grey" stroke-width="2" d="M959.76,-298.2C962.87,-297.41 965.97,-296.66 969,-296 1079.07,-271.83 1120.33,-312.61 1220,-260 1239.2,-249.87 1235.38,-236.68 1253,-224 1278.17,-205.88 1310.51,-191.97 1335.12,-182.95"/>
<polygon fill="grey" stroke="grey" stroke-width="2" points="1336.57,-186.16 1344.82,-179.51 1334.22,-179.56 1336.57,-186.16"/>
</g>
<!-- 61 -->
<g id="node17" class="node">
<title>61</title>
<path fill="none" stroke="#d89c56" stroke-width="2" d="M1199,-260C1199,-260 1113,-260 1113,-260 1107,-260 1101,-254 1101,-248 1101,-248 1101,-236 1101,-236 1101,-230 1107,-224 1113,-224 1113,-224 1199,-224 1199,-224 1205,-224 1211,-230 1211,-236 1211,-236 1211,-248 1211,-248 1211,-254 1205,-260 1199,-260"/>
<text text-anchor="middle" x="1156" y="-239.5" font-family="sans" font-size="10.00">plot_subj_subfields</text>
</g>
<!-- 61&#45;&gt;0 -->
<g id="edge138" class="edge">
<title>61&#45;&gt;0</title>
<path fill="none" stroke="grey" stroke-width="2" d="M1208.56,-223.97C1247.77,-211.26 1300.36,-194.22 1335.17,-182.94"/>
<polygon fill="grey" stroke="grey" stroke-width="2" points="1336.5,-186.19 1344.93,-179.77 1334.34,-179.53 1336.5,-186.19"/>
</g>
<!-- 62 -->
<g id="node18" class="node">
<title>62</title>
<path fill="none" stroke="#97d856" stroke-width="2" d="M1223.5,-332C1223.5,-332 1120.5,-332 1120.5,-332 1114.5,-332 1108.5,-326 1108.5,-320 1108.5,-320 1108.5,-308 1108.5,-308 1108.5,-302 1114.5,-296 1120.5,-296 1120.5,-296 1223.5,-296 1223.5,-296 1229.5,-296 1235.5,-302 1235.5,-308 1235.5,-308 1235.5,-320 1235.5,-320 1235.5,-326 1229.5,-332 1223.5,-332"/>
<text text-anchor="middle" x="1172" y="-311.5" font-family="sans" font-size="10.00">get_subfield_vols_subj</text>
</g>
<!-- 62&#45;&gt;61 -->
<g id="edge18" class="edge">
<title>62&#45;&gt;61</title>
<path fill="none" stroke="grey" stroke-width="2" d="M1168.04,-295.7C1166.28,-287.98 1164.16,-278.71 1162.2,-270.11"/>
<polygon fill="grey" stroke="grey" stroke-width="2" points="1165.55,-269.07 1159.91,-260.1 1158.73,-270.63 1165.55,-269.07"/>
</g>
<!-- 11 -->
<g id="node19" class="node">
<title>11</title>
<path fill="none" stroke="#d8c356" stroke-width="2" d="M1741.5,-692C1741.5,-692 1684.5,-692 1684.5,-692 1678.5,-692 1672.5,-686 1672.5,-680 1672.5,-680 1672.5,-668 1672.5,-668 1672.5,-662 1678.5,-656 1684.5,-656 1684.5,-656 1741.5,-656 1741.5,-656 1747.5,-656 1753.5,-662 1753.5,-668 1753.5,-668 1753.5,-680 1753.5,-680 1753.5,-686 1747.5,-692 1741.5,-692"/>
<text text-anchor="middle" x="1713" y="-671.5" font-family="sans" font-size="10.00">unflip_coords</text>
</g>
<!-- 11&#45;&gt;8 -->
<g id="edge79" class="edge">
<title>11&#45;&gt;8</title>
<path fill="none" stroke="grey" stroke-width="2" d="M1718.68,-655.87C1726.43,-635.34 1742.35,-601.51 1768,-584 1803.88,-559.51 1919.7,-544.19 1993.66,-536.65"/>
<polygon fill="grey" stroke="grey" stroke-width="2" points="1994.21,-540.12 2003.81,-535.64 1993.51,-533.15 1994.21,-540.12"/>
</g>
<!-- 11&#45;&gt;46 -->
<g id="edge81" class="edge">
<title>11&#45;&gt;46</title>
<path fill="none" stroke="grey" stroke-width="2" d="M1753.56,-657.4C1807.9,-637.15 1907.74,-602.27 1996,-584 2050.7,-572.68 2067.73,-587.79 2121,-571 2134.26,-566.82 2147.83,-560.05 2159.57,-553.25"/>
<polygon fill="grey" stroke="grey" stroke-width="2" points="2161.38,-556.25 2168.15,-548.09 2157.77,-550.25 2161.38,-556.25"/>
</g>
<!-- 11&#45;&gt;35 -->
<g id="edge80" class="edge">
<title>11&#45;&gt;35</title>
<path fill="none" stroke="grey" stroke-width="2" d="M1753.79,-669.62C1838.96,-662.36 2041.84,-643.95 2211,-620 2217.16,-619.13 2223.53,-618.16 2229.92,-617.13"/>
<polygon fill="grey" stroke="grey" stroke-width="2" points="2230.66,-620.56 2239.96,-615.48 2229.52,-613.65 2230.66,-620.56"/>
</g>
<!-- 51 -->
<g id="node50" class="node">
<title>51</title>
<path fill="none" stroke="#5663d8" stroke-width="2" d="M1183.5,-548C1183.5,-548 996.5,-548 996.5,-548 990.5,-548 984.5,-542 984.5,-536 984.5,-536 984.5,-524 984.5,-524 984.5,-518 990.5,-512 996.5,-512 996.5,-512 1183.5,-512 1183.5,-512 1189.5,-512 1195.5,-518 1195.5,-524 1195.5,-524 1195.5,-536 1195.5,-536 1195.5,-542 1189.5,-548 1183.5,-548"/>
<text text-anchor="middle" x="1090" y="-527.5" font-family="sans" font-size="10.00">label_subfields_from_vol_coords_corobl</text>
</g>
<!-- 11&#45;&gt;51 -->
<g id="edge82" class="edge">
<title>11&#45;&gt;51</title>
<path fill="none" stroke="grey" stroke-width="2" d="M1672.12,-663.68C1571.57,-640.76 1310.52,-581.26 1174.78,-550.32"/>
<polygon fill="grey" stroke="grey" stroke-width="2" points="1175.36,-546.87 1164.83,-548.06 1173.8,-553.69 1175.36,-546.87"/>
</g>
<!-- 54 -->
<g id="node60" class="node">
<title>54</title>
<path fill="none" stroke="#568ad8" stroke-width="2" d="M1696,-404C1696,-404 1558,-404 1558,-404 1552,-404 1546,-398 1546,-392 1546,-392 1546,-380 1546,-380 1546,-374 1552,-368 1558,-368 1558,-368 1696,-368 1696,-368 1702,-368 1708,-374 1708,-380 1708,-380 1708,-392 1708,-392 1708,-398 1702,-404 1696,-404"/>
<text text-anchor="middle" x="1627" y="-383.5" font-family="sans" font-size="10.00">resample_coords_native_crop</text>
</g>
<!-- 11&#45;&gt;54 -->
<g id="edge83" class="edge">
<title>11&#45;&gt;54</title>
<path fill="none" stroke="grey" stroke-width="2" d="M1672.16,-665.63C1628,-656.74 1561.9,-640.4 1547,-620 1498.91,-554.16 1566.8,-457.17 1604.61,-411.94"/>
<polygon fill="grey" stroke="grey" stroke-width="2" points="1607.46,-413.99 1611.29,-404.11 1602.13,-409.45 1607.46,-413.99"/>
</g>
<!-- 12 -->
<g id="node20" class="node">
<title>12</title>
<path fill="none" stroke="#56d87b" stroke-width="2" d="M1724,-764C1724,-764 1632,-764 1632,-764 1626,-764 1620,-758 1620,-752 1620,-752 1620,-740 1620,-740 1620,-734 1626,-728 1632,-728 1632,-728 1724,-728 1724,-728 1730,-728 1736,-734 1736,-740 1736,-740 1736,-752 1736,-752 1736,-758 1730,-764 1724,-764"/>
<text text-anchor="middle" x="1678" y="-743.5" font-family="sans" font-size="10.00">laplace_coords_hipp</text>
</g>
<!-- 12&#45;&gt;8 -->
<g id="edge84" class="edge">
<title>12&#45;&gt;8</title>
<path fill="none" stroke="grey" stroke-width="2" d="M1733.3,-727.86C1743.38,-724.07 1753.65,-719.75 1763,-715 1804.32,-694 1809.98,-681.02 1849,-656 1907.52,-618.47 1977.09,-577.58 2019.37,-553.13"/>
<polygon fill="grey" stroke="grey" stroke-width="2" points="2021.31,-556.05 2028.23,-548.02 2017.82,-549.99 2021.31,-556.05"/>
</g>
<!-- 12&#45;&gt;35 -->
<g id="edge85" class="edge">
<title>12&#45;&gt;35</title>
<path fill="none" stroke="grey" stroke-width="2" d="M1736.32,-729.4C1739.24,-728.87 1742.15,-728.4 1745,-728 1794.87,-721.04 2151.9,-735.25 2198,-715 2208.88,-710.22 2255.9,-659.55 2284.51,-628.02"/>
<polygon fill="grey" stroke="grey" stroke-width="2" points="2287.24,-630.22 2291.35,-620.46 2282.05,-625.53 2287.24,-630.22"/>
</g>
<!-- 12&#45;&gt;11 -->
<g id="edge19" class="edge">
<title>12&#45;&gt;11</title>
<path fill="none" stroke="grey" stroke-width="2" d="M1686.65,-727.7C1690.64,-719.73 1695.45,-710.1 1699.87,-701.26"/>
<polygon fill="grey" stroke="grey" stroke-width="2" points="1703.11,-702.61 1704.45,-692.1 1696.85,-699.48 1703.11,-702.61"/>
</g>
<!-- 12&#45;&gt;51 -->
<g id="edge86" class="edge">
<title>12&#45;&gt;51</title>
<path fill="none" stroke="grey" stroke-width="2" d="M1619.66,-729.56C1616.74,-728.99 1613.84,-728.46 1611,-728 1534.9,-715.58 1512.81,-733.68 1438,-715 1336.25,-689.59 1313.85,-670.63 1222,-620 1185.9,-600.1 1147.06,-573.18 1120.93,-554.17"/>
<polygon fill="grey" stroke="grey" stroke-width="2" points="1122.71,-551.14 1112.57,-548.05 1118.57,-556.79 1122.71,-551.14"/>
</g>
<!-- 12&#45;&gt;54 -->
<g id="edge87" class="edge">
<title>12&#45;&gt;54</title>
<path fill="none" stroke="grey" stroke-width="2" d="M1619.65,-729.62C1616.73,-729.04 1613.84,-728.49 1611,-728 1580.21,-722.7 1493.91,-736.24 1471,-715 1433.98,-680.67 1452,-653.49 1452,-603 1452,-603 1452,-603 1452,-529 1452,-468.78 1515.26,-429.64 1565.71,-408"/>
<polygon fill="grey" stroke="grey" stroke-width="2" points="1567.07,-411.23 1574.97,-404.16 1564.39,-404.76 1567.07,-411.23"/>
</g>
<!-- 32 -->
<g id="node21" class="node">
<title>32</title>
<path fill="none" stroke="#78d856" stroke-width="2" d="M1666,-620C1666,-620 1568,-620 1568,-620 1562,-620 1556,-614 1556,-608 1556,-608 1556,-596 1556,-596 1556,-590 1562,-584 1568,-584 1568,-584 1666,-584 1666,-584 1672,-584 1678,-590 1678,-596 1678,-596 1678,-608 1678,-608 1678,-614 1672,-620 1666,-620"/>
<text text-anchor="middle" x="1617" y="-599.5" font-family="sans" font-size="10.00">unflip_coords_equivol</text>
</g>
<!-- 32&#45;&gt;8 -->
<g id="edge111" class="edge">
<title>32&#45;&gt;8</title>
<path fill="none" stroke="grey" stroke-width="2" d="M1678.31,-586.69C1682.94,-585.74 1687.54,-584.83 1692,-584 1797.21,-564.49 1920.55,-547.92 1993.83,-538.73"/>
<polygon fill="grey" stroke="grey" stroke-width="2" points="1994.34,-542.19 2003.83,-537.48 1993.47,-535.25 1994.34,-542.19"/>
</g>
<!-- 32&#45;&gt;51 -->
<g id="edge112" class="edge">
<title>32&#45;&gt;51</title>
<path fill="none" stroke="grey" stroke-width="2" d="M1555.77,-592.87C1470.29,-581.51 1313.56,-560.7 1205.69,-546.37"/>
<polygon fill="grey" stroke="grey" stroke-width="2" points="1206.11,-542.89 1195.73,-545.04 1205.19,-549.83 1206.11,-542.89"/>
</g>
<!-- 32&#45;&gt;54 -->
<g id="edge113" class="edge">
<title>32&#45;&gt;54</title>
<path fill="none" stroke="grey" stroke-width="2" d="M1617.8,-583.85C1619.53,-546.83 1623.63,-459.18 1625.72,-414.39"/>
<polygon fill="grey" stroke="grey" stroke-width="2" points="1629.22,-414.38 1626.19,-404.23 1622.23,-414.06 1629.22,-414.38"/>
</g>
<!-- 33 -->
<g id="node22" class="node">
<title>33</title>
<path fill="none" stroke="#56d863" stroke-width="2" d="M1580,-692C1580,-692 1492,-692 1492,-692 1486,-692 1480,-686 1480,-680 1480,-680 1480,-668 1480,-668 1480,-662 1486,-656 1492,-656 1492,-656 1580,-656 1580,-656 1586,-656 1592,-662 1592,-668 1592,-668 1592,-680 1592,-680 1592,-686 1586,-692 1580,-692"/>
<text text-anchor="middle" x="1536" y="-671.5" font-family="sans" font-size="10.00">equivolume_coords</text>
</g>
<!-- 33&#45;&gt;8 -->
<g id="edge114" class="edge">
<title>33&#45;&gt;8</title>
<path fill="none" stroke="grey" stroke-width="2" d="M1592.08,-658.25C1621.38,-649.35 1657.23,-636.5 1687,-620 1709.4,-607.58 1708.59,-594.4 1732,-584 1817.36,-546.09 1926.08,-534.97 1993.87,-531.89"/>
<polygon fill="grey" stroke="grey" stroke-width="2" points="1994.13,-535.38 2003.98,-531.48 1993.84,-528.39 1994.13,-535.38"/>
</g>
<!-- 33&#45;&gt;32 -->
<g id="edge20" class="edge">
<title>33&#45;&gt;32</title>
<path fill="none" stroke="grey" stroke-width="2" d="M1556.02,-655.7C1566.13,-646.97 1578.54,-636.24 1589.52,-626.75"/>
<polygon fill="grey" stroke="grey" stroke-width="2" points="1591.93,-629.29 1597.21,-620.1 1587.35,-623.99 1591.93,-629.29"/>
</g>
<!-- 33&#45;&gt;51 -->
<g id="edge115" class="edge">
<title>33&#45;&gt;51</title>
<path fill="none" stroke="grey" stroke-width="2" d="M1479.7,-660.84C1436.69,-651.09 1376.12,-636.36 1324,-620 1259.41,-599.72 1186.78,-571.17 1139.82,-551.92"/>
<polygon fill="grey" stroke="grey" stroke-width="2" points="1141.07,-548.65 1130.49,-548.08 1138.4,-555.12 1141.07,-548.65"/>
</g>
<!-- 33&#45;&gt;54 -->
<g id="edge116" class="edge">
<title>33&#45;&gt;54</title>
<path fill="none" stroke="grey" stroke-width="2" d="M1530.72,-655.75C1519.1,-614.13 1496.01,-506.69 1544,-440 1552.92,-427.6 1565.73,-417.39 1578.63,-409.37"/>
<polygon fill="grey" stroke="grey" stroke-width="2" points="1580.66,-412.23 1587.52,-404.16 1577.12,-406.19 1580.66,-412.23"/>
</g>
<!-- 34 -->
<g id="node23" class="node">
<title>34</title>
<path fill="none" stroke="#b6d856" stroke-width="2" d="M1589.5,-764C1589.5,-764 1474.5,-764 1474.5,-764 1468.5,-764 1462.5,-758 1462.5,-752 1462.5,-752 1462.5,-740 1462.5,-740 1462.5,-734 1468.5,-728 1474.5,-728 1474.5,-728 1589.5,-728 1589.5,-728 1595.5,-728 1601.5,-734 1601.5,-740 1601.5,-740 1601.5,-752 1601.5,-752 1601.5,-758 1595.5,-764 1589.5,-764"/>
<text text-anchor="middle" x="1532" y="-743.5" font-family="sans" font-size="10.00">prep_equivolume_coords</text>
</g>
<!-- 34&#45;&gt;33 -->
<g id="edge21" class="edge">
<title>34&#45;&gt;33</title>
<path fill="none" stroke="grey" stroke-width="2" d="M1532.99,-727.7C1533.43,-719.98 1533.96,-710.71 1534.45,-702.11"/>
<polygon fill="grey" stroke="grey" stroke-width="2" points="1537.95,-702.29 1535.02,-692.1 1530.96,-701.89 1537.95,-702.29"/>
</g>
<!-- 47 -->
<g id="node24" class="node">
<title>47</title>
<path fill="none" stroke="#569ad8" stroke-width="2" d="M1874,-764C1874,-764 1766,-764 1766,-764 1760,-764 1754,-758 1754,-752 1754,-752 1754,-740 1754,-740 1754,-734 1760,-728 1766,-728 1766,-728 1874,-728 1874,-728 1880,-728 1886,-734 1886,-740 1886,-740 1886,-752 1886,-752 1886,-758 1880,-764 1874,-764"/>
<text text-anchor="middle" x="1820" y="-743.5" font-family="sans" font-size="10.00">laplace_coords_dentate</text>
</g>
<!-- 47&#45;&gt;46 -->
<g id="edge121" class="edge">
<title>47&#45;&gt;46</title>
<path fill="none" stroke="grey" stroke-width="2" d="M1838.3,-727.92C1875.21,-694.5 1962.53,-620.56 2050,-584 2079.6,-571.63 2090.8,-581.82 2121,-571 2133.64,-566.47 2146.69,-559.88 2158.16,-553.36"/>
<polygon fill="grey" stroke="grey" stroke-width="2" points="2160.13,-556.26 2166.97,-548.17 2156.58,-550.22 2160.13,-556.26"/>
</g>
<!-- 47&#45;&gt;35 -->
<g id="edge120" class="edge">
<title>47&#45;&gt;35</title>
<path fill="none" stroke="grey" stroke-width="2" d="M1886.01,-744.31C2001.63,-742.55 2231.35,-736.37 2261,-715 2288.28,-695.34 2299.43,-656.52 2303.95,-630.16"/>
<polygon fill="grey" stroke="grey" stroke-width="2" points="2307.45,-630.47 2305.47,-620.06 2300.52,-629.43 2307.45,-630.47"/>
</g>
<!-- 47&#45;&gt;11 -->
<g id="edge22" class="edge">
<title>47&#45;&gt;11</title>
<path fill="none" stroke="grey" stroke-width="2" d="M1793.82,-727.88C1779.96,-718.81 1762.76,-707.55 1747.79,-697.76"/>
<polygon fill="grey" stroke="grey" stroke-width="2" points="1749.56,-694.74 1739.28,-692.19 1745.73,-700.59 1749.56,-694.74"/>
</g>
<!-- 47&#45;&gt;54 -->
<g id="edge122" class="edge">
<title>47&#45;&gt;54</title>
<path fill="none" stroke="grey" stroke-width="2" d="M1810.69,-727.73C1779.48,-669.84 1678.41,-482.36 1641.05,-413.06"/>
<polygon fill="grey" stroke="grey" stroke-width="2" points="1644.04,-411.24 1636.22,-404.09 1637.88,-414.56 1644.04,-411.24"/>
</g>
<!-- 17 -->
<g id="node25" class="node">
<title>17</title>
<path fill="none" stroke="#56a2d8" stroke-width="2" d="M717.5,-980C717.5,-980 682.5,-980 682.5,-980 676.5,-980 670.5,-974 670.5,-968 670.5,-968 670.5,-956 670.5,-956 670.5,-950 676.5,-944 682.5,-944 682.5,-944 717.5,-944 717.5,-944 723.5,-944 729.5,-950 729.5,-956 729.5,-956 729.5,-968 729.5,-968 729.5,-974 723.5,-980 717.5,-980"/>
<text text-anchor="middle" x="700" y="-959.5" font-family="sans" font-size="10.00">lr_flip_t2</text>
</g>
<!-- 16 -->
<g id="node62" class="node">
<title>16</title>
<path fill="none" stroke="#d8bc56" stroke-width="2" d="M833.5,-980C833.5,-980 774.5,-980 774.5,-980 768.5,-980 762.5,-974 762.5,-968 762.5,-968 762.5,-956 762.5,-956 762.5,-950 768.5,-944 774.5,-944 774.5,-944 833.5,-944 833.5,-944 839.5,-944 845.5,-950 845.5,-956 845.5,-956 845.5,-968 845.5,-968 845.5,-974 839.5,-980 833.5,-980"/>
<text text-anchor="middle" x="804" y="-959.5" font-family="sans" font-size="10.00">run_inference</text>
</g>
<!-- 17&#45;&gt;16 -->
<g id="edge95" class="edge">
<title>17&#45;&gt;16</title>
<path fill="none" stroke="grey" stroke-width="2" d="M729.66,-962C737.18,-962 744.7,-962 752.22,-962"/>
<polygon fill="grey" stroke="grey" stroke-width="2" points="752.47,-965.5 762.47,-962 752.47,-958.5 752.47,-965.5"/>
</g>
<!-- 18 -->
<g id="node26" class="node">
<title>18</title>
<path fill="none" stroke="#59d856" stroke-width="2" d="M718,-1052C718,-1052 610,-1052 610,-1052 604,-1052 598,-1046 598,-1040 598,-1040 598,-1028 598,-1028 598,-1022 604,-1016 610,-1016 610,-1016 718,-1016 718,-1016 724,-1016 730,-1022 730,-1028 730,-1028 730,-1040 730,-1040 730,-1046 724,-1052 718,-1052"/>
<text text-anchor="middle" x="664" y="-1031.5" font-family="sans" font-size="10.00">warp_t2_to_corobl_crop</text>
</g>
<!-- 18&#45;&gt;17 -->
<g id="edge23" class="edge">
<title>18&#45;&gt;17</title>
<path fill="none" stroke="grey" stroke-width="2" d="M672.9,-1015.7C677,-1007.73 681.95,-998.1 686.49,-989.26"/>
<polygon fill="grey" stroke="grey" stroke-width="2" points="689.74,-990.6 691.2,-980.1 683.52,-987.4 689.74,-990.6"/>
</g>
<!-- 18&#45;&gt;16 -->
<g id="edge96" class="edge">
<title>18&#45;&gt;16</title>
<path fill="none" stroke="grey" stroke-width="2" d="M706.18,-1015.85C715.44,-1011.83 725.12,-1007.42 734,-1003 744.85,-997.6 756.38,-991.27 766.87,-985.26"/>
<polygon fill="grey" stroke="grey" stroke-width="2" points="768.89,-988.14 775.79,-980.1 765.38,-982.08 768.89,-988.14"/>
</g>
<!-- 64 -->
<g id="node63" class="node">
<title>64</title>
<path fill="none" stroke="#d89c56" stroke-width="2" d="M807,-836C807,-836 743,-836 743,-836 737,-836 731,-830 731,-824 731,-824 731,-812 731,-812 731,-806 737,-800 743,-800 743,-800 807,-800 807,-800 813,-800 819,-806 819,-812 819,-812 819,-824 819,-824 819,-830 813,-836 807,-836"/>
<text text-anchor="middle" x="775" y="-815.5" font-family="sans" font-size="10.00">qc_nnunet_f3d</text>
</g>
<!-- 18&#45;&gt;64 -->
<g id="edge97" class="edge">
<title>18&#45;&gt;64</title>
<path fill="none" stroke="grey" stroke-width="2" d="M659.88,-1015.94C656.28,-997.53 652.89,-967.65 662,-944 678.19,-901.94 715.82,-865.23 743.22,-842.67"/>
<polygon fill="grey" stroke="grey" stroke-width="2" points="745.76,-845.12 751.36,-836.13 741.37,-839.66 745.76,-845.12"/>
</g>
<!-- 19 -->
<g id="node27" class="node">
<title>19</title>
<path fill="none" stroke="#d88556" stroke-width="2" d="M704,-1268C704,-1268 606,-1268 606,-1268 600,-1268 594,-1262 594,-1256 594,-1256 594,-1244 594,-1244 594,-1238 600,-1232 606,-1232 606,-1232 704,-1232 704,-1232 710,-1232 716,-1238 716,-1244 716,-1244 716,-1256 716,-1256 716,-1262 710,-1268 704,-1268"/>
<text text-anchor="middle" x="655" y="-1247.5" font-family="sans" font-size="10.00">avg_aligned_or_cp_t2</text>
</g>
<!-- 19&#45;&gt;18 -->
<g id="edge24" class="edge">
<title>19&#45;&gt;18</title>
<path fill="none" stroke="grey" stroke-width="2" d="M670.35,-1231.76C686.23,-1212.63 709.95,-1180.07 719,-1147 725.92,-1121.71 729.26,-1112.13 719,-1088 714.27,-1076.86 705.92,-1066.93 697.13,-1058.76"/>
<polygon fill="grey" stroke="grey" stroke-width="2" points="699.23,-1055.95 689.38,-1052.05 694.65,-1061.24 699.23,-1055.95"/>
</g>
<!-- 19&#45;&gt;23 -->
<g id="edge25" class="edge">
<title>19&#45;&gt;23</title>
<path fill="none" stroke="grey" stroke-width="2" d="M651.79,-1231.7C650.35,-1223.98 648.63,-1214.71 647.04,-1206.11"/>
<polygon fill="grey" stroke="grey" stroke-width="2" points="650.44,-1205.3 645.18,-1196.1 643.56,-1206.58 650.44,-1205.3"/>
</g>
<!-- 53 -->
<g id="node49" class="node">
<title>53</title>
<path fill="none" stroke="#56d8d0" stroke-width="2" d="M1143,-404C1143,-404 1005,-404 1005,-404 999,-404 993,-398 993,-392 993,-392 993,-380 993,-380 993,-374 999,-368 1005,-368 1005,-368 1143,-368 1143,-368 1149,-368 1155,-374 1155,-380 1155,-380 1155,-392 1155,-392 1155,-398 1149,-404 1143,-404"/>
<text text-anchor="middle" x="1074" y="-383.5" font-family="sans" font-size="10.00">resample_subfields_to_native</text>
</g>
<!-- 19&#45;&gt;53 -->
<g id="edge98" class="edge">
<title>19&#45;&gt;53</title>
<path fill="none" stroke="grey" stroke-width="2" d="M632.43,-1231.79C620.5,-1222.05 606.08,-1209.2 595,-1196 541.69,-1132.5 527.86,-1096.9 546,-1016 553.74,-981.47 551.41,-964.85 580,-944 679.24,-871.63 764.7,-992.33 854,-908 954.32,-813.26 912,-740.98 912,-603 912,-603 912,-603 912,-529 912,-486.5 917.26,-470.36 947,-440 960.67,-426.05 978.56,-415.6 996.58,-407.84"/>
<polygon fill="grey" stroke="grey" stroke-width="2" points="998.04,-411.03 1005.99,-404.03 995.41,-404.54 998.04,-411.03"/>
</g>
<!-- 57 -->
<g id="node61" class="node">
<title>57</title>
<path fill="none" stroke="#56c1d8" stroke-width="2" d="M1516,-404C1516,-404 1400,-404 1400,-404 1394,-404 1388,-398 1388,-392 1388,-392 1388,-380 1388,-380 1388,-374 1394,-368 1400,-368 1400,-368 1516,-368 1516,-368 1522,-368 1528,-374 1528,-380 1528,-380 1528,-392 1528,-392 1528,-398 1522,-404 1516,-404"/>
<text text-anchor="middle" x="1458" y="-383.5" font-family="sans" font-size="10.00">resample_native_to_crop</text>
</g>
<!-- 19&#45;&gt;57 -->
<g id="edge99" class="edge">
<title>19&#45;&gt;57</title>
<path fill="none" stroke="grey" stroke-width="2" d="M716.08,-1238.89C822.35,-1219.56 1030,-1173.31 1030,-1107 1030,-1107 1030,-1107 1030,-961 1030,-910.68 1055.94,-896.32 1100,-872 1167.29,-834.86 1368.54,-850.61 1444,-836 1501.18,-824.93 1512.5,-809.25 1570,-800 1587.57,-797.17 1877.68,-799.83 1890,-787 1952.54,-721.87 1939.75,-653.41 1882,-584 1869.23,-568.65 1857.6,-578.25 1839,-571 1711.21,-521.18 1567.15,-446.15 1498.53,-409.19"/>
<polygon fill="grey" stroke="grey" stroke-width="2" points="1499.82,-405.91 1489.36,-404.23 1496.5,-412.07 1499.82,-405.91"/>
</g>
<!-- 23&#45;&gt;22 -->
<g id="edge29" class="edge">
<title>23&#45;&gt;22</title>
<path fill="none" stroke="grey" stroke-width="2" d="M642,-1159.7C642,-1151.98 642,-1142.71 642,-1134.11"/>
<polygon fill="grey" stroke="grey" stroke-width="2" points="645.5,-1134.1 642,-1124.1 638.5,-1134.1 645.5,-1134.1"/>
</g>
<!-- 20 -->
<g id="node29" class="node">
<title>20</title>
<path fill="none" stroke="#56d873" stroke-width="2" d="M670,-1340C670,-1340 640,-1340 640,-1340 634,-1340 628,-1334 628,-1328 628,-1328 628,-1316 628,-1316 628,-1310 634,-1304 640,-1304 640,-1304 670,-1304 670,-1304 676,-1304 682,-1310 682,-1316 682,-1316 682,-1328 682,-1328 682,-1334 676,-1340 670,-1340"/>
<text text-anchor="middle" x="655" y="-1319.5" font-family="sans" font-size="10.00">n4_t2</text>
</g>
<!-- 20&#45;&gt;19 -->
<g id="edge26" class="edge">
<title>20&#45;&gt;19</title>
<path fill="none" stroke="grey" stroke-width="2" d="M655,-1303.7C655,-1295.98 655,-1286.71 655,-1278.11"/>
<polygon fill="grey" stroke="grey" stroke-width="2" points="658.5,-1278.1 655,-1268.1 651.5,-1278.1 658.5,-1278.1"/>
</g>
<!-- 21 -->
<g id="node30" class="node">
<title>21</title>
<path fill="none" stroke="#56a9d8" stroke-width="2" d="M675,-1412C675,-1412 635,-1412 635,-1412 629,-1412 623,-1406 623,-1400 623,-1400 623,-1388 623,-1388 623,-1382 629,-1376 635,-1376 635,-1376 675,-1376 675,-1376 681,-1376 687,-1382 687,-1388 687,-1388 687,-1400 687,-1400 687,-1406 681,-1412 675,-1412"/>
<text text-anchor="middle" x="655" y="-1391.5" font-family="sans" font-size="10.00">import_t2</text>
</g>
<!-- 21&#45;&gt;20 -->
<g id="edge27" class="edge">
<title>21&#45;&gt;20</title>
<path fill="none" stroke="grey" stroke-width="2" d="M655,-1375.7C655,-1367.98 655,-1358.71 655,-1350.11"/>
<polygon fill="grey" stroke="grey" stroke-width="2" points="658.5,-1350.1 655,-1340.1 651.5,-1350.1 658.5,-1350.1"/>
</g>
<!-- 22&#45;&gt;38 -->
<g id="edge100" class="edge">
<title>22&#45;&gt;38</title>
<path fill="none" stroke="grey" stroke-width="2" d="M626.34,-1124.26C592.42,-1161.34 512.52,-1246.96 479,-1268 455.6,-1282.69 427.56,-1294.02 402.16,-1302.36"/>
<polygon fill="grey" stroke="grey" stroke-width="2" points="401.04,-1299.05 392.57,-1305.42 403.16,-1305.72 401.04,-1299.05"/>
</g>
<!-- 22&#45;&gt;55 -->
<g id="edge104" class="edge">
<title>22&#45;&gt;55</title>
<path fill="none" stroke="grey" stroke-width="2" d="M710.15,-1101.55C1042.78,-1084.52 2480,-1008.28 2480,-963 2480,-963 2480,-963 2480,-601 2480,-543.41 2421.17,-503.12 2375.54,-480.52"/>
<polygon fill="grey" stroke="grey" stroke-width="2" points="2376.85,-477.27 2366.32,-476.11 2373.82,-483.58 2376.85,-477.27"/>
</g>
<!-- 22&#45;&gt;56 -->
<g id="edge105" class="edge">
<title>22&#45;&gt;56</title>
<path fill="none" stroke="grey" stroke-width="2" d="M710.22,-1103.67C785.01,-1100.28 907.48,-1088.93 1006,-1052 1043.63,-1037.89 1056.9,-1034.38 1082,-1003 1120.73,-954.58 1080.03,-908.72 1130,-872 1197.41,-822.47 1801.79,-859.76 1882,-836 1923.44,-823.73 1942.54,-823.3 1966,-787 2032.72,-683.79 1923.56,-612 1995,-512 2004.77,-498.32 2018.98,-488.08 2034.07,-480.44"/>
<polygon fill="grey" stroke="grey" stroke-width="2" points="2035.98,-483.41 2043.55,-476.01 2033.01,-477.07 2035.98,-483.41"/>
</g>
<!-- 22&#45;&gt;18 -->
<g id="edge28" class="edge">
<title>22&#45;&gt;18</title>
<path fill="none" stroke="grey" stroke-width="2" d="M647.44,-1087.7C649.89,-1079.9 652.84,-1070.51 655.57,-1061.83"/>
<polygon fill="grey" stroke="grey" stroke-width="2" points="658.96,-1062.69 658.62,-1052.1 652.29,-1060.59 658.96,-1062.69"/>
</g>
<!-- 22&#45;&gt;53 -->
<g id="edge102" class="edge">
<title>22&#45;&gt;53</title>
<path fill="none" stroke="grey" stroke-width="2" d="M596.45,-1087.98C580.75,-1079.66 564.89,-1067.93 556,-1052 548.2,-1038.03 547.81,-1029.75 556,-1016 562.21,-1005.58 570.66,-1010.74 580,-1003 606.03,-981.43 598.53,-960.55 628,-944 731.25,-886.02 803.85,-987.07 892,-908 971.44,-836.74 950,-781.72 950,-675 950,-675 950,-675 950,-529 950,-487.11 954.21,-472.2 981,-440 991.63,-427.22 1006.18,-416.91 1020.62,-408.89"/>
<polygon fill="grey" stroke="grey" stroke-width="2" points="1022.34,-411.94 1029.56,-404.19 1019.08,-405.74 1022.34,-411.94"/>
</g>
<!-- 48 -->
<g id="node58" class="node">
<title>48</title>
<path fill="none" stroke="#56d88a" stroke-width="2" d="M1357.5,-404C1357.5,-404 1208.5,-404 1208.5,-404 1202.5,-404 1196.5,-398 1196.5,-392 1196.5,-392 1196.5,-380 1196.5,-380 1196.5,-374 1202.5,-368 1208.5,-368 1208.5,-368 1357.5,-368 1357.5,-368 1363.5,-368 1369.5,-374 1369.5,-380 1369.5,-380 1369.5,-392 1369.5,-392 1369.5,-398 1363.5,-404 1357.5,-404"/>
<text text-anchor="middle" x="1283" y="-383.5" font-family="sans" font-size="10.00">resample_subfields_native_crop</text>
</g>
<!-- 22&#45;&gt;48 -->
<g id="edge101" class="edge">
<title>22&#45;&gt;48</title>
<path fill="none" stroke="grey" stroke-width="2" d="M617.52,-1087.77C606.6,-1078.56 594.88,-1066.19 589,-1052 582.88,-1037.22 580.3,-1029.43 589,-1016 596.68,-1004.14 606.98,-1011.83 618,-1003 643.52,-982.54 633.84,-960.64 662,-944 762.43,-884.64 809.02,-937.05 922,-908 965.33,-896.86 972.41,-882.08 1016,-872 1103.81,-851.69 1359.16,-902.5 1420,-836 1491.14,-758.24 1376,-708.39 1376,-603 1376,-603 1376,-603 1376,-529 1376,-488.55 1379.16,-473.84 1357,-440 1349.13,-427.98 1337.51,-417.81 1325.8,-409.7"/>
<polygon fill="grey" stroke="grey" stroke-width="2" points="1327.6,-406.69 1317.32,-404.15 1323.78,-412.55 1327.6,-406.69"/>
</g>
<!-- 22&#45;&gt;54 -->
<g id="edge103" class="edge">
<title>22&#45;&gt;54</title>
<path fill="none" stroke="grey" stroke-width="2" d="M678.61,-1087.94C721.05,-1068.04 792.97,-1033.92 854,-1003 964.5,-947.02 981.05,-906.58 1100,-872 1301.17,-813.52 1361.68,-858.21 1570,-836 1589.96,-833.87 1914.8,-802.13 1928,-787 1987.55,-718.75 1961.43,-658.56 1910,-584 1850.79,-498.17 1741.14,-437.93 1677.1,-408.2"/>
<polygon fill="grey" stroke="grey" stroke-width="2" points="1678.54,-405.01 1667.99,-404.04 1675.63,-411.38 1678.54,-405.01"/>
</g>
<!-- 1 -->
<g id="node32" class="node">
<title>1</title>
<path fill="none" stroke="#56d892" stroke-width="2" d="M541,-44C541,-44 457,-44 457,-44 451,-44 445,-38 445,-32 445,-32 445,-20 445,-20 445,-14 451,-8 457,-8 457,-8 541,-8 541,-8 547,-8 553,-14 553,-20 553,-20 553,-32 553,-32 553,-38 547,-44 541,-44"/>
<text text-anchor="middle" x="499" y="-23.5" font-family="sans" font-size="10.00">merge_lr_spec_file</text>
</g>
<!-- 1&#45;&gt;0 -->
<g id="edge73" class="edge">
<title>1&#45;&gt;0</title>
<path fill="none" stroke="grey" stroke-width="2" d="M553.08,-35.8C715.66,-62.24 1197.22,-140.57 1334.87,-162.96"/>
<polygon fill="grey" stroke="grey" stroke-width="2" points="1334.48,-166.44 1344.92,-164.59 1335.61,-159.53 1334.48,-166.44"/>
</g>
<!-- 2 -->
<g id="node33" class="node">
<title>2</title>
<path fill="none" stroke="#56d8b1" stroke-width="2" d="M548,-116C548,-116 450,-116 450,-116 444,-116 438,-110 438,-104 438,-104 438,-92 438,-92 438,-86 444,-80 450,-80 450,-80 548,-80 548,-80 554,-80 560,-86 560,-92 560,-92 560,-104 560,-104 560,-110 554,-116 548,-116"/>
<text text-anchor="middle" x="499" y="-95.5" font-family="sans" font-size="10.00">create_spec_file_hipp</text>
</g>
<!-- 2&#45;&gt;1 -->
<g id="edge30" class="edge">
<title>2&#45;&gt;1</title>
<path fill="none" stroke="grey" stroke-width="2" d="M499,-79.7C499,-71.98 499,-62.71 499,-54.11"/>
<polygon fill="grey" stroke="grey" stroke-width="2" points="502.5,-54.1 499,-44.1 495.5,-54.1 502.5,-54.1"/>
</g>
<!-- 3 -->
<g id="node34" class="node">
<title>3</title>
<path fill="none" stroke="#56d8b1" stroke-width="2" d="M177.5,-260C177.5,-260 80.5,-260 80.5,-260 74.5,-260 68.5,-254 68.5,-248 68.5,-248 68.5,-236 68.5,-236 68.5,-230 74.5,-224 80.5,-224 80.5,-224 177.5,-224 177.5,-224 183.5,-224 189.5,-230 189.5,-236 189.5,-236 189.5,-248 189.5,-248 189.5,-254 183.5,-260 177.5,-260"/>
<text text-anchor="middle" x="129" y="-239.5" font-family="sans" font-size="10.00">calculate_gyrification</text>
</g>
<!-- 3&#45;&gt;2 -->
<g id="edge31" class="edge">
<title>3&#45;&gt;2</title>
<path fill="none" stroke="grey" stroke-width="2" d="M140.63,-223.84C155.54,-203.28 183.42,-169.42 216,-152 282.15,-116.63 368,-104.52 427.71,-100.55"/>
<polygon fill="grey" stroke="grey" stroke-width="2" points="428.04,-104.03 437.81,-99.94 427.61,-97.05 428.04,-104.03"/>
</g>
<!-- 44 -->
<g id="node35" class="node">
<title>44</title>
<path fill="none" stroke="#d8bc56" stroke-width="2" d="M361,-188C361,-188 237,-188 237,-188 231,-188 225,-182 225,-176 225,-176 225,-164 225,-164 225,-158 231,-152 237,-152 237,-152 361,-152 361,-152 367,-152 373,-158 373,-164 373,-164 373,-176 373,-176 373,-182 367,-188 361,-188"/>
<text text-anchor="middle" x="299" y="-167.5" font-family="sans" font-size="10.00">create_dscalar_metric_cifti</text>
</g>
<!-- 3&#45;&gt;44 -->
<g id="edge32" class="edge">
<title>3&#45;&gt;44</title>
<path fill="none" stroke="grey" stroke-width="2" d="M170.59,-223.88C194.03,-214.22 223.5,-202.09 248.3,-191.88"/>
<polygon fill="grey" stroke="grey" stroke-width="2" points="249.63,-195.11 257.55,-188.07 246.97,-188.64 249.63,-195.11"/>
</g>
<!-- 45 -->
<g id="node36" class="node">
<title>45</title>
<path fill="none" stroke="#8fd856" stroke-width="2" d="M223,-116C223,-116 109,-116 109,-116 103,-116 97,-110 97,-104 97,-104 97,-92 97,-92 97,-86 103,-80 109,-80 109,-80 223,-80 223,-80 229,-80 235,-86 235,-92 235,-92 235,-104 235,-104 235,-110 229,-116 223,-116"/>
<text text-anchor="middle" x="166" y="-95.5" font-family="sans" font-size="10.00">create_spec_file_dentate</text>
</g>
<!-- 3&#45;&gt;45 -->
<g id="edge33" class="edge">
<title>3&#45;&gt;45</title>
<path fill="none" stroke="grey" stroke-width="2" d="M133.46,-223.87C139.8,-199.56 151.46,-154.82 158.96,-126.01"/>
<polygon fill="grey" stroke="grey" stroke-width="2" points="162.39,-126.75 161.52,-116.19 155.61,-124.98 162.39,-126.75"/>
</g>
<!-- 44&#45;&gt;2 -->
<g id="edge54" class="edge">
<title>44&#45;&gt;2</title>
<path fill="none" stroke="grey" stroke-width="2" d="M347.67,-151.97C375.61,-142.19 410.9,-129.84 440.36,-119.52"/>
<polygon fill="grey" stroke="grey" stroke-width="2" points="441.83,-122.72 450.11,-116.11 439.52,-116.11 441.83,-122.72"/>
</g>
<!-- 44&#45;&gt;45 -->
<g id="edge55" class="edge">
<title>44&#45;&gt;45</title>
<path fill="none" stroke="grey" stroke-width="2" d="M266.46,-151.88C248.75,-142.55 226.65,-130.92 207.68,-120.94"/>
<polygon fill="grey" stroke="grey" stroke-width="2" points="209.14,-117.75 198.66,-116.19 205.88,-123.94 209.14,-117.75"/>
</g>
<!-- 45&#45;&gt;1 -->
<g id="edge56" class="edge">
<title>45&#45;&gt;1</title>
<path fill="none" stroke="grey" stroke-width="2" d="M235.4,-82.41C294.11,-70.07 377.58,-52.52 434.77,-40.5"/>
<polygon fill="grey" stroke="grey" stroke-width="2" points="435.71,-43.88 444.78,-38.4 434.27,-37.03 435.71,-43.88"/>
</g>
<!-- 4 -->
<g id="node37" class="node">
<title>4</title>
<path fill="none" stroke="#d85656" stroke-width="2" d="M236.5,-332C236.5,-332 131.5,-332 131.5,-332 125.5,-332 119.5,-326 119.5,-320 119.5,-320 119.5,-308 119.5,-308 119.5,-302 125.5,-296 131.5,-296 131.5,-296 236.5,-296 236.5,-296 242.5,-296 248.5,-302 248.5,-308 248.5,-308 248.5,-320 248.5,-320 248.5,-326 242.5,-332 236.5,-332"/>
<text text-anchor="middle" x="184" y="-311.5" font-family="sans" font-size="10.00">calculate_surface_area</text>
</g>
<!-- 4&#45;&gt;3 -->
<g id="edge34" class="edge">
<title>4&#45;&gt;3</title>
<path fill="none" stroke="grey" stroke-width="2" d="M170.4,-295.7C163.88,-287.39 155.93,-277.28 148.75,-268.14"/>
<polygon fill="grey" stroke="grey" stroke-width="2" points="151.37,-265.81 142.44,-260.1 145.87,-270.13 151.37,-265.81"/>
</g>
<!-- 5&#45;&gt;60 -->
<g id="edge74" class="edge">
<title>5&#45;&gt;60</title>
<path fill="none" stroke="grey" stroke-width="2" d="M436.63,-385.29C515.77,-384.75 666.55,-380.09 792,-355 814.68,-350.46 839.01,-342.89 859.79,-335.55"/>
<polygon fill="grey" stroke="grey" stroke-width="2" points="861.16,-338.77 869.38,-332.09 858.78,-332.19 861.16,-338.77"/>
</g>
<!-- 5&#45;&gt;2 -->
<g id="edge35" class="edge">
<title>5&#45;&gt;2</title>
<path fill="none" stroke="grey" stroke-width="2" d="M436.78,-385.21C521.74,-382.2 683.17,-362.44 757,-260 812.23,-183.37 664.24,-135.21 570.11,-113.16"/>
<polygon fill="grey" stroke="grey" stroke-width="2" points="570.86,-109.74 560.33,-110.91 569.29,-116.56 570.86,-109.74"/>
</g>
<!-- 5&#45;&gt;45 -->
<g id="edge39" class="edge">
<title>5&#45;&gt;45</title>
<path fill="none" stroke="grey" stroke-width="2" d="M327.29,-384.87C258.25,-383.71 144.35,-378.2 110,-355 58.22,-320.03 37.34,-282.61 59,-224 74.35,-182.48 110.32,-145.42 136.33,-122.64"/>
<polygon fill="grey" stroke="grey" stroke-width="2" points="138.72,-125.2 144.05,-116.04 134.17,-119.88 138.72,-125.2"/>
</g>
<!-- 5&#45;&gt;4 -->
<g id="edge36" class="edge">
<title>5&#45;&gt;4</title>
<path fill="none" stroke="grey" stroke-width="2" d="M327.36,-371.05C310.72,-366.4 292.48,-360.88 276,-355 260.66,-349.52 244.25,-342.71 229.6,-336.27"/>
<polygon fill="grey" stroke="grey" stroke-width="2" points="230.82,-332.98 220.26,-332.11 227.97,-339.37 230.82,-332.98"/>
</g>
<!-- 40 -->
<g id="node39" class="node">
<title>40</title>
<path fill="none" stroke="#566bd8" stroke-width="2" d="M367.5,-332C367.5,-332 296.5,-332 296.5,-332 290.5,-332 284.5,-326 284.5,-320 284.5,-320 284.5,-308 284.5,-308 284.5,-302 290.5,-296 296.5,-296 296.5,-296 367.5,-296 367.5,-296 373.5,-296 379.5,-302 379.5,-308 379.5,-308 379.5,-320 379.5,-320 379.5,-326 373.5,-332 367.5,-332"/>
<text text-anchor="middle" x="332" y="-311.5" font-family="sans" font-size="10.00">smooth_surface</text>
</g>
<!-- 5&#45;&gt;40 -->
<g id="edge37" class="edge">
<title>5&#45;&gt;40</title>
<path fill="none" stroke="grey" stroke-width="2" d="M369.64,-367.7C363.77,-359.47 356.63,-349.48 350.16,-340.42"/>
<polygon fill="grey" stroke="grey" stroke-width="2" points="352.88,-338.21 344.22,-332.1 347.18,-342.28 352.88,-338.21"/>
</g>
<!-- 41 -->
<g id="node40" class="node">
<title>41</title>
<path fill="none" stroke="#80d856" stroke-width="2" d="M578,-260C578,-260 420,-260 420,-260 414,-260 408,-254 408,-248 408,-248 408,-236 408,-236 408,-230 414,-224 420,-224 420,-224 578,-224 578,-224 584,-224 590,-230 590,-236 590,-236 590,-248 590,-248 590,-254 584,-260 578,-260"/>
<text text-anchor="middle" x="499" y="-239.5" font-family="sans" font-size="10.00">calculate_thickness_from_surface</text>
</g>
<!-- 5&#45;&gt;41 -->
<g id="edge38" class="edge">
<title>5&#45;&gt;41</title>
<path fill="none" stroke="grey" stroke-width="2" d="M396.11,-367.87C416.58,-343.03 454.63,-296.85 478.28,-268.14"/>
<polygon fill="grey" stroke="grey" stroke-width="2" points="481.18,-270.13 484.84,-260.19 475.78,-265.68 481.18,-270.13"/>
</g>
<!-- 39 -->
<g id="node45" class="node">
<title>39</title>
<path fill="none" stroke="#9fd856" stroke-width="2" d="M378,-260C378,-260 220,-260 220,-260 214,-260 208,-254 208,-248 208,-248 208,-236 208,-236 208,-230 214,-224 220,-224 220,-224 378,-224 378,-224 384,-224 390,-230 390,-236 390,-236 390,-248 390,-248 390,-254 384,-260 378,-260"/>
<text text-anchor="middle" x="299" y="-239.5" font-family="sans" font-size="10.00">calculate_curvature_from_surface</text>
</g>
<!-- 40&#45;&gt;39 -->
<g id="edge49" class="edge">
<title>40&#45;&gt;39</title>
<path fill="none" stroke="grey" stroke-width="2" d="M323.84,-295.7C320.09,-287.73 315.55,-278.1 311.38,-269.26"/>
<polygon fill="grey" stroke="grey" stroke-width="2" points="314.49,-267.66 307.06,-260.1 308.16,-270.64 314.49,-267.66"/>
</g>
<!-- 41&#45;&gt;2 -->
<g id="edge50" class="edge">
<title>41&#45;&gt;2</title>
<path fill="none" stroke="grey" stroke-width="2" d="M499,-223.87C499,-199.67 499,-155.21 499,-126.39"/>
<polygon fill="grey" stroke="grey" stroke-width="2" points="502.5,-126.19 499,-116.19 495.5,-126.19 502.5,-126.19"/>
</g>
<!-- 41&#45;&gt;44 -->
<g id="edge51" class="edge">
<title>41&#45;&gt;44</title>
<path fill="none" stroke="grey" stroke-width="2" d="M450.33,-223.97C422.39,-214.19 387.1,-201.84 357.64,-191.52"/>
<polygon fill="grey" stroke="grey" stroke-width="2" points="358.48,-188.11 347.89,-188.11 356.17,-194.72 358.48,-188.11"/>
</g>
<!-- 6 -->
<g id="node41" class="node">
<title>6</title>
<path fill="none" stroke="#d86656" stroke-width="2" d="M621,-476C621,-476 527,-476 527,-476 521,-476 515,-470 515,-464 515,-464 515,-452 515,-452 515,-446 521,-440 527,-440 527,-440 621,-440 621,-440 627,-440 633,-446 633,-452 633,-452 633,-464 633,-464 633,-470 627,-476 621,-476"/>
<text text-anchor="middle" x="574" y="-455.5" font-family="sans" font-size="10.00">correct_nan_vertices</text>
</g>
<!-- 6&#45;&gt;5 -->
<g id="edge40" class="edge">
<title>6&#45;&gt;5</title>
<path fill="none" stroke="grey" stroke-width="2" d="M527.03,-439.88C500.32,-430.14 466.68,-417.87 438.53,-407.61"/>
<polygon fill="grey" stroke="grey" stroke-width="2" points="439.41,-404.21 428.82,-404.07 437.01,-410.78 439.41,-404.21"/>
</g>
<!-- 7&#45;&gt;6 -->
<g id="edge41" class="edge">
<title>7&#45;&gt;6</title>
<path fill="none" stroke="grey" stroke-width="2" d="M657.09,-511.88C642.84,-502.81 625.15,-491.55 609.76,-481.76"/>
<polygon fill="grey" stroke="grey" stroke-width="2" points="611.33,-478.61 601.01,-476.19 607.57,-484.51 611.33,-478.61"/>
</g>
<!-- 36&#45;&gt;7 -->
<g id="edge42" class="edge">
<title>36&#45;&gt;7</title>
<path fill="none" stroke="grey" stroke-width="2" d="M684,-583.7C684,-575.98 684,-566.71 684,-558.11"/>
<polygon fill="grey" stroke="grey" stroke-width="2" points="687.5,-558.1 684,-548.1 680.5,-558.1 687.5,-558.1"/>
</g>
<!-- 37 -->
<g id="node44" class="node">
<title>37</title>
<path fill="none" stroke="#566bd8" stroke-width="2" d="M736,-692C736,-692 632,-692 632,-692 626,-692 620,-686 620,-680 620,-680 620,-668 620,-668 620,-662 626,-656 632,-656 632,-656 736,-656 736,-656 742,-656 748,-662 748,-668 748,-668 748,-680 748,-680 748,-686 742,-692 736,-692"/>
<text text-anchor="middle" x="684" y="-671.5" font-family="sans" font-size="10.00">cp_template_to_unfold</text>
</g>
<!-- 37&#45;&gt;2 -->
<g id="edge43" class="edge">
<title>37&#45;&gt;2</title>
<path fill="none" stroke="grey" stroke-width="2" d="M719.32,-656C733.67,-647.26 748.96,-635.22 758,-620 778.36,-585.74 769,-570.86 769,-531 769,-531 769,-531 769,-457 769,-320.17 836.26,-234.38 727,-152 682.01,-118.08 618.88,-105.36 570.46,-100.82"/>
<polygon fill="grey" stroke="grey" stroke-width="2" points="570.61,-97.32 560.36,-99.97 570.03,-104.29 570.61,-97.32"/>
</g>
<!-- 37&#45;&gt;45 -->
<g id="edge45" class="edge">
<title>37&#45;&gt;45</title>
<path fill="none" stroke="grey" stroke-width="2" d="M619.87,-662.2C487.66,-636.17 186.07,-556.55 53,-355 3,-279.27 16.04,-220.99 75,-152 85.82,-139.34 100.46,-128.98 114.84,-120.88"/>
<polygon fill="grey" stroke="grey" stroke-width="2" points="116.55,-123.94 123.71,-116.13 113.25,-117.76 116.55,-123.94"/>
</g>
<!-- 37&#45;&gt;36 -->
<g id="edge44" class="edge">
<title>37&#45;&gt;36</title>
<path fill="none" stroke="grey" stroke-width="2" d="M684,-655.7C684,-647.98 684,-638.71 684,-630.11"/>
<polygon fill="grey" stroke="grey" stroke-width="2" points="687.5,-630.1 684,-620.1 680.5,-630.1 687.5,-630.1"/>
</g>
<!-- 39&#45;&gt;2 -->
<g id="edge46" class="edge">
<title>39&#45;&gt;2</title>
<path fill="none" stroke="grey" stroke-width="2" d="M327.04,-223.89C343.3,-213.77 364.05,-200.52 382,-188 412.38,-166.8 445.93,-141.02 469.28,-122.68"/>
<polygon fill="grey" stroke="grey" stroke-width="2" points="471.72,-125.22 477.4,-116.28 467.38,-119.72 471.72,-125.22"/>
</g>
<!-- 39&#45;&gt;44 -->
<g id="edge47" class="edge">
<title>39&#45;&gt;44</title>
<path fill="none" stroke="grey" stroke-width="2" d="M299,-223.7C299,-215.98 299,-206.71 299,-198.11"/>
<polygon fill="grey" stroke="grey" stroke-width="2" points="302.5,-198.1 299,-188.1 295.5,-198.1 302.5,-198.1"/>
</g>
<!-- 39&#45;&gt;45 -->
<g id="edge48" class="edge">
<title>39&#45;&gt;45</title>
<path fill="none" stroke="grey" stroke-width="2" d="M264.32,-223.95C248.26,-214.86 229.74,-202.54 216,-188 198.79,-169.79 185.34,-144.56 176.75,-125.6"/>
<polygon fill="grey" stroke="grey" stroke-width="2" points="179.91,-124.1 172.7,-116.34 173.5,-126.9 179.91,-124.1"/>
</g>
<!-- 42 -->
<g id="node46" class="node">
<title>42</title>
<path fill="none" stroke="#9fd856" stroke-width="2" d="M654,-188C654,-188 588,-188 588,-188 582,-188 576,-182 576,-176 576,-176 576,-164 576,-164 576,-158 582,-152 588,-152 588,-152 654,-152 654,-152 660,-152 666,-158 666,-164 666,-164 666,-176 666,-176 666,-182 660,-188 654,-188"/>
<text text-anchor="middle" x="621" y="-167.5" font-family="sans" font-size="10.00">nii_to_label_gii</text>
</g>
<!-- 42&#45;&gt;2 -->
<g id="edge52" class="edge">
<title>42&#45;&gt;2</title>
<path fill="none" stroke="grey" stroke-width="2" d="M591.16,-151.88C575.06,-142.64 555,-131.13 537.71,-121.21"/>
<polygon fill="grey" stroke="grey" stroke-width="2" points="539.37,-118.13 528.96,-116.19 535.89,-124.2 539.37,-118.13"/>
</g>
<!-- 43&#45;&gt;42 -->
<g id="edge53" class="edge">
<title>43&#45;&gt;42</title>
<path fill="none" stroke="grey" stroke-width="2" d="M663.91,-223.7C657.08,-215.3 648.74,-205.07 641.24,-195.86"/>
<polygon fill="grey" stroke="grey" stroke-width="2" points="643.96,-193.65 634.93,-188.1 638.53,-198.07 643.96,-193.65"/>
</g>
<!-- 43&#45;&gt;51 -->
<g id="edge118" class="edge">
<title>43&#45;&gt;51</title>
<path fill="none" stroke="grey" stroke-width="2" d="M693.19,-260.24C734.62,-306.18 854.89,-432.53 981,-499 987.78,-502.57 995.02,-505.75 1002.43,-508.57"/>
<polygon fill="grey" stroke="grey" stroke-width="2" points="1001.29,-511.88 1011.88,-511.97 1003.65,-505.29 1001.29,-511.88"/>
</g>
<!-- 49 -->
<g id="node48" class="node">
<title>49</title>
<path fill="none" stroke="#c6d856" stroke-width="2" d="M1184,-476C1184,-476 1002,-476 1002,-476 996,-476 990,-470 990,-464 990,-464 990,-452 990,-452 990,-446 996,-440 1002,-440 1002,-440 1184,-440 1184,-440 1190,-440 1196,-446 1196,-452 1196,-452 1196,-464 1196,-464 1196,-470 1190,-476 1184,-476"/>
<text text-anchor="middle" x="1093" y="-455.5" font-family="sans" font-size="10.00">combine_tissue_subfield_labels_corobl</text>
</g>
<!-- 49&#45;&gt;53 -->
<g id="edge57" class="edge">
<title>49&#45;&gt;53</title>
<path fill="none" stroke="grey" stroke-width="2" d="M1088.3,-439.7C1086.19,-431.9 1083.64,-422.51 1081.28,-413.83"/>
<polygon fill="grey" stroke="grey" stroke-width="2" points="1084.64,-412.84 1078.64,-404.1 1077.88,-414.67 1084.64,-412.84"/>
</g>
<!-- 49&#45;&gt;48 -->
<g id="edge126" class="edge">
<title>49&#45;&gt;48</title>
<path fill="none" stroke="grey" stroke-width="2" d="M1139.48,-439.88C1165.92,-430.14 1199.2,-417.87 1227.06,-407.61"/>
<polygon fill="grey" stroke="grey" stroke-width="2" points="1228.5,-410.81 1236.67,-404.07 1226.08,-404.24 1228.5,-410.81"/>
</g>
<!-- 52 -->
<g id="node59" class="node">
<title>52</title>
<path fill="none" stroke="#5692d8" stroke-width="2" d="M1336,-476C1336,-476 1232,-476 1232,-476 1226,-476 1220,-470 1220,-464 1220,-464 1220,-452 1220,-452 1220,-446 1226,-440 1232,-440 1232,-440 1336,-440 1336,-440 1342,-440 1348,-446 1348,-452 1348,-452 1348,-464 1348,-464 1348,-470 1342,-476 1336,-476"/>
<text text-anchor="middle" x="1284" y="-455.5" font-family="sans" font-size="10.00">create_native_crop_ref</text>
</g>
<!-- 53&#45;&gt;52 -->
<g id="edge129" class="edge">
<title>53&#45;&gt;52</title>
<path fill="none" stroke="grey" stroke-width="2" d="M1125.33,-404.11C1154.84,-413.95 1192.09,-426.36 1223.07,-436.69"/>
<polygon fill="grey" stroke="grey" stroke-width="2" points="1222.3,-440.12 1232.9,-439.97 1224.52,-433.48 1222.3,-440.12"/>
</g>
<!-- 51&#45;&gt;49 -->
<g id="edge58" class="edge">
<title>51&#45;&gt;49</title>
<path fill="none" stroke="grey" stroke-width="2" d="M1090.74,-511.7C1091.07,-503.98 1091.47,-494.71 1091.84,-486.11"/>
<polygon fill="grey" stroke="grey" stroke-width="2" points="1095.34,-486.25 1092.27,-476.1 1088.34,-485.95 1095.34,-486.25"/>
</g>
<!-- 13 -->
<g id="node51" class="node">
<title>13</title>
<path fill="none" stroke="#d8b456" stroke-width="2" d="M1313.5,-836C1313.5,-836 1208.5,-836 1208.5,-836 1202.5,-836 1196.5,-830 1196.5,-824 1196.5,-824 1196.5,-812 1196.5,-812 1196.5,-806 1202.5,-800 1208.5,-800 1208.5,-800 1313.5,-800 1313.5,-800 1319.5,-800 1325.5,-806 1325.5,-812 1325.5,-812 1325.5,-824 1325.5,-824 1325.5,-830 1319.5,-836 1313.5,-836"/>
<text text-anchor="middle" x="1261" y="-815.5" font-family="sans" font-size="10.00">reinsert_subject_labels</text>
</g>
<!-- 13&#45;&gt;12 -->
<g id="edge88" class="edge">
<title>13&#45;&gt;12</title>
<path fill="none" stroke="grey" stroke-width="2" d="M1325.74,-814.92C1411.98,-811.56 1559.63,-803.56 1611,-787 1623.39,-783.01 1635.92,-776.37 1646.74,-769.65"/>
<polygon fill="grey" stroke="grey" stroke-width="2" points="1648.9,-772.41 1655.38,-764.03 1645.09,-766.55 1648.9,-772.41"/>
</g>
<!-- 13&#45;&gt;34 -->
<g id="edge89" class="edge">
<title>13&#45;&gt;34</title>
<path fill="none" stroke="grey" stroke-width="2" d="M1325.88,-808.27C1357.07,-803.34 1394.81,-796.27 1428,-787 1446.39,-781.86 1466.07,-774.74 1483.3,-767.92"/>
<polygon fill="grey" stroke="grey" stroke-width="2" points="1484.62,-771.16 1492.59,-764.18 1482.01,-764.67 1484.62,-771.16"/>
</g>
<!-- 13&#45;&gt;49 -->
<g id="edge90" class="edge">
<title>13&#45;&gt;49</title>
<path fill="none" stroke="grey" stroke-width="2" d="M1249.89,-799.71C1247.67,-795.66 1245.54,-791.28 1244,-787 1226.85,-739.43 1224,-725.57 1224,-675 1224,-675 1224,-675 1224,-601 1224,-560.55 1230.1,-543.71 1205,-512 1194.17,-498.32 1178.97,-487.99 1163.25,-480.26"/>
<polygon fill="grey" stroke="grey" stroke-width="2" points="1164.51,-476.99 1153.96,-476 1161.59,-483.35 1164.51,-476.99"/>
</g>
<!-- 50 -->
<g id="node52" class="node">
<title>50</title>
<path fill="none" stroke="#afd856" stroke-width="2" d="M1331.5,-764C1331.5,-764 1264.5,-764 1264.5,-764 1258.5,-764 1252.5,-758 1252.5,-752 1252.5,-752 1252.5,-740 1252.5,-740 1252.5,-734 1258.5,-728 1264.5,-728 1264.5,-728 1331.5,-728 1331.5,-728 1337.5,-728 1343.5,-734 1343.5,-740 1343.5,-740 1343.5,-752 1343.5,-752 1343.5,-758 1337.5,-764 1331.5,-764"/>
<text text-anchor="middle" x="1298" y="-743.5" font-family="sans" font-size="10.00">unflip_postproc</text>
</g>
<!-- 13&#45;&gt;50 -->
<g id="edge59" class="edge">
<title>13&#45;&gt;50</title>
<path fill="none" stroke="grey" stroke-width="2" d="M1270.15,-799.7C1274.4,-791.64 1279.56,-781.89 1284.27,-772.98"/>
<polygon fill="grey" stroke="grey" stroke-width="2" points="1287.38,-774.58 1288.96,-764.1 1281.19,-771.31 1287.38,-774.58"/>
</g>
<!-- 50&#45;&gt;49 -->
<g id="edge127" class="edge">
<title>50&#45;&gt;49</title>
<path fill="none" stroke="grey" stroke-width="2" d="M1298.74,-727.81C1299.61,-685.37 1295.87,-574.55 1238,-512 1225.88,-498.9 1216.81,-505.01 1200,-499 1182.83,-492.86 1164.19,-485.96 1147.35,-479.66"/>
<polygon fill="grey" stroke="grey" stroke-width="2" points="1148.26,-476.26 1137.67,-476.02 1145.8,-482.81 1148.26,-476.26"/>
</g>
<!-- 14 -->
<g id="node53" class="node">
<title>14</title>
<path fill="none" stroke="#56d8b9" stroke-width="2" d="M1250,-908C1250,-908 1146,-908 1146,-908 1140,-908 1134,-902 1134,-896 1134,-896 1134,-884 1134,-884 1134,-878 1140,-872 1146,-872 1146,-872 1250,-872 1250,-872 1256,-872 1262,-878 1262,-884 1262,-884 1262,-896 1262,-896 1262,-902 1256,-908 1250,-908"/>
<text text-anchor="middle" x="1198" y="-887.5" font-family="sans" font-size="10.00">template_shape_inject</text>
</g>
<!-- 14&#45;&gt;13 -->
<g id="edge60" class="edge">
<title>14&#45;&gt;13</title>
<path fill="none" stroke="grey" stroke-width="2" d="M1213.57,-871.7C1221.2,-863.22 1230.52,-852.86 1238.88,-843.58"/>
<polygon fill="grey" stroke="grey" stroke-width="2" points="1241.52,-845.88 1245.61,-836.1 1236.31,-841.2 1241.52,-845.88"/>
</g>
<!-- 15 -->
<g id="node54" class="node">
<title>15</title>
<path fill="none" stroke="#d88d56" stroke-width="2" d="M1293.5,-1124C1293.5,-1124 1184.5,-1124 1184.5,-1124 1178.5,-1124 1172.5,-1118 1172.5,-1112 1172.5,-1112 1172.5,-1100 1172.5,-1100 1172.5,-1094 1178.5,-1088 1184.5,-1088 1184.5,-1088 1293.5,-1088 1293.5,-1088 1299.5,-1088 1305.5,-1094 1305.5,-1100 1305.5,-1100 1305.5,-1112 1305.5,-1112 1305.5,-1118 1299.5,-1124 1293.5,-1124"/>
<text text-anchor="middle" x="1239" y="-1103.5" font-family="sans" font-size="10.00">import_template_shape</text>
</g>
<!-- 15&#45;&gt;14 -->
<g id="edge61" class="edge">
<title>15&#45;&gt;14</title>
<path fill="none" stroke="grey" stroke-width="2" d="M1250.89,-1087.72C1257.01,-1077.76 1263.84,-1064.73 1267,-1052 1270.85,-1036.47 1270.99,-1031.49 1267,-1016 1257.36,-978.59 1233.88,-940.4 1216.99,-916.24"/>
<polygon fill="grey" stroke="grey" stroke-width="2" points="1219.76,-914.11 1211.1,-908.01 1214.07,-918.18 1219.76,-914.11"/>
</g>
<!-- 30 -->
<g id="node55" class="node">
<title>30</title>
<path fill="none" stroke="#88d856" stroke-width="2" d="M1246,-1052C1246,-1052 1146,-1052 1146,-1052 1140,-1052 1134,-1046 1134,-1040 1134,-1040 1134,-1028 1134,-1028 1134,-1022 1140,-1016 1146,-1016 1146,-1016 1246,-1016 1246,-1016 1252,-1016 1258,-1022 1258,-1028 1258,-1028 1258,-1040 1258,-1040 1258,-1046 1252,-1052 1246,-1052"/>
<text text-anchor="middle" x="1196" y="-1031.5" font-family="sans" font-size="10.00">prep_segs_for_greedy</text>
</g>
<!-- 15&#45;&gt;30 -->
<g id="edge62" class="edge">
<title>15&#45;&gt;30</title>
<path fill="none" stroke="grey" stroke-width="2" d="M1228.37,-1087.7C1223.37,-1079.56 1217.31,-1069.69 1211.79,-1060.7"/>
<polygon fill="grey" stroke="grey" stroke-width="2" points="1214.72,-1058.79 1206.51,-1052.1 1208.76,-1062.46 1214.72,-1058.79"/>
</g>
<!-- 29 -->
<g id="node56" class="node">
<title>29</title>
<path fill="none" stroke="#d86656" stroke-width="2" d="M1399,-980C1399,-980 1307,-980 1307,-980 1301,-980 1295,-974 1295,-968 1295,-968 1295,-956 1295,-956 1295,-950 1301,-944 1307,-944 1307,-944 1399,-944 1399,-944 1405,-944 1411,-950 1411,-956 1411,-956 1411,-968 1411,-968 1411,-974 1405,-980 1399,-980"/>
<text text-anchor="middle" x="1353" y="-959.5" font-family="sans" font-size="10.00">template_shape_reg</text>
</g>
<!-- 30&#45;&gt;29 -->
<g id="edge65" class="edge">
<title>30&#45;&gt;29</title>
<path fill="none" stroke="grey" stroke-width="2" d="M1234.41,-1015.88C1255.87,-1006.31 1282.8,-994.3 1305.57,-984.15"/>
<polygon fill="grey" stroke="grey" stroke-width="2" points="1307.01,-987.34 1314.72,-980.07 1304.16,-980.94 1307.01,-987.34"/>
</g>
<!-- 29&#45;&gt;14 -->
<g id="edge63" class="edge">
<title>29&#45;&gt;14</title>
<path fill="none" stroke="grey" stroke-width="2" d="M1315.08,-943.88C1293.99,-934.35 1267.54,-922.41 1245.13,-912.28"/>
<polygon fill="grey" stroke="grey" stroke-width="2" points="1246.35,-908.99 1235.79,-908.07 1243.47,-915.37 1246.35,-908.99"/>
</g>
<!-- 31 -->
<g id="node57" class="node">
<title>31</title>
<path fill="none" stroke="#56d8a2" stroke-width="2" d="M1411.5,-908C1411.5,-908 1292.5,-908 1292.5,-908 1286.5,-908 1280.5,-902 1280.5,-896 1280.5,-896 1280.5,-884 1280.5,-884 1280.5,-878 1286.5,-872 1292.5,-872 1292.5,-872 1411.5,-872 1411.5,-872 1417.5,-872 1423.5,-878 1423.5,-884 1423.5,-884 1423.5,-896 1423.5,-896 1423.5,-902 1417.5,-908 1411.5,-908"/>
<text text-anchor="middle" x="1352" y="-887.5" font-family="sans" font-size="10.00">inject_init_laplace_coords</text>
</g>
<!-- 29&#45;&gt;31 -->
<g id="edge64" class="edge">
<title>29&#45;&gt;31</title>
<path fill="none" stroke="grey" stroke-width="2" d="M1352.75,-943.7C1352.64,-935.98 1352.51,-926.71 1352.39,-918.11"/>
<polygon fill="grey" stroke="grey" stroke-width="2" points="1355.89,-918.05 1352.24,-908.1 1348.89,-918.15 1355.89,-918.05"/>
</g>
<!-- 31&#45;&gt;12 -->
<g id="edge109" class="edge">
<title>31&#45;&gt;12</title>
<path fill="none" stroke="grey" stroke-width="2" d="M1402.21,-871.98C1455.16,-853.4 1540.52,-821.63 1611,-787 1621.63,-781.78 1632.81,-775.46 1642.92,-769.4"/>
<polygon fill="grey" stroke="grey" stroke-width="2" points="1644.78,-772.37 1651.5,-764.18 1641.14,-766.39 1644.78,-772.37"/>
</g>
<!-- 31&#45;&gt;47 -->
<g id="edge110" class="edge">
<title>31&#45;&gt;47</title>
<path fill="none" stroke="grey" stroke-width="2" d="M1423.51,-875.74C1503.51,-859.7 1636.15,-829.46 1745,-787 1757.82,-782 1771.25,-775.34 1783.14,-768.88"/>
<polygon fill="grey" stroke="grey" stroke-width="2" points="1784.86,-771.93 1791.9,-764.02 1781.46,-765.81 1784.86,-771.93"/>
</g>
<!-- 48&#45;&gt;59 -->
<g id="edge124" class="edge">
<title>48&#45;&gt;59</title>
<path fill="none" stroke="grey" stroke-width="2" d="M1284.48,-367.7C1285.14,-359.98 1285.94,-350.71 1286.68,-342.11"/>
<polygon fill="grey" stroke="grey" stroke-width="2" points="1290.17,-342.37 1287.53,-332.1 1283.19,-341.77 1290.17,-342.37"/>
</g>
<!-- 48&#45;&gt;62 -->
<g id="edge125" class="edge">
<title>48&#45;&gt;62</title>
<path fill="none" stroke="grey" stroke-width="2" d="M1255.85,-367.88C1241.47,-358.81 1223.62,-347.55 1208.09,-337.76"/>
<polygon fill="grey" stroke="grey" stroke-width="2" points="1209.58,-334.56 1199.26,-332.19 1205.85,-340.48 1209.58,-334.56"/>
</g>
<!-- 48&#45;&gt;0 -->
<g id="edge123" class="edge">
<title>48&#45;&gt;0</title>
<path fill="none" stroke="grey" stroke-width="2" d="M1353.34,-367.94C1358.58,-364.4 1363.27,-360.14 1367,-355 1400.61,-308.65 1389.63,-237.06 1380,-198.26"/>
<polygon fill="grey" stroke="grey" stroke-width="2" points="1383.3,-197.01 1377.36,-188.23 1376.53,-198.79 1383.3,-197.01"/>
</g>
<!-- 52&#45;&gt;56 -->
<g id="edge128" class="edge">
<title>52&#45;&gt;56</title>
<path fill="none" stroke="grey" stroke-width="2" d="M1348.05,-458C1563.36,-458 1778.66,-458 1993.97,-458"/>
<polygon fill="grey" stroke="grey" stroke-width="2" points="1994.22,-461.5 2004.22,-458 1994.22,-454.5 1994.22,-461.5"/>
</g>
<!-- 52&#45;&gt;48 -->
<g id="edge66" class="edge">
<title>52&#45;&gt;48</title>
<path fill="none" stroke="grey" stroke-width="2" d="M1283.75,-439.7C1283.64,-431.98 1283.51,-422.71 1283.39,-414.11"/>
<polygon fill="grey" stroke="grey" stroke-width="2" points="1286.89,-414.05 1283.24,-404.1 1279.89,-414.15 1286.89,-414.05"/>
</g>
<!-- 52&#45;&gt;54 -->
<g id="edge67" class="edge">
<title>52&#45;&gt;54</title>
<path fill="none" stroke="grey" stroke-width="2" d="M1348.11,-443.92C1400.99,-433.12 1476.67,-417.68 1535.85,-405.6"/>
<polygon fill="grey" stroke="grey" stroke-width="2" points="1536.85,-408.97 1545.95,-403.54 1535.45,-402.11 1536.85,-408.97"/>
</g>
<!-- 52&#45;&gt;57 -->
<g id="edge68" class="edge">
<title>52&#45;&gt;57</title>
<path fill="none" stroke="grey" stroke-width="2" d="M1326.57,-439.88C1350.56,-430.22 1380.73,-418.09 1406.1,-407.88"/>
<polygon fill="grey" stroke="grey" stroke-width="2" points="1407.6,-411.05 1415.57,-404.07 1404.99,-404.55 1407.6,-411.05"/>
</g>
<!-- 54&#45;&gt;0 -->
<g id="edge130" class="edge">
<title>54&#45;&gt;0</title>
<path fill="none" stroke="grey" stroke-width="2" d="M1606.56,-367.85C1561.24,-329.81 1452.22,-238.32 1400.35,-194.79"/>
<polygon fill="grey" stroke="grey" stroke-width="2" points="1402.44,-191.98 1392.53,-188.23 1397.94,-197.34 1402.44,-191.98"/>
</g>
<!-- 57&#45;&gt;59 -->
<g id="edge134" class="edge">
<title>57&#45;&gt;59</title>
<path fill="none" stroke="grey" stroke-width="2" d="M1416.66,-367.88C1391.7,-357.54 1359.88,-344.36 1334.25,-333.74"/>
<polygon fill="grey" stroke="grey" stroke-width="2" points="1335.34,-330.41 1324.76,-329.81 1332.66,-336.87 1335.34,-330.41"/>
</g>
<!-- 57&#45;&gt;0 -->
<g id="edge133" class="edge">
<title>57&#45;&gt;0</title>
<path fill="none" stroke="grey" stroke-width="2" d="M1453.73,-367.56C1446.03,-337.45 1428.44,-274.11 1405,-224 1400.64,-214.67 1394.97,-204.97 1389.56,-196.45"/>
<polygon fill="grey" stroke="grey" stroke-width="2" points="1392.49,-194.53 1384.09,-188.07 1386.63,-198.36 1392.49,-194.53"/>
</g>
<!-- 16&#45;&gt;13 -->
<g id="edge91" class="edge">
<title>16&#45;&gt;13</title>
<path fill="none" stroke="grey" stroke-width="2" d="M844.62,-943.92C905.86,-918.17 1014.91,-872.34 1016,-872 1072.21,-854.29 1137.51,-840.48 1186.55,-831.41"/>
<polygon fill="grey" stroke="grey" stroke-width="2" points="1187.24,-834.84 1196.45,-829.6 1185.98,-827.96 1187.24,-834.84"/>
</g>
<!-- 16&#45;&gt;14 -->
<g id="edge92" class="edge">
<title>16&#45;&gt;14</title>
<path fill="none" stroke="grey" stroke-width="2" d="M845.79,-953.58C911.95,-941.82 1041.72,-918.77 1123.92,-904.16"/>
<polygon fill="grey" stroke="grey" stroke-width="2" points="1124.72,-907.57 1133.95,-902.38 1123.5,-900.68 1124.72,-907.57"/>
</g>
<!-- 16&#45;&gt;30 -->
<g id="edge93" class="edge">
<title>16&#45;&gt;30</title>
<path fill="none" stroke="grey" stroke-width="2" d="M845.66,-970.44C911.88,-982.26 1042.01,-1005.5 1123.68,-1020.09"/>
<polygon fill="grey" stroke="grey" stroke-width="2" points="1123.43,-1023.6 1133.89,-1021.91 1124.66,-1016.7 1123.43,-1023.6"/>
</g>
<!-- 16&#45;&gt;31 -->
<g id="edge94" class="edge">
<title>16&#45;&gt;31</title>
<path fill="none" stroke="grey" stroke-width="2" d="M845.72,-957.59C925.92,-950.75 1107.28,-933.89 1269.89,-908.09"/>
<polygon fill="grey" stroke="grey" stroke-width="2" points="1270.76,-911.5 1280.08,-906.46 1269.65,-904.59 1270.76,-911.5"/>
</g>
<!-- 16&#45;&gt;64 -->
<g id="edge69" class="edge">
<title>16&#45;&gt;64</title>
<path fill="none" stroke="grey" stroke-width="2" d="M773.7,-943.8C761.12,-934.9 747.88,-922.77 741,-908 731.22,-886.99 742.32,-862.33 754.38,-844.3"/>
<polygon fill="grey" stroke="grey" stroke-width="2" points="757.33,-846.2 760.29,-836.03 751.63,-842.13 757.33,-846.2"/>
</g>
<!-- 65 -->
<g id="node64" class="node">
<title>65</title>
<path fill="none" stroke="#56a9d8" stroke-width="2" d="M838,-908C838,-908 762,-908 762,-908 756,-908 750,-902 750,-896 750,-896 750,-884 750,-884 750,-878 756,-872 762,-872 762,-872 838,-872 838,-872 844,-872 850,-878 850,-884 850,-884 850,-896 850,-896 850,-902 844,-908 838,-908"/>
<text text-anchor="middle" x="800" y="-887.5" font-family="sans" font-size="10.00">unflip_nnunet_nii</text>
</g>
<!-- 16&#45;&gt;65 -->
<g id="edge70" class="edge">
<title>16&#45;&gt;65</title>
<path fill="none" stroke="grey" stroke-width="2" d="M803.01,-943.7C802.57,-935.98 802.04,-926.71 801.55,-918.11"/>
<polygon fill="grey" stroke="grey" stroke-width="2" points="805.04,-917.89 800.98,-908.1 798.05,-918.29 805.04,-917.89"/>
</g>
<!-- 63 -->
<g id="node65" class="node">
<title>63</title>
<path fill="none" stroke="#56d89a" stroke-width="2" d="M824,-764C824,-764 756,-764 756,-764 750,-764 744,-758 744,-752 744,-752 744,-740 744,-740 744,-734 750,-728 756,-728 756,-728 824,-728 824,-728 830,-728 836,-734 836,-740 836,-740 836,-752 836,-752 836,-758 830,-764 824,-764"/>
<text text-anchor="middle" x="790" y="-743.5" font-family="sans" font-size="10.00">qc_nnunet_dice</text>
</g>
<!-- 64&#45;&gt;63 -->
<g id="edge71" class="edge">
<title>64&#45;&gt;63</title>
<path fill="none" stroke="grey" stroke-width="2" d="M778.71,-799.7C780.36,-791.98 782.35,-782.71 784.19,-774.11"/>
<polygon fill="grey" stroke="grey" stroke-width="2" points="787.66,-774.62 786.33,-764.1 780.82,-773.15 787.66,-774.62"/>
</g>
<!-- 65&#45;&gt;64 -->
<g id="edge72" class="edge">
<title>65&#45;&gt;64</title>
<path fill="none" stroke="grey" stroke-width="2" d="M793.82,-871.7C791,-863.81 787.61,-854.3 784.48,-845.55"/>
<polygon fill="grey" stroke="grey" stroke-width="2" points="787.77,-844.34 781.11,-836.1 781.18,-846.7 787.77,-844.34"/>
</g>
<!-- 63&#45;&gt;0 -->
<g id="edge139" class="edge">
<title>63&#45;&gt;0</title>
<path fill="none" stroke="grey" stroke-width="2" d="M808.64,-727.69C833.39,-702.72 874,-653.98 874,-603 874,-603 874,-603 874,-529 874,-443.33 900.4,-399.69 980,-368 1016.05,-353.65 1299.05,-379.68 1329,-355 1375.25,-316.89 1377.39,-239.48 1374.82,-198.26"/>
<polygon fill="grey" stroke="grey" stroke-width="2" points="1378.3,-197.83 1374.05,-188.13 1371.32,-198.37 1378.3,-197.83"/>
</g>
</g>
</svg>
