<?xml version="1.0" encoding="UTF-8" standalone="no"?>
<!DOCTYPE svg PUBLIC "-//W3C//DTD SVG 1.1//EN"
 "http://www.w3.org/Graphics/SVG/1.1/DTD/svg11.dtd">
<!-- Generated by graphviz version 2.43.0 (0)
 -->
<!-- Pages: 1 -->
<svg width="459pt" height="443pt"
 viewBox="0.00 0.00 458.50 443.00" xmlns="http://www.w3.org/2000/svg" xmlns:xlink="http://www.w3.org/1999/xlink">
<g id="graph0" class="graph" transform="scale(1 1) rotate(0) translate(4 439)">
<polygon fill="white" stroke="transparent" points="-4,4 -4,-439 454.5,-439 454.5,4 -4,4"/>
<g id="clust1" class="cluster">
<title>cluster_0</title>
<polygon fill="white" stroke="blue" points="8,-8 8,-427 284,-427 284,-8 8,-8"/>
<text text-anchor="middle" x="146" y="-411.8" font-family="Times,serif" font-size="14.00">preproc_t2</text>
</g>
<!-- 17 -->
<g id="node1" class="node">
<title>17</title>
<path fill="none" stroke="#56b1d8" stroke-width="2" d="M118,-188C118,-188 20,-188 20,-188 14,-188 8,-182 8,-176 8,-176 8,-164 8,-164 8,-158 14,-152 20,-152 20,-152 118,-152 118,-152 124,-152 130,-158 130,-164 130,-164 130,-176 130,-176 130,-182 124,-188 118,-188"/>
<text text-anchor="middle" x="69" y="-167.5" font-family="sans" font-size="10.00">avg_aligned_or_cp_t2</text>
</g>
<!-- 23 -->
<g id="node2" class="node">
<title>23</title>
<path fill="none" stroke="#a7d856" stroke-width="2" d="M115,-116C115,-116 27,-116 27,-116 21,-116 15,-110 15,-104 15,-104 15,-92 15,-92 15,-86 21,-80 27,-80 27,-80 115,-80 115,-80 121,-80 127,-86 127,-92 127,-92 127,-104 127,-104 127,-110 121,-116 115,-116"/>
<text text-anchor="middle" x="71" y="-95.5" font-family="sans" font-size="10.00">reg_t2_to_template</text>
</g>
<!-- 17&#45;&gt;23 -->
<g id="edge1" class="edge">
<title>17&#45;&gt;23</title>
<path fill="none" stroke="grey" stroke-width="2" d="M69.49,-151.7C69.71,-143.98 69.98,-134.71 70.23,-126.11"/>
<polygon fill="grey" stroke="grey" stroke-width="2" points="73.72,-126.2 70.51,-116.1 66.73,-126 73.72,-126.2"/>
</g>
<!-- 25 -->
<g id="node3" class="node">
<title>25</title>
<path fill="none" stroke="#9fd856" stroke-width="2" d="M268,-116C268,-116 160,-116 160,-116 154,-116 148,-110 148,-104 148,-104 148,-92 148,-92 148,-86 154,-80 160,-80 160,-80 268,-80 268,-80 274,-80 280,-86 280,-92 280,-92 280,-104 280,-104 280,-110 274,-116 268,-116"/>
<text text-anchor="middle" x="214" y="-95.5" font-family="sans" font-size="10.00">warp_t2_to_corobl_crop</text>
</g>
<!-- 17&#45;&gt;25 -->
<g id="edge2" class="edge">
<title>17&#45;&gt;25</title>
<path fill="none" stroke="grey" stroke-width="2" d="M104.47,-151.88C124.12,-142.39 148.72,-130.51 169.63,-120.42"/>
<polygon fill="grey" stroke="grey" stroke-width="2" points="171.16,-123.57 178.64,-116.07 168.12,-117.26 171.16,-123.57"/>
</g>
<!-- 22 -->
<g id="node9" class="node">
<title>22</title>
<path fill="none" stroke="#68d856" stroke-width="2" d="M438.5,-44C438.5,-44 295.5,-44 295.5,-44 289.5,-44 283.5,-38 283.5,-32 283.5,-32 283.5,-20 283.5,-20 283.5,-14 289.5,-8 295.5,-8 295.5,-8 438.5,-8 438.5,-8 444.5,-8 450.5,-14 450.5,-20 450.5,-20 450.5,-32 450.5,-32 450.5,-38 444.5,-44 438.5,-44"/>
<text text-anchor="middle" x="367" y="-23.5" font-family="sans" font-size="10.00">convert_template_xfm_ras2itk</text>
</g>
<!-- 23&#45;&gt;22 -->
<g id="edge10" class="edge">
<title>23&#45;&gt;22</title>
<path fill="none" stroke="grey" stroke-width="2" d="M127.01,-82.92C131.07,-81.92 135.1,-80.94 139,-80 186.37,-68.57 239.39,-56.22 282.37,-46.32"/>
<polygon fill="grey" stroke="grey" stroke-width="2" points="283.26,-49.71 292.22,-44.05 281.69,-42.89 283.26,-49.71"/>
</g>
<!-- 24 -->
<g id="node8" class="node">
<title>24</title>
<path fill="none" stroke="#88d856" stroke-width="2" d="M231.5,-44C231.5,-44 196.5,-44 196.5,-44 190.5,-44 184.5,-38 184.5,-32 184.5,-32 184.5,-20 184.5,-20 184.5,-14 190.5,-8 196.5,-8 196.5,-8 231.5,-8 231.5,-8 237.5,-8 243.5,-14 243.5,-20 243.5,-20 243.5,-32 243.5,-32 243.5,-38 237.5,-44 231.5,-44"/>
<text text-anchor="middle" x="214" y="-23.5" font-family="sans" font-size="10.00">lr_flip_t2</text>
</g>
<!-- 25&#45;&gt;24 -->
<g id="edge8" class="edge">
<title>25&#45;&gt;24</title>
<path fill="none" stroke="grey" stroke-width="2" d="M214,-79.7C214,-71.98 214,-62.71 214,-54.11"/>
<polygon fill="grey" stroke="grey" stroke-width="2" points="217.5,-54.1 214,-44.1 210.5,-54.1 217.5,-54.1"/>
</g>
<!-- 18 -->
<g id="node4" class="node">
<title>18</title>
<path fill="none" stroke="#5663d8" stroke-width="2" d="M69,-332C69,-332 39,-332 39,-332 33,-332 27,-326 27,-320 27,-320 27,-308 27,-308 27,-302 33,-296 39,-296 39,-296 69,-296 69,-296 75,-296 81,-302 81,-308 81,-308 81,-320 81,-320 81,-326 75,-332 69,-332"/>
<text text-anchor="middle" x="54" y="-311.5" font-family="sans" font-size="10.00">n4_t2</text>
</g>
<!-- 18&#45;&gt;17 -->
<g id="edge3" class="edge">
<title>18&#45;&gt;17</title>
<path fill="none" stroke="grey" stroke-width="2" d="M47.57,-295.74C41.74,-277.67 34.91,-248.55 41,-224 43.29,-214.75 47.53,-205.34 52.02,-197.07"/>
<polygon fill="grey" stroke="grey" stroke-width="2" points="55.13,-198.68 57.11,-188.28 49.07,-195.17 55.13,-198.68"/>
</g>
<!-- 20 -->
<g id="node5" class="node">
<title>20</title>
<path fill="none" stroke="#d8ac56" stroke-width="2" d="M119.5,-260C119.5,-260 62.5,-260 62.5,-260 56.5,-260 50.5,-254 50.5,-248 50.5,-248 50.5,-236 50.5,-236 50.5,-230 56.5,-224 62.5,-224 62.5,-224 119.5,-224 119.5,-224 125.5,-224 131.5,-230 131.5,-236 131.5,-236 131.5,-248 131.5,-248 131.5,-254 125.5,-260 119.5,-260"/>
<text text-anchor="middle" x="91" y="-239.5" font-family="sans" font-size="10.00">reg_t2_to_ref</text>
</g>
<!-- 18&#45;&gt;20 -->
<g id="edge4" class="edge">
<title>18&#45;&gt;20</title>
<path fill="none" stroke="grey" stroke-width="2" d="M63.15,-295.7C67.4,-287.64 72.56,-277.89 77.27,-268.98"/>
<polygon fill="grey" stroke="grey" stroke-width="2" points="80.38,-270.58 81.96,-260.1 74.19,-267.31 80.38,-270.58"/>
</g>
<!-- 20&#45;&gt;17 -->
<g id="edge6" class="edge">
<title>20&#45;&gt;17</title>
<path fill="none" stroke="grey" stroke-width="2" d="M85.56,-223.7C83.11,-215.9 80.16,-206.51 77.43,-197.83"/>
<polygon fill="grey" stroke="grey" stroke-width="2" points="80.71,-196.59 74.38,-188.1 74.04,-198.69 80.71,-196.59"/>
</g>
<!-- 19 -->
<g id="node6" class="node">
<title>19</title>
<path fill="none" stroke="#56d0d8" stroke-width="2" d="M74,-404C74,-404 34,-404 34,-404 28,-404 22,-398 22,-392 22,-392 22,-380 22,-380 22,-374 28,-368 34,-368 34,-368 74,-368 74,-368 80,-368 86,-374 86,-380 86,-380 86,-392 86,-392 86,-398 80,-404 74,-404"/>
<text text-anchor="middle" x="54" y="-383.5" font-family="sans" font-size="10.00">import_t2</text>
</g>
<!-- 19&#45;&gt;18 -->
<g id="edge5" class="edge">
<title>19&#45;&gt;18</title>
<path fill="none" stroke="grey" stroke-width="2" d="M54,-367.7C54,-359.98 54,-350.71 54,-342.11"/>
<polygon fill="grey" stroke="grey" stroke-width="2" points="57.5,-342.1 54,-332.1 50.5,-342.1 57.5,-342.1"/>
</g>
<!-- 21 -->
<g id="node7" class="node">
<title>21</title>
<path fill="none" stroke="#56d873" stroke-width="2" d="M272,-188C272,-188 160,-188 160,-188 154,-188 148,-182 148,-176 148,-176 148,-164 148,-164 148,-158 154,-152 160,-152 160,-152 272,-152 272,-152 278,-152 284,-158 284,-164 284,-164 284,-176 284,-176 284,-182 278,-188 272,-188"/>
<text text-anchor="middle" x="216" y="-167.5" font-family="sans" font-size="10.00">compose_t2_xfm_corobl</text>
</g>
<!-- 21&#45;&gt;25 -->
<g id="edge7" class="edge">
<title>21&#45;&gt;25</title>
<path fill="none" stroke="grey" stroke-width="2" d="M215.51,-151.7C215.29,-143.98 215.02,-134.71 214.77,-126.11"/>
<polygon fill="grey" stroke="grey" stroke-width="2" points="218.27,-126 214.49,-116.1 211.28,-126.2 218.27,-126"/>
</g>
<!-- 22&#45;&gt;21 -->
<g id="edge9" class="edge">
<title>22&#45;&gt;21</title>
<path fill="none" stroke="grey" stroke-width="2" d="M353.93,-44.08C339.21,-62.78 314.04,-93.15 289,-116 277.25,-126.72 263.33,-137.28 250.82,-146.11"/>
<polygon fill="grey" stroke="grey" stroke-width="2" points="248.64,-143.36 242.42,-151.93 252.63,-149.11 248.64,-143.36"/>
</g>
</g>
</svg>
