<?xml version="1.0" encoding="UTF-8" standalone="no"?>
<!DOCTYPE svg PUBLIC "-//W3C//DTD SVG 1.1//EN"
 "http://www.w3.org/Graphics/SVG/1.1/DTD/svg11.dtd">
<!-- Generated by graphviz version 2.43.0 (0)
 -->
<!-- Pages: 1 -->
<svg width="708pt" height="340pt"
 viewBox="0.00 0.00 708.00 340.00" xmlns="http://www.w3.org/2000/svg" xmlns:xlink="http://www.w3.org/1999/xlink">
<g id="graph0" class="graph" transform="scale(1 1) rotate(0) translate(4 336)">
<polygon fill="white" stroke="transparent" points="-4,4 -4,-336 704,-336 704,4 -4,4"/>
<g id="clust1" class="cluster">
<title>cluster_0</title>
<polygon fill="white" stroke="blue" points="8,-8 8,-283 418,-283 418,-8 8,-8"/>
<text text-anchor="middle" x="213" y="-267.8" font-family="Times,serif" font-size="14.00">warps</text>
</g>
<!-- 8 -->
<g id="node1" class="node">
<title>8</title>
<path fill="none" stroke="#56d863" stroke-width="2" d="M232,-116C232,-116 148,-116 148,-116 142,-116 136,-110 136,-104 136,-104 136,-92 136,-92 136,-86 142,-80 148,-80 148,-80 232,-80 232,-80 238,-80 244,-86 244,-92 244,-92 244,-104 244,-104 244,-110 238,-116 232,-116"/>
<text text-anchor="middle" x="190" y="-95.5" font-family="sans" font-size="10.00">create_warps_hipp</text>
</g>
<!-- 52 -->
<g id="node2" class="node">
<title>52</title>
<path fill="none" stroke="#b6d856" stroke-width="2" d="M178,-44C178,-44 20,-44 20,-44 14,-44 8,-38 8,-32 8,-32 8,-20 8,-20 8,-14 14,-8 20,-8 20,-8 178,-8 178,-8 184,-8 190,-14 190,-20 190,-20 190,-32 190,-32 190,-38 184,-44 178,-44"/>
<text text-anchor="middle" x="99" y="-23.5" font-family="sans" font-size="10.00">compose_warps_native_to_unfold</text>
</g>
<!-- 8&#45;&gt;52 -->
<g id="edge1" class="edge">
<title>8&#45;&gt;52</title>
<path fill="none" stroke="grey" stroke-width="2" d="M167.51,-79.7C156.04,-70.88 141.94,-60.03 129.52,-50.47"/>
<polygon fill="grey" stroke="grey" stroke-width="2" points="131.3,-47.43 121.24,-44.1 127.03,-52.98 131.3,-47.43"/>
</g>
<!-- 53 -->
<g id="node3" class="node">
<title>53</title>
<path fill="none" stroke="#d86656" stroke-width="2" d="M405.5,-44C405.5,-44 220.5,-44 220.5,-44 214.5,-44 208.5,-38 208.5,-32 208.5,-32 208.5,-20 208.5,-20 208.5,-14 214.5,-8 220.5,-8 220.5,-8 405.5,-8 405.5,-8 411.5,-8 417.5,-14 417.5,-20 417.5,-20 417.5,-32 417.5,-32 417.5,-38 411.5,-44 405.5,-44"/>
<text text-anchor="middle" x="313" y="-23.5" font-family="sans" font-size="10.00">compose_warps_unfold_to_crop_native</text>
</g>
<!-- 8&#45;&gt;53 -->
<g id="edge2" class="edge">
<title>8&#45;&gt;53</title>
<path fill="none" stroke="grey" stroke-width="2" d="M220.09,-79.88C236.32,-70.64 256.54,-59.13 273.97,-49.21"/>
<polygon fill="grey" stroke="grey" stroke-width="2" points="275.84,-52.18 282.8,-44.19 272.37,-46.09 275.84,-52.18"/>
</g>
<!-- 9 -->
<g id="node4" class="node">
<title>9</title>
<path fill="none" stroke="#d8bc56" stroke-width="2" d="M128,-260C128,-260 50,-260 50,-260 44,-260 38,-254 38,-248 38,-248 38,-236 38,-236 38,-230 44,-224 50,-224 50,-224 128,-224 128,-224 134,-224 140,-230 140,-236 140,-236 140,-248 140,-248 140,-254 134,-260 128,-260"/>
<text text-anchor="middle" x="89" y="-239.5" font-family="sans" font-size="10.00">create_unfold_ref</text>
</g>
<!-- 9&#45;&gt;8 -->
<g id="edge3" class="edge">
<title>9&#45;&gt;8</title>
<path fill="none" stroke="grey" stroke-width="2" d="M84.08,-223.87C79.67,-204.86 75.73,-173.95 89,-152 97.7,-137.62 111.73,-126.94 126.6,-119.1"/>
<polygon fill="grey" stroke="grey" stroke-width="2" points="128.46,-122.09 135.94,-114.58 125.41,-115.79 128.46,-122.09"/>
</g>
<!-- 9&#45;&gt;52 -->
<g id="edge6" class="edge">
<title>9&#45;&gt;52</title>
<path fill="none" stroke="grey" stroke-width="2" d="M73.82,-223.7C66.27,-213.94 57.93,-201.1 54,-188 40.19,-142.03 37.45,-125.06 54,-80 57.78,-69.7 64.56,-60.02 71.72,-51.84"/>
<polygon fill="grey" stroke="grey" stroke-width="2" points="74.34,-54.16 78.62,-44.47 69.23,-49.38 74.34,-54.16"/>
</g>
<!-- 9&#45;&gt;53 -->
<g id="edge7" class="edge">
<title>9&#45;&gt;53</title>
<path fill="none" stroke="grey" stroke-width="2" d="M82.04,-223.9C75.66,-205.7 68.28,-176.25 76,-152 87.89,-114.63 94.99,-102.66 127,-80 148.26,-64.95 173.72,-54.15 198.88,-46.41"/>
<polygon fill="grey" stroke="grey" stroke-width="2" points="199.89,-49.76 208.5,-43.59 197.92,-43.05 199.89,-49.76"/>
</g>
<!-- 10 -->
<g id="node5" class="node">
<title>10</title>
<path fill="none" stroke="#d85656" stroke-width="2" d="M229.5,-188C229.5,-188 110.5,-188 110.5,-188 104.5,-188 98.5,-182 98.5,-176 98.5,-176 98.5,-164 98.5,-164 98.5,-158 104.5,-152 110.5,-152 110.5,-152 229.5,-152 229.5,-152 235.5,-152 241.5,-158 241.5,-164 241.5,-164 241.5,-176 241.5,-176 241.5,-182 235.5,-188 229.5,-188"/>
<text text-anchor="middle" x="170" y="-167.5" font-family="sans" font-size="10.00">create_unfold_coord_map</text>
</g>
<!-- 9&#45;&gt;10 -->
<g id="edge4" class="edge">
<title>9&#45;&gt;10</title>
<path fill="none" stroke="grey" stroke-width="2" d="M109.02,-223.7C119.13,-214.97 131.54,-204.24 142.52,-194.75"/>
<polygon fill="grey" stroke="grey" stroke-width="2" points="144.93,-197.29 150.21,-188.1 140.35,-191.99 144.93,-197.29"/>
</g>
<!-- 43 -->
<g id="node6" class="node">
<title>43</title>
<path fill="none" stroke="#56c1d8" stroke-width="2" d="M375.5,-116C375.5,-116 274.5,-116 274.5,-116 268.5,-116 262.5,-110 262.5,-104 262.5,-104 262.5,-92 262.5,-92 262.5,-86 268.5,-80 274.5,-80 274.5,-80 375.5,-80 375.5,-80 381.5,-80 387.5,-86 387.5,-92 387.5,-92 387.5,-104 387.5,-104 387.5,-110 381.5,-116 375.5,-116"/>
<text text-anchor="middle" x="325" y="-95.5" font-family="sans" font-size="10.00">create_warps_dentate</text>
</g>
<!-- 9&#45;&gt;43 -->
<g id="edge5" class="edge">
<title>9&#45;&gt;43</title>
<path fill="none" stroke="grey" stroke-width="2" d="M140.08,-234.24C174.57,-227.46 219.39,-214.09 251,-188 265.12,-176.35 259.91,-166.56 271,-152 278.77,-141.79 288.47,-131.66 297.5,-123.03"/>
<polygon fill="grey" stroke="grey" stroke-width="2" points="299.94,-125.55 304.87,-116.17 295.16,-120.43 299.94,-125.55"/>
</g>
<!-- 10&#45;&gt;8 -->
<g id="edge8" class="edge">
<title>10&#45;&gt;8</title>
<path fill="none" stroke="grey" stroke-width="2" d="M174.94,-151.7C177.17,-143.9 179.85,-134.51 182.33,-125.83"/>
<polygon fill="grey" stroke="grey" stroke-width="2" points="185.73,-126.68 185.11,-116.1 179,-124.76 185.73,-126.68"/>
</g>
<!-- 10&#45;&gt;43 -->
<g id="edge9" class="edge">
<title>10&#45;&gt;43</title>
<path fill="none" stroke="grey" stroke-width="2" d="M207.92,-151.88C229.01,-142.35 255.46,-130.41 277.87,-120.28"/>
<polygon fill="grey" stroke="grey" stroke-width="2" points="279.53,-123.37 287.21,-116.07 276.65,-116.99 279.53,-123.37"/>
</g>
<!-- 43&#45;&gt;52 -->
<g id="edge12" class="edge">
<title>43&#45;&gt;52</title>
<path fill="none" stroke="grey" stroke-width="2" d="M270,-79.97C238.01,-70.06 197.52,-57.51 163.96,-47.12"/>
<polygon fill="grey" stroke="grey" stroke-width="2" points="164.83,-43.73 154.24,-44.11 162.76,-50.41 164.83,-43.73"/>
</g>
<!-- 43&#45;&gt;53 -->
<g id="edge13" class="edge">
<title>43&#45;&gt;53</title>
<path fill="none" stroke="grey" stroke-width="2" d="M322.03,-79.7C320.71,-71.98 319.12,-62.71 317.65,-54.11"/>
<polygon fill="grey" stroke="grey" stroke-width="2" points="321.07,-53.37 315.93,-44.1 314.17,-54.55 321.07,-53.37"/>
</g>
<!-- 32 -->
<g id="node7" class="node">
<title>32</title>
<path fill="none" stroke="#56d8b1" stroke-width="2" d="M402,-188C402,-188 292,-188 292,-188 286,-188 280,-182 280,-176 280,-176 280,-164 280,-164 280,-158 286,-152 292,-152 292,-152 402,-152 402,-152 408,-152 414,-158 414,-164 414,-164 414,-176 414,-176 414,-182 408,-188 402,-188"/>
<text text-anchor="middle" x="347" y="-167.5" font-family="sans" font-size="10.00">create_native_coord_ref</text>
</g>
<!-- 32&#45;&gt;8 -->
<g id="edge10" class="edge">
<title>32&#45;&gt;8</title>
<path fill="none" stroke="grey" stroke-width="2" d="M308.59,-151.88C287.13,-142.31 260.2,-130.3 237.43,-120.15"/>
<polygon fill="grey" stroke="grey" stroke-width="2" points="238.84,-116.94 228.28,-116.07 235.99,-123.34 238.84,-116.94"/>
</g>
<!-- 32&#45;&gt;43 -->
<g id="edge11" class="edge">
<title>32&#45;&gt;43</title>
<path fill="none" stroke="grey" stroke-width="2" d="M341.56,-151.7C339.11,-143.9 336.16,-134.51 333.43,-125.83"/>
<polygon fill="grey" stroke="grey" stroke-width="2" points="336.71,-124.59 330.38,-116.1 330.04,-126.69 336.71,-124.59"/>
</g>
<!-- 11 -->
<g id="node8" class="node">
<title>11</title>
<path fill="none" stroke="#d8c356" stroke-width="2" d="M643.5,-260C643.5,-260 586.5,-260 586.5,-260 580.5,-260 574.5,-254 574.5,-248 574.5,-248 574.5,-236 574.5,-236 574.5,-230 580.5,-224 586.5,-224 586.5,-224 643.5,-224 643.5,-224 649.5,-224 655.5,-230 655.5,-236 655.5,-236 655.5,-248 655.5,-248 655.5,-254 649.5,-260 643.5,-260"/>
<text text-anchor="middle" x="615" y="-239.5" font-family="sans" font-size="10.00">unflip_coords</text>
</g>
<!-- 11&#45;&gt;8 -->
<g id="edge14" class="edge">
<title>11&#45;&gt;8</title>
<path fill="none" stroke="grey" stroke-width="2" d="M617.85,-223.81C620.13,-203.54 620.29,-170.3 601,-152 546.84,-100.62 345.95,-127.78 254.42,-115.64"/>
<polygon fill="grey" stroke="grey" stroke-width="2" points="254.76,-112.15 244.34,-114.05 253.67,-119.06 254.76,-112.15"/>
</g>
<!-- 11&#45;&gt;43 -->
<g id="edge16" class="edge">
<title>11&#45;&gt;43</title>
<path fill="none" stroke="grey" stroke-width="2" d="M626.3,-223.84C637.66,-204.21 651.22,-172.2 634,-152 601.14,-113.47 458.83,-125.02 409,-116 405.34,-115.34 401.6,-114.64 397.83,-113.93"/>
<polygon fill="grey" stroke="grey" stroke-width="2" points="398.27,-110.45 387.79,-112 396.95,-117.32 398.27,-110.45"/>
</g>
<!-- 11&#45;&gt;32 -->
<g id="edge15" class="edge">
<title>11&#45;&gt;32</title>
<path fill="none" stroke="grey" stroke-width="2" d="M574.42,-229.12C568.26,-227.37 561.97,-225.62 556,-224 512.53,-212.23 463.76,-199.82 424.27,-189.97"/>
<polygon fill="grey" stroke="grey" stroke-width="2" points="424.99,-186.54 414.44,-187.52 423.3,-193.33 424.99,-186.54"/>
</g>
<!-- 12 -->
<g id="node9" class="node">
<title>12</title>
<path fill="none" stroke="#97d856" stroke-width="2" d="M393,-332C393,-332 301,-332 301,-332 295,-332 289,-326 289,-320 289,-320 289,-308 289,-308 289,-302 295,-296 301,-296 301,-296 393,-296 393,-296 399,-296 405,-302 405,-308 405,-308 405,-320 405,-320 405,-326 399,-332 393,-332"/>
<text text-anchor="middle" x="347" y="-311.5" font-family="sans" font-size="10.00">laplace_coords_hipp</text>
</g>
<!-- 12&#45;&gt;8 -->
<g id="edge17" class="edge">
<title>12&#45;&gt;8</title>
<path fill="none" stroke="grey" stroke-width="2" d="M288.7,-311.66C201.66,-309.05 46.1,-301.79 29,-283 -12.63,-237.25 29.25,-192.5 76,-152 91.24,-138.8 110.33,-128.22 128.51,-120.09"/>
<polygon fill="grey" stroke="grey" stroke-width="2" points="130.09,-123.22 137.9,-116.07 127.33,-116.79 130.09,-123.22"/>
</g>
<!-- 12&#45;&gt;32 -->
<g id="edge19" class="edge">
<title>12&#45;&gt;32</title>
<path fill="none" stroke="grey" stroke-width="2" d="M347,-295.87C347,-271.67 347,-227.21 347,-198.39"/>
<polygon fill="grey" stroke="grey" stroke-width="2" points="350.5,-198.19 347,-188.19 343.5,-198.19 350.5,-198.19"/>
</g>
<!-- 12&#45;&gt;11 -->
<g id="edge18" class="edge">
<title>12&#45;&gt;11</title>
<path fill="none" stroke="grey" stroke-width="2" d="M405.09,-311.65C448.04,-309.01 507.28,-301.85 556,-283 566.69,-278.86 577.37,-272.48 586.65,-266.02"/>
<polygon fill="grey" stroke="grey" stroke-width="2" points="588.71,-268.85 594.73,-260.13 584.59,-263.19 588.71,-268.85"/>
</g>
<!-- 21 -->
<g id="node10" class="node">
<title>21</title>
<path fill="none" stroke="#56d873" stroke-width="2" d="M542,-116C542,-116 430,-116 430,-116 424,-116 418,-110 418,-104 418,-104 418,-92 418,-92 418,-86 424,-80 430,-80 430,-80 542,-80 542,-80 548,-80 554,-86 554,-92 554,-92 554,-104 554,-104 554,-110 548,-116 542,-116"/>
<text text-anchor="middle" x="486" y="-95.5" font-family="sans" font-size="10.00">compose_t2_xfm_corobl</text>
</g>
<!-- 21&#45;&gt;52 -->
<g id="edge20" class="edge">
<title>21&#45;&gt;52</title>
<path fill="none" stroke="grey" stroke-width="2" d="M417.81,-80.78C416.53,-80.51 415.26,-80.25 414,-80 319.46,-60.91 295.11,-60 200,-44 199.9,-43.98 199.8,-43.97 199.7,-43.95"/>
<polygon fill="grey" stroke="grey" stroke-width="2" points="200.56,-40.55 190.12,-42.34 199.4,-47.45 200.56,-40.55"/>
</g>
<!-- 21&#45;&gt;53 -->
<g id="edge21" class="edge">
<title>21&#45;&gt;53</title>
<path fill="none" stroke="grey" stroke-width="2" d="M443.68,-79.88C419.82,-70.22 389.83,-58.09 364.6,-47.88"/>
<polygon fill="grey" stroke="grey" stroke-width="2" points="365.77,-44.57 355.18,-44.07 363.14,-51.06 365.77,-44.57"/>
</g>
<!-- 29 -->
<g id="node11" class="node">
<title>29</title>
<path fill="none" stroke="#d8bc56" stroke-width="2" d="M580,-188C580,-188 482,-188 482,-188 476,-188 470,-182 470,-176 470,-176 470,-164 470,-164 470,-158 476,-152 482,-152 482,-152 580,-152 580,-152 586,-152 592,-158 592,-164 592,-164 592,-176 592,-176 592,-182 586,-188 580,-188"/>
<text text-anchor="middle" x="531" y="-167.5" font-family="sans" font-size="10.00">unflip_coords_equivol</text>
</g>
<!-- 29&#45;&gt;8 -->
<g id="edge22" class="edge">
<title>29&#45;&gt;8</title>
<path fill="none" stroke="grey" stroke-width="2" d="M469.66,-154.85C465.04,-153.86 460.45,-152.9 456,-152 366.62,-133.92 343.03,-135.72 254,-116 253.9,-115.98 253.8,-115.95 253.69,-115.93"/>
<polygon fill="grey" stroke="grey" stroke-width="2" points="254.58,-112.54 244.04,-113.69 252.99,-119.36 254.58,-112.54"/>
</g>
<!-- 30 -->
<g id="node12" class="node">
<title>30</title>
<path fill="none" stroke="#88d856" stroke-width="2" d="M535,-260C535,-260 447,-260 447,-260 441,-260 435,-254 435,-248 435,-248 435,-236 435,-236 435,-230 441,-224 447,-224 447,-224 535,-224 535,-224 541,-224 547,-230 547,-236 547,-236 547,-248 547,-248 547,-254 541,-260 535,-260"/>
<text text-anchor="middle" x="491" y="-239.5" font-family="sans" font-size="10.00">equivolume_coords</text>
</g>
<!-- 30&#45;&gt;8 -->
<g id="edge23" class="edge">
<title>30&#45;&gt;8</title>
<path fill="none" stroke="grey" stroke-width="2" d="M482.78,-223.96C472,-203.52 451.1,-169.78 423,-152 358.1,-110.94 328.69,-133.86 254,-116 253.9,-115.98 253.8,-115.95 253.7,-115.93"/>
<polygon fill="grey" stroke="grey" stroke-width="2" points="254.62,-112.55 244.07,-113.57 252.95,-119.35 254.62,-112.55"/>
</g>
<!-- 30&#45;&gt;29 -->
<g id="edge24" class="edge">
<title>30&#45;&gt;29</title>
<path fill="none" stroke="grey" stroke-width="2" d="M500.89,-223.7C505.49,-215.64 511.06,-205.89 516.15,-196.98"/>
<polygon fill="grey" stroke="grey" stroke-width="2" points="519.3,-198.52 521.23,-188.1 513.23,-195.05 519.3,-198.52"/>
</g>
<!-- 44 -->
<g id="node13" class="node">
<title>44</title>
<path fill="none" stroke="#d87d56" stroke-width="2" d="M669,-332C669,-332 561,-332 561,-332 555,-332 549,-326 549,-320 549,-320 549,-308 549,-308 549,-302 555,-296 561,-296 561,-296 669,-296 669,-296 675,-296 681,-302 681,-308 681,-308 681,-320 681,-320 681,-326 675,-332 669,-332"/>
<text text-anchor="middle" x="615" y="-311.5" font-family="sans" font-size="10.00">laplace_coords_dentate</text>
</g>
<!-- 44&#45;&gt;43 -->
<g id="edge27" class="edge">
<title>44&#45;&gt;43</title>
<path fill="none" stroke="grey" stroke-width="2" d="M653.75,-295.71C658.24,-292.14 662.21,-287.93 665,-283 693.83,-232.09 694.02,-192.71 652,-152 612.8,-114.01 462.77,-125.42 409,-116 405.34,-115.36 401.6,-114.68 397.82,-113.98"/>
<polygon fill="grey" stroke="grey" stroke-width="2" points="398.25,-110.5 387.77,-112.08 396.95,-117.38 398.25,-110.5"/>
</g>
<!-- 44&#45;&gt;32 -->
<g id="edge26" class="edge">
<title>44&#45;&gt;32</title>
<path fill="none" stroke="grey" stroke-width="2" d="M548.82,-307.96C502.77,-303.45 446.16,-295.56 426,-283 393.58,-262.81 370.76,-223.92 358.25,-197.7"/>
<polygon fill="grey" stroke="grey" stroke-width="2" points="361.3,-195.98 353.96,-188.34 354.94,-198.89 361.3,-195.98"/>
</g>
<!-- 44&#45;&gt;11 -->
<g id="edge25" class="edge">
<title>44&#45;&gt;11</title>
<path fill="none" stroke="grey" stroke-width="2" d="M615,-295.7C615,-287.98 615,-278.71 615,-270.11"/>
<polygon fill="grey" stroke="grey" stroke-width="2" points="618.5,-270.1 615,-260.1 611.5,-270.1 618.5,-270.1"/>
</g>
<!-- 49 -->
<g id="node14" class="node">
<title>49</title>
<path fill="none" stroke="#56d87b" stroke-width="2" d="M688,-116C688,-116 584,-116 584,-116 578,-116 572,-110 572,-104 572,-104 572,-92 572,-92 572,-86 578,-80 584,-80 584,-80 688,-80 688,-80 694,-80 700,-86 700,-92 700,-92 700,-104 700,-104 700,-110 694,-116 688,-116"/>
<text text-anchor="middle" x="636" y="-95.5" font-family="sans" font-size="10.00">create_native_crop_ref</text>
</g>
<!-- 49&#45;&gt;53 -->
<g id="edge28" class="edge">
<title>49&#45;&gt;53</title>
<path fill="none" stroke="grey" stroke-width="2" d="M571.92,-82C568.91,-81.32 565.92,-80.65 563,-80 510.84,-68.4 452.43,-55.98 405.19,-46.09"/>
<polygon fill="grey" stroke="grey" stroke-width="2" points="405.79,-42.64 395.29,-44.01 404.36,-49.49 405.79,-42.64"/>
</g>
</g>
</svg>
