<?xml version="1.0" encoding="UTF-8" standalone="no"?>
<!DOCTYPE svg PUBLIC "-//W3C//DTD SVG 1.1//EN"
 "http://www.w3.org/Graphics/SVG/1.1/DTD/svg11.dtd">
<!-- Generated by graphviz version 2.43.0 (0)
 -->
<!-- Pages: 1 -->
<svg width="598pt" height="196pt"
 viewBox="0.00 0.00 597.50 196.00" xmlns="http://www.w3.org/2000/svg" xmlns:xlink="http://www.w3.org/1999/xlink">
<g id="graph0" class="graph" transform="scale(1 1) rotate(0) translate(4 192)">
<polygon fill="white" stroke="transparent" points="-4,4 -4,-192 593.5,-192 593.5,4 -4,4"/>
<g id="clust1" class="cluster">
<title>cluster_0</title>
<polygon fill="white" stroke="blue" points="13.5,-8 13.5,-139 474.5,-139 474.5,-8 13.5,-8"/>
<text text-anchor="middle" x="244" y="-123.8" font-family="Times,serif" font-size="14.00">qc</text>
</g>
<!-- 55 -->
<g id="node1" class="node">
<title>55</title>
<path fill="none" stroke="#56d8a9" stroke-width="2" d="M228,-116C228,-116 139,-116 139,-116 133,-116 127,-110 127,-104 127,-104 127,-92 127,-92 127,-86 133,-80 139,-80 139,-80 228,-80 228,-80 234,-80 240,-86 240,-92 240,-92 240,-104 240,-104 240,-110 234,-116 228,-116"/>
<text text-anchor="middle" x="183.5" y="-95.5" font-family="sans" font-size="10.00">qc_reg_to_template</text>
</g>
<!-- 56 -->
<g id="node2" class="node">
<title>56</title>
<path fill="none" stroke="#80d856" stroke-width="2" d="M462,-116C462,-116 415,-116 415,-116 409,-116 403,-110 403,-104 403,-104 403,-92 403,-92 403,-86 409,-80 415,-80 415,-80 462,-80 462,-80 468,-80 474,-86 474,-92 474,-92 474,-104 474,-104 474,-110 468,-116 462,-116"/>
<text text-anchor="middle" x="438.5" y="-95.5" font-family="sans" font-size="10.00">qc_subfield</text>
</g>
<!-- 57 -->
<g id="node3" class="node">
<title>57</title>
<path fill="none" stroke="#68d856" stroke-width="2" d="M97,-116C97,-116 26,-116 26,-116 20,-116 14,-110 14,-104 14,-104 14,-92 14,-92 14,-86 20,-80 26,-80 26,-80 97,-80 97,-80 103,-80 109,-86 109,-92 109,-92 109,-104 109,-104 109,-110 103,-116 97,-116"/>
<text text-anchor="middle" x="61.5" y="-95.5" font-family="sans" font-size="10.00">qc_subfield_surf</text>
</g>
<!-- 58 -->
<g id="node4" class="node">
<title>58</title>
<path fill="none" stroke="#d88d56" stroke-width="2" d="M364.5,-44C364.5,-44 278.5,-44 278.5,-44 272.5,-44 266.5,-38 266.5,-32 266.5,-32 266.5,-20 266.5,-20 266.5,-14 272.5,-8 278.5,-8 278.5,-8 364.5,-8 364.5,-8 370.5,-8 376.5,-14 376.5,-20 376.5,-20 376.5,-32 376.5,-32 376.5,-38 370.5,-44 364.5,-44"/>
<text text-anchor="middle" x="321.5" y="-23.5" font-family="sans" font-size="10.00">plot_subj_subfields</text>
</g>
<!-- 59 -->
<g id="node5" class="node">
<title>59</title>
<path fill="none" stroke="#56d8d8" stroke-width="2" d="M373,-116C373,-116 270,-116 270,-116 264,-116 258,-110 258,-104 258,-104 258,-92 258,-92 258,-86 264,-80 270,-80 270,-80 373,-80 373,-80 379,-80 385,-86 385,-92 385,-92 385,-104 385,-104 385,-110 379,-116 373,-116"/>
<text text-anchor="middle" x="321.5" y="-95.5" font-family="sans" font-size="10.00">get_subfield_vols_subj</text>
</g>
<!-- 59&#45;&gt;58 -->
<g id="edge1" class="edge">
<title>59&#45;&gt;58</title>
<path fill="none" stroke="grey" stroke-width="2" d="M321.5,-79.7C321.5,-71.98 321.5,-62.71 321.5,-54.11"/>
<polygon fill="grey" stroke="grey" stroke-width="2" points="325,-54.1 321.5,-44.1 318,-54.1 325,-54.1"/>
</g>
<!-- 5 -->
<g id="node6" class="node">
<title>5</title>
<path fill="none" stroke="#566bd8" stroke-width="2" d="M97,-188C97,-188 12,-188 12,-188 6,-188 0,-182 0,-176 0,-176 0,-164 0,-164 0,-158 6,-152 12,-152 12,-152 97,-152 97,-152 103,-152 109,-158 109,-164 109,-164 109,-176 109,-176 109,-182 103,-188 97,-188"/>
<text text-anchor="middle" x="54.5" y="-167.5" font-family="sans" font-size="10.00">warp_gii_to_native</text>
</g>
<!-- 5&#45;&gt;57 -->
<g id="edge2" class="edge">
<title>5&#45;&gt;57</title>
<path fill="none" stroke="grey" stroke-width="2" d="M56.23,-151.7C57,-143.98 57.93,-134.71 58.79,-126.11"/>
<polygon fill="grey" stroke="grey" stroke-width="2" points="62.28,-126.4 59.79,-116.1 55.31,-125.71 62.28,-126.4"/>
</g>
<!-- 23 -->
<g id="node7" class="node">
<title>23</title>
<path fill="none" stroke="#a7d856" stroke-width="2" d="M227.5,-188C227.5,-188 139.5,-188 139.5,-188 133.5,-188 127.5,-182 127.5,-176 127.5,-176 127.5,-164 127.5,-164 127.5,-158 133.5,-152 139.5,-152 139.5,-152 227.5,-152 227.5,-152 233.5,-152 239.5,-158 239.5,-164 239.5,-164 239.5,-176 239.5,-176 239.5,-182 233.5,-188 227.5,-188"/>
<text text-anchor="middle" x="183.5" y="-167.5" font-family="sans" font-size="10.00">reg_t2_to_template</text>
</g>
<!-- 23&#45;&gt;55 -->
<g id="edge3" class="edge">
<title>23&#45;&gt;55</title>
<path fill="none" stroke="grey" stroke-width="2" d="M183.5,-151.7C183.5,-143.98 183.5,-134.71 183.5,-126.11"/>
<polygon fill="grey" stroke="grey" stroke-width="2" points="187,-126.1 183.5,-116.1 180,-126.1 187,-126.1"/>
</g>
<!-- 45 -->
<g id="node8" class="node">
<title>45</title>
<path fill="none" stroke="#d88556" stroke-width="2" d="M419,-188C419,-188 270,-188 270,-188 264,-188 258,-182 258,-176 258,-176 258,-164 258,-164 258,-158 264,-152 270,-152 270,-152 419,-152 419,-152 425,-152 431,-158 431,-164 431,-164 431,-176 431,-176 431,-182 425,-188 419,-188"/>
<text text-anchor="middle" x="344.5" y="-167.5" font-family="sans" font-size="10.00">resample_subfields_native_crop</text>
</g>
<!-- 45&#45;&gt;56 -->
<g id="edge4" class="edge">
<title>45&#45;&gt;56</title>
<path fill="none" stroke="grey" stroke-width="2" d="M374.34,-151.9C380.8,-147.88 387.49,-143.46 393.5,-139 400.11,-134.1 406.91,-128.43 413.16,-122.92"/>
<polygon fill="grey" stroke="grey" stroke-width="2" points="415.64,-125.4 420.73,-116.11 410.96,-120.2 415.64,-125.4"/>
</g>
<!-- 45&#45;&gt;59 -->
<g id="edge5" class="edge">
<title>45&#45;&gt;59</title>
<path fill="none" stroke="grey" stroke-width="2" d="M338.81,-151.7C336.25,-143.9 333.17,-134.51 330.32,-125.83"/>
<polygon fill="grey" stroke="grey" stroke-width="2" points="333.57,-124.51 327.12,-116.1 326.92,-126.7 333.57,-124.51"/>
</g>
<!-- 54 -->
<g id="node9" class="node">
<title>54</title>
<path fill="none" stroke="#c6d856" stroke-width="2" d="M577.5,-188C577.5,-188 461.5,-188 461.5,-188 455.5,-188 449.5,-182 449.5,-176 449.5,-176 449.5,-164 449.5,-164 449.5,-158 455.5,-152 461.5,-152 461.5,-152 577.5,-152 577.5,-152 583.5,-152 589.5,-158 589.5,-164 589.5,-164 589.5,-176 589.5,-176 589.5,-182 583.5,-188 577.5,-188"/>
<text text-anchor="middle" x="519.5" y="-167.5" font-family="sans" font-size="10.00">resample_native_to_crop</text>
</g>
<!-- 54&#45;&gt;56 -->
<g id="edge6" class="edge">
<title>54&#45;&gt;56</title>
<path fill="none" stroke="grey" stroke-width="2" d="M499.48,-151.7C489.37,-142.97 476.96,-132.24 465.98,-122.75"/>
<polygon fill="grey" stroke="grey" stroke-width="2" points="468.15,-119.99 458.29,-116.1 463.57,-125.29 468.15,-119.99"/>
</g>
</g>
</svg>
