<?xml version="1.0" encoding="UTF-8" standalone="no"?>
<!DOCTYPE svg PUBLIC "-//W3C//DTD SVG 1.1//EN"
 "http://www.w3.org/Graphics/SVG/1.1/DTD/svg11.dtd">
<!-- Generated by graphviz version 2.43.0 (0)
 -->
<!-- Pages: 1 -->
<svg width="977pt" height="268pt"
 viewBox="0.00 0.00 977.17 268.00" xmlns="http://www.w3.org/2000/svg" xmlns:xlink="http://www.w3.org/1999/xlink">
<g id="graph0" class="graph" transform="scale(1 1) rotate(0) translate(4 264)">
<polygon fill="white" stroke="transparent" points="-4,4 -4,-264 973.17,-264 973.17,4 -4,4"/>
<g id="clust1" class="cluster">
<title>cluster_0</title>
<polygon fill="white" stroke="blue" points="128.17,-8 128.17,-139 640.17,-139 640.17,-8 128.17,-8"/>
<text text-anchor="middle" x="384.17" y="-123.8" font-family="Times,serif" font-size="14.00">resample_final_to_crop_native</text>
</g>
<!-- 45 -->
<g id="node1" class="node">
<title>45</title>
<path fill="none" stroke="#d88556" stroke-width="2" d="M627.67,-44C627.67,-44 478.67,-44 478.67,-44 472.67,-44 466.67,-38 466.67,-32 466.67,-32 466.67,-20 466.67,-20 466.67,-14 472.67,-8 478.67,-8 478.67,-8 627.67,-8 627.67,-8 633.67,-8 639.67,-14 639.67,-20 639.67,-20 639.67,-32 639.67,-32 639.67,-38 633.67,-44 627.67,-44"/>
<text text-anchor="middle" x="553.17" y="-23.5" font-family="sans" font-size="10.00">resample_subfields_native_crop</text>
</g>
<!-- 49 -->
<g id="node2" class="node">
<title>49</title>
<path fill="none" stroke="#56d87b" stroke-width="2" d="M446.17,-116C446.17,-116 342.17,-116 342.17,-116 336.17,-116 330.17,-110 330.17,-104 330.17,-104 330.17,-92 330.17,-92 330.17,-86 336.17,-80 342.17,-80 342.17,-80 446.17,-80 446.17,-80 452.17,-80 458.17,-86 458.17,-92 458.17,-92 458.17,-104 458.17,-104 458.17,-110 452.17,-116 446.17,-116"/>
<text text-anchor="middle" x="394.17" y="-95.5" font-family="sans" font-size="10.00">create_native_crop_ref</text>
</g>
<!-- 49&#45;&gt;45 -->
<g id="edge1" class="edge">
<title>49&#45;&gt;45</title>
<path fill="none" stroke="grey" stroke-width="2" d="M433.07,-79.88C454.81,-70.31 482.08,-58.3 505.14,-48.15"/>
<polygon fill="grey" stroke="grey" stroke-width="2" points="506.66,-51.3 514.41,-44.07 503.84,-44.89 506.66,-51.3"/>
</g>
<!-- 51 -->
<g id="node3" class="node">
<title>51</title>
<path fill="none" stroke="#56c9d8" stroke-width="2" d="M436.17,-44C436.17,-44 298.17,-44 298.17,-44 292.17,-44 286.17,-38 286.17,-32 286.17,-32 286.17,-20 286.17,-20 286.17,-14 292.17,-8 298.17,-8 298.17,-8 436.17,-8 436.17,-8 442.17,-8 448.17,-14 448.17,-20 448.17,-20 448.17,-32 448.17,-32 448.17,-38 442.17,-44 436.17,-44"/>
<text text-anchor="middle" x="367.17" y="-23.5" font-family="sans" font-size="10.00">resample_coords_native_crop</text>
</g>
<!-- 49&#45;&gt;51 -->
<g id="edge2" class="edge">
<title>49&#45;&gt;51</title>
<path fill="none" stroke="grey" stroke-width="2" d="M387.5,-79.7C384.46,-71.81 380.79,-62.3 377.41,-53.55"/>
<polygon fill="grey" stroke="grey" stroke-width="2" points="380.64,-52.17 373.77,-44.1 374.11,-54.69 380.64,-52.17"/>
</g>
<!-- 54 -->
<g id="node4" class="node">
<title>54</title>
<path fill="none" stroke="#c6d856" stroke-width="2" d="M256.17,-44C256.17,-44 140.17,-44 140.17,-44 134.17,-44 128.17,-38 128.17,-32 128.17,-32 128.17,-20 128.17,-20 128.17,-14 134.17,-8 140.17,-8 140.17,-8 256.17,-8 256.17,-8 262.17,-8 268.17,-14 268.17,-20 268.17,-20 268.17,-32 268.17,-32 268.17,-38 262.17,-44 256.17,-44"/>
<text text-anchor="middle" x="198.17" y="-23.5" font-family="sans" font-size="10.00">resample_native_to_crop</text>
</g>
<!-- 49&#45;&gt;54 -->
<g id="edge3" class="edge">
<title>49&#45;&gt;54</title>
<path fill="none" stroke="grey" stroke-width="2" d="M346.48,-79.97C319.09,-70.19 284.52,-57.84 255.64,-47.52"/>
<polygon fill="grey" stroke="grey" stroke-width="2" points="256.68,-44.18 246.08,-44.11 254.33,-50.77 256.68,-44.18"/>
</g>
<!-- 11 -->
<g id="node5" class="node">
<title>11</title>
<path fill="none" stroke="#d8c356" stroke-width="2" d="M115.67,-116C115.67,-116 58.67,-116 58.67,-116 52.67,-116 46.67,-110 46.67,-104 46.67,-104 46.67,-92 46.67,-92 46.67,-86 52.67,-80 58.67,-80 58.67,-80 115.67,-80 115.67,-80 121.67,-80 127.67,-86 127.67,-92 127.67,-92 127.67,-104 127.67,-104 127.67,-110 121.67,-116 115.67,-116"/>
<text text-anchor="middle" x="87.17" y="-95.5" font-family="sans" font-size="10.00">unflip_coords</text>
</g>
<!-- 11&#45;&gt;51 -->
<g id="edge4" class="edge">
<title>11&#45;&gt;51</title>
<path fill="none" stroke="grey" stroke-width="2" d="M127.81,-81.36C129.27,-80.89 130.73,-80.43 132.17,-80 179.1,-65.92 232.29,-53.63 276.18,-44.44"/>
<polygon fill="grey" stroke="grey" stroke-width="2" points="276.89,-47.86 285.97,-42.4 275.47,-41.01 276.89,-47.86"/>
</g>
<!-- 12 -->
<g id="node6" class="node">
<title>12</title>
<path fill="none" stroke="#97d856" stroke-width="2" d="M296.17,-188C296.17,-188 204.17,-188 204.17,-188 198.17,-188 192.17,-182 192.17,-176 192.17,-176 192.17,-164 192.17,-164 192.17,-158 198.17,-152 204.17,-152 204.17,-152 296.17,-152 296.17,-152 302.17,-152 308.17,-158 308.17,-164 308.17,-164 308.17,-176 308.17,-176 308.17,-182 302.17,-188 296.17,-188"/>
<text text-anchor="middle" x="250.17" y="-167.5" font-family="sans" font-size="10.00">laplace_coords_hipp</text>
</g>
<!-- 12&#45;&gt;51 -->
<g id="edge6" class="edge">
<title>12&#45;&gt;51</title>
<path fill="none" stroke="grey" stroke-width="2" d="M263.58,-151.77C277.7,-133.71 300.69,-104.61 321.17,-80 328.93,-70.68 337.61,-60.59 345.32,-51.75"/>
<polygon fill="grey" stroke="grey" stroke-width="2" points="348.12,-53.86 352.08,-44.03 342.86,-49.25 348.12,-53.86"/>
</g>
<!-- 12&#45;&gt;11 -->
<g id="edge5" class="edge">
<title>12&#45;&gt;11</title>
<path fill="none" stroke="grey" stroke-width="2" d="M192.02,-159.99C172.27,-155.45 150.57,-148.76 132.17,-139 124.34,-134.84 116.76,-129.05 110.12,-123.16"/>
<polygon fill="grey" stroke="grey" stroke-width="2" points="112.5,-120.59 102.81,-116.3 107.71,-125.69 112.5,-120.59"/>
</g>
<!-- 17 -->
<g id="node7" class="node">
<title>17</title>
<path fill="none" stroke="#56b1d8" stroke-width="2" d="M304.17,-260C304.17,-260 206.17,-260 206.17,-260 200.17,-260 194.17,-254 194.17,-248 194.17,-248 194.17,-236 194.17,-236 194.17,-230 200.17,-224 206.17,-224 206.17,-224 304.17,-224 304.17,-224 310.17,-224 316.17,-230 316.17,-236 316.17,-236 316.17,-248 316.17,-248 316.17,-254 310.17,-260 304.17,-260"/>
<text text-anchor="middle" x="255.17" y="-239.5" font-family="sans" font-size="10.00">avg_aligned_or_cp_t2</text>
</g>
<!-- 17&#45;&gt;54 -->
<g id="edge8" class="edge">
<title>17&#45;&gt;54</title>
<path fill="none" stroke="grey" stroke-width="2" d="M193.94,-236.61C127.99,-230.46 29.36,-216.64 6.17,-188 -10.84,-166.98 12.12,-90.82 22.17,-80 46.78,-53.5 84.09,-40.08 118.03,-33.35"/>
<polygon fill="grey" stroke="grey" stroke-width="2" points="118.75,-36.77 127.97,-31.54 117.5,-29.89 118.75,-36.77"/>
</g>
<!-- 50 -->
<g id="node8" class="node">
<title>50</title>
<path fill="none" stroke="#56d8b9" stroke-width="2" d="M530.17,-188C530.17,-188 392.17,-188 392.17,-188 386.17,-188 380.17,-182 380.17,-176 380.17,-176 380.17,-164 380.17,-164 380.17,-158 386.17,-152 392.17,-152 392.17,-152 530.17,-152 530.17,-152 536.17,-152 542.17,-158 542.17,-164 542.17,-164 542.17,-176 542.17,-176 542.17,-182 536.17,-188 530.17,-188"/>
<text text-anchor="middle" x="461.17" y="-167.5" font-family="sans" font-size="10.00">resample_subfields_to_native</text>
</g>
<!-- 17&#45;&gt;50 -->
<g id="edge7" class="edge">
<title>17&#45;&gt;50</title>
<path fill="none" stroke="grey" stroke-width="2" d="M305.3,-223.97C334.21,-214.14 370.74,-201.73 401.17,-191.39"/>
<polygon fill="grey" stroke="grey" stroke-width="2" points="402.48,-194.64 410.82,-188.11 400.23,-188.01 402.48,-194.64"/>
</g>
<!-- 50&#45;&gt;49 -->
<g id="edge19" class="edge">
<title>50&#45;&gt;49</title>
<path fill="none" stroke="grey" stroke-width="2" d="M444.61,-151.7C436.5,-143.22 426.59,-132.86 417.7,-123.58"/>
<polygon fill="grey" stroke="grey" stroke-width="2" points="419.99,-120.91 410.55,-116.1 414.93,-125.75 419.99,-120.91"/>
</g>
<!-- 21 -->
<g id="node9" class="node">
<title>21</title>
<path fill="none" stroke="#56d873" stroke-width="2" d="M733.17,-260C733.17,-260 621.17,-260 621.17,-260 615.17,-260 609.17,-254 609.17,-248 609.17,-248 609.17,-236 609.17,-236 609.17,-230 615.17,-224 621.17,-224 621.17,-224 733.17,-224 733.17,-224 739.17,-224 745.17,-230 745.17,-236 745.17,-236 745.17,-248 745.17,-248 745.17,-254 739.17,-260 733.17,-260"/>
<text text-anchor="middle" x="677.17" y="-239.5" font-family="sans" font-size="10.00">compose_t2_xfm_corobl</text>
</g>
<!-- 21&#45;&gt;45 -->
<g id="edge9" class="edge">
<title>21&#45;&gt;45</title>
<path fill="none" stroke="grey" stroke-width="2" d="M734.66,-223.93C764.19,-213.87 795.73,-200.68 804.17,-188 830.79,-148.05 834.41,-117.28 804.17,-80 784.64,-55.91 712.1,-42.35 649.99,-34.99"/>
<polygon fill="grey" stroke="grey" stroke-width="2" points="650.06,-31.47 639.72,-33.81 649.26,-38.43 650.06,-31.47"/>
</g>
<!-- 21&#45;&gt;51 -->
<g id="edge11" class="edge">
<title>21&#45;&gt;51</title>
<path fill="none" stroke="grey" stroke-width="2" d="M700.55,-223.81C740.12,-192.7 812.21,-126.02 771.17,-80 726.45,-29.83 542.95,-52.42 458.52,-43.74"/>
<polygon fill="grey" stroke="grey" stroke-width="2" points="458.85,-40.25 448.49,-42.48 457.98,-47.2 458.85,-40.25"/>
</g>
<!-- 21&#45;&gt;50 -->
<g id="edge10" class="edge">
<title>21&#45;&gt;50</title>
<path fill="none" stroke="grey" stroke-width="2" d="M624.61,-223.97C594.17,-214.1 555.66,-201.62 523.68,-191.25"/>
<polygon fill="grey" stroke="grey" stroke-width="2" points="524.57,-187.86 513.97,-188.11 522.41,-194.52 524.57,-187.86"/>
</g>
<!-- 29 -->
<g id="node10" class="node">
<title>29</title>
<path fill="none" stroke="#d8bc56" stroke-width="2" d="M750.17,-116C750.17,-116 652.17,-116 652.17,-116 646.17,-116 640.17,-110 640.17,-104 640.17,-104 640.17,-92 640.17,-92 640.17,-86 646.17,-80 652.17,-80 652.17,-80 750.17,-80 750.17,-80 756.17,-80 762.17,-86 762.17,-92 762.17,-92 762.17,-104 762.17,-104 762.17,-110 756.17,-116 750.17,-116"/>
<text text-anchor="middle" x="701.17" y="-95.5" font-family="sans" font-size="10.00">unflip_coords_equivol</text>
</g>
<!-- 29&#45;&gt;51 -->
<g id="edge12" class="edge">
<title>29&#45;&gt;51</title>
<path fill="none" stroke="grey" stroke-width="2" d="M639.96,-80.88C638.69,-80.58 637.43,-80.29 636.17,-80 602.98,-72.4 522.85,-56.73 458.62,-44.4"/>
<polygon fill="grey" stroke="grey" stroke-width="2" points="458.94,-40.89 448.46,-42.45 457.62,-47.77 458.94,-40.89"/>
</g>
<!-- 30 -->
<g id="node11" class="node">
<title>30</title>
<path fill="none" stroke="#88d856" stroke-width="2" d="M717.17,-188C717.17,-188 629.17,-188 629.17,-188 623.17,-188 617.17,-182 617.17,-176 617.17,-176 617.17,-164 617.17,-164 617.17,-158 623.17,-152 629.17,-152 629.17,-152 717.17,-152 717.17,-152 723.17,-152 729.17,-158 729.17,-164 729.17,-164 729.17,-176 729.17,-176 729.17,-182 723.17,-188 717.17,-188"/>
<text text-anchor="middle" x="673.17" y="-167.5" font-family="sans" font-size="10.00">equivolume_coords</text>
</g>
<!-- 30&#45;&gt;51 -->
<g id="edge14" class="edge">
<title>30&#45;&gt;51</title>
<path fill="none" stroke="grey" stroke-width="2" d="M636.26,-151.87C580.44,-125.96 474.58,-76.84 413.6,-48.55"/>
<polygon fill="grey" stroke="grey" stroke-width="2" points="414.76,-45.22 404.22,-44.19 411.81,-51.57 414.76,-45.22"/>
</g>
<!-- 30&#45;&gt;29 -->
<g id="edge13" class="edge">
<title>30&#45;&gt;29</title>
<path fill="none" stroke="grey" stroke-width="2" d="M680.1,-151.7C683.25,-143.81 687.05,-134.3 690.56,-125.55"/>
<polygon fill="grey" stroke="grey" stroke-width="2" points="693.87,-126.69 694.33,-116.1 687.37,-124.09 693.87,-126.69"/>
</g>
<!-- 44 -->
<g id="node12" class="node">
<title>44</title>
<path fill="none" stroke="#d87d56" stroke-width="2" d="M135.17,-188C135.17,-188 27.17,-188 27.17,-188 21.17,-188 15.17,-182 15.17,-176 15.17,-176 15.17,-164 15.17,-164 15.17,-158 21.17,-152 27.17,-152 27.17,-152 135.17,-152 135.17,-152 141.17,-152 147.17,-158 147.17,-164 147.17,-164 147.17,-176 147.17,-176 147.17,-182 141.17,-188 135.17,-188"/>
<text text-anchor="middle" x="81.17" y="-167.5" font-family="sans" font-size="10.00">laplace_coords_dentate</text>
</g>
<!-- 44&#45;&gt;51 -->
<g id="edge16" class="edge">
<title>44&#45;&gt;51</title>
<path fill="none" stroke="grey" stroke-width="2" d="M47.85,-151.8C43.56,-148.16 39.77,-143.9 37.17,-139 24.92,-115.82 20.06,-99.87 37.17,-80 70.58,-41.21 208.9,-51.74 275.69,-43.94"/>
<polygon fill="grey" stroke="grey" stroke-width="2" points="276.35,-47.38 285.76,-42.52 275.37,-40.45 276.35,-47.38"/>
</g>
<!-- 44&#45;&gt;11 -->
<g id="edge15" class="edge">
<title>44&#45;&gt;11</title>
<path fill="none" stroke="grey" stroke-width="2" d="M82.66,-151.7C83.32,-143.98 84.11,-134.71 84.85,-126.11"/>
<polygon fill="grey" stroke="grey" stroke-width="2" points="88.34,-126.37 85.71,-116.1 81.37,-125.77 88.34,-126.37"/>
</g>
<!-- 46 -->
<g id="node13" class="node">
<title>46</title>
<path fill="none" stroke="#5673d8" stroke-width="2" d="M957.17,-260C957.17,-260 775.17,-260 775.17,-260 769.17,-260 763.17,-254 763.17,-248 763.17,-248 763.17,-236 763.17,-236 763.17,-230 769.17,-224 775.17,-224 775.17,-224 957.17,-224 957.17,-224 963.17,-224 969.17,-230 969.17,-236 969.17,-236 969.17,-248 969.17,-248 969.17,-254 963.17,-260 957.17,-260"/>
<text text-anchor="middle" x="866.17" y="-239.5" font-family="sans" font-size="10.00">combine_tissue_subfield_labels_corobl</text>
</g>
<!-- 46&#45;&gt;45 -->
<g id="edge17" class="edge">
<title>46&#45;&gt;45</title>
<path fill="none" stroke="grey" stroke-width="2" d="M867.66,-223.78C869.46,-190.77 868.27,-118.47 828.17,-80 802.84,-55.7 718.59,-41.95 649.95,-34.58"/>
<polygon fill="grey" stroke="grey" stroke-width="2" points="650.26,-31.09 639.95,-33.54 649.53,-38.05 650.26,-31.09"/>
</g>
<!-- 46&#45;&gt;50 -->
<g id="edge18" class="edge">
<title>46&#45;&gt;50</title>
<path fill="none" stroke="grey" stroke-width="2" d="M767.62,-223.97C702.05,-212.63 616.54,-197.85 552.52,-186.79"/>
<polygon fill="grey" stroke="grey" stroke-width="2" points="552.88,-183.3 542.43,-185.04 551.69,-190.2 552.88,-183.3"/>
</g>
</g>
</svg>
