<?xml version="1.0" encoding="UTF-8" standalone="no"?>
<!DOCTYPE svg PUBLIC "-//W3C//DTD SVG 1.1//EN"
 "http://www.w3.org/Graphics/SVG/1.1/DTD/svg11.dtd">
<!-- Generated by graphviz version 2.43.0 (0)
 -->
<!-- Pages: 1 -->
<svg width="2383pt" height="453pt"
 viewBox="0.00 0.00 2383.00 453.00" xmlns="http://www.w3.org/2000/svg" xmlns:xlink="http://www.w3.org/1999/xlink">
<g id="graph0" class="graph" transform="scale(1 1) rotate(0) translate(4 449)">
<polygon fill="white" stroke="transparent" points="-4,4 -4,-449 2379,-449 2379,4 -4,4"/>
<g id="clust1" class="cluster">
<title>cluster_0</title>
<polygon fill="white" stroke="blue" points="83.5,-8 83.5,-437 2291.5,-437 2291.5,-8 83.5,-8"/>
<text text-anchor="middle" x="1187.5" y="-421.8" font-family="Times,serif" font-size="14.00">shape_inject</text>
</g>
<!-- 12 -->
<g id="node1" class="node">
<title>12</title>
<path fill="none" stroke="#70d856" stroke-width="2" d="M683,-116C683,-116 578,-116 578,-116 572,-116 566,-110 566,-104 566,-104 566,-92 566,-92 566,-86 572,-80 578,-80 578,-80 683,-80 683,-80 689,-80 695,-86 695,-92 695,-92 695,-104 695,-104 695,-110 689,-116 683,-116"/>
<text text-anchor="middle" x="630.5" y="-95.5" font-family="sans" font-size="10.00">reinsert_subject_labels</text>
</g>
<!-- 125 -->
<g id="node2" class="node">
<title>125</title>
<path fill="none" stroke="#56b1d8" stroke-width="2" d="M664,-44C664,-44 597,-44 597,-44 591,-44 585,-38 585,-32 585,-32 585,-20 585,-20 585,-14 591,-8 597,-8 597,-8 664,-8 664,-8 670,-8 676,-14 676,-20 676,-20 676,-32 676,-32 676,-38 670,-44 664,-44"/>
<text text-anchor="middle" x="630.5" y="-29" font-family="sans" font-size="10.00">unflip_postproc</text>
<text text-anchor="middle" x="630.5" y="-18" font-family="sans" font-size="10.00">hemi: L</text>
</g>
<!-- 12&#45;&gt;125 -->
<g id="edge1" class="edge">
<title>12&#45;&gt;125</title>
<path fill="none" stroke="grey" stroke-width="2" d="M630.5,-79.7C630.5,-71.98 630.5,-62.71 630.5,-54.11"/>
<polygon fill="grey" stroke="grey" stroke-width="2" points="634,-54.1 630.5,-44.1 627,-54.1 634,-54.1"/>
</g>
<!-- 13 -->
<g id="node3" class="node">
<title>13</title>
<path fill="none" stroke="#d85656" stroke-width="2" d="M1166.5,-190.5C1166.5,-190.5 1062.5,-190.5 1062.5,-190.5 1056.5,-190.5 1050.5,-184.5 1050.5,-178.5 1050.5,-178.5 1050.5,-166.5 1050.5,-166.5 1050.5,-160.5 1056.5,-154.5 1062.5,-154.5 1062.5,-154.5 1166.5,-154.5 1166.5,-154.5 1172.5,-154.5 1178.5,-160.5 1178.5,-166.5 1178.5,-166.5 1178.5,-178.5 1178.5,-178.5 1178.5,-184.5 1172.5,-190.5 1166.5,-190.5"/>
<text text-anchor="middle" x="1114.5" y="-170" font-family="sans" font-size="10.00">template_shape_inject</text>
</g>
<!-- 13&#45;&gt;12 -->
<g id="edge2" class="edge">
<title>13&#45;&gt;12</title>
<path fill="none" stroke="grey" stroke-width="2" d="M1052.9,-154.43C1049.06,-153.56 1045.23,-152.74 1041.5,-152 925.12,-129.06 788.17,-113.68 705.42,-105.64"/>
<polygon fill="grey" stroke="grey" stroke-width="2" points="705.64,-102.15 695.35,-104.68 704.97,-109.12 705.64,-102.15"/>
</g>
<!-- 14 -->
<g id="node4" class="node">
<title>14</title>
<path fill="none" stroke="#5673d8" stroke-width="2" d="M1242,-414C1242,-414 1133,-414 1133,-414 1127,-414 1121,-408 1121,-402 1121,-402 1121,-390 1121,-390 1121,-384 1127,-378 1133,-378 1133,-378 1242,-378 1242,-378 1248,-378 1254,-384 1254,-390 1254,-390 1254,-402 1254,-402 1254,-408 1248,-414 1242,-414"/>
<text text-anchor="middle" x="1187.5" y="-399" font-family="sans" font-size="10.00">import_template_shape</text>
<text text-anchor="middle" x="1187.5" y="-388" font-family="sans" font-size="10.00">subject: 001</text>
</g>
<!-- 14&#45;&gt;13 -->
<g id="edge3" class="edge">
<title>14&#45;&gt;13</title>
<path fill="none" stroke="grey" stroke-width="2" d="M1120.68,-384.14C1074.76,-375.15 1019.62,-360.82 1005.5,-342 968.08,-292.13 1036.25,-229.63 1080.66,-196.54"/>
<polygon fill="grey" stroke="grey" stroke-width="2" points="1082.9,-199.24 1088.92,-190.52 1078.78,-193.59 1082.9,-199.24"/>
</g>
<!-- 19 -->
<g id="node5" class="node">
<title>19</title>
<path fill="none" stroke="#d8ac56" stroke-width="2" d="M1349,-342C1349,-342 1026,-342 1026,-342 1020,-342 1014,-336 1014,-330 1014,-330 1014,-318 1014,-318 1014,-312 1020,-306 1026,-306 1026,-306 1349,-306 1349,-306 1355,-306 1361,-312 1361,-318 1361,-318 1361,-330 1361,-330 1361,-336 1355,-342 1349,-342"/>
<text text-anchor="middle" x="1187.5" y="-327" font-family="sans" font-size="10.00">prep_segs_for_greedy</text>
<text text-anchor="middle" x="1187.5" y="-316" font-family="sans" font-size="10.00">prefix: work/sub&#45;001/anat/sub&#45;001_space&#45;template_desc&#45;hipptissue</text>
</g>
<!-- 14&#45;&gt;19 -->
<g id="edge4" class="edge">
<title>14&#45;&gt;19</title>
<path fill="none" stroke="grey" stroke-width="2" d="M1187.5,-377.7C1187.5,-369.98 1187.5,-360.71 1187.5,-352.11"/>
<polygon fill="grey" stroke="grey" stroke-width="2" points="1191,-352.1 1187.5,-342.1 1184,-352.1 1191,-352.1"/>
</g>
<!-- 52 -->
<g id="node6" class="node">
<title>52</title>
<path fill="none" stroke="#d85656" stroke-width="2" d="M1312.5,-190.5C1312.5,-190.5 1208.5,-190.5 1208.5,-190.5 1202.5,-190.5 1196.5,-184.5 1196.5,-178.5 1196.5,-178.5 1196.5,-166.5 1196.5,-166.5 1196.5,-160.5 1202.5,-154.5 1208.5,-154.5 1208.5,-154.5 1312.5,-154.5 1312.5,-154.5 1318.5,-154.5 1324.5,-160.5 1324.5,-166.5 1324.5,-166.5 1324.5,-178.5 1324.5,-178.5 1324.5,-184.5 1318.5,-190.5 1312.5,-190.5"/>
<text text-anchor="middle" x="1260.5" y="-170" font-family="sans" font-size="10.00">template_shape_inject</text>
</g>
<!-- 14&#45;&gt;52 -->
<g id="edge5" class="edge">
<title>14&#45;&gt;52</title>
<path fill="none" stroke="grey" stroke-width="2" d="M1254.2,-384.28C1300.47,-375.33 1356.24,-360.97 1370.5,-342 1407.96,-292.15 1339.71,-229.9 1294.94,-196.77"/>
<polygon fill="grey" stroke="grey" stroke-width="2" points="1296.77,-193.77 1286.62,-190.74 1292.66,-199.44 1296.77,-193.77"/>
</g>
<!-- 18 -->
<g id="node7" class="node">
<title>18</title>
<path fill="none" stroke="#56d892" stroke-width="2" d="M684.5,-270C684.5,-270 592.5,-270 592.5,-270 586.5,-270 580.5,-264 580.5,-258 580.5,-258 580.5,-241 580.5,-241 580.5,-235 586.5,-229 592.5,-229 592.5,-229 684.5,-229 684.5,-229 690.5,-229 696.5,-235 696.5,-241 696.5,-241 696.5,-258 696.5,-258 696.5,-264 690.5,-270 684.5,-270"/>
<text text-anchor="middle" x="638.5" y="-258" font-family="sans" font-size="10.00">template_shape_reg</text>
<text text-anchor="middle" x="638.5" y="-247" font-family="sans" font-size="10.00">hemi: Lflip</text>
<text text-anchor="middle" x="638.5" y="-236" font-family="sans" font-size="10.00">subject: 001</text>
</g>
<!-- 19&#45;&gt;18 -->
<g id="edge13" class="edge">
<title>19&#45;&gt;18</title>
<path fill="none" stroke="grey" stroke-width="2" d="M1058.44,-305.96C948.37,-291.42 794.44,-271.09 706.77,-259.52"/>
<polygon fill="grey" stroke="grey" stroke-width="2" points="707.05,-256.02 696.67,-258.18 706.13,-262.96 707.05,-256.02"/>
</g>
<!-- 55 -->
<g id="node14" class="node">
<title>55</title>
<path fill="none" stroke="#56d892" stroke-width="2" d="M1782.5,-270C1782.5,-270 1690.5,-270 1690.5,-270 1684.5,-270 1678.5,-264 1678.5,-258 1678.5,-258 1678.5,-241 1678.5,-241 1678.5,-235 1684.5,-229 1690.5,-229 1690.5,-229 1782.5,-229 1782.5,-229 1788.5,-229 1794.5,-235 1794.5,-241 1794.5,-241 1794.5,-258 1794.5,-258 1794.5,-264 1788.5,-270 1782.5,-270"/>
<text text-anchor="middle" x="1736.5" y="-258" font-family="sans" font-size="10.00">template_shape_reg</text>
<text text-anchor="middle" x="1736.5" y="-247" font-family="sans" font-size="10.00">hemi: R</text>
<text text-anchor="middle" x="1736.5" y="-236" font-family="sans" font-size="10.00">subject: 001</text>
</g>
<!-- 19&#45;&gt;55 -->
<g id="edge14" class="edge">
<title>19&#45;&gt;55</title>
<path fill="none" stroke="grey" stroke-width="2" d="M1316.56,-305.96C1426.63,-291.42 1580.56,-271.09 1668.23,-259.52"/>
<polygon fill="grey" stroke="grey" stroke-width="2" points="1668.87,-262.96 1678.33,-258.18 1667.95,-256.02 1668.87,-262.96"/>
</g>
<!-- 51 -->
<g id="node16" class="node">
<title>51</title>
<path fill="none" stroke="#70d856" stroke-width="2" d="M1796,-116C1796,-116 1691,-116 1691,-116 1685,-116 1679,-110 1679,-104 1679,-104 1679,-92 1679,-92 1679,-86 1685,-80 1691,-80 1691,-80 1796,-80 1796,-80 1802,-80 1808,-86 1808,-92 1808,-92 1808,-104 1808,-104 1808,-110 1802,-116 1796,-116"/>
<text text-anchor="middle" x="1743.5" y="-95.5" font-family="sans" font-size="10.00">reinsert_subject_labels</text>
</g>
<!-- 52&#45;&gt;51 -->
<g id="edge16" class="edge">
<title>52&#45;&gt;51</title>
<path fill="none" stroke="grey" stroke-width="2" d="M1322.95,-154.44C1326.84,-153.56 1330.72,-152.74 1334.5,-152 1450.35,-129.33 1586.62,-113.88 1668.96,-105.75"/>
<polygon fill="grey" stroke="grey" stroke-width="2" points="1669.36,-109.22 1678.98,-104.77 1668.68,-102.26 1669.36,-109.22"/>
</g>
<!-- 18&#45;&gt;13 -->
<g id="edge6" class="edge">
<title>18&#45;&gt;13</title>
<path fill="none" stroke="grey" stroke-width="2" d="M696.61,-242.79C775.27,-234.54 919.82,-217.53 1041.5,-193 1041.97,-192.91 1042.43,-192.81 1042.9,-192.71"/>
<polygon fill="grey" stroke="grey" stroke-width="2" points="1043.87,-196.09 1052.89,-190.53 1042.38,-189.25 1043.87,-196.09"/>
</g>
<!-- 21 -->
<g id="node8" class="node">
<title>21</title>
<path fill="none" stroke="#56d8b9" stroke-width="2" d="M537,-193C537,-193 418,-193 418,-193 412,-193 406,-187 406,-181 406,-181 406,-164 406,-164 406,-158 412,-152 418,-152 418,-152 537,-152 537,-152 543,-152 549,-158 549,-164 549,-164 549,-181 549,-181 549,-187 543,-193 537,-193"/>
<text text-anchor="middle" x="477.5" y="-181" font-family="sans" font-size="10.00">inject_init_laplace_coords</text>
<text text-anchor="middle" x="477.5" y="-170" font-family="sans" font-size="10.00">autotop: hipp</text>
<text text-anchor="middle" x="477.5" y="-159" font-family="sans" font-size="10.00">dir: AP</text>
</g>
<!-- 18&#45;&gt;21 -->
<g id="edge7" class="edge">
<title>18&#45;&gt;21</title>
<path fill="none" stroke="grey" stroke-width="2" d="M596.62,-228.99C575.83,-219.31 550.54,-207.52 528.62,-197.31"/>
<polygon fill="grey" stroke="grey" stroke-width="2" points="529.99,-194.09 519.45,-193.04 527.04,-200.44 529.99,-194.09"/>
</g>
<!-- 24 -->
<g id="node9" class="node">
<title>24</title>
<path fill="none" stroke="#56d8b9" stroke-width="2" d="M698,-193C698,-193 579,-193 579,-193 573,-193 567,-187 567,-181 567,-181 567,-164 567,-164 567,-158 573,-152 579,-152 579,-152 698,-152 698,-152 704,-152 710,-158 710,-164 710,-164 710,-181 710,-181 710,-187 704,-193 698,-193"/>
<text text-anchor="middle" x="638.5" y="-181" font-family="sans" font-size="10.00">inject_init_laplace_coords</text>
<text text-anchor="middle" x="638.5" y="-170" font-family="sans" font-size="10.00">autotop: hipp</text>
<text text-anchor="middle" x="638.5" y="-159" font-family="sans" font-size="10.00">dir: PD</text>
</g>
<!-- 18&#45;&gt;24 -->
<g id="edge8" class="edge">
<title>18&#45;&gt;24</title>
<path fill="none" stroke="grey" stroke-width="2" d="M638.5,-228.79C638.5,-220.96 638.5,-211.77 638.5,-203.16"/>
<polygon fill="grey" stroke="grey" stroke-width="2" points="642,-203.07 638.5,-193.07 635,-203.07 642,-203.07"/>
</g>
<!-- 92 -->
<g id="node10" class="node">
<title>92</title>
<path fill="none" stroke="#56d8b9" stroke-width="2" d="M859,-193C859,-193 740,-193 740,-193 734,-193 728,-187 728,-181 728,-181 728,-164 728,-164 728,-158 734,-152 740,-152 740,-152 859,-152 859,-152 865,-152 871,-158 871,-164 871,-164 871,-181 871,-181 871,-187 865,-193 859,-193"/>
<text text-anchor="middle" x="799.5" y="-181" font-family="sans" font-size="10.00">inject_init_laplace_coords</text>
<text text-anchor="middle" x="799.5" y="-170" font-family="sans" font-size="10.00">autotop: dentate</text>
<text text-anchor="middle" x="799.5" y="-159" font-family="sans" font-size="10.00">dir: AP</text>
</g>
<!-- 18&#45;&gt;92 -->
<g id="edge9" class="edge">
<title>18&#45;&gt;92</title>
<path fill="none" stroke="grey" stroke-width="2" d="M680.38,-228.99C701.17,-219.31 726.46,-207.52 748.38,-197.31"/>
<polygon fill="grey" stroke="grey" stroke-width="2" points="749.96,-200.44 757.55,-193.04 747.01,-194.09 749.96,-200.44"/>
</g>
<!-- 95 -->
<g id="node11" class="node">
<title>95</title>
<path fill="none" stroke="#56d8b9" stroke-width="2" d="M1020,-193C1020,-193 901,-193 901,-193 895,-193 889,-187 889,-181 889,-181 889,-164 889,-164 889,-158 895,-152 901,-152 901,-152 1020,-152 1020,-152 1026,-152 1032,-158 1032,-164 1032,-164 1032,-181 1032,-181 1032,-187 1026,-193 1020,-193"/>
<text text-anchor="middle" x="960.5" y="-181" font-family="sans" font-size="10.00">inject_init_laplace_coords</text>
<text text-anchor="middle" x="960.5" y="-170" font-family="sans" font-size="10.00">autotop: dentate</text>
<text text-anchor="middle" x="960.5" y="-159" font-family="sans" font-size="10.00">dir: PD</text>
</g>
<!-- 18&#45;&gt;95 -->
<g id="edge10" class="edge">
<title>18&#45;&gt;95</title>
<path fill="none" stroke="grey" stroke-width="2" d="M696.74,-235.38C743.49,-224.79 811.09,-209.36 878.97,-193.35"/>
<polygon fill="grey" stroke="grey" stroke-width="2" points="880.06,-196.69 888.98,-190.98 878.45,-189.88 880.06,-196.69"/>
</g>
<!-- 98 -->
<g id="node12" class="node">
<title>98</title>
<path fill="none" stroke="#56d8b9" stroke-width="2" d="M215,-193C215,-193 96,-193 96,-193 90,-193 84,-187 84,-181 84,-181 84,-164 84,-164 84,-158 90,-152 96,-152 96,-152 215,-152 215,-152 221,-152 227,-158 227,-164 227,-164 227,-181 227,-181 227,-187 221,-193 215,-193"/>
<text text-anchor="middle" x="155.5" y="-181" font-family="sans" font-size="10.00">inject_init_laplace_coords</text>
<text text-anchor="middle" x="155.5" y="-170" font-family="sans" font-size="10.00">autotop: dentate</text>
<text text-anchor="middle" x="155.5" y="-159" font-family="sans" font-size="10.00">dir: IO</text>
</g>
<!-- 18&#45;&gt;98 -->
<g id="edge11" class="edge">
<title>18&#45;&gt;98</title>
<path fill="none" stroke="grey" stroke-width="2" d="M580.29,-242.3C503.83,-233.74 365.26,-216.84 237.38,-193.07"/>
<polygon fill="grey" stroke="grey" stroke-width="2" points="237.88,-189.61 227.41,-191.2 236.59,-196.49 237.88,-189.61"/>
</g>
<!-- 141 -->
<g id="node13" class="node">
<title>141</title>
<path fill="none" stroke="#56d8b9" stroke-width="2" d="M376,-193C376,-193 257,-193 257,-193 251,-193 245,-187 245,-181 245,-181 245,-164 245,-164 245,-158 251,-152 257,-152 257,-152 376,-152 376,-152 382,-152 388,-158 388,-164 388,-164 388,-181 388,-181 388,-187 382,-193 376,-193"/>
<text text-anchor="middle" x="316.5" y="-181" font-family="sans" font-size="10.00">inject_init_laplace_coords</text>
<text text-anchor="middle" x="316.5" y="-170" font-family="sans" font-size="10.00">autotop: hipp</text>
<text text-anchor="middle" x="316.5" y="-159" font-family="sans" font-size="10.00">dir: IO</text>
</g>
<!-- 18&#45;&gt;141 -->
<g id="edge12" class="edge">
<title>18&#45;&gt;141</title>
<path fill="none" stroke="grey" stroke-width="2" d="M580.02,-235.2C533.48,-224.58 466.42,-209.19 398.13,-193.14"/>
<polygon fill="grey" stroke="grey" stroke-width="2" points="398.58,-189.65 388.04,-190.76 396.98,-196.46 398.58,-189.65"/>
</g>
<!-- 55&#45;&gt;52 -->
<g id="edge17" class="edge">
<title>55&#45;&gt;52</title>
<path fill="none" stroke="grey" stroke-width="2" d="M1678.22,-242.68C1599.68,-234.34 1455.74,-217.25 1334.5,-193 1334.03,-192.91 1333.55,-192.81 1333.08,-192.71"/>
<polygon fill="grey" stroke="grey" stroke-width="2" points="1333.47,-189.22 1322.95,-190.52 1331.99,-196.06 1333.47,-189.22"/>
</g>
<!-- 57 -->
<g id="node17" class="node">
<title>57</title>
<path fill="none" stroke="#56d8b9" stroke-width="2" d="M2279,-193C2279,-193 2160,-193 2160,-193 2154,-193 2148,-187 2148,-181 2148,-181 2148,-164 2148,-164 2148,-158 2154,-152 2160,-152 2160,-152 2279,-152 2279,-152 2285,-152 2291,-158 2291,-164 2291,-164 2291,-181 2291,-181 2291,-187 2285,-193 2279,-193"/>
<text text-anchor="middle" x="2219.5" y="-181" font-family="sans" font-size="10.00">inject_init_laplace_coords</text>
<text text-anchor="middle" x="2219.5" y="-170" font-family="sans" font-size="10.00">autotop: hipp</text>
<text text-anchor="middle" x="2219.5" y="-159" font-family="sans" font-size="10.00">dir: AP</text>
</g>
<!-- 55&#45;&gt;57 -->
<g id="edge18" class="edge">
<title>55&#45;&gt;57</title>
<path fill="none" stroke="grey" stroke-width="2" d="M1794.53,-242.4C1871.12,-233.92 2010.27,-217.08 2137.68,-193.26"/>
<polygon fill="grey" stroke="grey" stroke-width="2" points="2138.44,-196.68 2147.62,-191.39 2137.14,-189.8 2138.44,-196.68"/>
</g>
<!-- 59 -->
<g id="node18" class="node">
<title>59</title>
<path fill="none" stroke="#56d8b9" stroke-width="2" d="M1474,-193C1474,-193 1355,-193 1355,-193 1349,-193 1343,-187 1343,-181 1343,-181 1343,-164 1343,-164 1343,-158 1349,-152 1355,-152 1355,-152 1474,-152 1474,-152 1480,-152 1486,-158 1486,-164 1486,-164 1486,-181 1486,-181 1486,-187 1480,-193 1474,-193"/>
<text text-anchor="middle" x="1414.5" y="-181" font-family="sans" font-size="10.00">inject_init_laplace_coords</text>
<text text-anchor="middle" x="1414.5" y="-170" font-family="sans" font-size="10.00">autotop: hipp</text>
<text text-anchor="middle" x="1414.5" y="-159" font-family="sans" font-size="10.00">dir: PD</text>
</g>
<!-- 55&#45;&gt;59 -->
<g id="edge19" class="edge">
<title>55&#45;&gt;59</title>
<path fill="none" stroke="grey" stroke-width="2" d="M1678.02,-235.2C1631.48,-224.58 1564.42,-209.19 1496.13,-193.14"/>
<polygon fill="grey" stroke="grey" stroke-width="2" points="1496.58,-189.65 1486.04,-190.76 1494.98,-196.46 1496.58,-189.65"/>
</g>
<!-- 111 -->
<g id="node19" class="node">
<title>111</title>
<path fill="none" stroke="#56d8b9" stroke-width="2" d="M1635,-193C1635,-193 1516,-193 1516,-193 1510,-193 1504,-187 1504,-181 1504,-181 1504,-164 1504,-164 1504,-158 1510,-152 1516,-152 1516,-152 1635,-152 1635,-152 1641,-152 1647,-158 1647,-164 1647,-164 1647,-181 1647,-181 1647,-187 1641,-193 1635,-193"/>
<text text-anchor="middle" x="1575.5" y="-181" font-family="sans" font-size="10.00">inject_init_laplace_coords</text>
<text text-anchor="middle" x="1575.5" y="-170" font-family="sans" font-size="10.00">autotop: dentate</text>
<text text-anchor="middle" x="1575.5" y="-159" font-family="sans" font-size="10.00">dir: AP</text>
</g>
<!-- 55&#45;&gt;111 -->
<g id="edge20" class="edge">
<title>55&#45;&gt;111</title>
<path fill="none" stroke="grey" stroke-width="2" d="M1694.62,-228.99C1673.83,-219.31 1648.54,-207.52 1626.62,-197.31"/>
<polygon fill="grey" stroke="grey" stroke-width="2" points="1627.99,-194.09 1617.45,-193.04 1625.04,-200.44 1627.99,-194.09"/>
</g>
<!-- 113 -->
<g id="node20" class="node">
<title>113</title>
<path fill="none" stroke="#56d8b9" stroke-width="2" d="M1796,-193C1796,-193 1677,-193 1677,-193 1671,-193 1665,-187 1665,-181 1665,-181 1665,-164 1665,-164 1665,-158 1671,-152 1677,-152 1677,-152 1796,-152 1796,-152 1802,-152 1808,-158 1808,-164 1808,-164 1808,-181 1808,-181 1808,-187 1802,-193 1796,-193"/>
<text text-anchor="middle" x="1736.5" y="-181" font-family="sans" font-size="10.00">inject_init_laplace_coords</text>
<text text-anchor="middle" x="1736.5" y="-170" font-family="sans" font-size="10.00">autotop: dentate</text>
<text text-anchor="middle" x="1736.5" y="-159" font-family="sans" font-size="10.00">dir: PD</text>
</g>
<!-- 55&#45;&gt;113 -->
<g id="edge21" class="edge">
<title>55&#45;&gt;113</title>
<path fill="none" stroke="grey" stroke-width="2" d="M1736.5,-228.79C1736.5,-220.96 1736.5,-211.77 1736.5,-203.16"/>
<polygon fill="grey" stroke="grey" stroke-width="2" points="1740,-203.07 1736.5,-193.07 1733,-203.07 1740,-203.07"/>
</g>
<!-- 115 -->
<g id="node21" class="node">
<title>115</title>
<path fill="none" stroke="#56d8b9" stroke-width="2" d="M1957,-193C1957,-193 1838,-193 1838,-193 1832,-193 1826,-187 1826,-181 1826,-181 1826,-164 1826,-164 1826,-158 1832,-152 1838,-152 1838,-152 1957,-152 1957,-152 1963,-152 1969,-158 1969,-164 1969,-164 1969,-181 1969,-181 1969,-187 1963,-193 1957,-193"/>
<text text-anchor="middle" x="1897.5" y="-181" font-family="sans" font-size="10.00">inject_init_laplace_coords</text>
<text text-anchor="middle" x="1897.5" y="-170" font-family="sans" font-size="10.00">autotop: dentate</text>
<text text-anchor="middle" x="1897.5" y="-159" font-family="sans" font-size="10.00">dir: IO</text>
</g>
<!-- 55&#45;&gt;115 -->
<g id="edge22" class="edge">
<title>55&#45;&gt;115</title>
<path fill="none" stroke="grey" stroke-width="2" d="M1778.38,-228.99C1799.17,-219.31 1824.46,-207.52 1846.38,-197.31"/>
<polygon fill="grey" stroke="grey" stroke-width="2" points="1847.96,-200.44 1855.55,-193.04 1845.01,-194.09 1847.96,-200.44"/>
</g>
<!-- 144 -->
<g id="node22" class="node">
<title>144</title>
<path fill="none" stroke="#56d8b9" stroke-width="2" d="M2118,-193C2118,-193 1999,-193 1999,-193 1993,-193 1987,-187 1987,-181 1987,-181 1987,-164 1987,-164 1987,-158 1993,-152 1999,-152 1999,-152 2118,-152 2118,-152 2124,-152 2130,-158 2130,-164 2130,-164 2130,-181 2130,-181 2130,-187 2124,-193 2118,-193"/>
<text text-anchor="middle" x="2058.5" y="-181" font-family="sans" font-size="10.00">inject_init_laplace_coords</text>
<text text-anchor="middle" x="2058.5" y="-170" font-family="sans" font-size="10.00">autotop: hipp</text>
<text text-anchor="middle" x="2058.5" y="-159" font-family="sans" font-size="10.00">dir: IO</text>
</g>
<!-- 55&#45;&gt;144 -->
<g id="edge23" class="edge">
<title>55&#45;&gt;144</title>
<path fill="none" stroke="grey" stroke-width="2" d="M1794.74,-235.38C1841.49,-224.79 1909.09,-209.36 1976.97,-193.35"/>
<polygon fill="grey" stroke="grey" stroke-width="2" points="1978.06,-196.69 1986.98,-190.98 1976.45,-189.88 1978.06,-196.69"/>
</g>
<!-- 20 -->
<g id="node15" class="node">
<title>20</title>
<path fill="none" stroke="#d8ac56" stroke-width="2" d="M773.5,-342C773.5,-342 427.5,-342 427.5,-342 421.5,-342 415.5,-336 415.5,-330 415.5,-330 415.5,-318 415.5,-318 415.5,-312 421.5,-306 427.5,-306 427.5,-306 773.5,-306 773.5,-306 779.5,-306 785.5,-312 785.5,-318 785.5,-318 785.5,-330 785.5,-330 785.5,-336 779.5,-342 773.5,-342"/>
<text text-anchor="middle" x="600.5" y="-327" font-family="sans" font-size="10.00">prep_segs_for_greedy</text>
<text text-anchor="middle" x="600.5" y="-316" font-family="sans" font-size="10.00">prefix: work/sub&#45;001/anat/sub&#45;001_hemi&#45;Lflip_space&#45;corobl_desc&#45;nnunet</text>
</g>
<!-- 20&#45;&gt;18 -->
<g id="edge15" class="edge">
<title>20&#45;&gt;18</title>
<path fill="none" stroke="grey" stroke-width="2" d="M609.51,-305.82C613.68,-297.86 618.74,-288.19 623.47,-279.18"/>
<polygon fill="grey" stroke="grey" stroke-width="2" points="626.67,-280.6 628.22,-270.12 620.47,-277.35 626.67,-280.6"/>
</g>
<!-- 56 -->
<g id="node23" class="node">
<title>56</title>
<path fill="none" stroke="#d8ac56" stroke-width="2" d="M1919.5,-342C1919.5,-342 1587.5,-342 1587.5,-342 1581.5,-342 1575.5,-336 1575.5,-330 1575.5,-330 1575.5,-318 1575.5,-318 1575.5,-312 1581.5,-306 1587.5,-306 1587.5,-306 1919.5,-306 1919.5,-306 1925.5,-306 1931.5,-312 1931.5,-318 1931.5,-318 1931.5,-330 1931.5,-330 1931.5,-336 1925.5,-342 1919.5,-342"/>
<text text-anchor="middle" x="1753.5" y="-327" font-family="sans" font-size="10.00">prep_segs_for_greedy</text>
<text text-anchor="middle" x="1753.5" y="-316" font-family="sans" font-size="10.00">prefix: work/sub&#45;001/anat/sub&#45;001_hemi&#45;R_space&#45;corobl_desc&#45;nnunet</text>
</g>
<!-- 56&#45;&gt;55 -->
<g id="edge24" class="edge">
<title>56&#45;&gt;55</title>
<path fill="none" stroke="grey" stroke-width="2" d="M1749.47,-305.82C1747.66,-298.11 1745.48,-288.8 1743.43,-280.03"/>
<polygon fill="grey" stroke="grey" stroke-width="2" points="1746.79,-279.06 1741.1,-270.12 1739.98,-280.65 1746.79,-279.06"/>
</g>
<!-- 15 -->
<g id="node24" class="node">
<title>15</title>
<path fill="none" stroke="#78d856" stroke-width="2" d="M71,-414C71,-414 12,-414 12,-414 6,-414 0,-408 0,-402 0,-402 0,-390 0,-390 0,-384 6,-378 12,-378 12,-378 71,-378 71,-378 77,-378 83,-384 83,-390 83,-390 83,-402 83,-402 83,-408 77,-414 71,-414"/>
<text text-anchor="middle" x="41.5" y="-399" font-family="sans" font-size="10.00">run_inference</text>
<text text-anchor="middle" x="41.5" y="-388" font-family="sans" font-size="10.00">hemi: Lflip</text>
</g>
<!-- 15&#45;&gt;12 -->
<g id="edge25" class="edge">
<title>15&#45;&gt;12</title>
<path fill="none" stroke="grey" stroke-width="2" d="M37.55,-377.77C28.43,-333.08 11.26,-212.77 74.5,-152 108.51,-119.32 412.03,-105.7 555.72,-101.04"/>
<polygon fill="grey" stroke="grey" stroke-width="2" points="555.9,-104.54 565.78,-100.73 555.67,-97.54 555.9,-104.54"/>
</g>
<!-- 15&#45;&gt;13 -->
<g id="edge26" class="edge">
<title>15&#45;&gt;13</title>
<path fill="none" stroke="grey" stroke-width="2" d="M83.03,-379.33C84.53,-378.86 86.03,-378.42 87.5,-378 165.14,-355.94 187.86,-364.05 265.5,-342 404.96,-302.4 429.86,-259.94 571.5,-229 776.17,-184.28 834.97,-228.18 1041.5,-193 1042.41,-192.85 1043.32,-192.69 1044.23,-192.52"/>
<polygon fill="grey" stroke="grey" stroke-width="2" points="1045.02,-195.93 1054.14,-190.54 1043.65,-189.07 1045.02,-195.93"/>
</g>
<!-- 15&#45;&gt;21 -->
<g id="edge28" class="edge">
<title>15&#45;&gt;21</title>
<path fill="none" stroke="grey" stroke-width="2" d="M70.7,-377.96C86.97,-368.07 107.35,-355.03 124.5,-342 154.45,-319.25 217.23,-246.55 250.5,-229 250.93,-228.77 331.07,-209.2 396,-193.37"/>
<polygon fill="grey" stroke="grey" stroke-width="2" points="396.98,-196.73 405.87,-190.96 395.32,-189.93 396.98,-196.73"/>
</g>
<!-- 15&#45;&gt;24 -->
<g id="edge29" class="edge">
<title>15&#45;&gt;24</title>
<path fill="none" stroke="grey" stroke-width="2" d="M83.01,-378.94C105.49,-369.49 133.32,-356.56 156.5,-342 189.92,-321.01 257.34,-244.82 293.5,-229 399.42,-182.67 439.51,-213.32 556.56,-193.21"/>
<polygon fill="grey" stroke="grey" stroke-width="2" points="557.4,-196.62 566.62,-191.39 556.16,-189.73 557.4,-196.62"/>
</g>
<!-- 15&#45;&gt;92 -->
<g id="edge30" class="edge">
<title>15&#45;&gt;92</title>
<path fill="none" stroke="grey" stroke-width="2" d="M83.11,-379.58C84.59,-379.05 86.06,-378.52 87.5,-378 133.13,-361.59 148,-365.35 190.5,-342 199.37,-337.12 324.1,-232.76 333.5,-229 490.41,-166.17 547.39,-219.37 717.6,-193.16"/>
<polygon fill="grey" stroke="grey" stroke-width="2" points="718.33,-196.59 727.64,-191.54 717.21,-189.67 718.33,-196.59"/>
</g>
<!-- 15&#45;&gt;95 -->
<g id="edge31" class="edge">
<title>15&#45;&gt;95</title>
<path fill="none" stroke="grey" stroke-width="2" d="M83.06,-379.43C84.55,-378.94 86.04,-378.46 87.5,-378 147.97,-358.99 168.41,-369.53 225.5,-342 273.54,-318.83 279.38,-302.71 321.5,-270 344.47,-252.16 345.43,-239.62 372.5,-229 474.97,-188.79 752.92,-209.26 878.44,-193.07"/>
<polygon fill="grey" stroke="grey" stroke-width="2" points="879.25,-196.49 888.66,-191.62 878.26,-189.56 879.25,-196.49"/>
</g>
<!-- 15&#45;&gt;98 -->
<g id="edge32" class="edge">
<title>15&#45;&gt;98</title>
<path fill="none" stroke="grey" stroke-width="2" d="M50.26,-377.99C69.72,-340.17 116.74,-248.8 140.8,-202.07"/>
<polygon fill="grey" stroke="grey" stroke-width="2" points="143.96,-203.57 145.42,-193.08 137.74,-200.37 143.96,-203.57"/>
</g>
<!-- 15&#45;&gt;141 -->
<g id="edge33" class="edge">
<title>15&#45;&gt;141</title>
<path fill="none" stroke="grey" stroke-width="2" d="M58.02,-377.92C98.45,-336.14 199.33,-232.02 203.5,-229 220.31,-216.82 240.19,-206.04 258.56,-197.3"/>
<polygon fill="grey" stroke="grey" stroke-width="2" points="260.12,-200.43 267.72,-193.04 257.17,-194.08 260.12,-200.43"/>
</g>
<!-- 15&#45;&gt;20 -->
<g id="edge27" class="edge">
<title>15&#45;&gt;20</title>
<path fill="none" stroke="grey" stroke-width="2" d="M83.23,-379.07C84.66,-378.69 86.09,-378.33 87.5,-378 118.52,-370.79 273.55,-355.22 405.15,-342.81"/>
<polygon fill="grey" stroke="grey" stroke-width="2" points="405.75,-346.27 415.38,-341.85 405.1,-339.3 405.75,-346.27"/>
</g>
<!-- 53 -->
<g id="node25" class="node">
<title>53</title>
<path fill="none" stroke="#78d856" stroke-width="2" d="M2363,-414C2363,-414 2304,-414 2304,-414 2298,-414 2292,-408 2292,-402 2292,-402 2292,-390 2292,-390 2292,-384 2298,-378 2304,-378 2304,-378 2363,-378 2363,-378 2369,-378 2375,-384 2375,-390 2375,-390 2375,-402 2375,-402 2375,-408 2369,-414 2363,-414"/>
<text text-anchor="middle" x="2333.5" y="-393.5" font-family="sans" font-size="10.00">run_inference</text>
</g>
<!-- 53&#45;&gt;52 -->
<g id="edge35" class="edge">
<title>53&#45;&gt;52</title>
<path fill="none" stroke="grey" stroke-width="2" d="M2291.92,-378.94C2290.77,-378.61 2289.63,-378.29 2288.5,-378 2184.13,-350.79 2151.84,-372.9 2048.5,-342 1933.61,-307.65 1919.55,-259.18 1803.5,-229 1601.17,-176.39 1540.64,-227.78 1334.5,-193 1333.58,-192.85 1332.66,-192.68 1331.73,-192.52"/>
<polygon fill="grey" stroke="grey" stroke-width="2" points="1332.18,-189.04 1321.69,-190.54 1330.83,-195.91 1332.18,-189.04"/>
</g>
<!-- 53&#45;&gt;51 -->
<g id="edge34" class="edge">
<title>53&#45;&gt;51</title>
<path fill="none" stroke="grey" stroke-width="2" d="M2337.45,-377.77C2346.57,-333.08 2363.75,-212.76 2300.5,-152 2266.4,-119.24 1961.98,-105.66 1818.15,-101.03"/>
<polygon fill="grey" stroke="grey" stroke-width="2" points="1818.18,-97.53 1808.07,-100.71 1817.96,-104.52 1818.18,-97.53"/>
</g>
<!-- 53&#45;&gt;57 -->
<g id="edge37" class="edge">
<title>53&#45;&gt;57</title>
<path fill="none" stroke="grey" stroke-width="2" d="M2324.74,-377.99C2305.28,-340.17 2258.26,-248.8 2234.2,-202.07"/>
<polygon fill="grey" stroke="grey" stroke-width="2" points="2237.26,-200.37 2229.58,-193.08 2231.04,-203.57 2237.26,-200.37"/>
</g>
<!-- 53&#45;&gt;59 -->
<g id="edge38" class="edge">
<title>53&#45;&gt;59</title>
<path fill="none" stroke="grey" stroke-width="2" d="M2291.91,-378.98C2290.77,-378.64 2289.63,-378.31 2288.5,-378 2201.01,-353.86 2167.46,-384.92 2087.5,-342 2072.2,-333.79 1995.21,-236.42 1979.5,-229 1884.73,-184.26 1617.76,-208.22 1496.58,-192.88"/>
<polygon fill="grey" stroke="grey" stroke-width="2" points="1496.76,-189.37 1486.37,-191.44 1495.78,-196.31 1496.76,-189.37"/>
</g>
<!-- 53&#45;&gt;111 -->
<g id="edge39" class="edge">
<title>53&#45;&gt;111</title>
<path fill="none" stroke="grey" stroke-width="2" d="M2291.89,-379.06C2290.75,-378.7 2289.62,-378.34 2288.5,-378 2222.11,-357.69 2197.58,-375.01 2136.5,-342 2095.57,-319.88 2093.64,-302.66 2060.5,-270 2042.37,-252.13 2043.44,-240.03 2020.5,-229 1876.99,-160 1819.18,-217.62 1657.67,-193"/>
<polygon fill="grey" stroke="grey" stroke-width="2" points="1657.81,-189.48 1647.38,-191.35 1656.7,-196.39 1657.81,-189.48"/>
</g>
<!-- 53&#45;&gt;113 -->
<g id="edge40" class="edge">
<title>53&#45;&gt;113</title>
<path fill="none" stroke="grey" stroke-width="2" d="M2291.88,-379.21C2251.34,-363.82 2195.65,-342.64 2194.5,-342 2148.17,-316.3 2139,-305.31 2099.5,-270 2080.75,-253.24 2082.82,-240.59 2060.5,-229 1966.43,-180.18 1927.01,-211.81 1818.44,-193.01"/>
<polygon fill="grey" stroke="grey" stroke-width="2" points="1818.88,-189.53 1808.42,-191.17 1817.62,-196.42 1818.88,-189.53"/>
</g>
<!-- 53&#45;&gt;115 -->
<g id="edge41" class="edge">
<title>53&#45;&gt;115</title>
<path fill="none" stroke="grey" stroke-width="2" d="M2302.43,-377.77C2285.06,-367.83 2263.21,-354.79 2244.5,-342 2227.64,-330.47 2117.76,-238.16 2099.5,-229 2088.24,-223.35 2029.98,-207.56 1978.91,-194.25"/>
<polygon fill="grey" stroke="grey" stroke-width="2" points="1979.7,-190.84 1969.14,-191.72 1977.94,-197.62 1979.7,-190.84"/>
</g>
<!-- 53&#45;&gt;144 -->
<g id="edge42" class="edge">
<title>53&#45;&gt;144</title>
<path fill="none" stroke="grey" stroke-width="2" d="M2317.7,-377.84C2287.93,-346.08 2220.64,-277.01 2155.5,-229 2140.35,-217.84 2122.77,-207.17 2106.76,-198.22"/>
<polygon fill="grey" stroke="grey" stroke-width="2" points="2107.99,-194.91 2097.54,-193.16 2104.62,-201.04 2107.99,-194.91"/>
</g>
<!-- 53&#45;&gt;56 -->
<g id="edge36" class="edge">
<title>53&#45;&gt;56</title>
<path fill="none" stroke="grey" stroke-width="2" d="M2291.94,-378.86C2290.79,-378.55 2289.64,-378.27 2288.5,-378 2254.94,-370.14 2082.01,-353.71 1941.7,-341.21"/>
<polygon fill="grey" stroke="grey" stroke-width="2" points="1941.93,-337.72 1931.66,-340.32 1941.31,-344.69 1941.93,-337.72"/>
</g>
</g>
</svg>
