<?xml version="1.0" encoding="UTF-8" standalone="no"?>
<!DOCTYPE svg PUBLIC "-//W3C//DTD SVG 1.1//EN"
 "http://www.w3.org/Graphics/SVG/1.1/DTD/svg11.dtd">
<!-- Generated by graphviz version 2.43.0 (0)
 -->
<!-- Pages: 1 -->
<svg width="6423pt" height="266pt"
 viewBox="0.00 0.00 6423.00 266.00" xmlns="http://www.w3.org/2000/svg" xmlns:xlink="http://www.w3.org/1999/xlink">
<g id="graph0" class="graph" transform="scale(1 1) rotate(0) translate(4 262)">
<polygon fill="white" stroke="transparent" points="-4,4 -4,-262 6419,-262 6419,4 -4,4"/>
<g id="clust1" class="cluster">
<title>cluster_0</title>
<polygon fill="white" stroke="blue" points="8,-8 8,-105 6407,-105 6407,-8 8,-8"/>
<text text-anchor="middle" x="3207.5" y="-89.8" font-family="Times,serif" font-size="14.00">common</text>
</g>
<!-- 123 -->
<g id="node1" class="node">
<title>123</title>
<path fill="none" stroke="#567bd8" stroke-width="2" d="M5634.5,-76.5C5634.5,-76.5 5407.5,-76.5 5407.5,-76.5 5401.5,-76.5 5395.5,-70.5 5395.5,-64.5 5395.5,-64.5 5395.5,-25.5 5395.5,-25.5 5395.5,-19.5 5401.5,-13.5 5407.5,-13.5 5407.5,-13.5 5634.5,-13.5 5634.5,-13.5 5640.5,-13.5 5646.5,-19.5 5646.5,-25.5 5646.5,-25.5 5646.5,-64.5 5646.5,-64.5 5646.5,-70.5 5640.5,-76.5 5634.5,-76.5"/>
<text text-anchor="middle" x="5521" y="-64.5" font-family="sans" font-size="10.00">copy_subfields_to_results</text>
<text text-anchor="middle" x="5521" y="-53.5" font-family="sans" font-size="10.00">ext: nii.gz</text>
<text text-anchor="middle" x="5521" y="-42.5" font-family="sans" font-size="10.00">post: atlas&#45;bigbrain_</text>
<text text-anchor="middle" x="5521" y="-31.5" font-family="sans" font-size="10.00">pre: sub&#45;001/anat/sub&#45;001_hemi&#45;L_space&#45;corobl</text>
<text text-anchor="middle" x="5521" y="-20.5" font-family="sans" font-size="10.00">suffix: dseg</text>
</g>
<!-- 127 -->
<g id="node2" class="node">
<title>127</title>
<path fill="none" stroke="#567bd8" stroke-width="2" d="M5905,-76.5C5905,-76.5 5677,-76.5 5677,-76.5 5671,-76.5 5665,-70.5 5665,-64.5 5665,-64.5 5665,-25.5 5665,-25.5 5665,-19.5 5671,-13.5 5677,-13.5 5677,-13.5 5905,-13.5 5905,-13.5 5911,-13.5 5917,-19.5 5917,-25.5 5917,-25.5 5917,-64.5 5917,-64.5 5917,-70.5 5911,-76.5 5905,-76.5"/>
<text text-anchor="middle" x="5791" y="-64.5" font-family="sans" font-size="10.00">copy_subfields_to_results</text>
<text text-anchor="middle" x="5791" y="-53.5" font-family="sans" font-size="10.00">ext: nii.gz</text>
<text text-anchor="middle" x="5791" y="-42.5" font-family="sans" font-size="10.00">post: atlas&#45;bigbrain_</text>
<text text-anchor="middle" x="5791" y="-31.5" font-family="sans" font-size="10.00">pre: sub&#45;001/anat/sub&#45;001_hemi&#45;R_space&#45;corobl</text>
<text text-anchor="middle" x="5791" y="-20.5" font-family="sans" font-size="10.00">suffix: dseg</text>
</g>
<!-- 130 -->
<g id="node3" class="node">
<title>130</title>
<path fill="none" stroke="#d88d56" stroke-width="2" d="M224,-76.5C224,-76.5 20,-76.5 20,-76.5 14,-76.5 8,-70.5 8,-64.5 8,-64.5 8,-25.5 8,-25.5 8,-19.5 14,-13.5 20,-13.5 20,-13.5 224,-13.5 224,-13.5 230,-13.5 236,-19.5 236,-25.5 236,-25.5 236,-64.5 236,-64.5 236,-70.5 230,-76.5 224,-76.5"/>
<text text-anchor="middle" x="122" y="-64.5" font-family="sans" font-size="10.00">copy_coords_to_results</text>
<text text-anchor="middle" x="122" y="-53.5" font-family="sans" font-size="10.00">ext: nii.gz</text>
<text text-anchor="middle" x="122" y="-42.5" font-family="sans" font-size="10.00">post: label&#45;hipp_desc&#45;laplace_</text>
<text text-anchor="middle" x="122" y="-31.5" font-family="sans" font-size="10.00">pre: sub&#45;001/coords/sub&#45;001_dir&#45;AP_hemi&#45;L</text>
<text text-anchor="middle" x="122" y="-20.5" font-family="sans" font-size="10.00">suffix: coords</text>
</g>
<!-- 131 -->
<g id="node4" class="node">
<title>131</title>
<path fill="none" stroke="#d88d56" stroke-width="2" d="M1553,-76.5C1553,-76.5 1347,-76.5 1347,-76.5 1341,-76.5 1335,-70.5 1335,-64.5 1335,-64.5 1335,-25.5 1335,-25.5 1335,-19.5 1341,-13.5 1347,-13.5 1347,-13.5 1553,-13.5 1553,-13.5 1559,-13.5 1565,-19.5 1565,-25.5 1565,-25.5 1565,-64.5 1565,-64.5 1565,-70.5 1559,-76.5 1553,-76.5"/>
<text text-anchor="middle" x="1450" y="-64.5" font-family="sans" font-size="10.00">copy_coords_to_results</text>
<text text-anchor="middle" x="1450" y="-53.5" font-family="sans" font-size="10.00">ext: nii.gz</text>
<text text-anchor="middle" x="1450" y="-42.5" font-family="sans" font-size="10.00">post: label&#45;hipp_desc&#45;laplace_</text>
<text text-anchor="middle" x="1450" y="-31.5" font-family="sans" font-size="10.00">pre: sub&#45;001/coords/sub&#45;001_dir&#45;AP_hemi&#45;R</text>
<text text-anchor="middle" x="1450" y="-20.5" font-family="sans" font-size="10.00">suffix: coords</text>
</g>
<!-- 132 -->
<g id="node5" class="node">
<title>132</title>
<path fill="none" stroke="#d88d56" stroke-width="2" d="M2885,-76.5C2885,-76.5 2681,-76.5 2681,-76.5 2675,-76.5 2669,-70.5 2669,-64.5 2669,-64.5 2669,-25.5 2669,-25.5 2669,-19.5 2675,-13.5 2681,-13.5 2681,-13.5 2885,-13.5 2885,-13.5 2891,-13.5 2897,-19.5 2897,-25.5 2897,-25.5 2897,-64.5 2897,-64.5 2897,-70.5 2891,-76.5 2885,-76.5"/>
<text text-anchor="middle" x="2783" y="-64.5" font-family="sans" font-size="10.00">copy_coords_to_results</text>
<text text-anchor="middle" x="2783" y="-53.5" font-family="sans" font-size="10.00">ext: nii.gz</text>
<text text-anchor="middle" x="2783" y="-42.5" font-family="sans" font-size="10.00">post: label&#45;dentate_desc&#45;laplace_</text>
<text text-anchor="middle" x="2783" y="-31.5" font-family="sans" font-size="10.00">pre: sub&#45;001/coords/sub&#45;001_dir&#45;AP_hemi&#45;L</text>
<text text-anchor="middle" x="2783" y="-20.5" font-family="sans" font-size="10.00">suffix: coords</text>
</g>
<!-- 133 -->
<g id="node6" class="node">
<title>133</title>
<path fill="none" stroke="#d88d56" stroke-width="2" d="M4246,-76.5C4246,-76.5 4040,-76.5 4040,-76.5 4034,-76.5 4028,-70.5 4028,-64.5 4028,-64.5 4028,-25.5 4028,-25.5 4028,-19.5 4034,-13.5 4040,-13.5 4040,-13.5 4246,-13.5 4246,-13.5 4252,-13.5 4258,-19.5 4258,-25.5 4258,-25.5 4258,-64.5 4258,-64.5 4258,-70.5 4252,-76.5 4246,-76.5"/>
<text text-anchor="middle" x="4143" y="-64.5" font-family="sans" font-size="10.00">copy_coords_to_results</text>
<text text-anchor="middle" x="4143" y="-53.5" font-family="sans" font-size="10.00">ext: nii.gz</text>
<text text-anchor="middle" x="4143" y="-42.5" font-family="sans" font-size="10.00">post: label&#45;dentate_desc&#45;laplace_</text>
<text text-anchor="middle" x="4143" y="-31.5" font-family="sans" font-size="10.00">pre: sub&#45;001/coords/sub&#45;001_dir&#45;AP_hemi&#45;R</text>
<text text-anchor="middle" x="4143" y="-20.5" font-family="sans" font-size="10.00">suffix: coords</text>
</g>
<!-- 134 -->
<g id="node7" class="node">
<title>134</title>
<path fill="none" stroke="#d88d56" stroke-width="2" d="M1060.5,-76.5C1060.5,-76.5 855.5,-76.5 855.5,-76.5 849.5,-76.5 843.5,-70.5 843.5,-64.5 843.5,-64.5 843.5,-25.5 843.5,-25.5 843.5,-19.5 849.5,-13.5 855.5,-13.5 855.5,-13.5 1060.5,-13.5 1060.5,-13.5 1066.5,-13.5 1072.5,-19.5 1072.5,-25.5 1072.5,-25.5 1072.5,-64.5 1072.5,-64.5 1072.5,-70.5 1066.5,-76.5 1060.5,-76.5"/>
<text text-anchor="middle" x="958" y="-64.5" font-family="sans" font-size="10.00">copy_coords_to_results</text>
<text text-anchor="middle" x="958" y="-53.5" font-family="sans" font-size="10.00">ext: nii.gz</text>
<text text-anchor="middle" x="958" y="-42.5" font-family="sans" font-size="10.00">post: label&#45;hipp_desc&#45;laplace_</text>
<text text-anchor="middle" x="958" y="-31.5" font-family="sans" font-size="10.00">pre: sub&#45;001/coords/sub&#45;001_dir&#45;PD_hemi&#45;L</text>
<text text-anchor="middle" x="958" y="-20.5" font-family="sans" font-size="10.00">suffix: coords</text>
</g>
<!-- 135 -->
<g id="node8" class="node">
<title>135</title>
<path fill="none" stroke="#d88d56" stroke-width="2" d="M2393,-76.5C2393,-76.5 2187,-76.5 2187,-76.5 2181,-76.5 2175,-70.5 2175,-64.5 2175,-64.5 2175,-25.5 2175,-25.5 2175,-19.5 2181,-13.5 2187,-13.5 2187,-13.5 2393,-13.5 2393,-13.5 2399,-13.5 2405,-19.5 2405,-25.5 2405,-25.5 2405,-64.5 2405,-64.5 2405,-70.5 2399,-76.5 2393,-76.5"/>
<text text-anchor="middle" x="2290" y="-64.5" font-family="sans" font-size="10.00">copy_coords_to_results</text>
<text text-anchor="middle" x="2290" y="-53.5" font-family="sans" font-size="10.00">ext: nii.gz</text>
<text text-anchor="middle" x="2290" y="-42.5" font-family="sans" font-size="10.00">post: label&#45;hipp_desc&#45;laplace_</text>
<text text-anchor="middle" x="2290" y="-31.5" font-family="sans" font-size="10.00">pre: sub&#45;001/coords/sub&#45;001_dir&#45;PD_hemi&#45;R</text>
<text text-anchor="middle" x="2290" y="-20.5" font-family="sans" font-size="10.00">suffix: coords</text>
</g>
<!-- 136 -->
<g id="node9" class="node">
<title>136</title>
<path fill="none" stroke="#d88d56" stroke-width="2" d="M3753.5,-76.5C3753.5,-76.5 3548.5,-76.5 3548.5,-76.5 3542.5,-76.5 3536.5,-70.5 3536.5,-64.5 3536.5,-64.5 3536.5,-25.5 3536.5,-25.5 3536.5,-19.5 3542.5,-13.5 3548.5,-13.5 3548.5,-13.5 3753.5,-13.5 3753.5,-13.5 3759.5,-13.5 3765.5,-19.5 3765.5,-25.5 3765.5,-25.5 3765.5,-64.5 3765.5,-64.5 3765.5,-70.5 3759.5,-76.5 3753.5,-76.5"/>
<text text-anchor="middle" x="3651" y="-64.5" font-family="sans" font-size="10.00">copy_coords_to_results</text>
<text text-anchor="middle" x="3651" y="-53.5" font-family="sans" font-size="10.00">ext: nii.gz</text>
<text text-anchor="middle" x="3651" y="-42.5" font-family="sans" font-size="10.00">post: label&#45;dentate_desc&#45;laplace_</text>
<text text-anchor="middle" x="3651" y="-31.5" font-family="sans" font-size="10.00">pre: sub&#45;001/coords/sub&#45;001_dir&#45;PD_hemi&#45;L</text>
<text text-anchor="middle" x="3651" y="-20.5" font-family="sans" font-size="10.00">suffix: coords</text>
</g>
<!-- 137 -->
<g id="node10" class="node">
<title>137</title>
<path fill="none" stroke="#d88d56" stroke-width="2" d="M5120,-76.5C5120,-76.5 4914,-76.5 4914,-76.5 4908,-76.5 4902,-70.5 4902,-64.5 4902,-64.5 4902,-25.5 4902,-25.5 4902,-19.5 4908,-13.5 4914,-13.5 4914,-13.5 5120,-13.5 5120,-13.5 5126,-13.5 5132,-19.5 5132,-25.5 5132,-25.5 5132,-64.5 5132,-64.5 5132,-70.5 5126,-76.5 5120,-76.5"/>
<text text-anchor="middle" x="5017" y="-64.5" font-family="sans" font-size="10.00">copy_coords_to_results</text>
<text text-anchor="middle" x="5017" y="-53.5" font-family="sans" font-size="10.00">ext: nii.gz</text>
<text text-anchor="middle" x="5017" y="-42.5" font-family="sans" font-size="10.00">post: label&#45;dentate_desc&#45;laplace_</text>
<text text-anchor="middle" x="5017" y="-31.5" font-family="sans" font-size="10.00">pre: sub&#45;001/coords/sub&#45;001_dir&#45;PD_hemi&#45;R</text>
<text text-anchor="middle" x="5017" y="-20.5" font-family="sans" font-size="10.00">suffix: coords</text>
</g>
<!-- 138 -->
<g id="node11" class="node">
<title>138</title>
<path fill="none" stroke="#d88d56" stroke-width="2" d="M6149,-76.5C6149,-76.5 5947,-76.5 5947,-76.5 5941,-76.5 5935,-70.5 5935,-64.5 5935,-64.5 5935,-25.5 5935,-25.5 5935,-19.5 5941,-13.5 5947,-13.5 5947,-13.5 6149,-13.5 6149,-13.5 6155,-13.5 6161,-19.5 6161,-25.5 6161,-25.5 6161,-64.5 6161,-64.5 6161,-70.5 6155,-76.5 6149,-76.5"/>
<text text-anchor="middle" x="6048" y="-64.5" font-family="sans" font-size="10.00">copy_coords_to_results</text>
<text text-anchor="middle" x="6048" y="-53.5" font-family="sans" font-size="10.00">ext: nii.gz</text>
<text text-anchor="middle" x="6048" y="-42.5" font-family="sans" font-size="10.00">post: label&#45;hipp_desc&#45;laplace_</text>
<text text-anchor="middle" x="6048" y="-31.5" font-family="sans" font-size="10.00">pre: sub&#45;001/coords/sub&#45;001_dir&#45;IO_hemi&#45;L</text>
<text text-anchor="middle" x="6048" y="-20.5" font-family="sans" font-size="10.00">suffix: coords</text>
</g>
<!-- 142 -->
<g id="node12" class="node">
<title>142</title>
<path fill="none" stroke="#d88d56" stroke-width="2" d="M6394.5,-76.5C6394.5,-76.5 6191.5,-76.5 6191.5,-76.5 6185.5,-76.5 6179.5,-70.5 6179.5,-64.5 6179.5,-64.5 6179.5,-25.5 6179.5,-25.5 6179.5,-19.5 6185.5,-13.5 6191.5,-13.5 6191.5,-13.5 6394.5,-13.5 6394.5,-13.5 6400.5,-13.5 6406.5,-19.5 6406.5,-25.5 6406.5,-25.5 6406.5,-64.5 6406.5,-64.5 6406.5,-70.5 6400.5,-76.5 6394.5,-76.5"/>
<text text-anchor="middle" x="6293" y="-64.5" font-family="sans" font-size="10.00">copy_coords_to_results</text>
<text text-anchor="middle" x="6293" y="-53.5" font-family="sans" font-size="10.00">ext: nii.gz</text>
<text text-anchor="middle" x="6293" y="-42.5" font-family="sans" font-size="10.00">post: label&#45;hipp_desc&#45;laplace_</text>
<text text-anchor="middle" x="6293" y="-31.5" font-family="sans" font-size="10.00">pre: sub&#45;001/coords/sub&#45;001_dir&#45;IO_hemi&#45;R</text>
<text text-anchor="middle" x="6293" y="-20.5" font-family="sans" font-size="10.00">suffix: coords</text>
</g>
<!-- 145 -->
<g id="node13" class="node">
<title>145</title>
<path fill="none" stroke="#d88d56" stroke-width="2" d="M3998,-76.5C3998,-76.5 3796,-76.5 3796,-76.5 3790,-76.5 3784,-70.5 3784,-64.5 3784,-64.5 3784,-25.5 3784,-25.5 3784,-19.5 3790,-13.5 3796,-13.5 3796,-13.5 3998,-13.5 3998,-13.5 4004,-13.5 4010,-19.5 4010,-25.5 4010,-25.5 4010,-64.5 4010,-64.5 4010,-70.5 4004,-76.5 3998,-76.5"/>
<text text-anchor="middle" x="3897" y="-64.5" font-family="sans" font-size="10.00">copy_coords_to_results</text>
<text text-anchor="middle" x="3897" y="-53.5" font-family="sans" font-size="10.00">ext: nii.gz</text>
<text text-anchor="middle" x="3897" y="-42.5" font-family="sans" font-size="10.00">post: label&#45;dentate_desc&#45;laplace_</text>
<text text-anchor="middle" x="3897" y="-31.5" font-family="sans" font-size="10.00">pre: sub&#45;001/coords/sub&#45;001_dir&#45;IO_hemi&#45;L</text>
<text text-anchor="middle" x="3897" y="-20.5" font-family="sans" font-size="10.00">suffix: coords</text>
</g>
<!-- 146 -->
<g id="node14" class="node">
<title>146</title>
<path fill="none" stroke="#d88d56" stroke-width="2" d="M5365.5,-76.5C5365.5,-76.5 5162.5,-76.5 5162.5,-76.5 5156.5,-76.5 5150.5,-70.5 5150.5,-64.5 5150.5,-64.5 5150.5,-25.5 5150.5,-25.5 5150.5,-19.5 5156.5,-13.5 5162.5,-13.5 5162.5,-13.5 5365.5,-13.5 5365.5,-13.5 5371.5,-13.5 5377.5,-19.5 5377.5,-25.5 5377.5,-25.5 5377.5,-64.5 5377.5,-64.5 5377.5,-70.5 5371.5,-76.5 5365.5,-76.5"/>
<text text-anchor="middle" x="5264" y="-64.5" font-family="sans" font-size="10.00">copy_coords_to_results</text>
<text text-anchor="middle" x="5264" y="-53.5" font-family="sans" font-size="10.00">ext: nii.gz</text>
<text text-anchor="middle" x="5264" y="-42.5" font-family="sans" font-size="10.00">post: label&#45;dentate_desc&#45;laplace_</text>
<text text-anchor="middle" x="5264" y="-31.5" font-family="sans" font-size="10.00">pre: sub&#45;001/coords/sub&#45;001_dir&#45;IO_hemi&#45;R</text>
<text text-anchor="middle" x="5264" y="-20.5" font-family="sans" font-size="10.00">suffix: coords</text>
</g>
<!-- 147 -->
<g id="node15" class="node">
<title>147</title>
<path fill="none" stroke="#d88d56" stroke-width="2" d="M1305,-76.5C1305,-76.5 1103,-76.5 1103,-76.5 1097,-76.5 1091,-70.5 1091,-64.5 1091,-64.5 1091,-25.5 1091,-25.5 1091,-19.5 1097,-13.5 1103,-13.5 1103,-13.5 1305,-13.5 1305,-13.5 1311,-13.5 1317,-19.5 1317,-25.5 1317,-25.5 1317,-64.5 1317,-64.5 1317,-70.5 1311,-76.5 1305,-76.5"/>
<text text-anchor="middle" x="1204" y="-64.5" font-family="sans" font-size="10.00">copy_coords_to_results</text>
<text text-anchor="middle" x="1204" y="-53.5" font-family="sans" font-size="10.00">ext: nii.gz</text>
<text text-anchor="middle" x="1204" y="-42.5" font-family="sans" font-size="10.00">post: label&#45;hipp_desc&#45;equivol_</text>
<text text-anchor="middle" x="1204" y="-31.5" font-family="sans" font-size="10.00">pre: sub&#45;001/coords/sub&#45;001_dir&#45;IO_hemi&#45;L</text>
<text text-anchor="middle" x="1204" y="-20.5" font-family="sans" font-size="10.00">suffix: coords</text>
</g>
<!-- 148 -->
<g id="node16" class="node">
<title>148</title>
<path fill="none" stroke="#d88d56" stroke-width="2" d="M2638.5,-76.5C2638.5,-76.5 2435.5,-76.5 2435.5,-76.5 2429.5,-76.5 2423.5,-70.5 2423.5,-64.5 2423.5,-64.5 2423.5,-25.5 2423.5,-25.5 2423.5,-19.5 2429.5,-13.5 2435.5,-13.5 2435.5,-13.5 2638.5,-13.5 2638.5,-13.5 2644.5,-13.5 2650.5,-19.5 2650.5,-25.5 2650.5,-25.5 2650.5,-64.5 2650.5,-64.5 2650.5,-70.5 2644.5,-76.5 2638.5,-76.5"/>
<text text-anchor="middle" x="2537" y="-64.5" font-family="sans" font-size="10.00">copy_coords_to_results</text>
<text text-anchor="middle" x="2537" y="-53.5" font-family="sans" font-size="10.00">ext: nii.gz</text>
<text text-anchor="middle" x="2537" y="-42.5" font-family="sans" font-size="10.00">post: label&#45;hipp_desc&#45;equivol_</text>
<text text-anchor="middle" x="2537" y="-31.5" font-family="sans" font-size="10.00">pre: sub&#45;001/coords/sub&#45;001_dir&#45;IO_hemi&#45;R</text>
<text text-anchor="middle" x="2537" y="-20.5" font-family="sans" font-size="10.00">suffix: coords</text>
</g>
<!-- 149 -->
<g id="node17" class="node">
<title>149</title>
<path fill="none" stroke="#56d8c1" stroke-width="2" d="M813.5,-82C813.5,-82 592.5,-82 592.5,-82 586.5,-82 580.5,-76 580.5,-70 580.5,-70 580.5,-20 580.5,-20 580.5,-14 586.5,-8 592.5,-8 592.5,-8 813.5,-8 813.5,-8 819.5,-8 825.5,-14 825.5,-20 825.5,-20 825.5,-70 825.5,-70 825.5,-76 819.5,-82 813.5,-82"/>
<text text-anchor="middle" x="703" y="-70" font-family="sans" font-size="10.00">copy_xfm_to_results</text>
<text text-anchor="middle" x="703" y="-59" font-family="sans" font-size="10.00">ext: nii.gz</text>
<text text-anchor="middle" x="703" y="-48" font-family="sans" font-size="10.00">fromto: from</text>
<text text-anchor="middle" x="703" y="-37" font-family="sans" font-size="10.00">post: to&#45;unfold_mode&#45;image_</text>
<text text-anchor="middle" x="703" y="-26" font-family="sans" font-size="10.00">pre: sub&#45;001/warps/sub&#45;001_hemi&#45;L_label&#45;hipp</text>
<text text-anchor="middle" x="703" y="-15" font-family="sans" font-size="10.00">suffix: xfm</text>
</g>
<!-- 150 -->
<g id="node18" class="node">
<title>150</title>
<path fill="none" stroke="#56d8c1" stroke-width="2" d="M2145,-82C2145,-82 1923,-82 1923,-82 1917,-82 1911,-76 1911,-70 1911,-70 1911,-20 1911,-20 1911,-14 1917,-8 1923,-8 1923,-8 2145,-8 2145,-8 2151,-8 2157,-14 2157,-20 2157,-20 2157,-70 2157,-70 2157,-76 2151,-82 2145,-82"/>
<text text-anchor="middle" x="2034" y="-70" font-family="sans" font-size="10.00">copy_xfm_to_results</text>
<text text-anchor="middle" x="2034" y="-59" font-family="sans" font-size="10.00">ext: nii.gz</text>
<text text-anchor="middle" x="2034" y="-48" font-family="sans" font-size="10.00">fromto: from</text>
<text text-anchor="middle" x="2034" y="-37" font-family="sans" font-size="10.00">post: to&#45;unfold_mode&#45;image_</text>
<text text-anchor="middle" x="2034" y="-26" font-family="sans" font-size="10.00">pre: sub&#45;001/warps/sub&#45;001_hemi&#45;R_label&#45;hipp</text>
<text text-anchor="middle" x="2034" y="-15" font-family="sans" font-size="10.00">suffix: xfm</text>
</g>
<!-- 151 -->
<g id="node19" class="node">
<title>151</title>
<path fill="none" stroke="#56d8c1" stroke-width="2" d="M3506.5,-82C3506.5,-82 3269.5,-82 3269.5,-82 3263.5,-82 3257.5,-76 3257.5,-70 3257.5,-70 3257.5,-20 3257.5,-20 3257.5,-14 3263.5,-8 3269.5,-8 3269.5,-8 3506.5,-8 3506.5,-8 3512.5,-8 3518.5,-14 3518.5,-20 3518.5,-20 3518.5,-70 3518.5,-70 3518.5,-76 3512.5,-82 3506.5,-82"/>
<text text-anchor="middle" x="3388" y="-70" font-family="sans" font-size="10.00">copy_xfm_to_results</text>
<text text-anchor="middle" x="3388" y="-59" font-family="sans" font-size="10.00">ext: nii.gz</text>
<text text-anchor="middle" x="3388" y="-48" font-family="sans" font-size="10.00">fromto: from</text>
<text text-anchor="middle" x="3388" y="-37" font-family="sans" font-size="10.00">post: to&#45;unfold_mode&#45;image_</text>
<text text-anchor="middle" x="3388" y="-26" font-family="sans" font-size="10.00">pre: sub&#45;001/warps/sub&#45;001_hemi&#45;L_label&#45;dentate</text>
<text text-anchor="middle" x="3388" y="-15" font-family="sans" font-size="10.00">suffix: xfm</text>
</g>
<!-- 152 -->
<g id="node20" class="node">
<title>152</title>
<path fill="none" stroke="#56d8c1" stroke-width="2" d="M4871.5,-82C4871.5,-82 4632.5,-82 4632.5,-82 4626.5,-82 4620.5,-76 4620.5,-70 4620.5,-70 4620.5,-20 4620.5,-20 4620.5,-14 4626.5,-8 4632.5,-8 4632.5,-8 4871.5,-8 4871.5,-8 4877.5,-8 4883.5,-14 4883.5,-20 4883.5,-20 4883.5,-70 4883.5,-70 4883.5,-76 4877.5,-82 4871.5,-82"/>
<text text-anchor="middle" x="4752" y="-70" font-family="sans" font-size="10.00">copy_xfm_to_results</text>
<text text-anchor="middle" x="4752" y="-59" font-family="sans" font-size="10.00">ext: nii.gz</text>
<text text-anchor="middle" x="4752" y="-48" font-family="sans" font-size="10.00">fromto: from</text>
<text text-anchor="middle" x="4752" y="-37" font-family="sans" font-size="10.00">post: to&#45;unfold_mode&#45;image_</text>
<text text-anchor="middle" x="4752" y="-26" font-family="sans" font-size="10.00">pre: sub&#45;001/warps/sub&#45;001_hemi&#45;R_label&#45;dentate</text>
<text text-anchor="middle" x="4752" y="-15" font-family="sans" font-size="10.00">suffix: xfm</text>
</g>
<!-- 153 -->
<g id="node21" class="node">
<title>153</title>
<path fill="none" stroke="#56d8c1" stroke-width="2" d="M550,-82C550,-82 266,-82 266,-82 260,-82 254,-76 254,-70 254,-70 254,-20 254,-20 254,-14 260,-8 266,-8 266,-8 550,-8 550,-8 556,-8 562,-14 562,-20 562,-20 562,-70 562,-70 562,-76 556,-82 550,-82"/>
<text text-anchor="middle" x="408" y="-70" font-family="sans" font-size="10.00">copy_xfm_to_results</text>
<text text-anchor="middle" x="408" y="-59" font-family="sans" font-size="10.00">ext: nii.gz</text>
<text text-anchor="middle" x="408" y="-48" font-family="sans" font-size="10.00">fromto: to</text>
<text text-anchor="middle" x="408" y="-37" font-family="sans" font-size="10.00">post: mode&#45;image_</text>
<text text-anchor="middle" x="408" y="-26" font-family="sans" font-size="10.00">pre: sub&#45;001/warps/sub&#45;001_hemi&#45;L_label&#45;hipp_from&#45;unfold</text>
<text text-anchor="middle" x="408" y="-15" font-family="sans" font-size="10.00">suffix: xfm</text>
</g>
<!-- 154 -->
<g id="node22" class="node">
<title>154</title>
<path fill="none" stroke="#56d8c1" stroke-width="2" d="M1880.5,-82C1880.5,-82 1595.5,-82 1595.5,-82 1589.5,-82 1583.5,-76 1583.5,-70 1583.5,-70 1583.5,-20 1583.5,-20 1583.5,-14 1589.5,-8 1595.5,-8 1595.5,-8 1880.5,-8 1880.5,-8 1886.5,-8 1892.5,-14 1892.5,-20 1892.5,-20 1892.5,-70 1892.5,-70 1892.5,-76 1886.5,-82 1880.5,-82"/>
<text text-anchor="middle" x="1738" y="-70" font-family="sans" font-size="10.00">copy_xfm_to_results</text>
<text text-anchor="middle" x="1738" y="-59" font-family="sans" font-size="10.00">ext: nii.gz</text>
<text text-anchor="middle" x="1738" y="-48" font-family="sans" font-size="10.00">fromto: to</text>
<text text-anchor="middle" x="1738" y="-37" font-family="sans" font-size="10.00">post: mode&#45;image_</text>
<text text-anchor="middle" x="1738" y="-26" font-family="sans" font-size="10.00">pre: sub&#45;001/warps/sub&#45;001_hemi&#45;R_label&#45;hipp_from&#45;unfold</text>
<text text-anchor="middle" x="1738" y="-15" font-family="sans" font-size="10.00">suffix: xfm</text>
</g>
<!-- 155 -->
<g id="node23" class="node">
<title>155</title>
<path fill="none" stroke="#56d8c1" stroke-width="2" d="M3227,-82C3227,-82 2927,-82 2927,-82 2921,-82 2915,-76 2915,-70 2915,-70 2915,-20 2915,-20 2915,-14 2921,-8 2927,-8 2927,-8 3227,-8 3227,-8 3233,-8 3239,-14 3239,-20 3239,-20 3239,-70 3239,-70 3239,-76 3233,-82 3227,-82"/>
<text text-anchor="middle" x="3077" y="-70" font-family="sans" font-size="10.00">copy_xfm_to_results</text>
<text text-anchor="middle" x="3077" y="-59" font-family="sans" font-size="10.00">ext: nii.gz</text>
<text text-anchor="middle" x="3077" y="-48" font-family="sans" font-size="10.00">fromto: to</text>
<text text-anchor="middle" x="3077" y="-37" font-family="sans" font-size="10.00">post: mode&#45;image_</text>
<text text-anchor="middle" x="3077" y="-26" font-family="sans" font-size="10.00">pre: sub&#45;001/warps/sub&#45;001_hemi&#45;L_label&#45;dentate_from&#45;unfold</text>
<text text-anchor="middle" x="3077" y="-15" font-family="sans" font-size="10.00">suffix: xfm</text>
</g>
<!-- 156 -->
<g id="node24" class="node">
<title>156</title>
<path fill="none" stroke="#56d8c1" stroke-width="2" d="M4590,-82C4590,-82 4288,-82 4288,-82 4282,-82 4276,-76 4276,-70 4276,-70 4276,-20 4276,-20 4276,-14 4282,-8 4288,-8 4288,-8 4590,-8 4590,-8 4596,-8 4602,-14 4602,-20 4602,-20 4602,-70 4602,-70 4602,-76 4596,-82 4590,-82"/>
<text text-anchor="middle" x="4439" y="-70" font-family="sans" font-size="10.00">copy_xfm_to_results</text>
<text text-anchor="middle" x="4439" y="-59" font-family="sans" font-size="10.00">ext: nii.gz</text>
<text text-anchor="middle" x="4439" y="-48" font-family="sans" font-size="10.00">fromto: to</text>
<text text-anchor="middle" x="4439" y="-37" font-family="sans" font-size="10.00">post: mode&#45;image_</text>
<text text-anchor="middle" x="4439" y="-26" font-family="sans" font-size="10.00">pre: sub&#45;001/warps/sub&#45;001_hemi&#45;R_label&#45;dentate_from&#45;unfold</text>
<text text-anchor="middle" x="4439" y="-15" font-family="sans" font-size="10.00">suffix: xfm</text>
</g>
<!-- 7 -->
<g id="node25" class="node">
<title>7</title>
<path fill="none" stroke="#d8bc56" stroke-width="2" d="M745,-162C745,-162 661,-162 661,-162 655,-162 649,-156 649,-150 649,-150 649,-138 649,-138 649,-132 655,-126 661,-126 661,-126 745,-126 745,-126 751,-126 757,-132 757,-138 757,-138 757,-150 757,-150 757,-156 751,-162 745,-162"/>
<text text-anchor="middle" x="703" y="-141.5" font-family="sans" font-size="10.00">create_warps_hipp</text>
</g>
<!-- 7&#45;&gt;149 -->
<g id="edge1" class="edge">
<title>7&#45;&gt;149</title>
<path fill="none" stroke="grey" stroke-width="2" d="M703,-125.66C703,-116.3 703,-104.26 703,-92.39"/>
<polygon fill="grey" stroke="grey" stroke-width="2" points="706.5,-92.07 703,-82.07 699.5,-92.07 706.5,-92.07"/>
</g>
<!-- 7&#45;&gt;153 -->
<g id="edge2" class="edge">
<title>7&#45;&gt;153</title>
<path fill="none" stroke="grey" stroke-width="2" d="M648.8,-128.28C624.85,-121.55 596.4,-113.24 571,-105 552.39,-98.96 532.72,-92.18 513.72,-85.43"/>
<polygon fill="grey" stroke="grey" stroke-width="2" points="514.76,-82.09 504.16,-82.02 512.4,-88.68 514.76,-82.09"/>
</g>
<!-- 10 -->
<g id="node26" class="node">
<title>10</title>
<path fill="none" stroke="#56d873" stroke-width="2" d="M581.5,-258C581.5,-258 524.5,-258 524.5,-258 518.5,-258 512.5,-252 512.5,-246 512.5,-246 512.5,-218 512.5,-218 512.5,-212 518.5,-206 524.5,-206 524.5,-206 581.5,-206 581.5,-206 587.5,-206 593.5,-212 593.5,-218 593.5,-218 593.5,-246 593.5,-246 593.5,-252 587.5,-258 581.5,-258"/>
<text text-anchor="middle" x="553" y="-246" font-family="sans" font-size="10.00">unflip_coords</text>
<text text-anchor="middle" x="553" y="-235" font-family="sans" font-size="10.00">autotop: hipp</text>
<text text-anchor="middle" x="553" y="-224" font-family="sans" font-size="10.00">desc: laplace</text>
<text text-anchor="middle" x="553" y="-213" font-family="sans" font-size="10.00">hemi: L</text>
</g>
<!-- 10&#45;&gt;130 -->
<g id="edge4" class="edge">
<title>10&#45;&gt;130</title>
<path fill="none" stroke="grey" stroke-width="2" d="M512.32,-215.24C453.07,-192.09 339.78,-147.08 245,-105 228.11,-97.5 210.08,-89.09 193.18,-81.02"/>
<polygon fill="grey" stroke="grey" stroke-width="2" points="194.46,-77.75 183.93,-76.58 191.43,-84.06 194.46,-77.75"/>
</g>
<!-- 10&#45;&gt;7 -->
<g id="edge3" class="edge">
<title>10&#45;&gt;7</title>
<path fill="none" stroke="grey" stroke-width="2" d="M593.59,-207.73C615.61,-195.1 642.68,-179.59 664.38,-167.14"/>
<polygon fill="grey" stroke="grey" stroke-width="2" points="666.39,-170.03 673.32,-162.02 662.91,-163.95 666.39,-170.03"/>
</g>
<!-- 22 -->
<g id="node27" class="node">
<title>22</title>
<path fill="none" stroke="#56d873" stroke-width="2" d="M800.5,-258C800.5,-258 743.5,-258 743.5,-258 737.5,-258 731.5,-252 731.5,-246 731.5,-246 731.5,-218 731.5,-218 731.5,-212 737.5,-206 743.5,-206 743.5,-206 800.5,-206 800.5,-206 806.5,-206 812.5,-212 812.5,-218 812.5,-218 812.5,-246 812.5,-246 812.5,-252 806.5,-258 800.5,-258"/>
<text text-anchor="middle" x="772" y="-246" font-family="sans" font-size="10.00">unflip_coords</text>
<text text-anchor="middle" x="772" y="-235" font-family="sans" font-size="10.00">autotop: hipp</text>
<text text-anchor="middle" x="772" y="-224" font-family="sans" font-size="10.00">desc: laplace</text>
<text text-anchor="middle" x="772" y="-213" font-family="sans" font-size="10.00">hemi: L</text>
</g>
<!-- 22&#45;&gt;134 -->
<g id="edge6" class="edge">
<title>22&#45;&gt;134</title>
<path fill="none" stroke="grey" stroke-width="2" d="M797.47,-205.66C829.05,-174.25 883.18,-120.42 919.75,-84.04"/>
<polygon fill="grey" stroke="grey" stroke-width="2" points="922.65,-86.09 927.28,-76.56 917.72,-81.13 922.65,-86.09"/>
</g>
<!-- 22&#45;&gt;7 -->
<g id="edge5" class="edge">
<title>22&#45;&gt;7</title>
<path fill="none" stroke="grey" stroke-width="2" d="M751.67,-205.66C742.67,-194.45 732.12,-181.3 723.15,-170.11"/>
<polygon fill="grey" stroke="grey" stroke-width="2" points="725.63,-167.61 716.64,-162 720.17,-171.99 725.63,-167.61"/>
</g>
<!-- 25 -->
<g id="node28" class="node">
<title>25</title>
<path fill="none" stroke="#568ad8" stroke-width="2" d="M1011,-252.5C1011,-252.5 913,-252.5 913,-252.5 907,-252.5 901,-246.5 901,-240.5 901,-240.5 901,-223.5 901,-223.5 901,-217.5 907,-211.5 913,-211.5 913,-211.5 1011,-211.5 1011,-211.5 1017,-211.5 1023,-217.5 1023,-223.5 1023,-223.5 1023,-240.5 1023,-240.5 1023,-246.5 1017,-252.5 1011,-252.5"/>
<text text-anchor="middle" x="962" y="-240.5" font-family="sans" font-size="10.00">unflip_coords_equivol</text>
<text text-anchor="middle" x="962" y="-229.5" font-family="sans" font-size="10.00">desc: equivol</text>
<text text-anchor="middle" x="962" y="-218.5" font-family="sans" font-size="10.00">hemi: L</text>
</g>
<!-- 25&#45;&gt;147 -->
<g id="edge8" class="edge">
<title>25&#45;&gt;147</title>
<path fill="none" stroke="grey" stroke-width="2" d="M987.9,-211.2C1027.86,-180.65 1105.22,-121.52 1155.71,-82.91"/>
<polygon fill="grey" stroke="grey" stroke-width="2" points="1158.07,-85.52 1163.89,-76.67 1153.82,-79.96 1158.07,-85.52"/>
</g>
<!-- 25&#45;&gt;7 -->
<g id="edge7" class="edge">
<title>25&#45;&gt;7</title>
<path fill="none" stroke="grey" stroke-width="2" d="M903.23,-211.49C861.69,-197.69 806.14,-179.25 764.1,-165.29"/>
<polygon fill="grey" stroke="grey" stroke-width="2" points="765.12,-161.94 754.53,-162.11 762.92,-168.58 765.12,-161.94"/>
</g>
<!-- 49 -->
<g id="node29" class="node">
<title>49</title>
<path fill="none" stroke="#d8bc56" stroke-width="2" d="M2076,-162C2076,-162 1992,-162 1992,-162 1986,-162 1980,-156 1980,-150 1980,-150 1980,-138 1980,-138 1980,-132 1986,-126 1992,-126 1992,-126 2076,-126 2076,-126 2082,-126 2088,-132 2088,-138 2088,-138 2088,-150 2088,-150 2088,-156 2082,-162 2076,-162"/>
<text text-anchor="middle" x="2034" y="-141.5" font-family="sans" font-size="10.00">create_warps_hipp</text>
</g>
<!-- 49&#45;&gt;150 -->
<g id="edge9" class="edge">
<title>49&#45;&gt;150</title>
<path fill="none" stroke="grey" stroke-width="2" d="M2034,-125.66C2034,-116.3 2034,-104.26 2034,-92.39"/>
<polygon fill="grey" stroke="grey" stroke-width="2" points="2037.5,-92.07 2034,-82.07 2030.5,-92.07 2037.5,-92.07"/>
</g>
<!-- 49&#45;&gt;154 -->
<g id="edge10" class="edge">
<title>49&#45;&gt;154</title>
<path fill="none" stroke="grey" stroke-width="2" d="M1979.81,-128.26C1955.86,-121.52 1927.41,-113.22 1902,-105 1883.41,-98.99 1863.75,-92.25 1844.76,-85.54"/>
<polygon fill="grey" stroke="grey" stroke-width="2" points="1845.8,-82.19 1835.2,-82.15 1843.45,-88.79 1845.8,-82.19"/>
</g>
<!-- 50 -->
<g id="node30" class="node">
<title>50</title>
<path fill="none" stroke="#56d86b" stroke-width="2" d="M1888,-250C1888,-250 1796,-250 1796,-250 1790,-250 1784,-244 1784,-238 1784,-238 1784,-226 1784,-226 1784,-220 1790,-214 1796,-214 1796,-214 1888,-214 1888,-214 1894,-214 1900,-220 1900,-226 1900,-226 1900,-238 1900,-238 1900,-244 1894,-250 1888,-250"/>
<text text-anchor="middle" x="1842" y="-229.5" font-family="sans" font-size="10.00">laplace_coords_hipp</text>
</g>
<!-- 50&#45;&gt;131 -->
<g id="edge12" class="edge">
<title>50&#45;&gt;131</title>
<path fill="none" stroke="grey" stroke-width="2" d="M1805.82,-213.93C1741.97,-183.79 1608.11,-120.62 1524,-80.92"/>
<polygon fill="grey" stroke="grey" stroke-width="2" points="1525.3,-77.66 1514.76,-76.56 1522.31,-84 1525.3,-77.66"/>
</g>
<!-- 50&#45;&gt;49 -->
<g id="edge11" class="edge">
<title>50&#45;&gt;49</title>
<path fill="none" stroke="grey" stroke-width="2" d="M1880.39,-213.8C1910.97,-200.11 1953.92,-180.87 1986.64,-166.22"/>
<polygon fill="grey" stroke="grey" stroke-width="2" points="1988.31,-169.3 1996,-162.02 1985.44,-162.91 1988.31,-169.3"/>
</g>
<!-- 58 -->
<g id="node31" class="node">
<title>58</title>
<path fill="none" stroke="#56d86b" stroke-width="2" d="M2164,-250C2164,-250 2072,-250 2072,-250 2066,-250 2060,-244 2060,-238 2060,-238 2060,-226 2060,-226 2060,-220 2066,-214 2072,-214 2072,-214 2164,-214 2164,-214 2170,-214 2176,-220 2176,-226 2176,-226 2176,-238 2176,-238 2176,-244 2170,-250 2164,-250"/>
<text text-anchor="middle" x="2118" y="-229.5" font-family="sans" font-size="10.00">laplace_coords_hipp</text>
</g>
<!-- 58&#45;&gt;135 -->
<g id="edge14" class="edge">
<title>58&#45;&gt;135</title>
<path fill="none" stroke="grey" stroke-width="2" d="M2133.87,-213.93C2161.08,-184.66 2217.27,-124.22 2254.29,-84.4"/>
<polygon fill="grey" stroke="grey" stroke-width="2" points="2257.18,-86.44 2261.43,-76.73 2252.06,-81.67 2257.18,-86.44"/>
</g>
<!-- 58&#45;&gt;49 -->
<g id="edge13" class="edge">
<title>58&#45;&gt;49</title>
<path fill="none" stroke="grey" stroke-width="2" d="M2101,-213.6C2088.62,-200.92 2071.69,-183.59 2057.95,-169.52"/>
<polygon fill="grey" stroke="grey" stroke-width="2" points="2060.18,-166.79 2050.69,-162.08 2055.17,-171.68 2060.18,-166.79"/>
</g>
<!-- 60 -->
<g id="node32" class="node">
<title>60</title>
<path fill="none" stroke="#56d892" stroke-width="2" d="M2366,-250C2366,-250 2278,-250 2278,-250 2272,-250 2266,-244 2266,-238 2266,-238 2266,-226 2266,-226 2266,-220 2272,-214 2278,-214 2278,-214 2366,-214 2366,-214 2372,-214 2378,-220 2378,-226 2378,-226 2378,-238 2378,-238 2378,-244 2372,-250 2366,-250"/>
<text text-anchor="middle" x="2322" y="-229.5" font-family="sans" font-size="10.00">equivolume_coords</text>
</g>
<!-- 60&#45;&gt;148 -->
<g id="edge16" class="edge">
<title>60&#45;&gt;148</title>
<path fill="none" stroke="grey" stroke-width="2" d="M2341.84,-213.93C2376.14,-184.42 2447.27,-123.21 2493.52,-83.41"/>
<polygon fill="grey" stroke="grey" stroke-width="2" points="2495.99,-85.91 2501.29,-76.73 2491.42,-80.6 2495.99,-85.91"/>
</g>
<!-- 60&#45;&gt;49 -->
<g id="edge15" class="edge">
<title>60&#45;&gt;49</title>
<path fill="none" stroke="grey" stroke-width="2" d="M2265.79,-214.21C2217.6,-199.82 2148.2,-179.1 2097.91,-164.08"/>
<polygon fill="grey" stroke="grey" stroke-width="2" points="2098.7,-160.67 2088.12,-161.16 2096.7,-167.38 2098.7,-160.67"/>
</g>
<!-- 87 -->
<g id="node33" class="node">
<title>87</title>
<path fill="none" stroke="#59d856" stroke-width="2" d="M3438.5,-162C3438.5,-162 3337.5,-162 3337.5,-162 3331.5,-162 3325.5,-156 3325.5,-150 3325.5,-150 3325.5,-138 3325.5,-138 3325.5,-132 3331.5,-126 3337.5,-126 3337.5,-126 3438.5,-126 3438.5,-126 3444.5,-126 3450.5,-132 3450.5,-138 3450.5,-138 3450.5,-150 3450.5,-150 3450.5,-156 3444.5,-162 3438.5,-162"/>
<text text-anchor="middle" x="3388" y="-141.5" font-family="sans" font-size="10.00">create_warps_dentate</text>
</g>
<!-- 87&#45;&gt;151 -->
<g id="edge17" class="edge">
<title>87&#45;&gt;151</title>
<path fill="none" stroke="grey" stroke-width="2" d="M3388,-125.66C3388,-116.3 3388,-104.26 3388,-92.39"/>
<polygon fill="grey" stroke="grey" stroke-width="2" points="3391.5,-92.07 3388,-82.07 3384.5,-92.07 3391.5,-92.07"/>
</g>
<!-- 87&#45;&gt;155 -->
<g id="edge18" class="edge">
<title>87&#45;&gt;155</title>
<path fill="none" stroke="grey" stroke-width="2" d="M3325.48,-126.82C3301.47,-120.36 3273.87,-112.66 3249,-105 3229.2,-98.91 3208.26,-92.06 3188.05,-85.25"/>
<polygon fill="grey" stroke="grey" stroke-width="2" points="3189.11,-81.91 3178.51,-82.02 3186.86,-88.54 3189.11,-81.91"/>
</g>
<!-- 90 -->
<g id="node34" class="node">
<title>90</title>
<path fill="none" stroke="#56d873" stroke-width="2" d="M3186,-258C3186,-258 3112,-258 3112,-258 3106,-258 3100,-252 3100,-246 3100,-246 3100,-218 3100,-218 3100,-212 3106,-206 3112,-206 3112,-206 3186,-206 3186,-206 3192,-206 3198,-212 3198,-218 3198,-218 3198,-246 3198,-246 3198,-252 3192,-258 3186,-258"/>
<text text-anchor="middle" x="3149" y="-246" font-family="sans" font-size="10.00">unflip_coords</text>
<text text-anchor="middle" x="3149" y="-235" font-family="sans" font-size="10.00">autotop: dentate</text>
<text text-anchor="middle" x="3149" y="-224" font-family="sans" font-size="10.00">desc: laplace</text>
<text text-anchor="middle" x="3149" y="-213" font-family="sans" font-size="10.00">hemi: L</text>
</g>
<!-- 90&#45;&gt;132 -->
<g id="edge20" class="edge">
<title>90&#45;&gt;132</title>
<path fill="none" stroke="grey" stroke-width="2" d="M3099.64,-206.05C3035.93,-173.84 2924.69,-117.62 2852.46,-81.11"/>
<polygon fill="grey" stroke="grey" stroke-width="2" points="2853.92,-77.93 2843.42,-76.54 2850.76,-84.17 2853.92,-77.93"/>
</g>
<!-- 90&#45;&gt;87 -->
<g id="edge19" class="edge">
<title>90&#45;&gt;87</title>
<path fill="none" stroke="grey" stroke-width="2" d="M3198.23,-213.29C3236.82,-199.4 3290.56,-180.06 3331.01,-165.51"/>
<polygon fill="grey" stroke="grey" stroke-width="2" points="3332.24,-168.78 3340.46,-162.11 3329.87,-162.2 3332.24,-168.78"/>
</g>
<!-- 93 -->
<g id="node35" class="node">
<title>93</title>
<path fill="none" stroke="#56d873" stroke-width="2" d="M3486,-258C3486,-258 3412,-258 3412,-258 3406,-258 3400,-252 3400,-246 3400,-246 3400,-218 3400,-218 3400,-212 3406,-206 3412,-206 3412,-206 3486,-206 3486,-206 3492,-206 3498,-212 3498,-218 3498,-218 3498,-246 3498,-246 3498,-252 3492,-258 3486,-258"/>
<text text-anchor="middle" x="3449" y="-246" font-family="sans" font-size="10.00">unflip_coords</text>
<text text-anchor="middle" x="3449" y="-235" font-family="sans" font-size="10.00">autotop: dentate</text>
<text text-anchor="middle" x="3449" y="-224" font-family="sans" font-size="10.00">desc: laplace</text>
<text text-anchor="middle" x="3449" y="-213" font-family="sans" font-size="10.00">hemi: L</text>
</g>
<!-- 93&#45;&gt;136 -->
<g id="edge22" class="edge">
<title>93&#45;&gt;136</title>
<path fill="none" stroke="grey" stroke-width="2" d="M3476.66,-205.66C3511.11,-174.12 3570.23,-119.97 3609.96,-83.59"/>
<polygon fill="grey" stroke="grey" stroke-width="2" points="3612.62,-85.89 3617.63,-76.56 3607.89,-80.73 3612.62,-85.89"/>
</g>
<!-- 93&#45;&gt;87 -->
<g id="edge21" class="edge">
<title>93&#45;&gt;87</title>
<path fill="none" stroke="grey" stroke-width="2" d="M3431.03,-205.66C3423.15,-194.56 3413.93,-181.55 3406.04,-170.44"/>
<polygon fill="grey" stroke="grey" stroke-width="2" points="3408.7,-168.14 3400.06,-162 3402.99,-172.19 3408.7,-168.14"/>
</g>
<!-- 96 -->
<g id="node36" class="node">
<title>96</title>
<path fill="none" stroke="#56d873" stroke-width="2" d="M3664,-258C3664,-258 3590,-258 3590,-258 3584,-258 3578,-252 3578,-246 3578,-246 3578,-218 3578,-218 3578,-212 3584,-206 3590,-206 3590,-206 3664,-206 3664,-206 3670,-206 3676,-212 3676,-218 3676,-218 3676,-246 3676,-246 3676,-252 3670,-258 3664,-258"/>
<text text-anchor="middle" x="3627" y="-246" font-family="sans" font-size="10.00">unflip_coords</text>
<text text-anchor="middle" x="3627" y="-235" font-family="sans" font-size="10.00">autotop: dentate</text>
<text text-anchor="middle" x="3627" y="-224" font-family="sans" font-size="10.00">desc: laplace</text>
<text text-anchor="middle" x="3627" y="-213" font-family="sans" font-size="10.00">hemi: L</text>
</g>
<!-- 96&#45;&gt;145 -->
<g id="edge24" class="edge">
<title>96&#45;&gt;145</title>
<path fill="none" stroke="grey" stroke-width="2" d="M3663.69,-205.86C3710.23,-173.97 3790.8,-118.77 3844,-82.31"/>
<polygon fill="grey" stroke="grey" stroke-width="2" points="3846.03,-85.17 3852.3,-76.63 3842.07,-79.39 3846.03,-85.17"/>
</g>
<!-- 96&#45;&gt;87 -->
<g id="edge23" class="edge">
<title>96&#45;&gt;87</title>
<path fill="none" stroke="grey" stroke-width="2" d="M3577.77,-213.29C3539.18,-199.4 3485.44,-180.06 3444.99,-165.51"/>
<polygon fill="grey" stroke="grey" stroke-width="2" points="3446.13,-162.2 3435.54,-162.11 3443.76,-168.78 3446.13,-162.2"/>
</g>
<!-- 109 -->
<g id="node37" class="node">
<title>109</title>
<path fill="none" stroke="#59d856" stroke-width="2" d="M4802.5,-162C4802.5,-162 4701.5,-162 4701.5,-162 4695.5,-162 4689.5,-156 4689.5,-150 4689.5,-150 4689.5,-138 4689.5,-138 4689.5,-132 4695.5,-126 4701.5,-126 4701.5,-126 4802.5,-126 4802.5,-126 4808.5,-126 4814.5,-132 4814.5,-138 4814.5,-138 4814.5,-150 4814.5,-150 4814.5,-156 4808.5,-162 4802.5,-162"/>
<text text-anchor="middle" x="4752" y="-141.5" font-family="sans" font-size="10.00">create_warps_dentate</text>
</g>
<!-- 109&#45;&gt;152 -->
<g id="edge25" class="edge">
<title>109&#45;&gt;152</title>
<path fill="none" stroke="grey" stroke-width="2" d="M4752,-125.66C4752,-116.3 4752,-104.26 4752,-92.39"/>
<polygon fill="grey" stroke="grey" stroke-width="2" points="4755.5,-92.07 4752,-82.07 4748.5,-92.07 4755.5,-92.07"/>
</g>
<!-- 109&#45;&gt;156 -->
<g id="edge26" class="edge">
<title>109&#45;&gt;156</title>
<path fill="none" stroke="grey" stroke-width="2" d="M4689.38,-126.91C4665.12,-120.44 4637.17,-112.7 4612,-105 4592.09,-98.91 4571.02,-92.07 4550.7,-85.25"/>
<polygon fill="grey" stroke="grey" stroke-width="2" points="4551.7,-81.9 4541.11,-82.02 4549.47,-88.53 4551.7,-81.9"/>
</g>
<!-- 110 -->
<g id="node38" class="node">
<title>110</title>
<path fill="none" stroke="#d8cb56" stroke-width="2" d="M4600,-250C4600,-250 4492,-250 4492,-250 4486,-250 4480,-244 4480,-238 4480,-238 4480,-226 4480,-226 4480,-220 4486,-214 4492,-214 4492,-214 4600,-214 4600,-214 4606,-214 4612,-220 4612,-226 4612,-226 4612,-238 4612,-238 4612,-244 4606,-250 4600,-250"/>
<text text-anchor="middle" x="4546" y="-229.5" font-family="sans" font-size="10.00">laplace_coords_dentate</text>
</g>
<!-- 110&#45;&gt;133 -->
<g id="edge28" class="edge">
<title>110&#45;&gt;133</title>
<path fill="none" stroke="grey" stroke-width="2" d="M4507.53,-213.92C4453.62,-189.91 4352.59,-144.68 4267,-105 4250.39,-97.3 4232.59,-88.91 4215.81,-80.94"/>
<polygon fill="grey" stroke="grey" stroke-width="2" points="4217.14,-77.7 4206.61,-76.56 4214.13,-84.02 4217.14,-77.7"/>
</g>
<!-- 110&#45;&gt;109 -->
<g id="edge27" class="edge">
<title>110&#45;&gt;109</title>
<path fill="none" stroke="grey" stroke-width="2" d="M4587.19,-213.8C4620.14,-200.05 4666.48,-180.7 4701.63,-166.03"/>
<polygon fill="grey" stroke="grey" stroke-width="2" points="4703.35,-169.1 4711.23,-162.02 4700.65,-162.64 4703.35,-169.1"/>
</g>
<!-- 112 -->
<g id="node39" class="node">
<title>112</title>
<path fill="none" stroke="#d8cb56" stroke-width="2" d="M4895,-250C4895,-250 4787,-250 4787,-250 4781,-250 4775,-244 4775,-238 4775,-238 4775,-226 4775,-226 4775,-220 4781,-214 4787,-214 4787,-214 4895,-214 4895,-214 4901,-214 4907,-220 4907,-226 4907,-226 4907,-238 4907,-238 4907,-244 4901,-250 4895,-250"/>
<text text-anchor="middle" x="4841" y="-229.5" font-family="sans" font-size="10.00">laplace_coords_dentate</text>
</g>
<!-- 112&#45;&gt;137 -->
<g id="edge30" class="edge">
<title>112&#45;&gt;137</title>
<path fill="none" stroke="grey" stroke-width="2" d="M4857.24,-213.93C4885.09,-184.66 4942.58,-124.22 4980.46,-84.4"/>
<polygon fill="grey" stroke="grey" stroke-width="2" points="4983.41,-86.39 4987.76,-76.73 4978.34,-81.56 4983.41,-86.39"/>
</g>
<!-- 112&#45;&gt;109 -->
<g id="edge29" class="edge">
<title>112&#45;&gt;109</title>
<path fill="none" stroke="grey" stroke-width="2" d="M4822.99,-213.6C4809.75,-200.81 4791.6,-183.27 4776.97,-169.13"/>
<polygon fill="grey" stroke="grey" stroke-width="2" points="4779.3,-166.52 4769.68,-162.08 4774.44,-171.55 4779.3,-166.52"/>
</g>
<!-- 114 -->
<g id="node40" class="node">
<title>114</title>
<path fill="none" stroke="#d8cb56" stroke-width="2" d="M5114,-250C5114,-250 5006,-250 5006,-250 5000,-250 4994,-244 4994,-238 4994,-238 4994,-226 4994,-226 4994,-220 5000,-214 5006,-214 5006,-214 5114,-214 5114,-214 5120,-214 5126,-220 5126,-226 5126,-226 5126,-238 5126,-238 5126,-244 5120,-250 5114,-250"/>
<text text-anchor="middle" x="5060" y="-229.5" font-family="sans" font-size="10.00">laplace_coords_dentate</text>
</g>
<!-- 114&#45;&gt;146 -->
<g id="edge32" class="edge">
<title>114&#45;&gt;146</title>
<path fill="none" stroke="grey" stroke-width="2" d="M5078.83,-213.93C5111.3,-184.48 5178.58,-123.47 5222.47,-83.66"/>
<polygon fill="grey" stroke="grey" stroke-width="2" points="5225.06,-86.04 5230.11,-76.73 5220.35,-80.86 5225.06,-86.04"/>
</g>
<!-- 114&#45;&gt;109 -->
<g id="edge31" class="edge">
<title>114&#45;&gt;109</title>
<path fill="none" stroke="grey" stroke-width="2" d="M4998.78,-213.91C4948.08,-199.75 4875.98,-179.62 4822.8,-164.77"/>
<polygon fill="grey" stroke="grey" stroke-width="2" points="4823.68,-161.38 4813.1,-162.06 4821.79,-168.12 4823.68,-161.38"/>
</g>
<!-- 124 -->
<g id="node41" class="node">
<title>124</title>
<path fill="none" stroke="#566bd8" stroke-width="2" d="M5612,-162C5612,-162 5430,-162 5430,-162 5424,-162 5418,-156 5418,-150 5418,-150 5418,-138 5418,-138 5418,-132 5424,-126 5430,-126 5430,-126 5612,-126 5612,-126 5618,-126 5624,-132 5624,-138 5624,-138 5624,-150 5624,-150 5624,-156 5618,-162 5612,-162"/>
<text text-anchor="middle" x="5521" y="-141.5" font-family="sans" font-size="10.00">combine_tissue_subfield_labels_corobl</text>
</g>
<!-- 124&#45;&gt;123 -->
<g id="edge33" class="edge">
<title>124&#45;&gt;123</title>
<path fill="none" stroke="grey" stroke-width="2" d="M5521,-125.66C5521,-114.8 5521,-100.33 5521,-86.71"/>
<polygon fill="grey" stroke="grey" stroke-width="2" points="5524.5,-86.53 5521,-76.53 5517.5,-86.53 5524.5,-86.53"/>
</g>
<!-- 128 -->
<g id="node42" class="node">
<title>128</title>
<path fill="none" stroke="#566bd8" stroke-width="2" d="M5882,-162C5882,-162 5700,-162 5700,-162 5694,-162 5688,-156 5688,-150 5688,-150 5688,-138 5688,-138 5688,-132 5694,-126 5700,-126 5700,-126 5882,-126 5882,-126 5888,-126 5894,-132 5894,-138 5894,-138 5894,-150 5894,-150 5894,-156 5888,-162 5882,-162"/>
<text text-anchor="middle" x="5791" y="-141.5" font-family="sans" font-size="10.00">combine_tissue_subfield_labels_corobl</text>
</g>
<!-- 128&#45;&gt;127 -->
<g id="edge34" class="edge">
<title>128&#45;&gt;127</title>
<path fill="none" stroke="grey" stroke-width="2" d="M5791,-125.66C5791,-114.8 5791,-100.33 5791,-86.71"/>
<polygon fill="grey" stroke="grey" stroke-width="2" points="5794.5,-86.53 5791,-76.53 5787.5,-86.53 5794.5,-86.53"/>
</g>
<!-- 139 -->
<g id="node43" class="node">
<title>139</title>
<path fill="none" stroke="#56d873" stroke-width="2" d="M6076.5,-170C6076.5,-170 6019.5,-170 6019.5,-170 6013.5,-170 6007.5,-164 6007.5,-158 6007.5,-158 6007.5,-130 6007.5,-130 6007.5,-124 6013.5,-118 6019.5,-118 6019.5,-118 6076.5,-118 6076.5,-118 6082.5,-118 6088.5,-124 6088.5,-130 6088.5,-130 6088.5,-158 6088.5,-158 6088.5,-164 6082.5,-170 6076.5,-170"/>
<text text-anchor="middle" x="6048" y="-158" font-family="sans" font-size="10.00">unflip_coords</text>
<text text-anchor="middle" x="6048" y="-147" font-family="sans" font-size="10.00">autotop: hipp</text>
<text text-anchor="middle" x="6048" y="-136" font-family="sans" font-size="10.00">desc: laplace</text>
<text text-anchor="middle" x="6048" y="-125" font-family="sans" font-size="10.00">hemi: L</text>
</g>
<!-- 139&#45;&gt;138 -->
<g id="edge35" class="edge">
<title>139&#45;&gt;138</title>
<path fill="none" stroke="grey" stroke-width="2" d="M6048,-117.77C6048,-108.34 6048,-97.37 6048,-86.89"/>
<polygon fill="grey" stroke="grey" stroke-width="2" points="6051.5,-86.64 6048,-76.64 6044.5,-86.64 6051.5,-86.64"/>
</g>
<!-- 143 -->
<g id="node44" class="node">
<title>143</title>
<path fill="none" stroke="#56d86b" stroke-width="2" d="M6339,-162C6339,-162 6247,-162 6247,-162 6241,-162 6235,-156 6235,-150 6235,-150 6235,-138 6235,-138 6235,-132 6241,-126 6247,-126 6247,-126 6339,-126 6339,-126 6345,-126 6351,-132 6351,-138 6351,-138 6351,-150 6351,-150 6351,-156 6345,-162 6339,-162"/>
<text text-anchor="middle" x="6293" y="-141.5" font-family="sans" font-size="10.00">laplace_coords_hipp</text>
</g>
<!-- 143&#45;&gt;142 -->
<g id="edge36" class="edge">
<title>143&#45;&gt;142</title>
<path fill="none" stroke="grey" stroke-width="2" d="M6293,-125.66C6293,-114.8 6293,-100.33 6293,-86.71"/>
<polygon fill="grey" stroke="grey" stroke-width="2" points="6296.5,-86.53 6293,-76.53 6289.5,-86.53 6296.5,-86.53"/>
</g>
</g>
</svg>
