<?xml version="1.0" encoding="UTF-8" standalone="no"?>
<!DOCTYPE svg PUBLIC "-//W3C//DTD SVG 1.1//EN"
 "http://www.w3.org/Graphics/SVG/1.1/DTD/svg11.dtd">
<!-- Generated by graphviz version 2.43.0 (0)
 -->
<!-- Pages: 1 -->
<svg width="270pt" height="129pt"
 viewBox="0.00 0.00 269.50 129.00" xmlns="http://www.w3.org/2000/svg" xmlns:xlink="http://www.w3.org/1999/xlink">
<g id="graph0" class="graph" transform="scale(1 1) rotate(0) translate(4 125)">
<polygon fill="white" stroke="transparent" points="-4,4 -4,-125 265.5,-125 265.5,4 -4,4"/>
<g id="clust1" class="cluster">
<title>cluster_0</title>
<polygon fill="white" stroke="blue" points="13.5,-8 13.5,-67 198.5,-67 198.5,-8 13.5,-8"/>
<text text-anchor="middle" x="106" y="-51.8" font-family="Times,serif" font-size="14.00">nnunet</text>
</g>
<!-- 15 -->
<g id="node1" class="node">
<title>15</title>
<path fill="none" stroke="#78d856" stroke-width="2" d="M85,-44C85,-44 26,-44 26,-44 20,-44 14,-38 14,-32 14,-32 14,-20 14,-20 14,-14 20,-8 26,-8 26,-8 85,-8 85,-8 91,-8 97,-14 97,-20 97,-20 97,-32 97,-32 97,-38 91,-44 85,-44"/>
<text text-anchor="middle" x="55.5" y="-29" font-family="sans" font-size="10.00">run_inference</text>
<text text-anchor="middle" x="55.5" y="-18" font-family="sans" font-size="10.00">hemi: Lflip</text>
</g>
<!-- 53 -->
<g id="node2" class="node">
<title>53</title>
<path fill="none" stroke="#78d856" stroke-width="2" d="M186,-44C186,-44 127,-44 127,-44 121,-44 115,-38 115,-32 115,-32 115,-20 115,-20 115,-14 121,-8 127,-8 127,-8 186,-8 186,-8 192,-8 198,-14 198,-20 198,-20 198,-32 198,-32 198,-38 192,-44 186,-44"/>
<text text-anchor="middle" x="156.5" y="-23.5" font-family="sans" font-size="10.00">run_inference</text>
</g>
<!-- 16 -->
<g id="node3" class="node">
<title>16</title>
<path fill="none" stroke="#d86e56" stroke-width="2" d="M61,-118.5C61,-118.5 12,-118.5 12,-118.5 6,-118.5 0,-112.5 0,-106.5 0,-106.5 0,-94.5 0,-94.5 0,-88.5 6,-82.5 12,-82.5 12,-82.5 61,-82.5 61,-82.5 67,-82.5 73,-88.5 73,-94.5 73,-94.5 73,-106.5 73,-106.5 73,-112.5 67,-118.5 61,-118.5"/>
<text text-anchor="middle" x="36.5" y="-98" font-family="sans" font-size="10.00">lr_flip_b500</text>
</g>
<!-- 16&#45;&gt;15 -->
<g id="edge1" class="edge">
<title>16&#45;&gt;15</title>
<path fill="none" stroke="grey" stroke-width="2" d="M41,-82.32C43.23,-73.83 45.96,-63.39 48.46,-53.88"/>
<polygon fill="grey" stroke="grey" stroke-width="2" points="51.88,-54.62 51.03,-44.06 45.11,-52.84 51.88,-54.62"/>
</g>
<!-- 54 -->
<g id="node4" class="node">
<title>54</title>
<path fill="none" stroke="#56d8d0" stroke-width="2" d="M249.5,-121C249.5,-121 103.5,-121 103.5,-121 97.5,-121 91.5,-115 91.5,-109 91.5,-109 91.5,-92 91.5,-92 91.5,-86 97.5,-80 103.5,-80 103.5,-80 249.5,-80 249.5,-80 255.5,-80 261.5,-86 261.5,-92 261.5,-92 261.5,-109 261.5,-109 261.5,-115 255.5,-121 249.5,-121"/>
<text text-anchor="middle" x="176.5" y="-109" font-family="sans" font-size="10.00">resample_hippdwi_to_template</text>
<text text-anchor="middle" x="176.5" y="-98" font-family="sans" font-size="10.00">hemi: R</text>
<text text-anchor="middle" x="176.5" y="-87" font-family="sans" font-size="10.00">subject: 001</text>
</g>
<!-- 54&#45;&gt;53 -->
<g id="edge2" class="edge">
<title>54&#45;&gt;53</title>
<path fill="none" stroke="grey" stroke-width="2" d="M171.03,-79.69C168.86,-71.82 166.33,-62.64 163.99,-54.17"/>
<polygon fill="grey" stroke="grey" stroke-width="2" points="167.31,-53.03 161.28,-44.32 160.56,-54.89 167.31,-53.03"/>
</g>
</g>
</svg>
