<?xml version="1.0" encoding="UTF-8" standalone="no"?>
<!DOCTYPE svg PUBLIC "-//W3C//DTD SVG 1.1//EN"
 "http://www.w3.org/Graphics/SVG/1.1/DTD/svg11.dtd">
<!-- Generated by graphviz version 2.43.0 (0)
 -->
<!-- Pages: 1 -->
<svg width="2190pt" height="254pt"
 viewBox="0.00 0.00 2190.00 253.50" xmlns="http://www.w3.org/2000/svg" xmlns:xlink="http://www.w3.org/1999/xlink">
<g id="graph0" class="graph" transform="scale(1 1) rotate(0) translate(4 249.5)">
<polygon fill="white" stroke="transparent" points="-4,4 -4,-249.5 2186,-249.5 2186,4 -4,4"/>
<g id="clust1" class="cluster">
<title>cluster_0</title>
<polygon fill="white" stroke="blue" points="316,-8 316,-237.5 1310,-237.5 1310,-8 316,-8"/>
<text text-anchor="middle" x="813" y="-222.3" font-family="Times,serif" font-size="14.00">warps</text>
</g>
<!-- 7 -->
<g id="node1" class="node">
<title>7</title>
<path fill="none" stroke="#d8bc56" stroke-width="2" d="M419,-44C419,-44 335,-44 335,-44 329,-44 323,-38 323,-32 323,-32 323,-20 323,-20 323,-14 329,-8 335,-8 335,-8 419,-8 419,-8 425,-8 431,-14 431,-20 431,-20 431,-32 431,-32 431,-38 425,-44 419,-44"/>
<text text-anchor="middle" x="377" y="-23.5" font-family="sans" font-size="10.00">create_warps_hipp</text>
</g>
<!-- 8 -->
<g id="node2" class="node">
<title>8</title>
<path fill="none" stroke="#56d8d8" stroke-width="2" d="M751,-214.5C751,-214.5 673,-214.5 673,-214.5 667,-214.5 661,-208.5 661,-202.5 661,-202.5 661,-185.5 661,-185.5 661,-179.5 667,-173.5 673,-173.5 673,-173.5 751,-173.5 751,-173.5 757,-173.5 763,-179.5 763,-185.5 763,-185.5 763,-202.5 763,-202.5 763,-208.5 757,-214.5 751,-214.5"/>
<text text-anchor="middle" x="712" y="-202.5" font-family="sans" font-size="10.00">create_unfold_ref</text>
<text text-anchor="middle" x="712" y="-191.5" font-family="sans" font-size="10.00">autotop: hipp</text>
<text text-anchor="middle" x="712" y="-180.5" font-family="sans" font-size="10.00">subject: 001</text>
</g>
<!-- 8&#45;&gt;7 -->
<g id="edge1" class="edge">
<title>8&#45;&gt;7</title>
<path fill="none" stroke="grey" stroke-width="2" d="M660.77,-192.61C608.89,-189.52 529.33,-177.03 479,-132 460.55,-115.49 474.61,-99.22 459,-80 449.19,-67.92 435.87,-57.69 422.82,-49.53"/>
<polygon fill="grey" stroke="grey" stroke-width="2" points="424.26,-46.31 413.87,-44.22 420.68,-52.33 424.26,-46.31"/>
</g>
<!-- 9 -->
<g id="node3" class="node">
<title>9</title>
<path fill="none" stroke="#56d88a" stroke-width="2" d="M771.5,-124C771.5,-124 652.5,-124 652.5,-124 646.5,-124 640.5,-118 640.5,-112 640.5,-112 640.5,-100 640.5,-100 640.5,-94 646.5,-88 652.5,-88 652.5,-88 771.5,-88 771.5,-88 777.5,-88 783.5,-94 783.5,-100 783.5,-100 783.5,-112 783.5,-112 783.5,-118 777.5,-124 771.5,-124"/>
<text text-anchor="middle" x="712" y="-103.5" font-family="sans" font-size="10.00">create_unfold_coord_map</text>
</g>
<!-- 8&#45;&gt;9 -->
<g id="edge2" class="edge">
<title>8&#45;&gt;9</title>
<path fill="none" stroke="grey" stroke-width="2" d="M712,-173.49C712,-161.87 712,-146.96 712,-134.2"/>
<polygon fill="grey" stroke="grey" stroke-width="2" points="715.5,-134.11 712,-124.11 708.5,-134.11 715.5,-134.11"/>
</g>
<!-- 49 -->
<g id="node4" class="node">
<title>49</title>
<path fill="none" stroke="#d8bc56" stroke-width="2" d="M799,-44C799,-44 715,-44 715,-44 709,-44 703,-38 703,-32 703,-32 703,-20 703,-20 703,-14 709,-8 715,-8 715,-8 799,-8 799,-8 805,-8 811,-14 811,-20 811,-20 811,-32 811,-32 811,-38 805,-44 799,-44"/>
<text text-anchor="middle" x="757" y="-23.5" font-family="sans" font-size="10.00">create_warps_hipp</text>
</g>
<!-- 8&#45;&gt;49 -->
<g id="edge3" class="edge">
<title>8&#45;&gt;49</title>
<path fill="none" stroke="grey" stroke-width="2" d="M752.13,-173.29C767.89,-163.28 784.28,-149.49 793,-132 803.32,-111.32 799.79,-102.09 793,-80 789.99,-70.22 784.49,-60.62 778.68,-52.33"/>
<polygon fill="grey" stroke="grey" stroke-width="2" points="781.41,-50.13 772.61,-44.23 775.81,-54.33 781.41,-50.13"/>
</g>
<!-- 9&#45;&gt;7 -->
<g id="edge4" class="edge">
<title>9&#45;&gt;7</title>
<path fill="none" stroke="grey" stroke-width="2" d="M659.05,-87.88C649.74,-85.09 640.12,-82.35 631,-80 567,-63.49 492.93,-48.49 441.35,-38.7"/>
<polygon fill="grey" stroke="grey" stroke-width="2" points="441.82,-35.23 431.35,-36.81 440.53,-42.11 441.82,-35.23"/>
</g>
<!-- 9&#45;&gt;49 -->
<g id="edge5" class="edge">
<title>9&#45;&gt;49</title>
<path fill="none" stroke="grey" stroke-width="2" d="M721.99,-87.69C727.87,-77.49 735.43,-64.39 742.02,-52.97"/>
<polygon fill="grey" stroke="grey" stroke-width="2" points="745.08,-54.67 747.04,-44.26 739.01,-51.18 745.08,-54.67"/>
</g>
<!-- 28 -->
<g id="node5" class="node">
<title>28</title>
<path fill="none" stroke="#d87d56" stroke-width="2" d="M438,-124C438,-124 328,-124 328,-124 322,-124 316,-118 316,-112 316,-112 316,-100 316,-100 316,-94 322,-88 328,-88 328,-88 438,-88 438,-88 444,-88 450,-94 450,-100 450,-100 450,-112 450,-112 450,-118 444,-124 438,-124"/>
<text text-anchor="middle" x="383" y="-103.5" font-family="sans" font-size="10.00">create_native_coord_ref</text>
</g>
<!-- 28&#45;&gt;7 -->
<g id="edge6" class="edge">
<title>28&#45;&gt;7</title>
<path fill="none" stroke="grey" stroke-width="2" d="M381.67,-87.69C380.91,-77.89 379.96,-65.42 379.1,-54.33"/>
<polygon fill="grey" stroke="grey" stroke-width="2" points="382.58,-53.96 378.33,-44.26 375.61,-54.5 382.58,-53.96"/>
</g>
<!-- 62 -->
<g id="node6" class="node">
<title>62</title>
<path fill="none" stroke="#d87d56" stroke-width="2" d="M610,-124C610,-124 500,-124 500,-124 494,-124 488,-118 488,-112 488,-112 488,-100 488,-100 488,-94 494,-88 500,-88 500,-88 610,-88 610,-88 616,-88 622,-94 622,-100 622,-100 622,-112 622,-112 622,-118 616,-124 610,-124"/>
<text text-anchor="middle" x="555" y="-109" font-family="sans" font-size="10.00">create_native_coord_ref</text>
<text text-anchor="middle" x="555" y="-98" font-family="sans" font-size="10.00">autotop: hipp</text>
</g>
<!-- 62&#45;&gt;49 -->
<g id="edge7" class="edge">
<title>62&#45;&gt;49</title>
<path fill="none" stroke="grey" stroke-width="2" d="M599.33,-87.88C629.98,-76.05 670.93,-60.23 703.42,-47.69"/>
<polygon fill="grey" stroke="grey" stroke-width="2" points="704.71,-50.94 712.77,-44.08 702.18,-44.41 704.71,-50.94"/>
</g>
<!-- 87 -->
<g id="node7" class="node">
<title>87</title>
<path fill="none" stroke="#59d856" stroke-width="2" d="M1145.5,-44C1145.5,-44 1044.5,-44 1044.5,-44 1038.5,-44 1032.5,-38 1032.5,-32 1032.5,-32 1032.5,-20 1032.5,-20 1032.5,-14 1038.5,-8 1044.5,-8 1044.5,-8 1145.5,-8 1145.5,-8 1151.5,-8 1157.5,-14 1157.5,-20 1157.5,-20 1157.5,-32 1157.5,-32 1157.5,-38 1151.5,-44 1145.5,-44"/>
<text text-anchor="middle" x="1095" y="-23.5" font-family="sans" font-size="10.00">create_warps_dentate</text>
</g>
<!-- 88 -->
<g id="node8" class="node">
<title>88</title>
<path fill="none" stroke="#56d8d8" stroke-width="2" d="M953,-214.5C953,-214.5 875,-214.5 875,-214.5 869,-214.5 863,-208.5 863,-202.5 863,-202.5 863,-185.5 863,-185.5 863,-179.5 869,-173.5 875,-173.5 875,-173.5 953,-173.5 953,-173.5 959,-173.5 965,-179.5 965,-185.5 965,-185.5 965,-202.5 965,-202.5 965,-208.5 959,-214.5 953,-214.5"/>
<text text-anchor="middle" x="914" y="-202.5" font-family="sans" font-size="10.00">create_unfold_ref</text>
<text text-anchor="middle" x="914" y="-191.5" font-family="sans" font-size="10.00">autotop: dentate</text>
<text text-anchor="middle" x="914" y="-180.5" font-family="sans" font-size="10.00">subject: 001</text>
</g>
<!-- 88&#45;&gt;87 -->
<g id="edge8" class="edge">
<title>88&#45;&gt;87</title>
<path fill="none" stroke="grey" stroke-width="2" d="M874.78,-173.45C859.08,-163.4 842.68,-149.53 834,-132 823.75,-111.29 819.37,-97.89 834,-80 857.38,-51.4 953.27,-37.85 1022.03,-31.71"/>
<polygon fill="grey" stroke="grey" stroke-width="2" points="1022.73,-35.16 1032.39,-30.82 1022.13,-28.19 1022.73,-35.16"/>
</g>
<!-- 89 -->
<g id="node9" class="node">
<title>89</title>
<path fill="none" stroke="#56d88a" stroke-width="2" d="M973.5,-124C973.5,-124 854.5,-124 854.5,-124 848.5,-124 842.5,-118 842.5,-112 842.5,-112 842.5,-100 842.5,-100 842.5,-94 848.5,-88 854.5,-88 854.5,-88 973.5,-88 973.5,-88 979.5,-88 985.5,-94 985.5,-100 985.5,-100 985.5,-112 985.5,-112 985.5,-118 979.5,-124 973.5,-124"/>
<text text-anchor="middle" x="914" y="-103.5" font-family="sans" font-size="10.00">create_unfold_coord_map</text>
</g>
<!-- 88&#45;&gt;89 -->
<g id="edge9" class="edge">
<title>88&#45;&gt;89</title>
<path fill="none" stroke="grey" stroke-width="2" d="M914,-173.49C914,-161.87 914,-146.96 914,-134.2"/>
<polygon fill="grey" stroke="grey" stroke-width="2" points="917.5,-134.11 914,-124.11 910.5,-134.11 917.5,-134.11"/>
</g>
<!-- 109 -->
<g id="node10" class="node">
<title>109</title>
<path fill="none" stroke="#59d856" stroke-width="2" d="M1295.5,-44C1295.5,-44 1194.5,-44 1194.5,-44 1188.5,-44 1182.5,-38 1182.5,-32 1182.5,-32 1182.5,-20 1182.5,-20 1182.5,-14 1188.5,-8 1194.5,-8 1194.5,-8 1295.5,-8 1295.5,-8 1301.5,-8 1307.5,-14 1307.5,-20 1307.5,-20 1307.5,-32 1307.5,-32 1307.5,-38 1301.5,-44 1295.5,-44"/>
<text text-anchor="middle" x="1245" y="-23.5" font-family="sans" font-size="10.00">create_warps_dentate</text>
</g>
<!-- 88&#45;&gt;109 -->
<g id="edge10" class="edge">
<title>88&#45;&gt;109</title>
<path fill="none" stroke="grey" stroke-width="2" d="M948.33,-173.39C964.3,-162.84 982.49,-148.58 995,-132 1009.91,-112.23 996.3,-96.24 1015,-80 1018.08,-77.33 1106.15,-57.51 1172.39,-42.89"/>
<polygon fill="grey" stroke="grey" stroke-width="2" points="1173.39,-46.25 1182.4,-40.68 1171.88,-39.42 1173.39,-46.25"/>
</g>
<!-- 89&#45;&gt;87 -->
<g id="edge11" class="edge">
<title>89&#45;&gt;87</title>
<path fill="none" stroke="grey" stroke-width="2" d="M953.72,-87.88C980.83,-76.2 1016.94,-60.64 1045.86,-48.18"/>
<polygon fill="grey" stroke="grey" stroke-width="2" points="1047.57,-51.25 1055.37,-44.08 1044.8,-44.82 1047.57,-51.25"/>
</g>
<!-- 89&#45;&gt;109 -->
<g id="edge12" class="edge">
<title>89&#45;&gt;109</title>
<path fill="none" stroke="grey" stroke-width="2" d="M970.75,-87.89C980.47,-85.13 990.5,-82.4 1000,-80 1073.61,-61.39 1092.8,-60.08 1167,-44 1168.72,-43.63 1170.47,-43.25 1172.23,-42.87"/>
<polygon fill="grey" stroke="grey" stroke-width="2" points="1173.39,-46.2 1182.42,-40.65 1171.91,-39.35 1173.39,-46.2"/>
</g>
<!-- 99 -->
<g id="node11" class="node">
<title>99</title>
<path fill="none" stroke="#d87d56" stroke-width="2" d="M1146,-124C1146,-124 1036,-124 1036,-124 1030,-124 1024,-118 1024,-112 1024,-112 1024,-100 1024,-100 1024,-94 1030,-88 1036,-88 1036,-88 1146,-88 1146,-88 1152,-88 1158,-94 1158,-100 1158,-100 1158,-112 1158,-112 1158,-118 1152,-124 1146,-124"/>
<text text-anchor="middle" x="1091" y="-103.5" font-family="sans" font-size="10.00">create_native_coord_ref</text>
</g>
<!-- 99&#45;&gt;87 -->
<g id="edge13" class="edge">
<title>99&#45;&gt;87</title>
<path fill="none" stroke="grey" stroke-width="2" d="M1091.89,-87.69C1092.39,-77.89 1093.03,-65.42 1093.6,-54.33"/>
<polygon fill="grey" stroke="grey" stroke-width="2" points="1097.1,-54.43 1094.11,-44.26 1090.11,-54.07 1097.1,-54.43"/>
</g>
<!-- 116 -->
<g id="node12" class="node">
<title>116</title>
<path fill="none" stroke="#d87d56" stroke-width="2" d="M1298,-124C1298,-124 1188,-124 1188,-124 1182,-124 1176,-118 1176,-112 1176,-112 1176,-100 1176,-100 1176,-94 1182,-88 1188,-88 1188,-88 1298,-88 1298,-88 1304,-88 1310,-94 1310,-100 1310,-100 1310,-112 1310,-112 1310,-118 1304,-124 1298,-124"/>
<text text-anchor="middle" x="1243" y="-109" font-family="sans" font-size="10.00">create_native_coord_ref</text>
<text text-anchor="middle" x="1243" y="-98" font-family="sans" font-size="10.00">autotop: dentate</text>
</g>
<!-- 116&#45;&gt;109 -->
<g id="edge14" class="edge">
<title>116&#45;&gt;109</title>
<path fill="none" stroke="grey" stroke-width="2" d="M1243.44,-87.69C1243.7,-77.89 1244.01,-65.42 1244.3,-54.33"/>
<polygon fill="grey" stroke="grey" stroke-width="2" points="1247.8,-54.35 1244.56,-44.26 1240.8,-54.17 1247.8,-54.35"/>
</g>
<!-- 10 -->
<g id="node13" class="node">
<title>10</title>
<path fill="none" stroke="#56d873" stroke-width="2" d="M169.5,-220C169.5,-220 112.5,-220 112.5,-220 106.5,-220 100.5,-214 100.5,-208 100.5,-208 100.5,-180 100.5,-180 100.5,-174 106.5,-168 112.5,-168 112.5,-168 169.5,-168 169.5,-168 175.5,-168 181.5,-174 181.5,-180 181.5,-180 181.5,-208 181.5,-208 181.5,-214 175.5,-220 169.5,-220"/>
<text text-anchor="middle" x="141" y="-208" font-family="sans" font-size="10.00">unflip_coords</text>
<text text-anchor="middle" x="141" y="-197" font-family="sans" font-size="10.00">autotop: hipp</text>
<text text-anchor="middle" x="141" y="-186" font-family="sans" font-size="10.00">desc: laplace</text>
<text text-anchor="middle" x="141" y="-175" font-family="sans" font-size="10.00">hemi: L</text>
</g>
<!-- 10&#45;&gt;7 -->
<g id="edge15" class="edge">
<title>10&#45;&gt;7</title>
<path fill="none" stroke="grey" stroke-width="2" d="M140.22,-167.88C140.84,-142.31 145.92,-103.23 169,-80 189.05,-59.82 259.15,-44.86 312.48,-36.07"/>
<polygon fill="grey" stroke="grey" stroke-width="2" points="313.25,-39.49 322.57,-34.45 312.14,-32.58 313.25,-39.49"/>
</g>
<!-- 10&#45;&gt;28 -->
<g id="edge16" class="edge">
<title>10&#45;&gt;28</title>
<path fill="none" stroke="grey" stroke-width="2" d="M181.69,-172.01C184.82,-170.59 187.94,-169.24 191,-168 229.8,-152.25 274.31,-137.88 310.7,-127.06"/>
<polygon fill="grey" stroke="grey" stroke-width="2" points="312.14,-130.29 320.74,-124.1 310.16,-123.57 312.14,-130.29"/>
</g>
<!-- 22 -->
<g id="node14" class="node">
<title>22</title>
<path fill="none" stroke="#56d873" stroke-width="2" d="M247.5,-132C247.5,-132 190.5,-132 190.5,-132 184.5,-132 178.5,-126 178.5,-120 178.5,-120 178.5,-92 178.5,-92 178.5,-86 184.5,-80 190.5,-80 190.5,-80 247.5,-80 247.5,-80 253.5,-80 259.5,-86 259.5,-92 259.5,-92 259.5,-120 259.5,-120 259.5,-126 253.5,-132 247.5,-132"/>
<text text-anchor="middle" x="219" y="-120" font-family="sans" font-size="10.00">unflip_coords</text>
<text text-anchor="middle" x="219" y="-109" font-family="sans" font-size="10.00">autotop: hipp</text>
<text text-anchor="middle" x="219" y="-98" font-family="sans" font-size="10.00">desc: laplace</text>
<text text-anchor="middle" x="219" y="-87" font-family="sans" font-size="10.00">hemi: L</text>
</g>
<!-- 22&#45;&gt;7 -->
<g id="edge17" class="edge">
<title>22&#45;&gt;7</title>
<path fill="none" stroke="grey" stroke-width="2" d="M259.69,-84.91C282.19,-73.8 310.16,-60 333.15,-48.65"/>
<polygon fill="grey" stroke="grey" stroke-width="2" points="334.92,-51.68 342.34,-44.11 331.82,-45.4 334.92,-51.68"/>
</g>
<!-- 25 -->
<g id="node15" class="node">
<title>25</title>
<path fill="none" stroke="#568ad8" stroke-width="2" d="M110,-126.5C110,-126.5 12,-126.5 12,-126.5 6,-126.5 0,-120.5 0,-114.5 0,-114.5 0,-97.5 0,-97.5 0,-91.5 6,-85.5 12,-85.5 12,-85.5 110,-85.5 110,-85.5 116,-85.5 122,-91.5 122,-97.5 122,-97.5 122,-114.5 122,-114.5 122,-120.5 116,-126.5 110,-126.5"/>
<text text-anchor="middle" x="61" y="-114.5" font-family="sans" font-size="10.00">unflip_coords_equivol</text>
<text text-anchor="middle" x="61" y="-103.5" font-family="sans" font-size="10.00">desc: equivol</text>
<text text-anchor="middle" x="61" y="-92.5" font-family="sans" font-size="10.00">hemi: L</text>
</g>
<!-- 25&#45;&gt;7 -->
<g id="edge18" class="edge">
<title>25&#45;&gt;7</title>
<path fill="none" stroke="grey" stroke-width="2" d="M117.73,-85.39C123.87,-83.48 130.05,-81.64 136,-80 195.38,-63.62 264.07,-48.93 312.89,-39.18"/>
<polygon fill="grey" stroke="grey" stroke-width="2" points="313.87,-42.56 323,-37.18 312.51,-35.69 313.87,-42.56"/>
</g>
<!-- 50 -->
<g id="node16" class="node">
<title>50</title>
<path fill="none" stroke="#56d86b" stroke-width="2" d="M304,-212C304,-212 212,-212 212,-212 206,-212 200,-206 200,-200 200,-200 200,-188 200,-188 200,-182 206,-176 212,-176 212,-176 304,-176 304,-176 310,-176 316,-182 316,-188 316,-188 316,-200 316,-200 316,-206 310,-212 304,-212"/>
<text text-anchor="middle" x="258" y="-191.5" font-family="sans" font-size="10.00">laplace_coords_hipp</text>
</g>
<!-- 50&#45;&gt;49 -->
<g id="edge19" class="edge">
<title>50&#45;&gt;49</title>
<path fill="none" stroke="grey" stroke-width="2" d="M260.09,-175.95C264.18,-150.54 275.77,-103.22 307,-80 337.33,-57.44 575.77,-38.88 692.73,-31.03"/>
<polygon fill="grey" stroke="grey" stroke-width="2" points="693.24,-34.51 702.98,-30.35 692.77,-27.52 693.24,-34.51"/>
</g>
<!-- 50&#45;&gt;62 -->
<g id="edge20" class="edge">
<title>50&#45;&gt;62</title>
<path fill="none" stroke="grey" stroke-width="2" d="M298.07,-175.96C305.31,-173.14 312.84,-170.36 320,-168 380.61,-148.03 397.23,-148.04 459,-132 465.66,-130.27 472.59,-128.47 479.53,-126.66"/>
<polygon fill="grey" stroke="grey" stroke-width="2" points="480.88,-129.93 489.68,-124.02 479.12,-123.15 480.88,-129.93"/>
</g>
<!-- 58 -->
<g id="node17" class="node">
<title>58</title>
<path fill="none" stroke="#56d86b" stroke-width="2" d="M1432,-124C1432,-124 1340,-124 1340,-124 1334,-124 1328,-118 1328,-112 1328,-112 1328,-100 1328,-100 1328,-94 1334,-88 1340,-88 1340,-88 1432,-88 1432,-88 1438,-88 1444,-94 1444,-100 1444,-100 1444,-112 1444,-112 1444,-118 1438,-124 1432,-124"/>
<text text-anchor="middle" x="1386" y="-103.5" font-family="sans" font-size="10.00">laplace_coords_hipp</text>
</g>
<!-- 58&#45;&gt;49 -->
<g id="edge21" class="edge">
<title>58&#45;&gt;49</title>
<path fill="none" stroke="grey" stroke-width="2" d="M1342.31,-87.96C1333.08,-84.89 1323.31,-82.03 1314,-80 1221.57,-59.86 947.35,-39.69 821.48,-31.19"/>
<polygon fill="grey" stroke="grey" stroke-width="2" points="821.43,-27.68 811.22,-30.5 820.96,-34.66 821.43,-27.68"/>
</g>
<!-- 60 -->
<g id="node18" class="node">
<title>60</title>
<path fill="none" stroke="#56d892" stroke-width="2" d="M1562,-124C1562,-124 1474,-124 1474,-124 1468,-124 1462,-118 1462,-112 1462,-112 1462,-100 1462,-100 1462,-94 1468,-88 1474,-88 1474,-88 1562,-88 1562,-88 1568,-88 1574,-94 1574,-100 1574,-100 1574,-112 1574,-112 1574,-118 1568,-124 1562,-124"/>
<text text-anchor="middle" x="1518" y="-103.5" font-family="sans" font-size="10.00">equivolume_coords</text>
</g>
<!-- 60&#45;&gt;49 -->
<g id="edge22" class="edge">
<title>60&#45;&gt;49</title>
<path fill="none" stroke="grey" stroke-width="2" d="M1479.04,-87.91C1470.6,-84.81 1461.61,-81.94 1453,-80 1422.46,-73.12 987.61,-42.81 821.16,-31.38"/>
<polygon fill="grey" stroke="grey" stroke-width="2" points="821.28,-27.88 811.07,-30.69 820.8,-34.86 821.28,-27.88"/>
</g>
<!-- 90 -->
<g id="node19" class="node">
<title>90</title>
<path fill="none" stroke="#56d873" stroke-width="2" d="M1575,-220C1575,-220 1501,-220 1501,-220 1495,-220 1489,-214 1489,-208 1489,-208 1489,-180 1489,-180 1489,-174 1495,-168 1501,-168 1501,-168 1575,-168 1575,-168 1581,-168 1587,-174 1587,-180 1587,-180 1587,-208 1587,-208 1587,-214 1581,-220 1575,-220"/>
<text text-anchor="middle" x="1538" y="-208" font-family="sans" font-size="10.00">unflip_coords</text>
<text text-anchor="middle" x="1538" y="-197" font-family="sans" font-size="10.00">autotop: dentate</text>
<text text-anchor="middle" x="1538" y="-186" font-family="sans" font-size="10.00">desc: laplace</text>
<text text-anchor="middle" x="1538" y="-175" font-family="sans" font-size="10.00">hemi: L</text>
</g>
<!-- 90&#45;&gt;87 -->
<g id="edge23" class="edge">
<title>90&#45;&gt;87</title>
<path fill="none" stroke="grey" stroke-width="2" d="M1587.13,-188.91C1624.65,-182.9 1674.03,-168.16 1699,-132 1712.13,-112.98 1714.77,-96.89 1699,-80 1659.09,-37.26 1231.9,-52.17 1174,-44 1171.94,-43.71 1169.85,-43.39 1167.74,-43.06"/>
<polygon fill="grey" stroke="grey" stroke-width="2" points="1168.26,-39.6 1157.81,-41.37 1167.08,-46.5 1168.26,-39.6"/>
</g>
<!-- 90&#45;&gt;99 -->
<g id="edge24" class="edge">
<title>90&#45;&gt;99</title>
<path fill="none" stroke="grey" stroke-width="2" d="M1488.9,-187.39C1417.41,-178.66 1280.8,-159.89 1167,-132 1160.98,-130.52 1154.75,-128.8 1148.56,-126.97"/>
<polygon fill="grey" stroke="grey" stroke-width="2" points="1149.51,-123.6 1138.92,-124.01 1147.45,-130.29 1149.51,-123.6"/>
</g>
<!-- 93 -->
<g id="node20" class="node">
<title>93</title>
<path fill="none" stroke="#56d873" stroke-width="2" d="M1832,-132C1832,-132 1758,-132 1758,-132 1752,-132 1746,-126 1746,-120 1746,-120 1746,-92 1746,-92 1746,-86 1752,-80 1758,-80 1758,-80 1832,-80 1832,-80 1838,-80 1844,-86 1844,-92 1844,-92 1844,-120 1844,-120 1844,-126 1838,-132 1832,-132"/>
<text text-anchor="middle" x="1795" y="-120" font-family="sans" font-size="10.00">unflip_coords</text>
<text text-anchor="middle" x="1795" y="-109" font-family="sans" font-size="10.00">autotop: dentate</text>
<text text-anchor="middle" x="1795" y="-98" font-family="sans" font-size="10.00">desc: laplace</text>
<text text-anchor="middle" x="1795" y="-87" font-family="sans" font-size="10.00">hemi: L</text>
</g>
<!-- 93&#45;&gt;87 -->
<g id="edge25" class="edge">
<title>93&#45;&gt;87</title>
<path fill="none" stroke="grey" stroke-width="2" d="M1745.94,-83.84C1741.29,-82.35 1736.59,-81.03 1732,-80 1489.53,-25.5 1420.15,-78.23 1174,-44 1171.94,-43.71 1169.85,-43.4 1167.74,-43.07"/>
<polygon fill="grey" stroke="grey" stroke-width="2" points="1168.25,-39.61 1157.81,-41.39 1167.08,-46.51 1168.25,-39.61"/>
</g>
<!-- 96 -->
<g id="node21" class="node">
<title>96</title>
<path fill="none" stroke="#56d873" stroke-width="2" d="M1678,-132C1678,-132 1604,-132 1604,-132 1598,-132 1592,-126 1592,-120 1592,-120 1592,-92 1592,-92 1592,-86 1598,-80 1604,-80 1604,-80 1678,-80 1678,-80 1684,-80 1690,-86 1690,-92 1690,-92 1690,-120 1690,-120 1690,-126 1684,-132 1678,-132"/>
<text text-anchor="middle" x="1641" y="-120" font-family="sans" font-size="10.00">unflip_coords</text>
<text text-anchor="middle" x="1641" y="-109" font-family="sans" font-size="10.00">autotop: dentate</text>
<text text-anchor="middle" x="1641" y="-98" font-family="sans" font-size="10.00">desc: laplace</text>
<text text-anchor="middle" x="1641" y="-87" font-family="sans" font-size="10.00">hemi: L</text>
</g>
<!-- 96&#45;&gt;87 -->
<g id="edge26" class="edge">
<title>96&#45;&gt;87</title>
<path fill="none" stroke="grey" stroke-width="2" d="M1591.69,-82.52C1588.78,-81.58 1585.87,-80.72 1583,-80 1406.07,-35.32 1354.43,-71.25 1174,-44 1171.94,-43.69 1169.85,-43.36 1167.75,-43.01"/>
<polygon fill="grey" stroke="grey" stroke-width="2" points="1168.28,-39.55 1157.83,-41.26 1167.07,-46.44 1168.28,-39.55"/>
</g>
<!-- 110 -->
<g id="node22" class="node">
<title>110</title>
<path fill="none" stroke="#d8cb56" stroke-width="2" d="M1900,-212C1900,-212 1792,-212 1792,-212 1786,-212 1780,-206 1780,-200 1780,-200 1780,-188 1780,-188 1780,-182 1786,-176 1792,-176 1792,-176 1900,-176 1900,-176 1906,-176 1912,-182 1912,-188 1912,-188 1912,-200 1912,-200 1912,-206 1906,-212 1900,-212"/>
<text text-anchor="middle" x="1846" y="-191.5" font-family="sans" font-size="10.00">laplace_coords_dentate</text>
</g>
<!-- 110&#45;&gt;109 -->
<g id="edge27" class="edge">
<title>110&#45;&gt;109</title>
<path fill="none" stroke="grey" stroke-width="2" d="M1912.25,-184.84C1945.35,-177.05 1982.61,-161.8 2003,-132 2016.05,-112.93 2018.76,-96.9 2003,-80 1956.89,-30.55 1498.47,-26.31 1317.72,-26.59"/>
<polygon fill="grey" stroke="grey" stroke-width="2" points="1317.51,-23.09 1307.51,-26.61 1317.52,-30.09 1317.51,-23.09"/>
</g>
<!-- 110&#45;&gt;116 -->
<g id="edge28" class="edge">
<title>110&#45;&gt;116</title>
<path fill="none" stroke="grey" stroke-width="2" d="M1779.99,-186.12C1648.58,-172.3 1363.08,-141.7 1319,-132 1312.77,-130.63 1306.33,-128.95 1299.95,-127.11"/>
<polygon fill="grey" stroke="grey" stroke-width="2" points="1300.61,-123.65 1290.02,-124.11 1298.58,-130.35 1300.61,-123.65"/>
</g>
<!-- 112 -->
<g id="node23" class="node">
<title>112</title>
<path fill="none" stroke="#d8cb56" stroke-width="2" d="M2170,-124C2170,-124 2062,-124 2062,-124 2056,-124 2050,-118 2050,-112 2050,-112 2050,-100 2050,-100 2050,-94 2056,-88 2062,-88 2062,-88 2170,-88 2170,-88 2176,-88 2182,-94 2182,-100 2182,-100 2182,-112 2182,-112 2182,-118 2176,-124 2170,-124"/>
<text text-anchor="middle" x="2116" y="-103.5" font-family="sans" font-size="10.00">laplace_coords_dentate</text>
</g>
<!-- 112&#45;&gt;109 -->
<g id="edge29" class="edge">
<title>112&#45;&gt;109</title>
<path fill="none" stroke="grey" stroke-width="2" d="M2067.81,-87.93C2057.43,-84.82 2046.44,-81.95 2036,-80 1775,-31.18 1458.16,-25.84 1317.87,-26.18"/>
<polygon fill="grey" stroke="grey" stroke-width="2" points="1317.66,-22.68 1307.67,-26.21 1317.68,-29.68 1317.66,-22.68"/>
</g>
<!-- 114 -->
<g id="node24" class="node">
<title>114</title>
<path fill="none" stroke="#d8cb56" stroke-width="2" d="M1982,-124C1982,-124 1874,-124 1874,-124 1868,-124 1862,-118 1862,-112 1862,-112 1862,-100 1862,-100 1862,-94 1868,-88 1874,-88 1874,-88 1982,-88 1982,-88 1988,-88 1994,-94 1994,-100 1994,-100 1994,-112 1994,-112 1994,-118 1988,-124 1982,-124"/>
<text text-anchor="middle" x="1928" y="-103.5" font-family="sans" font-size="10.00">laplace_coords_dentate</text>
</g>
<!-- 114&#45;&gt;109 -->
<g id="edge30" class="edge">
<title>114&#45;&gt;109</title>
<path fill="none" stroke="grey" stroke-width="2" d="M1882.46,-87.93C1872.84,-84.86 1862.68,-82.01 1853,-80 1662.66,-40.55 1432.87,-30.42 1317.93,-27.85"/>
<polygon fill="grey" stroke="grey" stroke-width="2" points="1317.92,-24.35 1307.84,-27.64 1317.77,-31.35 1317.92,-24.35"/>
</g>
</g>
</svg>
