<?xml version="1.0" encoding="UTF-8" standalone="no"?>
<!DOCTYPE svg PUBLIC "-//W3C//DTD SVG 1.1//EN"
 "http://www.w3.org/Graphics/SVG/1.1/DTD/svg11.dtd">
<!-- Generated by graphviz version 2.43.0 (0)
 -->
<!-- Pages: 1 -->
<svg width="1191pt" height="284pt"
 viewBox="0.00 0.00 1190.50 284.00" xmlns="http://www.w3.org/2000/svg" xmlns:xlink="http://www.w3.org/1999/xlink">
<g id="graph0" class="graph" transform="scale(1 1) rotate(0) translate(4 280)">
<polygon fill="white" stroke="transparent" points="-4,4 -4,-280 1186.5,-280 1186.5,4 -4,4"/>
<g id="clust1" class="cluster">
<title>cluster_0</title>
<polygon fill="white" stroke="blue" points="398,-8 398,-139 839,-139 839,-8 398,-8"/>
<text text-anchor="middle" x="618.5" y="-123.8" font-family="Times,serif" font-size="14.00">subfields</text>
</g>
<!-- 124 -->
<g id="node1" class="node">
<title>124</title>
<path fill="none" stroke="#566bd8" stroke-width="2" d="M825,-44C825,-44 643,-44 643,-44 637,-44 631,-38 631,-32 631,-32 631,-20 631,-20 631,-14 637,-8 643,-8 643,-8 825,-8 825,-8 831,-8 837,-14 837,-20 837,-20 837,-32 837,-32 837,-38 831,-44 825,-44"/>
<text text-anchor="middle" x="734" y="-23.5" font-family="sans" font-size="10.00">combine_tissue_subfield_labels_corobl</text>
</g>
<!-- 126 -->
<g id="node2" class="node">
<title>126</title>
<path fill="none" stroke="#569ad8" stroke-width="2" d="M826.5,-116C826.5,-116 639.5,-116 639.5,-116 633.5,-116 627.5,-110 627.5,-104 627.5,-104 627.5,-92 627.5,-92 627.5,-86 633.5,-80 639.5,-80 639.5,-80 826.5,-80 826.5,-80 832.5,-80 838.5,-86 838.5,-92 838.5,-92 838.5,-104 838.5,-104 838.5,-110 832.5,-116 826.5,-116"/>
<text text-anchor="middle" x="733" y="-95.5" font-family="sans" font-size="10.00">label_subfields_from_vol_coords_corobl</text>
</g>
<!-- 126&#45;&gt;124 -->
<g id="edge1" class="edge">
<title>126&#45;&gt;124</title>
<path fill="none" stroke="grey" stroke-width="2" d="M733.25,-79.7C733.36,-71.98 733.49,-62.71 733.61,-54.11"/>
<polygon fill="grey" stroke="grey" stroke-width="2" points="737.11,-54.15 733.76,-44.1 730.11,-54.05 737.11,-54.15"/>
</g>
<!-- 128 -->
<g id="node3" class="node">
<title>128</title>
<path fill="none" stroke="#566bd8" stroke-width="2" d="M597,-44C597,-44 415,-44 415,-44 409,-44 403,-38 403,-32 403,-32 403,-20 403,-20 403,-14 409,-8 415,-8 415,-8 597,-8 597,-8 603,-8 609,-14 609,-20 609,-20 609,-32 609,-32 609,-38 603,-44 597,-44"/>
<text text-anchor="middle" x="506" y="-23.5" font-family="sans" font-size="10.00">combine_tissue_subfield_labels_corobl</text>
</g>
<!-- 129 -->
<g id="node4" class="node">
<title>129</title>
<path fill="none" stroke="#569ad8" stroke-width="2" d="M597.5,-116C597.5,-116 410.5,-116 410.5,-116 404.5,-116 398.5,-110 398.5,-104 398.5,-104 398.5,-92 398.5,-92 398.5,-86 404.5,-80 410.5,-80 410.5,-80 597.5,-80 597.5,-80 603.5,-80 609.5,-86 609.5,-92 609.5,-92 609.5,-104 609.5,-104 609.5,-110 603.5,-116 597.5,-116"/>
<text text-anchor="middle" x="504" y="-95.5" font-family="sans" font-size="10.00">label_subfields_from_vol_coords_corobl</text>
</g>
<!-- 129&#45;&gt;128 -->
<g id="edge2" class="edge">
<title>129&#45;&gt;128</title>
<path fill="none" stroke="grey" stroke-width="2" d="M504.49,-79.7C504.71,-71.98 504.98,-62.71 505.23,-54.11"/>
<polygon fill="grey" stroke="grey" stroke-width="2" points="508.72,-54.2 505.51,-44.1 501.73,-54 508.72,-54.2"/>
</g>
<!-- 10 -->
<g id="node5" class="node">
<title>10</title>
<path fill="none" stroke="#56d873" stroke-width="2" d="M783.5,-204C783.5,-204 726.5,-204 726.5,-204 720.5,-204 714.5,-198 714.5,-192 714.5,-192 714.5,-164 714.5,-164 714.5,-158 720.5,-152 726.5,-152 726.5,-152 783.5,-152 783.5,-152 789.5,-152 795.5,-158 795.5,-164 795.5,-164 795.5,-192 795.5,-192 795.5,-198 789.5,-204 783.5,-204"/>
<text text-anchor="middle" x="755" y="-192" font-family="sans" font-size="10.00">unflip_coords</text>
<text text-anchor="middle" x="755" y="-181" font-family="sans" font-size="10.00">autotop: hipp</text>
<text text-anchor="middle" x="755" y="-170" font-family="sans" font-size="10.00">desc: laplace</text>
<text text-anchor="middle" x="755" y="-159" font-family="sans" font-size="10.00">hemi: L</text>
</g>
<!-- 10&#45;&gt;126 -->
<g id="edge3" class="edge">
<title>10&#45;&gt;126</title>
<path fill="none" stroke="grey" stroke-width="2" d="M747.92,-151.89C745.6,-143.66 743.01,-134.48 740.64,-126.1"/>
<polygon fill="grey" stroke="grey" stroke-width="2" points="743.99,-125.09 737.91,-116.41 737.26,-126.99 743.99,-125.09"/>
</g>
<!-- 22 -->
<g id="node6" class="node">
<title>22</title>
<path fill="none" stroke="#56d873" stroke-width="2" d="M882.5,-204C882.5,-204 825.5,-204 825.5,-204 819.5,-204 813.5,-198 813.5,-192 813.5,-192 813.5,-164 813.5,-164 813.5,-158 819.5,-152 825.5,-152 825.5,-152 882.5,-152 882.5,-152 888.5,-152 894.5,-158 894.5,-164 894.5,-164 894.5,-192 894.5,-192 894.5,-198 888.5,-204 882.5,-204"/>
<text text-anchor="middle" x="854" y="-192" font-family="sans" font-size="10.00">unflip_coords</text>
<text text-anchor="middle" x="854" y="-181" font-family="sans" font-size="10.00">autotop: hipp</text>
<text text-anchor="middle" x="854" y="-170" font-family="sans" font-size="10.00">desc: laplace</text>
<text text-anchor="middle" x="854" y="-159" font-family="sans" font-size="10.00">hemi: L</text>
</g>
<!-- 22&#45;&gt;126 -->
<g id="edge4" class="edge">
<title>22&#45;&gt;126</title>
<path fill="none" stroke="grey" stroke-width="2" d="M815.05,-151.89C800.06,-142.23 783.04,-131.26 768.4,-121.82"/>
<polygon fill="grey" stroke="grey" stroke-width="2" points="769.94,-118.65 759.64,-116.17 766.14,-124.53 769.94,-118.65"/>
</g>
<!-- 25 -->
<g id="node7" class="node">
<title>25</title>
<path fill="none" stroke="#568ad8" stroke-width="2" d="M1023,-198.5C1023,-198.5 925,-198.5 925,-198.5 919,-198.5 913,-192.5 913,-186.5 913,-186.5 913,-169.5 913,-169.5 913,-163.5 919,-157.5 925,-157.5 925,-157.5 1023,-157.5 1023,-157.5 1029,-157.5 1035,-163.5 1035,-169.5 1035,-169.5 1035,-186.5 1035,-186.5 1035,-192.5 1029,-198.5 1023,-198.5"/>
<text text-anchor="middle" x="974" y="-186.5" font-family="sans" font-size="10.00">unflip_coords_equivol</text>
<text text-anchor="middle" x="974" y="-175.5" font-family="sans" font-size="10.00">desc: equivol</text>
<text text-anchor="middle" x="974" y="-164.5" font-family="sans" font-size="10.00">hemi: L</text>
</g>
<!-- 25&#45;&gt;126 -->
<g id="edge5" class="edge">
<title>25&#45;&gt;126</title>
<path fill="none" stroke="grey" stroke-width="2" d="M919.81,-157.39C914.48,-155.54 909.14,-153.71 904,-152 869.8,-140.6 831.48,-128.65 799.8,-118.99"/>
<polygon fill="grey" stroke="grey" stroke-width="2" points="800.78,-115.62 790.19,-116.06 798.74,-122.32 800.78,-115.62"/>
</g>
<!-- 43 -->
<g id="node8" class="node">
<title>43</title>
<path fill="none" stroke="#56d85b" stroke-width="2" d="M684,-198.5C684,-198.5 568,-198.5 568,-198.5 562,-198.5 556,-192.5 556,-186.5 556,-186.5 556,-169.5 556,-169.5 556,-163.5 562,-157.5 568,-157.5 568,-157.5 684,-157.5 684,-157.5 690,-157.5 696,-163.5 696,-169.5 696,-169.5 696,-186.5 696,-186.5 696,-192.5 690,-198.5 684,-198.5"/>
<text text-anchor="middle" x="626" y="-186.5" font-family="sans" font-size="10.00">resample_atlas_to_refvol</text>
<text text-anchor="middle" x="626" y="-175.5" font-family="sans" font-size="10.00">atlas: bigbrain</text>
<text text-anchor="middle" x="626" y="-164.5" font-family="sans" font-size="10.00">hemi: L</text>
</g>
<!-- 43&#45;&gt;126 -->
<g id="edge6" class="edge">
<title>43&#45;&gt;126</title>
<path fill="none" stroke="grey" stroke-width="2" d="M653,-157.32C667.73,-146.58 686.05,-133.23 701.44,-122.01"/>
<polygon fill="grey" stroke="grey" stroke-width="2" points="703.62,-124.75 709.64,-116.03 699.5,-119.09 703.62,-124.75"/>
</g>
<!-- 50 -->
<g id="node9" class="node">
<title>50</title>
<path fill="none" stroke="#56d86b" stroke-width="2" d="M262,-196C262,-196 170,-196 170,-196 164,-196 158,-190 158,-184 158,-184 158,-172 158,-172 158,-166 164,-160 170,-160 170,-160 262,-160 262,-160 268,-160 274,-166 274,-172 274,-172 274,-184 274,-184 274,-190 268,-196 262,-196"/>
<text text-anchor="middle" x="216" y="-175.5" font-family="sans" font-size="10.00">laplace_coords_hipp</text>
</g>
<!-- 50&#45;&gt;129 -->
<g id="edge7" class="edge">
<title>50&#45;&gt;129</title>
<path fill="none" stroke="grey" stroke-width="2" d="M259.35,-159.95C267.16,-157.13 275.28,-154.36 283,-152 325.18,-139.12 372.67,-127.39 412.78,-118.25"/>
<polygon fill="grey" stroke="grey" stroke-width="2" points="413.56,-121.66 422.54,-116.04 412.01,-114.83 413.56,-121.66"/>
</g>
<!-- 51 -->
<g id="node10" class="node">
<title>51</title>
<path fill="none" stroke="#70d856" stroke-width="2" d="M402.5,-276C402.5,-276 297.5,-276 297.5,-276 291.5,-276 285.5,-270 285.5,-264 285.5,-264 285.5,-252 285.5,-252 285.5,-246 291.5,-240 297.5,-240 297.5,-240 402.5,-240 402.5,-240 408.5,-240 414.5,-246 414.5,-252 414.5,-252 414.5,-264 414.5,-264 414.5,-270 408.5,-276 402.5,-276"/>
<text text-anchor="middle" x="350" y="-255.5" font-family="sans" font-size="10.00">reinsert_subject_labels</text>
</g>
<!-- 51&#45;&gt;128 -->
<g id="edge10" class="edge">
<title>51&#45;&gt;128</title>
<path fill="none" stroke="grey" stroke-width="2" d="M414.54,-256.95C578.61,-256.14 1001.73,-249.62 1044,-204 1059.71,-187.05 1057.23,-170.95 1044,-152 990.88,-75.9 937.85,-103.22 848,-80 836.76,-77.1 714.47,-58.39 619.3,-44.01"/>
<polygon fill="grey" stroke="grey" stroke-width="2" points="619.71,-40.53 609.3,-42.5 618.67,-47.45 619.71,-40.53"/>
</g>
<!-- 51&#45;&gt;50 -->
<g id="edge8" class="edge">
<title>51&#45;&gt;50</title>
<path fill="none" stroke="grey" stroke-width="2" d="M320.59,-239.88C301.04,-228.5 275.18,-213.45 254.07,-201.16"/>
<polygon fill="grey" stroke="grey" stroke-width="2" points="255.74,-198.08 245.34,-196.08 252.22,-204.13 255.74,-198.08"/>
</g>
<!-- 58 -->
<g id="node11" class="node">
<title>58</title>
<path fill="none" stroke="#56d86b" stroke-width="2" d="M396,-196C396,-196 304,-196 304,-196 298,-196 292,-190 292,-184 292,-184 292,-172 292,-172 292,-166 298,-160 304,-160 304,-160 396,-160 396,-160 402,-160 408,-166 408,-172 408,-172 408,-184 408,-184 408,-190 402,-196 396,-196"/>
<text text-anchor="middle" x="350" y="-175.5" font-family="sans" font-size="10.00">laplace_coords_hipp</text>
</g>
<!-- 51&#45;&gt;58 -->
<g id="edge9" class="edge">
<title>51&#45;&gt;58</title>
<path fill="none" stroke="grey" stroke-width="2" d="M350,-239.69C350,-229.89 350,-217.42 350,-206.33"/>
<polygon fill="grey" stroke="grey" stroke-width="2" points="353.5,-206.26 350,-196.26 346.5,-206.26 353.5,-206.26"/>
</g>
<!-- 58&#45;&gt;129 -->
<g id="edge11" class="edge">
<title>58&#45;&gt;129</title>
<path fill="none" stroke="grey" stroke-width="2" d="M383.8,-159.88C406.56,-148.35 436.78,-133.04 461.23,-120.67"/>
<polygon fill="grey" stroke="grey" stroke-width="2" points="462.94,-123.72 470.28,-116.08 459.78,-117.47 462.94,-123.72"/>
</g>
<!-- 60 -->
<g id="node12" class="node">
<title>60</title>
<path fill="none" stroke="#56d892" stroke-width="2" d="M526,-196C526,-196 438,-196 438,-196 432,-196 426,-190 426,-184 426,-184 426,-172 426,-172 426,-166 432,-160 438,-160 438,-160 526,-160 526,-160 532,-160 538,-166 538,-172 538,-172 538,-184 538,-184 538,-190 532,-196 526,-196"/>
<text text-anchor="middle" x="482" y="-175.5" font-family="sans" font-size="10.00">equivolume_coords</text>
</g>
<!-- 60&#45;&gt;129 -->
<g id="edge12" class="edge">
<title>60&#45;&gt;129</title>
<path fill="none" stroke="grey" stroke-width="2" d="M486.88,-159.69C489.67,-149.79 493.24,-137.16 496.39,-125.99"/>
<polygon fill="grey" stroke="grey" stroke-width="2" points="499.79,-126.84 499.13,-116.26 493.05,-124.94 499.79,-126.84"/>
</g>
<!-- 80 -->
<g id="node13" class="node">
<title>80</title>
<path fill="none" stroke="#56d85b" stroke-width="2" d="M128,-198.5C128,-198.5 12,-198.5 12,-198.5 6,-198.5 0,-192.5 0,-186.5 0,-186.5 0,-169.5 0,-169.5 0,-163.5 6,-157.5 12,-157.5 12,-157.5 128,-157.5 128,-157.5 134,-157.5 140,-163.5 140,-169.5 140,-169.5 140,-186.5 140,-186.5 140,-192.5 134,-198.5 128,-198.5"/>
<text text-anchor="middle" x="70" y="-186.5" font-family="sans" font-size="10.00">resample_atlas_to_refvol</text>
<text text-anchor="middle" x="70" y="-175.5" font-family="sans" font-size="10.00">atlas: bigbrain</text>
<text text-anchor="middle" x="70" y="-164.5" font-family="sans" font-size="10.00">hemi: R</text>
</g>
<!-- 80&#45;&gt;129 -->
<g id="edge13" class="edge">
<title>80&#45;&gt;129</title>
<path fill="none" stroke="grey" stroke-width="2" d="M128.39,-157.39C135.29,-155.41 142.27,-153.56 149,-152 227.99,-133.73 318.38,-120.34 388.18,-111.59"/>
<polygon fill="grey" stroke="grey" stroke-width="2" points="388.83,-115.04 398.33,-110.33 387.97,-108.09 388.83,-115.04"/>
</g>
<!-- 125 -->
<g id="node14" class="node">
<title>125</title>
<path fill="none" stroke="#56b1d8" stroke-width="2" d="M1170.5,-116C1170.5,-116 1103.5,-116 1103.5,-116 1097.5,-116 1091.5,-110 1091.5,-104 1091.5,-104 1091.5,-92 1091.5,-92 1091.5,-86 1097.5,-80 1103.5,-80 1103.5,-80 1170.5,-80 1170.5,-80 1176.5,-80 1182.5,-86 1182.5,-92 1182.5,-92 1182.5,-104 1182.5,-104 1182.5,-110 1176.5,-116 1170.5,-116"/>
<text text-anchor="middle" x="1137" y="-101" font-family="sans" font-size="10.00">unflip_postproc</text>
<text text-anchor="middle" x="1137" y="-90" font-family="sans" font-size="10.00">hemi: L</text>
</g>
<!-- 125&#45;&gt;124 -->
<g id="edge14" class="edge">
<title>125&#45;&gt;124</title>
<path fill="none" stroke="grey" stroke-width="2" d="M1091.28,-83.42C1086.48,-82.18 1081.65,-81.01 1077,-80 1000.98,-63.42 914.39,-50.09 847.23,-40.94"/>
<polygon fill="grey" stroke="grey" stroke-width="2" points="847.42,-37.43 837.04,-39.56 846.48,-44.37 847.42,-37.43"/>
</g>
</g>
</svg>
