<?xml version="1.0" encoding="UTF-8" standalone="no"?>
<!DOCTYPE svg PUBLIC "-//W3C//DTD SVG 1.1//EN"
 "http://www.w3.org/Graphics/SVG/1.1/DTD/svg11.dtd">
<!-- Generated by graphviz version 2.43.0 (0)
 -->
<!-- Pages: 1 -->
<svg width="2216pt" height="294pt"
 viewBox="0.00 0.00 2216.00 294.00" xmlns="http://www.w3.org/2000/svg" xmlns:xlink="http://www.w3.org/1999/xlink">
<g id="graph0" class="graph" transform="scale(1 1) rotate(0) translate(4 290)">
<polygon fill="white" stroke="transparent" points="-4,4 -4,-290 2212,-290 2212,4 -4,4"/>
<g id="clust1" class="cluster">
<title>cluster_0</title>
<polygon fill="white" stroke="blue" points="95.5,-8 95.5,-232 2097.5,-232 2097.5,-8 95.5,-8"/>
<text text-anchor="middle" x="1096.5" y="-216.8" font-family="Times,serif" font-size="14.00">autotop</text>
</g>
<!-- 10 -->
<g id="node1" class="node">
<title>10</title>
<path fill="none" stroke="#56d873" stroke-width="2" d="M182,-137C182,-137 125,-137 125,-137 119,-137 113,-131 113,-125 113,-125 113,-97 113,-97 113,-91 119,-85 125,-85 125,-85 182,-85 182,-85 188,-85 194,-91 194,-97 194,-97 194,-125 194,-125 194,-131 188,-137 182,-137"/>
<text text-anchor="middle" x="153.5" y="-125" font-family="sans" font-size="10.00">unflip_coords</text>
<text text-anchor="middle" x="153.5" y="-114" font-family="sans" font-size="10.00">autotop: hipp</text>
<text text-anchor="middle" x="153.5" y="-103" font-family="sans" font-size="10.00">desc: laplace</text>
<text text-anchor="middle" x="153.5" y="-92" font-family="sans" font-size="10.00">hemi: L</text>
</g>
<!-- 11 -->
<g id="node2" class="node">
<title>11</title>
<path fill="none" stroke="#56d86b" stroke-width="2" d="M199.5,-209C199.5,-209 107.5,-209 107.5,-209 101.5,-209 95.5,-203 95.5,-197 95.5,-197 95.5,-185 95.5,-185 95.5,-179 101.5,-173 107.5,-173 107.5,-173 199.5,-173 199.5,-173 205.5,-173 211.5,-179 211.5,-185 211.5,-185 211.5,-197 211.5,-197 211.5,-203 205.5,-209 199.5,-209"/>
<text text-anchor="middle" x="153.5" y="-188.5" font-family="sans" font-size="10.00">laplace_coords_hipp</text>
</g>
<!-- 11&#45;&gt;10 -->
<g id="edge1" class="edge">
<title>11&#45;&gt;10</title>
<path fill="none" stroke="grey" stroke-width="2" d="M153.5,-172.69C153.5,-165.21 153.5,-156.16 153.5,-147.36"/>
<polygon fill="grey" stroke="grey" stroke-width="2" points="157,-147.26 153.5,-137.26 150,-147.26 157,-147.26"/>
</g>
<!-- 22 -->
<g id="node3" class="node">
<title>22</title>
<path fill="none" stroke="#56d873" stroke-width="2" d="M474,-137C474,-137 417,-137 417,-137 411,-137 405,-131 405,-125 405,-125 405,-97 405,-97 405,-91 411,-85 417,-85 417,-85 474,-85 474,-85 480,-85 486,-91 486,-97 486,-97 486,-125 486,-125 486,-131 480,-137 474,-137"/>
<text text-anchor="middle" x="445.5" y="-125" font-family="sans" font-size="10.00">unflip_coords</text>
<text text-anchor="middle" x="445.5" y="-114" font-family="sans" font-size="10.00">autotop: hipp</text>
<text text-anchor="middle" x="445.5" y="-103" font-family="sans" font-size="10.00">desc: laplace</text>
<text text-anchor="middle" x="445.5" y="-92" font-family="sans" font-size="10.00">hemi: L</text>
</g>
<!-- 23 -->
<g id="node4" class="node">
<title>23</title>
<path fill="none" stroke="#56d86b" stroke-width="2" d="M491.5,-209C491.5,-209 399.5,-209 399.5,-209 393.5,-209 387.5,-203 387.5,-197 387.5,-197 387.5,-185 387.5,-185 387.5,-179 393.5,-173 399.5,-173 399.5,-173 491.5,-173 491.5,-173 497.5,-173 503.5,-179 503.5,-185 503.5,-185 503.5,-197 503.5,-197 503.5,-203 497.5,-209 491.5,-209"/>
<text text-anchor="middle" x="445.5" y="-188.5" font-family="sans" font-size="10.00">laplace_coords_hipp</text>
</g>
<!-- 23&#45;&gt;22 -->
<g id="edge2" class="edge">
<title>23&#45;&gt;22</title>
<path fill="none" stroke="grey" stroke-width="2" d="M445.5,-172.69C445.5,-165.21 445.5,-156.16 445.5,-147.36"/>
<polygon fill="grey" stroke="grey" stroke-width="2" points="449,-147.26 445.5,-137.26 442,-147.26 449,-147.26"/>
</g>
<!-- 25 -->
<g id="node5" class="node">
<title>25</title>
<path fill="none" stroke="#568ad8" stroke-width="2" d="M348.5,-49C348.5,-49 250.5,-49 250.5,-49 244.5,-49 238.5,-43 238.5,-37 238.5,-37 238.5,-20 238.5,-20 238.5,-14 244.5,-8 250.5,-8 250.5,-8 348.5,-8 348.5,-8 354.5,-8 360.5,-14 360.5,-20 360.5,-20 360.5,-37 360.5,-37 360.5,-43 354.5,-49 348.5,-49"/>
<text text-anchor="middle" x="299.5" y="-37" font-family="sans" font-size="10.00">unflip_coords_equivol</text>
<text text-anchor="middle" x="299.5" y="-26" font-family="sans" font-size="10.00">desc: equivol</text>
<text text-anchor="middle" x="299.5" y="-15" font-family="sans" font-size="10.00">hemi: L</text>
</g>
<!-- 26 -->
<g id="node6" class="node">
<title>26</title>
<path fill="none" stroke="#56d892" stroke-width="2" d="M343.5,-129C343.5,-129 255.5,-129 255.5,-129 249.5,-129 243.5,-123 243.5,-117 243.5,-117 243.5,-105 243.5,-105 243.5,-99 249.5,-93 255.5,-93 255.5,-93 343.5,-93 343.5,-93 349.5,-93 355.5,-99 355.5,-105 355.5,-105 355.5,-117 355.5,-117 355.5,-123 349.5,-129 343.5,-129"/>
<text text-anchor="middle" x="299.5" y="-108.5" font-family="sans" font-size="10.00">equivolume_coords</text>
</g>
<!-- 26&#45;&gt;25 -->
<g id="edge3" class="edge">
<title>26&#45;&gt;25</title>
<path fill="none" stroke="grey" stroke-width="2" d="M299.5,-92.93C299.5,-83.1 299.5,-70.49 299.5,-59.1"/>
<polygon fill="grey" stroke="grey" stroke-width="2" points="303,-59.1 299.5,-49.1 296,-59.1 303,-59.1"/>
</g>
<!-- 27 -->
<g id="node7" class="node">
<title>27</title>
<path fill="none" stroke="#d88d56" stroke-width="2" d="M357,-209C357,-209 242,-209 242,-209 236,-209 230,-203 230,-197 230,-197 230,-185 230,-185 230,-179 236,-173 242,-173 242,-173 357,-173 357,-173 363,-173 369,-179 369,-185 369,-185 369,-197 369,-197 369,-203 363,-209 357,-209"/>
<text text-anchor="middle" x="299.5" y="-194" font-family="sans" font-size="10.00">prep_equivolume_coords</text>
<text text-anchor="middle" x="299.5" y="-183" font-family="sans" font-size="10.00">dir: IO</text>
</g>
<!-- 27&#45;&gt;26 -->
<g id="edge4" class="edge">
<title>27&#45;&gt;26</title>
<path fill="none" stroke="grey" stroke-width="2" d="M299.5,-172.69C299.5,-162.89 299.5,-150.42 299.5,-139.33"/>
<polygon fill="grey" stroke="grey" stroke-width="2" points="303,-139.26 299.5,-129.26 296,-139.26 303,-139.26"/>
</g>
<!-- 50 -->
<g id="node8" class="node">
<title>50</title>
<path fill="none" stroke="#56d86b" stroke-width="2" d="M759.5,-209C759.5,-209 667.5,-209 667.5,-209 661.5,-209 655.5,-203 655.5,-197 655.5,-197 655.5,-185 655.5,-185 655.5,-179 661.5,-173 667.5,-173 667.5,-173 759.5,-173 759.5,-173 765.5,-173 771.5,-179 771.5,-185 771.5,-185 771.5,-197 771.5,-197 771.5,-203 765.5,-209 759.5,-209"/>
<text text-anchor="middle" x="713.5" y="-188.5" font-family="sans" font-size="10.00">laplace_coords_hipp</text>
</g>
<!-- 58 -->
<g id="node9" class="node">
<title>58</title>
<path fill="none" stroke="#56d86b" stroke-width="2" d="M1051.5,-209C1051.5,-209 959.5,-209 959.5,-209 953.5,-209 947.5,-203 947.5,-197 947.5,-197 947.5,-185 947.5,-185 947.5,-179 953.5,-173 959.5,-173 959.5,-173 1051.5,-173 1051.5,-173 1057.5,-173 1063.5,-179 1063.5,-185 1063.5,-185 1063.5,-197 1063.5,-197 1063.5,-203 1057.5,-209 1051.5,-209"/>
<text text-anchor="middle" x="1005.5" y="-188.5" font-family="sans" font-size="10.00">laplace_coords_hipp</text>
</g>
<!-- 60 -->
<g id="node10" class="node">
<title>60</title>
<path fill="none" stroke="#56d892" stroke-width="2" d="M903.5,-129C903.5,-129 815.5,-129 815.5,-129 809.5,-129 803.5,-123 803.5,-117 803.5,-117 803.5,-105 803.5,-105 803.5,-99 809.5,-93 815.5,-93 815.5,-93 903.5,-93 903.5,-93 909.5,-93 915.5,-99 915.5,-105 915.5,-105 915.5,-117 915.5,-117 915.5,-123 909.5,-129 903.5,-129"/>
<text text-anchor="middle" x="859.5" y="-108.5" font-family="sans" font-size="10.00">equivolume_coords</text>
</g>
<!-- 61 -->
<g id="node11" class="node">
<title>61</title>
<path fill="none" stroke="#d88d56" stroke-width="2" d="M917,-209C917,-209 802,-209 802,-209 796,-209 790,-203 790,-197 790,-197 790,-185 790,-185 790,-179 796,-173 802,-173 802,-173 917,-173 917,-173 923,-173 929,-179 929,-185 929,-185 929,-197 929,-197 929,-203 923,-209 917,-209"/>
<text text-anchor="middle" x="859.5" y="-194" font-family="sans" font-size="10.00">prep_equivolume_coords</text>
<text text-anchor="middle" x="859.5" y="-183" font-family="sans" font-size="10.00">dir: IO</text>
</g>
<!-- 61&#45;&gt;60 -->
<g id="edge5" class="edge">
<title>61&#45;&gt;60</title>
<path fill="none" stroke="grey" stroke-width="2" d="M859.5,-172.69C859.5,-162.89 859.5,-150.42 859.5,-139.33"/>
<polygon fill="grey" stroke="grey" stroke-width="2" points="863,-139.26 859.5,-129.26 856,-139.26 863,-139.26"/>
</g>
<!-- 90 -->
<g id="node12" class="node">
<title>90</title>
<path fill="none" stroke="#56d873" stroke-width="2" d="M1318.5,-137C1318.5,-137 1244.5,-137 1244.5,-137 1238.5,-137 1232.5,-131 1232.5,-125 1232.5,-125 1232.5,-97 1232.5,-97 1232.5,-91 1238.5,-85 1244.5,-85 1244.5,-85 1318.5,-85 1318.5,-85 1324.5,-85 1330.5,-91 1330.5,-97 1330.5,-97 1330.5,-125 1330.5,-125 1330.5,-131 1324.5,-137 1318.5,-137"/>
<text text-anchor="middle" x="1281.5" y="-125" font-family="sans" font-size="10.00">unflip_coords</text>
<text text-anchor="middle" x="1281.5" y="-114" font-family="sans" font-size="10.00">autotop: dentate</text>
<text text-anchor="middle" x="1281.5" y="-103" font-family="sans" font-size="10.00">desc: laplace</text>
<text text-anchor="middle" x="1281.5" y="-92" font-family="sans" font-size="10.00">hemi: L</text>
</g>
<!-- 91 -->
<g id="node13" class="node">
<title>91</title>
<path fill="none" stroke="#d8cb56" stroke-width="2" d="M1335.5,-209C1335.5,-209 1227.5,-209 1227.5,-209 1221.5,-209 1215.5,-203 1215.5,-197 1215.5,-197 1215.5,-185 1215.5,-185 1215.5,-179 1221.5,-173 1227.5,-173 1227.5,-173 1335.5,-173 1335.5,-173 1341.5,-173 1347.5,-179 1347.5,-185 1347.5,-185 1347.5,-197 1347.5,-197 1347.5,-203 1341.5,-209 1335.5,-209"/>
<text text-anchor="middle" x="1281.5" y="-188.5" font-family="sans" font-size="10.00">laplace_coords_dentate</text>
</g>
<!-- 91&#45;&gt;90 -->
<g id="edge6" class="edge">
<title>91&#45;&gt;90</title>
<path fill="none" stroke="grey" stroke-width="2" d="M1281.5,-172.69C1281.5,-165.21 1281.5,-156.16 1281.5,-147.36"/>
<polygon fill="grey" stroke="grey" stroke-width="2" points="1285,-147.26 1281.5,-137.26 1278,-147.26 1285,-147.26"/>
</g>
<!-- 93 -->
<g id="node14" class="node">
<title>93</title>
<path fill="none" stroke="#56d873" stroke-width="2" d="M1468.5,-137C1468.5,-137 1394.5,-137 1394.5,-137 1388.5,-137 1382.5,-131 1382.5,-125 1382.5,-125 1382.5,-97 1382.5,-97 1382.5,-91 1388.5,-85 1394.5,-85 1394.5,-85 1468.5,-85 1468.5,-85 1474.5,-85 1480.5,-91 1480.5,-97 1480.5,-97 1480.5,-125 1480.5,-125 1480.5,-131 1474.5,-137 1468.5,-137"/>
<text text-anchor="middle" x="1431.5" y="-125" font-family="sans" font-size="10.00">unflip_coords</text>
<text text-anchor="middle" x="1431.5" y="-114" font-family="sans" font-size="10.00">autotop: dentate</text>
<text text-anchor="middle" x="1431.5" y="-103" font-family="sans" font-size="10.00">desc: laplace</text>
<text text-anchor="middle" x="1431.5" y="-92" font-family="sans" font-size="10.00">hemi: L</text>
</g>
<!-- 94 -->
<g id="node15" class="node">
<title>94</title>
<path fill="none" stroke="#d8cb56" stroke-width="2" d="M1485.5,-209C1485.5,-209 1377.5,-209 1377.5,-209 1371.5,-209 1365.5,-203 1365.5,-197 1365.5,-197 1365.5,-185 1365.5,-185 1365.5,-179 1371.5,-173 1377.5,-173 1377.5,-173 1485.5,-173 1485.5,-173 1491.5,-173 1497.5,-179 1497.5,-185 1497.5,-185 1497.5,-197 1497.5,-197 1497.5,-203 1491.5,-209 1485.5,-209"/>
<text text-anchor="middle" x="1431.5" y="-188.5" font-family="sans" font-size="10.00">laplace_coords_dentate</text>
</g>
<!-- 94&#45;&gt;93 -->
<g id="edge7" class="edge">
<title>94&#45;&gt;93</title>
<path fill="none" stroke="grey" stroke-width="2" d="M1431.5,-172.69C1431.5,-165.21 1431.5,-156.16 1431.5,-147.36"/>
<polygon fill="grey" stroke="grey" stroke-width="2" points="1435,-147.26 1431.5,-137.26 1428,-147.26 1435,-147.26"/>
</g>
<!-- 96 -->
<g id="node16" class="node">
<title>96</title>
<path fill="none" stroke="#56d873" stroke-width="2" d="M1618.5,-137C1618.5,-137 1544.5,-137 1544.5,-137 1538.5,-137 1532.5,-131 1532.5,-125 1532.5,-125 1532.5,-97 1532.5,-97 1532.5,-91 1538.5,-85 1544.5,-85 1544.5,-85 1618.5,-85 1618.5,-85 1624.5,-85 1630.5,-91 1630.5,-97 1630.5,-97 1630.5,-125 1630.5,-125 1630.5,-131 1624.5,-137 1618.5,-137"/>
<text text-anchor="middle" x="1581.5" y="-125" font-family="sans" font-size="10.00">unflip_coords</text>
<text text-anchor="middle" x="1581.5" y="-114" font-family="sans" font-size="10.00">autotop: dentate</text>
<text text-anchor="middle" x="1581.5" y="-103" font-family="sans" font-size="10.00">desc: laplace</text>
<text text-anchor="middle" x="1581.5" y="-92" font-family="sans" font-size="10.00">hemi: L</text>
</g>
<!-- 97 -->
<g id="node17" class="node">
<title>97</title>
<path fill="none" stroke="#d8cb56" stroke-width="2" d="M1635.5,-209C1635.5,-209 1527.5,-209 1527.5,-209 1521.5,-209 1515.5,-203 1515.5,-197 1515.5,-197 1515.5,-185 1515.5,-185 1515.5,-179 1521.5,-173 1527.5,-173 1527.5,-173 1635.5,-173 1635.5,-173 1641.5,-173 1647.5,-179 1647.5,-185 1647.5,-185 1647.5,-197 1647.5,-197 1647.5,-203 1641.5,-209 1635.5,-209"/>
<text text-anchor="middle" x="1581.5" y="-188.5" font-family="sans" font-size="10.00">laplace_coords_dentate</text>
</g>
<!-- 97&#45;&gt;96 -->
<g id="edge8" class="edge">
<title>97&#45;&gt;96</title>
<path fill="none" stroke="grey" stroke-width="2" d="M1581.5,-172.69C1581.5,-165.21 1581.5,-156.16 1581.5,-147.36"/>
<polygon fill="grey" stroke="grey" stroke-width="2" points="1585,-147.26 1581.5,-137.26 1578,-147.26 1585,-147.26"/>
</g>
<!-- 110 -->
<g id="node18" class="node">
<title>110</title>
<path fill="none" stroke="#d8cb56" stroke-width="2" d="M1785.5,-209C1785.5,-209 1677.5,-209 1677.5,-209 1671.5,-209 1665.5,-203 1665.5,-197 1665.5,-197 1665.5,-185 1665.5,-185 1665.5,-179 1671.5,-173 1677.5,-173 1677.5,-173 1785.5,-173 1785.5,-173 1791.5,-173 1797.5,-179 1797.5,-185 1797.5,-185 1797.5,-197 1797.5,-197 1797.5,-203 1791.5,-209 1785.5,-209"/>
<text text-anchor="middle" x="1731.5" y="-188.5" font-family="sans" font-size="10.00">laplace_coords_dentate</text>
</g>
<!-- 112 -->
<g id="node19" class="node">
<title>112</title>
<path fill="none" stroke="#d8cb56" stroke-width="2" d="M1935.5,-209C1935.5,-209 1827.5,-209 1827.5,-209 1821.5,-209 1815.5,-203 1815.5,-197 1815.5,-197 1815.5,-185 1815.5,-185 1815.5,-179 1821.5,-173 1827.5,-173 1827.5,-173 1935.5,-173 1935.5,-173 1941.5,-173 1947.5,-179 1947.5,-185 1947.5,-185 1947.5,-197 1947.5,-197 1947.5,-203 1941.5,-209 1935.5,-209"/>
<text text-anchor="middle" x="1881.5" y="-188.5" font-family="sans" font-size="10.00">laplace_coords_dentate</text>
</g>
<!-- 114 -->
<g id="node20" class="node">
<title>114</title>
<path fill="none" stroke="#d8cb56" stroke-width="2" d="M2085.5,-209C2085.5,-209 1977.5,-209 1977.5,-209 1971.5,-209 1965.5,-203 1965.5,-197 1965.5,-197 1965.5,-185 1965.5,-185 1965.5,-179 1971.5,-173 1977.5,-173 1977.5,-173 2085.5,-173 2085.5,-173 2091.5,-173 2097.5,-179 2097.5,-185 2097.5,-185 2097.5,-197 2097.5,-197 2097.5,-203 2091.5,-209 2085.5,-209"/>
<text text-anchor="middle" x="2031.5" y="-188.5" font-family="sans" font-size="10.00">laplace_coords_dentate</text>
</g>
<!-- 139 -->
<g id="node21" class="node">
<title>139</title>
<path fill="none" stroke="#56d873" stroke-width="2" d="M608,-137C608,-137 551,-137 551,-137 545,-137 539,-131 539,-125 539,-125 539,-97 539,-97 539,-91 545,-85 551,-85 551,-85 608,-85 608,-85 614,-85 620,-91 620,-97 620,-97 620,-125 620,-125 620,-131 614,-137 608,-137"/>
<text text-anchor="middle" x="579.5" y="-125" font-family="sans" font-size="10.00">unflip_coords</text>
<text text-anchor="middle" x="579.5" y="-114" font-family="sans" font-size="10.00">autotop: hipp</text>
<text text-anchor="middle" x="579.5" y="-103" font-family="sans" font-size="10.00">desc: laplace</text>
<text text-anchor="middle" x="579.5" y="-92" font-family="sans" font-size="10.00">hemi: L</text>
</g>
<!-- 140 -->
<g id="node22" class="node">
<title>140</title>
<path fill="none" stroke="#56d86b" stroke-width="2" d="M625.5,-209C625.5,-209 533.5,-209 533.5,-209 527.5,-209 521.5,-203 521.5,-197 521.5,-197 521.5,-185 521.5,-185 521.5,-179 527.5,-173 533.5,-173 533.5,-173 625.5,-173 625.5,-173 631.5,-173 637.5,-179 637.5,-185 637.5,-185 637.5,-197 637.5,-197 637.5,-203 631.5,-209 625.5,-209"/>
<text text-anchor="middle" x="579.5" y="-188.5" font-family="sans" font-size="10.00">laplace_coords_hipp</text>
</g>
<!-- 140&#45;&gt;139 -->
<g id="edge9" class="edge">
<title>140&#45;&gt;139</title>
<path fill="none" stroke="grey" stroke-width="2" d="M579.5,-172.69C579.5,-165.21 579.5,-156.16 579.5,-147.36"/>
<polygon fill="grey" stroke="grey" stroke-width="2" points="583,-147.26 579.5,-137.26 576,-147.26 583,-147.26"/>
</g>
<!-- 143 -->
<g id="node23" class="node">
<title>143</title>
<path fill="none" stroke="#56d86b" stroke-width="2" d="M1185.5,-209C1185.5,-209 1093.5,-209 1093.5,-209 1087.5,-209 1081.5,-203 1081.5,-197 1081.5,-197 1081.5,-185 1081.5,-185 1081.5,-179 1087.5,-173 1093.5,-173 1093.5,-173 1185.5,-173 1185.5,-173 1191.5,-173 1197.5,-179 1197.5,-185 1197.5,-185 1197.5,-197 1197.5,-197 1197.5,-203 1191.5,-209 1185.5,-209"/>
<text text-anchor="middle" x="1139.5" y="-188.5" font-family="sans" font-size="10.00">laplace_coords_hipp</text>
</g>
<!-- 12 -->
<g id="node24" class="node">
<title>12</title>
<path fill="none" stroke="#70d856" stroke-width="2" d="M278,-283.5C278,-283.5 173,-283.5 173,-283.5 167,-283.5 161,-277.5 161,-271.5 161,-271.5 161,-259.5 161,-259.5 161,-253.5 167,-247.5 173,-247.5 173,-247.5 278,-247.5 278,-247.5 284,-247.5 290,-253.5 290,-259.5 290,-259.5 290,-271.5 290,-271.5 290,-277.5 284,-283.5 278,-283.5"/>
<text text-anchor="middle" x="225.5" y="-263" font-family="sans" font-size="10.00">reinsert_subject_labels</text>
</g>
<!-- 12&#45;&gt;11 -->
<g id="edge10" class="edge">
<title>12&#45;&gt;11</title>
<path fill="none" stroke="grey" stroke-width="2" d="M208.44,-247.32C199.2,-238.02 187.64,-226.38 177.51,-216.18"/>
<polygon fill="grey" stroke="grey" stroke-width="2" points="179.97,-213.69 170.44,-209.06 175,-218.62 179.97,-213.69"/>
</g>
<!-- 12&#45;&gt;23 -->
<g id="edge11" class="edge">
<title>12&#45;&gt;23</title>
<path fill="none" stroke="grey" stroke-width="2" d="M287.53,-247.49C291.23,-246.61 294.91,-245.77 298.5,-245 333.29,-237.51 344.04,-244.11 377.5,-232 389.57,-227.63 401.92,-221.09 412.73,-214.57"/>
<polygon fill="grey" stroke="grey" stroke-width="2" points="414.78,-217.41 421.4,-209.13 411.07,-211.48 414.78,-217.41"/>
</g>
<!-- 12&#45;&gt;27 -->
<g id="edge12" class="edge">
<title>12&#45;&gt;27</title>
<path fill="none" stroke="grey" stroke-width="2" d="M243.04,-247.32C252.53,-238.02 264.41,-226.38 274.82,-216.18"/>
<polygon fill="grey" stroke="grey" stroke-width="2" points="277.4,-218.56 282.09,-209.06 272.5,-213.56 277.4,-218.56"/>
</g>
<!-- 12&#45;&gt;140 -->
<g id="edge13" class="edge">
<title>12&#45;&gt;140</title>
<path fill="none" stroke="grey" stroke-width="2" d="M285.45,-247.47C289.84,-246.53 294.23,-245.69 298.5,-245 392.56,-229.74 421.45,-260.11 512.5,-232 524.94,-228.16 537.48,-221.57 548.29,-214.83"/>
<polygon fill="grey" stroke="grey" stroke-width="2" points="550.47,-217.59 556.93,-209.19 546.64,-211.73 550.47,-217.59"/>
</g>
<!-- 21 -->
<g id="node25" class="node">
<title>21</title>
<path fill="none" stroke="#56d8b9" stroke-width="2" d="M131,-286C131,-286 12,-286 12,-286 6,-286 0,-280 0,-274 0,-274 0,-257 0,-257 0,-251 6,-245 12,-245 12,-245 131,-245 131,-245 137,-245 143,-251 143,-257 143,-257 143,-274 143,-274 143,-280 137,-286 131,-286"/>
<text text-anchor="middle" x="71.5" y="-274" font-family="sans" font-size="10.00">inject_init_laplace_coords</text>
<text text-anchor="middle" x="71.5" y="-263" font-family="sans" font-size="10.00">autotop: hipp</text>
<text text-anchor="middle" x="71.5" y="-252" font-family="sans" font-size="10.00">dir: AP</text>
</g>
<!-- 21&#45;&gt;11 -->
<g id="edge14" class="edge">
<title>21&#45;&gt;11</title>
<path fill="none" stroke="grey" stroke-width="2" d="M93.91,-244.69C103.96,-235.8 115.9,-225.24 126.45,-215.92"/>
<polygon fill="grey" stroke="grey" stroke-width="2" points="129.01,-218.32 134.18,-209.08 124.37,-213.08 129.01,-218.32"/>
</g>
<!-- 24 -->
<g id="node26" class="node">
<title>24</title>
<path fill="none" stroke="#56d8b9" stroke-width="2" d="M439,-286C439,-286 320,-286 320,-286 314,-286 308,-280 308,-274 308,-274 308,-257 308,-257 308,-251 314,-245 320,-245 320,-245 439,-245 439,-245 445,-245 451,-251 451,-257 451,-257 451,-274 451,-274 451,-280 445,-286 439,-286"/>
<text text-anchor="middle" x="379.5" y="-274" font-family="sans" font-size="10.00">inject_init_laplace_coords</text>
<text text-anchor="middle" x="379.5" y="-263" font-family="sans" font-size="10.00">autotop: hipp</text>
<text text-anchor="middle" x="379.5" y="-252" font-family="sans" font-size="10.00">dir: PD</text>
</g>
<!-- 24&#45;&gt;23 -->
<g id="edge15" class="edge">
<title>24&#45;&gt;23</title>
<path fill="none" stroke="grey" stroke-width="2" d="M397.53,-244.69C405.33,-236.13 414.53,-226.02 422.79,-216.95"/>
<polygon fill="grey" stroke="grey" stroke-width="2" points="425.59,-219.07 429.73,-209.32 420.41,-214.36 425.59,-219.07"/>
</g>
<!-- 51 -->
<g id="node27" class="node">
<title>51</title>
<path fill="none" stroke="#70d856" stroke-width="2" d="M908,-283.5C908,-283.5 803,-283.5 803,-283.5 797,-283.5 791,-277.5 791,-271.5 791,-271.5 791,-259.5 791,-259.5 791,-253.5 797,-247.5 803,-247.5 803,-247.5 908,-247.5 908,-247.5 914,-247.5 920,-253.5 920,-259.5 920,-259.5 920,-271.5 920,-271.5 920,-277.5 914,-283.5 908,-283.5"/>
<text text-anchor="middle" x="855.5" y="-263" font-family="sans" font-size="10.00">reinsert_subject_labels</text>
</g>
<!-- 51&#45;&gt;50 -->
<g id="edge16" class="edge">
<title>51&#45;&gt;50</title>
<path fill="none" stroke="grey" stroke-width="2" d="M813.4,-247.39C802.55,-242.68 790.98,-237.37 780.5,-232 770.16,-226.7 759.23,-220.47 749.27,-214.51"/>
<polygon fill="grey" stroke="grey" stroke-width="2" points="750.8,-211.35 740.43,-209.16 747.17,-217.34 750.8,-211.35"/>
</g>
<!-- 51&#45;&gt;58 -->
<g id="edge17" class="edge">
<title>51&#45;&gt;58</title>
<path fill="none" stroke="grey" stroke-width="2" d="M902.44,-247.34C914.05,-242.7 926.36,-237.45 937.5,-232 948.26,-226.74 959.59,-220.42 969.86,-214.36"/>
<polygon fill="grey" stroke="grey" stroke-width="2" points="971.79,-217.28 978.57,-209.14 968.19,-211.28 971.79,-217.28"/>
</g>
<!-- 51&#45;&gt;61 -->
<g id="edge18" class="edge">
<title>51&#45;&gt;61</title>
<path fill="none" stroke="grey" stroke-width="2" d="M856.45,-247.32C856.91,-238.92 857.48,-228.62 858,-219.19"/>
<polygon fill="grey" stroke="grey" stroke-width="2" points="861.5,-219.24 858.56,-209.06 854.51,-218.85 861.5,-219.24"/>
</g>
<!-- 51&#45;&gt;143 -->
<g id="edge19" class="edge">
<title>51&#45;&gt;143</title>
<path fill="none" stroke="grey" stroke-width="2" d="M916.27,-247.43C920.39,-246.53 924.5,-245.71 928.5,-245 991.77,-233.78 1011.38,-251.86 1072.5,-232 1084.88,-227.98 1097.41,-221.34 1108.23,-214.61"/>
<polygon fill="grey" stroke="grey" stroke-width="2" points="1110.39,-217.38 1116.87,-209 1106.58,-211.51 1110.39,-217.38"/>
</g>
<!-- 57 -->
<g id="node28" class="node">
<title>57</title>
<path fill="none" stroke="#56d8b9" stroke-width="2" d="M761,-286C761,-286 642,-286 642,-286 636,-286 630,-280 630,-274 630,-274 630,-257 630,-257 630,-251 636,-245 642,-245 642,-245 761,-245 761,-245 767,-245 773,-251 773,-257 773,-257 773,-274 773,-274 773,-280 767,-286 761,-286"/>
<text text-anchor="middle" x="701.5" y="-274" font-family="sans" font-size="10.00">inject_init_laplace_coords</text>
<text text-anchor="middle" x="701.5" y="-263" font-family="sans" font-size="10.00">autotop: hipp</text>
<text text-anchor="middle" x="701.5" y="-252" font-family="sans" font-size="10.00">dir: AP</text>
</g>
<!-- 57&#45;&gt;50 -->
<g id="edge20" class="edge">
<title>57&#45;&gt;50</title>
<path fill="none" stroke="grey" stroke-width="2" d="M704.78,-244.69C706.07,-236.91 707.57,-227.84 708.96,-219.45"/>
<polygon fill="grey" stroke="grey" stroke-width="2" points="712.45,-219.76 710.63,-209.32 705.55,-218.61 712.45,-219.76"/>
</g>
<!-- 59 -->
<g id="node29" class="node">
<title>59</title>
<path fill="none" stroke="#56d8b9" stroke-width="2" d="M1069,-286C1069,-286 950,-286 950,-286 944,-286 938,-280 938,-274 938,-274 938,-257 938,-257 938,-251 944,-245 950,-245 950,-245 1069,-245 1069,-245 1075,-245 1081,-251 1081,-257 1081,-257 1081,-274 1081,-274 1081,-280 1075,-286 1069,-286"/>
<text text-anchor="middle" x="1009.5" y="-274" font-family="sans" font-size="10.00">inject_init_laplace_coords</text>
<text text-anchor="middle" x="1009.5" y="-263" font-family="sans" font-size="10.00">autotop: hipp</text>
<text text-anchor="middle" x="1009.5" y="-252" font-family="sans" font-size="10.00">dir: PD</text>
</g>
<!-- 59&#45;&gt;58 -->
<g id="edge21" class="edge">
<title>59&#45;&gt;58</title>
<path fill="none" stroke="grey" stroke-width="2" d="M1008.41,-244.69C1007.98,-236.91 1007.48,-227.84 1007.01,-219.45"/>
<polygon fill="grey" stroke="grey" stroke-width="2" points="1010.5,-219.11 1006.46,-209.32 1003.51,-219.5 1010.5,-219.11"/>
</g>
<!-- 92 -->
<g id="node30" class="node">
<title>92</title>
<path fill="none" stroke="#56d8b9" stroke-width="2" d="M1391,-286C1391,-286 1272,-286 1272,-286 1266,-286 1260,-280 1260,-274 1260,-274 1260,-257 1260,-257 1260,-251 1266,-245 1272,-245 1272,-245 1391,-245 1391,-245 1397,-245 1403,-251 1403,-257 1403,-257 1403,-274 1403,-274 1403,-280 1397,-286 1391,-286"/>
<text text-anchor="middle" x="1331.5" y="-274" font-family="sans" font-size="10.00">inject_init_laplace_coords</text>
<text text-anchor="middle" x="1331.5" y="-263" font-family="sans" font-size="10.00">autotop: dentate</text>
<text text-anchor="middle" x="1331.5" y="-252" font-family="sans" font-size="10.00">dir: AP</text>
</g>
<!-- 92&#45;&gt;91 -->
<g id="edge22" class="edge">
<title>92&#45;&gt;91</title>
<path fill="none" stroke="grey" stroke-width="2" d="M1317.84,-244.69C1312.11,-236.39 1305.38,-226.63 1299.28,-217.78"/>
<polygon fill="grey" stroke="grey" stroke-width="2" points="1302,-215.56 1293.44,-209.32 1296.24,-219.54 1302,-215.56"/>
</g>
<!-- 95 -->
<g id="node31" class="node">
<title>95</title>
<path fill="none" stroke="#56d8b9" stroke-width="2" d="M1552,-286C1552,-286 1433,-286 1433,-286 1427,-286 1421,-280 1421,-274 1421,-274 1421,-257 1421,-257 1421,-251 1427,-245 1433,-245 1433,-245 1552,-245 1552,-245 1558,-245 1564,-251 1564,-257 1564,-257 1564,-274 1564,-274 1564,-280 1558,-286 1552,-286"/>
<text text-anchor="middle" x="1492.5" y="-274" font-family="sans" font-size="10.00">inject_init_laplace_coords</text>
<text text-anchor="middle" x="1492.5" y="-263" font-family="sans" font-size="10.00">autotop: dentate</text>
<text text-anchor="middle" x="1492.5" y="-252" font-family="sans" font-size="10.00">dir: PD</text>
</g>
<!-- 95&#45;&gt;94 -->
<g id="edge23" class="edge">
<title>95&#45;&gt;94</title>
<path fill="none" stroke="grey" stroke-width="2" d="M1475.83,-244.69C1468.7,-236.21 1460.29,-226.22 1452.72,-217.23"/>
<polygon fill="grey" stroke="grey" stroke-width="2" points="1455.19,-214.72 1446.07,-209.32 1449.83,-219.22 1455.19,-214.72"/>
</g>
<!-- 98 -->
<g id="node32" class="node">
<title>98</title>
<path fill="none" stroke="#56d8b9" stroke-width="2" d="M1713,-286C1713,-286 1594,-286 1594,-286 1588,-286 1582,-280 1582,-274 1582,-274 1582,-257 1582,-257 1582,-251 1588,-245 1594,-245 1594,-245 1713,-245 1713,-245 1719,-245 1725,-251 1725,-257 1725,-257 1725,-274 1725,-274 1725,-280 1719,-286 1713,-286"/>
<text text-anchor="middle" x="1653.5" y="-274" font-family="sans" font-size="10.00">inject_init_laplace_coords</text>
<text text-anchor="middle" x="1653.5" y="-263" font-family="sans" font-size="10.00">autotop: dentate</text>
<text text-anchor="middle" x="1653.5" y="-252" font-family="sans" font-size="10.00">dir: IO</text>
</g>
<!-- 98&#45;&gt;97 -->
<g id="edge24" class="edge">
<title>98&#45;&gt;97</title>
<path fill="none" stroke="grey" stroke-width="2" d="M1633.83,-244.69C1625.24,-236.04 1615.08,-225.81 1606.01,-216.68"/>
<polygon fill="grey" stroke="grey" stroke-width="2" points="1608.23,-213.95 1598.7,-209.32 1603.26,-218.88 1608.23,-213.95"/>
</g>
<!-- 111 -->
<g id="node33" class="node">
<title>111</title>
<path fill="none" stroke="#56d8b9" stroke-width="2" d="M1874,-286C1874,-286 1755,-286 1755,-286 1749,-286 1743,-280 1743,-274 1743,-274 1743,-257 1743,-257 1743,-251 1749,-245 1755,-245 1755,-245 1874,-245 1874,-245 1880,-245 1886,-251 1886,-257 1886,-257 1886,-274 1886,-274 1886,-280 1880,-286 1874,-286"/>
<text text-anchor="middle" x="1814.5" y="-274" font-family="sans" font-size="10.00">inject_init_laplace_coords</text>
<text text-anchor="middle" x="1814.5" y="-263" font-family="sans" font-size="10.00">autotop: dentate</text>
<text text-anchor="middle" x="1814.5" y="-252" font-family="sans" font-size="10.00">dir: AP</text>
</g>
<!-- 111&#45;&gt;110 -->
<g id="edge25" class="edge">
<title>111&#45;&gt;110</title>
<path fill="none" stroke="grey" stroke-width="2" d="M1791.82,-244.69C1781.65,-235.8 1769.56,-225.24 1758.88,-215.92"/>
<polygon fill="grey" stroke="grey" stroke-width="2" points="1760.89,-213.02 1751.05,-209.08 1756.28,-218.29 1760.89,-213.02"/>
</g>
<!-- 113 -->
<g id="node34" class="node">
<title>113</title>
<path fill="none" stroke="#56d8b9" stroke-width="2" d="M2035,-286C2035,-286 1916,-286 1916,-286 1910,-286 1904,-280 1904,-274 1904,-274 1904,-257 1904,-257 1904,-251 1910,-245 1916,-245 1916,-245 2035,-245 2035,-245 2041,-245 2047,-251 2047,-257 2047,-257 2047,-274 2047,-274 2047,-280 2041,-286 2035,-286"/>
<text text-anchor="middle" x="1975.5" y="-274" font-family="sans" font-size="10.00">inject_init_laplace_coords</text>
<text text-anchor="middle" x="1975.5" y="-263" font-family="sans" font-size="10.00">autotop: dentate</text>
<text text-anchor="middle" x="1975.5" y="-252" font-family="sans" font-size="10.00">dir: PD</text>
</g>
<!-- 113&#45;&gt;112 -->
<g id="edge26" class="edge">
<title>113&#45;&gt;112</title>
<path fill="none" stroke="grey" stroke-width="2" d="M1949.81,-244.69C1938.07,-235.63 1924.06,-224.83 1911.8,-215.37"/>
<polygon fill="grey" stroke="grey" stroke-width="2" points="1913.7,-212.41 1903.64,-209.08 1909.42,-217.96 1913.7,-212.41"/>
</g>
<!-- 115 -->
<g id="node35" class="node">
<title>115</title>
<path fill="none" stroke="#56d8b9" stroke-width="2" d="M2196,-286C2196,-286 2077,-286 2077,-286 2071,-286 2065,-280 2065,-274 2065,-274 2065,-257 2065,-257 2065,-251 2071,-245 2077,-245 2077,-245 2196,-245 2196,-245 2202,-245 2208,-251 2208,-257 2208,-257 2208,-274 2208,-274 2208,-280 2202,-286 2196,-286"/>
<text text-anchor="middle" x="2136.5" y="-274" font-family="sans" font-size="10.00">inject_init_laplace_coords</text>
<text text-anchor="middle" x="2136.5" y="-263" font-family="sans" font-size="10.00">autotop: dentate</text>
<text text-anchor="middle" x="2136.5" y="-252" font-family="sans" font-size="10.00">dir: IO</text>
</g>
<!-- 115&#45;&gt;114 -->
<g id="edge27" class="edge">
<title>115&#45;&gt;114</title>
<path fill="none" stroke="grey" stroke-width="2" d="M2108.09,-244.88C2094.71,-235.64 2078.66,-224.57 2064.73,-214.94"/>
<polygon fill="grey" stroke="grey" stroke-width="2" points="2066.58,-211.97 2056.36,-209.17 2062.6,-217.73 2066.58,-211.97"/>
</g>
<!-- 141 -->
<g id="node36" class="node">
<title>141</title>
<path fill="none" stroke="#56d8b9" stroke-width="2" d="M600,-286C600,-286 481,-286 481,-286 475,-286 469,-280 469,-274 469,-274 469,-257 469,-257 469,-251 475,-245 481,-245 481,-245 600,-245 600,-245 606,-245 612,-251 612,-257 612,-257 612,-274 612,-274 612,-280 606,-286 600,-286"/>
<text text-anchor="middle" x="540.5" y="-274" font-family="sans" font-size="10.00">inject_init_laplace_coords</text>
<text text-anchor="middle" x="540.5" y="-263" font-family="sans" font-size="10.00">autotop: hipp</text>
<text text-anchor="middle" x="540.5" y="-252" font-family="sans" font-size="10.00">dir: IO</text>
</g>
<!-- 141&#45;&gt;140 -->
<g id="edge28" class="edge">
<title>141&#45;&gt;140</title>
<path fill="none" stroke="grey" stroke-width="2" d="M551.16,-244.69C555.53,-236.56 560.65,-227.03 565.34,-218.33"/>
<polygon fill="grey" stroke="grey" stroke-width="2" points="568.53,-219.78 570.18,-209.32 562.36,-216.47 568.53,-219.78"/>
</g>
<!-- 144 -->
<g id="node37" class="node">
<title>144</title>
<path fill="none" stroke="#56d8b9" stroke-width="2" d="M1230,-286C1230,-286 1111,-286 1111,-286 1105,-286 1099,-280 1099,-274 1099,-274 1099,-257 1099,-257 1099,-251 1105,-245 1111,-245 1111,-245 1230,-245 1230,-245 1236,-245 1242,-251 1242,-257 1242,-257 1242,-274 1242,-274 1242,-280 1236,-286 1230,-286"/>
<text text-anchor="middle" x="1170.5" y="-274" font-family="sans" font-size="10.00">inject_init_laplace_coords</text>
<text text-anchor="middle" x="1170.5" y="-263" font-family="sans" font-size="10.00">autotop: hipp</text>
<text text-anchor="middle" x="1170.5" y="-252" font-family="sans" font-size="10.00">dir: IO</text>
</g>
<!-- 144&#45;&gt;143 -->
<g id="edge29" class="edge">
<title>144&#45;&gt;143</title>
<path fill="none" stroke="grey" stroke-width="2" d="M1162.03,-244.69C1158.59,-236.65 1154.57,-227.24 1150.88,-218.61"/>
<polygon fill="grey" stroke="grey" stroke-width="2" points="1154.06,-217.14 1146.91,-209.32 1147.62,-219.89 1154.06,-217.14"/>
</g>
</g>
</svg>
