<?xml version="1.0" encoding="UTF-8" standalone="no"?>
<!DOCTYPE svg PUBLIC "-//W3C//DTD SVG 1.1//EN"
 "http://www.w3.org/Graphics/SVG/1.1/DTD/svg11.dtd">
<!-- Generated by graphviz version 2.43.0 (0)
 -->
<!-- Pages: 1 -->
<svg width="1345pt" height="239pt"
 viewBox="0.00 0.00 1344.50 239.00" xmlns="http://www.w3.org/2000/svg" xmlns:xlink="http://www.w3.org/1999/xlink">
<g id="graph0" class="graph" transform="scale(1 1) rotate(0) translate(4 235)">
<polygon fill="white" stroke="transparent" points="-4,4 -4,-235 1340.5,-235 1340.5,4 -4,4"/>
<g id="clust1" class="cluster">
<title>cluster_0</title>
<polygon fill="white" stroke="blue" points="104,-8 104,-155 937,-155 937,-8 104,-8"/>
<text text-anchor="middle" x="520.5" y="-139.8" font-family="Times,serif" font-size="14.00">qc</text>
</g>
<!-- 157 -->
<g id="node1" class="node">
<title>157</title>
<path fill="none" stroke="#56b9d8" stroke-width="2" d="M671,-126.5C671,-126.5 609,-126.5 609,-126.5 603,-126.5 597,-120.5 597,-114.5 597,-114.5 597,-97.5 597,-97.5 597,-91.5 603,-85.5 609,-85.5 609,-85.5 671,-85.5 671,-85.5 677,-85.5 683,-91.5 683,-97.5 683,-97.5 683,-114.5 683,-114.5 683,-120.5 677,-126.5 671,-126.5"/>
<text text-anchor="middle" x="640" y="-114.5" font-family="sans" font-size="10.00">qc_subfield</text>
<text text-anchor="middle" x="640" y="-103.5" font-family="sans" font-size="10.00">atlas: bigbrain</text>
<text text-anchor="middle" x="640" y="-92.5" font-family="sans" font-size="10.00">space: corobl</text>
</g>
<!-- 159 -->
<g id="node2" class="node">
<title>159</title>
<path fill="none" stroke="#56b9d8" stroke-width="2" d="M925,-126.5C925,-126.5 863,-126.5 863,-126.5 857,-126.5 851,-120.5 851,-114.5 851,-114.5 851,-97.5 851,-97.5 851,-91.5 857,-85.5 863,-85.5 863,-85.5 925,-85.5 925,-85.5 931,-85.5 937,-91.5 937,-97.5 937,-97.5 937,-114.5 937,-114.5 937,-120.5 931,-126.5 925,-126.5"/>
<text text-anchor="middle" x="894" y="-114.5" font-family="sans" font-size="10.00">qc_subfield</text>
<text text-anchor="middle" x="894" y="-103.5" font-family="sans" font-size="10.00">atlas: bigbrain</text>
<text text-anchor="middle" x="894" y="-92.5" font-family="sans" font-size="10.00">space: corobl</text>
</g>
<!-- 161 -->
<g id="node3" class="node">
<title>161</title>
<path fill="none" stroke="#d8b456" stroke-width="2" d="M197.5,-124C197.5,-124 116.5,-124 116.5,-124 110.5,-124 104.5,-118 104.5,-112 104.5,-112 104.5,-100 104.5,-100 104.5,-94 110.5,-88 116.5,-88 116.5,-88 197.5,-88 197.5,-88 203.5,-88 209.5,-94 209.5,-100 209.5,-100 209.5,-112 209.5,-112 209.5,-118 203.5,-124 197.5,-124"/>
<text text-anchor="middle" x="157" y="-109" font-family="sans" font-size="10.00">qc_subfield_surf</text>
<text text-anchor="middle" x="157" y="-98" font-family="sans" font-size="10.00">ref_spaces: corobl</text>
</g>
<!-- 162 -->
<g id="node4" class="node">
<title>162</title>
<path fill="none" stroke="#d8b456" stroke-width="2" d="M443.5,-124C443.5,-124 362.5,-124 362.5,-124 356.5,-124 350.5,-118 350.5,-112 350.5,-112 350.5,-100 350.5,-100 350.5,-94 356.5,-88 362.5,-88 362.5,-88 443.5,-88 443.5,-88 449.5,-88 455.5,-94 455.5,-100 455.5,-100 455.5,-112 455.5,-112 455.5,-118 449.5,-124 443.5,-124"/>
<text text-anchor="middle" x="403" y="-109" font-family="sans" font-size="10.00">qc_subfield_surf</text>
<text text-anchor="middle" x="403" y="-98" font-family="sans" font-size="10.00">ref_spaces: corobl</text>
</g>
<!-- 163 -->
<g id="node5" class="node">
<title>163</title>
<path fill="none" stroke="#d8b456" stroke-width="2" d="M320.5,-124C320.5,-124 239.5,-124 239.5,-124 233.5,-124 227.5,-118 227.5,-112 227.5,-112 227.5,-100 227.5,-100 227.5,-94 233.5,-88 239.5,-88 239.5,-88 320.5,-88 320.5,-88 326.5,-88 332.5,-94 332.5,-100 332.5,-100 332.5,-112 332.5,-112 332.5,-118 326.5,-124 320.5,-124"/>
<text text-anchor="middle" x="280" y="-109" font-family="sans" font-size="10.00">qc_subfield_surf</text>
<text text-anchor="middle" x="280" y="-98" font-family="sans" font-size="10.00">ref_spaces: corobl</text>
</g>
<!-- 164 -->
<g id="node6" class="node">
<title>164</title>
<path fill="none" stroke="#d8b456" stroke-width="2" d="M566.5,-124C566.5,-124 485.5,-124 485.5,-124 479.5,-124 473.5,-118 473.5,-112 473.5,-112 473.5,-100 473.5,-100 473.5,-94 479.5,-88 485.5,-88 485.5,-88 566.5,-88 566.5,-88 572.5,-88 578.5,-94 578.5,-100 578.5,-100 578.5,-112 578.5,-112 578.5,-118 572.5,-124 566.5,-124"/>
<text text-anchor="middle" x="526" y="-109" font-family="sans" font-size="10.00">qc_subfield_surf</text>
<text text-anchor="middle" x="526" y="-98" font-family="sans" font-size="10.00">ref_spaces: corobl</text>
</g>
<!-- 165 -->
<g id="node7" class="node">
<title>165</title>
<path fill="none" stroke="#68d856" stroke-width="2" d="M810,-44C810,-44 724,-44 724,-44 718,-44 712,-38 712,-32 712,-32 712,-20 712,-20 712,-14 718,-8 724,-8 724,-8 810,-8 810,-8 816,-8 822,-14 822,-20 822,-20 822,-32 822,-32 822,-38 816,-44 810,-44"/>
<text text-anchor="middle" x="767" y="-23.5" font-family="sans" font-size="10.00">plot_subj_subfields</text>
</g>
<!-- 166 -->
<g id="node8" class="node">
<title>166</title>
<path fill="none" stroke="#c6d856" stroke-width="2" d="M820.5,-132C820.5,-132 713.5,-132 713.5,-132 707.5,-132 701.5,-126 701.5,-120 701.5,-120 701.5,-92 701.5,-92 701.5,-86 707.5,-80 713.5,-80 713.5,-80 820.5,-80 820.5,-80 826.5,-80 832.5,-86 832.5,-92 832.5,-92 832.5,-120 832.5,-120 832.5,-126 826.5,-132 820.5,-132"/>
<text text-anchor="middle" x="767" y="-120" font-family="sans" font-size="10.00">get_subfield_vols_subj</text>
<text text-anchor="middle" x="767" y="-109" font-family="sans" font-size="10.00">atlas: bigbrain</text>
<text text-anchor="middle" x="767" y="-98" font-family="sans" font-size="10.00">crop_ref_spaces: corobl</text>
<text text-anchor="middle" x="767" y="-87" font-family="sans" font-size="10.00">subject: 001</text>
</g>
<!-- 166&#45;&gt;165 -->
<g id="edge1" class="edge">
<title>166&#45;&gt;165</title>
<path fill="none" stroke="grey" stroke-width="2" d="M767,-79.89C767,-71.84 767,-62.88 767,-54.66"/>
<polygon fill="grey" stroke="grey" stroke-width="2" points="770.5,-54.41 767,-44.41 763.5,-54.41 770.5,-54.41"/>
</g>
<!-- 5 -->
<g id="node9" class="node">
<title>5</title>
<path fill="none" stroke="#d8ac56" stroke-width="2" d="M106,-217.5C106,-217.5 12,-217.5 12,-217.5 6,-217.5 0,-211.5 0,-205.5 0,-205.5 0,-193.5 0,-193.5 0,-187.5 6,-181.5 12,-181.5 12,-181.5 106,-181.5 106,-181.5 112,-181.5 118,-187.5 118,-193.5 118,-193.5 118,-205.5 118,-205.5 118,-211.5 112,-217.5 106,-217.5"/>
<text text-anchor="middle" x="59" y="-197" font-family="sans" font-size="10.00">correct_nan_vertices</text>
</g>
<!-- 5&#45;&gt;161 -->
<g id="edge2" class="edge">
<title>5&#45;&gt;161</title>
<path fill="none" stroke="grey" stroke-width="2" d="M77.43,-181.29C92.63,-167.1 114.35,-146.82 131.26,-131.03"/>
<polygon fill="grey" stroke="grey" stroke-width="2" points="133.73,-133.52 138.65,-124.13 128.95,-128.4 133.73,-133.52"/>
</g>
<!-- 47 -->
<g id="node10" class="node">
<title>47</title>
<path fill="none" stroke="#d8ac56" stroke-width="2" d="M242,-217.5C242,-217.5 148,-217.5 148,-217.5 142,-217.5 136,-211.5 136,-205.5 136,-205.5 136,-193.5 136,-193.5 136,-187.5 142,-181.5 148,-181.5 148,-181.5 242,-181.5 242,-181.5 248,-181.5 254,-187.5 254,-193.5 254,-193.5 254,-205.5 254,-205.5 254,-211.5 248,-217.5 242,-217.5"/>
<text text-anchor="middle" x="195" y="-197" font-family="sans" font-size="10.00">correct_nan_vertices</text>
</g>
<!-- 47&#45;&gt;163 -->
<g id="edge3" class="edge">
<title>47&#45;&gt;163</title>
<path fill="none" stroke="grey" stroke-width="2" d="M210.99,-181.29C224.05,-167.23 242.67,-147.19 257.28,-131.46"/>
<polygon fill="grey" stroke="grey" stroke-width="2" points="259.84,-133.84 264.08,-124.13 254.71,-129.08 259.84,-133.84"/>
</g>
<!-- 85 -->
<g id="node11" class="node">
<title>85</title>
<path fill="none" stroke="#d8ac56" stroke-width="2" d="M378,-217.5C378,-217.5 284,-217.5 284,-217.5 278,-217.5 272,-211.5 272,-205.5 272,-205.5 272,-193.5 272,-193.5 272,-187.5 278,-181.5 284,-181.5 284,-181.5 378,-181.5 378,-181.5 384,-181.5 390,-187.5 390,-193.5 390,-193.5 390,-205.5 390,-205.5 390,-211.5 384,-217.5 378,-217.5"/>
<text text-anchor="middle" x="331" y="-197" font-family="sans" font-size="10.00">correct_nan_vertices</text>
</g>
<!-- 85&#45;&gt;162 -->
<g id="edge4" class="edge">
<title>85&#45;&gt;162</title>
<path fill="none" stroke="grey" stroke-width="2" d="M344.54,-181.29C355.4,-167.49 370.81,-147.91 383.07,-132.32"/>
<polygon fill="grey" stroke="grey" stroke-width="2" points="386.08,-134.16 389.52,-124.13 380.58,-129.83 386.08,-134.16"/>
</g>
<!-- 107 -->
<g id="node12" class="node">
<title>107</title>
<path fill="none" stroke="#d8ac56" stroke-width="2" d="M514,-217.5C514,-217.5 420,-217.5 420,-217.5 414,-217.5 408,-211.5 408,-205.5 408,-205.5 408,-193.5 408,-193.5 408,-187.5 414,-181.5 420,-181.5 420,-181.5 514,-181.5 514,-181.5 520,-181.5 526,-187.5 526,-193.5 526,-193.5 526,-205.5 526,-205.5 526,-211.5 520,-217.5 514,-217.5"/>
<text text-anchor="middle" x="467" y="-197" font-family="sans" font-size="10.00">correct_nan_vertices</text>
</g>
<!-- 107&#45;&gt;164 -->
<g id="edge5" class="edge">
<title>107&#45;&gt;164</title>
<path fill="none" stroke="grey" stroke-width="2" d="M478.1,-181.29C486.92,-167.61 499.39,-148.28 509.39,-132.76"/>
<polygon fill="grey" stroke="grey" stroke-width="2" points="512.47,-134.43 514.95,-124.13 506.59,-130.64 512.47,-134.43"/>
</g>
<!-- 123 -->
<g id="node13" class="node">
<title>123</title>
<path fill="none" stroke="#567bd8" stroke-width="2" d="M918.5,-231C918.5,-231 691.5,-231 691.5,-231 685.5,-231 679.5,-225 679.5,-219 679.5,-219 679.5,-180 679.5,-180 679.5,-174 685.5,-168 691.5,-168 691.5,-168 918.5,-168 918.5,-168 924.5,-168 930.5,-174 930.5,-180 930.5,-180 930.5,-219 930.5,-219 930.5,-225 924.5,-231 918.5,-231"/>
<text text-anchor="middle" x="805" y="-219" font-family="sans" font-size="10.00">copy_subfields_to_results</text>
<text text-anchor="middle" x="805" y="-208" font-family="sans" font-size="10.00">ext: nii.gz</text>
<text text-anchor="middle" x="805" y="-197" font-family="sans" font-size="10.00">post: atlas&#45;bigbrain_</text>
<text text-anchor="middle" x="805" y="-186" font-family="sans" font-size="10.00">pre: sub&#45;001/anat/sub&#45;001_hemi&#45;L_space&#45;corobl</text>
<text text-anchor="middle" x="805" y="-175" font-family="sans" font-size="10.00">suffix: dseg</text>
</g>
<!-- 123&#45;&gt;157 -->
<g id="edge6" class="edge">
<title>123&#45;&gt;157</title>
<path fill="none" stroke="grey" stroke-width="2" d="M715.84,-167.9C707.58,-163.97 699.5,-159.66 692,-155 682.61,-149.16 673.4,-141.49 665.39,-134.01"/>
<polygon fill="grey" stroke="grey" stroke-width="2" points="667.44,-131.12 657.83,-126.65 662.56,-136.14 667.44,-131.12"/>
</g>
<!-- 123&#45;&gt;166 -->
<g id="edge7" class="edge">
<title>123&#45;&gt;166</title>
<path fill="none" stroke="grey" stroke-width="2" d="M792.24,-167.78C788.73,-159.33 784.9,-150.11 781.31,-141.46"/>
<polygon fill="grey" stroke="grey" stroke-width="2" points="784.46,-139.91 777.39,-132.02 777.99,-142.6 784.46,-139.91"/>
</g>
<!-- 127 -->
<g id="node14" class="node">
<title>127</title>
<path fill="none" stroke="#567bd8" stroke-width="2" d="M1189,-231C1189,-231 961,-231 961,-231 955,-231 949,-225 949,-219 949,-219 949,-180 949,-180 949,-174 955,-168 961,-168 961,-168 1189,-168 1189,-168 1195,-168 1201,-174 1201,-180 1201,-180 1201,-219 1201,-219 1201,-225 1195,-231 1189,-231"/>
<text text-anchor="middle" x="1075" y="-219" font-family="sans" font-size="10.00">copy_subfields_to_results</text>
<text text-anchor="middle" x="1075" y="-208" font-family="sans" font-size="10.00">ext: nii.gz</text>
<text text-anchor="middle" x="1075" y="-197" font-family="sans" font-size="10.00">post: atlas&#45;bigbrain_</text>
<text text-anchor="middle" x="1075" y="-186" font-family="sans" font-size="10.00">pre: sub&#45;001/anat/sub&#45;001_hemi&#45;R_space&#45;corobl</text>
<text text-anchor="middle" x="1075" y="-175" font-family="sans" font-size="10.00">suffix: dseg</text>
</g>
<!-- 127&#45;&gt;159 -->
<g id="edge8" class="edge">
<title>127&#45;&gt;159</title>
<path fill="none" stroke="grey" stroke-width="2" d="M1014.48,-167.9C990.72,-155.9 963.86,-142.32 941.54,-131.03"/>
<polygon fill="grey" stroke="grey" stroke-width="2" points="943.09,-127.9 932.59,-126.51 939.94,-134.14 943.09,-127.9"/>
</g>
<!-- 127&#45;&gt;166 -->
<g id="edge9" class="edge">
<title>127&#45;&gt;166</title>
<path fill="none" stroke="grey" stroke-width="2" d="M948.75,-169.79C945.47,-169.17 942.22,-168.57 939,-168 896.18,-160.34 882.84,-169.97 842,-155 830.32,-150.72 818.57,-144.39 807.95,-137.72"/>
<polygon fill="grey" stroke="grey" stroke-width="2" points="809.61,-134.62 799.33,-132.07 805.78,-140.48 809.61,-134.62"/>
</g>
<!-- 158 -->
<g id="node15" class="node">
<title>158</title>
<path fill="none" stroke="#56c1d8" stroke-width="2" d="M649.5,-217.5C649.5,-217.5 556.5,-217.5 556.5,-217.5 550.5,-217.5 544.5,-211.5 544.5,-205.5 544.5,-205.5 544.5,-193.5 544.5,-193.5 544.5,-187.5 550.5,-181.5 556.5,-181.5 556.5,-181.5 649.5,-181.5 649.5,-181.5 655.5,-181.5 661.5,-187.5 661.5,-193.5 661.5,-193.5 661.5,-205.5 661.5,-205.5 661.5,-211.5 655.5,-217.5 649.5,-217.5"/>
<text text-anchor="middle" x="603" y="-197" font-family="sans" font-size="10.00">cp_b500_to_anat_dir</text>
</g>
<!-- 158&#45;&gt;157 -->
<g id="edge10" class="edge">
<title>158&#45;&gt;157</title>
<path fill="none" stroke="grey" stroke-width="2" d="M609.96,-181.29C615.11,-168.55 622.25,-150.89 628.28,-135.99"/>
<polygon fill="grey" stroke="grey" stroke-width="2" points="631.54,-137.26 632.04,-126.67 625.05,-134.63 631.54,-137.26"/>
</g>
<!-- 160 -->
<g id="node16" class="node">
<title>160</title>
<path fill="none" stroke="#56c1d8" stroke-width="2" d="M1324.5,-217.5C1324.5,-217.5 1231.5,-217.5 1231.5,-217.5 1225.5,-217.5 1219.5,-211.5 1219.5,-205.5 1219.5,-205.5 1219.5,-193.5 1219.5,-193.5 1219.5,-187.5 1225.5,-181.5 1231.5,-181.5 1231.5,-181.5 1324.5,-181.5 1324.5,-181.5 1330.5,-181.5 1336.5,-187.5 1336.5,-193.5 1336.5,-193.5 1336.5,-205.5 1336.5,-205.5 1336.5,-211.5 1330.5,-217.5 1324.5,-217.5"/>
<text text-anchor="middle" x="1278" y="-197" font-family="sans" font-size="10.00">cp_b500_to_anat_dir</text>
</g>
<!-- 160&#45;&gt;159 -->
<g id="edge11" class="edge">
<title>160&#45;&gt;159</title>
<path fill="none" stroke="grey" stroke-width="2" d="M1244.01,-181.4C1233.32,-176.54 1221.35,-171.59 1210,-168 1119.92,-139.53 1010.98,-122.05 947.39,-113.47"/>
<polygon fill="grey" stroke="grey" stroke-width="2" points="947.57,-109.97 937.2,-112.12 946.65,-116.91 947.57,-109.97"/>
</g>
</g>
</svg>
