<?xml version="1.0" encoding="UTF-8" standalone="no"?>
<!DOCTYPE svg PUBLIC "-//W3C//DTD SVG 1.1//EN"
 "http://www.w3.org/Graphics/SVG/1.1/DTD/svg11.dtd">
<!-- Generated by graphviz version 2.43.0 (0)
 -->
<!-- Pages: 1 -->
<svg width="2797pt" height="745pt"
 viewBox="0.00 0.00 2797.01 745.00" xmlns="http://www.w3.org/2000/svg" xmlns:xlink="http://www.w3.org/1999/xlink">
<g id="graph0" class="graph" transform="scale(1 1) rotate(0) translate(4 741)">
<polygon fill="white" stroke="transparent" points="-4,4 -4,-741 2793.01,-741 2793.01,4 -4,4"/>
<g id="clust1" class="cluster">
<title>cluster_0</title>
<polygon fill="white" stroke="blue" points="303.51,-8 303.51,-729 2521.51,-729 2521.51,-8 303.51,-8"/>
<text text-anchor="middle" x="1412.51" y="-713.8" font-family="Times,serif" font-size="14.00">gifti</text>
</g>
<!-- 1 -->
<g id="node1" class="node">
<title>1</title>
<path fill="none" stroke="#9fd856" stroke-width="2" d="M1392.51,-44C1392.51,-44 1308.51,-44 1308.51,-44 1302.51,-44 1296.51,-38 1296.51,-32 1296.51,-32 1296.51,-20 1296.51,-20 1296.51,-14 1302.51,-8 1308.51,-8 1308.51,-8 1392.51,-8 1392.51,-8 1398.51,-8 1404.51,-14 1404.51,-20 1404.51,-20 1404.51,-32 1404.51,-32 1404.51,-38 1398.51,-44 1392.51,-44"/>
<text text-anchor="middle" x="1350.51" y="-29" font-family="sans" font-size="10.00">merge_lr_spec_file</text>
<text text-anchor="middle" x="1350.51" y="-18" font-family="sans" font-size="10.00">autotop: hipp</text>
</g>
<!-- 2 -->
<g id="node2" class="node">
<title>2</title>
<path fill="none" stroke="#d86656" stroke-width="2" d="M1622.51,-116C1622.51,-116 1524.51,-116 1524.51,-116 1518.51,-116 1512.51,-110 1512.51,-104 1512.51,-104 1512.51,-92 1512.51,-92 1512.51,-86 1518.51,-80 1524.51,-80 1524.51,-80 1622.51,-80 1622.51,-80 1628.51,-80 1634.51,-86 1634.51,-92 1634.51,-92 1634.51,-104 1634.51,-104 1634.51,-110 1628.51,-116 1622.51,-116"/>
<text text-anchor="middle" x="1573.51" y="-101" font-family="sans" font-size="10.00">create_spec_file_hipp</text>
<text text-anchor="middle" x="1573.51" y="-90" font-family="sans" font-size="10.00">label: hipp</text>
</g>
<!-- 2&#45;&gt;1 -->
<g id="edge1" class="edge">
<title>2&#45;&gt;1</title>
<path fill="none" stroke="grey" stroke-width="2" d="M1519.24,-79.97C1487.56,-70.02 1447.42,-57.42 1414.24,-47.01"/>
<polygon fill="grey" stroke="grey" stroke-width="2" points="1415.22,-43.65 1404.63,-43.99 1413.13,-50.32 1415.22,-43.65"/>
</g>
<!-- 3 -->
<g id="node3" class="node">
<title>3</title>
<path fill="none" stroke="#bed856" stroke-width="2" d="M1709.01,-267.5C1709.01,-267.5 1612.01,-267.5 1612.01,-267.5 1606.01,-267.5 1600.01,-261.5 1600.01,-255.5 1600.01,-255.5 1600.01,-243.5 1600.01,-243.5 1600.01,-237.5 1606.01,-231.5 1612.01,-231.5 1612.01,-231.5 1709.01,-231.5 1709.01,-231.5 1715.01,-231.5 1721.01,-237.5 1721.01,-243.5 1721.01,-243.5 1721.01,-255.5 1721.01,-255.5 1721.01,-261.5 1715.01,-267.5 1709.01,-267.5"/>
<text text-anchor="middle" x="1660.51" y="-247" font-family="sans" font-size="10.00">calculate_gyrification</text>
</g>
<!-- 3&#45;&gt;2 -->
<g id="edge2" class="edge">
<title>3&#45;&gt;2</title>
<path fill="none" stroke="grey" stroke-width="2" d="M1658.69,-231.27C1655.89,-210.99 1649.13,-176.91 1633.51,-152 1626.52,-140.85 1616.49,-130.7 1606.63,-122.33"/>
<polygon fill="grey" stroke="grey" stroke-width="2" points="1608.8,-119.58 1598.82,-116.02 1604.4,-125.02 1608.8,-119.58"/>
</g>
<!-- 44 -->
<g id="node4" class="node">
<title>44</title>
<path fill="none" stroke="#88d856" stroke-width="2" d="M1589.51,-190.5C1589.51,-190.5 1465.51,-190.5 1465.51,-190.5 1459.51,-190.5 1453.51,-184.5 1453.51,-178.5 1453.51,-178.5 1453.51,-166.5 1453.51,-166.5 1453.51,-160.5 1459.51,-154.5 1465.51,-154.5 1465.51,-154.5 1589.51,-154.5 1589.51,-154.5 1595.51,-154.5 1601.51,-160.5 1601.51,-166.5 1601.51,-166.5 1601.51,-178.5 1601.51,-178.5 1601.51,-184.5 1595.51,-190.5 1589.51,-190.5"/>
<text text-anchor="middle" x="1527.51" y="-175.5" font-family="sans" font-size="10.00">create_dscalar_metric_cifti</text>
<text text-anchor="middle" x="1527.51" y="-164.5" font-family="sans" font-size="10.00">metric: gyrification</text>
</g>
<!-- 3&#45;&gt;44 -->
<g id="edge3" class="edge">
<title>3&#45;&gt;44</title>
<path fill="none" stroke="grey" stroke-width="2" d="M1630.33,-231.48C1611.51,-220.86 1587.08,-207.09 1566.75,-195.63"/>
<polygon fill="grey" stroke="grey" stroke-width="2" points="1568.46,-192.57 1558.03,-190.71 1565.02,-198.67 1568.46,-192.57"/>
</g>
<!-- 44&#45;&gt;2 -->
<g id="edge27" class="edge">
<title>44&#45;&gt;2</title>
<path fill="none" stroke="grey" stroke-width="2" d="M1538.41,-154.32C1544.03,-145.47 1550.99,-134.5 1557.22,-124.67"/>
<polygon fill="grey" stroke="grey" stroke-width="2" points="1560.29,-126.38 1562.69,-116.06 1554.38,-122.63 1560.29,-126.38"/>
</g>
<!-- 78 -->
<g id="node25" class="node">
<title>78</title>
<path fill="none" stroke="#d86656" stroke-width="2" d="M1120.51,-116C1120.51,-116 1022.51,-116 1022.51,-116 1016.51,-116 1010.51,-110 1010.51,-104 1010.51,-104 1010.51,-92 1010.51,-92 1010.51,-86 1016.51,-80 1022.51,-80 1022.51,-80 1120.51,-80 1120.51,-80 1126.51,-80 1132.51,-86 1132.51,-92 1132.51,-92 1132.51,-104 1132.51,-104 1132.51,-110 1126.51,-116 1120.51,-116"/>
<text text-anchor="middle" x="1071.51" y="-101" font-family="sans" font-size="10.00">create_spec_file_hipp</text>
<text text-anchor="middle" x="1071.51" y="-90" font-family="sans" font-size="10.00">label: hipp</text>
</g>
<!-- 44&#45;&gt;78 -->
<g id="edge28" class="edge">
<title>44&#45;&gt;78</title>
<path fill="none" stroke="grey" stroke-width="2" d="M1456.97,-154.47C1452.76,-153.6 1448.58,-152.77 1444.51,-152 1340.14,-132.37 1218.12,-116.32 1142.82,-107.2"/>
<polygon fill="grey" stroke="grey" stroke-width="2" points="1142.86,-103.68 1132.52,-105.97 1142.03,-110.63 1142.86,-103.68"/>
</g>
<!-- 4 -->
<g id="node5" class="node">
<title>4</title>
<path fill="none" stroke="#61d856" stroke-width="2" d="M1700.01,-342C1700.01,-342 1595.01,-342 1595.01,-342 1589.01,-342 1583.01,-336 1583.01,-330 1583.01,-330 1583.01,-318 1583.01,-318 1583.01,-312 1589.01,-306 1595.01,-306 1595.01,-306 1700.01,-306 1700.01,-306 1706.01,-306 1712.01,-312 1712.01,-318 1712.01,-318 1712.01,-330 1712.01,-330 1712.01,-336 1706.01,-342 1700.01,-342"/>
<text text-anchor="middle" x="1647.51" y="-327" font-family="sans" font-size="10.00">calculate_surface_area</text>
<text text-anchor="middle" x="1647.51" y="-316" font-family="sans" font-size="10.00">space: corobl</text>
</g>
<!-- 4&#45;&gt;3 -->
<g id="edge4" class="edge">
<title>4&#45;&gt;3</title>
<path fill="none" stroke="grey" stroke-width="2" d="M1650.59,-305.82C1652.1,-297.42 1653.95,-287.12 1655.64,-277.69"/>
<polygon fill="grey" stroke="grey" stroke-width="2" points="1659.13,-278.02 1657.45,-267.56 1652.24,-276.78 1659.13,-278.02"/>
</g>
<!-- 5 -->
<g id="node6" class="node">
<title>5</title>
<path fill="none" stroke="#d8ac56" stroke-width="2" d="M1620.51,-414C1620.51,-414 1526.51,-414 1526.51,-414 1520.51,-414 1514.51,-408 1514.51,-402 1514.51,-402 1514.51,-390 1514.51,-390 1514.51,-384 1520.51,-378 1526.51,-378 1526.51,-378 1620.51,-378 1620.51,-378 1626.51,-378 1632.51,-384 1632.51,-390 1632.51,-390 1632.51,-402 1632.51,-402 1632.51,-408 1626.51,-414 1620.51,-414"/>
<text text-anchor="middle" x="1573.51" y="-393.5" font-family="sans" font-size="10.00">correct_nan_vertices</text>
</g>
<!-- 5&#45;&gt;2 -->
<g id="edge5" class="edge">
<title>5&#45;&gt;2</title>
<path fill="none" stroke="grey" stroke-width="2" d="M1632.61,-388.64C1663.82,-382.09 1700.01,-368.83 1721.51,-342 1741.68,-316.84 1728.51,-302.19 1730.51,-270 1731.64,-251.81 1737.85,-245.68 1730.51,-229 1710.12,-182.64 1685.73,-184.04 1646.51,-152 1634,-141.78 1619.71,-131.18 1607.11,-122.18"/>
<polygon fill="grey" stroke="grey" stroke-width="2" points="1608.89,-119.15 1598.71,-116.22 1604.84,-124.86 1608.89,-119.15"/>
</g>
<!-- 5&#45;&gt;4 -->
<g id="edge6" class="edge">
<title>5&#45;&gt;4</title>
<path fill="none" stroke="grey" stroke-width="2" d="M1591.8,-377.7C1600.94,-369.05 1612.15,-358.45 1622.11,-349.03"/>
<polygon fill="grey" stroke="grey" stroke-width="2" points="1624.57,-351.52 1629.43,-342.1 1619.76,-346.43 1624.57,-351.52"/>
</g>
<!-- 32 -->
<g id="node7" class="node">
<title>32</title>
<path fill="none" stroke="#b6d856" stroke-width="2" d="M1535.01,-342C1535.01,-342 1464.01,-342 1464.01,-342 1458.01,-342 1452.01,-336 1452.01,-330 1452.01,-330 1452.01,-318 1452.01,-318 1452.01,-312 1458.01,-306 1464.01,-306 1464.01,-306 1535.01,-306 1535.01,-306 1541.01,-306 1547.01,-312 1547.01,-318 1547.01,-318 1547.01,-330 1547.01,-330 1547.01,-336 1541.01,-342 1535.01,-342"/>
<text text-anchor="middle" x="1499.51" y="-327" font-family="sans" font-size="10.00">smooth_surface</text>
<text text-anchor="middle" x="1499.51" y="-316" font-family="sans" font-size="10.00">space: corobl</text>
</g>
<!-- 5&#45;&gt;32 -->
<g id="edge7" class="edge">
<title>5&#45;&gt;32</title>
<path fill="none" stroke="grey" stroke-width="2" d="M1555.22,-377.7C1546.08,-369.05 1534.87,-358.45 1524.91,-349.03"/>
<polygon fill="grey" stroke="grey" stroke-width="2" points="1527.26,-346.43 1517.59,-342.1 1522.45,-351.52 1527.26,-346.43"/>
</g>
<!-- 31 -->
<g id="node11" class="node">
<title>31</title>
<path fill="none" stroke="#80d856" stroke-width="2" d="M1569.51,-267.5C1569.51,-267.5 1411.51,-267.5 1411.51,-267.5 1405.51,-267.5 1399.51,-261.5 1399.51,-255.5 1399.51,-255.5 1399.51,-243.5 1399.51,-243.5 1399.51,-237.5 1405.51,-231.5 1411.51,-231.5 1411.51,-231.5 1569.51,-231.5 1569.51,-231.5 1575.51,-231.5 1581.51,-237.5 1581.51,-243.5 1581.51,-243.5 1581.51,-255.5 1581.51,-255.5 1581.51,-261.5 1575.51,-267.5 1569.51,-267.5"/>
<text text-anchor="middle" x="1490.51" y="-247" font-family="sans" font-size="10.00">calculate_curvature_from_surface</text>
</g>
<!-- 32&#45;&gt;31 -->
<g id="edge14" class="edge">
<title>32&#45;&gt;31</title>
<path fill="none" stroke="grey" stroke-width="2" d="M1497.38,-305.82C1496.34,-297.42 1495.06,-287.12 1493.89,-277.69"/>
<polygon fill="grey" stroke="grey" stroke-width="2" points="1497.33,-277.05 1492.63,-267.56 1490.39,-277.91 1497.33,-277.05"/>
</g>
<!-- 6 -->
<g id="node8" class="node">
<title>6</title>
<path fill="none" stroke="#5692d8" stroke-width="2" d="M1519.01,-486C1519.01,-486 1412.01,-486 1412.01,-486 1406.01,-486 1400.01,-480 1400.01,-474 1400.01,-474 1400.01,-462 1400.01,-462 1400.01,-456 1406.01,-450 1412.01,-450 1412.01,-450 1519.01,-450 1519.01,-450 1525.01,-450 1531.01,-456 1531.01,-462 1531.01,-462 1531.01,-474 1531.01,-474 1531.01,-480 1525.01,-486 1519.01,-486"/>
<text text-anchor="middle" x="1465.51" y="-465.5" font-family="sans" font-size="10.00">warp_gii_unfold2native</text>
</g>
<!-- 6&#45;&gt;5 -->
<g id="edge8" class="edge">
<title>6&#45;&gt;5</title>
<path fill="none" stroke="grey" stroke-width="2" d="M1491.93,-449.88C1505.92,-440.81 1523.29,-429.55 1538.4,-419.76"/>
<polygon fill="grey" stroke="grey" stroke-width="2" points="1540.5,-422.57 1546.99,-414.19 1536.7,-416.69 1540.5,-422.57"/>
</g>
<!-- 29 -->
<g id="node9" class="node">
<title>29</title>
<path fill="none" stroke="#bed856" stroke-width="2" d="M1518.51,-577C1518.51,-577 1412.51,-577 1412.51,-577 1406.51,-577 1400.51,-571 1400.51,-565 1400.51,-565 1400.51,-553 1400.51,-553 1400.51,-547 1406.51,-541 1412.51,-541 1412.51,-541 1518.51,-541 1518.51,-541 1524.51,-541 1530.51,-547 1530.51,-553 1530.51,-553 1530.51,-565 1530.51,-565 1530.51,-571 1524.51,-577 1518.51,-577"/>
<text text-anchor="middle" x="1465.51" y="-556.5" font-family="sans" font-size="10.00">constrain_surf_to_bbox</text>
</g>
<!-- 29&#45;&gt;6 -->
<g id="edge9" class="edge">
<title>29&#45;&gt;6</title>
<path fill="none" stroke="grey" stroke-width="2" d="M1465.51,-540.84C1465.51,-528.28 1465.51,-510.98 1465.51,-496.5"/>
<polygon fill="grey" stroke="grey" stroke-width="2" points="1469.01,-496.11 1465.51,-486.11 1462.01,-496.11 1469.01,-496.11"/>
</g>
<!-- 30 -->
<g id="node10" class="node">
<title>30</title>
<path fill="none" stroke="#d87556" stroke-width="2" d="M1668.51,-706C1668.51,-706 1558.51,-706 1558.51,-706 1552.51,-706 1546.51,-700 1546.51,-694 1546.51,-694 1546.51,-644 1546.51,-644 1546.51,-638 1552.51,-632 1558.51,-632 1558.51,-632 1668.51,-632 1668.51,-632 1674.51,-632 1680.51,-638 1680.51,-644 1680.51,-644 1680.51,-694 1680.51,-694 1680.51,-700 1674.51,-706 1668.51,-706"/>
<text text-anchor="middle" x="1613.51" y="-694" font-family="sans" font-size="10.00">cp_template_to_unfold</text>
<text text-anchor="middle" x="1613.51" y="-683" font-family="sans" font-size="10.00">autotop: hipp</text>
<text text-anchor="middle" x="1613.51" y="-672" font-family="sans" font-size="10.00">density: 0p5mm</text>
<text text-anchor="middle" x="1613.51" y="-661" font-family="sans" font-size="10.00">hemi: L</text>
<text text-anchor="middle" x="1613.51" y="-650" font-family="sans" font-size="10.00">subject: 001</text>
<text text-anchor="middle" x="1613.51" y="-639" font-family="sans" font-size="10.00">surfname: midthickness</text>
</g>
<!-- 30&#45;&gt;2 -->
<g id="edge10" class="edge">
<title>30&#45;&gt;2</title>
<path fill="none" stroke="grey" stroke-width="2" d="M1662.46,-631.99C1705.22,-596 1760.51,-536.44 1760.51,-469 1760.51,-469 1760.51,-469 1760.51,-248.5 1760.51,-183.61 1690.96,-142.26 1636.69,-119.88"/>
<polygon fill="grey" stroke="grey" stroke-width="2" points="1637.68,-116.51 1627.1,-116.05 1635.09,-123.01 1637.68,-116.51"/>
</g>
<!-- 30&#45;&gt;29 -->
<g id="edge11" class="edge">
<title>30&#45;&gt;29</title>
<path fill="none" stroke="grey" stroke-width="2" d="M1563.82,-631.74C1541.87,-615.72 1516.72,-597.37 1497.35,-583.23"/>
<polygon fill="grey" stroke="grey" stroke-width="2" points="1499.3,-580.32 1489.16,-577.26 1495.17,-585.98 1499.3,-580.32"/>
</g>
<!-- 31&#45;&gt;2 -->
<g id="edge12" class="edge">
<title>31&#45;&gt;2</title>
<path fill="none" stroke="grey" stroke-width="2" d="M1574.34,-231.39C1594.39,-223.17 1613.45,-211 1625.51,-193 1635.66,-177.86 1632.4,-168.87 1625.51,-152 1621.02,-141.02 1613.04,-131.08 1604.66,-122.86"/>
<polygon fill="grey" stroke="grey" stroke-width="2" points="1607,-120.26 1597.26,-116.09 1602.28,-125.42 1607,-120.26"/>
</g>
<!-- 65 -->
<g id="node12" class="node">
<title>65</title>
<path fill="none" stroke="#88d856" stroke-width="2" d="M1423.51,-190.5C1423.51,-190.5 1299.51,-190.5 1299.51,-190.5 1293.51,-190.5 1287.51,-184.5 1287.51,-178.5 1287.51,-178.5 1287.51,-166.5 1287.51,-166.5 1287.51,-160.5 1293.51,-154.5 1299.51,-154.5 1299.51,-154.5 1423.51,-154.5 1423.51,-154.5 1429.51,-154.5 1435.51,-160.5 1435.51,-166.5 1435.51,-166.5 1435.51,-178.5 1435.51,-178.5 1435.51,-184.5 1429.51,-190.5 1423.51,-190.5"/>
<text text-anchor="middle" x="1361.51" y="-175.5" font-family="sans" font-size="10.00">create_dscalar_metric_cifti</text>
<text text-anchor="middle" x="1361.51" y="-164.5" font-family="sans" font-size="10.00">metric: curvature</text>
</g>
<!-- 31&#45;&gt;65 -->
<g id="edge13" class="edge">
<title>31&#45;&gt;65</title>
<path fill="none" stroke="grey" stroke-width="2" d="M1461.24,-231.48C1443.06,-220.91 1419.5,-207.21 1399.84,-195.78"/>
<polygon fill="grey" stroke="grey" stroke-width="2" points="1401.52,-192.71 1391.11,-190.71 1398,-198.76 1401.52,-192.71"/>
</g>
<!-- 65&#45;&gt;2 -->
<g id="edge39" class="edge">
<title>65&#45;&gt;2</title>
<path fill="none" stroke="grey" stroke-width="2" d="M1411.48,-154.41C1442.1,-143.94 1481.48,-130.47 1513.74,-119.44"/>
<polygon fill="grey" stroke="grey" stroke-width="2" points="1515.18,-122.65 1523.51,-116.1 1512.91,-116.02 1515.18,-122.65"/>
</g>
<!-- 65&#45;&gt;78 -->
<g id="edge40" class="edge">
<title>65&#45;&gt;78</title>
<path fill="none" stroke="grey" stroke-width="2" d="M1293.15,-154.41C1247.91,-143.1 1188.7,-128.3 1142.86,-116.84"/>
<polygon fill="grey" stroke="grey" stroke-width="2" points="1143.55,-113.4 1133,-114.37 1141.85,-120.19 1143.55,-113.4"/>
</g>
<!-- 33 -->
<g id="node13" class="node">
<title>33</title>
<path fill="none" stroke="#d8c356" stroke-width="2" d="M1349.51,-267.5C1349.51,-267.5 1191.51,-267.5 1191.51,-267.5 1185.51,-267.5 1179.51,-261.5 1179.51,-255.5 1179.51,-255.5 1179.51,-243.5 1179.51,-243.5 1179.51,-237.5 1185.51,-231.5 1191.51,-231.5 1191.51,-231.5 1349.51,-231.5 1349.51,-231.5 1355.51,-231.5 1361.51,-237.5 1361.51,-243.5 1361.51,-243.5 1361.51,-255.5 1361.51,-255.5 1361.51,-261.5 1355.51,-267.5 1349.51,-267.5"/>
<text text-anchor="middle" x="1270.51" y="-252.5" font-family="sans" font-size="10.00">calculate_thickness_from_surface</text>
<text text-anchor="middle" x="1270.51" y="-241.5" font-family="sans" font-size="10.00">space: corobl</text>
</g>
<!-- 33&#45;&gt;2 -->
<g id="edge15" class="edge">
<title>33&#45;&gt;2</title>
<path fill="none" stroke="grey" stroke-width="2" d="M1361.58,-233.68C1462.25,-217.29 1610.38,-193.15 1610.51,-193 1627.48,-173.03 1612.04,-144.35 1596.24,-123.93"/>
<polygon fill="grey" stroke="grey" stroke-width="2" points="1598.8,-121.54 1589.77,-116.01 1593.38,-125.97 1598.8,-121.54"/>
</g>
<!-- 68 -->
<g id="node14" class="node">
<title>68</title>
<path fill="none" stroke="#88d856" stroke-width="2" d="M1237.51,-190.5C1237.51,-190.5 1113.51,-190.5 1113.51,-190.5 1107.51,-190.5 1101.51,-184.5 1101.51,-178.5 1101.51,-178.5 1101.51,-166.5 1101.51,-166.5 1101.51,-160.5 1107.51,-154.5 1113.51,-154.5 1113.51,-154.5 1237.51,-154.5 1237.51,-154.5 1243.51,-154.5 1249.51,-160.5 1249.51,-166.5 1249.51,-166.5 1249.51,-178.5 1249.51,-178.5 1249.51,-184.5 1243.51,-190.5 1237.51,-190.5"/>
<text text-anchor="middle" x="1175.51" y="-175.5" font-family="sans" font-size="10.00">create_dscalar_metric_cifti</text>
<text text-anchor="middle" x="1175.51" y="-164.5" font-family="sans" font-size="10.00">metric: thickness</text>
</g>
<!-- 33&#45;&gt;68 -->
<g id="edge16" class="edge">
<title>33&#45;&gt;68</title>
<path fill="none" stroke="grey" stroke-width="2" d="M1248.95,-231.48C1236.05,-221.29 1219.46,-208.2 1205.31,-197.03"/>
<polygon fill="grey" stroke="grey" stroke-width="2" points="1207.33,-194.16 1197.31,-190.71 1202.99,-199.65 1207.33,-194.16"/>
</g>
<!-- 68&#45;&gt;2 -->
<g id="edge44" class="edge">
<title>68&#45;&gt;2</title>
<path fill="none" stroke="grey" stroke-width="2" d="M1249.76,-157.36C1259.43,-155.54 1269.21,-153.72 1278.51,-152 1354.94,-137.9 1442.6,-122.21 1502.38,-111.59"/>
<polygon fill="grey" stroke="grey" stroke-width="2" points="1503.23,-114.99 1512.46,-109.8 1502,-108.1 1503.23,-114.99"/>
</g>
<!-- 68&#45;&gt;78 -->
<g id="edge45" class="edge">
<title>68&#45;&gt;78</title>
<path fill="none" stroke="grey" stroke-width="2" d="M1150.87,-154.32C1137.01,-144.66 1119.52,-132.47 1104.5,-122"/>
<polygon fill="grey" stroke="grey" stroke-width="2" points="1106.19,-118.91 1095.98,-116.06 1102.18,-124.65 1106.19,-118.91"/>
</g>
<!-- 34 -->
<g id="node15" class="node">
<title>34</title>
<path fill="none" stroke="#d8ac56" stroke-width="2" d="M1342.51,-342C1342.51,-342 1248.51,-342 1248.51,-342 1242.51,-342 1236.51,-336 1236.51,-330 1236.51,-330 1236.51,-318 1236.51,-318 1236.51,-312 1242.51,-306 1248.51,-306 1248.51,-306 1342.51,-306 1342.51,-306 1348.51,-306 1354.51,-312 1354.51,-318 1354.51,-318 1354.51,-330 1354.51,-330 1354.51,-336 1348.51,-342 1342.51,-342"/>
<text text-anchor="middle" x="1295.51" y="-321.5" font-family="sans" font-size="10.00">correct_nan_vertices</text>
</g>
<!-- 34&#45;&gt;33 -->
<g id="edge17" class="edge">
<title>34&#45;&gt;33</title>
<path fill="none" stroke="grey" stroke-width="2" d="M1289.59,-305.82C1286.63,-297.24 1282.98,-286.67 1279.68,-277.08"/>
<polygon fill="grey" stroke="grey" stroke-width="2" points="1282.96,-275.87 1276.39,-267.56 1276.35,-278.15 1282.96,-275.87"/>
</g>
<!-- 35 -->
<g id="node16" class="node">
<title>35</title>
<path fill="none" stroke="#5692d8" stroke-width="2" d="M1349.01,-414C1349.01,-414 1242.01,-414 1242.01,-414 1236.01,-414 1230.01,-408 1230.01,-402 1230.01,-402 1230.01,-390 1230.01,-390 1230.01,-384 1236.01,-378 1242.01,-378 1242.01,-378 1349.01,-378 1349.01,-378 1355.01,-378 1361.01,-384 1361.01,-390 1361.01,-390 1361.01,-402 1361.01,-402 1361.01,-408 1355.01,-414 1349.01,-414"/>
<text text-anchor="middle" x="1295.51" y="-393.5" font-family="sans" font-size="10.00">warp_gii_unfold2native</text>
</g>
<!-- 35&#45;&gt;34 -->
<g id="edge18" class="edge">
<title>35&#45;&gt;34</title>
<path fill="none" stroke="grey" stroke-width="2" d="M1295.51,-377.7C1295.51,-369.98 1295.51,-360.71 1295.51,-352.11"/>
<polygon fill="grey" stroke="grey" stroke-width="2" points="1299.01,-352.1 1295.51,-342.1 1292.01,-352.1 1299.01,-352.1"/>
</g>
<!-- 36 -->
<g id="node17" class="node">
<title>36</title>
<path fill="none" stroke="#bed856" stroke-width="2" d="M1667.51,-486C1667.51,-486 1561.51,-486 1561.51,-486 1555.51,-486 1549.51,-480 1549.51,-474 1549.51,-474 1549.51,-462 1549.51,-462 1549.51,-456 1555.51,-450 1561.51,-450 1561.51,-450 1667.51,-450 1667.51,-450 1673.51,-450 1679.51,-456 1679.51,-462 1679.51,-462 1679.51,-474 1679.51,-474 1679.51,-480 1673.51,-486 1667.51,-486"/>
<text text-anchor="middle" x="1614.51" y="-465.5" font-family="sans" font-size="10.00">constrain_surf_to_bbox</text>
</g>
<!-- 36&#45;&gt;35 -->
<g id="edge19" class="edge">
<title>36&#45;&gt;35</title>
<path fill="none" stroke="grey" stroke-width="2" d="M1549.15,-451.94C1546.23,-451.28 1543.34,-450.63 1540.51,-450 1483.69,-437.33 1419.34,-423.43 1370.86,-413.04"/>
<polygon fill="grey" stroke="grey" stroke-width="2" points="1371.58,-409.62 1361.07,-410.95 1370.12,-416.46 1371.58,-409.62"/>
</g>
<!-- 37 -->
<g id="node18" class="node">
<title>37</title>
<path fill="none" stroke="#d87556" stroke-width="2" d="M1666.51,-596C1666.51,-596 1562.51,-596 1562.51,-596 1556.51,-596 1550.51,-590 1550.51,-584 1550.51,-584 1550.51,-534 1550.51,-534 1550.51,-528 1556.51,-522 1562.51,-522 1562.51,-522 1666.51,-522 1666.51,-522 1672.51,-522 1678.51,-528 1678.51,-534 1678.51,-534 1678.51,-584 1678.51,-584 1678.51,-590 1672.51,-596 1666.51,-596"/>
<text text-anchor="middle" x="1614.51" y="-584" font-family="sans" font-size="10.00">cp_template_to_unfold</text>
<text text-anchor="middle" x="1614.51" y="-573" font-family="sans" font-size="10.00">autotop: hipp</text>
<text text-anchor="middle" x="1614.51" y="-562" font-family="sans" font-size="10.00">density: 0p5mm</text>
<text text-anchor="middle" x="1614.51" y="-551" font-family="sans" font-size="10.00">hemi: L</text>
<text text-anchor="middle" x="1614.51" y="-540" font-family="sans" font-size="10.00">subject: 001</text>
<text text-anchor="middle" x="1614.51" y="-529" font-family="sans" font-size="10.00">surfname: inner</text>
</g>
<!-- 37&#45;&gt;36 -->
<g id="edge20" class="edge">
<title>37&#45;&gt;36</title>
<path fill="none" stroke="grey" stroke-width="2" d="M1614.51,-521.8C1614.51,-513.33 1614.51,-504.44 1614.51,-496.43"/>
<polygon fill="grey" stroke="grey" stroke-width="2" points="1618.01,-496.16 1614.51,-486.16 1611.01,-496.16 1618.01,-496.16"/>
</g>
<!-- 38 -->
<g id="node19" class="node">
<title>38</title>
<path fill="none" stroke="#d8ac56" stroke-width="2" d="M1206.51,-342C1206.51,-342 1112.51,-342 1112.51,-342 1106.51,-342 1100.51,-336 1100.51,-330 1100.51,-330 1100.51,-318 1100.51,-318 1100.51,-312 1106.51,-306 1112.51,-306 1112.51,-306 1206.51,-306 1206.51,-306 1212.51,-306 1218.51,-312 1218.51,-318 1218.51,-318 1218.51,-330 1218.51,-330 1218.51,-336 1212.51,-342 1206.51,-342"/>
<text text-anchor="middle" x="1159.51" y="-321.5" font-family="sans" font-size="10.00">correct_nan_vertices</text>
</g>
<!-- 38&#45;&gt;33 -->
<g id="edge21" class="edge">
<title>38&#45;&gt;33</title>
<path fill="none" stroke="grey" stroke-width="2" d="M1185.82,-305.82C1200.75,-296.07 1219.62,-283.74 1235.75,-273.2"/>
<polygon fill="grey" stroke="grey" stroke-width="2" points="1237.94,-275.96 1244.4,-267.56 1234.11,-270.1 1237.94,-275.96"/>
</g>
<!-- 39 -->
<g id="node20" class="node">
<title>39</title>
<path fill="none" stroke="#5692d8" stroke-width="2" d="M1032.01,-414C1032.01,-414 925.01,-414 925.01,-414 919.01,-414 913.01,-408 913.01,-402 913.01,-402 913.01,-390 913.01,-390 913.01,-384 919.01,-378 925.01,-378 925.01,-378 1032.01,-378 1032.01,-378 1038.01,-378 1044.01,-384 1044.01,-390 1044.01,-390 1044.01,-402 1044.01,-402 1044.01,-408 1038.01,-414 1032.01,-414"/>
<text text-anchor="middle" x="978.51" y="-393.5" font-family="sans" font-size="10.00">warp_gii_unfold2native</text>
</g>
<!-- 39&#45;&gt;38 -->
<g id="edge22" class="edge">
<title>39&#45;&gt;38</title>
<path fill="none" stroke="grey" stroke-width="2" d="M1022.79,-377.88C1047.86,-368.18 1079.41,-355.98 1105.88,-345.74"/>
<polygon fill="grey" stroke="grey" stroke-width="2" points="1107.31,-348.94 1115.38,-342.07 1104.79,-342.41 1107.31,-348.94"/>
</g>
<!-- 40 -->
<g id="node21" class="node">
<title>40</title>
<path fill="none" stroke="#bed856" stroke-width="2" d="M1031.51,-486C1031.51,-486 925.51,-486 925.51,-486 919.51,-486 913.51,-480 913.51,-474 913.51,-474 913.51,-462 913.51,-462 913.51,-456 919.51,-450 925.51,-450 925.51,-450 1031.51,-450 1031.51,-450 1037.51,-450 1043.51,-456 1043.51,-462 1043.51,-462 1043.51,-474 1043.51,-474 1043.51,-480 1037.51,-486 1031.51,-486"/>
<text text-anchor="middle" x="978.51" y="-465.5" font-family="sans" font-size="10.00">constrain_surf_to_bbox</text>
</g>
<!-- 40&#45;&gt;39 -->
<g id="edge23" class="edge">
<title>40&#45;&gt;39</title>
<path fill="none" stroke="grey" stroke-width="2" d="M978.51,-449.7C978.51,-441.98 978.51,-432.71 978.51,-424.11"/>
<polygon fill="grey" stroke="grey" stroke-width="2" points="982.01,-424.1 978.51,-414.1 975.01,-424.1 982.01,-424.1"/>
</g>
<!-- 41 -->
<g id="node22" class="node">
<title>41</title>
<path fill="none" stroke="#d87556" stroke-width="2" d="M1030.51,-596C1030.51,-596 926.51,-596 926.51,-596 920.51,-596 914.51,-590 914.51,-584 914.51,-584 914.51,-534 914.51,-534 914.51,-528 920.51,-522 926.51,-522 926.51,-522 1030.51,-522 1030.51,-522 1036.51,-522 1042.51,-528 1042.51,-534 1042.51,-534 1042.51,-584 1042.51,-584 1042.51,-590 1036.51,-596 1030.51,-596"/>
<text text-anchor="middle" x="978.51" y="-584" font-family="sans" font-size="10.00">cp_template_to_unfold</text>
<text text-anchor="middle" x="978.51" y="-573" font-family="sans" font-size="10.00">autotop: hipp</text>
<text text-anchor="middle" x="978.51" y="-562" font-family="sans" font-size="10.00">density: 0p5mm</text>
<text text-anchor="middle" x="978.51" y="-551" font-family="sans" font-size="10.00">hemi: L</text>
<text text-anchor="middle" x="978.51" y="-540" font-family="sans" font-size="10.00">subject: 001</text>
<text text-anchor="middle" x="978.51" y="-529" font-family="sans" font-size="10.00">surfname: outer</text>
</g>
<!-- 41&#45;&gt;40 -->
<g id="edge24" class="edge">
<title>41&#45;&gt;40</title>
<path fill="none" stroke="grey" stroke-width="2" d="M978.51,-521.8C978.51,-513.33 978.51,-504.44 978.51,-496.43"/>
<polygon fill="grey" stroke="grey" stroke-width="2" points="982.01,-496.16 978.51,-486.16 975.01,-496.16 982.01,-496.16"/>
</g>
<!-- 42 -->
<g id="node23" class="node">
<title>42</title>
<path fill="none" stroke="#56d87b" stroke-width="2" d="M1071.01,-193C1071.01,-193 1000.01,-193 1000.01,-193 994.01,-193 988.01,-187 988.01,-181 988.01,-181 988.01,-164 988.01,-164 988.01,-158 994.01,-152 1000.01,-152 1000.01,-152 1071.01,-152 1071.01,-152 1077.01,-152 1083.01,-158 1083.01,-164 1083.01,-164 1083.01,-181 1083.01,-181 1083.01,-187 1077.01,-193 1071.01,-193"/>
<text text-anchor="middle" x="1035.51" y="-181" font-family="sans" font-size="10.00">nii_to_label_gii</text>
<text text-anchor="middle" x="1035.51" y="-170" font-family="sans" font-size="10.00">density: 0p5mm</text>
<text text-anchor="middle" x="1035.51" y="-159" font-family="sans" font-size="10.00">space: corobl</text>
</g>
<!-- 42&#45;&gt;2 -->
<g id="edge25" class="edge">
<title>42&#45;&gt;2</title>
<path fill="none" stroke="grey" stroke-width="2" d="M1083.19,-154.34C1086.32,-153.48 1089.45,-152.68 1092.51,-152 1235.9,-119.98 1407.84,-106.98 1502.42,-101.95"/>
<polygon fill="grey" stroke="grey" stroke-width="2" points="1502.64,-105.44 1512.44,-101.43 1502.28,-98.45 1502.64,-105.44"/>
</g>
<!-- 43 -->
<g id="node24" class="node">
<title>43</title>
<path fill="none" stroke="#56d85b" stroke-width="2" d="M589.51,-270C589.51,-270 473.51,-270 473.51,-270 467.51,-270 461.51,-264 461.51,-258 461.51,-258 461.51,-241 461.51,-241 461.51,-235 467.51,-229 473.51,-229 473.51,-229 589.51,-229 589.51,-229 595.51,-229 601.51,-235 601.51,-241 601.51,-241 601.51,-258 601.51,-258 601.51,-264 595.51,-270 589.51,-270"/>
<text text-anchor="middle" x="531.51" y="-258" font-family="sans" font-size="10.00">resample_atlas_to_refvol</text>
<text text-anchor="middle" x="531.51" y="-247" font-family="sans" font-size="10.00">atlas: bigbrain</text>
<text text-anchor="middle" x="531.51" y="-236" font-family="sans" font-size="10.00">hemi: L</text>
</g>
<!-- 43&#45;&gt;42 -->
<g id="edge26" class="edge">
<title>43&#45;&gt;42</title>
<path fill="none" stroke="grey" stroke-width="2" d="M601.63,-230.76C604.63,-230.14 607.6,-229.55 610.51,-229 740.78,-204.5 895.53,-187.22 977.62,-178.98"/>
<polygon fill="grey" stroke="grey" stroke-width="2" points="978.15,-182.45 987.75,-177.97 977.45,-175.48 978.15,-182.45"/>
</g>
<!-- 78&#45;&gt;1 -->
<g id="edge56" class="edge">
<title>78&#45;&gt;1</title>
<path fill="none" stroke="grey" stroke-width="2" d="M1132.74,-81.64C1178.32,-70.2 1240.38,-54.63 1286.59,-43.04"/>
<polygon fill="grey" stroke="grey" stroke-width="2" points="1287.65,-46.38 1296.5,-40.55 1285.95,-39.59 1287.65,-46.38"/>
</g>
<!-- 45 -->
<g id="node26" class="node">
<title>45</title>
<path fill="none" stroke="#bed856" stroke-width="2" d="M1149.01,-267.5C1149.01,-267.5 1052.01,-267.5 1052.01,-267.5 1046.01,-267.5 1040.01,-261.5 1040.01,-255.5 1040.01,-255.5 1040.01,-243.5 1040.01,-243.5 1040.01,-237.5 1046.01,-231.5 1052.01,-231.5 1052.01,-231.5 1149.01,-231.5 1149.01,-231.5 1155.01,-231.5 1161.01,-237.5 1161.01,-243.5 1161.01,-243.5 1161.01,-255.5 1161.01,-255.5 1161.01,-261.5 1155.01,-267.5 1149.01,-267.5"/>
<text text-anchor="middle" x="1100.51" y="-247" font-family="sans" font-size="10.00">calculate_gyrification</text>
</g>
<!-- 45&#45;&gt;44 -->
<g id="edge29" class="edge">
<title>45&#45;&gt;44</title>
<path fill="none" stroke="grey" stroke-width="2" d="M1159.56,-231.42C1163.26,-230.55 1166.93,-229.73 1170.51,-229 1290.86,-204.46 1323.69,-215.07 1444.51,-193 1445.28,-192.86 1446.04,-192.72 1446.82,-192.57"/>
<polygon fill="grey" stroke="grey" stroke-width="2" points="1447.84,-195.94 1456.98,-190.58 1446.49,-189.07 1447.84,-195.94"/>
</g>
<!-- 45&#45;&gt;78 -->
<g id="edge30" class="edge">
<title>45&#45;&gt;78</title>
<path fill="none" stroke="grey" stroke-width="2" d="M1049.63,-231.46C1020.39,-220.52 987.84,-205.98 979.51,-193 969.67,-177.66 970.39,-167.78 979.51,-152 987.08,-138.9 999.25,-128.76 1012.29,-121.02"/>
<polygon fill="grey" stroke="grey" stroke-width="2" points="1014.32,-123.9 1021.42,-116.03 1010.96,-117.75 1014.32,-123.9"/>
</g>
<!-- 46 -->
<g id="node27" class="node">
<title>46</title>
<path fill="none" stroke="#61d856" stroke-width="2" d="M1070.01,-342C1070.01,-342 965.01,-342 965.01,-342 959.01,-342 953.01,-336 953.01,-330 953.01,-330 953.01,-318 953.01,-318 953.01,-312 959.01,-306 965.01,-306 965.01,-306 1070.01,-306 1070.01,-306 1076.01,-306 1082.01,-312 1082.01,-318 1082.01,-318 1082.01,-330 1082.01,-330 1082.01,-336 1076.01,-342 1070.01,-342"/>
<text text-anchor="middle" x="1017.51" y="-327" font-family="sans" font-size="10.00">calculate_surface_area</text>
<text text-anchor="middle" x="1017.51" y="-316" font-family="sans" font-size="10.00">space: corobl</text>
</g>
<!-- 46&#45;&gt;45 -->
<g id="edge31" class="edge">
<title>46&#45;&gt;45</title>
<path fill="none" stroke="grey" stroke-width="2" d="M1037.18,-305.82C1047.93,-296.43 1061.41,-284.65 1073.17,-274.38"/>
<polygon fill="grey" stroke="grey" stroke-width="2" points="1075.75,-276.77 1080.98,-267.56 1071.15,-271.5 1075.75,-276.77"/>
</g>
<!-- 47 -->
<g id="node28" class="node">
<title>47</title>
<path fill="none" stroke="#d8ac56" stroke-width="2" d="M879.51,-414C879.51,-414 785.51,-414 785.51,-414 779.51,-414 773.51,-408 773.51,-402 773.51,-402 773.51,-390 773.51,-390 773.51,-384 779.51,-378 785.51,-378 785.51,-378 879.51,-378 879.51,-378 885.51,-378 891.51,-384 891.51,-390 891.51,-390 891.51,-402 891.51,-402 891.51,-408 885.51,-414 879.51,-414"/>
<text text-anchor="middle" x="832.51" y="-393.5" font-family="sans" font-size="10.00">correct_nan_vertices</text>
</g>
<!-- 47&#45;&gt;78 -->
<g id="edge34" class="edge">
<title>47&#45;&gt;78</title>
<path fill="none" stroke="grey" stroke-width="2" d="M827.27,-377.77C818.72,-346.2 805.09,-277.83 830.51,-229 863.77,-165.12 942.06,-131.32 1000.43,-114.37"/>
<polygon fill="grey" stroke="grey" stroke-width="2" points="1001.67,-117.66 1010.35,-111.6 999.78,-110.92 1001.67,-117.66"/>
</g>
<!-- 47&#45;&gt;46 -->
<g id="edge32" class="edge">
<title>47&#45;&gt;46</title>
<path fill="none" stroke="grey" stroke-width="2" d="M877.77,-377.88C903.51,-368.14 935.92,-355.87 963.05,-345.61"/>
<polygon fill="grey" stroke="grey" stroke-width="2" points="964.29,-348.88 972.4,-342.07 961.81,-342.33 964.29,-348.88"/>
</g>
<!-- 67 -->
<g id="node29" class="node">
<title>67</title>
<path fill="none" stroke="#b6d856" stroke-width="2" d="M923.01,-342C923.01,-342 852.01,-342 852.01,-342 846.01,-342 840.01,-336 840.01,-330 840.01,-330 840.01,-318 840.01,-318 840.01,-312 846.01,-306 852.01,-306 852.01,-306 923.01,-306 923.01,-306 929.01,-306 935.01,-312 935.01,-318 935.01,-318 935.01,-330 935.01,-330 935.01,-336 929.01,-342 923.01,-342"/>
<text text-anchor="middle" x="887.51" y="-327" font-family="sans" font-size="10.00">smooth_surface</text>
<text text-anchor="middle" x="887.51" y="-316" font-family="sans" font-size="10.00">space: corobl</text>
</g>
<!-- 47&#45;&gt;67 -->
<g id="edge33" class="edge">
<title>47&#45;&gt;67</title>
<path fill="none" stroke="grey" stroke-width="2" d="M846.11,-377.7C852.63,-369.39 860.58,-359.28 867.76,-350.14"/>
<polygon fill="grey" stroke="grey" stroke-width="2" points="870.65,-352.13 874.07,-342.1 865.14,-347.81 870.65,-352.13"/>
</g>
<!-- 66 -->
<g id="node33" class="node">
<title>66</title>
<path fill="none" stroke="#80d856" stroke-width="2" d="M1009.51,-267.5C1009.51,-267.5 851.51,-267.5 851.51,-267.5 845.51,-267.5 839.51,-261.5 839.51,-255.5 839.51,-255.5 839.51,-243.5 839.51,-243.5 839.51,-237.5 845.51,-231.5 851.51,-231.5 851.51,-231.5 1009.51,-231.5 1009.51,-231.5 1015.51,-231.5 1021.51,-237.5 1021.51,-243.5 1021.51,-243.5 1021.51,-255.5 1021.51,-255.5 1021.51,-261.5 1015.51,-267.5 1009.51,-267.5"/>
<text text-anchor="middle" x="930.51" y="-247" font-family="sans" font-size="10.00">calculate_curvature_from_surface</text>
</g>
<!-- 67&#45;&gt;66 -->
<g id="edge43" class="edge">
<title>67&#45;&gt;66</title>
<path fill="none" stroke="grey" stroke-width="2" d="M897.7,-305.82C902.95,-296.97 909.45,-286 915.29,-276.17"/>
<polygon fill="grey" stroke="grey" stroke-width="2" points="918.3,-277.94 920.39,-267.56 912.28,-274.37 918.3,-277.94"/>
</g>
<!-- 48 -->
<g id="node30" class="node">
<title>48</title>
<path fill="none" stroke="#5692d8" stroke-width="2" d="M883.01,-486C883.01,-486 776.01,-486 776.01,-486 770.01,-486 764.01,-480 764.01,-474 764.01,-474 764.01,-462 764.01,-462 764.01,-456 770.01,-450 776.01,-450 776.01,-450 883.01,-450 883.01,-450 889.01,-450 895.01,-456 895.01,-462 895.01,-462 895.01,-474 895.01,-474 895.01,-480 889.01,-486 883.01,-486"/>
<text text-anchor="middle" x="829.51" y="-465.5" font-family="sans" font-size="10.00">warp_gii_unfold2native</text>
</g>
<!-- 48&#45;&gt;47 -->
<g id="edge35" class="edge">
<title>48&#45;&gt;47</title>
<path fill="none" stroke="grey" stroke-width="2" d="M830.25,-449.7C830.58,-441.98 830.98,-432.71 831.35,-424.11"/>
<polygon fill="grey" stroke="grey" stroke-width="2" points="834.85,-424.25 831.78,-414.1 827.85,-423.95 834.85,-424.25"/>
</g>
<!-- 63 -->
<g id="node31" class="node">
<title>63</title>
<path fill="none" stroke="#bed856" stroke-width="2" d="M883.51,-577C883.51,-577 777.51,-577 777.51,-577 771.51,-577 765.51,-571 765.51,-565 765.51,-565 765.51,-553 765.51,-553 765.51,-547 771.51,-541 777.51,-541 777.51,-541 883.51,-541 883.51,-541 889.51,-541 895.51,-547 895.51,-553 895.51,-553 895.51,-565 895.51,-565 895.51,-571 889.51,-577 883.51,-577"/>
<text text-anchor="middle" x="830.51" y="-556.5" font-family="sans" font-size="10.00">constrain_surf_to_bbox</text>
</g>
<!-- 63&#45;&gt;48 -->
<g id="edge36" class="edge">
<title>63&#45;&gt;48</title>
<path fill="none" stroke="grey" stroke-width="2" d="M830.32,-540.84C830.18,-528.28 829.98,-510.98 829.82,-496.5"/>
<polygon fill="grey" stroke="grey" stroke-width="2" points="833.32,-496.07 829.7,-486.11 826.32,-496.15 833.32,-496.07"/>
</g>
<!-- 64 -->
<g id="node32" class="node">
<title>64</title>
<path fill="none" stroke="#d87556" stroke-width="2" d="M1160.51,-706C1160.51,-706 1050.51,-706 1050.51,-706 1044.51,-706 1038.51,-700 1038.51,-694 1038.51,-694 1038.51,-644 1038.51,-644 1038.51,-638 1044.51,-632 1050.51,-632 1050.51,-632 1160.51,-632 1160.51,-632 1166.51,-632 1172.51,-638 1172.51,-644 1172.51,-644 1172.51,-694 1172.51,-694 1172.51,-700 1166.51,-706 1160.51,-706"/>
<text text-anchor="middle" x="1105.51" y="-694" font-family="sans" font-size="10.00">cp_template_to_unfold</text>
<text text-anchor="middle" x="1105.51" y="-683" font-family="sans" font-size="10.00">autotop: hipp</text>
<text text-anchor="middle" x="1105.51" y="-672" font-family="sans" font-size="10.00">density: 0p5mm</text>
<text text-anchor="middle" x="1105.51" y="-661" font-family="sans" font-size="10.00">hemi: R</text>
<text text-anchor="middle" x="1105.51" y="-650" font-family="sans" font-size="10.00">subject: 001</text>
<text text-anchor="middle" x="1105.51" y="-639" font-family="sans" font-size="10.00">surfname: midthickness</text>
</g>
<!-- 64&#45;&gt;78 -->
<g id="edge38" class="edge">
<title>64&#45;&gt;78</title>
<path fill="none" stroke="grey" stroke-width="2" d="M1172.78,-651.18C1254.2,-626.31 1380.51,-571.25 1380.51,-469 1380.51,-469 1380.51,-469 1380.51,-323 1380.51,-280.99 1396,-262.4 1370.51,-229 1343.87,-194.1 1310.79,-222.77 1278.51,-193 1263.61,-179.25 1274.06,-165.01 1258.51,-152 1226.08,-124.87 1180.6,-111.6 1142.61,-105.13"/>
<polygon fill="grey" stroke="grey" stroke-width="2" points="1143.04,-101.65 1132.62,-103.55 1141.95,-108.56 1143.04,-101.65"/>
</g>
<!-- 64&#45;&gt;63 -->
<g id="edge37" class="edge">
<title>64&#45;&gt;63</title>
<path fill="none" stroke="grey" stroke-width="2" d="M1038.19,-645.68C999.08,-632.24 949.08,-614.24 905.51,-596 895.01,-591.6 883.86,-586.5 873.45,-581.54"/>
<polygon fill="grey" stroke="grey" stroke-width="2" points="874.68,-578.24 864.15,-577.05 871.64,-584.55 874.68,-578.24"/>
</g>
<!-- 66&#45;&gt;65 -->
<g id="edge41" class="edge">
<title>66&#45;&gt;65</title>
<path fill="none" stroke="grey" stroke-width="2" d="M1017.8,-231.46C1022.43,-230.61 1027.03,-229.79 1031.51,-229 1132.12,-211.32 1157.87,-210.5 1258.51,-193 1264.63,-191.94 1270.95,-190.81 1277.3,-189.65"/>
<polygon fill="grey" stroke="grey" stroke-width="2" points="1278.09,-193.07 1287.3,-187.82 1276.83,-186.18 1278.09,-193.07"/>
</g>
<!-- 66&#45;&gt;78 -->
<g id="edge42" class="edge">
<title>66&#45;&gt;78</title>
<path fill="none" stroke="grey" stroke-width="2" d="M933.25,-231.19C937.37,-210.2 946.99,-174.81 967.51,-152 979.41,-138.78 995.38,-128.39 1011.22,-120.45"/>
<polygon fill="grey" stroke="grey" stroke-width="2" points="1012.96,-123.5 1020.5,-116.06 1009.97,-117.17 1012.96,-123.5"/>
</g>
<!-- 69 -->
<g id="node34" class="node">
<title>69</title>
<path fill="none" stroke="#d8c356" stroke-width="2" d="M789.51,-267.5C789.51,-267.5 631.51,-267.5 631.51,-267.5 625.51,-267.5 619.51,-261.5 619.51,-255.5 619.51,-255.5 619.51,-243.5 619.51,-243.5 619.51,-237.5 625.51,-231.5 631.51,-231.5 631.51,-231.5 789.51,-231.5 789.51,-231.5 795.51,-231.5 801.51,-237.5 801.51,-243.5 801.51,-243.5 801.51,-255.5 801.51,-255.5 801.51,-261.5 795.51,-267.5 789.51,-267.5"/>
<text text-anchor="middle" x="710.51" y="-252.5" font-family="sans" font-size="10.00">calculate_thickness_from_surface</text>
<text text-anchor="middle" x="710.51" y="-241.5" font-family="sans" font-size="10.00">space: corobl</text>
</g>
<!-- 69&#45;&gt;68 -->
<g id="edge46" class="edge">
<title>69&#45;&gt;68</title>
<path fill="none" stroke="grey" stroke-width="2" d="M801.55,-233.47C811.32,-231.92 821.12,-230.41 830.51,-229 946.75,-211.57 976.95,-214.47 1092.51,-193 1093.28,-192.86 1094.04,-192.71 1094.81,-192.57"/>
<polygon fill="grey" stroke="grey" stroke-width="2" points="1095.84,-195.93 1104.97,-190.55 1094.48,-189.07 1095.84,-195.93"/>
</g>
<!-- 69&#45;&gt;78 -->
<g id="edge47" class="edge">
<title>69&#45;&gt;78</title>
<path fill="none" stroke="grey" stroke-width="2" d="M724.13,-231.19C742.45,-209.17 777.18,-171.65 815.51,-152 873.47,-122.29 946.89,-109.23 1000.23,-103.5"/>
<polygon fill="grey" stroke="grey" stroke-width="2" points="1000.69,-106.97 1010.28,-102.48 999.98,-100 1000.69,-106.97"/>
</g>
<!-- 70 -->
<g id="node35" class="node">
<title>70</title>
<path fill="none" stroke="#d8ac56" stroke-width="2" d="M571.51,-342C571.51,-342 477.51,-342 477.51,-342 471.51,-342 465.51,-336 465.51,-330 465.51,-330 465.51,-318 465.51,-318 465.51,-312 471.51,-306 477.51,-306 477.51,-306 571.51,-306 571.51,-306 577.51,-306 583.51,-312 583.51,-318 583.51,-318 583.51,-330 583.51,-330 583.51,-336 577.51,-342 571.51,-342"/>
<text text-anchor="middle" x="524.51" y="-321.5" font-family="sans" font-size="10.00">correct_nan_vertices</text>
</g>
<!-- 70&#45;&gt;69 -->
<g id="edge48" class="edge">
<title>70&#45;&gt;69</title>
<path fill="none" stroke="grey" stroke-width="2" d="M568.59,-305.82C595.11,-295.48 629.06,-282.25 657.1,-271.32"/>
<polygon fill="grey" stroke="grey" stroke-width="2" points="658.7,-274.45 666.75,-267.56 656.16,-267.93 658.7,-274.45"/>
</g>
<!-- 71 -->
<g id="node36" class="node">
<title>71</title>
<path fill="none" stroke="#5692d8" stroke-width="2" d="M529.01,-414C529.01,-414 422.01,-414 422.01,-414 416.01,-414 410.01,-408 410.01,-402 410.01,-402 410.01,-390 410.01,-390 410.01,-384 416.01,-378 422.01,-378 422.01,-378 529.01,-378 529.01,-378 535.01,-378 541.01,-384 541.01,-390 541.01,-390 541.01,-402 541.01,-402 541.01,-408 535.01,-414 529.01,-414"/>
<text text-anchor="middle" x="475.51" y="-393.5" font-family="sans" font-size="10.00">warp_gii_unfold2native</text>
</g>
<!-- 71&#45;&gt;70 -->
<g id="edge49" class="edge">
<title>71&#45;&gt;70</title>
<path fill="none" stroke="grey" stroke-width="2" d="M487.62,-377.7C493.38,-369.47 500.37,-359.48 506.72,-350.42"/>
<polygon fill="grey" stroke="grey" stroke-width="2" points="509.67,-352.3 512.54,-342.1 503.94,-348.29 509.67,-352.3"/>
</g>
<!-- 72 -->
<g id="node37" class="node">
<title>72</title>
<path fill="none" stroke="#bed856" stroke-width="2" d="M528.51,-486C528.51,-486 422.51,-486 422.51,-486 416.51,-486 410.51,-480 410.51,-474 410.51,-474 410.51,-462 410.51,-462 410.51,-456 416.51,-450 422.51,-450 422.51,-450 528.51,-450 528.51,-450 534.51,-450 540.51,-456 540.51,-462 540.51,-462 540.51,-474 540.51,-474 540.51,-480 534.51,-486 528.51,-486"/>
<text text-anchor="middle" x="475.51" y="-465.5" font-family="sans" font-size="10.00">constrain_surf_to_bbox</text>
</g>
<!-- 72&#45;&gt;71 -->
<g id="edge50" class="edge">
<title>72&#45;&gt;71</title>
<path fill="none" stroke="grey" stroke-width="2" d="M475.51,-449.7C475.51,-441.98 475.51,-432.71 475.51,-424.11"/>
<polygon fill="grey" stroke="grey" stroke-width="2" points="479.01,-424.1 475.51,-414.1 472.01,-424.1 479.01,-424.1"/>
</g>
<!-- 73 -->
<g id="node38" class="node">
<title>73</title>
<path fill="none" stroke="#d87556" stroke-width="2" d="M589.51,-596C589.51,-596 485.51,-596 485.51,-596 479.51,-596 473.51,-590 473.51,-584 473.51,-584 473.51,-534 473.51,-534 473.51,-528 479.51,-522 485.51,-522 485.51,-522 589.51,-522 589.51,-522 595.51,-522 601.51,-528 601.51,-534 601.51,-534 601.51,-584 601.51,-584 601.51,-590 595.51,-596 589.51,-596"/>
<text text-anchor="middle" x="537.51" y="-584" font-family="sans" font-size="10.00">cp_template_to_unfold</text>
<text text-anchor="middle" x="537.51" y="-573" font-family="sans" font-size="10.00">autotop: hipp</text>
<text text-anchor="middle" x="537.51" y="-562" font-family="sans" font-size="10.00">density: 0p5mm</text>
<text text-anchor="middle" x="537.51" y="-551" font-family="sans" font-size="10.00">hemi: R</text>
<text text-anchor="middle" x="537.51" y="-540" font-family="sans" font-size="10.00">subject: 001</text>
<text text-anchor="middle" x="537.51" y="-529" font-family="sans" font-size="10.00">surfname: inner</text>
</g>
<!-- 73&#45;&gt;72 -->
<g id="edge51" class="edge">
<title>73&#45;&gt;72</title>
<path fill="none" stroke="grey" stroke-width="2" d="M512.29,-521.8C505.92,-512.66 499.22,-503.03 493.3,-494.53"/>
<polygon fill="grey" stroke="grey" stroke-width="2" points="496.05,-492.36 487.47,-486.16 490.31,-496.37 496.05,-492.36"/>
</g>
<!-- 74 -->
<g id="node39" class="node">
<title>74</title>
<path fill="none" stroke="#d8ac56" stroke-width="2" d="M723.51,-342C723.51,-342 629.51,-342 629.51,-342 623.51,-342 617.51,-336 617.51,-330 617.51,-330 617.51,-318 617.51,-318 617.51,-312 623.51,-306 629.51,-306 629.51,-306 723.51,-306 723.51,-306 729.51,-306 735.51,-312 735.51,-318 735.51,-318 735.51,-330 735.51,-330 735.51,-336 729.51,-342 723.51,-342"/>
<text text-anchor="middle" x="676.51" y="-321.5" font-family="sans" font-size="10.00">correct_nan_vertices</text>
</g>
<!-- 74&#45;&gt;69 -->
<g id="edge52" class="edge">
<title>74&#45;&gt;69</title>
<path fill="none" stroke="grey" stroke-width="2" d="M684.57,-305.82C688.63,-297.15 693.65,-286.45 698.19,-276.78"/>
<polygon fill="grey" stroke="grey" stroke-width="2" points="701.43,-278.1 702.51,-267.56 695.1,-275.13 701.43,-278.1"/>
</g>
<!-- 75 -->
<g id="node40" class="node">
<title>75</title>
<path fill="none" stroke="#5692d8" stroke-width="2" d="M697.01,-414C697.01,-414 590.01,-414 590.01,-414 584.01,-414 578.01,-408 578.01,-402 578.01,-402 578.01,-390 578.01,-390 578.01,-384 584.01,-378 590.01,-378 590.01,-378 697.01,-378 697.01,-378 703.01,-378 709.01,-384 709.01,-390 709.01,-390 709.01,-402 709.01,-402 709.01,-408 703.01,-414 697.01,-414"/>
<text text-anchor="middle" x="643.51" y="-393.5" font-family="sans" font-size="10.00">warp_gii_unfold2native</text>
</g>
<!-- 75&#45;&gt;74 -->
<g id="edge53" class="edge">
<title>75&#45;&gt;74</title>
<path fill="none" stroke="grey" stroke-width="2" d="M651.67,-377.7C655.43,-369.73 659.96,-360.1 664.13,-351.26"/>
<polygon fill="grey" stroke="grey" stroke-width="2" points="667.35,-352.64 668.45,-342.1 661.02,-349.66 667.35,-352.64"/>
</g>
<!-- 76 -->
<g id="node41" class="node">
<title>76</title>
<path fill="none" stroke="#bed856" stroke-width="2" d="M696.51,-486C696.51,-486 590.51,-486 590.51,-486 584.51,-486 578.51,-480 578.51,-474 578.51,-474 578.51,-462 578.51,-462 578.51,-456 584.51,-450 590.51,-450 590.51,-450 696.51,-450 696.51,-450 702.51,-450 708.51,-456 708.51,-462 708.51,-462 708.51,-474 708.51,-474 708.51,-480 702.51,-486 696.51,-486"/>
<text text-anchor="middle" x="643.51" y="-465.5" font-family="sans" font-size="10.00">constrain_surf_to_bbox</text>
</g>
<!-- 76&#45;&gt;75 -->
<g id="edge54" class="edge">
<title>76&#45;&gt;75</title>
<path fill="none" stroke="grey" stroke-width="2" d="M643.51,-449.7C643.51,-441.98 643.51,-432.71 643.51,-424.11"/>
<polygon fill="grey" stroke="grey" stroke-width="2" points="647.01,-424.1 643.51,-414.1 640.01,-424.1 647.01,-424.1"/>
</g>
<!-- 77 -->
<g id="node42" class="node">
<title>77</title>
<path fill="none" stroke="#d87556" stroke-width="2" d="M735.51,-596C735.51,-596 631.51,-596 631.51,-596 625.51,-596 619.51,-590 619.51,-584 619.51,-584 619.51,-534 619.51,-534 619.51,-528 625.51,-522 631.51,-522 631.51,-522 735.51,-522 735.51,-522 741.51,-522 747.51,-528 747.51,-534 747.51,-534 747.51,-584 747.51,-584 747.51,-590 741.51,-596 735.51,-596"/>
<text text-anchor="middle" x="683.51" y="-584" font-family="sans" font-size="10.00">cp_template_to_unfold</text>
<text text-anchor="middle" x="683.51" y="-573" font-family="sans" font-size="10.00">autotop: hipp</text>
<text text-anchor="middle" x="683.51" y="-562" font-family="sans" font-size="10.00">density: 0p5mm</text>
<text text-anchor="middle" x="683.51" y="-551" font-family="sans" font-size="10.00">hemi: R</text>
<text text-anchor="middle" x="683.51" y="-540" font-family="sans" font-size="10.00">subject: 001</text>
<text text-anchor="middle" x="683.51" y="-529" font-family="sans" font-size="10.00">surfname: outer</text>
</g>
<!-- 77&#45;&gt;76 -->
<g id="edge55" class="edge">
<title>77&#45;&gt;76</title>
<path fill="none" stroke="grey" stroke-width="2" d="M667.24,-521.8C663.26,-512.95 659.08,-503.64 655.35,-495.34"/>
<polygon fill="grey" stroke="grey" stroke-width="2" points="658.52,-493.85 651.22,-486.16 652.13,-496.72 658.52,-493.85"/>
</g>
<!-- 79 -->
<g id="node43" class="node">
<title>79</title>
<path fill="none" stroke="#56d87b" stroke-width="2" d="M589.01,-193C589.01,-193 518.01,-193 518.01,-193 512.01,-193 506.01,-187 506.01,-181 506.01,-181 506.01,-164 506.01,-164 506.01,-158 512.01,-152 518.01,-152 518.01,-152 589.01,-152 589.01,-152 595.01,-152 601.01,-158 601.01,-164 601.01,-164 601.01,-181 601.01,-181 601.01,-187 595.01,-193 589.01,-193"/>
<text text-anchor="middle" x="553.51" y="-181" font-family="sans" font-size="10.00">nii_to_label_gii</text>
<text text-anchor="middle" x="553.51" y="-170" font-family="sans" font-size="10.00">density: 0p5mm</text>
<text text-anchor="middle" x="553.51" y="-159" font-family="sans" font-size="10.00">space: corobl</text>
</g>
<!-- 79&#45;&gt;78 -->
<g id="edge57" class="edge">
<title>79&#45;&gt;78</title>
<path fill="none" stroke="grey" stroke-width="2" d="M601.32,-164.81C692.79,-152.01 893.01,-123.98 1000.29,-108.97"/>
<polygon fill="grey" stroke="grey" stroke-width="2" points="1000.96,-112.41 1010.38,-107.56 999.99,-105.48 1000.96,-112.41"/>
</g>
<!-- 80 -->
<g id="node44" class="node">
<title>80</title>
<path fill="none" stroke="#56d85b" stroke-width="2" d="M431.51,-270C431.51,-270 315.51,-270 315.51,-270 309.51,-270 303.51,-264 303.51,-258 303.51,-258 303.51,-241 303.51,-241 303.51,-235 309.51,-229 315.51,-229 315.51,-229 431.51,-229 431.51,-229 437.51,-229 443.51,-235 443.51,-241 443.51,-241 443.51,-258 443.51,-258 443.51,-264 437.51,-270 431.51,-270"/>
<text text-anchor="middle" x="373.51" y="-258" font-family="sans" font-size="10.00">resample_atlas_to_refvol</text>
<text text-anchor="middle" x="373.51" y="-247" font-family="sans" font-size="10.00">atlas: bigbrain</text>
<text text-anchor="middle" x="373.51" y="-236" font-family="sans" font-size="10.00">hemi: R</text>
</g>
<!-- 80&#45;&gt;79 -->
<g id="edge58" class="edge">
<title>80&#45;&gt;79</title>
<path fill="none" stroke="grey" stroke-width="2" d="M420.33,-228.99C443.89,-219.18 472.61,-207.21 497.35,-196.9"/>
<polygon fill="grey" stroke="grey" stroke-width="2" points="498.73,-200.12 506.61,-193.04 496.03,-193.66 498.73,-200.12"/>
</g>
<!-- 81 -->
<g id="node45" class="node">
<title>81</title>
<path fill="none" stroke="#9fd856" stroke-width="2" d="M2163.51,-44C2163.51,-44 2079.51,-44 2079.51,-44 2073.51,-44 2067.51,-38 2067.51,-32 2067.51,-32 2067.51,-20 2067.51,-20 2067.51,-14 2073.51,-8 2079.51,-8 2079.51,-8 2163.51,-8 2163.51,-8 2169.51,-8 2175.51,-14 2175.51,-20 2175.51,-20 2175.51,-32 2175.51,-32 2175.51,-38 2169.51,-44 2163.51,-44"/>
<text text-anchor="middle" x="2121.51" y="-29" font-family="sans" font-size="10.00">merge_lr_spec_file</text>
<text text-anchor="middle" x="2121.51" y="-18" font-family="sans" font-size="10.00">autotop: dentate</text>
</g>
<!-- 82 -->
<g id="node46" class="node">
<title>82</title>
<path fill="none" stroke="#56d863" stroke-width="2" d="M2354.51,-116C2354.51,-116 2240.51,-116 2240.51,-116 2234.51,-116 2228.51,-110 2228.51,-104 2228.51,-104 2228.51,-92 2228.51,-92 2228.51,-86 2234.51,-80 2240.51,-80 2240.51,-80 2354.51,-80 2354.51,-80 2360.51,-80 2366.51,-86 2366.51,-92 2366.51,-92 2366.51,-104 2366.51,-104 2366.51,-110 2360.51,-116 2354.51,-116"/>
<text text-anchor="middle" x="2297.51" y="-101" font-family="sans" font-size="10.00">create_spec_file_dentate</text>
<text text-anchor="middle" x="2297.51" y="-90" font-family="sans" font-size="10.00">label: dentate</text>
</g>
<!-- 82&#45;&gt;81 -->
<g id="edge59" class="edge">
<title>82&#45;&gt;81</title>
<path fill="none" stroke="grey" stroke-width="2" d="M2254.46,-79.88C2230.18,-70.22 2199.67,-58.09 2174,-47.88"/>
<polygon fill="grey" stroke="grey" stroke-width="2" points="2175.01,-44.51 2164.43,-44.07 2172.42,-51.02 2175.01,-44.51"/>
</g>
<!-- 83 -->
<g id="node47" class="node">
<title>83</title>
<path fill="none" stroke="#bed856" stroke-width="2" d="M2289.01,-267.5C2289.01,-267.5 2192.01,-267.5 2192.01,-267.5 2186.01,-267.5 2180.01,-261.5 2180.01,-255.5 2180.01,-255.5 2180.01,-243.5 2180.01,-243.5 2180.01,-237.5 2186.01,-231.5 2192.01,-231.5 2192.01,-231.5 2289.01,-231.5 2289.01,-231.5 2295.01,-231.5 2301.01,-237.5 2301.01,-243.5 2301.01,-243.5 2301.01,-255.5 2301.01,-255.5 2301.01,-261.5 2295.01,-267.5 2289.01,-267.5"/>
<text text-anchor="middle" x="2240.51" y="-247" font-family="sans" font-size="10.00">calculate_gyrification</text>
</g>
<!-- 83&#45;&gt;82 -->
<g id="edge60" class="edge">
<title>83&#45;&gt;82</title>
<path fill="none" stroke="grey" stroke-width="2" d="M2268.75,-231.31C2281.61,-221.79 2295.5,-208.69 2302.51,-193 2311.95,-171.88 2309.42,-145.37 2305.28,-125.9"/>
<polygon fill="grey" stroke="grey" stroke-width="2" points="2308.67,-125.06 2302.94,-116.15 2301.87,-126.69 2308.67,-125.06"/>
</g>
<!-- 104 -->
<g id="node48" class="node">
<title>104</title>
<path fill="none" stroke="#88d856" stroke-width="2" d="M2100.51,-190.5C2100.51,-190.5 1976.51,-190.5 1976.51,-190.5 1970.51,-190.5 1964.51,-184.5 1964.51,-178.5 1964.51,-178.5 1964.51,-166.5 1964.51,-166.5 1964.51,-160.5 1970.51,-154.5 1976.51,-154.5 1976.51,-154.5 2100.51,-154.5 2100.51,-154.5 2106.51,-154.5 2112.51,-160.5 2112.51,-166.5 2112.51,-166.5 2112.51,-178.5 2112.51,-178.5 2112.51,-184.5 2106.51,-190.5 2100.51,-190.5"/>
<text text-anchor="middle" x="2038.51" y="-175.5" font-family="sans" font-size="10.00">create_dscalar_metric_cifti</text>
<text text-anchor="middle" x="2038.51" y="-164.5" font-family="sans" font-size="10.00">metric: gyrification</text>
</g>
<!-- 83&#45;&gt;104 -->
<g id="edge61" class="edge">
<title>83&#45;&gt;104</title>
<path fill="none" stroke="grey" stroke-width="2" d="M2194.67,-231.48C2164.82,-220.4 2125.69,-205.87 2094.07,-194.13"/>
<polygon fill="grey" stroke="grey" stroke-width="2" points="2095.11,-190.78 2084.52,-190.58 2092.67,-197.34 2095.11,-190.78"/>
</g>
<!-- 104&#45;&gt;82 -->
<g id="edge73" class="edge">
<title>104&#45;&gt;82</title>
<path fill="none" stroke="grey" stroke-width="2" d="M2099.56,-154.41C2137.7,-143.74 2186.94,-129.95 2226.77,-118.8"/>
<polygon fill="grey" stroke="grey" stroke-width="2" points="2227.74,-122.17 2236.42,-116.1 2225.85,-115.43 2227.74,-122.17"/>
</g>
<!-- 122 -->
<g id="node57" class="node">
<title>122</title>
<path fill="none" stroke="#56d863" stroke-width="2" d="M2002.51,-116C2002.51,-116 1888.51,-116 1888.51,-116 1882.51,-116 1876.51,-110 1876.51,-104 1876.51,-104 1876.51,-92 1876.51,-92 1876.51,-86 1882.51,-80 1888.51,-80 1888.51,-80 2002.51,-80 2002.51,-80 2008.51,-80 2014.51,-86 2014.51,-92 2014.51,-92 2014.51,-104 2014.51,-104 2014.51,-110 2008.51,-116 2002.51,-116"/>
<text text-anchor="middle" x="1945.51" y="-101" font-family="sans" font-size="10.00">create_spec_file_dentate</text>
<text text-anchor="middle" x="1945.51" y="-90" font-family="sans" font-size="10.00">label: dentate</text>
</g>
<!-- 104&#45;&gt;122 -->
<g id="edge74" class="edge">
<title>104&#45;&gt;122</title>
<path fill="none" stroke="grey" stroke-width="2" d="M2016.47,-154.32C2004.2,-144.75 1988.74,-132.7 1975.39,-122.29"/>
<polygon fill="grey" stroke="grey" stroke-width="2" points="1977.43,-119.45 1967.39,-116.06 1973.13,-124.97 1977.43,-119.45"/>
</g>
<!-- 84 -->
<g id="node49" class="node">
<title>84</title>
<path fill="none" stroke="#61d856" stroke-width="2" d="M2322.01,-342C2322.01,-342 2217.01,-342 2217.01,-342 2211.01,-342 2205.01,-336 2205.01,-330 2205.01,-330 2205.01,-318 2205.01,-318 2205.01,-312 2211.01,-306 2217.01,-306 2217.01,-306 2322.01,-306 2322.01,-306 2328.01,-306 2334.01,-312 2334.01,-318 2334.01,-318 2334.01,-330 2334.01,-330 2334.01,-336 2328.01,-342 2322.01,-342"/>
<text text-anchor="middle" x="2269.51" y="-327" font-family="sans" font-size="10.00">calculate_surface_area</text>
<text text-anchor="middle" x="2269.51" y="-316" font-family="sans" font-size="10.00">space: corobl</text>
</g>
<!-- 84&#45;&gt;83 -->
<g id="edge62" class="edge">
<title>84&#45;&gt;83</title>
<path fill="none" stroke="grey" stroke-width="2" d="M2262.64,-305.82C2259.21,-297.24 2254.98,-286.67 2251.14,-277.08"/>
<polygon fill="grey" stroke="grey" stroke-width="2" points="2254.3,-275.54 2247.33,-267.56 2247.8,-278.14 2254.3,-275.54"/>
</g>
<!-- 85 -->
<g id="node50" class="node">
<title>85</title>
<path fill="none" stroke="#d8ac56" stroke-width="2" d="M2467.51,-414C2467.51,-414 2373.51,-414 2373.51,-414 2367.51,-414 2361.51,-408 2361.51,-402 2361.51,-402 2361.51,-390 2361.51,-390 2361.51,-384 2367.51,-378 2373.51,-378 2373.51,-378 2467.51,-378 2467.51,-378 2473.51,-378 2479.51,-384 2479.51,-390 2479.51,-390 2479.51,-402 2479.51,-402 2479.51,-408 2473.51,-414 2467.51,-414"/>
<text text-anchor="middle" x="2420.51" y="-393.5" font-family="sans" font-size="10.00">correct_nan_vertices</text>
</g>
<!-- 85&#45;&gt;82 -->
<g id="edge63" class="edge">
<title>85&#45;&gt;82</title>
<path fill="none" stroke="grey" stroke-width="2" d="M2442.01,-377.94C2477.33,-347.76 2540.83,-283.03 2510.51,-229 2479.44,-173.63 2414.14,-139.05 2363.98,-119.61"/>
<polygon fill="grey" stroke="grey" stroke-width="2" points="2365.08,-116.28 2354.48,-116.03 2362.61,-122.83 2365.08,-116.28"/>
</g>
<!-- 85&#45;&gt;84 -->
<g id="edge64" class="edge">
<title>85&#45;&gt;84</title>
<path fill="none" stroke="grey" stroke-width="2" d="M2383.57,-377.88C2363.02,-368.35 2337.26,-356.41 2315.42,-346.28"/>
<polygon fill="grey" stroke="grey" stroke-width="2" points="2316.88,-343.1 2306.33,-342.07 2313.93,-349.45 2316.88,-343.1"/>
</g>
<!-- 103 -->
<g id="node51" class="node">
<title>103</title>
<path fill="none" stroke="#b6d856" stroke-width="2" d="M2453.01,-342C2453.01,-342 2382.01,-342 2382.01,-342 2376.01,-342 2370.01,-336 2370.01,-330 2370.01,-330 2370.01,-318 2370.01,-318 2370.01,-312 2376.01,-306 2382.01,-306 2382.01,-306 2453.01,-306 2453.01,-306 2459.01,-306 2465.01,-312 2465.01,-318 2465.01,-318 2465.01,-330 2465.01,-330 2465.01,-336 2459.01,-342 2453.01,-342"/>
<text text-anchor="middle" x="2417.51" y="-327" font-family="sans" font-size="10.00">smooth_surface</text>
<text text-anchor="middle" x="2417.51" y="-316" font-family="sans" font-size="10.00">space: corobl</text>
</g>
<!-- 85&#45;&gt;103 -->
<g id="edge65" class="edge">
<title>85&#45;&gt;103</title>
<path fill="none" stroke="grey" stroke-width="2" d="M2419.77,-377.7C2419.44,-369.98 2419.04,-360.71 2418.67,-352.11"/>
<polygon fill="grey" stroke="grey" stroke-width="2" points="2422.17,-351.95 2418.24,-342.1 2415.18,-352.25 2422.17,-351.95"/>
</g>
<!-- 102 -->
<g id="node55" class="node">
<title>102</title>
<path fill="none" stroke="#80d856" stroke-width="2" d="M2489.51,-267.5C2489.51,-267.5 2331.51,-267.5 2331.51,-267.5 2325.51,-267.5 2319.51,-261.5 2319.51,-255.5 2319.51,-255.5 2319.51,-243.5 2319.51,-243.5 2319.51,-237.5 2325.51,-231.5 2331.51,-231.5 2331.51,-231.5 2489.51,-231.5 2489.51,-231.5 2495.51,-231.5 2501.51,-237.5 2501.51,-243.5 2501.51,-243.5 2501.51,-255.5 2501.51,-255.5 2501.51,-261.5 2495.51,-267.5 2489.51,-267.5"/>
<text text-anchor="middle" x="2410.51" y="-247" font-family="sans" font-size="10.00">calculate_curvature_from_surface</text>
</g>
<!-- 103&#45;&gt;102 -->
<g id="edge72" class="edge">
<title>103&#45;&gt;102</title>
<path fill="none" stroke="grey" stroke-width="2" d="M2415.85,-305.82C2415.04,-297.42 2414.05,-287.12 2413.14,-277.69"/>
<polygon fill="grey" stroke="grey" stroke-width="2" points="2416.6,-277.18 2412.16,-267.56 2409.64,-277.85 2416.6,-277.18"/>
</g>
<!-- 86 -->
<g id="node52" class="node">
<title>86</title>
<path fill="none" stroke="#5692d8" stroke-width="2" d="M2487.01,-486C2487.01,-486 2380.01,-486 2380.01,-486 2374.01,-486 2368.01,-480 2368.01,-474 2368.01,-474 2368.01,-462 2368.01,-462 2368.01,-456 2374.01,-450 2380.01,-450 2380.01,-450 2487.01,-450 2487.01,-450 2493.01,-450 2499.01,-456 2499.01,-462 2499.01,-462 2499.01,-474 2499.01,-474 2499.01,-480 2493.01,-486 2487.01,-486"/>
<text text-anchor="middle" x="2433.51" y="-465.5" font-family="sans" font-size="10.00">warp_gii_unfold2native</text>
</g>
<!-- 86&#45;&gt;85 -->
<g id="edge66" class="edge">
<title>86&#45;&gt;85</title>
<path fill="none" stroke="grey" stroke-width="2" d="M2430.3,-449.7C2428.87,-441.98 2427.14,-432.71 2425.55,-424.11"/>
<polygon fill="grey" stroke="grey" stroke-width="2" points="2428.96,-423.3 2423.69,-414.1 2422.07,-424.58 2428.96,-423.3"/>
</g>
<!-- 100 -->
<g id="node53" class="node">
<title>100</title>
<path fill="none" stroke="#bed856" stroke-width="2" d="M2486.51,-577C2486.51,-577 2380.51,-577 2380.51,-577 2374.51,-577 2368.51,-571 2368.51,-565 2368.51,-565 2368.51,-553 2368.51,-553 2368.51,-547 2374.51,-541 2380.51,-541 2380.51,-541 2486.51,-541 2486.51,-541 2492.51,-541 2498.51,-547 2498.51,-553 2498.51,-553 2498.51,-565 2498.51,-565 2498.51,-571 2492.51,-577 2486.51,-577"/>
<text text-anchor="middle" x="2433.51" y="-556.5" font-family="sans" font-size="10.00">constrain_surf_to_bbox</text>
</g>
<!-- 100&#45;&gt;86 -->
<g id="edge67" class="edge">
<title>100&#45;&gt;86</title>
<path fill="none" stroke="grey" stroke-width="2" d="M2433.51,-540.84C2433.51,-528.28 2433.51,-510.98 2433.51,-496.5"/>
<polygon fill="grey" stroke="grey" stroke-width="2" points="2437.01,-496.11 2433.51,-486.11 2430.01,-496.11 2437.01,-496.11"/>
</g>
<!-- 101 -->
<g id="node54" class="node">
<title>101</title>
<path fill="none" stroke="#d87556" stroke-width="2" d="M2250.51,-706C2250.51,-706 2140.51,-706 2140.51,-706 2134.51,-706 2128.51,-700 2128.51,-694 2128.51,-694 2128.51,-644 2128.51,-644 2128.51,-638 2134.51,-632 2140.51,-632 2140.51,-632 2250.51,-632 2250.51,-632 2256.51,-632 2262.51,-638 2262.51,-644 2262.51,-644 2262.51,-694 2262.51,-694 2262.51,-700 2256.51,-706 2250.51,-706"/>
<text text-anchor="middle" x="2195.51" y="-694" font-family="sans" font-size="10.00">cp_template_to_unfold</text>
<text text-anchor="middle" x="2195.51" y="-683" font-family="sans" font-size="10.00">autotop: dentate</text>
<text text-anchor="middle" x="2195.51" y="-672" font-family="sans" font-size="10.00">density: 0p5mm</text>
<text text-anchor="middle" x="2195.51" y="-661" font-family="sans" font-size="10.00">hemi: L</text>
<text text-anchor="middle" x="2195.51" y="-650" font-family="sans" font-size="10.00">subject: 001</text>
<text text-anchor="middle" x="2195.51" y="-639" font-family="sans" font-size="10.00">surfname: midthickness</text>
</g>
<!-- 101&#45;&gt;82 -->
<g id="edge68" class="edge">
<title>101&#45;&gt;82</title>
<path fill="none" stroke="grey" stroke-width="2" d="M2185.2,-631.66C2174.88,-592.02 2160.51,-526.53 2160.51,-469 2160.51,-469 2160.51,-469 2160.51,-323 2160.51,-280.94 2144.63,-261.36 2171.51,-229 2206.01,-187.48 2253.24,-234.7 2287.51,-193 2302.69,-174.54 2303.83,-146.66 2302,-126.06"/>
<polygon fill="grey" stroke="grey" stroke-width="2" points="2305.47,-125.56 2300.83,-116.04 2298.51,-126.38 2305.47,-125.56"/>
</g>
<!-- 101&#45;&gt;100 -->
<g id="edge69" class="edge">
<title>101&#45;&gt;100</title>
<path fill="none" stroke="grey" stroke-width="2" d="M2262.76,-637.48C2302.38,-619.51 2351.51,-597.21 2386.88,-581.16"/>
<polygon fill="grey" stroke="grey" stroke-width="2" points="2388.36,-584.33 2396.02,-577.01 2385.47,-577.96 2388.36,-584.33"/>
</g>
<!-- 102&#45;&gt;82 -->
<g id="edge70" class="edge">
<title>102&#45;&gt;82</title>
<path fill="none" stroke="grey" stroke-width="2" d="M2397.55,-231.35C2377.73,-205.13 2339.78,-154.92 2316.75,-124.45"/>
<polygon fill="grey" stroke="grey" stroke-width="2" points="2319.49,-122.28 2310.67,-116.41 2313.91,-126.5 2319.49,-122.28"/>
</g>
<!-- 119 -->
<g id="node56" class="node">
<title>119</title>
<path fill="none" stroke="#88d856" stroke-width="2" d="M2266.51,-190.5C2266.51,-190.5 2142.51,-190.5 2142.51,-190.5 2136.51,-190.5 2130.51,-184.5 2130.51,-178.5 2130.51,-178.5 2130.51,-166.5 2130.51,-166.5 2130.51,-160.5 2136.51,-154.5 2142.51,-154.5 2142.51,-154.5 2266.51,-154.5 2266.51,-154.5 2272.51,-154.5 2278.51,-160.5 2278.51,-166.5 2278.51,-166.5 2278.51,-178.5 2278.51,-178.5 2278.51,-184.5 2272.51,-190.5 2266.51,-190.5"/>
<text text-anchor="middle" x="2204.51" y="-175.5" font-family="sans" font-size="10.00">create_dscalar_metric_cifti</text>
<text text-anchor="middle" x="2204.51" y="-164.5" font-family="sans" font-size="10.00">metric: curvature</text>
</g>
<!-- 102&#45;&gt;119 -->
<g id="edge71" class="edge">
<title>102&#45;&gt;119</title>
<path fill="none" stroke="grey" stroke-width="2" d="M2363.77,-231.48C2333.32,-220.4 2293.42,-205.87 2261.17,-194.13"/>
<polygon fill="grey" stroke="grey" stroke-width="2" points="2262.02,-190.71 2251.43,-190.58 2259.63,-197.29 2262.02,-190.71"/>
</g>
<!-- 119&#45;&gt;82 -->
<g id="edge85" class="edge">
<title>119&#45;&gt;82</title>
<path fill="none" stroke="grey" stroke-width="2" d="M2226.55,-154.32C2238.83,-144.75 2254.29,-132.7 2267.64,-122.29"/>
<polygon fill="grey" stroke="grey" stroke-width="2" points="2269.9,-124.97 2275.63,-116.06 2265.59,-119.45 2269.9,-124.97"/>
</g>
<!-- 119&#45;&gt;122 -->
<g id="edge86" class="edge">
<title>119&#45;&gt;122</title>
<path fill="none" stroke="grey" stroke-width="2" d="M2143.46,-154.41C2105.33,-143.74 2056.08,-129.95 2016.25,-118.8"/>
<polygon fill="grey" stroke="grey" stroke-width="2" points="2017.17,-115.43 2006.6,-116.1 2015.29,-122.17 2017.17,-115.43"/>
</g>
<!-- 122&#45;&gt;81 -->
<g id="edge90" class="edge">
<title>122&#45;&gt;81</title>
<path fill="none" stroke="grey" stroke-width="2" d="M1988.57,-79.88C2012.84,-70.22 2043.35,-58.09 2069.02,-47.88"/>
<polygon fill="grey" stroke="grey" stroke-width="2" points="2070.6,-51.02 2078.6,-44.07 2068.01,-44.51 2070.6,-51.02"/>
</g>
<!-- 105 -->
<g id="node58" class="node">
<title>105</title>
<path fill="none" stroke="#bed856" stroke-width="2" d="M1909.01,-267.5C1909.01,-267.5 1812.01,-267.5 1812.01,-267.5 1806.01,-267.5 1800.01,-261.5 1800.01,-255.5 1800.01,-255.5 1800.01,-243.5 1800.01,-243.5 1800.01,-237.5 1806.01,-231.5 1812.01,-231.5 1812.01,-231.5 1909.01,-231.5 1909.01,-231.5 1915.01,-231.5 1921.01,-237.5 1921.01,-243.5 1921.01,-243.5 1921.01,-255.5 1921.01,-255.5 1921.01,-261.5 1915.01,-267.5 1909.01,-267.5"/>
<text text-anchor="middle" x="1860.51" y="-247" font-family="sans" font-size="10.00">calculate_gyrification</text>
</g>
<!-- 105&#45;&gt;104 -->
<g id="edge75" class="edge">
<title>105&#45;&gt;104</title>
<path fill="none" stroke="grey" stroke-width="2" d="M1900.9,-231.48C1926.87,-220.54 1960.8,-206.24 1988.47,-194.59"/>
<polygon fill="grey" stroke="grey" stroke-width="2" points="1990.12,-197.69 1997.97,-190.58 1987.4,-191.24 1990.12,-197.69"/>
</g>
<!-- 105&#45;&gt;122 -->
<g id="edge76" class="edge">
<title>105&#45;&gt;122</title>
<path fill="none" stroke="grey" stroke-width="2" d="M1870.26,-231.35C1885.04,-205.35 1913.23,-155.78 1930.6,-125.23"/>
<polygon fill="grey" stroke="grey" stroke-width="2" points="1933.71,-126.83 1935.61,-116.41 1927.63,-123.37 1933.71,-126.83"/>
</g>
<!-- 106 -->
<g id="node59" class="node">
<title>106</title>
<path fill="none" stroke="#61d856" stroke-width="2" d="M1917.01,-342C1917.01,-342 1812.01,-342 1812.01,-342 1806.01,-342 1800.01,-336 1800.01,-330 1800.01,-330 1800.01,-318 1800.01,-318 1800.01,-312 1806.01,-306 1812.01,-306 1812.01,-306 1917.01,-306 1917.01,-306 1923.01,-306 1929.01,-312 1929.01,-318 1929.01,-318 1929.01,-330 1929.01,-330 1929.01,-336 1923.01,-342 1917.01,-342"/>
<text text-anchor="middle" x="1864.51" y="-327" font-family="sans" font-size="10.00">calculate_surface_area</text>
<text text-anchor="middle" x="1864.51" y="-316" font-family="sans" font-size="10.00">space: corobl</text>
</g>
<!-- 106&#45;&gt;105 -->
<g id="edge77" class="edge">
<title>106&#45;&gt;105</title>
<path fill="none" stroke="grey" stroke-width="2" d="M1863.56,-305.82C1863.1,-297.42 1862.53,-287.12 1862.01,-277.69"/>
<polygon fill="grey" stroke="grey" stroke-width="2" points="1865.5,-277.35 1861.45,-267.56 1858.51,-277.74 1865.5,-277.35"/>
</g>
<!-- 107 -->
<g id="node60" class="node">
<title>107</title>
<path fill="none" stroke="#d8ac56" stroke-width="2" d="M2062.51,-414C2062.51,-414 1968.51,-414 1968.51,-414 1962.51,-414 1956.51,-408 1956.51,-402 1956.51,-402 1956.51,-390 1956.51,-390 1956.51,-384 1962.51,-378 1968.51,-378 1968.51,-378 2062.51,-378 2062.51,-378 2068.51,-378 2074.51,-384 2074.51,-390 2074.51,-390 2074.51,-402 2074.51,-402 2074.51,-408 2068.51,-414 2062.51,-414"/>
<text text-anchor="middle" x="2015.51" y="-393.5" font-family="sans" font-size="10.00">correct_nan_vertices</text>
</g>
<!-- 107&#45;&gt;122 -->
<g id="edge80" class="edge">
<title>107&#45;&gt;122</title>
<path fill="none" stroke="grey" stroke-width="2" d="M2001.26,-377.61C1993.54,-367.62 1984.23,-354.58 1977.51,-342 1945.27,-281.61 1943.8,-261.25 1938.51,-193 1937.1,-174.83 1937.32,-170.18 1938.51,-152 1939.07,-143.53 1940.12,-134.36 1941.24,-126.06"/>
<polygon fill="grey" stroke="grey" stroke-width="2" points="1944.71,-126.53 1942.67,-116.13 1937.78,-125.53 1944.71,-126.53"/>
</g>
<!-- 107&#45;&gt;106 -->
<g id="edge78" class="edge">
<title>107&#45;&gt;106</title>
<path fill="none" stroke="grey" stroke-width="2" d="M1978.57,-377.88C1958.02,-368.35 1932.26,-356.41 1910.42,-346.28"/>
<polygon fill="grey" stroke="grey" stroke-width="2" points="1911.88,-343.1 1901.33,-342.07 1908.93,-349.45 1911.88,-343.1"/>
</g>
<!-- 121 -->
<g id="node61" class="node">
<title>121</title>
<path fill="none" stroke="#b6d856" stroke-width="2" d="M2069.01,-342C2069.01,-342 1998.01,-342 1998.01,-342 1992.01,-342 1986.01,-336 1986.01,-330 1986.01,-330 1986.01,-318 1986.01,-318 1986.01,-312 1992.01,-306 1998.01,-306 1998.01,-306 2069.01,-306 2069.01,-306 2075.01,-306 2081.01,-312 2081.01,-318 2081.01,-318 2081.01,-330 2081.01,-330 2081.01,-336 2075.01,-342 2069.01,-342"/>
<text text-anchor="middle" x="2033.51" y="-327" font-family="sans" font-size="10.00">smooth_surface</text>
<text text-anchor="middle" x="2033.51" y="-316" font-family="sans" font-size="10.00">space: corobl</text>
</g>
<!-- 107&#45;&gt;121 -->
<g id="edge79" class="edge">
<title>107&#45;&gt;121</title>
<path fill="none" stroke="grey" stroke-width="2" d="M2019.96,-377.7C2021.97,-369.9 2024.38,-360.51 2026.61,-351.83"/>
<polygon fill="grey" stroke="grey" stroke-width="2" points="2030.01,-352.66 2029.11,-342.1 2023.23,-350.92 2030.01,-352.66"/>
</g>
<!-- 120 -->
<g id="node65" class="node">
<title>120</title>
<path fill="none" stroke="#80d856" stroke-width="2" d="M2129.51,-267.5C2129.51,-267.5 1971.51,-267.5 1971.51,-267.5 1965.51,-267.5 1959.51,-261.5 1959.51,-255.5 1959.51,-255.5 1959.51,-243.5 1959.51,-243.5 1959.51,-237.5 1965.51,-231.5 1971.51,-231.5 1971.51,-231.5 2129.51,-231.5 2129.51,-231.5 2135.51,-231.5 2141.51,-237.5 2141.51,-243.5 2141.51,-243.5 2141.51,-255.5 2141.51,-255.5 2141.51,-261.5 2135.51,-267.5 2129.51,-267.5"/>
<text text-anchor="middle" x="2050.51" y="-247" font-family="sans" font-size="10.00">calculate_curvature_from_surface</text>
</g>
<!-- 121&#45;&gt;120 -->
<g id="edge89" class="edge">
<title>121&#45;&gt;120</title>
<path fill="none" stroke="grey" stroke-width="2" d="M2037.54,-305.82C2039.53,-297.33 2041.98,-286.89 2044.21,-277.38"/>
<polygon fill="grey" stroke="grey" stroke-width="2" points="2047.64,-278.09 2046.51,-267.56 2040.82,-276.5 2047.64,-278.09"/>
</g>
<!-- 108 -->
<g id="node62" class="node">
<title>108</title>
<path fill="none" stroke="#5692d8" stroke-width="2" d="M2084.01,-486C2084.01,-486 1977.01,-486 1977.01,-486 1971.01,-486 1965.01,-480 1965.01,-474 1965.01,-474 1965.01,-462 1965.01,-462 1965.01,-456 1971.01,-450 1977.01,-450 1977.01,-450 2084.01,-450 2084.01,-450 2090.01,-450 2096.01,-456 2096.01,-462 2096.01,-462 2096.01,-474 2096.01,-474 2096.01,-480 2090.01,-486 2084.01,-486"/>
<text text-anchor="middle" x="2030.51" y="-465.5" font-family="sans" font-size="10.00">warp_gii_unfold2native</text>
</g>
<!-- 108&#45;&gt;107 -->
<g id="edge81" class="edge">
<title>108&#45;&gt;107</title>
<path fill="none" stroke="grey" stroke-width="2" d="M2026.8,-449.7C2025.15,-441.98 2023.16,-432.71 2021.32,-424.11"/>
<polygon fill="grey" stroke="grey" stroke-width="2" points="2024.69,-423.15 2019.18,-414.1 2017.85,-424.62 2024.69,-423.15"/>
</g>
<!-- 117 -->
<g id="node63" class="node">
<title>117</title>
<path fill="none" stroke="#bed856" stroke-width="2" d="M2083.51,-577C2083.51,-577 1977.51,-577 1977.51,-577 1971.51,-577 1965.51,-571 1965.51,-565 1965.51,-565 1965.51,-553 1965.51,-553 1965.51,-547 1971.51,-541 1977.51,-541 1977.51,-541 2083.51,-541 2083.51,-541 2089.51,-541 2095.51,-547 2095.51,-553 2095.51,-553 2095.51,-565 2095.51,-565 2095.51,-571 2089.51,-577 2083.51,-577"/>
<text text-anchor="middle" x="2030.51" y="-556.5" font-family="sans" font-size="10.00">constrain_surf_to_bbox</text>
</g>
<!-- 117&#45;&gt;108 -->
<g id="edge82" class="edge">
<title>117&#45;&gt;108</title>
<path fill="none" stroke="grey" stroke-width="2" d="M2030.51,-540.84C2030.51,-528.28 2030.51,-510.98 2030.51,-496.5"/>
<polygon fill="grey" stroke="grey" stroke-width="2" points="2034.01,-496.11 2030.51,-486.11 2027.01,-496.11 2034.01,-496.11"/>
</g>
<!-- 118 -->
<g id="node64" class="node">
<title>118</title>
<path fill="none" stroke="#d87556" stroke-width="2" d="M2068.51,-706C2068.51,-706 1958.51,-706 1958.51,-706 1952.51,-706 1946.51,-700 1946.51,-694 1946.51,-694 1946.51,-644 1946.51,-644 1946.51,-638 1952.51,-632 1958.51,-632 1958.51,-632 2068.51,-632 2068.51,-632 2074.51,-632 2080.51,-638 2080.51,-644 2080.51,-644 2080.51,-694 2080.51,-694 2080.51,-700 2074.51,-706 2068.51,-706"/>
<text text-anchor="middle" x="2013.51" y="-694" font-family="sans" font-size="10.00">cp_template_to_unfold</text>
<text text-anchor="middle" x="2013.51" y="-683" font-family="sans" font-size="10.00">autotop: dentate</text>
<text text-anchor="middle" x="2013.51" y="-672" font-family="sans" font-size="10.00">density: 0p5mm</text>
<text text-anchor="middle" x="2013.51" y="-661" font-family="sans" font-size="10.00">hemi: R</text>
<text text-anchor="middle" x="2013.51" y="-650" font-family="sans" font-size="10.00">subject: 001</text>
<text text-anchor="middle" x="2013.51" y="-639" font-family="sans" font-size="10.00">surfname: midthickness</text>
</g>
<!-- 118&#45;&gt;122 -->
<g id="edge84" class="edge">
<title>118&#45;&gt;122</title>
<path fill="none" stroke="grey" stroke-width="2" d="M1946.43,-643.85C1877.6,-614.24 1780.51,-556.91 1780.51,-469 1780.51,-469 1780.51,-469 1780.51,-248.5 1780.51,-186.76 1844.73,-143.87 1893.04,-120.34"/>
<polygon fill="grey" stroke="grey" stroke-width="2" points="1894.61,-123.47 1902.16,-116.03 1891.62,-117.14 1894.61,-123.47"/>
</g>
<!-- 118&#45;&gt;117 -->
<g id="edge83" class="edge">
<title>118&#45;&gt;117</title>
<path fill="none" stroke="grey" stroke-width="2" d="M2019.22,-631.74C2021.5,-617.23 2024.09,-600.8 2026.21,-587.33"/>
<polygon fill="grey" stroke="grey" stroke-width="2" points="2029.7,-587.68 2027.8,-577.26 2022.78,-586.59 2029.7,-587.68"/>
</g>
<!-- 120&#45;&gt;119 -->
<g id="edge87" class="edge">
<title>120&#45;&gt;119</title>
<path fill="none" stroke="grey" stroke-width="2" d="M2085.46,-231.48C2107.63,-220.68 2136.51,-206.62 2160.27,-195.04"/>
<polygon fill="grey" stroke="grey" stroke-width="2" points="2161.98,-198.11 2169.44,-190.58 2158.92,-191.81 2161.98,-198.11"/>
</g>
<!-- 120&#45;&gt;122 -->
<g id="edge88" class="edge">
<title>120&#45;&gt;122</title>
<path fill="none" stroke="grey" stroke-width="2" d="M2002.71,-231.42C1985.03,-222.67 1966.61,-210.16 1955.51,-193 1942.75,-173.26 1941.14,-146.18 1942.19,-126.15"/>
<polygon fill="grey" stroke="grey" stroke-width="2" points="1945.69,-126.36 1942.97,-116.12 1938.71,-125.82 1945.69,-126.36"/>
</g>
<!-- 7 -->
<g id="node66" class="node">
<title>7</title>
<path fill="none" stroke="#d8bc56" stroke-width="2" d="M291.51,-577C291.51,-577 207.51,-577 207.51,-577 201.51,-577 195.51,-571 195.51,-565 195.51,-565 195.51,-553 195.51,-553 195.51,-547 201.51,-541 207.51,-541 207.51,-541 291.51,-541 291.51,-541 297.51,-541 303.51,-547 303.51,-553 303.51,-553 303.51,-565 303.51,-565 303.51,-571 297.51,-577 291.51,-577"/>
<text text-anchor="middle" x="249.51" y="-556.5" font-family="sans" font-size="10.00">create_warps_hipp</text>
</g>
<!-- 7&#45;&gt;6 -->
<g id="edge91" class="edge">
<title>7&#45;&gt;6</title>
<path fill="none" stroke="grey" stroke-width="2" d="M271.07,-540.94C281.47,-533.71 294.49,-526.04 307.51,-522 320.47,-517.98 1134.15,-483.09 1389.63,-472.22"/>
<polygon fill="grey" stroke="grey" stroke-width="2" points="1390.09,-475.7 1399.93,-471.78 1389.79,-468.71 1390.09,-475.7"/>
</g>
<!-- 7&#45;&gt;35 -->
<g id="edge92" class="edge">
<title>7&#45;&gt;35</title>
<path fill="none" stroke="grey" stroke-width="2" d="M272.84,-540.91C313.62,-511.11 394.24,-452.54 401.51,-450 538.49,-402.09 908.69,-423.08 1053.51,-414 1109.12,-410.51 1171.88,-406.09 1219.55,-402.63"/>
<polygon fill="grey" stroke="grey" stroke-width="2" points="1220.07,-406.1 1229.79,-401.88 1219.57,-399.12 1220.07,-406.1"/>
</g>
<!-- 7&#45;&gt;39 -->
<g id="edge93" class="edge">
<title>7&#45;&gt;39</title>
<path fill="none" stroke="grey" stroke-width="2" d="M260.78,-540.73C278.27,-515.6 314.55,-469.82 358.51,-450 468.55,-400.39 780.99,-430.9 900.51,-414 901.26,-413.89 902.01,-413.79 902.76,-413.67"/>
<polygon fill="grey" stroke="grey" stroke-width="2" points="903.36,-417.12 912.68,-412.07 902.24,-410.21 903.36,-417.12"/>
</g>
<!-- 8 -->
<g id="node67" class="node">
<title>8</title>
<path fill="none" stroke="#56d8d8" stroke-width="2" d="M291.51,-689.5C291.51,-689.5 213.51,-689.5 213.51,-689.5 207.51,-689.5 201.51,-683.5 201.51,-677.5 201.51,-677.5 201.51,-660.5 201.51,-660.5 201.51,-654.5 207.51,-648.5 213.51,-648.5 213.51,-648.5 291.51,-648.5 291.51,-648.5 297.51,-648.5 303.51,-654.5 303.51,-660.5 303.51,-660.5 303.51,-677.5 303.51,-677.5 303.51,-683.5 297.51,-689.5 291.51,-689.5"/>
<text text-anchor="middle" x="252.51" y="-677.5" font-family="sans" font-size="10.00">create_unfold_ref</text>
<text text-anchor="middle" x="252.51" y="-666.5" font-family="sans" font-size="10.00">autotop: hipp</text>
<text text-anchor="middle" x="252.51" y="-655.5" font-family="sans" font-size="10.00">subject: 001</text>
</g>
<!-- 8&#45;&gt;29 -->
<g id="edge95" class="edge">
<title>8&#45;&gt;29</title>
<path fill="none" stroke="grey" stroke-width="2" d="M276.26,-648.49C285.46,-642.04 296.44,-635.59 307.51,-632 464.95,-580.88 886.36,-607.17 1051.51,-596 1170.02,-587.98 1307.32,-575.39 1390.24,-567.42"/>
<polygon fill="grey" stroke="grey" stroke-width="2" points="1390.7,-570.89 1400.32,-566.45 1390.03,-563.92 1390.7,-570.89"/>
</g>
<!-- 8&#45;&gt;36 -->
<g id="edge96" class="edge">
<title>8&#45;&gt;36</title>
<path fill="none" stroke="grey" stroke-width="2" d="M279.35,-648.33C288.04,-642.54 297.92,-636.55 307.51,-632 355.52,-609.24 380.04,-629.21 421.51,-596 451.21,-572.23 431.86,-541.52 464.51,-522 564.77,-462.05 1382.24,-499.6 1539.13,-485.79"/>
<polygon fill="grey" stroke="grey" stroke-width="2" points="1539.69,-489.25 1549.27,-484.71 1538.95,-482.29 1539.69,-489.25"/>
</g>
<!-- 8&#45;&gt;40 -->
<g id="edge97" class="edge">
<title>8&#45;&gt;40</title>
<path fill="none" stroke="grey" stroke-width="2" d="M280.86,-648.34C289.29,-642.8 298.64,-636.94 307.51,-632 340.51,-613.61 356.14,-620.94 384.51,-596 413.77,-570.28 398.1,-542.05 431.51,-522 519.34,-469.3 784.68,-499.99 903.26,-485.9"/>
<polygon fill="grey" stroke="grey" stroke-width="2" points="903.8,-489.36 913.24,-484.55 902.87,-482.42 903.8,-489.36"/>
</g>
<!-- 8&#45;&gt;43 -->
<g id="edge98" class="edge">
<title>8&#45;&gt;43</title>
<path fill="none" stroke="grey" stroke-width="2" d="M201.35,-663.05C157.07,-655.91 94.88,-638.48 60.51,-596 24.61,-551.63 41.51,-526.07 41.51,-469 41.51,-469 41.51,-469 41.51,-395 41.51,-384.44 312.65,-309.64 451.54,-272.01"/>
<polygon fill="grey" stroke="grey" stroke-width="2" points="452.57,-275.35 461.31,-269.36 450.74,-268.6 452.57,-275.35"/>
</g>
<!-- 8&#45;&gt;63 -->
<g id="edge100" class="edge">
<title>8&#45;&gt;63</title>
<path fill="none" stroke="grey" stroke-width="2" d="M276.59,-648.49C285.75,-642.12 296.61,-635.73 307.51,-632 496.92,-567.17 563.38,-648.7 756.51,-596 768.68,-592.68 781.26,-587.37 792.51,-581.83"/>
<polygon fill="grey" stroke="grey" stroke-width="2" points="794.31,-584.84 801.62,-577.17 791.12,-578.61 794.31,-584.84"/>
</g>
<!-- 8&#45;&gt;72 -->
<g id="edge101" class="edge">
<title>8&#45;&gt;72</title>
<path fill="none" stroke="grey" stroke-width="2" d="M270.53,-648.24C282.97,-634.16 299.54,-614.53 312.51,-596 334.32,-564.83 327.17,-547.37 355.51,-522 370.68,-508.42 389.89,-497.86 408.47,-489.87"/>
<polygon fill="grey" stroke="grey" stroke-width="2" points="409.88,-493.07 417.8,-486.04 407.22,-486.6 409.88,-493.07"/>
</g>
<!-- 8&#45;&gt;76 -->
<g id="edge102" class="edge">
<title>8&#45;&gt;76</title>
<path fill="none" stroke="grey" stroke-width="2" d="M283.95,-648.49C303.68,-635.26 328.83,-616.49 347.51,-596 373.6,-567.38 361.81,-544.24 393.51,-522 400.81,-516.88 497.45,-497.31 568.39,-483.44"/>
<polygon fill="grey" stroke="grey" stroke-width="2" points="569.08,-486.87 578.22,-481.52 567.74,-480 569.08,-486.87"/>
</g>
<!-- 8&#45;&gt;80 -->
<g id="edge103" class="edge">
<title>8&#45;&gt;80</title>
<path fill="none" stroke="grey" stroke-width="2" d="M201.1,-666.1C149.45,-661.29 71.38,-645.63 27.51,-596 -10.54,-552.96 3.51,-526.44 3.51,-469 3.51,-469 3.51,-469 3.51,-395 3.51,-354.03 -2.93,-333.42 27.51,-306 65.6,-271.7 203.45,-258.5 293.24,-253.5"/>
<polygon fill="grey" stroke="grey" stroke-width="2" points="293.6,-256.98 303.39,-252.95 293.22,-249.99 293.6,-256.98"/>
</g>
<!-- 8&#45;&gt;7 -->
<g id="edge94" class="edge">
<title>8&#45;&gt;7</title>
<path fill="none" stroke="grey" stroke-width="2" d="M251.97,-648.44C251.49,-631.39 250.8,-606.48 250.27,-587.43"/>
<polygon fill="grey" stroke="grey" stroke-width="2" points="253.77,-587.17 249.99,-577.27 246.77,-587.37 253.77,-587.17"/>
</g>
<!-- 49 -->
<g id="node68" class="node">
<title>49</title>
<path fill="none" stroke="#d8bc56" stroke-width="2" d="M165.51,-577C165.51,-577 81.51,-577 81.51,-577 75.51,-577 69.51,-571 69.51,-565 69.51,-565 69.51,-553 69.51,-553 69.51,-547 75.51,-541 81.51,-541 81.51,-541 165.51,-541 165.51,-541 171.51,-541 177.51,-547 177.51,-553 177.51,-553 177.51,-565 177.51,-565 177.51,-571 171.51,-577 165.51,-577"/>
<text text-anchor="middle" x="123.51" y="-556.5" font-family="sans" font-size="10.00">create_warps_hipp</text>
</g>
<!-- 8&#45;&gt;49 -->
<g id="edge99" class="edge">
<title>8&#45;&gt;49</title>
<path fill="none" stroke="grey" stroke-width="2" d="M229.15,-648.44C207.46,-630.28 175.11,-603.2 151.93,-583.79"/>
<polygon fill="grey" stroke="grey" stroke-width="2" points="154.06,-581.01 144.15,-577.27 149.57,-586.38 154.06,-581.01"/>
</g>
<!-- 49&#45;&gt;48 -->
<g id="edge104" class="edge">
<title>49&#45;&gt;48</title>
<path fill="none" stroke="grey" stroke-width="2" d="M147.47,-540.89C158.77,-533.75 172.76,-526.15 186.51,-522 412.94,-453.59 482.38,-511.77 717.51,-486 729.27,-484.71 741.69,-483.09 753.81,-481.36"/>
<polygon fill="grey" stroke="grey" stroke-width="2" points="754.5,-484.8 763.89,-479.89 753.49,-477.87 754.5,-484.8"/>
</g>
<!-- 49&#45;&gt;71 -->
<g id="edge105" class="edge">
<title>49&#45;&gt;71</title>
<path fill="none" stroke="grey" stroke-width="2" d="M128.22,-540.63C135.79,-516.24 153.1,-472.35 184.51,-450 218.28,-425.97 325.15,-411.18 399.51,-403.52"/>
<polygon fill="grey" stroke="grey" stroke-width="2" points="400.18,-406.97 409.78,-402.49 399.48,-400.01 400.18,-406.97"/>
</g>
<!-- 49&#45;&gt;75 -->
<g id="edge106" class="edge">
<title>49&#45;&gt;75</title>
<path fill="none" stroke="grey" stroke-width="2" d="M136.95,-540.6C157.25,-515.74 198.29,-470.8 244.51,-450 369.39,-393.8 415.09,-434.32 550.51,-414 556.18,-413.15 562.03,-412.21 567.91,-411.23"/>
<polygon fill="grey" stroke="grey" stroke-width="2" points="568.53,-414.68 577.8,-409.55 567.36,-407.78 568.53,-414.68"/>
</g>
<!-- 87 -->
<g id="node69" class="node">
<title>87</title>
<path fill="none" stroke="#59d856" stroke-width="2" d="M2777.01,-577C2777.01,-577 2676.01,-577 2676.01,-577 2670.01,-577 2664.01,-571 2664.01,-565 2664.01,-565 2664.01,-553 2664.01,-553 2664.01,-547 2670.01,-541 2676.01,-541 2676.01,-541 2777.01,-541 2777.01,-541 2783.01,-541 2789.01,-547 2789.01,-553 2789.01,-553 2789.01,-565 2789.01,-565 2789.01,-571 2783.01,-577 2777.01,-577"/>
<text text-anchor="middle" x="2726.51" y="-556.5" font-family="sans" font-size="10.00">create_warps_dentate</text>
</g>
<!-- 87&#45;&gt;86 -->
<g id="edge107" class="edge">
<title>87&#45;&gt;86</title>
<path fill="none" stroke="grey" stroke-width="2" d="M2696.81,-540.97C2684.35,-534.35 2669.52,-527.14 2655.51,-522 2608.06,-504.58 2552.78,-491.36 2509.25,-482.48"/>
<polygon fill="grey" stroke="grey" stroke-width="2" points="2509.79,-479.02 2499.3,-480.49 2508.42,-485.89 2509.79,-479.02"/>
</g>
<!-- 88 -->
<g id="node70" class="node">
<title>88</title>
<path fill="none" stroke="#56d8d8" stroke-width="2" d="M2616.51,-689.5C2616.51,-689.5 2538.51,-689.5 2538.51,-689.5 2532.51,-689.5 2526.51,-683.5 2526.51,-677.5 2526.51,-677.5 2526.51,-660.5 2526.51,-660.5 2526.51,-654.5 2532.51,-648.5 2538.51,-648.5 2538.51,-648.5 2616.51,-648.5 2616.51,-648.5 2622.51,-648.5 2628.51,-654.5 2628.51,-660.5 2628.51,-660.5 2628.51,-677.5 2628.51,-677.5 2628.51,-683.5 2622.51,-689.5 2616.51,-689.5"/>
<text text-anchor="middle" x="2577.51" y="-677.5" font-family="sans" font-size="10.00">create_unfold_ref</text>
<text text-anchor="middle" x="2577.51" y="-666.5" font-family="sans" font-size="10.00">autotop: dentate</text>
<text text-anchor="middle" x="2577.51" y="-655.5" font-family="sans" font-size="10.00">subject: 001</text>
</g>
<!-- 88&#45;&gt;100 -->
<g id="edge109" class="edge">
<title>88&#45;&gt;100</title>
<path fill="none" stroke="grey" stroke-width="2" d="M2551.43,-648.44C2527.01,-630.12 2490.48,-602.73 2464.56,-583.28"/>
<polygon fill="grey" stroke="grey" stroke-width="2" points="2466.64,-580.47 2456.54,-577.27 2462.44,-586.07 2466.64,-580.47"/>
</g>
<!-- 88&#45;&gt;117 -->
<g id="edge111" class="edge">
<title>88&#45;&gt;117</title>
<path fill="none" stroke="grey" stroke-width="2" d="M2552.47,-648.32C2543.48,-642.17 2532.97,-635.97 2522.51,-632 2447.8,-603.67 2223.9,-578.67 2105.62,-566.99"/>
<polygon fill="grey" stroke="grey" stroke-width="2" points="2105.85,-563.5 2095.56,-566 2105.17,-570.46 2105.85,-563.5"/>
</g>
<!-- 88&#45;&gt;87 -->
<g id="edge108" class="edge">
<title>88&#45;&gt;87</title>
<path fill="none" stroke="grey" stroke-width="2" d="M2604.49,-648.44C2629.77,-630.12 2667.57,-602.73 2694.39,-583.28"/>
<polygon fill="grey" stroke="grey" stroke-width="2" points="2696.64,-585.98 2702.68,-577.27 2692.53,-580.31 2696.64,-585.98"/>
</g>
<!-- 109 -->
<g id="node71" class="node">
<title>109</title>
<path fill="none" stroke="#59d856" stroke-width="2" d="M2634.01,-577C2634.01,-577 2533.01,-577 2533.01,-577 2527.01,-577 2521.01,-571 2521.01,-565 2521.01,-565 2521.01,-553 2521.01,-553 2521.01,-547 2527.01,-541 2533.01,-541 2533.01,-541 2634.01,-541 2634.01,-541 2640.01,-541 2646.01,-547 2646.01,-553 2646.01,-553 2646.01,-565 2646.01,-565 2646.01,-571 2640.01,-577 2634.01,-577"/>
<text text-anchor="middle" x="2583.51" y="-556.5" font-family="sans" font-size="10.00">create_warps_dentate</text>
</g>
<!-- 88&#45;&gt;109 -->
<g id="edge110" class="edge">
<title>88&#45;&gt;109</title>
<path fill="none" stroke="grey" stroke-width="2" d="M2578.6,-648.44C2579.55,-631.39 2580.93,-606.48 2581.99,-587.43"/>
<polygon fill="grey" stroke="grey" stroke-width="2" points="2585.49,-587.45 2582.55,-577.27 2578.5,-587.06 2585.49,-587.45"/>
</g>
<!-- 109&#45;&gt;108 -->
<g id="edge112" class="edge">
<title>109&#45;&gt;108</title>
<path fill="none" stroke="grey" stroke-width="2" d="M2557.91,-540.98C2546.09,-533.94 2531.58,-526.41 2517.51,-522 2377.02,-477.94 2203.83,-469.24 2106.41,-468.22"/>
<polygon fill="grey" stroke="grey" stroke-width="2" points="2106.39,-464.72 2096.36,-468.13 2106.33,-471.72 2106.39,-464.72"/>
</g>
</g>
</svg>
