<?xml version="1.0" encoding="UTF-8" standalone="no"?>
<!DOCTYPE svg PUBLIC "-//W3C//DTD SVG 1.1//EN"
 "http://www.w3.org/Graphics/SVG/1.1/DTD/svg11.dtd">
<!-- Generated by graphviz version 2.43.0 (0)
 -->
<!-- Pages: 1 -->
<svg width="382pt" height="160pt"
 viewBox="0.00 0.00 382.00 160.00" xmlns="http://www.w3.org/2000/svg" xmlns:xlink="http://www.w3.org/1999/xlink">
<g id="graph0" class="graph" transform="scale(1 1) rotate(0) translate(4 156)">
<polygon fill="white" stroke="transparent" points="-4,4 -4,-156 378,-156 378,4 -4,4"/>
<g id="clust1" class="cluster">
<title>cluster_0</title>
<polygon fill="white" stroke="blue" points="8,-8 8,-144 366,-144 366,-8 8,-8"/>
<text text-anchor="middle" x="187" y="-128.8" font-family="Times,serif" font-size="14.00">preproc_hippb500</text>
</g>
<!-- 16 -->
<g id="node1" class="node">
<title>16</title>
<path fill="none" stroke="#d86e56" stroke-width="2" d="M218.5,-44C218.5,-44 169.5,-44 169.5,-44 163.5,-44 157.5,-38 157.5,-32 157.5,-32 157.5,-20 157.5,-20 157.5,-14 163.5,-8 169.5,-8 169.5,-8 218.5,-8 218.5,-8 224.5,-8 230.5,-14 230.5,-20 230.5,-20 230.5,-32 230.5,-32 230.5,-38 224.5,-44 218.5,-44"/>
<text text-anchor="middle" x="194" y="-23.5" font-family="sans" font-size="10.00">lr_flip_b500</text>
</g>
<!-- 17 -->
<g id="node2" class="node">
<title>17</title>
<path fill="none" stroke="#56d8d0" stroke-width="2" d="M354,-121C354,-121 208,-121 208,-121 202,-121 196,-115 196,-109 196,-109 196,-92 196,-92 196,-86 202,-80 208,-80 208,-80 354,-80 354,-80 360,-80 366,-86 366,-92 366,-92 366,-109 366,-109 366,-115 360,-121 354,-121"/>
<text text-anchor="middle" x="281" y="-109" font-family="sans" font-size="10.00">resample_hippdwi_to_template</text>
<text text-anchor="middle" x="281" y="-98" font-family="sans" font-size="10.00">hemi: L</text>
<text text-anchor="middle" x="281" y="-87" font-family="sans" font-size="10.00">subject: 001</text>
</g>
<!-- 17&#45;&gt;16 -->
<g id="edge1" class="edge">
<title>17&#45;&gt;16</title>
<path fill="none" stroke="grey" stroke-width="2" d="M257.23,-79.69C246.46,-70.72 233.64,-60.04 222.37,-50.65"/>
<polygon fill="grey" stroke="grey" stroke-width="2" points="224.42,-47.79 214.49,-44.08 219.94,-53.17 224.42,-47.79"/>
</g>
<!-- 158 -->
<g id="node3" class="node">
<title>158</title>
<path fill="none" stroke="#56c1d8" stroke-width="2" d="M353.5,-44C353.5,-44 260.5,-44 260.5,-44 254.5,-44 248.5,-38 248.5,-32 248.5,-32 248.5,-20 248.5,-20 248.5,-14 254.5,-8 260.5,-8 260.5,-8 353.5,-8 353.5,-8 359.5,-8 365.5,-14 365.5,-20 365.5,-20 365.5,-32 365.5,-32 365.5,-38 359.5,-44 353.5,-44"/>
<text text-anchor="middle" x="307" y="-23.5" font-family="sans" font-size="10.00">cp_b500_to_anat_dir</text>
</g>
<!-- 17&#45;&gt;158 -->
<g id="edge2" class="edge">
<title>17&#45;&gt;158</title>
<path fill="none" stroke="grey" stroke-width="2" d="M288.1,-79.69C290.96,-71.73 294.29,-62.44 297.36,-53.89"/>
<polygon fill="grey" stroke="grey" stroke-width="2" points="300.71,-54.91 300.79,-44.32 294.12,-52.55 300.71,-54.91"/>
</g>
<!-- 54 -->
<g id="node4" class="node">
<title>54</title>
<path fill="none" stroke="#56d8d0" stroke-width="2" d="M166,-121C166,-121 20,-121 20,-121 14,-121 8,-115 8,-109 8,-109 8,-92 8,-92 8,-86 14,-80 20,-80 20,-80 166,-80 166,-80 172,-80 178,-86 178,-92 178,-92 178,-109 178,-109 178,-115 172,-121 166,-121"/>
<text text-anchor="middle" x="93" y="-109" font-family="sans" font-size="10.00">resample_hippdwi_to_template</text>
<text text-anchor="middle" x="93" y="-98" font-family="sans" font-size="10.00">hemi: R</text>
<text text-anchor="middle" x="93" y="-87" font-family="sans" font-size="10.00">subject: 001</text>
</g>
<!-- 160 -->
<g id="node5" class="node">
<title>160</title>
<path fill="none" stroke="#56c1d8" stroke-width="2" d="M127.5,-44C127.5,-44 34.5,-44 34.5,-44 28.5,-44 22.5,-38 22.5,-32 22.5,-32 22.5,-20 22.5,-20 22.5,-14 28.5,-8 34.5,-8 34.5,-8 127.5,-8 127.5,-8 133.5,-8 139.5,-14 139.5,-20 139.5,-20 139.5,-32 139.5,-32 139.5,-38 133.5,-44 127.5,-44"/>
<text text-anchor="middle" x="81" y="-23.5" font-family="sans" font-size="10.00">cp_b500_to_anat_dir</text>
</g>
<!-- 54&#45;&gt;160 -->
<g id="edge3" class="edge">
<title>54&#45;&gt;160</title>
<path fill="none" stroke="grey" stroke-width="2" d="M89.72,-79.69C88.43,-71.91 86.93,-62.84 85.54,-54.45"/>
<polygon fill="grey" stroke="grey" stroke-width="2" points="88.95,-53.61 83.87,-44.32 82.05,-54.76 88.95,-53.61"/>
</g>
</g>
</svg>
