<?xml version="1.0" encoding="UTF-8" standalone="no"?>
<!DOCTYPE svg PUBLIC "-//W3C//DTD SVG 1.1//EN"
 "http://www.w3.org/Graphics/SVG/1.1/DTD/svg11.dtd">
<!-- Generated by graphviz version 2.43.0 (0)
 -->
<!-- Pages: 1 -->
<svg width="450pt" height="515pt"
 viewBox="0.00 0.00 450.00 515.00" xmlns="http://www.w3.org/2000/svg" xmlns:xlink="http://www.w3.org/1999/xlink">
<g id="graph0" class="graph" transform="scale(1 1) rotate(0) translate(4 511)">
<polygon fill="white" stroke="transparent" points="-4,4 -4,-511 446,-511 446,4 -4,4"/>
<g id="clust1" class="cluster">
<title>cluster_0</title>
<polygon fill="white" stroke="blue" points="8,-8 8,-499 434,-499 434,-8 8,-8"/>
<text text-anchor="middle" x="221" y="-483.8" font-family="Times,serif" font-size="14.00">preproc_t1</text>
</g>
<!-- 17 -->
<g id="node1" class="node">
<title>17</title>
<path fill="none" stroke="#56d8c1" stroke-width="2" d="M103,-44C103,-44 45,-44 45,-44 39,-44 33,-38 33,-32 33,-32 33,-20 33,-20 33,-14 39,-8 45,-8 45,-8 103,-8 103,-8 109,-8 115,-14 115,-20 115,-20 115,-32 115,-32 115,-38 109,-44 103,-44"/>
<text text-anchor="middle" x="74" y="-29" font-family="sans" font-size="10.00">lr_flip_t1</text>
<text text-anchor="middle" x="74" y="-18" font-family="sans" font-size="10.00">desc: preproc</text>
</g>
<!-- 18 -->
<g id="node2" class="node">
<title>18</title>
<path fill="none" stroke="#d8ac56" stroke-width="2" d="M128,-116C128,-116 20,-116 20,-116 14,-116 8,-110 8,-104 8,-104 8,-92 8,-92 8,-86 14,-80 20,-80 20,-80 128,-80 128,-80 134,-80 140,-86 140,-92 140,-92 140,-104 140,-104 140,-110 134,-116 128,-116"/>
<text text-anchor="middle" x="74" y="-101" font-family="sans" font-size="10.00">warp_t1_to_corobl_crop</text>
<text text-anchor="middle" x="74" y="-90" font-family="sans" font-size="10.00">hemi: L</text>
</g>
<!-- 18&#45;&gt;17 -->
<g id="edge1" class="edge">
<title>18&#45;&gt;17</title>
<path fill="none" stroke="grey" stroke-width="2" d="M74,-79.7C74,-71.98 74,-62.71 74,-54.11"/>
<polygon fill="grey" stroke="grey" stroke-width="2" points="77.5,-54.1 74,-44.1 70.5,-54.1 77.5,-54.1"/>
</g>
<!-- 19 -->
<g id="node3" class="node">
<title>19</title>
<path fill="none" stroke="#56d8d0" stroke-width="2" d="M236,-404C236,-404 206,-404 206,-404 200,-404 194,-398 194,-392 194,-392 194,-380 194,-380 194,-374 200,-368 206,-368 206,-368 236,-368 236,-368 242,-368 248,-374 248,-380 248,-380 248,-392 248,-392 248,-398 242,-404 236,-404"/>
<text text-anchor="middle" x="221" y="-383.5" font-family="sans" font-size="10.00">n4_t1</text>
</g>
<!-- 19&#45;&gt;18 -->
<g id="edge2" class="edge">
<title>19&#45;&gt;18</title>
<path fill="none" stroke="grey" stroke-width="2" d="M198.84,-367.77C187.43,-358.12 173.89,-345.36 164,-332 115.54,-266.52 89.74,-171.66 79.43,-125.81"/>
<polygon fill="grey" stroke="grey" stroke-width="2" points="82.85,-125.05 77.3,-116.03 76.01,-126.54 82.85,-125.05"/>
</g>
<!-- 23 -->
<g id="node4" class="node">
<title>23</title>
<path fill="none" stroke="#56d873" stroke-width="2" d="M257.5,-332C257.5,-332 184.5,-332 184.5,-332 178.5,-332 172.5,-326 172.5,-320 172.5,-320 172.5,-308 172.5,-308 172.5,-302 178.5,-296 184.5,-296 184.5,-296 257.5,-296 257.5,-296 263.5,-296 269.5,-302 269.5,-308 269.5,-308 269.5,-320 269.5,-320 269.5,-326 263.5,-332 257.5,-332"/>
<text text-anchor="middle" x="221" y="-311.5" font-family="sans" font-size="10.00">reg_to_template</text>
</g>
<!-- 19&#45;&gt;23 -->
<g id="edge3" class="edge">
<title>19&#45;&gt;23</title>
<path fill="none" stroke="grey" stroke-width="2" d="M221,-367.7C221,-359.98 221,-350.71 221,-342.11"/>
<polygon fill="grey" stroke="grey" stroke-width="2" points="224.5,-342.1 221,-332.1 217.5,-342.1 224.5,-342.1"/>
</g>
<!-- 64 -->
<g id="node5" class="node">
<title>64</title>
<path fill="none" stroke="#d8ac56" stroke-width="2" d="M422,-116C422,-116 314,-116 314,-116 308,-116 302,-110 302,-104 302,-104 302,-92 302,-92 302,-86 308,-80 314,-80 314,-80 422,-80 422,-80 428,-80 434,-86 434,-92 434,-92 434,-104 434,-104 434,-110 428,-116 422,-116"/>
<text text-anchor="middle" x="368" y="-101" font-family="sans" font-size="10.00">warp_t1_to_corobl_crop</text>
<text text-anchor="middle" x="368" y="-90" font-family="sans" font-size="10.00">hemi: R</text>
</g>
<!-- 19&#45;&gt;64 -->
<g id="edge4" class="edge">
<title>19&#45;&gt;64</title>
<path fill="none" stroke="grey" stroke-width="2" d="M243.57,-367.83C255.18,-358.2 268.96,-345.44 279,-332 327.68,-266.82 352.84,-171.83 362.79,-125.88"/>
<polygon fill="grey" stroke="grey" stroke-width="2" points="366.22,-126.57 364.84,-116.07 359.36,-125.14 366.22,-126.57"/>
</g>
<!-- 22 -->
<g id="node9" class="node">
<title>22</title>
<path fill="none" stroke="#d87d56" stroke-width="2" d="M292.5,-260C292.5,-260 149.5,-260 149.5,-260 143.5,-260 137.5,-254 137.5,-248 137.5,-248 137.5,-236 137.5,-236 137.5,-230 143.5,-224 149.5,-224 149.5,-224 292.5,-224 292.5,-224 298.5,-224 304.5,-230 304.5,-236 304.5,-236 304.5,-248 304.5,-248 304.5,-254 298.5,-260 292.5,-260"/>
<text text-anchor="middle" x="221" y="-245" font-family="sans" font-size="10.00">convert_template_xfm_ras2itk</text>
<text text-anchor="middle" x="221" y="-234" font-family="sans" font-size="10.00">reg_suffix: T1w</text>
</g>
<!-- 23&#45;&gt;22 -->
<g id="edge10" class="edge">
<title>23&#45;&gt;22</title>
<path fill="none" stroke="grey" stroke-width="2" d="M221,-295.7C221,-287.98 221,-278.71 221,-270.11"/>
<polygon fill="grey" stroke="grey" stroke-width="2" points="224.5,-270.1 221,-260.1 217.5,-270.1 224.5,-270.1"/>
</g>
<!-- 20 -->
<g id="node6" class="node">
<title>20</title>
<path fill="none" stroke="#56d8b9" stroke-width="2" d="M247,-476C247,-476 195,-476 195,-476 189,-476 183,-470 183,-464 183,-464 183,-452 183,-452 183,-446 189,-440 195,-440 195,-440 247,-440 247,-440 253,-440 259,-446 259,-452 259,-452 259,-464 259,-464 259,-470 253,-476 247,-476"/>
<text text-anchor="middle" x="221" y="-461" font-family="sans" font-size="10.00">import_t1</text>
<text text-anchor="middle" x="221" y="-450" font-family="sans" font-size="10.00">subject: 001</text>
</g>
<!-- 20&#45;&gt;19 -->
<g id="edge5" class="edge">
<title>20&#45;&gt;19</title>
<path fill="none" stroke="grey" stroke-width="2" d="M221,-439.7C221,-431.98 221,-422.71 221,-414.11"/>
<polygon fill="grey" stroke="grey" stroke-width="2" points="224.5,-414.1 221,-404.1 217.5,-414.1 224.5,-414.1"/>
</g>
<!-- 21 -->
<g id="node7" class="node">
<title>21</title>
<path fill="none" stroke="#88d856" stroke-width="2" d="M294,-188C294,-188 148,-188 148,-188 142,-188 136,-182 136,-176 136,-176 136,-164 136,-164 136,-158 142,-152 148,-152 148,-152 294,-152 294,-152 300,-152 306,-158 306,-164 306,-164 306,-176 306,-176 306,-182 300,-188 294,-188"/>
<text text-anchor="middle" x="221" y="-167.5" font-family="sans" font-size="10.00">compose_template_xfm_corobl</text>
</g>
<!-- 21&#45;&gt;18 -->
<g id="edge6" class="edge">
<title>21&#45;&gt;18</title>
<path fill="none" stroke="grey" stroke-width="2" d="M185.04,-151.88C165.12,-142.39 140.18,-130.51 118.98,-120.42"/>
<polygon fill="grey" stroke="grey" stroke-width="2" points="120.38,-117.21 109.84,-116.07 117.37,-123.53 120.38,-117.21"/>
</g>
<!-- 21&#45;&gt;64 -->
<g id="edge8" class="edge">
<title>21&#45;&gt;64</title>
<path fill="none" stroke="grey" stroke-width="2" d="M256.96,-151.88C276.88,-142.39 301.82,-130.51 323.02,-120.42"/>
<polygon fill="grey" stroke="grey" stroke-width="2" points="324.63,-123.53 332.16,-116.07 321.62,-117.21 324.63,-123.53"/>
</g>
<!-- 37 -->
<g id="node8" class="node">
<title>37</title>
<path fill="none" stroke="#d87556" stroke-width="2" d="M271.5,-116C271.5,-116 170.5,-116 170.5,-116 164.5,-116 158.5,-110 158.5,-104 158.5,-104 158.5,-92 158.5,-92 158.5,-86 164.5,-80 170.5,-80 170.5,-80 271.5,-80 271.5,-80 277.5,-80 283.5,-86 283.5,-92 283.5,-92 283.5,-104 283.5,-104 283.5,-110 277.5,-116 271.5,-116"/>
<text text-anchor="middle" x="221" y="-101" font-family="sans" font-size="10.00">template_xfm_itk2ras</text>
<text text-anchor="middle" x="221" y="-90" font-family="sans" font-size="10.00">native_modality: T1w</text>
</g>
<!-- 21&#45;&gt;37 -->
<g id="edge7" class="edge">
<title>21&#45;&gt;37</title>
<path fill="none" stroke="grey" stroke-width="2" d="M221,-151.7C221,-143.98 221,-134.71 221,-126.11"/>
<polygon fill="grey" stroke="grey" stroke-width="2" points="224.5,-126.1 221,-116.1 217.5,-126.1 224.5,-126.1"/>
</g>
<!-- 22&#45;&gt;21 -->
<g id="edge9" class="edge">
<title>22&#45;&gt;21</title>
<path fill="none" stroke="grey" stroke-width="2" d="M221,-223.7C221,-215.98 221,-206.71 221,-198.11"/>
<polygon fill="grey" stroke="grey" stroke-width="2" points="224.5,-198.1 221,-188.1 217.5,-198.1 224.5,-198.1"/>
</g>
</g>
</svg>
