<?xml version="1.0" encoding="UTF-8" standalone="no"?>
<!DOCTYPE svg PUBLIC "-//W3C//DTD SVG 1.1//EN"
 "http://www.w3.org/Graphics/SVG/1.1/DTD/svg11.dtd">
<!-- Generated by graphviz version 2.43.0 (0)
 -->
<!-- Pages: 1 -->
<svg width="323pt" height="412pt"
 viewBox="0.00 0.00 323.00 412.00" xmlns="http://www.w3.org/2000/svg" xmlns:xlink="http://www.w3.org/1999/xlink">
<g id="graph0" class="graph" transform="scale(1 1) rotate(0) translate(4 408)">
<polygon fill="white" stroke="transparent" points="-4,4 -4,-408 319,-408 319,4 -4,4"/>
<g id="clust1" class="cluster">
<title>cluster_0</title>
<polygon fill="white" stroke="blue" points="60,-8 60,-283 266,-283 266,-8 60,-8"/>
<text text-anchor="middle" x="163" y="-267.8" font-family="Times,serif" font-size="14.00">nnunet</text>
</g>
<!-- 16 -->
<g id="node1" class="node">
<title>16</title>
<path fill="none" stroke="#ced856" stroke-width="2" d="M135.5,-260C135.5,-260 76.5,-260 76.5,-260 70.5,-260 64.5,-254 64.5,-248 64.5,-248 64.5,-236 64.5,-236 64.5,-230 70.5,-224 76.5,-224 76.5,-224 135.5,-224 135.5,-224 141.5,-224 147.5,-230 147.5,-236 147.5,-236 147.5,-248 147.5,-248 147.5,-254 141.5,-260 135.5,-260"/>
<text text-anchor="middle" x="106" y="-245" font-family="sans" font-size="10.00">run_inference</text>
<text text-anchor="middle" x="106" y="-234" font-family="sans" font-size="10.00">hemi: Lflip</text>
</g>
<!-- 188 -->
<g id="node2" class="node">
<title>188</title>
<path fill="none" stroke="#5682d8" stroke-width="2" d="M148,-188C148,-188 72,-188 72,-188 66,-188 60,-182 60,-176 60,-176 60,-164 60,-164 60,-158 66,-152 72,-152 72,-152 148,-152 148,-152 154,-152 160,-158 160,-164 160,-164 160,-176 160,-176 160,-182 154,-188 148,-188"/>
<text text-anchor="middle" x="110" y="-173" font-family="sans" font-size="10.00">unflip_nnunet_nii</text>
<text text-anchor="middle" x="110" y="-162" font-family="sans" font-size="10.00">hemi: L</text>
</g>
<!-- 16&#45;&gt;188 -->
<g id="edge1" class="edge">
<title>16&#45;&gt;188</title>
<path fill="none" stroke="grey" stroke-width="2" d="M106.99,-223.7C107.43,-215.98 107.96,-206.71 108.45,-198.11"/>
<polygon fill="grey" stroke="grey" stroke-width="2" points="111.95,-198.29 109.02,-188.1 104.96,-197.89 111.95,-198.29"/>
</g>
<!-- 187 -->
<g id="node6" class="node">
<title>187</title>
<path fill="none" stroke="#61d856" stroke-width="2" d="M140,-116C140,-116 76,-116 76,-116 70,-116 64,-110 64,-104 64,-104 64,-92 64,-92 64,-86 70,-80 76,-80 76,-80 140,-80 140,-80 146,-80 152,-86 152,-92 152,-92 152,-104 152,-104 152,-110 146,-116 140,-116"/>
<text text-anchor="middle" x="108" y="-95.5" font-family="sans" font-size="10.00">qc_nnunet_f3d</text>
</g>
<!-- 188&#45;&gt;187 -->
<g id="edge4" class="edge">
<title>188&#45;&gt;187</title>
<path fill="none" stroke="grey" stroke-width="2" d="M109.51,-151.7C109.29,-143.98 109.02,-134.71 108.77,-126.11"/>
<polygon fill="grey" stroke="grey" stroke-width="2" points="112.27,-126 108.49,-116.1 105.28,-126.2 112.27,-126"/>
</g>
<!-- 63 -->
<g id="node3" class="node">
<title>63</title>
<path fill="none" stroke="#ced856" stroke-width="2" d="M245.5,-260C245.5,-260 186.5,-260 186.5,-260 180.5,-260 174.5,-254 174.5,-248 174.5,-248 174.5,-236 174.5,-236 174.5,-230 180.5,-224 186.5,-224 186.5,-224 245.5,-224 245.5,-224 251.5,-224 257.5,-230 257.5,-236 257.5,-236 257.5,-248 257.5,-248 257.5,-254 251.5,-260 245.5,-260"/>
<text text-anchor="middle" x="216" y="-239.5" font-family="sans" font-size="10.00">run_inference</text>
</g>
<!-- 190 -->
<g id="node4" class="node">
<title>190</title>
<path fill="none" stroke="#61d856" stroke-width="2" d="M254,-188C254,-188 190,-188 190,-188 184,-188 178,-182 178,-176 178,-176 178,-164 178,-164 178,-158 184,-152 190,-152 190,-152 254,-152 254,-152 260,-152 266,-158 266,-164 266,-164 266,-176 266,-176 266,-182 260,-188 254,-188"/>
<text text-anchor="middle" x="222" y="-167.5" font-family="sans" font-size="10.00">qc_nnunet_f3d</text>
</g>
<!-- 63&#45;&gt;190 -->
<g id="edge2" class="edge">
<title>63&#45;&gt;190</title>
<path fill="none" stroke="grey" stroke-width="2" d="M217.48,-223.7C218.14,-215.98 218.94,-206.71 219.68,-198.11"/>
<polygon fill="grey" stroke="grey" stroke-width="2" points="223.17,-198.37 220.53,-188.1 216.19,-197.77 223.17,-198.37"/>
</g>
<!-- 189 -->
<g id="node7" class="node">
<title>189</title>
<path fill="none" stroke="#68d856" stroke-width="2" d="M254,-116C254,-116 186,-116 186,-116 180,-116 174,-110 174,-104 174,-104 174,-92 174,-92 174,-86 180,-80 186,-80 186,-80 254,-80 254,-80 260,-80 266,-86 266,-92 266,-92 266,-104 266,-104 266,-110 260,-116 254,-116"/>
<text text-anchor="middle" x="220" y="-95.5" font-family="sans" font-size="10.00">qc_nnunet_dice</text>
</g>
<!-- 190&#45;&gt;189 -->
<g id="edge5" class="edge">
<title>190&#45;&gt;189</title>
<path fill="none" stroke="grey" stroke-width="2" d="M221.51,-151.7C221.29,-143.98 221.02,-134.71 220.77,-126.11"/>
<polygon fill="grey" stroke="grey" stroke-width="2" points="224.27,-126 220.49,-116.1 217.28,-126.2 224.27,-126"/>
</g>
<!-- 186 -->
<g id="node5" class="node">
<title>186</title>
<path fill="none" stroke="#68d856" stroke-width="2" d="M142,-44C142,-44 74,-44 74,-44 68,-44 62,-38 62,-32 62,-32 62,-20 62,-20 62,-14 68,-8 74,-8 74,-8 142,-8 142,-8 148,-8 154,-14 154,-20 154,-20 154,-32 154,-32 154,-38 148,-44 142,-44"/>
<text text-anchor="middle" x="108" y="-23.5" font-family="sans" font-size="10.00">qc_nnunet_dice</text>
</g>
<!-- 187&#45;&gt;186 -->
<g id="edge3" class="edge">
<title>187&#45;&gt;186</title>
<path fill="none" stroke="grey" stroke-width="2" d="M108,-79.7C108,-71.98 108,-62.71 108,-54.11"/>
<polygon fill="grey" stroke="grey" stroke-width="2" points="111.5,-54.1 108,-44.1 104.5,-54.1 111.5,-54.1"/>
</g>
<!-- 17 -->
<g id="node8" class="node">
<title>17</title>
<path fill="none" stroke="#56d8c1" stroke-width="2" d="M130,-332C130,-332 72,-332 72,-332 66,-332 60,-326 60,-320 60,-320 60,-308 60,-308 60,-302 66,-296 72,-296 72,-296 130,-296 130,-296 136,-296 142,-302 142,-308 142,-308 142,-320 142,-320 142,-326 136,-332 130,-332"/>
<text text-anchor="middle" x="101" y="-317" font-family="sans" font-size="10.00">lr_flip_t1</text>
<text text-anchor="middle" x="101" y="-306" font-family="sans" font-size="10.00">desc: preproc</text>
</g>
<!-- 17&#45;&gt;16 -->
<g id="edge6" class="edge">
<title>17&#45;&gt;16</title>
<path fill="none" stroke="grey" stroke-width="2" d="M102.24,-295.7C102.79,-287.98 103.45,-278.71 104.06,-270.11"/>
<polygon fill="grey" stroke="grey" stroke-width="2" points="107.56,-270.33 104.78,-260.1 100.57,-269.83 107.56,-270.33"/>
</g>
<!-- 18 -->
<g id="node9" class="node">
<title>18</title>
<path fill="none" stroke="#d8ac56" stroke-width="2" d="M120,-404C120,-404 12,-404 12,-404 6,-404 0,-398 0,-392 0,-392 0,-380 0,-380 0,-374 6,-368 12,-368 12,-368 120,-368 120,-368 126,-368 132,-374 132,-380 132,-380 132,-392 132,-392 132,-398 126,-404 120,-404"/>
<text text-anchor="middle" x="66" y="-389" font-family="sans" font-size="10.00">warp_t1_to_corobl_crop</text>
<text text-anchor="middle" x="66" y="-378" font-family="sans" font-size="10.00">hemi: L</text>
</g>
<!-- 18&#45;&gt;187 -->
<g id="edge8" class="edge">
<title>18&#45;&gt;187</title>
<path fill="none" stroke="grey" stroke-width="2" d="M59.81,-368C46.4,-328.24 18.38,-226.88 51,-152 55.93,-140.68 64.61,-130.68 73.73,-122.51"/>
<polygon fill="grey" stroke="grey" stroke-width="2" points="75.99,-125.19 81.42,-116.09 71.5,-119.81 75.99,-125.19"/>
</g>
<!-- 18&#45;&gt;17 -->
<g id="edge7" class="edge">
<title>18&#45;&gt;17</title>
<path fill="none" stroke="grey" stroke-width="2" d="M74.65,-367.7C78.64,-359.73 83.45,-350.1 87.87,-341.26"/>
<polygon fill="grey" stroke="grey" stroke-width="2" points="91.11,-342.61 92.45,-332.1 84.85,-339.48 91.11,-342.61"/>
</g>
<!-- 64 -->
<g id="node10" class="node">
<title>64</title>
<path fill="none" stroke="#d8ac56" stroke-width="2" d="M303,-332C303,-332 195,-332 195,-332 189,-332 183,-326 183,-320 183,-320 183,-308 183,-308 183,-302 189,-296 195,-296 195,-296 303,-296 303,-296 309,-296 315,-302 315,-308 315,-308 315,-320 315,-320 315,-326 309,-332 303,-332"/>
<text text-anchor="middle" x="249" y="-317" font-family="sans" font-size="10.00">warp_t1_to_corobl_crop</text>
<text text-anchor="middle" x="249" y="-306" font-family="sans" font-size="10.00">hemi: R</text>
</g>
<!-- 64&#45;&gt;63 -->
<g id="edge9" class="edge">
<title>64&#45;&gt;63</title>
<path fill="none" stroke="grey" stroke-width="2" d="M240.84,-295.7C237.09,-287.73 232.55,-278.1 228.38,-269.26"/>
<polygon fill="grey" stroke="grey" stroke-width="2" points="231.49,-267.66 224.06,-260.1 225.16,-270.64 231.49,-267.66"/>
</g>
<!-- 64&#45;&gt;190 -->
<g id="edge10" class="edge">
<title>64&#45;&gt;190</title>
<path fill="none" stroke="grey" stroke-width="2" d="M261.36,-295.96C263.68,-291.9 265.77,-287.45 267,-283 274,-257.73 276.04,-248.61 267,-224 263.22,-213.7 256.44,-204.02 249.28,-195.84"/>
<polygon fill="grey" stroke="grey" stroke-width="2" points="251.77,-193.38 242.38,-188.47 246.66,-198.16 251.77,-193.38"/>
</g>
</g>
</svg>
