<?xml version="1.0" encoding="UTF-8" standalone="no"?>
<!DOCTYPE svg PUBLIC "-//W3C//DTD SVG 1.1//EN"
 "http://www.w3.org/Graphics/SVG/1.1/DTD/svg11.dtd">
<!-- Generated by graphviz version 2.43.0 (0)
 -->
<!-- Pages: 1 -->
<svg width="2844pt" height="326pt"
 viewBox="0.00 0.00 2844.00 325.50" xmlns="http://www.w3.org/2000/svg" xmlns:xlink="http://www.w3.org/1999/xlink">
<g id="graph0" class="graph" transform="scale(1 1) rotate(0) translate(4 321.5)">
<polygon fill="white" stroke="transparent" points="-4,4 -4,-321.5 2840,-321.5 2840,4 -4,4"/>
<g id="clust1" class="cluster">
<title>cluster_0</title>
<polygon fill="white" stroke="blue" points="290,-8 290,-309.5 1982,-309.5 1982,-8 290,-8"/>
<text text-anchor="middle" x="1136" y="-294.3" font-family="Times,serif" font-size="14.00">warps</text>
</g>
<!-- 8 -->
<g id="node1" class="node">
<title>8</title>
<path fill="none" stroke="#d86656" stroke-width="2" d="M411,-116C411,-116 327,-116 327,-116 321,-116 315,-110 315,-104 315,-104 315,-92 315,-92 315,-86 321,-80 327,-80 327,-80 411,-80 411,-80 417,-80 423,-86 423,-92 423,-92 423,-104 423,-104 423,-110 417,-116 411,-116"/>
<text text-anchor="middle" x="369" y="-95.5" font-family="sans" font-size="10.00">create_warps_hipp</text>
</g>
<!-- 167 -->
<g id="node2" class="node">
<title>167</title>
<path fill="none" stroke="#56b1d8" stroke-width="2" d="M460,-44C460,-44 302,-44 302,-44 296,-44 290,-38 290,-32 290,-32 290,-20 290,-20 290,-14 296,-8 302,-8 302,-8 460,-8 460,-8 466,-8 472,-14 472,-20 472,-20 472,-32 472,-32 472,-38 466,-44 460,-44"/>
<text text-anchor="middle" x="381" y="-29" font-family="sans" font-size="10.00">compose_warps_native_to_unfold</text>
<text text-anchor="middle" x="381" y="-18" font-family="sans" font-size="10.00">native_modality: T1w</text>
</g>
<!-- 8&#45;&gt;167 -->
<g id="edge1" class="edge">
<title>8&#45;&gt;167</title>
<path fill="none" stroke="grey" stroke-width="2" d="M371.96,-79.7C373.28,-71.98 374.87,-62.71 376.35,-54.11"/>
<polygon fill="grey" stroke="grey" stroke-width="2" points="379.82,-54.55 378.06,-44.1 372.92,-53.37 379.82,-54.55"/>
</g>
<!-- 171 -->
<g id="node3" class="node">
<title>171</title>
<path fill="none" stroke="#80d856" stroke-width="2" d="M887.5,-44C887.5,-44 702.5,-44 702.5,-44 696.5,-44 690.5,-38 690.5,-32 690.5,-32 690.5,-20 690.5,-20 690.5,-14 696.5,-8 702.5,-8 702.5,-8 887.5,-8 887.5,-8 893.5,-8 899.5,-14 899.5,-20 899.5,-20 899.5,-32 899.5,-32 899.5,-38 893.5,-44 887.5,-44"/>
<text text-anchor="middle" x="795" y="-23.5" font-family="sans" font-size="10.00">compose_warps_unfold_to_crop_native</text>
</g>
<!-- 8&#45;&gt;171 -->
<g id="edge2" class="edge">
<title>8&#45;&gt;171</title>
<path fill="none" stroke="grey" stroke-width="2" d="M423.38,-88.06C488.04,-77.44 597.7,-59.42 681.19,-45.7"/>
<polygon fill="grey" stroke="grey" stroke-width="2" points="681.93,-49.13 691.23,-44.05 680.8,-42.22 681.93,-49.13"/>
</g>
<!-- 9 -->
<g id="node4" class="node">
<title>9</title>
<path fill="none" stroke="#d6d856" stroke-width="2" d="M771,-286.5C771,-286.5 693,-286.5 693,-286.5 687,-286.5 681,-280.5 681,-274.5 681,-274.5 681,-257.5 681,-257.5 681,-251.5 687,-245.5 693,-245.5 693,-245.5 771,-245.5 771,-245.5 777,-245.5 783,-251.5 783,-257.5 783,-257.5 783,-274.5 783,-274.5 783,-280.5 777,-286.5 771,-286.5"/>
<text text-anchor="middle" x="732" y="-274.5" font-family="sans" font-size="10.00">create_unfold_ref</text>
<text text-anchor="middle" x="732" y="-263.5" font-family="sans" font-size="10.00">autotop: hipp</text>
<text text-anchor="middle" x="732" y="-252.5" font-family="sans" font-size="10.00">subject: 001</text>
</g>
<!-- 9&#45;&gt;8 -->
<g id="edge3" class="edge">
<title>9&#45;&gt;8</title>
<path fill="none" stroke="grey" stroke-width="2" d="M680.82,-259.36C611.26,-250.75 491.77,-232.27 459,-204 440.25,-187.83 453.88,-171.79 439,-152 430.29,-140.43 418.42,-130.16 406.92,-121.8"/>
<polygon fill="grey" stroke="grey" stroke-width="2" points="408.87,-118.9 398.66,-116.07 404.88,-124.65 408.87,-118.9"/>
</g>
<!-- 9&#45;&gt;167 -->
<g id="edge6" class="edge">
<title>9&#45;&gt;167</title>
<path fill="none" stroke="grey" stroke-width="2" d="M686.91,-245.43C667.9,-235.34 646.79,-221.45 632,-204 615.87,-184.99 627.59,-170.6 611,-152 565.81,-101.34 495.05,-67.24 443.94,-47.63"/>
<polygon fill="grey" stroke="grey" stroke-width="2" points="444.91,-44.25 434.32,-44.01 442.45,-50.8 444.91,-44.25"/>
</g>
<!-- 9&#45;&gt;171 -->
<g id="edge8" class="edge">
<title>9&#45;&gt;171</title>
<path fill="none" stroke="grey" stroke-width="2" d="M777.38,-245.36C794.25,-235.55 811.56,-221.9 821,-204 846.54,-155.53 824.53,-89.81 808.38,-53.63"/>
<polygon fill="grey" stroke="grey" stroke-width="2" points="811.41,-51.84 804.02,-44.25 805.06,-54.79 811.41,-51.84"/>
</g>
<!-- 10 -->
<g id="node5" class="node">
<title>10</title>
<path fill="none" stroke="#d88d56" stroke-width="2" d="M791.5,-196C791.5,-196 672.5,-196 672.5,-196 666.5,-196 660.5,-190 660.5,-184 660.5,-184 660.5,-172 660.5,-172 660.5,-166 666.5,-160 672.5,-160 672.5,-160 791.5,-160 791.5,-160 797.5,-160 803.5,-166 803.5,-172 803.5,-172 803.5,-184 803.5,-184 803.5,-190 797.5,-196 791.5,-196"/>
<text text-anchor="middle" x="732" y="-175.5" font-family="sans" font-size="10.00">create_unfold_coord_map</text>
</g>
<!-- 9&#45;&gt;10 -->
<g id="edge4" class="edge">
<title>9&#45;&gt;10</title>
<path fill="none" stroke="grey" stroke-width="2" d="M732,-245.49C732,-233.87 732,-218.96 732,-206.2"/>
<polygon fill="grey" stroke="grey" stroke-width="2" points="735.5,-206.11 732,-196.11 728.5,-206.11 735.5,-206.11"/>
</g>
<!-- 59 -->
<g id="node6" class="node">
<title>59</title>
<path fill="none" stroke="#d86656" stroke-width="2" d="M793,-116C793,-116 709,-116 709,-116 703,-116 697,-110 697,-104 697,-104 697,-92 697,-92 697,-86 703,-80 709,-80 709,-80 793,-80 793,-80 799,-80 805,-86 805,-92 805,-92 805,-104 805,-104 805,-110 799,-116 793,-116"/>
<text text-anchor="middle" x="751" y="-95.5" font-family="sans" font-size="10.00">create_warps_hipp</text>
</g>
<!-- 9&#45;&gt;59 -->
<g id="edge5" class="edge">
<title>9&#45;&gt;59</title>
<path fill="none" stroke="grey" stroke-width="2" d="M772.12,-245.29C787.89,-235.28 804.27,-221.49 813,-204 823.31,-183.32 822.67,-172.99 813,-152 807.67,-140.44 798.45,-130.47 788.72,-122.4"/>
<polygon fill="grey" stroke="grey" stroke-width="2" points="790.56,-119.39 780.5,-116.06 786.29,-124.94 790.56,-119.39"/>
</g>
<!-- 168 -->
<g id="node7" class="node">
<title>168</title>
<path fill="none" stroke="#56b1d8" stroke-width="2" d="M660,-44C660,-44 502,-44 502,-44 496,-44 490,-38 490,-32 490,-32 490,-20 490,-20 490,-14 496,-8 502,-8 502,-8 660,-8 660,-8 666,-8 672,-14 672,-20 672,-20 672,-32 672,-32 672,-38 666,-44 660,-44"/>
<text text-anchor="middle" x="581" y="-29" font-family="sans" font-size="10.00">compose_warps_native_to_unfold</text>
<text text-anchor="middle" x="581" y="-18" font-family="sans" font-size="10.00">native_modality: T1w</text>
</g>
<!-- 9&#45;&gt;168 -->
<g id="edge7" class="edge">
<title>9&#45;&gt;168</title>
<path fill="none" stroke="grey" stroke-width="2" d="M695.68,-245.33C679.95,-235.02 662.72,-220.99 652,-204 621.94,-156.38 650.76,-130.57 626,-80 621.01,-69.81 613.62,-59.96 606.26,-51.58"/>
<polygon fill="grey" stroke="grey" stroke-width="2" points="608.65,-49 599.3,-44.02 603.5,-53.75 608.65,-49"/>
</g>
<!-- 172 -->
<g id="node8" class="node">
<title>172</title>
<path fill="none" stroke="#80d856" stroke-width="2" d="M1114.5,-44C1114.5,-44 929.5,-44 929.5,-44 923.5,-44 917.5,-38 917.5,-32 917.5,-32 917.5,-20 917.5,-20 917.5,-14 923.5,-8 929.5,-8 929.5,-8 1114.5,-8 1114.5,-8 1120.5,-8 1126.5,-14 1126.5,-20 1126.5,-20 1126.5,-32 1126.5,-32 1126.5,-38 1120.5,-44 1114.5,-44"/>
<text text-anchor="middle" x="1022" y="-23.5" font-family="sans" font-size="10.00">compose_warps_unfold_to_crop_native</text>
</g>
<!-- 9&#45;&gt;172 -->
<g id="edge9" class="edge">
<title>9&#45;&gt;172</title>
<path fill="none" stroke="grey" stroke-width="2" d="M767.45,-245.42C786.83,-234.17 810.9,-219.27 831,-204 895.75,-154.79 963.81,-87.34 998.56,-51.58"/>
<polygon fill="grey" stroke="grey" stroke-width="2" points="1001.42,-53.66 1005.86,-44.03 996.39,-48.79 1001.42,-53.66"/>
</g>
<!-- 10&#45;&gt;8 -->
<g id="edge10" class="edge">
<title>10&#45;&gt;8</title>
<path fill="none" stroke="grey" stroke-width="2" d="M660.28,-161.59C594.09,-147.37 496.69,-126.44 433.05,-112.76"/>
<polygon fill="grey" stroke="grey" stroke-width="2" points="433.65,-109.31 423.14,-110.63 432.18,-116.16 433.65,-109.31"/>
</g>
<!-- 10&#45;&gt;59 -->
<g id="edge11" class="edge">
<title>10&#45;&gt;59</title>
<path fill="none" stroke="grey" stroke-width="2" d="M736.21,-159.69C738.62,-149.79 741.7,-137.16 744.42,-125.99"/>
<polygon fill="grey" stroke="grey" stroke-width="2" points="747.82,-126.81 746.79,-116.26 741.02,-125.15 747.82,-126.81"/>
</g>
<!-- 59&#45;&gt;168 -->
<g id="edge13" class="edge">
<title>59&#45;&gt;168</title>
<path fill="none" stroke="grey" stroke-width="2" d="M709.41,-79.88C685.96,-70.22 656.49,-58.09 631.7,-47.88"/>
<polygon fill="grey" stroke="grey" stroke-width="2" points="633.03,-44.64 622.45,-44.07 630.36,-51.11 633.03,-44.64"/>
</g>
<!-- 59&#45;&gt;172 -->
<g id="edge14" class="edge">
<title>59&#45;&gt;172</title>
<path fill="none" stroke="grey" stroke-width="2" d="M805.19,-83C845.62,-72.56 901.39,-58.15 946.24,-46.57"/>
<polygon fill="grey" stroke="grey" stroke-width="2" points="947.12,-49.96 955.93,-44.07 945.37,-43.18 947.12,-49.96"/>
</g>
<!-- 34 -->
<g id="node9" class="node">
<title>34</title>
<path fill="none" stroke="#d88556" stroke-width="2" d="M418,-196C418,-196 308,-196 308,-196 302,-196 296,-190 296,-184 296,-184 296,-172 296,-172 296,-166 302,-160 308,-160 308,-160 418,-160 418,-160 424,-160 430,-166 430,-172 430,-172 430,-184 430,-184 430,-190 424,-196 418,-196"/>
<text text-anchor="middle" x="363" y="-175.5" font-family="sans" font-size="10.00">create_native_coord_ref</text>
</g>
<!-- 34&#45;&gt;8 -->
<g id="edge12" class="edge">
<title>34&#45;&gt;8</title>
<path fill="none" stroke="grey" stroke-width="2" d="M364.33,-159.69C365.08,-149.89 366.04,-137.42 366.89,-126.33"/>
<polygon fill="grey" stroke="grey" stroke-width="2" points="370.39,-126.5 367.67,-116.26 363.41,-125.96 370.39,-126.5"/>
</g>
<!-- 72 -->
<g id="node10" class="node">
<title>72</title>
<path fill="none" stroke="#d88556" stroke-width="2" d="M590,-196C590,-196 480,-196 480,-196 474,-196 468,-190 468,-184 468,-184 468,-172 468,-172 468,-166 474,-160 480,-160 480,-160 590,-160 590,-160 596,-160 602,-166 602,-172 602,-172 602,-184 602,-184 602,-190 596,-196 590,-196"/>
<text text-anchor="middle" x="535" y="-181" font-family="sans" font-size="10.00">create_native_coord_ref</text>
<text text-anchor="middle" x="535" y="-170" font-family="sans" font-size="10.00">autotop: hipp</text>
</g>
<!-- 72&#45;&gt;59 -->
<g id="edge15" class="edge">
<title>72&#45;&gt;59</title>
<path fill="none" stroke="grey" stroke-width="2" d="M582.13,-159.98C615.04,-148.1 659.13,-132.17 694.01,-119.58"/>
<polygon fill="grey" stroke="grey" stroke-width="2" points="695.37,-122.81 703.59,-116.12 692.99,-116.22 695.37,-122.81"/>
</g>
<!-- 100 -->
<g id="node11" class="node">
<title>100</title>
<path fill="none" stroke="#56d863" stroke-width="2" d="M1735.5,-116C1735.5,-116 1634.5,-116 1634.5,-116 1628.5,-116 1622.5,-110 1622.5,-104 1622.5,-104 1622.5,-92 1622.5,-92 1622.5,-86 1628.5,-80 1634.5,-80 1634.5,-80 1735.5,-80 1735.5,-80 1741.5,-80 1747.5,-86 1747.5,-92 1747.5,-92 1747.5,-104 1747.5,-104 1747.5,-110 1741.5,-116 1735.5,-116"/>
<text text-anchor="middle" x="1685" y="-95.5" font-family="sans" font-size="10.00">create_warps_dentate</text>
</g>
<!-- 169 -->
<g id="node12" class="node">
<title>169</title>
<path fill="none" stroke="#56b1d8" stroke-width="2" d="M1315,-44C1315,-44 1157,-44 1157,-44 1151,-44 1145,-38 1145,-32 1145,-32 1145,-20 1145,-20 1145,-14 1151,-8 1157,-8 1157,-8 1315,-8 1315,-8 1321,-8 1327,-14 1327,-20 1327,-20 1327,-32 1327,-32 1327,-38 1321,-44 1315,-44"/>
<text text-anchor="middle" x="1236" y="-29" font-family="sans" font-size="10.00">compose_warps_native_to_unfold</text>
<text text-anchor="middle" x="1236" y="-18" font-family="sans" font-size="10.00">native_modality: T1w</text>
</g>
<!-- 100&#45;&gt;169 -->
<g id="edge16" class="edge">
<title>100&#45;&gt;169</title>
<path fill="none" stroke="grey" stroke-width="2" d="M1622.21,-87.81C1554.42,-77.8 1442.98,-61.14 1336.92,-44.13"/>
<polygon fill="grey" stroke="grey" stroke-width="2" points="1337.43,-40.67 1327,-42.54 1336.32,-47.58 1337.43,-40.67"/>
</g>
<!-- 173 -->
<g id="node13" class="node">
<title>173</title>
<path fill="none" stroke="#80d856" stroke-width="2" d="M1742.5,-44C1742.5,-44 1557.5,-44 1557.5,-44 1551.5,-44 1545.5,-38 1545.5,-32 1545.5,-32 1545.5,-20 1545.5,-20 1545.5,-14 1551.5,-8 1557.5,-8 1557.5,-8 1742.5,-8 1742.5,-8 1748.5,-8 1754.5,-14 1754.5,-20 1754.5,-20 1754.5,-32 1754.5,-32 1754.5,-38 1748.5,-44 1742.5,-44"/>
<text text-anchor="middle" x="1650" y="-23.5" font-family="sans" font-size="10.00">compose_warps_unfold_to_crop_native</text>
</g>
<!-- 100&#45;&gt;173 -->
<g id="edge17" class="edge">
<title>100&#45;&gt;173</title>
<path fill="none" stroke="grey" stroke-width="2" d="M1676.34,-79.7C1672.36,-71.73 1667.55,-62.1 1663.13,-53.26"/>
<polygon fill="grey" stroke="grey" stroke-width="2" points="1666.15,-51.48 1658.55,-44.1 1659.89,-54.61 1666.15,-51.48"/>
</g>
<!-- 101 -->
<g id="node14" class="node">
<title>101</title>
<path fill="none" stroke="#d6d856" stroke-width="2" d="M1496,-286.5C1496,-286.5 1418,-286.5 1418,-286.5 1412,-286.5 1406,-280.5 1406,-274.5 1406,-274.5 1406,-257.5 1406,-257.5 1406,-251.5 1412,-245.5 1418,-245.5 1418,-245.5 1496,-245.5 1496,-245.5 1502,-245.5 1508,-251.5 1508,-257.5 1508,-257.5 1508,-274.5 1508,-274.5 1508,-280.5 1502,-286.5 1496,-286.5"/>
<text text-anchor="middle" x="1457" y="-274.5" font-family="sans" font-size="10.00">create_unfold_ref</text>
<text text-anchor="middle" x="1457" y="-263.5" font-family="sans" font-size="10.00">autotop: dentate</text>
<text text-anchor="middle" x="1457" y="-252.5" font-family="sans" font-size="10.00">subject: 001</text>
</g>
<!-- 101&#45;&gt;100 -->
<g id="edge18" class="edge">
<title>101&#45;&gt;100</title>
<path fill="none" stroke="grey" stroke-width="2" d="M1459.8,-245.41C1464.29,-216.67 1473.95,-165.07 1487,-152 1519.74,-119.19 1570.42,-106.05 1612.32,-101.05"/>
<polygon fill="grey" stroke="grey" stroke-width="2" points="1612.91,-104.51 1622.48,-99.98 1612.17,-97.55 1612.91,-104.51"/>
</g>
<!-- 101&#45;&gt;169 -->
<g id="edge21" class="edge">
<title>101&#45;&gt;169</title>
<path fill="none" stroke="grey" stroke-width="2" d="M1438.53,-245.12C1398.24,-201.73 1302.54,-98.66 1258.67,-51.42"/>
<polygon fill="grey" stroke="grey" stroke-width="2" points="1261.21,-49.01 1251.84,-44.07 1256.08,-53.78 1261.21,-49.01"/>
</g>
<!-- 101&#45;&gt;173 -->
<g id="edge23" class="edge">
<title>101&#45;&gt;173</title>
<path fill="none" stroke="grey" stroke-width="2" d="M1453.47,-245.34C1446.35,-203.08 1432.53,-105.36 1452,-80 1463.26,-65.33 1498.03,-53.83 1535.35,-45.35"/>
<polygon fill="grey" stroke="grey" stroke-width="2" points="1536.38,-48.71 1545.4,-43.15 1534.89,-41.87 1536.38,-48.71"/>
</g>
<!-- 102 -->
<g id="node15" class="node">
<title>102</title>
<path fill="none" stroke="#d88d56" stroke-width="2" d="M1779.5,-196C1779.5,-196 1660.5,-196 1660.5,-196 1654.5,-196 1648.5,-190 1648.5,-184 1648.5,-184 1648.5,-172 1648.5,-172 1648.5,-166 1654.5,-160 1660.5,-160 1660.5,-160 1779.5,-160 1779.5,-160 1785.5,-160 1791.5,-166 1791.5,-172 1791.5,-172 1791.5,-184 1791.5,-184 1791.5,-190 1785.5,-196 1779.5,-196"/>
<text text-anchor="middle" x="1720" y="-175.5" font-family="sans" font-size="10.00">create_unfold_coord_map</text>
</g>
<!-- 101&#45;&gt;102 -->
<g id="edge19" class="edge">
<title>101&#45;&gt;102</title>
<path fill="none" stroke="grey" stroke-width="2" d="M1508.02,-248.32C1550.88,-234.3 1612.28,-214.22 1657.98,-199.28"/>
<polygon fill="grey" stroke="grey" stroke-width="2" points="1659.35,-202.51 1667.77,-196.08 1657.18,-195.86 1659.35,-202.51"/>
</g>
<!-- 123 -->
<g id="node16" class="node">
<title>123</title>
<path fill="none" stroke="#56d863" stroke-width="2" d="M1937.5,-116C1937.5,-116 1836.5,-116 1836.5,-116 1830.5,-116 1824.5,-110 1824.5,-104 1824.5,-104 1824.5,-92 1824.5,-92 1824.5,-86 1830.5,-80 1836.5,-80 1836.5,-80 1937.5,-80 1937.5,-80 1943.5,-80 1949.5,-86 1949.5,-92 1949.5,-92 1949.5,-104 1949.5,-104 1949.5,-110 1943.5,-116 1937.5,-116"/>
<text text-anchor="middle" x="1887" y="-95.5" font-family="sans" font-size="10.00">create_warps_dentate</text>
</g>
<!-- 101&#45;&gt;123 -->
<g id="edge20" class="edge">
<title>101&#45;&gt;123</title>
<path fill="none" stroke="grey" stroke-width="2" d="M1508.28,-262.01C1592.98,-256.08 1757.12,-240.18 1801,-204 1820.1,-188.25 1806.39,-172 1821,-152 1829.21,-140.75 1840.4,-130.56 1851.23,-122.19"/>
<polygon fill="grey" stroke="grey" stroke-width="2" points="1853.42,-124.92 1859.38,-116.16 1849.26,-119.29 1853.42,-124.92"/>
</g>
<!-- 170 -->
<g id="node17" class="node">
<title>170</title>
<path fill="none" stroke="#56b1d8" stroke-width="2" d="M1515,-44C1515,-44 1357,-44 1357,-44 1351,-44 1345,-38 1345,-32 1345,-32 1345,-20 1345,-20 1345,-14 1351,-8 1357,-8 1357,-8 1515,-8 1515,-8 1521,-8 1527,-14 1527,-20 1527,-20 1527,-32 1527,-32 1527,-38 1521,-44 1515,-44"/>
<text text-anchor="middle" x="1436" y="-29" font-family="sans" font-size="10.00">compose_warps_native_to_unfold</text>
<text text-anchor="middle" x="1436" y="-18" font-family="sans" font-size="10.00">native_modality: T1w</text>
</g>
<!-- 101&#45;&gt;170 -->
<g id="edge22" class="edge">
<title>101&#45;&gt;170</title>
<path fill="none" stroke="grey" stroke-width="2" d="M1446.62,-245.28C1441.08,-233.62 1434.83,-218.37 1432,-204 1421.69,-151.66 1427.19,-88.94 1431.81,-53.97"/>
<polygon fill="grey" stroke="grey" stroke-width="2" points="1435.28,-54.44 1433.2,-44.05 1428.35,-53.47 1435.28,-54.44"/>
</g>
<!-- 174 -->
<g id="node18" class="node">
<title>174</title>
<path fill="none" stroke="#80d856" stroke-width="2" d="M1969.5,-44C1969.5,-44 1784.5,-44 1784.5,-44 1778.5,-44 1772.5,-38 1772.5,-32 1772.5,-32 1772.5,-20 1772.5,-20 1772.5,-14 1778.5,-8 1784.5,-8 1784.5,-8 1969.5,-8 1969.5,-8 1975.5,-8 1981.5,-14 1981.5,-20 1981.5,-20 1981.5,-32 1981.5,-32 1981.5,-38 1975.5,-44 1969.5,-44"/>
<text text-anchor="middle" x="1877" y="-23.5" font-family="sans" font-size="10.00">compose_warps_unfold_to_crop_native</text>
</g>
<!-- 101&#45;&gt;174 -->
<g id="edge24" class="edge">
<title>101&#45;&gt;174</title>
<path fill="none" stroke="grey" stroke-width="2" d="M1455.69,-245.39C1454.21,-217.15 1453.11,-166.78 1463,-152 1496.62,-101.72 1651.94,-65.21 1762.44,-45.06"/>
<polygon fill="grey" stroke="grey" stroke-width="2" points="1763.09,-48.5 1772.31,-43.28 1761.85,-41.61 1763.09,-48.5"/>
</g>
<!-- 102&#45;&gt;100 -->
<g id="edge25" class="edge">
<title>102&#45;&gt;100</title>
<path fill="none" stroke="grey" stroke-width="2" d="M1712.23,-159.69C1707.74,-149.69 1702.01,-136.91 1696.95,-125.65"/>
<polygon fill="grey" stroke="grey" stroke-width="2" points="1700.03,-123.95 1692.74,-116.26 1693.64,-126.82 1700.03,-123.95"/>
</g>
<!-- 102&#45;&gt;123 -->
<g id="edge26" class="edge">
<title>102&#45;&gt;123</title>
<path fill="none" stroke="grey" stroke-width="2" d="M1756.64,-159.88C1781.55,-148.25 1814.68,-132.78 1841.31,-120.34"/>
<polygon fill="grey" stroke="grey" stroke-width="2" points="1842.85,-123.48 1850.43,-116.08 1839.89,-117.14 1842.85,-123.48"/>
</g>
<!-- 123&#45;&gt;170 -->
<g id="edge28" class="edge">
<title>123&#45;&gt;170</title>
<path fill="none" stroke="grey" stroke-width="2" d="M1824.36,-87.83C1754.29,-77.5 1637.43,-60.06 1537,-44 1536.89,-43.98 1536.79,-43.97 1536.69,-43.95"/>
<polygon fill="grey" stroke="grey" stroke-width="2" points="1537.53,-40.54 1527.1,-42.41 1536.42,-47.45 1537.53,-40.54"/>
</g>
<!-- 123&#45;&gt;174 -->
<g id="edge29" class="edge">
<title>123&#45;&gt;174</title>
<path fill="none" stroke="grey" stroke-width="2" d="M1884.52,-79.7C1883.42,-71.98 1882.1,-62.71 1880.87,-54.11"/>
<polygon fill="grey" stroke="grey" stroke-width="2" points="1884.32,-53.51 1879.44,-44.1 1877.39,-54.5 1884.32,-53.51"/>
</g>
<!-- 112 -->
<g id="node19" class="node">
<title>112</title>
<path fill="none" stroke="#d88556" stroke-width="2" d="M1618,-196C1618,-196 1508,-196 1508,-196 1502,-196 1496,-190 1496,-184 1496,-184 1496,-172 1496,-172 1496,-166 1502,-160 1508,-160 1508,-160 1618,-160 1618,-160 1624,-160 1630,-166 1630,-172 1630,-172 1630,-184 1630,-184 1630,-190 1624,-196 1618,-196"/>
<text text-anchor="middle" x="1563" y="-175.5" font-family="sans" font-size="10.00">create_native_coord_ref</text>
</g>
<!-- 112&#45;&gt;100 -->
<g id="edge27" class="edge">
<title>112&#45;&gt;100</title>
<path fill="none" stroke="grey" stroke-width="2" d="M1589.77,-159.88C1607.41,-148.6 1630.69,-133.72 1649.82,-121.49"/>
<polygon fill="grey" stroke="grey" stroke-width="2" points="1651.75,-124.41 1658.28,-116.08 1647.97,-118.52 1651.75,-124.41"/>
</g>
<!-- 130 -->
<g id="node20" class="node">
<title>130</title>
<path fill="none" stroke="#d88556" stroke-width="2" d="M1952,-196C1952,-196 1842,-196 1842,-196 1836,-196 1830,-190 1830,-184 1830,-184 1830,-172 1830,-172 1830,-166 1836,-160 1842,-160 1842,-160 1952,-160 1952,-160 1958,-160 1964,-166 1964,-172 1964,-172 1964,-184 1964,-184 1964,-190 1958,-196 1952,-196"/>
<text text-anchor="middle" x="1897" y="-181" font-family="sans" font-size="10.00">create_native_coord_ref</text>
<text text-anchor="middle" x="1897" y="-170" font-family="sans" font-size="10.00">autotop: dentate</text>
</g>
<!-- 130&#45;&gt;123 -->
<g id="edge30" class="edge">
<title>130&#45;&gt;123</title>
<path fill="none" stroke="grey" stroke-width="2" d="M1894.78,-159.69C1893.52,-149.89 1891.92,-137.42 1890.5,-126.33"/>
<polygon fill="grey" stroke="grey" stroke-width="2" points="1893.95,-125.74 1889.21,-116.26 1887.01,-126.63 1893.95,-125.74"/>
</g>
<!-- 11 -->
<g id="node21" class="node">
<title>11</title>
<path fill="none" stroke="#d85656" stroke-width="2" d="M90.5,-292C90.5,-292 33.5,-292 33.5,-292 27.5,-292 21.5,-286 21.5,-280 21.5,-280 21.5,-252 21.5,-252 21.5,-246 27.5,-240 33.5,-240 33.5,-240 90.5,-240 90.5,-240 96.5,-240 102.5,-246 102.5,-252 102.5,-252 102.5,-280 102.5,-280 102.5,-286 96.5,-292 90.5,-292"/>
<text text-anchor="middle" x="62" y="-280" font-family="sans" font-size="10.00">unflip_coords</text>
<text text-anchor="middle" x="62" y="-269" font-family="sans" font-size="10.00">autotop: hipp</text>
<text text-anchor="middle" x="62" y="-258" font-family="sans" font-size="10.00">desc: laplace</text>
<text text-anchor="middle" x="62" y="-247" font-family="sans" font-size="10.00">hemi: L</text>
</g>
<!-- 11&#45;&gt;8 -->
<g id="edge31" class="edge">
<title>11&#45;&gt;8</title>
<path fill="none" stroke="grey" stroke-width="2" d="M35.24,-239.86C12.38,-215.35 -13.52,-178.08 9,-152 46.46,-108.62 211.67,-100.11 304.72,-98.83"/>
<polygon fill="grey" stroke="grey" stroke-width="2" points="304.91,-102.33 314.87,-98.72 304.83,-95.33 304.91,-102.33"/>
</g>
<!-- 11&#45;&gt;34 -->
<g id="edge32" class="edge">
<title>11&#45;&gt;34</title>
<path fill="none" stroke="grey" stroke-width="2" d="M102.59,-253.4C151.54,-239.42 234.58,-215.69 293.73,-198.79"/>
<polygon fill="grey" stroke="grey" stroke-width="2" points="294.72,-202.15 303.38,-196.03 292.8,-195.42 294.72,-202.15"/>
</g>
<!-- 21 -->
<g id="node22" class="node">
<title>21</title>
<path fill="none" stroke="#88d856" stroke-width="2" d="M2140,-116C2140,-116 1994,-116 1994,-116 1988,-116 1982,-110 1982,-104 1982,-104 1982,-92 1982,-92 1982,-86 1988,-80 1994,-80 1994,-80 2140,-80 2140,-80 2146,-80 2152,-86 2152,-92 2152,-92 2152,-104 2152,-104 2152,-110 2146,-116 2140,-116"/>
<text text-anchor="middle" x="2067" y="-95.5" font-family="sans" font-size="10.00">compose_template_xfm_corobl</text>
</g>
<!-- 21&#45;&gt;167 -->
<g id="edge33" class="edge">
<title>21&#45;&gt;167</title>
<path fill="none" stroke="grey" stroke-width="2" d="M1981.77,-80.43C1980.51,-80.28 1979.25,-80.13 1978,-80 1319.63,-9.69 1145.23,-106.93 482.49,-44.05"/>
<polygon fill="grey" stroke="grey" stroke-width="2" points="482.5,-40.53 472.21,-43.06 481.83,-47.5 482.5,-40.53"/>
</g>
<!-- 21&#45;&gt;171 -->
<g id="edge37" class="edge">
<title>21&#45;&gt;171</title>
<path fill="none" stroke="grey" stroke-width="2" d="M1981.77,-80.44C1980.51,-80.29 1979.25,-80.14 1978,-80 1508.9,-27.62 1384.18,-86.29 909.82,-44"/>
<polygon fill="grey" stroke="grey" stroke-width="2" points="909.89,-40.49 899.61,-43.08 909.26,-47.46 909.89,-40.49"/>
</g>
<!-- 21&#45;&gt;168 -->
<g id="edge34" class="edge">
<title>21&#45;&gt;168</title>
<path fill="none" stroke="grey" stroke-width="2" d="M1981.77,-80.43C1980.51,-80.28 1979.25,-80.14 1978,-80 1405.15,-17.74 1255.49,-99.96 682,-44 681.89,-43.99 681.79,-43.98 681.69,-43.97"/>
<polygon fill="grey" stroke="grey" stroke-width="2" points="682.36,-40.52 672.04,-42.92 681.6,-47.48 682.36,-40.52"/>
</g>
<!-- 21&#45;&gt;172 -->
<g id="edge38" class="edge">
<title>21&#45;&gt;172</title>
<path fill="none" stroke="grey" stroke-width="2" d="M1981.77,-80.46C1980.5,-80.3 1979.25,-80.15 1978,-80 1609.21,-37.13 1510.59,-78.92 1136.63,-43.99"/>
<polygon fill="grey" stroke="grey" stroke-width="2" points="1136.9,-40.5 1126.62,-43.04 1136.24,-47.47 1136.9,-40.5"/>
</g>
<!-- 21&#45;&gt;169 -->
<g id="edge35" class="edge">
<title>21&#45;&gt;169</title>
<path fill="none" stroke="grey" stroke-width="2" d="M1981.77,-80.48C1980.5,-80.31 1979.24,-80.15 1978,-80 1697.68,-45.52 1621.75,-75.28 1337.42,-44.08"/>
<polygon fill="grey" stroke="grey" stroke-width="2" points="1337.55,-40.57 1327.22,-42.94 1336.77,-47.53 1337.55,-40.57"/>
</g>
<!-- 21&#45;&gt;173 -->
<g id="edge39" class="edge">
<title>21&#45;&gt;173</title>
<path fill="none" stroke="grey" stroke-width="2" d="M1981.74,-80.66C1980.48,-80.44 1979.24,-80.22 1978,-80 1907.22,-67.53 1827.65,-54.64 1764.61,-44.7"/>
<polygon fill="grey" stroke="grey" stroke-width="2" points="1765.06,-41.23 1754.64,-43.13 1763.97,-48.14 1765.06,-41.23"/>
</g>
<!-- 21&#45;&gt;170 -->
<g id="edge36" class="edge">
<title>21&#45;&gt;170</title>
<path fill="none" stroke="grey" stroke-width="2" d="M1981.76,-80.53C1980.5,-80.34 1979.24,-80.17 1978,-80 1783.14,-53.51 1732.14,-68.34 1537,-44 1536.89,-43.99 1536.79,-43.97 1536.69,-43.96"/>
<polygon fill="grey" stroke="grey" stroke-width="2" points="1537.43,-40.53 1527.06,-42.7 1536.52,-47.47 1537.43,-40.53"/>
</g>
<!-- 21&#45;&gt;174 -->
<g id="edge40" class="edge">
<title>21&#45;&gt;174</title>
<path fill="none" stroke="grey" stroke-width="2" d="M2020.52,-79.88C1994.08,-70.14 1960.79,-57.87 1932.93,-47.61"/>
<polygon fill="grey" stroke="grey" stroke-width="2" points="1933.92,-44.24 1923.32,-44.07 1931.5,-50.81 1933.92,-44.24"/>
</g>
<!-- 28 -->
<g id="node23" class="node">
<title>28</title>
<path fill="none" stroke="#d85656" stroke-width="2" d="M87.5,-204C87.5,-204 30.5,-204 30.5,-204 24.5,-204 18.5,-198 18.5,-192 18.5,-192 18.5,-164 18.5,-164 18.5,-158 24.5,-152 30.5,-152 30.5,-152 87.5,-152 87.5,-152 93.5,-152 99.5,-158 99.5,-164 99.5,-164 99.5,-192 99.5,-192 99.5,-198 93.5,-204 87.5,-204"/>
<text text-anchor="middle" x="59" y="-192" font-family="sans" font-size="10.00">unflip_coords</text>
<text text-anchor="middle" x="59" y="-181" font-family="sans" font-size="10.00">autotop: hipp</text>
<text text-anchor="middle" x="59" y="-170" font-family="sans" font-size="10.00">desc: laplace</text>
<text text-anchor="middle" x="59" y="-159" font-family="sans" font-size="10.00">hemi: L</text>
</g>
<!-- 28&#45;&gt;8 -->
<g id="edge41" class="edge">
<title>28&#45;&gt;8</title>
<path fill="none" stroke="grey" stroke-width="2" d="M99.55,-155.63C102.7,-154.31 105.88,-153.08 109,-152 173.94,-129.58 251.46,-115.3 304.85,-107.28"/>
<polygon fill="grey" stroke="grey" stroke-width="2" points="305.48,-110.72 314.87,-105.8 304.47,-103.8 305.48,-110.72"/>
</g>
<!-- 31 -->
<g id="node24" class="node">
<title>31</title>
<path fill="none" stroke="#bed856" stroke-width="2" d="M228,-198.5C228,-198.5 130,-198.5 130,-198.5 124,-198.5 118,-192.5 118,-186.5 118,-186.5 118,-169.5 118,-169.5 118,-163.5 124,-157.5 130,-157.5 130,-157.5 228,-157.5 228,-157.5 234,-157.5 240,-163.5 240,-169.5 240,-169.5 240,-186.5 240,-186.5 240,-192.5 234,-198.5 228,-198.5"/>
<text text-anchor="middle" x="179" y="-186.5" font-family="sans" font-size="10.00">unflip_coords_equivol</text>
<text text-anchor="middle" x="179" y="-175.5" font-family="sans" font-size="10.00">desc: equivol</text>
<text text-anchor="middle" x="179" y="-164.5" font-family="sans" font-size="10.00">hemi: L</text>
</g>
<!-- 31&#45;&gt;8 -->
<g id="edge42" class="edge">
<title>31&#45;&gt;8</title>
<path fill="none" stroke="grey" stroke-width="2" d="M226.94,-157.32C254.79,-145.88 289.87,-131.48 318.19,-119.86"/>
<polygon fill="grey" stroke="grey" stroke-width="2" points="319.6,-123.06 327.52,-116.03 316.94,-116.59 319.6,-123.06"/>
</g>
<!-- 60 -->
<g id="node25" class="node">
<title>60</title>
<path fill="none" stroke="#8fd856" stroke-width="2" d="M278,-284C278,-284 186,-284 186,-284 180,-284 174,-278 174,-272 174,-272 174,-260 174,-260 174,-254 180,-248 186,-248 186,-248 278,-248 278,-248 284,-248 290,-254 290,-260 290,-260 290,-272 290,-272 290,-278 284,-284 278,-284"/>
<text text-anchor="middle" x="232" y="-263.5" font-family="sans" font-size="10.00">laplace_coords_hipp</text>
</g>
<!-- 60&#45;&gt;59 -->
<g id="edge43" class="edge">
<title>60&#45;&gt;59</title>
<path fill="none" stroke="grey" stroke-width="2" d="M238.03,-247.82C248.44,-219.23 270.25,-163.85 287,-152 318.95,-129.39 566.75,-110.73 686.55,-102.93"/>
<polygon fill="grey" stroke="grey" stroke-width="2" points="686.94,-106.41 696.69,-102.28 686.49,-99.43 686.94,-106.41"/>
</g>
<!-- 60&#45;&gt;72 -->
<g id="edge44" class="edge">
<title>60&#45;&gt;72</title>
<path fill="none" stroke="grey" stroke-width="2" d="M272.05,-247.9C279.29,-245.08 286.82,-242.33 294,-240 357.16,-219.53 374.64,-220.37 439,-204 445.88,-202.25 453.04,-200.41 460.21,-198.57"/>
<polygon fill="grey" stroke="grey" stroke-width="2" points="461.15,-201.94 469.96,-196.04 459.4,-195.16 461.15,-201.94"/>
</g>
<!-- 68 -->
<g id="node26" class="node">
<title>68</title>
<path fill="none" stroke="#8fd856" stroke-width="2" d="M2086,-196C2086,-196 1994,-196 1994,-196 1988,-196 1982,-190 1982,-184 1982,-184 1982,-172 1982,-172 1982,-166 1988,-160 1994,-160 1994,-160 2086,-160 2086,-160 2092,-160 2098,-166 2098,-172 2098,-172 2098,-184 2098,-184 2098,-190 2092,-196 2086,-196"/>
<text text-anchor="middle" x="2040" y="-175.5" font-family="sans" font-size="10.00">laplace_coords_hipp</text>
</g>
<!-- 68&#45;&gt;59 -->
<g id="edge45" class="edge">
<title>68&#45;&gt;59</title>
<path fill="none" stroke="grey" stroke-width="2" d="M2003.6,-159.94C1995.35,-156.75 1986.5,-153.84 1978,-152 1752.99,-103.28 1034.5,-99.04 815.18,-98.91"/>
<polygon fill="grey" stroke="grey" stroke-width="2" points="815.12,-95.41 805.12,-98.91 815.12,-102.41 815.12,-95.41"/>
</g>
<!-- 70 -->
<g id="node27" class="node">
<title>70</title>
<path fill="none" stroke="#d8b456" stroke-width="2" d="M2216,-196C2216,-196 2128,-196 2128,-196 2122,-196 2116,-190 2116,-184 2116,-184 2116,-172 2116,-172 2116,-166 2122,-160 2128,-160 2128,-160 2216,-160 2216,-160 2222,-160 2228,-166 2228,-172 2228,-172 2228,-184 2228,-184 2228,-190 2222,-196 2216,-196"/>
<text text-anchor="middle" x="2172" y="-175.5" font-family="sans" font-size="10.00">equivolume_coords</text>
</g>
<!-- 70&#45;&gt;59 -->
<g id="edge46" class="edge">
<title>70&#45;&gt;59</title>
<path fill="none" stroke="grey" stroke-width="2" d="M2133.78,-159.92C2125.13,-156.73 2115.88,-153.83 2107,-152 1979.9,-125.82 1067.2,-105.45 815.27,-100.28"/>
<polygon fill="grey" stroke="grey" stroke-width="2" points="815.24,-96.77 805.17,-100.07 815.1,-103.77 815.24,-96.77"/>
</g>
<!-- 103 -->
<g id="node28" class="node">
<title>103</title>
<path fill="none" stroke="#d85656" stroke-width="2" d="M2180,-292C2180,-292 2106,-292 2106,-292 2100,-292 2094,-286 2094,-280 2094,-280 2094,-252 2094,-252 2094,-246 2100,-240 2106,-240 2106,-240 2180,-240 2180,-240 2186,-240 2192,-246 2192,-252 2192,-252 2192,-280 2192,-280 2192,-286 2186,-292 2180,-292"/>
<text text-anchor="middle" x="2143" y="-280" font-family="sans" font-size="10.00">unflip_coords</text>
<text text-anchor="middle" x="2143" y="-269" font-family="sans" font-size="10.00">autotop: dentate</text>
<text text-anchor="middle" x="2143" y="-258" font-family="sans" font-size="10.00">desc: laplace</text>
<text text-anchor="middle" x="2143" y="-247" font-family="sans" font-size="10.00">hemi: L</text>
</g>
<!-- 103&#45;&gt;100 -->
<g id="edge47" class="edge">
<title>103&#45;&gt;100</title>
<path fill="none" stroke="grey" stroke-width="2" d="M2192.35,-245.1C2209.68,-235.44 2227.25,-221.95 2237,-204 2248.03,-183.69 2252.63,-169.02 2237,-152 2205.24,-117.42 1862.67,-121.02 1816,-116 1797.05,-113.96 1776.61,-111.46 1757.64,-109"/>
<polygon fill="grey" stroke="grey" stroke-width="2" points="1757.93,-105.51 1747.57,-107.69 1757.03,-112.45 1757.93,-105.51"/>
</g>
<!-- 103&#45;&gt;112 -->
<g id="edge48" class="edge">
<title>103&#45;&gt;112</title>
<path fill="none" stroke="grey" stroke-width="2" d="M2093.95,-256.49C2063.04,-251.3 2022.25,-244.77 1986,-240 1832.71,-219.84 1791.25,-236.05 1640,-204 1633.44,-202.61 1626.65,-200.87 1619.94,-198.96"/>
<polygon fill="grey" stroke="grey" stroke-width="2" points="1620.8,-195.56 1610.22,-196.06 1618.8,-202.27 1620.8,-195.56"/>
</g>
<!-- 106 -->
<g id="node29" class="node">
<title>106</title>
<path fill="none" stroke="#d85656" stroke-width="2" d="M2370,-204C2370,-204 2296,-204 2296,-204 2290,-204 2284,-198 2284,-192 2284,-192 2284,-164 2284,-164 2284,-158 2290,-152 2296,-152 2296,-152 2370,-152 2370,-152 2376,-152 2382,-158 2382,-164 2382,-164 2382,-192 2382,-192 2382,-198 2376,-204 2370,-204"/>
<text text-anchor="middle" x="2333" y="-192" font-family="sans" font-size="10.00">unflip_coords</text>
<text text-anchor="middle" x="2333" y="-181" font-family="sans" font-size="10.00">autotop: dentate</text>
<text text-anchor="middle" x="2333" y="-170" font-family="sans" font-size="10.00">desc: laplace</text>
<text text-anchor="middle" x="2333" y="-159" font-family="sans" font-size="10.00">hemi: L</text>
</g>
<!-- 106&#45;&gt;100 -->
<g id="edge49" class="edge">
<title>106&#45;&gt;100</title>
<path fill="none" stroke="grey" stroke-width="2" d="M2283.92,-155.92C2279.27,-154.41 2274.58,-153.07 2270,-152 2072.84,-106.16 2017.31,-137.03 1816,-116 1797.05,-114.02 1776.6,-111.54 1757.63,-109.08"/>
<polygon fill="grey" stroke="grey" stroke-width="2" points="1757.93,-105.59 1747.56,-107.76 1757.02,-112.53 1757.93,-105.59"/>
</g>
<!-- 109 -->
<g id="node30" class="node">
<title>109</title>
<path fill="none" stroke="#d85656" stroke-width="2" d="M2486,-204C2486,-204 2412,-204 2412,-204 2406,-204 2400,-198 2400,-192 2400,-192 2400,-164 2400,-164 2400,-158 2406,-152 2412,-152 2412,-152 2486,-152 2486,-152 2492,-152 2498,-158 2498,-164 2498,-164 2498,-192 2498,-192 2498,-198 2492,-204 2486,-204"/>
<text text-anchor="middle" x="2449" y="-192" font-family="sans" font-size="10.00">unflip_coords</text>
<text text-anchor="middle" x="2449" y="-181" font-family="sans" font-size="10.00">autotop: dentate</text>
<text text-anchor="middle" x="2449" y="-170" font-family="sans" font-size="10.00">desc: laplace</text>
<text text-anchor="middle" x="2449" y="-159" font-family="sans" font-size="10.00">hemi: L</text>
</g>
<!-- 109&#45;&gt;100 -->
<g id="edge50" class="edge">
<title>109&#45;&gt;100</title>
<path fill="none" stroke="grey" stroke-width="2" d="M2399.71,-154.43C2396.79,-153.51 2393.88,-152.69 2391,-152 2141.96,-92.44 2070.88,-140.49 1816,-116 1797.03,-114.18 1776.58,-111.75 1757.61,-109.3"/>
<polygon fill="grey" stroke="grey" stroke-width="2" points="1757.91,-105.81 1747.54,-107.98 1757,-112.75 1757.91,-105.81"/>
</g>
<!-- 124 -->
<g id="node31" class="node">
<title>124</title>
<path fill="none" stroke="#61d856" stroke-width="2" d="M2455,-284C2455,-284 2347,-284 2347,-284 2341,-284 2335,-278 2335,-272 2335,-272 2335,-260 2335,-260 2335,-254 2341,-248 2347,-248 2347,-248 2455,-248 2455,-248 2461,-248 2467,-254 2467,-260 2467,-260 2467,-272 2467,-272 2467,-278 2461,-284 2455,-284"/>
<text text-anchor="middle" x="2401" y="-263.5" font-family="sans" font-size="10.00">laplace_coords_dentate</text>
</g>
<!-- 124&#45;&gt;123 -->
<g id="edge51" class="edge">
<title>124&#45;&gt;123</title>
<path fill="none" stroke="grey" stroke-width="2" d="M2453.42,-247.97C2473.9,-238.45 2495.25,-224.31 2507,-204 2518.57,-183.99 2522.78,-168.88 2507,-152 2466.38,-108.56 2031.95,-123.78 1973,-116 1968.63,-115.42 1964.16,-114.76 1959.66,-114.04"/>
<polygon fill="grey" stroke="grey" stroke-width="2" points="1960.22,-110.59 1949.78,-112.37 1959.06,-117.49 1960.22,-110.59"/>
</g>
<!-- 124&#45;&gt;130 -->
<g id="edge52" class="edge">
<title>124&#45;&gt;130</title>
<path fill="none" stroke="grey" stroke-width="2" d="M2334.85,-257.02C2232.44,-244.42 2040.33,-219.74 1973,-204 1966.87,-202.57 1960.54,-200.86 1954.26,-199.02"/>
<polygon fill="grey" stroke="grey" stroke-width="2" points="1955.06,-195.6 1944.47,-196.04 1953.02,-202.3 1955.06,-195.6"/>
</g>
<!-- 126 -->
<g id="node32" class="node">
<title>126</title>
<path fill="none" stroke="#61d856" stroke-width="2" d="M2674,-196C2674,-196 2566,-196 2566,-196 2560,-196 2554,-190 2554,-184 2554,-184 2554,-172 2554,-172 2554,-166 2560,-160 2566,-160 2566,-160 2674,-160 2674,-160 2680,-160 2686,-166 2686,-172 2686,-172 2686,-184 2686,-184 2686,-190 2680,-196 2674,-196"/>
<text text-anchor="middle" x="2620" y="-175.5" font-family="sans" font-size="10.00">laplace_coords_dentate</text>
</g>
<!-- 126&#45;&gt;123 -->
<g id="edge53" class="edge">
<title>126&#45;&gt;123</title>
<path fill="none" stroke="grey" stroke-width="2" d="M2571.81,-159.9C2561.43,-156.8 2550.44,-153.93 2540,-152 2291.71,-106.01 2223.4,-148.55 1973,-116 1968.63,-115.43 1964.16,-114.78 1959.65,-114.06"/>
<polygon fill="grey" stroke="grey" stroke-width="2" points="1960.22,-110.61 1949.78,-112.4 1959.06,-117.51 1960.22,-110.61"/>
</g>
<!-- 128 -->
<g id="node33" class="node">
<title>128</title>
<path fill="none" stroke="#61d856" stroke-width="2" d="M2824,-196C2824,-196 2716,-196 2716,-196 2710,-196 2704,-190 2704,-184 2704,-184 2704,-172 2704,-172 2704,-166 2710,-160 2716,-160 2716,-160 2824,-160 2824,-160 2830,-160 2836,-166 2836,-172 2836,-172 2836,-184 2836,-184 2836,-190 2830,-196 2824,-196"/>
<text text-anchor="middle" x="2770" y="-175.5" font-family="sans" font-size="10.00">laplace_coords_dentate</text>
</g>
<!-- 128&#45;&gt;123 -->
<g id="edge54" class="edge">
<title>128&#45;&gt;123</title>
<path fill="none" stroke="grey" stroke-width="2" d="M2725.31,-159.9C2715.46,-156.76 2704.98,-153.88 2695,-152 2379.24,-92.65 2291.88,-155.26 1973,-116 1968.63,-115.46 1964.15,-114.83 1959.65,-114.13"/>
<polygon fill="grey" stroke="grey" stroke-width="2" points="1960.2,-110.67 1949.76,-112.5 1959.06,-117.58 1960.2,-110.67"/>
</g>
<!-- 141 -->
<g id="node34" class="node">
<title>141</title>
<path fill="none" stroke="#568ad8" stroke-width="2" d="M2286,-116C2286,-116 2182,-116 2182,-116 2176,-116 2170,-110 2170,-104 2170,-104 2170,-92 2170,-92 2170,-86 2176,-80 2182,-80 2182,-80 2286,-80 2286,-80 2292,-80 2298,-86 2298,-92 2298,-92 2298,-104 2298,-104 2298,-110 2292,-116 2286,-116"/>
<text text-anchor="middle" x="2234" y="-95.5" font-family="sans" font-size="10.00">create_native_crop_ref</text>
</g>
<!-- 141&#45;&gt;171 -->
<g id="edge55" class="edge">
<title>141&#45;&gt;171</title>
<path fill="none" stroke="grey" stroke-width="2" d="M2169.64,-81.28C2166.73,-80.8 2163.83,-80.37 2161,-80 1612.3,-8.95 1465.29,-92.11 909.89,-44"/>
<polygon fill="grey" stroke="grey" stroke-width="2" points="909.88,-40.48 899.61,-43.1 909.27,-47.46 909.88,-40.48"/>
</g>
<!-- 141&#45;&gt;173 -->
<g id="edge56" class="edge">
<title>141&#45;&gt;173</title>
<path fill="none" stroke="grey" stroke-width="2" d="M2169.61,-81.5C2166.7,-80.96 2163.82,-80.46 2161,-80 1989.33,-52.36 1941.66,-64.6 1764.81,-44.05"/>
<polygon fill="grey" stroke="grey" stroke-width="2" points="1764.98,-40.54 1754.64,-42.84 1764.16,-47.49 1764.98,-40.54"/>
</g>
<!-- 146 -->
<g id="node35" class="node">
<title>146</title>
<path fill="none" stroke="#568ad8" stroke-width="2" d="M2432,-116C2432,-116 2328,-116 2328,-116 2322,-116 2316,-110 2316,-104 2316,-104 2316,-92 2316,-92 2316,-86 2322,-80 2328,-80 2328,-80 2432,-80 2432,-80 2438,-80 2444,-86 2444,-92 2444,-92 2444,-104 2444,-104 2444,-110 2438,-116 2432,-116"/>
<text text-anchor="middle" x="2380" y="-95.5" font-family="sans" font-size="10.00">create_native_crop_ref</text>
</g>
<!-- 146&#45;&gt;172 -->
<g id="edge57" class="edge">
<title>146&#45;&gt;172</title>
<path fill="none" stroke="grey" stroke-width="2" d="M2315.64,-81.28C2312.72,-80.8 2309.83,-80.37 2307,-80 1793.96,-13.05 1656.35,-89.5 1136.62,-43.97"/>
<polygon fill="grey" stroke="grey" stroke-width="2" points="1136.88,-40.48 1126.61,-43.09 1136.27,-47.46 1136.88,-40.48"/>
</g>
<!-- 146&#45;&gt;174 -->
<g id="edge58" class="edge">
<title>146&#45;&gt;174</title>
<path fill="none" stroke="grey" stroke-width="2" d="M2315.98,-81.69C2312.95,-81.09 2309.94,-80.52 2307,-80 2200.85,-61.15 2078.78,-46.8 1991.88,-37.81"/>
<polygon fill="grey" stroke="grey" stroke-width="2" points="1992.03,-34.31 1981.73,-36.77 1991.32,-41.27 1992.03,-34.31"/>
</g>
</g>
</svg>
