<?xml version="1.0" encoding="UTF-8" standalone="no"?>
<!DOCTYPE svg PUBLIC "-//W3C//DTD SVG 1.1//EN"
 "http://www.w3.org/Graphics/SVG/1.1/DTD/svg11.dtd">
<!-- Generated by graphviz version 2.43.0 (0)
 -->
<!-- Pages: 1 -->
<svg width="1195pt" height="381pt"
 viewBox="0.00 0.00 1194.50 381.00" xmlns="http://www.w3.org/2000/svg" xmlns:xlink="http://www.w3.org/1999/xlink">
<g id="graph0" class="graph" transform="scale(1 1) rotate(0) translate(4 377)">
<polygon fill="white" stroke="transparent" points="-4,4 -4,-377 1190.5,-377 1190.5,4 -4,4"/>
<g id="clust1" class="cluster">
<title>cluster_0</title>
<polygon fill="white" stroke="blue" points="8,-8 8,-365 1103,-365 1103,-8 8,-8"/>
<text text-anchor="middle" x="555.5" y="-349.8" font-family="Times,serif" font-size="14.00">shape_inject</text>
</g>
<!-- 11 -->
<g id="node1" class="node">
<title>11</title>
<path fill="none" stroke="#56d8d0" stroke-width="2" d="M607.5,-44C607.5,-44 502.5,-44 502.5,-44 496.5,-44 490.5,-38 490.5,-32 490.5,-32 490.5,-20 490.5,-20 490.5,-14 496.5,-8 502.5,-8 502.5,-8 607.5,-8 607.5,-8 613.5,-8 619.5,-14 619.5,-20 619.5,-20 619.5,-32 619.5,-32 619.5,-38 613.5,-44 607.5,-44"/>
<text text-anchor="middle" x="555" y="-23.5" font-family="sans" font-size="10.00">reinsert_subject_labels</text>
</g>
<!-- 12 -->
<g id="node2" class="node">
<title>12</title>
<path fill="none" stroke="#9fd856" stroke-width="2" d="M124,-118.5C124,-118.5 20,-118.5 20,-118.5 14,-118.5 8,-112.5 8,-106.5 8,-106.5 8,-94.5 8,-94.5 8,-88.5 14,-82.5 20,-82.5 20,-82.5 124,-82.5 124,-82.5 130,-82.5 136,-88.5 136,-94.5 136,-94.5 136,-106.5 136,-106.5 136,-112.5 130,-118.5 124,-118.5"/>
<text text-anchor="middle" x="72" y="-98" font-family="sans" font-size="10.00">template_shape_inject</text>
</g>
<!-- 12&#45;&gt;11 -->
<g id="edge1" class="edge">
<title>12&#45;&gt;11</title>
<path fill="none" stroke="grey" stroke-width="2" d="M133.6,-82.43C137.44,-81.56 141.27,-80.74 145,-80 261.1,-57.09 397.71,-41.71 480.26,-33.66"/>
<polygon fill="grey" stroke="grey" stroke-width="2" points="480.69,-37.13 490.31,-32.69 480.02,-30.17 480.69,-37.13"/>
</g>
<!-- 13 -->
<g id="node3" class="node">
<title>13</title>
<path fill="none" stroke="#568ad8" stroke-width="2" d="M230.5,-342C230.5,-342 121.5,-342 121.5,-342 115.5,-342 109.5,-336 109.5,-330 109.5,-330 109.5,-318 109.5,-318 109.5,-312 115.5,-306 121.5,-306 121.5,-306 230.5,-306 230.5,-306 236.5,-306 242.5,-312 242.5,-318 242.5,-318 242.5,-330 242.5,-330 242.5,-336 236.5,-342 230.5,-342"/>
<text text-anchor="middle" x="176" y="-327" font-family="sans" font-size="10.00">import_template_shape</text>
<text text-anchor="middle" x="176" y="-316" font-family="sans" font-size="10.00">subject: 001</text>
</g>
<!-- 13&#45;&gt;12 -->
<g id="edge2" class="edge">
<title>13&#45;&gt;12</title>
<path fill="none" stroke="grey" stroke-width="2" d="M132.78,-305.79C117.1,-297.36 100.84,-285.59 91,-270 63.67,-226.68 64.71,-164.4 68.19,-128.95"/>
<polygon fill="grey" stroke="grey" stroke-width="2" points="71.68,-129.19 69.31,-118.86 64.73,-128.41 71.68,-129.19"/>
</g>
<!-- 22 -->
<g id="node4" class="node">
<title>22</title>
<path fill="none" stroke="#afd856" stroke-width="2" d="M434.5,-270C434.5,-270 111.5,-270 111.5,-270 105.5,-270 99.5,-264 99.5,-258 99.5,-258 99.5,-246 99.5,-246 99.5,-240 105.5,-234 111.5,-234 111.5,-234 434.5,-234 434.5,-234 440.5,-234 446.5,-240 446.5,-246 446.5,-246 446.5,-258 446.5,-258 446.5,-264 440.5,-270 434.5,-270"/>
<text text-anchor="middle" x="273" y="-255" font-family="sans" font-size="10.00">prep_segs_for_greedy</text>
<text text-anchor="middle" x="273" y="-244" font-family="sans" font-size="10.00">prefix: work/sub&#45;001/anat/sub&#45;001_space&#45;template_desc&#45;hipptissue</text>
</g>
<!-- 13&#45;&gt;22 -->
<g id="edge3" class="edge">
<title>13&#45;&gt;22</title>
<path fill="none" stroke="grey" stroke-width="2" d="M199.98,-305.7C212.31,-296.8 227.52,-285.82 240.85,-276.2"/>
<polygon fill="grey" stroke="grey" stroke-width="2" points="243.24,-278.79 249.3,-270.1 239.14,-273.12 243.24,-278.79"/>
</g>
<!-- 21 -->
<g id="node5" class="node">
<title>21</title>
<path fill="none" stroke="#56d8c9" stroke-width="2" d="M594,-198C594,-198 502,-198 502,-198 496,-198 490,-192 490,-186 490,-186 490,-169 490,-169 490,-163 496,-157 502,-157 502,-157 594,-157 594,-157 600,-157 606,-163 606,-169 606,-169 606,-186 606,-186 606,-192 600,-198 594,-198"/>
<text text-anchor="middle" x="548" y="-186" font-family="sans" font-size="10.00">template_shape_reg</text>
<text text-anchor="middle" x="548" y="-175" font-family="sans" font-size="10.00">hemi: R</text>
<text text-anchor="middle" x="548" y="-164" font-family="sans" font-size="10.00">subject: 001</text>
</g>
<!-- 22&#45;&gt;21 -->
<g id="edge11" class="edge">
<title>22&#45;&gt;21</title>
<path fill="none" stroke="grey" stroke-width="2" d="M337.82,-233.91C380.55,-222.65 436.4,-207.92 479.8,-196.48"/>
<polygon fill="grey" stroke="grey" stroke-width="2" points="480.92,-199.8 489.7,-193.87 479.13,-193.04 480.92,-199.8"/>
</g>
<!-- 21&#45;&gt;12 -->
<g id="edge4" class="edge">
<title>21&#45;&gt;12</title>
<path fill="none" stroke="grey" stroke-width="2" d="M489.89,-170.79C411.23,-162.54 266.68,-145.53 145,-121 144.53,-120.91 144.07,-120.81 143.6,-120.71"/>
<polygon fill="grey" stroke="grey" stroke-width="2" points="144.12,-117.25 133.61,-118.53 142.63,-124.09 144.12,-117.25"/>
</g>
<!-- 24 -->
<g id="node6" class="node">
<title>24</title>
<path fill="none" stroke="#56b9d8" stroke-width="2" d="M607.5,-121C607.5,-121 488.5,-121 488.5,-121 482.5,-121 476.5,-115 476.5,-109 476.5,-109 476.5,-92 476.5,-92 476.5,-86 482.5,-80 488.5,-80 488.5,-80 607.5,-80 607.5,-80 613.5,-80 619.5,-86 619.5,-92 619.5,-92 619.5,-109 619.5,-109 619.5,-115 613.5,-121 607.5,-121"/>
<text text-anchor="middle" x="548" y="-109" font-family="sans" font-size="10.00">inject_init_laplace_coords</text>
<text text-anchor="middle" x="548" y="-98" font-family="sans" font-size="10.00">autotop: hipp</text>
<text text-anchor="middle" x="548" y="-87" font-family="sans" font-size="10.00">dir: AP</text>
</g>
<!-- 21&#45;&gt;24 -->
<g id="edge5" class="edge">
<title>21&#45;&gt;24</title>
<path fill="none" stroke="grey" stroke-width="2" d="M548,-156.79C548,-148.96 548,-139.77 548,-131.16"/>
<polygon fill="grey" stroke="grey" stroke-width="2" points="551.5,-131.07 548,-121.07 544.5,-131.07 551.5,-131.07"/>
</g>
<!-- 26 -->
<g id="node7" class="node">
<title>26</title>
<path fill="none" stroke="#56b9d8" stroke-width="2" d="M768.5,-121C768.5,-121 649.5,-121 649.5,-121 643.5,-121 637.5,-115 637.5,-109 637.5,-109 637.5,-92 637.5,-92 637.5,-86 643.5,-80 649.5,-80 649.5,-80 768.5,-80 768.5,-80 774.5,-80 780.5,-86 780.5,-92 780.5,-92 780.5,-109 780.5,-109 780.5,-115 774.5,-121 768.5,-121"/>
<text text-anchor="middle" x="709" y="-109" font-family="sans" font-size="10.00">inject_init_laplace_coords</text>
<text text-anchor="middle" x="709" y="-98" font-family="sans" font-size="10.00">autotop: hipp</text>
<text text-anchor="middle" x="709" y="-87" font-family="sans" font-size="10.00">dir: PD</text>
</g>
<!-- 21&#45;&gt;26 -->
<g id="edge6" class="edge">
<title>21&#45;&gt;26</title>
<path fill="none" stroke="grey" stroke-width="2" d="M589.88,-156.99C610.67,-147.31 635.96,-135.52 657.88,-125.31"/>
<polygon fill="grey" stroke="grey" stroke-width="2" points="659.46,-128.44 667.05,-121.04 656.51,-122.09 659.46,-128.44"/>
</g>
<!-- 61 -->
<g id="node8" class="node">
<title>61</title>
<path fill="none" stroke="#56b9d8" stroke-width="2" d="M929.5,-121C929.5,-121 810.5,-121 810.5,-121 804.5,-121 798.5,-115 798.5,-109 798.5,-109 798.5,-92 798.5,-92 798.5,-86 804.5,-80 810.5,-80 810.5,-80 929.5,-80 929.5,-80 935.5,-80 941.5,-86 941.5,-92 941.5,-92 941.5,-109 941.5,-109 941.5,-115 935.5,-121 929.5,-121"/>
<text text-anchor="middle" x="870" y="-109" font-family="sans" font-size="10.00">inject_init_laplace_coords</text>
<text text-anchor="middle" x="870" y="-98" font-family="sans" font-size="10.00">autotop: dentate</text>
<text text-anchor="middle" x="870" y="-87" font-family="sans" font-size="10.00">dir: AP</text>
</g>
<!-- 21&#45;&gt;61 -->
<g id="edge7" class="edge">
<title>21&#45;&gt;61</title>
<path fill="none" stroke="grey" stroke-width="2" d="M606.24,-163.38C652.99,-152.79 720.59,-137.36 788.47,-121.35"/>
<polygon fill="grey" stroke="grey" stroke-width="2" points="789.56,-124.69 798.48,-118.98 787.95,-117.88 789.56,-124.69"/>
</g>
<!-- 63 -->
<g id="node9" class="node">
<title>63</title>
<path fill="none" stroke="#56b9d8" stroke-width="2" d="M1090.5,-121C1090.5,-121 971.5,-121 971.5,-121 965.5,-121 959.5,-115 959.5,-109 959.5,-109 959.5,-92 959.5,-92 959.5,-86 965.5,-80 971.5,-80 971.5,-80 1090.5,-80 1090.5,-80 1096.5,-80 1102.5,-86 1102.5,-92 1102.5,-92 1102.5,-109 1102.5,-109 1102.5,-115 1096.5,-121 1090.5,-121"/>
<text text-anchor="middle" x="1031" y="-109" font-family="sans" font-size="10.00">inject_init_laplace_coords</text>
<text text-anchor="middle" x="1031" y="-98" font-family="sans" font-size="10.00">autotop: dentate</text>
<text text-anchor="middle" x="1031" y="-87" font-family="sans" font-size="10.00">dir: PD</text>
</g>
<!-- 21&#45;&gt;63 -->
<g id="edge8" class="edge">
<title>21&#45;&gt;63</title>
<path fill="none" stroke="grey" stroke-width="2" d="M606.03,-170.4C682.62,-161.92 821.77,-145.08 949.18,-121.26"/>
<polygon fill="grey" stroke="grey" stroke-width="2" points="949.94,-124.68 959.12,-119.39 948.64,-117.8 949.94,-124.68"/>
</g>
<!-- 65 -->
<g id="node10" class="node">
<title>65</title>
<path fill="none" stroke="#56b9d8" stroke-width="2" d="M285.5,-121C285.5,-121 166.5,-121 166.5,-121 160.5,-121 154.5,-115 154.5,-109 154.5,-109 154.5,-92 154.5,-92 154.5,-86 160.5,-80 166.5,-80 166.5,-80 285.5,-80 285.5,-80 291.5,-80 297.5,-86 297.5,-92 297.5,-92 297.5,-109 297.5,-109 297.5,-115 291.5,-121 285.5,-121"/>
<text text-anchor="middle" x="226" y="-109" font-family="sans" font-size="10.00">inject_init_laplace_coords</text>
<text text-anchor="middle" x="226" y="-98" font-family="sans" font-size="10.00">autotop: dentate</text>
<text text-anchor="middle" x="226" y="-87" font-family="sans" font-size="10.00">dir: IO</text>
</g>
<!-- 21&#45;&gt;65 -->
<g id="edge9" class="edge">
<title>21&#45;&gt;65</title>
<path fill="none" stroke="grey" stroke-width="2" d="M489.52,-163.2C442.98,-152.58 375.92,-137.19 307.63,-121.14"/>
<polygon fill="grey" stroke="grey" stroke-width="2" points="308.08,-117.65 297.54,-118.76 306.48,-124.46 308.08,-117.65"/>
</g>
<!-- 84 -->
<g id="node11" class="node">
<title>84</title>
<path fill="none" stroke="#56b9d8" stroke-width="2" d="M446.5,-121C446.5,-121 327.5,-121 327.5,-121 321.5,-121 315.5,-115 315.5,-109 315.5,-109 315.5,-92 315.5,-92 315.5,-86 321.5,-80 327.5,-80 327.5,-80 446.5,-80 446.5,-80 452.5,-80 458.5,-86 458.5,-92 458.5,-92 458.5,-109 458.5,-109 458.5,-115 452.5,-121 446.5,-121"/>
<text text-anchor="middle" x="387" y="-109" font-family="sans" font-size="10.00">inject_init_laplace_coords</text>
<text text-anchor="middle" x="387" y="-98" font-family="sans" font-size="10.00">autotop: hipp</text>
<text text-anchor="middle" x="387" y="-87" font-family="sans" font-size="10.00">dir: IO</text>
</g>
<!-- 21&#45;&gt;84 -->
<g id="edge10" class="edge">
<title>21&#45;&gt;84</title>
<path fill="none" stroke="grey" stroke-width="2" d="M506.12,-156.99C485.33,-147.31 460.04,-135.52 438.12,-125.31"/>
<polygon fill="grey" stroke="grey" stroke-width="2" points="439.49,-122.09 428.95,-121.04 436.54,-128.44 439.49,-122.09"/>
</g>
<!-- 23 -->
<g id="node12" class="node">
<title>23</title>
<path fill="none" stroke="#afd856" stroke-width="2" d="M808,-270C808,-270 476,-270 476,-270 470,-270 464,-264 464,-258 464,-258 464,-246 464,-246 464,-240 470,-234 476,-234 476,-234 808,-234 808,-234 814,-234 820,-240 820,-246 820,-246 820,-258 820,-258 820,-264 814,-270 808,-270"/>
<text text-anchor="middle" x="642" y="-255" font-family="sans" font-size="10.00">prep_segs_for_greedy</text>
<text text-anchor="middle" x="642" y="-244" font-family="sans" font-size="10.00">prefix: work/sub&#45;001/anat/sub&#45;001_hemi&#45;R_space&#45;corobl_desc&#45;nnunet</text>
</g>
<!-- 23&#45;&gt;21 -->
<g id="edge12" class="edge">
<title>23&#45;&gt;21</title>
<path fill="none" stroke="grey" stroke-width="2" d="M619.72,-233.82C608.32,-225.03 594.21,-214.14 581.52,-204.36"/>
<polygon fill="grey" stroke="grey" stroke-width="2" points="583.49,-201.46 573.44,-198.12 579.22,-207 583.49,-201.46"/>
</g>
<!-- 14 -->
<g id="node13" class="node">
<title>14</title>
<path fill="none" stroke="#d8a456" stroke-width="2" d="M1174.5,-342C1174.5,-342 1115.5,-342 1115.5,-342 1109.5,-342 1103.5,-336 1103.5,-330 1103.5,-330 1103.5,-318 1103.5,-318 1103.5,-312 1109.5,-306 1115.5,-306 1115.5,-306 1174.5,-306 1174.5,-306 1180.5,-306 1186.5,-312 1186.5,-318 1186.5,-318 1186.5,-330 1186.5,-330 1186.5,-336 1180.5,-342 1174.5,-342"/>
<text text-anchor="middle" x="1145" y="-321.5" font-family="sans" font-size="10.00">run_inference</text>
</g>
<!-- 14&#45;&gt;11 -->
<g id="edge13" class="edge">
<title>14&#45;&gt;11</title>
<path fill="none" stroke="grey" stroke-width="2" d="M1148.95,-305.77C1158.07,-261.08 1175.25,-140.76 1112,-80 1077.9,-47.24 773.48,-33.66 629.65,-29.03"/>
<polygon fill="grey" stroke="grey" stroke-width="2" points="629.68,-25.53 619.57,-28.71 629.46,-32.52 629.68,-25.53"/>
</g>
<!-- 14&#45;&gt;12 -->
<g id="edge14" class="edge">
<title>14&#45;&gt;12</title>
<path fill="none" stroke="grey" stroke-width="2" d="M1103.4,-307.02C1102.26,-306.66 1101.12,-306.32 1100,-306 1023.3,-283.82 1000.69,-292.22 924,-270 880.63,-257.44 871.36,-249.64 829,-234 734.18,-198.98 713.84,-178.16 615,-157 410.14,-113.14 351.53,-156.18 145,-121 144.09,-120.85 143.18,-120.69 142.27,-120.52"/>
<polygon fill="grey" stroke="grey" stroke-width="2" points="142.85,-117.07 132.36,-118.54 141.48,-123.93 142.85,-117.07"/>
</g>
<!-- 14&#45;&gt;24 -->
<g id="edge16" class="edge">
<title>14&#45;&gt;24</title>
<path fill="none" stroke="grey" stroke-width="2" d="M1104.37,-305.83C1084.88,-296.63 1061.74,-284.26 1043,-270 1008.21,-243.54 1005.75,-230.03 976,-198 959.09,-179.79 960.15,-168.24 938,-157 817.6,-95.89 767.49,-142.91 629.95,-120.98"/>
<polygon fill="grey" stroke="grey" stroke-width="2" points="630.34,-117.5 619.89,-119.28 629.17,-124.4 630.34,-117.5"/>
</g>
<!-- 14&#45;&gt;26 -->
<g id="edge17" class="edge">
<title>14&#45;&gt;26</title>
<path fill="none" stroke="grey" stroke-width="2" d="M1121.26,-305.76C1108.08,-295.82 1091.64,-282.78 1078,-270 1028.63,-223.74 1034.92,-190.26 976,-157 905.39,-117.15 874.6,-137.22 790.48,-120.95"/>
<polygon fill="grey" stroke="grey" stroke-width="2" points="791.01,-117.49 780.51,-118.9 789.6,-124.34 791.01,-117.49"/>
</g>
<!-- 14&#45;&gt;61 -->
<g id="edge18" class="edge">
<title>14&#45;&gt;61</title>
<path fill="none" stroke="grey" stroke-width="2" d="M1131.06,-305.54C1123,-295.3 1112.75,-282.05 1104,-270 1068.28,-220.83 1075.15,-194.08 1027,-157 1013.76,-146.81 980.47,-134.5 947.93,-124.07"/>
<polygon fill="grey" stroke="grey" stroke-width="2" points="948.93,-120.72 938.34,-121.04 946.82,-127.39 948.93,-120.72"/>
</g>
<!-- 14&#45;&gt;63 -->
<g id="edge19" class="edge">
<title>14&#45;&gt;63</title>
<path fill="none" stroke="grey" stroke-width="2" d="M1137.84,-305.75C1122.5,-269 1086.61,-184.15 1071,-157 1065.63,-147.66 1059.04,-137.96 1052.77,-129.34"/>
<polygon fill="grey" stroke="grey" stroke-width="2" points="1055.44,-127.07 1046.66,-121.13 1049.82,-131.24 1055.44,-127.07"/>
</g>
<!-- 14&#45;&gt;65 -->
<g id="edge20" class="edge">
<title>14&#45;&gt;65</title>
<path fill="none" stroke="grey" stroke-width="2" d="M1103.37,-307.11C1102.24,-306.73 1101.11,-306.36 1100,-306 1041.73,-287.16 1019.43,-301.63 967,-270 929.57,-247.42 929.75,-230.03 900,-198 883.09,-179.79 884.44,-167.67 862,-157 753.12,-105.2 444.75,-137.84 307.82,-120.85"/>
<polygon fill="grey" stroke="grey" stroke-width="2" points="308.25,-117.37 297.86,-119.48 307.29,-124.31 308.25,-117.37"/>
</g>
<!-- 14&#45;&gt;84 -->
<g id="edge21" class="edge">
<title>14&#45;&gt;84</title>
<path fill="none" stroke="grey" stroke-width="2" d="M1103.33,-307.24C1102.21,-306.82 1101.1,-306.41 1100,-306 1056.52,-289.8 1040.45,-295.98 1002,-270 994.99,-265.26 907.58,-160.75 900,-157 816.37,-115.58 578.61,-135 469.06,-120.88"/>
<polygon fill="grey" stroke="grey" stroke-width="2" points="469.27,-117.37 458.87,-119.41 468.27,-124.3 469.27,-117.37"/>
</g>
<!-- 14&#45;&gt;23 -->
<g id="edge15" class="edge">
<title>14&#45;&gt;23</title>
<path fill="none" stroke="grey" stroke-width="2" d="M1103.43,-306.89C1102.28,-306.57 1101.14,-306.28 1100,-306 1049.71,-293.79 933.35,-280.39 830.51,-270.12"/>
<polygon fill="grey" stroke="grey" stroke-width="2" points="830.58,-266.61 820.29,-269.1 829.89,-273.57 830.58,-266.61"/>
</g>
</g>
</svg>
