<?xml version="1.0" encoding="UTF-8" standalone="no"?>
<!DOCTYPE svg PUBLIC "-//W3C//DTD SVG 1.1//EN"
 "http://www.w3.org/Graphics/SVG/1.1/DTD/svg11.dtd">
<!-- Generated by graphviz version 2.43.0 (0)
 -->
<!-- Pages: 1 -->
<svg width="1652pt" height="273pt"
 viewBox="0.00 0.00 1651.90 273.00" xmlns="http://www.w3.org/2000/svg" xmlns:xlink="http://www.w3.org/1999/xlink">
<g id="graph0" class="graph" transform="scale(1 1) rotate(0) translate(4 269)">
<polygon fill="white" stroke="transparent" points="-4,4 -4,-269 1647.9,-269 1647.9,4 -4,4"/>
<g id="clust1" class="cluster">
<title>cluster_0</title>
<polygon fill="white" stroke="blue" points="135.9,-8 135.9,-144 1187.9,-144 1187.9,-8 135.9,-8"/>
<text text-anchor="middle" x="661.9" y="-128.8" font-family="Times,serif" font-size="14.00">resample_final_to_crop_native</text>
</g>
<!-- 51 -->
<g id="node1" class="node">
<title>51</title>
<path fill="none" stroke="#d86e56" stroke-width="2" d="M635.4,-46.5C635.4,-46.5 486.4,-46.5 486.4,-46.5 480.4,-46.5 474.4,-40.5 474.4,-34.5 474.4,-34.5 474.4,-22.5 474.4,-22.5 474.4,-16.5 480.4,-10.5 486.4,-10.5 486.4,-10.5 635.4,-10.5 635.4,-10.5 641.4,-10.5 647.4,-16.5 647.4,-22.5 647.4,-22.5 647.4,-34.5 647.4,-34.5 647.4,-40.5 641.4,-46.5 635.4,-46.5"/>
<text text-anchor="middle" x="560.9" y="-26" font-family="sans" font-size="10.00">resample_subfields_native_crop</text>
</g>
<!-- 54 -->
<g id="node2" class="node">
<title>54</title>
<path fill="none" stroke="#56d88a" stroke-width="2" d="M592.9,-121C592.9,-121 488.9,-121 488.9,-121 482.9,-121 476.9,-115 476.9,-109 476.9,-109 476.9,-97 476.9,-97 476.9,-91 482.9,-85 488.9,-85 488.9,-85 592.9,-85 592.9,-85 598.9,-85 604.9,-91 604.9,-97 604.9,-97 604.9,-109 604.9,-109 604.9,-115 598.9,-121 592.9,-121"/>
<text text-anchor="middle" x="540.9" y="-100.5" font-family="sans" font-size="10.00">create_native_crop_ref</text>
</g>
<!-- 54&#45;&gt;51 -->
<g id="edge1" class="edge">
<title>54&#45;&gt;51</title>
<path fill="none" stroke="grey" stroke-width="2" d="M545.64,-84.82C547.99,-76.33 550.86,-65.89 553.49,-56.38"/>
<polygon fill="grey" stroke="grey" stroke-width="2" points="556.91,-57.13 556.2,-46.56 550.17,-55.27 556.91,-57.13"/>
</g>
<!-- 56 -->
<g id="node3" class="node">
<title>56</title>
<path fill="none" stroke="#d6d856" stroke-width="2" d="M443.9,-49C443.9,-49 305.9,-49 305.9,-49 299.9,-49 293.9,-43 293.9,-37 293.9,-37 293.9,-20 293.9,-20 293.9,-14 299.9,-8 305.9,-8 305.9,-8 443.9,-8 443.9,-8 449.9,-8 455.9,-14 455.9,-20 455.9,-20 455.9,-37 455.9,-37 455.9,-43 449.9,-49 443.9,-49"/>
<text text-anchor="middle" x="374.9" y="-37" font-family="sans" font-size="10.00">resample_coords_native_crop</text>
<text text-anchor="middle" x="374.9" y="-26" font-family="sans" font-size="10.00">autotop: hipp</text>
<text text-anchor="middle" x="374.9" y="-15" font-family="sans" font-size="10.00">desc: laplace</text>
</g>
<!-- 54&#45;&gt;56 -->
<g id="edge2" class="edge">
<title>54&#45;&gt;56</title>
<path fill="none" stroke="grey" stroke-width="2" d="M501.56,-84.82C479.9,-75.36 452.68,-63.47 429.03,-53.14"/>
<polygon fill="grey" stroke="grey" stroke-width="2" points="430.39,-49.91 419.83,-49.12 427.59,-56.33 430.39,-49.91"/>
</g>
<!-- 57 -->
<g id="node4" class="node">
<title>57</title>
<path fill="none" stroke="#d6d856" stroke-width="2" d="M815.9,-49C815.9,-49 677.9,-49 677.9,-49 671.9,-49 665.9,-43 665.9,-37 665.9,-37 665.9,-20 665.9,-20 665.9,-14 671.9,-8 677.9,-8 677.9,-8 815.9,-8 815.9,-8 821.9,-8 827.9,-14 827.9,-20 827.9,-20 827.9,-37 827.9,-37 827.9,-43 821.9,-49 815.9,-49"/>
<text text-anchor="middle" x="746.9" y="-37" font-family="sans" font-size="10.00">resample_coords_native_crop</text>
<text text-anchor="middle" x="746.9" y="-26" font-family="sans" font-size="10.00">autotop: hipp</text>
<text text-anchor="middle" x="746.9" y="-15" font-family="sans" font-size="10.00">desc: laplace</text>
</g>
<!-- 54&#45;&gt;57 -->
<g id="edge3" class="edge">
<title>54&#45;&gt;57</title>
<path fill="none" stroke="grey" stroke-width="2" d="M589.46,-84.91C617.05,-75.2 651.94,-62.92 681.87,-52.39"/>
<polygon fill="grey" stroke="grey" stroke-width="2" points="683.12,-55.66 691.39,-49.04 680.8,-49.05 683.12,-55.66"/>
</g>
<!-- 58 -->
<g id="node5" class="node">
<title>58</title>
<path fill="none" stroke="#d6d856" stroke-width="2" d="M995.9,-49C995.9,-49 857.9,-49 857.9,-49 851.9,-49 845.9,-43 845.9,-37 845.9,-37 845.9,-20 845.9,-20 845.9,-14 851.9,-8 857.9,-8 857.9,-8 995.9,-8 995.9,-8 1001.9,-8 1007.9,-14 1007.9,-20 1007.9,-20 1007.9,-37 1007.9,-37 1007.9,-43 1001.9,-49 995.9,-49"/>
<text text-anchor="middle" x="926.9" y="-37" font-family="sans" font-size="10.00">resample_coords_native_crop</text>
<text text-anchor="middle" x="926.9" y="-26" font-family="sans" font-size="10.00">autotop: hipp</text>
<text text-anchor="middle" x="926.9" y="-15" font-family="sans" font-size="10.00">desc: laplace</text>
</g>
<!-- 54&#45;&gt;58 -->
<g id="edge4" class="edge">
<title>54&#45;&gt;58</title>
<path fill="none" stroke="grey" stroke-width="2" d="M605.12,-91.19C662.94,-81.3 750.48,-65.94 835.66,-49.22"/>
<polygon fill="grey" stroke="grey" stroke-width="2" points="836.36,-52.65 845.5,-47.28 835.01,-45.78 836.36,-52.65"/>
</g>
<!-- 61 -->
<g id="node6" class="node">
<title>61</title>
<path fill="none" stroke="#d6d856" stroke-width="2" d="M1175.9,-49C1175.9,-49 1037.9,-49 1037.9,-49 1031.9,-49 1025.9,-43 1025.9,-37 1025.9,-37 1025.9,-20 1025.9,-20 1025.9,-14 1031.9,-8 1037.9,-8 1037.9,-8 1175.9,-8 1175.9,-8 1181.9,-8 1187.9,-14 1187.9,-20 1187.9,-20 1187.9,-37 1187.9,-37 1187.9,-43 1181.9,-49 1175.9,-49"/>
<text text-anchor="middle" x="1106.9" y="-37" font-family="sans" font-size="10.00">resample_coords_native_crop</text>
<text text-anchor="middle" x="1106.9" y="-26" font-family="sans" font-size="10.00">autotop: hipp</text>
<text text-anchor="middle" x="1106.9" y="-15" font-family="sans" font-size="10.00">desc: equivol</text>
</g>
<!-- 54&#45;&gt;61 -->
<g id="edge5" class="edge">
<title>54&#45;&gt;61</title>
<path fill="none" stroke="grey" stroke-width="2" d="M605.09,-96.96C694.83,-89.44 863.01,-73.66 1015.52,-49.15"/>
<polygon fill="grey" stroke="grey" stroke-width="2" points="1016.23,-52.58 1025.54,-47.52 1015.11,-45.67 1016.23,-52.58"/>
</g>
<!-- 64 -->
<g id="node7" class="node">
<title>64</title>
<path fill="none" stroke="#567bd8" stroke-width="2" d="M263.9,-46.5C263.9,-46.5 147.9,-46.5 147.9,-46.5 141.9,-46.5 135.9,-40.5 135.9,-34.5 135.9,-34.5 135.9,-22.5 135.9,-22.5 135.9,-16.5 141.9,-10.5 147.9,-10.5 147.9,-10.5 263.9,-10.5 263.9,-10.5 269.9,-10.5 275.9,-16.5 275.9,-22.5 275.9,-22.5 275.9,-34.5 275.9,-34.5 275.9,-40.5 269.9,-46.5 263.9,-46.5"/>
<text text-anchor="middle" x="205.9" y="-26" font-family="sans" font-size="10.00">resample_native_to_crop</text>
</g>
<!-- 54&#45;&gt;64 -->
<g id="edge6" class="edge">
<title>54&#45;&gt;64</title>
<path fill="none" stroke="grey" stroke-width="2" d="M476.85,-89.44C424.98,-79.1 350.08,-63.79 284.9,-49 284.69,-48.95 284.47,-48.9 284.26,-48.85"/>
<polygon fill="grey" stroke="grey" stroke-width="2" points="284.91,-45.41 274.38,-46.57 283.33,-52.23 284.91,-45.41"/>
</g>
<!-- 10 -->
<g id="node8" class="node">
<title>10</title>
<path fill="none" stroke="#d8bc56" stroke-width="2" d="M123.9,-121C123.9,-121 31.9,-121 31.9,-121 25.9,-121 19.9,-115 19.9,-109 19.9,-109 19.9,-97 19.9,-97 19.9,-91 25.9,-85 31.9,-85 31.9,-85 123.9,-85 123.9,-85 129.9,-85 135.9,-91 135.9,-97 135.9,-97 135.9,-109 135.9,-109 135.9,-115 129.9,-121 123.9,-121"/>
<text text-anchor="middle" x="77.9" y="-100.5" font-family="sans" font-size="10.00">laplace_coords_hipp</text>
</g>
<!-- 10&#45;&gt;56 -->
<g id="edge7" class="edge">
<title>10&#45;&gt;56</title>
<path fill="none" stroke="grey" stroke-width="2" d="M135.97,-86.01C137.29,-85.67 138.61,-85.33 139.9,-85 187.2,-72.94 240.08,-60.36 283.69,-50.24"/>
<polygon fill="grey" stroke="grey" stroke-width="2" points="284.75,-53.59 293.7,-47.92 283.17,-46.77 284.75,-53.59"/>
</g>
<!-- 16 -->
<g id="node9" class="node">
<title>16</title>
<path fill="none" stroke="#97d856" stroke-width="2" d="M195.9,-265C195.9,-265 165.9,-265 165.9,-265 159.9,-265 153.9,-259 153.9,-253 153.9,-253 153.9,-241 153.9,-241 153.9,-235 159.9,-229 165.9,-229 165.9,-229 195.9,-229 195.9,-229 201.9,-229 207.9,-235 207.9,-241 207.9,-241 207.9,-253 207.9,-253 207.9,-259 201.9,-265 195.9,-265"/>
<text text-anchor="middle" x="180.9" y="-244.5" font-family="sans" font-size="10.00">n4_t1</text>
</g>
<!-- 16&#45;&gt;64 -->
<g id="edge9" class="edge">
<title>16&#45;&gt;64</title>
<path fill="none" stroke="grey" stroke-width="2" d="M153.47,-235.75C93.89,-211.96 -38.21,-150.04 10.9,-85 25.21,-66.05 78.59,-51.66 125.89,-42.29"/>
<polygon fill="grey" stroke="grey" stroke-width="2" points="126.72,-45.69 135.87,-40.36 125.39,-38.82 126.72,-45.69"/>
</g>
<!-- 55 -->
<g id="node10" class="node">
<title>55</title>
<path fill="none" stroke="#70d856" stroke-width="2" d="M592.9,-193C592.9,-193 454.9,-193 454.9,-193 448.9,-193 442.9,-187 442.9,-181 442.9,-181 442.9,-169 442.9,-169 442.9,-163 448.9,-157 454.9,-157 454.9,-157 592.9,-157 592.9,-157 598.9,-157 604.9,-163 604.9,-169 604.9,-169 604.9,-181 604.9,-181 604.9,-187 598.9,-193 592.9,-193"/>
<text text-anchor="middle" x="523.9" y="-178" font-family="sans" font-size="10.00">resample_subfields_to_native</text>
<text text-anchor="middle" x="523.9" y="-167" font-family="sans" font-size="10.00">native_modality: T1w</text>
</g>
<!-- 16&#45;&gt;55 -->
<g id="edge8" class="edge">
<title>16&#45;&gt;55</title>
<path fill="none" stroke="grey" stroke-width="2" d="M208.11,-240.45C256.1,-230.65 357.84,-209.89 432.93,-194.57"/>
<polygon fill="grey" stroke="grey" stroke-width="2" points="433.77,-197.97 442.87,-192.54 432.37,-191.11 433.77,-197.97"/>
</g>
<!-- 55&#45;&gt;54 -->
<g id="edge20" class="edge">
<title>55&#45;&gt;54</title>
<path fill="none" stroke="grey" stroke-width="2" d="M528.11,-156.7C530,-148.9 532.28,-139.51 534.39,-130.83"/>
<polygon fill="grey" stroke="grey" stroke-width="2" points="537.79,-131.65 536.75,-121.1 530.99,-130 537.79,-131.65"/>
</g>
<!-- 18 -->
<g id="node11" class="node">
<title>18</title>
<path fill="none" stroke="#d8c356" stroke-width="2" d="M815.9,-265C815.9,-265 669.9,-265 669.9,-265 663.9,-265 657.9,-259 657.9,-253 657.9,-253 657.9,-241 657.9,-241 657.9,-235 663.9,-229 669.9,-229 669.9,-229 815.9,-229 815.9,-229 821.9,-229 827.9,-235 827.9,-241 827.9,-241 827.9,-253 827.9,-253 827.9,-259 821.9,-265 815.9,-265"/>
<text text-anchor="middle" x="742.9" y="-244.5" font-family="sans" font-size="10.00">compose_template_xfm_corobl</text>
</g>
<!-- 18&#45;&gt;51 -->
<g id="edge10" class="edge">
<title>18&#45;&gt;51</title>
<path fill="none" stroke="grey" stroke-width="2" d="M741.12,-228.69C736.93,-196.47 723.7,-126.82 684.9,-85 670.98,-69.99 652.23,-58.77 633.54,-50.51"/>
<polygon fill="grey" stroke="grey" stroke-width="2" points="634.67,-47.19 624.09,-46.57 631.98,-53.65 634.67,-47.19"/>
</g>
<!-- 18&#45;&gt;56 -->
<g id="edge12" class="edge">
<title>18&#45;&gt;56</title>
<path fill="none" stroke="grey" stroke-width="2" d="M734.22,-228.76C716.47,-195.39 672.71,-122.01 613.9,-85 607.34,-80.87 530.76,-63.45 466.03,-49.21"/>
<polygon fill="grey" stroke="grey" stroke-width="2" points="466.68,-45.77 456.17,-47.04 465.18,-52.61 466.68,-45.77"/>
</g>
<!-- 18&#45;&gt;57 -->
<g id="edge13" class="edge">
<title>18&#45;&gt;57</title>
<path fill="none" stroke="grey" stroke-width="2" d="M743.23,-228.65C743.91,-191.77 745.51,-105.22 746.35,-59.31"/>
<polygon fill="grey" stroke="grey" stroke-width="2" points="749.86,-59.16 746.54,-49.1 742.86,-59.03 749.86,-59.16"/>
</g>
<!-- 18&#45;&gt;58 -->
<g id="edge14" class="edge">
<title>18&#45;&gt;58</title>
<path fill="none" stroke="grey" stroke-width="2" d="M828.06,-246.9C997.58,-246.67 1367.75,-235.45 1446.9,-144 1464.07,-124.17 1464.66,-104.3 1446.9,-85 1416.03,-51.43 1097.76,-55.57 1018.5,-48.76"/>
<polygon fill="grey" stroke="grey" stroke-width="2" points="1018.58,-45.25 1008.25,-47.62 1017.8,-52.21 1018.58,-45.25"/>
</g>
<!-- 18&#45;&gt;61 -->
<g id="edge15" class="edge">
<title>18&#45;&gt;61</title>
<path fill="none" stroke="grey" stroke-width="2" d="M828.15,-245.95C984.16,-244.77 1309.03,-236.91 1411.9,-193 1442.01,-180.15 1453.51,-173.87 1466.9,-144 1477.63,-120.07 1483.98,-104.9 1466.9,-85 1432.94,-45.4 1293.23,-33.79 1198.18,-30.54"/>
<polygon fill="grey" stroke="grey" stroke-width="2" points="1198.08,-27.04 1187.97,-30.22 1197.86,-34.03 1198.08,-27.04"/>
</g>
<!-- 18&#45;&gt;55 -->
<g id="edge11" class="edge">
<title>18&#45;&gt;55</title>
<path fill="none" stroke="grey" stroke-width="2" d="M689.61,-228.97C658.75,-219.1 619.71,-206.62 587.27,-196.25"/>
<polygon fill="grey" stroke="grey" stroke-width="2" points="588.03,-192.82 577.44,-193.11 585.9,-199.49 588.03,-192.82"/>
</g>
<!-- 25 -->
<g id="node12" class="node">
<title>25</title>
<path fill="none" stroke="#d8bc56" stroke-width="2" d="M1291.9,-121C1291.9,-121 1199.9,-121 1199.9,-121 1193.9,-121 1187.9,-115 1187.9,-109 1187.9,-109 1187.9,-97 1187.9,-97 1187.9,-91 1193.9,-85 1199.9,-85 1199.9,-85 1291.9,-85 1291.9,-85 1297.9,-85 1303.9,-91 1303.9,-97 1303.9,-97 1303.9,-109 1303.9,-109 1303.9,-115 1297.9,-121 1291.9,-121"/>
<text text-anchor="middle" x="1245.9" y="-100.5" font-family="sans" font-size="10.00">laplace_coords_hipp</text>
</g>
<!-- 25&#45;&gt;57 -->
<g id="edge16" class="edge">
<title>25&#45;&gt;57</title>
<path fill="none" stroke="grey" stroke-width="2" d="M1187.89,-85.78C1186.55,-85.51 1185.22,-85.25 1183.9,-85 1034.79,-57.02 991.85,-72.74 838.52,-49.16"/>
<polygon fill="grey" stroke="grey" stroke-width="2" points="838.69,-45.64 828.26,-47.55 837.6,-52.56 838.69,-45.64"/>
</g>
<!-- 27 -->
<g id="node13" class="node">
<title>27</title>
<path fill="none" stroke="#56d85b" stroke-width="2" d="M1631.9,-121C1631.9,-121 1543.9,-121 1543.9,-121 1537.9,-121 1531.9,-115 1531.9,-109 1531.9,-109 1531.9,-97 1531.9,-97 1531.9,-91 1537.9,-85 1543.9,-85 1543.9,-85 1631.9,-85 1631.9,-85 1637.9,-85 1643.9,-91 1643.9,-97 1643.9,-97 1643.9,-109 1643.9,-109 1643.9,-115 1637.9,-121 1631.9,-121"/>
<text text-anchor="middle" x="1587.9" y="-100.5" font-family="sans" font-size="10.00">equivolume_coords</text>
</g>
<!-- 27&#45;&gt;61 -->
<g id="edge17" class="edge">
<title>27&#45;&gt;61</title>
<path fill="none" stroke="grey" stroke-width="2" d="M1531.85,-87.84C1527.15,-86.82 1522.45,-85.86 1517.9,-85 1408.61,-64.41 1281.57,-48.46 1197.99,-39.05"/>
<polygon fill="grey" stroke="grey" stroke-width="2" points="1198.35,-35.56 1188.02,-37.93 1197.57,-42.52 1198.35,-35.56"/>
</g>
<!-- 52 -->
<g id="node14" class="node">
<title>52</title>
<path fill="none" stroke="#d8cb56" stroke-width="2" d="M619.9,-265C619.9,-265 437.9,-265 437.9,-265 431.9,-265 425.9,-259 425.9,-253 425.9,-253 425.9,-241 425.9,-241 425.9,-235 431.9,-229 437.9,-229 437.9,-229 619.9,-229 619.9,-229 625.9,-229 631.9,-235 631.9,-241 631.9,-241 631.9,-253 631.9,-253 631.9,-259 625.9,-265 619.9,-265"/>
<text text-anchor="middle" x="528.9" y="-244.5" font-family="sans" font-size="10.00">combine_tissue_subfield_labels_corobl</text>
</g>
<!-- 52&#45;&gt;51 -->
<g id="edge18" class="edge">
<title>52&#45;&gt;51</title>
<path fill="none" stroke="grey" stroke-width="2" d="M573.94,-228.86C589.45,-220.53 605.13,-208.81 613.9,-193 637.2,-151.03 631.76,-129.55 613.9,-85 609.14,-73.12 600.49,-62.33 591.53,-53.5"/>
<polygon fill="grey" stroke="grey" stroke-width="2" points="593.74,-50.77 584.02,-46.56 588.99,-55.92 593.74,-50.77"/>
</g>
<!-- 52&#45;&gt;55 -->
<g id="edge19" class="edge">
<title>52&#45;&gt;55</title>
<path fill="none" stroke="grey" stroke-width="2" d="M527.67,-228.7C527.12,-220.98 526.46,-211.71 525.84,-203.11"/>
<polygon fill="grey" stroke="grey" stroke-width="2" points="529.33,-202.83 525.13,-193.1 522.35,-203.33 529.33,-202.83"/>
</g>
<!-- 59 -->
<g id="node15" class="node">
<title>59</title>
<path fill="none" stroke="#d8bc56" stroke-width="2" d="M1425.9,-121C1425.9,-121 1333.9,-121 1333.9,-121 1327.9,-121 1321.9,-115 1321.9,-109 1321.9,-109 1321.9,-97 1321.9,-97 1321.9,-91 1327.9,-85 1333.9,-85 1333.9,-85 1425.9,-85 1425.9,-85 1431.9,-85 1437.9,-91 1437.9,-97 1437.9,-97 1437.9,-109 1437.9,-109 1437.9,-115 1431.9,-121 1425.9,-121"/>
<text text-anchor="middle" x="1379.9" y="-100.5" font-family="sans" font-size="10.00">laplace_coords_hipp</text>
</g>
<!-- 59&#45;&gt;58 -->
<g id="edge21" class="edge">
<title>59&#45;&gt;58</title>
<path fill="none" stroke="grey" stroke-width="2" d="M1321.9,-86.8C1318.87,-86.16 1315.85,-85.55 1312.9,-85 1185.82,-61.25 1149.35,-70.57 1018.29,-49.15"/>
<polygon fill="grey" stroke="grey" stroke-width="2" points="1018.71,-45.67 1008.27,-47.48 1017.56,-52.58 1018.71,-45.67"/>
</g>
</g>
</svg>
