<?xml version="1.0" encoding="UTF-8" standalone="no"?>
<!DOCTYPE svg PUBLIC "-//W3C//DTD SVG 1.1//EN"
 "http://www.w3.org/Graphics/SVG/1.1/DTD/svg11.dtd">
<!-- Generated by graphviz version 2.43.0 (0)
 -->
<!-- Pages: 1 -->
<svg width="582pt" height="124pt"
 viewBox="0.00 0.00 581.50 124.00" xmlns="http://www.w3.org/2000/svg" xmlns:xlink="http://www.w3.org/1999/xlink">
<g id="graph0" class="graph" transform="scale(1 1) rotate(0) translate(4 120)">
<polygon fill="white" stroke="transparent" points="-4,4 -4,-120 577.5,-120 577.5,4 -4,4"/>
<g id="clust1" class="cluster">
<title>cluster_0</title>
<polygon fill="white" stroke="blue" points="17.5,-8 17.5,-67 363.5,-67 363.5,-8 17.5,-8"/>
<text text-anchor="middle" x="190.5" y="-51.8" font-family="Times,serif" font-size="14.00">qc</text>
</g>
<!-- 65 -->
<g id="node1" class="node">
<title>65</title>
<path fill="none" stroke="#8fd856" stroke-width="2" d="M241.5,-44C241.5,-44 143.5,-44 143.5,-44 137.5,-44 131.5,-38 131.5,-32 131.5,-32 131.5,-20 131.5,-20 131.5,-14 137.5,-8 143.5,-8 143.5,-8 241.5,-8 241.5,-8 247.5,-8 253.5,-14 253.5,-20 253.5,-20 253.5,-32 253.5,-32 253.5,-38 247.5,-44 241.5,-44"/>
<text text-anchor="middle" x="192.5" y="-29" font-family="sans" font-size="10.00">qc_reg_to_template</text>
<text text-anchor="middle" x="192.5" y="-18" font-family="sans" font-size="10.00">native_modality: T1w</text>
</g>
<!-- 66 -->
<g id="node2" class="node">
<title>66</title>
<path fill="none" stroke="#56c9d8" stroke-width="2" d="M351.5,-44C351.5,-44 283.5,-44 283.5,-44 277.5,-44 271.5,-38 271.5,-32 271.5,-32 271.5,-20 271.5,-20 271.5,-14 277.5,-8 283.5,-8 283.5,-8 351.5,-8 351.5,-8 357.5,-8 363.5,-14 363.5,-20 363.5,-20 363.5,-32 363.5,-32 363.5,-38 357.5,-44 351.5,-44"/>
<text text-anchor="middle" x="317.5" y="-29" font-family="sans" font-size="10.00">qc_subfield</text>
<text text-anchor="middle" x="317.5" y="-18" font-family="sans" font-size="10.00">space: cropT1w</text>
</g>
<!-- 67 -->
<g id="node3" class="node">
<title>67</title>
<path fill="none" stroke="#56a9d8" stroke-width="2" d="M101,-44C101,-44 30,-44 30,-44 24,-44 18,-38 18,-32 18,-32 18,-20 18,-20 18,-14 24,-8 30,-8 30,-8 101,-8 101,-8 107,-8 113,-14 113,-20 113,-20 113,-32 113,-32 113,-38 107,-44 101,-44"/>
<text text-anchor="middle" x="65.5" y="-29" font-family="sans" font-size="10.00">qc_subfield_surf</text>
<text text-anchor="middle" x="65.5" y="-18" font-family="sans" font-size="10.00">ref_spaces: T1w</text>
</g>
<!-- 4 -->
<g id="node4" class="node">
<title>4</title>
<path fill="none" stroke="#88d856" stroke-width="2" d="M97,-116C97,-116 12,-116 12,-116 6,-116 0,-110 0,-104 0,-104 0,-92 0,-92 0,-86 6,-80 12,-80 12,-80 97,-80 97,-80 103,-80 109,-86 109,-92 109,-92 109,-104 109,-104 109,-110 103,-116 97,-116"/>
<text text-anchor="middle" x="54.5" y="-95.5" font-family="sans" font-size="10.00">warp_gii_to_native</text>
</g>
<!-- 4&#45;&gt;67 -->
<g id="edge1" class="edge">
<title>4&#45;&gt;67</title>
<path fill="none" stroke="grey" stroke-width="2" d="M57.22,-79.7C58.43,-71.98 59.89,-62.71 61.24,-54.11"/>
<polygon fill="grey" stroke="grey" stroke-width="2" points="64.72,-54.53 62.81,-44.1 57.8,-53.44 64.72,-54.53"/>
</g>
<!-- 20 -->
<g id="node5" class="node">
<title>20</title>
<path fill="none" stroke="#d8ac56" stroke-width="2" d="M212,-116C212,-116 139,-116 139,-116 133,-116 127,-110 127,-104 127,-104 127,-92 127,-92 127,-86 133,-80 139,-80 139,-80 212,-80 212,-80 218,-80 224,-86 224,-92 224,-92 224,-104 224,-104 224,-110 218,-116 212,-116"/>
<text text-anchor="middle" x="175.5" y="-95.5" font-family="sans" font-size="10.00">reg_to_template</text>
</g>
<!-- 20&#45;&gt;65 -->
<g id="edge2" class="edge">
<title>20&#45;&gt;65</title>
<path fill="none" stroke="grey" stroke-width="2" d="M179.7,-79.7C181.6,-71.9 183.88,-62.51 185.98,-53.83"/>
<polygon fill="grey" stroke="grey" stroke-width="2" points="189.39,-54.65 188.35,-44.1 182.58,-53 189.39,-54.65"/>
</g>
<!-- 51 -->
<g id="node6" class="node">
<title>51</title>
<path fill="none" stroke="#d86e56" stroke-width="2" d="M403,-116C403,-116 254,-116 254,-116 248,-116 242,-110 242,-104 242,-104 242,-92 242,-92 242,-86 248,-80 254,-80 254,-80 403,-80 403,-80 409,-80 415,-86 415,-92 415,-92 415,-104 415,-104 415,-110 409,-116 403,-116"/>
<text text-anchor="middle" x="328.5" y="-95.5" font-family="sans" font-size="10.00">resample_subfields_native_crop</text>
</g>
<!-- 51&#45;&gt;66 -->
<g id="edge3" class="edge">
<title>51&#45;&gt;66</title>
<path fill="none" stroke="grey" stroke-width="2" d="M325.78,-79.7C324.57,-71.98 323.11,-62.71 321.76,-54.11"/>
<polygon fill="grey" stroke="grey" stroke-width="2" points="325.2,-53.44 320.19,-44.1 318.28,-54.53 325.2,-53.44"/>
</g>
<!-- 64 -->
<g id="node7" class="node">
<title>64</title>
<path fill="none" stroke="#567bd8" stroke-width="2" d="M561.5,-116C561.5,-116 445.5,-116 445.5,-116 439.5,-116 433.5,-110 433.5,-104 433.5,-104 433.5,-92 433.5,-92 433.5,-86 439.5,-80 445.5,-80 445.5,-80 561.5,-80 561.5,-80 567.5,-80 573.5,-86 573.5,-92 573.5,-92 573.5,-104 573.5,-104 573.5,-110 567.5,-116 561.5,-116"/>
<text text-anchor="middle" x="503.5" y="-95.5" font-family="sans" font-size="10.00">resample_native_to_crop</text>
</g>
<!-- 64&#45;&gt;66 -->
<g id="edge4" class="edge">
<title>64&#45;&gt;66</title>
<path fill="none" stroke="grey" stroke-width="2" d="M458,-79.88C432.12,-70.14 399.53,-57.87 372.26,-47.61"/>
<polygon fill="grey" stroke="grey" stroke-width="2" points="373.44,-44.31 362.85,-44.07 370.98,-50.87 373.44,-44.31"/>
</g>
</g>
</svg>
