<?xml version="1.0" encoding="UTF-8" standalone="no"?>
<!DOCTYPE svg PUBLIC "-//W3C//DTD SVG 1.1//EN"
 "http://www.w3.org/Graphics/SVG/1.1/DTD/svg11.dtd">
<!-- Generated by graphviz version 2.43.0 (0)
 -->
<!-- Pages: 1 -->
<svg width="713pt" height="124pt"
 viewBox="0.00 0.00 713.00 124.00" xmlns="http://www.w3.org/2000/svg" xmlns:xlink="http://www.w3.org/1999/xlink">
<g id="graph0" class="graph" transform="scale(1 1) rotate(0) translate(4 120)">
<polygon fill="white" stroke="transparent" points="-4,4 -4,-120 709,-120 709,4 -4,4"/>
<g id="clust1" class="cluster">
<title>cluster_0</title>
<polygon fill="white" stroke="blue" points="8,-8 8,-67 468,-67 468,-8 8,-8"/>
<text text-anchor="middle" x="238" y="-51.8" font-family="Times,serif" font-size="14.00">qc</text>
</g>
<!-- 92 -->
<g id="node1" class="node">
<title>92</title>
<path fill="none" stroke="#56d8b9" stroke-width="2" d="M232,-44C232,-44 134,-44 134,-44 128,-44 122,-38 122,-32 122,-32 122,-20 122,-20 122,-14 128,-8 134,-8 134,-8 232,-8 232,-8 238,-8 244,-14 244,-20 244,-20 244,-32 244,-32 244,-38 238,-44 232,-44"/>
<text text-anchor="middle" x="183" y="-29" font-family="sans" font-size="10.00">qc_reg_to_template</text>
<text text-anchor="middle" x="183" y="-18" font-family="sans" font-size="10.00">native_modality: T1w</text>
</g>
<!-- 93 -->
<g id="node2" class="node">
<title>93</title>
<path fill="none" stroke="#d8b456" stroke-width="2" d="M456,-44C456,-44 388,-44 388,-44 382,-44 376,-38 376,-32 376,-32 376,-20 376,-20 376,-14 382,-8 388,-8 388,-8 456,-8 456,-8 462,-8 468,-14 468,-20 468,-20 468,-32 468,-32 468,-38 462,-44 456,-44"/>
<text text-anchor="middle" x="422" y="-29" font-family="sans" font-size="10.00">qc_subfield</text>
<text text-anchor="middle" x="422" y="-18" font-family="sans" font-size="10.00">space: cropT1w</text>
</g>
<!-- 94 -->
<g id="node3" class="node">
<title>94</title>
<path fill="none" stroke="#56d87b" stroke-width="2" d="M91.5,-44C91.5,-44 20.5,-44 20.5,-44 14.5,-44 8.5,-38 8.5,-32 8.5,-32 8.5,-20 8.5,-20 8.5,-14 14.5,-8 20.5,-8 20.5,-8 91.5,-8 91.5,-8 97.5,-8 103.5,-14 103.5,-20 103.5,-20 103.5,-32 103.5,-32 103.5,-38 97.5,-44 91.5,-44"/>
<text text-anchor="middle" x="56" y="-29" font-family="sans" font-size="10.00">qc_subfield_surf</text>
<text text-anchor="middle" x="56" y="-18" font-family="sans" font-size="10.00">ref_spaces: T1w</text>
</g>
<!-- 95 -->
<g id="node4" class="node">
<title>95</title>
<path fill="none" stroke="#56d87b" stroke-width="2" d="M345.5,-44C345.5,-44 274.5,-44 274.5,-44 268.5,-44 262.5,-38 262.5,-32 262.5,-32 262.5,-20 262.5,-20 262.5,-14 268.5,-8 274.5,-8 274.5,-8 345.5,-8 345.5,-8 351.5,-8 357.5,-14 357.5,-20 357.5,-20 357.5,-32 357.5,-32 357.5,-38 351.5,-44 345.5,-44"/>
<text text-anchor="middle" x="310" y="-29" font-family="sans" font-size="10.00">qc_subfield_surf</text>
<text text-anchor="middle" x="310" y="-18" font-family="sans" font-size="10.00">ref_spaces: T1w</text>
</g>
<!-- 4 -->
<g id="node5" class="node">
<title>4</title>
<path fill="none" stroke="#59d856" stroke-width="2" d="M98.5,-116C98.5,-116 13.5,-116 13.5,-116 7.5,-116 1.5,-110 1.5,-104 1.5,-104 1.5,-92 1.5,-92 1.5,-86 7.5,-80 13.5,-80 13.5,-80 98.5,-80 98.5,-80 104.5,-80 110.5,-86 110.5,-92 110.5,-92 110.5,-104 110.5,-104 110.5,-110 104.5,-116 98.5,-116"/>
<text text-anchor="middle" x="56" y="-95.5" font-family="sans" font-size="10.00">warp_gii_to_native</text>
</g>
<!-- 4&#45;&gt;94 -->
<g id="edge1" class="edge">
<title>4&#45;&gt;94</title>
<path fill="none" stroke="grey" stroke-width="2" d="M56,-79.7C56,-71.98 56,-62.71 56,-54.11"/>
<polygon fill="grey" stroke="grey" stroke-width="2" points="59.5,-54.1 56,-44.1 52.5,-54.1 59.5,-54.1"/>
</g>
<!-- 20 -->
<g id="node6" class="node">
<title>20</title>
<path fill="none" stroke="#56d8b1" stroke-width="2" d="M216.5,-116C216.5,-116 143.5,-116 143.5,-116 137.5,-116 131.5,-110 131.5,-104 131.5,-104 131.5,-92 131.5,-92 131.5,-86 137.5,-80 143.5,-80 143.5,-80 216.5,-80 216.5,-80 222.5,-80 228.5,-86 228.5,-92 228.5,-92 228.5,-104 228.5,-104 228.5,-110 222.5,-116 216.5,-116"/>
<text text-anchor="middle" x="180" y="-95.5" font-family="sans" font-size="10.00">reg_to_template</text>
</g>
<!-- 20&#45;&gt;92 -->
<g id="edge2" class="edge">
<title>20&#45;&gt;92</title>
<path fill="none" stroke="grey" stroke-width="2" d="M180.74,-79.7C181.07,-71.98 181.47,-62.71 181.84,-54.11"/>
<polygon fill="grey" stroke="grey" stroke-width="2" points="185.34,-54.25 182.27,-44.1 178.34,-53.95 185.34,-54.25"/>
</g>
<!-- 54 -->
<g id="node7" class="node">
<title>54</title>
<path fill="none" stroke="#59d856" stroke-width="2" d="M343.5,-116C343.5,-116 258.5,-116 258.5,-116 252.5,-116 246.5,-110 246.5,-104 246.5,-104 246.5,-92 246.5,-92 246.5,-86 252.5,-80 258.5,-80 258.5,-80 343.5,-80 343.5,-80 349.5,-80 355.5,-86 355.5,-92 355.5,-92 355.5,-104 355.5,-104 355.5,-110 349.5,-116 343.5,-116"/>
<text text-anchor="middle" x="301" y="-95.5" font-family="sans" font-size="10.00">warp_gii_to_native</text>
</g>
<!-- 54&#45;&gt;95 -->
<g id="edge3" class="edge">
<title>54&#45;&gt;95</title>
<path fill="none" stroke="grey" stroke-width="2" d="M303.22,-79.7C304.22,-71.98 305.41,-62.71 306.51,-54.11"/>
<polygon fill="grey" stroke="grey" stroke-width="2" points="310,-54.47 307.8,-44.1 303.05,-53.58 310,-54.47"/>
</g>
<!-- 73 -->
<g id="node8" class="node">
<title>73</title>
<path fill="none" stroke="#56a9d8" stroke-width="2" d="M534.5,-116C534.5,-116 385.5,-116 385.5,-116 379.5,-116 373.5,-110 373.5,-104 373.5,-104 373.5,-92 373.5,-92 373.5,-86 379.5,-80 385.5,-80 385.5,-80 534.5,-80 534.5,-80 540.5,-80 546.5,-86 546.5,-92 546.5,-92 546.5,-104 546.5,-104 546.5,-110 540.5,-116 534.5,-116"/>
<text text-anchor="middle" x="460" y="-95.5" font-family="sans" font-size="10.00">resample_subfields_native_crop</text>
</g>
<!-- 73&#45;&gt;93 -->
<g id="edge4" class="edge">
<title>73&#45;&gt;93</title>
<path fill="none" stroke="grey" stroke-width="2" d="M450.61,-79.7C446.24,-71.64 440.94,-61.89 436.1,-52.98"/>
<polygon fill="grey" stroke="grey" stroke-width="2" points="439.13,-51.22 431.29,-44.1 432.98,-54.56 439.13,-51.22"/>
</g>
<!-- 91 -->
<g id="node9" class="node">
<title>91</title>
<path fill="none" stroke="#d87556" stroke-width="2" d="M693,-116C693,-116 577,-116 577,-116 571,-116 565,-110 565,-104 565,-104 565,-92 565,-92 565,-86 571,-80 577,-80 577,-80 693,-80 693,-80 699,-80 705,-86 705,-92 705,-92 705,-104 705,-104 705,-110 699,-116 693,-116"/>
<text text-anchor="middle" x="635" y="-95.5" font-family="sans" font-size="10.00">resample_native_to_crop</text>
</g>
<!-- 91&#45;&gt;93 -->
<g id="edge5" class="edge">
<title>91&#45;&gt;93</title>
<path fill="none" stroke="grey" stroke-width="2" d="M583.17,-79.97C551.36,-69.51 510.63,-56.13 478.08,-45.43"/>
<polygon fill="grey" stroke="grey" stroke-width="2" points="478.85,-42 468.25,-42.2 476.66,-48.65 478.85,-42"/>
</g>
</g>
</svg>
