<?xml version="1.0" encoding="UTF-8" standalone="no"?>
<!DOCTYPE svg PUBLIC "-//W3C//DTD SVG 1.1//EN"
 "http://www.w3.org/Graphics/SVG/1.1/DTD/svg11.dtd">
<!-- Generated by graphviz version 2.43.0 (0)
 -->
<!-- Pages: 1 -->
<svg width="859pt" height="304pt"
 viewBox="0.00 0.00 859.04 304.00" xmlns="http://www.w3.org/2000/svg" xmlns:xlink="http://www.w3.org/1999/xlink">
<g id="graph0" class="graph" transform="scale(1 1) rotate(0) translate(4 300)">
<polygon fill="white" stroke="transparent" points="-4,4 -4,-300 855.04,-300 855.04,4 -4,4"/>
<g id="clust1" class="cluster">
<title>cluster_0</title>
<polygon fill="white" stroke="blue" points="170,-8 170,-288 580,-288 580,-8 170,-8"/>
<text text-anchor="middle" x="375" y="-272.8" font-family="Times,serif" font-size="14.00">warps</text>
</g>
<!-- 7 -->
<g id="node1" class="node">
<title>7</title>
<path fill="none" stroke="#afd856" stroke-width="2" d="M531,-116C531,-116 447,-116 447,-116 441,-116 435,-110 435,-104 435,-104 435,-92 435,-92 435,-86 441,-80 447,-80 447,-80 531,-80 531,-80 537,-80 543,-86 543,-92 543,-92 543,-104 543,-104 543,-110 537,-116 531,-116"/>
<text text-anchor="middle" x="489" y="-95.5" font-family="sans" font-size="10.00">create_warps_hipp</text>
</g>
<!-- 62 -->
<g id="node2" class="node">
<title>62</title>
<path fill="none" stroke="#d8a456" stroke-width="2" d="M340,-44C340,-44 182,-44 182,-44 176,-44 170,-38 170,-32 170,-32 170,-20 170,-20 170,-14 176,-8 182,-8 182,-8 340,-8 340,-8 346,-8 352,-14 352,-20 352,-20 352,-32 352,-32 352,-38 346,-44 340,-44"/>
<text text-anchor="middle" x="261" y="-29" font-family="sans" font-size="10.00">compose_warps_native_to_unfold</text>
<text text-anchor="middle" x="261" y="-18" font-family="sans" font-size="10.00">native_modality: T1w</text>
</g>
<!-- 7&#45;&gt;62 -->
<g id="edge1" class="edge">
<title>7&#45;&gt;62</title>
<path fill="none" stroke="grey" stroke-width="2" d="M434.97,-80.41C402.49,-70.44 360.93,-57.68 326.57,-47.13"/>
<polygon fill="grey" stroke="grey" stroke-width="2" points="327.21,-43.67 316.63,-44.08 325.16,-50.36 327.21,-43.67"/>
</g>
<!-- 63 -->
<g id="node3" class="node">
<title>63</title>
<path fill="none" stroke="#56d8c1" stroke-width="2" d="M567.5,-44C567.5,-44 382.5,-44 382.5,-44 376.5,-44 370.5,-38 370.5,-32 370.5,-32 370.5,-20 370.5,-20 370.5,-14 376.5,-8 382.5,-8 382.5,-8 567.5,-8 567.5,-8 573.5,-8 579.5,-14 579.5,-20 579.5,-20 579.5,-32 579.5,-32 579.5,-38 573.5,-44 567.5,-44"/>
<text text-anchor="middle" x="475" y="-23.5" font-family="sans" font-size="10.00">compose_warps_unfold_to_crop_native</text>
</g>
<!-- 7&#45;&gt;63 -->
<g id="edge2" class="edge">
<title>7&#45;&gt;63</title>
<path fill="none" stroke="grey" stroke-width="2" d="M485.54,-79.7C484,-71.98 482.14,-62.71 480.42,-54.11"/>
<polygon fill="grey" stroke="grey" stroke-width="2" points="483.81,-53.22 478.42,-44.1 476.95,-54.6 483.81,-53.22"/>
</g>
<!-- 8 -->
<g id="node4" class="node">
<title>8</title>
<path fill="none" stroke="#d89c56" stroke-width="2" d="M285,-265C285,-265 207,-265 207,-265 201,-265 195,-259 195,-253 195,-253 195,-236 195,-236 195,-230 201,-224 207,-224 207,-224 285,-224 285,-224 291,-224 297,-230 297,-236 297,-236 297,-253 297,-253 297,-259 291,-265 285,-265"/>
<text text-anchor="middle" x="246" y="-253" font-family="sans" font-size="10.00">create_unfold_ref</text>
<text text-anchor="middle" x="246" y="-242" font-family="sans" font-size="10.00">autotop: hipp</text>
<text text-anchor="middle" x="246" y="-231" font-family="sans" font-size="10.00">subject: 001</text>
</g>
<!-- 8&#45;&gt;7 -->
<g id="edge3" class="edge">
<title>8&#45;&gt;7</title>
<path fill="none" stroke="grey" stroke-width="2" d="M244.9,-223.9C244.86,-203.2 248.18,-170.98 267,-152 288.88,-129.93 367.27,-115.01 424.72,-106.76"/>
<polygon fill="grey" stroke="grey" stroke-width="2" points="425.41,-110.2 434.82,-105.35 424.44,-103.27 425.41,-110.2"/>
</g>
<!-- 8&#45;&gt;62 -->
<g id="edge5" class="edge">
<title>8&#45;&gt;62</title>
<path fill="none" stroke="grey" stroke-width="2" d="M239.37,-223.98C236.14,-213.46 232.62,-200.17 231,-188 224.68,-140.42 218.77,-126.42 231,-80 233.49,-70.54 238.1,-60.99 242.97,-52.66"/>
<polygon fill="grey" stroke="grey" stroke-width="2" points="245.95,-54.49 248.27,-44.15 240.01,-50.79 245.95,-54.49"/>
</g>
<!-- 8&#45;&gt;63 -->
<g id="edge6" class="edge">
<title>8&#45;&gt;63</title>
<path fill="none" stroke="grey" stroke-width="2" d="M239.88,-223.76C235.02,-204.12 230.99,-173.84 244,-152 276.52,-97.42 342.07,-65.23 395.06,-47.22"/>
<polygon fill="grey" stroke="grey" stroke-width="2" points="396.39,-50.46 404.8,-44.02 394.2,-43.81 396.39,-50.46"/>
</g>
<!-- 9 -->
<g id="node5" class="node">
<title>9</title>
<path fill="none" stroke="#61d856" stroke-width="2" d="M406.5,-188C406.5,-188 287.5,-188 287.5,-188 281.5,-188 275.5,-182 275.5,-176 275.5,-176 275.5,-164 275.5,-164 275.5,-158 281.5,-152 287.5,-152 287.5,-152 406.5,-152 406.5,-152 412.5,-152 418.5,-158 418.5,-164 418.5,-164 418.5,-176 418.5,-176 418.5,-182 412.5,-188 406.5,-188"/>
<text text-anchor="middle" x="347" y="-167.5" font-family="sans" font-size="10.00">create_unfold_coord_map</text>
</g>
<!-- 8&#45;&gt;9 -->
<g id="edge4" class="edge">
<title>8&#45;&gt;9</title>
<path fill="none" stroke="grey" stroke-width="2" d="M273.33,-223.88C286.08,-214.73 301.34,-203.77 314.66,-194.21"/>
<polygon fill="grey" stroke="grey" stroke-width="2" points="317,-196.84 323.09,-188.17 312.92,-191.15 317,-196.84"/>
</g>
<!-- 9&#45;&gt;7 -->
<g id="edge7" class="edge">
<title>9&#45;&gt;7</title>
<path fill="none" stroke="grey" stroke-width="2" d="M381.74,-151.88C400.82,-142.47 424.68,-130.71 445.05,-120.67"/>
<polygon fill="grey" stroke="grey" stroke-width="2" points="446.71,-123.75 454.13,-116.19 443.61,-117.47 446.71,-123.75"/>
</g>
<!-- 29 -->
<g id="node6" class="node">
<title>29</title>
<path fill="none" stroke="#c6d856" stroke-width="2" d="M559,-188C559,-188 449,-188 449,-188 443,-188 437,-182 437,-176 437,-176 437,-164 437,-164 437,-158 443,-152 449,-152 449,-152 559,-152 559,-152 565,-152 571,-158 571,-164 571,-164 571,-176 571,-176 571,-182 565,-188 559,-188"/>
<text text-anchor="middle" x="504" y="-173" font-family="sans" font-size="10.00">create_native_coord_ref</text>
<text text-anchor="middle" x="504" y="-162" font-family="sans" font-size="10.00">autotop: hipp</text>
</g>
<!-- 29&#45;&gt;7 -->
<g id="edge8" class="edge">
<title>29&#45;&gt;7</title>
<path fill="none" stroke="grey" stroke-width="2" d="M500.29,-151.7C498.64,-143.98 496.65,-134.71 494.81,-126.11"/>
<polygon fill="grey" stroke="grey" stroke-width="2" points="498.18,-125.15 492.67,-116.1 491.34,-126.62 498.18,-125.15"/>
</g>
<!-- 10 -->
<g id="node7" class="node">
<title>10</title>
<path fill="none" stroke="#d8bc56" stroke-width="2" d="M801,-262.5C801,-262.5 709,-262.5 709,-262.5 703,-262.5 697,-256.5 697,-250.5 697,-250.5 697,-238.5 697,-238.5 697,-232.5 703,-226.5 709,-226.5 709,-226.5 801,-226.5 801,-226.5 807,-226.5 813,-232.5 813,-238.5 813,-238.5 813,-250.5 813,-250.5 813,-256.5 807,-262.5 801,-262.5"/>
<text text-anchor="middle" x="755" y="-242" font-family="sans" font-size="10.00">laplace_coords_hipp</text>
</g>
<!-- 10&#45;&gt;7 -->
<g id="edge9" class="edge">
<title>10&#45;&gt;7</title>
<path fill="none" stroke="grey" stroke-width="2" d="M800.75,-226.3C817.45,-217.53 834.55,-205.04 844,-188 851.76,-174.01 854.55,-164.03 844,-152 803.66,-105.99 631.33,-126.22 571,-116 565.21,-115.02 559.22,-113.93 553.21,-112.78"/>
<polygon fill="grey" stroke="grey" stroke-width="2" points="553.63,-109.3 543.15,-110.81 552.29,-116.17 553.63,-109.3"/>
</g>
<!-- 10&#45;&gt;29 -->
<g id="edge10" class="edge">
<title>10&#45;&gt;29</title>
<path fill="none" stroke="grey" stroke-width="2" d="M696.78,-226.68C659.8,-216 611.76,-202.12 572.88,-190.9"/>
<polygon fill="grey" stroke="grey" stroke-width="2" points="573.78,-187.51 563.21,-188.1 571.84,-194.24 573.78,-187.51"/>
</g>
<!-- 18 -->
<g id="node8" class="node">
<title>18</title>
<path fill="none" stroke="#d8c356" stroke-width="2" d="M158,-116C158,-116 12,-116 12,-116 6,-116 0,-110 0,-104 0,-104 0,-92 0,-92 0,-86 6,-80 12,-80 12,-80 158,-80 158,-80 164,-80 170,-86 170,-92 170,-92 170,-104 170,-104 170,-110 164,-116 158,-116"/>
<text text-anchor="middle" x="85" y="-95.5" font-family="sans" font-size="10.00">compose_template_xfm_corobl</text>
</g>
<!-- 18&#45;&gt;62 -->
<g id="edge11" class="edge">
<title>18&#45;&gt;62</title>
<path fill="none" stroke="grey" stroke-width="2" d="M128.05,-79.88C152.33,-70.22 182.84,-58.09 208.51,-47.88"/>
<polygon fill="grey" stroke="grey" stroke-width="2" points="210.09,-51.02 218.09,-44.07 207.5,-44.51 210.09,-51.02"/>
</g>
<!-- 18&#45;&gt;63 -->
<g id="edge12" class="edge">
<title>18&#45;&gt;63</title>
<path fill="none" stroke="grey" stroke-width="2" d="M170.26,-80.69C171.51,-80.46 172.76,-80.23 174,-80 237.63,-68.32 308.93,-55.74 366.16,-45.77"/>
<polygon fill="grey" stroke="grey" stroke-width="2" points="367.06,-49.17 376.31,-44.01 365.86,-42.27 367.06,-49.17"/>
</g>
<!-- 25 -->
<g id="node9" class="node">
<title>25</title>
<path fill="none" stroke="#d8bc56" stroke-width="2" d="M693,-188C693,-188 601,-188 601,-188 595,-188 589,-182 589,-176 589,-176 589,-164 589,-164 589,-158 595,-152 601,-152 601,-152 693,-152 693,-152 699,-152 705,-158 705,-164 705,-164 705,-176 705,-176 705,-182 699,-188 693,-188"/>
<text text-anchor="middle" x="647" y="-167.5" font-family="sans" font-size="10.00">laplace_coords_hipp</text>
</g>
<!-- 25&#45;&gt;7 -->
<g id="edge13" class="edge">
<title>25&#45;&gt;7</title>
<path fill="none" stroke="grey" stroke-width="2" d="M608.35,-151.88C586.75,-142.31 559.65,-130.3 536.73,-120.15"/>
<polygon fill="grey" stroke="grey" stroke-width="2" points="538.09,-116.92 527.53,-116.07 535.25,-123.32 538.09,-116.92"/>
</g>
<!-- 27 -->
<g id="node10" class="node">
<title>27</title>
<path fill="none" stroke="#56d85b" stroke-width="2" d="M823,-188C823,-188 735,-188 735,-188 729,-188 723,-182 723,-176 723,-176 723,-164 723,-164 723,-158 729,-152 735,-152 735,-152 823,-152 823,-152 829,-152 835,-158 835,-164 835,-164 835,-176 835,-176 835,-182 829,-188 823,-188"/>
<text text-anchor="middle" x="779" y="-167.5" font-family="sans" font-size="10.00">equivolume_coords</text>
</g>
<!-- 27&#45;&gt;7 -->
<g id="edge14" class="edge">
<title>27&#45;&gt;7</title>
<path fill="none" stroke="grey" stroke-width="2" d="M722.65,-154.17C719.73,-153.43 716.83,-152.7 714,-152 659.87,-138.55 598.19,-124.08 553.12,-113.66"/>
<polygon fill="grey" stroke="grey" stroke-width="2" points="553.72,-110.21 543.19,-111.37 552.15,-117.03 553.72,-110.21"/>
</g>
<!-- 54 -->
<g id="node11" class="node">
<title>54</title>
<path fill="none" stroke="#56d88a" stroke-width="2" d="M696,-116C696,-116 592,-116 592,-116 586,-116 580,-110 580,-104 580,-104 580,-92 580,-92 580,-86 586,-80 592,-80 592,-80 696,-80 696,-80 702,-80 708,-86 708,-92 708,-92 708,-104 708,-104 708,-110 702,-116 696,-116"/>
<text text-anchor="middle" x="644" y="-95.5" font-family="sans" font-size="10.00">create_native_crop_ref</text>
</g>
<!-- 54&#45;&gt;63 -->
<g id="edge15" class="edge">
<title>54&#45;&gt;63</title>
<path fill="none" stroke="grey" stroke-width="2" d="M602.66,-79.88C579.45,-70.26 550.31,-58.19 525.73,-48.01"/>
<polygon fill="grey" stroke="grey" stroke-width="2" points="526.79,-44.66 516.21,-44.07 524.11,-51.13 526.79,-44.66"/>
</g>
</g>
</svg>
