<?xml version="1.0" encoding="UTF-8" standalone="no"?>
<!DOCTYPE svg PUBLIC "-//W3C//DTD SVG 1.1//EN"
 "http://www.w3.org/Graphics/SVG/1.1/DTD/svg11.dtd">
<!-- Generated by graphviz version 2.43.0 (0)
 -->
<!-- Pages: 1 -->
<svg width="620pt" height="201pt"
 viewBox="0.00 0.00 620.00 201.00" xmlns="http://www.w3.org/2000/svg" xmlns:xlink="http://www.w3.org/1999/xlink">
<g id="graph0" class="graph" transform="scale(1 1) rotate(0) translate(4 197)">
<polygon fill="white" stroke="transparent" points="-4,4 -4,-197 616,-197 616,4 -4,4"/>
<g id="clust1" class="cluster">
<title>cluster_0</title>
<polygon fill="white" stroke="blue" points="21.5,-8 21.5,-139 563.5,-139 563.5,-8 21.5,-8"/>
<text text-anchor="middle" x="292.5" y="-123.8" font-family="Times,serif" font-size="14.00">autotop</text>
</g>
<!-- 10 -->
<g id="node1" class="node">
<title>10</title>
<path fill="none" stroke="#d8bc56" stroke-width="2" d="M125.5,-116C125.5,-116 33.5,-116 33.5,-116 27.5,-116 21.5,-110 21.5,-104 21.5,-104 21.5,-92 21.5,-92 21.5,-86 27.5,-80 33.5,-80 33.5,-80 125.5,-80 125.5,-80 131.5,-80 137.5,-86 137.5,-92 137.5,-92 137.5,-104 137.5,-104 137.5,-110 131.5,-116 125.5,-116"/>
<text text-anchor="middle" x="79.5" y="-95.5" font-family="sans" font-size="10.00">laplace_coords_hipp</text>
</g>
<!-- 25 -->
<g id="node2" class="node">
<title>25</title>
<path fill="none" stroke="#d8bc56" stroke-width="2" d="M417.5,-116C417.5,-116 325.5,-116 325.5,-116 319.5,-116 313.5,-110 313.5,-104 313.5,-104 313.5,-92 313.5,-92 313.5,-86 319.5,-80 325.5,-80 325.5,-80 417.5,-80 417.5,-80 423.5,-80 429.5,-86 429.5,-92 429.5,-92 429.5,-104 429.5,-104 429.5,-110 423.5,-116 417.5,-116"/>
<text text-anchor="middle" x="371.5" y="-95.5" font-family="sans" font-size="10.00">laplace_coords_hipp</text>
</g>
<!-- 27 -->
<g id="node3" class="node">
<title>27</title>
<path fill="none" stroke="#56d85b" stroke-width="2" d="M269.5,-44C269.5,-44 181.5,-44 181.5,-44 175.5,-44 169.5,-38 169.5,-32 169.5,-32 169.5,-20 169.5,-20 169.5,-14 175.5,-8 181.5,-8 181.5,-8 269.5,-8 269.5,-8 275.5,-8 281.5,-14 281.5,-20 281.5,-20 281.5,-32 281.5,-32 281.5,-38 275.5,-44 269.5,-44"/>
<text text-anchor="middle" x="225.5" y="-23.5" font-family="sans" font-size="10.00">equivolume_coords</text>
</g>
<!-- 28 -->
<g id="node4" class="node">
<title>28</title>
<path fill="none" stroke="#b6d856" stroke-width="2" d="M283,-116C283,-116 168,-116 168,-116 162,-116 156,-110 156,-104 156,-104 156,-92 156,-92 156,-86 162,-80 168,-80 168,-80 283,-80 283,-80 289,-80 295,-86 295,-92 295,-92 295,-104 295,-104 295,-110 289,-116 283,-116"/>
<text text-anchor="middle" x="225.5" y="-101" font-family="sans" font-size="10.00">prep_equivolume_coords</text>
<text text-anchor="middle" x="225.5" y="-90" font-family="sans" font-size="10.00">dir: IO</text>
</g>
<!-- 28&#45;&gt;27 -->
<g id="edge1" class="edge">
<title>28&#45;&gt;27</title>
<path fill="none" stroke="grey" stroke-width="2" d="M225.5,-79.7C225.5,-71.98 225.5,-62.71 225.5,-54.11"/>
<polygon fill="grey" stroke="grey" stroke-width="2" points="229,-54.1 225.5,-44.1 222,-54.1 229,-54.1"/>
</g>
<!-- 59 -->
<g id="node5" class="node">
<title>59</title>
<path fill="none" stroke="#d8bc56" stroke-width="2" d="M551.5,-116C551.5,-116 459.5,-116 459.5,-116 453.5,-116 447.5,-110 447.5,-104 447.5,-104 447.5,-92 447.5,-92 447.5,-86 453.5,-80 459.5,-80 459.5,-80 551.5,-80 551.5,-80 557.5,-80 563.5,-86 563.5,-92 563.5,-92 563.5,-104 563.5,-104 563.5,-110 557.5,-116 551.5,-116"/>
<text text-anchor="middle" x="505.5" y="-95.5" font-family="sans" font-size="10.00">laplace_coords_hipp</text>
</g>
<!-- 11 -->
<g id="node6" class="node">
<title>11</title>
<path fill="none" stroke="#5673d8" stroke-width="2" d="M278,-190.5C278,-190.5 173,-190.5 173,-190.5 167,-190.5 161,-184.5 161,-178.5 161,-178.5 161,-166.5 161,-166.5 161,-160.5 167,-154.5 173,-154.5 173,-154.5 278,-154.5 278,-154.5 284,-154.5 290,-160.5 290,-166.5 290,-166.5 290,-178.5 290,-178.5 290,-184.5 284,-190.5 278,-190.5"/>
<text text-anchor="middle" x="225.5" y="-170" font-family="sans" font-size="10.00">reinsert_subject_labels</text>
</g>
<!-- 11&#45;&gt;10 -->
<g id="edge2" class="edge">
<title>11&#45;&gt;10</title>
<path fill="none" stroke="grey" stroke-width="2" d="M180.69,-154.41C169.39,-149.74 157.37,-144.45 146.5,-139 135.91,-133.7 124.75,-127.35 114.63,-121.3"/>
<polygon fill="grey" stroke="grey" stroke-width="2" points="116.41,-118.29 106.05,-116.08 112.78,-124.27 116.41,-118.29"/>
</g>
<!-- 11&#45;&gt;25 -->
<g id="edge3" class="edge">
<title>11&#45;&gt;25</title>
<path fill="none" stroke="grey" stroke-width="2" d="M269.3,-154.49C280.58,-149.77 292.61,-144.44 303.5,-139 314.21,-133.65 325.53,-127.29 335.8,-121.24"/>
<polygon fill="grey" stroke="grey" stroke-width="2" points="337.73,-124.16 344.51,-116.03 334.13,-118.16 337.73,-124.16"/>
</g>
<!-- 11&#45;&gt;28 -->
<g id="edge4" class="edge">
<title>11&#45;&gt;28</title>
<path fill="none" stroke="grey" stroke-width="2" d="M225.5,-154.32C225.5,-145.92 225.5,-135.62 225.5,-126.19"/>
<polygon fill="grey" stroke="grey" stroke-width="2" points="229,-126.06 225.5,-116.06 222,-126.06 229,-126.06"/>
</g>
<!-- 11&#45;&gt;59 -->
<g id="edge5" class="edge">
<title>11&#45;&gt;59</title>
<path fill="none" stroke="grey" stroke-width="2" d="M286.27,-154.45C290.39,-153.54 294.5,-152.72 298.5,-152 360.02,-141.01 379.09,-158.38 438.5,-139 450.78,-134.99 463.2,-128.43 473.96,-121.76"/>
<polygon fill="grey" stroke="grey" stroke-width="2" points="476.07,-124.56 482.56,-116.19 472.26,-118.69 476.07,-124.56"/>
</g>
<!-- 24 -->
<g id="node7" class="node">
<title>24</title>
<path fill="none" stroke="#56d882" stroke-width="2" d="M131,-193C131,-193 12,-193 12,-193 6,-193 0,-187 0,-181 0,-181 0,-164 0,-164 0,-158 6,-152 12,-152 12,-152 131,-152 131,-152 137,-152 143,-158 143,-164 143,-164 143,-181 143,-181 143,-187 137,-193 131,-193"/>
<text text-anchor="middle" x="71.5" y="-181" font-family="sans" font-size="10.00">inject_init_laplace_coords</text>
<text text-anchor="middle" x="71.5" y="-170" font-family="sans" font-size="10.00">autotop: hipp</text>
<text text-anchor="middle" x="71.5" y="-159" font-family="sans" font-size="10.00">dir: AP</text>
</g>
<!-- 24&#45;&gt;10 -->
<g id="edge6" class="edge">
<title>24&#45;&gt;10</title>
<path fill="none" stroke="grey" stroke-width="2" d="M73.69,-151.69C74.54,-143.91 75.55,-134.84 76.47,-126.45"/>
<polygon fill="grey" stroke="grey" stroke-width="2" points="79.97,-126.64 77.59,-116.32 73.01,-125.88 79.97,-126.64"/>
</g>
<!-- 26 -->
<g id="node8" class="node">
<title>26</title>
<path fill="none" stroke="#56d882" stroke-width="2" d="M439,-193C439,-193 320,-193 320,-193 314,-193 308,-187 308,-181 308,-181 308,-164 308,-164 308,-158 314,-152 320,-152 320,-152 439,-152 439,-152 445,-152 451,-158 451,-164 451,-164 451,-181 451,-181 451,-187 445,-193 439,-193"/>
<text text-anchor="middle" x="379.5" y="-181" font-family="sans" font-size="10.00">inject_init_laplace_coords</text>
<text text-anchor="middle" x="379.5" y="-170" font-family="sans" font-size="10.00">autotop: hipp</text>
<text text-anchor="middle" x="379.5" y="-159" font-family="sans" font-size="10.00">dir: PD</text>
</g>
<!-- 26&#45;&gt;25 -->
<g id="edge7" class="edge">
<title>26&#45;&gt;25</title>
<path fill="none" stroke="grey" stroke-width="2" d="M377.31,-151.69C376.46,-143.91 375.45,-134.84 374.53,-126.45"/>
<polygon fill="grey" stroke="grey" stroke-width="2" points="377.99,-125.88 373.41,-116.32 371.03,-126.64 377.99,-125.88"/>
</g>
<!-- 60 -->
<g id="node9" class="node">
<title>60</title>
<path fill="none" stroke="#56d882" stroke-width="2" d="M600,-193C600,-193 481,-193 481,-193 475,-193 469,-187 469,-181 469,-181 469,-164 469,-164 469,-158 475,-152 481,-152 481,-152 600,-152 600,-152 606,-152 612,-158 612,-164 612,-164 612,-181 612,-181 612,-187 606,-193 600,-193"/>
<text text-anchor="middle" x="540.5" y="-181" font-family="sans" font-size="10.00">inject_init_laplace_coords</text>
<text text-anchor="middle" x="540.5" y="-170" font-family="sans" font-size="10.00">autotop: hipp</text>
<text text-anchor="middle" x="540.5" y="-159" font-family="sans" font-size="10.00">dir: IO</text>
</g>
<!-- 60&#45;&gt;59 -->
<g id="edge8" class="edge">
<title>60&#45;&gt;59</title>
<path fill="none" stroke="grey" stroke-width="2" d="M530.94,-151.69C527.01,-143.56 522.41,-134.03 518.21,-125.33"/>
<polygon fill="grey" stroke="grey" stroke-width="2" points="521.36,-123.8 513.86,-116.32 515.06,-126.85 521.36,-123.8"/>
</g>
</g>
</svg>
