<?xml version="1.0" encoding="UTF-8" standalone="no"?>
<!DOCTYPE svg PUBLIC "-//W3C//DTD SVG 1.1//EN"
 "http://www.w3.org/Graphics/SVG/1.1/DTD/svg11.dtd">
<!-- Generated by graphviz version 2.43.0 (0)
 -->
<!-- Pages: 1 -->
<svg width="889pt" height="745pt"
 viewBox="0.00 0.00 889.00 745.00" xmlns="http://www.w3.org/2000/svg" xmlns:xlink="http://www.w3.org/1999/xlink">
<g id="graph0" class="graph" transform="scale(1 1) rotate(0) translate(4 741)">
<polygon fill="white" stroke="transparent" points="-4,4 -4,-741 885,-741 885,4 -4,4"/>
<g id="clust1" class="cluster">
<title>cluster_0</title>
<polygon fill="white" stroke="blue" points="153,-8 153,-729 873,-729 873,-8 153,-8"/>
<text text-anchor="middle" x="513" y="-713.8" font-family="Times,serif" font-size="14.00">gifti</text>
</g>
<!-- 1 -->
<g id="node1" class="node">
<title>1</title>
<path fill="none" stroke="#9fd856" stroke-width="2" d="M695,-44C695,-44 597,-44 597,-44 591,-44 585,-38 585,-32 585,-32 585,-20 585,-20 585,-14 591,-8 597,-8 597,-8 695,-8 695,-8 701,-8 707,-14 707,-20 707,-20 707,-32 707,-32 707,-38 701,-44 695,-44"/>
<text text-anchor="middle" x="646" y="-29" font-family="sans" font-size="10.00">create_spec_file_hipp</text>
<text text-anchor="middle" x="646" y="-18" font-family="sans" font-size="10.00">label: hipp</text>
</g>
<!-- 2 -->
<g id="node2" class="node">
<title>2</title>
<path fill="none" stroke="#d89556" stroke-width="2" d="M620.5,-195.5C620.5,-195.5 523.5,-195.5 523.5,-195.5 517.5,-195.5 511.5,-189.5 511.5,-183.5 511.5,-183.5 511.5,-171.5 511.5,-171.5 511.5,-165.5 517.5,-159.5 523.5,-159.5 523.5,-159.5 620.5,-159.5 620.5,-159.5 626.5,-159.5 632.5,-165.5 632.5,-171.5 632.5,-171.5 632.5,-183.5 632.5,-183.5 632.5,-189.5 626.5,-195.5 620.5,-195.5"/>
<text text-anchor="middle" x="572" y="-175" font-family="sans" font-size="10.00">calculate_gyrification</text>
</g>
<!-- 2&#45;&gt;1 -->
<g id="edge1" class="edge">
<title>2&#45;&gt;1</title>
<path fill="none" stroke="grey" stroke-width="2" d="M600.08,-159.4C613.26,-149.82 627.83,-136.64 636,-121 646.77,-100.38 648.68,-73.77 648.24,-54.13"/>
<polygon fill="grey" stroke="grey" stroke-width="2" points="651.73,-53.86 647.79,-44.02 644.73,-54.17 651.73,-53.86"/>
</g>
<!-- 48 -->
<g id="node3" class="node">
<title>48</title>
<path fill="none" stroke="#d87d56" stroke-width="2" d="M615,-118.5C615,-118.5 491,-118.5 491,-118.5 485,-118.5 479,-112.5 479,-106.5 479,-106.5 479,-94.5 479,-94.5 479,-88.5 485,-82.5 491,-82.5 491,-82.5 615,-82.5 615,-82.5 621,-82.5 627,-88.5 627,-94.5 627,-94.5 627,-106.5 627,-106.5 627,-112.5 621,-118.5 615,-118.5"/>
<text text-anchor="middle" x="553" y="-103.5" font-family="sans" font-size="10.00">create_dscalar_metric_cifti</text>
<text text-anchor="middle" x="553" y="-92.5" font-family="sans" font-size="10.00">metric: gyrification</text>
</g>
<!-- 2&#45;&gt;48 -->
<g id="edge2" class="edge">
<title>2&#45;&gt;48</title>
<path fill="none" stroke="grey" stroke-width="2" d="M567.69,-159.48C565.37,-150.34 562.46,-138.86 559.85,-128.53"/>
<polygon fill="grey" stroke="grey" stroke-width="2" points="563.21,-127.55 557.36,-118.71 556.42,-129.26 563.21,-127.55"/>
</g>
<!-- 48&#45;&gt;1 -->
<g id="edge29" class="edge">
<title>48&#45;&gt;1</title>
<path fill="none" stroke="grey" stroke-width="2" d="M575.04,-82.32C587.32,-72.75 602.77,-60.7 616.12,-50.29"/>
<polygon fill="grey" stroke="grey" stroke-width="2" points="618.38,-52.97 624.12,-44.06 614.08,-47.45 618.38,-52.97"/>
</g>
<!-- 3 -->
<g id="node4" class="node">
<title>3</title>
<path fill="none" stroke="#d85e56" stroke-width="2" d="M632.5,-270C632.5,-270 527.5,-270 527.5,-270 521.5,-270 515.5,-264 515.5,-258 515.5,-258 515.5,-246 515.5,-246 515.5,-240 521.5,-234 527.5,-234 527.5,-234 632.5,-234 632.5,-234 638.5,-234 644.5,-240 644.5,-246 644.5,-246 644.5,-258 644.5,-258 644.5,-264 638.5,-270 632.5,-270"/>
<text text-anchor="middle" x="580" y="-255" font-family="sans" font-size="10.00">calculate_surface_area</text>
<text text-anchor="middle" x="580" y="-244" font-family="sans" font-size="10.00">space: T1w</text>
</g>
<!-- 3&#45;&gt;2 -->
<g id="edge3" class="edge">
<title>3&#45;&gt;2</title>
<path fill="none" stroke="grey" stroke-width="2" d="M578.1,-233.82C577.18,-225.42 576.04,-215.12 575,-205.69"/>
<polygon fill="grey" stroke="grey" stroke-width="2" points="578.46,-205.11 573.88,-195.56 571.5,-205.88 578.46,-205.11"/>
</g>
<!-- 4 -->
<g id="node5" class="node">
<title>4</title>
<path fill="none" stroke="#88d856" stroke-width="2" d="M638.5,-342C638.5,-342 553.5,-342 553.5,-342 547.5,-342 541.5,-336 541.5,-330 541.5,-330 541.5,-318 541.5,-318 541.5,-312 547.5,-306 553.5,-306 553.5,-306 638.5,-306 638.5,-306 644.5,-306 650.5,-312 650.5,-318 650.5,-318 650.5,-330 650.5,-330 650.5,-336 644.5,-342 638.5,-342"/>
<text text-anchor="middle" x="596" y="-321.5" font-family="sans" font-size="10.00">warp_gii_to_native</text>
</g>
<!-- 4&#45;&gt;1 -->
<g id="edge4" class="edge">
<title>4&#45;&gt;1</title>
<path fill="none" stroke="grey" stroke-width="2" d="M650.66,-316.02C713.98,-304.43 813.31,-274.35 842,-198 860.45,-148.91 873.88,-121.64 842,-80 826.61,-59.9 766.81,-45.67 717.27,-37.06"/>
<polygon fill="grey" stroke="grey" stroke-width="2" points="717.64,-33.57 707.19,-35.35 716.47,-40.47 717.64,-33.57"/>
</g>
<!-- 4&#45;&gt;3 -->
<g id="edge5" class="edge">
<title>4&#45;&gt;3</title>
<path fill="none" stroke="grey" stroke-width="2" d="M592.04,-305.7C590.28,-297.98 588.16,-288.71 586.2,-280.11"/>
<polygon fill="grey" stroke="grey" stroke-width="2" points="589.55,-279.07 583.91,-270.1 582.73,-280.63 589.55,-279.07"/>
</g>
<!-- 34 -->
<g id="node6" class="node">
<title>34</title>
<path fill="none" stroke="#d88d56" stroke-width="2" d="M757.5,-270C757.5,-270 686.5,-270 686.5,-270 680.5,-270 674.5,-264 674.5,-258 674.5,-258 674.5,-246 674.5,-246 674.5,-240 680.5,-234 686.5,-234 686.5,-234 757.5,-234 757.5,-234 763.5,-234 769.5,-240 769.5,-246 769.5,-246 769.5,-258 769.5,-258 769.5,-264 763.5,-270 757.5,-270"/>
<text text-anchor="middle" x="722" y="-255" font-family="sans" font-size="10.00">smooth_surface</text>
<text text-anchor="middle" x="722" y="-244" font-family="sans" font-size="10.00">space: T1w</text>
</g>
<!-- 4&#45;&gt;34 -->
<g id="edge6" class="edge">
<title>4&#45;&gt;34</title>
<path fill="none" stroke="grey" stroke-width="2" d="M626.82,-305.88C643.45,-296.64 664.16,-285.13 682.02,-275.21"/>
<polygon fill="grey" stroke="grey" stroke-width="2" points="684.02,-278.11 691.06,-270.19 680.62,-271.99 684.02,-278.11"/>
</g>
<!-- 33 -->
<g id="node11" class="node">
<title>33</title>
<path fill="none" stroke="#d86656" stroke-width="2" d="M821,-195.5C821,-195.5 663,-195.5 663,-195.5 657,-195.5 651,-189.5 651,-183.5 651,-183.5 651,-171.5 651,-171.5 651,-165.5 657,-159.5 663,-159.5 663,-159.5 821,-159.5 821,-159.5 827,-159.5 833,-165.5 833,-171.5 833,-171.5 833,-183.5 833,-183.5 833,-189.5 827,-195.5 821,-195.5"/>
<text text-anchor="middle" x="742" y="-175" font-family="sans" font-size="10.00">calculate_curvature_from_surface</text>
</g>
<!-- 34&#45;&gt;33 -->
<g id="edge14" class="edge">
<title>34&#45;&gt;33</title>
<path fill="none" stroke="grey" stroke-width="2" d="M726.74,-233.82C729.08,-225.33 731.96,-214.89 734.58,-205.38"/>
<polygon fill="grey" stroke="grey" stroke-width="2" points="738.01,-206.13 737.29,-195.56 731.26,-204.27 738.01,-206.13"/>
</g>
<!-- 5 -->
<g id="node7" class="node">
<title>5</title>
<path fill="none" stroke="#56b1d8" stroke-width="2" d="M643,-414C643,-414 549,-414 549,-414 543,-414 537,-408 537,-402 537,-402 537,-390 537,-390 537,-384 543,-378 549,-378 549,-378 643,-378 643,-378 649,-378 655,-384 655,-390 655,-390 655,-402 655,-402 655,-408 649,-414 643,-414"/>
<text text-anchor="middle" x="596" y="-393.5" font-family="sans" font-size="10.00">correct_nan_vertices</text>
</g>
<!-- 5&#45;&gt;4 -->
<g id="edge7" class="edge">
<title>5&#45;&gt;4</title>
<path fill="none" stroke="grey" stroke-width="2" d="M596,-377.7C596,-369.98 596,-360.71 596,-352.11"/>
<polygon fill="grey" stroke="grey" stroke-width="2" points="599.5,-352.1 596,-342.1 592.5,-352.1 599.5,-352.1"/>
</g>
<!-- 6 -->
<g id="node8" class="node">
<title>6</title>
<path fill="none" stroke="#97d856" stroke-width="2" d="M649.5,-486C649.5,-486 542.5,-486 542.5,-486 536.5,-486 530.5,-480 530.5,-474 530.5,-474 530.5,-462 530.5,-462 530.5,-456 536.5,-450 542.5,-450 542.5,-450 649.5,-450 649.5,-450 655.5,-450 661.5,-456 661.5,-462 661.5,-462 661.5,-474 661.5,-474 661.5,-480 655.5,-486 649.5,-486"/>
<text text-anchor="middle" x="596" y="-465.5" font-family="sans" font-size="10.00">warp_gii_unfold2native</text>
</g>
<!-- 6&#45;&gt;5 -->
<g id="edge8" class="edge">
<title>6&#45;&gt;5</title>
<path fill="none" stroke="grey" stroke-width="2" d="M596,-449.7C596,-441.98 596,-432.71 596,-424.11"/>
<polygon fill="grey" stroke="grey" stroke-width="2" points="599.5,-424.1 596,-414.1 592.5,-424.1 599.5,-424.1"/>
</g>
<!-- 30 -->
<g id="node9" class="node">
<title>30</title>
<path fill="none" stroke="#d8ac56" stroke-width="2" d="M657,-577C657,-577 551,-577 551,-577 545,-577 539,-571 539,-565 539,-565 539,-553 539,-553 539,-547 545,-541 551,-541 551,-541 657,-541 657,-541 663,-541 669,-547 669,-553 669,-553 669,-565 669,-565 669,-571 663,-577 657,-577"/>
<text text-anchor="middle" x="604" y="-556.5" font-family="sans" font-size="10.00">constrain_surf_to_bbox</text>
</g>
<!-- 30&#45;&gt;6 -->
<g id="edge9" class="edge">
<title>30&#45;&gt;6</title>
<path fill="none" stroke="grey" stroke-width="2" d="M602.46,-540.84C601.32,-528.16 599.74,-510.64 598.43,-496.08"/>
<polygon fill="grey" stroke="grey" stroke-width="2" points="601.92,-495.75 597.54,-486.11 594.95,-496.38 601.92,-495.75"/>
</g>
<!-- 31 -->
<g id="node10" class="node">
<title>31</title>
<path fill="none" stroke="#56b9d8" stroke-width="2" d="M760,-706C760,-706 650,-706 650,-706 644,-706 638,-700 638,-694 638,-694 638,-644 638,-644 638,-638 644,-632 650,-632 650,-632 760,-632 760,-632 766,-632 772,-638 772,-644 772,-644 772,-694 772,-694 772,-700 766,-706 760,-706"/>
<text text-anchor="middle" x="705" y="-694" font-family="sans" font-size="10.00">cp_template_to_unfold</text>
<text text-anchor="middle" x="705" y="-683" font-family="sans" font-size="10.00">autotop: hipp</text>
<text text-anchor="middle" x="705" y="-672" font-family="sans" font-size="10.00">density: 0p5mm</text>
<text text-anchor="middle" x="705" y="-661" font-family="sans" font-size="10.00">hemi: R</text>
<text text-anchor="middle" x="705" y="-650" font-family="sans" font-size="10.00">subject: 001</text>
<text text-anchor="middle" x="705" y="-639" font-family="sans" font-size="10.00">surfname: midthickness</text>
</g>
<!-- 31&#45;&gt;1 -->
<g id="edge10" class="edge">
<title>31&#45;&gt;1</title>
<path fill="none" stroke="grey" stroke-width="2" d="M762.94,-631.82C811.17,-596.74 872,-538.68 872,-469 872,-469 872,-469 872,-176.5 872,-133.03 885.44,-111.99 856,-80 837.25,-59.63 770.59,-45.16 717.33,-36.54"/>
<polygon fill="grey" stroke="grey" stroke-width="2" points="717.64,-33.04 707.22,-34.94 716.55,-39.96 717.64,-33.04"/>
</g>
<!-- 31&#45;&gt;30 -->
<g id="edge11" class="edge">
<title>31&#45;&gt;30</title>
<path fill="none" stroke="grey" stroke-width="2" d="M671.09,-631.74C656.58,-616.23 640.02,-598.52 626.98,-584.58"/>
<polygon fill="grey" stroke="grey" stroke-width="2" points="629.52,-582.17 620.14,-577.26 624.41,-586.95 629.52,-582.17"/>
</g>
<!-- 33&#45;&gt;1 -->
<g id="edge12" class="edge">
<title>33&#45;&gt;1</title>
<path fill="none" stroke="grey" stroke-width="2" d="M715.04,-159.27C701.63,-149.49 686.17,-136.17 676,-121 662.42,-100.73 654.67,-73.93 650.46,-54.13"/>
<polygon fill="grey" stroke="grey" stroke-width="2" points="653.87,-53.35 648.52,-44.21 647,-54.7 653.87,-53.35"/>
</g>
<!-- 49 -->
<g id="node12" class="node">
<title>49</title>
<path fill="none" stroke="#d87d56" stroke-width="2" d="M821,-118.5C821,-118.5 697,-118.5 697,-118.5 691,-118.5 685,-112.5 685,-106.5 685,-106.5 685,-94.5 685,-94.5 685,-88.5 691,-82.5 697,-82.5 697,-82.5 821,-82.5 821,-82.5 827,-82.5 833,-88.5 833,-94.5 833,-94.5 833,-106.5 833,-106.5 833,-112.5 827,-118.5 821,-118.5"/>
<text text-anchor="middle" x="759" y="-103.5" font-family="sans" font-size="10.00">create_dscalar_metric_cifti</text>
<text text-anchor="middle" x="759" y="-92.5" font-family="sans" font-size="10.00">metric: curvature</text>
</g>
<!-- 33&#45;&gt;49 -->
<g id="edge13" class="edge">
<title>33&#45;&gt;49</title>
<path fill="none" stroke="grey" stroke-width="2" d="M745.86,-159.48C747.93,-150.34 750.53,-138.86 752.87,-128.53"/>
<polygon fill="grey" stroke="grey" stroke-width="2" points="756.3,-129.24 755.1,-118.71 749.47,-127.69 756.3,-129.24"/>
</g>
<!-- 49&#45;&gt;1 -->
<g id="edge30" class="edge">
<title>49&#45;&gt;1</title>
<path fill="none" stroke="grey" stroke-width="2" d="M732.22,-82.32C717.02,-72.57 697.81,-60.24 681.38,-49.7"/>
<polygon fill="grey" stroke="grey" stroke-width="2" points="682.89,-46.51 672.59,-44.06 679.11,-52.4 682.89,-46.51"/>
</g>
<!-- 35 -->
<g id="node13" class="node">
<title>35</title>
<path fill="none" stroke="#56d86b" stroke-width="2" d="M481,-195.5C481,-195.5 323,-195.5 323,-195.5 317,-195.5 311,-189.5 311,-183.5 311,-183.5 311,-171.5 311,-171.5 311,-165.5 317,-159.5 323,-159.5 323,-159.5 481,-159.5 481,-159.5 487,-159.5 493,-165.5 493,-171.5 493,-171.5 493,-183.5 493,-183.5 493,-189.5 487,-195.5 481,-195.5"/>
<text text-anchor="middle" x="402" y="-180.5" font-family="sans" font-size="10.00">calculate_thickness_from_surface</text>
<text text-anchor="middle" x="402" y="-169.5" font-family="sans" font-size="10.00">space: T1w</text>
</g>
<!-- 35&#45;&gt;1 -->
<g id="edge15" class="edge">
<title>35&#45;&gt;1</title>
<path fill="none" stroke="grey" stroke-width="2" d="M418.81,-159.44C428.64,-148.92 440.88,-134.82 450,-121 461.17,-104.08 454.55,-93.13 470,-80 499.21,-55.16 539.76,-41.97 574.58,-34.95"/>
<polygon fill="grey" stroke="grey" stroke-width="2" points="575.53,-38.34 584.71,-33.05 574.24,-31.46 575.53,-38.34"/>
</g>
<!-- 50 -->
<g id="node14" class="node">
<title>50</title>
<path fill="none" stroke="#d87d56" stroke-width="2" d="M429,-118.5C429,-118.5 305,-118.5 305,-118.5 299,-118.5 293,-112.5 293,-106.5 293,-106.5 293,-94.5 293,-94.5 293,-88.5 299,-82.5 305,-82.5 305,-82.5 429,-82.5 429,-82.5 435,-82.5 441,-88.5 441,-94.5 441,-94.5 441,-106.5 441,-106.5 441,-112.5 435,-118.5 429,-118.5"/>
<text text-anchor="middle" x="367" y="-103.5" font-family="sans" font-size="10.00">create_dscalar_metric_cifti</text>
<text text-anchor="middle" x="367" y="-92.5" font-family="sans" font-size="10.00">metric: thickness</text>
</g>
<!-- 35&#45;&gt;50 -->
<g id="edge16" class="edge">
<title>35&#45;&gt;50</title>
<path fill="none" stroke="grey" stroke-width="2" d="M394.06,-159.48C389.7,-150.15 384.21,-138.38 379.31,-127.88"/>
<polygon fill="grey" stroke="grey" stroke-width="2" points="382.43,-126.29 375.03,-118.71 376.09,-129.25 382.43,-126.29"/>
</g>
<!-- 50&#45;&gt;1 -->
<g id="edge31" class="edge">
<title>50&#45;&gt;1</title>
<path fill="none" stroke="grey" stroke-width="2" d="M432.77,-82.41C475.6,-71.28 531.45,-56.77 575.25,-45.38"/>
<polygon fill="grey" stroke="grey" stroke-width="2" points="576.17,-48.76 584.97,-42.86 574.41,-41.99 576.17,-48.76"/>
</g>
<!-- 36 -->
<g id="node15" class="node">
<title>36</title>
<path fill="none" stroke="#88d856" stroke-width="2" d="M279.5,-270C279.5,-270 194.5,-270 194.5,-270 188.5,-270 182.5,-264 182.5,-258 182.5,-258 182.5,-246 182.5,-246 182.5,-240 188.5,-234 194.5,-234 194.5,-234 279.5,-234 279.5,-234 285.5,-234 291.5,-240 291.5,-246 291.5,-246 291.5,-258 291.5,-258 291.5,-264 285.5,-270 279.5,-270"/>
<text text-anchor="middle" x="237" y="-249.5" font-family="sans" font-size="10.00">warp_gii_to_native</text>
</g>
<!-- 36&#45;&gt;35 -->
<g id="edge17" class="edge">
<title>36&#45;&gt;35</title>
<path fill="none" stroke="grey" stroke-width="2" d="M276.1,-233.82C299.43,-223.57 329.22,-210.48 353.96,-199.61"/>
<polygon fill="grey" stroke="grey" stroke-width="2" points="355.43,-202.79 363.18,-195.56 352.61,-196.38 355.43,-202.79"/>
</g>
<!-- 37 -->
<g id="node16" class="node">
<title>37</title>
<path fill="none" stroke="#56b1d8" stroke-width="2" d="M284,-342C284,-342 190,-342 190,-342 184,-342 178,-336 178,-330 178,-330 178,-318 178,-318 178,-312 184,-306 190,-306 190,-306 284,-306 284,-306 290,-306 296,-312 296,-318 296,-318 296,-330 296,-330 296,-336 290,-342 284,-342"/>
<text text-anchor="middle" x="237" y="-321.5" font-family="sans" font-size="10.00">correct_nan_vertices</text>
</g>
<!-- 37&#45;&gt;36 -->
<g id="edge18" class="edge">
<title>37&#45;&gt;36</title>
<path fill="none" stroke="grey" stroke-width="2" d="M237,-305.7C237,-297.98 237,-288.71 237,-280.11"/>
<polygon fill="grey" stroke="grey" stroke-width="2" points="240.5,-280.1 237,-270.1 233.5,-280.1 240.5,-280.1"/>
</g>
<!-- 38 -->
<g id="node17" class="node">
<title>38</title>
<path fill="none" stroke="#97d856" stroke-width="2" d="M290.5,-414C290.5,-414 183.5,-414 183.5,-414 177.5,-414 171.5,-408 171.5,-402 171.5,-402 171.5,-390 171.5,-390 171.5,-384 177.5,-378 183.5,-378 183.5,-378 290.5,-378 290.5,-378 296.5,-378 302.5,-384 302.5,-390 302.5,-390 302.5,-402 302.5,-402 302.5,-408 296.5,-414 290.5,-414"/>
<text text-anchor="middle" x="237" y="-393.5" font-family="sans" font-size="10.00">warp_gii_unfold2native</text>
</g>
<!-- 38&#45;&gt;37 -->
<g id="edge19" class="edge">
<title>38&#45;&gt;37</title>
<path fill="none" stroke="grey" stroke-width="2" d="M237,-377.7C237,-369.98 237,-360.71 237,-352.11"/>
<polygon fill="grey" stroke="grey" stroke-width="2" points="240.5,-352.1 237,-342.1 233.5,-352.1 240.5,-352.1"/>
</g>
<!-- 39 -->
<g id="node18" class="node">
<title>39</title>
<path fill="none" stroke="#d8ac56" stroke-width="2" d="M290,-486C290,-486 184,-486 184,-486 178,-486 172,-480 172,-474 172,-474 172,-462 172,-462 172,-456 178,-450 184,-450 184,-450 290,-450 290,-450 296,-450 302,-456 302,-462 302,-462 302,-474 302,-474 302,-480 296,-486 290,-486"/>
<text text-anchor="middle" x="237" y="-465.5" font-family="sans" font-size="10.00">constrain_surf_to_bbox</text>
</g>
<!-- 39&#45;&gt;38 -->
<g id="edge20" class="edge">
<title>39&#45;&gt;38</title>
<path fill="none" stroke="grey" stroke-width="2" d="M237,-449.7C237,-441.98 237,-432.71 237,-424.11"/>
<polygon fill="grey" stroke="grey" stroke-width="2" points="240.5,-424.1 237,-414.1 233.5,-424.1 240.5,-424.1"/>
</g>
<!-- 40 -->
<g id="node19" class="node">
<title>40</title>
<path fill="none" stroke="#56b9d8" stroke-width="2" d="M363,-596C363,-596 259,-596 259,-596 253,-596 247,-590 247,-584 247,-584 247,-534 247,-534 247,-528 253,-522 259,-522 259,-522 363,-522 363,-522 369,-522 375,-528 375,-534 375,-534 375,-584 375,-584 375,-590 369,-596 363,-596"/>
<text text-anchor="middle" x="311" y="-584" font-family="sans" font-size="10.00">cp_template_to_unfold</text>
<text text-anchor="middle" x="311" y="-573" font-family="sans" font-size="10.00">autotop: hipp</text>
<text text-anchor="middle" x="311" y="-562" font-family="sans" font-size="10.00">density: 0p5mm</text>
<text text-anchor="middle" x="311" y="-551" font-family="sans" font-size="10.00">hemi: R</text>
<text text-anchor="middle" x="311" y="-540" font-family="sans" font-size="10.00">subject: 001</text>
<text text-anchor="middle" x="311" y="-529" font-family="sans" font-size="10.00">surfname: inner</text>
</g>
<!-- 40&#45;&gt;39 -->
<g id="edge21" class="edge">
<title>40&#45;&gt;39</title>
<path fill="none" stroke="grey" stroke-width="2" d="M280.9,-521.8C273.14,-512.46 264.96,-502.62 257.79,-494"/>
<polygon fill="grey" stroke="grey" stroke-width="2" points="260.35,-491.61 251.27,-486.16 254.97,-496.09 260.35,-491.61"/>
</g>
<!-- 41 -->
<g id="node20" class="node">
<title>41</title>
<path fill="none" stroke="#88d856" stroke-width="2" d="M428.5,-270C428.5,-270 343.5,-270 343.5,-270 337.5,-270 331.5,-264 331.5,-258 331.5,-258 331.5,-246 331.5,-246 331.5,-240 337.5,-234 343.5,-234 343.5,-234 428.5,-234 428.5,-234 434.5,-234 440.5,-240 440.5,-246 440.5,-246 440.5,-258 440.5,-258 440.5,-264 434.5,-270 428.5,-270"/>
<text text-anchor="middle" x="386" y="-249.5" font-family="sans" font-size="10.00">warp_gii_to_native</text>
</g>
<!-- 41&#45;&gt;35 -->
<g id="edge22" class="edge">
<title>41&#45;&gt;35</title>
<path fill="none" stroke="grey" stroke-width="2" d="M389.79,-233.82C391.66,-225.33 393.97,-214.89 396.07,-205.38"/>
<polygon fill="grey" stroke="grey" stroke-width="2" points="399.5,-206.08 398.24,-195.56 392.66,-204.57 399.5,-206.08"/>
</g>
<!-- 42 -->
<g id="node21" class="node">
<title>42</title>
<path fill="none" stroke="#56b1d8" stroke-width="2" d="M433,-342C433,-342 339,-342 339,-342 333,-342 327,-336 327,-330 327,-330 327,-318 327,-318 327,-312 333,-306 339,-306 339,-306 433,-306 433,-306 439,-306 445,-312 445,-318 445,-318 445,-330 445,-330 445,-336 439,-342 433,-342"/>
<text text-anchor="middle" x="386" y="-321.5" font-family="sans" font-size="10.00">correct_nan_vertices</text>
</g>
<!-- 42&#45;&gt;41 -->
<g id="edge23" class="edge">
<title>42&#45;&gt;41</title>
<path fill="none" stroke="grey" stroke-width="2" d="M386,-305.7C386,-297.98 386,-288.71 386,-280.11"/>
<polygon fill="grey" stroke="grey" stroke-width="2" points="389.5,-280.1 386,-270.1 382.5,-280.1 389.5,-280.1"/>
</g>
<!-- 43 -->
<g id="node22" class="node">
<title>43</title>
<path fill="none" stroke="#97d856" stroke-width="2" d="M439.5,-414C439.5,-414 332.5,-414 332.5,-414 326.5,-414 320.5,-408 320.5,-402 320.5,-402 320.5,-390 320.5,-390 320.5,-384 326.5,-378 332.5,-378 332.5,-378 439.5,-378 439.5,-378 445.5,-378 451.5,-384 451.5,-390 451.5,-390 451.5,-402 451.5,-402 451.5,-408 445.5,-414 439.5,-414"/>
<text text-anchor="middle" x="386" y="-393.5" font-family="sans" font-size="10.00">warp_gii_unfold2native</text>
</g>
<!-- 43&#45;&gt;42 -->
<g id="edge24" class="edge">
<title>43&#45;&gt;42</title>
<path fill="none" stroke="grey" stroke-width="2" d="M386,-377.7C386,-369.98 386,-360.71 386,-352.11"/>
<polygon fill="grey" stroke="grey" stroke-width="2" points="389.5,-352.1 386,-342.1 382.5,-352.1 389.5,-352.1"/>
</g>
<!-- 44 -->
<g id="node23" class="node">
<title>44</title>
<path fill="none" stroke="#d8ac56" stroke-width="2" d="M439,-486C439,-486 333,-486 333,-486 327,-486 321,-480 321,-474 321,-474 321,-462 321,-462 321,-456 327,-450 333,-450 333,-450 439,-450 439,-450 445,-450 451,-456 451,-462 451,-462 451,-474 451,-474 451,-480 445,-486 439,-486"/>
<text text-anchor="middle" x="386" y="-465.5" font-family="sans" font-size="10.00">constrain_surf_to_bbox</text>
</g>
<!-- 44&#45;&gt;43 -->
<g id="edge25" class="edge">
<title>44&#45;&gt;43</title>
<path fill="none" stroke="grey" stroke-width="2" d="M386,-449.7C386,-441.98 386,-432.71 386,-424.11"/>
<polygon fill="grey" stroke="grey" stroke-width="2" points="389.5,-424.1 386,-414.1 382.5,-424.1 389.5,-424.1"/>
</g>
<!-- 45 -->
<g id="node24" class="node">
<title>45</title>
<path fill="none" stroke="#56b9d8" stroke-width="2" d="M509,-596C509,-596 405,-596 405,-596 399,-596 393,-590 393,-584 393,-584 393,-534 393,-534 393,-528 399,-522 405,-522 405,-522 509,-522 509,-522 515,-522 521,-528 521,-534 521,-534 521,-584 521,-584 521,-590 515,-596 509,-596"/>
<text text-anchor="middle" x="457" y="-584" font-family="sans" font-size="10.00">cp_template_to_unfold</text>
<text text-anchor="middle" x="457" y="-573" font-family="sans" font-size="10.00">autotop: hipp</text>
<text text-anchor="middle" x="457" y="-562" font-family="sans" font-size="10.00">density: 0p5mm</text>
<text text-anchor="middle" x="457" y="-551" font-family="sans" font-size="10.00">hemi: R</text>
<text text-anchor="middle" x="457" y="-540" font-family="sans" font-size="10.00">subject: 001</text>
<text text-anchor="middle" x="457" y="-529" font-family="sans" font-size="10.00">surfname: outer</text>
</g>
<!-- 45&#45;&gt;44 -->
<g id="edge26" class="edge">
<title>45&#45;&gt;44</title>
<path fill="none" stroke="grey" stroke-width="2" d="M428.12,-521.8C420.67,-512.46 412.82,-502.62 405.94,-494"/>
<polygon fill="grey" stroke="grey" stroke-width="2" points="408.66,-491.79 399.69,-486.16 403.19,-496.16 408.66,-491.79"/>
</g>
<!-- 46 -->
<g id="node25" class="node">
<title>46</title>
<path fill="none" stroke="#d8b456" stroke-width="2" d="M260.5,-121C260.5,-121 189.5,-121 189.5,-121 183.5,-121 177.5,-115 177.5,-109 177.5,-109 177.5,-92 177.5,-92 177.5,-86 183.5,-80 189.5,-80 189.5,-80 260.5,-80 260.5,-80 266.5,-80 272.5,-86 272.5,-92 272.5,-92 272.5,-109 272.5,-109 272.5,-115 266.5,-121 260.5,-121"/>
<text text-anchor="middle" x="225" y="-109" font-family="sans" font-size="10.00">nii_to_label_gii</text>
<text text-anchor="middle" x="225" y="-98" font-family="sans" font-size="10.00">density: 0p5mm</text>
<text text-anchor="middle" x="225" y="-87" font-family="sans" font-size="10.00">space: T1w</text>
</g>
<!-- 46&#45;&gt;1 -->
<g id="edge27" class="edge">
<title>46&#45;&gt;1</title>
<path fill="none" stroke="grey" stroke-width="2" d="M272.78,-82.94C276.55,-81.87 280.33,-80.87 284,-80 383.62,-56.43 501.29,-41.53 574.79,-33.73"/>
<polygon fill="grey" stroke="grey" stroke-width="2" points="575.28,-37.2 584.86,-32.67 574.55,-30.23 575.28,-37.2"/>
</g>
<!-- 47 -->
<g id="node26" class="node">
<title>47</title>
<path fill="none" stroke="#56d873" stroke-width="2" d="M281,-198C281,-198 165,-198 165,-198 159,-198 153,-192 153,-186 153,-186 153,-169 153,-169 153,-163 159,-157 165,-157 165,-157 281,-157 281,-157 287,-157 293,-163 293,-169 293,-169 293,-186 293,-186 293,-192 287,-198 281,-198"/>
<text text-anchor="middle" x="223" y="-186" font-family="sans" font-size="10.00">resample_atlas_to_refvol</text>
<text text-anchor="middle" x="223" y="-175" font-family="sans" font-size="10.00">atlas: bigbrain</text>
<text text-anchor="middle" x="223" y="-164" font-family="sans" font-size="10.00">hemi: R</text>
</g>
<!-- 47&#45;&gt;46 -->
<g id="edge28" class="edge">
<title>47&#45;&gt;46</title>
<path fill="none" stroke="grey" stroke-width="2" d="M223.53,-156.79C223.73,-148.96 223.98,-139.77 224.21,-131.16"/>
<polygon fill="grey" stroke="grey" stroke-width="2" points="227.71,-131.16 224.48,-121.07 220.71,-130.98 227.71,-131.16"/>
</g>
<!-- 7 -->
<g id="node27" class="node">
<title>7</title>
<path fill="none" stroke="#afd856" stroke-width="2" d="M141,-577C141,-577 57,-577 57,-577 51,-577 45,-571 45,-565 45,-565 45,-553 45,-553 45,-547 51,-541 57,-541 57,-541 141,-541 141,-541 147,-541 153,-547 153,-553 153,-553 153,-565 153,-565 153,-571 147,-577 141,-577"/>
<text text-anchor="middle" x="99" y="-556.5" font-family="sans" font-size="10.00">create_warps_hipp</text>
</g>
<!-- 7&#45;&gt;6 -->
<g id="edge32" class="edge">
<title>7&#45;&gt;6</title>
<path fill="none" stroke="grey" stroke-width="2" d="M121.24,-540.99C131.58,-533.96 144.36,-526.43 157,-522 284.99,-477.17 325.38,-502.41 460,-486 479.51,-483.62 500.59,-481.01 520.19,-478.56"/>
<polygon fill="grey" stroke="grey" stroke-width="2" points="520.81,-482.01 530.29,-477.3 519.94,-475.06 520.81,-482.01"/>
</g>
<!-- 7&#45;&gt;38 -->
<g id="edge33" class="edge">
<title>7&#45;&gt;38</title>
<path fill="none" stroke="grey" stroke-width="2" d="M99.35,-540.67C100.69,-517.51 106.24,-476.35 128,-450 139.14,-436.5 154.55,-426.18 170.28,-418.4"/>
<polygon fill="grey" stroke="grey" stroke-width="2" points="171.94,-421.49 179.55,-414.1 169,-415.13 171.94,-421.49"/>
</g>
<!-- 7&#45;&gt;43 -->
<g id="edge34" class="edge">
<title>7&#45;&gt;43</title>
<path fill="none" stroke="grey" stroke-width="2" d="M104.36,-540.84C112.81,-516.72 131.58,-473.13 163,-450 164.55,-448.86 246.18,-429.62 310.23,-414.65"/>
<polygon fill="grey" stroke="grey" stroke-width="2" points="311.4,-417.97 320.34,-412.29 309.8,-411.15 311.4,-417.97"/>
</g>
<!-- 8 -->
<g id="node28" class="node">
<title>8</title>
<path fill="none" stroke="#d89c56" stroke-width="2" d="M141,-689.5C141,-689.5 63,-689.5 63,-689.5 57,-689.5 51,-683.5 51,-677.5 51,-677.5 51,-660.5 51,-660.5 51,-654.5 57,-648.5 63,-648.5 63,-648.5 141,-648.5 141,-648.5 147,-648.5 153,-654.5 153,-660.5 153,-660.5 153,-677.5 153,-677.5 153,-683.5 147,-689.5 141,-689.5"/>
<text text-anchor="middle" x="102" y="-677.5" font-family="sans" font-size="10.00">create_unfold_ref</text>
<text text-anchor="middle" x="102" y="-666.5" font-family="sans" font-size="10.00">autotop: hipp</text>
<text text-anchor="middle" x="102" y="-655.5" font-family="sans" font-size="10.00">subject: 001</text>
</g>
<!-- 8&#45;&gt;30 -->
<g id="edge36" class="edge">
<title>8&#45;&gt;30</title>
<path fill="none" stroke="grey" stroke-width="2" d="M126.39,-648.4C135.49,-642.1 146.23,-635.78 157,-632 314.13,-576.79 369.69,-641.15 530,-596 542.14,-592.58 554.71,-587.24 565.96,-581.71"/>
<polygon fill="grey" stroke="grey" stroke-width="2" points="567.76,-584.72 575.07,-577.05 564.57,-578.49 567.76,-584.72"/>
</g>
<!-- 8&#45;&gt;39 -->
<g id="edge37" class="edge">
<title>8&#45;&gt;39</title>
<path fill="none" stroke="grey" stroke-width="2" d="M120.02,-648.24C132.46,-634.16 149.03,-614.53 162,-596 183.81,-564.83 185.61,-554.73 205,-522 210.29,-513.08 216.13,-503.35 221.37,-494.7"/>
<polygon fill="grey" stroke="grey" stroke-width="2" points="224.36,-496.51 226.55,-486.14 218.37,-492.88 224.36,-496.51"/>
</g>
<!-- 8&#45;&gt;44 -->
<g id="edge38" class="edge">
<title>8&#45;&gt;44</title>
<path fill="none" stroke="grey" stroke-width="2" d="M130.73,-648.22C154.72,-631.34 186.63,-607.96 197,-596 221.63,-567.59 209.35,-546.35 238,-522 250.44,-511.43 283.57,-499.16 315.34,-489.1"/>
<polygon fill="grey" stroke="grey" stroke-width="2" points="316.62,-492.36 325.13,-486.05 314.54,-485.68 316.62,-492.36"/>
</g>
<!-- 8&#45;&gt;47 -->
<g id="edge39" class="edge">
<title>8&#45;&gt;47</title>
<path fill="none" stroke="grey" stroke-width="2" d="M79.18,-648.35C64.9,-634.92 47.16,-615.99 36,-596 7.41,-544.77 0,-527.67 0,-469 0,-469 0,-469 0,-323 0,-252.68 79.06,-214.87 143.03,-195.79"/>
<polygon fill="grey" stroke="grey" stroke-width="2" points="144.1,-199.12 152.75,-193 142.17,-192.39 144.1,-199.12"/>
</g>
<!-- 8&#45;&gt;7 -->
<g id="edge35" class="edge">
<title>8&#45;&gt;7</title>
<path fill="none" stroke="grey" stroke-width="2" d="M101.46,-648.44C100.98,-631.39 100.29,-606.48 99.76,-587.43"/>
<polygon fill="grey" stroke="grey" stroke-width="2" points="103.26,-587.17 99.48,-577.27 96.26,-587.37 103.26,-587.17"/>
</g>
<!-- 32 -->
<g id="node29" class="node">
<title>32</title>
<path fill="none" stroke="#56d8b9" stroke-width="2" d="M141.5,-414C141.5,-414 40.5,-414 40.5,-414 34.5,-414 28.5,-408 28.5,-402 28.5,-402 28.5,-390 28.5,-390 28.5,-384 34.5,-378 40.5,-378 40.5,-378 141.5,-378 141.5,-378 147.5,-378 153.5,-384 153.5,-390 153.5,-390 153.5,-402 153.5,-402 153.5,-408 147.5,-414 141.5,-414"/>
<text text-anchor="middle" x="91" y="-399" font-family="sans" font-size="10.00">template_xfm_itk2ras</text>
<text text-anchor="middle" x="91" y="-388" font-family="sans" font-size="10.00">native_modality: T1w</text>
</g>
<!-- 32&#45;&gt;4 -->
<g id="edge40" class="edge">
<title>32&#45;&gt;4</title>
<path fill="none" stroke="grey" stroke-width="2" d="M153.84,-378.61C154.9,-378.4 155.95,-378.2 157,-378 161.56,-377.14 409.69,-347.34 530.84,-332.81"/>
<polygon fill="grey" stroke="grey" stroke-width="2" points="531.59,-336.25 541.1,-331.58 530.75,-329.3 531.59,-336.25"/>
</g>
<!-- 32&#45;&gt;36 -->
<g id="edge41" class="edge">
<title>32&#45;&gt;36</title>
<path fill="none" stroke="grey" stroke-width="2" d="M94.72,-377.95C99.75,-358.43 110.44,-326.5 130,-306 142.74,-292.65 159.56,-282.17 176.07,-274.19"/>
<polygon fill="grey" stroke="grey" stroke-width="2" points="177.56,-277.36 185.19,-270.01 174.64,-271 177.56,-277.36"/>
</g>
<!-- 32&#45;&gt;41 -->
<g id="edge42" class="edge">
<title>32&#45;&gt;41</title>
<path fill="none" stroke="grey" stroke-width="2" d="M103.96,-377.89C121.76,-354.81 153.37,-315.49 169,-306 182.14,-298.02 262.27,-279.59 321.35,-266.72"/>
<polygon fill="grey" stroke="grey" stroke-width="2" points="322.34,-270.09 331.37,-264.54 320.86,-263.25 322.34,-270.09"/>
</g>
</g>
</svg>
