<?xml version="1.0" encoding="UTF-8" standalone="no"?>
<!DOCTYPE svg PUBLIC "-//W3C//DTD SVG 1.1//EN"
 "http://www.w3.org/Graphics/SVG/1.1/DTD/svg11.dtd">
<!-- Generated by graphviz version 2.43.0 (0)
 -->
<!-- Pages: 1 -->
<svg width="1409pt" height="745pt"
 viewBox="0.00 0.00 1408.50 745.00" xmlns="http://www.w3.org/2000/svg" xmlns:xlink="http://www.w3.org/1999/xlink">
<g id="graph0" class="graph" transform="scale(1 1) rotate(0) translate(4 741)">
<polygon fill="white" stroke="transparent" points="-4,4 -4,-741 1404.5,-741 1404.5,4 -4,4"/>
<g id="clust1" class="cluster">
<title>cluster_0</title>
<polygon fill="white" stroke="blue" points="153,-8 153,-729 1259,-729 1259,-8 153,-8"/>
<text text-anchor="middle" x="706" y="-713.8" font-family="Times,serif" font-size="14.00">gifti</text>
</g>
<!-- 1 -->
<g id="node1" class="node">
<title>1</title>
<path fill="none" stroke="#56d8b9" stroke-width="2" d="M596,-44C596,-44 498,-44 498,-44 492,-44 486,-38 486,-32 486,-32 486,-20 486,-20 486,-14 492,-8 498,-8 498,-8 596,-8 596,-8 602,-8 608,-14 608,-20 608,-20 608,-32 608,-32 608,-38 602,-44 596,-44"/>
<text text-anchor="middle" x="547" y="-29" font-family="sans" font-size="10.00">create_spec_file_hipp</text>
<text text-anchor="middle" x="547" y="-18" font-family="sans" font-size="10.00">label: hipp</text>
</g>
<!-- 2 -->
<g id="node2" class="node">
<title>2</title>
<path fill="none" stroke="#56b9d8" stroke-width="2" d="M640.5,-195.5C640.5,-195.5 543.5,-195.5 543.5,-195.5 537.5,-195.5 531.5,-189.5 531.5,-183.5 531.5,-183.5 531.5,-171.5 531.5,-171.5 531.5,-165.5 537.5,-159.5 543.5,-159.5 543.5,-159.5 640.5,-159.5 640.5,-159.5 646.5,-159.5 652.5,-165.5 652.5,-171.5 652.5,-171.5 652.5,-183.5 652.5,-183.5 652.5,-189.5 646.5,-195.5 640.5,-195.5"/>
<text text-anchor="middle" x="592" y="-175" font-family="sans" font-size="10.00">calculate_gyrification</text>
</g>
<!-- 2&#45;&gt;1 -->
<g id="edge1" class="edge">
<title>2&#45;&gt;1</title>
<path fill="none" stroke="grey" stroke-width="2" d="M607.82,-159.18C623.88,-139.4 644.45,-106.37 630,-80 623.06,-67.33 611.66,-57.25 599.5,-49.43"/>
<polygon fill="grey" stroke="grey" stroke-width="2" points="600.95,-46.22 590.56,-44.13 597.38,-52.24 600.95,-46.22"/>
</g>
<!-- 48 -->
<g id="node3" class="node">
<title>48</title>
<path fill="none" stroke="#56d88a" stroke-width="2" d="M609,-118.5C609,-118.5 485,-118.5 485,-118.5 479,-118.5 473,-112.5 473,-106.5 473,-106.5 473,-94.5 473,-94.5 473,-88.5 479,-82.5 485,-82.5 485,-82.5 609,-82.5 609,-82.5 615,-82.5 621,-88.5 621,-94.5 621,-94.5 621,-106.5 621,-106.5 621,-112.5 615,-118.5 609,-118.5"/>
<text text-anchor="middle" x="547" y="-103.5" font-family="sans" font-size="10.00">create_dscalar_metric_cifti</text>
<text text-anchor="middle" x="547" y="-92.5" font-family="sans" font-size="10.00">metric: gyrification</text>
</g>
<!-- 2&#45;&gt;48 -->
<g id="edge2" class="edge">
<title>2&#45;&gt;48</title>
<path fill="none" stroke="grey" stroke-width="2" d="M581.79,-159.48C576.13,-150.05 568.98,-138.14 562.64,-127.56"/>
<polygon fill="grey" stroke="grey" stroke-width="2" points="565.47,-125.49 557.33,-118.71 559.47,-129.09 565.47,-125.49"/>
</g>
<!-- 48&#45;&gt;1 -->
<g id="edge29" class="edge">
<title>48&#45;&gt;1</title>
<path fill="none" stroke="grey" stroke-width="2" d="M547,-82.32C547,-73.92 547,-63.62 547,-54.19"/>
<polygon fill="grey" stroke="grey" stroke-width="2" points="550.5,-54.06 547,-44.06 543.5,-54.06 550.5,-54.06"/>
</g>
<!-- 3 -->
<g id="node4" class="node">
<title>3</title>
<path fill="none" stroke="#d85e56" stroke-width="2" d="M648.5,-270C648.5,-270 543.5,-270 543.5,-270 537.5,-270 531.5,-264 531.5,-258 531.5,-258 531.5,-246 531.5,-246 531.5,-240 537.5,-234 543.5,-234 543.5,-234 648.5,-234 648.5,-234 654.5,-234 660.5,-240 660.5,-246 660.5,-246 660.5,-258 660.5,-258 660.5,-264 654.5,-270 648.5,-270"/>
<text text-anchor="middle" x="596" y="-255" font-family="sans" font-size="10.00">calculate_surface_area</text>
<text text-anchor="middle" x="596" y="-244" font-family="sans" font-size="10.00">space: T1w</text>
</g>
<!-- 3&#45;&gt;2 -->
<g id="edge3" class="edge">
<title>3&#45;&gt;2</title>
<path fill="none" stroke="grey" stroke-width="2" d="M595.05,-233.82C594.59,-225.42 594.02,-215.12 593.5,-205.69"/>
<polygon fill="grey" stroke="grey" stroke-width="2" points="596.99,-205.35 592.94,-195.56 590,-205.74 596.99,-205.35"/>
</g>
<!-- 4 -->
<g id="node5" class="node">
<title>4</title>
<path fill="none" stroke="#59d856" stroke-width="2" d="M608.5,-342C608.5,-342 523.5,-342 523.5,-342 517.5,-342 511.5,-336 511.5,-330 511.5,-330 511.5,-318 511.5,-318 511.5,-312 517.5,-306 523.5,-306 523.5,-306 608.5,-306 608.5,-306 614.5,-306 620.5,-312 620.5,-318 620.5,-318 620.5,-330 620.5,-330 620.5,-336 614.5,-342 608.5,-342"/>
<text text-anchor="middle" x="566" y="-321.5" font-family="sans" font-size="10.00">warp_gii_to_native</text>
</g>
<!-- 4&#45;&gt;1 -->
<g id="edge4" class="edge">
<title>4&#45;&gt;1</title>
<path fill="none" stroke="grey" stroke-width="2" d="M548.41,-305.9C539.44,-296.19 529.16,-283.34 523,-270 501.58,-223.63 526.4,-201.88 502,-157 490.89,-136.56 473.19,-142.37 464,-121 456.8,-104.26 455.24,-95.98 464,-80 470.94,-67.33 482.34,-57.25 494.5,-49.43"/>
<polygon fill="grey" stroke="grey" stroke-width="2" points="496.62,-52.24 503.44,-44.13 493.05,-46.22 496.62,-52.24"/>
</g>
<!-- 4&#45;&gt;3 -->
<g id="edge5" class="edge">
<title>4&#45;&gt;3</title>
<path fill="none" stroke="grey" stroke-width="2" d="M573.42,-305.7C576.79,-297.81 580.87,-288.3 584.62,-279.55"/>
<polygon fill="grey" stroke="grey" stroke-width="2" points="587.95,-280.67 588.67,-270.1 581.51,-277.92 587.95,-280.67"/>
</g>
<!-- 34 -->
<g id="node6" class="node">
<title>34</title>
<path fill="none" stroke="#56d0d8" stroke-width="2" d="M779.5,-270C779.5,-270 708.5,-270 708.5,-270 702.5,-270 696.5,-264 696.5,-258 696.5,-258 696.5,-246 696.5,-246 696.5,-240 702.5,-234 708.5,-234 708.5,-234 779.5,-234 779.5,-234 785.5,-234 791.5,-240 791.5,-246 791.5,-246 791.5,-258 791.5,-258 791.5,-264 785.5,-270 779.5,-270"/>
<text text-anchor="middle" x="744" y="-255" font-family="sans" font-size="10.00">smooth_surface</text>
<text text-anchor="middle" x="744" y="-244" font-family="sans" font-size="10.00">space: T1w</text>
</g>
<!-- 4&#45;&gt;34 -->
<g id="edge6" class="edge">
<title>4&#45;&gt;34</title>
<path fill="none" stroke="grey" stroke-width="2" d="M609.54,-305.88C634.2,-296.18 665.22,-283.98 691.25,-273.74"/>
<polygon fill="grey" stroke="grey" stroke-width="2" points="692.57,-276.99 700.6,-270.07 690.01,-270.47 692.57,-276.99"/>
</g>
<!-- 33 -->
<g id="node11" class="node">
<title>33</title>
<path fill="none" stroke="#56d8a9" stroke-width="2" d="M841,-195.5C841,-195.5 683,-195.5 683,-195.5 677,-195.5 671,-189.5 671,-183.5 671,-183.5 671,-171.5 671,-171.5 671,-165.5 677,-159.5 683,-159.5 683,-159.5 841,-159.5 841,-159.5 847,-159.5 853,-165.5 853,-171.5 853,-171.5 853,-183.5 853,-183.5 853,-189.5 847,-195.5 841,-195.5"/>
<text text-anchor="middle" x="762" y="-175" font-family="sans" font-size="10.00">calculate_curvature_from_surface</text>
</g>
<!-- 34&#45;&gt;33 -->
<g id="edge14" class="edge">
<title>34&#45;&gt;33</title>
<path fill="none" stroke="grey" stroke-width="2" d="M748.27,-233.82C750.37,-225.33 752.96,-214.89 755.33,-205.38"/>
<polygon fill="grey" stroke="grey" stroke-width="2" points="758.75,-206.11 757.76,-195.56 751.96,-204.42 758.75,-206.11"/>
</g>
<!-- 5 -->
<g id="node7" class="node">
<title>5</title>
<path fill="none" stroke="#5663d8" stroke-width="2" d="M613,-414C613,-414 519,-414 519,-414 513,-414 507,-408 507,-402 507,-402 507,-390 507,-390 507,-384 513,-378 519,-378 519,-378 613,-378 613,-378 619,-378 625,-384 625,-390 625,-390 625,-402 625,-402 625,-408 619,-414 613,-414"/>
<text text-anchor="middle" x="566" y="-393.5" font-family="sans" font-size="10.00">correct_nan_vertices</text>
</g>
<!-- 5&#45;&gt;4 -->
<g id="edge7" class="edge">
<title>5&#45;&gt;4</title>
<path fill="none" stroke="grey" stroke-width="2" d="M566,-377.7C566,-369.98 566,-360.71 566,-352.11"/>
<polygon fill="grey" stroke="grey" stroke-width="2" points="569.5,-352.1 566,-342.1 562.5,-352.1 569.5,-352.1"/>
</g>
<!-- 6 -->
<g id="node8" class="node">
<title>6</title>
<path fill="none" stroke="#56d882" stroke-width="2" d="M619.5,-486C619.5,-486 512.5,-486 512.5,-486 506.5,-486 500.5,-480 500.5,-474 500.5,-474 500.5,-462 500.5,-462 500.5,-456 506.5,-450 512.5,-450 512.5,-450 619.5,-450 619.5,-450 625.5,-450 631.5,-456 631.5,-462 631.5,-462 631.5,-474 631.5,-474 631.5,-480 625.5,-486 619.5,-486"/>
<text text-anchor="middle" x="566" y="-465.5" font-family="sans" font-size="10.00">warp_gii_unfold2native</text>
</g>
<!-- 6&#45;&gt;5 -->
<g id="edge8" class="edge">
<title>6&#45;&gt;5</title>
<path fill="none" stroke="grey" stroke-width="2" d="M566,-449.7C566,-441.98 566,-432.71 566,-424.11"/>
<polygon fill="grey" stroke="grey" stroke-width="2" points="569.5,-424.1 566,-414.1 562.5,-424.1 569.5,-424.1"/>
</g>
<!-- 30 -->
<g id="node9" class="node">
<title>30</title>
<path fill="none" stroke="#565bd8" stroke-width="2" d="M657,-577C657,-577 551,-577 551,-577 545,-577 539,-571 539,-565 539,-565 539,-553 539,-553 539,-547 545,-541 551,-541 551,-541 657,-541 657,-541 663,-541 669,-547 669,-553 669,-553 669,-565 669,-565 669,-571 663,-577 657,-577"/>
<text text-anchor="middle" x="604" y="-556.5" font-family="sans" font-size="10.00">constrain_surf_to_bbox</text>
</g>
<!-- 30&#45;&gt;6 -->
<g id="edge9" class="edge">
<title>30&#45;&gt;6</title>
<path fill="none" stroke="grey" stroke-width="2" d="M596.67,-540.84C591.21,-528.04 583.63,-510.3 577.38,-495.65"/>
<polygon fill="grey" stroke="grey" stroke-width="2" points="580.45,-493.93 573.3,-486.11 574.01,-496.68 580.45,-493.93"/>
</g>
<!-- 31 -->
<g id="node10" class="node">
<title>31</title>
<path fill="none" stroke="#56d8d8" stroke-width="2" d="M793,-706C793,-706 683,-706 683,-706 677,-706 671,-700 671,-694 671,-694 671,-644 671,-644 671,-638 677,-632 683,-632 683,-632 793,-632 793,-632 799,-632 805,-638 805,-644 805,-644 805,-694 805,-694 805,-700 799,-706 793,-706"/>
<text text-anchor="middle" x="738" y="-694" font-family="sans" font-size="10.00">cp_template_to_unfold</text>
<text text-anchor="middle" x="738" y="-683" font-family="sans" font-size="10.00">autotop: hipp</text>
<text text-anchor="middle" x="738" y="-672" font-family="sans" font-size="10.00">density: 0p5mm</text>
<text text-anchor="middle" x="738" y="-661" font-family="sans" font-size="10.00">hemi: R</text>
<text text-anchor="middle" x="738" y="-650" font-family="sans" font-size="10.00">subject: 001</text>
<text text-anchor="middle" x="738" y="-639" font-family="sans" font-size="10.00">surfname: midthickness</text>
</g>
<!-- 31&#45;&gt;1 -->
<g id="edge10" class="edge">
<title>31&#45;&gt;1</title>
<path fill="none" stroke="grey" stroke-width="2" d="M781.88,-631.77C820.96,-595.19 872,-534.81 872,-469 872,-469 872,-469 872,-251 872,-212.17 865.37,-105.41 836,-80 804.18,-52.47 693.33,-38.41 618.54,-31.89"/>
<polygon fill="grey" stroke="grey" stroke-width="2" points="618.5,-28.38 608.24,-31.02 617.91,-35.35 618.5,-28.38"/>
</g>
<!-- 31&#45;&gt;30 -->
<g id="edge11" class="edge">
<title>31&#45;&gt;30</title>
<path fill="none" stroke="grey" stroke-width="2" d="M693.01,-631.74C673.41,-615.94 650.98,-597.86 633.54,-583.81"/>
<polygon fill="grey" stroke="grey" stroke-width="2" points="635.39,-580.81 625.41,-577.26 631,-586.26 635.39,-580.81"/>
</g>
<!-- 33&#45;&gt;1 -->
<g id="edge12" class="edge">
<title>33&#45;&gt;1</title>
<path fill="none" stroke="grey" stroke-width="2" d="M727.3,-159.35C709.19,-149.5 687.28,-136.09 670,-121 652.38,-105.61 654.7,-95.29 637,-80 623.35,-68.21 606.72,-57.58 591.49,-48.98"/>
<polygon fill="grey" stroke="grey" stroke-width="2" points="593.16,-45.91 582.71,-44.17 589.79,-52.05 593.16,-45.91"/>
</g>
<!-- 49 -->
<g id="node12" class="node">
<title>49</title>
<path fill="none" stroke="#56d88a" stroke-width="2" d="M815,-118.5C815,-118.5 691,-118.5 691,-118.5 685,-118.5 679,-112.5 679,-106.5 679,-106.5 679,-94.5 679,-94.5 679,-88.5 685,-82.5 691,-82.5 691,-82.5 815,-82.5 815,-82.5 821,-82.5 827,-88.5 827,-94.5 827,-94.5 827,-106.5 827,-106.5 827,-112.5 821,-118.5 815,-118.5"/>
<text text-anchor="middle" x="753" y="-103.5" font-family="sans" font-size="10.00">create_dscalar_metric_cifti</text>
<text text-anchor="middle" x="753" y="-92.5" font-family="sans" font-size="10.00">metric: curvature</text>
</g>
<!-- 33&#45;&gt;49 -->
<g id="edge13" class="edge">
<title>33&#45;&gt;49</title>
<path fill="none" stroke="grey" stroke-width="2" d="M759.96,-159.48C758.87,-150.44 757.51,-139.1 756.28,-128.85"/>
<polygon fill="grey" stroke="grey" stroke-width="2" points="759.73,-128.22 755.07,-118.71 752.78,-129.06 759.73,-128.22"/>
</g>
<!-- 49&#45;&gt;1 -->
<g id="edge30" class="edge">
<title>49&#45;&gt;1</title>
<path fill="none" stroke="grey" stroke-width="2" d="M704.44,-82.41C674.69,-71.94 636.43,-58.47 605.08,-47.44"/>
<polygon fill="grey" stroke="grey" stroke-width="2" points="606.18,-44.12 595.59,-44.1 603.86,-50.72 606.18,-44.12"/>
</g>
<!-- 35 -->
<g id="node13" class="node">
<title>35</title>
<path fill="none" stroke="#d8c356" stroke-width="2" d="M481,-195.5C481,-195.5 323,-195.5 323,-195.5 317,-195.5 311,-189.5 311,-183.5 311,-183.5 311,-171.5 311,-171.5 311,-165.5 317,-159.5 323,-159.5 323,-159.5 481,-159.5 481,-159.5 487,-159.5 493,-165.5 493,-171.5 493,-171.5 493,-183.5 493,-183.5 493,-189.5 487,-195.5 481,-195.5"/>
<text text-anchor="middle" x="402" y="-180.5" font-family="sans" font-size="10.00">calculate_thickness_from_surface</text>
<text text-anchor="middle" x="402" y="-169.5" font-family="sans" font-size="10.00">space: T1w</text>
</g>
<!-- 35&#45;&gt;1 -->
<g id="edge15" class="edge">
<title>35&#45;&gt;1</title>
<path fill="none" stroke="grey" stroke-width="2" d="M328.09,-159.36C308.51,-151.1 289.61,-138.91 278,-121 268.09,-105.71 266.43,-94.08 278,-80 302.6,-50.08 404.64,-36.78 475.71,-31.06"/>
<polygon fill="grey" stroke="grey" stroke-width="2" points="476.26,-34.53 485.96,-30.27 475.72,-27.55 476.26,-34.53"/>
</g>
<!-- 50 -->
<g id="node14" class="node">
<title>50</title>
<path fill="none" stroke="#56d88a" stroke-width="2" d="M423,-118.5C423,-118.5 299,-118.5 299,-118.5 293,-118.5 287,-112.5 287,-106.5 287,-106.5 287,-94.5 287,-94.5 287,-88.5 293,-82.5 299,-82.5 299,-82.5 423,-82.5 423,-82.5 429,-82.5 435,-88.5 435,-94.5 435,-94.5 435,-106.5 435,-106.5 435,-112.5 429,-118.5 423,-118.5"/>
<text text-anchor="middle" x="361" y="-103.5" font-family="sans" font-size="10.00">create_dscalar_metric_cifti</text>
<text text-anchor="middle" x="361" y="-92.5" font-family="sans" font-size="10.00">metric: thickness</text>
</g>
<!-- 35&#45;&gt;50 -->
<g id="edge16" class="edge">
<title>35&#45;&gt;50</title>
<path fill="none" stroke="grey" stroke-width="2" d="M392.7,-159.48C387.54,-150.05 381.03,-138.14 375.25,-127.56"/>
<polygon fill="grey" stroke="grey" stroke-width="2" points="378.28,-125.81 370.41,-118.71 372.13,-129.16 378.28,-125.81"/>
</g>
<!-- 50&#45;&gt;1 -->
<g id="edge31" class="edge">
<title>50&#45;&gt;1</title>
<path fill="none" stroke="grey" stroke-width="2" d="M405.08,-82.32C431.6,-71.98 465.55,-58.75 493.59,-47.82"/>
<polygon fill="grey" stroke="grey" stroke-width="2" points="495.19,-50.95 503.24,-44.06 492.65,-44.43 495.19,-50.95"/>
</g>
<!-- 36 -->
<g id="node15" class="node">
<title>36</title>
<path fill="none" stroke="#59d856" stroke-width="2" d="M279.5,-270C279.5,-270 194.5,-270 194.5,-270 188.5,-270 182.5,-264 182.5,-258 182.5,-258 182.5,-246 182.5,-246 182.5,-240 188.5,-234 194.5,-234 194.5,-234 279.5,-234 279.5,-234 285.5,-234 291.5,-240 291.5,-246 291.5,-246 291.5,-258 291.5,-258 291.5,-264 285.5,-270 279.5,-270"/>
<text text-anchor="middle" x="237" y="-249.5" font-family="sans" font-size="10.00">warp_gii_to_native</text>
</g>
<!-- 36&#45;&gt;35 -->
<g id="edge17" class="edge">
<title>36&#45;&gt;35</title>
<path fill="none" stroke="grey" stroke-width="2" d="M276.1,-233.82C299.43,-223.57 329.22,-210.48 353.96,-199.61"/>
<polygon fill="grey" stroke="grey" stroke-width="2" points="355.43,-202.79 363.18,-195.56 352.61,-196.38 355.43,-202.79"/>
</g>
<!-- 37 -->
<g id="node16" class="node">
<title>37</title>
<path fill="none" stroke="#5663d8" stroke-width="2" d="M284,-342C284,-342 190,-342 190,-342 184,-342 178,-336 178,-330 178,-330 178,-318 178,-318 178,-312 184,-306 190,-306 190,-306 284,-306 284,-306 290,-306 296,-312 296,-318 296,-318 296,-330 296,-330 296,-336 290,-342 284,-342"/>
<text text-anchor="middle" x="237" y="-321.5" font-family="sans" font-size="10.00">correct_nan_vertices</text>
</g>
<!-- 37&#45;&gt;36 -->
<g id="edge18" class="edge">
<title>37&#45;&gt;36</title>
<path fill="none" stroke="grey" stroke-width="2" d="M237,-305.7C237,-297.98 237,-288.71 237,-280.11"/>
<polygon fill="grey" stroke="grey" stroke-width="2" points="240.5,-280.1 237,-270.1 233.5,-280.1 240.5,-280.1"/>
</g>
<!-- 38 -->
<g id="node17" class="node">
<title>38</title>
<path fill="none" stroke="#56d882" stroke-width="2" d="M290.5,-414C290.5,-414 183.5,-414 183.5,-414 177.5,-414 171.5,-408 171.5,-402 171.5,-402 171.5,-390 171.5,-390 171.5,-384 177.5,-378 183.5,-378 183.5,-378 290.5,-378 290.5,-378 296.5,-378 302.5,-384 302.5,-390 302.5,-390 302.5,-402 302.5,-402 302.5,-408 296.5,-414 290.5,-414"/>
<text text-anchor="middle" x="237" y="-393.5" font-family="sans" font-size="10.00">warp_gii_unfold2native</text>
</g>
<!-- 38&#45;&gt;37 -->
<g id="edge19" class="edge">
<title>38&#45;&gt;37</title>
<path fill="none" stroke="grey" stroke-width="2" d="M237,-377.7C237,-369.98 237,-360.71 237,-352.11"/>
<polygon fill="grey" stroke="grey" stroke-width="2" points="240.5,-352.1 237,-342.1 233.5,-352.1 240.5,-352.1"/>
</g>
<!-- 39 -->
<g id="node18" class="node">
<title>39</title>
<path fill="none" stroke="#565bd8" stroke-width="2" d="M290,-486C290,-486 184,-486 184,-486 178,-486 172,-480 172,-474 172,-474 172,-462 172,-462 172,-456 178,-450 184,-450 184,-450 290,-450 290,-450 296,-450 302,-456 302,-462 302,-462 302,-474 302,-474 302,-480 296,-486 290,-486"/>
<text text-anchor="middle" x="237" y="-465.5" font-family="sans" font-size="10.00">constrain_surf_to_bbox</text>
</g>
<!-- 39&#45;&gt;38 -->
<g id="edge20" class="edge">
<title>39&#45;&gt;38</title>
<path fill="none" stroke="grey" stroke-width="2" d="M237,-449.7C237,-441.98 237,-432.71 237,-424.11"/>
<polygon fill="grey" stroke="grey" stroke-width="2" points="240.5,-424.1 237,-414.1 233.5,-424.1 240.5,-424.1"/>
</g>
<!-- 40 -->
<g id="node19" class="node">
<title>40</title>
<path fill="none" stroke="#56d8d8" stroke-width="2" d="M363,-596C363,-596 259,-596 259,-596 253,-596 247,-590 247,-584 247,-584 247,-534 247,-534 247,-528 253,-522 259,-522 259,-522 363,-522 363,-522 369,-522 375,-528 375,-534 375,-534 375,-584 375,-584 375,-590 369,-596 363,-596"/>
<text text-anchor="middle" x="311" y="-584" font-family="sans" font-size="10.00">cp_template_to_unfold</text>
<text text-anchor="middle" x="311" y="-573" font-family="sans" font-size="10.00">autotop: hipp</text>
<text text-anchor="middle" x="311" y="-562" font-family="sans" font-size="10.00">density: 0p5mm</text>
<text text-anchor="middle" x="311" y="-551" font-family="sans" font-size="10.00">hemi: R</text>
<text text-anchor="middle" x="311" y="-540" font-family="sans" font-size="10.00">subject: 001</text>
<text text-anchor="middle" x="311" y="-529" font-family="sans" font-size="10.00">surfname: inner</text>
</g>
<!-- 40&#45;&gt;39 -->
<g id="edge21" class="edge">
<title>40&#45;&gt;39</title>
<path fill="none" stroke="grey" stroke-width="2" d="M280.9,-521.8C273.14,-512.46 264.96,-502.62 257.79,-494"/>
<polygon fill="grey" stroke="grey" stroke-width="2" points="260.35,-491.61 251.27,-486.16 254.97,-496.09 260.35,-491.61"/>
</g>
<!-- 41 -->
<g id="node20" class="node">
<title>41</title>
<path fill="none" stroke="#59d856" stroke-width="2" d="M428.5,-270C428.5,-270 343.5,-270 343.5,-270 337.5,-270 331.5,-264 331.5,-258 331.5,-258 331.5,-246 331.5,-246 331.5,-240 337.5,-234 343.5,-234 343.5,-234 428.5,-234 428.5,-234 434.5,-234 440.5,-240 440.5,-246 440.5,-246 440.5,-258 440.5,-258 440.5,-264 434.5,-270 428.5,-270"/>
<text text-anchor="middle" x="386" y="-249.5" font-family="sans" font-size="10.00">warp_gii_to_native</text>
</g>
<!-- 41&#45;&gt;35 -->
<g id="edge22" class="edge">
<title>41&#45;&gt;35</title>
<path fill="none" stroke="grey" stroke-width="2" d="M389.79,-233.82C391.66,-225.33 393.97,-214.89 396.07,-205.38"/>
<polygon fill="grey" stroke="grey" stroke-width="2" points="399.5,-206.08 398.24,-195.56 392.66,-204.57 399.5,-206.08"/>
</g>
<!-- 42 -->
<g id="node21" class="node">
<title>42</title>
<path fill="none" stroke="#5663d8" stroke-width="2" d="M433,-342C433,-342 339,-342 339,-342 333,-342 327,-336 327,-330 327,-330 327,-318 327,-318 327,-312 333,-306 339,-306 339,-306 433,-306 433,-306 439,-306 445,-312 445,-318 445,-318 445,-330 445,-330 445,-336 439,-342 433,-342"/>
<text text-anchor="middle" x="386" y="-321.5" font-family="sans" font-size="10.00">correct_nan_vertices</text>
</g>
<!-- 42&#45;&gt;41 -->
<g id="edge23" class="edge">
<title>42&#45;&gt;41</title>
<path fill="none" stroke="grey" stroke-width="2" d="M386,-305.7C386,-297.98 386,-288.71 386,-280.11"/>
<polygon fill="grey" stroke="grey" stroke-width="2" points="389.5,-280.1 386,-270.1 382.5,-280.1 389.5,-280.1"/>
</g>
<!-- 43 -->
<g id="node22" class="node">
<title>43</title>
<path fill="none" stroke="#56d882" stroke-width="2" d="M439.5,-414C439.5,-414 332.5,-414 332.5,-414 326.5,-414 320.5,-408 320.5,-402 320.5,-402 320.5,-390 320.5,-390 320.5,-384 326.5,-378 332.5,-378 332.5,-378 439.5,-378 439.5,-378 445.5,-378 451.5,-384 451.5,-390 451.5,-390 451.5,-402 451.5,-402 451.5,-408 445.5,-414 439.5,-414"/>
<text text-anchor="middle" x="386" y="-393.5" font-family="sans" font-size="10.00">warp_gii_unfold2native</text>
</g>
<!-- 43&#45;&gt;42 -->
<g id="edge24" class="edge">
<title>43&#45;&gt;42</title>
<path fill="none" stroke="grey" stroke-width="2" d="M386,-377.7C386,-369.98 386,-360.71 386,-352.11"/>
<polygon fill="grey" stroke="grey" stroke-width="2" points="389.5,-352.1 386,-342.1 382.5,-352.1 389.5,-352.1"/>
</g>
<!-- 44 -->
<g id="node23" class="node">
<title>44</title>
<path fill="none" stroke="#565bd8" stroke-width="2" d="M439,-486C439,-486 333,-486 333,-486 327,-486 321,-480 321,-474 321,-474 321,-462 321,-462 321,-456 327,-450 333,-450 333,-450 439,-450 439,-450 445,-450 451,-456 451,-462 451,-462 451,-474 451,-474 451,-480 445,-486 439,-486"/>
<text text-anchor="middle" x="386" y="-465.5" font-family="sans" font-size="10.00">constrain_surf_to_bbox</text>
</g>
<!-- 44&#45;&gt;43 -->
<g id="edge25" class="edge">
<title>44&#45;&gt;43</title>
<path fill="none" stroke="grey" stroke-width="2" d="M386,-449.7C386,-441.98 386,-432.71 386,-424.11"/>
<polygon fill="grey" stroke="grey" stroke-width="2" points="389.5,-424.1 386,-414.1 382.5,-424.1 389.5,-424.1"/>
</g>
<!-- 45 -->
<g id="node24" class="node">
<title>45</title>
<path fill="none" stroke="#56d8d8" stroke-width="2" d="M509,-596C509,-596 405,-596 405,-596 399,-596 393,-590 393,-584 393,-584 393,-534 393,-534 393,-528 399,-522 405,-522 405,-522 509,-522 509,-522 515,-522 521,-528 521,-534 521,-534 521,-584 521,-584 521,-590 515,-596 509,-596"/>
<text text-anchor="middle" x="457" y="-584" font-family="sans" font-size="10.00">cp_template_to_unfold</text>
<text text-anchor="middle" x="457" y="-573" font-family="sans" font-size="10.00">autotop: hipp</text>
<text text-anchor="middle" x="457" y="-562" font-family="sans" font-size="10.00">density: 0p5mm</text>
<text text-anchor="middle" x="457" y="-551" font-family="sans" font-size="10.00">hemi: R</text>
<text text-anchor="middle" x="457" y="-540" font-family="sans" font-size="10.00">subject: 001</text>
<text text-anchor="middle" x="457" y="-529" font-family="sans" font-size="10.00">surfname: outer</text>
</g>
<!-- 45&#45;&gt;44 -->
<g id="edge26" class="edge">
<title>45&#45;&gt;44</title>
<path fill="none" stroke="grey" stroke-width="2" d="M428.12,-521.8C420.67,-512.46 412.82,-502.62 405.94,-494"/>
<polygon fill="grey" stroke="grey" stroke-width="2" points="408.66,-491.79 399.69,-486.16 403.19,-496.16 408.66,-491.79"/>
</g>
<!-- 46 -->
<g id="node25" class="node">
<title>46</title>
<path fill="none" stroke="#d8ac56" stroke-width="2" d="M236.5,-121C236.5,-121 165.5,-121 165.5,-121 159.5,-121 153.5,-115 153.5,-109 153.5,-109 153.5,-92 153.5,-92 153.5,-86 159.5,-80 165.5,-80 165.5,-80 236.5,-80 236.5,-80 242.5,-80 248.5,-86 248.5,-92 248.5,-92 248.5,-109 248.5,-109 248.5,-115 242.5,-121 236.5,-121"/>
<text text-anchor="middle" x="201" y="-109" font-family="sans" font-size="10.00">nii_to_label_gii</text>
<text text-anchor="middle" x="201" y="-98" font-family="sans" font-size="10.00">density: 0p5mm</text>
<text text-anchor="middle" x="201" y="-87" font-family="sans" font-size="10.00">space: T1w</text>
</g>
<!-- 46&#45;&gt;1 -->
<g id="edge27" class="edge">
<title>46&#45;&gt;1</title>
<path fill="none" stroke="grey" stroke-width="2" d="M248.56,-83.91C253.42,-82.51 258.29,-81.18 263,-80 334.73,-62.1 418.01,-47.24 475.76,-37.86"/>
<polygon fill="grey" stroke="grey" stroke-width="2" points="476.56,-41.27 485.88,-36.22 475.45,-34.36 476.56,-41.27"/>
</g>
<!-- 47 -->
<g id="node26" class="node">
<title>47</title>
<path fill="none" stroke="#d8ac56" stroke-width="2" d="M281,-198C281,-198 165,-198 165,-198 159,-198 153,-192 153,-186 153,-186 153,-169 153,-169 153,-163 159,-157 165,-157 165,-157 281,-157 281,-157 287,-157 293,-163 293,-169 293,-169 293,-186 293,-186 293,-192 287,-198 281,-198"/>
<text text-anchor="middle" x="223" y="-186" font-family="sans" font-size="10.00">resample_atlas_to_refvol</text>
<text text-anchor="middle" x="223" y="-175" font-family="sans" font-size="10.00">atlas: bigbrain</text>
<text text-anchor="middle" x="223" y="-164" font-family="sans" font-size="10.00">hemi: R</text>
</g>
<!-- 47&#45;&gt;46 -->
<g id="edge28" class="edge">
<title>47&#45;&gt;46</title>
<path fill="none" stroke="grey" stroke-width="2" d="M217.22,-156.79C214.9,-148.87 212.17,-139.57 209.62,-130.88"/>
<polygon fill="grey" stroke="grey" stroke-width="2" points="212.91,-129.68 206.74,-121.07 206.2,-131.65 212.91,-129.68"/>
</g>
<!-- 51 -->
<g id="node27" class="node">
<title>51</title>
<path fill="none" stroke="#569ad8" stroke-width="2" d="M1155,-44C1155,-44 1041,-44 1041,-44 1035,-44 1029,-38 1029,-32 1029,-32 1029,-20 1029,-20 1029,-14 1035,-8 1041,-8 1041,-8 1155,-8 1155,-8 1161,-8 1167,-14 1167,-20 1167,-20 1167,-32 1167,-32 1167,-38 1161,-44 1155,-44"/>
<text text-anchor="middle" x="1098" y="-29" font-family="sans" font-size="10.00">create_spec_file_dentate</text>
<text text-anchor="middle" x="1098" y="-18" font-family="sans" font-size="10.00">label: dentate</text>
</g>
<!-- 52 -->
<g id="node28" class="node">
<title>52</title>
<path fill="none" stroke="#56b9d8" stroke-width="2" d="M1024.5,-195.5C1024.5,-195.5 927.5,-195.5 927.5,-195.5 921.5,-195.5 915.5,-189.5 915.5,-183.5 915.5,-183.5 915.5,-171.5 915.5,-171.5 915.5,-165.5 921.5,-159.5 927.5,-159.5 927.5,-159.5 1024.5,-159.5 1024.5,-159.5 1030.5,-159.5 1036.5,-165.5 1036.5,-171.5 1036.5,-171.5 1036.5,-183.5 1036.5,-183.5 1036.5,-189.5 1030.5,-195.5 1024.5,-195.5"/>
<text text-anchor="middle" x="976" y="-175" font-family="sans" font-size="10.00">calculate_gyrification</text>
</g>
<!-- 52&#45;&gt;51 -->
<g id="edge32" class="edge">
<title>52&#45;&gt;51</title>
<path fill="none" stroke="grey" stroke-width="2" d="M1001.11,-159.36C1014.48,-149.33 1030.49,-135.75 1042,-121 1054.47,-105.02 1051.83,-97.54 1062,-80 1067.3,-70.86 1073.62,-61.2 1079.48,-52.67"/>
<polygon fill="grey" stroke="grey" stroke-width="2" points="1082.5,-54.46 1085.35,-44.26 1076.76,-50.46 1082.5,-54.46"/>
</g>
<!-- 71 -->
<g id="node29" class="node">
<title>71</title>
<path fill="none" stroke="#56d88a" stroke-width="2" d="M1021,-118.5C1021,-118.5 897,-118.5 897,-118.5 891,-118.5 885,-112.5 885,-106.5 885,-106.5 885,-94.5 885,-94.5 885,-88.5 891,-82.5 897,-82.5 897,-82.5 1021,-82.5 1021,-82.5 1027,-82.5 1033,-88.5 1033,-94.5 1033,-94.5 1033,-106.5 1033,-106.5 1033,-112.5 1027,-118.5 1021,-118.5"/>
<text text-anchor="middle" x="959" y="-103.5" font-family="sans" font-size="10.00">create_dscalar_metric_cifti</text>
<text text-anchor="middle" x="959" y="-92.5" font-family="sans" font-size="10.00">metric: gyrification</text>
</g>
<!-- 52&#45;&gt;71 -->
<g id="edge33" class="edge">
<title>52&#45;&gt;71</title>
<path fill="none" stroke="grey" stroke-width="2" d="M972.14,-159.48C970.07,-150.34 967.47,-138.86 965.13,-128.53"/>
<polygon fill="grey" stroke="grey" stroke-width="2" points="968.53,-127.69 962.9,-118.71 961.7,-129.24 968.53,-127.69"/>
</g>
<!-- 71&#45;&gt;51 -->
<g id="edge46" class="edge">
<title>71&#45;&gt;51</title>
<path fill="none" stroke="grey" stroke-width="2" d="M991.94,-82.32C1011.24,-72.25 1035.8,-59.44 1056.43,-48.68"/>
<polygon fill="grey" stroke="grey" stroke-width="2" points="1058.05,-51.79 1065.3,-44.06 1054.81,-45.58 1058.05,-51.79"/>
</g>
<!-- 53 -->
<g id="node30" class="node">
<title>53</title>
<path fill="none" stroke="#d85e56" stroke-width="2" d="M1028.5,-270C1028.5,-270 923.5,-270 923.5,-270 917.5,-270 911.5,-264 911.5,-258 911.5,-258 911.5,-246 911.5,-246 911.5,-240 917.5,-234 923.5,-234 923.5,-234 1028.5,-234 1028.5,-234 1034.5,-234 1040.5,-240 1040.5,-246 1040.5,-246 1040.5,-258 1040.5,-258 1040.5,-264 1034.5,-270 1028.5,-270"/>
<text text-anchor="middle" x="976" y="-255" font-family="sans" font-size="10.00">calculate_surface_area</text>
<text text-anchor="middle" x="976" y="-244" font-family="sans" font-size="10.00">space: T1w</text>
</g>
<!-- 53&#45;&gt;52 -->
<g id="edge34" class="edge">
<title>53&#45;&gt;52</title>
<path fill="none" stroke="grey" stroke-width="2" d="M976,-233.82C976,-225.42 976,-215.12 976,-205.69"/>
<polygon fill="grey" stroke="grey" stroke-width="2" points="979.5,-205.56 976,-195.56 972.5,-205.56 979.5,-205.56"/>
</g>
<!-- 54 -->
<g id="node31" class="node">
<title>54</title>
<path fill="none" stroke="#59d856" stroke-width="2" d="M1018.5,-342C1018.5,-342 933.5,-342 933.5,-342 927.5,-342 921.5,-336 921.5,-330 921.5,-330 921.5,-318 921.5,-318 921.5,-312 927.5,-306 933.5,-306 933.5,-306 1018.5,-306 1018.5,-306 1024.5,-306 1030.5,-312 1030.5,-318 1030.5,-318 1030.5,-330 1030.5,-330 1030.5,-336 1024.5,-342 1018.5,-342"/>
<text text-anchor="middle" x="976" y="-321.5" font-family="sans" font-size="10.00">warp_gii_to_native</text>
</g>
<!-- 54&#45;&gt;51 -->
<g id="edge35" class="edge">
<title>54&#45;&gt;51</title>
<path fill="none" stroke="grey" stroke-width="2" d="M941.93,-305.89C927.74,-297.07 912.42,-284.98 903,-270 891.65,-251.95 862.79,-96.74 876,-80 893.78,-57.48 962.47,-43.48 1018.8,-35.57"/>
<polygon fill="grey" stroke="grey" stroke-width="2" points="1019.36,-39.02 1028.79,-34.21 1018.41,-32.09 1019.36,-39.02"/>
</g>
<!-- 54&#45;&gt;53 -->
<g id="edge36" class="edge">
<title>54&#45;&gt;53</title>
<path fill="none" stroke="grey" stroke-width="2" d="M976,-305.7C976,-297.98 976,-288.71 976,-280.11"/>
<polygon fill="grey" stroke="grey" stroke-width="2" points="979.5,-280.1 976,-270.1 972.5,-280.1 979.5,-280.1"/>
</g>
<!-- 70 -->
<g id="node32" class="node">
<title>70</title>
<path fill="none" stroke="#56d0d8" stroke-width="2" d="M1161.5,-270C1161.5,-270 1090.5,-270 1090.5,-270 1084.5,-270 1078.5,-264 1078.5,-258 1078.5,-258 1078.5,-246 1078.5,-246 1078.5,-240 1084.5,-234 1090.5,-234 1090.5,-234 1161.5,-234 1161.5,-234 1167.5,-234 1173.5,-240 1173.5,-246 1173.5,-246 1173.5,-258 1173.5,-258 1173.5,-264 1167.5,-270 1161.5,-270"/>
<text text-anchor="middle" x="1126" y="-255" font-family="sans" font-size="10.00">smooth_surface</text>
<text text-anchor="middle" x="1126" y="-244" font-family="sans" font-size="10.00">space: T1w</text>
</g>
<!-- 54&#45;&gt;70 -->
<g id="edge37" class="edge">
<title>54&#45;&gt;70</title>
<path fill="none" stroke="grey" stroke-width="2" d="M1012.69,-305.88C1033.02,-296.39 1058.47,-284.51 1080.1,-274.42"/>
<polygon fill="grey" stroke="grey" stroke-width="2" points="1081.84,-277.47 1089.43,-270.07 1078.88,-271.13 1081.84,-277.47"/>
</g>
<!-- 69 -->
<g id="node37" class="node">
<title>69</title>
<path fill="none" stroke="#56d8a9" stroke-width="2" d="M1225,-195.5C1225,-195.5 1067,-195.5 1067,-195.5 1061,-195.5 1055,-189.5 1055,-183.5 1055,-183.5 1055,-171.5 1055,-171.5 1055,-165.5 1061,-159.5 1067,-159.5 1067,-159.5 1225,-159.5 1225,-159.5 1231,-159.5 1237,-165.5 1237,-171.5 1237,-171.5 1237,-183.5 1237,-183.5 1237,-189.5 1231,-195.5 1225,-195.5"/>
<text text-anchor="middle" x="1146" y="-175" font-family="sans" font-size="10.00">calculate_curvature_from_surface</text>
</g>
<!-- 70&#45;&gt;69 -->
<g id="edge45" class="edge">
<title>70&#45;&gt;69</title>
<path fill="none" stroke="grey" stroke-width="2" d="M1130.74,-233.82C1133.08,-225.33 1135.96,-214.89 1138.58,-205.38"/>
<polygon fill="grey" stroke="grey" stroke-width="2" points="1142.01,-206.13 1141.29,-195.56 1135.26,-204.27 1142.01,-206.13"/>
</g>
<!-- 55 -->
<g id="node33" class="node">
<title>55</title>
<path fill="none" stroke="#5663d8" stroke-width="2" d="M1066,-414C1066,-414 972,-414 972,-414 966,-414 960,-408 960,-402 960,-402 960,-390 960,-390 960,-384 966,-378 972,-378 972,-378 1066,-378 1066,-378 1072,-378 1078,-384 1078,-390 1078,-390 1078,-402 1078,-402 1078,-408 1072,-414 1066,-414"/>
<text text-anchor="middle" x="1019" y="-393.5" font-family="sans" font-size="10.00">correct_nan_vertices</text>
</g>
<!-- 55&#45;&gt;54 -->
<g id="edge38" class="edge">
<title>55&#45;&gt;54</title>
<path fill="none" stroke="grey" stroke-width="2" d="M1008.37,-377.7C1003.37,-369.56 997.31,-359.69 991.79,-350.7"/>
<polygon fill="grey" stroke="grey" stroke-width="2" points="994.72,-348.79 986.51,-342.1 988.76,-352.46 994.72,-348.79"/>
</g>
<!-- 56 -->
<g id="node34" class="node">
<title>56</title>
<path fill="none" stroke="#56d882" stroke-width="2" d="M1246.5,-486C1246.5,-486 1139.5,-486 1139.5,-486 1133.5,-486 1127.5,-480 1127.5,-474 1127.5,-474 1127.5,-462 1127.5,-462 1127.5,-456 1133.5,-450 1139.5,-450 1139.5,-450 1246.5,-450 1246.5,-450 1252.5,-450 1258.5,-456 1258.5,-462 1258.5,-462 1258.5,-474 1258.5,-474 1258.5,-480 1252.5,-486 1246.5,-486"/>
<text text-anchor="middle" x="1193" y="-465.5" font-family="sans" font-size="10.00">warp_gii_unfold2native</text>
</g>
<!-- 56&#45;&gt;55 -->
<g id="edge39" class="edge">
<title>56&#45;&gt;55</title>
<path fill="none" stroke="grey" stroke-width="2" d="M1150.43,-449.88C1126.44,-440.22 1096.27,-428.09 1070.9,-417.88"/>
<polygon fill="grey" stroke="grey" stroke-width="2" points="1072.01,-414.55 1061.43,-414.07 1069.4,-421.05 1072.01,-414.55"/>
</g>
<!-- 67 -->
<g id="node35" class="node">
<title>67</title>
<path fill="none" stroke="#565bd8" stroke-width="2" d="M1245,-577C1245,-577 1139,-577 1139,-577 1133,-577 1127,-571 1127,-565 1127,-565 1127,-553 1127,-553 1127,-547 1133,-541 1139,-541 1139,-541 1245,-541 1245,-541 1251,-541 1257,-547 1257,-553 1257,-553 1257,-565 1257,-565 1257,-571 1251,-577 1245,-577"/>
<text text-anchor="middle" x="1192" y="-556.5" font-family="sans" font-size="10.00">constrain_surf_to_bbox</text>
</g>
<!-- 67&#45;&gt;56 -->
<g id="edge40" class="edge">
<title>67&#45;&gt;56</title>
<path fill="none" stroke="grey" stroke-width="2" d="M1192.19,-540.84C1192.33,-528.28 1192.53,-510.98 1192.69,-496.5"/>
<polygon fill="grey" stroke="grey" stroke-width="2" points="1196.2,-496.15 1192.81,-486.11 1189.2,-496.07 1196.2,-496.15"/>
</g>
<!-- 68 -->
<g id="node36" class="node">
<title>68</title>
<path fill="none" stroke="#56d8d8" stroke-width="2" d="M1203,-706C1203,-706 1093,-706 1093,-706 1087,-706 1081,-700 1081,-694 1081,-694 1081,-644 1081,-644 1081,-638 1087,-632 1093,-632 1093,-632 1203,-632 1203,-632 1209,-632 1215,-638 1215,-644 1215,-644 1215,-694 1215,-694 1215,-700 1209,-706 1203,-706"/>
<text text-anchor="middle" x="1148" y="-694" font-family="sans" font-size="10.00">cp_template_to_unfold</text>
<text text-anchor="middle" x="1148" y="-683" font-family="sans" font-size="10.00">autotop: dentate</text>
<text text-anchor="middle" x="1148" y="-672" font-family="sans" font-size="10.00">density: 0p5mm</text>
<text text-anchor="middle" x="1148" y="-661" font-family="sans" font-size="10.00">hemi: R</text>
<text text-anchor="middle" x="1148" y="-650" font-family="sans" font-size="10.00">subject: 001</text>
<text text-anchor="middle" x="1148" y="-639" font-family="sans" font-size="10.00">surfname: midthickness</text>
</g>
<!-- 68&#45;&gt;51 -->
<g id="edge41" class="edge">
<title>68&#45;&gt;51</title>
<path fill="none" stroke="grey" stroke-width="2" d="M1129.69,-631.88C1124.91,-620.67 1120.42,-608.08 1118,-596 1105.27,-532.37 1103.55,-513.03 1119,-450 1148.86,-328.19 1216.99,-320.02 1246,-198 1250.21,-180.27 1247.18,-175.18 1246,-157 1243.77,-122.56 1257.34,-107.12 1236,-80 1221.28,-61.29 1199.11,-49.18 1176.83,-41.35"/>
<polygon fill="grey" stroke="grey" stroke-width="2" points="1177.88,-38.01 1167.29,-38.24 1175.71,-44.67 1177.88,-38.01"/>
</g>
<!-- 68&#45;&gt;67 -->
<g id="edge42" class="edge">
<title>68&#45;&gt;67</title>
<path fill="none" stroke="grey" stroke-width="2" d="M1162.77,-631.74C1168.8,-616.94 1175.64,-600.15 1181.19,-586.54"/>
<polygon fill="grey" stroke="grey" stroke-width="2" points="1184.44,-587.84 1184.97,-577.26 1177.96,-585.2 1184.44,-587.84"/>
</g>
<!-- 69&#45;&gt;51 -->
<g id="edge43" class="edge">
<title>69&#45;&gt;51</title>
<path fill="none" stroke="grey" stroke-width="2" d="M1186.51,-159.48C1202.45,-150.53 1219.06,-137.85 1228,-121 1236.54,-104.9 1238.17,-95.12 1228,-80 1215.97,-62.1 1196.72,-50.24 1176.69,-42.39"/>
<polygon fill="grey" stroke="grey" stroke-width="2" points="1177.73,-39.04 1167.13,-38.95 1175.36,-45.63 1177.73,-39.04"/>
</g>
<!-- 72 -->
<g id="node38" class="node">
<title>72</title>
<path fill="none" stroke="#56d88a" stroke-width="2" d="M1207,-118.5C1207,-118.5 1083,-118.5 1083,-118.5 1077,-118.5 1071,-112.5 1071,-106.5 1071,-106.5 1071,-94.5 1071,-94.5 1071,-88.5 1077,-82.5 1083,-82.5 1083,-82.5 1207,-82.5 1207,-82.5 1213,-82.5 1219,-88.5 1219,-94.5 1219,-94.5 1219,-106.5 1219,-106.5 1219,-112.5 1213,-118.5 1207,-118.5"/>
<text text-anchor="middle" x="1145" y="-103.5" font-family="sans" font-size="10.00">create_dscalar_metric_cifti</text>
<text text-anchor="middle" x="1145" y="-92.5" font-family="sans" font-size="10.00">metric: curvature</text>
</g>
<!-- 69&#45;&gt;72 -->
<g id="edge44" class="edge">
<title>69&#45;&gt;72</title>
<path fill="none" stroke="grey" stroke-width="2" d="M1145.77,-159.48C1145.65,-150.44 1145.5,-139.1 1145.36,-128.85"/>
<polygon fill="grey" stroke="grey" stroke-width="2" points="1148.86,-128.66 1145.23,-118.71 1141.86,-128.76 1148.86,-128.66"/>
</g>
<!-- 72&#45;&gt;51 -->
<g id="edge47" class="edge">
<title>72&#45;&gt;51</title>
<path fill="none" stroke="grey" stroke-width="2" d="M1133.86,-82.32C1128.13,-73.47 1121.02,-62.5 1114.64,-52.67"/>
<polygon fill="grey" stroke="grey" stroke-width="2" points="1117.44,-50.55 1109.06,-44.06 1111.56,-54.35 1117.44,-50.55"/>
</g>
<!-- 7 -->
<g id="node39" class="node">
<title>7</title>
<path fill="none" stroke="#d87556" stroke-width="2" d="M141,-577C141,-577 57,-577 57,-577 51,-577 45,-571 45,-565 45,-565 45,-553 45,-553 45,-547 51,-541 57,-541 57,-541 141,-541 141,-541 147,-541 153,-547 153,-553 153,-553 153,-565 153,-565 153,-571 147,-577 141,-577"/>
<text text-anchor="middle" x="99" y="-556.5" font-family="sans" font-size="10.00">create_warps_hipp</text>
</g>
<!-- 7&#45;&gt;6 -->
<g id="edge48" class="edge">
<title>7&#45;&gt;6</title>
<path fill="none" stroke="grey" stroke-width="2" d="M121.24,-540.99C131.58,-533.96 144.36,-526.43 157,-522 284.99,-477.17 325.69,-504.74 460,-486 469.83,-484.63 480.16,-483.09 490.35,-481.52"/>
<polygon fill="grey" stroke="grey" stroke-width="2" points="491.13,-484.94 500.47,-479.94 490.05,-478.02 491.13,-484.94"/>
</g>
<!-- 7&#45;&gt;38 -->
<g id="edge49" class="edge">
<title>7&#45;&gt;38</title>
<path fill="none" stroke="grey" stroke-width="2" d="M99.35,-540.67C100.69,-517.51 106.24,-476.35 128,-450 139.14,-436.5 154.55,-426.18 170.28,-418.4"/>
<polygon fill="grey" stroke="grey" stroke-width="2" points="171.94,-421.49 179.55,-414.1 169,-415.13 171.94,-421.49"/>
</g>
<!-- 7&#45;&gt;43 -->
<g id="edge50" class="edge">
<title>7&#45;&gt;43</title>
<path fill="none" stroke="grey" stroke-width="2" d="M104.36,-540.84C112.81,-516.72 131.58,-473.13 163,-450 164.55,-448.86 246.18,-429.62 310.23,-414.65"/>
<polygon fill="grey" stroke="grey" stroke-width="2" points="311.4,-417.97 320.34,-412.29 309.8,-411.15 311.4,-417.97"/>
</g>
<!-- 8 -->
<g id="node40" class="node">
<title>8</title>
<path fill="none" stroke="#d8bc56" stroke-width="2" d="M141,-689.5C141,-689.5 63,-689.5 63,-689.5 57,-689.5 51,-683.5 51,-677.5 51,-677.5 51,-660.5 51,-660.5 51,-654.5 57,-648.5 63,-648.5 63,-648.5 141,-648.5 141,-648.5 147,-648.5 153,-654.5 153,-660.5 153,-660.5 153,-677.5 153,-677.5 153,-683.5 147,-689.5 141,-689.5"/>
<text text-anchor="middle" x="102" y="-677.5" font-family="sans" font-size="10.00">create_unfold_ref</text>
<text text-anchor="middle" x="102" y="-666.5" font-family="sans" font-size="10.00">autotop: hipp</text>
<text text-anchor="middle" x="102" y="-655.5" font-family="sans" font-size="10.00">subject: 001</text>
</g>
<!-- 8&#45;&gt;30 -->
<g id="edge52" class="edge">
<title>8&#45;&gt;30</title>
<path fill="none" stroke="grey" stroke-width="2" d="M126.39,-648.4C135.49,-642.1 146.23,-635.78 157,-632 314.13,-576.79 369.69,-641.15 530,-596 542.14,-592.58 554.71,-587.24 565.96,-581.71"/>
<polygon fill="grey" stroke="grey" stroke-width="2" points="567.76,-584.72 575.07,-577.05 564.57,-578.49 567.76,-584.72"/>
</g>
<!-- 8&#45;&gt;39 -->
<g id="edge53" class="edge">
<title>8&#45;&gt;39</title>
<path fill="none" stroke="grey" stroke-width="2" d="M120.02,-648.24C132.46,-634.16 149.03,-614.53 162,-596 183.81,-564.83 185.61,-554.73 205,-522 210.29,-513.08 216.13,-503.35 221.37,-494.7"/>
<polygon fill="grey" stroke="grey" stroke-width="2" points="224.36,-496.51 226.55,-486.14 218.37,-492.88 224.36,-496.51"/>
</g>
<!-- 8&#45;&gt;44 -->
<g id="edge54" class="edge">
<title>8&#45;&gt;44</title>
<path fill="none" stroke="grey" stroke-width="2" d="M130.73,-648.22C154.72,-631.34 186.63,-607.96 197,-596 221.63,-567.59 209.35,-546.35 238,-522 250.44,-511.43 283.57,-499.16 315.34,-489.1"/>
<polygon fill="grey" stroke="grey" stroke-width="2" points="316.62,-492.36 325.13,-486.05 314.54,-485.68 316.62,-492.36"/>
</g>
<!-- 8&#45;&gt;47 -->
<g id="edge55" class="edge">
<title>8&#45;&gt;47</title>
<path fill="none" stroke="grey" stroke-width="2" d="M79.18,-648.35C64.9,-634.92 47.16,-615.99 36,-596 7.41,-544.77 0,-527.67 0,-469 0,-469 0,-469 0,-323 0,-252.68 79.06,-214.87 143.03,-195.79"/>
<polygon fill="grey" stroke="grey" stroke-width="2" points="144.1,-199.12 152.75,-193 142.17,-192.39 144.1,-199.12"/>
</g>
<!-- 8&#45;&gt;7 -->
<g id="edge51" class="edge">
<title>8&#45;&gt;7</title>
<path fill="none" stroke="grey" stroke-width="2" d="M101.46,-648.44C100.98,-631.39 100.29,-606.48 99.76,-587.43"/>
<polygon fill="grey" stroke="grey" stroke-width="2" points="103.26,-587.17 99.48,-577.27 96.26,-587.37 103.26,-587.17"/>
</g>
<!-- 32 -->
<g id="node41" class="node">
<title>32</title>
<path fill="none" stroke="#56d882" stroke-width="2" d="M141.5,-414C141.5,-414 40.5,-414 40.5,-414 34.5,-414 28.5,-408 28.5,-402 28.5,-402 28.5,-390 28.5,-390 28.5,-384 34.5,-378 40.5,-378 40.5,-378 141.5,-378 141.5,-378 147.5,-378 153.5,-384 153.5,-390 153.5,-390 153.5,-402 153.5,-402 153.5,-408 147.5,-414 141.5,-414"/>
<text text-anchor="middle" x="91" y="-399" font-family="sans" font-size="10.00">template_xfm_itk2ras</text>
<text text-anchor="middle" x="91" y="-388" font-family="sans" font-size="10.00">native_modality: T1w</text>
</g>
<!-- 32&#45;&gt;4 -->
<g id="edge56" class="edge">
<title>32&#45;&gt;4</title>
<path fill="none" stroke="grey" stroke-width="2" d="M153.84,-378.61C154.9,-378.4 155.95,-378.2 157,-378 287.66,-353.36 322.25,-359.98 454,-342 469.35,-339.91 485.85,-337.49 501.34,-335.15"/>
<polygon fill="grey" stroke="grey" stroke-width="2" points="502,-338.59 511.36,-333.63 500.95,-331.67 502,-338.59"/>
</g>
<!-- 32&#45;&gt;36 -->
<g id="edge57" class="edge">
<title>32&#45;&gt;36</title>
<path fill="none" stroke="grey" stroke-width="2" d="M94.72,-377.95C99.75,-358.43 110.44,-326.5 130,-306 142.74,-292.65 159.56,-282.17 176.07,-274.19"/>
<polygon fill="grey" stroke="grey" stroke-width="2" points="177.56,-277.36 185.19,-270.01 174.64,-271 177.56,-277.36"/>
</g>
<!-- 32&#45;&gt;41 -->
<g id="edge58" class="edge">
<title>32&#45;&gt;41</title>
<path fill="none" stroke="grey" stroke-width="2" d="M103.96,-377.89C121.76,-354.81 153.37,-315.49 169,-306 182.14,-298.02 262.27,-279.59 321.35,-266.72"/>
<polygon fill="grey" stroke="grey" stroke-width="2" points="322.34,-270.09 331.37,-264.54 320.86,-263.25 322.34,-270.09"/>
</g>
<!-- 32&#45;&gt;54 -->
<g id="edge59" class="edge">
<title>32&#45;&gt;54</title>
<path fill="none" stroke="grey" stroke-width="2" d="M153.82,-378.53C154.89,-378.35 155.95,-378.17 157,-378 230.58,-366.25 730.78,-338.31 911.24,-328.49"/>
<polygon fill="grey" stroke="grey" stroke-width="2" points="911.59,-331.98 921.39,-327.94 911.21,-324.99 911.59,-331.98"/>
</g>
<!-- 57 -->
<g id="node42" class="node">
<title>57</title>
<path fill="none" stroke="#ced856" stroke-width="2" d="M1388.5,-577C1388.5,-577 1287.5,-577 1287.5,-577 1281.5,-577 1275.5,-571 1275.5,-565 1275.5,-565 1275.5,-553 1275.5,-553 1275.5,-547 1281.5,-541 1287.5,-541 1287.5,-541 1388.5,-541 1388.5,-541 1394.5,-541 1400.5,-547 1400.5,-553 1400.5,-553 1400.5,-565 1400.5,-565 1400.5,-571 1394.5,-577 1388.5,-577"/>
<text text-anchor="middle" x="1338" y="-556.5" font-family="sans" font-size="10.00">create_warps_dentate</text>
</g>
<!-- 57&#45;&gt;56 -->
<g id="edge60" class="edge">
<title>57&#45;&gt;56</title>
<path fill="none" stroke="grey" stroke-width="2" d="M1310.04,-540.84C1287.17,-526.8 1254.65,-506.84 1229.69,-491.52"/>
<polygon fill="grey" stroke="grey" stroke-width="2" points="1231.23,-488.36 1220.87,-486.11 1227.56,-494.32 1231.23,-488.36"/>
</g>
<!-- 58 -->
<g id="node43" class="node">
<title>58</title>
<path fill="none" stroke="#d8bc56" stroke-width="2" d="M1363,-689.5C1363,-689.5 1285,-689.5 1285,-689.5 1279,-689.5 1273,-683.5 1273,-677.5 1273,-677.5 1273,-660.5 1273,-660.5 1273,-654.5 1279,-648.5 1285,-648.5 1285,-648.5 1363,-648.5 1363,-648.5 1369,-648.5 1375,-654.5 1375,-660.5 1375,-660.5 1375,-677.5 1375,-677.5 1375,-683.5 1369,-689.5 1363,-689.5"/>
<text text-anchor="middle" x="1324" y="-677.5" font-family="sans" font-size="10.00">create_unfold_ref</text>
<text text-anchor="middle" x="1324" y="-666.5" font-family="sans" font-size="10.00">autotop: dentate</text>
<text text-anchor="middle" x="1324" y="-655.5" font-family="sans" font-size="10.00">subject: 001</text>
</g>
<!-- 58&#45;&gt;67 -->
<g id="edge62" class="edge">
<title>58&#45;&gt;67</title>
<path fill="none" stroke="grey" stroke-width="2" d="M1300.1,-648.44C1277.9,-630.28 1244.8,-603.2 1221.08,-583.79"/>
<polygon fill="grey" stroke="grey" stroke-width="2" points="1223.07,-580.9 1213.11,-577.27 1218.64,-586.32 1223.07,-580.9"/>
</g>
<!-- 58&#45;&gt;57 -->
<g id="edge61" class="edge">
<title>58&#45;&gt;57</title>
<path fill="none" stroke="grey" stroke-width="2" d="M1326.54,-648.44C1328.75,-631.39 1331.98,-606.48 1334.44,-587.43"/>
<polygon fill="grey" stroke="grey" stroke-width="2" points="1337.95,-587.64 1335.76,-577.27 1331,-586.74 1337.95,-587.64"/>
</g>
</g>
</svg>
