<?xml version="1.0" encoding="UTF-8" standalone="no"?>
<!DOCTYPE svg PUBLIC "-//W3C//DTD SVG 1.1//EN"
 "http://www.w3.org/Graphics/SVG/1.1/DTD/svg11.dtd">
<!-- Generated by graphviz version 2.43.0 (0)
 -->
<!-- Pages: 1 -->
<svg width="3030pt" height="160pt"
 viewBox="0.00 0.00 3030.00 160.00" xmlns="http://www.w3.org/2000/svg" xmlns:xlink="http://www.w3.org/1999/xlink">
<g id="graph0" class="graph" transform="scale(1 1) rotate(0) translate(4 156)">
<polygon fill="white" stroke="transparent" points="-4,4 -4,-156 3026,-156 3026,4 -4,4"/>
<g id="clust1" class="cluster">
<title>cluster_0</title>
<polygon fill="white" stroke="blue" points="964,-8 964,-144 2556,-144 2556,-8 964,-8"/>
<text text-anchor="middle" x="1760" y="-128.8" font-family="Times,serif" font-size="14.00">resample_final_to_crop_native</text>
</g>
<!-- 73 -->
<g id="node1" class="node">
<title>73</title>
<path fill="none" stroke="#56a9d8" stroke-width="2" d="M2385.5,-46.5C2385.5,-46.5 2236.5,-46.5 2236.5,-46.5 2230.5,-46.5 2224.5,-40.5 2224.5,-34.5 2224.5,-34.5 2224.5,-22.5 2224.5,-22.5 2224.5,-16.5 2230.5,-10.5 2236.5,-10.5 2236.5,-10.5 2385.5,-10.5 2385.5,-10.5 2391.5,-10.5 2397.5,-16.5 2397.5,-22.5 2397.5,-22.5 2397.5,-34.5 2397.5,-34.5 2397.5,-40.5 2391.5,-46.5 2385.5,-46.5"/>
<text text-anchor="middle" x="2311" y="-26" font-family="sans" font-size="10.00">resample_subfields_native_crop</text>
</g>
<!-- 76 -->
<g id="node2" class="node">
<title>76</title>
<path fill="none" stroke="#68d856" stroke-width="2" d="M1907,-121C1907,-121 1803,-121 1803,-121 1797,-121 1791,-115 1791,-109 1791,-109 1791,-97 1791,-97 1791,-91 1797,-85 1803,-85 1803,-85 1907,-85 1907,-85 1913,-85 1919,-91 1919,-97 1919,-97 1919,-109 1919,-109 1919,-115 1913,-121 1907,-121"/>
<text text-anchor="middle" x="1855" y="-100.5" font-family="sans" font-size="10.00">create_native_crop_ref</text>
</g>
<!-- 76&#45;&gt;73 -->
<g id="edge1" class="edge">
<title>76&#45;&gt;73</title>
<path fill="none" stroke="grey" stroke-width="2" d="M1919.22,-93.61C1991.36,-83.95 2111.86,-67.05 2215,-49 2216.11,-48.81 2217.23,-48.61 2218.35,-48.41"/>
<polygon fill="grey" stroke="grey" stroke-width="2" points="2219.37,-51.78 2228.58,-46.54 2218.11,-44.89 2219.37,-51.78"/>
</g>
<!-- 78 -->
<g id="node3" class="node">
<title>78</title>
<path fill="none" stroke="#d86e56" stroke-width="2" d="M2014,-49C2014,-49 1876,-49 1876,-49 1870,-49 1864,-43 1864,-37 1864,-37 1864,-20 1864,-20 1864,-14 1870,-8 1876,-8 1876,-8 2014,-8 2014,-8 2020,-8 2026,-14 2026,-20 2026,-20 2026,-37 2026,-37 2026,-43 2020,-49 2014,-49"/>
<text text-anchor="middle" x="1945" y="-37" font-family="sans" font-size="10.00">resample_coords_native_crop</text>
<text text-anchor="middle" x="1945" y="-26" font-family="sans" font-size="10.00">autotop: hipp</text>
<text text-anchor="middle" x="1945" y="-15" font-family="sans" font-size="10.00">desc: laplace</text>
</g>
<!-- 76&#45;&gt;78 -->
<g id="edge2" class="edge">
<title>76&#45;&gt;78</title>
<path fill="none" stroke="grey" stroke-width="2" d="M1876.33,-84.82C1887.14,-76.11 1900.5,-65.35 1912.56,-55.64"/>
<polygon fill="grey" stroke="grey" stroke-width="2" points="1915.05,-58.12 1920.64,-49.12 1910.66,-52.67 1915.05,-58.12"/>
</g>
<!-- 79 -->
<g id="node4" class="node">
<title>79</title>
<path fill="none" stroke="#d86e56" stroke-width="2" d="M1114,-49C1114,-49 976,-49 976,-49 970,-49 964,-43 964,-37 964,-37 964,-20 964,-20 964,-14 970,-8 976,-8 976,-8 1114,-8 1114,-8 1120,-8 1126,-14 1126,-20 1126,-20 1126,-37 1126,-37 1126,-43 1120,-49 1114,-49"/>
<text text-anchor="middle" x="1045" y="-37" font-family="sans" font-size="10.00">resample_coords_native_crop</text>
<text text-anchor="middle" x="1045" y="-26" font-family="sans" font-size="10.00">autotop: dentate</text>
<text text-anchor="middle" x="1045" y="-15" font-family="sans" font-size="10.00">desc: laplace</text>
</g>
<!-- 76&#45;&gt;79 -->
<g id="edge3" class="edge">
<title>76&#45;&gt;79</title>
<path fill="none" stroke="grey" stroke-width="2" d="M1790.62,-100.28C1666.03,-96.29 1383.22,-84.05 1136.58,-49.12"/>
<polygon fill="grey" stroke="grey" stroke-width="2" points="1136.74,-45.61 1126.34,-47.66 1135.75,-52.54 1136.74,-45.61"/>
</g>
<!-- 80 -->
<g id="node5" class="node">
<title>80</title>
<path fill="none" stroke="#d86e56" stroke-width="2" d="M1474,-49C1474,-49 1336,-49 1336,-49 1330,-49 1324,-43 1324,-37 1324,-37 1324,-20 1324,-20 1324,-14 1330,-8 1336,-8 1336,-8 1474,-8 1474,-8 1480,-8 1486,-14 1486,-20 1486,-20 1486,-37 1486,-37 1486,-43 1480,-49 1474,-49"/>
<text text-anchor="middle" x="1405" y="-37" font-family="sans" font-size="10.00">resample_coords_native_crop</text>
<text text-anchor="middle" x="1405" y="-26" font-family="sans" font-size="10.00">autotop: hipp</text>
<text text-anchor="middle" x="1405" y="-15" font-family="sans" font-size="10.00">desc: laplace</text>
</g>
<!-- 76&#45;&gt;80 -->
<g id="edge4" class="edge">
<title>76&#45;&gt;80</title>
<path fill="none" stroke="grey" stroke-width="2" d="M1790.73,-93.86C1720.74,-84.7 1605.28,-68.73 1496.55,-49.23"/>
<polygon fill="grey" stroke="grey" stroke-width="2" points="1496.85,-45.72 1486.39,-47.39 1495.6,-52.61 1496.85,-45.72"/>
</g>
<!-- 81 -->
<g id="node6" class="node">
<title>81</title>
<path fill="none" stroke="#d86e56" stroke-width="2" d="M1654,-49C1654,-49 1516,-49 1516,-49 1510,-49 1504,-43 1504,-37 1504,-37 1504,-20 1504,-20 1504,-14 1510,-8 1516,-8 1516,-8 1654,-8 1654,-8 1660,-8 1666,-14 1666,-20 1666,-20 1666,-37 1666,-37 1666,-43 1660,-49 1654,-49"/>
<text text-anchor="middle" x="1585" y="-37" font-family="sans" font-size="10.00">resample_coords_native_crop</text>
<text text-anchor="middle" x="1585" y="-26" font-family="sans" font-size="10.00">autotop: dentate</text>
<text text-anchor="middle" x="1585" y="-15" font-family="sans" font-size="10.00">desc: laplace</text>
</g>
<!-- 76&#45;&gt;81 -->
<g id="edge5" class="edge">
<title>76&#45;&gt;81</title>
<path fill="none" stroke="grey" stroke-width="2" d="M1791.36,-84.91C1754.34,-74.97 1707.28,-62.33 1667.45,-51.64"/>
<polygon fill="grey" stroke="grey" stroke-width="2" points="1668.32,-48.25 1657.76,-49.04 1666.51,-55.01 1668.32,-48.25"/>
</g>
<!-- 82 -->
<g id="node7" class="node">
<title>82</title>
<path fill="none" stroke="#d86e56" stroke-width="2" d="M1294,-49C1294,-49 1156,-49 1156,-49 1150,-49 1144,-43 1144,-37 1144,-37 1144,-20 1144,-20 1144,-14 1150,-8 1156,-8 1156,-8 1294,-8 1294,-8 1300,-8 1306,-14 1306,-20 1306,-20 1306,-37 1306,-37 1306,-43 1300,-49 1294,-49"/>
<text text-anchor="middle" x="1225" y="-37" font-family="sans" font-size="10.00">resample_coords_native_crop</text>
<text text-anchor="middle" x="1225" y="-26" font-family="sans" font-size="10.00">autotop: hipp</text>
<text text-anchor="middle" x="1225" y="-15" font-family="sans" font-size="10.00">desc: laplace</text>
</g>
<!-- 76&#45;&gt;82 -->
<g id="edge6" class="edge">
<title>76&#45;&gt;82</title>
<path fill="none" stroke="grey" stroke-width="2" d="M1790.69,-98.1C1691.06,-91.53 1493.28,-76.37 1316.37,-49.13"/>
<polygon fill="grey" stroke="grey" stroke-width="2" points="1316.78,-45.65 1306.36,-47.57 1315.7,-52.56 1316.78,-45.65"/>
</g>
<!-- 85 -->
<g id="node8" class="node">
<title>85</title>
<path fill="none" stroke="#d86e56" stroke-width="2" d="M2194,-49C2194,-49 2056,-49 2056,-49 2050,-49 2044,-43 2044,-37 2044,-37 2044,-20 2044,-20 2044,-14 2050,-8 2056,-8 2056,-8 2194,-8 2194,-8 2200,-8 2206,-14 2206,-20 2206,-20 2206,-37 2206,-37 2206,-43 2200,-49 2194,-49"/>
<text text-anchor="middle" x="2125" y="-37" font-family="sans" font-size="10.00">resample_coords_native_crop</text>
<text text-anchor="middle" x="2125" y="-26" font-family="sans" font-size="10.00">autotop: dentate</text>
<text text-anchor="middle" x="2125" y="-15" font-family="sans" font-size="10.00">desc: laplace</text>
</g>
<!-- 76&#45;&gt;85 -->
<g id="edge7" class="edge">
<title>76&#45;&gt;85</title>
<path fill="none" stroke="grey" stroke-width="2" d="M1918.64,-84.91C1955.66,-74.97 2002.72,-62.33 2042.55,-51.64"/>
<polygon fill="grey" stroke="grey" stroke-width="2" points="2043.49,-55.01 2052.24,-49.04 2041.68,-48.25 2043.49,-55.01"/>
</g>
<!-- 86 -->
<g id="node9" class="node">
<title>86</title>
<path fill="none" stroke="#d86e56" stroke-width="2" d="M1834,-49C1834,-49 1696,-49 1696,-49 1690,-49 1684,-43 1684,-37 1684,-37 1684,-20 1684,-20 1684,-14 1690,-8 1696,-8 1696,-8 1834,-8 1834,-8 1840,-8 1846,-14 1846,-20 1846,-20 1846,-37 1846,-37 1846,-43 1840,-49 1834,-49"/>
<text text-anchor="middle" x="1765" y="-37" font-family="sans" font-size="10.00">resample_coords_native_crop</text>
<text text-anchor="middle" x="1765" y="-26" font-family="sans" font-size="10.00">autotop: hipp</text>
<text text-anchor="middle" x="1765" y="-15" font-family="sans" font-size="10.00">desc: equivol</text>
</g>
<!-- 76&#45;&gt;86 -->
<g id="edge8" class="edge">
<title>76&#45;&gt;86</title>
<path fill="none" stroke="grey" stroke-width="2" d="M1833.67,-84.82C1822.86,-76.11 1809.5,-65.35 1797.44,-55.64"/>
<polygon fill="grey" stroke="grey" stroke-width="2" points="1799.34,-52.67 1789.36,-49.12 1794.95,-58.12 1799.34,-52.67"/>
</g>
<!-- 91 -->
<g id="node10" class="node">
<title>91</title>
<path fill="none" stroke="#d87556" stroke-width="2" d="M2544,-46.5C2544,-46.5 2428,-46.5 2428,-46.5 2422,-46.5 2416,-40.5 2416,-34.5 2416,-34.5 2416,-22.5 2416,-22.5 2416,-16.5 2422,-10.5 2428,-10.5 2428,-10.5 2544,-10.5 2544,-10.5 2550,-10.5 2556,-16.5 2556,-22.5 2556,-22.5 2556,-34.5 2556,-34.5 2556,-40.5 2550,-46.5 2544,-46.5"/>
<text text-anchor="middle" x="2486" y="-26" font-family="sans" font-size="10.00">resample_native_to_crop</text>
</g>
<!-- 76&#45;&gt;91 -->
<g id="edge9" class="edge">
<title>76&#45;&gt;91</title>
<path fill="none" stroke="grey" stroke-width="2" d="M1919.15,-98.89C2022.47,-93.2 2231.9,-78.85 2407,-49 2408.08,-48.82 2409.17,-48.63 2410.26,-48.43"/>
<polygon fill="grey" stroke="grey" stroke-width="2" points="2411.05,-51.84 2420.2,-46.51 2409.72,-44.97 2411.05,-51.84"/>
</g>
<!-- 10 -->
<g id="node11" class="node">
<title>10</title>
<path fill="none" stroke="#97d856" stroke-width="2" d="M802,-121C802,-121 710,-121 710,-121 704,-121 698,-115 698,-109 698,-109 698,-97 698,-97 698,-91 704,-85 710,-85 710,-85 802,-85 802,-85 808,-85 814,-91 814,-97 814,-97 814,-109 814,-109 814,-115 808,-121 802,-121"/>
<text text-anchor="middle" x="756" y="-100.5" font-family="sans" font-size="10.00">laplace_coords_hipp</text>
</g>
<!-- 10&#45;&gt;78 -->
<g id="edge10" class="edge">
<title>10&#45;&gt;78</title>
<path fill="none" stroke="grey" stroke-width="2" d="M814.32,-86.42C817.24,-85.89 820.15,-85.41 823,-85 1274.02,-20.67 1397.78,-104.57 1853.53,-49.05"/>
<polygon fill="grey" stroke="grey" stroke-width="2" points="1854.18,-52.5 1863.68,-47.8 1853.32,-45.55 1854.18,-52.5"/>
</g>
<!-- 16 -->
<g id="node12" class="node">
<title>16</title>
<path fill="none" stroke="#d89c56" stroke-width="2" d="M3010,-121C3010,-121 2980,-121 2980,-121 2974,-121 2968,-115 2968,-109 2968,-109 2968,-97 2968,-97 2968,-91 2974,-85 2980,-85 2980,-85 3010,-85 3010,-85 3016,-85 3022,-91 3022,-97 3022,-97 3022,-109 3022,-109 3022,-115 3016,-121 3010,-121"/>
<text text-anchor="middle" x="2995" y="-100.5" font-family="sans" font-size="10.00">n4_t1</text>
</g>
<!-- 16&#45;&gt;91 -->
<g id="edge12" class="edge">
<title>16&#45;&gt;91</title>
<path fill="none" stroke="grey" stroke-width="2" d="M2967.84,-88.06C2964.91,-86.89 2961.92,-85.84 2959,-85 2949.66,-82.32 2698.68,-53.62 2566.2,-38.58"/>
<polygon fill="grey" stroke="grey" stroke-width="2" points="2566.43,-35.08 2556.1,-37.43 2565.64,-42.04 2566.43,-35.08"/>
</g>
<!-- 77 -->
<g id="node13" class="node">
<title>77</title>
<path fill="none" stroke="#ced856" stroke-width="2" d="M2820,-46.5C2820,-46.5 2682,-46.5 2682,-46.5 2676,-46.5 2670,-40.5 2670,-34.5 2670,-34.5 2670,-22.5 2670,-22.5 2670,-16.5 2676,-10.5 2682,-10.5 2682,-10.5 2820,-10.5 2820,-10.5 2826,-10.5 2832,-16.5 2832,-22.5 2832,-22.5 2832,-34.5 2832,-34.5 2832,-40.5 2826,-46.5 2820,-46.5"/>
<text text-anchor="middle" x="2751" y="-31.5" font-family="sans" font-size="10.00">resample_subfields_to_native</text>
<text text-anchor="middle" x="2751" y="-20.5" font-family="sans" font-size="10.00">native_modality: T1w</text>
</g>
<!-- 16&#45;&gt;77 -->
<g id="edge11" class="edge">
<title>16&#45;&gt;77</title>
<path fill="none" stroke="grey" stroke-width="2" d="M2967.7,-88.49C2964.79,-87.23 2961.86,-86.05 2959,-85 2920.02,-70.73 2875.71,-58.39 2838.03,-49"/>
<polygon fill="grey" stroke="grey" stroke-width="2" points="2838.64,-45.55 2828.09,-46.55 2836.97,-52.34 2838.64,-45.55"/>
</g>
<!-- 77&#45;&gt;76 -->
<g id="edge29" class="edge">
<title>77&#45;&gt;76</title>
<path fill="none" stroke="grey" stroke-width="2" d="M2669.72,-38.28C2635.82,-41.82 2596.02,-45.81 2560,-49 2330.26,-69.36 2057.94,-88.39 1929.33,-97.07"/>
<polygon fill="grey" stroke="grey" stroke-width="2" points="1928.94,-93.59 1919.2,-97.75 1929.42,-100.57 1928.94,-93.59"/>
</g>
<!-- 18 -->
<g id="node14" class="node">
<title>18</title>
<path fill="none" stroke="#566bd8" stroke-width="2" d="M2714,-121C2714,-121 2568,-121 2568,-121 2562,-121 2556,-115 2556,-109 2556,-109 2556,-97 2556,-97 2556,-91 2562,-85 2568,-85 2568,-85 2714,-85 2714,-85 2720,-85 2726,-91 2726,-97 2726,-97 2726,-109 2726,-109 2726,-115 2720,-121 2714,-121"/>
<text text-anchor="middle" x="2641" y="-100.5" font-family="sans" font-size="10.00">compose_template_xfm_corobl</text>
</g>
<!-- 18&#45;&gt;73 -->
<g id="edge13" class="edge">
<title>18&#45;&gt;73</title>
<path fill="none" stroke="grey" stroke-width="2" d="M2563.21,-84.91C2513.82,-74.06 2449.79,-59.99 2398.61,-48.75"/>
<polygon fill="grey" stroke="grey" stroke-width="2" points="2399.07,-45.27 2388.55,-46.54 2397.57,-52.1 2399.07,-45.27"/>
</g>
<!-- 18&#45;&gt;78 -->
<g id="edge15" class="edge">
<title>18&#45;&gt;78</title>
<path fill="none" stroke="grey" stroke-width="2" d="M2555.77,-85.51C2554.5,-85.33 2553.25,-85.16 2552,-85 2326.82,-55.76 2264.78,-80.74 2036.29,-49.07"/>
<polygon fill="grey" stroke="grey" stroke-width="2" points="2036.73,-45.6 2026.34,-47.67 2035.76,-52.53 2036.73,-45.6"/>
</g>
<!-- 18&#45;&gt;79 -->
<g id="edge16" class="edge">
<title>18&#45;&gt;79</title>
<path fill="none" stroke="grey" stroke-width="2" d="M2555.78,-85.43C2554.51,-85.28 2553.25,-85.13 2552,-85 1928.99,-18.04 1762.28,-122.89 1136.5,-49.05"/>
<polygon fill="grey" stroke="grey" stroke-width="2" points="1136.66,-45.54 1126.32,-47.84 1135.83,-52.49 1136.66,-45.54"/>
</g>
<!-- 18&#45;&gt;80 -->
<g id="edge17" class="edge">
<title>18&#45;&gt;80</title>
<path fill="none" stroke="grey" stroke-width="2" d="M2555.78,-85.44C2554.51,-85.29 2553.25,-85.14 2552,-85 2088.17,-33.12 1963.22,-105.96 1496.36,-49.04"/>
<polygon fill="grey" stroke="grey" stroke-width="2" points="1496.68,-45.55 1486.32,-47.8 1495.82,-52.5 1496.68,-45.55"/>
</g>
<!-- 18&#45;&gt;81 -->
<g id="edge18" class="edge">
<title>18&#45;&gt;81</title>
<path fill="none" stroke="grey" stroke-width="2" d="M2555.78,-85.45C2554.51,-85.3 2553.25,-85.14 2552,-85 2167.78,-40.66 2063.73,-97.5 1676.4,-49.05"/>
<polygon fill="grey" stroke="grey" stroke-width="2" points="1676.69,-45.56 1666.33,-47.78 1675.81,-52.51 1676.69,-45.56"/>
</g>
<!-- 18&#45;&gt;82 -->
<g id="edge19" class="edge">
<title>18&#45;&gt;82</title>
<path fill="none" stroke="grey" stroke-width="2" d="M2555.78,-85.43C2554.51,-85.28 2553.25,-85.14 2552,-85 2008.59,-25.58 1862.75,-114.42 1316.43,-49.04"/>
<polygon fill="grey" stroke="grey" stroke-width="2" points="1316.67,-45.55 1306.32,-47.82 1315.83,-52.5 1316.67,-45.55"/>
</g>
<!-- 18&#45;&gt;85 -->
<g id="edge20" class="edge">
<title>18&#45;&gt;85</title>
<path fill="none" stroke="grey" stroke-width="2" d="M2555.76,-85.57C2554.5,-85.38 2553.24,-85.19 2552,-85 2406.64,-63.37 2366.03,-72.36 2216.31,-48.95"/>
<polygon fill="grey" stroke="grey" stroke-width="2" points="2216.71,-45.47 2206.29,-47.36 2215.61,-52.38 2216.71,-45.47"/>
</g>
<!-- 18&#45;&gt;86 -->
<g id="edge21" class="edge">
<title>18&#45;&gt;86</title>
<path fill="none" stroke="grey" stroke-width="2" d="M2555.77,-85.47C2554.51,-85.31 2553.25,-85.15 2552,-85 2247.35,-48.21 2164.25,-89.08 1856.44,-49.07"/>
<polygon fill="grey" stroke="grey" stroke-width="2" points="1856.7,-45.58 1846.33,-47.74 1855.79,-52.52 1856.7,-45.58"/>
</g>
<!-- 18&#45;&gt;77 -->
<g id="edge14" class="edge">
<title>18&#45;&gt;77</title>
<path fill="none" stroke="grey" stroke-width="2" d="M2667.07,-84.82C2681.86,-75.07 2700.56,-62.74 2716.55,-52.2"/>
<polygon fill="grey" stroke="grey" stroke-width="2" points="2718.7,-54.98 2725.12,-46.56 2714.84,-49.14 2718.7,-54.98"/>
</g>
<!-- 25 -->
<g id="node15" class="node">
<title>25</title>
<path fill="none" stroke="#97d856" stroke-width="2" d="M388,-121C388,-121 296,-121 296,-121 290,-121 284,-115 284,-109 284,-109 284,-97 284,-97 284,-91 290,-85 296,-85 296,-85 388,-85 388,-85 394,-85 400,-91 400,-97 400,-97 400,-109 400,-109 400,-115 394,-121 388,-121"/>
<text text-anchor="middle" x="342" y="-100.5" font-family="sans" font-size="10.00">laplace_coords_hipp</text>
</g>
<!-- 25&#45;&gt;80 -->
<g id="edge22" class="edge">
<title>25&#45;&gt;80</title>
<path fill="none" stroke="grey" stroke-width="2" d="M400.32,-86.44C403.25,-85.9 406.15,-85.41 409,-85 804.5,-27.61 913.43,-98.66 1313.57,-49.05"/>
<polygon fill="grey" stroke="grey" stroke-width="2" points="1314.19,-52.5 1323.67,-47.78 1313.32,-45.56 1314.19,-52.5"/>
</g>
<!-- 27 -->
<g id="node16" class="node">
<title>27</title>
<path fill="none" stroke="#97d856" stroke-width="2" d="M668,-121C668,-121 580,-121 580,-121 574,-121 568,-115 568,-109 568,-109 568,-97 568,-97 568,-91 574,-85 580,-85 580,-85 668,-85 668,-85 674,-85 680,-91 680,-97 680,-97 680,-109 680,-109 680,-115 674,-121 668,-121"/>
<text text-anchor="middle" x="624" y="-100.5" font-family="sans" font-size="10.00">equivolume_coords</text>
</g>
<!-- 27&#45;&gt;86 -->
<g id="edge23" class="edge">
<title>27&#45;&gt;86</title>
<path fill="none" stroke="grey" stroke-width="2" d="M680.21,-86.49C683.17,-85.93 686.12,-85.42 689,-85 1119.56,-21.62 1238.11,-102.4 1673.66,-49.04"/>
<polygon fill="grey" stroke="grey" stroke-width="2" points="1674.18,-52.5 1683.68,-47.79 1673.32,-45.55 1674.18,-52.5"/>
</g>
<!-- 60 -->
<g id="node17" class="node">
<title>60</title>
<path fill="none" stroke="#80d856" stroke-width="2" d="M120,-121C120,-121 12,-121 12,-121 6,-121 0,-115 0,-109 0,-109 0,-97 0,-97 0,-91 6,-85 12,-85 12,-85 120,-85 120,-85 126,-85 132,-91 132,-97 132,-97 132,-109 132,-109 132,-115 126,-121 120,-121"/>
<text text-anchor="middle" x="66" y="-100.5" font-family="sans" font-size="10.00">laplace_coords_dentate</text>
</g>
<!-- 60&#45;&gt;79 -->
<g id="edge24" class="edge">
<title>60&#45;&gt;79</title>
<path fill="none" stroke="grey" stroke-width="2" d="M132.15,-86.4C135.13,-85.89 138.09,-85.42 141,-85 436.21,-42.76 790.16,-32.65 953.8,-30.24"/>
<polygon fill="grey" stroke="grey" stroke-width="2" points="953.88,-33.74 963.83,-30.1 953.78,-26.74 953.88,-33.74"/>
</g>
<!-- 62 -->
<g id="node18" class="node">
<title>62</title>
<path fill="none" stroke="#80d856" stroke-width="2" d="M538,-121C538,-121 430,-121 430,-121 424,-121 418,-115 418,-109 418,-109 418,-97 418,-97 418,-91 424,-85 430,-85 430,-85 538,-85 538,-85 544,-85 550,-91 550,-97 550,-97 550,-109 550,-109 550,-115 544,-121 538,-121"/>
<text text-anchor="middle" x="484" y="-100.5" font-family="sans" font-size="10.00">laplace_coords_dentate</text>
</g>
<!-- 62&#45;&gt;81 -->
<g id="edge25" class="edge">
<title>62&#45;&gt;81</title>
<path fill="none" stroke="grey" stroke-width="2" d="M550.13,-86.31C553.12,-85.83 556.09,-85.38 559,-85 968.43,-31.19 1080.19,-100.15 1493.54,-49.06"/>
<polygon fill="grey" stroke="grey" stroke-width="2" points="1494.19,-52.5 1503.68,-47.79 1493.32,-45.56 1494.19,-52.5"/>
</g>
<!-- 64 -->
<g id="node19" class="node">
<title>64</title>
<path fill="none" stroke="#80d856" stroke-width="2" d="M952,-121C952,-121 844,-121 844,-121 838,-121 832,-115 832,-109 832,-109 832,-97 832,-97 832,-91 838,-85 844,-85 844,-85 952,-85 952,-85 958,-85 964,-91 964,-97 964,-97 964,-109 964,-109 964,-115 958,-121 952,-121"/>
<text text-anchor="middle" x="898" y="-100.5" font-family="sans" font-size="10.00">laplace_coords_dentate</text>
</g>
<!-- 64&#45;&gt;85 -->
<g id="edge26" class="edge">
<title>64&#45;&gt;85</title>
<path fill="none" stroke="grey" stroke-width="2" d="M964.26,-85.55C965.51,-85.35 966.76,-85.17 968,-85 1434.78,-21.13 1562.32,-106.25 2033.54,-49.05"/>
<polygon fill="grey" stroke="grey" stroke-width="2" points="2034.18,-52.5 2043.68,-47.8 2033.32,-45.55 2034.18,-52.5"/>
</g>
<!-- 74 -->
<g id="node20" class="node">
<title>74</title>
<path fill="none" stroke="#c6d856" stroke-width="2" d="M2938,-121C2938,-121 2756,-121 2756,-121 2750,-121 2744,-115 2744,-109 2744,-109 2744,-97 2744,-97 2744,-91 2750,-85 2756,-85 2756,-85 2938,-85 2938,-85 2944,-85 2950,-91 2950,-97 2950,-97 2950,-109 2950,-109 2950,-115 2944,-121 2938,-121"/>
<text text-anchor="middle" x="2847" y="-100.5" font-family="sans" font-size="10.00">combine_tissue_subfield_labels_corobl</text>
</g>
<!-- 74&#45;&gt;73 -->
<g id="edge27" class="edge">
<title>74&#45;&gt;73</title>
<path fill="none" stroke="grey" stroke-width="2" d="M2743.89,-86.18C2740.89,-85.78 2737.93,-85.38 2735,-85 2589.58,-65.99 2551.9,-71.62 2407,-49 2405.48,-48.76 2403.94,-48.52 2402.4,-48.26"/>
<polygon fill="grey" stroke="grey" stroke-width="2" points="2402.53,-44.74 2392.09,-46.51 2401.36,-51.64 2402.53,-44.74"/>
</g>
<!-- 74&#45;&gt;77 -->
<g id="edge28" class="edge">
<title>74&#45;&gt;77</title>
<path fill="none" stroke="grey" stroke-width="2" d="M2824.25,-84.82C2811.58,-75.25 2795.62,-63.2 2781.84,-52.79"/>
<polygon fill="grey" stroke="grey" stroke-width="2" points="2783.68,-49.79 2773.59,-46.56 2779.46,-55.38 2783.68,-49.79"/>
</g>
<!-- 83 -->
<g id="node21" class="node">
<title>83</title>
<path fill="none" stroke="#97d856" stroke-width="2" d="M254,-121C254,-121 162,-121 162,-121 156,-121 150,-115 150,-109 150,-109 150,-97 150,-97 150,-91 156,-85 162,-85 162,-85 254,-85 254,-85 260,-85 266,-91 266,-97 266,-97 266,-109 266,-109 266,-115 260,-121 254,-121"/>
<text text-anchor="middle" x="208" y="-100.5" font-family="sans" font-size="10.00">laplace_coords_hipp</text>
</g>
<!-- 83&#45;&gt;82 -->
<g id="edge30" class="edge">
<title>83&#45;&gt;82</title>
<path fill="none" stroke="grey" stroke-width="2" d="M266.32,-86.45C269.25,-85.9 272.15,-85.42 275,-85 650.21,-30.15 753.74,-96.5 1133.51,-49.06"/>
<polygon fill="grey" stroke="grey" stroke-width="2" points="1134.19,-52.5 1143.67,-47.77 1133.31,-45.56 1134.19,-52.5"/>
</g>
</g>
</svg>
