<?xml version="1.0" encoding="UTF-8" standalone="no"?>
<!DOCTYPE svg PUBLIC "-//W3C//DTD SVG 1.1//EN"
 "http://www.w3.org/Graphics/SVG/1.1/DTD/svg11.dtd">
<!-- Generated by graphviz version 2.43.0 (0)
 -->
<!-- Pages: 1 -->
<svg width="1600pt" height="304pt"
 viewBox="0.00 0.00 1600.00 304.00" xmlns="http://www.w3.org/2000/svg" xmlns:xlink="http://www.w3.org/1999/xlink">
<g id="graph0" class="graph" transform="scale(1 1) rotate(0) translate(4 300)">
<polygon fill="white" stroke="transparent" points="-4,4 -4,-300 1596,-300 1596,4 -4,4"/>
<g id="clust1" class="cluster">
<title>cluster_0</title>
<polygon fill="white" stroke="blue" points="170,-8 170,-288 1008,-288 1008,-8 170,-8"/>
<text text-anchor="middle" x="589" y="-272.8" font-family="Times,serif" font-size="14.00">warps</text>
</g>
<!-- 7 -->
<g id="node1" class="node">
<title>7</title>
<path fill="none" stroke="#d87556" stroke-width="2" d="M457,-116C457,-116 373,-116 373,-116 367,-116 361,-110 361,-104 361,-104 361,-92 361,-92 361,-86 367,-80 373,-80 373,-80 457,-80 457,-80 463,-80 469,-86 469,-92 469,-92 469,-104 469,-104 469,-110 463,-116 457,-116"/>
<text text-anchor="middle" x="415" y="-95.5" font-family="sans" font-size="10.00">create_warps_hipp</text>
</g>
<!-- 87 -->
<g id="node2" class="node">
<title>87</title>
<path fill="none" stroke="#5682d8" stroke-width="2" d="M340,-44C340,-44 182,-44 182,-44 176,-44 170,-38 170,-32 170,-32 170,-20 170,-20 170,-14 176,-8 182,-8 182,-8 340,-8 340,-8 346,-8 352,-14 352,-20 352,-20 352,-32 352,-32 352,-38 346,-44 340,-44"/>
<text text-anchor="middle" x="261" y="-29" font-family="sans" font-size="10.00">compose_warps_native_to_unfold</text>
<text text-anchor="middle" x="261" y="-18" font-family="sans" font-size="10.00">native_modality: T1w</text>
</g>
<!-- 7&#45;&gt;87 -->
<g id="edge1" class="edge">
<title>7&#45;&gt;87</title>
<path fill="none" stroke="grey" stroke-width="2" d="M377.33,-79.88C356.37,-70.35 330.1,-58.41 307.82,-48.28"/>
<polygon fill="grey" stroke="grey" stroke-width="2" points="309.1,-45.02 298.55,-44.07 306.21,-51.39 309.1,-45.02"/>
</g>
<!-- 89 -->
<g id="node3" class="node">
<title>89</title>
<path fill="none" stroke="#56d8a2" stroke-width="2" d="M567.5,-44C567.5,-44 382.5,-44 382.5,-44 376.5,-44 370.5,-38 370.5,-32 370.5,-32 370.5,-20 370.5,-20 370.5,-14 376.5,-8 382.5,-8 382.5,-8 567.5,-8 567.5,-8 573.5,-8 579.5,-14 579.5,-20 579.5,-20 579.5,-32 579.5,-32 579.5,-38 573.5,-44 567.5,-44"/>
<text text-anchor="middle" x="475" y="-23.5" font-family="sans" font-size="10.00">compose_warps_unfold_to_crop_native</text>
</g>
<!-- 7&#45;&gt;89 -->
<g id="edge2" class="edge">
<title>7&#45;&gt;89</title>
<path fill="none" stroke="grey" stroke-width="2" d="M429.83,-79.7C437.02,-71.3 445.8,-61.07 453.69,-51.86"/>
<polygon fill="grey" stroke="grey" stroke-width="2" points="456.49,-53.97 460.34,-44.1 451.17,-49.42 456.49,-53.97"/>
</g>
<!-- 8 -->
<g id="node4" class="node">
<title>8</title>
<path fill="none" stroke="#d8bc56" stroke-width="2" d="M427,-265C427,-265 349,-265 349,-265 343,-265 337,-259 337,-253 337,-253 337,-236 337,-236 337,-230 343,-224 349,-224 349,-224 427,-224 427,-224 433,-224 439,-230 439,-236 439,-236 439,-253 439,-253 439,-259 433,-265 427,-265"/>
<text text-anchor="middle" x="388" y="-253" font-family="sans" font-size="10.00">create_unfold_ref</text>
<text text-anchor="middle" x="388" y="-242" font-family="sans" font-size="10.00">autotop: hipp</text>
<text text-anchor="middle" x="388" y="-231" font-family="sans" font-size="10.00">subject: 001</text>
</g>
<!-- 8&#45;&gt;7 -->
<g id="edge3" class="edge">
<title>8&#45;&gt;7</title>
<path fill="none" stroke="grey" stroke-width="2" d="M371.73,-223.89C358.25,-205.14 342.96,-176.21 354,-152 359.23,-140.53 368.3,-130.58 377.87,-122.5"/>
<polygon fill="grey" stroke="grey" stroke-width="2" points="380.25,-125.09 385.96,-116.16 375.93,-119.58 380.25,-125.09"/>
</g>
<!-- 8&#45;&gt;87 -->
<g id="edge5" class="edge">
<title>8&#45;&gt;87</title>
<path fill="none" stroke="grey" stroke-width="2" d="M371.83,-223.77C363.66,-213.41 353.85,-200.33 346,-188 317.09,-142.57 289.01,-86.3 273.46,-53.74"/>
<polygon fill="grey" stroke="grey" stroke-width="2" points="276.5,-51.97 269.05,-44.43 270.17,-54.97 276.5,-51.97"/>
</g>
<!-- 8&#45;&gt;89 -->
<g id="edge6" class="edge">
<title>8&#45;&gt;89</title>
<path fill="none" stroke="grey" stroke-width="2" d="M439.18,-234.99C466.63,-227.54 498.2,-213.67 515,-188 542.39,-146.14 514.21,-86.98 493.25,-53.26"/>
<polygon fill="grey" stroke="grey" stroke-width="2" points="495.94,-50.97 487.58,-44.46 490.05,-54.76 495.94,-50.97"/>
</g>
<!-- 9 -->
<g id="node5" class="node">
<title>9</title>
<path fill="none" stroke="#88d856" stroke-width="2" d="M493.5,-188C493.5,-188 374.5,-188 374.5,-188 368.5,-188 362.5,-182 362.5,-176 362.5,-176 362.5,-164 362.5,-164 362.5,-158 368.5,-152 374.5,-152 374.5,-152 493.5,-152 493.5,-152 499.5,-152 505.5,-158 505.5,-164 505.5,-164 505.5,-176 505.5,-176 505.5,-182 499.5,-188 493.5,-188"/>
<text text-anchor="middle" x="434" y="-167.5" font-family="sans" font-size="10.00">create_unfold_coord_map</text>
</g>
<!-- 8&#45;&gt;9 -->
<g id="edge4" class="edge">
<title>8&#45;&gt;9</title>
<path fill="none" stroke="grey" stroke-width="2" d="M400.57,-223.69C405.84,-215.39 412.03,-205.63 417.64,-196.78"/>
<polygon fill="grey" stroke="grey" stroke-width="2" points="420.61,-198.64 423.01,-188.32 414.7,-194.89 420.61,-198.64"/>
</g>
<!-- 9&#45;&gt;7 -->
<g id="edge7" class="edge">
<title>9&#45;&gt;7</title>
<path fill="none" stroke="grey" stroke-width="2" d="M429.3,-151.7C427.19,-143.9 424.64,-134.51 422.28,-125.83"/>
<polygon fill="grey" stroke="grey" stroke-width="2" points="425.64,-124.84 419.64,-116.1 418.88,-126.67 425.64,-124.84"/>
</g>
<!-- 29 -->
<g id="node6" class="node">
<title>29</title>
<path fill="none" stroke="#56d873" stroke-width="2" d="M292,-188C292,-188 182,-188 182,-188 176,-188 170,-182 170,-176 170,-176 170,-164 170,-164 170,-158 176,-152 182,-152 182,-152 292,-152 292,-152 298,-152 304,-158 304,-164 304,-164 304,-176 304,-176 304,-182 298,-188 292,-188"/>
<text text-anchor="middle" x="237" y="-173" font-family="sans" font-size="10.00">create_native_coord_ref</text>
<text text-anchor="middle" x="237" y="-162" font-family="sans" font-size="10.00">autotop: hipp</text>
</g>
<!-- 29&#45;&gt;7 -->
<g id="edge8" class="edge">
<title>29&#45;&gt;7</title>
<path fill="none" stroke="grey" stroke-width="2" d="M280.54,-151.88C305.2,-142.18 336.22,-129.98 362.25,-119.74"/>
<polygon fill="grey" stroke="grey" stroke-width="2" points="363.57,-122.99 371.6,-116.07 361.01,-116.47 363.57,-122.99"/>
</g>
<!-- 57 -->
<g id="node7" class="node">
<title>57</title>
<path fill="none" stroke="#ced856" stroke-width="2" d="M963.5,-116C963.5,-116 862.5,-116 862.5,-116 856.5,-116 850.5,-110 850.5,-104 850.5,-104 850.5,-92 850.5,-92 850.5,-86 856.5,-80 862.5,-80 862.5,-80 963.5,-80 963.5,-80 969.5,-80 975.5,-86 975.5,-92 975.5,-92 975.5,-104 975.5,-104 975.5,-110 969.5,-116 963.5,-116"/>
<text text-anchor="middle" x="913" y="-95.5" font-family="sans" font-size="10.00">create_warps_dentate</text>
</g>
<!-- 88 -->
<g id="node8" class="node">
<title>88</title>
<path fill="none" stroke="#5682d8" stroke-width="2" d="M768,-44C768,-44 610,-44 610,-44 604,-44 598,-38 598,-32 598,-32 598,-20 598,-20 598,-14 604,-8 610,-8 610,-8 768,-8 768,-8 774,-8 780,-14 780,-20 780,-20 780,-32 780,-32 780,-38 774,-44 768,-44"/>
<text text-anchor="middle" x="689" y="-29" font-family="sans" font-size="10.00">compose_warps_native_to_unfold</text>
<text text-anchor="middle" x="689" y="-18" font-family="sans" font-size="10.00">native_modality: T1w</text>
</g>
<!-- 57&#45;&gt;88 -->
<g id="edge9" class="edge">
<title>57&#45;&gt;88</title>
<path fill="none" stroke="grey" stroke-width="2" d="M858.49,-79.97C826.78,-70.06 786.64,-57.51 753.39,-47.12"/>
<polygon fill="grey" stroke="grey" stroke-width="2" points="754.34,-43.75 743.75,-44.11 752.26,-50.43 754.34,-43.75"/>
</g>
<!-- 90 -->
<g id="node9" class="node">
<title>90</title>
<path fill="none" stroke="#56d8a2" stroke-width="2" d="M995.5,-44C995.5,-44 810.5,-44 810.5,-44 804.5,-44 798.5,-38 798.5,-32 798.5,-32 798.5,-20 798.5,-20 798.5,-14 804.5,-8 810.5,-8 810.5,-8 995.5,-8 995.5,-8 1001.5,-8 1007.5,-14 1007.5,-20 1007.5,-20 1007.5,-32 1007.5,-32 1007.5,-38 1001.5,-44 995.5,-44"/>
<text text-anchor="middle" x="903" y="-23.5" font-family="sans" font-size="10.00">compose_warps_unfold_to_crop_native</text>
</g>
<!-- 57&#45;&gt;90 -->
<g id="edge10" class="edge">
<title>57&#45;&gt;90</title>
<path fill="none" stroke="grey" stroke-width="2" d="M910.53,-79.7C909.43,-71.98 908.1,-62.71 906.87,-54.11"/>
<polygon fill="grey" stroke="grey" stroke-width="2" points="910.32,-53.51 905.44,-44.1 903.39,-54.5 910.32,-53.51"/>
</g>
<!-- 58 -->
<g id="node10" class="node">
<title>58</title>
<path fill="none" stroke="#d8bc56" stroke-width="2" d="M704,-265C704,-265 626,-265 626,-265 620,-265 614,-259 614,-253 614,-253 614,-236 614,-236 614,-230 620,-224 626,-224 626,-224 704,-224 704,-224 710,-224 716,-230 716,-236 716,-236 716,-253 716,-253 716,-259 710,-265 704,-265"/>
<text text-anchor="middle" x="665" y="-253" font-family="sans" font-size="10.00">create_unfold_ref</text>
<text text-anchor="middle" x="665" y="-242" font-family="sans" font-size="10.00">autotop: dentate</text>
<text text-anchor="middle" x="665" y="-231" font-family="sans" font-size="10.00">subject: 001</text>
</g>
<!-- 58&#45;&gt;57 -->
<g id="edge11" class="edge">
<title>58&#45;&gt;57</title>
<path fill="none" stroke="grey" stroke-width="2" d="M663.88,-223.88C663.82,-203.16 667.14,-170.94 686,-152 707.49,-130.43 782.14,-115.91 840.03,-107.6"/>
<polygon fill="grey" stroke="grey" stroke-width="2" points="840.84,-111.02 850.26,-106.17 839.87,-104.09 840.84,-111.02"/>
</g>
<!-- 58&#45;&gt;88 -->
<g id="edge13" class="edge">
<title>58&#45;&gt;88</title>
<path fill="none" stroke="grey" stroke-width="2" d="M658.23,-223.8C648.55,-192.49 633.64,-129.83 650,-80 653.31,-69.91 659.37,-60.15 665.73,-51.82"/>
<polygon fill="grey" stroke="grey" stroke-width="2" points="668.5,-53.97 672.11,-44.01 663.08,-49.54 668.5,-53.97"/>
</g>
<!-- 58&#45;&gt;90 -->
<g id="edge14" class="edge">
<title>58&#45;&gt;90</title>
<path fill="none" stroke="grey" stroke-width="2" d="M658.8,-223.72C653.89,-204.04 649.81,-173.74 663,-152 696.5,-96.77 763.25,-64.81 817.87,-47.06"/>
<polygon fill="grey" stroke="grey" stroke-width="2" points="819.07,-50.35 827.56,-44.01 816.97,-43.67 819.07,-50.35"/>
</g>
<!-- 59 -->
<g id="node11" class="node">
<title>59</title>
<path fill="none" stroke="#88d856" stroke-width="2" d="M825.5,-188C825.5,-188 706.5,-188 706.5,-188 700.5,-188 694.5,-182 694.5,-176 694.5,-176 694.5,-164 694.5,-164 694.5,-158 700.5,-152 706.5,-152 706.5,-152 825.5,-152 825.5,-152 831.5,-152 837.5,-158 837.5,-164 837.5,-164 837.5,-176 837.5,-176 837.5,-182 831.5,-188 825.5,-188"/>
<text text-anchor="middle" x="766" y="-167.5" font-family="sans" font-size="10.00">create_unfold_coord_map</text>
</g>
<!-- 58&#45;&gt;59 -->
<g id="edge12" class="edge">
<title>58&#45;&gt;59</title>
<path fill="none" stroke="grey" stroke-width="2" d="M692.33,-223.88C705.08,-214.73 720.34,-203.77 733.66,-194.21"/>
<polygon fill="grey" stroke="grey" stroke-width="2" points="736,-196.84 742.09,-188.17 731.92,-191.15 736,-196.84"/>
</g>
<!-- 59&#45;&gt;57 -->
<g id="edge15" class="edge">
<title>59&#45;&gt;57</title>
<path fill="none" stroke="grey" stroke-width="2" d="M801.96,-151.88C821.88,-142.39 846.82,-130.51 868.02,-120.42"/>
<polygon fill="grey" stroke="grey" stroke-width="2" points="869.63,-123.53 877.16,-116.07 866.62,-117.21 869.63,-123.53"/>
</g>
<!-- 66 -->
<g id="node12" class="node">
<title>66</title>
<path fill="none" stroke="#56d873" stroke-width="2" d="M978,-188C978,-188 868,-188 868,-188 862,-188 856,-182 856,-176 856,-176 856,-164 856,-164 856,-158 862,-152 868,-152 868,-152 978,-152 978,-152 984,-152 990,-158 990,-164 990,-164 990,-176 990,-176 990,-182 984,-188 978,-188"/>
<text text-anchor="middle" x="923" y="-173" font-family="sans" font-size="10.00">create_native_coord_ref</text>
<text text-anchor="middle" x="923" y="-162" font-family="sans" font-size="10.00">autotop: dentate</text>
</g>
<!-- 66&#45;&gt;57 -->
<g id="edge16" class="edge">
<title>66&#45;&gt;57</title>
<path fill="none" stroke="grey" stroke-width="2" d="M920.53,-151.7C919.43,-143.98 918.1,-134.71 916.87,-126.11"/>
<polygon fill="grey" stroke="grey" stroke-width="2" points="920.32,-125.51 915.44,-116.1 913.39,-126.5 920.32,-125.51"/>
</g>
<!-- 10 -->
<g id="node13" class="node">
<title>10</title>
<path fill="none" stroke="#97d856" stroke-width="2" d="M158,-262.5C158,-262.5 66,-262.5 66,-262.5 60,-262.5 54,-256.5 54,-250.5 54,-250.5 54,-238.5 54,-238.5 54,-232.5 60,-226.5 66,-226.5 66,-226.5 158,-226.5 158,-226.5 164,-226.5 170,-232.5 170,-238.5 170,-238.5 170,-250.5 170,-250.5 170,-256.5 164,-262.5 158,-262.5"/>
<text text-anchor="middle" x="112" y="-242" font-family="sans" font-size="10.00">laplace_coords_hipp</text>
</g>
<!-- 10&#45;&gt;7 -->
<g id="edge17" class="edge">
<title>10&#45;&gt;7</title>
<path fill="none" stroke="grey" stroke-width="2" d="M116.35,-226.41C122.6,-205.49 136.18,-170.57 161,-152 190.44,-129.97 285.64,-114.48 350.75,-106.15"/>
<polygon fill="grey" stroke="grey" stroke-width="2" points="351.44,-109.59 360.92,-104.88 350.57,-102.65 351.44,-109.59"/>
</g>
<!-- 10&#45;&gt;29 -->
<g id="edge18" class="edge">
<title>10&#45;&gt;29</title>
<path fill="none" stroke="grey" stroke-width="2" d="M141.62,-226.32C158.75,-216.39 180.47,-203.79 198.86,-193.12"/>
<polygon fill="grey" stroke="grey" stroke-width="2" points="200.7,-196.1 207.59,-188.06 197.18,-190.05 200.7,-196.1"/>
</g>
<!-- 18 -->
<g id="node14" class="node">
<title>18</title>
<path fill="none" stroke="#566bd8" stroke-width="2" d="M158,-116C158,-116 12,-116 12,-116 6,-116 0,-110 0,-104 0,-104 0,-92 0,-92 0,-86 6,-80 12,-80 12,-80 158,-80 158,-80 164,-80 170,-86 170,-92 170,-92 170,-104 170,-104 170,-110 164,-116 158,-116"/>
<text text-anchor="middle" x="85" y="-95.5" font-family="sans" font-size="10.00">compose_template_xfm_corobl</text>
</g>
<!-- 18&#45;&gt;87 -->
<g id="edge19" class="edge">
<title>18&#45;&gt;87</title>
<path fill="none" stroke="grey" stroke-width="2" d="M128.05,-79.88C152.33,-70.22 182.84,-58.09 208.51,-47.88"/>
<polygon fill="grey" stroke="grey" stroke-width="2" points="210.09,-51.02 218.09,-44.07 207.5,-44.51 210.09,-51.02"/>
</g>
<!-- 18&#45;&gt;89 -->
<g id="edge21" class="edge">
<title>18&#45;&gt;89</title>
<path fill="none" stroke="grey" stroke-width="2" d="M170.26,-80.69C171.51,-80.46 172.76,-80.23 174,-80 237.63,-68.32 308.93,-55.74 366.16,-45.77"/>
<polygon fill="grey" stroke="grey" stroke-width="2" points="367.06,-49.17 376.31,-44.01 365.86,-42.27 367.06,-49.17"/>
</g>
<!-- 18&#45;&gt;88 -->
<g id="edge20" class="edge">
<title>18&#45;&gt;88</title>
<path fill="none" stroke="grey" stroke-width="2" d="M170.24,-80.53C171.5,-80.35 172.75,-80.17 174,-80 354.16,-55.05 403.64,-67.09 587.75,-44.1"/>
<polygon fill="grey" stroke="grey" stroke-width="2" points="588.28,-47.56 597.76,-42.83 587.4,-40.61 588.28,-47.56"/>
</g>
<!-- 18&#45;&gt;90 -->
<g id="edge22" class="edge">
<title>18&#45;&gt;90</title>
<path fill="none" stroke="grey" stroke-width="2" d="M170.23,-80.49C171.49,-80.32 172.75,-80.16 174,-80 442.4,-46.66 514.89,-71.59 788.15,-44.02"/>
<polygon fill="grey" stroke="grey" stroke-width="2" points="788.78,-47.47 798.37,-42.97 788.07,-40.51 788.78,-47.47"/>
</g>
<!-- 25 -->
<g id="node15" class="node">
<title>25</title>
<path fill="none" stroke="#97d856" stroke-width="2" d="M1112,-188C1112,-188 1020,-188 1020,-188 1014,-188 1008,-182 1008,-176 1008,-176 1008,-164 1008,-164 1008,-158 1014,-152 1020,-152 1020,-152 1112,-152 1112,-152 1118,-152 1124,-158 1124,-164 1124,-164 1124,-176 1124,-176 1124,-182 1118,-188 1112,-188"/>
<text text-anchor="middle" x="1066" y="-167.5" font-family="sans" font-size="10.00">laplace_coords_hipp</text>
</g>
<!-- 25&#45;&gt;7 -->
<g id="edge23" class="edge">
<title>25&#45;&gt;7</title>
<path fill="none" stroke="grey" stroke-width="2" d="M1007.99,-152.76C1006.65,-152.49 1005.32,-152.24 1004,-152 815.1,-117.88 587.95,-105.33 479.18,-101.04"/>
<polygon fill="grey" stroke="grey" stroke-width="2" points="479.15,-97.54 469.03,-100.65 478.89,-104.53 479.15,-97.54"/>
</g>
<!-- 27 -->
<g id="node16" class="node">
<title>27</title>
<path fill="none" stroke="#97d856" stroke-width="2" d="M1242,-188C1242,-188 1154,-188 1154,-188 1148,-188 1142,-182 1142,-176 1142,-176 1142,-164 1142,-164 1142,-158 1148,-152 1154,-152 1154,-152 1242,-152 1242,-152 1248,-152 1254,-158 1254,-164 1254,-164 1254,-176 1254,-176 1254,-182 1248,-188 1242,-188"/>
<text text-anchor="middle" x="1198" y="-167.5" font-family="sans" font-size="10.00">equivolume_coords</text>
</g>
<!-- 27&#45;&gt;7 -->
<g id="edge24" class="edge">
<title>27&#45;&gt;7</title>
<path fill="none" stroke="grey" stroke-width="2" d="M1141.77,-153.62C1138.81,-153.03 1135.88,-152.48 1133,-152 894.34,-112.32 606.12,-102.35 479.71,-99.84"/>
<polygon fill="grey" stroke="grey" stroke-width="2" points="479.51,-96.34 469.44,-99.65 479.37,-103.33 479.51,-96.34"/>
</g>
<!-- 60 -->
<g id="node17" class="node">
<title>60</title>
<path fill="none" stroke="#80d856" stroke-width="2" d="M1307,-262.5C1307,-262.5 1199,-262.5 1199,-262.5 1193,-262.5 1187,-256.5 1187,-250.5 1187,-250.5 1187,-238.5 1187,-238.5 1187,-232.5 1193,-226.5 1199,-226.5 1199,-226.5 1307,-226.5 1307,-226.5 1313,-226.5 1319,-232.5 1319,-238.5 1319,-238.5 1319,-250.5 1319,-250.5 1319,-256.5 1313,-262.5 1307,-262.5"/>
<text text-anchor="middle" x="1253" y="-242" font-family="sans" font-size="10.00">laplace_coords_dentate</text>
</g>
<!-- 60&#45;&gt;57 -->
<g id="edge25" class="edge">
<title>60&#45;&gt;57</title>
<path fill="none" stroke="grey" stroke-width="2" d="M1319.04,-230.27C1377.11,-215.8 1447.44,-189.56 1413,-152 1381.8,-117.97 1044.72,-122.49 999,-116 994.64,-115.38 990.18,-114.69 985.68,-113.94"/>
<polygon fill="grey" stroke="grey" stroke-width="2" points="986.25,-110.49 975.8,-112.23 985.06,-117.39 986.25,-110.49"/>
</g>
<!-- 60&#45;&gt;66 -->
<g id="edge26" class="edge">
<title>60&#45;&gt;66</title>
<path fill="none" stroke="grey" stroke-width="2" d="M1186.93,-229.16C1137.96,-218.5 1069.3,-203.52 999.92,-188.2"/>
<polygon fill="grey" stroke="grey" stroke-width="2" points="1000.65,-184.78 990.13,-186.04 999.14,-191.61 1000.65,-184.78"/>
</g>
<!-- 62 -->
<g id="node18" class="node">
<title>62</title>
<path fill="none" stroke="#80d856" stroke-width="2" d="M1580,-188C1580,-188 1472,-188 1472,-188 1466,-188 1460,-182 1460,-176 1460,-176 1460,-164 1460,-164 1460,-158 1466,-152 1472,-152 1472,-152 1580,-152 1580,-152 1586,-152 1592,-158 1592,-164 1592,-164 1592,-176 1592,-176 1592,-182 1586,-188 1580,-188"/>
<text text-anchor="middle" x="1526" y="-167.5" font-family="sans" font-size="10.00">laplace_coords_dentate</text>
</g>
<!-- 62&#45;&gt;57 -->
<g id="edge27" class="edge">
<title>62&#45;&gt;57</title>
<path fill="none" stroke="grey" stroke-width="2" d="M1459.76,-154.24C1455.12,-153.41 1450.5,-152.66 1446,-152 1248.78,-123.23 1196.42,-143.37 999,-116 994.64,-115.4 990.17,-114.71 985.67,-113.97"/>
<polygon fill="grey" stroke="grey" stroke-width="2" points="986.25,-110.52 975.8,-112.28 985.06,-117.42 986.25,-110.52"/>
</g>
<!-- 64 -->
<g id="node19" class="node">
<title>64</title>
<path fill="none" stroke="#80d856" stroke-width="2" d="M1392,-188C1392,-188 1284,-188 1284,-188 1278,-188 1272,-182 1272,-176 1272,-176 1272,-164 1272,-164 1272,-158 1278,-152 1284,-152 1284,-152 1392,-152 1392,-152 1398,-152 1404,-158 1404,-164 1404,-164 1404,-176 1404,-176 1404,-182 1398,-188 1392,-188"/>
<text text-anchor="middle" x="1338" y="-167.5" font-family="sans" font-size="10.00">laplace_coords_dentate</text>
</g>
<!-- 64&#45;&gt;57 -->
<g id="edge28" class="edge">
<title>64&#45;&gt;57</title>
<path fill="none" stroke="grey" stroke-width="2" d="M1271.81,-153.67C1268.84,-153.08 1265.89,-152.52 1263,-152 1146.48,-130.89 1115.8,-135.49 999,-116 994.66,-115.28 990.2,-114.5 985.71,-113.69"/>
<polygon fill="grey" stroke="grey" stroke-width="2" points="986.33,-110.24 975.86,-111.87 985.06,-117.13 986.33,-110.24"/>
</g>
<!-- 76 -->
<g id="node20" class="node">
<title>76</title>
<path fill="none" stroke="#68d856" stroke-width="2" d="M1124,-116C1124,-116 1020,-116 1020,-116 1014,-116 1008,-110 1008,-104 1008,-104 1008,-92 1008,-92 1008,-86 1014,-80 1020,-80 1020,-80 1124,-80 1124,-80 1130,-80 1136,-86 1136,-92 1136,-92 1136,-104 1136,-104 1136,-110 1130,-116 1124,-116"/>
<text text-anchor="middle" x="1072" y="-95.5" font-family="sans" font-size="10.00">create_native_crop_ref</text>
</g>
<!-- 76&#45;&gt;89 -->
<g id="edge29" class="edge">
<title>76&#45;&gt;89</title>
<path fill="none" stroke="grey" stroke-width="2" d="M1007.99,-80.7C1006.65,-80.45 1005.32,-80.22 1004,-80 824.61,-49.99 774.61,-65.11 589.7,-44.03"/>
<polygon fill="grey" stroke="grey" stroke-width="2" points="589.98,-40.54 579.64,-42.86 589.17,-47.49 589.98,-40.54"/>
</g>
<!-- 76&#45;&gt;90 -->
<g id="edge30" class="edge">
<title>76&#45;&gt;90</title>
<path fill="none" stroke="grey" stroke-width="2" d="M1030.66,-79.88C1007.45,-70.26 978.31,-58.19 953.73,-48.01"/>
<polygon fill="grey" stroke="grey" stroke-width="2" points="954.79,-44.66 944.21,-44.07 952.11,-51.13 954.79,-44.66"/>
</g>
</g>
</svg>
