<?xml version="1.0" encoding="UTF-8" standalone="no"?>
<!DOCTYPE svg PUBLIC "-//W3C//DTD SVG 1.1//EN"
 "http://www.w3.org/Graphics/SVG/1.1/DTD/svg11.dtd">
<!-- Generated by graphviz version 2.43.0 (0)
 -->
<!-- Pages: 1 -->
<svg width="3114pt" height="1336pt"
 viewBox="0.00 0.00 3114.08 1336.00" xmlns="http://www.w3.org/2000/svg" xmlns:xlink="http://www.w3.org/1999/xlink">
<g id="graph0" class="graph" transform="scale(1 1) rotate(0) translate(4 1332)">
<polygon fill="white" stroke="transparent" points="-4,4 -4,-1332 3110.08,-1332 3110.08,4 -4,4"/>
<g id="clust1" class="cluster">
<title>cluster_1</title>
<polygon fill="white" stroke="blue" points="1870,-898.5 1870,-1320 2145,-1320 2145,-898.5 1870,-898.5"/>
<text text-anchor="middle" x="2007.5" y="-1304.8" font-family="Times,serif" font-size="14.00">preproc_t1</text>
</g>
<g id="clust4" class="cluster">
<title>cluster_2</title>
<polygon fill="white" stroke="blue" points="728,-383 728,-717.5 1138,-717.5 1138,-383 728,-383"/>
<text text-anchor="middle" x="933" y="-702.3" font-family="Times,serif" font-size="14.00">warps</text>
</g>
<g id="clust5" class="cluster">
<title>cluster_3</title>
<polygon fill="white" stroke="blue" points="1980,-234 1980,-293 2326,-293 2326,-234 1980,-234"/>
<text text-anchor="middle" x="2153" y="-277.8" font-family="Times,serif" font-size="14.00">qc</text>
</g>
<g id="clust6" class="cluster">
<title>cluster_5</title>
<polygon fill="white" stroke="blue" points="1138,-546 1138,-715 1680,-715 1680,-546 1138,-546"/>
<text text-anchor="middle" x="1409" y="-699.8" font-family="Times,serif" font-size="14.00">autotop</text>
</g>
<g id="clust10" class="cluster">
<title>cluster_9</title>
<polygon fill="white" stroke="blue" points="8,-8 8,-734 728,-734 728,-8 8,-8"/>
<text text-anchor="middle" x="368" y="-718.8" font-family="Times,serif" font-size="14.00">gifti</text>
</g>
<g id="clust11" class="cluster">
<title>cluster_11</title>
<polygon fill="white" stroke="blue" points="1660,-308.5 1660,-514 1872,-514 1872,-308.5 1660,-308.5"/>
<text text-anchor="middle" x="1766" y="-498.8" font-family="Times,serif" font-size="14.00">subfields</text>
</g>
<g id="clust12" class="cluster">
<title>cluster_10</title>
<polygon fill="white" stroke="blue" points="944,-747 944,-1104 1684,-1104 1684,-747 944,-747"/>
<text text-anchor="middle" x="1314" y="-1088.8" font-family="Times,serif" font-size="14.00">shape_inject</text>
</g>
<g id="clust13" class="cluster">
<title>cluster_12</title>
<polygon fill="white" stroke="blue" points="1684,-747 1684,-957.5 1776,-957.5 1776,-747 1684,-747"/>
<text text-anchor="middle" x="1730" y="-942.3" font-family="Times,serif" font-size="14.00">nnunet</text>
</g>
<g id="clust14" class="cluster">
<title>cluster_13</title>
<polygon fill="white" stroke="blue" points="2018,-306 2018,-442 3070,-442 3070,-306 2018,-306"/>
<text text-anchor="middle" x="2544" y="-426.8" font-family="Times,serif" font-size="14.00">resample_final_to_crop_native</text>
</g>
<!-- 15 -->
<g id="node1" class="node">
<title>15</title>
<path fill="none" stroke="#56c1d8" stroke-width="2" d="M1990,-934.5C1990,-934.5 1882,-934.5 1882,-934.5 1876,-934.5 1870,-928.5 1870,-922.5 1870,-922.5 1870,-910.5 1870,-910.5 1870,-904.5 1876,-898.5 1882,-898.5 1882,-898.5 1990,-898.5 1990,-898.5 1996,-898.5 2002,-904.5 2002,-910.5 2002,-910.5 2002,-922.5 2002,-922.5 2002,-928.5 1996,-934.5 1990,-934.5"/>
<text text-anchor="middle" x="1936" y="-919.5" font-family="sans" font-size="10.00">warp_t1_to_corobl_crop</text>
<text text-anchor="middle" x="1936" y="-908.5" font-family="sans" font-size="10.00">hemi: R</text>
</g>
<!-- 14 -->
<g id="node60" class="node">
<title>14</title>
<path fill="none" stroke="#5682d8" stroke-width="2" d="M1755.5,-934.5C1755.5,-934.5 1696.5,-934.5 1696.5,-934.5 1690.5,-934.5 1684.5,-928.5 1684.5,-922.5 1684.5,-922.5 1684.5,-910.5 1684.5,-910.5 1684.5,-904.5 1690.5,-898.5 1696.5,-898.5 1696.5,-898.5 1755.5,-898.5 1755.5,-898.5 1761.5,-898.5 1767.5,-904.5 1767.5,-910.5 1767.5,-910.5 1767.5,-922.5 1767.5,-922.5 1767.5,-928.5 1761.5,-934.5 1755.5,-934.5"/>
<text text-anchor="middle" x="1726" y="-914" font-family="sans" font-size="10.00">run_inference</text>
</g>
<!-- 15&#45;&gt;14 -->
<g id="edge92" class="edge">
<title>15&#45;&gt;14</title>
<path fill="none" stroke="grey" stroke-width="2" d="M1869.98,-916.5C1839.39,-916.5 1808.8,-916.5 1778.21,-916.5"/>
<polygon fill="grey" stroke="grey" stroke-width="2" points="1777.84,-913 1767.84,-916.5 1777.84,-920 1777.84,-913"/>
</g>
<!-- 69 -->
<g id="node61" class="node">
<title>69</title>
<path fill="none" stroke="#d87556" stroke-width="2" d="M1764,-857.5C1764,-857.5 1700,-857.5 1700,-857.5 1694,-857.5 1688,-851.5 1688,-845.5 1688,-845.5 1688,-833.5 1688,-833.5 1688,-827.5 1694,-821.5 1700,-821.5 1700,-821.5 1764,-821.5 1764,-821.5 1770,-821.5 1776,-827.5 1776,-833.5 1776,-833.5 1776,-845.5 1776,-845.5 1776,-851.5 1770,-857.5 1764,-857.5"/>
<text text-anchor="middle" x="1732" y="-837" font-family="sans" font-size="10.00">qc_nnunet_f3d</text>
</g>
<!-- 15&#45;&gt;69 -->
<g id="edge93" class="edge">
<title>15&#45;&gt;69</title>
<path fill="none" stroke="grey" stroke-width="2" d="M1889.71,-898.48C1858.81,-887.12 1818.08,-872.15 1785.75,-860.26"/>
<polygon fill="grey" stroke="grey" stroke-width="2" points="1786.6,-856.85 1776.01,-856.68 1784.19,-863.42 1786.6,-856.85"/>
</g>
<!-- 16 -->
<g id="node2" class="node">
<title>16</title>
<path fill="none" stroke="#97d856" stroke-width="2" d="M2117,-1225C2117,-1225 2087,-1225 2087,-1225 2081,-1225 2075,-1219 2075,-1213 2075,-1213 2075,-1201 2075,-1201 2075,-1195 2081,-1189 2087,-1189 2087,-1189 2117,-1189 2117,-1189 2123,-1189 2129,-1195 2129,-1201 2129,-1201 2129,-1213 2129,-1213 2129,-1219 2123,-1225 2117,-1225"/>
<text text-anchor="middle" x="2102" y="-1204.5" font-family="sans" font-size="10.00">n4_t1</text>
</g>
<!-- 16&#45;&gt;15 -->
<g id="edge1" class="edge">
<title>16&#45;&gt;15</title>
<path fill="none" stroke="grey" stroke-width="2" d="M2074.93,-1193.08C2044.02,-1176.84 1994.45,-1145.91 1969,-1104 1938.63,-1053.99 1934.53,-983.4 1934.86,-945"/>
<polygon fill="grey" stroke="grey" stroke-width="2" points="1938.37,-944.69 1935.07,-934.62 1931.37,-944.55 1938.37,-944.69"/>
</g>
<!-- 20 -->
<g id="node3" class="node">
<title>20</title>
<path fill="none" stroke="#d8ac56" stroke-width="2" d="M2133.5,-1153C2133.5,-1153 2060.5,-1153 2060.5,-1153 2054.5,-1153 2048.5,-1147 2048.5,-1141 2048.5,-1141 2048.5,-1129 2048.5,-1129 2048.5,-1123 2054.5,-1117 2060.5,-1117 2060.5,-1117 2133.5,-1117 2133.5,-1117 2139.5,-1117 2145.5,-1123 2145.5,-1129 2145.5,-1129 2145.5,-1141 2145.5,-1141 2145.5,-1147 2139.5,-1153 2133.5,-1153"/>
<text text-anchor="middle" x="2097" y="-1132.5" font-family="sans" font-size="10.00">reg_to_template</text>
</g>
<!-- 16&#45;&gt;20 -->
<g id="edge2" class="edge">
<title>16&#45;&gt;20</title>
<path fill="none" stroke="grey" stroke-width="2" d="M2100.76,-1188.7C2100.21,-1180.98 2099.55,-1171.71 2098.94,-1163.11"/>
<polygon fill="grey" stroke="grey" stroke-width="2" points="2102.43,-1162.83 2098.22,-1153.1 2095.44,-1163.33 2102.43,-1162.83"/>
</g>
<!-- 55 -->
<g id="node49" class="node">
<title>55</title>
<path fill="none" stroke="#70d856" stroke-width="2" d="M1860,-344.5C1860,-344.5 1722,-344.5 1722,-344.5 1716,-344.5 1710,-338.5 1710,-332.5 1710,-332.5 1710,-320.5 1710,-320.5 1710,-314.5 1716,-308.5 1722,-308.5 1722,-308.5 1860,-308.5 1860,-308.5 1866,-308.5 1872,-314.5 1872,-320.5 1872,-320.5 1872,-332.5 1872,-332.5 1872,-338.5 1866,-344.5 1860,-344.5"/>
<text text-anchor="middle" x="1791" y="-329.5" font-family="sans" font-size="10.00">resample_subfields_to_native</text>
<text text-anchor="middle" x="1791" y="-318.5" font-family="sans" font-size="10.00">native_modality: T1w</text>
</g>
<!-- 16&#45;&gt;55 -->
<g id="edge94" class="edge">
<title>16&#45;&gt;55</title>
<path fill="none" stroke="grey" stroke-width="2" d="M2129.02,-1203.08C2223.6,-1192.13 2534,-1149.66 2534,-1064 2534,-1064 2534,-1064 2534,-915.5 2534,-601.43 2239.37,-655.94 1998,-455 1959.16,-422.67 1952.79,-409.89 1910,-383 1889.15,-369.9 1864.71,-357.97 1843.42,-348.56"/>
<polygon fill="grey" stroke="grey" stroke-width="2" points="1844.76,-345.33 1834.2,-344.55 1841.97,-351.75 1844.76,-345.33"/>
</g>
<!-- 64 -->
<g id="node69" class="node">
<title>64</title>
<path fill="none" stroke="#567bd8" stroke-width="2" d="M2518,-344.5C2518,-344.5 2402,-344.5 2402,-344.5 2396,-344.5 2390,-338.5 2390,-332.5 2390,-332.5 2390,-320.5 2390,-320.5 2390,-314.5 2396,-308.5 2402,-308.5 2402,-308.5 2518,-308.5 2518,-308.5 2524,-308.5 2530,-314.5 2530,-320.5 2530,-320.5 2530,-332.5 2530,-332.5 2530,-338.5 2524,-344.5 2518,-344.5"/>
<text text-anchor="middle" x="2460" y="-324" font-family="sans" font-size="10.00">resample_native_to_crop</text>
</g>
<!-- 16&#45;&gt;64 -->
<g id="edge95" class="edge">
<title>16&#45;&gt;64</title>
<path fill="none" stroke="grey" stroke-width="2" d="M2129.31,-1204.34C2234.83,-1197.2 2610,-1164.73 2610,-1064 2610,-1064 2610,-1064 2610,-673 2610,-543.58 2520.35,-407.77 2479.66,-352.8"/>
<polygon fill="grey" stroke="grey" stroke-width="2" points="2482.38,-350.59 2473.58,-344.69 2476.78,-354.79 2482.38,-350.59"/>
</g>
<!-- 19 -->
<g id="node7" class="node">
<title>19</title>
<path fill="none" stroke="#56d8d8" stroke-width="2" d="M2132.5,-1081C2132.5,-1081 1989.5,-1081 1989.5,-1081 1983.5,-1081 1977.5,-1075 1977.5,-1069 1977.5,-1069 1977.5,-1057 1977.5,-1057 1977.5,-1051 1983.5,-1045 1989.5,-1045 1989.5,-1045 2132.5,-1045 2132.5,-1045 2138.5,-1045 2144.5,-1051 2144.5,-1057 2144.5,-1057 2144.5,-1069 2144.5,-1069 2144.5,-1075 2138.5,-1081 2132.5,-1081"/>
<text text-anchor="middle" x="2061" y="-1066" font-family="sans" font-size="10.00">convert_template_xfm_ras2itk</text>
<text text-anchor="middle" x="2061" y="-1055" font-family="sans" font-size="10.00">reg_suffix: T1w</text>
</g>
<!-- 20&#45;&gt;19 -->
<g id="edge7" class="edge">
<title>20&#45;&gt;19</title>
<path fill="none" stroke="grey" stroke-width="2" d="M2088.1,-1116.7C2084,-1108.73 2079.05,-1099.1 2074.51,-1090.26"/>
<polygon fill="grey" stroke="grey" stroke-width="2" points="2077.48,-1088.4 2069.8,-1081.1 2071.26,-1091.6 2077.48,-1088.4"/>
</g>
<!-- 65 -->
<g id="node14" class="node">
<title>65</title>
<path fill="none" stroke="#8fd856" stroke-width="2" d="M2204,-270C2204,-270 2106,-270 2106,-270 2100,-270 2094,-264 2094,-258 2094,-258 2094,-246 2094,-246 2094,-240 2100,-234 2106,-234 2106,-234 2204,-234 2204,-234 2210,-234 2216,-240 2216,-246 2216,-246 2216,-258 2216,-258 2216,-264 2210,-270 2204,-270"/>
<text text-anchor="middle" x="2155" y="-255" font-family="sans" font-size="10.00">qc_reg_to_template</text>
<text text-anchor="middle" x="2155" y="-244" font-family="sans" font-size="10.00">native_modality: T1w</text>
</g>
<!-- 20&#45;&gt;65 -->
<g id="edge104" class="edge">
<title>20&#45;&gt;65</title>
<path fill="none" stroke="grey" stroke-width="2" d="M2145.53,-1127.2C2251.86,-1110.95 2496,-1065.62 2496,-992 2496,-992 2496,-992 2496,-673 2496,-511.76 2361.97,-495.9 2206,-455 2186.17,-449.8 2036.59,-456.39 2022,-442 1978.9,-399.47 1975.23,-352.51 2014,-306 2034.54,-281.36 2054.87,-304 2085,-293 2097.35,-288.49 2110.05,-281.91 2121.19,-275.38"/>
<polygon fill="grey" stroke="grey" stroke-width="2" points="2123.01,-278.37 2129.76,-270.2 2119.39,-272.38 2123.01,-278.37"/>
</g>
<!-- 17 -->
<g id="node4" class="node">
<title>17</title>
<path fill="none" stroke="#d8d356" stroke-width="2" d="M2128,-1297C2128,-1297 2076,-1297 2076,-1297 2070,-1297 2064,-1291 2064,-1285 2064,-1285 2064,-1273 2064,-1273 2064,-1267 2070,-1261 2076,-1261 2076,-1261 2128,-1261 2128,-1261 2134,-1261 2140,-1267 2140,-1273 2140,-1273 2140,-1285 2140,-1285 2140,-1291 2134,-1297 2128,-1297"/>
<text text-anchor="middle" x="2102" y="-1282" font-family="sans" font-size="10.00">import_t1</text>
<text text-anchor="middle" x="2102" y="-1271" font-family="sans" font-size="10.00">subject: 001</text>
</g>
<!-- 17&#45;&gt;16 -->
<g id="edge3" class="edge">
<title>17&#45;&gt;16</title>
<path fill="none" stroke="grey" stroke-width="2" d="M2102,-1260.7C2102,-1252.98 2102,-1243.71 2102,-1235.11"/>
<polygon fill="grey" stroke="grey" stroke-width="2" points="2105.5,-1235.1 2102,-1225.1 2098.5,-1235.1 2105.5,-1235.1"/>
</g>
<!-- 18 -->
<g id="node5" class="node">
<title>18</title>
<path fill="none" stroke="#d8c356" stroke-width="2" d="M2133,-1009C2133,-1009 1987,-1009 1987,-1009 1981,-1009 1975,-1003 1975,-997 1975,-997 1975,-985 1975,-985 1975,-979 1981,-973 1987,-973 1987,-973 2133,-973 2133,-973 2139,-973 2145,-979 2145,-985 2145,-985 2145,-997 2145,-997 2145,-1003 2139,-1009 2133,-1009"/>
<text text-anchor="middle" x="2060" y="-988.5" font-family="sans" font-size="10.00">compose_template_xfm_corobl</text>
</g>
<!-- 18&#45;&gt;15 -->
<g id="edge4" class="edge">
<title>18&#45;&gt;15</title>
<path fill="none" stroke="grey" stroke-width="2" d="M2030.61,-972.82C2013.63,-962.89 1992.07,-950.29 1973.83,-939.62"/>
<polygon fill="grey" stroke="grey" stroke-width="2" points="1975.57,-936.58 1965.18,-934.56 1972.04,-942.63 1975.57,-936.58"/>
</g>
<!-- 32 -->
<g id="node6" class="node">
<title>32</title>
<path fill="none" stroke="#56d8b9" stroke-width="2" d="M2133.5,-934.5C2133.5,-934.5 2032.5,-934.5 2032.5,-934.5 2026.5,-934.5 2020.5,-928.5 2020.5,-922.5 2020.5,-922.5 2020.5,-910.5 2020.5,-910.5 2020.5,-904.5 2026.5,-898.5 2032.5,-898.5 2032.5,-898.5 2133.5,-898.5 2133.5,-898.5 2139.5,-898.5 2145.5,-904.5 2145.5,-910.5 2145.5,-910.5 2145.5,-922.5 2145.5,-922.5 2145.5,-928.5 2139.5,-934.5 2133.5,-934.5"/>
<text text-anchor="middle" x="2083" y="-919.5" font-family="sans" font-size="10.00">template_xfm_itk2ras</text>
<text text-anchor="middle" x="2083" y="-908.5" font-family="sans" font-size="10.00">native_modality: T1w</text>
</g>
<!-- 18&#45;&gt;32 -->
<g id="edge5" class="edge">
<title>18&#45;&gt;32</title>
<path fill="none" stroke="grey" stroke-width="2" d="M2065.45,-972.82C2068.14,-964.33 2071.45,-953.89 2074.47,-944.38"/>
<polygon fill="grey" stroke="grey" stroke-width="2" points="2077.9,-945.15 2077.59,-934.56 2071.23,-943.03 2077.9,-945.15"/>
</g>
<!-- 62 -->
<g id="node9" class="node">
<title>62</title>
<path fill="none" stroke="#d8a456" stroke-width="2" d="M898,-419C898,-419 740,-419 740,-419 734,-419 728,-413 728,-407 728,-407 728,-395 728,-395 728,-389 734,-383 740,-383 740,-383 898,-383 898,-383 904,-383 910,-389 910,-395 910,-395 910,-407 910,-407 910,-413 904,-419 898,-419"/>
<text text-anchor="middle" x="819" y="-404" font-family="sans" font-size="10.00">compose_warps_native_to_unfold</text>
<text text-anchor="middle" x="819" y="-393" font-family="sans" font-size="10.00">native_modality: T1w</text>
</g>
<!-- 18&#45;&gt;62 -->
<g id="edge102" class="edge">
<title>18&#45;&gt;62</title>
<path fill="none" stroke="grey" stroke-width="2" d="M1974.87,-987.5C1919.42,-984.09 1853.67,-976.12 1833,-957.5 1761.31,-892.94 1814.28,-837.18 1780,-747 1754,-678.62 1733.89,-667.77 1704,-601 1689.63,-568.9 1704.33,-547.83 1676,-527 1656.27,-512.49 1480.37,-516.35 1456,-514 1216.31,-490.88 1151.9,-503.18 919,-442 900.86,-437.23 881.58,-430.06 864.84,-423.1"/>
<polygon fill="grey" stroke="grey" stroke-width="2" points="865.88,-419.74 855.31,-419.05 863.14,-426.18 865.88,-419.74"/>
</g>
<!-- 63 -->
<g id="node10" class="node">
<title>63</title>
<path fill="none" stroke="#56d8c1" stroke-width="2" d="M1125.5,-419C1125.5,-419 940.5,-419 940.5,-419 934.5,-419 928.5,-413 928.5,-407 928.5,-407 928.5,-395 928.5,-395 928.5,-389 934.5,-383 940.5,-383 940.5,-383 1125.5,-383 1125.5,-383 1131.5,-383 1137.5,-389 1137.5,-395 1137.5,-395 1137.5,-407 1137.5,-407 1137.5,-413 1131.5,-419 1125.5,-419"/>
<text text-anchor="middle" x="1033" y="-398.5" font-family="sans" font-size="10.00">compose_warps_unfold_to_crop_native</text>
</g>
<!-- 18&#45;&gt;63 -->
<g id="edge103" class="edge">
<title>18&#45;&gt;63</title>
<path fill="none" stroke="grey" stroke-width="2" d="M1974.79,-985.85C1928.34,-981.76 1877.11,-973.63 1861,-957.5 1823.77,-920.23 1842,-893.18 1842,-840.5 1842,-840.5 1842,-840.5 1842,-673 1842,-583.71 1784.52,-565.58 1704,-527 1638.86,-495.79 1610.08,-538.14 1542,-514 1498.31,-498.51 1499.33,-471.46 1456,-455 1401.37,-434.25 1253.2,-418.94 1147.66,-410.24"/>
<polygon fill="grey" stroke="grey" stroke-width="2" points="1147.84,-406.75 1137.59,-409.42 1147.27,-413.72 1147.84,-406.75"/>
</g>
<!-- 18&#45;&gt;55 -->
<g id="edge97" class="edge">
<title>18&#45;&gt;55</title>
<path fill="none" stroke="grey" stroke-width="2" d="M2138.37,-972.89C2144.81,-968.79 2150.54,-963.74 2155,-957.5 2191.92,-905.85 2200.43,-736.2 2046,-527 2005.44,-472.06 1967.33,-489.22 1918,-442 1894.56,-419.56 1898.46,-405.41 1875,-383 1862.02,-370.6 1845.94,-359.22 1831.33,-350.04"/>
<polygon fill="grey" stroke="grey" stroke-width="2" points="1832.82,-346.85 1822.47,-344.61 1829.17,-352.82 1832.82,-346.85"/>
</g>
<!-- 51 -->
<g id="node63" class="node">
<title>51</title>
<path fill="none" stroke="#d86e56" stroke-width="2" d="M2179.5,-344.5C2179.5,-344.5 2030.5,-344.5 2030.5,-344.5 2024.5,-344.5 2018.5,-338.5 2018.5,-332.5 2018.5,-332.5 2018.5,-320.5 2018.5,-320.5 2018.5,-314.5 2024.5,-308.5 2030.5,-308.5 2030.5,-308.5 2179.5,-308.5 2179.5,-308.5 2185.5,-308.5 2191.5,-314.5 2191.5,-320.5 2191.5,-320.5 2191.5,-332.5 2191.5,-332.5 2191.5,-338.5 2185.5,-344.5 2179.5,-344.5"/>
<text text-anchor="middle" x="2105" y="-324" font-family="sans" font-size="10.00">resample_subfields_native_crop</text>
</g>
<!-- 18&#45;&gt;51 -->
<g id="edge96" class="edge">
<title>18&#45;&gt;51</title>
<path fill="none" stroke="grey" stroke-width="2" d="M2145.05,-980.76C2160.74,-975.82 2175.95,-968.45 2188,-957.5 2228.9,-920.35 2230,-895.75 2230,-840.5 2230,-840.5 2230,-840.5 2230,-472 2230,-418.41 2180.22,-374.91 2143.49,-350.11"/>
<polygon fill="grey" stroke="grey" stroke-width="2" points="2145.22,-347.06 2134.94,-344.51 2141.39,-352.92 2145.22,-347.06"/>
</g>
<!-- 56 -->
<g id="node65" class="node">
<title>56</title>
<path fill="none" stroke="#d6d856" stroke-width="2" d="M2698,-347C2698,-347 2560,-347 2560,-347 2554,-347 2548,-341 2548,-335 2548,-335 2548,-318 2548,-318 2548,-312 2554,-306 2560,-306 2560,-306 2698,-306 2698,-306 2704,-306 2710,-312 2710,-318 2710,-318 2710,-335 2710,-335 2710,-341 2704,-347 2698,-347"/>
<text text-anchor="middle" x="2629" y="-335" font-family="sans" font-size="10.00">resample_coords_native_crop</text>
<text text-anchor="middle" x="2629" y="-324" font-family="sans" font-size="10.00">autotop: hipp</text>
<text text-anchor="middle" x="2629" y="-313" font-family="sans" font-size="10.00">desc: laplace</text>
</g>
<!-- 18&#45;&gt;56 -->
<g id="edge98" class="edge">
<title>18&#45;&gt;56</title>
<path fill="none" stroke="grey" stroke-width="2" d="M2145.02,-986.15C2240.42,-976.73 2382,-945.12 2382,-840.5 2382,-840.5 2382,-840.5 2382,-764 2382,-578.94 2425.62,-520.03 2550,-383 2560.25,-371.71 2573.2,-361.43 2585.63,-352.87"/>
<polygon fill="grey" stroke="grey" stroke-width="2" points="2587.72,-355.68 2594.11,-347.23 2583.84,-349.85 2587.72,-355.68"/>
</g>
<!-- 57 -->
<g id="node66" class="node">
<title>57</title>
<path fill="none" stroke="#d6d856" stroke-width="2" d="M2878,-347C2878,-347 2740,-347 2740,-347 2734,-347 2728,-341 2728,-335 2728,-335 2728,-318 2728,-318 2728,-312 2734,-306 2740,-306 2740,-306 2878,-306 2878,-306 2884,-306 2890,-312 2890,-318 2890,-318 2890,-335 2890,-335 2890,-341 2884,-347 2878,-347"/>
<text text-anchor="middle" x="2809" y="-335" font-family="sans" font-size="10.00">resample_coords_native_crop</text>
<text text-anchor="middle" x="2809" y="-324" font-family="sans" font-size="10.00">autotop: hipp</text>
<text text-anchor="middle" x="2809" y="-313" font-family="sans" font-size="10.00">desc: laplace</text>
</g>
<!-- 18&#45;&gt;57 -->
<g id="edge99" class="edge">
<title>18&#45;&gt;57</title>
<path fill="none" stroke="grey" stroke-width="2" d="M2145.34,-987.69C2215.13,-984.43 2307.28,-976.54 2339,-957.5 2393.23,-924.95 2420,-903.75 2420,-840.5 2420,-840.5 2420,-840.5 2420,-764 2420,-666.89 2558.68,-444.29 2634,-383 2647.78,-371.78 2682.77,-359.81 2717.86,-349.86"/>
<polygon fill="grey" stroke="grey" stroke-width="2" points="2719.05,-353.16 2727.75,-347.11 2717.18,-346.42 2719.05,-353.16"/>
</g>
<!-- 58 -->
<g id="node67" class="node">
<title>58</title>
<path fill="none" stroke="#d6d856" stroke-width="2" d="M3058,-347C3058,-347 2920,-347 2920,-347 2914,-347 2908,-341 2908,-335 2908,-335 2908,-318 2908,-318 2908,-312 2914,-306 2920,-306 2920,-306 3058,-306 3058,-306 3064,-306 3070,-312 3070,-318 3070,-318 3070,-335 3070,-335 3070,-341 3064,-347 3058,-347"/>
<text text-anchor="middle" x="2989" y="-335" font-family="sans" font-size="10.00">resample_coords_native_crop</text>
<text text-anchor="middle" x="2989" y="-324" font-family="sans" font-size="10.00">autotop: hipp</text>
<text text-anchor="middle" x="2989" y="-313" font-family="sans" font-size="10.00">desc: laplace</text>
</g>
<!-- 18&#45;&gt;58 -->
<g id="edge100" class="edge">
<title>18&#45;&gt;58</title>
<path fill="none" stroke="grey" stroke-width="2" d="M2145,-988.2C2227.39,-985.27 2345.78,-977.59 2387,-957.5 2683.04,-813.18 2910.93,-458.71 2972.49,-355.89"/>
<polygon fill="grey" stroke="grey" stroke-width="2" points="2975.67,-357.39 2977.77,-347.01 2969.65,-353.82 2975.67,-357.39"/>
</g>
<!-- 61 -->
<g id="node68" class="node">
<title>61</title>
<path fill="none" stroke="#d6d856" stroke-width="2" d="M2360,-347C2360,-347 2222,-347 2222,-347 2216,-347 2210,-341 2210,-335 2210,-335 2210,-318 2210,-318 2210,-312 2216,-306 2222,-306 2222,-306 2360,-306 2360,-306 2366,-306 2372,-312 2372,-318 2372,-318 2372,-335 2372,-335 2372,-341 2366,-347 2360,-347"/>
<text text-anchor="middle" x="2291" y="-335" font-family="sans" font-size="10.00">resample_coords_native_crop</text>
<text text-anchor="middle" x="2291" y="-324" font-family="sans" font-size="10.00">autotop: hipp</text>
<text text-anchor="middle" x="2291" y="-313" font-family="sans" font-size="10.00">desc: equivol</text>
</g>
<!-- 18&#45;&gt;61 -->
<g id="edge101" class="edge">
<title>18&#45;&gt;61</title>
<path fill="none" stroke="grey" stroke-width="2" d="M2145.17,-980.2C2177.24,-975.01 2208.89,-967.58 2221,-957.5 2264.08,-921.66 2268,-896.54 2268,-840.5 2268,-840.5 2268,-840.5 2268,-472 2268,-431.96 2276.72,-386.44 2283.42,-357.37"/>
<polygon fill="grey" stroke="grey" stroke-width="2" points="2286.87,-357.98 2285.78,-347.44 2280.06,-356.36 2286.87,-357.98"/>
</g>
<!-- 4 -->
<g id="node26" class="node">
<title>4</title>
<path fill="none" stroke="#88d856" stroke-width="2" d="M335.5,-344.5C335.5,-344.5 250.5,-344.5 250.5,-344.5 244.5,-344.5 238.5,-338.5 238.5,-332.5 238.5,-332.5 238.5,-320.5 238.5,-320.5 238.5,-314.5 244.5,-308.5 250.5,-308.5 250.5,-308.5 335.5,-308.5 335.5,-308.5 341.5,-308.5 347.5,-314.5 347.5,-320.5 347.5,-320.5 347.5,-332.5 347.5,-332.5 347.5,-338.5 341.5,-344.5 335.5,-344.5"/>
<text text-anchor="middle" x="293" y="-324" font-family="sans" font-size="10.00">warp_gii_to_native</text>
</g>
<!-- 32&#45;&gt;4 -->
<g id="edge113" class="edge">
<title>32&#45;&gt;4</title>
<path fill="none" stroke="grey" stroke-width="2" d="M2038.81,-898.47C2019.1,-889.27 1996.63,-876.41 1980,-860 1856.46,-738.09 1927.97,-610.84 1776,-527 1737.78,-505.92 1620.3,-530.76 1580,-514 1543.36,-498.76 1548.61,-472.5 1513,-455 1362.26,-380.91 1308.74,-403.27 1142,-383 826.15,-344.59 743.67,-377.94 427,-347 404.28,-344.78 379.51,-341.44 357.51,-338.14"/>
<polygon fill="grey" stroke="grey" stroke-width="2" points="358.04,-334.68 347.62,-336.64 356.98,-341.6 358.04,-334.68"/>
</g>
<!-- 36 -->
<g id="node36" class="node">
<title>36</title>
<path fill="none" stroke="#88d856" stroke-width="2" d="M537.5,-270C537.5,-270 452.5,-270 452.5,-270 446.5,-270 440.5,-264 440.5,-258 440.5,-258 440.5,-246 440.5,-246 440.5,-240 446.5,-234 452.5,-234 452.5,-234 537.5,-234 537.5,-234 543.5,-234 549.5,-240 549.5,-246 549.5,-246 549.5,-258 549.5,-258 549.5,-264 543.5,-270 537.5,-270"/>
<text text-anchor="middle" x="495" y="-249.5" font-family="sans" font-size="10.00">warp_gii_to_native</text>
</g>
<!-- 32&#45;&gt;36 -->
<g id="edge114" class="edge">
<title>32&#45;&gt;36</title>
<path fill="none" stroke="grey" stroke-width="2" d="M2064.13,-898.17C2038,-872.19 1994,-820.37 1994,-766 1994,-766 1994,-766 1994,-673 1994,-575.41 1920.15,-564.37 1830,-527 1784.35,-508.08 1651.99,-536.52 1608,-514 1577.91,-498.6 1588.01,-473.93 1560,-455 1470.55,-394.54 1433.53,-405.78 1328,-383 1058.31,-324.77 986.2,-336.63 712,-306 653.41,-299.45 636.83,-308.67 580,-293 564.26,-288.66 547.84,-281.6 533.67,-274.61"/>
<polygon fill="grey" stroke="grey" stroke-width="2" points="535.22,-271.47 524.72,-270.06 532.05,-277.71 535.22,-271.47"/>
</g>
<!-- 41 -->
<g id="node41" class="node">
<title>41</title>
<path fill="none" stroke="#88d856" stroke-width="2" d="M686.5,-270C686.5,-270 601.5,-270 601.5,-270 595.5,-270 589.5,-264 589.5,-258 589.5,-258 589.5,-246 589.5,-246 589.5,-240 595.5,-234 601.5,-234 601.5,-234 686.5,-234 686.5,-234 692.5,-234 698.5,-240 698.5,-246 698.5,-246 698.5,-258 698.5,-258 698.5,-264 692.5,-270 686.5,-270"/>
<text text-anchor="middle" x="644" y="-249.5" font-family="sans" font-size="10.00">warp_gii_to_native</text>
</g>
<!-- 32&#45;&gt;41 -->
<g id="edge115" class="edge">
<title>32&#45;&gt;41</title>
<path fill="none" stroke="grey" stroke-width="2" d="M2072.92,-898.21C2058.06,-871.02 2032,-816.19 2032,-766 2032,-766 2032,-766 2032,-673 2032,-607.24 2057.33,-570.48 2008,-527 1978.64,-501.12 1690.84,-531.83 1656,-514 1642.96,-507.33 1506.95,-312.84 1494,-306 1425.22,-269.7 895.35,-257.27 708.76,-253.99"/>
<polygon fill="grey" stroke="grey" stroke-width="2" points="708.61,-250.49 698.55,-253.81 708.49,-257.49 708.61,-250.49"/>
</g>
<!-- 19&#45;&gt;18 -->
<g id="edge6" class="edge">
<title>19&#45;&gt;18</title>
<path fill="none" stroke="grey" stroke-width="2" d="M2060.75,-1044.7C2060.64,-1036.98 2060.51,-1027.71 2060.39,-1019.11"/>
<polygon fill="grey" stroke="grey" stroke-width="2" points="2063.89,-1019.05 2060.24,-1009.1 2056.89,-1019.15 2063.89,-1019.05"/>
</g>
<!-- 7 -->
<g id="node8" class="node">
<title>7</title>
<path fill="none" stroke="#afd856" stroke-width="2" d="M936,-491C936,-491 852,-491 852,-491 846,-491 840,-485 840,-479 840,-479 840,-467 840,-467 840,-461 846,-455 852,-455 852,-455 936,-455 936,-455 942,-455 948,-461 948,-467 948,-467 948,-479 948,-479 948,-485 942,-491 936,-491"/>
<text text-anchor="middle" x="894" y="-470.5" font-family="sans" font-size="10.00">create_warps_hipp</text>
</g>
<!-- 7&#45;&gt;62 -->
<g id="edge8" class="edge">
<title>7&#45;&gt;62</title>
<path fill="none" stroke="grey" stroke-width="2" d="M875.46,-454.7C866.2,-446.05 854.84,-435.45 844.74,-426.03"/>
<polygon fill="grey" stroke="grey" stroke-width="2" points="847.02,-423.37 837.33,-419.1 842.25,-428.49 847.02,-423.37"/>
</g>
<!-- 7&#45;&gt;63 -->
<g id="edge9" class="edge">
<title>7&#45;&gt;63</title>
<path fill="none" stroke="grey" stroke-width="2" d="M928,-454.88C946.6,-445.51 969.83,-433.81 989.71,-423.8"/>
<polygon fill="grey" stroke="grey" stroke-width="2" points="991.51,-426.81 998.87,-419.19 988.36,-420.56 991.51,-426.81"/>
</g>
<!-- 6 -->
<g id="node29" class="node">
<title>6</title>
<path fill="none" stroke="#97d856" stroke-width="2" d="M379.5,-491C379.5,-491 272.5,-491 272.5,-491 266.5,-491 260.5,-485 260.5,-479 260.5,-479 260.5,-467 260.5,-467 260.5,-461 266.5,-455 272.5,-455 272.5,-455 379.5,-455 379.5,-455 385.5,-455 391.5,-461 391.5,-467 391.5,-467 391.5,-479 391.5,-479 391.5,-485 385.5,-491 379.5,-491"/>
<text text-anchor="middle" x="326" y="-470.5" font-family="sans" font-size="10.00">warp_gii_unfold2native</text>
</g>
<!-- 7&#45;&gt;6 -->
<g id="edge69" class="edge">
<title>7&#45;&gt;6</title>
<path fill="none" stroke="grey" stroke-width="2" d="M860.38,-491C838.02,-501.93 807.6,-514.83 779,-520.5 740.96,-528.05 467.89,-528.74 430,-520.5 407.66,-515.64 384.38,-505.54 365.52,-495.9"/>
<polygon fill="grey" stroke="grey" stroke-width="2" points="367.12,-492.79 356.64,-491.23 363.86,-498.98 367.12,-492.79"/>
</g>
<!-- 38 -->
<g id="node38" class="node">
<title>38</title>
<path fill="none" stroke="#97d856" stroke-width="2" d="M548.5,-419C548.5,-419 441.5,-419 441.5,-419 435.5,-419 429.5,-413 429.5,-407 429.5,-407 429.5,-395 429.5,-395 429.5,-389 435.5,-383 441.5,-383 441.5,-383 548.5,-383 548.5,-383 554.5,-383 560.5,-389 560.5,-395 560.5,-395 560.5,-407 560.5,-407 560.5,-413 554.5,-419 548.5,-419"/>
<text text-anchor="middle" x="495" y="-398.5" font-family="sans" font-size="10.00">warp_gii_unfold2native</text>
</g>
<!-- 7&#45;&gt;38 -->
<g id="edge70" class="edge">
<title>7&#45;&gt;38</title>
<path fill="none" stroke="grey" stroke-width="2" d="M839.66,-465.96C808.23,-462.54 767.9,-458.32 732,-455 659.63,-448.32 638.69,-462.61 569,-442 555.27,-437.94 541.21,-431.13 529.08,-424.26"/>
<polygon fill="grey" stroke="grey" stroke-width="2" points="530.61,-421.1 520.22,-419.05 527.06,-427.13 530.61,-421.1"/>
</g>
<!-- 43 -->
<g id="node43" class="node">
<title>43</title>
<path fill="none" stroke="#97d856" stroke-width="2" d="M697.5,-419C697.5,-419 590.5,-419 590.5,-419 584.5,-419 578.5,-413 578.5,-407 578.5,-407 578.5,-395 578.5,-395 578.5,-389 584.5,-383 590.5,-383 590.5,-383 697.5,-383 697.5,-383 703.5,-383 709.5,-389 709.5,-395 709.5,-395 709.5,-407 709.5,-407 709.5,-413 703.5,-419 697.5,-419"/>
<text text-anchor="middle" x="644" y="-398.5" font-family="sans" font-size="10.00">warp_gii_unfold2native</text>
</g>
<!-- 7&#45;&gt;43 -->
<g id="edge71" class="edge">
<title>7&#45;&gt;43</title>
<path fill="none" stroke="grey" stroke-width="2" d="M839.81,-466.49C805.92,-462.06 761.7,-454.46 724,-442 709.88,-437.33 695.13,-430.56 682.2,-423.91"/>
<polygon fill="grey" stroke="grey" stroke-width="2" points="683.61,-420.7 673.14,-419.12 680.34,-426.89 683.61,-420.7"/>
</g>
<!-- 0 -->
<g id="node70" class="node">
<title>0</title>
<path fill="none" stroke="#56d8b1" stroke-width="2" d="M2332,-195.5C2332,-195.5 2302,-195.5 2302,-195.5 2296,-195.5 2290,-189.5 2290,-183.5 2290,-183.5 2290,-171.5 2290,-171.5 2290,-165.5 2296,-159.5 2302,-159.5 2302,-159.5 2332,-159.5 2332,-159.5 2338,-159.5 2344,-165.5 2344,-171.5 2344,-171.5 2344,-183.5 2344,-183.5 2344,-189.5 2338,-195.5 2332,-195.5"/>
<text text-anchor="middle" x="2317" y="-175" font-family="sans" font-size="10.00">all</text>
</g>
<!-- 62&#45;&gt;0 -->
<g id="edge128" class="edge">
<title>62&#45;&gt;0</title>
<path fill="none" stroke="grey" stroke-width="2" d="M884.13,-382.97C1016.85,-348.95 1328.61,-272.55 1595,-234 1855.43,-196.31 2172.65,-183.15 2279.7,-179.6"/>
<polygon fill="grey" stroke="grey" stroke-width="2" points="2280.09,-183.09 2289.98,-179.27 2279.87,-176.1 2280.09,-183.09"/>
</g>
<!-- 63&#45;&gt;0 -->
<g id="edge129" class="edge">
<title>63&#45;&gt;0</title>
<path fill="none" stroke="grey" stroke-width="2" d="M1119.87,-382.99C1280.89,-351.7 1636.77,-283.67 1938,-234 2062.88,-213.41 2211.55,-192.76 2279.62,-183.52"/>
<polygon fill="grey" stroke="grey" stroke-width="2" points="2280.39,-186.95 2289.83,-182.14 2279.45,-180.01 2280.39,-186.95"/>
</g>
<!-- 8 -->
<g id="node11" class="node">
<title>8</title>
<path fill="none" stroke="#d89c56" stroke-width="2" d="M842,-694.5C842,-694.5 764,-694.5 764,-694.5 758,-694.5 752,-688.5 752,-682.5 752,-682.5 752,-665.5 752,-665.5 752,-659.5 758,-653.5 764,-653.5 764,-653.5 842,-653.5 842,-653.5 848,-653.5 854,-659.5 854,-665.5 854,-665.5 854,-682.5 854,-682.5 854,-688.5 848,-694.5 842,-694.5"/>
<text text-anchor="middle" x="803" y="-682.5" font-family="sans" font-size="10.00">create_unfold_ref</text>
<text text-anchor="middle" x="803" y="-671.5" font-family="sans" font-size="10.00">autotop: hipp</text>
<text text-anchor="middle" x="803" y="-660.5" font-family="sans" font-size="10.00">subject: 001</text>
</g>
<!-- 8&#45;&gt;7 -->
<g id="edge10" class="edge">
<title>8&#45;&gt;7</title>
<path fill="none" stroke="grey" stroke-width="2" d="M799.17,-653.46C794.43,-623.86 789.63,-566.9 813,-527 820.31,-514.51 831.87,-504.43 843.99,-496.55"/>
<polygon fill="grey" stroke="grey" stroke-width="2" points="846.11,-499.36 852.86,-491.19 842.49,-493.37 846.11,-499.36"/>
</g>
<!-- 8&#45;&gt;62 -->
<g id="edge12" class="edge">
<title>8&#45;&gt;62</title>
<path fill="none" stroke="grey" stroke-width="2" d="M799.15,-653.23C796.55,-638.81 793.35,-618.78 792,-601 789.51,-568.21 788.51,-559.7 792,-527 795.65,-492.81 804.77,-454.24 811.4,-429.1"/>
<polygon fill="grey" stroke="grey" stroke-width="2" points="814.84,-429.77 814.07,-419.2 808.08,-427.95 814.84,-429.77"/>
</g>
<!-- 8&#45;&gt;63 -->
<g id="edge13" class="edge">
<title>8&#45;&gt;63</title>
<path fill="none" stroke="grey" stroke-width="2" d="M854.24,-669.23C936.79,-661.97 1093.38,-642.91 1127,-601 1171.45,-545.58 1101.75,-465.69 1060.26,-426.11"/>
<polygon fill="grey" stroke="grey" stroke-width="2" points="1062.57,-423.48 1052.88,-419.2 1057.79,-428.59 1062.57,-423.48"/>
</g>
<!-- 9 -->
<g id="node12" class="node">
<title>9</title>
<path fill="none" stroke="#61d856" stroke-width="2" d="M953.5,-582C953.5,-582 834.5,-582 834.5,-582 828.5,-582 822.5,-576 822.5,-570 822.5,-570 822.5,-558 822.5,-558 822.5,-552 828.5,-546 834.5,-546 834.5,-546 953.5,-546 953.5,-546 959.5,-546 965.5,-552 965.5,-558 965.5,-558 965.5,-570 965.5,-570 965.5,-576 959.5,-582 953.5,-582"/>
<text text-anchor="middle" x="894" y="-561.5" font-family="sans" font-size="10.00">create_unfold_coord_map</text>
</g>
<!-- 8&#45;&gt;9 -->
<g id="edge11" class="edge">
<title>8&#45;&gt;9</title>
<path fill="none" stroke="grey" stroke-width="2" d="M819.48,-653.44C834.45,-635.68 856.61,-609.38 872.87,-590.07"/>
<polygon fill="grey" stroke="grey" stroke-width="2" points="875.68,-592.18 879.44,-582.27 870.32,-587.67 875.68,-592.18"/>
</g>
<!-- 30 -->
<g id="node30" class="node">
<title>30</title>
<path fill="none" stroke="#d8ac56" stroke-width="2" d="M379,-582C379,-582 273,-582 273,-582 267,-582 261,-576 261,-570 261,-570 261,-558 261,-558 261,-552 267,-546 273,-546 273,-546 379,-546 379,-546 385,-546 391,-552 391,-558 391,-558 391,-570 391,-570 391,-576 385,-582 379,-582"/>
<text text-anchor="middle" x="326" y="-561.5" font-family="sans" font-size="10.00">constrain_surf_to_bbox</text>
</g>
<!-- 8&#45;&gt;30 -->
<g id="edge73" class="edge">
<title>8&#45;&gt;30</title>
<path fill="none" stroke="grey" stroke-width="2" d="M770.44,-653.39C758.7,-647.17 745.11,-640.91 732,-637 591.87,-595.27 545.97,-639.8 405,-601 392.16,-597.46 378.77,-592.08 366.74,-586.54"/>
<polygon fill="grey" stroke="grey" stroke-width="2" points="367.95,-583.25 357.42,-582.1 364.94,-589.57 367.95,-583.25"/>
</g>
<!-- 39 -->
<g id="node39" class="node">
<title>39</title>
<path fill="none" stroke="#d8ac56" stroke-width="2" d="M548,-491C548,-491 442,-491 442,-491 436,-491 430,-485 430,-479 430,-479 430,-467 430,-467 430,-461 436,-455 442,-455 442,-455 548,-455 548,-455 554,-455 560,-461 560,-467 560,-467 560,-479 560,-479 560,-485 554,-491 548,-491"/>
<text text-anchor="middle" x="495" y="-470.5" font-family="sans" font-size="10.00">constrain_surf_to_bbox</text>
</g>
<!-- 8&#45;&gt;39 -->
<g id="edge74" class="edge">
<title>8&#45;&gt;39</title>
<path fill="none" stroke="grey" stroke-width="2" d="M779.01,-653.49C763.53,-639.98 743.79,-620.9 730,-601 709.49,-571.4 726.17,-548.12 697,-527 674.02,-510.36 597.14,-522.27 570,-514 556.28,-509.82 542.16,-503.04 529.93,-496.25"/>
<polygon fill="grey" stroke="grey" stroke-width="2" points="531.39,-493.05 520.98,-491.09 527.9,-499.11 531.39,-493.05"/>
</g>
<!-- 44 -->
<g id="node44" class="node">
<title>44</title>
<path fill="none" stroke="#d8ac56" stroke-width="2" d="M697,-491C697,-491 591,-491 591,-491 585,-491 579,-485 579,-479 579,-479 579,-467 579,-467 579,-461 585,-455 591,-455 591,-455 697,-455 697,-455 703,-455 709,-461 709,-467 709,-467 709,-479 709,-479 709,-485 703,-491 697,-491"/>
<text text-anchor="middle" x="644" y="-470.5" font-family="sans" font-size="10.00">constrain_surf_to_bbox</text>
</g>
<!-- 8&#45;&gt;44 -->
<g id="edge75" class="edge">
<title>8&#45;&gt;44</title>
<path fill="none" stroke="grey" stroke-width="2" d="M797.12,-653.49C787.27,-623.43 765.01,-565.26 730,-527 718.93,-514.9 704.47,-504.57 690.58,-496.33"/>
<polygon fill="grey" stroke="grey" stroke-width="2" points="691.99,-493.11 681.57,-491.22 688.54,-499.19 691.99,-493.11"/>
</g>
<!-- 47 -->
<g id="node47" class="node">
<title>47</title>
<path fill="none" stroke="#56d873" stroke-width="2" d="M716,-198C716,-198 600,-198 600,-198 594,-198 588,-192 588,-186 588,-186 588,-169 588,-169 588,-163 594,-157 600,-157 600,-157 716,-157 716,-157 722,-157 728,-163 728,-169 728,-169 728,-186 728,-186 728,-192 722,-198 716,-198"/>
<text text-anchor="middle" x="658" y="-186" font-family="sans" font-size="10.00">resample_atlas_to_refvol</text>
<text text-anchor="middle" x="658" y="-175" font-family="sans" font-size="10.00">atlas: bigbrain</text>
<text text-anchor="middle" x="658" y="-164" font-family="sans" font-size="10.00">hemi: R</text>
</g>
<!-- 8&#45;&gt;47 -->
<g id="edge76" class="edge">
<title>8&#45;&gt;47</title>
<path fill="none" stroke="grey" stroke-width="2" d="M854.25,-666.74C919.25,-658.95 1034.81,-645.64 1134,-637 1195.01,-631.69 1642.13,-645.7 1684,-601 1706.48,-577 1703.15,-553.74 1684,-527 1676.62,-516.71 955.25,-277 726.66,-201.23"/>
<polygon fill="grey" stroke="grey" stroke-width="2" points="727.71,-197.89 717.12,-198.07 725.51,-204.54 727.71,-197.89"/>
</g>
<!-- 8&#45;&gt;0 -->
<g id="edge72" class="edge">
<title>8&#45;&gt;0</title>
<path fill="none" stroke="grey" stroke-width="2" d="M854.25,-666.7C919.24,-658.87 1034.8,-645.52 1134,-637 1387.35,-615.25 1459.72,-668.04 1705,-601 1787.25,-578.52 1819.67,-578.02 1876,-514 1963.29,-414.79 1874.47,-318.58 1976,-234 2021.61,-196.01 2200.55,-183.59 2279.37,-179.91"/>
<polygon fill="grey" stroke="grey" stroke-width="2" points="2279.97,-183.38 2289.81,-179.44 2279.66,-176.39 2279.97,-183.38"/>
</g>
<!-- 9&#45;&gt;7 -->
<g id="edge14" class="edge">
<title>9&#45;&gt;7</title>
<path fill="none" stroke="grey" stroke-width="2" d="M894,-545.84C894,-533.28 894,-515.98 894,-501.5"/>
<polygon fill="grey" stroke="grey" stroke-width="2" points="897.5,-501.11 894,-491.11 890.5,-501.11 897.5,-501.11"/>
</g>
<!-- 29 -->
<g id="node13" class="node">
<title>29</title>
<path fill="none" stroke="#c6d856" stroke-width="2" d="M1106,-582C1106,-582 996,-582 996,-582 990,-582 984,-576 984,-570 984,-570 984,-558 984,-558 984,-552 990,-546 996,-546 996,-546 1106,-546 1106,-546 1112,-546 1118,-552 1118,-558 1118,-558 1118,-570 1118,-570 1118,-576 1112,-582 1106,-582"/>
<text text-anchor="middle" x="1051" y="-567" font-family="sans" font-size="10.00">create_native_coord_ref</text>
<text text-anchor="middle" x="1051" y="-556" font-family="sans" font-size="10.00">autotop: hipp</text>
</g>
<!-- 29&#45;&gt;7 -->
<g id="edge15" class="edge">
<title>29&#45;&gt;7</title>
<path fill="none" stroke="grey" stroke-width="2" d="M1020.73,-545.84C995.75,-531.68 960.14,-511.49 933.02,-496.12"/>
<polygon fill="grey" stroke="grey" stroke-width="2" points="934.6,-492.99 924.18,-491.11 931.15,-499.08 934.6,-492.99"/>
</g>
<!-- 65&#45;&gt;0 -->
<g id="edge132" class="edge">
<title>65&#45;&gt;0</title>
<path fill="none" stroke="grey" stroke-width="2" d="M2193.39,-233.82C2219.61,-222.09 2254.15,-206.63 2280.06,-195.03"/>
<polygon fill="grey" stroke="grey" stroke-width="2" points="2281.83,-198.08 2289.52,-190.8 2278.97,-191.69 2281.83,-198.08"/>
</g>
<!-- 66 -->
<g id="node15" class="node">
<title>66</title>
<path fill="none" stroke="#56c9d8" stroke-width="2" d="M2314,-270C2314,-270 2246,-270 2246,-270 2240,-270 2234,-264 2234,-258 2234,-258 2234,-246 2234,-246 2234,-240 2240,-234 2246,-234 2246,-234 2314,-234 2314,-234 2320,-234 2326,-240 2326,-246 2326,-246 2326,-258 2326,-258 2326,-264 2320,-270 2314,-270"/>
<text text-anchor="middle" x="2280" y="-255" font-family="sans" font-size="10.00">qc_subfield</text>
<text text-anchor="middle" x="2280" y="-244" font-family="sans" font-size="10.00">space: cropT1w</text>
</g>
<!-- 66&#45;&gt;0 -->
<g id="edge133" class="edge">
<title>66&#45;&gt;0</title>
<path fill="none" stroke="grey" stroke-width="2" d="M2288.77,-233.82C2293.24,-225.06 2298.77,-214.23 2303.74,-204.47"/>
<polygon fill="grey" stroke="grey" stroke-width="2" points="2306.87,-206.06 2308.29,-195.56 2300.63,-202.87 2306.87,-206.06"/>
</g>
<!-- 67 -->
<g id="node16" class="node">
<title>67</title>
<path fill="none" stroke="#56a9d8" stroke-width="2" d="M2063.5,-270C2063.5,-270 1992.5,-270 1992.5,-270 1986.5,-270 1980.5,-264 1980.5,-258 1980.5,-258 1980.5,-246 1980.5,-246 1980.5,-240 1986.5,-234 1992.5,-234 1992.5,-234 2063.5,-234 2063.5,-234 2069.5,-234 2075.5,-240 2075.5,-246 2075.5,-246 2075.5,-258 2075.5,-258 2075.5,-264 2069.5,-270 2063.5,-270"/>
<text text-anchor="middle" x="2028" y="-255" font-family="sans" font-size="10.00">qc_subfield_surf</text>
<text text-anchor="middle" x="2028" y="-244" font-family="sans" font-size="10.00">ref_spaces: T1w</text>
</g>
<!-- 67&#45;&gt;0 -->
<g id="edge134" class="edge">
<title>67&#45;&gt;0</title>
<path fill="none" stroke="grey" stroke-width="2" d="M2075.53,-236.61C2078.73,-235.71 2081.91,-234.83 2085,-234 2153.42,-215.63 2233.99,-197.03 2279.93,-186.71"/>
<polygon fill="grey" stroke="grey" stroke-width="2" points="2280.74,-190.11 2289.73,-184.51 2279.21,-183.28 2280.74,-190.11"/>
</g>
<!-- 10 -->
<g id="node17" class="node">
<title>10</title>
<path fill="none" stroke="#d8bc56" stroke-width="2" d="M1242,-692C1242,-692 1150,-692 1150,-692 1144,-692 1138,-686 1138,-680 1138,-680 1138,-668 1138,-668 1138,-662 1144,-656 1150,-656 1150,-656 1242,-656 1242,-656 1248,-656 1254,-662 1254,-668 1254,-668 1254,-680 1254,-680 1254,-686 1248,-692 1242,-692"/>
<text text-anchor="middle" x="1196" y="-671.5" font-family="sans" font-size="10.00">laplace_coords_hipp</text>
</g>
<!-- 10&#45;&gt;7 -->
<g id="edge77" class="edge">
<title>10&#45;&gt;7</title>
<path fill="none" stroke="grey" stroke-width="2" d="M1192.89,-655.54C1186.43,-624.62 1168.54,-560.35 1127,-527 1101.31,-506.38 1017.83,-490.94 958.14,-482.2"/>
<polygon fill="grey" stroke="grey" stroke-width="2" points="958.43,-478.71 948.04,-480.75 957.44,-485.63 958.43,-478.71"/>
</g>
<!-- 10&#45;&gt;29 -->
<g id="edge78" class="edge">
<title>10&#45;&gt;29</title>
<path fill="none" stroke="grey" stroke-width="2" d="M1173.02,-655.89C1148.42,-637.56 1109.24,-608.38 1081.93,-588.04"/>
<polygon fill="grey" stroke="grey" stroke-width="2" points="1083.98,-585.2 1073.87,-582.03 1079.8,-590.81 1083.98,-585.2"/>
</g>
<!-- 53 -->
<g id="node50" class="node">
<title>53</title>
<path fill="none" stroke="#56d89a" stroke-width="2" d="M1859.5,-491C1859.5,-491 1672.5,-491 1672.5,-491 1666.5,-491 1660.5,-485 1660.5,-479 1660.5,-479 1660.5,-467 1660.5,-467 1660.5,-461 1666.5,-455 1672.5,-455 1672.5,-455 1859.5,-455 1859.5,-455 1865.5,-455 1871.5,-461 1871.5,-467 1871.5,-467 1871.5,-479 1871.5,-479 1871.5,-485 1865.5,-491 1859.5,-491"/>
<text text-anchor="middle" x="1766" y="-470.5" font-family="sans" font-size="10.00">label_subfields_from_vol_coords_corobl</text>
</g>
<!-- 10&#45;&gt;53 -->
<g id="edge79" class="edge">
<title>10&#45;&gt;53</title>
<path fill="none" stroke="grey" stroke-width="2" d="M1221.64,-655.95C1233.68,-648.82 1248.55,-641.22 1263,-637 1365.47,-607.09 1662.42,-672.15 1742,-601 1769.71,-576.22 1771.61,-530.33 1769.5,-501.03"/>
<polygon fill="grey" stroke="grey" stroke-width="2" points="1772.98,-500.69 1768.58,-491.05 1766.01,-501.33 1772.98,-500.69"/>
</g>
<!-- 10&#45;&gt;56 -->
<g id="edge80" class="edge">
<title>10&#45;&gt;56</title>
<path fill="none" stroke="grey" stroke-width="2" d="M1221.27,-655.98C1233.37,-648.76 1248.37,-641.08 1263,-637 1566.07,-552.48 1666.03,-682.22 1970,-601 2120.36,-560.82 2159.97,-538.59 2282,-442 2308.95,-420.67 2302.17,-400.08 2332,-383 2410.27,-338.19 2444.95,-363.04 2537.54,-347.14"/>
<polygon fill="grey" stroke="grey" stroke-width="2" points="2538.39,-350.54 2547.6,-345.29 2537.13,-343.66 2538.39,-350.54"/>
</g>
<!-- 25 -->
<g id="node18" class="node">
<title>25</title>
<path fill="none" stroke="#d8bc56" stroke-width="2" d="M1376,-692C1376,-692 1284,-692 1284,-692 1278,-692 1272,-686 1272,-680 1272,-680 1272,-668 1272,-668 1272,-662 1278,-656 1284,-656 1284,-656 1376,-656 1376,-656 1382,-656 1388,-662 1388,-668 1388,-668 1388,-680 1388,-680 1388,-686 1382,-692 1376,-692"/>
<text text-anchor="middle" x="1330" y="-671.5" font-family="sans" font-size="10.00">laplace_coords_hipp</text>
</g>
<!-- 25&#45;&gt;7 -->
<g id="edge106" class="edge">
<title>25&#45;&gt;7</title>
<path fill="none" stroke="grey" stroke-width="2" d="M1316.27,-655.79C1290.42,-624.68 1231.24,-559.32 1166,-527 1099.81,-494.21 1015.18,-481.69 958.04,-476.92"/>
<polygon fill="grey" stroke="grey" stroke-width="2" points="958.29,-473.43 948.05,-476.14 957.75,-480.41 958.29,-473.43"/>
</g>
<!-- 25&#45;&gt;53 -->
<g id="edge107" class="edge">
<title>25&#45;&gt;53</title>
<path fill="none" stroke="grey" stroke-width="2" d="M1356.41,-655.9C1368.59,-648.84 1383.54,-641.32 1398,-637 1479.69,-612.58 1722.61,-664.06 1780,-601 1804.58,-574 1791.76,-529.22 1779.48,-500.68"/>
<polygon fill="grey" stroke="grey" stroke-width="2" points="1782.55,-498.98 1775.22,-491.32 1776.18,-501.88 1782.55,-498.98"/>
</g>
<!-- 25&#45;&gt;57 -->
<g id="edge108" class="edge">
<title>25&#45;&gt;57</title>
<path fill="none" stroke="grey" stroke-width="2" d="M1355.69,-655.99C1367.97,-648.78 1383.19,-641.09 1398,-637 1690.55,-556.09 1785.42,-674.19 2080,-601 2303.47,-545.48 2331.58,-455.89 2550,-383 2619.86,-359.69 2642.1,-362.82 2717.58,-347.26"/>
<polygon fill="grey" stroke="grey" stroke-width="2" points="2718.5,-350.64 2727.57,-345.16 2717.06,-343.79 2718.5,-350.64"/>
</g>
<!-- 27 -->
<g id="node19" class="node">
<title>27</title>
<path fill="none" stroke="#56d85b" stroke-width="2" d="M1585,-582C1585,-582 1497,-582 1497,-582 1491,-582 1485,-576 1485,-570 1485,-570 1485,-558 1485,-558 1485,-552 1491,-546 1497,-546 1497,-546 1585,-546 1585,-546 1591,-546 1597,-552 1597,-558 1597,-558 1597,-570 1597,-570 1597,-576 1591,-582 1585,-582"/>
<text text-anchor="middle" x="1541" y="-561.5" font-family="sans" font-size="10.00">equivolume_coords</text>
</g>
<!-- 27&#45;&gt;7 -->
<g id="edge110" class="edge">
<title>27&#45;&gt;7</title>
<path fill="none" stroke="grey" stroke-width="2" d="M1484.97,-554.86C1433.91,-547.47 1356.42,-536.34 1289,-527 1172.41,-510.85 1036.35,-492.76 958.18,-482.44"/>
<polygon fill="grey" stroke="grey" stroke-width="2" points="958.38,-478.94 948.01,-481.1 957.46,-485.88 958.38,-478.94"/>
</g>
<!-- 27&#45;&gt;53 -->
<g id="edge111" class="edge">
<title>27&#45;&gt;53</title>
<path fill="none" stroke="grey" stroke-width="2" d="M1584.12,-545.95C1620.82,-531.43 1673.68,-510.52 1712.97,-494.98"/>
<polygon fill="grey" stroke="grey" stroke-width="2" points="1714.64,-498.08 1722.65,-491.15 1712.06,-491.57 1714.64,-498.08"/>
</g>
<!-- 27&#45;&gt;61 -->
<g id="edge112" class="edge">
<title>27&#45;&gt;61</title>
<path fill="none" stroke="grey" stroke-width="2" d="M1597.28,-563.6C1712.66,-562.5 1981.27,-547.76 2173,-442 2212.47,-420.23 2248.14,-381.75 2269.69,-355.46"/>
<polygon fill="grey" stroke="grey" stroke-width="2" points="2272.64,-357.38 2276.17,-347.39 2267.18,-352.99 2272.64,-357.38"/>
</g>
<!-- 28 -->
<g id="node20" class="node">
<title>28</title>
<path fill="none" stroke="#b6d856" stroke-width="2" d="M1533.5,-692C1533.5,-692 1418.5,-692 1418.5,-692 1412.5,-692 1406.5,-686 1406.5,-680 1406.5,-680 1406.5,-668 1406.5,-668 1406.5,-662 1412.5,-656 1418.5,-656 1418.5,-656 1533.5,-656 1533.5,-656 1539.5,-656 1545.5,-662 1545.5,-668 1545.5,-668 1545.5,-680 1545.5,-680 1545.5,-686 1539.5,-692 1533.5,-692"/>
<text text-anchor="middle" x="1476" y="-677" font-family="sans" font-size="10.00">prep_equivolume_coords</text>
<text text-anchor="middle" x="1476" y="-666" font-family="sans" font-size="10.00">dir: IO</text>
</g>
<!-- 28&#45;&gt;27 -->
<g id="edge16" class="edge">
<title>28&#45;&gt;27</title>
<path fill="none" stroke="grey" stroke-width="2" d="M1486.44,-655.65C1496.96,-638.17 1513.32,-611 1525.38,-590.95"/>
<polygon fill="grey" stroke="grey" stroke-width="2" points="1528.42,-592.68 1530.58,-582.31 1522.43,-589.07 1528.42,-592.68"/>
</g>
<!-- 59 -->
<g id="node21" class="node">
<title>59</title>
<path fill="none" stroke="#d8bc56" stroke-width="2" d="M1668,-692C1668,-692 1576,-692 1576,-692 1570,-692 1564,-686 1564,-680 1564,-680 1564,-668 1564,-668 1564,-662 1570,-656 1576,-656 1576,-656 1668,-656 1668,-656 1674,-656 1680,-662 1680,-668 1680,-668 1680,-680 1680,-680 1680,-686 1674,-692 1668,-692"/>
<text text-anchor="middle" x="1622" y="-671.5" font-family="sans" font-size="10.00">laplace_coords_hipp</text>
</g>
<!-- 59&#45;&gt;58 -->
<g id="edge125" class="edge">
<title>59&#45;&gt;58</title>
<path fill="none" stroke="grey" stroke-width="2" d="M1680.18,-672.35C1837.44,-669.84 2267.76,-657.83 2396,-601 2527.14,-542.88 2504.11,-443.88 2634,-383 2738.68,-333.94 2779.68,-365.75 2897.5,-347.12"/>
<polygon fill="grey" stroke="grey" stroke-width="2" points="2898.34,-350.53 2907.62,-345.43 2897.18,-343.63 2898.34,-350.53"/>
</g>
<!-- 1 -->
<g id="node22" class="node">
<title>1</title>
<path fill="none" stroke="#9fd856" stroke-width="2" d="M332,-44C332,-44 234,-44 234,-44 228,-44 222,-38 222,-32 222,-32 222,-20 222,-20 222,-14 228,-8 234,-8 234,-8 332,-8 332,-8 338,-8 344,-14 344,-20 344,-20 344,-32 344,-32 344,-38 338,-44 332,-44"/>
<text text-anchor="middle" x="283" y="-29" font-family="sans" font-size="10.00">create_spec_file_hipp</text>
<text text-anchor="middle" x="283" y="-18" font-family="sans" font-size="10.00">label: hipp</text>
</g>
<!-- 1&#45;&gt;0 -->
<g id="edge67" class="edge">
<title>1&#45;&gt;0</title>
<path fill="none" stroke="grey" stroke-width="2" d="M344.1,-31.49C652.61,-54.17 2033.98,-155.7 2279.59,-173.75"/>
<polygon fill="grey" stroke="grey" stroke-width="2" points="2279.56,-177.26 2289.78,-174.5 2280.07,-170.28 2279.56,-177.26"/>
</g>
<!-- 2 -->
<g id="node23" class="node">
<title>2</title>
<path fill="none" stroke="#d89556" stroke-width="2" d="M157.5,-195.5C157.5,-195.5 60.5,-195.5 60.5,-195.5 54.5,-195.5 48.5,-189.5 48.5,-183.5 48.5,-183.5 48.5,-171.5 48.5,-171.5 48.5,-165.5 54.5,-159.5 60.5,-159.5 60.5,-159.5 157.5,-159.5 157.5,-159.5 163.5,-159.5 169.5,-165.5 169.5,-171.5 169.5,-171.5 169.5,-183.5 169.5,-183.5 169.5,-189.5 163.5,-195.5 157.5,-195.5"/>
<text text-anchor="middle" x="109" y="-175" font-family="sans" font-size="10.00">calculate_gyrification</text>
</g>
<!-- 2&#45;&gt;1 -->
<g id="edge17" class="edge">
<title>2&#45;&gt;1</title>
<path fill="none" stroke="grey" stroke-width="2" d="M89.35,-159.24C68.6,-138.93 41.41,-104.82 61,-80 79.62,-56.42 154.08,-42.18 211.69,-34.48"/>
<polygon fill="grey" stroke="grey" stroke-width="2" points="212.4,-37.92 221.87,-33.17 211.5,-30.98 212.4,-37.92"/>
</g>
<!-- 48 -->
<g id="node24" class="node">
<title>48</title>
<path fill="none" stroke="#d87d56" stroke-width="2" d="M206,-118.5C206,-118.5 82,-118.5 82,-118.5 76,-118.5 70,-112.5 70,-106.5 70,-106.5 70,-94.5 70,-94.5 70,-88.5 76,-82.5 82,-82.5 82,-82.5 206,-82.5 206,-82.5 212,-82.5 218,-88.5 218,-94.5 218,-94.5 218,-106.5 218,-106.5 218,-112.5 212,-118.5 206,-118.5"/>
<text text-anchor="middle" x="144" y="-103.5" font-family="sans" font-size="10.00">create_dscalar_metric_cifti</text>
<text text-anchor="middle" x="144" y="-92.5" font-family="sans" font-size="10.00">metric: gyrification</text>
</g>
<!-- 2&#45;&gt;48 -->
<g id="edge18" class="edge">
<title>2&#45;&gt;48</title>
<path fill="none" stroke="grey" stroke-width="2" d="M116.94,-159.48C121.3,-150.15 126.79,-138.38 131.69,-127.88"/>
<polygon fill="grey" stroke="grey" stroke-width="2" points="134.91,-129.25 135.97,-118.71 128.57,-126.29 134.91,-129.25"/>
</g>
<!-- 48&#45;&gt;1 -->
<g id="edge45" class="edge">
<title>48&#45;&gt;1</title>
<path fill="none" stroke="grey" stroke-width="2" d="M176.94,-82.32C196.24,-72.25 220.8,-59.44 241.43,-48.68"/>
<polygon fill="grey" stroke="grey" stroke-width="2" points="243.05,-51.79 250.3,-44.06 239.81,-45.58 243.05,-51.79"/>
</g>
<!-- 3 -->
<g id="node25" class="node">
<title>3</title>
<path fill="none" stroke="#d85e56" stroke-width="2" d="M168.5,-270C168.5,-270 63.5,-270 63.5,-270 57.5,-270 51.5,-264 51.5,-258 51.5,-258 51.5,-246 51.5,-246 51.5,-240 57.5,-234 63.5,-234 63.5,-234 168.5,-234 168.5,-234 174.5,-234 180.5,-240 180.5,-246 180.5,-246 180.5,-258 180.5,-258 180.5,-264 174.5,-270 168.5,-270"/>
<text text-anchor="middle" x="116" y="-255" font-family="sans" font-size="10.00">calculate_surface_area</text>
<text text-anchor="middle" x="116" y="-244" font-family="sans" font-size="10.00">space: T1w</text>
</g>
<!-- 3&#45;&gt;2 -->
<g id="edge19" class="edge">
<title>3&#45;&gt;2</title>
<path fill="none" stroke="grey" stroke-width="2" d="M114.34,-233.82C113.53,-225.42 112.54,-215.12 111.62,-205.69"/>
<polygon fill="grey" stroke="grey" stroke-width="2" points="115.09,-205.18 110.65,-195.56 108.12,-205.85 115.09,-205.18"/>
</g>
<!-- 4&#45;&gt;67 -->
<g id="edge68" class="edge">
<title>4&#45;&gt;67</title>
<path fill="none" stroke="grey" stroke-width="2" d="M347.6,-316.15C371.85,-312.36 400.77,-308.34 427,-306 505.2,-299.04 1691.47,-263.11 1969.85,-254.74"/>
<polygon fill="grey" stroke="grey" stroke-width="2" points="1970.24,-258.23 1980.13,-254.43 1970.03,-251.24 1970.24,-258.23"/>
</g>
<!-- 4&#45;&gt;1 -->
<g id="edge20" class="edge">
<title>4&#45;&gt;1</title>
<path fill="none" stroke="grey" stroke-width="2" d="M238.44,-326.34C172.58,-326.07 67.46,-321.07 42,-293 10.17,-257.91 18.69,-114.65 51,-80 72.64,-56.79 151.84,-42.35 211.74,-34.51"/>
<polygon fill="grey" stroke="grey" stroke-width="2" points="212.44,-37.95 221.92,-33.22 211.56,-31.01 212.44,-37.95"/>
</g>
<!-- 4&#45;&gt;3 -->
<g id="edge21" class="edge">
<title>4&#45;&gt;3</title>
<path fill="none" stroke="grey" stroke-width="2" d="M251.05,-308.32C225.92,-298.03 193.79,-284.87 167.18,-273.96"/>
<polygon fill="grey" stroke="grey" stroke-width="2" points="168.23,-270.61 157.65,-270.06 165.57,-277.09 168.23,-270.61"/>
</g>
<!-- 34 -->
<g id="node27" class="node">
<title>34</title>
<path fill="none" stroke="#d88d56" stroke-width="2" d="M325.5,-270C325.5,-270 254.5,-270 254.5,-270 248.5,-270 242.5,-264 242.5,-258 242.5,-258 242.5,-246 242.5,-246 242.5,-240 248.5,-234 254.5,-234 254.5,-234 325.5,-234 325.5,-234 331.5,-234 337.5,-240 337.5,-246 337.5,-246 337.5,-258 337.5,-258 337.5,-264 331.5,-270 325.5,-270"/>
<text text-anchor="middle" x="290" y="-255" font-family="sans" font-size="10.00">smooth_surface</text>
<text text-anchor="middle" x="290" y="-244" font-family="sans" font-size="10.00">space: T1w</text>
</g>
<!-- 4&#45;&gt;34 -->
<g id="edge22" class="edge">
<title>4&#45;&gt;34</title>
<path fill="none" stroke="grey" stroke-width="2" d="M292.29,-308.32C291.94,-299.92 291.52,-289.62 291.12,-280.19"/>
<polygon fill="grey" stroke="grey" stroke-width="2" points="294.62,-279.9 290.71,-270.06 287.62,-280.19 294.62,-279.9"/>
</g>
<!-- 33 -->
<g id="node32" class="node">
<title>33</title>
<path fill="none" stroke="#d86656" stroke-width="2" d="M358,-195.5C358,-195.5 200,-195.5 200,-195.5 194,-195.5 188,-189.5 188,-183.5 188,-183.5 188,-171.5 188,-171.5 188,-165.5 194,-159.5 200,-159.5 200,-159.5 358,-159.5 358,-159.5 364,-159.5 370,-165.5 370,-171.5 370,-171.5 370,-183.5 370,-183.5 370,-189.5 364,-195.5 358,-195.5"/>
<text text-anchor="middle" x="279" y="-175" font-family="sans" font-size="10.00">calculate_curvature_from_surface</text>
</g>
<!-- 34&#45;&gt;33 -->
<g id="edge30" class="edge">
<title>34&#45;&gt;33</title>
<path fill="none" stroke="grey" stroke-width="2" d="M287.39,-233.82C286.12,-225.42 284.56,-215.12 283.12,-205.69"/>
<polygon fill="grey" stroke="grey" stroke-width="2" points="286.55,-204.92 281.59,-195.56 279.63,-205.97 286.55,-204.92"/>
</g>
<!-- 5 -->
<g id="node28" class="node">
<title>5</title>
<path fill="none" stroke="#56b1d8" stroke-width="2" d="M362,-419C362,-419 268,-419 268,-419 262,-419 256,-413 256,-407 256,-407 256,-395 256,-395 256,-389 262,-383 268,-383 268,-383 362,-383 362,-383 368,-383 374,-389 374,-395 374,-395 374,-407 374,-407 374,-413 368,-419 362,-419"/>
<text text-anchor="middle" x="315" y="-398.5" font-family="sans" font-size="10.00">correct_nan_vertices</text>
</g>
<!-- 5&#45;&gt;4 -->
<g id="edge23" class="edge">
<title>5&#45;&gt;4</title>
<path fill="none" stroke="grey" stroke-width="2" d="M309.79,-382.82C307.21,-374.33 304.04,-363.89 301.16,-354.38"/>
<polygon fill="grey" stroke="grey" stroke-width="2" points="304.43,-353.11 298.18,-344.56 297.73,-355.14 304.43,-353.11"/>
</g>
<!-- 6&#45;&gt;5 -->
<g id="edge24" class="edge">
<title>6&#45;&gt;5</title>
<path fill="none" stroke="grey" stroke-width="2" d="M323.28,-454.7C322.07,-446.98 320.61,-437.71 319.26,-429.11"/>
<polygon fill="grey" stroke="grey" stroke-width="2" points="322.7,-428.44 317.69,-419.1 315.78,-429.53 322.7,-428.44"/>
</g>
<!-- 30&#45;&gt;6 -->
<g id="edge25" class="edge">
<title>30&#45;&gt;6</title>
<path fill="none" stroke="grey" stroke-width="2" d="M326,-545.84C326,-533.28 326,-515.98 326,-501.5"/>
<polygon fill="grey" stroke="grey" stroke-width="2" points="329.5,-501.11 326,-491.11 322.5,-501.11 329.5,-501.11"/>
</g>
<!-- 31 -->
<g id="node31" class="node">
<title>31</title>
<path fill="none" stroke="#56b9d8" stroke-width="2" d="M258,-711C258,-711 148,-711 148,-711 142,-711 136,-705 136,-699 136,-699 136,-649 136,-649 136,-643 142,-637 148,-637 148,-637 258,-637 258,-637 264,-637 270,-643 270,-649 270,-649 270,-699 270,-699 270,-705 264,-711 258,-711"/>
<text text-anchor="middle" x="203" y="-699" font-family="sans" font-size="10.00">cp_template_to_unfold</text>
<text text-anchor="middle" x="203" y="-688" font-family="sans" font-size="10.00">autotop: hipp</text>
<text text-anchor="middle" x="203" y="-677" font-family="sans" font-size="10.00">density: 0p5mm</text>
<text text-anchor="middle" x="203" y="-666" font-family="sans" font-size="10.00">hemi: R</text>
<text text-anchor="middle" x="203" y="-655" font-family="sans" font-size="10.00">subject: 001</text>
<text text-anchor="middle" x="203" y="-644" font-family="sans" font-size="10.00">surfname: midthickness</text>
</g>
<!-- 31&#45;&gt;1 -->
<g id="edge26" class="edge">
<title>31&#45;&gt;1</title>
<path fill="none" stroke="grey" stroke-width="2" d="M135.96,-639.28C79.89,-605.78 9,-548.67 9,-474 9,-474 9,-474 9,-176.5 9,-132.7 -1.95,-110.99 29,-80 54.23,-54.74 145.61,-40.44 211.54,-33.21"/>
<polygon fill="grey" stroke="grey" stroke-width="2" points="212.31,-36.65 221.88,-32.11 211.57,-29.69 212.31,-36.65"/>
</g>
<!-- 31&#45;&gt;30 -->
<g id="edge27" class="edge">
<title>31&#45;&gt;30</title>
<path fill="none" stroke="grey" stroke-width="2" d="M244.3,-636.74C262.13,-621.08 282.51,-603.19 298.45,-589.19"/>
<polygon fill="grey" stroke="grey" stroke-width="2" points="301.14,-591.48 306.35,-582.26 296.52,-586.22 301.14,-591.48"/>
</g>
<!-- 33&#45;&gt;1 -->
<g id="edge28" class="edge">
<title>33&#45;&gt;1</title>
<path fill="none" stroke="grey" stroke-width="2" d="M265.76,-159.06C258.68,-148.63 250.68,-134.75 247,-121 242.29,-103.4 241.64,-97.42 247,-80 250.01,-70.22 255.51,-60.62 261.32,-52.33"/>
<polygon fill="grey" stroke="grey" stroke-width="2" points="264.19,-54.33 267.39,-44.23 258.59,-50.13 264.19,-54.33"/>
</g>
<!-- 49 -->
<g id="node33" class="node">
<title>49</title>
<path fill="none" stroke="#d87d56" stroke-width="2" d="M392,-118.5C392,-118.5 268,-118.5 268,-118.5 262,-118.5 256,-112.5 256,-106.5 256,-106.5 256,-94.5 256,-94.5 256,-88.5 262,-82.5 268,-82.5 268,-82.5 392,-82.5 392,-82.5 398,-82.5 404,-88.5 404,-94.5 404,-94.5 404,-106.5 404,-106.5 404,-112.5 398,-118.5 392,-118.5"/>
<text text-anchor="middle" x="330" y="-103.5" font-family="sans" font-size="10.00">create_dscalar_metric_cifti</text>
<text text-anchor="middle" x="330" y="-92.5" font-family="sans" font-size="10.00">metric: curvature</text>
</g>
<!-- 33&#45;&gt;49 -->
<g id="edge29" class="edge">
<title>33&#45;&gt;49</title>
<path fill="none" stroke="grey" stroke-width="2" d="M290.57,-159.48C297.05,-149.96 305.25,-137.9 312.5,-127.24"/>
<polygon fill="grey" stroke="grey" stroke-width="2" points="315.57,-128.95 318.3,-118.71 309.78,-125.01 315.57,-128.95"/>
</g>
<!-- 49&#45;&gt;1 -->
<g id="edge46" class="edge">
<title>49&#45;&gt;1</title>
<path fill="none" stroke="grey" stroke-width="2" d="M318.86,-82.32C313.13,-73.47 306.02,-62.5 299.64,-52.67"/>
<polygon fill="grey" stroke="grey" stroke-width="2" points="302.44,-50.55 294.06,-44.06 296.56,-54.35 302.44,-50.55"/>
</g>
<!-- 35 -->
<g id="node34" class="node">
<title>35</title>
<path fill="none" stroke="#56d86b" stroke-width="2" d="M558,-195.5C558,-195.5 400,-195.5 400,-195.5 394,-195.5 388,-189.5 388,-183.5 388,-183.5 388,-171.5 388,-171.5 388,-165.5 394,-159.5 400,-159.5 400,-159.5 558,-159.5 558,-159.5 564,-159.5 570,-165.5 570,-171.5 570,-171.5 570,-183.5 570,-183.5 570,-189.5 564,-195.5 558,-195.5"/>
<text text-anchor="middle" x="479" y="-180.5" font-family="sans" font-size="10.00">calculate_thickness_from_surface</text>
<text text-anchor="middle" x="479" y="-169.5" font-family="sans" font-size="10.00">space: T1w</text>
</g>
<!-- 35&#45;&gt;1 -->
<g id="edge31" class="edge">
<title>35&#45;&gt;1</title>
<path fill="none" stroke="grey" stroke-width="2" d="M462.95,-159.34C453.54,-148.77 441.82,-134.67 433,-121 422.01,-103.96 427.81,-93.85 413,-80 396.41,-64.48 374.66,-53.23 353.71,-45.21"/>
<polygon fill="grey" stroke="grey" stroke-width="2" points="354.76,-41.86 344.17,-41.74 352.37,-48.45 354.76,-41.86"/>
</g>
<!-- 50 -->
<g id="node35" class="node">
<title>50</title>
<path fill="none" stroke="#d87d56" stroke-width="2" d="M578,-118.5C578,-118.5 454,-118.5 454,-118.5 448,-118.5 442,-112.5 442,-106.5 442,-106.5 442,-94.5 442,-94.5 442,-88.5 448,-82.5 454,-82.5 454,-82.5 578,-82.5 578,-82.5 584,-82.5 590,-88.5 590,-94.5 590,-94.5 590,-106.5 590,-106.5 590,-112.5 584,-118.5 578,-118.5"/>
<text text-anchor="middle" x="516" y="-103.5" font-family="sans" font-size="10.00">create_dscalar_metric_cifti</text>
<text text-anchor="middle" x="516" y="-92.5" font-family="sans" font-size="10.00">metric: thickness</text>
</g>
<!-- 35&#45;&gt;50 -->
<g id="edge32" class="edge">
<title>35&#45;&gt;50</title>
<path fill="none" stroke="grey" stroke-width="2" d="M487.4,-159.48C492,-150.15 497.81,-138.38 502.98,-127.88"/>
<polygon fill="grey" stroke="grey" stroke-width="2" points="506.22,-129.23 507.51,-118.71 499.95,-126.13 506.22,-129.23"/>
</g>
<!-- 50&#45;&gt;1 -->
<g id="edge47" class="edge">
<title>50&#45;&gt;1</title>
<path fill="none" stroke="grey" stroke-width="2" d="M461.08,-82.41C427.14,-71.85 383.41,-58.24 347.78,-47.16"/>
<polygon fill="grey" stroke="grey" stroke-width="2" points="348.55,-43.73 337.96,-44.1 346.47,-50.41 348.55,-43.73"/>
</g>
<!-- 36&#45;&gt;35 -->
<g id="edge33" class="edge">
<title>36&#45;&gt;35</title>
<path fill="none" stroke="grey" stroke-width="2" d="M491.21,-233.82C489.34,-225.33 487.03,-214.89 484.93,-205.38"/>
<polygon fill="grey" stroke="grey" stroke-width="2" points="488.34,-204.57 482.76,-195.56 481.5,-206.08 488.34,-204.57"/>
</g>
<!-- 37 -->
<g id="node37" class="node">
<title>37</title>
<path fill="none" stroke="#56b1d8" stroke-width="2" d="M542,-344.5C542,-344.5 448,-344.5 448,-344.5 442,-344.5 436,-338.5 436,-332.5 436,-332.5 436,-320.5 436,-320.5 436,-314.5 442,-308.5 448,-308.5 448,-308.5 542,-308.5 542,-308.5 548,-308.5 554,-314.5 554,-320.5 554,-320.5 554,-332.5 554,-332.5 554,-338.5 548,-344.5 542,-344.5"/>
<text text-anchor="middle" x="495" y="-324" font-family="sans" font-size="10.00">correct_nan_vertices</text>
</g>
<!-- 37&#45;&gt;36 -->
<g id="edge34" class="edge">
<title>37&#45;&gt;36</title>
<path fill="none" stroke="grey" stroke-width="2" d="M495,-308.32C495,-299.92 495,-289.62 495,-280.19"/>
<polygon fill="grey" stroke="grey" stroke-width="2" points="498.5,-280.06 495,-270.06 491.5,-280.06 498.5,-280.06"/>
</g>
<!-- 38&#45;&gt;37 -->
<g id="edge35" class="edge">
<title>38&#45;&gt;37</title>
<path fill="none" stroke="grey" stroke-width="2" d="M495,-382.82C495,-374.42 495,-364.12 495,-354.69"/>
<polygon fill="grey" stroke="grey" stroke-width="2" points="498.5,-354.56 495,-344.56 491.5,-354.56 498.5,-354.56"/>
</g>
<!-- 39&#45;&gt;38 -->
<g id="edge36" class="edge">
<title>39&#45;&gt;38</title>
<path fill="none" stroke="grey" stroke-width="2" d="M495,-454.7C495,-446.98 495,-437.71 495,-429.11"/>
<polygon fill="grey" stroke="grey" stroke-width="2" points="498.5,-429.1 495,-419.1 491.5,-429.1 498.5,-429.1"/>
</g>
<!-- 40 -->
<g id="node40" class="node">
<title>40</title>
<path fill="none" stroke="#56b9d8" stroke-width="2" d="M530,-601C530,-601 426,-601 426,-601 420,-601 414,-595 414,-589 414,-589 414,-539 414,-539 414,-533 420,-527 426,-527 426,-527 530,-527 530,-527 536,-527 542,-533 542,-539 542,-539 542,-589 542,-589 542,-595 536,-601 530,-601"/>
<text text-anchor="middle" x="478" y="-589" font-family="sans" font-size="10.00">cp_template_to_unfold</text>
<text text-anchor="middle" x="478" y="-578" font-family="sans" font-size="10.00">autotop: hipp</text>
<text text-anchor="middle" x="478" y="-567" font-family="sans" font-size="10.00">density: 0p5mm</text>
<text text-anchor="middle" x="478" y="-556" font-family="sans" font-size="10.00">hemi: R</text>
<text text-anchor="middle" x="478" y="-545" font-family="sans" font-size="10.00">subject: 001</text>
<text text-anchor="middle" x="478" y="-534" font-family="sans" font-size="10.00">surfname: inner</text>
</g>
<!-- 40&#45;&gt;39 -->
<g id="edge37" class="edge">
<title>40&#45;&gt;39</title>
<path fill="none" stroke="grey" stroke-width="2" d="M484.91,-526.8C486.55,-518.23 488.27,-509.24 489.81,-501.16"/>
<polygon fill="grey" stroke="grey" stroke-width="2" points="493.28,-501.64 491.72,-491.16 486.41,-500.33 493.28,-501.64"/>
</g>
<!-- 41&#45;&gt;35 -->
<g id="edge38" class="edge">
<title>41&#45;&gt;35</title>
<path fill="none" stroke="grey" stroke-width="2" d="M604.9,-233.82C581.57,-223.57 551.78,-210.48 527.04,-199.61"/>
<polygon fill="grey" stroke="grey" stroke-width="2" points="528.39,-196.38 517.82,-195.56 525.57,-202.79 528.39,-196.38"/>
</g>
<!-- 42 -->
<g id="node42" class="node">
<title>42</title>
<path fill="none" stroke="#56b1d8" stroke-width="2" d="M691,-344.5C691,-344.5 597,-344.5 597,-344.5 591,-344.5 585,-338.5 585,-332.5 585,-332.5 585,-320.5 585,-320.5 585,-314.5 591,-308.5 597,-308.5 597,-308.5 691,-308.5 691,-308.5 697,-308.5 703,-314.5 703,-320.5 703,-320.5 703,-332.5 703,-332.5 703,-338.5 697,-344.5 691,-344.5"/>
<text text-anchor="middle" x="644" y="-324" font-family="sans" font-size="10.00">correct_nan_vertices</text>
</g>
<!-- 42&#45;&gt;41 -->
<g id="edge39" class="edge">
<title>42&#45;&gt;41</title>
<path fill="none" stroke="grey" stroke-width="2" d="M644,-308.32C644,-299.92 644,-289.62 644,-280.19"/>
<polygon fill="grey" stroke="grey" stroke-width="2" points="647.5,-280.06 644,-270.06 640.5,-280.06 647.5,-280.06"/>
</g>
<!-- 43&#45;&gt;42 -->
<g id="edge40" class="edge">
<title>43&#45;&gt;42</title>
<path fill="none" stroke="grey" stroke-width="2" d="M644,-382.82C644,-374.42 644,-364.12 644,-354.69"/>
<polygon fill="grey" stroke="grey" stroke-width="2" points="647.5,-354.56 644,-344.56 640.5,-354.56 647.5,-354.56"/>
</g>
<!-- 44&#45;&gt;43 -->
<g id="edge41" class="edge">
<title>44&#45;&gt;43</title>
<path fill="none" stroke="grey" stroke-width="2" d="M644,-454.7C644,-446.98 644,-437.71 644,-429.11"/>
<polygon fill="grey" stroke="grey" stroke-width="2" points="647.5,-429.1 644,-419.1 640.5,-429.1 647.5,-429.1"/>
</g>
<!-- 45 -->
<g id="node45" class="node">
<title>45</title>
<path fill="none" stroke="#56b9d8" stroke-width="2" d="M676,-601C676,-601 572,-601 572,-601 566,-601 560,-595 560,-589 560,-589 560,-539 560,-539 560,-533 566,-527 572,-527 572,-527 676,-527 676,-527 682,-527 688,-533 688,-539 688,-539 688,-589 688,-589 688,-595 682,-601 676,-601"/>
<text text-anchor="middle" x="624" y="-589" font-family="sans" font-size="10.00">cp_template_to_unfold</text>
<text text-anchor="middle" x="624" y="-578" font-family="sans" font-size="10.00">autotop: hipp</text>
<text text-anchor="middle" x="624" y="-567" font-family="sans" font-size="10.00">density: 0p5mm</text>
<text text-anchor="middle" x="624" y="-556" font-family="sans" font-size="10.00">hemi: R</text>
<text text-anchor="middle" x="624" y="-545" font-family="sans" font-size="10.00">subject: 001</text>
<text text-anchor="middle" x="624" y="-534" font-family="sans" font-size="10.00">surfname: outer</text>
</g>
<!-- 45&#45;&gt;44 -->
<g id="edge42" class="edge">
<title>45&#45;&gt;44</title>
<path fill="none" stroke="grey" stroke-width="2" d="M632.13,-526.8C634.06,-518.23 636.08,-509.24 637.9,-501.16"/>
<polygon fill="grey" stroke="grey" stroke-width="2" points="641.37,-501.68 640.14,-491.16 634.54,-500.15 641.37,-501.68"/>
</g>
<!-- 46 -->
<g id="node46" class="node">
<title>46</title>
<path fill="none" stroke="#d8b456" stroke-width="2" d="M692.5,-121C692.5,-121 621.5,-121 621.5,-121 615.5,-121 609.5,-115 609.5,-109 609.5,-109 609.5,-92 609.5,-92 609.5,-86 615.5,-80 621.5,-80 621.5,-80 692.5,-80 692.5,-80 698.5,-80 704.5,-86 704.5,-92 704.5,-92 704.5,-109 704.5,-109 704.5,-115 698.5,-121 692.5,-121"/>
<text text-anchor="middle" x="657" y="-109" font-family="sans" font-size="10.00">nii_to_label_gii</text>
<text text-anchor="middle" x="657" y="-98" font-family="sans" font-size="10.00">density: 0p5mm</text>
<text text-anchor="middle" x="657" y="-87" font-family="sans" font-size="10.00">space: T1w</text>
</g>
<!-- 46&#45;&gt;1 -->
<g id="edge43" class="edge">
<title>46&#45;&gt;1</title>
<path fill="none" stroke="grey" stroke-width="2" d="M609.38,-82.83C605.89,-81.81 602.4,-80.85 599,-80 516.02,-59.23 418.71,-44.29 354.23,-35.67"/>
<polygon fill="grey" stroke="grey" stroke-width="2" points="354.54,-32.18 344.17,-34.34 353.62,-39.12 354.54,-32.18"/>
</g>
<!-- 47&#45;&gt;46 -->
<g id="edge44" class="edge">
<title>47&#45;&gt;46</title>
<path fill="none" stroke="grey" stroke-width="2" d="M657.74,-156.79C657.63,-148.96 657.51,-139.77 657.4,-131.16"/>
<polygon fill="grey" stroke="grey" stroke-width="2" points="660.89,-131.03 657.26,-121.07 653.89,-131.12 660.89,-131.03"/>
</g>
<!-- 47&#45;&gt;53 -->
<g id="edge116" class="edge">
<title>47&#45;&gt;53</title>
<path fill="none" stroke="grey" stroke-width="2" d="M728.09,-180.28C942.14,-186.01 1574.8,-205.31 1608,-234 1679.43,-295.72 1585.98,-373.56 1651,-442 1653.49,-444.62 1656.18,-447.03 1659.03,-449.23"/>
<polygon fill="grey" stroke="grey" stroke-width="2" points="1657.2,-452.22 1667.45,-454.92 1661.12,-446.42 1657.2,-452.22"/>
</g>
<!-- 52 -->
<g id="node48" class="node">
<title>52</title>
<path fill="none" stroke="#d8cb56" stroke-width="2" d="M1854,-419C1854,-419 1672,-419 1672,-419 1666,-419 1660,-413 1660,-407 1660,-407 1660,-395 1660,-395 1660,-389 1666,-383 1672,-383 1672,-383 1854,-383 1854,-383 1860,-383 1866,-389 1866,-395 1866,-395 1866,-407 1866,-407 1866,-413 1860,-419 1854,-419"/>
<text text-anchor="middle" x="1763" y="-398.5" font-family="sans" font-size="10.00">combine_tissue_subfield_labels_corobl</text>
</g>
<!-- 52&#45;&gt;55 -->
<g id="edge48" class="edge">
<title>52&#45;&gt;55</title>
<path fill="none" stroke="grey" stroke-width="2" d="M1769.64,-382.82C1772.95,-374.24 1777.03,-363.67 1780.74,-354.08"/>
<polygon fill="grey" stroke="grey" stroke-width="2" points="1784.07,-355.15 1784.41,-344.56 1777.54,-352.63 1784.07,-355.15"/>
</g>
<!-- 52&#45;&gt;51 -->
<g id="edge119" class="edge">
<title>52&#45;&gt;51</title>
<path fill="none" stroke="grey" stroke-width="2" d="M1843.62,-382.91C1894.91,-372.04 1961.44,-357.93 2014.54,-346.68"/>
<polygon fill="grey" stroke="grey" stroke-width="2" points="2015.57,-350.04 2024.63,-344.54 2014.12,-343.19 2015.57,-350.04"/>
</g>
<!-- 54 -->
<g id="node64" class="node">
<title>54</title>
<path fill="none" stroke="#56d88a" stroke-width="2" d="M2152,-419C2152,-419 2048,-419 2048,-419 2042,-419 2036,-413 2036,-407 2036,-407 2036,-395 2036,-395 2036,-389 2042,-383 2048,-383 2048,-383 2152,-383 2152,-383 2158,-383 2164,-389 2164,-395 2164,-395 2164,-407 2164,-407 2164,-413 2158,-419 2152,-419"/>
<text text-anchor="middle" x="2100" y="-398.5" font-family="sans" font-size="10.00">create_native_crop_ref</text>
</g>
<!-- 55&#45;&gt;54 -->
<g id="edge121" class="edge">
<title>55&#45;&gt;54</title>
<path fill="none" stroke="grey" stroke-width="2" d="M1863.61,-344.54C1912.52,-356.01 1976.84,-371.1 2026.03,-382.65"/>
<polygon fill="grey" stroke="grey" stroke-width="2" points="2025.44,-386.1 2035.98,-384.98 2027.04,-379.29 2025.44,-386.1"/>
</g>
<!-- 53&#45;&gt;52 -->
<g id="edge49" class="edge">
<title>53&#45;&gt;52</title>
<path fill="none" stroke="grey" stroke-width="2" d="M1765.26,-454.7C1764.93,-446.98 1764.53,-437.71 1764.16,-429.11"/>
<polygon fill="grey" stroke="grey" stroke-width="2" points="1767.66,-428.95 1763.73,-419.1 1760.66,-429.25 1767.66,-428.95"/>
</g>
<!-- 11 -->
<g id="node51" class="node">
<title>11</title>
<path fill="none" stroke="#5673d8" stroke-width="2" d="M1620.5,-783C1620.5,-783 1515.5,-783 1515.5,-783 1509.5,-783 1503.5,-777 1503.5,-771 1503.5,-771 1503.5,-759 1503.5,-759 1503.5,-753 1509.5,-747 1515.5,-747 1515.5,-747 1620.5,-747 1620.5,-747 1626.5,-747 1632.5,-753 1632.5,-759 1632.5,-759 1632.5,-771 1632.5,-771 1632.5,-777 1626.5,-783 1620.5,-783"/>
<text text-anchor="middle" x="1568" y="-762.5" font-family="sans" font-size="10.00">reinsert_subject_labels</text>
</g>
<!-- 11&#45;&gt;10 -->
<g id="edge81" class="edge">
<title>11&#45;&gt;10</title>
<path fill="none" stroke="grey" stroke-width="2" d="M1503.25,-762.27C1426.79,-759.43 1304.72,-752.13 1263,-734 1245.34,-726.33 1229.05,-712.21 1216.95,-699.71"/>
<polygon fill="grey" stroke="grey" stroke-width="2" points="1219.35,-697.15 1209.98,-692.2 1214.22,-701.91 1219.35,-697.15"/>
</g>
<!-- 11&#45;&gt;25 -->
<g id="edge82" class="edge">
<title>11&#45;&gt;25</title>
<path fill="none" stroke="grey" stroke-width="2" d="M1503.35,-760.78C1470.51,-757.15 1430.74,-749.6 1398,-734 1380.59,-725.7 1364.17,-711.7 1351.82,-699.41"/>
<polygon fill="grey" stroke="grey" stroke-width="2" points="1354.16,-696.8 1344.69,-692.06 1349.13,-701.67 1354.16,-696.8"/>
</g>
<!-- 11&#45;&gt;28 -->
<g id="edge83" class="edge">
<title>11&#45;&gt;28</title>
<path fill="none" stroke="grey" stroke-width="2" d="M1550.26,-746.84C1536.26,-733.3 1516.56,-714.24 1500.97,-699.15"/>
<polygon fill="grey" stroke="grey" stroke-width="2" points="1503.3,-696.54 1493.68,-692.11 1498.44,-701.58 1503.3,-696.54"/>
</g>
<!-- 11&#45;&gt;59 -->
<g id="edge85" class="edge">
<title>11&#45;&gt;59</title>
<path fill="none" stroke="grey" stroke-width="2" d="M1578.41,-746.84C1586.33,-733.79 1597.36,-715.62 1606.34,-700.81"/>
<polygon fill="grey" stroke="grey" stroke-width="2" points="1609.43,-702.47 1611.62,-692.11 1603.44,-698.84 1609.43,-702.47"/>
</g>
<!-- 11&#45;&gt;52 -->
<g id="edge84" class="edge">
<title>11&#45;&gt;52</title>
<path fill="none" stroke="grey" stroke-width="2" d="M1632.7,-754.34C1650.19,-749.89 1668.54,-743.41 1684,-734 1796.11,-665.76 1834.13,-636.6 1881,-514 1890.36,-489.51 1895.25,-477.02 1881,-455 1872.11,-441.26 1858.72,-431.05 1844.11,-423.47"/>
<polygon fill="grey" stroke="grey" stroke-width="2" points="1845.42,-420.22 1834.88,-419.08 1842.41,-426.54 1845.42,-420.22"/>
</g>
<!-- 12 -->
<g id="node52" class="node">
<title>12</title>
<path fill="none" stroke="#68d856" stroke-width="2" d="M1620,-857.5C1620,-857.5 1516,-857.5 1516,-857.5 1510,-857.5 1504,-851.5 1504,-845.5 1504,-845.5 1504,-833.5 1504,-833.5 1504,-827.5 1510,-821.5 1516,-821.5 1516,-821.5 1620,-821.5 1620,-821.5 1626,-821.5 1632,-827.5 1632,-833.5 1632,-833.5 1632,-845.5 1632,-845.5 1632,-851.5 1626,-857.5 1620,-857.5"/>
<text text-anchor="middle" x="1568" y="-837" font-family="sans" font-size="10.00">template_shape_inject</text>
</g>
<!-- 12&#45;&gt;11 -->
<g id="edge50" class="edge">
<title>12&#45;&gt;11</title>
<path fill="none" stroke="grey" stroke-width="2" d="M1568,-821.32C1568,-812.92 1568,-802.62 1568,-793.19"/>
<polygon fill="grey" stroke="grey" stroke-width="2" points="1571.5,-793.06 1568,-783.06 1564.5,-793.06 1571.5,-793.06"/>
</g>
<!-- 13 -->
<g id="node53" class="node">
<title>13</title>
<path fill="none" stroke="#56d8b9" stroke-width="2" d="M1267.5,-1081C1267.5,-1081 1158.5,-1081 1158.5,-1081 1152.5,-1081 1146.5,-1075 1146.5,-1069 1146.5,-1069 1146.5,-1057 1146.5,-1057 1146.5,-1051 1152.5,-1045 1158.5,-1045 1158.5,-1045 1267.5,-1045 1267.5,-1045 1273.5,-1045 1279.5,-1051 1279.5,-1057 1279.5,-1057 1279.5,-1069 1279.5,-1069 1279.5,-1075 1273.5,-1081 1267.5,-1081"/>
<text text-anchor="middle" x="1213" y="-1066" font-family="sans" font-size="10.00">import_template_shape</text>
<text text-anchor="middle" x="1213" y="-1055" font-family="sans" font-size="10.00">subject: 001</text>
</g>
<!-- 13&#45;&gt;12 -->
<g id="edge51" class="edge">
<title>13&#45;&gt;12</title>
<path fill="none" stroke="grey" stroke-width="2" d="M1249.42,-1044.98C1265.97,-1035.97 1284.94,-1023.71 1299,-1009 1311.65,-995.77 1305.94,-985.82 1319,-973 1373.22,-919.75 1453.2,-882.37 1507.79,-861.19"/>
<polygon fill="grey" stroke="grey" stroke-width="2" points="1509.24,-864.38 1517.34,-857.55 1506.75,-857.84 1509.24,-864.38"/>
</g>
<!-- 22 -->
<g id="node54" class="node">
<title>22</title>
<path fill="none" stroke="#56a2d8" stroke-width="2" d="M1278.5,-1009C1278.5,-1009 955.5,-1009 955.5,-1009 949.5,-1009 943.5,-1003 943.5,-997 943.5,-997 943.5,-985 943.5,-985 943.5,-979 949.5,-973 955.5,-973 955.5,-973 1278.5,-973 1278.5,-973 1284.5,-973 1290.5,-979 1290.5,-985 1290.5,-985 1290.5,-997 1290.5,-997 1290.5,-1003 1284.5,-1009 1278.5,-1009"/>
<text text-anchor="middle" x="1117" y="-994" font-family="sans" font-size="10.00">prep_segs_for_greedy</text>
<text text-anchor="middle" x="1117" y="-983" font-family="sans" font-size="10.00">prefix: work/sub&#45;001/anat/sub&#45;001_space&#45;template_desc&#45;hipptissue</text>
</g>
<!-- 13&#45;&gt;22 -->
<g id="edge52" class="edge">
<title>13&#45;&gt;22</title>
<path fill="none" stroke="grey" stroke-width="2" d="M1189.27,-1044.7C1177.06,-1035.8 1162.01,-1024.82 1148.82,-1015.2"/>
<polygon fill="grey" stroke="grey" stroke-width="2" points="1150.6,-1012.17 1140.46,-1009.1 1146.48,-1017.82 1150.6,-1012.17"/>
</g>
<!-- 21 -->
<g id="node55" class="node">
<title>21</title>
<path fill="none" stroke="#5692d8" stroke-width="2" d="M1278,-937C1278,-937 1186,-937 1186,-937 1180,-937 1174,-931 1174,-925 1174,-925 1174,-908 1174,-908 1174,-902 1180,-896 1186,-896 1186,-896 1278,-896 1278,-896 1284,-896 1290,-902 1290,-908 1290,-908 1290,-925 1290,-925 1290,-931 1284,-937 1278,-937"/>
<text text-anchor="middle" x="1232" y="-925" font-family="sans" font-size="10.00">template_shape_reg</text>
<text text-anchor="middle" x="1232" y="-914" font-family="sans" font-size="10.00">hemi: R</text>
<text text-anchor="middle" x="1232" y="-903" font-family="sans" font-size="10.00">subject: 001</text>
</g>
<!-- 22&#45;&gt;21 -->
<g id="edge57" class="edge">
<title>22&#45;&gt;21</title>
<path fill="none" stroke="grey" stroke-width="2" d="M1144.25,-972.82C1158.6,-963.77 1176.46,-952.52 1192.31,-942.52"/>
<polygon fill="grey" stroke="grey" stroke-width="2" points="1194.29,-945.41 1200.88,-937.12 1190.55,-939.49 1194.29,-945.41"/>
</g>
<!-- 21&#45;&gt;12 -->
<g id="edge53" class="edge">
<title>21&#45;&gt;12</title>
<path fill="none" stroke="grey" stroke-width="2" d="M1290.06,-899.36C1294.77,-898.18 1299.46,-897.04 1304,-896 1388.2,-876.69 1410.77,-879.16 1495,-860 1495.22,-859.95 1495.43,-859.9 1495.65,-859.85"/>
<polygon fill="grey" stroke="grey" stroke-width="2" points="1496.63,-863.22 1505.56,-857.51 1495.02,-856.4 1496.63,-863.22"/>
</g>
<!-- 24 -->
<g id="node56" class="node">
<title>24</title>
<path fill="none" stroke="#56d882" stroke-width="2" d="M1151.5,-860C1151.5,-860 1032.5,-860 1032.5,-860 1026.5,-860 1020.5,-854 1020.5,-848 1020.5,-848 1020.5,-831 1020.5,-831 1020.5,-825 1026.5,-819 1032.5,-819 1032.5,-819 1151.5,-819 1151.5,-819 1157.5,-819 1163.5,-825 1163.5,-831 1163.5,-831 1163.5,-848 1163.5,-848 1163.5,-854 1157.5,-860 1151.5,-860"/>
<text text-anchor="middle" x="1092" y="-848" font-family="sans" font-size="10.00">inject_init_laplace_coords</text>
<text text-anchor="middle" x="1092" y="-837" font-family="sans" font-size="10.00">autotop: hipp</text>
<text text-anchor="middle" x="1092" y="-826" font-family="sans" font-size="10.00">dir: AP</text>
</g>
<!-- 21&#45;&gt;24 -->
<g id="edge54" class="edge">
<title>21&#45;&gt;24</title>
<path fill="none" stroke="grey" stroke-width="2" d="M1195.58,-895.99C1177.9,-886.52 1156.46,-875.03 1137.69,-864.98"/>
<polygon fill="grey" stroke="grey" stroke-width="2" points="1139.19,-861.81 1128.72,-860.17 1135.88,-867.98 1139.19,-861.81"/>
</g>
<!-- 26 -->
<g id="node57" class="node">
<title>26</title>
<path fill="none" stroke="#56d882" stroke-width="2" d="M1312.5,-860C1312.5,-860 1193.5,-860 1193.5,-860 1187.5,-860 1181.5,-854 1181.5,-848 1181.5,-848 1181.5,-831 1181.5,-831 1181.5,-825 1187.5,-819 1193.5,-819 1193.5,-819 1312.5,-819 1312.5,-819 1318.5,-819 1324.5,-825 1324.5,-831 1324.5,-831 1324.5,-848 1324.5,-848 1324.5,-854 1318.5,-860 1312.5,-860"/>
<text text-anchor="middle" x="1253" y="-848" font-family="sans" font-size="10.00">inject_init_laplace_coords</text>
<text text-anchor="middle" x="1253" y="-837" font-family="sans" font-size="10.00">autotop: hipp</text>
<text text-anchor="middle" x="1253" y="-826" font-family="sans" font-size="10.00">dir: PD</text>
</g>
<!-- 21&#45;&gt;26 -->
<g id="edge55" class="edge">
<title>21&#45;&gt;26</title>
<path fill="none" stroke="grey" stroke-width="2" d="M1237.52,-895.79C1239.74,-887.87 1242.34,-878.57 1244.77,-869.88"/>
<polygon fill="grey" stroke="grey" stroke-width="2" points="1248.19,-870.65 1247.52,-860.07 1241.45,-868.76 1248.19,-870.65"/>
</g>
<!-- 60 -->
<g id="node58" class="node">
<title>60</title>
<path fill="none" stroke="#56d882" stroke-width="2" d="M1473.5,-860C1473.5,-860 1354.5,-860 1354.5,-860 1348.5,-860 1342.5,-854 1342.5,-848 1342.5,-848 1342.5,-831 1342.5,-831 1342.5,-825 1348.5,-819 1354.5,-819 1354.5,-819 1473.5,-819 1473.5,-819 1479.5,-819 1485.5,-825 1485.5,-831 1485.5,-831 1485.5,-848 1485.5,-848 1485.5,-854 1479.5,-860 1473.5,-860"/>
<text text-anchor="middle" x="1414" y="-848" font-family="sans" font-size="10.00">inject_init_laplace_coords</text>
<text text-anchor="middle" x="1414" y="-837" font-family="sans" font-size="10.00">autotop: hipp</text>
<text text-anchor="middle" x="1414" y="-826" font-family="sans" font-size="10.00">dir: IO</text>
</g>
<!-- 21&#45;&gt;60 -->
<g id="edge56" class="edge">
<title>21&#45;&gt;60</title>
<path fill="none" stroke="grey" stroke-width="2" d="M1279.34,-895.99C1303.16,-886.18 1332.2,-874.21 1357.21,-863.9"/>
<polygon fill="grey" stroke="grey" stroke-width="2" points="1358.67,-867.09 1366.58,-860.04 1356,-860.62 1358.67,-867.09"/>
</g>
<!-- 24&#45;&gt;10 -->
<g id="edge105" class="edge">
<title>24&#45;&gt;10</title>
<path fill="none" stroke="grey" stroke-width="2" d="M1104.54,-818.78C1123.31,-789.28 1158.71,-733.63 1179.53,-700.89"/>
<polygon fill="grey" stroke="grey" stroke-width="2" points="1182.58,-702.62 1184.99,-692.31 1176.67,-698.87 1182.58,-702.62"/>
</g>
<!-- 26&#45;&gt;25 -->
<g id="edge109" class="edge">
<title>26&#45;&gt;25</title>
<path fill="none" stroke="grey" stroke-width="2" d="M1262.29,-818.78C1276.06,-789.53 1301.94,-734.58 1317.41,-701.74"/>
<polygon fill="grey" stroke="grey" stroke-width="2" points="1320.76,-702.84 1321.85,-692.31 1314.42,-699.86 1320.76,-702.84"/>
</g>
<!-- 60&#45;&gt;59 -->
<g id="edge126" class="edge">
<title>60&#45;&gt;59</title>
<path fill="none" stroke="grey" stroke-width="2" d="M1425.98,-818.74C1439.88,-797.59 1464.79,-764.69 1495,-747 1518.55,-733.21 1530.64,-746.3 1555,-734 1571.96,-725.44 1588.03,-711.55 1600.19,-699.4"/>
<polygon fill="grey" stroke="grey" stroke-width="2" points="1602.79,-701.74 1607.22,-692.12 1597.75,-696.88 1602.79,-701.74"/>
</g>
<!-- 23 -->
<g id="node59" class="node">
<title>23</title>
<path fill="none" stroke="#56a2d8" stroke-width="2" d="M1672,-1009C1672,-1009 1340,-1009 1340,-1009 1334,-1009 1328,-1003 1328,-997 1328,-997 1328,-985 1328,-985 1328,-979 1334,-973 1340,-973 1340,-973 1672,-973 1672,-973 1678,-973 1684,-979 1684,-985 1684,-985 1684,-997 1684,-997 1684,-1003 1678,-1009 1672,-1009"/>
<text text-anchor="middle" x="1506" y="-994" font-family="sans" font-size="10.00">prep_segs_for_greedy</text>
<text text-anchor="middle" x="1506" y="-983" font-family="sans" font-size="10.00">prefix: work/sub&#45;001/anat/sub&#45;001_hemi&#45;R_space&#45;corobl_desc&#45;nnunet</text>
</g>
<!-- 23&#45;&gt;21 -->
<g id="edge58" class="edge">
<title>23&#45;&gt;21</title>
<path fill="none" stroke="grey" stroke-width="2" d="M1441.41,-972.91C1398.85,-961.65 1343.19,-946.92 1299.96,-935.48"/>
<polygon fill="grey" stroke="grey" stroke-width="2" points="1300.65,-932.05 1290.09,-932.87 1298.86,-938.81 1300.65,-932.05"/>
</g>
<!-- 14&#45;&gt;11 -->
<g id="edge86" class="edge">
<title>14&#45;&gt;11</title>
<path fill="none" stroke="grey" stroke-width="2" d="M1711.57,-898.21C1691.45,-874.27 1655.78,-832.45 1641,-819 1629.24,-808.29 1615.32,-797.74 1602.8,-788.9"/>
<polygon fill="grey" stroke="grey" stroke-width="2" points="1604.62,-785.91 1594.41,-783.08 1600.63,-791.66 1604.62,-785.91"/>
</g>
<!-- 14&#45;&gt;12 -->
<g id="edge87" class="edge">
<title>14&#45;&gt;12</title>
<path fill="none" stroke="grey" stroke-width="2" d="M1690.15,-898.48C1667.3,-887.64 1637.51,-873.49 1613.06,-861.89"/>
<polygon fill="grey" stroke="grey" stroke-width="2" points="1614.52,-858.71 1603.98,-857.58 1611.52,-865.03 1614.52,-858.71"/>
</g>
<!-- 14&#45;&gt;24 -->
<g id="edge89" class="edge">
<title>14&#45;&gt;24</title>
<path fill="none" stroke="grey" stroke-width="2" d="M1689.51,-898.49C1686.67,-897.54 1683.81,-896.69 1681,-896 1463.93,-842.93 1398,-893.45 1173.94,-860.16"/>
<polygon fill="grey" stroke="grey" stroke-width="2" points="1174.26,-856.67 1163.84,-858.62 1173.2,-863.59 1174.26,-856.67"/>
</g>
<!-- 14&#45;&gt;26 -->
<g id="edge90" class="edge">
<title>14&#45;&gt;26</title>
<path fill="none" stroke="grey" stroke-width="2" d="M1688.99,-898.42C1686.32,-897.51 1683.64,-896.69 1681,-896 1534.23,-857.56 1488.77,-884.97 1335.16,-860.05"/>
<polygon fill="grey" stroke="grey" stroke-width="2" points="1335.33,-856.53 1324.89,-858.33 1334.17,-863.43 1335.33,-856.53"/>
</g>
<!-- 14&#45;&gt;60 -->
<g id="edge91" class="edge">
<title>14&#45;&gt;60</title>
<path fill="none" stroke="grey" stroke-width="2" d="M1687.92,-898.33C1685.6,-897.49 1683.28,-896.7 1681,-896 1603.55,-872.04 1579.09,-877.4 1495.45,-860.02"/>
<polygon fill="grey" stroke="grey" stroke-width="2" points="1496.02,-856.56 1485.51,-857.9 1494.57,-863.41 1496.02,-856.56"/>
</g>
<!-- 14&#45;&gt;23 -->
<g id="edge88" class="edge">
<title>14&#45;&gt;23</title>
<path fill="none" stroke="grey" stroke-width="2" d="M1710.93,-934.7C1702.86,-942.85 1692.27,-951.99 1681,-957.5 1671.22,-962.28 1660.83,-966.37 1650.16,-969.85"/>
<polygon fill="grey" stroke="grey" stroke-width="2" points="1648.83,-966.6 1640.31,-972.89 1650.89,-973.29 1648.83,-966.6"/>
</g>
<!-- 14&#45;&gt;69 -->
<g id="edge59" class="edge">
<title>14&#45;&gt;69</title>
<path fill="none" stroke="grey" stroke-width="2" d="M1727.36,-898.48C1728.09,-889.44 1728.99,-878.1 1729.81,-867.85"/>
<polygon fill="grey" stroke="grey" stroke-width="2" points="1733.31,-867.96 1730.62,-857.71 1726.34,-867.4 1733.31,-867.96"/>
</g>
<!-- 68 -->
<g id="node62" class="node">
<title>68</title>
<path fill="none" stroke="#d85656" stroke-width="2" d="M1764,-783C1764,-783 1696,-783 1696,-783 1690,-783 1684,-777 1684,-771 1684,-771 1684,-759 1684,-759 1684,-753 1690,-747 1696,-747 1696,-747 1764,-747 1764,-747 1770,-747 1776,-753 1776,-759 1776,-759 1776,-771 1776,-771 1776,-777 1770,-783 1764,-783"/>
<text text-anchor="middle" x="1730" y="-762.5" font-family="sans" font-size="10.00">qc_nnunet_dice</text>
</g>
<!-- 69&#45;&gt;68 -->
<g id="edge60" class="edge">
<title>69&#45;&gt;68</title>
<path fill="none" stroke="grey" stroke-width="2" d="M1731.53,-821.32C1731.29,-812.92 1731.01,-802.62 1730.75,-793.19"/>
<polygon fill="grey" stroke="grey" stroke-width="2" points="1734.25,-792.96 1730.47,-783.06 1727.25,-793.15 1734.25,-792.96"/>
</g>
<!-- 68&#45;&gt;0 -->
<g id="edge135" class="edge">
<title>68&#45;&gt;0</title>
<path fill="none" stroke="grey" stroke-width="2" d="M1776.11,-756.44C2002.72,-718.82 2990.78,-549.39 3074,-442 3266.45,-193.67 2530.72,-178.41 2354.24,-178.27"/>
<polygon fill="grey" stroke="grey" stroke-width="2" points="2354.14,-174.77 2344.14,-178.28 2354.14,-181.77 2354.14,-174.77"/>
</g>
<!-- 51&#45;&gt;66 -->
<g id="edge118" class="edge">
<title>51&#45;&gt;66</title>
<path fill="none" stroke="grey" stroke-width="2" d="M2184.27,-308.44C2198.17,-304.22 2212.25,-299.11 2225,-293 2234.42,-288.49 2243.91,-282.31 2252.28,-276.17"/>
<polygon fill="grey" stroke="grey" stroke-width="2" points="2254.41,-278.94 2260.24,-270.09 2250.16,-273.38 2254.41,-278.94"/>
</g>
<!-- 51&#45;&gt;0 -->
<g id="edge117" class="edge">
<title>51&#45;&gt;0</title>
<path fill="none" stroke="grey" stroke-width="2" d="M2185.82,-308.48C2190.95,-307.59 2196.04,-306.75 2201,-306 2229.49,-301.68 2310.68,-314.37 2330,-293 2351.42,-269.32 2341.07,-230.66 2330.25,-204.9"/>
<polygon fill="grey" stroke="grey" stroke-width="2" points="2333.42,-203.42 2326.14,-195.72 2327.03,-206.28 2333.42,-203.42"/>
</g>
<!-- 54&#45;&gt;63 -->
<g id="edge120" class="edge">
<title>54&#45;&gt;63</title>
<path fill="none" stroke="grey" stroke-width="2" d="M2074.78,-419.2C2058.13,-430.05 2035.34,-442.8 2013,-448.5 1975.53,-458.06 1703.64,-449.95 1665,-448.5 1483.94,-441.71 1274.32,-424 1147.8,-412.23"/>
<polygon fill="grey" stroke="grey" stroke-width="2" points="1147.98,-408.73 1137.7,-411.29 1147.33,-415.7 1147.98,-408.73"/>
</g>
<!-- 54&#45;&gt;51 -->
<g id="edge61" class="edge">
<title>54&#45;&gt;51</title>
<path fill="none" stroke="grey" stroke-width="2" d="M2101.18,-382.82C2101.76,-374.42 2102.47,-364.12 2103.13,-354.69"/>
<polygon fill="grey" stroke="grey" stroke-width="2" points="2106.63,-354.78 2103.82,-344.56 2099.64,-354.29 2106.63,-354.78"/>
</g>
<!-- 54&#45;&gt;56 -->
<g id="edge62" class="edge">
<title>54&#45;&gt;56</title>
<path fill="none" stroke="grey" stroke-width="2" d="M2164.25,-394.14C2248.01,-386.07 2399.22,-370.07 2537.68,-347.15"/>
<polygon fill="grey" stroke="grey" stroke-width="2" points="2538.34,-350.59 2547.63,-345.49 2537.19,-343.68 2538.34,-350.59"/>
</g>
<!-- 54&#45;&gt;57 -->
<g id="edge63" class="edge">
<title>54&#45;&gt;57</title>
<path fill="none" stroke="grey" stroke-width="2" d="M2164.09,-394.98C2304.7,-383.9 2633.8,-357.61 2717.51,-347"/>
<polygon fill="grey" stroke="grey" stroke-width="2" points="2718.22,-350.44 2727.65,-345.61 2717.27,-343.5 2718.22,-350.44"/>
</g>
<!-- 54&#45;&gt;58 -->
<g id="edge64" class="edge">
<title>54&#45;&gt;58</title>
<path fill="none" stroke="grey" stroke-width="2" d="M2164.2,-396.96C2324.29,-389.2 2739.13,-367.86 2897.6,-347.05"/>
<polygon fill="grey" stroke="grey" stroke-width="2" points="2898.22,-350.5 2907.66,-345.68 2897.28,-343.57 2898.22,-350.5"/>
</g>
<!-- 54&#45;&gt;61 -->
<g id="edge65" class="edge">
<title>54&#45;&gt;61</title>
<path fill="none" stroke="grey" stroke-width="2" d="M2145.26,-382.82C2170.53,-373.23 2202.34,-361.15 2229.8,-350.73"/>
<polygon fill="grey" stroke="grey" stroke-width="2" points="2231.21,-353.94 2239.31,-347.12 2228.72,-347.4 2231.21,-353.94"/>
</g>
<!-- 54&#45;&gt;64 -->
<g id="edge66" class="edge">
<title>54&#45;&gt;64</title>
<path fill="none" stroke="grey" stroke-width="2" d="M2164.1,-388.96C2221.18,-378.87 2306.9,-363.12 2381,-347 2381.34,-346.93 2381.67,-346.85 2382.01,-346.78"/>
<polygon fill="grey" stroke="grey" stroke-width="2" points="2382.98,-350.15 2391.97,-344.55 2381.45,-343.32 2382.98,-350.15"/>
</g>
<!-- 56&#45;&gt;0 -->
<g id="edge122" class="edge">
<title>56&#45;&gt;0</title>
<path fill="none" stroke="grey" stroke-width="2" d="M2587.57,-305.98C2526.17,-277.05 2412.01,-223.27 2353.56,-195.72"/>
<polygon fill="grey" stroke="grey" stroke-width="2" points="2354.87,-192.47 2344.33,-191.38 2351.89,-198.81 2354.87,-192.47"/>
</g>
<!-- 57&#45;&gt;0 -->
<g id="edge123" class="edge">
<title>57&#45;&gt;0</title>
<path fill="none" stroke="grey" stroke-width="2" d="M2745.65,-305.99C2684.78,-287.31 2590.2,-258.43 2508,-234 2454.52,-218.1 2392.47,-200.17 2353.97,-189.1"/>
<polygon fill="grey" stroke="grey" stroke-width="2" points="2354.81,-185.7 2344.23,-186.3 2352.88,-192.42 2354.81,-185.7"/>
</g>
<!-- 58&#45;&gt;0 -->
<g id="edge124" class="edge">
<title>58&#45;&gt;0</title>
<path fill="none" stroke="grey" stroke-width="2" d="M2915.39,-305.97C2840.75,-286.5 2721.77,-256.34 2618,-234 2523.37,-213.63 2411.01,-194.15 2354.06,-184.6"/>
<polygon fill="grey" stroke="grey" stroke-width="2" points="2354.53,-181.13 2344.09,-182.94 2353.38,-188.04 2354.53,-181.13"/>
</g>
<!-- 61&#45;&gt;0 -->
<g id="edge127" class="edge">
<title>61&#45;&gt;0</title>
<path fill="none" stroke="grey" stroke-width="2" d="M2355.4,-305.98C2360.3,-302.37 2364.63,-298.08 2368,-293 2382.5,-271.15 2377.52,-258.43 2368,-234 2363.43,-222.28 2355.11,-211.54 2346.49,-202.7"/>
<polygon fill="grey" stroke="grey" stroke-width="2" points="2348.89,-200.15 2339.26,-195.73 2344.04,-205.19 2348.89,-200.15"/>
</g>
<!-- 64&#45;&gt;66 -->
<g id="edge131" class="edge">
<title>64&#45;&gt;66</title>
<path fill="none" stroke="grey" stroke-width="2" d="M2417.34,-308.32C2391.68,-297.98 2358.83,-284.75 2331.69,-273.82"/>
<polygon fill="grey" stroke="grey" stroke-width="2" points="2332.93,-270.55 2322.35,-270.06 2330.32,-277.04 2332.93,-270.55"/>
</g>
<!-- 64&#45;&gt;0 -->
<g id="edge130" class="edge">
<title>64&#45;&gt;0</title>
<path fill="none" stroke="grey" stroke-width="2" d="M2447.9,-308.4C2434,-289.31 2410.01,-257.95 2386,-234 2374.59,-222.62 2360.96,-211.26 2348.83,-201.8"/>
<polygon fill="grey" stroke="grey" stroke-width="2" points="2350.79,-198.89 2340.73,-195.58 2346.53,-204.45 2350.79,-198.89"/>
</g>
</g>
</svg>
