<?xml version="1.0" encoding="UTF-8" standalone="no"?>
<!DOCTYPE svg PUBLIC "-//W3C//DTD SVG 1.1//EN"
 "http://www.w3.org/Graphics/SVG/1.1/DTD/svg11.dtd">
<!-- Generated by graphviz version 2.43.0 (0)
 -->
<!-- Pages: 1 -->
<svg width="912pt" height="381pt"
 viewBox="0.00 0.00 912.03 381.00" xmlns="http://www.w3.org/2000/svg" xmlns:xlink="http://www.w3.org/1999/xlink">
<g id="graph0" class="graph" transform="scale(1 1) rotate(0) translate(4 377)">
<polygon fill="white" stroke="transparent" points="-4,4 -4,-377 908.03,-377 908.03,4 -4,4"/>
<g id="clust1" class="cluster">
<title>cluster_0</title>
<polygon fill="white" stroke="blue" points="8,-8 8,-365 748,-365 748,-8 8,-8"/>
<text text-anchor="middle" x="378" y="-349.8" font-family="Times,serif" font-size="14.00">shape_inject</text>
</g>
<!-- 11 -->
<g id="node1" class="node">
<title>11</title>
<path fill="none" stroke="#5673d8" stroke-width="2" d="M493.5,-44C493.5,-44 388.5,-44 388.5,-44 382.5,-44 376.5,-38 376.5,-32 376.5,-32 376.5,-20 376.5,-20 376.5,-14 382.5,-8 388.5,-8 388.5,-8 493.5,-8 493.5,-8 499.5,-8 505.5,-14 505.5,-20 505.5,-20 505.5,-32 505.5,-32 505.5,-38 499.5,-44 493.5,-44"/>
<text text-anchor="middle" x="441" y="-23.5" font-family="sans" font-size="10.00">reinsert_subject_labels</text>
</g>
<!-- 12 -->
<g id="node2" class="node">
<title>12</title>
<path fill="none" stroke="#68d856" stroke-width="2" d="M252,-118.5C252,-118.5 148,-118.5 148,-118.5 142,-118.5 136,-112.5 136,-106.5 136,-106.5 136,-94.5 136,-94.5 136,-88.5 142,-82.5 148,-82.5 148,-82.5 252,-82.5 252,-82.5 258,-82.5 264,-88.5 264,-94.5 264,-94.5 264,-106.5 264,-106.5 264,-112.5 258,-118.5 252,-118.5"/>
<text text-anchor="middle" x="200" y="-98" font-family="sans" font-size="10.00">template_shape_inject</text>
</g>
<!-- 12&#45;&gt;11 -->
<g id="edge1" class="edge">
<title>12&#45;&gt;11</title>
<path fill="none" stroke="grey" stroke-width="2" d="M256.81,-82.41C292.07,-71.8 337.53,-58.13 374.47,-47.01"/>
<polygon fill="grey" stroke="grey" stroke-width="2" points="375.59,-50.33 384.16,-44.1 373.57,-43.63 375.59,-50.33"/>
</g>
<!-- 13 -->
<g id="node3" class="node">
<title>13</title>
<path fill="none" stroke="#56d8b9" stroke-width="2" d="M192.5,-342C192.5,-342 83.5,-342 83.5,-342 77.5,-342 71.5,-336 71.5,-330 71.5,-330 71.5,-318 71.5,-318 71.5,-312 77.5,-306 83.5,-306 83.5,-306 192.5,-306 192.5,-306 198.5,-306 204.5,-312 204.5,-318 204.5,-318 204.5,-330 204.5,-330 204.5,-336 198.5,-342 192.5,-342"/>
<text text-anchor="middle" x="138" y="-327" font-family="sans" font-size="10.00">import_template_shape</text>
<text text-anchor="middle" x="138" y="-316" font-family="sans" font-size="10.00">subject: 001</text>
</g>
<!-- 13&#45;&gt;12 -->
<g id="edge2" class="edge">
<title>13&#45;&gt;12</title>
<path fill="none" stroke="grey" stroke-width="2" d="M71.45,-308.48C51.13,-300.59 31.01,-288.49 19,-270 10.29,-256.58 11.76,-248.27 19,-234 45.84,-181.1 104.82,-144.24 148.19,-123.06"/>
<polygon fill="grey" stroke="grey" stroke-width="2" points="149.94,-126.11 157.47,-118.65 146.93,-119.79 149.94,-126.11"/>
</g>
<!-- 22 -->
<g id="node4" class="node">
<title>22</title>
<path fill="none" stroke="#56a2d8" stroke-width="2" d="M362.5,-270C362.5,-270 39.5,-270 39.5,-270 33.5,-270 27.5,-264 27.5,-258 27.5,-258 27.5,-246 27.5,-246 27.5,-240 33.5,-234 39.5,-234 39.5,-234 362.5,-234 362.5,-234 368.5,-234 374.5,-240 374.5,-246 374.5,-246 374.5,-258 374.5,-258 374.5,-264 368.5,-270 362.5,-270"/>
<text text-anchor="middle" x="201" y="-255" font-family="sans" font-size="10.00">prep_segs_for_greedy</text>
<text text-anchor="middle" x="201" y="-244" font-family="sans" font-size="10.00">prefix: work/sub&#45;001/anat/sub&#45;001_space&#45;template_desc&#45;hipptissue</text>
</g>
<!-- 13&#45;&gt;22 -->
<g id="edge3" class="edge">
<title>13&#45;&gt;22</title>
<path fill="none" stroke="grey" stroke-width="2" d="M153.57,-305.7C161.2,-297.22 170.52,-286.86 178.88,-277.58"/>
<polygon fill="grey" stroke="grey" stroke-width="2" points="181.52,-279.88 185.61,-270.1 176.31,-275.2 181.52,-279.88"/>
</g>
<!-- 21 -->
<g id="node5" class="node">
<title>21</title>
<path fill="none" stroke="#5692d8" stroke-width="2" d="M480,-198C480,-198 388,-198 388,-198 382,-198 376,-192 376,-186 376,-186 376,-169 376,-169 376,-163 382,-157 388,-157 388,-157 480,-157 480,-157 486,-157 492,-163 492,-169 492,-169 492,-186 492,-186 492,-192 486,-198 480,-198"/>
<text text-anchor="middle" x="434" y="-186" font-family="sans" font-size="10.00">template_shape_reg</text>
<text text-anchor="middle" x="434" y="-175" font-family="sans" font-size="10.00">hemi: R</text>
<text text-anchor="middle" x="434" y="-164" font-family="sans" font-size="10.00">subject: 001</text>
</g>
<!-- 22&#45;&gt;21 -->
<g id="edge8" class="edge">
<title>22&#45;&gt;21</title>
<path fill="none" stroke="grey" stroke-width="2" d="M255.92,-233.91C288.88,-223.66 331.07,-210.53 366.1,-199.63"/>
<polygon fill="grey" stroke="grey" stroke-width="2" points="367.28,-202.93 375.78,-196.61 365.2,-196.24 367.28,-202.93"/>
</g>
<!-- 21&#45;&gt;12 -->
<g id="edge4" class="edge">
<title>21&#45;&gt;12</title>
<path fill="none" stroke="grey" stroke-width="2" d="M375.86,-157.86C341.46,-146.84 297.89,-132.88 262.72,-121.6"/>
<polygon fill="grey" stroke="grey" stroke-width="2" points="263.63,-118.22 253.04,-118.5 261.5,-124.89 263.63,-118.22"/>
</g>
<!-- 24 -->
<g id="node6" class="node">
<title>24</title>
<path fill="none" stroke="#56d882" stroke-width="2" d="M735.5,-121C735.5,-121 616.5,-121 616.5,-121 610.5,-121 604.5,-115 604.5,-109 604.5,-109 604.5,-92 604.5,-92 604.5,-86 610.5,-80 616.5,-80 616.5,-80 735.5,-80 735.5,-80 741.5,-80 747.5,-86 747.5,-92 747.5,-92 747.5,-109 747.5,-109 747.5,-115 741.5,-121 735.5,-121"/>
<text text-anchor="middle" x="676" y="-109" font-family="sans" font-size="10.00">inject_init_laplace_coords</text>
<text text-anchor="middle" x="676" y="-98" font-family="sans" font-size="10.00">autotop: hipp</text>
<text text-anchor="middle" x="676" y="-87" font-family="sans" font-size="10.00">dir: AP</text>
</g>
<!-- 21&#45;&gt;24 -->
<g id="edge5" class="edge">
<title>21&#45;&gt;24</title>
<path fill="none" stroke="grey" stroke-width="2" d="M492.27,-158.44C525.51,-148.14 567.48,-135.13 602.91,-124.15"/>
<polygon fill="grey" stroke="grey" stroke-width="2" points="604.2,-127.42 612.72,-121.11 602.13,-120.73 604.2,-127.42"/>
</g>
<!-- 26 -->
<g id="node7" class="node">
<title>26</title>
<path fill="none" stroke="#56d882" stroke-width="2" d="M413.5,-121C413.5,-121 294.5,-121 294.5,-121 288.5,-121 282.5,-115 282.5,-109 282.5,-109 282.5,-92 282.5,-92 282.5,-86 288.5,-80 294.5,-80 294.5,-80 413.5,-80 413.5,-80 419.5,-80 425.5,-86 425.5,-92 425.5,-92 425.5,-109 425.5,-109 425.5,-115 419.5,-121 413.5,-121"/>
<text text-anchor="middle" x="354" y="-109" font-family="sans" font-size="10.00">inject_init_laplace_coords</text>
<text text-anchor="middle" x="354" y="-98" font-family="sans" font-size="10.00">autotop: hipp</text>
<text text-anchor="middle" x="354" y="-87" font-family="sans" font-size="10.00">dir: PD</text>
</g>
<!-- 21&#45;&gt;26 -->
<g id="edge6" class="edge">
<title>21&#45;&gt;26</title>
<path fill="none" stroke="grey" stroke-width="2" d="M412.98,-156.79C403.61,-148.01 392.43,-137.53 382.34,-128.07"/>
<polygon fill="grey" stroke="grey" stroke-width="2" points="384.57,-125.36 374.88,-121.07 379.78,-130.47 384.57,-125.36"/>
</g>
<!-- 60 -->
<g id="node8" class="node">
<title>60</title>
<path fill="none" stroke="#56d882" stroke-width="2" d="M574.5,-121C574.5,-121 455.5,-121 455.5,-121 449.5,-121 443.5,-115 443.5,-109 443.5,-109 443.5,-92 443.5,-92 443.5,-86 449.5,-80 455.5,-80 455.5,-80 574.5,-80 574.5,-80 580.5,-80 586.5,-86 586.5,-92 586.5,-92 586.5,-109 586.5,-109 586.5,-115 580.5,-121 574.5,-121"/>
<text text-anchor="middle" x="515" y="-109" font-family="sans" font-size="10.00">inject_init_laplace_coords</text>
<text text-anchor="middle" x="515" y="-98" font-family="sans" font-size="10.00">autotop: hipp</text>
<text text-anchor="middle" x="515" y="-87" font-family="sans" font-size="10.00">dir: IO</text>
</g>
<!-- 21&#45;&gt;60 -->
<g id="edge7" class="edge">
<title>21&#45;&gt;60</title>
<path fill="none" stroke="grey" stroke-width="2" d="M455.28,-156.79C464.77,-148.01 476.09,-137.53 486.31,-128.07"/>
<polygon fill="grey" stroke="grey" stroke-width="2" points="488.9,-130.44 493.86,-121.07 484.14,-125.3 488.9,-130.44"/>
</g>
<!-- 23 -->
<g id="node9" class="node">
<title>23</title>
<path fill="none" stroke="#56a2d8" stroke-width="2" d="M736,-270C736,-270 404,-270 404,-270 398,-270 392,-264 392,-258 392,-258 392,-246 392,-246 392,-240 398,-234 404,-234 404,-234 736,-234 736,-234 742,-234 748,-240 748,-246 748,-246 748,-258 748,-258 748,-264 742,-270 736,-270"/>
<text text-anchor="middle" x="570" y="-255" font-family="sans" font-size="10.00">prep_segs_for_greedy</text>
<text text-anchor="middle" x="570" y="-244" font-family="sans" font-size="10.00">prefix: work/sub&#45;001/anat/sub&#45;001_hemi&#45;R_space&#45;corobl_desc&#45;nnunet</text>
</g>
<!-- 23&#45;&gt;21 -->
<g id="edge9" class="edge">
<title>23&#45;&gt;21</title>
<path fill="none" stroke="grey" stroke-width="2" d="M537.77,-233.82C520.41,-224.56 498.7,-212.99 479.64,-202.83"/>
<polygon fill="grey" stroke="grey" stroke-width="2" points="481.27,-199.74 470.8,-198.12 477.98,-205.91 481.27,-199.74"/>
</g>
<!-- 14 -->
<g id="node10" class="node">
<title>14</title>
<path fill="none" stroke="#5682d8" stroke-width="2" d="M862.5,-342C862.5,-342 803.5,-342 803.5,-342 797.5,-342 791.5,-336 791.5,-330 791.5,-330 791.5,-318 791.5,-318 791.5,-312 797.5,-306 803.5,-306 803.5,-306 862.5,-306 862.5,-306 868.5,-306 874.5,-312 874.5,-318 874.5,-318 874.5,-330 874.5,-330 874.5,-336 868.5,-342 862.5,-342"/>
<text text-anchor="middle" x="833" y="-321.5" font-family="sans" font-size="10.00">run_inference</text>
</g>
<!-- 14&#45;&gt;11 -->
<g id="edge10" class="edge">
<title>14&#45;&gt;11</title>
<path fill="none" stroke="grey" stroke-width="2" d="M856.5,-305.8C867.24,-296.52 878.9,-284.08 885,-270 904.97,-223.9 912.95,-200.61 888,-157 854.46,-98.38 820.47,-103.08 757,-80 677.6,-51.13 581.19,-37.86 515.9,-31.84"/>
<polygon fill="grey" stroke="grey" stroke-width="2" points="515.97,-28.33 505.7,-30.94 515.35,-35.31 515.97,-28.33"/>
</g>
<!-- 14&#45;&gt;12 -->
<g id="edge11" class="edge">
<title>14&#45;&gt;12</title>
<path fill="none" stroke="grey" stroke-width="2" d="M822.6,-305.65C809.67,-285.54 785.76,-252.76 757,-234 572.36,-113.53 489.74,-166.41 274,-121 273.66,-120.93 273.32,-120.86 272.97,-120.78"/>
<polygon fill="grey" stroke="grey" stroke-width="2" points="273.4,-117.29 262.88,-118.53 271.87,-124.12 273.4,-117.29"/>
</g>
<!-- 14&#45;&gt;24 -->
<g id="edge13" class="edge">
<title>14&#45;&gt;24</title>
<path fill="none" stroke="grey" stroke-width="2" d="M847.33,-305.57C854.45,-295.76 862.31,-282.92 866,-270 879.8,-221.71 896.13,-197.18 866,-157 852.44,-138.91 802.61,-124.75 757.39,-115.26"/>
<polygon fill="grey" stroke="grey" stroke-width="2" points="758.02,-111.82 747.53,-113.25 756.63,-118.68 758.02,-111.82"/>
</g>
<!-- 14&#45;&gt;26 -->
<g id="edge14" class="edge">
<title>14&#45;&gt;26</title>
<path fill="none" stroke="grey" stroke-width="2" d="M834.33,-305.92C835.95,-271.73 834.17,-194.9 790,-157 732,-107.23 528.62,-132.32 435.84,-120.8"/>
<polygon fill="grey" stroke="grey" stroke-width="2" points="436.29,-117.32 425.88,-119.34 435.27,-124.25 436.29,-117.32"/>
</g>
<!-- 14&#45;&gt;60 -->
<g id="edge15" class="edge">
<title>14&#45;&gt;60</title>
<path fill="none" stroke="grey" stroke-width="2" d="M838.78,-305.88C848.81,-272.64 865.03,-198.92 828,-157 795.28,-119.96 662.3,-129.87 597.14,-120.83"/>
<polygon fill="grey" stroke="grey" stroke-width="2" points="597.36,-117.32 586.92,-119.14 596.21,-124.23 597.36,-117.32"/>
</g>
<!-- 14&#45;&gt;23 -->
<g id="edge12" class="edge">
<title>14&#45;&gt;23</title>
<path fill="none" stroke="grey" stroke-width="2" d="M791.33,-311.91C751.76,-301.38 691.41,-285.31 643.71,-272.62"/>
<polygon fill="grey" stroke="grey" stroke-width="2" points="644.61,-269.24 634.05,-270.05 642.81,-276 644.61,-269.24"/>
</g>
</g>
</svg>
