<?xml version="1.0" encoding="UTF-8" standalone="no"?>
<!DOCTYPE svg PUBLIC "-//W3C//DTD SVG 1.1//EN"
 "http://www.w3.org/Graphics/SVG/1.1/DTD/svg11.dtd">
<!-- Generated by graphviz version 2.43.0 (0)
 -->
<!-- Pages: 1 -->
<svg width="1103pt" height="201pt"
 viewBox="0.00 0.00 1103.00 201.00" xmlns="http://www.w3.org/2000/svg" xmlns:xlink="http://www.w3.org/1999/xlink">
<g id="graph0" class="graph" transform="scale(1 1) rotate(0) translate(4 197)">
<polygon fill="white" stroke="transparent" points="-4,4 -4,-197 1099,-197 1099,4 -4,4"/>
<g id="clust1" class="cluster">
<title>cluster_0</title>
<polygon fill="white" stroke="blue" points="42.5,-8 42.5,-139 1034.5,-139 1034.5,-8 42.5,-8"/>
<text text-anchor="middle" x="538.5" y="-123.8" font-family="Times,serif" font-size="14.00">autotop</text>
</g>
<!-- 10 -->
<g id="node1" class="node">
<title>10</title>
<path fill="none" stroke="#97d856" stroke-width="2" d="M146.5,-116C146.5,-116 54.5,-116 54.5,-116 48.5,-116 42.5,-110 42.5,-104 42.5,-104 42.5,-92 42.5,-92 42.5,-86 48.5,-80 54.5,-80 54.5,-80 146.5,-80 146.5,-80 152.5,-80 158.5,-86 158.5,-92 158.5,-92 158.5,-104 158.5,-104 158.5,-110 152.5,-116 146.5,-116"/>
<text text-anchor="middle" x="100.5" y="-95.5" font-family="sans" font-size="10.00">laplace_coords_hipp</text>
</g>
<!-- 25 -->
<g id="node2" class="node">
<title>25</title>
<path fill="none" stroke="#97d856" stroke-width="2" d="M438.5,-116C438.5,-116 346.5,-116 346.5,-116 340.5,-116 334.5,-110 334.5,-104 334.5,-104 334.5,-92 334.5,-92 334.5,-86 340.5,-80 346.5,-80 346.5,-80 438.5,-80 438.5,-80 444.5,-80 450.5,-86 450.5,-92 450.5,-92 450.5,-104 450.5,-104 450.5,-110 444.5,-116 438.5,-116"/>
<text text-anchor="middle" x="392.5" y="-95.5" font-family="sans" font-size="10.00">laplace_coords_hipp</text>
</g>
<!-- 27 -->
<g id="node3" class="node">
<title>27</title>
<path fill="none" stroke="#97d856" stroke-width="2" d="M290.5,-44C290.5,-44 202.5,-44 202.5,-44 196.5,-44 190.5,-38 190.5,-32 190.5,-32 190.5,-20 190.5,-20 190.5,-14 196.5,-8 202.5,-8 202.5,-8 290.5,-8 290.5,-8 296.5,-8 302.5,-14 302.5,-20 302.5,-20 302.5,-32 302.5,-32 302.5,-38 296.5,-44 290.5,-44"/>
<text text-anchor="middle" x="246.5" y="-23.5" font-family="sans" font-size="10.00">equivolume_coords</text>
</g>
<!-- 28 -->
<g id="node4" class="node">
<title>28</title>
<path fill="none" stroke="#bed856" stroke-width="2" d="M304,-116C304,-116 189,-116 189,-116 183,-116 177,-110 177,-104 177,-104 177,-92 177,-92 177,-86 183,-80 189,-80 189,-80 304,-80 304,-80 310,-80 316,-86 316,-92 316,-92 316,-104 316,-104 316,-110 310,-116 304,-116"/>
<text text-anchor="middle" x="246.5" y="-101" font-family="sans" font-size="10.00">prep_equivolume_coords</text>
<text text-anchor="middle" x="246.5" y="-90" font-family="sans" font-size="10.00">dir: IO</text>
</g>
<!-- 28&#45;&gt;27 -->
<g id="edge1" class="edge">
<title>28&#45;&gt;27</title>
<path fill="none" stroke="grey" stroke-width="2" d="M246.5,-79.7C246.5,-71.98 246.5,-62.71 246.5,-54.11"/>
<polygon fill="grey" stroke="grey" stroke-width="2" points="250,-54.1 246.5,-44.1 243,-54.1 250,-54.1"/>
</g>
<!-- 60 -->
<g id="node5" class="node">
<title>60</title>
<path fill="none" stroke="#80d856" stroke-width="2" d="M722.5,-116C722.5,-116 614.5,-116 614.5,-116 608.5,-116 602.5,-110 602.5,-104 602.5,-104 602.5,-92 602.5,-92 602.5,-86 608.5,-80 614.5,-80 614.5,-80 722.5,-80 722.5,-80 728.5,-80 734.5,-86 734.5,-92 734.5,-92 734.5,-104 734.5,-104 734.5,-110 728.5,-116 722.5,-116"/>
<text text-anchor="middle" x="668.5" y="-95.5" font-family="sans" font-size="10.00">laplace_coords_dentate</text>
</g>
<!-- 62 -->
<g id="node6" class="node">
<title>62</title>
<path fill="none" stroke="#80d856" stroke-width="2" d="M872.5,-116C872.5,-116 764.5,-116 764.5,-116 758.5,-116 752.5,-110 752.5,-104 752.5,-104 752.5,-92 752.5,-92 752.5,-86 758.5,-80 764.5,-80 764.5,-80 872.5,-80 872.5,-80 878.5,-80 884.5,-86 884.5,-92 884.5,-92 884.5,-104 884.5,-104 884.5,-110 878.5,-116 872.5,-116"/>
<text text-anchor="middle" x="818.5" y="-95.5" font-family="sans" font-size="10.00">laplace_coords_dentate</text>
</g>
<!-- 64 -->
<g id="node7" class="node">
<title>64</title>
<path fill="none" stroke="#80d856" stroke-width="2" d="M1022.5,-116C1022.5,-116 914.5,-116 914.5,-116 908.5,-116 902.5,-110 902.5,-104 902.5,-104 902.5,-92 902.5,-92 902.5,-86 908.5,-80 914.5,-80 914.5,-80 1022.5,-80 1022.5,-80 1028.5,-80 1034.5,-86 1034.5,-92 1034.5,-92 1034.5,-104 1034.5,-104 1034.5,-110 1028.5,-116 1022.5,-116"/>
<text text-anchor="middle" x="968.5" y="-95.5" font-family="sans" font-size="10.00">laplace_coords_dentate</text>
</g>
<!-- 83 -->
<g id="node8" class="node">
<title>83</title>
<path fill="none" stroke="#97d856" stroke-width="2" d="M572.5,-116C572.5,-116 480.5,-116 480.5,-116 474.5,-116 468.5,-110 468.5,-104 468.5,-104 468.5,-92 468.5,-92 468.5,-86 474.5,-80 480.5,-80 480.5,-80 572.5,-80 572.5,-80 578.5,-80 584.5,-86 584.5,-92 584.5,-92 584.5,-104 584.5,-104 584.5,-110 578.5,-116 572.5,-116"/>
<text text-anchor="middle" x="526.5" y="-95.5" font-family="sans" font-size="10.00">laplace_coords_hipp</text>
</g>
<!-- 11 -->
<g id="node9" class="node">
<title>11</title>
<path fill="none" stroke="#56d8d0" stroke-width="2" d="M278,-190.5C278,-190.5 173,-190.5 173,-190.5 167,-190.5 161,-184.5 161,-178.5 161,-178.5 161,-166.5 161,-166.5 161,-160.5 167,-154.5 173,-154.5 173,-154.5 278,-154.5 278,-154.5 284,-154.5 290,-160.5 290,-166.5 290,-166.5 290,-178.5 290,-178.5 290,-184.5 284,-190.5 278,-190.5"/>
<text text-anchor="middle" x="225.5" y="-170" font-family="sans" font-size="10.00">reinsert_subject_labels</text>
</g>
<!-- 11&#45;&gt;10 -->
<g id="edge2" class="edge">
<title>11&#45;&gt;10</title>
<path fill="none" stroke="grey" stroke-width="2" d="M194.71,-154.45C185.89,-149.52 176.29,-144.09 167.5,-139 157.71,-133.34 147.19,-127.12 137.45,-121.3"/>
<polygon fill="grey" stroke="grey" stroke-width="2" points="139.14,-118.24 128.76,-116.11 135.54,-124.24 139.14,-118.24"/>
</g>
<!-- 11&#45;&gt;25 -->
<g id="edge3" class="edge">
<title>11&#45;&gt;25</title>
<path fill="none" stroke="grey" stroke-width="2" d="M284.4,-154.47C297.79,-149.96 311.81,-144.74 324.5,-139 335.6,-133.98 347.2,-127.62 357.6,-121.46"/>
<polygon fill="grey" stroke="grey" stroke-width="2" points="359.66,-124.31 366.4,-116.13 356.03,-118.32 359.66,-124.31"/>
</g>
<!-- 11&#45;&gt;28 -->
<g id="edge4" class="edge">
<title>11&#45;&gt;28</title>
<path fill="none" stroke="grey" stroke-width="2" d="M230.48,-154.32C232.94,-145.83 235.96,-135.39 238.71,-125.88"/>
<polygon fill="grey" stroke="grey" stroke-width="2" points="242.14,-126.64 241.56,-116.06 235.41,-124.69 242.14,-126.64"/>
</g>
<!-- 11&#45;&gt;83 -->
<g id="edge5" class="edge">
<title>11&#45;&gt;83</title>
<path fill="none" stroke="grey" stroke-width="2" d="M285.86,-154.48C290.12,-153.55 294.36,-152.71 298.5,-152 369.24,-139.8 391.12,-160.86 459.5,-139 471.9,-135.04 484.43,-128.41 495.25,-121.68"/>
<polygon fill="grey" stroke="grey" stroke-width="2" points="497.42,-124.45 503.89,-116.06 493.6,-118.58 497.42,-124.45"/>
</g>
<!-- 24 -->
<g id="node10" class="node">
<title>24</title>
<path fill="none" stroke="#56b9d8" stroke-width="2" d="M131,-193C131,-193 12,-193 12,-193 6,-193 0,-187 0,-181 0,-181 0,-164 0,-164 0,-158 6,-152 12,-152 12,-152 131,-152 131,-152 137,-152 143,-158 143,-164 143,-164 143,-181 143,-181 143,-187 137,-193 131,-193"/>
<text text-anchor="middle" x="71.5" y="-181" font-family="sans" font-size="10.00">inject_init_laplace_coords</text>
<text text-anchor="middle" x="71.5" y="-170" font-family="sans" font-size="10.00">autotop: hipp</text>
<text text-anchor="middle" x="71.5" y="-159" font-family="sans" font-size="10.00">dir: AP</text>
</g>
<!-- 24&#45;&gt;10 -->
<g id="edge6" class="edge">
<title>24&#45;&gt;10</title>
<path fill="none" stroke="grey" stroke-width="2" d="M79.42,-151.69C82.64,-143.65 86.41,-134.24 89.86,-125.61"/>
<polygon fill="grey" stroke="grey" stroke-width="2" points="93.11,-126.9 93.57,-116.32 86.61,-124.3 93.11,-126.9"/>
</g>
<!-- 26 -->
<g id="node11" class="node">
<title>26</title>
<path fill="none" stroke="#56b9d8" stroke-width="2" d="M439,-193C439,-193 320,-193 320,-193 314,-193 308,-187 308,-181 308,-181 308,-164 308,-164 308,-158 314,-152 320,-152 320,-152 439,-152 439,-152 445,-152 451,-158 451,-164 451,-164 451,-181 451,-181 451,-187 445,-193 439,-193"/>
<text text-anchor="middle" x="379.5" y="-181" font-family="sans" font-size="10.00">inject_init_laplace_coords</text>
<text text-anchor="middle" x="379.5" y="-170" font-family="sans" font-size="10.00">autotop: hipp</text>
<text text-anchor="middle" x="379.5" y="-159" font-family="sans" font-size="10.00">dir: PD</text>
</g>
<!-- 26&#45;&gt;25 -->
<g id="edge7" class="edge">
<title>26&#45;&gt;25</title>
<path fill="none" stroke="grey" stroke-width="2" d="M383.05,-151.69C384.46,-143.82 386.11,-134.64 387.63,-126.17"/>
<polygon fill="grey" stroke="grey" stroke-width="2" points="391.07,-126.78 389.39,-116.32 384.18,-125.54 391.07,-126.78"/>
</g>
<!-- 61 -->
<g id="node12" class="node">
<title>61</title>
<path fill="none" stroke="#56b9d8" stroke-width="2" d="M761,-193C761,-193 642,-193 642,-193 636,-193 630,-187 630,-181 630,-181 630,-164 630,-164 630,-158 636,-152 642,-152 642,-152 761,-152 761,-152 767,-152 773,-158 773,-164 773,-164 773,-181 773,-181 773,-187 767,-193 761,-193"/>
<text text-anchor="middle" x="701.5" y="-181" font-family="sans" font-size="10.00">inject_init_laplace_coords</text>
<text text-anchor="middle" x="701.5" y="-170" font-family="sans" font-size="10.00">autotop: dentate</text>
<text text-anchor="middle" x="701.5" y="-159" font-family="sans" font-size="10.00">dir: AP</text>
</g>
<!-- 61&#45;&gt;60 -->
<g id="edge8" class="edge">
<title>61&#45;&gt;60</title>
<path fill="none" stroke="grey" stroke-width="2" d="M692.48,-151.69C688.82,-143.65 684.54,-134.24 680.61,-125.61"/>
<polygon fill="grey" stroke="grey" stroke-width="2" points="683.71,-123.97 676.38,-116.32 677.34,-126.87 683.71,-123.97"/>
</g>
<!-- 63 -->
<g id="node13" class="node">
<title>63</title>
<path fill="none" stroke="#56b9d8" stroke-width="2" d="M922,-193C922,-193 803,-193 803,-193 797,-193 791,-187 791,-181 791,-181 791,-164 791,-164 791,-158 797,-152 803,-152 803,-152 922,-152 922,-152 928,-152 934,-158 934,-164 934,-164 934,-181 934,-181 934,-187 928,-193 922,-193"/>
<text text-anchor="middle" x="862.5" y="-181" font-family="sans" font-size="10.00">inject_init_laplace_coords</text>
<text text-anchor="middle" x="862.5" y="-170" font-family="sans" font-size="10.00">autotop: dentate</text>
<text text-anchor="middle" x="862.5" y="-159" font-family="sans" font-size="10.00">dir: PD</text>
</g>
<!-- 63&#45;&gt;62 -->
<g id="edge9" class="edge">
<title>63&#45;&gt;62</title>
<path fill="none" stroke="grey" stroke-width="2" d="M850.48,-151.69C845.49,-143.47 839.64,-133.83 834.31,-125.05"/>
<polygon fill="grey" stroke="grey" stroke-width="2" points="837.19,-123.05 829.01,-116.32 831.21,-126.68 837.19,-123.05"/>
</g>
<!-- 65 -->
<g id="node14" class="node">
<title>65</title>
<path fill="none" stroke="#56b9d8" stroke-width="2" d="M1083,-193C1083,-193 964,-193 964,-193 958,-193 952,-187 952,-181 952,-181 952,-164 952,-164 952,-158 958,-152 964,-152 964,-152 1083,-152 1083,-152 1089,-152 1095,-158 1095,-164 1095,-164 1095,-181 1095,-181 1095,-187 1089,-193 1083,-193"/>
<text text-anchor="middle" x="1023.5" y="-181" font-family="sans" font-size="10.00">inject_init_laplace_coords</text>
<text text-anchor="middle" x="1023.5" y="-170" font-family="sans" font-size="10.00">autotop: dentate</text>
<text text-anchor="middle" x="1023.5" y="-159" font-family="sans" font-size="10.00">dir: IO</text>
</g>
<!-- 65&#45;&gt;64 -->
<g id="edge10" class="edge">
<title>65&#45;&gt;64</title>
<path fill="none" stroke="grey" stroke-width="2" d="M1008.47,-151.69C1002.11,-143.3 994.61,-133.42 987.85,-124.5"/>
<polygon fill="grey" stroke="grey" stroke-width="2" points="990.47,-122.17 981.64,-116.32 984.89,-126.4 990.47,-122.17"/>
</g>
<!-- 84 -->
<g id="node15" class="node">
<title>84</title>
<path fill="none" stroke="#56b9d8" stroke-width="2" d="M600,-193C600,-193 481,-193 481,-193 475,-193 469,-187 469,-181 469,-181 469,-164 469,-164 469,-158 475,-152 481,-152 481,-152 600,-152 600,-152 606,-152 612,-158 612,-164 612,-164 612,-181 612,-181 612,-187 606,-193 600,-193"/>
<text text-anchor="middle" x="540.5" y="-181" font-family="sans" font-size="10.00">inject_init_laplace_coords</text>
<text text-anchor="middle" x="540.5" y="-170" font-family="sans" font-size="10.00">autotop: hipp</text>
<text text-anchor="middle" x="540.5" y="-159" font-family="sans" font-size="10.00">dir: IO</text>
</g>
<!-- 84&#45;&gt;83 -->
<g id="edge11" class="edge">
<title>84&#45;&gt;83</title>
<path fill="none" stroke="grey" stroke-width="2" d="M536.67,-151.69C535.15,-143.82 533.38,-134.64 531.75,-126.17"/>
<polygon fill="grey" stroke="grey" stroke-width="2" points="535.18,-125.47 529.84,-116.32 528.3,-126.8 535.18,-125.47"/>
</g>
</g>
</svg>
