<?xml version="1.0" encoding="UTF-8" standalone="no"?>
<!DOCTYPE svg PUBLIC "-//W3C//DTD SVG 1.1//EN"
 "http://www.w3.org/Graphics/SVG/1.1/DTD/svg11.dtd">
<!-- Generated by graphviz version 2.43.0 (0)
 -->
<!-- Pages: 1 -->
<svg width="624pt" height="345pt"
 viewBox="0.00 0.00 624.00 345.00" xmlns="http://www.w3.org/2000/svg" xmlns:xlink="http://www.w3.org/1999/xlink">
<g id="graph0" class="graph" transform="scale(1 1) rotate(0) translate(4 341)">
<polygon fill="white" stroke="transparent" points="-4,4 -4,-341 620,-341 620,4 -4,4"/>
<g id="clust1" class="cluster">
<title>cluster_0</title>
<polygon fill="white" stroke="blue" points="218,-8 218,-211 430,-211 430,-8 218,-8"/>
<text text-anchor="middle" x="324" y="-195.8" font-family="Times,serif" font-size="14.00">subfields</text>
</g>
<!-- 52 -->
<g id="node1" class="node">
<title>52</title>
<path fill="none" stroke="#d8cb56" stroke-width="2" d="M416,-116C416,-116 234,-116 234,-116 228,-116 222,-110 222,-104 222,-104 222,-92 222,-92 222,-86 228,-80 234,-80 234,-80 416,-80 416,-80 422,-80 428,-86 428,-92 428,-92 428,-104 428,-104 428,-110 422,-116 416,-116"/>
<text text-anchor="middle" x="325" y="-95.5" font-family="sans" font-size="10.00">combine_tissue_subfield_labels_corobl</text>
</g>
<!-- 55 -->
<g id="node2" class="node">
<title>55</title>
<path fill="none" stroke="#70d856" stroke-width="2" d="M394,-44C394,-44 256,-44 256,-44 250,-44 244,-38 244,-32 244,-32 244,-20 244,-20 244,-14 250,-8 256,-8 256,-8 394,-8 394,-8 400,-8 406,-14 406,-20 406,-20 406,-32 406,-32 406,-38 400,-44 394,-44"/>
<text text-anchor="middle" x="325" y="-29" font-family="sans" font-size="10.00">resample_subfields_to_native</text>
<text text-anchor="middle" x="325" y="-18" font-family="sans" font-size="10.00">native_modality: T1w</text>
</g>
<!-- 52&#45;&gt;55 -->
<g id="edge1" class="edge">
<title>52&#45;&gt;55</title>
<path fill="none" stroke="grey" stroke-width="2" d="M325,-79.7C325,-71.98 325,-62.71 325,-54.11"/>
<polygon fill="grey" stroke="grey" stroke-width="2" points="328.5,-54.1 325,-44.1 321.5,-54.1 328.5,-54.1"/>
</g>
<!-- 53 -->
<g id="node3" class="node">
<title>53</title>
<path fill="none" stroke="#56d89a" stroke-width="2" d="M417.5,-188C417.5,-188 230.5,-188 230.5,-188 224.5,-188 218.5,-182 218.5,-176 218.5,-176 218.5,-164 218.5,-164 218.5,-158 224.5,-152 230.5,-152 230.5,-152 417.5,-152 417.5,-152 423.5,-152 429.5,-158 429.5,-164 429.5,-164 429.5,-176 429.5,-176 429.5,-182 423.5,-188 417.5,-188"/>
<text text-anchor="middle" x="324" y="-167.5" font-family="sans" font-size="10.00">label_subfields_from_vol_coords_corobl</text>
</g>
<!-- 53&#45;&gt;52 -->
<g id="edge2" class="edge">
<title>53&#45;&gt;52</title>
<path fill="none" stroke="grey" stroke-width="2" d="M324.25,-151.7C324.36,-143.98 324.49,-134.71 324.61,-126.11"/>
<polygon fill="grey" stroke="grey" stroke-width="2" points="328.11,-126.15 324.76,-116.1 321.11,-126.05 328.11,-126.15"/>
</g>
<!-- 10 -->
<g id="node4" class="node">
<title>10</title>
<path fill="none" stroke="#d8bc56" stroke-width="2" d="M104,-262.5C104,-262.5 12,-262.5 12,-262.5 6,-262.5 0,-256.5 0,-250.5 0,-250.5 0,-238.5 0,-238.5 0,-232.5 6,-226.5 12,-226.5 12,-226.5 104,-226.5 104,-226.5 110,-226.5 116,-232.5 116,-238.5 116,-238.5 116,-250.5 116,-250.5 116,-256.5 110,-262.5 104,-262.5"/>
<text text-anchor="middle" x="58" y="-242" font-family="sans" font-size="10.00">laplace_coords_hipp</text>
</g>
<!-- 10&#45;&gt;53 -->
<g id="edge3" class="edge">
<title>10&#45;&gt;53</title>
<path fill="none" stroke="grey" stroke-width="2" d="M116.08,-226.51C119.1,-225.65 122.08,-224.81 125,-224 165.78,-212.64 211.42,-200.44 248.69,-190.62"/>
<polygon fill="grey" stroke="grey" stroke-width="2" points="249.69,-193.98 258.47,-188.05 247.91,-187.21 249.69,-193.98"/>
</g>
<!-- 11 -->
<g id="node5" class="node">
<title>11</title>
<path fill="none" stroke="#5673d8" stroke-width="2" d="M244.5,-337C244.5,-337 139.5,-337 139.5,-337 133.5,-337 127.5,-331 127.5,-325 127.5,-325 127.5,-313 127.5,-313 127.5,-307 133.5,-301 139.5,-301 139.5,-301 244.5,-301 244.5,-301 250.5,-301 256.5,-307 256.5,-313 256.5,-313 256.5,-325 256.5,-325 256.5,-331 250.5,-337 244.5,-337"/>
<text text-anchor="middle" x="192" y="-316.5" font-family="sans" font-size="10.00">reinsert_subject_labels</text>
</g>
<!-- 11&#45;&gt;52 -->
<g id="edge6" class="edge">
<title>11&#45;&gt;52</title>
<path fill="none" stroke="grey" stroke-width="2" d="M256.84,-318.01C348.86,-316.48 510.29,-307.6 547,-265 601.98,-201.2 478.04,-147.05 394.12,-119.18"/>
<polygon fill="grey" stroke="grey" stroke-width="2" points="395.2,-115.85 384.6,-116.07 393.02,-122.5 395.2,-115.85"/>
</g>
<!-- 11&#45;&gt;10 -->
<g id="edge4" class="edge">
<title>11&#45;&gt;10</title>
<path fill="none" stroke="grey" stroke-width="2" d="M160.24,-300.82C141.72,-290.8 118.17,-278.06 98.34,-267.33"/>
<polygon fill="grey" stroke="grey" stroke-width="2" points="99.99,-264.24 89.53,-262.56 96.66,-270.4 99.99,-264.24"/>
</g>
<!-- 25 -->
<g id="node6" class="node">
<title>25</title>
<path fill="none" stroke="#d8bc56" stroke-width="2" d="M238,-262.5C238,-262.5 146,-262.5 146,-262.5 140,-262.5 134,-256.5 134,-250.5 134,-250.5 134,-238.5 134,-238.5 134,-232.5 140,-226.5 146,-226.5 146,-226.5 238,-226.5 238,-226.5 244,-226.5 250,-232.5 250,-238.5 250,-238.5 250,-250.5 250,-250.5 250,-256.5 244,-262.5 238,-262.5"/>
<text text-anchor="middle" x="192" y="-242" font-family="sans" font-size="10.00">laplace_coords_hipp</text>
</g>
<!-- 11&#45;&gt;25 -->
<g id="edge5" class="edge">
<title>11&#45;&gt;25</title>
<path fill="none" stroke="grey" stroke-width="2" d="M192,-300.82C192,-292.42 192,-282.12 192,-272.69"/>
<polygon fill="grey" stroke="grey" stroke-width="2" points="195.5,-272.56 192,-262.56 188.5,-272.56 195.5,-272.56"/>
</g>
<!-- 25&#45;&gt;53 -->
<g id="edge9" class="edge">
<title>25&#45;&gt;53</title>
<path fill="none" stroke="grey" stroke-width="2" d="M223.28,-226.32C241.45,-216.34 264.52,-203.67 283.99,-192.97"/>
<polygon fill="grey" stroke="grey" stroke-width="2" points="285.86,-195.94 292.94,-188.06 282.49,-189.8 285.86,-195.94"/>
</g>
<!-- 16 -->
<g id="node7" class="node">
<title>16</title>
<path fill="none" stroke="#97d856" stroke-width="2" d="M192,-116C192,-116 162,-116 162,-116 156,-116 150,-110 150,-104 150,-104 150,-92 150,-92 150,-86 156,-80 162,-80 162,-80 192,-80 192,-80 198,-80 204,-86 204,-92 204,-92 204,-104 204,-104 204,-110 198,-116 192,-116"/>
<text text-anchor="middle" x="177" y="-95.5" font-family="sans" font-size="10.00">n4_t1</text>
</g>
<!-- 16&#45;&gt;55 -->
<g id="edge7" class="edge">
<title>16&#45;&gt;55</title>
<path fill="none" stroke="grey" stroke-width="2" d="M204.15,-84.16C225.23,-74.19 254.95,-60.13 279.63,-48.46"/>
<polygon fill="grey" stroke="grey" stroke-width="2" points="281.28,-51.55 288.82,-44.11 278.29,-45.22 281.28,-51.55"/>
</g>
<!-- 18 -->
<g id="node8" class="node">
<title>18</title>
<path fill="none" stroke="#d8c356" stroke-width="2" d="M604,-116C604,-116 458,-116 458,-116 452,-116 446,-110 446,-104 446,-104 446,-92 446,-92 446,-86 452,-80 458,-80 458,-80 604,-80 604,-80 610,-80 616,-86 616,-92 616,-92 616,-104 616,-104 616,-110 610,-116 604,-116"/>
<text text-anchor="middle" x="531" y="-95.5" font-family="sans" font-size="10.00">compose_template_xfm_corobl</text>
</g>
<!-- 18&#45;&gt;55 -->
<g id="edge8" class="edge">
<title>18&#45;&gt;55</title>
<path fill="none" stroke="grey" stroke-width="2" d="M480.87,-79.97C451.96,-70.14 415.43,-57.73 385,-47.39"/>
<polygon fill="grey" stroke="grey" stroke-width="2" points="385.95,-44.01 375.35,-44.11 383.7,-50.64 385.95,-44.01"/>
</g>
<!-- 27 -->
<g id="node9" class="node">
<title>27</title>
<path fill="none" stroke="#56d85b" stroke-width="2" d="M368,-262.5C368,-262.5 280,-262.5 280,-262.5 274,-262.5 268,-256.5 268,-250.5 268,-250.5 268,-238.5 268,-238.5 268,-232.5 274,-226.5 280,-226.5 280,-226.5 368,-226.5 368,-226.5 374,-226.5 380,-232.5 380,-238.5 380,-238.5 380,-250.5 380,-250.5 380,-256.5 374,-262.5 368,-262.5"/>
<text text-anchor="middle" x="324" y="-242" font-family="sans" font-size="10.00">equivolume_coords</text>
</g>
<!-- 27&#45;&gt;53 -->
<g id="edge10" class="edge">
<title>27&#45;&gt;53</title>
<path fill="none" stroke="grey" stroke-width="2" d="M324,-226.32C324,-217.92 324,-207.62 324,-198.19"/>
<polygon fill="grey" stroke="grey" stroke-width="2" points="327.5,-198.06 324,-188.06 320.5,-198.06 327.5,-198.06"/>
</g>
<!-- 47 -->
<g id="node10" class="node">
<title>47</title>
<path fill="none" stroke="#56d873" stroke-width="2" d="M526,-265C526,-265 410,-265 410,-265 404,-265 398,-259 398,-253 398,-253 398,-236 398,-236 398,-230 404,-224 410,-224 410,-224 526,-224 526,-224 532,-224 538,-230 538,-236 538,-236 538,-253 538,-253 538,-259 532,-265 526,-265"/>
<text text-anchor="middle" x="468" y="-253" font-family="sans" font-size="10.00">resample_atlas_to_refvol</text>
<text text-anchor="middle" x="468" y="-242" font-family="sans" font-size="10.00">atlas: bigbrain</text>
<text text-anchor="middle" x="468" y="-231" font-family="sans" font-size="10.00">hemi: R</text>
</g>
<!-- 47&#45;&gt;53 -->
<g id="edge11" class="edge">
<title>47&#45;&gt;53</title>
<path fill="none" stroke="grey" stroke-width="2" d="M429.03,-223.88C409.9,-214.25 386.81,-202.62 367.15,-192.72"/>
<polygon fill="grey" stroke="grey" stroke-width="2" points="368.6,-189.54 358.1,-188.17 365.45,-195.79 368.6,-189.54"/>
</g>
</g>
</svg>
