<?xml version="1.0" encoding="UTF-8" standalone="no"?>
<!DOCTYPE svg PUBLIC "-//W3C//DTD SVG 1.1//EN"
 "http://www.w3.org/Graphics/SVG/1.1/DTD/svg11.dtd">
<!-- Generated by graphviz version 2.43.0 (0)
 -->
<!-- Pages: 1 -->
<svg width="595pt" height="371pt"
 viewBox="0.00 0.00 594.50 371.00" xmlns="http://www.w3.org/2000/svg" xmlns:xlink="http://www.w3.org/1999/xlink">
<g id="graph0" class="graph" transform="scale(1 1) rotate(0) translate(4 367)">
<polygon fill="white" stroke="transparent" points="-4,4 -4,-367 590.5,-367 590.5,4 -4,4"/>
<g id="clust1" class="cluster">
<title>cluster_0</title>
<polygon fill="white" stroke="blue" points="8,-8 8,-355 420,-355 420,-8 8,-8"/>
<text text-anchor="middle" x="214" y="-339.8" font-family="Times,serif" font-size="14.00">preproc_t2</text>
</g>
<!-- 17 -->
<g id="node1" class="node">
<title>17</title>
<path fill="none" stroke="#56c1d8" stroke-width="2" d="M383,-44C383,-44 325,-44 325,-44 319,-44 313,-38 313,-32 313,-32 313,-20 313,-20 313,-14 319,-8 325,-8 325,-8 383,-8 383,-8 389,-8 395,-14 395,-20 395,-20 395,-32 395,-32 395,-38 389,-44 383,-44"/>
<text text-anchor="middle" x="354" y="-29" font-family="sans" font-size="10.00">lr_flip_t2</text>
<text text-anchor="middle" x="354" y="-18" font-family="sans" font-size="10.00">desc: preproc</text>
</g>
<!-- 18 -->
<g id="node2" class="node">
<title>18</title>
<path fill="none" stroke="#d87d56" stroke-width="2" d="M408,-116C408,-116 300,-116 300,-116 294,-116 288,-110 288,-104 288,-104 288,-92 288,-92 288,-86 294,-80 300,-80 300,-80 408,-80 408,-80 414,-80 420,-86 420,-92 420,-92 420,-104 420,-104 420,-110 414,-116 408,-116"/>
<text text-anchor="middle" x="354" y="-101" font-family="sans" font-size="10.00">warp_t2_to_corobl_crop</text>
<text text-anchor="middle" x="354" y="-90" font-family="sans" font-size="10.00">hemi: L</text>
</g>
<!-- 18&#45;&gt;17 -->
<g id="edge1" class="edge">
<title>18&#45;&gt;17</title>
<path fill="none" stroke="grey" stroke-width="2" d="M354,-79.7C354,-71.98 354,-62.71 354,-54.11"/>
<polygon fill="grey" stroke="grey" stroke-width="2" points="357.5,-54.1 354,-44.1 350.5,-54.1 357.5,-54.1"/>
</g>
<!-- 19 -->
<g id="node3" class="node">
<title>19</title>
<path fill="none" stroke="#bed856" stroke-width="2" d="M253,-188C253,-188 155,-188 155,-188 149,-188 143,-182 143,-176 143,-176 143,-164 143,-164 143,-158 149,-152 155,-152 155,-152 253,-152 253,-152 259,-152 265,-158 265,-164 265,-164 265,-176 265,-176 265,-182 259,-188 253,-188"/>
<text text-anchor="middle" x="204" y="-167.5" font-family="sans" font-size="10.00">avg_aligned_or_cp_t2</text>
</g>
<!-- 19&#45;&gt;18 -->
<g id="edge2" class="edge">
<title>19&#45;&gt;18</title>
<path fill="none" stroke="grey" stroke-width="2" d="M240.69,-151.88C261.02,-142.39 286.47,-130.51 308.1,-120.42"/>
<polygon fill="grey" stroke="grey" stroke-width="2" points="309.84,-123.47 317.43,-116.07 306.88,-117.13 309.84,-123.47"/>
</g>
<!-- 24 -->
<g id="node4" class="node">
<title>24</title>
<path fill="none" stroke="#70d856" stroke-width="2" d="M108,-116C108,-116 20,-116 20,-116 14,-116 8,-110 8,-104 8,-104 8,-92 8,-92 8,-86 14,-80 20,-80 20,-80 108,-80 108,-80 114,-80 120,-86 120,-92 120,-92 120,-104 120,-104 120,-110 114,-116 108,-116"/>
<text text-anchor="middle" x="64" y="-95.5" font-family="sans" font-size="10.00">reg_t2_to_template</text>
</g>
<!-- 19&#45;&gt;24 -->
<g id="edge3" class="edge">
<title>19&#45;&gt;24</title>
<path fill="none" stroke="grey" stroke-width="2" d="M169.75,-151.88C150.94,-142.47 127.42,-130.71 107.33,-120.67"/>
<polygon fill="grey" stroke="grey" stroke-width="2" points="108.89,-117.53 98.38,-116.19 105.76,-123.79 108.89,-117.53"/>
</g>
<!-- 65 -->
<g id="node5" class="node">
<title>65</title>
<path fill="none" stroke="#d87d56" stroke-width="2" d="M258,-116C258,-116 150,-116 150,-116 144,-116 138,-110 138,-104 138,-104 138,-92 138,-92 138,-86 144,-80 150,-80 150,-80 258,-80 258,-80 264,-80 270,-86 270,-92 270,-92 270,-104 270,-104 270,-110 264,-116 258,-116"/>
<text text-anchor="middle" x="204" y="-101" font-family="sans" font-size="10.00">warp_t2_to_corobl_crop</text>
<text text-anchor="middle" x="204" y="-90" font-family="sans" font-size="10.00">hemi: R</text>
</g>
<!-- 19&#45;&gt;65 -->
<g id="edge4" class="edge">
<title>19&#45;&gt;65</title>
<path fill="none" stroke="grey" stroke-width="2" d="M204,-151.7C204,-143.98 204,-134.71 204,-126.11"/>
<polygon fill="grey" stroke="grey" stroke-width="2" points="207.5,-126.1 204,-116.1 200.5,-126.1 207.5,-126.1"/>
</g>
<!-- 23 -->
<g id="node9" class="node">
<title>23</title>
<path fill="none" stroke="#56d882" stroke-width="2" d="M574.5,-44C574.5,-44 431.5,-44 431.5,-44 425.5,-44 419.5,-38 419.5,-32 419.5,-32 419.5,-20 419.5,-20 419.5,-14 425.5,-8 431.5,-8 431.5,-8 574.5,-8 574.5,-8 580.5,-8 586.5,-14 586.5,-20 586.5,-20 586.5,-32 586.5,-32 586.5,-38 580.5,-44 574.5,-44"/>
<text text-anchor="middle" x="503" y="-29" font-family="sans" font-size="10.00">convert_template_xfm_ras2itk</text>
<text text-anchor="middle" x="503" y="-18" font-family="sans" font-size="10.00">reg_suffix: T2w</text>
</g>
<!-- 24&#45;&gt;23 -->
<g id="edge10" class="edge">
<title>24&#45;&gt;23</title>
<path fill="none" stroke="grey" stroke-width="2" d="M120.27,-81.8C123.21,-81.16 126.14,-80.55 129,-80 251.91,-56.32 287.22,-63.91 409.11,-45.07"/>
<polygon fill="grey" stroke="grey" stroke-width="2" points="409.88,-48.49 419.21,-43.48 408.79,-41.58 409.88,-48.49"/>
</g>
<!-- 20 -->
<g id="node6" class="node">
<title>20</title>
<path fill="none" stroke="#5673d8" stroke-width="2" d="M219,-260C219,-260 189,-260 189,-260 183,-260 177,-254 177,-248 177,-248 177,-236 177,-236 177,-230 183,-224 189,-224 189,-224 219,-224 219,-224 225,-224 231,-230 231,-236 231,-236 231,-248 231,-248 231,-254 225,-260 219,-260"/>
<text text-anchor="middle" x="204" y="-239.5" font-family="sans" font-size="10.00">n4_t2</text>
</g>
<!-- 20&#45;&gt;19 -->
<g id="edge5" class="edge">
<title>20&#45;&gt;19</title>
<path fill="none" stroke="grey" stroke-width="2" d="M204,-223.7C204,-215.98 204,-206.71 204,-198.11"/>
<polygon fill="grey" stroke="grey" stroke-width="2" points="207.5,-198.1 204,-188.1 200.5,-198.1 207.5,-198.1"/>
</g>
<!-- 21 -->
<g id="node7" class="node">
<title>21</title>
<path fill="none" stroke="#d86656" stroke-width="2" d="M230,-332C230,-332 178,-332 178,-332 172,-332 166,-326 166,-320 166,-320 166,-308 166,-308 166,-302 172,-296 178,-296 178,-296 230,-296 230,-296 236,-296 242,-302 242,-308 242,-308 242,-320 242,-320 242,-326 236,-332 230,-332"/>
<text text-anchor="middle" x="204" y="-317" font-family="sans" font-size="10.00">import_t2</text>
<text text-anchor="middle" x="204" y="-306" font-family="sans" font-size="10.00">subject: 001</text>
</g>
<!-- 21&#45;&gt;20 -->
<g id="edge6" class="edge">
<title>21&#45;&gt;20</title>
<path fill="none" stroke="grey" stroke-width="2" d="M204,-295.7C204,-287.98 204,-278.71 204,-270.11"/>
<polygon fill="grey" stroke="grey" stroke-width="2" points="207.5,-270.1 204,-260.1 200.5,-270.1 207.5,-270.1"/>
</g>
<!-- 22 -->
<g id="node8" class="node">
<title>22</title>
<path fill="none" stroke="#9fd856" stroke-width="2" d="M408,-188C408,-188 296,-188 296,-188 290,-188 284,-182 284,-176 284,-176 284,-164 284,-164 284,-158 290,-152 296,-152 296,-152 408,-152 408,-152 414,-152 420,-158 420,-164 420,-164 420,-176 420,-176 420,-182 414,-188 408,-188"/>
<text text-anchor="middle" x="352" y="-167.5" font-family="sans" font-size="10.00">compose_t2_xfm_corobl</text>
</g>
<!-- 22&#45;&gt;18 -->
<g id="edge7" class="edge">
<title>22&#45;&gt;18</title>
<path fill="none" stroke="grey" stroke-width="2" d="M352.49,-151.7C352.71,-143.98 352.98,-134.71 353.23,-126.11"/>
<polygon fill="grey" stroke="grey" stroke-width="2" points="356.72,-126.2 353.51,-116.1 349.73,-126 356.72,-126.2"/>
</g>
<!-- 22&#45;&gt;65 -->
<g id="edge8" class="edge">
<title>22&#45;&gt;65</title>
<path fill="none" stroke="grey" stroke-width="2" d="M315.8,-151.88C295.74,-142.39 270.63,-130.51 249.29,-120.42"/>
<polygon fill="grey" stroke="grey" stroke-width="2" points="250.62,-117.18 240.09,-116.07 247.63,-123.51 250.62,-117.18"/>
</g>
<!-- 23&#45;&gt;22 -->
<g id="edge9" class="edge">
<title>23&#45;&gt;22</title>
<path fill="none" stroke="grey" stroke-width="2" d="M490.88,-44.27C477.15,-63.13 453.48,-93.64 429,-116 416.91,-127.04 402.39,-137.61 389.23,-146.37"/>
<polygon fill="grey" stroke="grey" stroke-width="2" points="387.29,-143.46 380.82,-151.85 391.11,-149.32 387.29,-143.46"/>
</g>
</g>
</svg>
