<?xml version="1.0" encoding="UTF-8" standalone="no"?>
<!DOCTYPE svg PUBLIC "-//W3C//DTD SVG 1.1//EN"
 "http://www.w3.org/Graphics/SVG/1.1/DTD/svg11.dtd">
<!-- Generated by graphviz version 2.43.0 (0)
 -->
<!-- Pages: 1 -->
<svg width="5685pt" height="168pt"
 viewBox="0.00 0.00 5685.00 168.00" xmlns="http://www.w3.org/2000/svg" xmlns:xlink="http://www.w3.org/1999/xlink">
<g id="graph0" class="graph" transform="scale(1 1) rotate(0) translate(4 164)">
<polygon fill="white" stroke="transparent" points="-4,4 -4,-164 5681,-164 5681,4 -4,4"/>
<g id="clust1" class="cluster">
<title>cluster_0</title>
<polygon fill="white" stroke="blue" points="1751,-8 1751,-152 4953,-152 4953,-8 1751,-8"/>
<text text-anchor="middle" x="3352" y="-136.8" font-family="Times,serif" font-size="14.00">resample_final_to_crop_native</text>
</g>
<!-- 142 -->
<g id="node1" class="node">
<title>142</title>
<path fill="none" stroke="#d8b456" stroke-width="2" d="M4940.5,-46.5C4940.5,-46.5 4791.5,-46.5 4791.5,-46.5 4785.5,-46.5 4779.5,-40.5 4779.5,-34.5 4779.5,-34.5 4779.5,-22.5 4779.5,-22.5 4779.5,-16.5 4785.5,-10.5 4791.5,-10.5 4791.5,-10.5 4940.5,-10.5 4940.5,-10.5 4946.5,-10.5 4952.5,-16.5 4952.5,-22.5 4952.5,-22.5 4952.5,-34.5 4952.5,-34.5 4952.5,-40.5 4946.5,-46.5 4940.5,-46.5"/>
<text text-anchor="middle" x="4866" y="-26" font-family="sans" font-size="10.00">resample_subfields_native_crop</text>
</g>
<!-- 146 -->
<g id="node2" class="node">
<title>146</title>
<path fill="none" stroke="#565bd8" stroke-width="2" d="M3954,-129C3954,-129 3850,-129 3850,-129 3844,-129 3838,-123 3838,-117 3838,-117 3838,-105 3838,-105 3838,-99 3844,-93 3850,-93 3850,-93 3954,-93 3954,-93 3960,-93 3966,-99 3966,-105 3966,-105 3966,-117 3966,-117 3966,-123 3960,-129 3954,-129"/>
<text text-anchor="middle" x="3902" y="-108.5" font-family="sans" font-size="10.00">create_native_crop_ref</text>
</g>
<!-- 146&#45;&gt;142 -->
<g id="edge1" class="edge">
<title>146&#45;&gt;142</title>
<path fill="none" stroke="grey" stroke-width="2" d="M3966.27,-108.35C4110.59,-104 4471.19,-89.67 4770,-49 4772.07,-48.72 4774.17,-48.42 4776.28,-48.1"/>
<polygon fill="grey" stroke="grey" stroke-width="2" points="4776.92,-51.54 4786.25,-46.52 4775.82,-44.63 4776.92,-51.54"/>
</g>
<!-- 153 -->
<g id="node3" class="node">
<title>153</title>
<path fill="none" stroke="#567bd8" stroke-width="2" d="M4241,-46.5C4241,-46.5 4103,-46.5 4103,-46.5 4097,-46.5 4091,-40.5 4091,-34.5 4091,-34.5 4091,-22.5 4091,-22.5 4091,-16.5 4097,-10.5 4103,-10.5 4103,-10.5 4241,-10.5 4241,-10.5 4247,-10.5 4253,-16.5 4253,-22.5 4253,-22.5 4253,-34.5 4253,-34.5 4253,-40.5 4247,-46.5 4241,-46.5"/>
<text text-anchor="middle" x="4172" y="-26" font-family="sans" font-size="10.00">resample_coords_native_crop</text>
</g>
<!-- 146&#45;&gt;153 -->
<g id="edge2" class="edge">
<title>146&#45;&gt;153</title>
<path fill="none" stroke="grey" stroke-width="2" d="M3959.26,-92.93C4001.95,-80.2 4060.37,-62.78 4105.19,-49.42"/>
<polygon fill="grey" stroke="grey" stroke-width="2" points="4106.24,-52.76 4114.82,-46.55 4104.24,-46.05 4106.24,-52.76"/>
</g>
<!-- 155 -->
<g id="node4" class="node">
<title>155</title>
<path fill="none" stroke="#567bd8" stroke-width="2" d="M3521,-46.5C3521,-46.5 3383,-46.5 3383,-46.5 3377,-46.5 3371,-40.5 3371,-34.5 3371,-34.5 3371,-22.5 3371,-22.5 3371,-16.5 3377,-10.5 3383,-10.5 3383,-10.5 3521,-10.5 3521,-10.5 3527,-10.5 3533,-16.5 3533,-22.5 3533,-22.5 3533,-34.5 3533,-34.5 3533,-40.5 3527,-46.5 3521,-46.5"/>
<text text-anchor="middle" x="3452" y="-26" font-family="sans" font-size="10.00">resample_coords_native_crop</text>
</g>
<!-- 146&#45;&gt;155 -->
<g id="edge3" class="edge">
<title>146&#45;&gt;155</title>
<path fill="none" stroke="grey" stroke-width="2" d="M3837.79,-100.02C3765.66,-88.61 3645.17,-68.91 3542,-49 3541.23,-48.85 3540.47,-48.7 3539.69,-48.55"/>
<polygon fill="grey" stroke="grey" stroke-width="2" points="3540.01,-45.05 3529.52,-46.53 3538.65,-51.91 3540.01,-45.05"/>
</g>
<!-- 157 -->
<g id="node5" class="node">
<title>157</title>
<path fill="none" stroke="#567bd8" stroke-width="2" d="M3161,-46.5C3161,-46.5 3023,-46.5 3023,-46.5 3017,-46.5 3011,-40.5 3011,-34.5 3011,-34.5 3011,-22.5 3011,-22.5 3011,-16.5 3017,-10.5 3023,-10.5 3023,-10.5 3161,-10.5 3161,-10.5 3167,-10.5 3173,-16.5 3173,-22.5 3173,-22.5 3173,-34.5 3173,-34.5 3173,-40.5 3167,-46.5 3161,-46.5"/>
<text text-anchor="middle" x="3092" y="-26" font-family="sans" font-size="10.00">resample_coords_native_crop</text>
</g>
<!-- 146&#45;&gt;157 -->
<g id="edge4" class="edge">
<title>146&#45;&gt;157</title>
<path fill="none" stroke="grey" stroke-width="2" d="M3837.62,-107.33C3711.31,-101.48 3422.36,-85.07 3182,-49 3180.32,-48.75 3178.61,-48.48 3176.9,-48.2"/>
<polygon fill="grey" stroke="grey" stroke-width="2" points="3177.45,-44.75 3167,-46.51 3176.27,-51.65 3177.45,-44.75"/>
</g>
<!-- 159 -->
<g id="node6" class="node">
<title>159</title>
<path fill="none" stroke="#567bd8" stroke-width="2" d="M3701,-46.5C3701,-46.5 3563,-46.5 3563,-46.5 3557,-46.5 3551,-40.5 3551,-34.5 3551,-34.5 3551,-22.5 3551,-22.5 3551,-16.5 3557,-10.5 3563,-10.5 3563,-10.5 3701,-10.5 3701,-10.5 3707,-10.5 3713,-16.5 3713,-22.5 3713,-22.5 3713,-34.5 3713,-34.5 3713,-40.5 3707,-46.5 3701,-46.5"/>
<text text-anchor="middle" x="3632" y="-26" font-family="sans" font-size="10.00">resample_coords_native_crop</text>
</g>
<!-- 146&#45;&gt;159 -->
<g id="edge5" class="edge">
<title>146&#45;&gt;159</title>
<path fill="none" stroke="grey" stroke-width="2" d="M3844.74,-92.93C3802.05,-80.2 3743.63,-62.78 3698.81,-49.42"/>
<polygon fill="grey" stroke="grey" stroke-width="2" points="3699.76,-46.05 3689.18,-46.55 3697.76,-52.76 3699.76,-46.05"/>
</g>
<!-- 161 -->
<g id="node7" class="node">
<title>161</title>
<path fill="none" stroke="#567bd8" stroke-width="2" d="M4061,-46.5C4061,-46.5 3923,-46.5 3923,-46.5 3917,-46.5 3911,-40.5 3911,-34.5 3911,-34.5 3911,-22.5 3911,-22.5 3911,-16.5 3917,-10.5 3923,-10.5 3923,-10.5 4061,-10.5 4061,-10.5 4067,-10.5 4073,-16.5 4073,-22.5 4073,-22.5 4073,-34.5 4073,-34.5 4073,-40.5 4067,-46.5 4061,-46.5"/>
<text text-anchor="middle" x="3992" y="-26" font-family="sans" font-size="10.00">resample_coords_native_crop</text>
</g>
<!-- 146&#45;&gt;161 -->
<g id="edge6" class="edge">
<title>146&#45;&gt;161</title>
<path fill="none" stroke="grey" stroke-width="2" d="M3921.09,-92.93C3933.97,-81.4 3951.16,-66.03 3965.39,-53.3"/>
<polygon fill="grey" stroke="grey" stroke-width="2" points="3967.82,-55.82 3972.94,-46.55 3963.15,-50.61 3967.82,-55.82"/>
</g>
<!-- 168 -->
<g id="node8" class="node">
<title>168</title>
<path fill="none" stroke="#567bd8" stroke-width="2" d="M3881,-46.5C3881,-46.5 3743,-46.5 3743,-46.5 3737,-46.5 3731,-40.5 3731,-34.5 3731,-34.5 3731,-22.5 3731,-22.5 3731,-16.5 3737,-10.5 3743,-10.5 3743,-10.5 3881,-10.5 3881,-10.5 3887,-10.5 3893,-16.5 3893,-22.5 3893,-22.5 3893,-34.5 3893,-34.5 3893,-40.5 3887,-46.5 3881,-46.5"/>
<text text-anchor="middle" x="3812" y="-26" font-family="sans" font-size="10.00">resample_coords_native_crop</text>
</g>
<!-- 146&#45;&gt;168 -->
<g id="edge7" class="edge">
<title>146&#45;&gt;168</title>
<path fill="none" stroke="grey" stroke-width="2" d="M3882.91,-92.93C3870.03,-81.4 3852.84,-66.03 3838.61,-53.3"/>
<polygon fill="grey" stroke="grey" stroke-width="2" points="3840.85,-50.61 3831.06,-46.55 3836.18,-55.82 3840.85,-50.61"/>
</g>
<!-- 170 -->
<g id="node9" class="node">
<title>170</title>
<path fill="none" stroke="#567bd8" stroke-width="2" d="M3341,-46.5C3341,-46.5 3203,-46.5 3203,-46.5 3197,-46.5 3191,-40.5 3191,-34.5 3191,-34.5 3191,-22.5 3191,-22.5 3191,-16.5 3197,-10.5 3203,-10.5 3203,-10.5 3341,-10.5 3341,-10.5 3347,-10.5 3353,-16.5 3353,-22.5 3353,-22.5 3353,-34.5 3353,-34.5 3353,-40.5 3347,-46.5 3341,-46.5"/>
<text text-anchor="middle" x="3272" y="-31.5" font-family="sans" font-size="10.00">resample_coords_native_crop</text>
<text text-anchor="middle" x="3272" y="-20.5" font-family="sans" font-size="10.00">autotop: hipp</text>
</g>
<!-- 146&#45;&gt;170 -->
<g id="edge8" class="edge">
<title>146&#45;&gt;170</title>
<path fill="none" stroke="grey" stroke-width="2" d="M3837.71,-104.85C3736.21,-96.25 3532.83,-77.08 3362,-49 3360.71,-48.79 3359.42,-48.57 3358.11,-48.35"/>
<polygon fill="grey" stroke="grey" stroke-width="2" points="3358.47,-44.85 3348.01,-46.53 3357.23,-51.74 3358.47,-44.85"/>
</g>
<!-- 180 -->
<g id="node10" class="node">
<title>180</title>
<path fill="none" stroke="#5673d8" stroke-width="2" d="M4749,-46.5C4749,-46.5 4633,-46.5 4633,-46.5 4627,-46.5 4621,-40.5 4621,-34.5 4621,-34.5 4621,-22.5 4621,-22.5 4621,-16.5 4627,-10.5 4633,-10.5 4633,-10.5 4749,-10.5 4749,-10.5 4755,-10.5 4761,-16.5 4761,-22.5 4761,-22.5 4761,-34.5 4761,-34.5 4761,-40.5 4755,-46.5 4749,-46.5"/>
<text text-anchor="middle" x="4691" y="-26" font-family="sans" font-size="10.00">resample_native_to_crop</text>
</g>
<!-- 146&#45;&gt;180 -->
<g id="edge9" class="edge">
<title>146&#45;&gt;180</title>
<path fill="none" stroke="grey" stroke-width="2" d="M3966.06,-107.85C4091.03,-102.92 4375.81,-88.05 4612,-49 4613.08,-48.82 4614.17,-48.64 4615.26,-48.44"/>
<polygon fill="grey" stroke="grey" stroke-width="2" points="4616.04,-51.86 4625.21,-46.56 4614.73,-44.98 4616.04,-51.86"/>
</g>
<!-- 148 -->
<g id="node11" class="node">
<title>148</title>
<path fill="none" stroke="#d8b456" stroke-width="2" d="M4432.5,-46.5C4432.5,-46.5 4283.5,-46.5 4283.5,-46.5 4277.5,-46.5 4271.5,-40.5 4271.5,-34.5 4271.5,-34.5 4271.5,-22.5 4271.5,-22.5 4271.5,-16.5 4277.5,-10.5 4283.5,-10.5 4283.5,-10.5 4432.5,-10.5 4432.5,-10.5 4438.5,-10.5 4444.5,-16.5 4444.5,-22.5 4444.5,-22.5 4444.5,-34.5 4444.5,-34.5 4444.5,-40.5 4438.5,-46.5 4432.5,-46.5"/>
<text text-anchor="middle" x="4358" y="-26" font-family="sans" font-size="10.00">resample_subfields_native_crop</text>
</g>
<!-- 151 -->
<g id="node12" class="node">
<title>151</title>
<path fill="none" stroke="#565bd8" stroke-width="2" d="M2694,-129C2694,-129 2590,-129 2590,-129 2584,-129 2578,-123 2578,-117 2578,-117 2578,-105 2578,-105 2578,-99 2584,-93 2590,-93 2590,-93 2694,-93 2694,-93 2700,-93 2706,-99 2706,-105 2706,-105 2706,-117 2706,-117 2706,-123 2700,-129 2694,-129"/>
<text text-anchor="middle" x="2642" y="-108.5" font-family="sans" font-size="10.00">create_native_crop_ref</text>
</g>
<!-- 151&#45;&gt;148 -->
<g id="edge10" class="edge">
<title>151&#45;&gt;148</title>
<path fill="none" stroke="grey" stroke-width="2" d="M2706.36,-108.98C2968.03,-104.6 3952.85,-85.97 4262,-49 4264.51,-48.7 4267.06,-48.37 4269.62,-48.01"/>
<polygon fill="grey" stroke="grey" stroke-width="2" points="4270.22,-51.46 4279.58,-46.51 4269.17,-44.54 4270.22,-51.46"/>
</g>
<!-- 154 -->
<g id="node13" class="node">
<title>154</title>
<path fill="none" stroke="#567bd8" stroke-width="2" d="M2261,-49C2261,-49 2123,-49 2123,-49 2117,-49 2111,-43 2111,-37 2111,-37 2111,-20 2111,-20 2111,-14 2117,-8 2123,-8 2123,-8 2261,-8 2261,-8 2267,-8 2273,-14 2273,-20 2273,-20 2273,-37 2273,-37 2273,-43 2267,-49 2261,-49"/>
<text text-anchor="middle" x="2192" y="-37" font-family="sans" font-size="10.00">resample_coords_native_crop</text>
<text text-anchor="middle" x="2192" y="-26" font-family="sans" font-size="10.00">autotop: hipp</text>
<text text-anchor="middle" x="2192" y="-15" font-family="sans" font-size="10.00">desc: laplace</text>
</g>
<!-- 151&#45;&gt;154 -->
<g id="edge11" class="edge">
<title>151&#45;&gt;154</title>
<path fill="none" stroke="grey" stroke-width="2" d="M2577.79,-100.02C2507.77,-88.94 2392.19,-70.05 2283.25,-49.2"/>
<polygon fill="grey" stroke="grey" stroke-width="2" points="2283.88,-45.76 2273.4,-47.31 2282.56,-52.64 2283.88,-45.76"/>
</g>
<!-- 156 -->
<g id="node14" class="node">
<title>156</title>
<path fill="none" stroke="#567bd8" stroke-width="2" d="M2441,-49C2441,-49 2303,-49 2303,-49 2297,-49 2291,-43 2291,-37 2291,-37 2291,-20 2291,-20 2291,-14 2297,-8 2303,-8 2303,-8 2441,-8 2441,-8 2447,-8 2453,-14 2453,-20 2453,-20 2453,-37 2453,-37 2453,-43 2447,-49 2441,-49"/>
<text text-anchor="middle" x="2372" y="-37" font-family="sans" font-size="10.00">resample_coords_native_crop</text>
<text text-anchor="middle" x="2372" y="-26" font-family="sans" font-size="10.00">autotop: dentate</text>
<text text-anchor="middle" x="2372" y="-15" font-family="sans" font-size="10.00">desc: laplace</text>
</g>
<!-- 151&#45;&gt;156 -->
<g id="edge12" class="edge">
<title>151&#45;&gt;156</title>
<path fill="none" stroke="grey" stroke-width="2" d="M2584.74,-92.93C2544.73,-81 2490.91,-64.95 2447.41,-51.98"/>
<polygon fill="grey" stroke="grey" stroke-width="2" points="2448.31,-48.6 2437.73,-49.1 2446.31,-55.31 2448.31,-48.6"/>
</g>
<!-- 158 -->
<g id="node15" class="node">
<title>158</title>
<path fill="none" stroke="#567bd8" stroke-width="2" d="M1901,-49C1901,-49 1763,-49 1763,-49 1757,-49 1751,-43 1751,-37 1751,-37 1751,-20 1751,-20 1751,-14 1757,-8 1763,-8 1763,-8 1901,-8 1901,-8 1907,-8 1913,-14 1913,-20 1913,-20 1913,-37 1913,-37 1913,-43 1907,-49 1901,-49"/>
<text text-anchor="middle" x="1832" y="-37" font-family="sans" font-size="10.00">resample_coords_native_crop</text>
<text text-anchor="middle" x="1832" y="-26" font-family="sans" font-size="10.00">autotop: hipp</text>
<text text-anchor="middle" x="1832" y="-15" font-family="sans" font-size="10.00">desc: laplace</text>
</g>
<!-- 151&#45;&gt;158 -->
<g id="edge13" class="edge">
<title>151&#45;&gt;158</title>
<path fill="none" stroke="grey" stroke-width="2" d="M2577.62,-107.33C2453.04,-101.56 2170.23,-85.51 1923.58,-49.14"/>
<polygon fill="grey" stroke="grey" stroke-width="2" points="1923.75,-45.63 1913.35,-47.62 1922.72,-52.55 1923.75,-45.63"/>
</g>
<!-- 160 -->
<g id="node16" class="node">
<title>160</title>
<path fill="none" stroke="#567bd8" stroke-width="2" d="M2621,-49C2621,-49 2483,-49 2483,-49 2477,-49 2471,-43 2471,-37 2471,-37 2471,-20 2471,-20 2471,-14 2477,-8 2483,-8 2483,-8 2621,-8 2621,-8 2627,-8 2633,-14 2633,-20 2633,-20 2633,-37 2633,-37 2633,-43 2627,-49 2621,-49"/>
<text text-anchor="middle" x="2552" y="-37" font-family="sans" font-size="10.00">resample_coords_native_crop</text>
<text text-anchor="middle" x="2552" y="-26" font-family="sans" font-size="10.00">autotop: dentate</text>
<text text-anchor="middle" x="2552" y="-15" font-family="sans" font-size="10.00">desc: laplace</text>
</g>
<!-- 151&#45;&gt;160 -->
<g id="edge14" class="edge">
<title>151&#45;&gt;160</title>
<path fill="none" stroke="grey" stroke-width="2" d="M2622.91,-92.93C2610.92,-82.2 2595.21,-68.15 2581.62,-55.99"/>
<polygon fill="grey" stroke="grey" stroke-width="2" points="2583.7,-53.15 2573.91,-49.1 2579.03,-58.37 2583.7,-53.15"/>
</g>
<!-- 165 -->
<g id="node17" class="node">
<title>165</title>
<path fill="none" stroke="#567bd8" stroke-width="2" d="M2801,-49C2801,-49 2663,-49 2663,-49 2657,-49 2651,-43 2651,-37 2651,-37 2651,-20 2651,-20 2651,-14 2657,-8 2663,-8 2663,-8 2801,-8 2801,-8 2807,-8 2813,-14 2813,-20 2813,-20 2813,-37 2813,-37 2813,-43 2807,-49 2801,-49"/>
<text text-anchor="middle" x="2732" y="-37" font-family="sans" font-size="10.00">resample_coords_native_crop</text>
<text text-anchor="middle" x="2732" y="-26" font-family="sans" font-size="10.00">autotop: hipp</text>
<text text-anchor="middle" x="2732" y="-15" font-family="sans" font-size="10.00">desc: laplace</text>
</g>
<!-- 151&#45;&gt;165 -->
<g id="edge15" class="edge">
<title>151&#45;&gt;165</title>
<path fill="none" stroke="grey" stroke-width="2" d="M2661.09,-92.93C2673.08,-82.2 2688.79,-68.15 2702.38,-55.99"/>
<polygon fill="grey" stroke="grey" stroke-width="2" points="2704.97,-58.37 2710.09,-49.1 2700.3,-53.15 2704.97,-58.37"/>
</g>
<!-- 169 -->
<g id="node18" class="node">
<title>169</title>
<path fill="none" stroke="#567bd8" stroke-width="2" d="M2981,-49C2981,-49 2843,-49 2843,-49 2837,-49 2831,-43 2831,-37 2831,-37 2831,-20 2831,-20 2831,-14 2837,-8 2843,-8 2843,-8 2981,-8 2981,-8 2987,-8 2993,-14 2993,-20 2993,-20 2993,-37 2993,-37 2993,-43 2987,-49 2981,-49"/>
<text text-anchor="middle" x="2912" y="-37" font-family="sans" font-size="10.00">resample_coords_native_crop</text>
<text text-anchor="middle" x="2912" y="-26" font-family="sans" font-size="10.00">autotop: dentate</text>
<text text-anchor="middle" x="2912" y="-15" font-family="sans" font-size="10.00">desc: laplace</text>
</g>
<!-- 151&#45;&gt;169 -->
<g id="edge16" class="edge">
<title>151&#45;&gt;169</title>
<path fill="none" stroke="grey" stroke-width="2" d="M2699.26,-92.93C2739.27,-81 2793.09,-64.95 2836.59,-51.98"/>
<polygon fill="grey" stroke="grey" stroke-width="2" points="2837.69,-55.31 2846.27,-49.1 2835.69,-48.6 2837.69,-55.31"/>
</g>
<!-- 171 -->
<g id="node19" class="node">
<title>171</title>
<path fill="none" stroke="#567bd8" stroke-width="2" d="M2081,-49C2081,-49 1943,-49 1943,-49 1937,-49 1931,-43 1931,-37 1931,-37 1931,-20 1931,-20 1931,-14 1937,-8 1943,-8 1943,-8 2081,-8 2081,-8 2087,-8 2093,-14 2093,-20 2093,-20 2093,-37 2093,-37 2093,-43 2087,-49 2081,-49"/>
<text text-anchor="middle" x="2012" y="-37" font-family="sans" font-size="10.00">resample_coords_native_crop</text>
<text text-anchor="middle" x="2012" y="-26" font-family="sans" font-size="10.00">autotop: hipp</text>
<text text-anchor="middle" x="2012" y="-15" font-family="sans" font-size="10.00">desc: equivol</text>
</g>
<!-- 151&#45;&gt;171 -->
<g id="edge17" class="edge">
<title>151&#45;&gt;171</title>
<path fill="none" stroke="grey" stroke-width="2" d="M2577.71,-104.85C2478.09,-96.41 2280.34,-77.79 2103.38,-49.15"/>
<polygon fill="grey" stroke="grey" stroke-width="2" points="2103.8,-45.67 2093.36,-47.51 2102.67,-52.58 2103.8,-45.67"/>
</g>
<!-- 181 -->
<g id="node20" class="node">
<title>181</title>
<path fill="none" stroke="#5673d8" stroke-width="2" d="M4591,-46.5C4591,-46.5 4475,-46.5 4475,-46.5 4469,-46.5 4463,-40.5 4463,-34.5 4463,-34.5 4463,-22.5 4463,-22.5 4463,-16.5 4469,-10.5 4475,-10.5 4475,-10.5 4591,-10.5 4591,-10.5 4597,-10.5 4603,-16.5 4603,-22.5 4603,-22.5 4603,-34.5 4603,-34.5 4603,-40.5 4597,-46.5 4591,-46.5"/>
<text text-anchor="middle" x="4533" y="-26" font-family="sans" font-size="10.00">resample_native_to_crop</text>
</g>
<!-- 151&#45;&gt;181 -->
<g id="edge18" class="edge">
<title>151&#45;&gt;181</title>
<path fill="none" stroke="grey" stroke-width="2" d="M2706.05,-108.64C3007.57,-102.11 4278.33,-73.37 4454,-49 4455.49,-48.79 4456.99,-48.57 4458.49,-48.33"/>
<polygon fill="grey" stroke="grey" stroke-width="2" points="4459.3,-51.75 4468.54,-46.57 4458.09,-44.85 4459.3,-51.75"/>
</g>
<!-- 11 -->
<g id="node21" class="node">
<title>11</title>
<path fill="none" stroke="#78d856" stroke-width="2" d="M1738.5,-137C1738.5,-137 1681.5,-137 1681.5,-137 1675.5,-137 1669.5,-131 1669.5,-125 1669.5,-125 1669.5,-97 1669.5,-97 1669.5,-91 1675.5,-85 1681.5,-85 1681.5,-85 1738.5,-85 1738.5,-85 1744.5,-85 1750.5,-91 1750.5,-97 1750.5,-97 1750.5,-125 1750.5,-125 1750.5,-131 1744.5,-137 1738.5,-137"/>
<text text-anchor="middle" x="1710" y="-125" font-family="sans" font-size="10.00">unflip_coords</text>
<text text-anchor="middle" x="1710" y="-114" font-family="sans" font-size="10.00">autotop: hipp</text>
<text text-anchor="middle" x="1710" y="-103" font-family="sans" font-size="10.00">desc: laplace</text>
<text text-anchor="middle" x="1710" y="-92" font-family="sans" font-size="10.00">hemi: L</text>
</g>
<!-- 11&#45;&gt;153 -->
<g id="edge19" class="edge">
<title>11&#45;&gt;153</title>
<path fill="none" stroke="grey" stroke-width="2" d="M1750.59,-86.34C1752.06,-85.84 1753.53,-85.39 1755,-85 2004.81,-18.2 3825.1,-78.52 4082,-49 4084.35,-48.73 4086.72,-48.43 4089.11,-48.09"/>
<polygon fill="grey" stroke="grey" stroke-width="2" points="4089.66,-51.55 4099.02,-46.58 4088.6,-44.63 4089.66,-51.55"/>
</g>
<!-- 19 -->
<g id="node22" class="node">
<title>19</title>
<path fill="none" stroke="#56a9d8" stroke-width="2" d="M5441,-129C5441,-129 5343,-129 5343,-129 5337,-129 5331,-123 5331,-117 5331,-117 5331,-105 5331,-105 5331,-99 5337,-93 5343,-93 5343,-93 5441,-93 5441,-93 5447,-93 5453,-99 5453,-105 5453,-105 5453,-117 5453,-117 5453,-123 5447,-129 5441,-129"/>
<text text-anchor="middle" x="5392" y="-108.5" font-family="sans" font-size="10.00">avg_aligned_or_cp_t2</text>
</g>
<!-- 19&#45;&gt;180 -->
<g id="edge22" class="edge">
<title>19&#45;&gt;180</title>
<path fill="none" stroke="grey" stroke-width="2" d="M5350.34,-92.99C5341.15,-89.84 5331.35,-86.94 5322,-85 5081.68,-35.25 5013.58,-86.2 4771,-49 4769.73,-48.8 4768.45,-48.6 4767.16,-48.38"/>
<polygon fill="grey" stroke="grey" stroke-width="2" points="4767.64,-44.92 4757.18,-46.57 4766.39,-51.8 4767.64,-44.92"/>
</g>
<!-- 19&#45;&gt;181 -->
<g id="edge23" class="edge">
<title>19&#45;&gt;181</title>
<path fill="none" stroke="grey" stroke-width="2" d="M5350.37,-92.89C5341.16,-89.74 5331.36,-86.87 5322,-85 5012.14,-23.21 4924.58,-95.07 4612,-49 4610.7,-48.81 4609.4,-48.61 4608.08,-48.39"/>
<polygon fill="grey" stroke="grey" stroke-width="2" points="4608.36,-44.89 4597.9,-46.56 4607.13,-51.78 4608.36,-44.89"/>
</g>
<!-- 147 -->
<g id="node23" class="node">
<title>147</title>
<path fill="none" stroke="#9fd856" stroke-width="2" d="M5420,-46.5C5420,-46.5 5282,-46.5 5282,-46.5 5276,-46.5 5270,-40.5 5270,-34.5 5270,-34.5 5270,-22.5 5270,-22.5 5270,-16.5 5276,-10.5 5282,-10.5 5282,-10.5 5420,-10.5 5420,-10.5 5426,-10.5 5432,-16.5 5432,-22.5 5432,-22.5 5432,-34.5 5432,-34.5 5432,-40.5 5426,-46.5 5420,-46.5"/>
<text text-anchor="middle" x="5351" y="-31.5" font-family="sans" font-size="10.00">resample_subfields_to_native</text>
<text text-anchor="middle" x="5351" y="-20.5" font-family="sans" font-size="10.00">native_modality: T2w</text>
</g>
<!-- 19&#45;&gt;147 -->
<g id="edge20" class="edge">
<title>19&#45;&gt;147</title>
<path fill="none" stroke="grey" stroke-width="2" d="M5383.3,-92.93C5377.81,-82.15 5370.61,-68 5364.4,-55.81"/>
<polygon fill="grey" stroke="grey" stroke-width="2" points="5367.34,-53.87 5359.68,-46.55 5361.1,-57.05 5367.34,-53.87"/>
</g>
<!-- 152 -->
<g id="node24" class="node">
<title>152</title>
<path fill="none" stroke="#9fd856" stroke-width="2" d="M5200,-46.5C5200,-46.5 5062,-46.5 5062,-46.5 5056,-46.5 5050,-40.5 5050,-34.5 5050,-34.5 5050,-22.5 5050,-22.5 5050,-16.5 5056,-10.5 5062,-10.5 5062,-10.5 5200,-10.5 5200,-10.5 5206,-10.5 5212,-16.5 5212,-22.5 5212,-22.5 5212,-34.5 5212,-34.5 5212,-40.5 5206,-46.5 5200,-46.5"/>
<text text-anchor="middle" x="5131" y="-31.5" font-family="sans" font-size="10.00">resample_subfields_to_native</text>
<text text-anchor="middle" x="5131" y="-20.5" font-family="sans" font-size="10.00">native_modality: T2w</text>
</g>
<!-- 19&#45;&gt;152 -->
<g id="edge21" class="edge">
<title>19&#45;&gt;152</title>
<path fill="none" stroke="grey" stroke-width="2" d="M5345.44,-92.93C5337.64,-90.2 5329.61,-87.46 5322,-85 5282.96,-72.37 5239.01,-59.51 5203.12,-49.35"/>
<polygon fill="grey" stroke="grey" stroke-width="2" points="5203.8,-45.9 5193.22,-46.56 5201.9,-52.64 5203.8,-45.9"/>
</g>
<!-- 147&#45;&gt;146 -->
<g id="edge55" class="edge">
<title>147&#45;&gt;146</title>
<path fill="none" stroke="grey" stroke-width="2" d="M5269.68,-43.01C5253.58,-45.31 5236.79,-47.46 5221,-49 4748.68,-95.22 4177.68,-106.58 3976.49,-109.23"/>
<polygon fill="grey" stroke="grey" stroke-width="2" points="3976.29,-105.73 3966.33,-109.36 3976.38,-112.73 3976.29,-105.73"/>
</g>
<!-- 152&#45;&gt;151 -->
<g id="edge58" class="edge">
<title>152&#45;&gt;151</title>
<path fill="none" stroke="grey" stroke-width="2" d="M5049.69,-40.06C5020.51,-43.47 4987.33,-46.91 4957,-49 4729.5,-64.72 3087.02,-100.49 2716.24,-108.42"/>
<polygon fill="grey" stroke="grey" stroke-width="2" points="2716.08,-104.92 2706.16,-108.64 2716.23,-111.92 2716.08,-104.92"/>
</g>
<!-- 22 -->
<g id="node25" class="node">
<title>22</title>
<path fill="none" stroke="#56d87b" stroke-width="2" d="M5077,-129C5077,-129 4965,-129 4965,-129 4959,-129 4953,-123 4953,-117 4953,-117 4953,-105 4953,-105 4953,-99 4959,-93 4965,-93 4965,-93 5077,-93 5077,-93 5083,-93 5089,-99 5089,-105 5089,-105 5089,-117 5089,-117 5089,-123 5083,-129 5077,-129"/>
<text text-anchor="middle" x="5021" y="-108.5" font-family="sans" font-size="10.00">compose_t2_xfm_corobl</text>
</g>
<!-- 22&#45;&gt;142 -->
<g id="edge24" class="edge">
<title>22&#45;&gt;142</title>
<path fill="none" stroke="grey" stroke-width="2" d="M4988.13,-92.93C4964.7,-80.76 4933.02,-64.31 4907.8,-51.21"/>
<polygon fill="grey" stroke="grey" stroke-width="2" points="4909.31,-48.05 4898.82,-46.55 4906.09,-54.26 4909.31,-48.05"/>
</g>
<!-- 22&#45;&gt;153 -->
<g id="edge28" class="edge">
<title>22&#45;&gt;153</title>
<path fill="none" stroke="grey" stroke-width="2" d="M4978.14,-92.91C4968.68,-89.76 4958.61,-86.88 4949,-85 4649.38,-26.35 4565.66,-89.11 4263,-49 4260.94,-48.73 4258.85,-48.43 4256.74,-48.12"/>
<polygon fill="grey" stroke="grey" stroke-width="2" points="4257.25,-44.65 4246.82,-46.52 4256.14,-51.56 4257.25,-44.65"/>
</g>
<!-- 22&#45;&gt;155 -->
<g id="edge30" class="edge">
<title>22&#45;&gt;155</title>
<path fill="none" stroke="grey" stroke-width="2" d="M4978.94,-92.97C4969.26,-89.73 4958.89,-86.8 4949,-85 4641.28,-29.04 3852.54,-86.28 3542,-49 3539.66,-48.72 3537.28,-48.4 3534.89,-48.06"/>
<polygon fill="grey" stroke="grey" stroke-width="2" points="3535.41,-44.6 3524.99,-46.52 3534.33,-51.52 3535.41,-44.6"/>
</g>
<!-- 22&#45;&gt;157 -->
<g id="edge32" class="edge">
<title>22&#45;&gt;157</title>
<path fill="none" stroke="grey" stroke-width="2" d="M4978.95,-92.93C4969.27,-89.7 4958.9,-86.77 4949,-85 4562.41,-15.74 3572.07,-94.8 3182,-49 3179.66,-48.72 3177.28,-48.42 3174.89,-48.08"/>
<polygon fill="grey" stroke="grey" stroke-width="2" points="3175.41,-44.62 3164.99,-46.55 3174.34,-51.54 3175.41,-44.62"/>
</g>
<!-- 22&#45;&gt;159 -->
<g id="edge34" class="edge">
<title>22&#45;&gt;159</title>
<path fill="none" stroke="grey" stroke-width="2" d="M4978.94,-93C4969.25,-89.76 4958.89,-86.82 4949,-85 4680.71,-35.69 3992.78,-82.02 3722,-49 3719.89,-48.74 3717.76,-48.46 3715.61,-48.15"/>
<polygon fill="grey" stroke="grey" stroke-width="2" points="3715.91,-44.66 3705.49,-46.57 3714.83,-51.57 3715.91,-44.66"/>
</g>
<!-- 22&#45;&gt;161 -->
<g id="edge36" class="edge">
<title>22&#45;&gt;161</title>
<path fill="none" stroke="grey" stroke-width="2" d="M4978.54,-92.96C4968.97,-89.77 4958.75,-86.85 4949,-85 4570.12,-12.98 4464.54,-98.01 4082,-49 4079.89,-48.73 4077.76,-48.44 4075.62,-48.12"/>
<polygon fill="grey" stroke="grey" stroke-width="2" points="4075.92,-44.62 4065.5,-46.5 4074.82,-51.54 4075.92,-44.62"/>
</g>
<!-- 22&#45;&gt;168 -->
<g id="edge38" class="edge">
<title>22&#45;&gt;168</title>
<path fill="none" stroke="grey" stroke-width="2" d="M4978.55,-92.91C4968.98,-89.72 4958.76,-86.82 4949,-85 4491.28,0.32 4364.04,-106.53 3902,-49 3899.89,-48.74 3897.76,-48.45 3895.62,-48.14"/>
<polygon fill="grey" stroke="grey" stroke-width="2" points="3895.91,-44.64 3885.49,-46.54 3894.82,-51.56 3895.91,-44.64"/>
</g>
<!-- 22&#45;&gt;170 -->
<g id="edge40" class="edge">
<title>22&#45;&gt;170</title>
<path fill="none" stroke="grey" stroke-width="2" d="M4978.95,-92.95C4969.26,-89.71 4958.9,-86.78 4949,-85 4601.84,-22.39 3712.3,-90.54 3362,-49 3359.66,-48.72 3357.28,-48.41 3354.89,-48.07"/>
<polygon fill="grey" stroke="grey" stroke-width="2" points="3355.41,-44.61 3344.99,-46.53 3354.33,-51.53 3355.41,-44.61"/>
</g>
<!-- 22&#45;&gt;148 -->
<g id="edge26" class="edge">
<title>22&#45;&gt;148</title>
<path fill="none" stroke="grey" stroke-width="2" d="M4977.73,-92.93C4968.38,-89.82 4958.46,-86.95 4949,-85 4732.97,-40.44 4672.53,-79.02 4454,-49 4451.93,-48.72 4449.83,-48.41 4447.72,-48.1"/>
<polygon fill="grey" stroke="grey" stroke-width="2" points="4448.18,-44.62 4437.75,-46.51 4447.08,-51.54 4448.18,-44.62"/>
</g>
<!-- 22&#45;&gt;154 -->
<g id="edge29" class="edge">
<title>22&#45;&gt;154</title>
<path fill="none" stroke="grey" stroke-width="2" d="M4978.96,-92.88C4969.27,-89.65 4958.9,-86.74 4949,-85 4660.24,-34.29 2620.95,-81.51 2283.69,-48.97"/>
<polygon fill="grey" stroke="grey" stroke-width="2" points="2283.62,-45.44 2273.31,-47.88 2282.89,-52.4 2283.62,-45.44"/>
</g>
<!-- 22&#45;&gt;156 -->
<g id="edge31" class="edge">
<title>22&#45;&gt;156</title>
<path fill="none" stroke="grey" stroke-width="2" d="M4978.96,-92.89C4969.27,-89.66 4958.9,-86.74 4949,-85 4679.88,-37.6 2779.94,-79.45 2463.48,-48.94"/>
<polygon fill="grey" stroke="grey" stroke-width="2" points="2463.63,-45.44 2453.31,-47.88 2462.89,-52.4 2463.63,-45.44"/>
</g>
<!-- 22&#45;&gt;158 -->
<g id="edge33" class="edge">
<title>22&#45;&gt;158</title>
<path fill="none" stroke="grey" stroke-width="2" d="M4979.34,-93C4969.55,-89.72 4959.04,-86.75 4949,-85 4620.74,-27.62 2299.87,-85.71 1923.38,-48.94"/>
<polygon fill="grey" stroke="grey" stroke-width="2" points="1923.62,-45.45 1913.31,-47.89 1922.89,-52.41 1923.62,-45.45"/>
</g>
<!-- 22&#45;&gt;160 -->
<g id="edge35" class="edge">
<title>22&#45;&gt;160</title>
<path fill="none" stroke="grey" stroke-width="2" d="M4978.96,-92.9C4969.27,-89.66 4958.9,-86.75 4949,-85 4699.63,-40.93 2940.4,-77.37 2643.64,-48.96"/>
<polygon fill="grey" stroke="grey" stroke-width="2" points="2643.63,-45.43 2633.31,-47.87 2642.89,-52.4 2643.63,-45.43"/>
</g>
<!-- 22&#45;&gt;165 -->
<g id="edge37" class="edge">
<title>22&#45;&gt;165</title>
<path fill="none" stroke="grey" stroke-width="2" d="M4978.96,-92.91C4969.27,-89.67 4958.9,-86.76 4949,-85 4486.83,-3.02 3308.45,-101.89 2823.58,-49.02"/>
<polygon fill="grey" stroke="grey" stroke-width="2" points="2823.64,-45.51 2813.32,-47.87 2822.86,-52.46 2823.64,-45.51"/>
</g>
<!-- 22&#45;&gt;169 -->
<g id="edge39" class="edge">
<title>22&#45;&gt;169</title>
<path fill="none" stroke="grey" stroke-width="2" d="M4978.95,-92.92C4969.27,-89.68 4958.9,-86.76 4949,-85 4526.19,-9.66 3448.31,-97.7 3003.38,-49"/>
<polygon fill="grey" stroke="grey" stroke-width="2" points="3003.65,-45.51 2993.32,-47.86 3002.86,-52.46 3003.65,-45.51"/>
</g>
<!-- 22&#45;&gt;171 -->
<g id="edge41" class="edge">
<title>22&#45;&gt;171</title>
<path fill="none" stroke="grey" stroke-width="2" d="M4978.96,-92.88C4969.28,-89.64 4958.91,-86.74 4949,-85 4640.43,-30.94 2459.54,-83.63 2103.32,-48.93"/>
<polygon fill="grey" stroke="grey" stroke-width="2" points="2103.62,-45.45 2093.31,-47.88 2102.89,-52.41 2103.62,-45.45"/>
</g>
<!-- 22&#45;&gt;147 -->
<g id="edge25" class="edge">
<title>22&#45;&gt;147</title>
<path fill="none" stroke="grey" stroke-width="2" d="M5071.32,-92.88C5080.17,-90.1 5089.32,-87.36 5098,-85 5151.29,-70.54 5211.67,-57.18 5260.07,-47.2"/>
<polygon fill="grey" stroke="grey" stroke-width="2" points="5260.8,-50.62 5269.9,-45.18 5259.4,-43.76 5260.8,-50.62"/>
</g>
<!-- 22&#45;&gt;152 -->
<g id="edge27" class="edge">
<title>22&#45;&gt;152</title>
<path fill="none" stroke="grey" stroke-width="2" d="M5044.33,-92.93C5060.37,-81.19 5081.87,-65.46 5099.44,-52.6"/>
<polygon fill="grey" stroke="grey" stroke-width="2" points="5101.7,-55.28 5107.71,-46.55 5097.57,-49.63 5101.7,-55.28"/>
</g>
<!-- 33 -->
<g id="node26" class="node">
<title>33</title>
<path fill="none" stroke="#78d856" stroke-width="2" d="M1051.5,-137C1051.5,-137 994.5,-137 994.5,-137 988.5,-137 982.5,-131 982.5,-125 982.5,-125 982.5,-97 982.5,-97 982.5,-91 988.5,-85 994.5,-85 994.5,-85 1051.5,-85 1051.5,-85 1057.5,-85 1063.5,-91 1063.5,-97 1063.5,-97 1063.5,-125 1063.5,-125 1063.5,-131 1057.5,-137 1051.5,-137"/>
<text text-anchor="middle" x="1023" y="-125" font-family="sans" font-size="10.00">unflip_coords</text>
<text text-anchor="middle" x="1023" y="-114" font-family="sans" font-size="10.00">autotop: hipp</text>
<text text-anchor="middle" x="1023" y="-103" font-family="sans" font-size="10.00">desc: laplace</text>
<text text-anchor="middle" x="1023" y="-92" font-family="sans" font-size="10.00">hemi: L</text>
</g>
<!-- 33&#45;&gt;157 -->
<g id="edge42" class="edge">
<title>33&#45;&gt;157</title>
<path fill="none" stroke="grey" stroke-width="2" d="M1063.64,-87.88C1066.75,-86.75 1069.89,-85.76 1073,-85 1281.17,-33.8 2789.07,-73.81 3002,-49 3004.34,-48.73 3006.72,-48.42 3009.11,-48.08"/>
<polygon fill="grey" stroke="grey" stroke-width="2" points="3009.66,-51.54 3019.01,-46.56 3008.6,-44.62 3009.66,-51.54"/>
</g>
<!-- 36 -->
<g id="node27" class="node">
<title>36</title>
<path fill="none" stroke="#d86e56" stroke-width="2" d="M1192,-131.5C1192,-131.5 1094,-131.5 1094,-131.5 1088,-131.5 1082,-125.5 1082,-119.5 1082,-119.5 1082,-102.5 1082,-102.5 1082,-96.5 1088,-90.5 1094,-90.5 1094,-90.5 1192,-90.5 1192,-90.5 1198,-90.5 1204,-96.5 1204,-102.5 1204,-102.5 1204,-119.5 1204,-119.5 1204,-125.5 1198,-131.5 1192,-131.5"/>
<text text-anchor="middle" x="1143" y="-119.5" font-family="sans" font-size="10.00">unflip_coords_equivol</text>
<text text-anchor="middle" x="1143" y="-108.5" font-family="sans" font-size="10.00">desc: equivol</text>
<text text-anchor="middle" x="1143" y="-97.5" font-family="sans" font-size="10.00">hemi: L</text>
</g>
<!-- 36&#45;&gt;170 -->
<g id="edge43" class="edge">
<title>36&#45;&gt;170</title>
<path fill="none" stroke="grey" stroke-width="2" d="M1191.4,-90.44C1198.54,-88.23 1205.89,-86.3 1213,-85 1643.51,-6.37 2747.3,-99.58 3182,-49 3184.34,-48.73 3186.72,-48.42 3189.11,-48.09"/>
<polygon fill="grey" stroke="grey" stroke-width="2" points="3189.66,-51.54 3199.01,-46.56 3188.6,-44.62 3189.66,-51.54"/>
</g>
<!-- 65 -->
<g id="node28" class="node">
<title>65</title>
<path fill="none" stroke="#d88d56" stroke-width="2" d="M368,-129C368,-129 276,-129 276,-129 270,-129 264,-123 264,-117 264,-117 264,-105 264,-105 264,-99 270,-93 276,-93 276,-93 368,-93 368,-93 374,-93 380,-99 380,-105 380,-105 380,-117 380,-117 380,-123 374,-129 368,-129"/>
<text text-anchor="middle" x="322" y="-108.5" font-family="sans" font-size="10.00">laplace_coords_hipp</text>
</g>
<!-- 65&#45;&gt;154 -->
<g id="edge44" class="edge">
<title>65&#45;&gt;154</title>
<path fill="none" stroke="grey" stroke-width="2" d="M361.05,-92.93C370.06,-89.7 379.73,-86.77 389,-85 759.77,-14.05 1707.48,-92.16 2100.64,-49"/>
<polygon fill="grey" stroke="grey" stroke-width="2" points="2101.14,-52.46 2110.68,-47.85 2100.35,-45.51 2101.14,-52.46"/>
</g>
<!-- 73 -->
<g id="node29" class="node">
<title>73</title>
<path fill="none" stroke="#d88d56" stroke-width="2" d="M104,-129C104,-129 12,-129 12,-129 6,-129 0,-123 0,-117 0,-117 0,-105 0,-105 0,-99 6,-93 12,-93 12,-93 104,-93 104,-93 110,-93 116,-99 116,-105 116,-105 116,-117 116,-117 116,-123 110,-129 104,-129"/>
<text text-anchor="middle" x="58" y="-108.5" font-family="sans" font-size="10.00">laplace_coords_hipp</text>
</g>
<!-- 73&#45;&gt;158 -->
<g id="edge45" class="edge">
<title>73&#45;&gt;158</title>
<path fill="none" stroke="grey" stroke-width="2" d="M97.42,-92.88C106.33,-89.69 115.86,-86.8 125,-85 283.54,-53.72 1409.83,-35.47 1740.77,-30.74"/>
<polygon fill="grey" stroke="grey" stroke-width="2" points="1740.85,-34.24 1750.8,-30.6 1740.75,-27.24 1740.85,-34.24"/>
</g>
<!-- 75 -->
<g id="node30" class="node">
<title>75</title>
<path fill="none" stroke="#5682d8" stroke-width="2" d="M234,-129C234,-129 146,-129 146,-129 140,-129 134,-123 134,-117 134,-117 134,-105 134,-105 134,-99 140,-93 146,-93 146,-93 234,-93 234,-93 240,-93 246,-99 246,-105 246,-105 246,-117 246,-117 246,-123 240,-129 234,-129"/>
<text text-anchor="middle" x="190" y="-108.5" font-family="sans" font-size="10.00">equivolume_coords</text>
</g>
<!-- 75&#45;&gt;171 -->
<g id="edge46" class="edge">
<title>75&#45;&gt;171</title>
<path fill="none" stroke="grey" stroke-width="2" d="M227.84,-92.93C236.59,-89.7 245.98,-86.77 255,-85 615.36,-14.06 1537.62,-91.05 1920.62,-49"/>
<polygon fill="grey" stroke="grey" stroke-width="2" points="1921.14,-52.46 1930.68,-47.85 1920.35,-45.51 1921.14,-52.46"/>
</g>
<!-- 108 -->
<g id="node31" class="node">
<title>108</title>
<path fill="none" stroke="#78d856" stroke-width="2" d="M1308,-137C1308,-137 1234,-137 1234,-137 1228,-137 1222,-131 1222,-125 1222,-125 1222,-97 1222,-97 1222,-91 1228,-85 1234,-85 1234,-85 1308,-85 1308,-85 1314,-85 1320,-91 1320,-97 1320,-97 1320,-125 1320,-125 1320,-131 1314,-137 1308,-137"/>
<text text-anchor="middle" x="1271" y="-125" font-family="sans" font-size="10.00">unflip_coords</text>
<text text-anchor="middle" x="1271" y="-114" font-family="sans" font-size="10.00">autotop: dentate</text>
<text text-anchor="middle" x="1271" y="-103" font-family="sans" font-size="10.00">desc: laplace</text>
<text text-anchor="middle" x="1271" y="-92" font-family="sans" font-size="10.00">hemi: L</text>
</g>
<!-- 108&#45;&gt;155 -->
<g id="edge47" class="edge">
<title>108&#45;&gt;155</title>
<path fill="none" stroke="grey" stroke-width="2" d="M1320.25,-87.27C1323.18,-86.39 1326.11,-85.62 1329,-85 1549.85,-37.39 3137.58,-75.04 3362,-49 3364.34,-48.73 3366.72,-48.42 3369.11,-48.09"/>
<polygon fill="grey" stroke="grey" stroke-width="2" points="3369.66,-51.54 3379.01,-46.56 3368.6,-44.63 3369.66,-51.54"/>
</g>
<!-- 111 -->
<g id="node32" class="node">
<title>111</title>
<path fill="none" stroke="#78d856" stroke-width="2" d="M1424,-137C1424,-137 1350,-137 1350,-137 1344,-137 1338,-131 1338,-125 1338,-125 1338,-97 1338,-97 1338,-91 1344,-85 1350,-85 1350,-85 1424,-85 1424,-85 1430,-85 1436,-91 1436,-97 1436,-97 1436,-125 1436,-125 1436,-131 1430,-137 1424,-137"/>
<text text-anchor="middle" x="1387" y="-125" font-family="sans" font-size="10.00">unflip_coords</text>
<text text-anchor="middle" x="1387" y="-114" font-family="sans" font-size="10.00">autotop: dentate</text>
<text text-anchor="middle" x="1387" y="-103" font-family="sans" font-size="10.00">desc: laplace</text>
<text text-anchor="middle" x="1387" y="-92" font-family="sans" font-size="10.00">hemi: L</text>
</g>
<!-- 111&#45;&gt;159 -->
<g id="edge48" class="edge">
<title>111&#45;&gt;159</title>
<path fill="none" stroke="grey" stroke-width="2" d="M1436.25,-87.27C1439.18,-86.39 1442.11,-85.62 1445,-85 1672.81,-35.95 3310.51,-75.8 3542,-49 3544.34,-48.73 3546.72,-48.42 3549.11,-48.09"/>
<polygon fill="grey" stroke="grey" stroke-width="2" points="3549.66,-51.55 3559.01,-46.57 3548.6,-44.63 3549.66,-51.55"/>
</g>
<!-- 114 -->
<g id="node33" class="node">
<title>114</title>
<path fill="none" stroke="#78d856" stroke-width="2" d="M1540,-137C1540,-137 1466,-137 1466,-137 1460,-137 1454,-131 1454,-125 1454,-125 1454,-97 1454,-97 1454,-91 1460,-85 1466,-85 1466,-85 1540,-85 1540,-85 1546,-85 1552,-91 1552,-97 1552,-97 1552,-125 1552,-125 1552,-131 1546,-137 1540,-137"/>
<text text-anchor="middle" x="1503" y="-125" font-family="sans" font-size="10.00">unflip_coords</text>
<text text-anchor="middle" x="1503" y="-114" font-family="sans" font-size="10.00">autotop: dentate</text>
<text text-anchor="middle" x="1503" y="-103" font-family="sans" font-size="10.00">desc: laplace</text>
<text text-anchor="middle" x="1503" y="-92" font-family="sans" font-size="10.00">hemi: L</text>
</g>
<!-- 114&#45;&gt;168 -->
<g id="edge49" class="edge">
<title>114&#45;&gt;168</title>
<path fill="none" stroke="grey" stroke-width="2" d="M1552.25,-87.27C1555.18,-86.39 1558.11,-85.62 1561,-85 1795.78,-34.51 3483.44,-76.56 3722,-49 3724.35,-48.73 3726.72,-48.42 3729.11,-48.09"/>
<polygon fill="grey" stroke="grey" stroke-width="2" points="3729.66,-51.55 3739.01,-46.57 3728.6,-44.63 3729.66,-51.55"/>
</g>
<!-- 129 -->
<g id="node34" class="node">
<title>129</title>
<path fill="none" stroke="#97d856" stroke-width="2" d="M518,-129C518,-129 410,-129 410,-129 404,-129 398,-123 398,-117 398,-117 398,-105 398,-105 398,-99 404,-93 410,-93 410,-93 518,-93 518,-93 524,-93 530,-99 530,-105 530,-105 530,-117 530,-117 530,-123 524,-129 518,-129"/>
<text text-anchor="middle" x="464" y="-108.5" font-family="sans" font-size="10.00">laplace_coords_dentate</text>
</g>
<!-- 129&#45;&gt;156 -->
<g id="edge50" class="edge">
<title>129&#45;&gt;156</title>
<path fill="none" stroke="grey" stroke-width="2" d="M507.85,-92.94C517.94,-89.7 528.72,-86.78 539,-85 917.49,-19.56 1880.59,-92.95 2280.47,-49.02"/>
<polygon fill="grey" stroke="grey" stroke-width="2" points="2281.14,-52.46 2290.68,-47.85 2280.35,-45.51 2281.14,-52.46"/>
</g>
<!-- 131 -->
<g id="node35" class="node">
<title>131</title>
<path fill="none" stroke="#97d856" stroke-width="2" d="M668,-129C668,-129 560,-129 560,-129 554,-129 548,-123 548,-117 548,-117 548,-105 548,-105 548,-99 554,-93 560,-93 560,-93 668,-93 668,-93 674,-93 680,-99 680,-105 680,-105 680,-117 680,-117 680,-123 674,-129 668,-129"/>
<text text-anchor="middle" x="614" y="-108.5" font-family="sans" font-size="10.00">laplace_coords_dentate</text>
</g>
<!-- 131&#45;&gt;160 -->
<g id="edge51" class="edge">
<title>131&#45;&gt;160</title>
<path fill="none" stroke="grey" stroke-width="2" d="M657.85,-92.93C667.94,-89.7 678.72,-86.78 689,-85 1074.11,-18.49 2054.16,-93.67 2460.6,-49"/>
<polygon fill="grey" stroke="grey" stroke-width="2" points="2461.14,-52.46 2470.68,-47.85 2460.35,-45.51 2461.14,-52.46"/>
</g>
<!-- 133 -->
<g id="node36" class="node">
<title>133</title>
<path fill="none" stroke="#97d856" stroke-width="2" d="M952,-129C952,-129 844,-129 844,-129 838,-129 832,-123 832,-117 832,-117 832,-105 832,-105 832,-99 838,-93 844,-93 844,-93 952,-93 952,-93 958,-93 964,-99 964,-105 964,-105 964,-117 964,-117 964,-123 958,-129 952,-129"/>
<text text-anchor="middle" x="898" y="-108.5" font-family="sans" font-size="10.00">laplace_coords_dentate</text>
</g>
<!-- 133&#45;&gt;169 -->
<g id="edge52" class="edge">
<title>133&#45;&gt;169</title>
<path fill="none" stroke="grey" stroke-width="2" d="M941.85,-92.93C951.93,-89.69 962.72,-86.77 973,-85 1374.74,-15.79 2397.17,-95.43 2820.49,-49.01"/>
<polygon fill="grey" stroke="grey" stroke-width="2" points="2821.14,-52.46 2830.68,-47.86 2820.35,-45.51 2821.14,-52.46"/>
</g>
<!-- 143 -->
<g id="node37" class="node">
<title>143</title>
<path fill="none" stroke="#566bd8" stroke-width="2" d="M5665,-129C5665,-129 5483,-129 5483,-129 5477,-129 5471,-123 5471,-117 5471,-117 5471,-105 5471,-105 5471,-99 5477,-93 5483,-93 5483,-93 5665,-93 5665,-93 5671,-93 5677,-99 5677,-105 5677,-105 5677,-117 5677,-117 5677,-123 5671,-129 5665,-129"/>
<text text-anchor="middle" x="5574" y="-108.5" font-family="sans" font-size="10.00">combine_tissue_subfield_labels_corobl</text>
</g>
<!-- 143&#45;&gt;142 -->
<g id="edge53" class="edge">
<title>143&#45;&gt;142</title>
<path fill="none" stroke="grey" stroke-width="2" d="M5504.37,-92.94C5490.4,-89.95 5475.78,-87.12 5462,-85 5276.38,-56.48 5227.89,-67.4 5041,-49 5015.62,-46.5 4988.2,-43.56 4962.76,-40.73"/>
<polygon fill="grey" stroke="grey" stroke-width="2" points="4963.07,-37.24 4952.74,-39.61 4962.29,-44.2 4963.07,-37.24"/>
</g>
<!-- 143&#45;&gt;147 -->
<g id="edge54" class="edge">
<title>143&#45;&gt;147</title>
<path fill="none" stroke="grey" stroke-width="2" d="M5526.71,-92.93C5491.97,-80.39 5444.61,-63.29 5407.82,-50.01"/>
<polygon fill="grey" stroke="grey" stroke-width="2" points="5408.82,-46.65 5398.22,-46.55 5406.44,-53.23 5408.82,-46.65"/>
</g>
<!-- 149 -->
<g id="node38" class="node">
<title>149</title>
<path fill="none" stroke="#566bd8" stroke-width="2" d="M5301,-129C5301,-129 5119,-129 5119,-129 5113,-129 5107,-123 5107,-117 5107,-117 5107,-105 5107,-105 5107,-99 5113,-93 5119,-93 5119,-93 5301,-93 5301,-93 5307,-93 5313,-99 5313,-105 5313,-105 5313,-117 5313,-117 5313,-123 5307,-129 5301,-129"/>
<text text-anchor="middle" x="5210" y="-108.5" font-family="sans" font-size="10.00">combine_tissue_subfield_labels_corobl</text>
</g>
<!-- 149&#45;&gt;148 -->
<g id="edge56" class="edge">
<title>149&#45;&gt;148</title>
<path fill="none" stroke="grey" stroke-width="2" d="M5141.91,-92.94C5127.49,-89.85 5112.31,-86.98 5098,-85 4814.05,-45.64 4738.32,-85.63 4454,-49 4451.77,-48.71 4449.52,-48.4 4447.25,-48.08"/>
<polygon fill="grey" stroke="grey" stroke-width="2" points="4447.63,-44.59 4437.22,-46.52 4446.56,-51.51 4447.63,-44.59"/>
</g>
<!-- 149&#45;&gt;152 -->
<g id="edge57" class="edge">
<title>149&#45;&gt;152</title>
<path fill="none" stroke="grey" stroke-width="2" d="M5193.25,-92.93C5182.14,-81.61 5167.4,-66.6 5155.06,-54.01"/>
<polygon fill="grey" stroke="grey" stroke-width="2" points="5157.23,-51.23 5147.73,-46.55 5152.24,-56.14 5157.23,-51.23"/>
</g>
<!-- 162 -->
<g id="node39" class="node">
<title>162</title>
<path fill="none" stroke="#78d856" stroke-width="2" d="M1639.5,-137C1639.5,-137 1582.5,-137 1582.5,-137 1576.5,-137 1570.5,-131 1570.5,-125 1570.5,-125 1570.5,-97 1570.5,-97 1570.5,-91 1576.5,-85 1582.5,-85 1582.5,-85 1639.5,-85 1639.5,-85 1645.5,-85 1651.5,-91 1651.5,-97 1651.5,-97 1651.5,-125 1651.5,-125 1651.5,-131 1645.5,-137 1639.5,-137"/>
<text text-anchor="middle" x="1611" y="-125" font-family="sans" font-size="10.00">unflip_coords</text>
<text text-anchor="middle" x="1611" y="-114" font-family="sans" font-size="10.00">autotop: hipp</text>
<text text-anchor="middle" x="1611" y="-103" font-family="sans" font-size="10.00">desc: laplace</text>
<text text-anchor="middle" x="1611" y="-92" font-family="sans" font-size="10.00">hemi: L</text>
</g>
<!-- 162&#45;&gt;161 -->
<g id="edge59" class="edge">
<title>162&#45;&gt;161</title>
<path fill="none" stroke="grey" stroke-width="2" d="M1651.64,-87.57C1654.42,-86.57 1657.22,-85.69 1660,-85 1901.77,-24.83 3654.49,-77.52 3902,-49 3904.35,-48.73 3906.72,-48.43 3909.11,-48.09"/>
<polygon fill="grey" stroke="grey" stroke-width="2" points="3909.66,-51.55 3919.02,-46.57 3908.6,-44.63 3909.66,-51.55"/>
</g>
<!-- 166 -->
<g id="node40" class="node">
<title>166</title>
<path fill="none" stroke="#d88d56" stroke-width="2" d="M802,-129C802,-129 710,-129 710,-129 704,-129 698,-123 698,-117 698,-117 698,-105 698,-105 698,-99 704,-93 710,-93 710,-93 802,-93 802,-93 808,-93 814,-99 814,-105 814,-105 814,-117 814,-117 814,-123 808,-129 802,-129"/>
<text text-anchor="middle" x="756" y="-108.5" font-family="sans" font-size="10.00">laplace_coords_hipp</text>
</g>
<!-- 166&#45;&gt;165 -->
<g id="edge60" class="edge">
<title>166&#45;&gt;165</title>
<path fill="none" stroke="grey" stroke-width="2" d="M795.04,-92.92C804.06,-89.69 813.73,-86.77 823,-85 1216.94,-9.87 2224.04,-94.64 2640.65,-48.99"/>
<polygon fill="grey" stroke="grey" stroke-width="2" points="2641.14,-52.46 2650.68,-47.86 2640.35,-45.51 2641.14,-52.46"/>
</g>
</g>
</svg>
