<?xml version="1.0" encoding="UTF-8" standalone="no"?>
<!DOCTYPE svg PUBLIC "-//W3C//DTD SVG 1.1//EN"
 "http://www.w3.org/Graphics/SVG/1.1/DTD/svg11.dtd">
<!-- Generated by graphviz version 2.43.0 (0)
 -->
<!-- Pages: 1 -->
<svg width="1329pt" height="196pt"
 viewBox="0.00 0.00 1328.50 196.00" xmlns="http://www.w3.org/2000/svg" xmlns:xlink="http://www.w3.org/1999/xlink">
<g id="graph0" class="graph" transform="scale(1 1) rotate(0) translate(4 192)">
<polygon fill="white" stroke="transparent" points="-4,4 -4,-192 1324.5,-192 1324.5,4 -4,4"/>
<g id="clust1" class="cluster">
<title>cluster_0</title>
<polygon fill="white" stroke="blue" points="69.5,-8 69.5,-139 1027.5,-139 1027.5,-8 69.5,-8"/>
<text text-anchor="middle" x="548.5" y="-123.8" font-family="Times,serif" font-size="14.00">qc</text>
</g>
<!-- 184 -->
<g id="node1" class="node">
<title>184</title>
<path fill="none" stroke="#56d8d8" stroke-width="2" d="M293.5,-116C293.5,-116 195.5,-116 195.5,-116 189.5,-116 183.5,-110 183.5,-104 183.5,-104 183.5,-92 183.5,-92 183.5,-86 189.5,-80 195.5,-80 195.5,-80 293.5,-80 293.5,-80 299.5,-80 305.5,-86 305.5,-92 305.5,-92 305.5,-104 305.5,-104 305.5,-110 299.5,-116 293.5,-116"/>
<text text-anchor="middle" x="244.5" y="-101" font-family="sans" font-size="10.00">qc_reg_to_template</text>
<text text-anchor="middle" x="244.5" y="-90" font-family="sans" font-size="10.00">native_modality: T2w</text>
</g>
<!-- 185 -->
<g id="node2" class="node">
<title>185</title>
<path fill="none" stroke="#d8bc56" stroke-width="2" d="M743.5,-116C743.5,-116 675.5,-116 675.5,-116 669.5,-116 663.5,-110 663.5,-104 663.5,-104 663.5,-92 663.5,-92 663.5,-86 669.5,-80 675.5,-80 675.5,-80 743.5,-80 743.5,-80 749.5,-80 755.5,-86 755.5,-92 755.5,-92 755.5,-104 755.5,-104 755.5,-110 749.5,-116 743.5,-116"/>
<text text-anchor="middle" x="709.5" y="-101" font-family="sans" font-size="10.00">qc_subfield</text>
<text text-anchor="middle" x="709.5" y="-90" font-family="sans" font-size="10.00">space: cropT2w</text>
</g>
<!-- 186 -->
<g id="node3" class="node">
<title>186</title>
<path fill="none" stroke="#d8bc56" stroke-width="2" d="M1015.5,-116C1015.5,-116 947.5,-116 947.5,-116 941.5,-116 935.5,-110 935.5,-104 935.5,-104 935.5,-92 935.5,-92 935.5,-86 941.5,-80 947.5,-80 947.5,-80 1015.5,-80 1015.5,-80 1021.5,-80 1027.5,-86 1027.5,-92 1027.5,-92 1027.5,-104 1027.5,-104 1027.5,-110 1021.5,-116 1015.5,-116"/>
<text text-anchor="middle" x="981.5" y="-101" font-family="sans" font-size="10.00">qc_subfield</text>
<text text-anchor="middle" x="981.5" y="-90" font-family="sans" font-size="10.00">space: cropT2w</text>
</g>
<!-- 187 -->
<g id="node4" class="node">
<title>187</title>
<path fill="none" stroke="#5673d8" stroke-width="2" d="M153,-116C153,-116 82,-116 82,-116 76,-116 70,-110 70,-104 70,-104 70,-92 70,-92 70,-86 76,-80 82,-80 82,-80 153,-80 153,-80 159,-80 165,-86 165,-92 165,-92 165,-104 165,-104 165,-110 159,-116 153,-116"/>
<text text-anchor="middle" x="117.5" y="-101" font-family="sans" font-size="10.00">qc_subfield_surf</text>
<text text-anchor="middle" x="117.5" y="-90" font-family="sans" font-size="10.00">ref_spaces: T2w</text>
</g>
<!-- 188 -->
<g id="node5" class="node">
<title>188</title>
<path fill="none" stroke="#5673d8" stroke-width="2" d="M520,-116C520,-116 449,-116 449,-116 443,-116 437,-110 437,-104 437,-104 437,-92 437,-92 437,-86 443,-80 449,-80 449,-80 520,-80 520,-80 526,-80 532,-86 532,-92 532,-92 532,-104 532,-104 532,-110 526,-116 520,-116"/>
<text text-anchor="middle" x="484.5" y="-101" font-family="sans" font-size="10.00">qc_subfield_surf</text>
<text text-anchor="middle" x="484.5" y="-90" font-family="sans" font-size="10.00">ref_spaces: T2w</text>
</g>
<!-- 189 -->
<g id="node6" class="node">
<title>189</title>
<path fill="none" stroke="#5673d8" stroke-width="2" d="M407,-116C407,-116 336,-116 336,-116 330,-116 324,-110 324,-104 324,-104 324,-92 324,-92 324,-86 330,-80 336,-80 336,-80 407,-80 407,-80 413,-80 419,-86 419,-92 419,-92 419,-104 419,-104 419,-110 413,-116 407,-116"/>
<text text-anchor="middle" x="371.5" y="-101" font-family="sans" font-size="10.00">qc_subfield_surf</text>
<text text-anchor="middle" x="371.5" y="-90" font-family="sans" font-size="10.00">ref_spaces: T2w</text>
</g>
<!-- 190 -->
<g id="node7" class="node">
<title>190</title>
<path fill="none" stroke="#5673d8" stroke-width="2" d="M633,-116C633,-116 562,-116 562,-116 556,-116 550,-110 550,-104 550,-104 550,-92 550,-92 550,-86 556,-80 562,-80 562,-80 633,-80 633,-80 639,-80 645,-86 645,-92 645,-92 645,-104 645,-104 645,-110 639,-116 633,-116"/>
<text text-anchor="middle" x="597.5" y="-101" font-family="sans" font-size="10.00">qc_subfield_surf</text>
<text text-anchor="middle" x="597.5" y="-90" font-family="sans" font-size="10.00">ref_spaces: T2w</text>
</g>
<!-- 191 -->
<g id="node8" class="node">
<title>191</title>
<path fill="none" stroke="#d87d56" stroke-width="2" d="M888.5,-44C888.5,-44 802.5,-44 802.5,-44 796.5,-44 790.5,-38 790.5,-32 790.5,-32 790.5,-20 790.5,-20 790.5,-14 796.5,-8 802.5,-8 802.5,-8 888.5,-8 888.5,-8 894.5,-8 900.5,-14 900.5,-20 900.5,-20 900.5,-32 900.5,-32 900.5,-38 894.5,-44 888.5,-44"/>
<text text-anchor="middle" x="845.5" y="-23.5" font-family="sans" font-size="10.00">plot_subj_subfields</text>
</g>
<!-- 192 -->
<g id="node9" class="node">
<title>192</title>
<path fill="none" stroke="#9fd856" stroke-width="2" d="M905,-116C905,-116 786,-116 786,-116 780,-116 774,-110 774,-104 774,-104 774,-92 774,-92 774,-86 780,-80 786,-80 786,-80 905,-80 905,-80 911,-80 917,-86 917,-92 917,-92 917,-104 917,-104 917,-110 911,-116 905,-116"/>
<text text-anchor="middle" x="845.5" y="-101" font-family="sans" font-size="10.00">get_subfield_vols_subj</text>
<text text-anchor="middle" x="845.5" y="-90" font-family="sans" font-size="10.00">crop_ref_spaces: cropT2w</text>
</g>
<!-- 192&#45;&gt;191 -->
<g id="edge1" class="edge">
<title>192&#45;&gt;191</title>
<path fill="none" stroke="grey" stroke-width="2" d="M845.5,-79.7C845.5,-71.98 845.5,-62.71 845.5,-54.11"/>
<polygon fill="grey" stroke="grey" stroke-width="2" points="849,-54.1 845.5,-44.1 842,-54.1 849,-54.1"/>
</g>
<!-- 5 -->
<g id="node10" class="node">
<title>5</title>
<path fill="none" stroke="#56c1d8" stroke-width="2" d="M97,-188C97,-188 12,-188 12,-188 6,-188 0,-182 0,-176 0,-176 0,-164 0,-164 0,-158 6,-152 12,-152 12,-152 97,-152 97,-152 103,-152 109,-158 109,-164 109,-164 109,-176 109,-176 109,-182 103,-188 97,-188"/>
<text text-anchor="middle" x="54.5" y="-167.5" font-family="sans" font-size="10.00">warp_gii_to_native</text>
</g>
<!-- 5&#45;&gt;187 -->
<g id="edge2" class="edge">
<title>5&#45;&gt;187</title>
<path fill="none" stroke="grey" stroke-width="2" d="M70.07,-151.7C77.7,-143.22 87.02,-132.86 95.38,-123.58"/>
<polygon fill="grey" stroke="grey" stroke-width="2" points="98.02,-125.88 102.11,-116.1 92.81,-121.2 98.02,-125.88"/>
</g>
<!-- 28 -->
<g id="node11" class="node">
<title>28</title>
<path fill="none" stroke="#d89556" stroke-width="2" d="M227.5,-188C227.5,-188 139.5,-188 139.5,-188 133.5,-188 127.5,-182 127.5,-176 127.5,-176 127.5,-164 127.5,-164 127.5,-158 133.5,-152 139.5,-152 139.5,-152 227.5,-152 227.5,-152 233.5,-152 239.5,-158 239.5,-164 239.5,-164 239.5,-176 239.5,-176 239.5,-182 233.5,-188 227.5,-188"/>
<text text-anchor="middle" x="183.5" y="-167.5" font-family="sans" font-size="10.00">reg_t2_to_template</text>
</g>
<!-- 28&#45;&gt;184 -->
<g id="edge3" class="edge">
<title>28&#45;&gt;184</title>
<path fill="none" stroke="grey" stroke-width="2" d="M198.58,-151.7C205.89,-143.3 214.81,-133.07 222.84,-123.86"/>
<polygon fill="grey" stroke="grey" stroke-width="2" points="225.66,-125.94 229.59,-116.1 220.39,-121.34 225.66,-125.94"/>
</g>
<!-- 63 -->
<g id="node12" class="node">
<title>63</title>
<path fill="none" stroke="#56c1d8" stroke-width="2" d="M355,-188C355,-188 270,-188 270,-188 264,-188 258,-182 258,-176 258,-176 258,-164 258,-164 258,-158 264,-152 270,-152 270,-152 355,-152 355,-152 361,-152 367,-158 367,-164 367,-164 367,-176 367,-176 367,-182 361,-188 355,-188"/>
<text text-anchor="middle" x="312.5" y="-167.5" font-family="sans" font-size="10.00">warp_gii_to_native</text>
</g>
<!-- 63&#45;&gt;189 -->
<g id="edge4" class="edge">
<title>63&#45;&gt;189</title>
<path fill="none" stroke="grey" stroke-width="2" d="M327.08,-151.7C334.16,-143.3 342.78,-133.07 350.55,-123.86"/>
<polygon fill="grey" stroke="grey" stroke-width="2" points="353.31,-126.01 357.08,-116.1 347.96,-121.49 353.31,-126.01"/>
</g>
<!-- 104 -->
<g id="node13" class="node">
<title>104</title>
<path fill="none" stroke="#56c1d8" stroke-width="2" d="M482,-188C482,-188 397,-188 397,-188 391,-188 385,-182 385,-176 385,-176 385,-164 385,-164 385,-158 391,-152 397,-152 397,-152 482,-152 482,-152 488,-152 494,-158 494,-164 494,-164 494,-176 494,-176 494,-182 488,-188 482,-188"/>
<text text-anchor="middle" x="439.5" y="-167.5" font-family="sans" font-size="10.00">warp_gii_to_native</text>
</g>
<!-- 104&#45;&gt;188 -->
<g id="edge5" class="edge">
<title>104&#45;&gt;188</title>
<path fill="none" stroke="grey" stroke-width="2" d="M450.62,-151.7C455.86,-143.56 462.2,-133.69 467.98,-124.7"/>
<polygon fill="grey" stroke="grey" stroke-width="2" points="471.04,-126.41 473.5,-116.1 465.15,-122.62 471.04,-126.41"/>
</g>
<!-- 127 -->
<g id="node14" class="node">
<title>127</title>
<path fill="none" stroke="#56c1d8" stroke-width="2" d="M609,-188C609,-188 524,-188 524,-188 518,-188 512,-182 512,-176 512,-176 512,-164 512,-164 512,-158 518,-152 524,-152 524,-152 609,-152 609,-152 615,-152 621,-158 621,-164 621,-164 621,-176 621,-176 621,-182 615,-188 609,-188"/>
<text text-anchor="middle" x="566.5" y="-167.5" font-family="sans" font-size="10.00">warp_gii_to_native</text>
</g>
<!-- 127&#45;&gt;190 -->
<g id="edge6" class="edge">
<title>127&#45;&gt;190</title>
<path fill="none" stroke="grey" stroke-width="2" d="M574.16,-151.7C577.69,-143.73 581.96,-134.1 585.87,-125.26"/>
<polygon fill="grey" stroke="grey" stroke-width="2" points="589.08,-126.67 589.93,-116.1 582.68,-123.83 589.08,-126.67"/>
</g>
<!-- 144 -->
<g id="node15" class="node">
<title>144</title>
<path fill="none" stroke="#56d8d0" stroke-width="2" d="M959,-188C959,-188 810,-188 810,-188 804,-188 798,-182 798,-176 798,-176 798,-164 798,-164 798,-158 804,-152 810,-152 810,-152 959,-152 959,-152 965,-152 971,-158 971,-164 971,-164 971,-176 971,-176 971,-182 965,-188 959,-188"/>
<text text-anchor="middle" x="884.5" y="-167.5" font-family="sans" font-size="10.00">resample_subfields_native_crop</text>
</g>
<!-- 144&#45;&gt;185 -->
<g id="edge7" class="edge">
<title>144&#45;&gt;185</title>
<path fill="none" stroke="grey" stroke-width="2" d="M799.17,-152C787.27,-148.39 775.4,-144.09 764.5,-139 755.03,-134.58 745.54,-128.43 737.17,-122.29"/>
<polygon fill="grey" stroke="grey" stroke-width="2" points="739.28,-119.5 729.21,-116.2 735.03,-125.06 739.28,-119.5"/>
</g>
<!-- 144&#45;&gt;192 -->
<g id="edge8" class="edge">
<title>144&#45;&gt;192</title>
<path fill="none" stroke="grey" stroke-width="2" d="M874.86,-151.7C870.37,-143.64 864.94,-133.89 859.98,-124.98"/>
<polygon fill="grey" stroke="grey" stroke-width="2" points="862.95,-123.14 855.03,-116.1 856.84,-126.54 862.95,-123.14"/>
</g>
<!-- 150 -->
<g id="node16" class="node">
<title>150</title>
<path fill="none" stroke="#56d8d0" stroke-width="2" d="M1150,-188C1150,-188 1001,-188 1001,-188 995,-188 989,-182 989,-176 989,-176 989,-164 989,-164 989,-158 995,-152 1001,-152 1001,-152 1150,-152 1150,-152 1156,-152 1162,-158 1162,-164 1162,-164 1162,-176 1162,-176 1162,-182 1156,-188 1150,-188"/>
<text text-anchor="middle" x="1075.5" y="-167.5" font-family="sans" font-size="10.00">resample_subfields_native_crop</text>
</g>
<!-- 150&#45;&gt;186 -->
<g id="edge9" class="edge">
<title>150&#45;&gt;186</title>
<path fill="none" stroke="grey" stroke-width="2" d="M1052.26,-151.7C1040.31,-142.8 1025.58,-131.82 1012.65,-122.2"/>
<polygon fill="grey" stroke="grey" stroke-width="2" points="1014.58,-119.27 1004.47,-116.1 1010.4,-124.88 1014.58,-119.27"/>
</g>
<!-- 150&#45;&gt;192 -->
<g id="edge10" class="edge">
<title>150&#45;&gt;192</title>
<path fill="none" stroke="grey" stroke-width="2" d="M988.88,-153.52C963.19,-148.49 938.68,-143.15 926.5,-139 912.41,-134.19 897.62,-127.45 884.6,-120.87"/>
<polygon fill="grey" stroke="grey" stroke-width="2" points="885.96,-117.63 875.47,-116.13 882.73,-123.84 885.96,-117.63"/>
</g>
<!-- 182 -->
<g id="node17" class="node">
<title>182</title>
<path fill="none" stroke="#56d8b9" stroke-width="2" d="M767.5,-188C767.5,-188 651.5,-188 651.5,-188 645.5,-188 639.5,-182 639.5,-176 639.5,-176 639.5,-164 639.5,-164 639.5,-158 645.5,-152 651.5,-152 651.5,-152 767.5,-152 767.5,-152 773.5,-152 779.5,-158 779.5,-164 779.5,-164 779.5,-176 779.5,-176 779.5,-182 773.5,-188 767.5,-188"/>
<text text-anchor="middle" x="709.5" y="-167.5" font-family="sans" font-size="10.00">resample_native_to_crop</text>
</g>
<!-- 182&#45;&gt;185 -->
<g id="edge11" class="edge">
<title>182&#45;&gt;185</title>
<path fill="none" stroke="grey" stroke-width="2" d="M709.5,-151.7C709.5,-143.98 709.5,-134.71 709.5,-126.11"/>
<polygon fill="grey" stroke="grey" stroke-width="2" points="713,-126.1 709.5,-116.1 706,-126.1 713,-126.1"/>
</g>
<!-- 183 -->
<g id="node18" class="node">
<title>183</title>
<path fill="none" stroke="#56d8b9" stroke-width="2" d="M1308.5,-188C1308.5,-188 1192.5,-188 1192.5,-188 1186.5,-188 1180.5,-182 1180.5,-176 1180.5,-176 1180.5,-164 1180.5,-164 1180.5,-158 1186.5,-152 1192.5,-152 1192.5,-152 1308.5,-152 1308.5,-152 1314.5,-152 1320.5,-158 1320.5,-164 1320.5,-164 1320.5,-176 1320.5,-176 1320.5,-182 1314.5,-188 1308.5,-188"/>
<text text-anchor="middle" x="1250.5" y="-167.5" font-family="sans" font-size="10.00">resample_native_to_crop</text>
</g>
<!-- 183&#45;&gt;186 -->
<g id="edge12" class="edge">
<title>183&#45;&gt;186</title>
<path fill="none" stroke="grey" stroke-width="2" d="M1185.04,-151.97C1139.88,-140.21 1080.47,-124.76 1037.51,-113.57"/>
<polygon fill="grey" stroke="grey" stroke-width="2" points="1038.34,-110.17 1027.78,-111.04 1036.58,-116.95 1038.34,-110.17"/>
</g>
</g>
</svg>
