<?xml version="1.0" encoding="UTF-8" standalone="no"?>
<!DOCTYPE svg PUBLIC "-//W3C//DTD SVG 1.1//EN"
 "http://www.w3.org/Graphics/SVG/1.1/DTD/svg11.dtd">
<!-- Generated by graphviz version 2.43.0 (0)
 -->
<!-- Pages: 1 -->
<svg width="333pt" height="188pt"
 viewBox="0.00 0.00 333.00 188.00" xmlns="http://www.w3.org/2000/svg" xmlns:xlink="http://www.w3.org/1999/xlink">
<g id="graph0" class="graph" transform="scale(1 1) rotate(0) translate(4 184)">
<polygon fill="white" stroke="transparent" points="-4,4 -4,-184 329,-184 329,4 -4,4"/>
<g id="clust1" class="cluster">
<title>cluster_0</title>
<polygon fill="white" stroke="blue" points="8,-72 8,-131 317,-131 317,-72 8,-72"/>
<text text-anchor="middle" x="162.5" y="-115.8" font-family="Times,serif" font-size="14.00">preproc_t1</text>
</g>
<!-- 27 -->
<g id="node1" class="node">
<title>27</title>
<path fill="none" stroke="#566bd8" stroke-width="2" d="M305.5,-108C305.5,-108 162.5,-108 162.5,-108 156.5,-108 150.5,-102 150.5,-96 150.5,-96 150.5,-84 150.5,-84 150.5,-78 156.5,-72 162.5,-72 162.5,-72 305.5,-72 305.5,-72 311.5,-72 317.5,-78 317.5,-84 317.5,-84 317.5,-96 317.5,-96 317.5,-102 311.5,-108 305.5,-108"/>
<text text-anchor="middle" x="234" y="-93" font-family="sans" font-size="10.00">convert_template_xfm_ras2itk</text>
<text text-anchor="middle" x="234" y="-82" font-family="sans" font-size="10.00">reg_suffix: T2w</text>
</g>
<!-- 26 -->
<g id="node3" class="node">
<title>26</title>
<path fill="none" stroke="#56d87b" stroke-width="2" d="M208,-36C208,-36 96,-36 96,-36 90,-36 84,-30 84,-24 84,-24 84,-12 84,-12 84,-6 90,0 96,0 96,0 208,0 208,0 214,0 220,-6 220,-12 220,-12 220,-24 220,-24 220,-30 214,-36 208,-36"/>
<text text-anchor="middle" x="152" y="-15.5" font-family="sans" font-size="10.00">compose_t2_xfm_corobl</text>
</g>
<!-- 27&#45;&gt;26 -->
<g id="edge2" class="edge">
<title>27&#45;&gt;26</title>
<path fill="none" stroke="grey" stroke-width="2" d="M213.73,-71.7C203.5,-62.97 190.94,-52.24 179.82,-42.75"/>
<polygon fill="grey" stroke="grey" stroke-width="2" points="181.91,-39.94 172.04,-36.1 177.37,-45.26 181.91,-39.94"/>
</g>
<!-- 44 -->
<g id="node2" class="node">
<title>44</title>
<path fill="none" stroke="#97d856" stroke-width="2" d="M120.5,-108C120.5,-108 19.5,-108 19.5,-108 13.5,-108 7.5,-102 7.5,-96 7.5,-96 7.5,-84 7.5,-84 7.5,-78 13.5,-72 19.5,-72 19.5,-72 120.5,-72 120.5,-72 126.5,-72 132.5,-78 132.5,-84 132.5,-84 132.5,-96 132.5,-96 132.5,-102 126.5,-108 120.5,-108"/>
<text text-anchor="middle" x="70" y="-93" font-family="sans" font-size="10.00">template_xfm_itk2ras</text>
<text text-anchor="middle" x="70" y="-82" font-family="sans" font-size="10.00">native_modality: T2w</text>
</g>
<!-- 26&#45;&gt;44 -->
<g id="edge1" class="edge">
<title>26&#45;&gt;44</title>
<path fill="none" stroke="grey" stroke-width="2" d="M131.96,-36.1C121.77,-44.8 109.21,-55.52 98.08,-65.03"/>
<polygon fill="grey" stroke="grey" stroke-width="2" points="95.6,-62.54 90.27,-71.7 100.15,-67.87 95.6,-62.54"/>
</g>
<!-- 28 -->
<g id="node4" class="node">
<title>28</title>
<path fill="none" stroke="#d89556" stroke-width="2" d="M278,-180C278,-180 190,-180 190,-180 184,-180 178,-174 178,-168 178,-168 178,-156 178,-156 178,-150 184,-144 190,-144 190,-144 278,-144 278,-144 284,-144 290,-150 290,-156 290,-156 290,-168 290,-168 290,-174 284,-180 278,-180"/>
<text text-anchor="middle" x="234" y="-159.5" font-family="sans" font-size="10.00">reg_t2_to_template</text>
</g>
<!-- 28&#45;&gt;27 -->
<g id="edge3" class="edge">
<title>28&#45;&gt;27</title>
<path fill="none" stroke="grey" stroke-width="2" d="M234,-143.7C234,-135.98 234,-126.71 234,-118.11"/>
<polygon fill="grey" stroke="grey" stroke-width="2" points="237.5,-118.1 234,-108.1 230.5,-118.1 237.5,-118.1"/>
</g>
</g>
</svg>
