<?xml version="1.0" encoding="UTF-8" standalone="no"?>
<!DOCTYPE svg PUBLIC "-//W3C//DTD SVG 1.1//EN"
 "http://www.w3.org/Graphics/SVG/1.1/DTD/svg11.dtd">
<!-- Generated by graphviz version 2.43.0 (0)
 -->
<!-- Pages: 1 -->
<svg width="468pt" height="515pt"
 viewBox="0.00 0.00 468.00 515.00" xmlns="http://www.w3.org/2000/svg" xmlns:xlink="http://www.w3.org/1999/xlink">
<g id="graph0" class="graph" transform="scale(1 1) rotate(0) translate(4 511)">
<polygon fill="white" stroke="transparent" points="-4,4 -4,-511 464,-511 464,4 -4,4"/>
<g id="clust1" class="cluster">
<title>cluster_0</title>
<polygon fill="white" stroke="blue" points="8,-8 8,-499 290,-499 290,-8 8,-8"/>
<text text-anchor="middle" x="149" y="-483.8" font-family="Times,serif" font-size="14.00">preproc_t2</text>
</g>
<!-- 17 -->
<g id="node1" class="node">
<title>17</title>
<path fill="none" stroke="#59d856" stroke-width="2" d="M103,-44C103,-44 45,-44 45,-44 39,-44 33,-38 33,-32 33,-32 33,-20 33,-20 33,-14 39,-8 45,-8 45,-8 103,-8 103,-8 109,-8 115,-14 115,-20 115,-20 115,-32 115,-32 115,-38 109,-44 103,-44"/>
<text text-anchor="middle" x="74" y="-29" font-family="sans" font-size="10.00">lr_flip_t2</text>
<text text-anchor="middle" x="74" y="-18" font-family="sans" font-size="10.00">desc: preproc</text>
</g>
<!-- 18 -->
<g id="node2" class="node">
<title>18</title>
<path fill="none" stroke="#56b1d8" stroke-width="2" d="M128,-116C128,-116 20,-116 20,-116 14,-116 8,-110 8,-104 8,-104 8,-92 8,-92 8,-86 14,-80 20,-80 20,-80 128,-80 128,-80 134,-80 140,-86 140,-92 140,-92 140,-104 140,-104 140,-110 134,-116 128,-116"/>
<text text-anchor="middle" x="74" y="-101" font-family="sans" font-size="10.00">warp_t2_to_corobl_crop</text>
<text text-anchor="middle" x="74" y="-90" font-family="sans" font-size="10.00">hemi: L</text>
</g>
<!-- 18&#45;&gt;17 -->
<g id="edge1" class="edge">
<title>18&#45;&gt;17</title>
<path fill="none" stroke="grey" stroke-width="2" d="M74,-79.7C74,-71.98 74,-62.71 74,-54.11"/>
<polygon fill="grey" stroke="grey" stroke-width="2" points="77.5,-54.1 74,-44.1 70.5,-54.1 77.5,-54.1"/>
</g>
<!-- 19 -->
<g id="node3" class="node">
<title>19</title>
<path fill="none" stroke="#56a9d8" stroke-width="2" d="M184,-332C184,-332 86,-332 86,-332 80,-332 74,-326 74,-320 74,-320 74,-308 74,-308 74,-302 80,-296 86,-296 86,-296 184,-296 184,-296 190,-296 196,-302 196,-308 196,-308 196,-320 196,-320 196,-326 190,-332 184,-332"/>
<text text-anchor="middle" x="135" y="-311.5" font-family="sans" font-size="10.00">avg_aligned_or_cp_t2</text>
</g>
<!-- 19&#45;&gt;18 -->
<g id="edge2" class="edge">
<title>19&#45;&gt;18</title>
<path fill="none" stroke="grey" stroke-width="2" d="M130.11,-295.85C119.54,-258.75 94.47,-170.81 81.73,-126.1"/>
<polygon fill="grey" stroke="grey" stroke-width="2" points="85.02,-124.89 78.91,-116.23 78.29,-126.81 85.02,-124.89"/>
</g>
<!-- 23 -->
<g id="node4" class="node">
<title>23</title>
<path fill="none" stroke="#5663d8" stroke-width="2" d="M248.5,-260C248.5,-260 195.5,-260 195.5,-260 189.5,-260 183.5,-254 183.5,-248 183.5,-248 183.5,-236 183.5,-236 183.5,-230 189.5,-224 195.5,-224 195.5,-224 248.5,-224 248.5,-224 254.5,-224 260.5,-230 260.5,-236 260.5,-236 260.5,-248 260.5,-248 260.5,-254 254.5,-260 248.5,-260"/>
<text text-anchor="middle" x="222" y="-239.5" font-family="sans" font-size="10.00">reg_t2_to_t1</text>
</g>
<!-- 19&#45;&gt;23 -->
<g id="edge3" class="edge">
<title>19&#45;&gt;23</title>
<path fill="none" stroke="grey" stroke-width="2" d="M156.51,-295.7C167.46,-286.88 180.95,-276.03 192.82,-266.47"/>
<polygon fill="grey" stroke="grey" stroke-width="2" points="195.14,-269.1 200.74,-260.1 190.76,-263.65 195.14,-269.1"/>
</g>
<!-- 69 -->
<g id="node5" class="node">
<title>69</title>
<path fill="none" stroke="#56b1d8" stroke-width="2" d="M278,-116C278,-116 170,-116 170,-116 164,-116 158,-110 158,-104 158,-104 158,-92 158,-92 158,-86 164,-80 170,-80 170,-80 278,-80 278,-80 284,-80 290,-86 290,-92 290,-92 290,-104 290,-104 290,-110 284,-116 278,-116"/>
<text text-anchor="middle" x="224" y="-101" font-family="sans" font-size="10.00">warp_t2_to_corobl_crop</text>
<text text-anchor="middle" x="224" y="-90" font-family="sans" font-size="10.00">hemi: R</text>
</g>
<!-- 19&#45;&gt;69 -->
<g id="edge4" class="edge">
<title>19&#45;&gt;69</title>
<path fill="none" stroke="grey" stroke-width="2" d="M131.37,-295.62C125.84,-264.48 118.52,-198.15 145,-152 152.14,-139.55 163.54,-129.45 175.48,-121.53"/>
<polygon fill="grey" stroke="grey" stroke-width="2" points="177.54,-124.37 184.22,-116.15 173.87,-118.41 177.54,-124.37"/>
</g>
<!-- 22 -->
<g id="node8" class="node">
<title>22</title>
<path fill="none" stroke="#56d87b" stroke-width="2" d="M278,-188C278,-188 166,-188 166,-188 160,-188 154,-182 154,-176 154,-176 154,-164 154,-164 154,-158 160,-152 166,-152 166,-152 278,-152 278,-152 284,-152 290,-158 290,-164 290,-164 290,-176 290,-176 290,-182 284,-188 278,-188"/>
<text text-anchor="middle" x="222" y="-167.5" font-family="sans" font-size="10.00">compose_t2_xfm_corobl</text>
</g>
<!-- 23&#45;&gt;22 -->
<g id="edge9" class="edge">
<title>23&#45;&gt;22</title>
<path fill="none" stroke="grey" stroke-width="2" d="M222,-223.7C222,-215.98 222,-206.71 222,-198.11"/>
<polygon fill="grey" stroke="grey" stroke-width="2" points="225.5,-198.1 222,-188.1 218.5,-198.1 225.5,-198.1"/>
</g>
<!-- 20 -->
<g id="node6" class="node">
<title>20</title>
<path fill="none" stroke="#afd856" stroke-width="2" d="M150,-404C150,-404 120,-404 120,-404 114,-404 108,-398 108,-392 108,-392 108,-380 108,-380 108,-374 114,-368 120,-368 120,-368 150,-368 150,-368 156,-368 162,-374 162,-380 162,-380 162,-392 162,-392 162,-398 156,-404 150,-404"/>
<text text-anchor="middle" x="135" y="-383.5" font-family="sans" font-size="10.00">n4_t2</text>
</g>
<!-- 20&#45;&gt;19 -->
<g id="edge5" class="edge">
<title>20&#45;&gt;19</title>
<path fill="none" stroke="grey" stroke-width="2" d="M135,-367.7C135,-359.98 135,-350.71 135,-342.11"/>
<polygon fill="grey" stroke="grey" stroke-width="2" points="138.5,-342.1 135,-332.1 131.5,-342.1 138.5,-342.1"/>
</g>
<!-- 21 -->
<g id="node7" class="node">
<title>21</title>
<path fill="none" stroke="#56d8d0" stroke-width="2" d="M161,-476C161,-476 109,-476 109,-476 103,-476 97,-470 97,-464 97,-464 97,-452 97,-452 97,-446 103,-440 109,-440 109,-440 161,-440 161,-440 167,-440 173,-446 173,-452 173,-452 173,-464 173,-464 173,-470 167,-476 161,-476"/>
<text text-anchor="middle" x="135" y="-461" font-family="sans" font-size="10.00">import_t2</text>
<text text-anchor="middle" x="135" y="-450" font-family="sans" font-size="10.00">subject: 001</text>
</g>
<!-- 21&#45;&gt;20 -->
<g id="edge6" class="edge">
<title>21&#45;&gt;20</title>
<path fill="none" stroke="grey" stroke-width="2" d="M135,-439.7C135,-431.98 135,-422.71 135,-414.11"/>
<polygon fill="grey" stroke="grey" stroke-width="2" points="138.5,-414.1 135,-404.1 131.5,-414.1 138.5,-414.1"/>
</g>
<!-- 22&#45;&gt;18 -->
<g id="edge7" class="edge">
<title>22&#45;&gt;18</title>
<path fill="none" stroke="grey" stroke-width="2" d="M185.8,-151.88C165.74,-142.39 140.63,-130.51 119.29,-120.42"/>
<polygon fill="grey" stroke="grey" stroke-width="2" points="120.62,-117.18 110.09,-116.07 117.63,-123.51 120.62,-117.18"/>
</g>
<!-- 22&#45;&gt;69 -->
<g id="edge8" class="edge">
<title>22&#45;&gt;69</title>
<path fill="none" stroke="grey" stroke-width="2" d="M222.49,-151.7C222.71,-143.98 222.98,-134.71 223.23,-126.11"/>
<polygon fill="grey" stroke="grey" stroke-width="2" points="226.72,-126.2 223.51,-116.1 219.73,-126 226.72,-126.2"/>
</g>
<!-- 24 -->
<g id="node9" class="node">
<title>24</title>
<path fill="none" stroke="#d85656" stroke-width="2" d="M332,-332C332,-332 302,-332 302,-332 296,-332 290,-326 290,-320 290,-320 290,-308 290,-308 290,-302 296,-296 302,-296 302,-296 332,-296 332,-296 338,-296 344,-302 344,-308 344,-308 344,-320 344,-320 344,-326 338,-332 332,-332"/>
<text text-anchor="middle" x="317" y="-311.5" font-family="sans" font-size="10.00">n4_t1</text>
</g>
<!-- 24&#45;&gt;23 -->
<g id="edge10" class="edge">
<title>24&#45;&gt;23</title>
<path fill="none" stroke="grey" stroke-width="2" d="M293.52,-295.7C281.44,-286.8 266.55,-275.82 253.48,-266.2"/>
<polygon fill="grey" stroke="grey" stroke-width="2" points="255.34,-263.22 245.21,-260.1 251.19,-268.85 255.34,-263.22"/>
</g>
<!-- 26 -->
<g id="node10" class="node">
<title>26</title>
<path fill="none" stroke="#5692d8" stroke-width="2" d="M448,-260C448,-260 302,-260 302,-260 296,-260 290,-254 290,-248 290,-248 290,-236 290,-236 290,-230 296,-224 302,-224 302,-224 448,-224 448,-224 454,-224 460,-230 460,-236 460,-236 460,-248 460,-248 460,-254 454,-260 448,-260"/>
<text text-anchor="middle" x="375" y="-239.5" font-family="sans" font-size="10.00">compose_template_xfm_corobl</text>
</g>
<!-- 26&#45;&gt;22 -->
<g id="edge11" class="edge">
<title>26&#45;&gt;22</title>
<path fill="none" stroke="grey" stroke-width="2" d="M337.57,-223.88C316.75,-214.35 290.65,-202.41 268.52,-192.28"/>
<polygon fill="grey" stroke="grey" stroke-width="2" points="269.86,-189.05 259.31,-188.07 266.94,-195.41 269.86,-189.05"/>
</g>
</g>
</svg>
