<?xml version="1.0" encoding="UTF-8" standalone="no"?>
<!DOCTYPE svg PUBLIC "-//W3C//DTD SVG 1.1//EN"
 "http://www.w3.org/Graphics/SVG/1.1/DTD/svg11.dtd">
<!-- Generated by graphviz version 2.43.0 (0)
 -->
<!-- Pages: 1 -->
<svg width="2814pt" height="817pt"
 viewBox="0.00 0.00 2814.01 817.00" xmlns="http://www.w3.org/2000/svg" xmlns:xlink="http://www.w3.org/1999/xlink">
<g id="graph0" class="graph" transform="scale(1 1) rotate(0) translate(4 813)">
<polygon fill="white" stroke="transparent" points="-4,4 -4,-813 2810.01,-813 2810.01,4 -4,4"/>
<g id="clust1" class="cluster">
<title>cluster_0</title>
<polygon fill="white" stroke="blue" points="303.51,-8 303.51,-801 2521.51,-801 2521.51,-8 303.51,-8"/>
<text text-anchor="middle" x="1412.51" y="-785.8" font-family="Times,serif" font-size="14.00">gifti</text>
</g>
<!-- 1 -->
<g id="node1" class="node">
<title>1</title>
<path fill="none" stroke="#70d856" stroke-width="2" d="M1068.51,-44C1068.51,-44 984.51,-44 984.51,-44 978.51,-44 972.51,-38 972.51,-32 972.51,-32 972.51,-20 972.51,-20 972.51,-14 978.51,-8 984.51,-8 984.51,-8 1068.51,-8 1068.51,-8 1074.51,-8 1080.51,-14 1080.51,-20 1080.51,-20 1080.51,-32 1080.51,-32 1080.51,-38 1074.51,-44 1068.51,-44"/>
<text text-anchor="middle" x="1026.51" y="-29" font-family="sans" font-size="10.00">merge_lr_spec_file</text>
<text text-anchor="middle" x="1026.51" y="-18" font-family="sans" font-size="10.00">autotop: hipp</text>
</g>
<!-- 2 -->
<g id="node2" class="node">
<title>2</title>
<path fill="none" stroke="#56d8b1" stroke-width="2" d="M1391.51,-116C1391.51,-116 1293.51,-116 1293.51,-116 1287.51,-116 1281.51,-110 1281.51,-104 1281.51,-104 1281.51,-92 1281.51,-92 1281.51,-86 1287.51,-80 1293.51,-80 1293.51,-80 1391.51,-80 1391.51,-80 1397.51,-80 1403.51,-86 1403.51,-92 1403.51,-92 1403.51,-104 1403.51,-104 1403.51,-110 1397.51,-116 1391.51,-116"/>
<text text-anchor="middle" x="1342.51" y="-101" font-family="sans" font-size="10.00">create_spec_file_hipp</text>
<text text-anchor="middle" x="1342.51" y="-90" font-family="sans" font-size="10.00">label: hipp</text>
</g>
<!-- 2&#45;&gt;1 -->
<g id="edge1" class="edge">
<title>2&#45;&gt;1</title>
<path fill="none" stroke="grey" stroke-width="2" d="M1281.21,-83.42C1226.38,-71.27 1146.31,-53.54 1090.63,-41.2"/>
<polygon fill="grey" stroke="grey" stroke-width="2" points="1091.05,-37.71 1080.53,-38.97 1089.54,-44.55 1091.05,-37.71"/>
</g>
<!-- 3 -->
<g id="node3" class="node">
<title>3</title>
<path fill="none" stroke="#566bd8" stroke-width="2" d="M1509.01,-267.5C1509.01,-267.5 1412.01,-267.5 1412.01,-267.5 1406.01,-267.5 1400.01,-261.5 1400.01,-255.5 1400.01,-255.5 1400.01,-243.5 1400.01,-243.5 1400.01,-237.5 1406.01,-231.5 1412.01,-231.5 1412.01,-231.5 1509.01,-231.5 1509.01,-231.5 1515.01,-231.5 1521.01,-237.5 1521.01,-243.5 1521.01,-243.5 1521.01,-255.5 1521.01,-255.5 1521.01,-261.5 1515.01,-267.5 1509.01,-267.5"/>
<text text-anchor="middle" x="1460.51" y="-247" font-family="sans" font-size="10.00">calculate_gyrification</text>
</g>
<!-- 3&#45;&gt;2 -->
<g id="edge2" class="edge">
<title>3&#45;&gt;2</title>
<path fill="none" stroke="grey" stroke-width="2" d="M1446.98,-231.35C1426.28,-205.13 1386.65,-154.92 1362.6,-124.45"/>
<polygon fill="grey" stroke="grey" stroke-width="2" points="1365.2,-122.09 1356.25,-116.41 1359.7,-126.43 1365.2,-122.09"/>
</g>
<!-- 60 -->
<g id="node4" class="node">
<title>60</title>
<path fill="none" stroke="#567bd8" stroke-width="2" d="M1065.51,-190.5C1065.51,-190.5 941.51,-190.5 941.51,-190.5 935.51,-190.5 929.51,-184.5 929.51,-178.5 929.51,-178.5 929.51,-166.5 929.51,-166.5 929.51,-160.5 935.51,-154.5 941.51,-154.5 941.51,-154.5 1065.51,-154.5 1065.51,-154.5 1071.51,-154.5 1077.51,-160.5 1077.51,-166.5 1077.51,-166.5 1077.51,-178.5 1077.51,-178.5 1077.51,-184.5 1071.51,-190.5 1065.51,-190.5"/>
<text text-anchor="middle" x="1003.51" y="-175.5" font-family="sans" font-size="10.00">create_dscalar_metric_cifti</text>
<text text-anchor="middle" x="1003.51" y="-164.5" font-family="sans" font-size="10.00">metric: gyrification</text>
</g>
<!-- 3&#45;&gt;60 -->
<g id="edge3" class="edge">
<title>3&#45;&gt;60</title>
<path fill="none" stroke="grey" stroke-width="2" d="M1401.85,-231.45C1398.03,-230.56 1394.22,-229.73 1390.51,-229 1257.03,-202.67 1220.51,-216.6 1086.51,-193 1085.59,-192.84 1084.66,-192.67 1083.72,-192.5"/>
<polygon fill="grey" stroke="grey" stroke-width="2" points="1084.07,-189 1073.59,-190.55 1082.74,-195.88 1084.07,-189"/>
</g>
<!-- 60&#45;&gt;2 -->
<g id="edge30" class="edge">
<title>60&#45;&gt;2</title>
<path fill="none" stroke="grey" stroke-width="2" d="M1075.47,-154.47C1079.2,-153.63 1082.9,-152.8 1086.51,-152 1148.83,-138.23 1219.93,-123.6 1271.36,-113.2"/>
<polygon fill="grey" stroke="grey" stroke-width="2" points="1272.27,-116.59 1281.38,-111.18 1270.88,-109.73 1272.27,-116.59"/>
</g>
<!-- 97 -->
<g id="node28" class="node">
<title>97</title>
<path fill="none" stroke="#56d8b1" stroke-width="2" d="M783.51,-116C783.51,-116 685.51,-116 685.51,-116 679.51,-116 673.51,-110 673.51,-104 673.51,-104 673.51,-92 673.51,-92 673.51,-86 679.51,-80 685.51,-80 685.51,-80 783.51,-80 783.51,-80 789.51,-80 795.51,-86 795.51,-92 795.51,-92 795.51,-104 795.51,-104 795.51,-110 789.51,-116 783.51,-116"/>
<text text-anchor="middle" x="734.51" y="-101" font-family="sans" font-size="10.00">create_spec_file_hipp</text>
<text text-anchor="middle" x="734.51" y="-90" font-family="sans" font-size="10.00">label: hipp</text>
</g>
<!-- 60&#45;&gt;97 -->
<g id="edge31" class="edge">
<title>60&#45;&gt;97</title>
<path fill="none" stroke="grey" stroke-width="2" d="M940.1,-154.41C899.7,-143.52 847.27,-129.39 805.48,-118.13"/>
<polygon fill="grey" stroke="grey" stroke-width="2" points="806.21,-114.7 795.64,-115.48 804.39,-121.46 806.21,-114.7"/>
</g>
<!-- 4 -->
<g id="node5" class="node">
<title>4</title>
<path fill="none" stroke="#56d89a" stroke-width="2" d="M1513.01,-342C1513.01,-342 1408.01,-342 1408.01,-342 1402.01,-342 1396.01,-336 1396.01,-330 1396.01,-330 1396.01,-318 1396.01,-318 1396.01,-312 1402.01,-306 1408.01,-306 1408.01,-306 1513.01,-306 1513.01,-306 1519.01,-306 1525.01,-312 1525.01,-318 1525.01,-318 1525.01,-330 1525.01,-330 1525.01,-336 1519.01,-342 1513.01,-342"/>
<text text-anchor="middle" x="1460.51" y="-327" font-family="sans" font-size="10.00">calculate_surface_area</text>
<text text-anchor="middle" x="1460.51" y="-316" font-family="sans" font-size="10.00">space: T2w</text>
</g>
<!-- 4&#45;&gt;3 -->
<g id="edge4" class="edge">
<title>4&#45;&gt;3</title>
<path fill="none" stroke="grey" stroke-width="2" d="M1460.51,-305.82C1460.51,-297.42 1460.51,-287.12 1460.51,-277.69"/>
<polygon fill="grey" stroke="grey" stroke-width="2" points="1464.01,-277.56 1460.51,-267.56 1457.01,-277.56 1464.01,-277.56"/>
</g>
<!-- 5 -->
<g id="node6" class="node">
<title>5</title>
<path fill="none" stroke="#56c1d8" stroke-width="2" d="M1503.01,-414C1503.01,-414 1418.01,-414 1418.01,-414 1412.01,-414 1406.01,-408 1406.01,-402 1406.01,-402 1406.01,-390 1406.01,-390 1406.01,-384 1412.01,-378 1418.01,-378 1418.01,-378 1503.01,-378 1503.01,-378 1509.01,-378 1515.01,-384 1515.01,-390 1515.01,-390 1515.01,-402 1515.01,-402 1515.01,-408 1509.01,-414 1503.01,-414"/>
<text text-anchor="middle" x="1460.51" y="-393.5" font-family="sans" font-size="10.00">warp_gii_to_native</text>
</g>
<!-- 5&#45;&gt;2 -->
<g id="edge5" class="edge">
<title>5&#45;&gt;2</title>
<path fill="none" stroke="grey" stroke-width="2" d="M1515.43,-389.95C1559.28,-383.89 1620.9,-370.66 1667.51,-342 1716.49,-311.88 1764.1,-275.67 1730.51,-229 1658.19,-128.5 1504.51,-104.59 1413.77,-99.56"/>
<polygon fill="grey" stroke="grey" stroke-width="2" points="1413.73,-96.06 1403.57,-99.06 1413.38,-103.05 1413.73,-96.06"/>
</g>
<!-- 5&#45;&gt;4 -->
<g id="edge6" class="edge">
<title>5&#45;&gt;4</title>
<path fill="none" stroke="grey" stroke-width="2" d="M1460.51,-377.7C1460.51,-369.98 1460.51,-360.71 1460.51,-352.11"/>
<polygon fill="grey" stroke="grey" stroke-width="2" points="1464.01,-352.1 1460.51,-342.1 1457.01,-352.1 1464.01,-352.1"/>
</g>
<!-- 46 -->
<g id="node7" class="node">
<title>46</title>
<path fill="none" stroke="#59d856" stroke-width="2" d="M1646.01,-342C1646.01,-342 1575.01,-342 1575.01,-342 1569.01,-342 1563.01,-336 1563.01,-330 1563.01,-330 1563.01,-318 1563.01,-318 1563.01,-312 1569.01,-306 1575.01,-306 1575.01,-306 1646.01,-306 1646.01,-306 1652.01,-306 1658.01,-312 1658.01,-318 1658.01,-318 1658.01,-330 1658.01,-330 1658.01,-336 1652.01,-342 1646.01,-342"/>
<text text-anchor="middle" x="1610.51" y="-327" font-family="sans" font-size="10.00">smooth_surface</text>
<text text-anchor="middle" x="1610.51" y="-316" font-family="sans" font-size="10.00">space: T2w</text>
</g>
<!-- 5&#45;&gt;46 -->
<g id="edge7" class="edge">
<title>5&#45;&gt;46</title>
<path fill="none" stroke="grey" stroke-width="2" d="M1497.21,-377.88C1517.53,-368.39 1542.98,-356.51 1564.61,-346.42"/>
<polygon fill="grey" stroke="grey" stroke-width="2" points="1566.36,-349.47 1573.94,-342.07 1563.39,-343.13 1566.36,-349.47"/>
</g>
<!-- 45 -->
<g id="node12" class="node">
<title>45</title>
<path fill="none" stroke="#56d863" stroke-width="2" d="M1709.51,-267.5C1709.51,-267.5 1551.51,-267.5 1551.51,-267.5 1545.51,-267.5 1539.51,-261.5 1539.51,-255.5 1539.51,-255.5 1539.51,-243.5 1539.51,-243.5 1539.51,-237.5 1545.51,-231.5 1551.51,-231.5 1551.51,-231.5 1709.51,-231.5 1709.51,-231.5 1715.51,-231.5 1721.51,-237.5 1721.51,-243.5 1721.51,-243.5 1721.51,-255.5 1721.51,-255.5 1721.51,-261.5 1715.51,-267.5 1709.51,-267.5"/>
<text text-anchor="middle" x="1630.51" y="-247" font-family="sans" font-size="10.00">calculate_curvature_from_surface</text>
</g>
<!-- 46&#45;&gt;45 -->
<g id="edge15" class="edge">
<title>46&#45;&gt;45</title>
<path fill="none" stroke="grey" stroke-width="2" d="M1615.25,-305.82C1617.59,-297.33 1620.47,-286.89 1623.1,-277.38"/>
<polygon fill="grey" stroke="grey" stroke-width="2" points="1626.52,-278.13 1625.81,-267.56 1619.77,-276.27 1626.52,-278.13"/>
</g>
<!-- 6 -->
<g id="node8" class="node">
<title>6</title>
<path fill="none" stroke="#56d85b" stroke-width="2" d="M1422.51,-486C1422.51,-486 1328.51,-486 1328.51,-486 1322.51,-486 1316.51,-480 1316.51,-474 1316.51,-474 1316.51,-462 1316.51,-462 1316.51,-456 1322.51,-450 1328.51,-450 1328.51,-450 1422.51,-450 1422.51,-450 1428.51,-450 1434.51,-456 1434.51,-462 1434.51,-462 1434.51,-474 1434.51,-474 1434.51,-480 1428.51,-486 1422.51,-486"/>
<text text-anchor="middle" x="1375.51" y="-465.5" font-family="sans" font-size="10.00">correct_nan_vertices</text>
</g>
<!-- 6&#45;&gt;5 -->
<g id="edge8" class="edge">
<title>6&#45;&gt;5</title>
<path fill="none" stroke="grey" stroke-width="2" d="M1396.52,-449.7C1407.23,-440.88 1420.4,-430.03 1432.01,-420.47"/>
<polygon fill="grey" stroke="grey" stroke-width="2" points="1434.25,-423.16 1439.74,-414.1 1429.8,-417.76 1434.25,-423.16"/>
</g>
<!-- 7 -->
<g id="node9" class="node">
<title>7</title>
<path fill="none" stroke="#56d86b" stroke-width="2" d="M1387.01,-558C1387.01,-558 1280.01,-558 1280.01,-558 1274.01,-558 1268.01,-552 1268.01,-546 1268.01,-546 1268.01,-534 1268.01,-534 1268.01,-528 1274.01,-522 1280.01,-522 1280.01,-522 1387.01,-522 1387.01,-522 1393.01,-522 1399.01,-528 1399.01,-534 1399.01,-534 1399.01,-546 1399.01,-546 1399.01,-552 1393.01,-558 1387.01,-558"/>
<text text-anchor="middle" x="1333.51" y="-537.5" font-family="sans" font-size="10.00">warp_gii_unfold2native</text>
</g>
<!-- 7&#45;&gt;6 -->
<g id="edge9" class="edge">
<title>7&#45;&gt;6</title>
<path fill="none" stroke="grey" stroke-width="2" d="M1343.89,-521.7C1348.78,-513.56 1354.7,-503.69 1360.09,-494.7"/>
<polygon fill="grey" stroke="grey" stroke-width="2" points="1363.11,-496.48 1365.25,-486.1 1357.1,-492.88 1363.11,-496.48"/>
</g>
<!-- 42 -->
<g id="node10" class="node">
<title>42</title>
<path fill="none" stroke="#68d856" stroke-width="2" d="M1386.51,-649C1386.51,-649 1280.51,-649 1280.51,-649 1274.51,-649 1268.51,-643 1268.51,-637 1268.51,-637 1268.51,-625 1268.51,-625 1268.51,-619 1274.51,-613 1280.51,-613 1280.51,-613 1386.51,-613 1386.51,-613 1392.51,-613 1398.51,-619 1398.51,-625 1398.51,-625 1398.51,-637 1398.51,-637 1398.51,-643 1392.51,-649 1386.51,-649"/>
<text text-anchor="middle" x="1333.51" y="-628.5" font-family="sans" font-size="10.00">constrain_surf_to_bbox</text>
</g>
<!-- 42&#45;&gt;7 -->
<g id="edge10" class="edge">
<title>42&#45;&gt;7</title>
<path fill="none" stroke="grey" stroke-width="2" d="M1333.51,-612.84C1333.51,-600.28 1333.51,-582.98 1333.51,-568.5"/>
<polygon fill="grey" stroke="grey" stroke-width="2" points="1337.01,-568.11 1333.51,-558.11 1330.01,-568.11 1337.01,-568.11"/>
</g>
<!-- 43 -->
<g id="node11" class="node">
<title>43</title>
<path fill="none" stroke="#b6d856" stroke-width="2" d="M1601.51,-778C1601.51,-778 1491.51,-778 1491.51,-778 1485.51,-778 1479.51,-772 1479.51,-766 1479.51,-766 1479.51,-716 1479.51,-716 1479.51,-710 1485.51,-704 1491.51,-704 1491.51,-704 1601.51,-704 1601.51,-704 1607.51,-704 1613.51,-710 1613.51,-716 1613.51,-716 1613.51,-766 1613.51,-766 1613.51,-772 1607.51,-778 1601.51,-778"/>
<text text-anchor="middle" x="1546.51" y="-766" font-family="sans" font-size="10.00">cp_template_to_unfold</text>
<text text-anchor="middle" x="1546.51" y="-755" font-family="sans" font-size="10.00">autotop: hipp</text>
<text text-anchor="middle" x="1546.51" y="-744" font-family="sans" font-size="10.00">density: 0p5mm</text>
<text text-anchor="middle" x="1546.51" y="-733" font-family="sans" font-size="10.00">hemi: L</text>
<text text-anchor="middle" x="1546.51" y="-722" font-family="sans" font-size="10.00">subject: 001</text>
<text text-anchor="middle" x="1546.51" y="-711" font-family="sans" font-size="10.00">surfname: midthickness</text>
</g>
<!-- 43&#45;&gt;2 -->
<g id="edge11" class="edge">
<title>43&#45;&gt;2</title>
<path fill="none" stroke="grey" stroke-width="2" d="M1613.64,-711.58C1676.39,-679.97 1760.51,-622.43 1760.51,-541 1760.51,-541 1760.51,-541 1760.51,-248.5 1760.51,-189.85 1722.25,-179.61 1670.51,-152 1627.22,-128.89 1496.57,-113.09 1413.82,-105.09"/>
<polygon fill="grey" stroke="grey" stroke-width="2" points="1414.01,-101.59 1403.73,-104.13 1413.35,-108.56 1414.01,-101.59"/>
</g>
<!-- 43&#45;&gt;42 -->
<g id="edge12" class="edge">
<title>43&#45;&gt;42</title>
<path fill="none" stroke="grey" stroke-width="2" d="M1479.41,-705.98C1445.74,-688.9 1405.95,-668.73 1376.44,-653.77"/>
<polygon fill="grey" stroke="grey" stroke-width="2" points="1377.74,-650.5 1367.24,-649.1 1374.58,-656.75 1377.74,-650.5"/>
</g>
<!-- 45&#45;&gt;2 -->
<g id="edge13" class="edge">
<title>45&#45;&gt;2</title>
<path fill="none" stroke="grey" stroke-width="2" d="M1597.75,-231.5C1545.28,-204.25 1442.4,-150.85 1384.56,-120.83"/>
<polygon fill="grey" stroke="grey" stroke-width="2" points="1386.17,-117.72 1375.68,-116.22 1382.94,-123.93 1386.17,-117.72"/>
</g>
<!-- 82 -->
<g id="node13" class="node">
<title>82</title>
<path fill="none" stroke="#567bd8" stroke-width="2" d="M1231.51,-190.5C1231.51,-190.5 1107.51,-190.5 1107.51,-190.5 1101.51,-190.5 1095.51,-184.5 1095.51,-178.5 1095.51,-178.5 1095.51,-166.5 1095.51,-166.5 1095.51,-160.5 1101.51,-154.5 1107.51,-154.5 1107.51,-154.5 1231.51,-154.5 1231.51,-154.5 1237.51,-154.5 1243.51,-160.5 1243.51,-166.5 1243.51,-166.5 1243.51,-178.5 1243.51,-178.5 1243.51,-184.5 1237.51,-190.5 1231.51,-190.5"/>
<text text-anchor="middle" x="1169.51" y="-175.5" font-family="sans" font-size="10.00">create_dscalar_metric_cifti</text>
<text text-anchor="middle" x="1169.51" y="-164.5" font-family="sans" font-size="10.00">metric: curvature</text>
</g>
<!-- 45&#45;&gt;82 -->
<g id="edge14" class="edge">
<title>45&#45;&gt;82</title>
<path fill="none" stroke="grey" stroke-width="2" d="M1545.2,-231.49C1540.24,-230.62 1535.31,-229.78 1530.51,-229 1407.97,-209.11 1375.68,-215.06 1253.51,-193 1252.61,-192.84 1251.7,-192.67 1250.79,-192.5"/>
<polygon fill="grey" stroke="grey" stroke-width="2" points="1251.38,-189.05 1240.9,-190.58 1250.05,-195.92 1251.38,-189.05"/>
</g>
<!-- 82&#45;&gt;2 -->
<g id="edge43" class="edge">
<title>82&#45;&gt;2</title>
<path fill="none" stroke="grey" stroke-width="2" d="M1210.51,-154.32C1235.07,-144.03 1266.48,-130.87 1292.49,-119.96"/>
<polygon fill="grey" stroke="grey" stroke-width="2" points="1293.94,-123.15 1301.81,-116.06 1291.23,-116.7 1293.94,-123.15"/>
</g>
<!-- 82&#45;&gt;97 -->
<g id="edge44" class="edge">
<title>82&#45;&gt;97</title>
<path fill="none" stroke="grey" stroke-width="2" d="M1098.51,-154.42C1094.46,-153.57 1090.44,-152.76 1086.51,-152 989.92,-133.41 877.36,-117.45 806.03,-108.03"/>
<polygon fill="grey" stroke="grey" stroke-width="2" points="806.19,-104.52 795.82,-106.69 805.27,-111.46 806.19,-104.52"/>
</g>
<!-- 47 -->
<g id="node14" class="node">
<title>47</title>
<path fill="none" stroke="#9fd856" stroke-width="2" d="M1369.51,-267.5C1369.51,-267.5 1211.51,-267.5 1211.51,-267.5 1205.51,-267.5 1199.51,-261.5 1199.51,-255.5 1199.51,-255.5 1199.51,-243.5 1199.51,-243.5 1199.51,-237.5 1205.51,-231.5 1211.51,-231.5 1211.51,-231.5 1369.51,-231.5 1369.51,-231.5 1375.51,-231.5 1381.51,-237.5 1381.51,-243.5 1381.51,-243.5 1381.51,-255.5 1381.51,-255.5 1381.51,-261.5 1375.51,-267.5 1369.51,-267.5"/>
<text text-anchor="middle" x="1290.51" y="-252.5" font-family="sans" font-size="10.00">calculate_thickness_from_surface</text>
<text text-anchor="middle" x="1290.51" y="-241.5" font-family="sans" font-size="10.00">space: T2w</text>
</g>
<!-- 47&#45;&gt;2 -->
<g id="edge16" class="edge">
<title>47&#45;&gt;2</title>
<path fill="none" stroke="grey" stroke-width="2" d="M1327.33,-231.3C1342.36,-222.2 1358.15,-209.46 1366.51,-193 1377.46,-171.45 1368.59,-144.52 1358.68,-125.01"/>
<polygon fill="grey" stroke="grey" stroke-width="2" points="1361.68,-123.2 1353.82,-116.09 1355.53,-126.55 1361.68,-123.2"/>
</g>
<!-- 85 -->
<g id="node15" class="node">
<title>85</title>
<path fill="none" stroke="#567bd8" stroke-width="2" d="M899.51,-190.5C899.51,-190.5 775.51,-190.5 775.51,-190.5 769.51,-190.5 763.51,-184.5 763.51,-178.5 763.51,-178.5 763.51,-166.5 763.51,-166.5 763.51,-160.5 769.51,-154.5 775.51,-154.5 775.51,-154.5 899.51,-154.5 899.51,-154.5 905.51,-154.5 911.51,-160.5 911.51,-166.5 911.51,-166.5 911.51,-178.5 911.51,-178.5 911.51,-184.5 905.51,-190.5 899.51,-190.5"/>
<text text-anchor="middle" x="837.51" y="-175.5" font-family="sans" font-size="10.00">create_dscalar_metric_cifti</text>
<text text-anchor="middle" x="837.51" y="-164.5" font-family="sans" font-size="10.00">metric: thickness</text>
</g>
<!-- 47&#45;&gt;85 -->
<g id="edge17" class="edge">
<title>47&#45;&gt;85</title>
<path fill="none" stroke="grey" stroke-width="2" d="M1204.93,-231.46C1200.06,-230.6 1195.22,-229.77 1190.51,-229 1071.05,-209.41 1039.58,-214.87 920.51,-193 919.75,-192.86 918.98,-192.72 918.21,-192.57"/>
<polygon fill="grey" stroke="grey" stroke-width="2" points="918.54,-189.07 908.05,-190.57 917.18,-195.94 918.54,-189.07"/>
</g>
<!-- 85&#45;&gt;2 -->
<g id="edge48" class="edge">
<title>85&#45;&gt;2</title>
<path fill="none" stroke="grey" stroke-width="2" d="M907.59,-154.49C911.95,-153.6 916.29,-152.76 920.51,-152 1043.07,-129.97 1187.29,-113.96 1271.45,-105.61"/>
<polygon fill="grey" stroke="grey" stroke-width="2" points="1271.8,-109.09 1281.41,-104.63 1271.11,-102.12 1271.8,-109.09"/>
</g>
<!-- 85&#45;&gt;97 -->
<g id="edge49" class="edge">
<title>85&#45;&gt;97</title>
<path fill="none" stroke="grey" stroke-width="2" d="M813.1,-154.32C799.38,-144.66 782.06,-132.47 767.18,-122"/>
<polygon fill="grey" stroke="grey" stroke-width="2" points="768.94,-118.95 758.75,-116.06 764.91,-124.68 768.94,-118.95"/>
</g>
<!-- 48 -->
<g id="node16" class="node">
<title>48</title>
<path fill="none" stroke="#56c1d8" stroke-width="2" d="M1061.01,-342C1061.01,-342 976.01,-342 976.01,-342 970.01,-342 964.01,-336 964.01,-330 964.01,-330 964.01,-318 964.01,-318 964.01,-312 970.01,-306 976.01,-306 976.01,-306 1061.01,-306 1061.01,-306 1067.01,-306 1073.01,-312 1073.01,-318 1073.01,-318 1073.01,-330 1073.01,-330 1073.01,-336 1067.01,-342 1061.01,-342"/>
<text text-anchor="middle" x="1018.51" y="-321.5" font-family="sans" font-size="10.00">warp_gii_to_native</text>
</g>
<!-- 48&#45;&gt;47 -->
<g id="edge18" class="edge">
<title>48&#45;&gt;47</title>
<path fill="none" stroke="grey" stroke-width="2" d="M1073.23,-308.42C1114.42,-297.44 1171.32,-282.27 1216.56,-270.21"/>
<polygon fill="grey" stroke="grey" stroke-width="2" points="1217.56,-273.57 1226.32,-267.61 1215.76,-266.8 1217.56,-273.57"/>
</g>
<!-- 49 -->
<g id="node17" class="node">
<title>49</title>
<path fill="none" stroke="#56d85b" stroke-width="2" d="M1035.51,-414C1035.51,-414 941.51,-414 941.51,-414 935.51,-414 929.51,-408 929.51,-402 929.51,-402 929.51,-390 929.51,-390 929.51,-384 935.51,-378 941.51,-378 941.51,-378 1035.51,-378 1035.51,-378 1041.51,-378 1047.51,-384 1047.51,-390 1047.51,-390 1047.51,-402 1047.51,-402 1047.51,-408 1041.51,-414 1035.51,-414"/>
<text text-anchor="middle" x="988.51" y="-393.5" font-family="sans" font-size="10.00">correct_nan_vertices</text>
</g>
<!-- 49&#45;&gt;48 -->
<g id="edge19" class="edge">
<title>49&#45;&gt;48</title>
<path fill="none" stroke="grey" stroke-width="2" d="M995.93,-377.7C999.31,-369.81 1003.38,-360.3 1007.13,-351.55"/>
<polygon fill="grey" stroke="grey" stroke-width="2" points="1010.46,-352.67 1011.18,-342.1 1004.03,-349.92 1010.46,-352.67"/>
</g>
<!-- 50 -->
<g id="node18" class="node">
<title>50</title>
<path fill="none" stroke="#56d86b" stroke-width="2" d="M1020.01,-486C1020.01,-486 913.01,-486 913.01,-486 907.01,-486 901.01,-480 901.01,-474 901.01,-474 901.01,-462 901.01,-462 901.01,-456 907.01,-450 913.01,-450 913.01,-450 1020.01,-450 1020.01,-450 1026.01,-450 1032.01,-456 1032.01,-462 1032.01,-462 1032.01,-474 1032.01,-474 1032.01,-480 1026.01,-486 1020.01,-486"/>
<text text-anchor="middle" x="966.51" y="-465.5" font-family="sans" font-size="10.00">warp_gii_unfold2native</text>
</g>
<!-- 50&#45;&gt;49 -->
<g id="edge20" class="edge">
<title>50&#45;&gt;49</title>
<path fill="none" stroke="grey" stroke-width="2" d="M971.95,-449.7C974.4,-441.9 977.35,-432.51 980.08,-423.83"/>
<polygon fill="grey" stroke="grey" stroke-width="2" points="983.48,-424.69 983.14,-414.1 976.8,-422.59 983.48,-424.69"/>
</g>
<!-- 51 -->
<g id="node19" class="node">
<title>51</title>
<path fill="none" stroke="#68d856" stroke-width="2" d="M1019.51,-558C1019.51,-558 913.51,-558 913.51,-558 907.51,-558 901.51,-552 901.51,-546 901.51,-546 901.51,-534 901.51,-534 901.51,-528 907.51,-522 913.51,-522 913.51,-522 1019.51,-522 1019.51,-522 1025.51,-522 1031.51,-528 1031.51,-534 1031.51,-534 1031.51,-546 1031.51,-546 1031.51,-552 1025.51,-558 1019.51,-558"/>
<text text-anchor="middle" x="966.51" y="-537.5" font-family="sans" font-size="10.00">constrain_surf_to_bbox</text>
</g>
<!-- 51&#45;&gt;50 -->
<g id="edge21" class="edge">
<title>51&#45;&gt;50</title>
<path fill="none" stroke="grey" stroke-width="2" d="M966.51,-521.7C966.51,-513.98 966.51,-504.71 966.51,-496.11"/>
<polygon fill="grey" stroke="grey" stroke-width="2" points="970.01,-496.1 966.51,-486.1 963.01,-496.1 970.01,-496.1"/>
</g>
<!-- 52 -->
<g id="node20" class="node">
<title>52</title>
<path fill="none" stroke="#b6d856" stroke-width="2" d="M1049.51,-668C1049.51,-668 945.51,-668 945.51,-668 939.51,-668 933.51,-662 933.51,-656 933.51,-656 933.51,-606 933.51,-606 933.51,-600 939.51,-594 945.51,-594 945.51,-594 1049.51,-594 1049.51,-594 1055.51,-594 1061.51,-600 1061.51,-606 1061.51,-606 1061.51,-656 1061.51,-656 1061.51,-662 1055.51,-668 1049.51,-668"/>
<text text-anchor="middle" x="997.51" y="-656" font-family="sans" font-size="10.00">cp_template_to_unfold</text>
<text text-anchor="middle" x="997.51" y="-645" font-family="sans" font-size="10.00">autotop: hipp</text>
<text text-anchor="middle" x="997.51" y="-634" font-family="sans" font-size="10.00">density: 0p5mm</text>
<text text-anchor="middle" x="997.51" y="-623" font-family="sans" font-size="10.00">hemi: L</text>
<text text-anchor="middle" x="997.51" y="-612" font-family="sans" font-size="10.00">subject: 001</text>
<text text-anchor="middle" x="997.51" y="-601" font-family="sans" font-size="10.00">surfname: inner</text>
</g>
<!-- 52&#45;&gt;51 -->
<g id="edge22" class="edge">
<title>52&#45;&gt;51</title>
<path fill="none" stroke="grey" stroke-width="2" d="M984.9,-593.8C981.85,-585.04 978.65,-575.84 975.78,-567.61"/>
<polygon fill="grey" stroke="grey" stroke-width="2" points="979.08,-566.45 972.49,-558.16 972.47,-568.75 979.08,-566.45"/>
</g>
<!-- 53 -->
<g id="node21" class="node">
<title>53</title>
<path fill="none" stroke="#56c1d8" stroke-width="2" d="M1188.01,-342C1188.01,-342 1103.01,-342 1103.01,-342 1097.01,-342 1091.01,-336 1091.01,-330 1091.01,-330 1091.01,-318 1091.01,-318 1091.01,-312 1097.01,-306 1103.01,-306 1103.01,-306 1188.01,-306 1188.01,-306 1194.01,-306 1200.01,-312 1200.01,-318 1200.01,-318 1200.01,-330 1200.01,-330 1200.01,-336 1194.01,-342 1188.01,-342"/>
<text text-anchor="middle" x="1145.51" y="-321.5" font-family="sans" font-size="10.00">warp_gii_to_native</text>
</g>
<!-- 53&#45;&gt;47 -->
<g id="edge23" class="edge">
<title>53&#45;&gt;47</title>
<path fill="none" stroke="grey" stroke-width="2" d="M1179.87,-305.82C1200.1,-295.71 1225.86,-282.83 1247.43,-272.04"/>
<polygon fill="grey" stroke="grey" stroke-width="2" points="1249.02,-275.16 1256.4,-267.56 1245.89,-268.9 1249.02,-275.16"/>
</g>
<!-- 54 -->
<g id="node22" class="node">
<title>54</title>
<path fill="none" stroke="#56d85b" stroke-width="2" d="M1184.51,-414C1184.51,-414 1090.51,-414 1090.51,-414 1084.51,-414 1078.51,-408 1078.51,-402 1078.51,-402 1078.51,-390 1078.51,-390 1078.51,-384 1084.51,-378 1090.51,-378 1090.51,-378 1184.51,-378 1184.51,-378 1190.51,-378 1196.51,-384 1196.51,-390 1196.51,-390 1196.51,-402 1196.51,-402 1196.51,-408 1190.51,-414 1184.51,-414"/>
<text text-anchor="middle" x="1137.51" y="-393.5" font-family="sans" font-size="10.00">correct_nan_vertices</text>
</g>
<!-- 54&#45;&gt;53 -->
<g id="edge24" class="edge">
<title>54&#45;&gt;53</title>
<path fill="none" stroke="grey" stroke-width="2" d="M1139.49,-377.7C1140.37,-369.98 1141.43,-360.71 1142.41,-352.11"/>
<polygon fill="grey" stroke="grey" stroke-width="2" points="1145.9,-352.44 1143.56,-342.1 1138.94,-351.64 1145.9,-352.44"/>
</g>
<!-- 55 -->
<g id="node23" class="node">
<title>55</title>
<path fill="none" stroke="#56d86b" stroke-width="2" d="M1183.01,-486C1183.01,-486 1076.01,-486 1076.01,-486 1070.01,-486 1064.01,-480 1064.01,-474 1064.01,-474 1064.01,-462 1064.01,-462 1064.01,-456 1070.01,-450 1076.01,-450 1076.01,-450 1183.01,-450 1183.01,-450 1189.01,-450 1195.01,-456 1195.01,-462 1195.01,-462 1195.01,-474 1195.01,-474 1195.01,-480 1189.01,-486 1183.01,-486"/>
<text text-anchor="middle" x="1129.51" y="-465.5" font-family="sans" font-size="10.00">warp_gii_unfold2native</text>
</g>
<!-- 55&#45;&gt;54 -->
<g id="edge25" class="edge">
<title>55&#45;&gt;54</title>
<path fill="none" stroke="grey" stroke-width="2" d="M1131.49,-449.7C1132.37,-441.98 1133.43,-432.71 1134.41,-424.11"/>
<polygon fill="grey" stroke="grey" stroke-width="2" points="1137.9,-424.44 1135.56,-414.1 1130.94,-423.64 1137.9,-424.44"/>
</g>
<!-- 56 -->
<g id="node24" class="node">
<title>56</title>
<path fill="none" stroke="#68d856" stroke-width="2" d="M1182.51,-558C1182.51,-558 1076.51,-558 1076.51,-558 1070.51,-558 1064.51,-552 1064.51,-546 1064.51,-546 1064.51,-534 1064.51,-534 1064.51,-528 1070.51,-522 1076.51,-522 1076.51,-522 1182.51,-522 1182.51,-522 1188.51,-522 1194.51,-528 1194.51,-534 1194.51,-534 1194.51,-546 1194.51,-546 1194.51,-552 1188.51,-558 1182.51,-558"/>
<text text-anchor="middle" x="1129.51" y="-537.5" font-family="sans" font-size="10.00">constrain_surf_to_bbox</text>
</g>
<!-- 56&#45;&gt;55 -->
<g id="edge26" class="edge">
<title>56&#45;&gt;55</title>
<path fill="none" stroke="grey" stroke-width="2" d="M1129.51,-521.7C1129.51,-513.98 1129.51,-504.71 1129.51,-496.11"/>
<polygon fill="grey" stroke="grey" stroke-width="2" points="1133.01,-496.1 1129.51,-486.1 1126.01,-496.1 1133.01,-496.1"/>
</g>
<!-- 57 -->
<g id="node25" class="node">
<title>57</title>
<path fill="none" stroke="#b6d856" stroke-width="2" d="M1195.51,-668C1195.51,-668 1091.51,-668 1091.51,-668 1085.51,-668 1079.51,-662 1079.51,-656 1079.51,-656 1079.51,-606 1079.51,-606 1079.51,-600 1085.51,-594 1091.51,-594 1091.51,-594 1195.51,-594 1195.51,-594 1201.51,-594 1207.51,-600 1207.51,-606 1207.51,-606 1207.51,-656 1207.51,-656 1207.51,-662 1201.51,-668 1195.51,-668"/>
<text text-anchor="middle" x="1143.51" y="-656" font-family="sans" font-size="10.00">cp_template_to_unfold</text>
<text text-anchor="middle" x="1143.51" y="-645" font-family="sans" font-size="10.00">autotop: hipp</text>
<text text-anchor="middle" x="1143.51" y="-634" font-family="sans" font-size="10.00">density: 0p5mm</text>
<text text-anchor="middle" x="1143.51" y="-623" font-family="sans" font-size="10.00">hemi: L</text>
<text text-anchor="middle" x="1143.51" y="-612" font-family="sans" font-size="10.00">subject: 001</text>
<text text-anchor="middle" x="1143.51" y="-601" font-family="sans" font-size="10.00">surfname: outer</text>
</g>
<!-- 57&#45;&gt;56 -->
<g id="edge27" class="edge">
<title>57&#45;&gt;56</title>
<path fill="none" stroke="grey" stroke-width="2" d="M1137.82,-593.8C1136.47,-585.23 1135.06,-576.24 1133.78,-568.16"/>
<polygon fill="grey" stroke="grey" stroke-width="2" points="1137.22,-567.49 1132.21,-558.16 1130.31,-568.58 1137.22,-567.49"/>
</g>
<!-- 58 -->
<g id="node26" class="node">
<title>58</title>
<path fill="none" stroke="#d86656" stroke-width="2" d="M1345.01,-193C1345.01,-193 1274.01,-193 1274.01,-193 1268.01,-193 1262.01,-187 1262.01,-181 1262.01,-181 1262.01,-164 1262.01,-164 1262.01,-158 1268.01,-152 1274.01,-152 1274.01,-152 1345.01,-152 1345.01,-152 1351.01,-152 1357.01,-158 1357.01,-164 1357.01,-164 1357.01,-181 1357.01,-181 1357.01,-187 1351.01,-193 1345.01,-193"/>
<text text-anchor="middle" x="1309.51" y="-181" font-family="sans" font-size="10.00">nii_to_label_gii</text>
<text text-anchor="middle" x="1309.51" y="-170" font-family="sans" font-size="10.00">density: 0p5mm</text>
<text text-anchor="middle" x="1309.51" y="-159" font-family="sans" font-size="10.00">space: T2w</text>
</g>
<!-- 58&#45;&gt;2 -->
<g id="edge28" class="edge">
<title>58&#45;&gt;2</title>
<path fill="none" stroke="grey" stroke-width="2" d="M1318.53,-151.69C1322.19,-143.65 1326.47,-134.24 1330.4,-125.61"/>
<polygon fill="grey" stroke="grey" stroke-width="2" points="1333.67,-126.87 1334.63,-116.32 1327.3,-123.97 1333.67,-126.87"/>
</g>
<!-- 59 -->
<g id="node27" class="node">
<title>59</title>
<path fill="none" stroke="#56d89a" stroke-width="2" d="M1169.51,-270C1169.51,-270 1053.51,-270 1053.51,-270 1047.51,-270 1041.51,-264 1041.51,-258 1041.51,-258 1041.51,-241 1041.51,-241 1041.51,-235 1047.51,-229 1053.51,-229 1053.51,-229 1169.51,-229 1169.51,-229 1175.51,-229 1181.51,-235 1181.51,-241 1181.51,-241 1181.51,-258 1181.51,-258 1181.51,-264 1175.51,-270 1169.51,-270"/>
<text text-anchor="middle" x="1111.51" y="-258" font-family="sans" font-size="10.00">resample_atlas_to_refvol</text>
<text text-anchor="middle" x="1111.51" y="-247" font-family="sans" font-size="10.00">atlas: bigbrain</text>
<text text-anchor="middle" x="1111.51" y="-236" font-family="sans" font-size="10.00">hemi: L</text>
</g>
<!-- 59&#45;&gt;58 -->
<g id="edge29" class="edge">
<title>59&#45;&gt;58</title>
<path fill="none" stroke="grey" stroke-width="2" d="M1163.02,-228.99C1190.38,-218.62 1224.1,-205.85 1252.28,-195.18"/>
<polygon fill="grey" stroke="grey" stroke-width="2" points="1253.89,-198.31 1262,-191.5 1251.41,-191.77 1253.89,-198.31"/>
</g>
<!-- 97&#45;&gt;1 -->
<g id="edge62" class="edge">
<title>97&#45;&gt;1</title>
<path fill="none" stroke="grey" stroke-width="2" d="M795.72,-82.33C844.54,-70.62 912.7,-54.28 962.29,-42.4"/>
<polygon fill="grey" stroke="grey" stroke-width="2" points="963.35,-45.74 972.26,-40 961.72,-38.93 963.35,-45.74"/>
</g>
<!-- 61 -->
<g id="node29" class="node">
<title>61</title>
<path fill="none" stroke="#566bd8" stroke-width="2" d="M1011.01,-267.5C1011.01,-267.5 914.01,-267.5 914.01,-267.5 908.01,-267.5 902.01,-261.5 902.01,-255.5 902.01,-255.5 902.01,-243.5 902.01,-243.5 902.01,-237.5 908.01,-231.5 914.01,-231.5 914.01,-231.5 1011.01,-231.5 1011.01,-231.5 1017.01,-231.5 1023.01,-237.5 1023.01,-243.5 1023.01,-243.5 1023.01,-255.5 1023.01,-255.5 1023.01,-261.5 1017.01,-267.5 1011.01,-267.5"/>
<text text-anchor="middle" x="962.51" y="-247" font-family="sans" font-size="10.00">calculate_gyrification</text>
</g>
<!-- 61&#45;&gt;60 -->
<g id="edge32" class="edge">
<title>61&#45;&gt;60</title>
<path fill="none" stroke="grey" stroke-width="2" d="M971.82,-231.48C976.97,-222.05 983.48,-210.14 989.26,-199.56"/>
<polygon fill="grey" stroke="grey" stroke-width="2" points="992.38,-201.16 994.1,-190.71 986.24,-197.81 992.38,-201.16"/>
</g>
<!-- 61&#45;&gt;97 -->
<g id="edge33" class="edge">
<title>61&#45;&gt;97</title>
<path fill="none" stroke="grey" stroke-width="2" d="M901.82,-231.53C898.67,-230.67 895.56,-229.82 892.51,-229 831.31,-212.49 798.3,-238.83 754.51,-193 745.48,-183.54 740.01,-150.41 737.12,-126.15"/>
<polygon fill="grey" stroke="grey" stroke-width="2" points="740.59,-125.62 736.01,-116.06 733.63,-126.39 740.59,-125.62"/>
</g>
<!-- 62 -->
<g id="node30" class="node">
<title>62</title>
<path fill="none" stroke="#56d89a" stroke-width="2" d="M934.01,-342C934.01,-342 829.01,-342 829.01,-342 823.01,-342 817.01,-336 817.01,-330 817.01,-330 817.01,-318 817.01,-318 817.01,-312 823.01,-306 829.01,-306 829.01,-306 934.01,-306 934.01,-306 940.01,-306 946.01,-312 946.01,-318 946.01,-318 946.01,-330 946.01,-330 946.01,-336 940.01,-342 934.01,-342"/>
<text text-anchor="middle" x="881.51" y="-327" font-family="sans" font-size="10.00">calculate_surface_area</text>
<text text-anchor="middle" x="881.51" y="-316" font-family="sans" font-size="10.00">space: T2w</text>
</g>
<!-- 62&#45;&gt;61 -->
<g id="edge34" class="edge">
<title>62&#45;&gt;61</title>
<path fill="none" stroke="grey" stroke-width="2" d="M900.71,-305.82C911.2,-296.43 924.36,-284.65 935.83,-274.38"/>
<polygon fill="grey" stroke="grey" stroke-width="2" points="938.34,-276.84 943.45,-267.56 933.67,-271.62 938.34,-276.84"/>
</g>
<!-- 63 -->
<g id="node31" class="node">
<title>63</title>
<path fill="none" stroke="#56c1d8" stroke-width="2" d="M796.01,-414C796.01,-414 711.01,-414 711.01,-414 705.01,-414 699.01,-408 699.01,-402 699.01,-402 699.01,-390 699.01,-390 699.01,-384 705.01,-378 711.01,-378 711.01,-378 796.01,-378 796.01,-378 802.01,-378 808.01,-384 808.01,-390 808.01,-390 808.01,-402 808.01,-402 808.01,-408 802.01,-414 796.01,-414"/>
<text text-anchor="middle" x="753.51" y="-393.5" font-family="sans" font-size="10.00">warp_gii_to_native</text>
</g>
<!-- 63&#45;&gt;97 -->
<g id="edge37" class="edge">
<title>63&#45;&gt;97</title>
<path fill="none" stroke="grey" stroke-width="2" d="M726.74,-377.89C714.95,-368.78 702.25,-356.47 695.51,-342 661.4,-268.78 698.94,-171.18 720.91,-125.14"/>
<polygon fill="grey" stroke="grey" stroke-width="2" points="724.07,-126.65 725.33,-116.13 717.78,-123.56 724.07,-126.65"/>
</g>
<!-- 63&#45;&gt;62 -->
<g id="edge35" class="edge">
<title>63&#45;&gt;62</title>
<path fill="none" stroke="grey" stroke-width="2" d="M784.82,-377.88C801.72,-368.64 822.76,-357.13 840.9,-347.21"/>
<polygon fill="grey" stroke="grey" stroke-width="2" points="842.98,-350.06 850.08,-342.19 839.63,-343.92 842.98,-350.06"/>
</g>
<!-- 84 -->
<g id="node32" class="node">
<title>84</title>
<path fill="none" stroke="#59d856" stroke-width="2" d="M787.01,-342C787.01,-342 716.01,-342 716.01,-342 710.01,-342 704.01,-336 704.01,-330 704.01,-330 704.01,-318 704.01,-318 704.01,-312 710.01,-306 716.01,-306 716.01,-306 787.01,-306 787.01,-306 793.01,-306 799.01,-312 799.01,-318 799.01,-318 799.01,-330 799.01,-330 799.01,-336 793.01,-342 787.01,-342"/>
<text text-anchor="middle" x="751.51" y="-327" font-family="sans" font-size="10.00">smooth_surface</text>
<text text-anchor="middle" x="751.51" y="-316" font-family="sans" font-size="10.00">space: T2w</text>
</g>
<!-- 63&#45;&gt;84 -->
<g id="edge36" class="edge">
<title>63&#45;&gt;84</title>
<path fill="none" stroke="grey" stroke-width="2" d="M753.02,-377.7C752.8,-369.98 752.53,-360.71 752.29,-352.11"/>
<polygon fill="grey" stroke="grey" stroke-width="2" points="755.78,-352 752,-342.1 748.79,-352.2 755.78,-352"/>
</g>
<!-- 83 -->
<g id="node37" class="node">
<title>83</title>
<path fill="none" stroke="#56d863" stroke-width="2" d="M871.51,-267.5C871.51,-267.5 713.51,-267.5 713.51,-267.5 707.51,-267.5 701.51,-261.5 701.51,-255.5 701.51,-255.5 701.51,-243.5 701.51,-243.5 701.51,-237.5 707.51,-231.5 713.51,-231.5 713.51,-231.5 871.51,-231.5 871.51,-231.5 877.51,-231.5 883.51,-237.5 883.51,-243.5 883.51,-243.5 883.51,-255.5 883.51,-255.5 883.51,-261.5 877.51,-267.5 871.51,-267.5"/>
<text text-anchor="middle" x="792.51" y="-247" font-family="sans" font-size="10.00">calculate_curvature_from_surface</text>
</g>
<!-- 84&#45;&gt;83 -->
<g id="edge47" class="edge">
<title>84&#45;&gt;83</title>
<path fill="none" stroke="grey" stroke-width="2" d="M761.23,-305.82C766.18,-297.06 772.31,-286.23 777.82,-276.47"/>
<polygon fill="grey" stroke="grey" stroke-width="2" points="780.99,-277.99 782.87,-267.56 774.9,-274.54 780.99,-277.99"/>
</g>
<!-- 64 -->
<g id="node33" class="node">
<title>64</title>
<path fill="none" stroke="#56d85b" stroke-width="2" d="M834.51,-486C834.51,-486 740.51,-486 740.51,-486 734.51,-486 728.51,-480 728.51,-474 728.51,-474 728.51,-462 728.51,-462 728.51,-456 734.51,-450 740.51,-450 740.51,-450 834.51,-450 834.51,-450 840.51,-450 846.51,-456 846.51,-462 846.51,-462 846.51,-474 846.51,-474 846.51,-480 840.51,-486 834.51,-486"/>
<text text-anchor="middle" x="787.51" y="-465.5" font-family="sans" font-size="10.00">correct_nan_vertices</text>
</g>
<!-- 64&#45;&gt;63 -->
<g id="edge38" class="edge">
<title>64&#45;&gt;63</title>
<path fill="none" stroke="grey" stroke-width="2" d="M779.11,-449.7C775.24,-441.73 770.56,-432.1 766.27,-423.26"/>
<polygon fill="grey" stroke="grey" stroke-width="2" points="769.34,-421.57 761.82,-414.1 763.04,-424.63 769.34,-421.57"/>
</g>
<!-- 65 -->
<g id="node34" class="node">
<title>65</title>
<path fill="none" stroke="#56d86b" stroke-width="2" d="M844.01,-558C844.01,-558 737.01,-558 737.01,-558 731.01,-558 725.01,-552 725.01,-546 725.01,-546 725.01,-534 725.01,-534 725.01,-528 731.01,-522 737.01,-522 737.01,-522 844.01,-522 844.01,-522 850.01,-522 856.01,-528 856.01,-534 856.01,-534 856.01,-546 856.01,-546 856.01,-552 850.01,-558 844.01,-558"/>
<text text-anchor="middle" x="790.51" y="-537.5" font-family="sans" font-size="10.00">warp_gii_unfold2native</text>
</g>
<!-- 65&#45;&gt;64 -->
<g id="edge39" class="edge">
<title>65&#45;&gt;64</title>
<path fill="none" stroke="grey" stroke-width="2" d="M789.77,-521.7C789.44,-513.98 789.04,-504.71 788.67,-496.11"/>
<polygon fill="grey" stroke="grey" stroke-width="2" points="792.17,-495.95 788.24,-486.1 785.18,-496.25 792.17,-495.95"/>
</g>
<!-- 80 -->
<g id="node35" class="node">
<title>80</title>
<path fill="none" stroke="#68d856" stroke-width="2" d="M903.51,-649C903.51,-649 797.51,-649 797.51,-649 791.51,-649 785.51,-643 785.51,-637 785.51,-637 785.51,-625 785.51,-625 785.51,-619 791.51,-613 797.51,-613 797.51,-613 903.51,-613 903.51,-613 909.51,-613 915.51,-619 915.51,-625 915.51,-625 915.51,-637 915.51,-637 915.51,-643 909.51,-649 903.51,-649"/>
<text text-anchor="middle" x="850.51" y="-628.5" font-family="sans" font-size="10.00">constrain_surf_to_bbox</text>
</g>
<!-- 80&#45;&gt;65 -->
<g id="edge40" class="edge">
<title>80&#45;&gt;65</title>
<path fill="none" stroke="grey" stroke-width="2" d="M838.94,-612.84C830.14,-599.79 817.89,-581.62 807.91,-566.81"/>
<polygon fill="grey" stroke="grey" stroke-width="2" points="810.54,-564.44 802.04,-558.11 804.73,-568.36 810.54,-564.44"/>
</g>
<!-- 81 -->
<g id="node36" class="node">
<title>81</title>
<path fill="none" stroke="#b6d856" stroke-width="2" d="M717.51,-778C717.51,-778 607.51,-778 607.51,-778 601.51,-778 595.51,-772 595.51,-766 595.51,-766 595.51,-716 595.51,-716 595.51,-710 601.51,-704 607.51,-704 607.51,-704 717.51,-704 717.51,-704 723.51,-704 729.51,-710 729.51,-716 729.51,-716 729.51,-766 729.51,-766 729.51,-772 723.51,-778 717.51,-778"/>
<text text-anchor="middle" x="662.51" y="-766" font-family="sans" font-size="10.00">cp_template_to_unfold</text>
<text text-anchor="middle" x="662.51" y="-755" font-family="sans" font-size="10.00">autotop: hipp</text>
<text text-anchor="middle" x="662.51" y="-744" font-family="sans" font-size="10.00">density: 0p5mm</text>
<text text-anchor="middle" x="662.51" y="-733" font-family="sans" font-size="10.00">hemi: R</text>
<text text-anchor="middle" x="662.51" y="-722" font-family="sans" font-size="10.00">subject: 001</text>
<text text-anchor="middle" x="662.51" y="-711" font-family="sans" font-size="10.00">surfname: midthickness</text>
</g>
<!-- 81&#45;&gt;97 -->
<g id="edge42" class="edge">
<title>81&#45;&gt;97</title>
<path fill="none" stroke="grey" stroke-width="2" d="M595.26,-724.01C559.36,-712.88 516.18,-695.08 484.51,-668 360.21,-561.72 357.04,-457.55 418.51,-306 426.78,-285.61 439.99,-288.1 452.51,-270 464.05,-253.33 458.22,-243.38 472.51,-229 526.38,-174.77 607.5,-139.36 665.18,-119.4"/>
<polygon fill="grey" stroke="grey" stroke-width="2" points="666.6,-122.61 674.95,-116.09 664.36,-115.98 666.6,-122.61"/>
</g>
<!-- 81&#45;&gt;80 -->
<g id="edge41" class="edge">
<title>81&#45;&gt;80</title>
<path fill="none" stroke="grey" stroke-width="2" d="M725.37,-703.89C754.09,-687.39 787.17,-668.39 812.1,-654.07"/>
<polygon fill="grey" stroke="grey" stroke-width="2" points="813.97,-657.03 820.9,-649.01 810.48,-650.96 813.97,-657.03"/>
</g>
<!-- 83&#45;&gt;82 -->
<g id="edge45" class="edge">
<title>83&#45;&gt;82</title>
<path fill="none" stroke="grey" stroke-width="2" d="M880.64,-231.45C884.99,-230.62 889.3,-229.8 893.51,-229 979.24,-212.73 1001.13,-210.98 1086.51,-193 1086.98,-192.9 1087.45,-192.8 1087.93,-192.7"/>
<polygon fill="grey" stroke="grey" stroke-width="2" points="1088.99,-196.05 1098.03,-190.52 1087.51,-189.21 1088.99,-196.05"/>
</g>
<!-- 83&#45;&gt;97 -->
<g id="edge46" class="edge">
<title>83&#45;&gt;97</title>
<path fill="none" stroke="grey" stroke-width="2" d="M769.72,-231.31C758.5,-221.44 746.01,-208.04 739.51,-193 730.38,-171.86 729.79,-145.51 731.1,-126.1"/>
<polygon fill="grey" stroke="grey" stroke-width="2" points="734.59,-126.37 731.98,-116.1 727.61,-125.75 734.59,-126.37"/>
</g>
<!-- 86 -->
<g id="node38" class="node">
<title>86</title>
<path fill="none" stroke="#9fd856" stroke-width="2" d="M651.51,-267.5C651.51,-267.5 493.51,-267.5 493.51,-267.5 487.51,-267.5 481.51,-261.5 481.51,-255.5 481.51,-255.5 481.51,-243.5 481.51,-243.5 481.51,-237.5 487.51,-231.5 493.51,-231.5 493.51,-231.5 651.51,-231.5 651.51,-231.5 657.51,-231.5 663.51,-237.5 663.51,-243.5 663.51,-243.5 663.51,-255.5 663.51,-255.5 663.51,-261.5 657.51,-267.5 651.51,-267.5"/>
<text text-anchor="middle" x="572.51" y="-252.5" font-family="sans" font-size="10.00">calculate_thickness_from_surface</text>
<text text-anchor="middle" x="572.51" y="-241.5" font-family="sans" font-size="10.00">space: T2w</text>
</g>
<!-- 86&#45;&gt;85 -->
<g id="edge50" class="edge">
<title>86&#45;&gt;85</title>
<path fill="none" stroke="grey" stroke-width="2" d="M632.64,-231.48C672.65,-220.16 725.36,-205.24 767.29,-193.37"/>
<polygon fill="grey" stroke="grey" stroke-width="2" points="768.49,-196.67 777.16,-190.58 766.58,-189.94 768.49,-196.67"/>
</g>
<!-- 86&#45;&gt;97 -->
<g id="edge51" class="edge">
<title>86&#45;&gt;97</title>
<path fill="none" stroke="grey" stroke-width="2" d="M591.1,-231.35C619.95,-204.72 675.61,-153.36 708.46,-123.04"/>
<polygon fill="grey" stroke="grey" stroke-width="2" points="710.92,-125.53 715.9,-116.18 706.17,-120.39 710.92,-125.53"/>
</g>
<!-- 87 -->
<g id="node39" class="node">
<title>87</title>
<path fill="none" stroke="#56c1d8" stroke-width="2" d="M651.01,-342C651.01,-342 566.01,-342 566.01,-342 560.01,-342 554.01,-336 554.01,-330 554.01,-330 554.01,-318 554.01,-318 554.01,-312 560.01,-306 566.01,-306 566.01,-306 651.01,-306 651.01,-306 657.01,-306 663.01,-312 663.01,-318 663.01,-318 663.01,-330 663.01,-330 663.01,-336 657.01,-342 651.01,-342"/>
<text text-anchor="middle" x="608.51" y="-321.5" font-family="sans" font-size="10.00">warp_gii_to_native</text>
</g>
<!-- 87&#45;&gt;86 -->
<g id="edge52" class="edge">
<title>87&#45;&gt;86</title>
<path fill="none" stroke="grey" stroke-width="2" d="M599.98,-305.82C595.68,-297.15 590.36,-286.45 585.56,-276.78"/>
<polygon fill="grey" stroke="grey" stroke-width="2" points="588.56,-274.96 580.98,-267.56 582.29,-278.07 588.56,-274.96"/>
</g>
<!-- 88 -->
<g id="node40" class="node">
<title>88</title>
<path fill="none" stroke="#56d85b" stroke-width="2" d="M668.51,-414C668.51,-414 574.51,-414 574.51,-414 568.51,-414 562.51,-408 562.51,-402 562.51,-402 562.51,-390 562.51,-390 562.51,-384 568.51,-378 574.51,-378 574.51,-378 668.51,-378 668.51,-378 674.51,-378 680.51,-384 680.51,-390 680.51,-390 680.51,-402 680.51,-402 680.51,-408 674.51,-414 668.51,-414"/>
<text text-anchor="middle" x="621.51" y="-393.5" font-family="sans" font-size="10.00">correct_nan_vertices</text>
</g>
<!-- 88&#45;&gt;87 -->
<g id="edge53" class="edge">
<title>88&#45;&gt;87</title>
<path fill="none" stroke="grey" stroke-width="2" d="M618.3,-377.7C616.87,-369.98 615.14,-360.71 613.55,-352.11"/>
<polygon fill="grey" stroke="grey" stroke-width="2" points="616.96,-351.3 611.69,-342.1 610.07,-352.58 616.96,-351.3"/>
</g>
<!-- 89 -->
<g id="node41" class="node">
<title>89</title>
<path fill="none" stroke="#56d86b" stroke-width="2" d="M695.01,-486C695.01,-486 588.01,-486 588.01,-486 582.01,-486 576.01,-480 576.01,-474 576.01,-474 576.01,-462 576.01,-462 576.01,-456 582.01,-450 588.01,-450 588.01,-450 695.01,-450 695.01,-450 701.01,-450 707.01,-456 707.01,-462 707.01,-462 707.01,-474 707.01,-474 707.01,-480 701.01,-486 695.01,-486"/>
<text text-anchor="middle" x="641.51" y="-465.5" font-family="sans" font-size="10.00">warp_gii_unfold2native</text>
</g>
<!-- 89&#45;&gt;88 -->
<g id="edge54" class="edge">
<title>89&#45;&gt;88</title>
<path fill="none" stroke="grey" stroke-width="2" d="M636.57,-449.7C634.34,-441.9 631.66,-432.51 629.18,-423.83"/>
<polygon fill="grey" stroke="grey" stroke-width="2" points="632.51,-422.76 626.4,-414.1 625.78,-424.68 632.51,-422.76"/>
</g>
<!-- 90 -->
<g id="node42" class="node">
<title>90</title>
<path fill="none" stroke="#68d856" stroke-width="2" d="M694.51,-558C694.51,-558 588.51,-558 588.51,-558 582.51,-558 576.51,-552 576.51,-546 576.51,-546 576.51,-534 576.51,-534 576.51,-528 582.51,-522 588.51,-522 588.51,-522 694.51,-522 694.51,-522 700.51,-522 706.51,-528 706.51,-534 706.51,-534 706.51,-546 706.51,-546 706.51,-552 700.51,-558 694.51,-558"/>
<text text-anchor="middle" x="641.51" y="-537.5" font-family="sans" font-size="10.00">constrain_surf_to_bbox</text>
</g>
<!-- 90&#45;&gt;89 -->
<g id="edge55" class="edge">
<title>90&#45;&gt;89</title>
<path fill="none" stroke="grey" stroke-width="2" d="M641.51,-521.7C641.51,-513.98 641.51,-504.71 641.51,-496.11"/>
<polygon fill="grey" stroke="grey" stroke-width="2" points="645.01,-496.1 641.51,-486.1 638.01,-496.1 645.01,-496.1"/>
</g>
<!-- 91 -->
<g id="node43" class="node">
<title>91</title>
<path fill="none" stroke="#b6d856" stroke-width="2" d="M755.51,-668C755.51,-668 651.51,-668 651.51,-668 645.51,-668 639.51,-662 639.51,-656 639.51,-656 639.51,-606 639.51,-606 639.51,-600 645.51,-594 651.51,-594 651.51,-594 755.51,-594 755.51,-594 761.51,-594 767.51,-600 767.51,-606 767.51,-606 767.51,-656 767.51,-656 767.51,-662 761.51,-668 755.51,-668"/>
<text text-anchor="middle" x="703.51" y="-656" font-family="sans" font-size="10.00">cp_template_to_unfold</text>
<text text-anchor="middle" x="703.51" y="-645" font-family="sans" font-size="10.00">autotop: hipp</text>
<text text-anchor="middle" x="703.51" y="-634" font-family="sans" font-size="10.00">density: 0p5mm</text>
<text text-anchor="middle" x="703.51" y="-623" font-family="sans" font-size="10.00">hemi: R</text>
<text text-anchor="middle" x="703.51" y="-612" font-family="sans" font-size="10.00">subject: 001</text>
<text text-anchor="middle" x="703.51" y="-601" font-family="sans" font-size="10.00">surfname: inner</text>
</g>
<!-- 91&#45;&gt;90 -->
<g id="edge56" class="edge">
<title>91&#45;&gt;90</title>
<path fill="none" stroke="grey" stroke-width="2" d="M678.29,-593.8C671.92,-584.66 665.22,-575.03 659.3,-566.53"/>
<polygon fill="grey" stroke="grey" stroke-width="2" points="662.05,-564.36 653.47,-558.16 656.31,-568.37 662.05,-564.36"/>
</g>
<!-- 92 -->
<g id="node44" class="node">
<title>92</title>
<path fill="none" stroke="#56c1d8" stroke-width="2" d="M524.01,-342C524.01,-342 439.01,-342 439.01,-342 433.01,-342 427.01,-336 427.01,-330 427.01,-330 427.01,-318 427.01,-318 427.01,-312 433.01,-306 439.01,-306 439.01,-306 524.01,-306 524.01,-306 530.01,-306 536.01,-312 536.01,-318 536.01,-318 536.01,-330 536.01,-330 536.01,-336 530.01,-342 524.01,-342"/>
<text text-anchor="middle" x="481.51" y="-321.5" font-family="sans" font-size="10.00">warp_gii_to_native</text>
</g>
<!-- 92&#45;&gt;86 -->
<g id="edge57" class="edge">
<title>92&#45;&gt;86</title>
<path fill="none" stroke="grey" stroke-width="2" d="M503.08,-305.82C515.09,-296.25 530.21,-284.2 543.28,-273.79"/>
<polygon fill="grey" stroke="grey" stroke-width="2" points="545.46,-276.53 551.1,-267.56 541.1,-271.05 545.46,-276.53"/>
</g>
<!-- 93 -->
<g id="node45" class="node">
<title>93</title>
<path fill="none" stroke="#56d85b" stroke-width="2" d="M532.51,-414C532.51,-414 438.51,-414 438.51,-414 432.51,-414 426.51,-408 426.51,-402 426.51,-402 426.51,-390 426.51,-390 426.51,-384 432.51,-378 438.51,-378 438.51,-378 532.51,-378 532.51,-378 538.51,-378 544.51,-384 544.51,-390 544.51,-390 544.51,-402 544.51,-402 544.51,-408 538.51,-414 532.51,-414"/>
<text text-anchor="middle" x="485.51" y="-393.5" font-family="sans" font-size="10.00">correct_nan_vertices</text>
</g>
<!-- 93&#45;&gt;92 -->
<g id="edge58" class="edge">
<title>93&#45;&gt;92</title>
<path fill="none" stroke="grey" stroke-width="2" d="M484.52,-377.7C484.08,-369.98 483.55,-360.71 483.06,-352.11"/>
<polygon fill="grey" stroke="grey" stroke-width="2" points="486.55,-351.89 482.49,-342.1 479.57,-352.29 486.55,-351.89"/>
</g>
<!-- 94 -->
<g id="node46" class="node">
<title>94</title>
<path fill="none" stroke="#56d86b" stroke-width="2" d="M546.01,-486C546.01,-486 439.01,-486 439.01,-486 433.01,-486 427.01,-480 427.01,-474 427.01,-474 427.01,-462 427.01,-462 427.01,-456 433.01,-450 439.01,-450 439.01,-450 546.01,-450 546.01,-450 552.01,-450 558.01,-456 558.01,-462 558.01,-462 558.01,-474 558.01,-474 558.01,-480 552.01,-486 546.01,-486"/>
<text text-anchor="middle" x="492.51" y="-465.5" font-family="sans" font-size="10.00">warp_gii_unfold2native</text>
</g>
<!-- 94&#45;&gt;93 -->
<g id="edge59" class="edge">
<title>94&#45;&gt;93</title>
<path fill="none" stroke="grey" stroke-width="2" d="M490.78,-449.7C490.01,-441.98 489.08,-432.71 488.22,-424.11"/>
<polygon fill="grey" stroke="grey" stroke-width="2" points="491.7,-423.71 487.22,-414.1 484.73,-424.4 491.7,-423.71"/>
</g>
<!-- 95 -->
<g id="node47" class="node">
<title>95</title>
<path fill="none" stroke="#68d856" stroke-width="2" d="M545.51,-558C545.51,-558 439.51,-558 439.51,-558 433.51,-558 427.51,-552 427.51,-546 427.51,-546 427.51,-534 427.51,-534 427.51,-528 433.51,-522 439.51,-522 439.51,-522 545.51,-522 545.51,-522 551.51,-522 557.51,-528 557.51,-534 557.51,-534 557.51,-546 557.51,-546 557.51,-552 551.51,-558 545.51,-558"/>
<text text-anchor="middle" x="492.51" y="-537.5" font-family="sans" font-size="10.00">constrain_surf_to_bbox</text>
</g>
<!-- 95&#45;&gt;94 -->
<g id="edge60" class="edge">
<title>95&#45;&gt;94</title>
<path fill="none" stroke="grey" stroke-width="2" d="M492.51,-521.7C492.51,-513.98 492.51,-504.71 492.51,-496.11"/>
<polygon fill="grey" stroke="grey" stroke-width="2" points="496.01,-496.1 492.51,-486.1 489.01,-496.1 496.01,-496.1"/>
</g>
<!-- 96 -->
<g id="node48" class="node">
<title>96</title>
<path fill="none" stroke="#b6d856" stroke-width="2" d="M609.51,-668C609.51,-668 505.51,-668 505.51,-668 499.51,-668 493.51,-662 493.51,-656 493.51,-656 493.51,-606 493.51,-606 493.51,-600 499.51,-594 505.51,-594 505.51,-594 609.51,-594 609.51,-594 615.51,-594 621.51,-600 621.51,-606 621.51,-606 621.51,-656 621.51,-656 621.51,-662 615.51,-668 609.51,-668"/>
<text text-anchor="middle" x="557.51" y="-656" font-family="sans" font-size="10.00">cp_template_to_unfold</text>
<text text-anchor="middle" x="557.51" y="-645" font-family="sans" font-size="10.00">autotop: hipp</text>
<text text-anchor="middle" x="557.51" y="-634" font-family="sans" font-size="10.00">density: 0p5mm</text>
<text text-anchor="middle" x="557.51" y="-623" font-family="sans" font-size="10.00">hemi: R</text>
<text text-anchor="middle" x="557.51" y="-612" font-family="sans" font-size="10.00">subject: 001</text>
<text text-anchor="middle" x="557.51" y="-601" font-family="sans" font-size="10.00">surfname: outer</text>
</g>
<!-- 96&#45;&gt;95 -->
<g id="edge61" class="edge">
<title>96&#45;&gt;95</title>
<path fill="none" stroke="grey" stroke-width="2" d="M531.07,-593.8C524.33,-584.56 517.22,-574.83 510.96,-566.27"/>
<polygon fill="grey" stroke="grey" stroke-width="2" points="513.77,-564.17 505.04,-558.16 508.12,-568.3 513.77,-564.17"/>
</g>
<!-- 98 -->
<g id="node49" class="node">
<title>98</title>
<path fill="none" stroke="#d86656" stroke-width="2" d="M420.01,-193C420.01,-193 349.01,-193 349.01,-193 343.01,-193 337.01,-187 337.01,-181 337.01,-181 337.01,-164 337.01,-164 337.01,-158 343.01,-152 349.01,-152 349.01,-152 420.01,-152 420.01,-152 426.01,-152 432.01,-158 432.01,-164 432.01,-164 432.01,-181 432.01,-181 432.01,-187 426.01,-193 420.01,-193"/>
<text text-anchor="middle" x="384.51" y="-181" font-family="sans" font-size="10.00">nii_to_label_gii</text>
<text text-anchor="middle" x="384.51" y="-170" font-family="sans" font-size="10.00">density: 0p5mm</text>
<text text-anchor="middle" x="384.51" y="-159" font-family="sans" font-size="10.00">space: T2w</text>
</g>
<!-- 98&#45;&gt;97 -->
<g id="edge63" class="edge">
<title>98&#45;&gt;97</title>
<path fill="none" stroke="grey" stroke-width="2" d="M432.3,-158.21C440.67,-156.03 449.33,-153.87 457.51,-152 527.04,-136.08 607.14,-121.12 663.26,-111.18"/>
<polygon fill="grey" stroke="grey" stroke-width="2" points="664.22,-114.56 673.46,-109.38 663,-107.67 664.22,-114.56"/>
</g>
<!-- 99 -->
<g id="node50" class="node">
<title>99</title>
<path fill="none" stroke="#56d89a" stroke-width="2" d="M431.51,-270C431.51,-270 315.51,-270 315.51,-270 309.51,-270 303.51,-264 303.51,-258 303.51,-258 303.51,-241 303.51,-241 303.51,-235 309.51,-229 315.51,-229 315.51,-229 431.51,-229 431.51,-229 437.51,-229 443.51,-235 443.51,-241 443.51,-241 443.51,-258 443.51,-258 443.51,-264 437.51,-270 431.51,-270"/>
<text text-anchor="middle" x="373.51" y="-258" font-family="sans" font-size="10.00">resample_atlas_to_refvol</text>
<text text-anchor="middle" x="373.51" y="-247" font-family="sans" font-size="10.00">atlas: bigbrain</text>
<text text-anchor="middle" x="373.51" y="-236" font-family="sans" font-size="10.00">hemi: R</text>
</g>
<!-- 99&#45;&gt;98 -->
<g id="edge64" class="edge">
<title>99&#45;&gt;98</title>
<path fill="none" stroke="grey" stroke-width="2" d="M376.4,-228.79C377.55,-220.96 378.9,-211.77 380.16,-203.16"/>
<polygon fill="grey" stroke="grey" stroke-width="2" points="383.65,-203.48 381.64,-193.07 376.73,-202.46 383.65,-203.48"/>
</g>
<!-- 100 -->
<g id="node51" class="node">
<title>100</title>
<path fill="none" stroke="#70d856" stroke-width="2" d="M2322.51,-44C2322.51,-44 2238.51,-44 2238.51,-44 2232.51,-44 2226.51,-38 2226.51,-32 2226.51,-32 2226.51,-20 2226.51,-20 2226.51,-14 2232.51,-8 2238.51,-8 2238.51,-8 2322.51,-8 2322.51,-8 2328.51,-8 2334.51,-14 2334.51,-20 2334.51,-20 2334.51,-32 2334.51,-32 2334.51,-38 2328.51,-44 2322.51,-44"/>
<text text-anchor="middle" x="2280.51" y="-29" font-family="sans" font-size="10.00">merge_lr_spec_file</text>
<text text-anchor="middle" x="2280.51" y="-18" font-family="sans" font-size="10.00">autotop: dentate</text>
</g>
<!-- 101 -->
<g id="node52" class="node">
<title>101</title>
<path fill="none" stroke="#56d88a" stroke-width="2" d="M2509.51,-116C2509.51,-116 2395.51,-116 2395.51,-116 2389.51,-116 2383.51,-110 2383.51,-104 2383.51,-104 2383.51,-92 2383.51,-92 2383.51,-86 2389.51,-80 2395.51,-80 2395.51,-80 2509.51,-80 2509.51,-80 2515.51,-80 2521.51,-86 2521.51,-92 2521.51,-92 2521.51,-104 2521.51,-104 2521.51,-110 2515.51,-116 2509.51,-116"/>
<text text-anchor="middle" x="2452.51" y="-101" font-family="sans" font-size="10.00">create_spec_file_dentate</text>
<text text-anchor="middle" x="2452.51" y="-90" font-family="sans" font-size="10.00">label: dentate</text>
</g>
<!-- 101&#45;&gt;100 -->
<g id="edge65" class="edge">
<title>101&#45;&gt;100</title>
<path fill="none" stroke="grey" stroke-width="2" d="M2410.44,-79.88C2386.71,-70.22 2356.9,-58.09 2331.81,-47.88"/>
<polygon fill="grey" stroke="grey" stroke-width="2" points="2333.03,-44.6 2322.45,-44.07 2330.39,-51.08 2333.03,-44.6"/>
</g>
<!-- 102 -->
<g id="node53" class="node">
<title>102</title>
<path fill="none" stroke="#566bd8" stroke-width="2" d="M2269.01,-267.5C2269.01,-267.5 2172.01,-267.5 2172.01,-267.5 2166.01,-267.5 2160.01,-261.5 2160.01,-255.5 2160.01,-255.5 2160.01,-243.5 2160.01,-243.5 2160.01,-237.5 2166.01,-231.5 2172.01,-231.5 2172.01,-231.5 2269.01,-231.5 2269.01,-231.5 2275.01,-231.5 2281.01,-237.5 2281.01,-243.5 2281.01,-243.5 2281.01,-255.5 2281.01,-255.5 2281.01,-261.5 2275.01,-267.5 2269.01,-267.5"/>
<text text-anchor="middle" x="2220.51" y="-247" font-family="sans" font-size="10.00">calculate_gyrification</text>
</g>
<!-- 102&#45;&gt;101 -->
<g id="edge66" class="edge">
<title>102&#45;&gt;101</title>
<path fill="none" stroke="grey" stroke-width="2" d="M2281.17,-231.42C2284.33,-230.59 2287.46,-229.78 2290.51,-229 2359.47,-211.45 2400.46,-247.24 2446.51,-193 2461.92,-174.85 2461.74,-146.93 2458.72,-126.23"/>
<polygon fill="grey" stroke="grey" stroke-width="2" points="2462.13,-125.4 2456.95,-116.16 2455.24,-126.61 2462.13,-125.4"/>
</g>
<!-- 124 -->
<g id="node54" class="node">
<title>124</title>
<path fill="none" stroke="#567bd8" stroke-width="2" d="M2259.51,-190.5C2259.51,-190.5 2135.51,-190.5 2135.51,-190.5 2129.51,-190.5 2123.51,-184.5 2123.51,-178.5 2123.51,-178.5 2123.51,-166.5 2123.51,-166.5 2123.51,-160.5 2129.51,-154.5 2135.51,-154.5 2135.51,-154.5 2259.51,-154.5 2259.51,-154.5 2265.51,-154.5 2271.51,-160.5 2271.51,-166.5 2271.51,-166.5 2271.51,-178.5 2271.51,-178.5 2271.51,-184.5 2265.51,-190.5 2259.51,-190.5"/>
<text text-anchor="middle" x="2197.51" y="-175.5" font-family="sans" font-size="10.00">create_dscalar_metric_cifti</text>
<text text-anchor="middle" x="2197.51" y="-164.5" font-family="sans" font-size="10.00">metric: gyrification</text>
</g>
<!-- 102&#45;&gt;124 -->
<g id="edge67" class="edge">
<title>102&#45;&gt;124</title>
<path fill="none" stroke="grey" stroke-width="2" d="M2215.29,-231.48C2212.49,-222.34 2208.97,-210.86 2205.8,-200.53"/>
<polygon fill="grey" stroke="grey" stroke-width="2" points="2209.07,-199.25 2202.79,-190.71 2202.38,-201.3 2209.07,-199.25"/>
</g>
<!-- 124&#45;&gt;101 -->
<g id="edge80" class="edge">
<title>124&#45;&gt;101</title>
<path fill="none" stroke="grey" stroke-width="2" d="M2257.62,-154.41C2295.08,-143.76 2343.44,-130.01 2382.62,-118.87"/>
<polygon fill="grey" stroke="grey" stroke-width="2" points="2383.7,-122.2 2392.37,-116.1 2381.79,-115.47 2383.7,-122.2"/>
</g>
<!-- 143 -->
<g id="node64" class="node">
<title>143</title>
<path fill="none" stroke="#56d88a" stroke-width="2" d="M2161.51,-116C2161.51,-116 2047.51,-116 2047.51,-116 2041.51,-116 2035.51,-110 2035.51,-104 2035.51,-104 2035.51,-92 2035.51,-92 2035.51,-86 2041.51,-80 2047.51,-80 2047.51,-80 2161.51,-80 2161.51,-80 2167.51,-80 2173.51,-86 2173.51,-92 2173.51,-92 2173.51,-104 2173.51,-104 2173.51,-110 2167.51,-116 2161.51,-116"/>
<text text-anchor="middle" x="2104.51" y="-101" font-family="sans" font-size="10.00">create_spec_file_dentate</text>
<text text-anchor="middle" x="2104.51" y="-90" font-family="sans" font-size="10.00">label: dentate</text>
</g>
<!-- 124&#45;&gt;143 -->
<g id="edge81" class="edge">
<title>124&#45;&gt;143</title>
<path fill="none" stroke="grey" stroke-width="2" d="M2175.47,-154.32C2163.2,-144.75 2147.74,-132.7 2134.39,-122.29"/>
<polygon fill="grey" stroke="grey" stroke-width="2" points="2136.43,-119.45 2126.39,-116.06 2132.13,-124.97 2136.43,-119.45"/>
</g>
<!-- 103 -->
<g id="node55" class="node">
<title>103</title>
<path fill="none" stroke="#56d89a" stroke-width="2" d="M2295.01,-342C2295.01,-342 2190.01,-342 2190.01,-342 2184.01,-342 2178.01,-336 2178.01,-330 2178.01,-330 2178.01,-318 2178.01,-318 2178.01,-312 2184.01,-306 2190.01,-306 2190.01,-306 2295.01,-306 2295.01,-306 2301.01,-306 2307.01,-312 2307.01,-318 2307.01,-318 2307.01,-330 2307.01,-330 2307.01,-336 2301.01,-342 2295.01,-342"/>
<text text-anchor="middle" x="2242.51" y="-327" font-family="sans" font-size="10.00">calculate_surface_area</text>
<text text-anchor="middle" x="2242.51" y="-316" font-family="sans" font-size="10.00">space: T2w</text>
</g>
<!-- 103&#45;&gt;102 -->
<g id="edge68" class="edge">
<title>103&#45;&gt;102</title>
<path fill="none" stroke="grey" stroke-width="2" d="M2237.3,-305.82C2234.72,-297.33 2231.56,-286.89 2228.67,-277.38"/>
<polygon fill="grey" stroke="grey" stroke-width="2" points="2231.94,-276.11 2225.69,-267.56 2225.24,-278.14 2231.94,-276.11"/>
</g>
<!-- 104 -->
<g id="node56" class="node">
<title>104</title>
<path fill="none" stroke="#56c1d8" stroke-width="2" d="M2433.01,-414C2433.01,-414 2348.01,-414 2348.01,-414 2342.01,-414 2336.01,-408 2336.01,-402 2336.01,-402 2336.01,-390 2336.01,-390 2336.01,-384 2342.01,-378 2348.01,-378 2348.01,-378 2433.01,-378 2433.01,-378 2439.01,-378 2445.01,-384 2445.01,-390 2445.01,-390 2445.01,-402 2445.01,-402 2445.01,-408 2439.01,-414 2433.01,-414"/>
<text text-anchor="middle" x="2390.51" y="-393.5" font-family="sans" font-size="10.00">warp_gii_to_native</text>
</g>
<!-- 104&#45;&gt;101 -->
<g id="edge69" class="edge">
<title>104&#45;&gt;101</title>
<path fill="none" stroke="grey" stroke-width="2" d="M2412.08,-377.96C2437.5,-356.19 2477.87,-315.81 2490.51,-270 2504.5,-219.3 2482.25,-159.07 2466.34,-125.32"/>
<polygon fill="grey" stroke="grey" stroke-width="2" points="2469.38,-123.58 2461.85,-116.13 2463.09,-126.65 2469.38,-123.58"/>
</g>
<!-- 104&#45;&gt;103 -->
<g id="edge70" class="edge">
<title>104&#45;&gt;103</title>
<path fill="none" stroke="grey" stroke-width="2" d="M2354.31,-377.88C2334.25,-368.39 2309.14,-356.51 2287.8,-346.42"/>
<polygon fill="grey" stroke="grey" stroke-width="2" points="2289.14,-343.18 2278.6,-342.07 2286.14,-349.51 2289.14,-343.18"/>
</g>
<!-- 123 -->
<g id="node57" class="node">
<title>123</title>
<path fill="none" stroke="#59d856" stroke-width="2" d="M2426.01,-342C2426.01,-342 2355.01,-342 2355.01,-342 2349.01,-342 2343.01,-336 2343.01,-330 2343.01,-330 2343.01,-318 2343.01,-318 2343.01,-312 2349.01,-306 2355.01,-306 2355.01,-306 2426.01,-306 2426.01,-306 2432.01,-306 2438.01,-312 2438.01,-318 2438.01,-318 2438.01,-330 2438.01,-330 2438.01,-336 2432.01,-342 2426.01,-342"/>
<text text-anchor="middle" x="2390.51" y="-327" font-family="sans" font-size="10.00">smooth_surface</text>
<text text-anchor="middle" x="2390.51" y="-316" font-family="sans" font-size="10.00">space: T2w</text>
</g>
<!-- 104&#45;&gt;123 -->
<g id="edge71" class="edge">
<title>104&#45;&gt;123</title>
<path fill="none" stroke="grey" stroke-width="2" d="M2390.51,-377.7C2390.51,-369.98 2390.51,-360.71 2390.51,-352.11"/>
<polygon fill="grey" stroke="grey" stroke-width="2" points="2394.01,-352.1 2390.51,-342.1 2387.01,-352.1 2394.01,-352.1"/>
</g>
<!-- 122 -->
<g id="node62" class="node">
<title>122</title>
<path fill="none" stroke="#56d863" stroke-width="2" d="M2469.51,-267.5C2469.51,-267.5 2311.51,-267.5 2311.51,-267.5 2305.51,-267.5 2299.51,-261.5 2299.51,-255.5 2299.51,-255.5 2299.51,-243.5 2299.51,-243.5 2299.51,-237.5 2305.51,-231.5 2311.51,-231.5 2311.51,-231.5 2469.51,-231.5 2469.51,-231.5 2475.51,-231.5 2481.51,-237.5 2481.51,-243.5 2481.51,-243.5 2481.51,-255.5 2481.51,-255.5 2481.51,-261.5 2475.51,-267.5 2469.51,-267.5"/>
<text text-anchor="middle" x="2390.51" y="-247" font-family="sans" font-size="10.00">calculate_curvature_from_surface</text>
</g>
<!-- 123&#45;&gt;122 -->
<g id="edge79" class="edge">
<title>123&#45;&gt;122</title>
<path fill="none" stroke="grey" stroke-width="2" d="M2390.51,-305.82C2390.51,-297.42 2390.51,-287.12 2390.51,-277.69"/>
<polygon fill="grey" stroke="grey" stroke-width="2" points="2394.01,-277.56 2390.51,-267.56 2387.01,-277.56 2394.01,-277.56"/>
</g>
<!-- 105 -->
<g id="node58" class="node">
<title>105</title>
<path fill="none" stroke="#56d85b" stroke-width="2" d="M2450.51,-486C2450.51,-486 2356.51,-486 2356.51,-486 2350.51,-486 2344.51,-480 2344.51,-474 2344.51,-474 2344.51,-462 2344.51,-462 2344.51,-456 2350.51,-450 2356.51,-450 2356.51,-450 2450.51,-450 2450.51,-450 2456.51,-450 2462.51,-456 2462.51,-462 2462.51,-462 2462.51,-474 2462.51,-474 2462.51,-480 2456.51,-486 2450.51,-486"/>
<text text-anchor="middle" x="2403.51" y="-465.5" font-family="sans" font-size="10.00">correct_nan_vertices</text>
</g>
<!-- 105&#45;&gt;104 -->
<g id="edge72" class="edge">
<title>105&#45;&gt;104</title>
<path fill="none" stroke="grey" stroke-width="2" d="M2400.3,-449.7C2398.87,-441.98 2397.14,-432.71 2395.55,-424.11"/>
<polygon fill="grey" stroke="grey" stroke-width="2" points="2398.96,-423.3 2393.69,-414.1 2392.07,-424.58 2398.96,-423.3"/>
</g>
<!-- 106 -->
<g id="node59" class="node">
<title>106</title>
<path fill="none" stroke="#56d86b" stroke-width="2" d="M2509.01,-558C2509.01,-558 2402.01,-558 2402.01,-558 2396.01,-558 2390.01,-552 2390.01,-546 2390.01,-546 2390.01,-534 2390.01,-534 2390.01,-528 2396.01,-522 2402.01,-522 2402.01,-522 2509.01,-522 2509.01,-522 2515.01,-522 2521.01,-528 2521.01,-534 2521.01,-534 2521.01,-546 2521.01,-546 2521.01,-552 2515.01,-558 2509.01,-558"/>
<text text-anchor="middle" x="2455.51" y="-537.5" font-family="sans" font-size="10.00">warp_gii_unfold2native</text>
</g>
<!-- 106&#45;&gt;105 -->
<g id="edge73" class="edge">
<title>106&#45;&gt;105</title>
<path fill="none" stroke="grey" stroke-width="2" d="M2442.66,-521.7C2436.49,-513.39 2428.97,-503.28 2422.19,-494.14"/>
<polygon fill="grey" stroke="grey" stroke-width="2" points="2424.99,-492.04 2416.22,-486.1 2419.37,-496.22 2424.99,-492.04"/>
</g>
<!-- 120 -->
<g id="node60" class="node">
<title>120</title>
<path fill="none" stroke="#68d856" stroke-width="2" d="M2507.51,-649C2507.51,-649 2401.51,-649 2401.51,-649 2395.51,-649 2389.51,-643 2389.51,-637 2389.51,-637 2389.51,-625 2389.51,-625 2389.51,-619 2395.51,-613 2401.51,-613 2401.51,-613 2507.51,-613 2507.51,-613 2513.51,-613 2519.51,-619 2519.51,-625 2519.51,-625 2519.51,-637 2519.51,-637 2519.51,-643 2513.51,-649 2507.51,-649"/>
<text text-anchor="middle" x="2454.51" y="-628.5" font-family="sans" font-size="10.00">constrain_surf_to_bbox</text>
</g>
<!-- 120&#45;&gt;106 -->
<g id="edge74" class="edge">
<title>120&#45;&gt;106</title>
<path fill="none" stroke="grey" stroke-width="2" d="M2454.7,-612.84C2454.85,-600.28 2455.04,-582.98 2455.2,-568.5"/>
<polygon fill="grey" stroke="grey" stroke-width="2" points="2458.71,-568.15 2455.32,-558.11 2451.71,-568.07 2458.71,-568.15"/>
</g>
<!-- 121 -->
<g id="node61" class="node">
<title>121</title>
<path fill="none" stroke="#b6d856" stroke-width="2" d="M2465.51,-778C2465.51,-778 2355.51,-778 2355.51,-778 2349.51,-778 2343.51,-772 2343.51,-766 2343.51,-766 2343.51,-716 2343.51,-716 2343.51,-710 2349.51,-704 2355.51,-704 2355.51,-704 2465.51,-704 2465.51,-704 2471.51,-704 2477.51,-710 2477.51,-716 2477.51,-716 2477.51,-766 2477.51,-766 2477.51,-772 2471.51,-778 2465.51,-778"/>
<text text-anchor="middle" x="2410.51" y="-766" font-family="sans" font-size="10.00">cp_template_to_unfold</text>
<text text-anchor="middle" x="2410.51" y="-755" font-family="sans" font-size="10.00">autotop: dentate</text>
<text text-anchor="middle" x="2410.51" y="-744" font-family="sans" font-size="10.00">density: 0p5mm</text>
<text text-anchor="middle" x="2410.51" y="-733" font-family="sans" font-size="10.00">hemi: L</text>
<text text-anchor="middle" x="2410.51" y="-722" font-family="sans" font-size="10.00">subject: 001</text>
<text text-anchor="middle" x="2410.51" y="-711" font-family="sans" font-size="10.00">surfname: midthickness</text>
</g>
<!-- 121&#45;&gt;101 -->
<g id="edge75" class="edge">
<title>121&#45;&gt;101</title>
<path fill="none" stroke="grey" stroke-width="2" d="M2391.73,-703.68C2370.65,-657.32 2343.99,-576.59 2381.51,-522 2405.91,-486.49 2445.27,-520.16 2471.51,-486 2530.42,-409.32 2491.72,-366.52 2497.51,-270 2500.66,-217.5 2506.87,-201.29 2488.51,-152 2484.94,-142.41 2479.28,-132.86 2473.5,-124.57"/>
<polygon fill="grey" stroke="grey" stroke-width="2" points="2476.26,-122.41 2467.52,-116.43 2470.62,-126.56 2476.26,-122.41"/>
</g>
<!-- 121&#45;&gt;120 -->
<g id="edge76" class="edge">
<title>121&#45;&gt;120</title>
<path fill="none" stroke="grey" stroke-width="2" d="M2425.29,-703.74C2431.31,-688.94 2438.15,-672.15 2443.7,-658.54"/>
<polygon fill="grey" stroke="grey" stroke-width="2" points="2446.95,-659.84 2447.48,-649.26 2440.47,-657.2 2446.95,-659.84"/>
</g>
<!-- 122&#45;&gt;101 -->
<g id="edge77" class="edge">
<title>122&#45;&gt;101</title>
<path fill="none" stroke="grey" stroke-width="2" d="M2423.85,-231.5C2438.23,-222.24 2453.56,-209.31 2461.51,-193 2471.68,-172.14 2467.85,-145.61 2462.4,-126.05"/>
<polygon fill="grey" stroke="grey" stroke-width="2" points="2465.67,-124.78 2459.37,-116.26 2458.98,-126.85 2465.67,-124.78"/>
</g>
<!-- 140 -->
<g id="node63" class="node">
<title>140</title>
<path fill="none" stroke="#567bd8" stroke-width="2" d="M2425.51,-190.5C2425.51,-190.5 2301.51,-190.5 2301.51,-190.5 2295.51,-190.5 2289.51,-184.5 2289.51,-178.5 2289.51,-178.5 2289.51,-166.5 2289.51,-166.5 2289.51,-160.5 2295.51,-154.5 2301.51,-154.5 2301.51,-154.5 2425.51,-154.5 2425.51,-154.5 2431.51,-154.5 2437.51,-160.5 2437.51,-166.5 2437.51,-166.5 2437.51,-178.5 2437.51,-178.5 2437.51,-184.5 2431.51,-190.5 2425.51,-190.5"/>
<text text-anchor="middle" x="2363.51" y="-175.5" font-family="sans" font-size="10.00">create_dscalar_metric_cifti</text>
<text text-anchor="middle" x="2363.51" y="-164.5" font-family="sans" font-size="10.00">metric: curvature</text>
</g>
<!-- 122&#45;&gt;140 -->
<g id="edge78" class="edge">
<title>122&#45;&gt;140</title>
<path fill="none" stroke="grey" stroke-width="2" d="M2384.39,-231.48C2381.06,-222.25 2376.87,-210.62 2373.13,-200.21"/>
<polygon fill="grey" stroke="grey" stroke-width="2" points="2376.39,-198.93 2369.71,-190.71 2369.8,-201.31 2376.39,-198.93"/>
</g>
<!-- 140&#45;&gt;101 -->
<g id="edge93" class="edge">
<title>140&#45;&gt;101</title>
<path fill="none" stroke="grey" stroke-width="2" d="M2384.6,-154.32C2396.24,-144.84 2410.87,-132.93 2423.56,-122.58"/>
<polygon fill="grey" stroke="grey" stroke-width="2" points="2426.03,-125.09 2431.57,-116.06 2421.61,-119.66 2426.03,-125.09"/>
</g>
<!-- 140&#45;&gt;143 -->
<g id="edge94" class="edge">
<title>140&#45;&gt;143</title>
<path fill="none" stroke="grey" stroke-width="2" d="M2302.46,-154.41C2264.33,-143.74 2215.08,-129.95 2175.25,-118.8"/>
<polygon fill="grey" stroke="grey" stroke-width="2" points="2176.17,-115.43 2165.6,-116.1 2174.29,-122.17 2176.17,-115.43"/>
</g>
<!-- 143&#45;&gt;100 -->
<g id="edge98" class="edge">
<title>143&#45;&gt;100</title>
<path fill="none" stroke="grey" stroke-width="2" d="M2147.57,-79.88C2171.84,-70.22 2202.35,-58.09 2228.02,-47.88"/>
<polygon fill="grey" stroke="grey" stroke-width="2" points="2229.6,-51.02 2237.6,-44.07 2227.01,-44.51 2229.6,-51.02"/>
</g>
<!-- 125 -->
<g id="node65" class="node">
<title>125</title>
<path fill="none" stroke="#566bd8" stroke-width="2" d="M1909.01,-267.5C1909.01,-267.5 1812.01,-267.5 1812.01,-267.5 1806.01,-267.5 1800.01,-261.5 1800.01,-255.5 1800.01,-255.5 1800.01,-243.5 1800.01,-243.5 1800.01,-237.5 1806.01,-231.5 1812.01,-231.5 1812.01,-231.5 1909.01,-231.5 1909.01,-231.5 1915.01,-231.5 1921.01,-237.5 1921.01,-243.5 1921.01,-243.5 1921.01,-255.5 1921.01,-255.5 1921.01,-261.5 1915.01,-267.5 1909.01,-267.5"/>
<text text-anchor="middle" x="1860.51" y="-247" font-family="sans" font-size="10.00">calculate_gyrification</text>
</g>
<!-- 125&#45;&gt;124 -->
<g id="edge82" class="edge">
<title>125&#45;&gt;124</title>
<path fill="none" stroke="grey" stroke-width="2" d="M1920.77,-231.44C1924.06,-230.59 1927.32,-229.77 1930.51,-229 1991.35,-214.22 2060.57,-199.9 2113.29,-189.51"/>
<polygon fill="grey" stroke="grey" stroke-width="2" points="2114.13,-192.91 2123.27,-187.55 2112.78,-186.04 2114.13,-192.91"/>
</g>
<!-- 125&#45;&gt;143 -->
<g id="edge83" class="edge">
<title>125&#45;&gt;143</title>
<path fill="none" stroke="grey" stroke-width="2" d="M1888.5,-231.35C1932.69,-204.27 2018.64,-151.61 2067.75,-121.52"/>
<polygon fill="grey" stroke="grey" stroke-width="2" points="2069.78,-124.39 2076.47,-116.18 2066.12,-118.42 2069.78,-124.39"/>
</g>
<!-- 126 -->
<g id="node66" class="node">
<title>126</title>
<path fill="none" stroke="#56d89a" stroke-width="2" d="M1917.01,-342C1917.01,-342 1812.01,-342 1812.01,-342 1806.01,-342 1800.01,-336 1800.01,-330 1800.01,-330 1800.01,-318 1800.01,-318 1800.01,-312 1806.01,-306 1812.01,-306 1812.01,-306 1917.01,-306 1917.01,-306 1923.01,-306 1929.01,-312 1929.01,-318 1929.01,-318 1929.01,-330 1929.01,-330 1929.01,-336 1923.01,-342 1917.01,-342"/>
<text text-anchor="middle" x="1864.51" y="-327" font-family="sans" font-size="10.00">calculate_surface_area</text>
<text text-anchor="middle" x="1864.51" y="-316" font-family="sans" font-size="10.00">space: T2w</text>
</g>
<!-- 126&#45;&gt;125 -->
<g id="edge84" class="edge">
<title>126&#45;&gt;125</title>
<path fill="none" stroke="grey" stroke-width="2" d="M1863.56,-305.82C1863.1,-297.42 1862.53,-287.12 1862.01,-277.69"/>
<polygon fill="grey" stroke="grey" stroke-width="2" points="1865.5,-277.35 1861.45,-267.56 1858.51,-277.74 1865.5,-277.35"/>
</g>
<!-- 127 -->
<g id="node67" class="node">
<title>127</title>
<path fill="none" stroke="#56c1d8" stroke-width="2" d="M1907.01,-414C1907.01,-414 1822.01,-414 1822.01,-414 1816.01,-414 1810.01,-408 1810.01,-402 1810.01,-402 1810.01,-390 1810.01,-390 1810.01,-384 1816.01,-378 1822.01,-378 1822.01,-378 1907.01,-378 1907.01,-378 1913.01,-378 1919.01,-384 1919.01,-390 1919.01,-390 1919.01,-402 1919.01,-402 1919.01,-408 1913.01,-414 1907.01,-414"/>
<text text-anchor="middle" x="1864.51" y="-393.5" font-family="sans" font-size="10.00">warp_gii_to_native</text>
</g>
<!-- 127&#45;&gt;143 -->
<g id="edge87" class="edge">
<title>127&#45;&gt;143</title>
<path fill="none" stroke="grey" stroke-width="2" d="M1828,-377.92C1813.91,-369.29 1799.34,-357.35 1791.51,-342 1768.7,-297.26 1764.94,-271.62 1791.51,-229 1841.11,-149.43 1950.23,-118.55 2025.56,-106.57"/>
<polygon fill="grey" stroke="grey" stroke-width="2" points="2026.13,-110.03 2035.49,-105.07 2025.08,-103.11 2026.13,-110.03"/>
</g>
<!-- 127&#45;&gt;126 -->
<g id="edge85" class="edge">
<title>127&#45;&gt;126</title>
<path fill="none" stroke="grey" stroke-width="2" d="M1864.51,-377.7C1864.51,-369.98 1864.51,-360.71 1864.51,-352.11"/>
<polygon fill="grey" stroke="grey" stroke-width="2" points="1868.01,-352.1 1864.51,-342.1 1861.01,-352.1 1868.01,-352.1"/>
</g>
<!-- 142 -->
<g id="node68" class="node">
<title>142</title>
<path fill="none" stroke="#59d856" stroke-width="2" d="M2048.01,-342C2048.01,-342 1977.01,-342 1977.01,-342 1971.01,-342 1965.01,-336 1965.01,-330 1965.01,-330 1965.01,-318 1965.01,-318 1965.01,-312 1971.01,-306 1977.01,-306 1977.01,-306 2048.01,-306 2048.01,-306 2054.01,-306 2060.01,-312 2060.01,-318 2060.01,-318 2060.01,-330 2060.01,-330 2060.01,-336 2054.01,-342 2048.01,-342"/>
<text text-anchor="middle" x="2012.51" y="-327" font-family="sans" font-size="10.00">smooth_surface</text>
<text text-anchor="middle" x="2012.51" y="-316" font-family="sans" font-size="10.00">space: T2w</text>
</g>
<!-- 127&#45;&gt;142 -->
<g id="edge86" class="edge">
<title>127&#45;&gt;142</title>
<path fill="none" stroke="grey" stroke-width="2" d="M1900.72,-377.88C1920.77,-368.39 1945.88,-356.51 1967.23,-346.42"/>
<polygon fill="grey" stroke="grey" stroke-width="2" points="1968.88,-349.51 1976.42,-342.07 1965.89,-343.18 1968.88,-349.51"/>
</g>
<!-- 141 -->
<g id="node73" class="node">
<title>141</title>
<path fill="none" stroke="#56d863" stroke-width="2" d="M2109.51,-267.5C2109.51,-267.5 1951.51,-267.5 1951.51,-267.5 1945.51,-267.5 1939.51,-261.5 1939.51,-255.5 1939.51,-255.5 1939.51,-243.5 1939.51,-243.5 1939.51,-237.5 1945.51,-231.5 1951.51,-231.5 1951.51,-231.5 2109.51,-231.5 2109.51,-231.5 2115.51,-231.5 2121.51,-237.5 2121.51,-243.5 2121.51,-243.5 2121.51,-255.5 2121.51,-255.5 2121.51,-261.5 2115.51,-267.5 2109.51,-267.5"/>
<text text-anchor="middle" x="2030.51" y="-247" font-family="sans" font-size="10.00">calculate_curvature_from_surface</text>
</g>
<!-- 142&#45;&gt;141 -->
<g id="edge97" class="edge">
<title>142&#45;&gt;141</title>
<path fill="none" stroke="grey" stroke-width="2" d="M2016.78,-305.82C2018.88,-297.33 2021.48,-286.89 2023.84,-277.38"/>
<polygon fill="grey" stroke="grey" stroke-width="2" points="2027.26,-278.11 2026.28,-267.56 2020.47,-276.42 2027.26,-278.11"/>
</g>
<!-- 128 -->
<g id="node69" class="node">
<title>128</title>
<path fill="none" stroke="#56d85b" stroke-width="2" d="M2010.51,-486C2010.51,-486 1916.51,-486 1916.51,-486 1910.51,-486 1904.51,-480 1904.51,-474 1904.51,-474 1904.51,-462 1904.51,-462 1904.51,-456 1910.51,-450 1916.51,-450 1916.51,-450 2010.51,-450 2010.51,-450 2016.51,-450 2022.51,-456 2022.51,-462 2022.51,-462 2022.51,-474 2022.51,-474 2022.51,-480 2016.51,-486 2010.51,-486"/>
<text text-anchor="middle" x="1963.51" y="-465.5" font-family="sans" font-size="10.00">correct_nan_vertices</text>
</g>
<!-- 128&#45;&gt;127 -->
<g id="edge88" class="edge">
<title>128&#45;&gt;127</title>
<path fill="none" stroke="grey" stroke-width="2" d="M1939.29,-449.88C1926.59,-440.89 1910.85,-429.76 1897.09,-420.03"/>
<polygon fill="grey" stroke="grey" stroke-width="2" points="1899.01,-417.11 1888.82,-414.19 1894.97,-422.82 1899.01,-417.11"/>
</g>
<!-- 129 -->
<g id="node70" class="node">
<title>129</title>
<path fill="none" stroke="#56d86b" stroke-width="2" d="M2309.01,-558C2309.01,-558 2202.01,-558 2202.01,-558 2196.01,-558 2190.01,-552 2190.01,-546 2190.01,-546 2190.01,-534 2190.01,-534 2190.01,-528 2196.01,-522 2202.01,-522 2202.01,-522 2309.01,-522 2309.01,-522 2315.01,-522 2321.01,-528 2321.01,-534 2321.01,-534 2321.01,-546 2321.01,-546 2321.01,-552 2315.01,-558 2309.01,-558"/>
<text text-anchor="middle" x="2255.51" y="-537.5" font-family="sans" font-size="10.00">warp_gii_unfold2native</text>
</g>
<!-- 129&#45;&gt;128 -->
<g id="edge89" class="edge">
<title>129&#45;&gt;128</title>
<path fill="none" stroke="grey" stroke-width="2" d="M2189.98,-523.29C2143.2,-512.08 2080.39,-497.02 2032.79,-485.61"/>
<polygon fill="grey" stroke="grey" stroke-width="2" points="2033.41,-482.16 2022.87,-483.23 2031.78,-488.96 2033.41,-482.16"/>
</g>
<!-- 138 -->
<g id="node71" class="node">
<title>138</title>
<path fill="none" stroke="#68d856" stroke-width="2" d="M2308.51,-649C2308.51,-649 2202.51,-649 2202.51,-649 2196.51,-649 2190.51,-643 2190.51,-637 2190.51,-637 2190.51,-625 2190.51,-625 2190.51,-619 2196.51,-613 2202.51,-613 2202.51,-613 2308.51,-613 2308.51,-613 2314.51,-613 2320.51,-619 2320.51,-625 2320.51,-625 2320.51,-637 2320.51,-637 2320.51,-643 2314.51,-649 2308.51,-649"/>
<text text-anchor="middle" x="2255.51" y="-628.5" font-family="sans" font-size="10.00">constrain_surf_to_bbox</text>
</g>
<!-- 138&#45;&gt;129 -->
<g id="edge90" class="edge">
<title>138&#45;&gt;129</title>
<path fill="none" stroke="grey" stroke-width="2" d="M2255.51,-612.84C2255.51,-600.28 2255.51,-582.98 2255.51,-568.5"/>
<polygon fill="grey" stroke="grey" stroke-width="2" points="2259.01,-568.11 2255.51,-558.11 2252.01,-568.11 2259.01,-568.11"/>
</g>
<!-- 139 -->
<g id="node72" class="node">
<title>139</title>
<path fill="none" stroke="#b6d856" stroke-width="2" d="M2252.51,-778C2252.51,-778 2142.51,-778 2142.51,-778 2136.51,-778 2130.51,-772 2130.51,-766 2130.51,-766 2130.51,-716 2130.51,-716 2130.51,-710 2136.51,-704 2142.51,-704 2142.51,-704 2252.51,-704 2252.51,-704 2258.51,-704 2264.51,-710 2264.51,-716 2264.51,-716 2264.51,-766 2264.51,-766 2264.51,-772 2258.51,-778 2252.51,-778"/>
<text text-anchor="middle" x="2197.51" y="-766" font-family="sans" font-size="10.00">cp_template_to_unfold</text>
<text text-anchor="middle" x="2197.51" y="-755" font-family="sans" font-size="10.00">autotop: dentate</text>
<text text-anchor="middle" x="2197.51" y="-744" font-family="sans" font-size="10.00">density: 0p5mm</text>
<text text-anchor="middle" x="2197.51" y="-733" font-family="sans" font-size="10.00">hemi: R</text>
<text text-anchor="middle" x="2197.51" y="-722" font-family="sans" font-size="10.00">subject: 001</text>
<text text-anchor="middle" x="2197.51" y="-711" font-family="sans" font-size="10.00">surfname: midthickness</text>
</g>
<!-- 139&#45;&gt;143 -->
<g id="edge92" class="edge">
<title>139&#45;&gt;143</title>
<path fill="none" stroke="grey" stroke-width="2" d="M2180.56,-703.85C2163.76,-664.63 2140.51,-599.76 2140.51,-541 2140.51,-541 2140.51,-541 2140.51,-323 2140.51,-280.99 2141.4,-269.58 2130.51,-229 2125.97,-212.09 2119.05,-209.91 2114.51,-193 2108.62,-171.03 2106.18,-145.31 2105.17,-126.32"/>
<polygon fill="grey" stroke="grey" stroke-width="2" points="2108.67,-126.12 2104.74,-116.27 2101.67,-126.41 2108.67,-126.12"/>
</g>
<!-- 139&#45;&gt;138 -->
<g id="edge91" class="edge">
<title>139&#45;&gt;138</title>
<path fill="none" stroke="grey" stroke-width="2" d="M2216.99,-703.74C2225.01,-688.8 2234.12,-671.83 2241.47,-658.14"/>
<polygon fill="grey" stroke="grey" stroke-width="2" points="2244.6,-659.72 2246.24,-649.26 2238.43,-656.41 2244.6,-659.72"/>
</g>
<!-- 141&#45;&gt;140 -->
<g id="edge95" class="edge">
<title>141&#45;&gt;140</title>
<path fill="none" stroke="grey" stroke-width="2" d="M2108.27,-231.5C2157.64,-220.64 2222.87,-206.17 2280.51,-193 2280.73,-192.95 2280.94,-192.9 2281.16,-192.85"/>
<polygon fill="grey" stroke="grey" stroke-width="2" points="2282.13,-196.22 2291.1,-190.57 2280.57,-189.4 2282.13,-196.22"/>
</g>
<!-- 141&#45;&gt;143 -->
<g id="edge96" class="edge">
<title>141&#45;&gt;143</title>
<path fill="none" stroke="grey" stroke-width="2" d="M2039,-231.35C2051.81,-205.47 2076.2,-156.2 2091.33,-125.63"/>
<polygon fill="grey" stroke="grey" stroke-width="2" points="2094.59,-126.92 2095.89,-116.41 2088.32,-123.82 2094.59,-126.92"/>
</g>
<!-- 8 -->
<g id="node74" class="node">
<title>8</title>
<path fill="none" stroke="#56b9d8" stroke-width="2" d="M291.51,-649C291.51,-649 207.51,-649 207.51,-649 201.51,-649 195.51,-643 195.51,-637 195.51,-637 195.51,-625 195.51,-625 195.51,-619 201.51,-613 207.51,-613 207.51,-613 291.51,-613 291.51,-613 297.51,-613 303.51,-619 303.51,-625 303.51,-625 303.51,-637 303.51,-637 303.51,-643 297.51,-649 291.51,-649"/>
<text text-anchor="middle" x="249.51" y="-628.5" font-family="sans" font-size="10.00">create_warps_hipp</text>
</g>
<!-- 8&#45;&gt;7 -->
<g id="edge99" class="edge">
<title>8&#45;&gt;7</title>
<path fill="none" stroke="grey" stroke-width="2" d="M271.06,-612.91C281.46,-605.67 294.48,-598 307.51,-594 498.01,-535.53 1004.96,-574.94 1203.51,-558 1221.05,-556.5 1239.85,-554.36 1257.56,-552.1"/>
<polygon fill="grey" stroke="grey" stroke-width="2" points="1258.37,-555.52 1267.84,-550.76 1257.47,-548.58 1258.37,-555.52"/>
</g>
<!-- 8&#45;&gt;50 -->
<g id="edge100" class="edge">
<title>8&#45;&gt;50</title>
<path fill="none" stroke="grey" stroke-width="2" d="M258.47,-612.79C272.57,-587.76 302.48,-542.08 342.51,-522 444.66,-470.76 741.93,-498.66 855.51,-486 866.9,-484.73 878.91,-483.15 890.66,-481.46"/>
<polygon fill="grey" stroke="grey" stroke-width="2" points="891.51,-484.88 900.89,-479.96 890.49,-477.95 891.51,-484.88"/>
</g>
<!-- 8&#45;&gt;55 -->
<g id="edge101" class="edge">
<title>8&#45;&gt;55</title>
<path fill="none" stroke="grey" stroke-width="2" d="M269.09,-612.62C298.9,-587.37 358.55,-541.42 418.51,-522 550.44,-479.28 903.91,-503.19 1041.51,-486 1045.48,-485.5 1049.54,-484.94 1053.63,-484.32"/>
<polygon fill="grey" stroke="grey" stroke-width="2" points="1054.51,-487.72 1063.83,-482.68 1053.4,-480.81 1054.51,-487.72"/>
</g>
<!-- 9 -->
<g id="node75" class="node">
<title>9</title>
<path fill="none" stroke="#8fd856" stroke-width="2" d="M291.51,-761.5C291.51,-761.5 213.51,-761.5 213.51,-761.5 207.51,-761.5 201.51,-755.5 201.51,-749.5 201.51,-749.5 201.51,-732.5 201.51,-732.5 201.51,-726.5 207.51,-720.5 213.51,-720.5 213.51,-720.5 291.51,-720.5 291.51,-720.5 297.51,-720.5 303.51,-726.5 303.51,-732.5 303.51,-732.5 303.51,-749.5 303.51,-749.5 303.51,-755.5 297.51,-761.5 291.51,-761.5"/>
<text text-anchor="middle" x="252.51" y="-749.5" font-family="sans" font-size="10.00">create_unfold_ref</text>
<text text-anchor="middle" x="252.51" y="-738.5" font-family="sans" font-size="10.00">autotop: hipp</text>
<text text-anchor="middle" x="252.51" y="-727.5" font-family="sans" font-size="10.00">subject: 001</text>
</g>
<!-- 9&#45;&gt;42 -->
<g id="edge103" class="edge">
<title>9&#45;&gt;42</title>
<path fill="none" stroke="grey" stroke-width="2" d="M276.24,-720.44C285.44,-713.98 296.42,-707.55 307.51,-704 500.06,-642.41 1017.23,-702.01 1216.51,-668 1237.03,-664.5 1258.98,-658.41 1278.25,-652.22"/>
<polygon fill="grey" stroke="grey" stroke-width="2" points="1279.37,-655.53 1287.78,-649.08 1277.18,-648.89 1279.37,-655.53"/>
</g>
<!-- 9&#45;&gt;51 -->
<g id="edge104" class="edge">
<title>9&#45;&gt;51</title>
<path fill="none" stroke="grey" stroke-width="2" d="M280.86,-720.34C289.29,-714.8 298.64,-708.94 307.51,-704 340.51,-685.61 356.14,-692.94 384.51,-668 413.77,-642.28 398.17,-614.16 431.51,-594 514.32,-543.92 769.49,-570.04 865.51,-558 873.88,-556.95 882.62,-555.71 891.3,-554.38"/>
<polygon fill="grey" stroke="grey" stroke-width="2" points="892.1,-557.79 901.43,-552.78 891.01,-550.88 892.1,-557.79"/>
</g>
<!-- 9&#45;&gt;56 -->
<g id="edge105" class="edge">
<title>9&#45;&gt;56</title>
<path fill="none" stroke="grey" stroke-width="2" d="M279.35,-720.33C288.04,-714.54 297.92,-708.55 307.51,-704 355.52,-681.24 377.23,-697.37 421.51,-668 457.51,-644.12 445.91,-613.37 484.51,-594 595.17,-538.47 917.69,-573.65 1040.51,-558 1044.93,-557.44 1049.46,-556.79 1054.03,-556.09"/>
<polygon fill="grey" stroke="grey" stroke-width="2" points="1054.73,-559.52 1064.04,-554.46 1053.61,-552.61 1054.73,-559.52"/>
</g>
<!-- 9&#45;&gt;59 -->
<g id="edge106" class="edge">
<title>9&#45;&gt;59</title>
<path fill="none" stroke="grey" stroke-width="2" d="M201.35,-735.05C157.07,-727.91 94.88,-710.48 60.51,-668 24.61,-623.63 41.51,-598.07 41.51,-541 41.51,-541 41.51,-541 41.51,-395 41.51,-222.84 248.16,-330.91 418.51,-306 685.69,-266.93 760.42,-309.85 1031.3,-270.02"/>
<polygon fill="grey" stroke="grey" stroke-width="2" points="1032.06,-273.45 1041.43,-268.51 1031.03,-266.52 1032.06,-273.45"/>
</g>
<!-- 9&#45;&gt;80 -->
<g id="edge108" class="edge">
<title>9&#45;&gt;80</title>
<path fill="none" stroke="grey" stroke-width="2" d="M276.58,-720.47C285.74,-714.1 296.6,-707.71 307.51,-704 505.42,-636.63 574.74,-722.69 776.51,-668 788.79,-664.67 801.49,-659.3 812.82,-653.71"/>
<polygon fill="grey" stroke="grey" stroke-width="2" points="814.68,-656.69 821.98,-649.01 811.48,-650.46 814.68,-656.69"/>
</g>
<!-- 9&#45;&gt;90 -->
<g id="edge109" class="edge">
<title>9&#45;&gt;90</title>
<path fill="none" stroke="grey" stroke-width="2" d="M283.95,-720.49C303.68,-707.26 328.83,-688.49 347.51,-668 373.6,-639.38 361.77,-616.18 393.51,-594 457.89,-549.02 489.77,-574.68 566.51,-558 566.61,-557.98 566.72,-557.96 566.82,-557.93"/>
<polygon fill="grey" stroke="grey" stroke-width="2" points="567.47,-561.37 576.48,-555.81 565.97,-554.54 567.47,-561.37"/>
</g>
<!-- 9&#45;&gt;95 -->
<g id="edge110" class="edge">
<title>9&#45;&gt;95</title>
<path fill="none" stroke="grey" stroke-width="2" d="M270.53,-720.24C282.97,-706.16 299.54,-686.53 312.51,-668 334.32,-636.83 326.58,-618.7 355.51,-594 373.33,-578.78 396.02,-567.66 417.77,-559.65"/>
<polygon fill="grey" stroke="grey" stroke-width="2" points="419.07,-562.91 427.35,-556.3 416.76,-556.3 419.07,-562.91"/>
</g>
<!-- 9&#45;&gt;99 -->
<g id="edge111" class="edge">
<title>9&#45;&gt;99</title>
<path fill="none" stroke="grey" stroke-width="2" d="M201.1,-738.1C149.45,-733.29 71.38,-717.63 27.51,-668 -10.54,-624.96 3.51,-598.44 3.51,-541 3.51,-541 3.51,-541 3.51,-395 3.51,-354.03 -2.93,-333.42 27.51,-306 65.6,-271.7 203.45,-258.5 293.24,-253.5"/>
<polygon fill="grey" stroke="grey" stroke-width="2" points="293.6,-256.98 303.39,-252.95 293.22,-249.99 293.6,-256.98"/>
</g>
<!-- 9&#45;&gt;8 -->
<g id="edge102" class="edge">
<title>9&#45;&gt;8</title>
<path fill="none" stroke="grey" stroke-width="2" d="M251.97,-720.44C251.49,-703.39 250.8,-678.48 250.27,-659.43"/>
<polygon fill="grey" stroke="grey" stroke-width="2" points="253.77,-659.17 249.99,-649.27 246.77,-659.37 253.77,-659.17"/>
</g>
<!-- 66 -->
<g id="node76" class="node">
<title>66</title>
<path fill="none" stroke="#56b9d8" stroke-width="2" d="M165.51,-649C165.51,-649 81.51,-649 81.51,-649 75.51,-649 69.51,-643 69.51,-637 69.51,-637 69.51,-625 69.51,-625 69.51,-619 75.51,-613 81.51,-613 81.51,-613 165.51,-613 165.51,-613 171.51,-613 177.51,-619 177.51,-625 177.51,-625 177.51,-637 177.51,-637 177.51,-643 171.51,-649 165.51,-649"/>
<text text-anchor="middle" x="123.51" y="-628.5" font-family="sans" font-size="10.00">create_warps_hipp</text>
</g>
<!-- 9&#45;&gt;66 -->
<g id="edge107" class="edge">
<title>9&#45;&gt;66</title>
<path fill="none" stroke="grey" stroke-width="2" d="M229.15,-720.44C207.46,-702.28 175.11,-675.2 151.93,-655.79"/>
<polygon fill="grey" stroke="grey" stroke-width="2" points="154.06,-653.01 144.15,-649.27 149.57,-658.38 154.06,-653.01"/>
</g>
<!-- 66&#45;&gt;65 -->
<g id="edge120" class="edge">
<title>66&#45;&gt;65</title>
<path fill="none" stroke="grey" stroke-width="2" d="M147.47,-612.89C158.77,-605.75 172.77,-598.16 186.51,-594 408.89,-526.78 480.32,-590.3 714.57,-557.96"/>
<polygon fill="grey" stroke="grey" stroke-width="2" points="715.36,-561.38 724.77,-556.51 714.38,-554.45 715.36,-561.38"/>
</g>
<!-- 66&#45;&gt;89 -->
<g id="edge121" class="edge">
<title>66&#45;&gt;89</title>
<path fill="none" stroke="grey" stroke-width="2" d="M138.96,-612.6C162.17,-587.75 208.65,-542.81 258.51,-522 383.12,-470 429.1,-507.65 565.82,-486.14"/>
<polygon fill="grey" stroke="grey" stroke-width="2" points="566.52,-489.57 575.82,-484.49 565.38,-482.66 566.52,-489.57"/>
</g>
<!-- 66&#45;&gt;94 -->
<g id="edge122" class="edge">
<title>66&#45;&gt;94</title>
<path fill="none" stroke="grey" stroke-width="2" d="M129.81,-612.97C139.77,-588.59 161.58,-544.22 195.51,-522 231.11,-498.7 341.13,-483.63 416.78,-475.72"/>
<polygon fill="grey" stroke="grey" stroke-width="2" points="417.16,-479.2 426.76,-474.7 416.45,-472.24 417.16,-479.2"/>
</g>
<!-- 44 -->
<g id="node77" class="node">
<title>44</title>
<path fill="none" stroke="#97d856" stroke-width="2" d="M292.01,-486C292.01,-486 191.01,-486 191.01,-486 185.01,-486 179.01,-480 179.01,-474 179.01,-474 179.01,-462 179.01,-462 179.01,-456 185.01,-450 191.01,-450 191.01,-450 292.01,-450 292.01,-450 298.01,-450 304.01,-456 304.01,-462 304.01,-462 304.01,-474 304.01,-474 304.01,-480 298.01,-486 292.01,-486"/>
<text text-anchor="middle" x="241.51" y="-471" font-family="sans" font-size="10.00">template_xfm_itk2ras</text>
<text text-anchor="middle" x="241.51" y="-460" font-family="sans" font-size="10.00">native_modality: T2w</text>
</g>
<!-- 44&#45;&gt;5 -->
<g id="edge112" class="edge">
<title>44&#45;&gt;5</title>
<path fill="none" stroke="grey" stroke-width="2" d="M304.33,-450.49C305.4,-450.32 306.46,-450.16 307.51,-450 702.69,-391.86 806.65,-435.29 1205.51,-414 1270.31,-410.54 1344.3,-405.49 1395.82,-401.79"/>
<polygon fill="grey" stroke="grey" stroke-width="2" points="1396.1,-405.28 1405.82,-401.07 1395.59,-398.3 1396.1,-405.28"/>
</g>
<!-- 44&#45;&gt;48 -->
<g id="edge113" class="edge">
<title>44&#45;&gt;48</title>
<path fill="none" stroke="grey" stroke-width="2" d="M265.25,-449.91C279.56,-439.57 298.13,-426.09 314.51,-414 335.97,-398.17 337.48,-387.2 362.51,-378 483.53,-333.54 809.46,-361.9 953.62,-342.02"/>
<polygon fill="grey" stroke="grey" stroke-width="2" points="954.31,-345.45 963.68,-340.5 953.27,-338.53 954.31,-345.45"/>
</g>
<!-- 44&#45;&gt;53 -->
<g id="edge114" class="edge">
<title>44&#45;&gt;53</title>
<path fill="none" stroke="grey" stroke-width="2" d="M278.79,-449.89C300.46,-439.77 328.21,-426.52 352.51,-414 381.87,-398.88 385.77,-387.12 417.51,-378 698.78,-297.14 788.24,-386.75 1080.64,-342.09"/>
<polygon fill="grey" stroke="grey" stroke-width="2" points="1081.35,-345.53 1090.68,-340.52 1080.26,-338.61 1081.35,-345.53"/>
</g>
<!-- 44&#45;&gt;63 -->
<g id="edge115" class="edge">
<title>44&#45;&gt;63</title>
<path fill="none" stroke="grey" stroke-width="2" d="M304.34,-450.57C305.41,-450.37 306.46,-450.18 307.51,-450 472.3,-421.2 519.84,-443.12 688.85,-413.92"/>
<polygon fill="grey" stroke="grey" stroke-width="2" points="689.59,-417.34 698.83,-412.16 688.38,-410.45 689.59,-417.34"/>
</g>
<!-- 44&#45;&gt;87 -->
<g id="edge116" class="edge">
<title>44&#45;&gt;87</title>
<path fill="none" stroke="grey" stroke-width="2" d="M251.8,-449.7C265.1,-429 290.32,-395 321.51,-378 407.28,-331.26 444.57,-361.15 544.13,-342.09"/>
<polygon fill="grey" stroke="grey" stroke-width="2" points="544.86,-345.52 553.96,-340.09 543.46,-338.66 544.86,-345.52"/>
</g>
<!-- 44&#45;&gt;92 -->
<g id="edge117" class="edge">
<title>44&#45;&gt;92</title>
<path fill="none" stroke="grey" stroke-width="2" d="M243.76,-449.94C247.33,-429.8 256.22,-396.69 277.51,-378 315.79,-344.41 372.73,-331.68 416.74,-327.05"/>
<polygon fill="grey" stroke="grey" stroke-width="2" points="417.14,-330.53 426.77,-326.11 416.49,-323.56 417.14,-330.53"/>
</g>
<!-- 44&#45;&gt;104 -->
<g id="edge118" class="edge">
<title>44&#45;&gt;104</title>
<path fill="none" stroke="grey" stroke-width="2" d="M304.33,-450.47C305.39,-450.3 306.46,-450.15 307.51,-450 664.44,-400.74 1568.36,-424.62 1928.51,-414 2070.12,-409.82 2236.09,-403.32 2325.5,-399.69"/>
<polygon fill="grey" stroke="grey" stroke-width="2" points="2325.91,-403.18 2335.76,-399.27 2325.62,-396.18 2325.91,-403.18"/>
</g>
<!-- 44&#45;&gt;127 -->
<g id="edge119" class="edge">
<title>44&#45;&gt;127</title>
<path fill="none" stroke="grey" stroke-width="2" d="M304.33,-450.48C305.4,-450.31 306.46,-450.15 307.51,-450 575.4,-412.02 1254.16,-424.76 1524.51,-414 1620.28,-410.19 1731.16,-404.38 1799.57,-400.64"/>
<polygon fill="grey" stroke="grey" stroke-width="2" points="1799.97,-404.12 1809.76,-400.08 1799.59,-397.14 1799.97,-404.12"/>
</g>
<!-- 107 -->
<g id="node78" class="node">
<title>107</title>
<path fill="none" stroke="#56d8b1" stroke-width="2" d="M2794.01,-649C2794.01,-649 2693.01,-649 2693.01,-649 2687.01,-649 2681.01,-643 2681.01,-637 2681.01,-637 2681.01,-625 2681.01,-625 2681.01,-619 2687.01,-613 2693.01,-613 2693.01,-613 2794.01,-613 2794.01,-613 2800.01,-613 2806.01,-619 2806.01,-625 2806.01,-625 2806.01,-637 2806.01,-637 2806.01,-643 2800.01,-649 2794.01,-649"/>
<text text-anchor="middle" x="2743.51" y="-628.5" font-family="sans" font-size="10.00">create_warps_dentate</text>
</g>
<!-- 107&#45;&gt;106 -->
<g id="edge123" class="edge">
<title>107&#45;&gt;106</title>
<path fill="none" stroke="grey" stroke-width="2" d="M2713.45,-612.83C2701.06,-606.26 2686.38,-599.13 2672.51,-594 2626.72,-577.06 2573.48,-563.96 2531.2,-555.02"/>
<polygon fill="grey" stroke="grey" stroke-width="2" points="2531.75,-551.56 2521.25,-552.95 2530.33,-558.42 2531.75,-551.56"/>
</g>
<!-- 108 -->
<g id="node79" class="node">
<title>108</title>
<path fill="none" stroke="#8fd856" stroke-width="2" d="M2625.51,-761.5C2625.51,-761.5 2547.51,-761.5 2547.51,-761.5 2541.51,-761.5 2535.51,-755.5 2535.51,-749.5 2535.51,-749.5 2535.51,-732.5 2535.51,-732.5 2535.51,-726.5 2541.51,-720.5 2547.51,-720.5 2547.51,-720.5 2625.51,-720.5 2625.51,-720.5 2631.51,-720.5 2637.51,-726.5 2637.51,-732.5 2637.51,-732.5 2637.51,-749.5 2637.51,-749.5 2637.51,-755.5 2631.51,-761.5 2625.51,-761.5"/>
<text text-anchor="middle" x="2586.51" y="-749.5" font-family="sans" font-size="10.00">create_unfold_ref</text>
<text text-anchor="middle" x="2586.51" y="-738.5" font-family="sans" font-size="10.00">autotop: dentate</text>
<text text-anchor="middle" x="2586.51" y="-727.5" font-family="sans" font-size="10.00">subject: 001</text>
</g>
<!-- 108&#45;&gt;120 -->
<g id="edge125" class="edge">
<title>108&#45;&gt;120</title>
<path fill="none" stroke="grey" stroke-width="2" d="M2562.61,-720.44C2540.41,-702.28 2507.31,-675.2 2483.59,-655.79"/>
<polygon fill="grey" stroke="grey" stroke-width="2" points="2485.58,-652.9 2475.62,-649.27 2481.15,-658.32 2485.58,-652.9"/>
</g>
<!-- 108&#45;&gt;138 -->
<g id="edge127" class="edge">
<title>108&#45;&gt;138</title>
<path fill="none" stroke="grey" stroke-width="2" d="M2557.31,-720.44C2547.51,-714.52 2536.32,-708.42 2525.51,-704 2464.05,-678.86 2444.65,-685.19 2380.51,-668 2361.66,-662.95 2341.29,-657.2 2322.57,-651.81"/>
<polygon fill="grey" stroke="grey" stroke-width="2" points="2323.53,-648.44 2312.95,-649.03 2321.58,-655.17 2323.53,-648.44"/>
</g>
<!-- 108&#45;&gt;107 -->
<g id="edge124" class="edge">
<title>108&#45;&gt;107</title>
<path fill="none" stroke="grey" stroke-width="2" d="M2614.94,-720.44C2641.77,-701.99 2681.99,-674.32 2710.28,-654.86"/>
<polygon fill="grey" stroke="grey" stroke-width="2" points="2712.4,-657.65 2718.65,-649.1 2708.43,-651.88 2712.4,-657.65"/>
</g>
<!-- 130 -->
<g id="node80" class="node">
<title>130</title>
<path fill="none" stroke="#56d8b1" stroke-width="2" d="M2651.01,-649C2651.01,-649 2550.01,-649 2550.01,-649 2544.01,-649 2538.01,-643 2538.01,-637 2538.01,-637 2538.01,-625 2538.01,-625 2538.01,-619 2544.01,-613 2550.01,-613 2550.01,-613 2651.01,-613 2651.01,-613 2657.01,-613 2663.01,-619 2663.01,-625 2663.01,-625 2663.01,-637 2663.01,-637 2663.01,-643 2657.01,-649 2651.01,-649"/>
<text text-anchor="middle" x="2600.51" y="-628.5" font-family="sans" font-size="10.00">create_warps_dentate</text>
</g>
<!-- 108&#45;&gt;130 -->
<g id="edge126" class="edge">
<title>108&#45;&gt;130</title>
<path fill="none" stroke="grey" stroke-width="2" d="M2589.05,-720.44C2591.26,-703.39 2594.49,-678.48 2596.96,-659.43"/>
<polygon fill="grey" stroke="grey" stroke-width="2" points="2600.46,-659.64 2598.27,-649.27 2593.52,-658.74 2600.46,-659.64"/>
</g>
<!-- 130&#45;&gt;129 -->
<g id="edge128" class="edge">
<title>130&#45;&gt;129</title>
<path fill="none" stroke="grey" stroke-width="2" d="M2569.5,-612.93C2556.27,-606.23 2540.45,-598.96 2525.51,-594 2461.49,-572.74 2385.95,-558.81 2331.07,-550.59"/>
<polygon fill="grey" stroke="grey" stroke-width="2" points="2331.48,-547.11 2321.07,-549.12 2330.46,-554.03 2331.48,-547.11"/>
</g>
</g>
</svg>
