<?xml version="1.0" encoding="UTF-8" standalone="no"?>
<!DOCTYPE svg PUBLIC "-//W3C//DTD SVG 1.1//EN"
 "http://www.w3.org/Graphics/SVG/1.1/DTD/svg11.dtd">
<!-- Generated by graphviz version 2.43.0 (0)
 -->
<!-- Pages: 1 -->
<svg width="1313pt" height="196pt"
 viewBox="0.00 0.00 1312.50 196.00" xmlns="http://www.w3.org/2000/svg" xmlns:xlink="http://www.w3.org/1999/xlink">
<g id="graph0" class="graph" transform="scale(1 1) rotate(0) translate(4 192)">
<polygon fill="white" stroke="transparent" points="-4,4 -4,-192 1308.5,-192 1308.5,4 -4,4"/>
<g id="clust1" class="cluster">
<title>cluster_0</title>
<polygon fill="white" stroke="blue" points="53.5,-8 53.5,-139 1011.5,-139 1011.5,-8 53.5,-8"/>
<text text-anchor="middle" x="532.5" y="-123.8" font-family="Times,serif" font-size="14.00">qc</text>
</g>
<!-- 182 -->
<g id="node1" class="node">
<title>182</title>
<path fill="none" stroke="#56d8c9" stroke-width="2" d="M277.5,-116C277.5,-116 179.5,-116 179.5,-116 173.5,-116 167.5,-110 167.5,-104 167.5,-104 167.5,-92 167.5,-92 167.5,-86 173.5,-80 179.5,-80 179.5,-80 277.5,-80 277.5,-80 283.5,-80 289.5,-86 289.5,-92 289.5,-92 289.5,-104 289.5,-104 289.5,-110 283.5,-116 277.5,-116"/>
<text text-anchor="middle" x="228.5" y="-101" font-family="sans" font-size="10.00">qc_reg_to_template</text>
<text text-anchor="middle" x="228.5" y="-90" font-family="sans" font-size="10.00">native_modality: T1w</text>
</g>
<!-- 183 -->
<g id="node2" class="node">
<title>183</title>
<path fill="none" stroke="#d86656" stroke-width="2" d="M727.5,-116C727.5,-116 659.5,-116 659.5,-116 653.5,-116 647.5,-110 647.5,-104 647.5,-104 647.5,-92 647.5,-92 647.5,-86 653.5,-80 659.5,-80 659.5,-80 727.5,-80 727.5,-80 733.5,-80 739.5,-86 739.5,-92 739.5,-92 739.5,-104 739.5,-104 739.5,-110 733.5,-116 727.5,-116"/>
<text text-anchor="middle" x="693.5" y="-101" font-family="sans" font-size="10.00">qc_subfield</text>
<text text-anchor="middle" x="693.5" y="-90" font-family="sans" font-size="10.00">space: cropT2w</text>
</g>
<!-- 184 -->
<g id="node3" class="node">
<title>184</title>
<path fill="none" stroke="#d86656" stroke-width="2" d="M999.5,-116C999.5,-116 931.5,-116 931.5,-116 925.5,-116 919.5,-110 919.5,-104 919.5,-104 919.5,-92 919.5,-92 919.5,-86 925.5,-80 931.5,-80 931.5,-80 999.5,-80 999.5,-80 1005.5,-80 1011.5,-86 1011.5,-92 1011.5,-92 1011.5,-104 1011.5,-104 1011.5,-110 1005.5,-116 999.5,-116"/>
<text text-anchor="middle" x="965.5" y="-101" font-family="sans" font-size="10.00">qc_subfield</text>
<text text-anchor="middle" x="965.5" y="-90" font-family="sans" font-size="10.00">space: cropT2w</text>
</g>
<!-- 185 -->
<g id="node4" class="node">
<title>185</title>
<path fill="none" stroke="#56d8d8" stroke-width="2" d="M137,-116C137,-116 66,-116 66,-116 60,-116 54,-110 54,-104 54,-104 54,-92 54,-92 54,-86 60,-80 66,-80 66,-80 137,-80 137,-80 143,-80 149,-86 149,-92 149,-92 149,-104 149,-104 149,-110 143,-116 137,-116"/>
<text text-anchor="middle" x="101.5" y="-101" font-family="sans" font-size="10.00">qc_subfield_surf</text>
<text text-anchor="middle" x="101.5" y="-90" font-family="sans" font-size="10.00">ref_spaces: T2w</text>
</g>
<!-- 186 -->
<g id="node5" class="node">
<title>186</title>
<path fill="none" stroke="#56d8d8" stroke-width="2" d="M504,-116C504,-116 433,-116 433,-116 427,-116 421,-110 421,-104 421,-104 421,-92 421,-92 421,-86 427,-80 433,-80 433,-80 504,-80 504,-80 510,-80 516,-86 516,-92 516,-92 516,-104 516,-104 516,-110 510,-116 504,-116"/>
<text text-anchor="middle" x="468.5" y="-101" font-family="sans" font-size="10.00">qc_subfield_surf</text>
<text text-anchor="middle" x="468.5" y="-90" font-family="sans" font-size="10.00">ref_spaces: T2w</text>
</g>
<!-- 187 -->
<g id="node6" class="node">
<title>187</title>
<path fill="none" stroke="#56d8d8" stroke-width="2" d="M391,-116C391,-116 320,-116 320,-116 314,-116 308,-110 308,-104 308,-104 308,-92 308,-92 308,-86 314,-80 320,-80 320,-80 391,-80 391,-80 397,-80 403,-86 403,-92 403,-92 403,-104 403,-104 403,-110 397,-116 391,-116"/>
<text text-anchor="middle" x="355.5" y="-101" font-family="sans" font-size="10.00">qc_subfield_surf</text>
<text text-anchor="middle" x="355.5" y="-90" font-family="sans" font-size="10.00">ref_spaces: T2w</text>
</g>
<!-- 188 -->
<g id="node7" class="node">
<title>188</title>
<path fill="none" stroke="#56d8d8" stroke-width="2" d="M617,-116C617,-116 546,-116 546,-116 540,-116 534,-110 534,-104 534,-104 534,-92 534,-92 534,-86 540,-80 546,-80 546,-80 617,-80 617,-80 623,-80 629,-86 629,-92 629,-92 629,-104 629,-104 629,-110 623,-116 617,-116"/>
<text text-anchor="middle" x="581.5" y="-101" font-family="sans" font-size="10.00">qc_subfield_surf</text>
<text text-anchor="middle" x="581.5" y="-90" font-family="sans" font-size="10.00">ref_spaces: T2w</text>
</g>
<!-- 189 -->
<g id="node8" class="node">
<title>189</title>
<path fill="none" stroke="#56d882" stroke-width="2" d="M872.5,-44C872.5,-44 786.5,-44 786.5,-44 780.5,-44 774.5,-38 774.5,-32 774.5,-32 774.5,-20 774.5,-20 774.5,-14 780.5,-8 786.5,-8 786.5,-8 872.5,-8 872.5,-8 878.5,-8 884.5,-14 884.5,-20 884.5,-20 884.5,-32 884.5,-32 884.5,-38 878.5,-44 872.5,-44"/>
<text text-anchor="middle" x="829.5" y="-23.5" font-family="sans" font-size="10.00">plot_subj_subfields</text>
</g>
<!-- 190 -->
<g id="node9" class="node">
<title>190</title>
<path fill="none" stroke="#568ad8" stroke-width="2" d="M889,-116C889,-116 770,-116 770,-116 764,-116 758,-110 758,-104 758,-104 758,-92 758,-92 758,-86 764,-80 770,-80 770,-80 889,-80 889,-80 895,-80 901,-86 901,-92 901,-92 901,-104 901,-104 901,-110 895,-116 889,-116"/>
<text text-anchor="middle" x="829.5" y="-101" font-family="sans" font-size="10.00">get_subfield_vols_subj</text>
<text text-anchor="middle" x="829.5" y="-90" font-family="sans" font-size="10.00">crop_ref_spaces: cropT2w</text>
</g>
<!-- 190&#45;&gt;189 -->
<g id="edge1" class="edge">
<title>190&#45;&gt;189</title>
<path fill="none" stroke="grey" stroke-width="2" d="M829.5,-79.7C829.5,-71.98 829.5,-62.71 829.5,-54.11"/>
<polygon fill="grey" stroke="grey" stroke-width="2" points="833,-54.1 829.5,-44.1 826,-54.1 833,-54.1"/>
</g>
<!-- 5 -->
<g id="node10" class="node">
<title>5</title>
<path fill="none" stroke="#d6d856" stroke-width="2" d="M97,-188C97,-188 12,-188 12,-188 6,-188 0,-182 0,-176 0,-176 0,-164 0,-164 0,-158 6,-152 12,-152 12,-152 97,-152 97,-152 103,-152 109,-158 109,-164 109,-164 109,-176 109,-176 109,-182 103,-188 97,-188"/>
<text text-anchor="middle" x="54.5" y="-167.5" font-family="sans" font-size="10.00">warp_gii_to_native</text>
</g>
<!-- 5&#45;&gt;185 -->
<g id="edge2" class="edge">
<title>5&#45;&gt;185</title>
<path fill="none" stroke="grey" stroke-width="2" d="M66.12,-151.7C71.64,-143.47 78.35,-133.48 84.43,-124.42"/>
<polygon fill="grey" stroke="grey" stroke-width="2" points="87.35,-126.36 90.02,-116.1 81.54,-122.46 87.35,-126.36"/>
</g>
<!-- 28 -->
<g id="node11" class="node">
<title>28</title>
<path fill="none" stroke="#9fd856" stroke-width="2" d="M212,-188C212,-188 139,-188 139,-188 133,-188 127,-182 127,-176 127,-176 127,-164 127,-164 127,-158 133,-152 139,-152 139,-152 212,-152 212,-152 218,-152 224,-158 224,-164 224,-164 224,-176 224,-176 224,-182 218,-188 212,-188"/>
<text text-anchor="middle" x="175.5" y="-167.5" font-family="sans" font-size="10.00">reg_to_template</text>
</g>
<!-- 28&#45;&gt;182 -->
<g id="edge3" class="edge">
<title>28&#45;&gt;182</title>
<path fill="none" stroke="grey" stroke-width="2" d="M188.6,-151.7C194.89,-143.39 202.55,-133.28 209.46,-124.14"/>
<polygon fill="grey" stroke="grey" stroke-width="2" points="212.3,-126.19 215.55,-116.1 206.72,-121.96 212.3,-126.19"/>
</g>
<!-- 61 -->
<g id="node12" class="node">
<title>61</title>
<path fill="none" stroke="#d6d856" stroke-width="2" d="M339,-188C339,-188 254,-188 254,-188 248,-188 242,-182 242,-176 242,-176 242,-164 242,-164 242,-158 248,-152 254,-152 254,-152 339,-152 339,-152 345,-152 351,-158 351,-164 351,-164 351,-176 351,-176 351,-182 345,-188 339,-188"/>
<text text-anchor="middle" x="296.5" y="-167.5" font-family="sans" font-size="10.00">warp_gii_to_native</text>
</g>
<!-- 61&#45;&gt;187 -->
<g id="edge4" class="edge">
<title>61&#45;&gt;187</title>
<path fill="none" stroke="grey" stroke-width="2" d="M311.08,-151.7C318.16,-143.3 326.78,-133.07 334.55,-123.86"/>
<polygon fill="grey" stroke="grey" stroke-width="2" points="337.31,-126.01 341.08,-116.1 331.96,-121.49 337.31,-126.01"/>
</g>
<!-- 102 -->
<g id="node13" class="node">
<title>102</title>
<path fill="none" stroke="#d6d856" stroke-width="2" d="M466,-188C466,-188 381,-188 381,-188 375,-188 369,-182 369,-176 369,-176 369,-164 369,-164 369,-158 375,-152 381,-152 381,-152 466,-152 466,-152 472,-152 478,-158 478,-164 478,-164 478,-176 478,-176 478,-182 472,-188 466,-188"/>
<text text-anchor="middle" x="423.5" y="-167.5" font-family="sans" font-size="10.00">warp_gii_to_native</text>
</g>
<!-- 102&#45;&gt;186 -->
<g id="edge5" class="edge">
<title>102&#45;&gt;186</title>
<path fill="none" stroke="grey" stroke-width="2" d="M434.62,-151.7C439.86,-143.56 446.2,-133.69 451.98,-124.7"/>
<polygon fill="grey" stroke="grey" stroke-width="2" points="455.04,-126.41 457.5,-116.1 449.15,-122.62 455.04,-126.41"/>
</g>
<!-- 125 -->
<g id="node14" class="node">
<title>125</title>
<path fill="none" stroke="#d6d856" stroke-width="2" d="M593,-188C593,-188 508,-188 508,-188 502,-188 496,-182 496,-176 496,-176 496,-164 496,-164 496,-158 502,-152 508,-152 508,-152 593,-152 593,-152 599,-152 605,-158 605,-164 605,-164 605,-176 605,-176 605,-182 599,-188 593,-188"/>
<text text-anchor="middle" x="550.5" y="-167.5" font-family="sans" font-size="10.00">warp_gii_to_native</text>
</g>
<!-- 125&#45;&gt;188 -->
<g id="edge6" class="edge">
<title>125&#45;&gt;188</title>
<path fill="none" stroke="grey" stroke-width="2" d="M558.16,-151.7C561.69,-143.73 565.96,-134.1 569.87,-125.26"/>
<polygon fill="grey" stroke="grey" stroke-width="2" points="573.08,-126.67 573.93,-116.1 566.68,-123.83 573.08,-126.67"/>
</g>
<!-- 142 -->
<g id="node15" class="node">
<title>142</title>
<path fill="none" stroke="#d8b456" stroke-width="2" d="M943,-188C943,-188 794,-188 794,-188 788,-188 782,-182 782,-176 782,-176 782,-164 782,-164 782,-158 788,-152 794,-152 794,-152 943,-152 943,-152 949,-152 955,-158 955,-164 955,-164 955,-176 955,-176 955,-182 949,-188 943,-188"/>
<text text-anchor="middle" x="868.5" y="-167.5" font-family="sans" font-size="10.00">resample_subfields_native_crop</text>
</g>
<!-- 142&#45;&gt;183 -->
<g id="edge7" class="edge">
<title>142&#45;&gt;183</title>
<path fill="none" stroke="grey" stroke-width="2" d="M783.17,-152C771.27,-148.39 759.4,-144.09 748.5,-139 739.03,-134.58 729.54,-128.43 721.17,-122.29"/>
<polygon fill="grey" stroke="grey" stroke-width="2" points="723.28,-119.5 713.21,-116.2 719.03,-125.06 723.28,-119.5"/>
</g>
<!-- 142&#45;&gt;190 -->
<g id="edge8" class="edge">
<title>142&#45;&gt;190</title>
<path fill="none" stroke="grey" stroke-width="2" d="M858.86,-151.7C854.37,-143.64 848.94,-133.89 843.98,-124.98"/>
<polygon fill="grey" stroke="grey" stroke-width="2" points="846.95,-123.14 839.03,-116.1 840.84,-126.54 846.95,-123.14"/>
</g>
<!-- 148 -->
<g id="node16" class="node">
<title>148</title>
<path fill="none" stroke="#d8b456" stroke-width="2" d="M1134,-188C1134,-188 985,-188 985,-188 979,-188 973,-182 973,-176 973,-176 973,-164 973,-164 973,-158 979,-152 985,-152 985,-152 1134,-152 1134,-152 1140,-152 1146,-158 1146,-164 1146,-164 1146,-176 1146,-176 1146,-182 1140,-188 1134,-188"/>
<text text-anchor="middle" x="1059.5" y="-167.5" font-family="sans" font-size="10.00">resample_subfields_native_crop</text>
</g>
<!-- 148&#45;&gt;184 -->
<g id="edge9" class="edge">
<title>148&#45;&gt;184</title>
<path fill="none" stroke="grey" stroke-width="2" d="M1036.26,-151.7C1024.31,-142.8 1009.58,-131.82 996.65,-122.2"/>
<polygon fill="grey" stroke="grey" stroke-width="2" points="998.58,-119.27 988.47,-116.1 994.4,-124.88 998.58,-119.27"/>
</g>
<!-- 148&#45;&gt;190 -->
<g id="edge10" class="edge">
<title>148&#45;&gt;190</title>
<path fill="none" stroke="grey" stroke-width="2" d="M972.88,-153.52C947.19,-148.49 922.68,-143.15 910.5,-139 896.41,-134.19 881.62,-127.45 868.6,-120.87"/>
<polygon fill="grey" stroke="grey" stroke-width="2" points="869.96,-117.63 859.47,-116.13 866.73,-123.84 869.96,-117.63"/>
</g>
<!-- 180 -->
<g id="node17" class="node">
<title>180</title>
<path fill="none" stroke="#5673d8" stroke-width="2" d="M751.5,-188C751.5,-188 635.5,-188 635.5,-188 629.5,-188 623.5,-182 623.5,-176 623.5,-176 623.5,-164 623.5,-164 623.5,-158 629.5,-152 635.5,-152 635.5,-152 751.5,-152 751.5,-152 757.5,-152 763.5,-158 763.5,-164 763.5,-164 763.5,-176 763.5,-176 763.5,-182 757.5,-188 751.5,-188"/>
<text text-anchor="middle" x="693.5" y="-167.5" font-family="sans" font-size="10.00">resample_native_to_crop</text>
</g>
<!-- 180&#45;&gt;183 -->
<g id="edge11" class="edge">
<title>180&#45;&gt;183</title>
<path fill="none" stroke="grey" stroke-width="2" d="M693.5,-151.7C693.5,-143.98 693.5,-134.71 693.5,-126.11"/>
<polygon fill="grey" stroke="grey" stroke-width="2" points="697,-126.1 693.5,-116.1 690,-126.1 697,-126.1"/>
</g>
<!-- 181 -->
<g id="node18" class="node">
<title>181</title>
<path fill="none" stroke="#5673d8" stroke-width="2" d="M1292.5,-188C1292.5,-188 1176.5,-188 1176.5,-188 1170.5,-188 1164.5,-182 1164.5,-176 1164.5,-176 1164.5,-164 1164.5,-164 1164.5,-158 1170.5,-152 1176.5,-152 1176.5,-152 1292.5,-152 1292.5,-152 1298.5,-152 1304.5,-158 1304.5,-164 1304.5,-164 1304.5,-176 1304.5,-176 1304.5,-182 1298.5,-188 1292.5,-188"/>
<text text-anchor="middle" x="1234.5" y="-167.5" font-family="sans" font-size="10.00">resample_native_to_crop</text>
</g>
<!-- 181&#45;&gt;184 -->
<g id="edge12" class="edge">
<title>181&#45;&gt;184</title>
<path fill="none" stroke="grey" stroke-width="2" d="M1169.04,-151.97C1123.88,-140.21 1064.47,-124.76 1021.51,-113.57"/>
<polygon fill="grey" stroke="grey" stroke-width="2" points="1022.34,-110.17 1011.78,-111.04 1020.58,-116.95 1022.34,-110.17"/>
</g>
</g>
</svg>
