<?xml version="1.0" encoding="UTF-8" standalone="no"?>
<!DOCTYPE svg PUBLIC "-//W3C//DTD SVG 1.1//EN"
 "http://www.w3.org/Graphics/SVG/1.1/DTD/svg11.dtd">
<!-- Generated by graphviz version 2.43.0 (0)
 -->
<!-- Pages: 1 -->
<svg width="1191pt" height="356pt"
 viewBox="0.00 0.00 1190.50 356.00" xmlns="http://www.w3.org/2000/svg" xmlns:xlink="http://www.w3.org/1999/xlink">
<g id="graph0" class="graph" transform="scale(1 1) rotate(0) translate(4 352)">
<polygon fill="white" stroke="transparent" points="-4,4 -4,-352 1186.5,-352 1186.5,4 -4,4"/>
<g id="clust1" class="cluster">
<title>cluster_0</title>
<polygon fill="white" stroke="blue" points="398,-8 398,-211 839,-211 839,-8 398,-8"/>
<text text-anchor="middle" x="618.5" y="-195.8" font-family="Times,serif" font-size="14.00">subfields</text>
</g>
<!-- 145 -->
<g id="node1" class="node">
<title>145</title>
<path fill="none" stroke="#bed856" stroke-width="2" d="M825,-116C825,-116 643,-116 643,-116 637,-116 631,-110 631,-104 631,-104 631,-92 631,-92 631,-86 637,-80 643,-80 643,-80 825,-80 825,-80 831,-80 837,-86 837,-92 837,-92 837,-104 837,-104 837,-110 831,-116 825,-116"/>
<text text-anchor="middle" x="734" y="-95.5" font-family="sans" font-size="10.00">combine_tissue_subfield_labels_corobl</text>
</g>
<!-- 149 -->
<g id="node2" class="node">
<title>149</title>
<path fill="none" stroke="#56b1d8" stroke-width="2" d="M803,-44C803,-44 665,-44 665,-44 659,-44 653,-38 653,-32 653,-32 653,-20 653,-20 653,-14 659,-8 665,-8 665,-8 803,-8 803,-8 809,-8 815,-14 815,-20 815,-20 815,-32 815,-32 815,-38 809,-44 803,-44"/>
<text text-anchor="middle" x="734" y="-29" font-family="sans" font-size="10.00">resample_subfields_to_native</text>
<text text-anchor="middle" x="734" y="-18" font-family="sans" font-size="10.00">native_modality: T2w</text>
</g>
<!-- 145&#45;&gt;149 -->
<g id="edge1" class="edge">
<title>145&#45;&gt;149</title>
<path fill="none" stroke="grey" stroke-width="2" d="M734,-79.7C734,-71.98 734,-62.71 734,-54.11"/>
<polygon fill="grey" stroke="grey" stroke-width="2" points="737.5,-54.1 734,-44.1 730.5,-54.1 737.5,-54.1"/>
</g>
<!-- 147 -->
<g id="node3" class="node">
<title>147</title>
<path fill="none" stroke="#565bd8" stroke-width="2" d="M826.5,-188C826.5,-188 639.5,-188 639.5,-188 633.5,-188 627.5,-182 627.5,-176 627.5,-176 627.5,-164 627.5,-164 627.5,-158 633.5,-152 639.5,-152 639.5,-152 826.5,-152 826.5,-152 832.5,-152 838.5,-158 838.5,-164 838.5,-164 838.5,-176 838.5,-176 838.5,-182 832.5,-188 826.5,-188"/>
<text text-anchor="middle" x="733" y="-167.5" font-family="sans" font-size="10.00">label_subfields_from_vol_coords_corobl</text>
</g>
<!-- 147&#45;&gt;145 -->
<g id="edge2" class="edge">
<title>147&#45;&gt;145</title>
<path fill="none" stroke="grey" stroke-width="2" d="M733.25,-151.7C733.36,-143.98 733.49,-134.71 733.61,-126.11"/>
<polygon fill="grey" stroke="grey" stroke-width="2" points="737.11,-126.15 733.76,-116.1 730.11,-126.05 737.11,-126.15"/>
</g>
<!-- 151 -->
<g id="node4" class="node">
<title>151</title>
<path fill="none" stroke="#bed856" stroke-width="2" d="M601,-116C601,-116 419,-116 419,-116 413,-116 407,-110 407,-104 407,-104 407,-92 407,-92 407,-86 413,-80 419,-80 419,-80 601,-80 601,-80 607,-80 613,-86 613,-92 613,-92 613,-104 613,-104 613,-110 607,-116 601,-116"/>
<text text-anchor="middle" x="510" y="-95.5" font-family="sans" font-size="10.00">combine_tissue_subfield_labels_corobl</text>
</g>
<!-- 154 -->
<g id="node5" class="node">
<title>154</title>
<path fill="none" stroke="#56b1d8" stroke-width="2" d="M579,-44C579,-44 441,-44 441,-44 435,-44 429,-38 429,-32 429,-32 429,-20 429,-20 429,-14 435,-8 441,-8 441,-8 579,-8 579,-8 585,-8 591,-14 591,-20 591,-20 591,-32 591,-32 591,-38 585,-44 579,-44"/>
<text text-anchor="middle" x="510" y="-29" font-family="sans" font-size="10.00">resample_subfields_to_native</text>
<text text-anchor="middle" x="510" y="-18" font-family="sans" font-size="10.00">native_modality: T2w</text>
</g>
<!-- 151&#45;&gt;154 -->
<g id="edge3" class="edge">
<title>151&#45;&gt;154</title>
<path fill="none" stroke="grey" stroke-width="2" d="M510,-79.7C510,-71.98 510,-62.71 510,-54.11"/>
<polygon fill="grey" stroke="grey" stroke-width="2" points="513.5,-54.1 510,-44.1 506.5,-54.1 513.5,-54.1"/>
</g>
<!-- 152 -->
<g id="node6" class="node">
<title>152</title>
<path fill="none" stroke="#565bd8" stroke-width="2" d="M597.5,-188C597.5,-188 410.5,-188 410.5,-188 404.5,-188 398.5,-182 398.5,-176 398.5,-176 398.5,-164 398.5,-164 398.5,-158 404.5,-152 410.5,-152 410.5,-152 597.5,-152 597.5,-152 603.5,-152 609.5,-158 609.5,-164 609.5,-164 609.5,-176 609.5,-176 609.5,-182 603.5,-188 597.5,-188"/>
<text text-anchor="middle" x="504" y="-167.5" font-family="sans" font-size="10.00">label_subfields_from_vol_coords_corobl</text>
</g>
<!-- 152&#45;&gt;151 -->
<g id="edge4" class="edge">
<title>152&#45;&gt;151</title>
<path fill="none" stroke="grey" stroke-width="2" d="M505.48,-151.7C506.14,-143.98 506.94,-134.71 507.68,-126.11"/>
<polygon fill="grey" stroke="grey" stroke-width="2" points="511.17,-126.37 508.53,-116.1 504.19,-125.77 511.17,-126.37"/>
</g>
<!-- 11 -->
<g id="node7" class="node">
<title>11</title>
<path fill="none" stroke="#68d856" stroke-width="2" d="M783.5,-276C783.5,-276 726.5,-276 726.5,-276 720.5,-276 714.5,-270 714.5,-264 714.5,-264 714.5,-236 714.5,-236 714.5,-230 720.5,-224 726.5,-224 726.5,-224 783.5,-224 783.5,-224 789.5,-224 795.5,-230 795.5,-236 795.5,-236 795.5,-264 795.5,-264 795.5,-270 789.5,-276 783.5,-276"/>
<text text-anchor="middle" x="755" y="-264" font-family="sans" font-size="10.00">unflip_coords</text>
<text text-anchor="middle" x="755" y="-253" font-family="sans" font-size="10.00">autotop: hipp</text>
<text text-anchor="middle" x="755" y="-242" font-family="sans" font-size="10.00">desc: laplace</text>
<text text-anchor="middle" x="755" y="-231" font-family="sans" font-size="10.00">hemi: L</text>
</g>
<!-- 11&#45;&gt;147 -->
<g id="edge5" class="edge">
<title>11&#45;&gt;147</title>
<path fill="none" stroke="grey" stroke-width="2" d="M747.92,-223.89C745.6,-215.66 743.01,-206.48 740.64,-198.1"/>
<polygon fill="grey" stroke="grey" stroke-width="2" points="743.99,-197.09 737.91,-188.41 737.26,-198.99 743.99,-197.09"/>
</g>
<!-- 17 -->
<g id="node8" class="node">
<title>17</title>
<path fill="none" stroke="#d87556" stroke-width="2" d="M377,-116C377,-116 279,-116 279,-116 273,-116 267,-110 267,-104 267,-104 267,-92 267,-92 267,-86 273,-80 279,-80 279,-80 377,-80 377,-80 383,-80 389,-86 389,-92 389,-92 389,-104 389,-104 389,-110 383,-116 377,-116"/>
<text text-anchor="middle" x="328" y="-95.5" font-family="sans" font-size="10.00">avg_aligned_or_cp_t2</text>
</g>
<!-- 17&#45;&gt;149 -->
<g id="edge6" class="edge">
<title>17&#45;&gt;149</title>
<path fill="none" stroke="grey" stroke-width="2" d="M389.08,-81.04C390.74,-80.68 392.38,-80.33 394,-80 477.79,-62.72 574.23,-48.19 642.95,-38.74"/>
<polygon fill="grey" stroke="grey" stroke-width="2" points="643.45,-42.2 652.88,-37.38 642.5,-35.27 643.45,-42.2"/>
</g>
<!-- 17&#45;&gt;154 -->
<g id="edge7" class="edge">
<title>17&#45;&gt;154</title>
<path fill="none" stroke="grey" stroke-width="2" d="M372.52,-79.88C397.73,-70.18 429.45,-57.98 456.07,-47.74"/>
<polygon fill="grey" stroke="grey" stroke-width="2" points="457.55,-50.92 465.62,-44.07 455.03,-44.39 457.55,-50.92"/>
</g>
<!-- 26 -->
<g id="node9" class="node">
<title>26</title>
<path fill="none" stroke="#56d87b" stroke-width="2" d="M979,-116C979,-116 867,-116 867,-116 861,-116 855,-110 855,-104 855,-104 855,-92 855,-92 855,-86 861,-80 867,-80 867,-80 979,-80 979,-80 985,-80 991,-86 991,-92 991,-92 991,-104 991,-104 991,-110 985,-116 979,-116"/>
<text text-anchor="middle" x="923" y="-95.5" font-family="sans" font-size="10.00">compose_t2_xfm_corobl</text>
</g>
<!-- 26&#45;&gt;149 -->
<g id="edge8" class="edge">
<title>26&#45;&gt;149</title>
<path fill="none" stroke="grey" stroke-width="2" d="M876.77,-79.88C850.47,-70.14 817.36,-57.87 789.64,-47.61"/>
<polygon fill="grey" stroke="grey" stroke-width="2" points="790.68,-44.26 780.08,-44.07 788.25,-50.82 790.68,-44.26"/>
</g>
<!-- 26&#45;&gt;154 -->
<g id="edge9" class="edge">
<title>26&#45;&gt;154</title>
<path fill="none" stroke="grey" stroke-width="2" d="M854.96,-82.29C850.92,-81.5 846.91,-80.73 843,-80 761.57,-64.88 668.43,-50.28 601.4,-40.25"/>
<polygon fill="grey" stroke="grey" stroke-width="2" points="601.69,-36.75 591.29,-38.74 600.66,-43.68 601.69,-36.75"/>
</g>
<!-- 35 -->
<g id="node10" class="node">
<title>35</title>
<path fill="none" stroke="#68d856" stroke-width="2" d="M882.5,-276C882.5,-276 825.5,-276 825.5,-276 819.5,-276 813.5,-270 813.5,-264 813.5,-264 813.5,-236 813.5,-236 813.5,-230 819.5,-224 825.5,-224 825.5,-224 882.5,-224 882.5,-224 888.5,-224 894.5,-230 894.5,-236 894.5,-236 894.5,-264 894.5,-264 894.5,-270 888.5,-276 882.5,-276"/>
<text text-anchor="middle" x="854" y="-264" font-family="sans" font-size="10.00">unflip_coords</text>
<text text-anchor="middle" x="854" y="-253" font-family="sans" font-size="10.00">autotop: hipp</text>
<text text-anchor="middle" x="854" y="-242" font-family="sans" font-size="10.00">desc: laplace</text>
<text text-anchor="middle" x="854" y="-231" font-family="sans" font-size="10.00">hemi: L</text>
</g>
<!-- 35&#45;&gt;147 -->
<g id="edge10" class="edge">
<title>35&#45;&gt;147</title>
<path fill="none" stroke="grey" stroke-width="2" d="M815.05,-223.89C800.06,-214.23 783.04,-203.26 768.4,-193.82"/>
<polygon fill="grey" stroke="grey" stroke-width="2" points="769.94,-190.65 759.64,-188.17 766.14,-196.53 769.94,-190.65"/>
</g>
<!-- 38 -->
<g id="node11" class="node">
<title>38</title>
<path fill="none" stroke="#56d8c1" stroke-width="2" d="M1023,-270.5C1023,-270.5 925,-270.5 925,-270.5 919,-270.5 913,-264.5 913,-258.5 913,-258.5 913,-241.5 913,-241.5 913,-235.5 919,-229.5 925,-229.5 925,-229.5 1023,-229.5 1023,-229.5 1029,-229.5 1035,-235.5 1035,-241.5 1035,-241.5 1035,-258.5 1035,-258.5 1035,-264.5 1029,-270.5 1023,-270.5"/>
<text text-anchor="middle" x="974" y="-258.5" font-family="sans" font-size="10.00">unflip_coords_equivol</text>
<text text-anchor="middle" x="974" y="-247.5" font-family="sans" font-size="10.00">desc: equivol</text>
<text text-anchor="middle" x="974" y="-236.5" font-family="sans" font-size="10.00">hemi: L</text>
</g>
<!-- 38&#45;&gt;147 -->
<g id="edge11" class="edge">
<title>38&#45;&gt;147</title>
<path fill="none" stroke="grey" stroke-width="2" d="M919.81,-229.39C914.48,-227.54 909.14,-225.71 904,-224 869.8,-212.6 831.48,-200.65 799.8,-190.99"/>
<polygon fill="grey" stroke="grey" stroke-width="2" points="800.78,-187.62 790.19,-188.06 798.74,-194.32 800.78,-187.62"/>
</g>
<!-- 59 -->
<g id="node12" class="node">
<title>59</title>
<path fill="none" stroke="#56d89a" stroke-width="2" d="M684,-270.5C684,-270.5 568,-270.5 568,-270.5 562,-270.5 556,-264.5 556,-258.5 556,-258.5 556,-241.5 556,-241.5 556,-235.5 562,-229.5 568,-229.5 568,-229.5 684,-229.5 684,-229.5 690,-229.5 696,-235.5 696,-241.5 696,-241.5 696,-258.5 696,-258.5 696,-264.5 690,-270.5 684,-270.5"/>
<text text-anchor="middle" x="626" y="-258.5" font-family="sans" font-size="10.00">resample_atlas_to_refvol</text>
<text text-anchor="middle" x="626" y="-247.5" font-family="sans" font-size="10.00">atlas: bigbrain</text>
<text text-anchor="middle" x="626" y="-236.5" font-family="sans" font-size="10.00">hemi: L</text>
</g>
<!-- 59&#45;&gt;147 -->
<g id="edge12" class="edge">
<title>59&#45;&gt;147</title>
<path fill="none" stroke="grey" stroke-width="2" d="M653,-229.32C667.73,-218.58 686.05,-205.23 701.44,-194.01"/>
<polygon fill="grey" stroke="grey" stroke-width="2" points="703.62,-196.75 709.64,-188.03 699.5,-191.09 703.62,-196.75"/>
</g>
<!-- 67 -->
<g id="node13" class="node">
<title>67</title>
<path fill="none" stroke="#ced856" stroke-width="2" d="M262,-268C262,-268 170,-268 170,-268 164,-268 158,-262 158,-256 158,-256 158,-244 158,-244 158,-238 164,-232 170,-232 170,-232 262,-232 262,-232 268,-232 274,-238 274,-244 274,-244 274,-256 274,-256 274,-262 268,-268 262,-268"/>
<text text-anchor="middle" x="216" y="-247.5" font-family="sans" font-size="10.00">laplace_coords_hipp</text>
</g>
<!-- 67&#45;&gt;152 -->
<g id="edge13" class="edge">
<title>67&#45;&gt;152</title>
<path fill="none" stroke="grey" stroke-width="2" d="M259.35,-231.95C267.16,-229.13 275.28,-226.36 283,-224 325.18,-211.12 372.67,-199.39 412.78,-190.25"/>
<polygon fill="grey" stroke="grey" stroke-width="2" points="413.56,-193.66 422.54,-188.04 412.01,-186.83 413.56,-193.66"/>
</g>
<!-- 68 -->
<g id="node14" class="node">
<title>68</title>
<path fill="none" stroke="#56c9d8" stroke-width="2" d="M402.5,-348C402.5,-348 297.5,-348 297.5,-348 291.5,-348 285.5,-342 285.5,-336 285.5,-336 285.5,-324 285.5,-324 285.5,-318 291.5,-312 297.5,-312 297.5,-312 402.5,-312 402.5,-312 408.5,-312 414.5,-318 414.5,-324 414.5,-324 414.5,-336 414.5,-336 414.5,-342 408.5,-348 402.5,-348"/>
<text text-anchor="middle" x="350" y="-327.5" font-family="sans" font-size="10.00">reinsert_subject_labels</text>
</g>
<!-- 68&#45;&gt;151 -->
<g id="edge16" class="edge">
<title>68&#45;&gt;151</title>
<path fill="none" stroke="grey" stroke-width="2" d="M414.54,-328.95C578.61,-328.14 1001.73,-321.62 1044,-276 1059.71,-259.05 1057.23,-242.95 1044,-224 990.88,-147.9 937.83,-175.3 848,-152 836.96,-149.14 717.41,-130.62 623.58,-116.27"/>
<polygon fill="grey" stroke="grey" stroke-width="2" points="623.85,-112.77 613.44,-114.72 622.79,-119.69 623.85,-112.77"/>
</g>
<!-- 68&#45;&gt;67 -->
<g id="edge14" class="edge">
<title>68&#45;&gt;67</title>
<path fill="none" stroke="grey" stroke-width="2" d="M320.59,-311.88C301.04,-300.5 275.18,-285.45 254.07,-273.16"/>
<polygon fill="grey" stroke="grey" stroke-width="2" points="255.74,-270.08 245.34,-268.08 252.22,-276.13 255.74,-270.08"/>
</g>
<!-- 75 -->
<g id="node15" class="node">
<title>75</title>
<path fill="none" stroke="#ced856" stroke-width="2" d="M396,-268C396,-268 304,-268 304,-268 298,-268 292,-262 292,-256 292,-256 292,-244 292,-244 292,-238 298,-232 304,-232 304,-232 396,-232 396,-232 402,-232 408,-238 408,-244 408,-244 408,-256 408,-256 408,-262 402,-268 396,-268"/>
<text text-anchor="middle" x="350" y="-247.5" font-family="sans" font-size="10.00">laplace_coords_hipp</text>
</g>
<!-- 68&#45;&gt;75 -->
<g id="edge15" class="edge">
<title>68&#45;&gt;75</title>
<path fill="none" stroke="grey" stroke-width="2" d="M350,-311.69C350,-301.89 350,-289.42 350,-278.33"/>
<polygon fill="grey" stroke="grey" stroke-width="2" points="353.5,-278.26 350,-268.26 346.5,-278.26 353.5,-278.26"/>
</g>
<!-- 75&#45;&gt;152 -->
<g id="edge17" class="edge">
<title>75&#45;&gt;152</title>
<path fill="none" stroke="grey" stroke-width="2" d="M383.8,-231.88C406.56,-220.35 436.78,-205.04 461.23,-192.67"/>
<polygon fill="grey" stroke="grey" stroke-width="2" points="462.94,-195.72 470.28,-188.08 459.78,-189.47 462.94,-195.72"/>
</g>
<!-- 77 -->
<g id="node16" class="node">
<title>77</title>
<path fill="none" stroke="#d8d356" stroke-width="2" d="M526,-268C526,-268 438,-268 438,-268 432,-268 426,-262 426,-256 426,-256 426,-244 426,-244 426,-238 432,-232 438,-232 438,-232 526,-232 526,-232 532,-232 538,-238 538,-244 538,-244 538,-256 538,-256 538,-262 532,-268 526,-268"/>
<text text-anchor="middle" x="482" y="-247.5" font-family="sans" font-size="10.00">equivolume_coords</text>
</g>
<!-- 77&#45;&gt;152 -->
<g id="edge18" class="edge">
<title>77&#45;&gt;152</title>
<path fill="none" stroke="grey" stroke-width="2" d="M486.88,-231.69C489.67,-221.79 493.24,-209.16 496.39,-197.99"/>
<polygon fill="grey" stroke="grey" stroke-width="2" points="499.79,-198.84 499.13,-188.26 493.05,-196.94 499.79,-198.84"/>
</g>
<!-- 99 -->
<g id="node17" class="node">
<title>99</title>
<path fill="none" stroke="#56d89a" stroke-width="2" d="M128,-270.5C128,-270.5 12,-270.5 12,-270.5 6,-270.5 0,-264.5 0,-258.5 0,-258.5 0,-241.5 0,-241.5 0,-235.5 6,-229.5 12,-229.5 12,-229.5 128,-229.5 128,-229.5 134,-229.5 140,-235.5 140,-241.5 140,-241.5 140,-258.5 140,-258.5 140,-264.5 134,-270.5 128,-270.5"/>
<text text-anchor="middle" x="70" y="-258.5" font-family="sans" font-size="10.00">resample_atlas_to_refvol</text>
<text text-anchor="middle" x="70" y="-247.5" font-family="sans" font-size="10.00">atlas: bigbrain</text>
<text text-anchor="middle" x="70" y="-236.5" font-family="sans" font-size="10.00">hemi: R</text>
</g>
<!-- 99&#45;&gt;152 -->
<g id="edge19" class="edge">
<title>99&#45;&gt;152</title>
<path fill="none" stroke="grey" stroke-width="2" d="M128.39,-229.39C135.29,-227.41 142.27,-225.56 149,-224 227.99,-205.73 318.38,-192.34 388.18,-183.59"/>
<polygon fill="grey" stroke="grey" stroke-width="2" points="388.83,-187.04 398.33,-182.33 387.97,-180.09 388.83,-187.04"/>
</g>
<!-- 146 -->
<g id="node18" class="node">
<title>146</title>
<path fill="none" stroke="#d89c56" stroke-width="2" d="M1170.5,-188C1170.5,-188 1103.5,-188 1103.5,-188 1097.5,-188 1091.5,-182 1091.5,-176 1091.5,-176 1091.5,-164 1091.5,-164 1091.5,-158 1097.5,-152 1103.5,-152 1103.5,-152 1170.5,-152 1170.5,-152 1176.5,-152 1182.5,-158 1182.5,-164 1182.5,-164 1182.5,-176 1182.5,-176 1182.5,-182 1176.5,-188 1170.5,-188"/>
<text text-anchor="middle" x="1137" y="-173" font-family="sans" font-size="10.00">unflip_postproc</text>
<text text-anchor="middle" x="1137" y="-162" font-family="sans" font-size="10.00">hemi: L</text>
</g>
<!-- 146&#45;&gt;145 -->
<g id="edge20" class="edge">
<title>146&#45;&gt;145</title>
<path fill="none" stroke="grey" stroke-width="2" d="M1091.28,-155.42C1086.48,-154.18 1081.65,-153.01 1077,-152 1071.25,-150.75 944.92,-131.31 847.24,-116.33"/>
<polygon fill="grey" stroke="grey" stroke-width="2" points="847.7,-112.86 837.28,-114.8 846.64,-119.78 847.7,-112.86"/>
</g>
</g>
</svg>
