<?xml version="1.0" encoding="UTF-8" standalone="no"?>
<!DOCTYPE svg PUBLIC "-//W3C//DTD SVG 1.1//EN"
 "http://www.w3.org/Graphics/SVG/1.1/DTD/svg11.dtd">
<!-- Generated by graphviz version 2.43.0 (0)
 -->
<!-- Pages: 1 -->
<svg width="243pt" height="435pt"
 viewBox="0.00 0.00 243.00 435.00" xmlns="http://www.w3.org/2000/svg" xmlns:xlink="http://www.w3.org/1999/xlink">
<g id="graph0" class="graph" transform="scale(1 1) rotate(0) translate(4 431)">
<polygon fill="white" stroke="transparent" points="-4,4 -4,-431 239,-431 239,4 -4,4"/>
<g id="clust1" class="cluster">
<title>cluster_0</title>
<polygon fill="white" stroke="blue" points="8,-72 8,-419 227,-419 227,-72 8,-72"/>
<text text-anchor="middle" x="117.5" y="-403.8" font-family="Times,serif" font-size="14.00">preproc_t1</text>
</g>
<!-- 24 -->
<g id="node1" class="node">
<title>24</title>
<path fill="none" stroke="#d85656" stroke-width="2" d="M84,-324C84,-324 54,-324 54,-324 48,-324 42,-318 42,-312 42,-312 42,-300 42,-300 42,-294 48,-288 54,-288 54,-288 84,-288 84,-288 90,-288 96,-294 96,-300 96,-300 96,-312 96,-312 96,-318 90,-324 84,-324"/>
<text text-anchor="middle" x="69" y="-303.5" font-family="sans" font-size="10.00">n4_t1</text>
</g>
<!-- 28 -->
<g id="node2" class="node">
<title>28</title>
<path fill="none" stroke="#9fd856" stroke-width="2" d="M117.5,-252C117.5,-252 44.5,-252 44.5,-252 38.5,-252 32.5,-246 32.5,-240 32.5,-240 32.5,-228 32.5,-228 32.5,-222 38.5,-216 44.5,-216 44.5,-216 117.5,-216 117.5,-216 123.5,-216 129.5,-222 129.5,-228 129.5,-228 129.5,-240 129.5,-240 129.5,-246 123.5,-252 117.5,-252"/>
<text text-anchor="middle" x="81" y="-231.5" font-family="sans" font-size="10.00">reg_to_template</text>
</g>
<!-- 24&#45;&gt;28 -->
<g id="edge1" class="edge">
<title>24&#45;&gt;28</title>
<path fill="none" stroke="grey" stroke-width="2" d="M71.97,-287.7C73.29,-279.98 74.88,-270.71 76.35,-262.11"/>
<polygon fill="grey" stroke="grey" stroke-width="2" points="79.83,-262.55 78.07,-252.1 72.93,-261.37 79.83,-262.55"/>
</g>
<!-- 27 -->
<g id="node5" class="node">
<title>27</title>
<path fill="none" stroke="#d8a456" stroke-width="2" d="M163.5,-180C163.5,-180 20.5,-180 20.5,-180 14.5,-180 8.5,-174 8.5,-168 8.5,-168 8.5,-156 8.5,-156 8.5,-150 14.5,-144 20.5,-144 20.5,-144 163.5,-144 163.5,-144 169.5,-144 175.5,-150 175.5,-156 175.5,-156 175.5,-168 175.5,-168 175.5,-174 169.5,-180 163.5,-180"/>
<text text-anchor="middle" x="92" y="-165" font-family="sans" font-size="10.00">convert_template_xfm_ras2itk</text>
<text text-anchor="middle" x="92" y="-154" font-family="sans" font-size="10.00">reg_suffix: T1w</text>
</g>
<!-- 28&#45;&gt;27 -->
<g id="edge4" class="edge">
<title>28&#45;&gt;27</title>
<path fill="none" stroke="grey" stroke-width="2" d="M83.72,-215.7C84.93,-207.98 86.39,-198.71 87.74,-190.11"/>
<polygon fill="grey" stroke="grey" stroke-width="2" points="91.22,-190.53 89.31,-180.1 84.3,-189.44 91.22,-190.53"/>
</g>
<!-- 25 -->
<g id="node3" class="node">
<title>25</title>
<path fill="none" stroke="#d89c56" stroke-width="2" d="M72,-396C72,-396 20,-396 20,-396 14,-396 8,-390 8,-384 8,-384 8,-372 8,-372 8,-366 14,-360 20,-360 20,-360 72,-360 72,-360 78,-360 84,-366 84,-372 84,-372 84,-384 84,-384 84,-390 78,-396 72,-396"/>
<text text-anchor="middle" x="46" y="-381" font-family="sans" font-size="10.00">import_t1</text>
<text text-anchor="middle" x="46" y="-370" font-family="sans" font-size="10.00">subject: 001</text>
</g>
<!-- 25&#45;&gt;24 -->
<g id="edge2" class="edge">
<title>25&#45;&gt;24</title>
<path fill="none" stroke="grey" stroke-width="2" d="M51.69,-359.7C54.25,-351.9 57.33,-342.51 60.18,-333.83"/>
<polygon fill="grey" stroke="grey" stroke-width="2" points="63.58,-334.7 63.38,-324.1 56.93,-332.51 63.58,-334.7"/>
</g>
<!-- 26 -->
<g id="node4" class="node">
<title>26</title>
<path fill="none" stroke="#5692d8" stroke-width="2" d="M166,-108C166,-108 20,-108 20,-108 14,-108 8,-102 8,-96 8,-96 8,-84 8,-84 8,-78 14,-72 20,-72 20,-72 166,-72 166,-72 172,-72 178,-78 178,-84 178,-84 178,-96 178,-96 178,-102 172,-108 166,-108"/>
<text text-anchor="middle" x="93" y="-87.5" font-family="sans" font-size="10.00">compose_template_xfm_corobl</text>
</g>
<!-- 22 -->
<g id="node7" class="node">
<title>22</title>
<path fill="none" stroke="#56d87b" stroke-width="2" d="M205,-36C205,-36 93,-36 93,-36 87,-36 81,-30 81,-24 81,-24 81,-12 81,-12 81,-6 87,0 93,0 93,0 205,0 205,0 211,0 217,-6 217,-12 217,-12 217,-24 217,-24 217,-30 211,-36 205,-36"/>
<text text-anchor="middle" x="149" y="-15.5" font-family="sans" font-size="10.00">compose_t2_xfm_corobl</text>
</g>
<!-- 26&#45;&gt;22 -->
<g id="edge6" class="edge">
<title>26&#45;&gt;22</title>
<path fill="none" stroke="grey" stroke-width="2" d="M106.84,-71.7C113.49,-63.39 121.58,-53.28 128.89,-44.14"/>
<polygon fill="grey" stroke="grey" stroke-width="2" points="131.8,-46.1 135.32,-36.1 126.34,-41.73 131.8,-46.1"/>
</g>
<!-- 27&#45;&gt;26 -->
<g id="edge3" class="edge">
<title>27&#45;&gt;26</title>
<path fill="none" stroke="grey" stroke-width="2" d="M92.25,-143.7C92.36,-135.98 92.49,-126.71 92.61,-118.11"/>
<polygon fill="grey" stroke="grey" stroke-width="2" points="96.11,-118.15 92.76,-108.1 89.11,-118.05 96.11,-118.15"/>
</g>
<!-- 42 -->
<g id="node6" class="node">
<title>42</title>
<path fill="none" stroke="#bed856" stroke-width="2" d="M215.5,-396C215.5,-396 114.5,-396 114.5,-396 108.5,-396 102.5,-390 102.5,-384 102.5,-384 102.5,-372 102.5,-372 102.5,-366 108.5,-360 114.5,-360 114.5,-360 215.5,-360 215.5,-360 221.5,-360 227.5,-366 227.5,-372 227.5,-372 227.5,-384 227.5,-384 227.5,-390 221.5,-396 215.5,-396"/>
<text text-anchor="middle" x="165" y="-381" font-family="sans" font-size="10.00">template_xfm_itk2ras</text>
<text text-anchor="middle" x="165" y="-370" font-family="sans" font-size="10.00">native_modality: T2w</text>
</g>
<!-- 22&#45;&gt;42 -->
<g id="edge5" class="edge">
<title>22&#45;&gt;42</title>
<path fill="none" stroke="grey" stroke-width="2" d="M163.98,-36.03C171.94,-45.91 181.23,-58.95 187,-72 203.35,-108.99 206,-120.55 206,-161 206,-235 206,-235 206,-235 206,-276.59 189.56,-322.44 177.5,-350.49"/>
<polygon fill="grey" stroke="grey" stroke-width="2" points="174.15,-349.41 173.3,-359.97 180.55,-352.25 174.15,-349.41"/>
</g>
</g>
</svg>
