<?xml version="1.0" encoding="UTF-8" standalone="no"?>
<!DOCTYPE svg PUBLIC "-//W3C//DTD SVG 1.1//EN"
 "http://www.w3.org/Graphics/SVG/1.1/DTD/svg11.dtd">
<!-- Generated by graphviz version 2.43.0 (0)
 -->
<!-- Pages: 1 -->
<svg width="595pt" height="448pt"
 viewBox="0.00 0.00 594.50 448.00" xmlns="http://www.w3.org/2000/svg" xmlns:xlink="http://www.w3.org/1999/xlink">
<g id="graph0" class="graph" transform="scale(1 1) rotate(0) translate(4 444)">
<polygon fill="white" stroke="transparent" points="-4,4 -4,-444 590.5,-444 590.5,4 -4,4"/>
<g id="clust1" class="cluster">
<title>cluster_0</title>
<polygon fill="white" stroke="blue" points="8,-8 8,-432 420,-432 420,-8 8,-8"/>
<text text-anchor="middle" x="214" y="-416.8" font-family="Times,serif" font-size="14.00">preproc_t2</text>
</g>
<!-- 17 -->
<g id="node1" class="node">
<title>17</title>
<path fill="none" stroke="#d87556" stroke-width="2" d="M253,-188C253,-188 155,-188 155,-188 149,-188 143,-182 143,-176 143,-176 143,-164 143,-164 143,-158 149,-152 155,-152 155,-152 253,-152 253,-152 259,-152 265,-158 265,-164 265,-164 265,-176 265,-176 265,-182 259,-188 253,-188"/>
<text text-anchor="middle" x="204" y="-167.5" font-family="sans" font-size="10.00">avg_aligned_or_cp_t2</text>
</g>
<!-- 28 -->
<g id="node2" class="node">
<title>28</title>
<path fill="none" stroke="#d89556" stroke-width="2" d="M108,-116C108,-116 20,-116 20,-116 14,-116 8,-110 8,-104 8,-104 8,-92 8,-92 8,-86 14,-80 20,-80 20,-80 108,-80 108,-80 114,-80 120,-86 120,-92 120,-92 120,-104 120,-104 120,-110 114,-116 108,-116"/>
<text text-anchor="middle" x="64" y="-95.5" font-family="sans" font-size="10.00">reg_t2_to_template</text>
</g>
<!-- 17&#45;&gt;28 -->
<g id="edge1" class="edge">
<title>17&#45;&gt;28</title>
<path fill="none" stroke="grey" stroke-width="2" d="M169.75,-151.88C150.94,-142.47 127.42,-130.71 107.33,-120.67"/>
<polygon fill="grey" stroke="grey" stroke-width="2" points="108.89,-117.53 98.38,-116.19 105.76,-123.79 108.89,-117.53"/>
</g>
<!-- 30 -->
<g id="node3" class="node">
<title>30</title>
<path fill="none" stroke="#d8b456" stroke-width="2" d="M408,-116C408,-116 300,-116 300,-116 294,-116 288,-110 288,-104 288,-104 288,-92 288,-92 288,-86 294,-80 300,-80 300,-80 408,-80 408,-80 414,-80 420,-86 420,-92 420,-92 420,-104 420,-104 420,-110 414,-116 408,-116"/>
<text text-anchor="middle" x="354" y="-101" font-family="sans" font-size="10.00">warp_t2_to_corobl_crop</text>
<text text-anchor="middle" x="354" y="-90" font-family="sans" font-size="10.00">hemi: L</text>
</g>
<!-- 17&#45;&gt;30 -->
<g id="edge2" class="edge">
<title>17&#45;&gt;30</title>
<path fill="none" stroke="grey" stroke-width="2" d="M240.69,-151.88C261.02,-142.39 286.47,-130.51 308.1,-120.42"/>
<polygon fill="grey" stroke="grey" stroke-width="2" points="309.84,-123.47 317.43,-116.07 306.88,-117.13 309.84,-123.47"/>
</g>
<!-- 71 -->
<g id="node4" class="node">
<title>71</title>
<path fill="none" stroke="#d8b456" stroke-width="2" d="M258,-116C258,-116 150,-116 150,-116 144,-116 138,-110 138,-104 138,-104 138,-92 138,-92 138,-86 144,-80 150,-80 150,-80 258,-80 258,-80 264,-80 270,-86 270,-92 270,-92 270,-104 270,-104 270,-110 264,-116 258,-116"/>
<text text-anchor="middle" x="204" y="-101" font-family="sans" font-size="10.00">warp_t2_to_corobl_crop</text>
<text text-anchor="middle" x="204" y="-90" font-family="sans" font-size="10.00">hemi: R</text>
</g>
<!-- 17&#45;&gt;71 -->
<g id="edge3" class="edge">
<title>17&#45;&gt;71</title>
<path fill="none" stroke="grey" stroke-width="2" d="M204,-151.7C204,-143.98 204,-134.71 204,-126.11"/>
<polygon fill="grey" stroke="grey" stroke-width="2" points="207.5,-126.1 204,-116.1 200.5,-126.1 207.5,-126.1"/>
</g>
<!-- 27 -->
<g id="node15" class="node">
<title>27</title>
<path fill="none" stroke="#566bd8" stroke-width="2" d="M574.5,-44C574.5,-44 431.5,-44 431.5,-44 425.5,-44 419.5,-38 419.5,-32 419.5,-32 419.5,-20 419.5,-20 419.5,-14 425.5,-8 431.5,-8 431.5,-8 574.5,-8 574.5,-8 580.5,-8 586.5,-14 586.5,-20 586.5,-20 586.5,-32 586.5,-32 586.5,-38 580.5,-44 574.5,-44"/>
<text text-anchor="middle" x="503" y="-29" font-family="sans" font-size="10.00">convert_template_xfm_ras2itk</text>
<text text-anchor="middle" x="503" y="-18" font-family="sans" font-size="10.00">reg_suffix: T2w</text>
</g>
<!-- 28&#45;&gt;27 -->
<g id="edge18" class="edge">
<title>28&#45;&gt;27</title>
<path fill="none" stroke="grey" stroke-width="2" d="M120.27,-81.8C123.21,-81.16 126.14,-80.55 129,-80 251.91,-56.32 287.22,-63.91 409.11,-45.07"/>
<polygon fill="grey" stroke="grey" stroke-width="2" points="409.88,-48.49 419.21,-43.48 408.79,-41.58 409.88,-48.49"/>
</g>
<!-- 29 -->
<g id="node14" class="node">
<title>29</title>
<path fill="none" stroke="#56d863" stroke-width="2" d="M383,-44C383,-44 325,-44 325,-44 319,-44 313,-38 313,-32 313,-32 313,-20 313,-20 313,-14 319,-8 325,-8 325,-8 383,-8 383,-8 389,-8 395,-14 395,-20 395,-20 395,-32 395,-32 395,-38 389,-44 383,-44"/>
<text text-anchor="middle" x="354" y="-29" font-family="sans" font-size="10.00">lr_flip_t2</text>
<text text-anchor="middle" x="354" y="-18" font-family="sans" font-size="10.00">desc: preproc</text>
</g>
<!-- 30&#45;&gt;29 -->
<g id="edge16" class="edge">
<title>30&#45;&gt;29</title>
<path fill="none" stroke="grey" stroke-width="2" d="M354,-79.7C354,-71.98 354,-62.71 354,-54.11"/>
<polygon fill="grey" stroke="grey" stroke-width="2" points="357.5,-54.1 354,-44.1 350.5,-54.1 357.5,-54.1"/>
</g>
<!-- 18 -->
<g id="node5" class="node">
<title>18</title>
<path fill="none" stroke="#56d873" stroke-width="2" d="M219,-332C219,-332 189,-332 189,-332 183,-332 177,-326 177,-320 177,-320 177,-308 177,-308 177,-302 183,-296 189,-296 189,-296 219,-296 219,-296 225,-296 231,-302 231,-308 231,-308 231,-320 231,-320 231,-326 225,-332 219,-332"/>
<text text-anchor="middle" x="204" y="-311.5" font-family="sans" font-size="10.00">n4_t2</text>
</g>
<!-- 18&#45;&gt;17 -->
<g id="edge4" class="edge">
<title>18&#45;&gt;17</title>
<path fill="none" stroke="grey" stroke-width="2" d="M204,-295.87C204,-271.67 204,-227.21 204,-198.39"/>
<polygon fill="grey" stroke="grey" stroke-width="2" points="207.5,-198.19 204,-188.19 200.5,-198.19 207.5,-198.19"/>
</g>
<!-- 20 -->
<g id="node6" class="node">
<title>20</title>
<path fill="none" stroke="#d6d856" stroke-width="2" d="M292.5,-260C292.5,-260 235.5,-260 235.5,-260 229.5,-260 223.5,-254 223.5,-248 223.5,-248 223.5,-236 223.5,-236 223.5,-230 229.5,-224 235.5,-224 235.5,-224 292.5,-224 292.5,-224 298.5,-224 304.5,-230 304.5,-236 304.5,-236 304.5,-248 304.5,-248 304.5,-254 298.5,-260 292.5,-260"/>
<text text-anchor="middle" x="264" y="-245" font-family="sans" font-size="10.00">reg_t2_to_ref</text>
<text text-anchor="middle" x="264" y="-234" font-family="sans" font-size="10.00">idx: 1</text>
</g>
<!-- 18&#45;&gt;20 -->
<g id="edge5" class="edge">
<title>18&#45;&gt;20</title>
<path fill="none" stroke="grey" stroke-width="2" d="M218.83,-295.7C226.02,-287.3 234.8,-277.07 242.69,-267.86"/>
<polygon fill="grey" stroke="grey" stroke-width="2" points="245.49,-269.97 249.34,-260.1 240.17,-265.42 245.49,-269.97"/>
</g>
<!-- 23 -->
<g id="node7" class="node">
<title>23</title>
<path fill="none" stroke="#d6d856" stroke-width="2" d="M172.5,-260C172.5,-260 115.5,-260 115.5,-260 109.5,-260 103.5,-254 103.5,-248 103.5,-248 103.5,-236 103.5,-236 103.5,-230 109.5,-224 115.5,-224 115.5,-224 172.5,-224 172.5,-224 178.5,-224 184.5,-230 184.5,-236 184.5,-236 184.5,-248 184.5,-248 184.5,-254 178.5,-260 172.5,-260"/>
<text text-anchor="middle" x="144" y="-245" font-family="sans" font-size="10.00">reg_t2_to_ref</text>
<text text-anchor="middle" x="144" y="-234" font-family="sans" font-size="10.00">idx: 2</text>
</g>
<!-- 18&#45;&gt;23 -->
<g id="edge6" class="edge">
<title>18&#45;&gt;23</title>
<path fill="none" stroke="grey" stroke-width="2" d="M189.17,-295.7C181.98,-287.3 173.2,-277.07 165.31,-267.86"/>
<polygon fill="grey" stroke="grey" stroke-width="2" points="167.83,-265.42 158.66,-260.1 162.51,-269.97 167.83,-265.42"/>
</g>
<!-- 20&#45;&gt;17 -->
<g id="edge8" class="edge">
<title>20&#45;&gt;17</title>
<path fill="none" stroke="grey" stroke-width="2" d="M249.17,-223.7C241.98,-215.3 233.2,-205.07 225.31,-195.86"/>
<polygon fill="grey" stroke="grey" stroke-width="2" points="227.83,-193.42 218.66,-188.1 222.51,-197.97 227.83,-193.42"/>
</g>
<!-- 23&#45;&gt;17 -->
<g id="edge11" class="edge">
<title>23&#45;&gt;17</title>
<path fill="none" stroke="grey" stroke-width="2" d="M158.83,-223.7C166.02,-215.3 174.8,-205.07 182.69,-195.86"/>
<polygon fill="grey" stroke="grey" stroke-width="2" points="185.49,-197.97 189.34,-188.1 180.17,-193.42 185.49,-197.97"/>
</g>
<!-- 19 -->
<g id="node8" class="node">
<title>19</title>
<path fill="none" stroke="#56d87b" stroke-width="2" d="M230,-409C230,-409 178,-409 178,-409 172,-409 166,-403 166,-397 166,-397 166,-380 166,-380 166,-374 172,-368 178,-368 178,-368 230,-368 230,-368 236,-368 242,-374 242,-380 242,-380 242,-397 242,-397 242,-403 236,-409 230,-409"/>
<text text-anchor="middle" x="204" y="-397" font-family="sans" font-size="10.00">import_t2</text>
<text text-anchor="middle" x="204" y="-386" font-family="sans" font-size="10.00">run: 1</text>
<text text-anchor="middle" x="204" y="-375" font-family="sans" font-size="10.00">subject: 001</text>
</g>
<!-- 19&#45;&gt;18 -->
<g id="edge7" class="edge">
<title>19&#45;&gt;18</title>
<path fill="none" stroke="grey" stroke-width="2" d="M204,-367.69C204,-359.91 204,-350.84 204,-342.45"/>
<polygon fill="grey" stroke="grey" stroke-width="2" points="207.5,-342.32 204,-332.32 200.5,-342.32 207.5,-342.32"/>
</g>
<!-- 21 -->
<g id="node9" class="node">
<title>21</title>
<path fill="none" stroke="#56d873" stroke-width="2" d="M302,-332C302,-332 272,-332 272,-332 266,-332 260,-326 260,-320 260,-320 260,-308 260,-308 260,-302 266,-296 272,-296 272,-296 302,-296 302,-296 308,-296 314,-302 314,-308 314,-308 314,-320 314,-320 314,-326 308,-332 302,-332"/>
<text text-anchor="middle" x="287" y="-311.5" font-family="sans" font-size="10.00">n4_t2</text>
</g>
<!-- 21&#45;&gt;20 -->
<g id="edge9" class="edge">
<title>21&#45;&gt;20</title>
<path fill="none" stroke="grey" stroke-width="2" d="M281.31,-295.7C278.75,-287.9 275.67,-278.51 272.82,-269.83"/>
<polygon fill="grey" stroke="grey" stroke-width="2" points="276.07,-268.51 269.62,-260.1 269.42,-270.7 276.07,-268.51"/>
</g>
<!-- 22 -->
<g id="node10" class="node">
<title>22</title>
<path fill="none" stroke="#56d87b" stroke-width="2" d="M324,-409C324,-409 272,-409 272,-409 266,-409 260,-403 260,-397 260,-397 260,-380 260,-380 260,-374 266,-368 272,-368 272,-368 324,-368 324,-368 330,-368 336,-374 336,-380 336,-380 336,-397 336,-397 336,-403 330,-409 324,-409"/>
<text text-anchor="middle" x="298" y="-397" font-family="sans" font-size="10.00">import_t2</text>
<text text-anchor="middle" x="298" y="-386" font-family="sans" font-size="10.00">run: 2</text>
<text text-anchor="middle" x="298" y="-375" font-family="sans" font-size="10.00">subject: 001</text>
</g>
<!-- 22&#45;&gt;21 -->
<g id="edge10" class="edge">
<title>22&#45;&gt;21</title>
<path fill="none" stroke="grey" stroke-width="2" d="M294.99,-367.69C293.81,-359.91 292.44,-350.84 291.16,-342.45"/>
<polygon fill="grey" stroke="grey" stroke-width="2" points="294.59,-341.68 289.63,-332.32 287.67,-342.73 294.59,-341.68"/>
</g>
<!-- 24 -->
<g id="node11" class="node">
<title>24</title>
<path fill="none" stroke="#56d873" stroke-width="2" d="M136,-332C136,-332 106,-332 106,-332 100,-332 94,-326 94,-320 94,-320 94,-308 94,-308 94,-302 100,-296 106,-296 106,-296 136,-296 136,-296 142,-296 148,-302 148,-308 148,-308 148,-320 148,-320 148,-326 142,-332 136,-332"/>
<text text-anchor="middle" x="121" y="-311.5" font-family="sans" font-size="10.00">n4_t2</text>
</g>
<!-- 24&#45;&gt;23 -->
<g id="edge12" class="edge">
<title>24&#45;&gt;23</title>
<path fill="none" stroke="grey" stroke-width="2" d="M126.69,-295.7C129.25,-287.9 132.33,-278.51 135.18,-269.83"/>
<polygon fill="grey" stroke="grey" stroke-width="2" points="138.58,-270.7 138.38,-260.1 131.93,-268.51 138.58,-270.7"/>
</g>
<!-- 25 -->
<g id="node12" class="node">
<title>25</title>
<path fill="none" stroke="#56d87b" stroke-width="2" d="M136,-409C136,-409 84,-409 84,-409 78,-409 72,-403 72,-397 72,-397 72,-380 72,-380 72,-374 78,-368 84,-368 84,-368 136,-368 136,-368 142,-368 148,-374 148,-380 148,-380 148,-397 148,-397 148,-403 142,-409 136,-409"/>
<text text-anchor="middle" x="110" y="-397" font-family="sans" font-size="10.00">import_t2</text>
<text text-anchor="middle" x="110" y="-386" font-family="sans" font-size="10.00">run: 3</text>
<text text-anchor="middle" x="110" y="-375" font-family="sans" font-size="10.00">subject: 001</text>
</g>
<!-- 25&#45;&gt;24 -->
<g id="edge13" class="edge">
<title>25&#45;&gt;24</title>
<path fill="none" stroke="grey" stroke-width="2" d="M113.01,-367.69C114.19,-359.91 115.56,-350.84 116.84,-342.45"/>
<polygon fill="grey" stroke="grey" stroke-width="2" points="120.33,-342.73 118.37,-332.32 113.41,-341.68 120.33,-342.73"/>
</g>
<!-- 26 -->
<g id="node13" class="node">
<title>26</title>
<path fill="none" stroke="#56d87b" stroke-width="2" d="M408,-188C408,-188 296,-188 296,-188 290,-188 284,-182 284,-176 284,-176 284,-164 284,-164 284,-158 290,-152 296,-152 296,-152 408,-152 408,-152 414,-152 420,-158 420,-164 420,-164 420,-176 420,-176 420,-182 414,-188 408,-188"/>
<text text-anchor="middle" x="352" y="-167.5" font-family="sans" font-size="10.00">compose_t2_xfm_corobl</text>
</g>
<!-- 26&#45;&gt;30 -->
<g id="edge14" class="edge">
<title>26&#45;&gt;30</title>
<path fill="none" stroke="grey" stroke-width="2" d="M352.49,-151.7C352.71,-143.98 352.98,-134.71 353.23,-126.11"/>
<polygon fill="grey" stroke="grey" stroke-width="2" points="356.72,-126.2 353.51,-116.1 349.73,-126 356.72,-126.2"/>
</g>
<!-- 26&#45;&gt;71 -->
<g id="edge15" class="edge">
<title>26&#45;&gt;71</title>
<path fill="none" stroke="grey" stroke-width="2" d="M315.8,-151.88C295.74,-142.39 270.63,-130.51 249.29,-120.42"/>
<polygon fill="grey" stroke="grey" stroke-width="2" points="250.62,-117.18 240.09,-116.07 247.63,-123.51 250.62,-117.18"/>
</g>
<!-- 27&#45;&gt;26 -->
<g id="edge17" class="edge">
<title>27&#45;&gt;26</title>
<path fill="none" stroke="grey" stroke-width="2" d="M490.88,-44.27C477.15,-63.13 453.48,-93.64 429,-116 416.91,-127.04 402.39,-137.61 389.23,-146.37"/>
<polygon fill="grey" stroke="grey" stroke-width="2" points="387.29,-143.46 380.82,-151.85 391.11,-149.32 387.29,-143.46"/>
</g>
</g>
</svg>
