<?xml version="1.0" encoding="UTF-8" standalone="no"?>
<!DOCTYPE svg PUBLIC "-//W3C//DTD SVG 1.1//EN"
 "http://www.w3.org/Graphics/SVG/1.1/DTD/svg11.dtd">
<!-- Generated by graphviz version 2.43.0 (0)
 -->
<!-- Title: snakemake_dag Pages: 1 -->
<svg width="1958pt" height="1371pt"
 viewBox="0.00 0.00 1958.00 1371.00" xmlns="http://www.w3.org/2000/svg" xmlns:xlink="http://www.w3.org/1999/xlink">
<g id="graph0" class="graph" transform="scale(1 1) rotate(0) translate(4 1367)">
<title>snakemake_dag</title>
<polygon fill="white" stroke="transparent" points="-4,4 -4,-1367 1954,-1367 1954,4 -4,4"/>
<g id="clust1" class="cluster">
<title>cluster_0</title>
<polygon fill="white" stroke="blue" points="368,-1224 368,-1355 577,-1355 577,-1224 368,-1224"/>
<text text-anchor="middle" x="472.5" y="-1339.8" font-family="Times,serif" font-size="14.00">preproc_hippb500</text>
</g>
<g id="clust2" class="cluster">
<title>cluster_1</title>
<polygon fill="white" stroke="blue" points="750,-576 750,-779 1086,-779 1086,-576 750,-576"/>
<text text-anchor="middle" x="918" y="-763.8" font-family="Times,serif" font-size="14.00">warps</text>
</g>
<g id="clust3" class="cluster">
<title>cluster_2</title>
<polygon fill="white" stroke="blue" points="728,-72 728,-203 1058,-203 1058,-72 728,-72"/>
<text text-anchor="middle" x="893" y="-187.8" font-family="Times,serif" font-size="14.00">qc</text>
</g>
<g id="clust4" class="cluster">
<title>cluster_3</title>
<polygon fill="white" stroke="blue" points="298,-648 298,-851 722,-851 722,-648 298,-648"/>
<text text-anchor="middle" x="510" y="-835.8" font-family="Times,serif" font-size="14.00">autotop</text>
</g>
<g id="clust5" class="cluster">
<title>cluster_4</title>
<polygon fill="white" stroke="blue" points="1086,-72 1086,-707 1846,-707 1846,-72 1086,-72"/>
<text text-anchor="middle" x="1466" y="-691.8" font-family="Times,serif" font-size="14.00">gifti</text>
</g>
<g id="clust6" class="cluster">
<title>cluster_5</title>
<polygon fill="white" stroke="blue" points="8,-792 8,-1211 298,-1211 298,-792 8,-792"/>
<text text-anchor="middle" x="153" y="-1195.8" font-family="Times,serif" font-size="14.00">shape_inject</text>
</g>
<g id="clust7" class="cluster">
<title>cluster_6</title>
<polygon fill="white" stroke="blue" points="420,-288 420,-419 632,-419 632,-288 420,-288"/>
<text text-anchor="middle" x="526" y="-403.8" font-family="Times,serif" font-size="14.00">subfields</text>
</g>
<g id="clust8" class="cluster">
<title>cluster_7</title>
<polygon fill="white" stroke="blue" points="298,-1152 298,-1211 382,-1211 382,-1152 298,-1152"/>
<text text-anchor="middle" x="340" y="-1195.8" font-family="Times,serif" font-size="14.00">nnunet</text>
</g>
<g id="clust9" class="cluster">
<title>cluster_8</title>
<polygon fill="white" stroke="blue" points="331,-216 331,-275 759,-275 759,-216 331,-216"/>
<text text-anchor="middle" x="545" y="-259.8" font-family="Times,serif" font-size="14.00">common</text>
</g>
<!-- 17 -->
<g id="node1" class="node">
<title>17</title>
<path fill="none" stroke="#d89c56" stroke-width="2" d="M526,-1332C526,-1332 380,-1332 380,-1332 374,-1332 368,-1326 368,-1320 368,-1320 368,-1308 368,-1308 368,-1302 374,-1296 380,-1296 380,-1296 526,-1296 526,-1296 532,-1296 538,-1302 538,-1308 538,-1308 538,-1320 538,-1320 538,-1326 532,-1332 526,-1332"/>
<text text-anchor="middle" x="453" y="-1311.5" font-family="sans" font-size="10.00">resample_hippdwi_to_template</text>
</g>
<!-- 16 -->
<g id="node2" class="node">
<title>16</title>
<path fill="none" stroke="#5692d8" stroke-width="2" d="M429.5,-1260C429.5,-1260 380.5,-1260 380.5,-1260 374.5,-1260 368.5,-1254 368.5,-1248 368.5,-1248 368.5,-1236 368.5,-1236 368.5,-1230 374.5,-1224 380.5,-1224 380.5,-1224 429.5,-1224 429.5,-1224 435.5,-1224 441.5,-1230 441.5,-1236 441.5,-1236 441.5,-1248 441.5,-1248 441.5,-1254 435.5,-1260 429.5,-1260"/>
<text text-anchor="middle" x="405" y="-1239.5" font-family="sans" font-size="10.00">lr_flip_b500</text>
</g>
<!-- 17&#45;&gt;16 -->
<g id="edge43" class="edge">
<title>17&#45;&gt;16</title>
<path fill="none" stroke="grey" stroke-width="2" d="M441.13,-1295.7C435.5,-1287.47 428.65,-1277.48 422.43,-1268.42"/>
<polygon fill="grey" stroke="grey" stroke-width="2" points="425.27,-1266.37 416.73,-1260.1 419.5,-1270.33 425.27,-1266.37"/>
</g>
<!-- 43 -->
<g id="node3" class="node">
<title>43</title>
<path fill="none" stroke="#566bd8" stroke-width="2" d="M564.5,-1260C564.5,-1260 471.5,-1260 471.5,-1260 465.5,-1260 459.5,-1254 459.5,-1248 459.5,-1248 459.5,-1236 459.5,-1236 459.5,-1230 465.5,-1224 471.5,-1224 471.5,-1224 564.5,-1224 564.5,-1224 570.5,-1224 576.5,-1230 576.5,-1236 576.5,-1236 576.5,-1248 576.5,-1248 576.5,-1254 570.5,-1260 564.5,-1260"/>
<text text-anchor="middle" x="518" y="-1239.5" font-family="sans" font-size="10.00">cp_b500_to_anat_dir</text>
</g>
<!-- 17&#45;&gt;43 -->
<g id="edge95" class="edge">
<title>17&#45;&gt;43</title>
<path fill="none" stroke="grey" stroke-width="2" d="M469.07,-1295.7C476.94,-1287.22 486.56,-1276.86 495.17,-1267.58"/>
<polygon fill="grey" stroke="grey" stroke-width="2" points="497.88,-1269.81 502.12,-1260.1 492.75,-1265.05 497.88,-1269.81"/>
</g>
<!-- 15 -->
<g id="node43" class="node">
<title>15</title>
<path fill="none" stroke="#d88556" stroke-width="2" d="M369.5,-1188C369.5,-1188 310.5,-1188 310.5,-1188 304.5,-1188 298.5,-1182 298.5,-1176 298.5,-1176 298.5,-1164 298.5,-1164 298.5,-1158 304.5,-1152 310.5,-1152 310.5,-1152 369.5,-1152 369.5,-1152 375.5,-1152 381.5,-1158 381.5,-1164 381.5,-1164 381.5,-1176 381.5,-1176 381.5,-1182 375.5,-1188 369.5,-1188"/>
<text text-anchor="middle" x="340" y="-1167.5" font-family="sans" font-size="10.00">run_inference</text>
</g>
<!-- 17&#45;&gt;15 -->
<g id="edge42" class="edge">
<title>17&#45;&gt;15</title>
<path fill="none" stroke="grey" stroke-width="2" d="M406.21,-1295.81C389.34,-1287.42 371.6,-1275.69 360,-1260 346.79,-1242.14 342.05,-1217.14 340.47,-1198.18"/>
<polygon fill="grey" stroke="grey" stroke-width="2" points="343.95,-1197.86 339.87,-1188.08 336.97,-1198.27 343.95,-1197.86"/>
</g>
<!-- 16&#45;&gt;15 -->
<g id="edge41" class="edge">
<title>16&#45;&gt;15</title>
<path fill="none" stroke="grey" stroke-width="2" d="M388.93,-1223.7C381.06,-1215.22 371.44,-1204.86 362.83,-1195.58"/>
<polygon fill="grey" stroke="grey" stroke-width="2" points="365.25,-1193.05 355.88,-1188.1 360.12,-1197.81 365.25,-1193.05"/>
</g>
<!-- 42 -->
<g id="node11" class="node">
<title>42</title>
<path fill="none" stroke="#61d856" stroke-width="2" d="M1045.5,-180C1045.5,-180 998.5,-180 998.5,-180 992.5,-180 986.5,-174 986.5,-168 986.5,-168 986.5,-156 986.5,-156 986.5,-150 992.5,-144 998.5,-144 998.5,-144 1045.5,-144 1045.5,-144 1051.5,-144 1057.5,-150 1057.5,-156 1057.5,-156 1057.5,-168 1057.5,-168 1057.5,-174 1051.5,-180 1045.5,-180"/>
<text text-anchor="middle" x="1022" y="-159.5" font-family="sans" font-size="10.00">qc_subfield</text>
</g>
<!-- 43&#45;&gt;42 -->
<g id="edge93" class="edge">
<title>43&#45;&gt;42</title>
<path fill="none" stroke="grey" stroke-width="2" d="M576.81,-1241.44C846.27,-1242.72 1950,-1239.37 1950,-1099 1950,-1099 1950,-1099 1950,-449 1950,-336.31 1943.57,-278.8 1850,-216 1814.57,-192.22 1122.74,-215.71 1082,-203 1070.45,-199.39 1059.06,-192.81 1049.37,-186.01"/>
<polygon fill="grey" stroke="grey" stroke-width="2" points="1051.44,-183.18 1041.32,-180.04 1047.27,-188.81 1051.44,-183.18"/>
</g>
<!-- 24 -->
<g id="node4" class="node">
<title>24</title>
<path fill="none" stroke="#d85656" stroke-width="2" d="M872,-684C872,-684 762,-684 762,-684 756,-684 750,-678 750,-672 750,-672 750,-660 750,-660 750,-654 756,-648 762,-648 762,-648 872,-648 872,-648 878,-648 884,-654 884,-660 884,-660 884,-672 884,-672 884,-678 878,-684 872,-684"/>
<text text-anchor="middle" x="817" y="-663.5" font-family="sans" font-size="10.00">create_native_coord_ref</text>
</g>
<!-- 7 -->
<g id="node7" class="node">
<title>7</title>
<path fill="none" stroke="#567bd8" stroke-width="2" d="M846,-612C846,-612 762,-612 762,-612 756,-612 750,-606 750,-600 750,-600 750,-588 750,-588 750,-582 756,-576 762,-576 762,-576 846,-576 846,-576 852,-576 858,-582 858,-588 858,-588 858,-600 858,-600 858,-606 852,-612 846,-612"/>
<text text-anchor="middle" x="804" y="-591.5" font-family="sans" font-size="10.00">create_warps_hipp</text>
</g>
<!-- 24&#45;&gt;7 -->
<g id="edge24" class="edge">
<title>24&#45;&gt;7</title>
<path fill="none" stroke="grey" stroke-width="2" d="M813.79,-647.7C812.35,-639.98 810.63,-630.71 809.04,-622.11"/>
<polygon fill="grey" stroke="grey" stroke-width="2" points="812.44,-621.3 807.18,-612.1 805.56,-622.58 812.44,-621.3"/>
</g>
<!-- 34 -->
<g id="node8" class="node">
<title>34</title>
<path fill="none" stroke="#d89556" stroke-width="2" d="M989.5,-612C989.5,-612 888.5,-612 888.5,-612 882.5,-612 876.5,-606 876.5,-600 876.5,-600 876.5,-588 876.5,-588 876.5,-582 882.5,-576 888.5,-576 888.5,-576 989.5,-576 989.5,-576 995.5,-576 1001.5,-582 1001.5,-588 1001.5,-588 1001.5,-600 1001.5,-600 1001.5,-606 995.5,-612 989.5,-612"/>
<text text-anchor="middle" x="939" y="-591.5" font-family="sans" font-size="10.00">create_warps_dentate</text>
</g>
<!-- 24&#45;&gt;34 -->
<g id="edge70" class="edge">
<title>24&#45;&gt;34</title>
<path fill="none" stroke="grey" stroke-width="2" d="M846.84,-647.88C862.94,-638.64 883,-627.13 900.29,-617.21"/>
<polygon fill="grey" stroke="grey" stroke-width="2" points="902.11,-620.2 909.04,-612.19 898.63,-614.13 902.11,-620.2"/>
</g>
<!-- 8 -->
<g id="node5" class="node">
<title>8</title>
<path fill="none" stroke="#d85e56" stroke-width="2" d="M1074,-756C1074,-756 996,-756 996,-756 990,-756 984,-750 984,-744 984,-744 984,-732 984,-732 984,-726 990,-720 996,-720 996,-720 1074,-720 1074,-720 1080,-720 1086,-726 1086,-732 1086,-732 1086,-744 1086,-744 1086,-750 1080,-756 1074,-756"/>
<text text-anchor="middle" x="1035" y="-735.5" font-family="sans" font-size="10.00">create_unfold_ref</text>
</g>
<!-- 9 -->
<g id="node6" class="node">
<title>9</title>
<path fill="none" stroke="#5663d8" stroke-width="2" d="M1053.5,-684C1053.5,-684 934.5,-684 934.5,-684 928.5,-684 922.5,-678 922.5,-672 922.5,-672 922.5,-660 922.5,-660 922.5,-654 928.5,-648 934.5,-648 934.5,-648 1053.5,-648 1053.5,-648 1059.5,-648 1065.5,-654 1065.5,-660 1065.5,-660 1065.5,-672 1065.5,-672 1065.5,-678 1059.5,-684 1053.5,-684"/>
<text text-anchor="middle" x="994" y="-663.5" font-family="sans" font-size="10.00">create_unfold_coord_map</text>
</g>
<!-- 8&#45;&gt;9 -->
<g id="edge31" class="edge">
<title>8&#45;&gt;9</title>
<path fill="none" stroke="grey" stroke-width="2" d="M1024.87,-719.7C1020.15,-711.64 1014.44,-701.89 1009.22,-692.98"/>
<polygon fill="grey" stroke="grey" stroke-width="2" points="1012.09,-690.96 1004.02,-684.1 1006.05,-694.5 1012.09,-690.96"/>
</g>
<!-- 8&#45;&gt;7 -->
<g id="edge25" class="edge">
<title>8&#45;&gt;7</title>
<path fill="none" stroke="grey" stroke-width="2" d="M983.93,-735.19C960.12,-731.86 932.93,-724.14 914,-707 893.37,-688.32 910.67,-669.51 893,-648 882.7,-635.46 868.6,-625.18 854.66,-617.12"/>
<polygon fill="grey" stroke="grey" stroke-width="2" points="856.02,-613.87 845.57,-612.14 852.66,-620.01 856.02,-613.87"/>
</g>
<!-- 8&#45;&gt;34 -->
<g id="edge71" class="edge">
<title>8&#45;&gt;34</title>
<path fill="none" stroke="grey" stroke-width="2" d="M1064.95,-719.72C1069.01,-716.06 1072.59,-711.81 1075,-707 1086.73,-683.55 1089.8,-669.65 1075,-648 1060.36,-626.58 1035.67,-613.81 1011.31,-606.21"/>
<polygon fill="grey" stroke="grey" stroke-width="2" points="1012.23,-602.83 1001.65,-603.44 1010.3,-609.56 1012.23,-602.83"/>
</g>
<!-- 25 -->
<g id="node20" class="node">
<title>25</title>
<path fill="none" stroke="#ced856" stroke-width="2" d="M1205,-612C1205,-612 1099,-612 1099,-612 1093,-612 1087,-606 1087,-600 1087,-600 1087,-588 1087,-588 1087,-582 1093,-576 1099,-576 1099,-576 1205,-576 1205,-576 1211,-576 1217,-582 1217,-588 1217,-588 1217,-600 1217,-600 1217,-606 1211,-612 1205,-612"/>
<text text-anchor="middle" x="1152" y="-591.5" font-family="sans" font-size="10.00">constrain_surf_to_bbox</text>
</g>
<!-- 8&#45;&gt;25 -->
<g id="edge55" class="edge">
<title>8&#45;&gt;25</title>
<path fill="none" stroke="grey" stroke-width="2" d="M1067.72,-720C1073.51,-716.17 1079.21,-711.81 1084,-707 1108.98,-681.93 1128.71,-645.97 1140.35,-621.61"/>
<polygon fill="grey" stroke="grey" stroke-width="2" points="1143.65,-622.81 1144.69,-612.27 1137.3,-619.86 1143.65,-622.81"/>
</g>
<!-- 31 -->
<g id="node28" class="node">
<title>31</title>
<path fill="none" stroke="#5682d8" stroke-width="2" d="M1794,-324C1794,-324 1678,-324 1678,-324 1672,-324 1666,-318 1666,-312 1666,-312 1666,-300 1666,-300 1666,-294 1672,-288 1678,-288 1678,-288 1794,-288 1794,-288 1800,-288 1806,-294 1806,-300 1806,-300 1806,-312 1806,-312 1806,-318 1800,-324 1794,-324"/>
<text text-anchor="middle" x="1736" y="-303.5" font-family="sans" font-size="10.00">resample_atlas_to_refvol</text>
</g>
<!-- 8&#45;&gt;31 -->
<g id="edge61" class="edge">
<title>8&#45;&gt;31</title>
<path fill="none" stroke="grey" stroke-width="2" d="M1086.22,-733.78C1268.38,-721.66 1874,-675.33 1874,-595 1874,-595 1874,-595 1874,-449 1874,-394.35 1820.78,-352.81 1780.44,-329.18"/>
<polygon fill="grey" stroke="grey" stroke-width="2" points="1781.96,-326.02 1771.54,-324.13 1778.51,-332.11 1781.96,-326.02"/>
</g>
<!-- 0 -->
<g id="node47" class="node">
<title>0</title>
<path fill="none" stroke="#d86656" stroke-width="2" d="M859,-36C859,-36 829,-36 829,-36 823,-36 817,-30 817,-24 817,-24 817,-12 817,-12 817,-6 823,0 829,0 829,0 859,0 859,0 865,0 871,-6 871,-12 871,-12 871,-24 871,-24 871,-30 865,-36 859,-36"/>
<text text-anchor="middle" x="844" y="-15.5" font-family="sans" font-size="10.00">all</text>
</g>
<!-- 8&#45;&gt;0 -->
<g id="edge2" class="edge">
<title>8&#45;&gt;0</title>
<path fill="none" stroke="grey" stroke-width="2" d="M1086.09,-736.5C1259.61,-734.61 1817.43,-727.01 1850,-707 1898.48,-677.21 1912,-651.9 1912,-595 1912,-595 1912,-595 1912,-161 1912,-112.79 1892.13,-95.43 1850,-72 1764.1,-24.23 1053.37,-19.49 881.37,-19.04"/>
<polygon fill="grey" stroke="grey" stroke-width="2" points="881.3,-15.54 871.29,-19.02 881.28,-22.54 881.3,-15.54"/>
</g>
<!-- 9&#45;&gt;7 -->
<g id="edge29" class="edge">
<title>9&#45;&gt;7</title>
<path fill="none" stroke="grey" stroke-width="2" d="M947.52,-647.88C921.08,-638.14 887.8,-625.87 859.94,-615.61"/>
<polygon fill="grey" stroke="grey" stroke-width="2" points="860.92,-612.24 850.33,-612.07 858.5,-618.81 860.92,-612.24"/>
</g>
<!-- 9&#45;&gt;34 -->
<g id="edge74" class="edge">
<title>9&#45;&gt;34</title>
<path fill="none" stroke="grey" stroke-width="2" d="M980.4,-647.7C973.88,-639.39 965.93,-629.28 958.75,-620.14"/>
<polygon fill="grey" stroke="grey" stroke-width="2" points="961.37,-617.81 952.44,-612.1 955.87,-622.13 961.37,-617.81"/>
</g>
<!-- 6 -->
<g id="node21" class="node">
<title>6</title>
<path fill="none" stroke="#56d8a2" stroke-width="2" d="M1205.5,-540C1205.5,-540 1098.5,-540 1098.5,-540 1092.5,-540 1086.5,-534 1086.5,-528 1086.5,-528 1086.5,-516 1086.5,-516 1086.5,-510 1092.5,-504 1098.5,-504 1098.5,-504 1205.5,-504 1205.5,-504 1211.5,-504 1217.5,-510 1217.5,-516 1217.5,-516 1217.5,-528 1217.5,-528 1217.5,-534 1211.5,-540 1205.5,-540"/>
<text text-anchor="middle" x="1152" y="-519.5" font-family="sans" font-size="10.00">warp_gii_unfold2native</text>
</g>
<!-- 7&#45;&gt;6 -->
<g id="edge21" class="edge">
<title>7&#45;&gt;6</title>
<path fill="none" stroke="grey" stroke-width="2" d="M858.05,-578.34C861.41,-577.52 864.75,-576.73 868,-576 938.15,-560.16 1018.82,-545.44 1076.21,-535.55"/>
<polygon fill="grey" stroke="grey" stroke-width="2" points="1077.02,-538.96 1086.29,-533.82 1075.84,-532.06 1077.02,-538.96"/>
</g>
<!-- 41 -->
<g id="node45" class="node">
<title>41</title>
<path fill="none" stroke="#88d856" stroke-width="2" d="M747,-252C747,-252 653,-252 653,-252 647,-252 641,-246 641,-240 641,-240 641,-228 641,-228 641,-222 647,-216 653,-216 653,-216 747,-216 747,-216 753,-216 759,-222 759,-228 759,-228 759,-240 759,-240 759,-246 753,-252 747,-252"/>
<text text-anchor="middle" x="700" y="-231.5" font-family="sans" font-size="10.00">copy_xfm_to_results</text>
</g>
<!-- 7&#45;&gt;41 -->
<g id="edge91" class="edge">
<title>7&#45;&gt;41</title>
<path fill="none" stroke="grey" stroke-width="2" d="M793.23,-575.81C777.99,-549.83 752,-498.52 752,-451 752,-451 752,-451 752,-377 752,-334.49 731.2,-288.95 715.91,-261.22"/>
<polygon fill="grey" stroke="grey" stroke-width="2" points="718.76,-259.15 710.77,-252.19 712.67,-262.61 718.76,-259.15"/>
</g>
<!-- 34&#45;&gt;6 -->
<g id="edge23" class="edge">
<title>34&#45;&gt;6</title>
<path fill="none" stroke="grey" stroke-width="2" d="M990.83,-575.97C1020.85,-566.1 1058.82,-553.62 1090.37,-543.25"/>
<polygon fill="grey" stroke="grey" stroke-width="2" points="1091.53,-546.56 1099.93,-540.11 1089.34,-539.91 1091.53,-546.56"/>
</g>
<!-- 34&#45;&gt;41 -->
<g id="edge92" class="edge">
<title>34&#45;&gt;41</title>
<path fill="none" stroke="grey" stroke-width="2" d="M928.64,-575.76C913.99,-549.7 889,-498.31 889,-451 889,-451 889,-451 889,-377 889,-314.76 822.68,-276.43 768.61,-255.52"/>
<polygon fill="grey" stroke="grey" stroke-width="2" points="769.62,-252.16 759.02,-251.95 767.17,-258.72 769.62,-252.16"/>
</g>
<!-- 46 -->
<g id="node9" class="node">
<title>46</title>
<path fill="none" stroke="#afd856" stroke-width="2" d="M843.5,-180C843.5,-180 740.5,-180 740.5,-180 734.5,-180 728.5,-174 728.5,-168 728.5,-168 728.5,-156 728.5,-156 728.5,-150 734.5,-144 740.5,-144 740.5,-144 843.5,-144 843.5,-144 849.5,-144 855.5,-150 855.5,-156 855.5,-156 855.5,-168 855.5,-168 855.5,-174 849.5,-180 843.5,-180"/>
<text text-anchor="middle" x="792" y="-159.5" font-family="sans" font-size="10.00">get_subfield_vols_subj</text>
</g>
<!-- 45 -->
<g id="node10" class="node">
<title>45</title>
<path fill="none" stroke="#56d873" stroke-width="2" d="M846,-108C846,-108 760,-108 760,-108 754,-108 748,-102 748,-96 748,-96 748,-84 748,-84 748,-78 754,-72 760,-72 760,-72 846,-72 846,-72 852,-72 858,-78 858,-84 858,-84 858,-96 858,-96 858,-102 852,-108 846,-108"/>
<text text-anchor="middle" x="803" y="-87.5" font-family="sans" font-size="10.00">plot_subj_subfields</text>
</g>
<!-- 46&#45;&gt;45 -->
<g id="edge97" class="edge">
<title>46&#45;&gt;45</title>
<path fill="none" stroke="grey" stroke-width="2" d="M794.72,-143.7C795.93,-135.98 797.39,-126.71 798.74,-118.11"/>
<polygon fill="grey" stroke="grey" stroke-width="2" points="802.22,-118.53 800.31,-108.1 795.3,-117.44 802.22,-118.53"/>
</g>
<!-- 45&#45;&gt;0 -->
<g id="edge8" class="edge">
<title>45&#45;&gt;0</title>
<path fill="none" stroke="grey" stroke-width="2" d="M813.13,-71.7C817.85,-63.64 823.56,-53.89 828.78,-44.98"/>
<polygon fill="grey" stroke="grey" stroke-width="2" points="831.95,-46.5 833.98,-36.1 825.91,-42.96 831.95,-46.5"/>
</g>
<!-- 42&#45;&gt;0 -->
<g id="edge6" class="edge">
<title>42&#45;&gt;0</title>
<path fill="none" stroke="grey" stroke-width="2" d="M1000.53,-143.87C968.86,-118.6 909.5,-71.25 873.68,-42.68"/>
<polygon fill="grey" stroke="grey" stroke-width="2" points="875.55,-39.69 865.55,-36.19 871.18,-45.16 875.55,-39.69"/>
</g>
<!-- 44 -->
<g id="node12" class="node">
<title>44</title>
<path fill="none" stroke="#56b9d8" stroke-width="2" d="M956.5,-180C956.5,-180 885.5,-180 885.5,-180 879.5,-180 873.5,-174 873.5,-168 873.5,-168 873.5,-156 873.5,-156 873.5,-150 879.5,-144 885.5,-144 885.5,-144 956.5,-144 956.5,-144 962.5,-144 968.5,-150 968.5,-156 968.5,-156 968.5,-168 968.5,-168 968.5,-174 962.5,-180 956.5,-180"/>
<text text-anchor="middle" x="921" y="-159.5" font-family="sans" font-size="10.00">qc_subfield_surf</text>
</g>
<!-- 44&#45;&gt;0 -->
<g id="edge5" class="edge">
<title>44&#45;&gt;0</title>
<path fill="none" stroke="grey" stroke-width="2" d="M911.71,-143.87C898.42,-119.35 873.84,-74.03 858.24,-45.26"/>
<polygon fill="grey" stroke="grey" stroke-width="2" points="861.16,-43.31 853.32,-36.19 855.01,-46.65 861.16,-43.31"/>
</g>
<!-- 11 -->
<g id="node13" class="node">
<title>11</title>
<path fill="none" stroke="#d8b456" stroke-width="2" d="M560,-828C560,-828 468,-828 468,-828 462,-828 456,-822 456,-816 456,-816 456,-804 456,-804 456,-798 462,-792 468,-792 468,-792 560,-792 560,-792 566,-792 572,-798 572,-804 572,-804 572,-816 572,-816 572,-822 566,-828 560,-828"/>
<text text-anchor="middle" x="514" y="-807.5" font-family="sans" font-size="10.00">laplace_coords_hipp</text>
</g>
<!-- 11&#45;&gt;24 -->
<g id="edge53" class="edge">
<title>11&#45;&gt;24</title>
<path fill="none" stroke="grey" stroke-width="2" d="M572.03,-793.95C575.06,-793.27 578.06,-792.61 581,-792 615.83,-784.73 627.58,-793.66 660,-779 697.69,-761.95 698.38,-744.11 732,-720 746.86,-709.34 763.86,-698.5 778.73,-689.42"/>
<polygon fill="grey" stroke="grey" stroke-width="2" points="780.93,-692.18 787.68,-684.01 777.31,-686.19 780.93,-692.18"/>
</g>
<!-- 11&#45;&gt;7 -->
<g id="edge30" class="edge">
<title>11&#45;&gt;7</title>
<path fill="none" stroke="grey" stroke-width="2" d="M536.29,-791.78C541.5,-787.66 546.98,-783.22 552,-779 618.69,-722.85 625.92,-697.04 698,-648 715.54,-636.07 736.14,-625.15 754.49,-616.37"/>
<polygon fill="grey" stroke="grey" stroke-width="2" points="756.01,-619.52 763.57,-612.1 753.04,-613.18 756.01,-619.52"/>
</g>
<!-- 10 -->
<g id="node17" class="node">
<title>10</title>
<path fill="none" stroke="#80d856" stroke-width="2" d="M497.5,-756C497.5,-756 440.5,-756 440.5,-756 434.5,-756 428.5,-750 428.5,-744 428.5,-744 428.5,-732 428.5,-732 428.5,-726 434.5,-720 440.5,-720 440.5,-720 497.5,-720 497.5,-720 503.5,-720 509.5,-726 509.5,-732 509.5,-732 509.5,-744 509.5,-744 509.5,-750 503.5,-756 497.5,-756"/>
<text text-anchor="middle" x="469" y="-735.5" font-family="sans" font-size="10.00">unflip_coords</text>
</g>
<!-- 11&#45;&gt;10 -->
<g id="edge32" class="edge">
<title>11&#45;&gt;10</title>
<path fill="none" stroke="grey" stroke-width="2" d="M502.88,-791.7C497.64,-783.56 491.3,-773.69 485.52,-764.7"/>
<polygon fill="grey" stroke="grey" stroke-width="2" points="488.35,-762.62 480,-756.1 482.46,-766.41 488.35,-762.62"/>
</g>
<!-- 39 -->
<g id="node41" class="node">
<title>39</title>
<path fill="none" stroke="#bed856" stroke-width="2" d="M619.5,-396C619.5,-396 432.5,-396 432.5,-396 426.5,-396 420.5,-390 420.5,-384 420.5,-384 420.5,-372 420.5,-372 420.5,-366 426.5,-360 432.5,-360 432.5,-360 619.5,-360 619.5,-360 625.5,-360 631.5,-366 631.5,-372 631.5,-372 631.5,-384 631.5,-384 631.5,-390 625.5,-396 619.5,-396"/>
<text text-anchor="middle" x="526" y="-375.5" font-family="sans" font-size="10.00">label_subfields_from_vol_coords_corobl</text>
</g>
<!-- 11&#45;&gt;39 -->
<g id="edge85" class="edge">
<title>11&#45;&gt;39</title>
<path fill="none" stroke="grey" stroke-width="2" d="M517.14,-791.91C517.83,-787.7 518.5,-783.19 519,-779 528.64,-697.59 532,-676.98 532,-595 532,-595 532,-595 532,-521 532,-480.96 529.59,-434.63 527.82,-406.07"/>
<polygon fill="grey" stroke="grey" stroke-width="2" points="531.31,-405.8 527.19,-396.04 524.33,-406.24 531.31,-405.8"/>
</g>
<!-- 40 -->
<g id="node44" class="node">
<title>40</title>
<path fill="none" stroke="#59d856" stroke-width="2" d="M450.5,-252C450.5,-252 343.5,-252 343.5,-252 337.5,-252 331.5,-246 331.5,-240 331.5,-240 331.5,-228 331.5,-228 331.5,-222 337.5,-216 343.5,-216 343.5,-216 450.5,-216 450.5,-216 456.5,-216 462.5,-222 462.5,-228 462.5,-228 462.5,-240 462.5,-240 462.5,-246 456.5,-252 450.5,-252"/>
<text text-anchor="middle" x="397" y="-231.5" font-family="sans" font-size="10.00">copy_coords_to_results</text>
</g>
<!-- 11&#45;&gt;40 -->
<g id="edge90" class="edge">
<title>11&#45;&gt;40</title>
<path fill="none" stroke="grey" stroke-width="2" d="M455.68,-793.45C452.75,-792.91 449.85,-792.42 447,-792 414.32,-787.19 176.4,-798.85 150,-779 81.03,-727.14 88,-681.3 88,-595 88,-595 88,-595 88,-377 88,-336.03 81.9,-315.79 112,-288 141.84,-260.44 247.35,-246.57 321.24,-240.07"/>
<polygon fill="grey" stroke="grey" stroke-width="2" points="321.78,-243.54 331.45,-239.21 321.19,-236.57 321.78,-243.54"/>
</g>
<!-- 35 -->
<g id="node14" class="node">
<title>35</title>
<path fill="none" stroke="#56d8c1" stroke-width="2" d="M710,-828C710,-828 602,-828 602,-828 596,-828 590,-822 590,-816 590,-816 590,-804 590,-804 590,-798 596,-792 602,-792 602,-792 710,-792 710,-792 716,-792 722,-798 722,-804 722,-804 722,-816 722,-816 722,-822 716,-828 710,-828"/>
<text text-anchor="middle" x="656" y="-807.5" font-family="sans" font-size="10.00">laplace_coords_dentate</text>
</g>
<!-- 35&#45;&gt;24 -->
<g id="edge54" class="edge">
<title>35&#45;&gt;24</title>
<path fill="none" stroke="grey" stroke-width="2" d="M714.1,-791.9C721.85,-788.31 729.4,-784.04 736,-779 766.28,-755.9 790.15,-718.39 803.92,-693.22"/>
<polygon fill="grey" stroke="grey" stroke-width="2" points="807.09,-694.7 808.69,-684.23 800.91,-691.42 807.09,-694.7"/>
</g>
<!-- 35&#45;&gt;34 -->
<g id="edge72" class="edge">
<title>35&#45;&gt;34</title>
<path fill="none" stroke="grey" stroke-width="2" d="M662.99,-791.81C678.5,-754.45 716.35,-667.66 741,-648 746.16,-643.88 811.97,-626.71 866.32,-613.01"/>
<polygon fill="grey" stroke="grey" stroke-width="2" points="867.47,-616.33 876.32,-610.49 865.77,-609.54 867.47,-616.33"/>
</g>
<!-- 35&#45;&gt;10 -->
<g id="edge33" class="edge">
<title>35&#45;&gt;10</title>
<path fill="none" stroke="grey" stroke-width="2" d="M610.25,-791.88C582.69,-781.56 547.55,-768.4 519.22,-757.8"/>
<polygon fill="grey" stroke="grey" stroke-width="2" points="520.1,-754.39 509.51,-754.16 517.64,-760.95 520.1,-754.39"/>
</g>
<!-- 35&#45;&gt;40 -->
<g id="edge86" class="edge">
<title>35&#45;&gt;40</title>
<path fill="none" stroke="grey" stroke-width="2" d="M589.86,-793.34C586.88,-792.84 583.91,-792.39 581,-792 516.63,-783.34 348.95,-803.99 289,-779 164.5,-727.1 126,-657.88 126,-523 126,-523 126,-523 126,-377 126,-288.37 241.14,-254.95 321.31,-242.42"/>
<polygon fill="grey" stroke="grey" stroke-width="2" points="322.02,-245.86 331.4,-240.93 320.99,-238.93 322.02,-245.86"/>
</g>
<!-- 23 -->
<g id="node15" class="node">
<title>23</title>
<path fill="none" stroke="#56d87b" stroke-width="2" d="M425.5,-828C425.5,-828 310.5,-828 310.5,-828 304.5,-828 298.5,-822 298.5,-816 298.5,-816 298.5,-804 298.5,-804 298.5,-798 304.5,-792 310.5,-792 310.5,-792 425.5,-792 425.5,-792 431.5,-792 437.5,-798 437.5,-804 437.5,-804 437.5,-816 437.5,-816 437.5,-822 431.5,-828 425.5,-828"/>
<text text-anchor="middle" x="368" y="-807.5" font-family="sans" font-size="10.00">prep_equivolume_coords</text>
</g>
<!-- 22 -->
<g id="node16" class="node">
<title>22</title>
<path fill="none" stroke="#568ad8" stroke-width="2" d="M398,-756C398,-756 310,-756 310,-756 304,-756 298,-750 298,-744 298,-744 298,-732 298,-732 298,-726 304,-720 310,-720 310,-720 398,-720 398,-720 404,-720 410,-726 410,-732 410,-732 410,-744 410,-744 410,-750 404,-756 398,-756"/>
<text text-anchor="middle" x="354" y="-735.5" font-family="sans" font-size="10.00">equivolume_coords</text>
</g>
<!-- 23&#45;&gt;22 -->
<g id="edge50" class="edge">
<title>23&#45;&gt;22</title>
<path fill="none" stroke="grey" stroke-width="2" d="M364.54,-791.7C363,-783.98 361.14,-774.71 359.42,-766.11"/>
<polygon fill="grey" stroke="grey" stroke-width="2" points="362.81,-765.22 357.42,-756.1 355.95,-766.6 362.81,-765.22"/>
</g>
<!-- 22&#45;&gt;7 -->
<g id="edge28" class="edge">
<title>22&#45;&gt;7</title>
<path fill="none" stroke="grey" stroke-width="2" d="M410.07,-722.1C413.42,-721.35 416.75,-720.64 420,-720 460.94,-711.89 474.83,-723.87 513,-707 550.53,-690.42 547.33,-666.39 584,-648 633.14,-623.36 694.28,-609.82 739.63,-602.61"/>
<polygon fill="grey" stroke="grey" stroke-width="2" points="740.28,-606.05 749.63,-601.08 739.22,-599.13 740.28,-606.05"/>
</g>
<!-- 21 -->
<g id="node18" class="node">
<title>21</title>
<path fill="none" stroke="#d87d56" stroke-width="2" d="M492,-684C492,-684 394,-684 394,-684 388,-684 382,-678 382,-672 382,-672 382,-660 382,-660 382,-654 388,-648 394,-648 394,-648 492,-648 492,-648 498,-648 504,-654 504,-660 504,-660 504,-672 504,-672 504,-678 498,-684 492,-684"/>
<text text-anchor="middle" x="443" y="-663.5" font-family="sans" font-size="10.00">unflip_coords_equivol</text>
</g>
<!-- 22&#45;&gt;21 -->
<g id="edge49" class="edge">
<title>22&#45;&gt;21</title>
<path fill="none" stroke="grey" stroke-width="2" d="M376,-719.7C387.21,-710.88 401,-700.03 413.15,-690.47"/>
<polygon fill="grey" stroke="grey" stroke-width="2" points="415.56,-693.04 421.25,-684.1 411.23,-687.54 415.56,-693.04"/>
</g>
<!-- 22&#45;&gt;39 -->
<g id="edge84" class="edge">
<title>22&#45;&gt;39</title>
<path fill="none" stroke="grey" stroke-width="2" d="M315.44,-719.88C310.33,-716.24 305.62,-711.97 302,-707 272.04,-665.84 278,-645.91 278,-595 278,-595 278,-595 278,-521 278,-477.61 393.75,-427.23 467.1,-399.66"/>
<polygon fill="grey" stroke="grey" stroke-width="2" points="468.55,-402.86 476.71,-396.09 466.11,-396.29 468.55,-402.86"/>
</g>
<!-- 22&#45;&gt;40 -->
<g id="edge89" class="edge">
<title>22&#45;&gt;40</title>
<path fill="none" stroke="grey" stroke-width="2" d="M297.72,-721.19C289.27,-717.36 281.04,-712.68 274,-707 227.95,-669.83 202,-654.18 202,-595 202,-595 202,-595 202,-377 202,-314.05 269.22,-276.07 324.73,-255.44"/>
<polygon fill="grey" stroke="grey" stroke-width="2" points="326,-258.7 334.23,-252.03 323.63,-252.11 326,-258.7"/>
</g>
<!-- 10&#45;&gt;24 -->
<g id="edge52" class="edge">
<title>10&#45;&gt;24</title>
<path fill="none" stroke="grey" stroke-width="2" d="M509.77,-735.97C561.05,-733.83 651.44,-727.25 726,-707 742.69,-702.47 760.25,-695.36 775.45,-688.38"/>
<polygon fill="grey" stroke="grey" stroke-width="2" points="777.03,-691.5 784.58,-684.07 774.05,-685.17 777.03,-691.5"/>
</g>
<!-- 10&#45;&gt;7 -->
<g id="edge27" class="edge">
<title>10&#45;&gt;7</title>
<path fill="none" stroke="grey" stroke-width="2" d="M509.57,-732.76C532.81,-728.84 561.7,-721.34 584,-707 612.43,-688.72 603.97,-666.9 632,-648 664.18,-626.29 705.64,-613.17 739.79,-605.42"/>
<polygon fill="grey" stroke="grey" stroke-width="2" points="740.64,-608.81 749.67,-603.27 739.15,-601.97 740.64,-608.81"/>
</g>
<!-- 10&#45;&gt;34 -->
<g id="edge73" class="edge">
<title>10&#45;&gt;34</title>
<path fill="none" stroke="grey" stroke-width="2" d="M509.61,-733.58C541.23,-729.85 585.69,-722.24 622,-707 664.74,-689.06 665.53,-666.56 708,-648 771.54,-620.23 794.43,-627.59 866.21,-612.1"/>
<polygon fill="grey" stroke="grey" stroke-width="2" points="867.18,-615.47 876.18,-609.87 865.66,-608.64 867.18,-615.47"/>
</g>
<!-- 10&#45;&gt;39 -->
<g id="edge82" class="edge">
<title>10&#45;&gt;39</title>
<path fill="none" stroke="grey" stroke-width="2" d="M428.4,-723C425.23,-721.96 422.06,-720.95 419,-720 398.71,-713.69 385.82,-723.94 373,-707 357.18,-686.09 366.29,-673.35 373,-648 399.01,-549.68 470.21,-449.68 505.55,-404.24"/>
<polygon fill="grey" stroke="grey" stroke-width="2" points="508.48,-406.18 511.91,-396.15 502.98,-401.85 508.48,-406.18"/>
</g>
<!-- 10&#45;&gt;40 -->
<g id="edge88" class="edge">
<title>10&#45;&gt;40</title>
<path fill="none" stroke="grey" stroke-width="2" d="M428.46,-722.8C425.27,-721.81 422.09,-720.86 419,-720 393.14,-712.78 380.42,-724.43 360,-707 319.33,-672.27 316,-648.48 316,-595 316,-595 316,-595 316,-377 316,-330.96 348.52,-286.25 372.35,-259.67"/>
<polygon fill="grey" stroke="grey" stroke-width="2" points="375.21,-261.74 379.42,-252.02 370.07,-256.99 375.21,-261.74"/>
</g>
<!-- 21&#45;&gt;7 -->
<g id="edge26" class="edge">
<title>21&#45;&gt;7</title>
<path fill="none" stroke="grey" stroke-width="2" d="M504.24,-653.13C569.77,-640.42 673.27,-620.35 739.89,-607.43"/>
<polygon fill="grey" stroke="grey" stroke-width="2" points="740.7,-610.84 749.85,-605.5 739.36,-603.97 740.7,-610.84"/>
</g>
<!-- 21&#45;&gt;39 -->
<g id="edge81" class="edge">
<title>21&#45;&gt;39</title>
<path fill="none" stroke="grey" stroke-width="2" d="M447.94,-647.97C461.81,-600.19 501.15,-464.62 518.09,-406.27"/>
<polygon fill="grey" stroke="grey" stroke-width="2" points="521.55,-406.89 520.98,-396.31 514.83,-404.93 521.55,-406.89"/>
</g>
<!-- 21&#45;&gt;40 -->
<g id="edge87" class="edge">
<title>21&#45;&gt;40</title>
<path fill="none" stroke="grey" stroke-width="2" d="M430.44,-647.97C405.9,-612.99 354,-529.66 354,-451 354,-451 354,-451 354,-377 354,-335.29 371.2,-289.54 383.84,-261.54"/>
<polygon fill="grey" stroke="grey" stroke-width="2" points="387.05,-262.96 388.09,-252.42 380.7,-260.01 387.05,-262.96"/>
</g>
<!-- 26 -->
<g id="node19" class="node">
<title>26</title>
<path fill="none" stroke="#56d8b9" stroke-width="2" d="M1289,-684C1289,-684 1185,-684 1185,-684 1179,-684 1173,-678 1173,-672 1173,-672 1173,-660 1173,-660 1173,-654 1179,-648 1185,-648 1185,-648 1289,-648 1289,-648 1295,-648 1301,-654 1301,-660 1301,-660 1301,-672 1301,-672 1301,-678 1295,-684 1289,-684"/>
<text text-anchor="middle" x="1237" y="-663.5" font-family="sans" font-size="10.00">cp_template_to_unfold</text>
</g>
<!-- 26&#45;&gt;25 -->
<g id="edge56" class="edge">
<title>26&#45;&gt;25</title>
<path fill="none" stroke="grey" stroke-width="2" d="M1215.99,-647.7C1205.28,-638.88 1192.11,-628.03 1180.5,-618.47"/>
<polygon fill="grey" stroke="grey" stroke-width="2" points="1182.71,-615.76 1172.77,-612.1 1178.26,-621.16 1182.71,-615.76"/>
</g>
<!-- 2 -->
<g id="node31" class="node">
<title>2</title>
<path fill="none" stroke="#b6d856" stroke-width="2" d="M1574,-180C1574,-180 1476,-180 1476,-180 1470,-180 1464,-174 1464,-168 1464,-168 1464,-156 1464,-156 1464,-150 1470,-144 1476,-144 1476,-144 1574,-144 1574,-144 1580,-144 1586,-150 1586,-156 1586,-156 1586,-168 1586,-168 1586,-174 1580,-180 1574,-180"/>
<text text-anchor="middle" x="1525" y="-159.5" font-family="sans" font-size="10.00">create_spec_file_hipp</text>
</g>
<!-- 26&#45;&gt;2 -->
<g id="edge17" class="edge">
<title>26&#45;&gt;2</title>
<path fill="none" stroke="grey" stroke-width="2" d="M1301.2,-656.76C1457.49,-635.84 1845,-578.38 1845,-523 1845,-523 1845,-523 1845,-305 1845,-196.95 1690.69,-170.49 1596.38,-164.41"/>
<polygon fill="grey" stroke="grey" stroke-width="2" points="1596.51,-160.91 1586.32,-163.82 1596.1,-167.9 1596.51,-160.91"/>
</g>
<!-- 33 -->
<g id="node32" class="node">
<title>33</title>
<path fill="none" stroke="#d8d356" stroke-width="2" d="M1274,-180C1274,-180 1160,-180 1160,-180 1154,-180 1148,-174 1148,-168 1148,-168 1148,-156 1148,-156 1148,-150 1154,-144 1160,-144 1160,-144 1274,-144 1274,-144 1280,-144 1286,-150 1286,-156 1286,-156 1286,-168 1286,-168 1286,-174 1280,-180 1274,-180"/>
<text text-anchor="middle" x="1217" y="-159.5" font-family="sans" font-size="10.00">create_spec_file_dentate</text>
</g>
<!-- 26&#45;&gt;33 -->
<g id="edge67" class="edge">
<title>26&#45;&gt;33</title>
<path fill="none" stroke="grey" stroke-width="2" d="M1241.24,-647.67C1247.91,-616.04 1257.21,-548.14 1227,-504 1205.43,-472.49 1172.96,-497.72 1149,-468 1107.85,-416.96 1124.15,-389.17 1117,-324 1115.25,-308.1 1111.7,-303.1 1117,-288 1131.19,-247.54 1164.61,-210.44 1188.91,-187.35"/>
<polygon fill="grey" stroke="grey" stroke-width="2" points="1191.5,-189.73 1196.45,-180.36 1186.74,-184.59 1191.5,-189.73"/>
</g>
<!-- 25&#45;&gt;6 -->
<g id="edge22" class="edge">
<title>25&#45;&gt;6</title>
<path fill="none" stroke="grey" stroke-width="2" d="M1152,-575.7C1152,-567.98 1152,-558.71 1152,-550.11"/>
<polygon fill="grey" stroke="grey" stroke-width="2" points="1155.5,-550.1 1152,-540.1 1148.5,-550.1 1155.5,-550.1"/>
</g>
<!-- 5 -->
<g id="node22" class="node">
<title>5</title>
<path fill="none" stroke="#56d882" stroke-width="2" d="M1264,-468C1264,-468 1170,-468 1170,-468 1164,-468 1158,-462 1158,-456 1158,-456 1158,-444 1158,-444 1158,-438 1164,-432 1170,-432 1170,-432 1264,-432 1264,-432 1270,-432 1276,-438 1276,-444 1276,-444 1276,-456 1276,-456 1276,-462 1270,-468 1264,-468"/>
<text text-anchor="middle" x="1217" y="-447.5" font-family="sans" font-size="10.00">correct_nan_vertices</text>
</g>
<!-- 6&#45;&gt;5 -->
<g id="edge20" class="edge">
<title>6&#45;&gt;5</title>
<path fill="none" stroke="grey" stroke-width="2" d="M1168.07,-503.7C1175.94,-495.22 1185.56,-484.86 1194.17,-475.58"/>
<polygon fill="grey" stroke="grey" stroke-width="2" points="1196.88,-477.81 1201.12,-468.1 1191.75,-473.05 1196.88,-477.81"/>
</g>
<!-- 5&#45;&gt;44 -->
<g id="edge96" class="edge">
<title>5&#45;&gt;44</title>
<path fill="none" stroke="grey" stroke-width="2" d="M1157.86,-440.58C1140.41,-436.13 1121.99,-429.35 1107,-419 1018.88,-358.15 957.11,-241.53 932.66,-189.36"/>
<polygon fill="grey" stroke="grey" stroke-width="2" points="935.76,-187.73 928.4,-180.11 929.4,-190.66 935.76,-187.73"/>
</g>
<!-- 4 -->
<g id="node23" class="node">
<title>4</title>
<path fill="none" stroke="#d8ac56" stroke-width="2" d="M1419.5,-396C1419.5,-396 1314.5,-396 1314.5,-396 1308.5,-396 1302.5,-390 1302.5,-384 1302.5,-384 1302.5,-372 1302.5,-372 1302.5,-366 1308.5,-360 1314.5,-360 1314.5,-360 1419.5,-360 1419.5,-360 1425.5,-360 1431.5,-366 1431.5,-372 1431.5,-372 1431.5,-384 1431.5,-384 1431.5,-390 1425.5,-396 1419.5,-396"/>
<text text-anchor="middle" x="1367" y="-375.5" font-family="sans" font-size="10.00">calculate_surface_area</text>
</g>
<!-- 5&#45;&gt;4 -->
<g id="edge19" class="edge">
<title>5&#45;&gt;4</title>
<path fill="none" stroke="grey" stroke-width="2" d="M1253.69,-431.88C1274.02,-422.39 1299.47,-410.51 1321.1,-400.42"/>
<polygon fill="grey" stroke="grey" stroke-width="2" points="1322.84,-403.47 1330.43,-396.07 1319.88,-397.13 1322.84,-403.47"/>
</g>
<!-- 28 -->
<g id="node25" class="node">
<title>28</title>
<path fill="none" stroke="#56d8a9" stroke-width="2" d="M1252.5,-396C1252.5,-396 1181.5,-396 1181.5,-396 1175.5,-396 1169.5,-390 1169.5,-384 1169.5,-384 1169.5,-372 1169.5,-372 1169.5,-366 1175.5,-360 1181.5,-360 1181.5,-360 1252.5,-360 1252.5,-360 1258.5,-360 1264.5,-366 1264.5,-372 1264.5,-372 1264.5,-384 1264.5,-384 1264.5,-390 1258.5,-396 1252.5,-396"/>
<text text-anchor="middle" x="1217" y="-375.5" font-family="sans" font-size="10.00">smooth_surface</text>
</g>
<!-- 5&#45;&gt;28 -->
<g id="edge58" class="edge">
<title>5&#45;&gt;28</title>
<path fill="none" stroke="grey" stroke-width="2" d="M1217,-431.7C1217,-423.98 1217,-414.71 1217,-406.11"/>
<polygon fill="grey" stroke="grey" stroke-width="2" points="1220.5,-406.1 1217,-396.1 1213.5,-406.1 1220.5,-406.1"/>
</g>
<!-- 29 -->
<g id="node27" class="node">
<title>29</title>
<path fill="none" stroke="#9fd856" stroke-width="2" d="M1636,-324C1636,-324 1478,-324 1478,-324 1472,-324 1466,-318 1466,-312 1466,-312 1466,-300 1466,-300 1466,-294 1472,-288 1478,-288 1478,-288 1636,-288 1636,-288 1642,-288 1648,-294 1648,-300 1648,-300 1648,-312 1648,-312 1648,-318 1642,-324 1636,-324"/>
<text text-anchor="middle" x="1557" y="-303.5" font-family="sans" font-size="10.00">calculate_thickness_from_surface</text>
</g>
<!-- 5&#45;&gt;29 -->
<g id="edge59" class="edge">
<title>5&#45;&gt;29</title>
<path fill="none" stroke="grey" stroke-width="2" d="M1276.22,-445.25C1332.56,-440.94 1412.79,-432.65 1441,-419 1482.39,-398.98 1518.41,-358.56 1538.92,-332.14"/>
<polygon fill="grey" stroke="grey" stroke-width="2" points="1541.77,-334.19 1545.02,-324.1 1536.19,-329.95 1541.77,-334.19"/>
</g>
<!-- 5&#45;&gt;2 -->
<g id="edge11" class="edge">
<title>5&#45;&gt;2</title>
<path fill="none" stroke="grey" stroke-width="2" d="M1276.22,-446.12C1414.22,-438.02 1750.39,-409.69 1815,-324 1878.81,-239.37 1700.95,-193.21 1595.95,-173.95"/>
<polygon fill="grey" stroke="grey" stroke-width="2" points="1596.48,-170.49 1586.02,-172.17 1595.25,-177.38 1596.48,-170.49"/>
</g>
<!-- 5&#45;&gt;33 -->
<g id="edge65" class="edge">
<title>5&#45;&gt;33</title>
<path fill="none" stroke="grey" stroke-width="2" d="M1177.35,-432C1171.4,-428.3 1165.69,-423.97 1161,-419 1096.52,-350.66 1051.34,-295.13 1102,-216 1110.79,-202.28 1124.12,-192.06 1138.64,-184.46"/>
<polygon fill="grey" stroke="grey" stroke-width="2" points="1140.3,-187.55 1147.8,-180.07 1137.27,-181.24 1140.3,-187.55"/>
</g>
<!-- 3 -->
<g id="node24" class="node">
<title>3</title>
<path fill="none" stroke="#d8cb56" stroke-width="2" d="M1435.5,-324C1435.5,-324 1338.5,-324 1338.5,-324 1332.5,-324 1326.5,-318 1326.5,-312 1326.5,-312 1326.5,-300 1326.5,-300 1326.5,-294 1332.5,-288 1338.5,-288 1338.5,-288 1435.5,-288 1435.5,-288 1441.5,-288 1447.5,-294 1447.5,-300 1447.5,-300 1447.5,-312 1447.5,-312 1447.5,-318 1441.5,-324 1435.5,-324"/>
<text text-anchor="middle" x="1387" y="-303.5" font-family="sans" font-size="10.00">calculate_gyrification</text>
</g>
<!-- 4&#45;&gt;3 -->
<g id="edge18" class="edge">
<title>4&#45;&gt;3</title>
<path fill="none" stroke="grey" stroke-width="2" d="M1371.94,-359.7C1374.17,-351.9 1376.85,-342.51 1379.33,-333.83"/>
<polygon fill="grey" stroke="grey" stroke-width="2" points="1382.73,-334.68 1382.11,-324.1 1376,-332.76 1382.73,-334.68"/>
</g>
<!-- 32 -->
<g id="node30" class="node">
<title>32</title>
<path fill="none" stroke="#56d86b" stroke-width="2" d="M1449,-252C1449,-252 1325,-252 1325,-252 1319,-252 1313,-246 1313,-240 1313,-240 1313,-228 1313,-228 1313,-222 1319,-216 1325,-216 1325,-216 1449,-216 1449,-216 1455,-216 1461,-222 1461,-228 1461,-228 1461,-240 1461,-240 1461,-246 1455,-252 1449,-252"/>
<text text-anchor="middle" x="1387" y="-231.5" font-family="sans" font-size="10.00">create_dscalar_metric_cifti</text>
</g>
<!-- 3&#45;&gt;32 -->
<g id="edge63" class="edge">
<title>3&#45;&gt;32</title>
<path fill="none" stroke="grey" stroke-width="2" d="M1387,-287.7C1387,-279.98 1387,-270.71 1387,-262.11"/>
<polygon fill="grey" stroke="grey" stroke-width="2" points="1390.5,-262.1 1387,-252.1 1383.5,-262.1 1390.5,-262.1"/>
</g>
<!-- 3&#45;&gt;2 -->
<g id="edge12" class="edge">
<title>3&#45;&gt;2</title>
<path fill="none" stroke="grey" stroke-width="2" d="M1447.7,-289.36C1455.77,-285.55 1463.5,-280.83 1470,-275 1495.38,-252.26 1510.34,-215.17 1518.1,-189.96"/>
<polygon fill="grey" stroke="grey" stroke-width="2" points="1521.48,-190.86 1520.9,-180.28 1514.76,-188.91 1521.48,-190.86"/>
</g>
<!-- 3&#45;&gt;33 -->
<g id="edge66" class="edge">
<title>3&#45;&gt;33</title>
<path fill="none" stroke="grey" stroke-width="2" d="M1326.89,-287.92C1318.82,-284.32 1310.94,-280.05 1304,-275 1272.25,-251.92 1246.31,-214.15 1231.25,-188.94"/>
<polygon fill="grey" stroke="grey" stroke-width="2" points="1234.26,-187.15 1226.2,-180.27 1228.21,-190.67 1234.26,-187.15"/>
</g>
<!-- 27 -->
<g id="node26" class="node">
<title>27</title>
<path fill="none" stroke="#56d8b9" stroke-width="2" d="M1296,-324C1296,-324 1138,-324 1138,-324 1132,-324 1126,-318 1126,-312 1126,-312 1126,-300 1126,-300 1126,-294 1132,-288 1138,-288 1138,-288 1296,-288 1296,-288 1302,-288 1308,-294 1308,-300 1308,-300 1308,-312 1308,-312 1308,-318 1302,-324 1296,-324"/>
<text text-anchor="middle" x="1217" y="-303.5" font-family="sans" font-size="10.00">calculate_curvature_from_surface</text>
</g>
<!-- 28&#45;&gt;27 -->
<g id="edge57" class="edge">
<title>28&#45;&gt;27</title>
<path fill="none" stroke="grey" stroke-width="2" d="M1217,-359.7C1217,-351.98 1217,-342.71 1217,-334.11"/>
<polygon fill="grey" stroke="grey" stroke-width="2" points="1220.5,-334.1 1217,-324.1 1213.5,-334.1 1220.5,-334.1"/>
</g>
<!-- 27&#45;&gt;32 -->
<g id="edge62" class="edge">
<title>27&#45;&gt;32</title>
<path fill="none" stroke="grey" stroke-width="2" d="M1258.7,-287.87C1268.93,-283.67 1279.86,-279.17 1290,-275 1304.92,-268.86 1321.13,-262.17 1335.96,-256.06"/>
<polygon fill="grey" stroke="grey" stroke-width="2" points="1337.56,-259.19 1345.47,-252.14 1334.89,-252.72 1337.56,-259.19"/>
</g>
<!-- 27&#45;&gt;2 -->
<g id="edge15" class="edge">
<title>27&#45;&gt;2</title>
<path fill="none" stroke="grey" stroke-width="2" d="M1229.04,-287.75C1244.17,-267.43 1272.05,-234.13 1304,-216 1350.1,-189.84 1408.68,-176.54 1453.94,-169.81"/>
<polygon fill="grey" stroke="grey" stroke-width="2" points="1454.56,-173.26 1463.97,-168.39 1453.58,-166.33 1454.56,-173.26"/>
</g>
<!-- 27&#45;&gt;33 -->
<g id="edge68" class="edge">
<title>27&#45;&gt;33</title>
<path fill="none" stroke="grey" stroke-width="2" d="M1217,-287.87C1217,-263.67 1217,-219.21 1217,-190.39"/>
<polygon fill="grey" stroke="grey" stroke-width="2" points="1220.5,-190.19 1217,-180.19 1213.5,-190.19 1220.5,-190.19"/>
</g>
<!-- 29&#45;&gt;32 -->
<g id="edge64" class="edge">
<title>29&#45;&gt;32</title>
<path fill="none" stroke="grey" stroke-width="2" d="M1515.41,-287.88C1491.97,-278.22 1462.5,-266.09 1437.7,-255.88"/>
<polygon fill="grey" stroke="grey" stroke-width="2" points="1439.03,-252.64 1428.45,-252.07 1436.37,-259.11 1439.03,-252.64"/>
</g>
<!-- 29&#45;&gt;2 -->
<g id="edge14" class="edge">
<title>29&#45;&gt;2</title>
<path fill="none" stroke="grey" stroke-width="2" d="M1553.14,-287.87C1547.66,-263.56 1537.58,-218.82 1531.09,-190.01"/>
<polygon fill="grey" stroke="grey" stroke-width="2" points="1534.49,-189.18 1528.87,-180.19 1527.66,-190.71 1534.49,-189.18"/>
</g>
<!-- 30 -->
<g id="node29" class="node">
<title>30</title>
<path fill="none" stroke="#bed856" stroke-width="2" d="M1705,-252C1705,-252 1639,-252 1639,-252 1633,-252 1627,-246 1627,-240 1627,-240 1627,-228 1627,-228 1627,-222 1633,-216 1639,-216 1639,-216 1705,-216 1705,-216 1711,-216 1717,-222 1717,-228 1717,-228 1717,-240 1717,-240 1717,-246 1711,-252 1705,-252"/>
<text text-anchor="middle" x="1672" y="-231.5" font-family="sans" font-size="10.00">nii_to_label_gii</text>
</g>
<!-- 31&#45;&gt;30 -->
<g id="edge60" class="edge">
<title>31&#45;&gt;30</title>
<path fill="none" stroke="grey" stroke-width="2" d="M1720.18,-287.7C1712.43,-279.22 1702.96,-268.86 1694.48,-259.58"/>
<polygon fill="grey" stroke="grey" stroke-width="2" points="1696.97,-257.12 1687.64,-252.1 1691.8,-261.85 1696.97,-257.12"/>
</g>
<!-- 31&#45;&gt;39 -->
<g id="edge83" class="edge">
<title>31&#45;&gt;39</title>
<path fill="none" stroke="grey" stroke-width="2" d="M1665.89,-322.71C1662.9,-323.19 1659.92,-323.62 1657,-324 1463.42,-349.19 889.4,-367.2 641.81,-374"/>
<polygon fill="grey" stroke="grey" stroke-width="2" points="641.6,-370.51 631.7,-374.28 641.79,-377.5 641.6,-370.51"/>
</g>
<!-- 30&#45;&gt;2 -->
<g id="edge16" class="edge">
<title>30&#45;&gt;2</title>
<path fill="none" stroke="grey" stroke-width="2" d="M1636.04,-215.88C1616.12,-206.39 1591.18,-194.51 1569.98,-184.42"/>
<polygon fill="grey" stroke="grey" stroke-width="2" points="1571.38,-181.21 1560.84,-180.07 1568.37,-187.53 1571.38,-181.21"/>
</g>
<!-- 32&#45;&gt;2 -->
<g id="edge13" class="edge">
<title>32&#45;&gt;2</title>
<path fill="none" stroke="grey" stroke-width="2" d="M1420.76,-215.88C1439.22,-206.51 1462.28,-194.81 1482.02,-184.8"/>
<polygon fill="grey" stroke="grey" stroke-width="2" points="1483.78,-187.83 1491.11,-180.19 1480.61,-181.59 1483.78,-187.83"/>
</g>
<!-- 32&#45;&gt;33 -->
<g id="edge69" class="edge">
<title>32&#45;&gt;33</title>
<path fill="none" stroke="grey" stroke-width="2" d="M1345.41,-215.88C1321.97,-206.22 1292.5,-194.09 1267.7,-183.88"/>
<polygon fill="grey" stroke="grey" stroke-width="2" points="1269.03,-180.64 1258.45,-180.07 1266.37,-187.11 1269.03,-180.64"/>
</g>
<!-- 1 -->
<g id="node33" class="node">
<title>1</title>
<path fill="none" stroke="#56b9d8" stroke-width="2" d="M1259,-108C1259,-108 1175,-108 1175,-108 1169,-108 1163,-102 1163,-96 1163,-96 1163,-84 1163,-84 1163,-78 1169,-72 1175,-72 1175,-72 1259,-72 1259,-72 1265,-72 1271,-78 1271,-84 1271,-84 1271,-96 1271,-96 1271,-102 1265,-108 1259,-108"/>
<text text-anchor="middle" x="1217" y="-87.5" font-family="sans" font-size="10.00">merge_lr_spec_file</text>
</g>
<!-- 2&#45;&gt;1 -->
<g id="edge9" class="edge">
<title>2&#45;&gt;1</title>
<path fill="none" stroke="grey" stroke-width="2" d="M1463.78,-147.09C1410.85,-135.06 1334.6,-117.73 1280.9,-105.52"/>
<polygon fill="grey" stroke="grey" stroke-width="2" points="1281.67,-102.11 1271.15,-103.31 1280.12,-108.94 1281.67,-102.11"/>
</g>
<!-- 33&#45;&gt;1 -->
<g id="edge10" class="edge">
<title>33&#45;&gt;1</title>
<path fill="none" stroke="grey" stroke-width="2" d="M1217,-143.7C1217,-135.98 1217,-126.71 1217,-118.11"/>
<polygon fill="grey" stroke="grey" stroke-width="2" points="1220.5,-118.1 1217,-108.1 1213.5,-118.1 1220.5,-118.1"/>
</g>
<!-- 1&#45;&gt;0 -->
<g id="edge4" class="edge">
<title>1&#45;&gt;0</title>
<path fill="none" stroke="grey" stroke-width="2" d="M1162.76,-78.82C1085.85,-64.39 947.12,-38.35 880.99,-25.94"/>
<polygon fill="grey" stroke="grey" stroke-width="2" points="881.5,-22.48 871.03,-24.07 880.21,-29.36 881.5,-22.48"/>
</g>
<!-- 19 -->
<g id="node34" class="node">
<title>19</title>
<path fill="none" stroke="#56d8b1" stroke-width="2" d="M207,-1116C207,-1116 107,-1116 107,-1116 101,-1116 95,-1110 95,-1104 95,-1104 95,-1092 95,-1092 95,-1086 101,-1080 107,-1080 107,-1080 207,-1080 207,-1080 213,-1080 219,-1086 219,-1092 219,-1092 219,-1104 219,-1104 219,-1110 213,-1116 207,-1116"/>
<text text-anchor="middle" x="157" y="-1095.5" font-family="sans" font-size="10.00">prep_segs_for_greedy</text>
</g>
<!-- 18 -->
<g id="node36" class="node">
<title>18</title>
<path fill="none" stroke="#569ad8" stroke-width="2" d="M203,-1044C203,-1044 111,-1044 111,-1044 105,-1044 99,-1038 99,-1032 99,-1032 99,-1020 99,-1020 99,-1014 105,-1008 111,-1008 111,-1008 203,-1008 203,-1008 209,-1008 215,-1014 215,-1020 215,-1020 215,-1032 215,-1032 215,-1038 209,-1044 203,-1044"/>
<text text-anchor="middle" x="157" y="-1023.5" font-family="sans" font-size="10.00">template_shape_reg</text>
</g>
<!-- 19&#45;&gt;18 -->
<g id="edge44" class="edge">
<title>19&#45;&gt;18</title>
<path fill="none" stroke="grey" stroke-width="2" d="M157,-1079.7C157,-1071.98 157,-1062.71 157,-1054.11"/>
<polygon fill="grey" stroke="grey" stroke-width="2" points="160.5,-1054.1 157,-1044.1 153.5,-1054.1 160.5,-1054.1"/>
</g>
<!-- 14 -->
<g id="node35" class="node">
<title>14</title>
<path fill="none" stroke="#5673d8" stroke-width="2" d="M168.5,-1188C168.5,-1188 59.5,-1188 59.5,-1188 53.5,-1188 47.5,-1182 47.5,-1176 47.5,-1176 47.5,-1164 47.5,-1164 47.5,-1158 53.5,-1152 59.5,-1152 59.5,-1152 168.5,-1152 168.5,-1152 174.5,-1152 180.5,-1158 180.5,-1164 180.5,-1164 180.5,-1176 180.5,-1176 180.5,-1182 174.5,-1188 168.5,-1188"/>
<text text-anchor="middle" x="114" y="-1167.5" font-family="sans" font-size="10.00">import_template_shape</text>
</g>
<!-- 14&#45;&gt;19 -->
<g id="edge46" class="edge">
<title>14&#45;&gt;19</title>
<path fill="none" stroke="grey" stroke-width="2" d="M124.63,-1151.7C129.63,-1143.56 135.69,-1133.69 141.21,-1124.7"/>
<polygon fill="grey" stroke="grey" stroke-width="2" points="144.24,-1126.46 146.49,-1116.1 138.28,-1122.79 144.24,-1126.46"/>
</g>
<!-- 13 -->
<g id="node37" class="node">
<title>13</title>
<path fill="none" stroke="#d86656" stroke-width="2" d="M124,-972C124,-972 20,-972 20,-972 14,-972 8,-966 8,-960 8,-960 8,-948 8,-948 8,-942 14,-936 20,-936 20,-936 124,-936 124,-936 130,-936 136,-942 136,-948 136,-948 136,-960 136,-960 136,-966 130,-972 124,-972"/>
<text text-anchor="middle" x="72" y="-951.5" font-family="sans" font-size="10.00">template_shape_inject</text>
</g>
<!-- 14&#45;&gt;13 -->
<g id="edge39" class="edge">
<title>14&#45;&gt;13</title>
<path fill="none" stroke="grey" stroke-width="2" d="M102.54,-1151.61C96.54,-1141.61 89.7,-1128.58 86,-1116 72.61,-1070.54 70.8,-1014.98 71.11,-982.44"/>
<polygon fill="grey" stroke="grey" stroke-width="2" points="74.61,-982.39 71.28,-972.33 67.61,-982.27 74.61,-982.39"/>
</g>
<!-- 18&#45;&gt;13 -->
<g id="edge40" class="edge">
<title>18&#45;&gt;13</title>
<path fill="none" stroke="grey" stroke-width="2" d="M135.99,-1007.7C125.28,-998.88 112.11,-988.03 100.5,-978.47"/>
<polygon fill="grey" stroke="grey" stroke-width="2" points="102.71,-975.76 92.77,-972.1 98.26,-981.16 102.71,-975.76"/>
</g>
<!-- 20 -->
<g id="node38" class="node">
<title>20</title>
<path fill="none" stroke="#56c9d8" stroke-width="2" d="M285.5,-972C285.5,-972 166.5,-972 166.5,-972 160.5,-972 154.5,-966 154.5,-960 154.5,-960 154.5,-948 154.5,-948 154.5,-942 160.5,-936 166.5,-936 166.5,-936 285.5,-936 285.5,-936 291.5,-936 297.5,-942 297.5,-948 297.5,-948 297.5,-960 297.5,-960 297.5,-966 291.5,-972 285.5,-972"/>
<text text-anchor="middle" x="226" y="-951.5" font-family="sans" font-size="10.00">inject_init_laplace_coords</text>
</g>
<!-- 18&#45;&gt;20 -->
<g id="edge48" class="edge">
<title>18&#45;&gt;20</title>
<path fill="none" stroke="grey" stroke-width="2" d="M174.06,-1007.7C182.5,-999.14 192.82,-988.66 202.04,-979.3"/>
<polygon fill="grey" stroke="grey" stroke-width="2" points="204.61,-981.68 209.14,-972.1 199.63,-976.77 204.61,-981.68"/>
</g>
<!-- 12 -->
<g id="node39" class="node">
<title>12</title>
<path fill="none" stroke="#c6d856" stroke-width="2" d="M285.5,-900C285.5,-900 180.5,-900 180.5,-900 174.5,-900 168.5,-894 168.5,-888 168.5,-888 168.5,-876 168.5,-876 168.5,-870 174.5,-864 180.5,-864 180.5,-864 285.5,-864 285.5,-864 291.5,-864 297.5,-870 297.5,-876 297.5,-876 297.5,-888 297.5,-888 297.5,-894 291.5,-900 285.5,-900"/>
<text text-anchor="middle" x="233" y="-879.5" font-family="sans" font-size="10.00">reinsert_subject_labels</text>
</g>
<!-- 13&#45;&gt;12 -->
<g id="edge37" class="edge">
<title>13&#45;&gt;12</title>
<path fill="none" stroke="grey" stroke-width="2" d="M111.39,-935.88C133.39,-926.31 161.01,-914.3 184.36,-904.15"/>
<polygon fill="grey" stroke="grey" stroke-width="2" points="185.97,-907.27 193.74,-900.07 183.18,-900.85 185.97,-907.27"/>
</g>
<!-- 20&#45;&gt;11 -->
<g id="edge34" class="edge">
<title>20&#45;&gt;11</title>
<path fill="none" stroke="grey" stroke-width="2" d="M266.54,-935.83C311.35,-916.5 385.33,-883.53 447,-851 457.28,-845.58 468.18,-839.3 478.15,-833.35"/>
<polygon fill="grey" stroke="grey" stroke-width="2" points="480.24,-836.18 486.99,-828.01 476.62,-830.19 480.24,-836.18"/>
</g>
<!-- 20&#45;&gt;35 -->
<g id="edge75" class="edge">
<title>20&#45;&gt;35</title>
<path fill="none" stroke="grey" stroke-width="2" d="M297.52,-937.14C370.29,-919.92 485.61,-889.64 581,-851 593.52,-845.93 606.67,-839.37 618.41,-833.04"/>
<polygon fill="grey" stroke="grey" stroke-width="2" points="620.41,-835.93 627.48,-828.04 617.03,-829.8 620.41,-835.93"/>
</g>
<!-- 12&#45;&gt;11 -->
<g id="edge35" class="edge">
<title>12&#45;&gt;11</title>
<path fill="none" stroke="grey" stroke-width="2" d="M297.78,-878.62C341.07,-875.42 398.7,-868.02 447,-851 459.08,-846.74 471.37,-840.18 482.08,-833.59"/>
<polygon fill="grey" stroke="grey" stroke-width="2" points="484.12,-836.43 490.65,-828.09 480.34,-830.54 484.12,-836.43"/>
</g>
<!-- 12&#45;&gt;23 -->
<g id="edge51" class="edge">
<title>12&#45;&gt;23</title>
<path fill="none" stroke="grey" stroke-width="2" d="M269.22,-863.86C277.72,-859.73 286.71,-855.27 295,-851 306.04,-845.31 317.89,-838.93 328.77,-832.97"/>
<polygon fill="grey" stroke="grey" stroke-width="2" points="330.57,-835.97 337.64,-828.08 327.19,-829.84 330.57,-835.97"/>
</g>
<!-- 38 -->
<g id="node40" class="node">
<title>38</title>
<path fill="none" stroke="#56d863" stroke-width="2" d="M267.5,-828C267.5,-828 200.5,-828 200.5,-828 194.5,-828 188.5,-822 188.5,-816 188.5,-816 188.5,-804 188.5,-804 188.5,-798 194.5,-792 200.5,-792 200.5,-792 267.5,-792 267.5,-792 273.5,-792 279.5,-798 279.5,-804 279.5,-804 279.5,-816 279.5,-816 279.5,-822 273.5,-828 267.5,-828"/>
<text text-anchor="middle" x="234" y="-807.5" font-family="sans" font-size="10.00">unflip_postproc</text>
</g>
<!-- 12&#45;&gt;38 -->
<g id="edge80" class="edge">
<title>12&#45;&gt;38</title>
<path fill="none" stroke="grey" stroke-width="2" d="M233.25,-863.7C233.36,-855.98 233.49,-846.71 233.61,-838.11"/>
<polygon fill="grey" stroke="grey" stroke-width="2" points="237.11,-838.15 233.76,-828.1 230.11,-838.05 237.11,-838.15"/>
</g>
<!-- 37 -->
<g id="node42" class="node">
<title>37</title>
<path fill="none" stroke="#56b1d8" stroke-width="2" d="M615,-324C615,-324 433,-324 433,-324 427,-324 421,-318 421,-312 421,-312 421,-300 421,-300 421,-294 427,-288 433,-288 433,-288 615,-288 615,-288 621,-288 627,-294 627,-300 627,-300 627,-312 627,-312 627,-318 621,-324 615,-324"/>
<text text-anchor="middle" x="524" y="-303.5" font-family="sans" font-size="10.00">combine_tissue_subfield_labels_corobl</text>
</g>
<!-- 12&#45;&gt;37 -->
<g id="edge79" class="edge">
<title>12&#45;&gt;37</title>
<path fill="none" stroke="grey" stroke-width="2" d="M191.15,-863.83C186.37,-860.26 182.11,-856.01 179,-851 102.14,-726.95 164,-668.93 164,-523 164,-523 164,-523 164,-449 164,-383.31 222.32,-387.44 282,-360 322.16,-341.54 369.07,-329.36 410.84,-321.39"/>
<polygon fill="grey" stroke="grey" stroke-width="2" points="411.59,-324.81 420.78,-319.56 410.31,-317.93 411.59,-324.81"/>
</g>
<!-- 38&#45;&gt;37 -->
<g id="edge78" class="edge">
<title>38&#45;&gt;37</title>
<path fill="none" stroke="grey" stroke-width="2" d="M235.19,-791.96C236.93,-765.31 240,-712.15 240,-667 240,-667 240,-667 240,-521 240,-415.34 366.94,-355.3 451.09,-327.12"/>
<polygon fill="grey" stroke="grey" stroke-width="2" points="452.2,-330.44 460.62,-324 450.03,-323.78 452.2,-330.44"/>
</g>
<!-- 39&#45;&gt;37 -->
<g id="edge77" class="edge">
<title>39&#45;&gt;37</title>
<path fill="none" stroke="grey" stroke-width="2" d="M525.51,-359.7C525.29,-351.98 525.02,-342.71 524.77,-334.11"/>
<polygon fill="grey" stroke="grey" stroke-width="2" points="528.27,-334 524.49,-324.1 521.28,-334.2 528.27,-334"/>
</g>
<!-- 36 -->
<g id="node46" class="node">
<title>36</title>
<path fill="none" stroke="#d88d56" stroke-width="2" d="M611,-252C611,-252 493,-252 493,-252 487,-252 481,-246 481,-240 481,-240 481,-228 481,-228 481,-222 487,-216 493,-216 493,-216 611,-216 611,-216 617,-216 623,-222 623,-228 623,-228 623,-240 623,-240 623,-246 617,-252 611,-252"/>
<text text-anchor="middle" x="552" y="-231.5" font-family="sans" font-size="10.00">copy_subfields_to_results</text>
</g>
<!-- 37&#45;&gt;36 -->
<g id="edge76" class="edge">
<title>37&#45;&gt;36</title>
<path fill="none" stroke="grey" stroke-width="2" d="M530.92,-287.7C534.07,-279.81 537.88,-270.3 541.38,-261.55"/>
<polygon fill="grey" stroke="grey" stroke-width="2" points="544.69,-262.69 545.16,-252.1 538.19,-260.09 544.69,-262.69"/>
</g>
<!-- 15&#45;&gt;19 -->
<g id="edge45" class="edge">
<title>15&#45;&gt;19</title>
<path fill="none" stroke="grey" stroke-width="2" d="M298.47,-1153.12C272.63,-1143.23 239.11,-1130.41 211.18,-1119.72"/>
<polygon fill="grey" stroke="grey" stroke-width="2" points="212.15,-1116.35 201.56,-1116.04 209.65,-1122.89 212.15,-1116.35"/>
</g>
<!-- 15&#45;&gt;13 -->
<g id="edge38" class="edge">
<title>15&#45;&gt;13</title>
<path fill="none" stroke="grey" stroke-width="2" d="M324.86,-1151.71C316.15,-1141.52 305.15,-1128.27 296,-1116 261.53,-1069.74 269.6,-1043.33 224,-1008 210.63,-997.64 175.92,-985.23 143.04,-975.02"/>
<polygon fill="grey" stroke="grey" stroke-width="2" points="143.96,-971.64 133.37,-972.07 141.91,-978.34 143.96,-971.64"/>
</g>
<!-- 15&#45;&gt;20 -->
<g id="edge47" class="edge">
<title>15&#45;&gt;20</title>
<path fill="none" stroke="grey" stroke-width="2" d="M332.39,-1151.71C319.05,-1121.82 290.08,-1058.8 261,-1008 255.8,-998.91 249.63,-989.27 243.94,-980.73"/>
<polygon fill="grey" stroke="grey" stroke-width="2" points="246.75,-978.63 238.24,-972.31 240.95,-982.56 246.75,-978.63"/>
</g>
<!-- 15&#45;&gt;12 -->
<g id="edge36" class="edge">
<title>15&#45;&gt;12</title>
<path fill="none" stroke="grey" stroke-width="2" d="M341.9,-1151.99C345.57,-1111.36 349.89,-1006.75 307,-936 299.62,-923.82 288.26,-913.65 276.64,-905.58"/>
<polygon fill="grey" stroke="grey" stroke-width="2" points="278.48,-902.6 268.19,-900.08 274.66,-908.47 278.48,-902.6"/>
</g>
<!-- 40&#45;&gt;0 -->
<g id="edge7" class="edge">
<title>40&#45;&gt;0</title>
<path fill="none" stroke="grey" stroke-width="2" d="M419.04,-215.99C461.88,-183.66 560.31,-112.95 653,-72 704.29,-49.34 767.66,-34.05 806.96,-25.94"/>
<polygon fill="grey" stroke="grey" stroke-width="2" points="807.79,-29.34 816.9,-23.93 806.4,-22.48 807.79,-29.34"/>
</g>
<!-- 41&#45;&gt;0 -->
<g id="edge1" class="edge">
<title>41&#45;&gt;0</title>
<path fill="none" stroke="grey" stroke-width="2" d="M697.58,-215.93C694.05,-184.14 691.1,-115.15 724,-72 743.96,-45.82 779.63,-32.31 806.91,-25.51"/>
<polygon fill="grey" stroke="grey" stroke-width="2" points="807.94,-28.86 816.91,-23.21 806.38,-22.04 807.94,-28.86"/>
</g>
<!-- 36&#45;&gt;46 -->
<g id="edge98" class="edge">
<title>36&#45;&gt;46</title>
<path fill="none" stroke="grey" stroke-width="2" d="M610.4,-215.97C644.52,-206.01 687.75,-193.41 723.47,-182.99"/>
<polygon fill="grey" stroke="grey" stroke-width="2" points="724.71,-186.27 733.33,-180.11 722.75,-179.55 724.71,-186.27"/>
</g>
<!-- 36&#45;&gt;42 -->
<g id="edge94" class="edge">
<title>36&#45;&gt;42</title>
<path fill="none" stroke="grey" stroke-width="2" d="M623.43,-217.19C626.32,-216.75 629.18,-216.35 632,-216 670.18,-211.26 942.38,-217.54 978,-203 986.52,-199.52 994.44,-193.62 1001.14,-187.4"/>
<polygon fill="grey" stroke="grey" stroke-width="2" points="1003.85,-189.64 1008.42,-180.08 998.89,-184.7 1003.85,-189.64"/>
</g>
<!-- 36&#45;&gt;0 -->
<g id="edge3" class="edge">
<title>36&#45;&gt;0</title>
<path fill="none" stroke="grey" stroke-width="2" d="M563.53,-215.97C586.24,-183.62 639.9,-112.86 701,-72 733.82,-50.05 776.94,-35.68 807.21,-27.52"/>
<polygon fill="grey" stroke="grey" stroke-width="2" points="808.15,-30.89 816.95,-24.99 806.39,-24.12 808.15,-30.89"/>
</g>
</g>
</svg>
