<?xml version="1.0" encoding="UTF-8" standalone="no"?>
<!DOCTYPE svg PUBLIC "-//W3C//DTD SVG 1.1//EN"
 "http://www.w3.org/Graphics/SVG/1.1/DTD/svg11.dtd">
<!-- Generated by graphviz version 2.43.0 (0)
 -->
<!-- Title: snakemake_dag Pages: 1 -->
<svg width="2314pt" height="1451pt"
 viewBox="0.00 0.00 2313.71 1451.00" xmlns="http://www.w3.org/2000/svg" xmlns:xlink="http://www.w3.org/1999/xlink">
<g id="graph0" class="graph" transform="scale(1 1) rotate(0) translate(4 1447)">
<title>snakemake_dag</title>
<polygon fill="white" stroke="transparent" points="-4,4 -4,-1447 2309.71,-1447 2309.71,4 -4,4"/>
<g id="clust1" class="cluster">
<title>cluster_0</title>
<polygon fill="white" stroke="blue" points="358.71,-944 358.71,-1435 633.71,-1435 633.71,-944 358.71,-944"/>
<text text-anchor="middle" x="496.21" y="-1419.8" font-family="Times,serif" font-size="14.00">preproc_t1</text>
</g>
<g id="clust2" class="cluster">
<title>cluster_1</title>
<polygon fill="white" stroke="blue" points="1039.71,-440 1039.71,-715 1449.71,-715 1449.71,-440 1039.71,-440"/>
<text text-anchor="middle" x="1244.71" y="-699.8" font-family="Times,serif" font-size="14.00">warps</text>
</g>
<g id="clust3" class="cluster">
<title>cluster_2</title>
<polygon fill="white" stroke="blue" points="1467.71,-224 1467.71,-355 1928.71,-355 1928.71,-224 1467.71,-224"/>
<text text-anchor="middle" x="1698.21" y="-339.8" font-family="Times,serif" font-size="14.00">qc</text>
</g>
<g id="clust4" class="cluster">
<title>cluster_3</title>
<polygon fill="white" stroke="blue" points="1449.71,-584 1449.71,-787 1873.71,-787 1873.71,-584 1449.71,-584"/>
<text text-anchor="middle" x="1661.71" y="-771.8" font-family="Times,serif" font-size="14.00">autotop</text>
</g>
<g id="clust5" class="cluster">
<title>cluster_4</title>
<polygon fill="white" stroke="blue" points="31.71,-8 31.71,-715 791.71,-715 791.71,-8 31.71,-8"/>
<text text-anchor="middle" x="411.71" y="-699.8" font-family="Times,serif" font-size="14.00">gifti</text>
</g>
<g id="clust6" class="cluster">
<title>cluster_5</title>
<polygon fill="white" stroke="blue" points="1873.71,-728 1873.71,-1147 2163.71,-1147 2163.71,-728 1873.71,-728"/>
<text text-anchor="middle" x="2018.71" y="-1131.8" font-family="Times,serif" font-size="14.00">shape_inject</text>
</g>
<g id="clust7" class="cluster">
<title>cluster_6</title>
<polygon fill="white" stroke="blue" points="1499.71,-368 1499.71,-571 1711.71,-571 1711.71,-368 1499.71,-368"/>
<text text-anchor="middle" x="1605.71" y="-555.8" font-family="Times,serif" font-size="14.00">subfields</text>
</g>
<g id="clust8" class="cluster">
<title>cluster_7</title>
<polygon fill="white" stroke="blue" points="633.71,-728 633.71,-1003 753.71,-1003 753.71,-728 633.71,-728"/>
<text text-anchor="middle" x="693.71" y="-987.8" font-family="Times,serif" font-size="14.00">nnunet</text>
</g>
<g id="clust9" class="cluster">
<title>cluster_8</title>
<polygon fill="white" stroke="blue" points="1711.71,-368 1711.71,-499 2223.71,-499 2223.71,-368 1711.71,-368"/>
<text text-anchor="middle" x="1967.71" y="-483.8" font-family="Times,serif" font-size="14.00">resample_final_to_crop_native</text>
</g>
<!-- 20 -->
<g id="node1" class="node">
<title>20</title>
<path fill="none" stroke="#61d856" stroke-width="2" d="M516.71,-1412C516.71,-1412 476.71,-1412 476.71,-1412 470.71,-1412 464.71,-1406 464.71,-1400 464.71,-1400 464.71,-1388 464.71,-1388 464.71,-1382 470.71,-1376 476.71,-1376 476.71,-1376 516.71,-1376 516.71,-1376 522.71,-1376 528.71,-1382 528.71,-1388 528.71,-1388 528.71,-1400 528.71,-1400 528.71,-1406 522.71,-1412 516.71,-1412"/>
<text text-anchor="middle" x="496.71" y="-1391.5" font-family="sans" font-size="10.00">import_t1</text>
</g>
<!-- 19 -->
<g id="node2" class="node">
<title>19</title>
<path fill="none" stroke="#c6d856" stroke-width="2" d="M511.71,-1340C511.71,-1340 481.71,-1340 481.71,-1340 475.71,-1340 469.71,-1334 469.71,-1328 469.71,-1328 469.71,-1316 469.71,-1316 469.71,-1310 475.71,-1304 481.71,-1304 481.71,-1304 511.71,-1304 511.71,-1304 517.71,-1304 523.71,-1310 523.71,-1316 523.71,-1316 523.71,-1328 523.71,-1328 523.71,-1334 517.71,-1340 511.71,-1340"/>
<text text-anchor="middle" x="496.71" y="-1319.5" font-family="sans" font-size="10.00">n4_t1</text>
</g>
<!-- 20&#45;&gt;19 -->
<g id="edge52" class="edge">
<title>20&#45;&gt;19</title>
<path fill="none" stroke="grey" stroke-width="2" d="M496.71,-1375.7C496.71,-1367.98 496.71,-1358.71 496.71,-1350.11"/>
<polygon fill="grey" stroke="grey" stroke-width="2" points="500.21,-1350.1 496.71,-1340.1 493.21,-1350.1 500.21,-1350.1"/>
</g>
<!-- 23 -->
<g id="node3" class="node">
<title>23</title>
<path fill="none" stroke="#d86656" stroke-width="2" d="M585.21,-1268C585.21,-1268 512.21,-1268 512.21,-1268 506.21,-1268 500.21,-1262 500.21,-1256 500.21,-1256 500.21,-1244 500.21,-1244 500.21,-1238 506.21,-1232 512.21,-1232 512.21,-1232 585.21,-1232 585.21,-1232 591.21,-1232 597.21,-1238 597.21,-1244 597.21,-1244 597.21,-1256 597.21,-1256 597.21,-1262 591.21,-1268 585.21,-1268"/>
<text text-anchor="middle" x="548.71" y="-1247.5" font-family="sans" font-size="10.00">reg_to_template</text>
</g>
<!-- 19&#45;&gt;23 -->
<g id="edge55" class="edge">
<title>19&#45;&gt;23</title>
<path fill="none" stroke="grey" stroke-width="2" d="M509.57,-1303.7C515.74,-1295.39 523.25,-1285.28 530.04,-1276.14"/>
<polygon fill="grey" stroke="grey" stroke-width="2" points="532.85,-1278.22 536.01,-1268.1 527.23,-1274.04 532.85,-1278.22"/>
</g>
<!-- 18 -->
<g id="node7" class="node">
<title>18</title>
<path fill="none" stroke="#56d88a" stroke-width="2" d="M621.71,-1052C621.71,-1052 513.71,-1052 513.71,-1052 507.71,-1052 501.71,-1046 501.71,-1040 501.71,-1040 501.71,-1028 501.71,-1028 501.71,-1022 507.71,-1016 513.71,-1016 513.71,-1016 621.71,-1016 621.71,-1016 627.71,-1016 633.71,-1022 633.71,-1028 633.71,-1028 633.71,-1040 633.71,-1040 633.71,-1046 627.71,-1052 621.71,-1052"/>
<text text-anchor="middle" x="567.71" y="-1031.5" font-family="sans" font-size="10.00">warp_t1_to_corobl_crop</text>
</g>
<!-- 19&#45;&gt;18 -->
<g id="edge51" class="edge">
<title>19&#45;&gt;18</title>
<path fill="none" stroke="grey" stroke-width="2" d="M486.13,-1303.93C462.33,-1263.15 410.07,-1158.25 454.71,-1088 463.61,-1073.99 477.31,-1063.62 492.13,-1055.96"/>
<polygon fill="grey" stroke="grey" stroke-width="2" points="493.93,-1058.98 501.46,-1051.54 490.93,-1052.66 493.93,-1058.98"/>
</g>
<!-- 48 -->
<g id="node52" class="node">
<title>48</title>
<path fill="none" stroke="#5682d8" stroke-width="2" d="M1663.71,-404C1663.71,-404 1525.71,-404 1525.71,-404 1519.71,-404 1513.71,-398 1513.71,-392 1513.71,-392 1513.71,-380 1513.71,-380 1513.71,-374 1519.71,-368 1525.71,-368 1525.71,-368 1663.71,-368 1663.71,-368 1669.71,-368 1675.71,-374 1675.71,-380 1675.71,-380 1675.71,-392 1675.71,-392 1675.71,-398 1669.71,-404 1663.71,-404"/>
<text text-anchor="middle" x="1594.71" y="-383.5" font-family="sans" font-size="10.00">resample_subfields_to_native</text>
</g>
<!-- 19&#45;&gt;48 -->
<g id="edge104" class="edge">
<title>19&#45;&gt;48</title>
<path fill="none" stroke="grey" stroke-width="2" d="M475,-1303.79C464.95,-1294.41 454.07,-1281.9 448.71,-1268 432.03,-1224.73 396.59,-1155.4 454.71,-1088 510.27,-1023.57 561.34,-1076.82 642.71,-1052 695.85,-1035.79 721.86,-1045.44 757.71,-1003 811.97,-938.76 801.71,-903.08 801.71,-819 801.71,-819 801.71,-819 801.71,-601 801.71,-512.55 839.65,-479.67 918.71,-440 969.68,-414.42 1330.77,-397.2 1503.32,-390.34"/>
<polygon fill="grey" stroke="grey" stroke-width="2" points="1503.55,-393.83 1513.4,-389.94 1503.27,-386.84 1503.55,-393.83"/>
</g>
<!-- 52 -->
<g id="node60" class="node">
<title>52</title>
<path fill="none" stroke="#80d856" stroke-width="2" d="M1839.71,-404C1839.71,-404 1723.71,-404 1723.71,-404 1717.71,-404 1711.71,-398 1711.71,-392 1711.71,-392 1711.71,-380 1711.71,-380 1711.71,-374 1717.71,-368 1723.71,-368 1723.71,-368 1839.71,-368 1839.71,-368 1845.71,-368 1851.71,-374 1851.71,-380 1851.71,-380 1851.71,-392 1851.71,-392 1851.71,-398 1845.71,-404 1839.71,-404"/>
<text text-anchor="middle" x="1781.71" y="-383.5" font-family="sans" font-size="10.00">resample_native_to_crop</text>
</g>
<!-- 19&#45;&gt;52 -->
<g id="edge122" class="edge">
<title>19&#45;&gt;52</title>
<path fill="none" stroke="grey" stroke-width="2" d="M524.04,-1320.34C750.36,-1314.69 2305.71,-1272.47 2305.71,-1179 2305.71,-1179 2305.71,-1179 2305.71,-745 2305.71,-649.88 2239.66,-642.57 2164.71,-584 2059.76,-501.99 1915.42,-438.73 1837.33,-407.83"/>
<polygon fill="grey" stroke="grey" stroke-width="2" points="1838.27,-404.44 1827.68,-404.04 1835.71,-410.95 1838.27,-404.44"/>
</g>
<!-- 22 -->
<g id="node4" class="node">
<title>22</title>
<path fill="none" stroke="#568ad8" stroke-width="2" d="M620.21,-1196C620.21,-1196 477.21,-1196 477.21,-1196 471.21,-1196 465.21,-1190 465.21,-1184 465.21,-1184 465.21,-1172 465.21,-1172 465.21,-1166 471.21,-1160 477.21,-1160 477.21,-1160 620.21,-1160 620.21,-1160 626.21,-1160 632.21,-1166 632.21,-1172 632.21,-1172 632.21,-1184 632.21,-1184 632.21,-1190 626.21,-1196 620.21,-1196"/>
<text text-anchor="middle" x="548.71" y="-1175.5" font-family="sans" font-size="10.00">convert_template_xfm_ras2itk</text>
</g>
<!-- 23&#45;&gt;22 -->
<g id="edge54" class="edge">
<title>23&#45;&gt;22</title>
<path fill="none" stroke="grey" stroke-width="2" d="M548.71,-1231.7C548.71,-1223.98 548.71,-1214.71 548.71,-1206.11"/>
<polygon fill="grey" stroke="grey" stroke-width="2" points="552.21,-1206.1 548.71,-1196.1 545.21,-1206.1 552.21,-1206.1"/>
</g>
<!-- 53 -->
<g id="node16" class="node">
<title>53</title>
<path fill="none" stroke="#56a2d8" stroke-width="2" d="M1916.21,-332C1916.21,-332 1827.21,-332 1827.21,-332 1821.21,-332 1815.21,-326 1815.21,-320 1815.21,-320 1815.21,-308 1815.21,-308 1815.21,-302 1821.21,-296 1827.21,-296 1827.21,-296 1916.21,-296 1916.21,-296 1922.21,-296 1928.21,-302 1928.21,-308 1928.21,-308 1928.21,-320 1928.21,-320 1928.21,-326 1922.21,-332 1916.21,-332"/>
<text text-anchor="middle" x="1871.71" y="-311.5" font-family="sans" font-size="10.00">qc_reg_to_template</text>
</g>
<!-- 23&#45;&gt;53 -->
<g id="edge123" class="edge">
<title>23&#45;&gt;53</title>
<path fill="none" stroke="grey" stroke-width="2" d="M597.41,-1248.01C833.17,-1242.9 1857.26,-1216.98 2167.71,-1147 2214.41,-1136.47 2267.71,-1154.87 2267.71,-1107 2267.71,-1107 2267.71,-1107 2267.71,-745 2267.71,-648.4 2305.71,-627.6 2305.71,-531 2305.71,-531 2305.71,-531 2305.71,-457 2305.71,-404.4 2273.88,-393.19 2227.71,-368 2179.12,-341.49 2027.27,-326.29 1938.37,-319.44"/>
<polygon fill="grey" stroke="grey" stroke-width="2" points="1938.61,-315.95 1928.38,-318.68 1938.08,-322.93 1938.61,-315.95"/>
</g>
<!-- 21 -->
<g id="node5" class="node">
<title>21</title>
<path fill="none" stroke="#d87d56" stroke-width="2" d="M621.71,-1124C621.71,-1124 475.71,-1124 475.71,-1124 469.71,-1124 463.71,-1118 463.71,-1112 463.71,-1112 463.71,-1100 463.71,-1100 463.71,-1094 469.71,-1088 475.71,-1088 475.71,-1088 621.71,-1088 621.71,-1088 627.71,-1088 633.71,-1094 633.71,-1100 633.71,-1100 633.71,-1112 633.71,-1112 633.71,-1118 627.71,-1124 621.71,-1124"/>
<text text-anchor="middle" x="548.71" y="-1103.5" font-family="sans" font-size="10.00">compose_template_xfm_corobl</text>
</g>
<!-- 22&#45;&gt;21 -->
<g id="edge53" class="edge">
<title>22&#45;&gt;21</title>
<path fill="none" stroke="grey" stroke-width="2" d="M548.71,-1159.7C548.71,-1151.98 548.71,-1142.71 548.71,-1134.11"/>
<polygon fill="grey" stroke="grey" stroke-width="2" points="552.21,-1134.1 548.71,-1124.1 545.21,-1134.1 552.21,-1134.1"/>
</g>
<!-- 33 -->
<g id="node6" class="node">
<title>33</title>
<path fill="none" stroke="#97d856" stroke-width="2" d="M471.21,-1052C471.21,-1052 370.21,-1052 370.21,-1052 364.21,-1052 358.21,-1046 358.21,-1040 358.21,-1040 358.21,-1028 358.21,-1028 358.21,-1022 364.21,-1016 370.21,-1016 370.21,-1016 471.21,-1016 471.21,-1016 477.21,-1016 483.21,-1022 483.21,-1028 483.21,-1028 483.21,-1040 483.21,-1040 483.21,-1046 477.21,-1052 471.21,-1052"/>
<text text-anchor="middle" x="420.71" y="-1031.5" font-family="sans" font-size="10.00">template_xfm_itk2ras</text>
</g>
<!-- 21&#45;&gt;33 -->
<g id="edge69" class="edge">
<title>21&#45;&gt;33</title>
<path fill="none" stroke="grey" stroke-width="2" d="M517.4,-1087.88C500.51,-1078.64 479.46,-1067.13 461.33,-1057.21"/>
<polygon fill="grey" stroke="grey" stroke-width="2" points="462.6,-1053.92 452.14,-1052.19 459.24,-1060.06 462.6,-1053.92"/>
</g>
<!-- 21&#45;&gt;18 -->
<g id="edge50" class="edge">
<title>21&#45;&gt;18</title>
<path fill="none" stroke="grey" stroke-width="2" d="M553.41,-1087.7C555.52,-1079.9 558.07,-1070.51 560.43,-1061.83"/>
<polygon fill="grey" stroke="grey" stroke-width="2" points="563.83,-1062.67 563.07,-1052.1 557.07,-1060.84 563.83,-1062.67"/>
</g>
<!-- 50 -->
<g id="node14" class="node">
<title>50</title>
<path fill="none" stroke="#afd856" stroke-width="2" d="M1437.71,-476C1437.71,-476 1279.71,-476 1279.71,-476 1273.71,-476 1267.71,-470 1267.71,-464 1267.71,-464 1267.71,-452 1267.71,-452 1267.71,-446 1273.71,-440 1279.71,-440 1279.71,-440 1437.71,-440 1437.71,-440 1443.71,-440 1449.71,-446 1449.71,-452 1449.71,-452 1449.71,-464 1449.71,-464 1449.71,-470 1443.71,-476 1437.71,-476"/>
<text text-anchor="middle" x="1358.71" y="-455.5" font-family="sans" font-size="10.00">compose_warps_native_to_unfold</text>
</g>
<!-- 21&#45;&gt;50 -->
<g id="edge114" class="edge">
<title>21&#45;&gt;50</title>
<path fill="none" stroke="grey" stroke-width="2" d="M633.91,-1097.8C723.49,-1089.26 857.83,-1073.44 904.71,-1052 955.02,-1028.99 991.71,-1018.32 991.71,-963 991.71,-963 991.71,-963 991.71,-601 991.71,-473.97 1135.07,-528.15 1258.71,-499 1277.27,-494.62 1296.91,-487.39 1313.83,-480.26"/>
<polygon fill="grey" stroke="grey" stroke-width="2" points="1315.66,-483.28 1323.45,-476.1 1312.88,-476.86 1315.66,-483.28"/>
</g>
<!-- 51 -->
<g id="node15" class="node">
<title>51</title>
<path fill="none" stroke="#56c9d8" stroke-width="2" d="M1237.21,-476C1237.21,-476 1052.21,-476 1052.21,-476 1046.21,-476 1040.21,-470 1040.21,-464 1040.21,-464 1040.21,-452 1040.21,-452 1040.21,-446 1046.21,-440 1052.21,-440 1052.21,-440 1237.21,-440 1237.21,-440 1243.21,-440 1249.21,-446 1249.21,-452 1249.21,-452 1249.21,-464 1249.21,-464 1249.21,-470 1243.21,-476 1237.21,-476"/>
<text text-anchor="middle" x="1144.71" y="-455.5" font-family="sans" font-size="10.00">compose_warps_unfold_to_crop_native</text>
</g>
<!-- 21&#45;&gt;51 -->
<g id="edge117" class="edge">
<title>21&#45;&gt;51</title>
<path fill="none" stroke="grey" stroke-width="2" d="M633.74,-1102.69C697.13,-1098.07 784.37,-1085.46 853.71,-1052 907.29,-1026.14 953.71,-1022.5 953.71,-963 953.71,-963 953.71,-963 953.71,-601 953.71,-560.03 949.39,-541.6 977.71,-512 992.15,-496.92 1010.84,-486.11 1030.48,-478.38"/>
<polygon fill="grey" stroke="grey" stroke-width="2" points="1031.69,-481.66 1039.87,-474.93 1029.27,-475.09 1031.69,-481.66"/>
</g>
<!-- 21&#45;&gt;48 -->
<g id="edge103" class="edge">
<title>21&#45;&gt;48</title>
<path fill="none" stroke="grey" stroke-width="2" d="M634.05,-1098.94C719.92,-1087.64 839.71,-1055.33 839.71,-963 839.71,-963 839.71,-963 839.71,-673 839.71,-537.68 910.7,-491.81 1035.71,-440 1117.97,-405.91 1367.48,-393.48 1503.65,-389.16"/>
<polygon fill="grey" stroke="grey" stroke-width="2" points="1503.77,-392.66 1513.66,-388.85 1503.56,-385.66 1503.77,-392.66"/>
</g>
<!-- 43 -->
<g id="node58" class="node">
<title>43</title>
<path fill="none" stroke="#88d856" stroke-width="2" d="M2031.21,-404C2031.21,-404 1882.21,-404 1882.21,-404 1876.21,-404 1870.21,-398 1870.21,-392 1870.21,-392 1870.21,-380 1870.21,-380 1870.21,-374 1876.21,-368 1882.21,-368 1882.21,-368 2031.21,-368 2031.21,-368 2037.21,-368 2043.21,-374 2043.21,-380 2043.21,-380 2043.21,-392 2043.21,-392 2043.21,-398 2037.21,-404 2031.21,-404"/>
<text text-anchor="middle" x="1956.71" y="-383.5" font-family="sans" font-size="10.00">resample_subfields_native_crop</text>
</g>
<!-- 21&#45;&gt;43 -->
<g id="edge91" class="edge">
<title>21&#45;&gt;43</title>
<path fill="none" stroke="grey" stroke-width="2" d="M633.82,-1105C958.92,-1104.63 2107.2,-1099.95 2167.71,-1052 2199.82,-1026.56 2191.71,-1003.97 2191.71,-963 2191.71,-963 2191.71,-963 2191.71,-745 2191.71,-597.36 2050.3,-463.35 1986.87,-410.67"/>
<polygon fill="grey" stroke="grey" stroke-width="2" points="1988.77,-407.7 1978.82,-404.07 1984.34,-413.11 1988.77,-407.7"/>
</g>
<!-- 49 -->
<g id="node59" class="node">
<title>49</title>
<path fill="none" stroke="#56d85b" stroke-width="2" d="M2211.71,-404C2211.71,-404 2073.71,-404 2073.71,-404 2067.71,-404 2061.71,-398 2061.71,-392 2061.71,-392 2061.71,-380 2061.71,-380 2061.71,-374 2067.71,-368 2073.71,-368 2073.71,-368 2211.71,-368 2211.71,-368 2217.71,-368 2223.71,-374 2223.71,-380 2223.71,-380 2223.71,-392 2223.71,-392 2223.71,-398 2217.71,-404 2211.71,-404"/>
<text text-anchor="middle" x="2142.71" y="-383.5" font-family="sans" font-size="10.00">resample_coords_native_crop</text>
</g>
<!-- 21&#45;&gt;49 -->
<g id="edge108" class="edge">
<title>21&#45;&gt;49</title>
<path fill="none" stroke="grey" stroke-width="2" d="M633.83,-1104.8C961.73,-1103.69 2128.14,-1096.61 2192.71,-1052 2227.96,-1027.65 2229.71,-1005.84 2229.71,-963 2229.71,-963 2229.71,-963 2229.71,-529 2229.71,-482.16 2194.87,-437.74 2169.28,-411.43"/>
<polygon fill="grey" stroke="grey" stroke-width="2" points="2171.57,-408.77 2162.02,-404.18 2166.63,-413.72 2171.57,-408.77"/>
</g>
<!-- 5 -->
<g id="node31" class="node">
<title>5</title>
<path fill="none" stroke="#d8c356" stroke-width="2" d="M652.21,-404C652.21,-404 567.21,-404 567.21,-404 561.21,-404 555.21,-398 555.21,-392 555.21,-392 555.21,-380 555.21,-380 555.21,-374 561.21,-368 567.21,-368 567.21,-368 652.21,-368 652.21,-368 658.21,-368 664.21,-374 664.21,-380 664.21,-380 664.21,-392 664.21,-392 664.21,-398 658.21,-404 652.21,-404"/>
<text text-anchor="middle" x="609.71" y="-383.5" font-family="sans" font-size="10.00">warp_gii_to_native</text>
</g>
<!-- 33&#45;&gt;5 -->
<g id="edge25" class="edge">
<title>33&#45;&gt;5</title>
<path fill="none" stroke="grey" stroke-width="2" d="M438.16,-1015.88C472.21,-983.36 551.06,-912.34 629.71,-872 679.26,-846.59 713.09,-877.95 749.71,-836 776.04,-805.84 763.71,-787.04 763.71,-747 763.71,-747 763.71,-747 763.71,-529 763.71,-471.84 705.66,-431.34 660.84,-408.59"/>
<polygon fill="grey" stroke="grey" stroke-width="2" points="662.31,-405.41 651.79,-404.14 659.22,-411.7 662.31,-405.41"/>
</g>
<!-- 17 -->
<g id="node8" class="node">
<title>17</title>
<path fill="none" stroke="#59d856" stroke-width="2" d="M621.21,-980C621.21,-980 586.21,-980 586.21,-980 580.21,-980 574.21,-974 574.21,-968 574.21,-968 574.21,-956 574.21,-956 574.21,-950 580.21,-944 586.21,-944 586.21,-944 621.21,-944 621.21,-944 627.21,-944 633.21,-950 633.21,-956 633.21,-956 633.21,-968 633.21,-968 633.21,-974 627.21,-980 621.21,-980"/>
<text text-anchor="middle" x="603.71" y="-959.5" font-family="sans" font-size="10.00">lr_flip_t1</text>
</g>
<!-- 18&#45;&gt;17 -->
<g id="edge49" class="edge">
<title>18&#45;&gt;17</title>
<path fill="none" stroke="grey" stroke-width="2" d="M576.61,-1015.7C580.71,-1007.73 585.66,-998.1 590.2,-989.26"/>
<polygon fill="grey" stroke="grey" stroke-width="2" points="593.45,-990.6 594.91,-980.1 587.23,-987.4 593.45,-990.6"/>
</g>
<!-- 16 -->
<g id="node53" class="node">
<title>16</title>
<path fill="none" stroke="#d8ac56" stroke-width="2" d="M741.21,-980C741.21,-980 682.21,-980 682.21,-980 676.21,-980 670.21,-974 670.21,-968 670.21,-968 670.21,-956 670.21,-956 670.21,-950 676.21,-944 682.21,-944 682.21,-944 741.21,-944 741.21,-944 747.21,-944 753.21,-950 753.21,-956 753.21,-956 753.21,-968 753.21,-968 753.21,-974 747.21,-980 741.21,-980"/>
<text text-anchor="middle" x="711.71" y="-959.5" font-family="sans" font-size="10.00">run_inference</text>
</g>
<!-- 18&#45;&gt;16 -->
<g id="edge48" class="edge">
<title>18&#45;&gt;16</title>
<path fill="none" stroke="grey" stroke-width="2" d="M609.45,-1015.85C618.82,-1011.79 628.66,-1007.37 637.71,-1003 649.11,-997.49 661.28,-991.12 672.39,-985.11"/>
<polygon fill="grey" stroke="grey" stroke-width="2" points="674.33,-988.04 681.43,-980.17 670.98,-981.89 674.33,-988.04"/>
</g>
<!-- 59 -->
<g id="node55" class="node">
<title>59</title>
<path fill="none" stroke="#56d892" stroke-width="2" d="M714.71,-836C714.71,-836 650.71,-836 650.71,-836 644.71,-836 638.71,-830 638.71,-824 638.71,-824 638.71,-812 638.71,-812 638.71,-806 644.71,-800 650.71,-800 650.71,-800 714.71,-800 714.71,-800 720.71,-800 726.71,-806 726.71,-812 726.71,-812 726.71,-824 726.71,-824 726.71,-830 720.71,-836 714.71,-836"/>
<text text-anchor="middle" x="682.71" y="-815.5" font-family="sans" font-size="10.00">qc_nnunet_f3d</text>
</g>
<!-- 18&#45;&gt;59 -->
<g id="edge131" class="edge">
<title>18&#45;&gt;59</title>
<path fill="none" stroke="grey" stroke-width="2" d="M563.75,-1015.69C560.36,-997.32 557.23,-967.72 565.71,-944 581.1,-900.95 620.23,-864.5 649.02,-842.27"/>
<polygon fill="grey" stroke="grey" stroke-width="2" points="651.33,-844.92 657.22,-836.11 647.12,-839.32 651.33,-844.92"/>
</g>
<!-- 17&#45;&gt;16 -->
<g id="edge47" class="edge">
<title>17&#45;&gt;16</title>
<path fill="none" stroke="grey" stroke-width="2" d="M633.24,-962C642.15,-962 651.06,-962 659.97,-962"/>
<polygon fill="grey" stroke="grey" stroke-width="2" points="660.02,-965.5 670.02,-962 660.02,-958.5 660.02,-965.5"/>
</g>
<!-- 30 -->
<g id="node9" class="node">
<title>30</title>
<path fill="none" stroke="#9fd856" stroke-width="2" d="M1431.71,-620C1431.71,-620 1321.71,-620 1321.71,-620 1315.71,-620 1309.71,-614 1309.71,-608 1309.71,-608 1309.71,-596 1309.71,-596 1309.71,-590 1315.71,-584 1321.71,-584 1321.71,-584 1431.71,-584 1431.71,-584 1437.71,-584 1443.71,-590 1443.71,-596 1443.71,-596 1443.71,-608 1443.71,-608 1443.71,-614 1437.71,-620 1431.71,-620"/>
<text text-anchor="middle" x="1376.71" y="-599.5" font-family="sans" font-size="10.00">create_native_coord_ref</text>
</g>
<!-- 8 -->
<g id="node12" class="node">
<title>8</title>
<path fill="none" stroke="#bed856" stroke-width="2" d="M1409.71,-548C1409.71,-548 1325.71,-548 1325.71,-548 1319.71,-548 1313.71,-542 1313.71,-536 1313.71,-536 1313.71,-524 1313.71,-524 1313.71,-518 1319.71,-512 1325.71,-512 1325.71,-512 1409.71,-512 1409.71,-512 1415.71,-512 1421.71,-518 1421.71,-524 1421.71,-524 1421.71,-536 1421.71,-536 1421.71,-542 1415.71,-548 1409.71,-548"/>
<text text-anchor="middle" x="1367.71" y="-527.5" font-family="sans" font-size="10.00">create_warps_hipp</text>
</g>
<!-- 30&#45;&gt;8 -->
<g id="edge35" class="edge">
<title>30&#45;&gt;8</title>
<path fill="none" stroke="grey" stroke-width="2" d="M1374.49,-583.7C1373.49,-575.98 1372.3,-566.71 1371.2,-558.11"/>
<polygon fill="grey" stroke="grey" stroke-width="2" points="1374.66,-557.58 1369.91,-548.1 1367.71,-558.47 1374.66,-557.58"/>
</g>
<!-- 41 -->
<g id="node13" class="node">
<title>41</title>
<path fill="none" stroke="#d8ac56" stroke-width="2" d="M1271.21,-548C1271.21,-548 1170.21,-548 1170.21,-548 1164.21,-548 1158.21,-542 1158.21,-536 1158.21,-536 1158.21,-524 1158.21,-524 1158.21,-518 1164.21,-512 1170.21,-512 1170.21,-512 1271.21,-512 1271.21,-512 1277.21,-512 1283.21,-518 1283.21,-524 1283.21,-524 1283.21,-536 1283.21,-536 1283.21,-542 1277.21,-548 1271.21,-548"/>
<text text-anchor="middle" x="1220.71" y="-527.5" font-family="sans" font-size="10.00">create_warps_dentate</text>
</g>
<!-- 30&#45;&gt;41 -->
<g id="edge87" class="edge">
<title>30&#45;&gt;41</title>
<path fill="none" stroke="grey" stroke-width="2" d="M1334.68,-583.9C1324.81,-579.77 1314.36,-575.3 1304.71,-571 1291.65,-565.18 1277.58,-558.6 1264.76,-552.48"/>
<polygon fill="grey" stroke="grey" stroke-width="2" points="1266.21,-549.29 1255.68,-548.13 1263.18,-555.61 1266.21,-549.29"/>
</g>
<!-- 9 -->
<g id="node10" class="node">
<title>9</title>
<path fill="none" stroke="#56d8a2" stroke-width="2" d="M1147.71,-692C1147.71,-692 1069.71,-692 1069.71,-692 1063.71,-692 1057.71,-686 1057.71,-680 1057.71,-680 1057.71,-668 1057.71,-668 1057.71,-662 1063.71,-656 1069.71,-656 1069.71,-656 1147.71,-656 1147.71,-656 1153.71,-656 1159.71,-662 1159.71,-668 1159.71,-668 1159.71,-680 1159.71,-680 1159.71,-686 1153.71,-692 1147.71,-692"/>
<text text-anchor="middle" x="1108.71" y="-671.5" font-family="sans" font-size="10.00">create_unfold_ref</text>
</g>
<!-- 10 -->
<g id="node11" class="node">
<title>10</title>
<path fill="none" stroke="#56d8d0" stroke-width="2" d="M1259.21,-620C1259.21,-620 1140.21,-620 1140.21,-620 1134.21,-620 1128.21,-614 1128.21,-608 1128.21,-608 1128.21,-596 1128.21,-596 1128.21,-590 1134.21,-584 1140.21,-584 1140.21,-584 1259.21,-584 1259.21,-584 1265.21,-584 1271.21,-590 1271.21,-596 1271.21,-596 1271.21,-608 1271.21,-608 1271.21,-614 1265.21,-620 1259.21,-620"/>
<text text-anchor="middle" x="1199.71" y="-599.5" font-family="sans" font-size="10.00">create_unfold_coord_map</text>
</g>
<!-- 9&#45;&gt;10 -->
<g id="edge37" class="edge">
<title>9&#45;&gt;10</title>
<path fill="none" stroke="grey" stroke-width="2" d="M1131.21,-655.7C1142.67,-646.88 1156.77,-636.03 1169.19,-626.47"/>
<polygon fill="grey" stroke="grey" stroke-width="2" points="1171.68,-628.98 1177.48,-620.1 1167.42,-623.43 1171.68,-628.98"/>
</g>
<!-- 9&#45;&gt;8 -->
<g id="edge34" class="edge">
<title>9&#45;&gt;8</title>
<path fill="none" stroke="grey" stroke-width="2" d="M1159.77,-667.52C1196.75,-661.29 1246.13,-648.04 1280.71,-620 1294.93,-608.47 1288.86,-597.95 1300.71,-584 1310.05,-573.01 1321.96,-562.73 1333.14,-554.19"/>
<polygon fill="grey" stroke="grey" stroke-width="2" points="1335.52,-556.78 1341.49,-548.03 1331.36,-551.15 1335.52,-556.78"/>
</g>
<!-- 9&#45;&gt;41 -->
<g id="edge86" class="edge">
<title>9&#45;&gt;41</title>
<path fill="none" stroke="grey" stroke-width="2" d="M1106.41,-655.96C1104.74,-636.74 1104.92,-605.38 1119.71,-584 1129,-570.58 1142.77,-560.31 1157.17,-552.55"/>
<polygon fill="grey" stroke="grey" stroke-width="2" points="1158.82,-555.64 1166.19,-548.04 1155.68,-549.38 1158.82,-555.64"/>
</g>
<!-- 9&#45;&gt;50 -->
<g id="edge113" class="edge">
<title>9&#45;&gt;50</title>
<path fill="none" stroke="grey" stroke-width="2" d="M1104.06,-655.88C1099.91,-637.66 1095.51,-608.19 1102.71,-584 1113.61,-547.37 1117.24,-532.16 1149.71,-512 1191.16,-486.27 1211.44,-511.05 1258.71,-499 1276.89,-494.37 1296.17,-487.22 1312.91,-480.25"/>
<polygon fill="grey" stroke="grey" stroke-width="2" points="1314.62,-483.32 1322.44,-476.18 1311.87,-476.89 1314.62,-483.32"/>
</g>
<!-- 9&#45;&gt;51 -->
<g id="edge118" class="edge">
<title>9&#45;&gt;51</title>
<path fill="none" stroke="grey" stroke-width="2" d="M1098.09,-655.56C1092.61,-645.54 1086.51,-632.51 1083.71,-620 1073.22,-573.16 1063.8,-555.68 1083.71,-512 1088.94,-500.53 1098.01,-490.58 1107.58,-482.5"/>
<polygon fill="grey" stroke="grey" stroke-width="2" points="1109.96,-485.09 1115.67,-476.16 1105.64,-479.58 1109.96,-485.09"/>
</g>
<!-- 31 -->
<g id="node28" class="node">
<title>31</title>
<path fill="none" stroke="#56d8d8" stroke-width="2" d="M722.71,-620C722.71,-620 616.71,-620 616.71,-620 610.71,-620 604.71,-614 604.71,-608 604.71,-608 604.71,-596 604.71,-596 604.71,-590 610.71,-584 616.71,-584 616.71,-584 722.71,-584 722.71,-584 728.71,-584 734.71,-590 734.71,-596 734.71,-596 734.71,-608 734.71,-608 734.71,-614 728.71,-620 722.71,-620"/>
<text text-anchor="middle" x="669.71" y="-599.5" font-family="sans" font-size="10.00">constrain_surf_to_bbox</text>
</g>
<!-- 9&#45;&gt;31 -->
<g id="edge68" class="edge">
<title>9&#45;&gt;31</title>
<path fill="none" stroke="grey" stroke-width="2" d="M1057.49,-664.83C980.4,-652.54 834.08,-629.21 744.88,-614.99"/>
<polygon fill="grey" stroke="grey" stroke-width="2" points="745.26,-611.5 734.83,-613.38 744.15,-618.41 745.26,-611.5"/>
</g>
<!-- 38 -->
<g id="node37" class="node">
<title>38</title>
<path fill="none" stroke="#d85e56" stroke-width="2" d="M779.71,-260C779.71,-260 663.71,-260 663.71,-260 657.71,-260 651.71,-254 651.71,-248 651.71,-248 651.71,-236 651.71,-236 651.71,-230 657.71,-224 663.71,-224 663.71,-224 779.71,-224 779.71,-224 785.71,-224 791.71,-230 791.71,-236 791.71,-236 791.71,-248 791.71,-248 791.71,-254 785.71,-260 779.71,-260"/>
<text text-anchor="middle" x="721.71" y="-239.5" font-family="sans" font-size="10.00">resample_atlas_to_refvol</text>
</g>
<!-- 9&#45;&gt;38 -->
<g id="edge74" class="edge">
<title>9&#45;&gt;38</title>
<path fill="none" stroke="grey" stroke-width="2" d="M1057.32,-669.19C1012.99,-663.83 948.85,-650.94 901.71,-620 837.74,-578 756.92,-349.07 730.5,-269.93"/>
<polygon fill="grey" stroke="grey" stroke-width="2" points="733.75,-268.6 727.28,-260.21 727.1,-270.8 733.75,-268.6"/>
</g>
<!-- 0 -->
<g id="node61" class="node">
<title>0</title>
<path fill="none" stroke="#d89c56" stroke-width="2" d="M1495.71,-188C1495.71,-188 1465.71,-188 1465.71,-188 1459.71,-188 1453.71,-182 1453.71,-176 1453.71,-176 1453.71,-164 1453.71,-164 1453.71,-158 1459.71,-152 1465.71,-152 1465.71,-152 1495.71,-152 1495.71,-152 1501.71,-152 1507.71,-158 1507.71,-164 1507.71,-164 1507.71,-176 1507.71,-176 1507.71,-182 1501.71,-188 1495.71,-188"/>
<text text-anchor="middle" x="1480.71" y="-167.5" font-family="sans" font-size="10.00">all</text>
</g>
<!-- 9&#45;&gt;0 -->
<g id="edge9" class="edge">
<title>9&#45;&gt;0</title>
<path fill="none" stroke="grey" stroke-width="2" d="M1093.85,-655.74C1061.42,-615.86 990.38,-515 1031.71,-440 1121.15,-277.74 1352.94,-203.31 1443.59,-179.73"/>
<polygon fill="grey" stroke="grey" stroke-width="2" points="1444.6,-183.08 1453.43,-177.23 1442.87,-176.3 1444.6,-183.08"/>
</g>
<!-- 10&#45;&gt;8 -->
<g id="edge30" class="edge">
<title>10&#45;&gt;8</title>
<path fill="none" stroke="grey" stroke-width="2" d="M1258.34,-583.84C1269.87,-579.98 1281.78,-575.64 1292.71,-571 1305.04,-565.77 1318.05,-559.23 1329.71,-552.95"/>
<polygon fill="grey" stroke="grey" stroke-width="2" points="1331.65,-555.88 1338.74,-548.01 1328.29,-549.74 1331.65,-555.88"/>
</g>
<!-- 10&#45;&gt;41 -->
<g id="edge83" class="edge">
<title>10&#45;&gt;41</title>
<path fill="none" stroke="grey" stroke-width="2" d="M1204.9,-583.7C1207.24,-575.9 1210.06,-566.51 1212.66,-557.83"/>
<polygon fill="grey" stroke="grey" stroke-width="2" points="1216.06,-558.69 1215.58,-548.1 1209.35,-556.68 1216.06,-558.69"/>
</g>
<!-- 8&#45;&gt;50 -->
<g id="edge115" class="edge">
<title>8&#45;&gt;50</title>
<path fill="none" stroke="grey" stroke-width="2" d="M1365.49,-511.7C1364.49,-503.98 1363.3,-494.71 1362.2,-486.11"/>
<polygon fill="grey" stroke="grey" stroke-width="2" points="1365.66,-485.58 1360.91,-476.1 1358.71,-486.47 1365.66,-485.58"/>
</g>
<!-- 8&#45;&gt;51 -->
<g id="edge116" class="edge">
<title>8&#45;&gt;51</title>
<path fill="none" stroke="grey" stroke-width="2" d="M1313.44,-514.85C1295.9,-510.07 1276.41,-504.53 1258.71,-499 1239.62,-493.03 1218.93,-485.96 1200.48,-479.43"/>
<polygon fill="grey" stroke="grey" stroke-width="2" points="1201.66,-476.13 1191.06,-476.08 1199.31,-482.73 1201.66,-476.13"/>
</g>
<!-- 7 -->
<g id="node29" class="node">
<title>7</title>
<path fill="none" stroke="#56d8a9" stroke-width="2" d="M723.21,-548C723.21,-548 616.21,-548 616.21,-548 610.21,-548 604.21,-542 604.21,-536 604.21,-536 604.21,-524 604.21,-524 604.21,-518 610.21,-512 616.21,-512 616.21,-512 723.21,-512 723.21,-512 729.21,-512 735.21,-518 735.21,-524 735.21,-524 735.21,-536 735.21,-536 735.21,-542 729.21,-548 723.21,-548"/>
<text text-anchor="middle" x="669.71" y="-527.5" font-family="sans" font-size="10.00">warp_gii_unfold2native</text>
</g>
<!-- 8&#45;&gt;7 -->
<g id="edge29" class="edge">
<title>8&#45;&gt;7</title>
<path fill="none" stroke="grey" stroke-width="2" d="M1343.45,-548.19C1327.42,-559.04 1305.42,-571.79 1283.71,-577.5 1258.03,-584.26 1071.21,-579.17 1044.71,-577.5 940.51,-570.93 820.98,-554.18 745.42,-542.44"/>
<polygon fill="grey" stroke="grey" stroke-width="2" points="745.94,-538.98 735.52,-540.89 744.86,-545.89 745.94,-538.98"/>
</g>
<!-- 41&#45;&gt;50 -->
<g id="edge112" class="edge">
<title>41&#45;&gt;50</title>
<path fill="none" stroke="grey" stroke-width="2" d="M1254.47,-511.88C1272.93,-502.51 1295.99,-490.81 1315.73,-480.8"/>
<polygon fill="grey" stroke="grey" stroke-width="2" points="1317.49,-483.83 1324.82,-476.19 1314.32,-477.59 1317.49,-483.83"/>
</g>
<!-- 41&#45;&gt;51 -->
<g id="edge120" class="edge">
<title>41&#45;&gt;51</title>
<path fill="none" stroke="grey" stroke-width="2" d="M1201.92,-511.7C1192.54,-503.05 1181.03,-492.45 1170.8,-483.03"/>
<polygon fill="grey" stroke="grey" stroke-width="2" points="1173.01,-480.3 1163.28,-476.1 1168.27,-485.45 1173.01,-480.3"/>
</g>
<!-- 41&#45;&gt;7 -->
<g id="edge27" class="edge">
<title>41&#45;&gt;7</title>
<path fill="none" stroke="grey" stroke-width="2" d="M1158.15,-530C1020.66,-530 883.17,-530 745.68,-530"/>
<polygon fill="grey" stroke="grey" stroke-width="2" points="745.36,-526.5 735.36,-530 745.36,-533.5 745.36,-526.5"/>
</g>
<!-- 50&#45;&gt;0 -->
<g id="edge10" class="edge">
<title>50&#45;&gt;0</title>
<path fill="none" stroke="grey" stroke-width="2" d="M1362.95,-439.91C1373.15,-400.39 1401.22,-300.23 1441.71,-224 1446.78,-214.47 1453.42,-204.75 1459.78,-196.28"/>
<polygon fill="grey" stroke="grey" stroke-width="2" points="1462.62,-198.33 1465.98,-188.29 1457.08,-194.04 1462.62,-198.33"/>
</g>
<!-- 51&#45;&gt;0 -->
<g id="edge3" class="edge">
<title>51&#45;&gt;0</title>
<path fill="none" stroke="grey" stroke-width="2" d="M1164.72,-439.97C1221.9,-391.3 1386.1,-251.53 1452.42,-195.08"/>
<polygon fill="grey" stroke="grey" stroke-width="2" points="1455.03,-197.45 1460.38,-188.31 1450.5,-192.12 1455.03,-197.45"/>
</g>
<!-- 53&#45;&gt;0 -->
<g id="edge7" class="edge">
<title>53&#45;&gt;0</title>
<path fill="none" stroke="grey" stroke-width="2" d="M1831.96,-295.98C1787.81,-277.34 1714.24,-247.02 1649.71,-224 1604.64,-207.92 1551.9,-191.81 1517.49,-181.64"/>
<polygon fill="grey" stroke="grey" stroke-width="2" points="1518.43,-178.27 1507.85,-178.81 1516.46,-184.98 1518.43,-178.27"/>
</g>
<!-- 57 -->
<g id="node17" class="node">
<title>57</title>
<path fill="none" stroke="#569ad8" stroke-width="2" d="M1696.21,-332C1696.21,-332 1593.21,-332 1593.21,-332 1587.21,-332 1581.21,-326 1581.21,-320 1581.21,-320 1581.21,-308 1581.21,-308 1581.21,-302 1587.21,-296 1593.21,-296 1593.21,-296 1696.21,-296 1696.21,-296 1702.21,-296 1708.21,-302 1708.21,-308 1708.21,-308 1708.21,-320 1708.21,-320 1708.21,-326 1702.21,-332 1696.21,-332"/>
<text text-anchor="middle" x="1644.71" y="-311.5" font-family="sans" font-size="10.00">get_subfield_vols_subj</text>
</g>
<!-- 56 -->
<g id="node18" class="node">
<title>56</title>
<path fill="none" stroke="#565bd8" stroke-width="2" d="M1565.71,-260C1565.71,-260 1479.71,-260 1479.71,-260 1473.71,-260 1467.71,-254 1467.71,-248 1467.71,-248 1467.71,-236 1467.71,-236 1467.71,-230 1473.71,-224 1479.71,-224 1479.71,-224 1565.71,-224 1565.71,-224 1571.71,-224 1577.71,-230 1577.71,-236 1577.71,-236 1577.71,-248 1577.71,-248 1577.71,-254 1571.71,-260 1565.71,-260"/>
<text text-anchor="middle" x="1522.71" y="-239.5" font-family="sans" font-size="10.00">plot_subj_subfields</text>
</g>
<!-- 57&#45;&gt;56 -->
<g id="edge127" class="edge">
<title>57&#45;&gt;56</title>
<path fill="none" stroke="grey" stroke-width="2" d="M1614.87,-295.88C1598.77,-286.64 1578.71,-275.13 1561.42,-265.21"/>
<polygon fill="grey" stroke="grey" stroke-width="2" points="1563.09,-262.13 1552.67,-260.19 1559.6,-268.2 1563.09,-262.13"/>
</g>
<!-- 56&#45;&gt;0 -->
<g id="edge6" class="edge">
<title>56&#45;&gt;0</title>
<path fill="none" stroke="grey" stroke-width="2" d="M1512.33,-223.7C1507.45,-215.56 1501.52,-205.69 1496.13,-196.7"/>
<polygon fill="grey" stroke="grey" stroke-width="2" points="1499.12,-194.88 1490.97,-188.1 1493.12,-198.48 1499.12,-194.88"/>
</g>
<!-- 54 -->
<g id="node19" class="node">
<title>54</title>
<path fill="none" stroke="#d87556" stroke-width="2" d="M1785.21,-332C1785.21,-332 1738.21,-332 1738.21,-332 1732.21,-332 1726.21,-326 1726.21,-320 1726.21,-320 1726.21,-308 1726.21,-308 1726.21,-302 1732.21,-296 1738.21,-296 1738.21,-296 1785.21,-296 1785.21,-296 1791.21,-296 1797.21,-302 1797.21,-308 1797.21,-308 1797.21,-320 1797.21,-320 1797.21,-326 1791.21,-332 1785.21,-332"/>
<text text-anchor="middle" x="1761.71" y="-311.5" font-family="sans" font-size="10.00">qc_subfield</text>
</g>
<!-- 54&#45;&gt;0 -->
<g id="edge4" class="edge">
<title>54&#45;&gt;0</title>
<path fill="none" stroke="grey" stroke-width="2" d="M1733.16,-295.87C1701.7,-277.27 1649.34,-247.11 1602.71,-224 1574.4,-209.97 1541.5,-195.8 1517,-185.64"/>
<polygon fill="grey" stroke="grey" stroke-width="2" points="1518.3,-182.39 1507.72,-181.82 1515.63,-188.86 1518.3,-182.39"/>
</g>
<!-- 55 -->
<g id="node20" class="node">
<title>55</title>
<path fill="none" stroke="#ced856" stroke-width="2" d="M1551.21,-332C1551.21,-332 1480.21,-332 1480.21,-332 1474.21,-332 1468.21,-326 1468.21,-320 1468.21,-320 1468.21,-308 1468.21,-308 1468.21,-302 1474.21,-296 1480.21,-296 1480.21,-296 1551.21,-296 1551.21,-296 1557.21,-296 1563.21,-302 1563.21,-308 1563.21,-308 1563.21,-320 1563.21,-320 1563.21,-326 1557.21,-332 1551.21,-332"/>
<text text-anchor="middle" x="1515.71" y="-311.5" font-family="sans" font-size="10.00">qc_subfield_surf</text>
</g>
<!-- 55&#45;&gt;0 -->
<g id="edge2" class="edge">
<title>55&#45;&gt;0</title>
<path fill="none" stroke="grey" stroke-width="2" d="M1550.88,-295.94C1564.69,-287.25 1579.06,-275.26 1586.71,-260 1593.88,-245.7 1595.12,-237.61 1586.71,-224 1571.69,-199.7 1541.77,-186.16 1517.54,-178.87"/>
<polygon fill="grey" stroke="grey" stroke-width="2" points="1518.48,-175.5 1507.91,-176.2 1516.61,-182.24 1518.48,-175.5"/>
</g>
<!-- 12 -->
<g id="node21" class="node">
<title>12</title>
<path fill="none" stroke="#56d8c1" stroke-width="2" d="M1553.71,-764C1553.71,-764 1461.71,-764 1461.71,-764 1455.71,-764 1449.71,-758 1449.71,-752 1449.71,-752 1449.71,-740 1449.71,-740 1449.71,-734 1455.71,-728 1461.71,-728 1461.71,-728 1553.71,-728 1553.71,-728 1559.71,-728 1565.71,-734 1565.71,-740 1565.71,-740 1565.71,-752 1565.71,-752 1565.71,-758 1559.71,-764 1553.71,-764"/>
<text text-anchor="middle" x="1507.71" y="-743.5" font-family="sans" font-size="10.00">laplace_coords_hipp</text>
</g>
<!-- 12&#45;&gt;30 -->
<g id="edge66" class="edge">
<title>12&#45;&gt;30</title>
<path fill="none" stroke="grey" stroke-width="2" d="M1449.58,-736.87C1435.35,-732.42 1421.22,-725.56 1410.71,-715 1388.26,-692.44 1380.56,-655.56 1377.96,-630.33"/>
<polygon fill="grey" stroke="grey" stroke-width="2" points="1381.44,-629.98 1377.13,-620.3 1374.46,-630.56 1381.44,-629.98"/>
</g>
<!-- 12&#45;&gt;8 -->
<g id="edge36" class="edge">
<title>12&#45;&gt;8</title>
<path fill="none" stroke="grey" stroke-width="2" d="M1505.66,-727.68C1501.15,-696.06 1487.8,-628.18 1452.71,-584 1442.86,-571.6 1429.27,-561.32 1415.84,-553.21"/>
<polygon fill="grey" stroke="grey" stroke-width="2" points="1417.49,-550.13 1407.07,-548.2 1414.02,-556.2 1417.49,-550.13"/>
</g>
<!-- 11 -->
<g id="node25" class="node">
<title>11</title>
<path fill="none" stroke="#56d873" stroke-width="2" d="M1645.21,-692C1645.21,-692 1588.21,-692 1588.21,-692 1582.21,-692 1576.21,-686 1576.21,-680 1576.21,-680 1576.21,-668 1576.21,-668 1576.21,-662 1582.21,-656 1588.21,-656 1588.21,-656 1645.21,-656 1645.21,-656 1651.21,-656 1657.21,-662 1657.21,-668 1657.21,-668 1657.21,-680 1657.21,-680 1657.21,-686 1651.21,-692 1645.21,-692"/>
<text text-anchor="middle" x="1616.71" y="-671.5" font-family="sans" font-size="10.00">unflip_coords</text>
</g>
<!-- 12&#45;&gt;11 -->
<g id="edge39" class="edge">
<title>12&#45;&gt;11</title>
<path fill="none" stroke="grey" stroke-width="2" d="M1540.07,-727.86C1547.29,-723.81 1554.84,-719.38 1561.71,-715 1569.82,-709.82 1578.35,-703.89 1586.2,-698.2"/>
<polygon fill="grey" stroke="grey" stroke-width="2" points="1588.41,-700.92 1594.4,-692.18 1584.27,-695.28 1588.41,-700.92"/>
</g>
<!-- 46 -->
<g id="node50" class="node">
<title>46</title>
<path fill="none" stroke="#5663d8" stroke-width="2" d="M1699.21,-548C1699.21,-548 1512.21,-548 1512.21,-548 1506.21,-548 1500.21,-542 1500.21,-536 1500.21,-536 1500.21,-524 1500.21,-524 1500.21,-518 1506.21,-512 1512.21,-512 1512.21,-512 1699.21,-512 1699.21,-512 1705.21,-512 1711.21,-518 1711.21,-524 1711.21,-524 1711.21,-536 1711.21,-536 1711.21,-542 1705.21,-548 1699.21,-548"/>
<text text-anchor="middle" x="1605.71" y="-527.5" font-family="sans" font-size="10.00">label_subfields_from_vol_coords_corobl</text>
</g>
<!-- 12&#45;&gt;46 -->
<g id="edge100" class="edge">
<title>12&#45;&gt;46</title>
<path fill="none" stroke="grey" stroke-width="2" d="M1449.47,-745.58C1331.02,-746.13 1070.9,-744 1043.71,-715 1003.89,-672.52 1003.2,-625.82 1043.71,-584 1059.57,-567.63 1431.16,-574.28 1453.71,-571 1483.53,-566.66 1515.91,-558.62 1543.09,-550.88"/>
<polygon fill="grey" stroke="grey" stroke-width="2" points="1544.23,-554.2 1552.86,-548.05 1542.28,-547.47 1544.23,-554.2"/>
</g>
<!-- 12&#45;&gt;49 -->
<g id="edge111" class="edge">
<title>12&#45;&gt;49</title>
<path fill="none" stroke="grey" stroke-width="2" d="M1566.03,-729.45C1568.96,-728.91 1571.86,-728.42 1574.71,-728 1607.06,-723.23 1838.83,-728.28 1868.71,-715 1899.51,-701.31 2061.62,-526.06 2081.71,-499 2101.92,-471.78 2119.78,-437.05 2130.87,-413.53"/>
<polygon fill="grey" stroke="grey" stroke-width="2" points="2134.16,-414.74 2135.19,-404.2 2127.81,-411.8 2134.16,-414.74"/>
</g>
<!-- 42 -->
<g id="node22" class="node">
<title>42</title>
<path fill="none" stroke="#d88556" stroke-width="2" d="M1703.71,-764C1703.71,-764 1595.71,-764 1595.71,-764 1589.71,-764 1583.71,-758 1583.71,-752 1583.71,-752 1583.71,-740 1583.71,-740 1583.71,-734 1589.71,-728 1595.71,-728 1595.71,-728 1703.71,-728 1703.71,-728 1709.71,-728 1715.71,-734 1715.71,-740 1715.71,-740 1715.71,-752 1715.71,-752 1715.71,-758 1709.71,-764 1703.71,-764"/>
<text text-anchor="middle" x="1649.71" y="-743.5" font-family="sans" font-size="10.00">laplace_coords_dentate</text>
</g>
<!-- 42&#45;&gt;30 -->
<g id="edge65" class="edge">
<title>42&#45;&gt;30</title>
<path fill="none" stroke="grey" stroke-width="2" d="M1583.54,-729.58C1580.56,-729.02 1577.61,-728.49 1574.71,-728 1548.91,-723.66 1480.31,-728.17 1457.71,-715 1448.75,-709.78 1414.93,-660.5 1393.93,-629.08"/>
<polygon fill="grey" stroke="grey" stroke-width="2" points="1396.58,-626.73 1388.12,-620.35 1390.75,-630.61 1396.58,-626.73"/>
</g>
<!-- 42&#45;&gt;41 -->
<g id="edge85" class="edge">
<title>42&#45;&gt;41</title>
<path fill="none" stroke="grey" stroke-width="2" d="M1591.45,-727.84C1583.14,-724.23 1574.97,-719.97 1567.71,-715 1559.72,-709.53 1461.35,-588.38 1452.71,-584 1393.81,-554.16 1368.42,-588.36 1304.71,-571 1289.26,-566.79 1273.18,-559.84 1259.28,-552.91"/>
<polygon fill="grey" stroke="grey" stroke-width="2" points="1260.53,-549.62 1250.03,-548.15 1257.32,-555.84 1260.53,-549.62"/>
</g>
<!-- 42&#45;&gt;11 -->
<g id="edge38" class="edge">
<title>42&#45;&gt;11</title>
<path fill="none" stroke="grey" stroke-width="2" d="M1641.55,-727.7C1637.8,-719.73 1633.26,-710.1 1629.09,-701.26"/>
<polygon fill="grey" stroke="grey" stroke-width="2" points="1632.2,-699.66 1624.77,-692.1 1625.87,-702.64 1632.2,-699.66"/>
</g>
<!-- 42&#45;&gt;49 -->
<g id="edge109" class="edge">
<title>42&#45;&gt;49</title>
<path fill="none" stroke="grey" stroke-width="2" d="M1715.92,-729.54C1719.22,-728.97 1722.5,-728.45 1725.71,-728 1772.67,-721.36 1894.24,-731.47 1938.71,-715 2038.07,-678.2 2078,-664.03 2128.71,-571 2155.93,-521.08 2152.13,-451.94 2147.25,-414.22"/>
<polygon fill="grey" stroke="grey" stroke-width="2" points="2150.67,-413.43 2145.8,-404.02 2143.74,-414.41 2150.67,-413.43"/>
</g>
<!-- 29 -->
<g id="node23" class="node">
<title>29</title>
<path fill="none" stroke="#5682d8" stroke-width="2" d="M1861.21,-764C1861.21,-764 1746.21,-764 1746.21,-764 1740.21,-764 1734.21,-758 1734.21,-752 1734.21,-752 1734.21,-740 1734.21,-740 1734.21,-734 1740.21,-728 1746.21,-728 1746.21,-728 1861.21,-728 1861.21,-728 1867.21,-728 1873.21,-734 1873.21,-740 1873.21,-740 1873.21,-752 1873.21,-752 1873.21,-758 1867.21,-764 1861.21,-764"/>
<text text-anchor="middle" x="1803.71" y="-743.5" font-family="sans" font-size="10.00">prep_equivolume_coords</text>
</g>
<!-- 28 -->
<g id="node24" class="node">
<title>28</title>
<path fill="none" stroke="#78d856" stroke-width="2" d="M1847.71,-692C1847.71,-692 1759.71,-692 1759.71,-692 1753.71,-692 1747.71,-686 1747.71,-680 1747.71,-680 1747.71,-668 1747.71,-668 1747.71,-662 1753.71,-656 1759.71,-656 1759.71,-656 1847.71,-656 1847.71,-656 1853.71,-656 1859.71,-662 1859.71,-668 1859.71,-668 1859.71,-680 1859.71,-680 1859.71,-686 1853.71,-692 1847.71,-692"/>
<text text-anchor="middle" x="1803.71" y="-671.5" font-family="sans" font-size="10.00">equivolume_coords</text>
</g>
<!-- 29&#45;&gt;28 -->
<g id="edge62" class="edge">
<title>29&#45;&gt;28</title>
<path fill="none" stroke="grey" stroke-width="2" d="M1803.71,-727.7C1803.71,-719.98 1803.71,-710.71 1803.71,-702.11"/>
<polygon fill="grey" stroke="grey" stroke-width="2" points="1807.21,-702.1 1803.71,-692.1 1800.21,-702.1 1807.21,-702.1"/>
</g>
<!-- 28&#45;&gt;8 -->
<g id="edge31" class="edge">
<title>28&#45;&gt;8</title>
<path fill="none" stroke="grey" stroke-width="2" d="M1764.55,-655.99C1707.99,-631.52 1608.26,-588.78 1590.71,-584 1549.59,-572.8 1537.31,-580.28 1495.71,-571 1472.36,-565.79 1447.13,-558.32 1425.29,-551.24"/>
<polygon fill="grey" stroke="grey" stroke-width="2" points="1426.11,-547.82 1415.52,-548.02 1423.92,-554.47 1426.11,-547.82"/>
</g>
<!-- 27 -->
<g id="node26" class="node">
<title>27</title>
<path fill="none" stroke="#56d0d8" stroke-width="2" d="M1799.71,-620C1799.71,-620 1701.71,-620 1701.71,-620 1695.71,-620 1689.71,-614 1689.71,-608 1689.71,-608 1689.71,-596 1689.71,-596 1689.71,-590 1695.71,-584 1701.71,-584 1701.71,-584 1799.71,-584 1799.71,-584 1805.71,-584 1811.71,-590 1811.71,-596 1811.71,-596 1811.71,-608 1811.71,-608 1811.71,-614 1805.71,-620 1799.71,-620"/>
<text text-anchor="middle" x="1750.71" y="-599.5" font-family="sans" font-size="10.00">unflip_coords_equivol</text>
</g>
<!-- 28&#45;&gt;27 -->
<g id="edge61" class="edge">
<title>28&#45;&gt;27</title>
<path fill="none" stroke="grey" stroke-width="2" d="M1790.61,-655.7C1784.32,-647.39 1776.66,-637.28 1769.75,-628.14"/>
<polygon fill="grey" stroke="grey" stroke-width="2" points="1772.49,-625.96 1763.66,-620.1 1766.91,-630.19 1772.49,-625.96"/>
</g>
<!-- 28&#45;&gt;46 -->
<g id="edge96" class="edge">
<title>28&#45;&gt;46</title>
<path fill="none" stroke="grey" stroke-width="2" d="M1814.32,-655.71C1824.74,-636.25 1836.91,-604.68 1820.71,-584 1807.49,-567.12 1764.96,-554.89 1721.18,-546.46"/>
<polygon fill="grey" stroke="grey" stroke-width="2" points="1721.7,-542.99 1711.23,-544.61 1720.42,-549.88 1721.7,-542.99"/>
</g>
<!-- 28&#45;&gt;49 -->
<g id="edge105" class="edge">
<title>28&#45;&gt;49</title>
<path fill="none" stroke="grey" stroke-width="2" d="M1840.57,-655.79C1859.3,-646.33 1881.99,-633.74 1900.71,-620 1990.52,-554.07 2081.05,-456.79 2121.22,-411.66"/>
<polygon fill="grey" stroke="grey" stroke-width="2" points="2123.89,-413.93 2127.9,-404.12 2118.65,-409.29 2123.89,-413.93"/>
</g>
<!-- 11&#45;&gt;30 -->
<g id="edge64" class="edge">
<title>11&#45;&gt;30</title>
<path fill="none" stroke="grey" stroke-width="2" d="M1576,-661.13C1540.14,-650.67 1487.19,-635.22 1444.88,-622.88"/>
<polygon fill="grey" stroke="grey" stroke-width="2" points="1445.78,-619.5 1435.2,-620.06 1443.82,-626.22 1445.78,-619.5"/>
</g>
<!-- 11&#45;&gt;8 -->
<g id="edge33" class="edge">
<title>11&#45;&gt;8</title>
<path fill="none" stroke="grey" stroke-width="2" d="M1610.99,-655.93C1603.21,-635.46 1587.24,-601.69 1561.71,-584 1537.14,-566.97 1524.69,-578.36 1495.71,-571 1473.21,-565.29 1448.81,-557.95 1427.41,-551.13"/>
<polygon fill="grey" stroke="grey" stroke-width="2" points="1428.4,-547.77 1417.81,-548.04 1426.26,-554.43 1428.4,-547.77"/>
</g>
<!-- 11&#45;&gt;41 -->
<g id="edge84" class="edge">
<title>11&#45;&gt;41</title>
<path fill="none" stroke="grey" stroke-width="2" d="M1598.5,-655.92C1574.67,-634.76 1530.65,-599.6 1485.71,-584 1409.52,-557.54 1382.69,-591.58 1304.71,-571 1288.95,-566.84 1272.57,-559.75 1258.5,-552.68"/>
<polygon fill="grey" stroke="grey" stroke-width="2" points="1260.1,-549.57 1249.62,-548.07 1256.88,-555.78 1260.1,-549.57"/>
</g>
<!-- 11&#45;&gt;46 -->
<g id="edge99" class="edge">
<title>11&#45;&gt;46</title>
<path fill="none" stroke="grey" stroke-width="2" d="M1615.38,-655.87C1613.51,-631.67 1610.07,-587.21 1607.83,-558.39"/>
<polygon fill="grey" stroke="grey" stroke-width="2" points="1611.3,-557.89 1607.04,-548.19 1604.33,-558.43 1611.3,-557.89"/>
</g>
<!-- 11&#45;&gt;49 -->
<g id="edge107" class="edge">
<title>11&#45;&gt;49</title>
<path fill="none" stroke="grey" stroke-width="2" d="M1657.3,-667.83C1699.88,-661.2 1767.82,-647.17 1820.71,-620 1931.87,-562.91 1932.13,-508.4 2036.71,-440 2054.68,-428.25 2075.62,-417.27 2094.11,-408.39"/>
<polygon fill="grey" stroke="grey" stroke-width="2" points="2095.71,-411.5 2103.25,-404.07 2092.72,-405.17 2095.71,-411.5"/>
</g>
<!-- 27&#45;&gt;8 -->
<g id="edge32" class="edge">
<title>27&#45;&gt;8</title>
<path fill="none" stroke="grey" stroke-width="2" d="M1689.51,-591.13C1672.75,-588.61 1654.55,-586.04 1637.71,-584 1574.79,-576.39 1557.86,-583.41 1495.71,-571 1471.65,-566.19 1445.7,-558.57 1423.5,-551.25"/>
<polygon fill="grey" stroke="grey" stroke-width="2" points="1424.5,-547.9 1413.91,-548.04 1422.28,-554.53 1424.5,-547.9"/>
</g>
<!-- 27&#45;&gt;46 -->
<g id="edge98" class="edge">
<title>27&#45;&gt;46</title>
<path fill="none" stroke="grey" stroke-width="2" d="M1715.24,-583.88C1695.59,-574.39 1670.99,-562.51 1650.08,-552.42"/>
<polygon fill="grey" stroke="grey" stroke-width="2" points="1651.59,-549.26 1641.07,-548.07 1648.55,-555.57 1651.59,-549.26"/>
</g>
<!-- 27&#45;&gt;49 -->
<g id="edge106" class="edge">
<title>27&#45;&gt;49</title>
<path fill="none" stroke="grey" stroke-width="2" d="M1772.96,-583.89C1797.32,-564.61 1836.89,-531.69 1866.71,-499 1888.58,-475.03 1882.61,-457.85 1909.71,-440 1921.96,-431.94 1991.74,-416.61 2051.78,-404.51"/>
<polygon fill="grey" stroke="grey" stroke-width="2" points="2052.58,-407.92 2061.7,-402.52 2051.21,-401.05 2052.58,-407.92"/>
</g>
<!-- 32 -->
<g id="node27" class="node">
<title>32</title>
<path fill="none" stroke="#56d882" stroke-width="2" d="M147.71,-692C147.71,-692 43.71,-692 43.71,-692 37.71,-692 31.71,-686 31.71,-680 31.71,-680 31.71,-668 31.71,-668 31.71,-662 37.71,-656 43.71,-656 43.71,-656 147.71,-656 147.71,-656 153.71,-656 159.71,-662 159.71,-668 159.71,-668 159.71,-680 159.71,-680 159.71,-686 153.71,-692 147.71,-692"/>
<text text-anchor="middle" x="95.71" y="-671.5" font-family="sans" font-size="10.00">cp_template_to_unfold</text>
</g>
<!-- 32&#45;&gt;31 -->
<g id="edge67" class="edge">
<title>32&#45;&gt;31</title>
<path fill="none" stroke="grey" stroke-width="2" d="M159.89,-665.17C266.8,-652.14 480.85,-626.03 594.61,-612.16"/>
<polygon fill="grey" stroke="grey" stroke-width="2" points="595.13,-615.62 604.63,-610.94 594.28,-608.67 595.13,-615.62"/>
</g>
<!-- 2 -->
<g id="node40" class="node">
<title>2</title>
<path fill="none" stroke="#56d863" stroke-width="2" d="M474.71,-116C474.71,-116 376.71,-116 376.71,-116 370.71,-116 364.71,-110 364.71,-104 364.71,-104 364.71,-92 364.71,-92 364.71,-86 370.71,-80 376.71,-80 376.71,-80 474.71,-80 474.71,-80 480.71,-80 486.71,-86 486.71,-92 486.71,-92 486.71,-104 486.71,-104 486.71,-110 480.71,-116 474.71,-116"/>
<text text-anchor="middle" x="425.71" y="-95.5" font-family="sans" font-size="10.00">create_spec_file_hipp</text>
</g>
<!-- 32&#45;&gt;2 -->
<g id="edge19" class="edge">
<title>32&#45;&gt;2</title>
<path fill="none" stroke="grey" stroke-width="2" d="M91.06,-655.66C84.34,-629.05 72.71,-576.45 72.71,-531 72.71,-531 72.71,-531 72.71,-313 72.71,-273.2 60.73,-257.18 82.71,-224 118.76,-169.59 150.02,-176.03 210.71,-152 257.2,-133.59 311.96,-120.21 354.57,-111.49"/>
<polygon fill="grey" stroke="grey" stroke-width="2" points="355.46,-114.88 364.58,-109.49 354.08,-108.02 355.46,-114.88"/>
</g>
<!-- 40 -->
<g id="node41" class="node">
<title>40</title>
<path fill="none" stroke="#566bd8" stroke-width="2" d="M175.71,-116C175.71,-116 61.71,-116 61.71,-116 55.71,-116 49.71,-110 49.71,-104 49.71,-104 49.71,-92 49.71,-92 49.71,-86 55.71,-80 61.71,-80 61.71,-80 175.71,-80 175.71,-80 181.71,-80 187.71,-86 187.71,-92 187.71,-92 187.71,-104 187.71,-104 187.71,-110 181.71,-116 175.71,-116"/>
<text text-anchor="middle" x="118.71" y="-95.5" font-family="sans" font-size="10.00">create_spec_file_dentate</text>
</g>
<!-- 32&#45;&gt;40 -->
<g id="edge80" class="edge">
<title>32&#45;&gt;40</title>
<path fill="none" stroke="grey" stroke-width="2" d="M82.35,-655.72C63.86,-630.03 32.71,-579.55 32.71,-531 32.71,-531 32.71,-531 32.71,-241 32.71,-194.31 67.15,-149.84 92.44,-123.49"/>
<polygon fill="grey" stroke="grey" stroke-width="2" points="95.08,-125.8 99.63,-116.23 90.1,-120.88 95.08,-125.8"/>
</g>
<!-- 31&#45;&gt;7 -->
<g id="edge28" class="edge">
<title>31&#45;&gt;7</title>
<path fill="none" stroke="grey" stroke-width="2" d="M669.71,-583.7C669.71,-575.98 669.71,-566.71 669.71,-558.11"/>
<polygon fill="grey" stroke="grey" stroke-width="2" points="673.21,-558.1 669.71,-548.1 666.21,-558.1 673.21,-558.1"/>
</g>
<!-- 6 -->
<g id="node30" class="node">
<title>6</title>
<path fill="none" stroke="#56b9d8" stroke-width="2" d="M674.71,-476C674.71,-476 580.71,-476 580.71,-476 574.71,-476 568.71,-470 568.71,-464 568.71,-464 568.71,-452 568.71,-452 568.71,-446 574.71,-440 580.71,-440 580.71,-440 674.71,-440 674.71,-440 680.71,-440 686.71,-446 686.71,-452 686.71,-452 686.71,-464 686.71,-464 686.71,-470 680.71,-476 674.71,-476"/>
<text text-anchor="middle" x="627.71" y="-455.5" font-family="sans" font-size="10.00">correct_nan_vertices</text>
</g>
<!-- 7&#45;&gt;6 -->
<g id="edge26" class="edge">
<title>7&#45;&gt;6</title>
<path fill="none" stroke="grey" stroke-width="2" d="M659.33,-511.7C654.45,-503.56 648.52,-493.69 643.13,-484.7"/>
<polygon fill="grey" stroke="grey" stroke-width="2" points="646.12,-482.88 637.97,-476.1 640.12,-486.48 646.12,-482.88"/>
</g>
<!-- 6&#45;&gt;5 -->
<g id="edge24" class="edge">
<title>6&#45;&gt;5</title>
<path fill="none" stroke="grey" stroke-width="2" d="M623.26,-439.7C621.26,-431.9 618.84,-422.51 616.61,-413.83"/>
<polygon fill="grey" stroke="grey" stroke-width="2" points="619.99,-412.92 614.11,-404.1 613.21,-414.66 619.99,-412.92"/>
</g>
<!-- 5&#45;&gt;55 -->
<g id="edge126" class="edge">
<title>5&#45;&gt;55</title>
<path fill="none" stroke="grey" stroke-width="2" d="M664.35,-380.78C824.66,-368.39 1292.86,-332.22 1457.57,-319.49"/>
<polygon fill="grey" stroke="grey" stroke-width="2" points="1458.28,-322.95 1467.98,-318.69 1457.74,-315.97 1458.28,-322.95"/>
</g>
<!-- 4 -->
<g id="node32" class="node">
<title>4</title>
<path fill="none" stroke="#56a9d8" stroke-width="2" d="M500.21,-332C500.21,-332 395.21,-332 395.21,-332 389.21,-332 383.21,-326 383.21,-320 383.21,-320 383.21,-308 383.21,-308 383.21,-302 389.21,-296 395.21,-296 395.21,-296 500.21,-296 500.21,-296 506.21,-296 512.21,-302 512.21,-308 512.21,-308 512.21,-320 512.21,-320 512.21,-326 506.21,-332 500.21,-332"/>
<text text-anchor="middle" x="447.71" y="-311.5" font-family="sans" font-size="10.00">calculate_surface_area</text>
</g>
<!-- 5&#45;&gt;4 -->
<g id="edge23" class="edge">
<title>5&#45;&gt;4</title>
<path fill="none" stroke="grey" stroke-width="2" d="M570.08,-367.88C547.94,-358.31 520.15,-346.3 496.65,-336.15"/>
<polygon fill="grey" stroke="grey" stroke-width="2" points="497.78,-332.82 487.21,-332.07 495,-339.25 497.78,-332.82"/>
</g>
<!-- 35 -->
<g id="node34" class="node">
<title>35</title>
<path fill="none" stroke="#56d86b" stroke-width="2" d="M245.21,-332C245.21,-332 174.21,-332 174.21,-332 168.21,-332 162.21,-326 162.21,-320 162.21,-320 162.21,-308 162.21,-308 162.21,-302 168.21,-296 174.21,-296 174.21,-296 245.21,-296 245.21,-296 251.21,-296 257.21,-302 257.21,-308 257.21,-308 257.21,-320 257.21,-320 257.21,-326 251.21,-332 245.21,-332"/>
<text text-anchor="middle" x="209.71" y="-311.5" font-family="sans" font-size="10.00">smooth_surface</text>
</g>
<!-- 5&#45;&gt;35 -->
<g id="edge71" class="edge">
<title>5&#45;&gt;35</title>
<path fill="none" stroke="grey" stroke-width="2" d="M554.84,-379.73C507.04,-374.73 435.99,-366.3 374.71,-355 338.75,-348.37 298.89,-338.77 267.35,-330.63"/>
<polygon fill="grey" stroke="grey" stroke-width="2" points="267.98,-327.18 257.42,-328.05 266.22,-333.96 267.98,-327.18"/>
</g>
<!-- 36 -->
<g id="node36" class="node">
<title>36</title>
<path fill="none" stroke="#d85656" stroke-width="2" d="M601.71,-260C601.71,-260 443.71,-260 443.71,-260 437.71,-260 431.71,-254 431.71,-248 431.71,-248 431.71,-236 431.71,-236 431.71,-230 437.71,-224 443.71,-224 443.71,-224 601.71,-224 601.71,-224 607.71,-224 613.71,-230 613.71,-236 613.71,-236 613.71,-248 613.71,-248 613.71,-254 607.71,-260 601.71,-260"/>
<text text-anchor="middle" x="522.71" y="-239.5" font-family="sans" font-size="10.00">calculate_thickness_from_surface</text>
</g>
<!-- 5&#45;&gt;36 -->
<g id="edge72" class="edge">
<title>5&#45;&gt;36</title>
<path fill="none" stroke="grey" stroke-width="2" d="M599.22,-367.87C584.13,-343.24 556.19,-297.64 538.57,-268.88"/>
<polygon fill="grey" stroke="grey" stroke-width="2" points="541.45,-266.89 533.24,-260.19 535.48,-270.54 541.45,-266.89"/>
</g>
<!-- 5&#45;&gt;2 -->
<g id="edge16" class="edge">
<title>5&#45;&gt;2</title>
<path fill="none" stroke="grey" stroke-width="2" d="M616.98,-367.72C628.79,-336.76 648.38,-270.69 622.71,-224 594.32,-172.36 534.58,-139.05 488.29,-119.91"/>
<polygon fill="grey" stroke="grey" stroke-width="2" points="489.51,-116.62 478.93,-116.15 486.9,-123.12 489.51,-116.62"/>
</g>
<!-- 5&#45;&gt;40 -->
<g id="edge78" class="edge">
<title>5&#45;&gt;40</title>
<path fill="none" stroke="grey" stroke-width="2" d="M554.98,-383.95C441.49,-381.42 188.18,-373.71 153.71,-355 107.39,-329.85 99.34,-310.02 82.71,-260 67.32,-213.69 88.36,-157.71 104.16,-125.44"/>
<polygon fill="grey" stroke="grey" stroke-width="2" points="107.43,-126.73 108.85,-116.23 101.19,-123.55 107.43,-126.73"/>
</g>
<!-- 3 -->
<g id="node33" class="node">
<title>3</title>
<path fill="none" stroke="#5673d8" stroke-width="2" d="M401.21,-260C401.21,-260 304.21,-260 304.21,-260 298.21,-260 292.21,-254 292.21,-248 292.21,-248 292.21,-236 292.21,-236 292.21,-230 298.21,-224 304.21,-224 304.21,-224 401.21,-224 401.21,-224 407.21,-224 413.21,-230 413.21,-236 413.21,-236 413.21,-248 413.21,-248 413.21,-254 407.21,-260 401.21,-260"/>
<text text-anchor="middle" x="352.71" y="-239.5" font-family="sans" font-size="10.00">calculate_gyrification</text>
</g>
<!-- 4&#45;&gt;3 -->
<g id="edge22" class="edge">
<title>4&#45;&gt;3</title>
<path fill="none" stroke="grey" stroke-width="2" d="M424.23,-295.7C412.15,-286.8 397.26,-275.82 384.2,-266.2"/>
<polygon fill="grey" stroke="grey" stroke-width="2" points="386.05,-263.22 375.92,-260.1 381.9,-268.85 386.05,-263.22"/>
</g>
<!-- 39 -->
<g id="node39" class="node">
<title>39</title>
<path fill="none" stroke="#d8d356" stroke-width="2" d="M394.71,-188C394.71,-188 270.71,-188 270.71,-188 264.71,-188 258.71,-182 258.71,-176 258.71,-176 258.71,-164 258.71,-164 258.71,-158 264.71,-152 270.71,-152 270.71,-152 394.71,-152 394.71,-152 400.71,-152 406.71,-158 406.71,-164 406.71,-164 406.71,-176 406.71,-176 406.71,-182 400.71,-188 394.71,-188"/>
<text text-anchor="middle" x="332.71" y="-167.5" font-family="sans" font-size="10.00">create_dscalar_metric_cifti</text>
</g>
<!-- 3&#45;&gt;39 -->
<g id="edge77" class="edge">
<title>3&#45;&gt;39</title>
<path fill="none" stroke="grey" stroke-width="2" d="M347.77,-223.7C345.54,-215.9 342.86,-206.51 340.38,-197.83"/>
<polygon fill="grey" stroke="grey" stroke-width="2" points="343.71,-196.76 337.6,-188.1 336.98,-198.68 343.71,-196.76"/>
</g>
<!-- 3&#45;&gt;2 -->
<g id="edge21" class="edge">
<title>3&#45;&gt;2</title>
<path fill="none" stroke="grey" stroke-width="2" d="M381.61,-223.9C394.22,-214.87 407.88,-202.62 415.71,-188 425.84,-169.09 427.95,-144.72 427.75,-126.27"/>
<polygon fill="grey" stroke="grey" stroke-width="2" points="431.25,-126.04 427.41,-116.17 424.25,-126.28 431.25,-126.04"/>
</g>
<!-- 3&#45;&gt;40 -->
<g id="edge82" class="edge">
<title>3&#45;&gt;40</title>
<path fill="none" stroke="grey" stroke-width="2" d="M316.86,-223.89C296.79,-213.98 271.5,-200.94 249.71,-188 214.88,-167.31 176.75,-140.95 150.65,-122.31"/>
<polygon fill="grey" stroke="grey" stroke-width="2" points="152.45,-119.29 142.29,-116.3 148.37,-124.98 152.45,-119.29"/>
</g>
<!-- 34 -->
<g id="node35" class="node">
<title>34</title>
<path fill="none" stroke="#d89556" stroke-width="2" d="M261.71,-260C261.71,-260 103.71,-260 103.71,-260 97.71,-260 91.71,-254 91.71,-248 91.71,-248 91.71,-236 91.71,-236 91.71,-230 97.71,-224 103.71,-224 103.71,-224 261.71,-224 261.71,-224 267.71,-224 273.71,-230 273.71,-236 273.71,-236 273.71,-248 273.71,-248 273.71,-254 267.71,-260 261.71,-260"/>
<text text-anchor="middle" x="182.71" y="-239.5" font-family="sans" font-size="10.00">calculate_curvature_from_surface</text>
</g>
<!-- 35&#45;&gt;34 -->
<g id="edge70" class="edge">
<title>35&#45;&gt;34</title>
<path fill="none" stroke="grey" stroke-width="2" d="M203.04,-295.7C200,-287.81 196.33,-278.3 192.95,-269.55"/>
<polygon fill="grey" stroke="grey" stroke-width="2" points="196.17,-268.17 189.31,-260.1 189.64,-270.69 196.17,-268.17"/>
</g>
<!-- 34&#45;&gt;39 -->
<g id="edge76" class="edge">
<title>34&#45;&gt;39</title>
<path fill="none" stroke="grey" stroke-width="2" d="M219.41,-223.88C239.73,-214.39 265.18,-202.51 286.81,-192.42"/>
<polygon fill="grey" stroke="grey" stroke-width="2" points="288.55,-195.47 296.14,-188.07 285.59,-189.13 288.55,-195.47"/>
</g>
<!-- 34&#45;&gt;2 -->
<g id="edge20" class="edge">
<title>34&#45;&gt;2</title>
<path fill="none" stroke="grey" stroke-width="2" d="M191.18,-223.98C202.05,-203.88 222.74,-170.81 249.71,-152 280.68,-130.4 320.62,-117.45 354.62,-109.76"/>
<polygon fill="grey" stroke="grey" stroke-width="2" points="355.46,-113.16 364.5,-107.63 353.99,-106.31 355.46,-113.16"/>
</g>
<!-- 34&#45;&gt;40 -->
<g id="edge81" class="edge">
<title>34&#45;&gt;40</title>
<path fill="none" stroke="grey" stroke-width="2" d="M161.29,-223.79C150.99,-214.33 139.45,-201.74 132.71,-188 123.27,-168.75 119.92,-144.59 118.85,-126.31"/>
<polygon fill="grey" stroke="grey" stroke-width="2" points="122.35,-126.15 118.46,-116.3 115.36,-126.43 122.35,-126.15"/>
</g>
<!-- 36&#45;&gt;39 -->
<g id="edge75" class="edge">
<title>36&#45;&gt;39</title>
<path fill="none" stroke="grey" stroke-width="2" d="M476.23,-223.88C449.8,-214.14 416.51,-201.87 388.65,-191.61"/>
<polygon fill="grey" stroke="grey" stroke-width="2" points="389.63,-188.24 379.04,-188.07 387.21,-194.81 389.63,-188.24"/>
</g>
<!-- 36&#45;&gt;2 -->
<g id="edge15" class="edge">
<title>36&#45;&gt;2</title>
<path fill="none" stroke="grey" stroke-width="2" d="M511.01,-223.87C494.11,-199.14 462.76,-153.24 443.14,-124.51"/>
<polygon fill="grey" stroke="grey" stroke-width="2" points="445.98,-122.47 437.45,-116.19 440.2,-126.42 445.98,-122.47"/>
</g>
<!-- 37 -->
<g id="node38" class="node">
<title>37</title>
<path fill="none" stroke="#d8cb56" stroke-width="2" d="M741.71,-188C741.71,-188 675.71,-188 675.71,-188 669.71,-188 663.71,-182 663.71,-176 663.71,-176 663.71,-164 663.71,-164 663.71,-158 669.71,-152 675.71,-152 675.71,-152 741.71,-152 741.71,-152 747.71,-152 753.71,-158 753.71,-164 753.71,-164 753.71,-176 753.71,-176 753.71,-182 747.71,-188 741.71,-188"/>
<text text-anchor="middle" x="708.71" y="-167.5" font-family="sans" font-size="10.00">nii_to_label_gii</text>
</g>
<!-- 38&#45;&gt;37 -->
<g id="edge73" class="edge">
<title>38&#45;&gt;37</title>
<path fill="none" stroke="grey" stroke-width="2" d="M718.5,-223.7C717.07,-215.98 715.34,-206.71 713.75,-198.11"/>
<polygon fill="grey" stroke="grey" stroke-width="2" points="717.16,-197.3 711.89,-188.1 710.27,-198.58 717.16,-197.3"/>
</g>
<!-- 38&#45;&gt;46 -->
<g id="edge97" class="edge">
<title>38&#45;&gt;46</title>
<path fill="none" stroke="grey" stroke-width="2" d="M791.89,-246.57C930.2,-256.69 1242.87,-295.15 1453.71,-440 1480.46,-458.37 1470.02,-480.55 1496.71,-499 1501.35,-502.21 1506.33,-505.07 1511.5,-507.63"/>
<polygon fill="grey" stroke="grey" stroke-width="2" points="1510.44,-511 1521,-511.92 1513.32,-504.62 1510.44,-511"/>
</g>
<!-- 37&#45;&gt;2 -->
<g id="edge17" class="edge">
<title>37&#45;&gt;2</title>
<path fill="none" stroke="grey" stroke-width="2" d="M663.56,-157.83C618.62,-146.72 549,-129.5 496.68,-116.55"/>
<polygon fill="grey" stroke="grey" stroke-width="2" points="497.33,-113.11 486.79,-114.11 495.65,-119.91 497.33,-113.11"/>
</g>
<!-- 39&#45;&gt;2 -->
<g id="edge18" class="edge">
<title>39&#45;&gt;2</title>
<path fill="none" stroke="grey" stroke-width="2" d="M355.7,-151.7C367.53,-142.8 382.1,-131.82 394.89,-122.2"/>
<polygon fill="grey" stroke="grey" stroke-width="2" points="397.1,-124.91 402.99,-116.1 392.89,-119.32 397.1,-124.91"/>
</g>
<!-- 39&#45;&gt;40 -->
<g id="edge79" class="edge">
<title>39&#45;&gt;40</title>
<path fill="none" stroke="grey" stroke-width="2" d="M280.63,-151.97C250.47,-142.1 212.33,-129.62 180.63,-119.25"/>
<polygon fill="grey" stroke="grey" stroke-width="2" points="181.61,-115.89 171.02,-116.11 179.44,-122.55 181.61,-115.89"/>
</g>
<!-- 1 -->
<g id="node42" class="node">
<title>1</title>
<path fill="none" stroke="#70d856" stroke-width="2" d="M467.71,-44C467.71,-44 383.71,-44 383.71,-44 377.71,-44 371.71,-38 371.71,-32 371.71,-32 371.71,-20 371.71,-20 371.71,-14 377.71,-8 383.71,-8 383.71,-8 467.71,-8 467.71,-8 473.71,-8 479.71,-14 479.71,-20 479.71,-20 479.71,-32 479.71,-32 479.71,-38 473.71,-44 467.71,-44"/>
<text text-anchor="middle" x="425.71" y="-23.5" font-family="sans" font-size="10.00">merge_lr_spec_file</text>
</g>
<!-- 2&#45;&gt;1 -->
<g id="edge14" class="edge">
<title>2&#45;&gt;1</title>
<path fill="none" stroke="grey" stroke-width="2" d="M425.71,-79.7C425.71,-71.98 425.71,-62.71 425.71,-54.11"/>
<polygon fill="grey" stroke="grey" stroke-width="2" points="429.21,-54.1 425.71,-44.1 422.21,-54.1 429.21,-54.1"/>
</g>
<!-- 40&#45;&gt;1 -->
<g id="edge13" class="edge">
<title>40&#45;&gt;1</title>
<path fill="none" stroke="grey" stroke-width="2" d="M187.99,-81.2C240.05,-69.33 310.83,-53.19 361.59,-41.62"/>
<polygon fill="grey" stroke="grey" stroke-width="2" points="362.5,-45 371.47,-39.37 360.94,-38.18 362.5,-45"/>
</g>
<!-- 1&#45;&gt;0 -->
<g id="edge1" class="edge">
<title>1&#45;&gt;0</title>
<path fill="none" stroke="grey" stroke-width="2" d="M479.93,-34.3C667.34,-59.52 1284.91,-142.65 1443.39,-163.98"/>
<polygon fill="grey" stroke="grey" stroke-width="2" points="1443.19,-167.48 1453.57,-165.35 1444.13,-160.54 1443.19,-167.48"/>
</g>
<!-- 25 -->
<g id="node43" class="node">
<title>25</title>
<path fill="none" stroke="#56b9d8" stroke-width="2" d="M2013.71,-1052C2013.71,-1052 1913.71,-1052 1913.71,-1052 1907.71,-1052 1901.71,-1046 1901.71,-1040 1901.71,-1040 1901.71,-1028 1901.71,-1028 1901.71,-1022 1907.71,-1016 1913.71,-1016 1913.71,-1016 2013.71,-1016 2013.71,-1016 2019.71,-1016 2025.71,-1022 2025.71,-1028 2025.71,-1028 2025.71,-1040 2025.71,-1040 2025.71,-1046 2019.71,-1052 2013.71,-1052"/>
<text text-anchor="middle" x="1963.71" y="-1031.5" font-family="sans" font-size="10.00">prep_segs_for_greedy</text>
</g>
<!-- 24 -->
<g id="node45" class="node">
<title>24</title>
<path fill="none" stroke="#56d8b1" stroke-width="2" d="M2009.71,-980C2009.71,-980 1917.71,-980 1917.71,-980 1911.71,-980 1905.71,-974 1905.71,-968 1905.71,-968 1905.71,-956 1905.71,-956 1905.71,-950 1911.71,-944 1917.71,-944 1917.71,-944 2009.71,-944 2009.71,-944 2015.71,-944 2021.71,-950 2021.71,-956 2021.71,-956 2021.71,-968 2021.71,-968 2021.71,-974 2015.71,-980 2009.71,-980"/>
<text text-anchor="middle" x="1963.71" y="-959.5" font-family="sans" font-size="10.00">template_shape_reg</text>
</g>
<!-- 25&#45;&gt;24 -->
<g id="edge56" class="edge">
<title>25&#45;&gt;24</title>
<path fill="none" stroke="grey" stroke-width="2" d="M1963.71,-1015.7C1963.71,-1007.98 1963.71,-998.71 1963.71,-990.11"/>
<polygon fill="grey" stroke="grey" stroke-width="2" points="1967.21,-990.1 1963.71,-980.1 1960.21,-990.1 1967.21,-990.1"/>
</g>
<!-- 15 -->
<g id="node44" class="node">
<title>15</title>
<path fill="none" stroke="#a7d856" stroke-width="2" d="M2058.21,-1124C2058.21,-1124 1949.21,-1124 1949.21,-1124 1943.21,-1124 1937.21,-1118 1937.21,-1112 1937.21,-1112 1937.21,-1100 1937.21,-1100 1937.21,-1094 1943.21,-1088 1949.21,-1088 1949.21,-1088 2058.21,-1088 2058.21,-1088 2064.21,-1088 2070.21,-1094 2070.21,-1100 2070.21,-1100 2070.21,-1112 2070.21,-1112 2070.21,-1118 2064.21,-1124 2058.21,-1124"/>
<text text-anchor="middle" x="2003.71" y="-1103.5" font-family="sans" font-size="10.00">import_template_shape</text>
</g>
<!-- 15&#45;&gt;25 -->
<g id="edge57" class="edge">
<title>15&#45;&gt;25</title>
<path fill="none" stroke="grey" stroke-width="2" d="M1993.82,-1087.7C1989.22,-1079.64 1983.65,-1069.89 1978.56,-1060.98"/>
<polygon fill="grey" stroke="grey" stroke-width="2" points="1981.49,-1059.05 1973.49,-1052.1 1975.41,-1062.52 1981.49,-1059.05"/>
</g>
<!-- 14 -->
<g id="node46" class="node">
<title>14</title>
<path fill="none" stroke="#d86e56" stroke-width="2" d="M2151.71,-908C2151.71,-908 2047.71,-908 2047.71,-908 2041.71,-908 2035.71,-902 2035.71,-896 2035.71,-896 2035.71,-884 2035.71,-884 2035.71,-878 2041.71,-872 2047.71,-872 2047.71,-872 2151.71,-872 2151.71,-872 2157.71,-872 2163.71,-878 2163.71,-884 2163.71,-884 2163.71,-896 2163.71,-896 2163.71,-902 2157.71,-908 2151.71,-908"/>
<text text-anchor="middle" x="2099.71" y="-887.5" font-family="sans" font-size="10.00">template_shape_inject</text>
</g>
<!-- 15&#45;&gt;14 -->
<g id="edge44" class="edge">
<title>15&#45;&gt;14</title>
<path fill="none" stroke="grey" stroke-width="2" d="M2014.7,-1087.69C2020.95,-1077.5 2028.7,-1064.25 2034.71,-1052 2057.25,-1006.1 2078.46,-950.33 2090.21,-917.93"/>
<polygon fill="grey" stroke="grey" stroke-width="2" points="2093.59,-918.87 2093.68,-908.28 2087,-916.5 2093.59,-918.87"/>
</g>
<!-- 24&#45;&gt;14 -->
<g id="edge45" class="edge">
<title>24&#45;&gt;14</title>
<path fill="none" stroke="grey" stroke-width="2" d="M1996.98,-943.88C2015.17,-934.51 2037.9,-922.81 2057.35,-912.8"/>
<polygon fill="grey" stroke="grey" stroke-width="2" points="2059.02,-915.88 2066.31,-908.19 2055.82,-909.65 2059.02,-915.88"/>
</g>
<!-- 26 -->
<g id="node47" class="node">
<title>26</title>
<path fill="none" stroke="#b6d856" stroke-width="2" d="M2005.21,-908C2005.21,-908 1886.21,-908 1886.21,-908 1880.21,-908 1874.21,-902 1874.21,-896 1874.21,-896 1874.21,-884 1874.21,-884 1874.21,-878 1880.21,-872 1886.21,-872 1886.21,-872 2005.21,-872 2005.21,-872 2011.21,-872 2017.21,-878 2017.21,-884 2017.21,-884 2017.21,-896 2017.21,-896 2017.21,-902 2011.21,-908 2005.21,-908"/>
<text text-anchor="middle" x="1945.71" y="-887.5" font-family="sans" font-size="10.00">inject_init_laplace_coords</text>
</g>
<!-- 24&#45;&gt;26 -->
<g id="edge59" class="edge">
<title>24&#45;&gt;26</title>
<path fill="none" stroke="grey" stroke-width="2" d="M1959.26,-943.7C1957.26,-935.9 1954.84,-926.51 1952.61,-917.83"/>
<polygon fill="grey" stroke="grey" stroke-width="2" points="1955.99,-916.92 1950.11,-908.1 1949.21,-918.66 1955.99,-916.92"/>
</g>
<!-- 13 -->
<g id="node48" class="node">
<title>13</title>
<path fill="none" stroke="#56d87b" stroke-width="2" d="M2004.21,-836C2004.21,-836 1899.21,-836 1899.21,-836 1893.21,-836 1887.21,-830 1887.21,-824 1887.21,-824 1887.21,-812 1887.21,-812 1887.21,-806 1893.21,-800 1899.21,-800 1899.21,-800 2004.21,-800 2004.21,-800 2010.21,-800 2016.21,-806 2016.21,-812 2016.21,-812 2016.21,-824 2016.21,-824 2016.21,-830 2010.21,-836 2004.21,-836"/>
<text text-anchor="middle" x="1951.71" y="-815.5" font-family="sans" font-size="10.00">reinsert_subject_labels</text>
</g>
<!-- 14&#45;&gt;13 -->
<g id="edge42" class="edge">
<title>14&#45;&gt;13</title>
<path fill="none" stroke="grey" stroke-width="2" d="M2063.51,-871.88C2043.45,-862.39 2018.34,-850.51 1997,-840.42"/>
<polygon fill="grey" stroke="grey" stroke-width="2" points="1998.34,-837.18 1987.8,-836.07 1995.34,-843.51 1998.34,-837.18"/>
</g>
<!-- 26&#45;&gt;12 -->
<g id="edge41" class="edge">
<title>26&#45;&gt;12</title>
<path fill="none" stroke="grey" stroke-width="2" d="M1874.02,-875.38C1797.83,-859.51 1674.79,-829.89 1574.71,-787 1563.44,-782.17 1551.77,-775.76 1541.39,-769.48"/>
<polygon fill="grey" stroke="grey" stroke-width="2" points="1542.98,-766.35 1532.63,-764.05 1539.28,-772.3 1542.98,-766.35"/>
</g>
<!-- 26&#45;&gt;42 -->
<g id="edge88" class="edge">
<title>26&#45;&gt;42</title>
<path fill="none" stroke="grey" stroke-width="2" d="M1907.28,-871.89C1863.15,-852.08 1788.73,-818.17 1725.71,-787 1714.11,-781.26 1701.64,-774.82 1690.22,-768.8"/>
<polygon fill="grey" stroke="grey" stroke-width="2" points="1691.8,-765.68 1681.33,-764.1 1688.53,-771.87 1691.8,-765.68"/>
</g>
<!-- 13&#45;&gt;12 -->
<g id="edge40" class="edge">
<title>13&#45;&gt;12</title>
<path fill="none" stroke="grey" stroke-width="2" d="M1887.03,-815.4C1794.98,-812.52 1631.09,-804.98 1574.71,-787 1562.31,-783.04 1549.78,-776.42 1538.96,-769.69"/>
<polygon fill="grey" stroke="grey" stroke-width="2" points="1540.61,-766.59 1530.32,-764.07 1536.79,-772.46 1540.61,-766.59"/>
</g>
<!-- 13&#45;&gt;29 -->
<g id="edge63" class="edge">
<title>13&#45;&gt;29</title>
<path fill="none" stroke="grey" stroke-width="2" d="M1907.15,-799.86C1897.36,-795.84 1887.12,-791.43 1877.71,-787 1866.15,-781.55 1853.85,-775.16 1842.66,-769.1"/>
<polygon fill="grey" stroke="grey" stroke-width="2" points="1844.02,-765.85 1833.57,-764.11 1840.66,-771.99 1844.02,-765.85"/>
</g>
<!-- 45 -->
<g id="node49" class="node">
<title>45</title>
<path fill="none" stroke="#567bd8" stroke-width="2" d="M2070.21,-764C2070.21,-764 2003.21,-764 2003.21,-764 1997.21,-764 1991.21,-758 1991.21,-752 1991.21,-752 1991.21,-740 1991.21,-740 1991.21,-734 1997.21,-728 2003.21,-728 2003.21,-728 2070.21,-728 2070.21,-728 2076.21,-728 2082.21,-734 2082.21,-740 2082.21,-740 2082.21,-752 2082.21,-752 2082.21,-758 2076.21,-764 2070.21,-764"/>
<text text-anchor="middle" x="2036.71" y="-743.5" font-family="sans" font-size="10.00">unflip_postproc</text>
</g>
<!-- 13&#45;&gt;45 -->
<g id="edge95" class="edge">
<title>13&#45;&gt;45</title>
<path fill="none" stroke="grey" stroke-width="2" d="M1972.72,-799.7C1983.43,-790.88 1996.6,-780.03 2008.21,-770.47"/>
<polygon fill="grey" stroke="grey" stroke-width="2" points="2010.45,-773.16 2015.94,-764.1 2006,-767.76 2010.45,-773.16"/>
</g>
<!-- 44 -->
<g id="node51" class="node">
<title>44</title>
<path fill="none" stroke="#d8b456" stroke-width="2" d="M1699.71,-476C1699.71,-476 1517.71,-476 1517.71,-476 1511.71,-476 1505.71,-470 1505.71,-464 1505.71,-464 1505.71,-452 1505.71,-452 1505.71,-446 1511.71,-440 1517.71,-440 1517.71,-440 1699.71,-440 1699.71,-440 1705.71,-440 1711.71,-446 1711.71,-452 1711.71,-452 1711.71,-464 1711.71,-464 1711.71,-470 1705.71,-476 1699.71,-476"/>
<text text-anchor="middle" x="1608.71" y="-455.5" font-family="sans" font-size="10.00">combine_tissue_subfield_labels_corobl</text>
</g>
<!-- 13&#45;&gt;44 -->
<g id="edge93" class="edge">
<title>13&#45;&gt;44</title>
<path fill="none" stroke="grey" stroke-width="2" d="M1953.88,-799.98C1957.09,-773.37 1962.71,-720.25 1962.71,-675 1962.71,-675 1962.71,-675 1962.71,-601 1962.71,-593.05 1763.37,-517.07 1663.86,-479.64"/>
<polygon fill="grey" stroke="grey" stroke-width="2" points="1664.86,-476.27 1654.27,-476.03 1662.4,-482.82 1664.86,-476.27"/>
</g>
<!-- 45&#45;&gt;44 -->
<g id="edge92" class="edge">
<title>45&#45;&gt;44</title>
<path fill="none" stroke="grey" stroke-width="2" d="M2038.39,-727.71C2041.62,-683.55 2043.23,-566.26 1976.71,-512 1954.21,-493.65 1744.15,-504.88 1715.71,-499 1695.37,-494.8 1673.76,-487.34 1655.33,-479.99"/>
<polygon fill="grey" stroke="grey" stroke-width="2" points="1656.58,-476.72 1646,-476.17 1653.93,-483.2 1656.58,-476.72"/>
</g>
<!-- 46&#45;&gt;44 -->
<g id="edge94" class="edge">
<title>46&#45;&gt;44</title>
<path fill="none" stroke="grey" stroke-width="2" d="M1606.45,-511.7C1606.78,-503.98 1607.18,-494.71 1607.55,-486.11"/>
<polygon fill="grey" stroke="grey" stroke-width="2" points="1611.05,-486.25 1607.98,-476.1 1604.05,-485.95 1611.05,-486.25"/>
</g>
<!-- 44&#45;&gt;48 -->
<g id="edge102" class="edge">
<title>44&#45;&gt;48</title>
<path fill="none" stroke="grey" stroke-width="2" d="M1605.25,-439.7C1603.71,-431.98 1601.85,-422.71 1600.13,-414.11"/>
<polygon fill="grey" stroke="grey" stroke-width="2" points="1603.53,-413.22 1598.13,-404.1 1596.66,-414.6 1603.53,-413.22"/>
</g>
<!-- 44&#45;&gt;43 -->
<g id="edge89" class="edge">
<title>44&#45;&gt;43</title>
<path fill="none" stroke="grey" stroke-width="2" d="M1693.4,-439.97C1744.33,-429.72 1809.28,-416.66 1861.93,-406.07"/>
<polygon fill="grey" stroke="grey" stroke-width="2" points="1862.83,-409.45 1871.95,-404.05 1861.45,-402.59 1862.83,-409.45"/>
</g>
<!-- 47 -->
<g id="node57" class="node">
<title>47</title>
<path fill="none" stroke="#8fd856" stroke-width="2" d="M1845.71,-476C1845.71,-476 1741.71,-476 1741.71,-476 1735.71,-476 1729.71,-470 1729.71,-464 1729.71,-464 1729.71,-452 1729.71,-452 1729.71,-446 1735.71,-440 1741.71,-440 1741.71,-440 1845.71,-440 1845.71,-440 1851.71,-440 1857.71,-446 1857.71,-452 1857.71,-452 1857.71,-464 1857.71,-464 1857.71,-470 1851.71,-476 1845.71,-476"/>
<text text-anchor="middle" x="1793.71" y="-455.5" font-family="sans" font-size="10.00">create_native_crop_ref</text>
</g>
<!-- 48&#45;&gt;47 -->
<g id="edge101" class="edge">
<title>48&#45;&gt;47</title>
<path fill="none" stroke="grey" stroke-width="2" d="M1643.35,-404.11C1671.2,-413.9 1706.31,-426.25 1735.59,-436.56"/>
<polygon fill="grey" stroke="grey" stroke-width="2" points="1734.69,-439.95 1745.28,-439.97 1737.01,-433.35 1734.69,-439.95"/>
</g>
<!-- 16&#45;&gt;25 -->
<g id="edge58" class="edge">
<title>16&#45;&gt;25</title>
<path fill="none" stroke="grey" stroke-width="2" d="M753.4,-965.33C935.13,-975.49 1659.29,-1015.98 1891.59,-1028.97"/>
<polygon fill="grey" stroke="grey" stroke-width="2" points="1891.44,-1032.46 1901.62,-1029.53 1891.84,-1025.48 1891.44,-1032.46"/>
</g>
<!-- 16&#45;&gt;14 -->
<g id="edge46" class="edge">
<title>16&#45;&gt;14</title>
<path fill="none" stroke="grey" stroke-width="2" d="M753.36,-960.38C945.83,-957.35 1751.04,-942.87 2025.04,-908.04"/>
<polygon fill="grey" stroke="grey" stroke-width="2" points="2025.89,-911.46 2035.35,-906.68 2024.98,-904.52 2025.89,-911.46"/>
</g>
<!-- 16&#45;&gt;26 -->
<g id="edge60" class="edge">
<title>16&#45;&gt;26</title>
<path fill="none" stroke="grey" stroke-width="2" d="M753.48,-958.63C931.01,-948.56 1624.85,-909.2 1864.09,-895.63"/>
<polygon fill="grey" stroke="grey" stroke-width="2" points="1864.33,-899.12 1874.12,-895.06 1863.94,-892.13 1864.33,-899.12"/>
</g>
<!-- 16&#45;&gt;13 -->
<g id="edge43" class="edge">
<title>16&#45;&gt;13</title>
<path fill="none" stroke="grey" stroke-width="2" d="M753.32,-956.23C933.01,-935.66 1643.83,-854.26 1877.11,-827.54"/>
<polygon fill="grey" stroke="grey" stroke-width="2" points="1877.66,-831 1887.2,-826.39 1876.86,-824.05 1877.66,-831"/>
</g>
<!-- 60 -->
<g id="node54" class="node">
<title>60</title>
<path fill="none" stroke="#56c1d8" stroke-width="2" d="M721.71,-908C721.71,-908 645.71,-908 645.71,-908 639.71,-908 633.71,-902 633.71,-896 633.71,-896 633.71,-884 633.71,-884 633.71,-878 639.71,-872 645.71,-872 645.71,-872 721.71,-872 721.71,-872 727.71,-872 733.71,-878 733.71,-884 733.71,-884 733.71,-896 733.71,-896 733.71,-902 727.71,-908 721.71,-908"/>
<text text-anchor="middle" x="683.71" y="-887.5" font-family="sans" font-size="10.00">unflip_nnunet_nii</text>
</g>
<!-- 16&#45;&gt;60 -->
<g id="edge133" class="edge">
<title>16&#45;&gt;60</title>
<path fill="none" stroke="grey" stroke-width="2" d="M704.79,-943.7C701.64,-935.81 697.83,-926.3 694.33,-917.55"/>
<polygon fill="grey" stroke="grey" stroke-width="2" points="697.52,-916.09 690.55,-908.1 691.02,-918.69 697.52,-916.09"/>
</g>
<!-- 16&#45;&gt;59 -->
<g id="edge132" class="edge">
<title>16&#45;&gt;59</title>
<path fill="none" stroke="grey" stroke-width="2" d="M725.35,-943.92C738.11,-925.75 753.67,-896.31 742.71,-872 737.53,-860.52 728.5,-850.52 719,-842.4"/>
<polygon fill="grey" stroke="grey" stroke-width="2" points="720.98,-839.51 710.97,-836.03 716.63,-844.99 720.98,-839.51"/>
</g>
<!-- 60&#45;&gt;59 -->
<g id="edge130" class="edge">
<title>60&#45;&gt;59</title>
<path fill="none" stroke="grey" stroke-width="2" d="M683.46,-871.7C683.35,-863.98 683.22,-854.71 683.1,-846.11"/>
<polygon fill="grey" stroke="grey" stroke-width="2" points="686.6,-846.05 682.96,-836.1 679.6,-846.15 686.6,-846.05"/>
</g>
<!-- 58 -->
<g id="node56" class="node">
<title>58</title>
<path fill="none" stroke="#56b1d8" stroke-width="2" d="M715.71,-764C715.71,-764 647.71,-764 647.71,-764 641.71,-764 635.71,-758 635.71,-752 635.71,-752 635.71,-740 635.71,-740 635.71,-734 641.71,-728 647.71,-728 647.71,-728 715.71,-728 715.71,-728 721.71,-728 727.71,-734 727.71,-740 727.71,-740 727.71,-752 727.71,-752 727.71,-758 721.71,-764 715.71,-764"/>
<text text-anchor="middle" x="681.71" y="-743.5" font-family="sans" font-size="10.00">qc_nnunet_dice</text>
</g>
<!-- 59&#45;&gt;58 -->
<g id="edge129" class="edge">
<title>59&#45;&gt;58</title>
<path fill="none" stroke="grey" stroke-width="2" d="M682.46,-799.7C682.35,-791.98 682.22,-782.71 682.1,-774.11"/>
<polygon fill="grey" stroke="grey" stroke-width="2" points="685.6,-774.05 681.96,-764.1 678.6,-774.15 685.6,-774.05"/>
</g>
<!-- 58&#45;&gt;0 -->
<g id="edge8" class="edge">
<title>58&#45;&gt;0</title>
<path fill="none" stroke="grey" stroke-width="2" d="M635.53,-744.42C490.27,-742.38 50.86,-734.61 27.71,-715 -11.13,-682.1 3.71,-653.91 3.71,-603 3.71,-603 3.71,-603 3.71,-313 3.71,-272.03 -4.35,-249.5 27.71,-224 42,-212.63 1218.15,-178.5 1443.58,-172.06"/>
<polygon fill="grey" stroke="grey" stroke-width="2" points="1443.7,-175.55 1453.59,-171.77 1443.5,-168.56 1443.7,-175.55"/>
</g>
<!-- 47&#45;&gt;51 -->
<g id="edge119" class="edge">
<title>47&#45;&gt;51</title>
<path fill="none" stroke="grey" stroke-width="2" d="M1768.49,-476.2C1751.84,-487.05 1729.05,-499.8 1706.71,-505.5 1683.08,-511.53 1291.69,-509.97 1267.71,-505.5 1241.13,-500.55 1212.89,-490.05 1190.18,-480.18"/>
<polygon fill="grey" stroke="grey" stroke-width="2" points="1191.37,-476.88 1180.81,-476.01 1188.52,-483.27 1191.37,-476.88"/>
</g>
<!-- 47&#45;&gt;43 -->
<g id="edge90" class="edge">
<title>47&#45;&gt;43</title>
<path fill="none" stroke="grey" stroke-width="2" d="M1833.59,-439.88C1855.87,-430.31 1883.83,-418.3 1907.47,-408.15"/>
<polygon fill="grey" stroke="grey" stroke-width="2" points="1909.16,-411.23 1916.97,-404.07 1906.4,-404.8 1909.16,-411.23"/>
</g>
<!-- 47&#45;&gt;49 -->
<g id="edge110" class="edge">
<title>47&#45;&gt;49</title>
<path fill="none" stroke="grey" stroke-width="2" d="M1857.96,-442.88C1862.61,-441.9 1867.23,-440.93 1871.71,-440 1931.58,-427.62 1999.06,-414.42 2051.7,-404.29"/>
<polygon fill="grey" stroke="grey" stroke-width="2" points="2052.53,-407.7 2061.69,-402.38 2051.21,-400.83 2052.53,-407.7"/>
</g>
<!-- 47&#45;&gt;52 -->
<g id="edge121" class="edge">
<title>47&#45;&gt;52</title>
<path fill="none" stroke="grey" stroke-width="2" d="M1790.75,-439.7C1789.42,-431.98 1787.83,-422.71 1786.36,-414.11"/>
<polygon fill="grey" stroke="grey" stroke-width="2" points="1789.78,-413.37 1784.64,-404.1 1782.88,-414.55 1789.78,-413.37"/>
</g>
<!-- 43&#45;&gt;57 -->
<g id="edge128" class="edge">
<title>43&#45;&gt;57</title>
<path fill="none" stroke="grey" stroke-width="2" d="M1870.16,-369.33C1866.97,-368.86 1863.82,-368.42 1860.71,-368 1797.46,-359.54 1778.75,-373.61 1717.71,-355 1704.27,-350.9 1690.51,-344.15 1678.61,-337.35"/>
<polygon fill="grey" stroke="grey" stroke-width="2" points="1680.3,-334.28 1669.91,-332.18 1676.72,-340.29 1680.3,-334.28"/>
</g>
<!-- 43&#45;&gt;54 -->
<g id="edge124" class="edge">
<title>43&#45;&gt;54</title>
<path fill="none" stroke="grey" stroke-width="2" d="M1869.88,-369.56C1840.32,-363.93 1813.07,-358.17 1806.71,-355 1798.64,-350.98 1790.9,-345.13 1784.18,-339.14"/>
<polygon fill="grey" stroke="grey" stroke-width="2" points="1786.47,-336.48 1776.81,-332.14 1781.65,-341.56 1786.47,-336.48"/>
</g>
<!-- 43&#45;&gt;0 -->
<g id="edge11" class="edge">
<title>43&#45;&gt;0</title>
<path fill="none" stroke="grey" stroke-width="2" d="M1960.1,-367.96C1965.56,-334.94 1972.08,-262.16 1932.71,-224 1903.09,-195.29 1620.94,-178.15 1518.03,-172.81"/>
<polygon fill="grey" stroke="grey" stroke-width="2" points="1517.97,-169.3 1507.8,-172.29 1517.61,-176.29 1517.97,-169.3"/>
</g>
<!-- 49&#45;&gt;0 -->
<g id="edge5" class="edge">
<title>49&#45;&gt;0</title>
<path fill="none" stroke="grey" stroke-width="2" d="M2129.27,-367.88C2101.35,-333.7 2033.21,-257.45 1956.71,-224 1877.87,-189.53 1615.41,-176.15 1517.74,-172.29"/>
<polygon fill="grey" stroke="grey" stroke-width="2" points="1517.87,-168.8 1507.74,-171.91 1517.6,-175.79 1517.87,-168.8"/>
</g>
<!-- 52&#45;&gt;54 -->
<g id="edge125" class="edge">
<title>52&#45;&gt;54</title>
<path fill="none" stroke="grey" stroke-width="2" d="M1776.77,-367.7C1774.54,-359.9 1771.86,-350.51 1769.38,-341.83"/>
<polygon fill="grey" stroke="grey" stroke-width="2" points="1772.71,-340.76 1766.6,-332.1 1765.98,-342.68 1772.71,-340.76"/>
</g>
<!-- 52&#45;&gt;0 -->
<g id="edge12" class="edge">
<title>52&#45;&gt;0</title>
<path fill="none" stroke="grey" stroke-width="2" d="M1711.66,-368.58C1710.33,-368.38 1709.02,-368.18 1707.71,-368 1680.83,-364.22 1482.39,-374.7 1463.71,-355 1423.44,-312.52 1449.21,-237.13 1467.34,-197.32"/>
<polygon fill="grey" stroke="grey" stroke-width="2" points="1470.52,-198.77 1471.62,-188.23 1464.19,-195.78 1470.52,-198.77"/>
</g>
</g>
</svg>
