<?xml version="1.0" encoding="UTF-8" standalone="no"?>
<!DOCTYPE svg PUBLIC "-//W3C//DTD SVG 1.1//EN"
 "http://www.w3.org/Graphics/SVG/1.1/DTD/svg11.dtd">
<!-- Generated by graphviz version 2.43.0 (0)
 -->
<!-- Title: snakemake_dag Pages: 1 -->
<svg width="2486pt" height="1451pt"
 viewBox="0.00 0.00 2486.00 1451.00" xmlns="http://www.w3.org/2000/svg" xmlns:xlink="http://www.w3.org/1999/xlink">
<g id="graph0" class="graph" transform="scale(1 1) rotate(0) translate(4 1447)">
<title>snakemake_dag</title>
<polygon fill="white" stroke="transparent" points="-4,4 -4,-1447 2482,-1447 2482,4 -4,4"/>
<g id="clust1" class="cluster">
<title>cluster_0</title>
<polygon fill="white" stroke="blue" points="351,-1016 351,-1363 558,-1363 558,-1016 351,-1016"/>
<text text-anchor="middle" x="454.5" y="-1347.8" font-family="Times,serif" font-size="14.00">preproc_t1</text>
</g>
<g id="clust2" class="cluster">
<title>cluster_1</title>
<polygon fill="white" stroke="blue" points="2002,-440 2002,-715 2412,-715 2412,-440 2002,-440"/>
<text text-anchor="middle" x="2207" y="-699.8" font-family="Times,serif" font-size="14.00">warps</text>
</g>
<g id="clust3" class="cluster">
<title>cluster_2</title>
<polygon fill="white" stroke="blue" points="946,-224 946,-355 1407,-355 1407,-224 946,-224"/>
<text text-anchor="middle" x="1176.5" y="-339.8" font-family="Times,serif" font-size="14.00">qc</text>
</g>
<g id="clust4" class="cluster">
<title>cluster_3</title>
<polygon fill="white" stroke="blue" points="1460,-584 1460,-787 1884,-787 1884,-584 1460,-584"/>
<text text-anchor="middle" x="1672" y="-771.8" font-family="Times,serif" font-size="14.00">autotop</text>
</g>
<g id="clust5" class="cluster">
<title>cluster_4</title>
<polygon fill="white" stroke="blue" points="648,-944 648,-1435 804,-1435 804,-944 648,-944"/>
<text text-anchor="middle" x="726" y="-1419.8" font-family="Times,serif" font-size="14.00">preproc_t2</text>
</g>
<g id="clust6" class="cluster">
<title>cluster_5</title>
<polygon fill="white" stroke="blue" points="28,-8 28,-715 788,-715 788,-8 28,-8"/>
<text text-anchor="middle" x="408" y="-699.8" font-family="Times,serif" font-size="14.00">gifti</text>
</g>
<g id="clust7" class="cluster">
<title>cluster_6</title>
<polygon fill="white" stroke="blue" points="1132,-728 1132,-1147 1422,-1147 1422,-728 1132,-728"/>
<text text-anchor="middle" x="1277" y="-1131.8" font-family="Times,serif" font-size="14.00">shape_inject</text>
</g>
<g id="clust8" class="cluster">
<title>cluster_7</title>
<polygon fill="white" stroke="blue" points="1054,-368 1054,-571 1266,-571 1266,-368 1054,-368"/>
<text text-anchor="middle" x="1160" y="-555.8" font-family="Times,serif" font-size="14.00">subfields</text>
</g>
<g id="clust9" class="cluster">
<title>cluster_8</title>
<polygon fill="white" stroke="blue" points="804,-728 804,-1003 924,-1003 924,-728 804,-728"/>
<text text-anchor="middle" x="864" y="-987.8" font-family="Times,serif" font-size="14.00">nnunet</text>
</g>
<g id="clust10" class="cluster">
<title>cluster_9</title>
<polygon fill="white" stroke="blue" points="1266,-368 1266,-499 1778,-499 1778,-368 1266,-368"/>
<text text-anchor="middle" x="1522" y="-483.8" font-family="Times,serif" font-size="14.00">resample_final_to_crop_native</text>
</g>
<!-- 23 -->
<g id="node1" class="node">
<title>23</title>
<path fill="none" stroke="#d88d56" stroke-width="2" d="M546,-1340C546,-1340 506,-1340 506,-1340 500,-1340 494,-1334 494,-1328 494,-1328 494,-1316 494,-1316 494,-1310 500,-1304 506,-1304 506,-1304 546,-1304 546,-1304 552,-1304 558,-1310 558,-1316 558,-1316 558,-1328 558,-1328 558,-1334 552,-1340 546,-1340"/>
<text text-anchor="middle" x="526" y="-1319.5" font-family="sans" font-size="10.00">import_t1</text>
</g>
<!-- 22 -->
<g id="node2" class="node">
<title>22</title>
<path fill="none" stroke="#97d856" stroke-width="2" d="M541,-1268C541,-1268 511,-1268 511,-1268 505,-1268 499,-1262 499,-1256 499,-1256 499,-1244 499,-1244 499,-1238 505,-1232 511,-1232 511,-1232 541,-1232 541,-1232 547,-1232 553,-1238 553,-1244 553,-1244 553,-1256 553,-1256 553,-1262 547,-1268 541,-1268"/>
<text text-anchor="middle" x="526" y="-1247.5" font-family="sans" font-size="10.00">n4_t1</text>
</g>
<!-- 23&#45;&gt;22 -->
<g id="edge55" class="edge">
<title>23&#45;&gt;22</title>
<path fill="none" stroke="grey" stroke-width="2" d="M526,-1303.7C526,-1295.98 526,-1286.71 526,-1278.11"/>
<polygon fill="grey" stroke="grey" stroke-width="2" points="529.5,-1278.1 526,-1268.1 522.5,-1278.1 529.5,-1278.1"/>
</g>
<!-- 26 -->
<g id="node3" class="node">
<title>26</title>
<path fill="none" stroke="#56d863" stroke-width="2" d="M541.5,-1196C541.5,-1196 468.5,-1196 468.5,-1196 462.5,-1196 456.5,-1190 456.5,-1184 456.5,-1184 456.5,-1172 456.5,-1172 456.5,-1166 462.5,-1160 468.5,-1160 468.5,-1160 541.5,-1160 541.5,-1160 547.5,-1160 553.5,-1166 553.5,-1172 553.5,-1172 553.5,-1184 553.5,-1184 553.5,-1190 547.5,-1196 541.5,-1196"/>
<text text-anchor="middle" x="505" y="-1175.5" font-family="sans" font-size="10.00">reg_to_template</text>
</g>
<!-- 22&#45;&gt;26 -->
<g id="edge58" class="edge">
<title>22&#45;&gt;26</title>
<path fill="none" stroke="grey" stroke-width="2" d="M520.81,-1231.7C518.47,-1223.9 515.65,-1214.51 513.05,-1205.83"/>
<polygon fill="grey" stroke="grey" stroke-width="2" points="516.36,-1204.68 510.13,-1196.1 509.65,-1206.69 516.36,-1204.68"/>
</g>
<!-- 21 -->
<g id="node28" class="node">
<title>21</title>
<path fill="none" stroke="#78d856" stroke-width="2" d="M735.5,-1196C735.5,-1196 682.5,-1196 682.5,-1196 676.5,-1196 670.5,-1190 670.5,-1184 670.5,-1184 670.5,-1172 670.5,-1172 670.5,-1166 676.5,-1160 682.5,-1160 682.5,-1160 735.5,-1160 735.5,-1160 741.5,-1160 747.5,-1166 747.5,-1172 747.5,-1172 747.5,-1184 747.5,-1184 747.5,-1190 741.5,-1196 735.5,-1196"/>
<text text-anchor="middle" x="709" y="-1175.5" font-family="sans" font-size="10.00">reg_t2_to_t1</text>
</g>
<!-- 22&#45;&gt;21 -->
<g id="edge54" class="edge">
<title>22&#45;&gt;21</title>
<path fill="none" stroke="grey" stroke-width="2" d="M553,-1238.67C581.36,-1227.83 626.52,-1210.55 660.98,-1197.37"/>
<polygon fill="grey" stroke="grey" stroke-width="2" points="662.3,-1200.61 670.39,-1193.77 659.8,-1194.07 662.3,-1200.61"/>
</g>
<!-- 25 -->
<g id="node4" class="node">
<title>25</title>
<path fill="none" stroke="#61d856" stroke-width="2" d="M542.5,-1124C542.5,-1124 399.5,-1124 399.5,-1124 393.5,-1124 387.5,-1118 387.5,-1112 387.5,-1112 387.5,-1100 387.5,-1100 387.5,-1094 393.5,-1088 399.5,-1088 399.5,-1088 542.5,-1088 542.5,-1088 548.5,-1088 554.5,-1094 554.5,-1100 554.5,-1100 554.5,-1112 554.5,-1112 554.5,-1118 548.5,-1124 542.5,-1124"/>
<text text-anchor="middle" x="471" y="-1103.5" font-family="sans" font-size="10.00">convert_template_xfm_ras2itk</text>
</g>
<!-- 26&#45;&gt;25 -->
<g id="edge57" class="edge">
<title>26&#45;&gt;25</title>
<path fill="none" stroke="grey" stroke-width="2" d="M496.6,-1159.7C492.73,-1151.73 488.05,-1142.1 483.76,-1133.26"/>
<polygon fill="grey" stroke="grey" stroke-width="2" points="486.83,-1131.57 479.31,-1124.1 480.53,-1134.63 486.83,-1131.57"/>
</g>
<!-- 58 -->
<g id="node14" class="node">
<title>58</title>
<path fill="none" stroke="#d87d56" stroke-width="2" d="M1160.5,-332C1160.5,-332 1071.5,-332 1071.5,-332 1065.5,-332 1059.5,-326 1059.5,-320 1059.5,-320 1059.5,-308 1059.5,-308 1059.5,-302 1065.5,-296 1071.5,-296 1071.5,-296 1160.5,-296 1160.5,-296 1166.5,-296 1172.5,-302 1172.5,-308 1172.5,-308 1172.5,-320 1172.5,-320 1172.5,-326 1166.5,-332 1160.5,-332"/>
<text text-anchor="middle" x="1116" y="-311.5" font-family="sans" font-size="10.00">qc_reg_to_template</text>
</g>
<!-- 26&#45;&gt;58 -->
<g id="edge129" class="edge">
<title>26&#45;&gt;58</title>
<path fill="none" stroke="grey" stroke-width="2" d="M547.94,-1159.96C553.85,-1156.31 559.44,-1152.02 564,-1147 629.24,-1075.25 603.05,-1031.91 644,-944 690.1,-845.03 684.5,-805.89 761,-728 769.23,-719.62 777.46,-724.75 784,-715 811.92,-673.33 798,-653.17 798,-603 798,-603 798,-603 798,-529 798,-422.33 880.11,-414.73 976,-368 1006.41,-353.18 1019.36,-366.97 1051,-355 1062.5,-350.65 1074.21,-344.2 1084.46,-337.74"/>
<polygon fill="grey" stroke="grey" stroke-width="2" points="1086.6,-340.52 1093.05,-332.11 1082.77,-334.66 1086.6,-340.52"/>
</g>
<!-- 24 -->
<g id="node5" class="node">
<title>24</title>
<path fill="none" stroke="#5673d8" stroke-width="2" d="M545,-1052C545,-1052 399,-1052 399,-1052 393,-1052 387,-1046 387,-1040 387,-1040 387,-1028 387,-1028 387,-1022 393,-1016 399,-1016 399,-1016 545,-1016 545,-1016 551,-1016 557,-1022 557,-1028 557,-1028 557,-1040 557,-1040 557,-1046 551,-1052 545,-1052"/>
<text text-anchor="middle" x="472" y="-1031.5" font-family="sans" font-size="10.00">compose_template_xfm_corobl</text>
</g>
<!-- 25&#45;&gt;24 -->
<g id="edge56" class="edge">
<title>25&#45;&gt;24</title>
<path fill="none" stroke="grey" stroke-width="2" d="M471.25,-1087.7C471.36,-1079.98 471.49,-1070.71 471.61,-1062.11"/>
<polygon fill="grey" stroke="grey" stroke-width="2" points="475.11,-1062.15 471.76,-1052.1 468.11,-1062.05 475.11,-1062.15"/>
</g>
<!-- 20 -->
<g id="node29" class="node">
<title>20</title>
<path fill="none" stroke="#56d85b" stroke-width="2" d="M792,-1124C792,-1124 680,-1124 680,-1124 674,-1124 668,-1118 668,-1112 668,-1112 668,-1100 668,-1100 668,-1094 674,-1088 680,-1088 680,-1088 792,-1088 792,-1088 798,-1088 804,-1094 804,-1100 804,-1100 804,-1112 804,-1112 804,-1118 798,-1124 792,-1124"/>
<text text-anchor="middle" x="736" y="-1103.5" font-family="sans" font-size="10.00">compose_t2_xfm_corobl</text>
</g>
<!-- 24&#45;&gt;20 -->
<g id="edge52" class="edge">
<title>24&#45;&gt;20</title>
<path fill="none" stroke="grey" stroke-width="2" d="M536.53,-1052.11C574.43,-1062.16 622.48,-1074.9 661.93,-1085.36"/>
<polygon fill="grey" stroke="grey" stroke-width="2" points="661.19,-1088.79 671.76,-1087.97 662.99,-1082.02 661.19,-1088.79"/>
</g>
<!-- 38 -->
<g id="node6" class="node">
<title>38</title>
<path fill="none" stroke="#56d0d8" stroke-width="2" d="M463.5,-1340C463.5,-1340 362.5,-1340 362.5,-1340 356.5,-1340 350.5,-1334 350.5,-1328 350.5,-1328 350.5,-1316 350.5,-1316 350.5,-1310 356.5,-1304 362.5,-1304 362.5,-1304 463.5,-1304 463.5,-1304 469.5,-1304 475.5,-1310 475.5,-1316 475.5,-1316 475.5,-1328 475.5,-1328 475.5,-1334 469.5,-1340 463.5,-1340"/>
<text text-anchor="middle" x="413" y="-1319.5" font-family="sans" font-size="10.00">template_xfm_itk2ras</text>
</g>
<!-- 5 -->
<g id="node36" class="node">
<title>5</title>
<path fill="none" stroke="#d85e56" stroke-width="2" d="M435.5,-404C435.5,-404 350.5,-404 350.5,-404 344.5,-404 338.5,-398 338.5,-392 338.5,-392 338.5,-380 338.5,-380 338.5,-374 344.5,-368 350.5,-368 350.5,-368 435.5,-368 435.5,-368 441.5,-368 447.5,-374 447.5,-380 447.5,-380 447.5,-392 447.5,-392 447.5,-398 441.5,-404 435.5,-404"/>
<text text-anchor="middle" x="393" y="-383.5" font-family="sans" font-size="10.00">warp_gii_to_native</text>
</g>
<!-- 38&#45;&gt;5 -->
<g id="edge24" class="edge">
<title>38&#45;&gt;5</title>
<path fill="none" stroke="grey" stroke-width="2" d="M350.27,-1312.73C234.74,-1295.72 0,-1252.17 0,-1179 0,-1179 0,-1179 0,-529 0,-460.06 216.63,-415.21 328.22,-396.69"/>
<polygon fill="grey" stroke="grey" stroke-width="2" points="329.05,-400.1 338.36,-395.03 327.92,-393.19 329.05,-400.1"/>
</g>
<!-- 35 -->
<g id="node7" class="node">
<title>35</title>
<path fill="none" stroke="#56c1d8" stroke-width="2" d="M2360,-620C2360,-620 2250,-620 2250,-620 2244,-620 2238,-614 2238,-608 2238,-608 2238,-596 2238,-596 2238,-590 2244,-584 2250,-584 2250,-584 2360,-584 2360,-584 2366,-584 2372,-590 2372,-596 2372,-596 2372,-608 2372,-608 2372,-614 2366,-620 2360,-620"/>
<text text-anchor="middle" x="2305" y="-599.5" font-family="sans" font-size="10.00">create_native_coord_ref</text>
</g>
<!-- 8 -->
<g id="node10" class="node">
<title>8</title>
<path fill="none" stroke="#56d87b" stroke-width="2" d="M2152,-548C2152,-548 2068,-548 2068,-548 2062,-548 2056,-542 2056,-536 2056,-536 2056,-524 2056,-524 2056,-518 2062,-512 2068,-512 2068,-512 2152,-512 2152,-512 2158,-512 2164,-518 2164,-524 2164,-524 2164,-536 2164,-536 2164,-542 2158,-548 2152,-548"/>
<text text-anchor="middle" x="2110" y="-527.5" font-family="sans" font-size="10.00">create_warps_hipp</text>
</g>
<!-- 35&#45;&gt;8 -->
<g id="edge31" class="edge">
<title>35&#45;&gt;8</title>
<path fill="none" stroke="grey" stroke-width="2" d="M2243.48,-583.94C2230.36,-579.97 2216.65,-575.55 2204,-571 2188.53,-565.43 2171.94,-558.65 2157.07,-552.27"/>
<polygon fill="grey" stroke="grey" stroke-width="2" points="2158.14,-548.92 2147.57,-548.15 2155.35,-555.34 2158.14,-548.92"/>
</g>
<!-- 46 -->
<g id="node11" class="node">
<title>46</title>
<path fill="none" stroke="#ced856" stroke-width="2" d="M2325.5,-548C2325.5,-548 2224.5,-548 2224.5,-548 2218.5,-548 2212.5,-542 2212.5,-536 2212.5,-536 2212.5,-524 2212.5,-524 2212.5,-518 2218.5,-512 2224.5,-512 2224.5,-512 2325.5,-512 2325.5,-512 2331.5,-512 2337.5,-518 2337.5,-524 2337.5,-524 2337.5,-536 2337.5,-536 2337.5,-542 2331.5,-548 2325.5,-548"/>
<text text-anchor="middle" x="2275" y="-527.5" font-family="sans" font-size="10.00">create_warps_dentate</text>
</g>
<!-- 35&#45;&gt;46 -->
<g id="edge89" class="edge">
<title>35&#45;&gt;46</title>
<path fill="none" stroke="grey" stroke-width="2" d="M2297.58,-583.7C2294.21,-575.81 2290.13,-566.3 2286.38,-557.55"/>
<polygon fill="grey" stroke="grey" stroke-width="2" points="2289.49,-555.92 2282.33,-548.1 2283.05,-558.67 2289.49,-555.92"/>
</g>
<!-- 9 -->
<g id="node8" class="node">
<title>9</title>
<path fill="none" stroke="#d8d356" stroke-width="2" d="M2142,-692C2142,-692 2064,-692 2064,-692 2058,-692 2052,-686 2052,-680 2052,-680 2052,-668 2052,-668 2052,-662 2058,-656 2064,-656 2064,-656 2142,-656 2142,-656 2148,-656 2154,-662 2154,-668 2154,-668 2154,-680 2154,-680 2154,-686 2148,-692 2142,-692"/>
<text text-anchor="middle" x="2103" y="-671.5" font-family="sans" font-size="10.00">create_unfold_ref</text>
</g>
<!-- 10 -->
<g id="node9" class="node">
<title>10</title>
<path fill="none" stroke="#56b9d8" stroke-width="2" d="M2207.5,-620C2207.5,-620 2088.5,-620 2088.5,-620 2082.5,-620 2076.5,-614 2076.5,-608 2076.5,-608 2076.5,-596 2076.5,-596 2076.5,-590 2082.5,-584 2088.5,-584 2088.5,-584 2207.5,-584 2207.5,-584 2213.5,-584 2219.5,-590 2219.5,-596 2219.5,-596 2219.5,-608 2219.5,-608 2219.5,-614 2213.5,-620 2207.5,-620"/>
<text text-anchor="middle" x="2148" y="-599.5" font-family="sans" font-size="10.00">create_unfold_coord_map</text>
</g>
<!-- 9&#45;&gt;10 -->
<g id="edge37" class="edge">
<title>9&#45;&gt;10</title>
<path fill="none" stroke="grey" stroke-width="2" d="M2114.12,-655.7C2119.36,-647.56 2125.7,-637.69 2131.48,-628.7"/>
<polygon fill="grey" stroke="grey" stroke-width="2" points="2134.54,-630.41 2137,-620.1 2128.65,-626.62 2134.54,-630.41"/>
</g>
<!-- 9&#45;&gt;8 -->
<g id="edge36" class="edge">
<title>9&#45;&gt;8</title>
<path fill="none" stroke="grey" stroke-width="2" d="M2087.82,-655.7C2080.27,-645.94 2071.93,-633.1 2068,-620 2063.4,-604.68 2062.74,-599.11 2068,-584 2071.53,-573.86 2077.91,-564.19 2084.64,-555.96"/>
<polygon fill="grey" stroke="grey" stroke-width="2" points="2087.44,-558.07 2091.4,-548.24 2082.17,-553.46 2087.44,-558.07"/>
</g>
<!-- 9&#45;&gt;46 -->
<g id="edge92" class="edge">
<title>9&#45;&gt;46</title>
<path fill="none" stroke="grey" stroke-width="2" d="M2154.2,-670.79C2226.47,-666.47 2352.77,-654.12 2381,-620 2391.2,-607.67 2389.41,-597.61 2381,-584 2372.66,-570.5 2359.73,-560.33 2345.72,-552.7"/>
<polygon fill="grey" stroke="grey" stroke-width="2" points="2346.92,-549.38 2336.41,-548.05 2343.79,-555.65 2346.92,-549.38"/>
</g>
<!-- 55 -->
<g id="node12" class="node">
<title>55</title>
<path fill="none" stroke="#afd856" stroke-width="2" d="M2400,-476C2400,-476 2242,-476 2242,-476 2236,-476 2230,-470 2230,-464 2230,-464 2230,-452 2230,-452 2230,-446 2236,-440 2242,-440 2242,-440 2400,-440 2400,-440 2406,-440 2412,-446 2412,-452 2412,-452 2412,-464 2412,-464 2412,-470 2406,-476 2400,-476"/>
<text text-anchor="middle" x="2321" y="-455.5" font-family="sans" font-size="10.00">compose_warps_native_to_unfold</text>
</g>
<!-- 9&#45;&gt;55 -->
<g id="edge121" class="edge">
<title>9&#45;&gt;55</title>
<path fill="none" stroke="grey" stroke-width="2" d="M2154.12,-671.1C2228.18,-667.15 2359.7,-655.23 2389,-620 2423.31,-578.75 2377.78,-517.67 2346.34,-483.84"/>
<polygon fill="grey" stroke="grey" stroke-width="2" points="2348.53,-481.07 2339.09,-476.25 2343.47,-485.9 2348.53,-481.07"/>
</g>
<!-- 56 -->
<g id="node13" class="node">
<title>56</title>
<path fill="none" stroke="#56a2d8" stroke-width="2" d="M2199.5,-476C2199.5,-476 2014.5,-476 2014.5,-476 2008.5,-476 2002.5,-470 2002.5,-464 2002.5,-464 2002.5,-452 2002.5,-452 2002.5,-446 2008.5,-440 2014.5,-440 2014.5,-440 2199.5,-440 2199.5,-440 2205.5,-440 2211.5,-446 2211.5,-452 2211.5,-452 2211.5,-464 2211.5,-464 2211.5,-470 2205.5,-476 2199.5,-476"/>
<text text-anchor="middle" x="2107" y="-455.5" font-family="sans" font-size="10.00">compose_warps_unfold_to_crop_native</text>
</g>
<!-- 9&#45;&gt;56 -->
<g id="edge125" class="edge">
<title>9&#45;&gt;56</title>
<path fill="none" stroke="grey" stroke-width="2" d="M2085.8,-655.7C2076.96,-645.94 2066.66,-633.1 2060,-620 2038.08,-576.91 2027.13,-556.07 2047,-512 2052.18,-500.52 2061.21,-490.52 2070.72,-482.4"/>
<polygon fill="grey" stroke="grey" stroke-width="2" points="2073.09,-484.99 2078.74,-476.03 2068.73,-479.51 2073.09,-484.99"/>
</g>
<!-- 36 -->
<g id="node33" class="node">
<title>36</title>
<path fill="none" stroke="#d6d856" stroke-width="2" d="M758,-620C758,-620 652,-620 652,-620 646,-620 640,-614 640,-608 640,-608 640,-596 640,-596 640,-590 646,-584 652,-584 652,-584 758,-584 758,-584 764,-584 770,-590 770,-596 770,-596 770,-608 770,-608 770,-614 764,-620 758,-620"/>
<text text-anchor="middle" x="705" y="-599.5" font-family="sans" font-size="10.00">constrain_surf_to_bbox</text>
</g>
<!-- 9&#45;&gt;36 -->
<g id="edge73" class="edge">
<title>9&#45;&gt;36</title>
<path fill="none" stroke="grey" stroke-width="2" d="M2051.77,-668.46C2008.24,-664.71 1944.06,-659.47 1888,-656 1469.66,-630.1 967.35,-611.84 780.13,-605.48"/>
<polygon fill="grey" stroke="grey" stroke-width="2" points="780.24,-601.98 770.12,-605.14 780,-608.97 780.24,-601.98"/>
</g>
<!-- 43 -->
<g id="node42" class="node">
<title>43</title>
<path fill="none" stroke="#56d8c1" stroke-width="2" d="M776,-260C776,-260 660,-260 660,-260 654,-260 648,-254 648,-248 648,-248 648,-236 648,-236 648,-230 654,-224 660,-224 660,-224 776,-224 776,-224 782,-224 788,-230 788,-236 788,-236 788,-248 788,-248 788,-254 782,-260 776,-260"/>
<text text-anchor="middle" x="718" y="-239.5" font-family="sans" font-size="10.00">resample_atlas_to_refvol</text>
</g>
<!-- 9&#45;&gt;43 -->
<g id="edge80" class="edge">
<title>9&#45;&gt;43</title>
<path fill="none" stroke="grey" stroke-width="2" d="M2072.14,-655.84C2031.42,-634.24 1956.84,-598.24 1888,-584 1842.4,-574.57 1092.93,-589.02 1050,-571 896.59,-506.6 775.68,-334.48 733.83,-268.88"/>
<polygon fill="grey" stroke="grey" stroke-width="2" points="736.75,-266.95 728.46,-260.36 730.83,-270.68 736.75,-266.95"/>
</g>
<!-- 0 -->
<g id="node66" class="node">
<title>0</title>
<path fill="none" stroke="#80d856" stroke-width="2" d="M1469,-188C1469,-188 1439,-188 1439,-188 1433,-188 1427,-182 1427,-176 1427,-176 1427,-164 1427,-164 1427,-158 1433,-152 1439,-152 1439,-152 1469,-152 1469,-152 1475,-152 1481,-158 1481,-164 1481,-164 1481,-176 1481,-176 1481,-182 1475,-188 1469,-188"/>
<text text-anchor="middle" x="1454" y="-167.5" font-family="sans" font-size="10.00">all</text>
</g>
<!-- 9&#45;&gt;0 -->
<g id="edge11" class="edge">
<title>9&#45;&gt;0</title>
<path fill="none" stroke="grey" stroke-width="2" d="M2154.21,-667.99C2227.71,-660.1 2358.78,-643.27 2400,-620 2445.8,-594.15 2478,-583.6 2478,-531 2478,-531 2478,-531 2478,-313 2478,-211.32 1675.62,-178.39 1491.39,-172.16"/>
<polygon fill="grey" stroke="grey" stroke-width="2" points="1491.24,-168.66 1481.13,-171.82 1491,-175.65 1491.24,-168.66"/>
</g>
<!-- 10&#45;&gt;8 -->
<g id="edge32" class="edge">
<title>10&#45;&gt;8</title>
<path fill="none" stroke="grey" stroke-width="2" d="M2138.61,-583.7C2134.24,-575.64 2128.94,-565.89 2124.1,-556.98"/>
<polygon fill="grey" stroke="grey" stroke-width="2" points="2127.13,-555.22 2119.29,-548.1 2120.98,-558.56 2127.13,-555.22"/>
</g>
<!-- 10&#45;&gt;46 -->
<g id="edge90" class="edge">
<title>10&#45;&gt;46</title>
<path fill="none" stroke="grey" stroke-width="2" d="M2179.07,-583.88C2195.83,-574.64 2216.71,-563.13 2234.7,-553.21"/>
<polygon fill="grey" stroke="grey" stroke-width="2" points="2236.74,-556.08 2243.81,-548.19 2233.37,-549.95 2236.74,-556.08"/>
</g>
<!-- 8&#45;&gt;55 -->
<g id="edge119" class="edge">
<title>8&#45;&gt;55</title>
<path fill="none" stroke="grey" stroke-width="2" d="M2164.01,-515.75C2182.25,-510.92 2202.63,-505.13 2221,-499 2237.9,-493.36 2256.08,-486.37 2272.24,-479.83"/>
<polygon fill="grey" stroke="grey" stroke-width="2" points="2273.56,-483.07 2281.49,-476.04 2270.91,-476.59 2273.56,-483.07"/>
</g>
<!-- 8&#45;&gt;56 -->
<g id="edge124" class="edge">
<title>8&#45;&gt;56</title>
<path fill="none" stroke="grey" stroke-width="2" d="M2109.26,-511.7C2108.93,-503.98 2108.53,-494.71 2108.16,-486.11"/>
<polygon fill="grey" stroke="grey" stroke-width="2" points="2111.66,-485.95 2107.73,-476.1 2104.66,-486.25 2111.66,-485.95"/>
</g>
<!-- 7 -->
<g id="node34" class="node">
<title>7</title>
<path fill="none" stroke="#d8bc56" stroke-width="2" d="M597.5,-548C597.5,-548 490.5,-548 490.5,-548 484.5,-548 478.5,-542 478.5,-536 478.5,-536 478.5,-524 478.5,-524 478.5,-518 484.5,-512 490.5,-512 490.5,-512 597.5,-512 597.5,-512 603.5,-512 609.5,-518 609.5,-524 609.5,-524 609.5,-536 609.5,-536 609.5,-542 603.5,-548 597.5,-548"/>
<text text-anchor="middle" x="544" y="-527.5" font-family="sans" font-size="10.00">warp_gii_unfold2native</text>
</g>
<!-- 8&#45;&gt;7 -->
<g id="edge29" class="edge">
<title>8&#45;&gt;7</title>
<path fill="none" stroke="grey" stroke-width="2" d="M2088,-548.17C2073.4,-559.01 2053.25,-571.76 2033,-577.5 2006.97,-584.88 1086.03,-578.74 1059,-577.5 902.48,-570.3 720.04,-550.84 619.75,-539.19"/>
<polygon fill="grey" stroke="grey" stroke-width="2" points="620.05,-535.7 609.72,-538.01 619.24,-542.65 620.05,-535.7"/>
</g>
<!-- 46&#45;&gt;55 -->
<g id="edge118" class="edge">
<title>46&#45;&gt;55</title>
<path fill="none" stroke="grey" stroke-width="2" d="M2286.37,-511.7C2291.72,-503.56 2298.2,-493.69 2304.11,-484.7"/>
<polygon fill="grey" stroke="grey" stroke-width="2" points="2307.19,-486.38 2309.76,-476.1 2301.34,-482.54 2307.19,-486.38"/>
</g>
<!-- 46&#45;&gt;56 -->
<g id="edge122" class="edge">
<title>46&#45;&gt;56</title>
<path fill="none" stroke="grey" stroke-width="2" d="M2233.9,-511.88C2210.83,-502.26 2181.86,-490.19 2157.43,-480.01"/>
<polygon fill="grey" stroke="grey" stroke-width="2" points="2158.54,-476.68 2147.96,-476.07 2155.85,-483.15 2158.54,-476.68"/>
</g>
<!-- 46&#45;&gt;7 -->
<g id="edge27" class="edge">
<title>46&#45;&gt;7</title>
<path fill="none" stroke="grey" stroke-width="2" d="M2242.15,-548.24C2220.64,-559.11 2191.52,-571.86 2164,-577.5 2103.86,-589.83 1120.32,-580.32 1059,-577.5 902.48,-570.3 720.04,-550.84 619.75,-539.19"/>
<polygon fill="grey" stroke="grey" stroke-width="2" points="620.05,-535.7 609.72,-538.01 619.24,-542.65 620.05,-535.7"/>
</g>
<!-- 55&#45;&gt;0 -->
<g id="edge12" class="edge">
<title>55&#45;&gt;0</title>
<path fill="none" stroke="grey" stroke-width="2" d="M2272.09,-439.95C2159.17,-400.73 1871.4,-301.49 1629,-224 1581.53,-208.82 1526.46,-192.33 1490.97,-181.84"/>
<polygon fill="grey" stroke="grey" stroke-width="2" points="1491.64,-178.39 1481.06,-178.92 1489.66,-185.1 1491.64,-178.39"/>
</g>
<!-- 56&#45;&gt;0 -->
<g id="edge2" class="edge">
<title>56&#45;&gt;0</title>
<path fill="none" stroke="grey" stroke-width="2" d="M2068.11,-439.97C1951.25,-388.79 1604.34,-236.85 1490.58,-187.02"/>
<polygon fill="grey" stroke="grey" stroke-width="2" points="1491.8,-183.74 1481.24,-182.93 1489,-190.15 1491.8,-183.74"/>
</g>
<!-- 58&#45;&gt;0 -->
<g id="edge6" class="edge">
<title>58&#45;&gt;0</title>
<path fill="none" stroke="grey" stroke-width="2" d="M1172.82,-298.09C1175.92,-297.36 1179,-296.66 1182,-296 1268.49,-276.94 1301.26,-304.23 1378,-260 1404.22,-244.89 1425.66,-217.23 1439,-196.74"/>
<polygon fill="grey" stroke="grey" stroke-width="2" points="1442.03,-198.51 1444.38,-188.18 1436.1,-194.79 1442.03,-198.51"/>
</g>
<!-- 62 -->
<g id="node15" class="node">
<title>62</title>
<path fill="none" stroke="#5682d8" stroke-width="2" d="M1394.5,-332C1394.5,-332 1291.5,-332 1291.5,-332 1285.5,-332 1279.5,-326 1279.5,-320 1279.5,-320 1279.5,-308 1279.5,-308 1279.5,-302 1285.5,-296 1291.5,-296 1291.5,-296 1394.5,-296 1394.5,-296 1400.5,-296 1406.5,-302 1406.5,-308 1406.5,-308 1406.5,-320 1406.5,-320 1406.5,-326 1400.5,-332 1394.5,-332"/>
<text text-anchor="middle" x="1343" y="-311.5" font-family="sans" font-size="10.00">get_subfield_vols_subj</text>
</g>
<!-- 61 -->
<g id="node16" class="node">
<title>61</title>
<path fill="none" stroke="#d89556" stroke-width="2" d="M1357,-260C1357,-260 1271,-260 1271,-260 1265,-260 1259,-254 1259,-248 1259,-248 1259,-236 1259,-236 1259,-230 1265,-224 1271,-224 1271,-224 1357,-224 1357,-224 1363,-224 1369,-230 1369,-236 1369,-236 1369,-248 1369,-248 1369,-254 1363,-260 1357,-260"/>
<text text-anchor="middle" x="1314" y="-239.5" font-family="sans" font-size="10.00">plot_subj_subfields</text>
</g>
<!-- 62&#45;&gt;61 -->
<g id="edge133" class="edge">
<title>62&#45;&gt;61</title>
<path fill="none" stroke="grey" stroke-width="2" d="M1335.83,-295.7C1332.57,-287.81 1328.63,-278.3 1325,-269.55"/>
<polygon fill="grey" stroke="grey" stroke-width="2" points="1328.15,-268 1321.09,-260.1 1321.68,-270.68 1328.15,-268"/>
</g>
<!-- 61&#45;&gt;0 -->
<g id="edge10" class="edge">
<title>61&#45;&gt;0</title>
<path fill="none" stroke="grey" stroke-width="2" d="M1348.25,-223.88C1369.26,-213.37 1396.15,-199.92 1417.56,-189.22"/>
<polygon fill="grey" stroke="grey" stroke-width="2" points="1419.28,-192.27 1426.66,-184.67 1416.15,-186.01 1419.28,-192.27"/>
</g>
<!-- 59 -->
<g id="node17" class="node">
<title>59</title>
<path fill="none" stroke="#56d892" stroke-width="2" d="M1249.5,-332C1249.5,-332 1202.5,-332 1202.5,-332 1196.5,-332 1190.5,-326 1190.5,-320 1190.5,-320 1190.5,-308 1190.5,-308 1190.5,-302 1196.5,-296 1202.5,-296 1202.5,-296 1249.5,-296 1249.5,-296 1255.5,-296 1261.5,-302 1261.5,-308 1261.5,-308 1261.5,-320 1261.5,-320 1261.5,-326 1255.5,-332 1249.5,-332"/>
<text text-anchor="middle" x="1226" y="-311.5" font-family="sans" font-size="10.00">qc_subfield</text>
</g>
<!-- 59&#45;&gt;0 -->
<g id="edge4" class="edge">
<title>59&#45;&gt;0</title>
<path fill="none" stroke="grey" stroke-width="2" d="M1225.77,-295.75C1226.48,-275.73 1230.79,-243.04 1250,-224 1273.35,-200.87 1364.36,-184.1 1416.6,-176.16"/>
<polygon fill="grey" stroke="grey" stroke-width="2" points="1417.43,-179.58 1426.8,-174.65 1416.4,-172.65 1417.43,-179.58"/>
</g>
<!-- 60 -->
<g id="node18" class="node">
<title>60</title>
<path fill="none" stroke="#56d8a9" stroke-width="2" d="M1029.5,-332C1029.5,-332 958.5,-332 958.5,-332 952.5,-332 946.5,-326 946.5,-320 946.5,-320 946.5,-308 946.5,-308 946.5,-302 952.5,-296 958.5,-296 958.5,-296 1029.5,-296 1029.5,-296 1035.5,-296 1041.5,-302 1041.5,-308 1041.5,-308 1041.5,-320 1041.5,-320 1041.5,-326 1035.5,-332 1029.5,-332"/>
<text text-anchor="middle" x="994" y="-311.5" font-family="sans" font-size="10.00">qc_subfield_surf</text>
</g>
<!-- 60&#45;&gt;0 -->
<g id="edge8" class="edge">
<title>60&#45;&gt;0</title>
<path fill="none" stroke="grey" stroke-width="2" d="M1033.83,-295.89C1079.77,-276.59 1157.85,-245.17 1227,-224 1292.88,-203.83 1371.52,-187.05 1416.82,-178.07"/>
<polygon fill="grey" stroke="grey" stroke-width="2" points="1417.64,-181.47 1426.78,-176.11 1416.29,-174.61 1417.64,-181.47"/>
</g>
<!-- 12 -->
<g id="node19" class="node">
<title>12</title>
<path fill="none" stroke="#56d8c9" stroke-width="2" d="M1722,-764C1722,-764 1630,-764 1630,-764 1624,-764 1618,-758 1618,-752 1618,-752 1618,-740 1618,-740 1618,-734 1624,-728 1630,-728 1630,-728 1722,-728 1722,-728 1728,-728 1734,-734 1734,-740 1734,-740 1734,-752 1734,-752 1734,-758 1728,-764 1722,-764"/>
<text text-anchor="middle" x="1676" y="-743.5" font-family="sans" font-size="10.00">laplace_coords_hipp</text>
</g>
<!-- 12&#45;&gt;35 -->
<g id="edge71" class="edge">
<title>12&#45;&gt;35</title>
<path fill="none" stroke="grey" stroke-width="2" d="M1734.32,-729.41C1737.24,-728.88 1740.15,-728.4 1743,-728 1789.23,-721.5 2119.13,-730.98 2163,-715 2212.14,-697.1 2257.44,-655.08 2283.11,-627.91"/>
<polygon fill="grey" stroke="grey" stroke-width="2" points="2285.89,-630.05 2290.12,-620.33 2280.75,-625.29 2285.89,-630.05"/>
</g>
<!-- 12&#45;&gt;8 -->
<g id="edge30" class="edge">
<title>12&#45;&gt;8</title>
<path fill="none" stroke="grey" stroke-width="2" d="M1734.31,-729.4C1737.24,-728.87 1740.15,-728.4 1743,-728 1795.63,-720.7 2169.96,-729.76 2221,-715 2300.45,-692.03 2340.09,-691.87 2381,-620 2388.92,-606.1 2391.89,-595.72 2381,-584 2367.58,-569.55 2223.16,-575.65 2204,-571 2186.44,-566.74 2167.98,-559.54 2152.1,-552.41"/>
<polygon fill="grey" stroke="grey" stroke-width="2" points="2153.13,-549.03 2142.59,-548.01 2150.19,-555.39 2153.13,-549.03"/>
</g>
<!-- 11 -->
<g id="node23" class="node">
<title>11</title>
<path fill="none" stroke="#5663d8" stroke-width="2" d="M1659.5,-692C1659.5,-692 1602.5,-692 1602.5,-692 1596.5,-692 1590.5,-686 1590.5,-680 1590.5,-680 1590.5,-668 1590.5,-668 1590.5,-662 1596.5,-656 1602.5,-656 1602.5,-656 1659.5,-656 1659.5,-656 1665.5,-656 1671.5,-662 1671.5,-668 1671.5,-668 1671.5,-680 1671.5,-680 1671.5,-686 1665.5,-692 1659.5,-692"/>
<text text-anchor="middle" x="1631" y="-671.5" font-family="sans" font-size="10.00">unflip_coords</text>
</g>
<!-- 12&#45;&gt;11 -->
<g id="edge39" class="edge">
<title>12&#45;&gt;11</title>
<path fill="none" stroke="grey" stroke-width="2" d="M1664.88,-727.7C1659.64,-719.56 1653.3,-709.69 1647.52,-700.7"/>
<polygon fill="grey" stroke="grey" stroke-width="2" points="1650.35,-698.62 1642,-692.1 1644.46,-702.41 1650.35,-698.62"/>
</g>
<!-- 51 -->
<g id="node55" class="node">
<title>51</title>
<path fill="none" stroke="#b6d856" stroke-width="2" d="M1253.5,-548C1253.5,-548 1066.5,-548 1066.5,-548 1060.5,-548 1054.5,-542 1054.5,-536 1054.5,-536 1054.5,-524 1054.5,-524 1054.5,-518 1060.5,-512 1066.5,-512 1066.5,-512 1253.5,-512 1253.5,-512 1259.5,-512 1265.5,-518 1265.5,-524 1265.5,-524 1265.5,-536 1265.5,-536 1265.5,-542 1259.5,-548 1253.5,-548"/>
<text text-anchor="middle" x="1160" y="-527.5" font-family="sans" font-size="10.00">label_subfields_from_vol_coords_corobl</text>
</g>
<!-- 12&#45;&gt;51 -->
<g id="edge102" class="edge">
<title>12&#45;&gt;51</title>
<path fill="none" stroke="grey" stroke-width="2" d="M1617.66,-729.59C1614.74,-729.01 1611.84,-728.47 1609,-728 1539.5,-716.41 1519.14,-732.92 1451,-715 1353.49,-689.36 1327.04,-678.6 1245,-620 1219.59,-601.85 1195.5,-575.43 1179.49,-556.08"/>
<polygon fill="grey" stroke="grey" stroke-width="2" points="1182.17,-553.83 1173.15,-548.27 1176.74,-558.24 1182.17,-553.83"/>
</g>
<!-- 54 -->
<g id="node64" class="node">
<title>54</title>
<path fill="none" stroke="#a7d856" stroke-width="2" d="M1766,-404C1766,-404 1628,-404 1628,-404 1622,-404 1616,-398 1616,-392 1616,-392 1616,-380 1616,-380 1616,-374 1622,-368 1628,-368 1628,-368 1766,-368 1766,-368 1772,-368 1778,-374 1778,-380 1778,-380 1778,-392 1778,-392 1778,-398 1772,-404 1766,-404"/>
<text text-anchor="middle" x="1697" y="-383.5" font-family="sans" font-size="10.00">resample_coords_native_crop</text>
</g>
<!-- 12&#45;&gt;54 -->
<g id="edge111" class="edge">
<title>12&#45;&gt;54</title>
<path fill="none" stroke="grey" stroke-width="2" d="M1680.86,-727.67C1687.87,-701.08 1700,-648.5 1700,-603 1700,-603 1700,-603 1700,-529 1700,-488.99 1698.79,-442.65 1697.91,-414.08"/>
<polygon fill="grey" stroke="grey" stroke-width="2" points="1701.41,-413.93 1697.59,-404.05 1694.41,-414.15 1701.41,-413.93"/>
</g>
<!-- 47 -->
<g id="node20" class="node">
<title>47</title>
<path fill="none" stroke="#56d882" stroke-width="2" d="M1872,-764C1872,-764 1764,-764 1764,-764 1758,-764 1752,-758 1752,-752 1752,-752 1752,-740 1752,-740 1752,-734 1758,-728 1764,-728 1764,-728 1872,-728 1872,-728 1878,-728 1884,-734 1884,-740 1884,-740 1884,-752 1884,-752 1884,-758 1878,-764 1872,-764"/>
<text text-anchor="middle" x="1818" y="-743.5" font-family="sans" font-size="10.00">laplace_coords_dentate</text>
</g>
<!-- 47&#45;&gt;35 -->
<g id="edge70" class="edge">
<title>47&#45;&gt;35</title>
<path fill="none" stroke="grey" stroke-width="2" d="M1884.3,-744.27C1999.77,-742.45 2228.38,-736.18 2258,-715 2285.44,-695.38 2296.94,-656.55 2301.7,-630.18"/>
<polygon fill="grey" stroke="grey" stroke-width="2" points="2305.2,-630.5 2303.31,-620.07 2298.28,-629.39 2305.2,-630.5"/>
</g>
<!-- 47&#45;&gt;46 -->
<g id="edge93" class="edge">
<title>47&#45;&gt;46</title>
<path fill="none" stroke="grey" stroke-width="2" d="M1884.45,-743.15C2005.65,-739.44 2253.54,-730.09 2290,-715 2359.72,-686.14 2439.48,-647.04 2398,-584 2386.19,-566.06 2366.89,-554.16 2347.04,-546.29"/>
<polygon fill="grey" stroke="grey" stroke-width="2" points="2348.19,-542.98 2337.6,-542.84 2345.79,-549.56 2348.19,-542.98"/>
</g>
<!-- 47&#45;&gt;11 -->
<g id="edge38" class="edge">
<title>47&#45;&gt;11</title>
<path fill="none" stroke="grey" stroke-width="2" d="M1761.53,-727.96C1749.09,-723.93 1736.04,-719.5 1724,-715 1708.87,-709.35 1692.63,-702.6 1678.01,-696.27"/>
<polygon fill="grey" stroke="grey" stroke-width="2" points="1679.23,-692.99 1668.67,-692.19 1676.43,-699.4 1679.23,-692.99"/>
</g>
<!-- 47&#45;&gt;54 -->
<g id="edge116" class="edge">
<title>47&#45;&gt;54</title>
<path fill="none" stroke="grey" stroke-width="2" d="M1800.64,-727.93C1777.11,-702.89 1738,-653.65 1738,-603 1738,-603 1738,-603 1738,-529 1738,-487.41 1721.56,-441.56 1709.5,-413.51"/>
<polygon fill="grey" stroke="grey" stroke-width="2" points="1712.55,-411.75 1705.3,-404.03 1706.15,-414.59 1712.55,-411.75"/>
</g>
<!-- 34 -->
<g id="node21" class="node">
<title>34</title>
<path fill="none" stroke="#56b1d8" stroke-width="2" d="M1587.5,-764C1587.5,-764 1472.5,-764 1472.5,-764 1466.5,-764 1460.5,-758 1460.5,-752 1460.5,-752 1460.5,-740 1460.5,-740 1460.5,-734 1466.5,-728 1472.5,-728 1472.5,-728 1587.5,-728 1587.5,-728 1593.5,-728 1599.5,-734 1599.5,-740 1599.5,-740 1599.5,-752 1599.5,-752 1599.5,-758 1593.5,-764 1587.5,-764"/>
<text text-anchor="middle" x="1530" y="-743.5" font-family="sans" font-size="10.00">prep_equivolume_coords</text>
</g>
<!-- 33 -->
<g id="node22" class="node">
<title>33</title>
<path fill="none" stroke="#56d8b9" stroke-width="2" d="M1560,-692C1560,-692 1472,-692 1472,-692 1466,-692 1460,-686 1460,-680 1460,-680 1460,-668 1460,-668 1460,-662 1466,-656 1472,-656 1472,-656 1560,-656 1560,-656 1566,-656 1572,-662 1572,-668 1572,-668 1572,-680 1572,-680 1572,-686 1566,-692 1560,-692"/>
<text text-anchor="middle" x="1516" y="-671.5" font-family="sans" font-size="10.00">equivolume_coords</text>
</g>
<!-- 34&#45;&gt;33 -->
<g id="edge68" class="edge">
<title>34&#45;&gt;33</title>
<path fill="none" stroke="grey" stroke-width="2" d="M1526.54,-727.7C1525,-719.98 1523.14,-710.71 1521.42,-702.11"/>
<polygon fill="grey" stroke="grey" stroke-width="2" points="1524.81,-701.22 1519.42,-692.1 1517.95,-702.6 1524.81,-701.22"/>
</g>
<!-- 33&#45;&gt;8 -->
<g id="edge35" class="edge">
<title>33&#45;&gt;8</title>
<path fill="none" stroke="grey" stroke-width="2" d="M1565.53,-655.95C1623.39,-636.51 1722.26,-604.73 1809,-584 1889.91,-564.66 1984.6,-549.13 2045.86,-540"/>
<polygon fill="grey" stroke="grey" stroke-width="2" points="2046.39,-543.46 2055.77,-538.53 2045.36,-536.54 2046.39,-543.46"/>
</g>
<!-- 32 -->
<g id="node24" class="node">
<title>32</title>
<path fill="none" stroke="#568ad8" stroke-width="2" d="M1597,-620C1597,-620 1499,-620 1499,-620 1493,-620 1487,-614 1487,-608 1487,-608 1487,-596 1487,-596 1487,-590 1493,-584 1499,-584 1499,-584 1597,-584 1597,-584 1603,-584 1609,-590 1609,-596 1609,-596 1609,-608 1609,-608 1609,-614 1603,-620 1597,-620"/>
<text text-anchor="middle" x="1548" y="-599.5" font-family="sans" font-size="10.00">unflip_coords_equivol</text>
</g>
<!-- 33&#45;&gt;32 -->
<g id="edge67" class="edge">
<title>33&#45;&gt;32</title>
<path fill="none" stroke="grey" stroke-width="2" d="M1523.91,-655.7C1527.55,-647.73 1531.95,-638.1 1535.99,-629.26"/>
<polygon fill="grey" stroke="grey" stroke-width="2" points="1539.21,-630.65 1540.18,-620.1 1532.84,-627.74 1539.21,-630.65"/>
</g>
<!-- 33&#45;&gt;51 -->
<g id="edge105" class="edge">
<title>33&#45;&gt;51</title>
<path fill="none" stroke="grey" stroke-width="2" d="M1459.66,-661.32C1420.32,-652.27 1366.99,-638.21 1322,-620 1276.32,-601.51 1227.15,-573.18 1195.12,-553.47"/>
<polygon fill="grey" stroke="grey" stroke-width="2" points="1196.89,-550.45 1186.55,-548.15 1193.2,-556.4 1196.89,-550.45"/>
</g>
<!-- 33&#45;&gt;54 -->
<g id="edge115" class="edge">
<title>33&#45;&gt;54</title>
<path fill="none" stroke="grey" stroke-width="2" d="M1494.61,-655.91C1473.78,-637.2 1447.72,-606.83 1466,-584 1482.51,-563.38 1502.52,-586.38 1524,-571 1537.87,-561.07 1591.76,-451.88 1604,-440 1616.59,-427.78 1632.54,-417.37 1647.67,-409.09"/>
<polygon fill="grey" stroke="grey" stroke-width="2" points="1649.72,-411.97 1656.94,-404.21 1646.46,-405.77 1649.72,-411.97"/>
</g>
<!-- 11&#45;&gt;35 -->
<g id="edge72" class="edge">
<title>11&#45;&gt;35</title>
<path fill="none" stroke="grey" stroke-width="2" d="M1671.83,-671.24C1767.39,-666.72 2013.12,-652.79 2227.76,-620.07"/>
<polygon fill="grey" stroke="grey" stroke-width="2" points="2228.6,-623.48 2237.95,-618.5 2227.54,-616.56 2228.6,-623.48"/>
</g>
<!-- 11&#45;&gt;8 -->
<g id="edge34" class="edge">
<title>11&#45;&gt;8</title>
<path fill="none" stroke="grey" stroke-width="2" d="M1671.84,-660.89C1755.37,-636.13 1946.27,-579.54 2046.26,-549.9"/>
<polygon fill="grey" stroke="grey" stroke-width="2" points="2047.34,-553.23 2055.94,-547.03 2045.35,-546.51 2047.34,-553.23"/>
</g>
<!-- 11&#45;&gt;46 -->
<g id="edge91" class="edge">
<title>11&#45;&gt;46</title>
<path fill="none" stroke="grey" stroke-width="2" d="M1671.83,-664.5C1772.8,-643.49 2028.89,-590.39 2068,-584 2114.41,-576.41 2127.42,-582.56 2173,-571 2191.67,-566.26 2211.52,-559.02 2228.71,-551.99"/>
<polygon fill="grey" stroke="grey" stroke-width="2" points="2230.08,-555.21 2237.96,-548.12 2227.38,-548.75 2230.08,-555.21"/>
</g>
<!-- 11&#45;&gt;51 -->
<g id="edge104" class="edge">
<title>11&#45;&gt;51</title>
<path fill="none" stroke="grey" stroke-width="2" d="M1590.48,-658.72C1587.29,-657.75 1584.1,-656.83 1581,-656 1500.91,-634.61 1477.75,-642.59 1398,-620 1388.76,-617.38 1281.91,-577.12 1214.56,-551.66"/>
<polygon fill="grey" stroke="grey" stroke-width="2" points="1215.52,-548.28 1204.92,-548.02 1213.04,-554.83 1215.52,-548.28"/>
</g>
<!-- 11&#45;&gt;54 -->
<g id="edge114" class="edge">
<title>11&#45;&gt;54</title>
<path fill="none" stroke="grey" stroke-width="2" d="M1590.15,-659.01C1544.97,-643.51 1478.43,-620.6 1478,-620 1468.72,-606.97 1467.59,-596.15 1478,-584 1502.59,-555.32 1530.32,-591.58 1562,-571 1588.16,-554.01 1583.03,-538.17 1600,-512 1620.79,-479.94 1623.35,-470.02 1647,-440 1654.63,-430.32 1663.7,-420.33 1672,-411.66"/>
<polygon fill="grey" stroke="grey" stroke-width="2" points="1674.57,-414.04 1679.05,-404.44 1669.56,-409.15 1674.57,-414.04"/>
</g>
<!-- 32&#45;&gt;8 -->
<g id="edge33" class="edge">
<title>32&#45;&gt;8</title>
<path fill="none" stroke="grey" stroke-width="2" d="M1609.23,-588.84C1619.48,-587.05 1630.02,-585.35 1640,-584 1706.31,-575.02 1723.45,-578.04 1790,-571 1878.79,-561.61 1981.13,-548.39 2045.69,-539.77"/>
<polygon fill="grey" stroke="grey" stroke-width="2" points="2046.27,-543.22 2055.72,-538.42 2045.34,-536.28 2046.27,-543.22"/>
</g>
<!-- 32&#45;&gt;51 -->
<g id="edge103" class="edge">
<title>32&#45;&gt;51</title>
<path fill="none" stroke="grey" stroke-width="2" d="M1486.95,-589.99C1427.33,-579.23 1335.44,-562.65 1264.23,-549.81"/>
<polygon fill="grey" stroke="grey" stroke-width="2" points="1264.79,-546.35 1254.33,-548.02 1263.55,-553.24 1264.79,-546.35"/>
</g>
<!-- 32&#45;&gt;54 -->
<g id="edge112" class="edge">
<title>32&#45;&gt;54</title>
<path fill="none" stroke="grey" stroke-width="2" d="M1583.8,-583.97C1589.64,-580.22 1595.3,-575.88 1600,-571 1645.06,-524.19 1674.69,-452.29 1688.33,-413.69"/>
<polygon fill="grey" stroke="grey" stroke-width="2" points="1691.66,-414.78 1691.6,-404.18 1685.04,-412.5 1691.66,-414.78"/>
</g>
<!-- 19 -->
<g id="node25" class="node">
<title>19</title>
<path fill="none" stroke="#bed856" stroke-width="2" d="M729,-1412C729,-1412 689,-1412 689,-1412 683,-1412 677,-1406 677,-1400 677,-1400 677,-1388 677,-1388 677,-1382 683,-1376 689,-1376 689,-1376 729,-1376 729,-1376 735,-1376 741,-1382 741,-1388 741,-1388 741,-1400 741,-1400 741,-1406 735,-1412 729,-1412"/>
<text text-anchor="middle" x="709" y="-1391.5" font-family="sans" font-size="10.00">import_t2</text>
</g>
<!-- 18 -->
<g id="node26" class="node">
<title>18</title>
<path fill="none" stroke="#56d8b1" stroke-width="2" d="M724,-1340C724,-1340 694,-1340 694,-1340 688,-1340 682,-1334 682,-1328 682,-1328 682,-1316 682,-1316 682,-1310 688,-1304 694,-1304 694,-1304 724,-1304 724,-1304 730,-1304 736,-1310 736,-1316 736,-1316 736,-1328 736,-1328 736,-1334 730,-1340 724,-1340"/>
<text text-anchor="middle" x="709" y="-1319.5" font-family="sans" font-size="10.00">n4_t2</text>
</g>
<!-- 19&#45;&gt;18 -->
<g id="edge50" class="edge">
<title>19&#45;&gt;18</title>
<path fill="none" stroke="grey" stroke-width="2" d="M709,-1375.7C709,-1367.98 709,-1358.71 709,-1350.11"/>
<polygon fill="grey" stroke="grey" stroke-width="2" points="712.5,-1350.1 709,-1340.1 705.5,-1350.1 712.5,-1350.1"/>
</g>
<!-- 17 -->
<g id="node27" class="node">
<title>17</title>
<path fill="none" stroke="#68d856" stroke-width="2" d="M758,-1268C758,-1268 660,-1268 660,-1268 654,-1268 648,-1262 648,-1256 648,-1256 648,-1244 648,-1244 648,-1238 654,-1232 660,-1232 660,-1232 758,-1232 758,-1232 764,-1232 770,-1238 770,-1244 770,-1244 770,-1256 770,-1256 770,-1262 764,-1268 758,-1268"/>
<text text-anchor="middle" x="709" y="-1247.5" font-family="sans" font-size="10.00">avg_aligned_or_cp_t2</text>
</g>
<!-- 18&#45;&gt;17 -->
<g id="edge49" class="edge">
<title>18&#45;&gt;17</title>
<path fill="none" stroke="grey" stroke-width="2" d="M709,-1303.7C709,-1295.98 709,-1286.71 709,-1278.11"/>
<polygon fill="grey" stroke="grey" stroke-width="2" points="712.5,-1278.1 709,-1268.1 705.5,-1278.1 712.5,-1278.1"/>
</g>
<!-- 17&#45;&gt;21 -->
<g id="edge53" class="edge">
<title>17&#45;&gt;21</title>
<path fill="none" stroke="grey" stroke-width="2" d="M709,-1231.7C709,-1223.98 709,-1214.71 709,-1206.11"/>
<polygon fill="grey" stroke="grey" stroke-width="2" points="712.5,-1206.1 709,-1196.1 705.5,-1206.1 712.5,-1206.1"/>
</g>
<!-- 28 -->
<g id="node30" class="node">
<title>28</title>
<path fill="none" stroke="#56a9d8" stroke-width="2" d="M790,-1052C790,-1052 682,-1052 682,-1052 676,-1052 670,-1046 670,-1040 670,-1040 670,-1028 670,-1028 670,-1022 676,-1016 682,-1016 682,-1016 790,-1016 790,-1016 796,-1016 802,-1022 802,-1028 802,-1028 802,-1040 802,-1040 802,-1046 796,-1052 790,-1052"/>
<text text-anchor="middle" x="736" y="-1031.5" font-family="sans" font-size="10.00">warp_t2_to_corobl_crop</text>
</g>
<!-- 17&#45;&gt;28 -->
<g id="edge60" class="edge">
<title>17&#45;&gt;28</title>
<path fill="none" stroke="grey" stroke-width="2" d="M688.09,-1231.56C678.34,-1222.13 667.66,-1209.63 662,-1196 643.6,-1151.65 636.66,-1130.5 659,-1088 665.56,-1075.52 676.54,-1065.4 688.19,-1057.48"/>
<polygon fill="grey" stroke="grey" stroke-width="2" points="690.13,-1060.4 696.73,-1052.1 686.4,-1054.47 690.13,-1060.4"/>
</g>
<!-- 53 -->
<g id="node57" class="node">
<title>53</title>
<path fill="none" stroke="#d8a456" stroke-width="2" d="M1215,-404C1215,-404 1077,-404 1077,-404 1071,-404 1065,-398 1065,-392 1065,-392 1065,-380 1065,-380 1065,-374 1071,-368 1077,-368 1077,-368 1215,-368 1215,-368 1221,-368 1227,-374 1227,-380 1227,-380 1227,-392 1227,-392 1227,-398 1221,-404 1215,-404"/>
<text text-anchor="middle" x="1146" y="-383.5" font-family="sans" font-size="10.00">resample_subfields_to_native</text>
</g>
<!-- 17&#45;&gt;53 -->
<g id="edge109" class="edge">
<title>17&#45;&gt;53</title>
<path fill="none" stroke="grey" stroke-width="2" d="M679.25,-1231.8C666.52,-1222.82 652.81,-1210.64 645,-1196 622.37,-1153.61 633.2,-1135.57 640,-1088 658.91,-955.63 791.38,-740.66 800,-728 804.42,-721.5 807.12,-721.17 812,-715 903.34,-599.43 880.65,-530.34 997,-440 1015.32,-425.77 1037.78,-415.16 1059.65,-407.33"/>
<polygon fill="grey" stroke="grey" stroke-width="2" points="1060.98,-410.58 1069.31,-404.04 1058.71,-403.96 1060.98,-410.58"/>
</g>
<!-- 57 -->
<g id="node65" class="node">
<title>57</title>
<path fill="none" stroke="#d86656" stroke-width="2" d="M1586,-404C1586,-404 1470,-404 1470,-404 1464,-404 1458,-398 1458,-392 1458,-392 1458,-380 1458,-380 1458,-374 1464,-368 1470,-368 1470,-368 1586,-368 1586,-368 1592,-368 1598,-374 1598,-380 1598,-380 1598,-392 1598,-392 1598,-398 1592,-404 1586,-404"/>
<text text-anchor="middle" x="1528" y="-383.5" font-family="sans" font-size="10.00">resample_native_to_crop</text>
</g>
<!-- 17&#45;&gt;57 -->
<g id="edge127" class="edge">
<title>17&#45;&gt;57</title>
<path fill="none" stroke="grey" stroke-width="2" d="M770.18,-1244.76C921.41,-1233.58 1309.06,-1200.42 1426,-1147 1450.64,-1135.74 1472,-1134.09 1472,-1107 1472,-1107 1472,-1107 1472,-1033 1472,-833.32 1421.19,-780.63 1456,-584 1467.27,-520.31 1497.57,-450.16 1515.06,-413.18"/>
<polygon fill="grey" stroke="grey" stroke-width="2" points="1518.25,-414.62 1519.42,-404.09 1511.94,-411.59 1518.25,-414.62"/>
</g>
<!-- 21&#45;&gt;20 -->
<g id="edge51" class="edge">
<title>21&#45;&gt;20</title>
<path fill="none" stroke="grey" stroke-width="2" d="M715.67,-1159.7C718.71,-1151.81 722.38,-1142.3 725.76,-1133.55"/>
<polygon fill="grey" stroke="grey" stroke-width="2" points="729.07,-1134.69 729.4,-1124.1 722.54,-1132.17 729.07,-1134.69"/>
</g>
<!-- 20&#45;&gt;38 -->
<g id="edge75" class="edge">
<title>20&#45;&gt;38</title>
<path fill="none" stroke="grey" stroke-width="2" d="M709.34,-1124.17C694.81,-1133.99 676.82,-1146.94 662,-1160 612.94,-1203.27 616.62,-1232 562,-1268 538.83,-1283.27 510.72,-1294.75 485.19,-1303.05"/>
<polygon fill="grey" stroke="grey" stroke-width="2" points="484.05,-1299.74 475.55,-1306.07 486.14,-1306.42 484.05,-1299.74"/>
</g>
<!-- 20&#45;&gt;55 -->
<g id="edge120" class="edge">
<title>20&#45;&gt;55</title>
<path fill="none" stroke="grey" stroke-width="2" d="M804.34,-1099.31C882.16,-1091.77 1003.51,-1076.5 1042,-1052 1082.67,-1026.11 1104,-1011.21 1104,-963 1104,-963 1104,-963 1104,-817 1104,-626.41 1280.01,-633.71 1464,-584 1527.01,-566.98 1982.05,-518.43 2047,-512 2124.17,-504.36 2145.45,-516.49 2221,-499 2239.58,-494.7 2259.22,-487.48 2276.14,-480.34"/>
<polygon fill="grey" stroke="grey" stroke-width="2" points="2277.97,-483.36 2285.75,-476.18 2275.19,-476.94 2277.97,-483.36"/>
</g>
<!-- 20&#45;&gt;56 -->
<g id="edge123" class="edge">
<title>20&#45;&gt;56</title>
<path fill="none" stroke="grey" stroke-width="2" d="M804.08,-1101.41C965.48,-1092.66 1362.15,-1069.66 1420,-1052 1648.62,-982.21 1721.78,-958.77 1888,-787 1983.94,-687.86 1941.13,-615.81 2032,-512 2042.15,-500.4 2055.34,-490 2067.81,-481.55"/>
<polygon fill="grey" stroke="grey" stroke-width="2" points="2069.82,-484.42 2076.29,-476.02 2066,-478.56 2069.82,-484.42"/>
</g>
<!-- 20&#45;&gt;28 -->
<g id="edge61" class="edge">
<title>20&#45;&gt;28</title>
<path fill="none" stroke="grey" stroke-width="2" d="M736,-1087.7C736,-1079.98 736,-1070.71 736,-1062.11"/>
<polygon fill="grey" stroke="grey" stroke-width="2" points="739.5,-1062.1 736,-1052.1 732.5,-1062.1 739.5,-1062.1"/>
</g>
<!-- 20&#45;&gt;53 -->
<g id="edge110" class="edge">
<title>20&#45;&gt;53</title>
<path fill="none" stroke="grey" stroke-width="2" d="M804.05,-1090.45C867.36,-1072.44 952,-1034.92 952,-963 952,-963 952,-963 952,-817 952,-644.42 930.8,-569.39 1045,-440 1056.61,-426.84 1072.29,-416.45 1087.82,-408.47"/>
<polygon fill="grey" stroke="grey" stroke-width="2" points="1089.45,-411.57 1096.92,-404.06 1086.39,-405.28 1089.45,-411.57"/>
</g>
<!-- 48 -->
<g id="node63" class="node">
<title>48</title>
<path fill="none" stroke="#d8d356" stroke-width="2" d="M1427.5,-404C1427.5,-404 1278.5,-404 1278.5,-404 1272.5,-404 1266.5,-398 1266.5,-392 1266.5,-392 1266.5,-380 1266.5,-380 1266.5,-374 1272.5,-368 1278.5,-368 1278.5,-368 1427.5,-368 1427.5,-368 1433.5,-368 1439.5,-374 1439.5,-380 1439.5,-380 1439.5,-392 1439.5,-392 1439.5,-398 1433.5,-404 1427.5,-404"/>
<text text-anchor="middle" x="1353" y="-383.5" font-family="sans" font-size="10.00">resample_subfields_native_crop</text>
</g>
<!-- 20&#45;&gt;48 -->
<g id="edge97" class="edge">
<title>20&#45;&gt;48</title>
<path fill="none" stroke="grey" stroke-width="2" d="M804.07,-1096.53C879.31,-1082.92 990,-1048.38 990,-963 990,-963 990,-963 990,-745 990,-651.9 1036.05,-614.54 1124,-584 1185.54,-562.63 1207.3,-588.68 1270,-571 1339.25,-551.47 1377.09,-560.15 1415,-499 1428.82,-476.71 1425.97,-463.82 1415,-440 1409.68,-428.44 1400.45,-418.47 1390.72,-410.4"/>
<polygon fill="grey" stroke="grey" stroke-width="2" points="1392.56,-407.39 1382.5,-404.06 1388.29,-412.94 1392.56,-407.39"/>
</g>
<!-- 20&#45;&gt;54 -->
<g id="edge113" class="edge">
<title>20&#45;&gt;54</title>
<path fill="none" stroke="grey" stroke-width="2" d="M804.09,-1101.09C890.38,-1092.04 1028,-1062.07 1028,-963 1028,-963 1028,-963 1028,-745 1028,-686.49 1075.15,-686.64 1125,-656 1216.43,-599.81 1254.58,-618.11 1351,-571 1451.19,-522.04 1465.35,-490.06 1565,-440 1588.86,-428.02 1616.1,-416.7 1639.62,-407.63"/>
<polygon fill="grey" stroke="grey" stroke-width="2" points="1641.02,-410.84 1649.11,-404.01 1638.52,-404.3 1641.02,-410.84"/>
</g>
<!-- 27 -->
<g id="node31" class="node">
<title>27</title>
<path fill="none" stroke="#568ad8" stroke-width="2" d="M791.5,-980C791.5,-980 756.5,-980 756.5,-980 750.5,-980 744.5,-974 744.5,-968 744.5,-968 744.5,-956 744.5,-956 744.5,-950 750.5,-944 756.5,-944 756.5,-944 791.5,-944 791.5,-944 797.5,-944 803.5,-950 803.5,-956 803.5,-956 803.5,-968 803.5,-968 803.5,-974 797.5,-980 791.5,-980"/>
<text text-anchor="middle" x="774" y="-959.5" font-family="sans" font-size="10.00">lr_flip_t2</text>
</g>
<!-- 28&#45;&gt;27 -->
<g id="edge59" class="edge">
<title>28&#45;&gt;27</title>
<path fill="none" stroke="grey" stroke-width="2" d="M745.39,-1015.7C749.76,-1007.64 755.06,-997.89 759.9,-988.98"/>
<polygon fill="grey" stroke="grey" stroke-width="2" points="763.02,-990.56 764.71,-980.1 756.87,-987.22 763.02,-990.56"/>
</g>
<!-- 16 -->
<g id="node58" class="node">
<title>16</title>
<path fill="none" stroke="#d86656" stroke-width="2" d="M911.5,-980C911.5,-980 852.5,-980 852.5,-980 846.5,-980 840.5,-974 840.5,-968 840.5,-968 840.5,-956 840.5,-956 840.5,-950 846.5,-944 852.5,-944 852.5,-944 911.5,-944 911.5,-944 917.5,-944 923.5,-950 923.5,-956 923.5,-956 923.5,-968 923.5,-968 923.5,-974 917.5,-980 911.5,-980"/>
<text text-anchor="middle" x="882" y="-959.5" font-family="sans" font-size="10.00">run_inference</text>
</g>
<!-- 28&#45;&gt;16 -->
<g id="edge47" class="edge">
<title>28&#45;&gt;16</title>
<path fill="none" stroke="grey" stroke-width="2" d="M778.95,-1015.94C788.59,-1011.88 798.71,-1007.43 808,-1003 819.53,-997.5 831.83,-991.08 843.01,-985.02"/>
<polygon fill="grey" stroke="grey" stroke-width="2" points="845.02,-987.92 852.11,-980.04 841.66,-981.78 845.02,-987.92"/>
</g>
<!-- 64 -->
<g id="node60" class="node">
<title>64</title>
<path fill="none" stroke="#56a9d8" stroke-width="2" d="M892,-836C892,-836 828,-836 828,-836 822,-836 816,-830 816,-824 816,-824 816,-812 816,-812 816,-806 822,-800 828,-800 828,-800 892,-800 892,-800 898,-800 904,-806 904,-812 904,-812 904,-824 904,-824 904,-830 898,-836 892,-836"/>
<text text-anchor="middle" x="860" y="-815.5" font-family="sans" font-size="10.00">qc_nnunet_f3d</text>
</g>
<!-- 28&#45;&gt;64 -->
<g id="edge137" class="edge">
<title>28&#45;&gt;64</title>
<path fill="none" stroke="grey" stroke-width="2" d="M732.64,-1015.69C729.84,-997.31 727.52,-967.72 736,-944 751.8,-899.8 793.26,-863.65 823.91,-841.79"/>
<polygon fill="grey" stroke="grey" stroke-width="2" points="826.02,-844.59 832.24,-836.01 822.03,-838.84 826.02,-844.59"/>
</g>
<!-- 27&#45;&gt;16 -->
<g id="edge48" class="edge">
<title>27&#45;&gt;16</title>
<path fill="none" stroke="grey" stroke-width="2" d="M803.53,-962C812.44,-962 821.35,-962 830.26,-962"/>
<polygon fill="grey" stroke="grey" stroke-width="2" points="830.31,-965.5 840.31,-962 830.31,-958.5 830.31,-965.5"/>
</g>
<!-- 37 -->
<g id="node32" class="node">
<title>37</title>
<path fill="none" stroke="#567bd8" stroke-width="2" d="M673,-692C673,-692 569,-692 569,-692 563,-692 557,-686 557,-680 557,-680 557,-668 557,-668 557,-662 563,-656 569,-656 569,-656 673,-656 673,-656 679,-656 685,-662 685,-668 685,-668 685,-680 685,-680 685,-686 679,-692 673,-692"/>
<text text-anchor="middle" x="621" y="-671.5" font-family="sans" font-size="10.00">cp_template_to_unfold</text>
</g>
<!-- 37&#45;&gt;36 -->
<g id="edge74" class="edge">
<title>37&#45;&gt;36</title>
<path fill="none" stroke="grey" stroke-width="2" d="M641.76,-655.7C652.24,-646.97 665.11,-636.24 676.5,-626.75"/>
<polygon fill="grey" stroke="grey" stroke-width="2" points="679.03,-629.19 684.47,-620.1 674.55,-623.82 679.03,-629.19"/>
</g>
<!-- 2 -->
<g id="node45" class="node">
<title>2</title>
<path fill="none" stroke="#88d856" stroke-width="2" d="M548,-116C548,-116 450,-116 450,-116 444,-116 438,-110 438,-104 438,-104 438,-92 438,-92 438,-86 444,-80 450,-80 450,-80 548,-80 548,-80 554,-80 560,-86 560,-92 560,-92 560,-104 560,-104 560,-110 554,-116 548,-116"/>
<text text-anchor="middle" x="499" y="-95.5" font-family="sans" font-size="10.00">create_spec_file_hipp</text>
</g>
<!-- 37&#45;&gt;2 -->
<g id="edge20" class="edge">
<title>37&#45;&gt;2</title>
<path fill="none" stroke="grey" stroke-width="2" d="M622.08,-655.81C624.26,-619.49 629,-532.24 629,-459 629,-459 629,-459 629,-241 629,-196.68 613.91,-184.71 584,-152 572.93,-139.89 558.48,-129.51 544.64,-121.23"/>
<polygon fill="grey" stroke="grey" stroke-width="2" points="546.09,-118.03 535.67,-116.09 542.61,-124.1 546.09,-118.03"/>
</g>
<!-- 45 -->
<g id="node46" class="node">
<title>45</title>
<path fill="none" stroke="#d86e56" stroke-width="2" d="M268,-116C268,-116 154,-116 154,-116 148,-116 142,-110 142,-104 142,-104 142,-92 142,-92 142,-86 148,-80 154,-80 154,-80 268,-80 268,-80 274,-80 280,-86 280,-92 280,-92 280,-104 280,-104 280,-110 274,-116 268,-116"/>
<text text-anchor="middle" x="211" y="-95.5" font-family="sans" font-size="10.00">create_spec_file_dentate</text>
</g>
<!-- 37&#45;&gt;45 -->
<g id="edge87" class="edge">
<title>37&#45;&gt;45</title>
<path fill="none" stroke="grey" stroke-width="2" d="M556.8,-671.11C403.54,-664.87 29,-638.61 29,-531 29,-531 29,-531 29,-241 29,-196.68 41.15,-181.75 74,-152 90.47,-137.08 111.61,-126.18 132.32,-118.28"/>
<polygon fill="grey" stroke="grey" stroke-width="2" points="133.58,-121.55 141.79,-114.87 131.2,-114.97 133.58,-121.55"/>
</g>
<!-- 36&#45;&gt;7 -->
<g id="edge28" class="edge">
<title>36&#45;&gt;7</title>
<path fill="none" stroke="grey" stroke-width="2" d="M665.61,-583.88C643.61,-574.31 615.99,-562.3 592.64,-552.15"/>
<polygon fill="grey" stroke="grey" stroke-width="2" points="593.82,-548.85 583.26,-548.07 591.03,-555.27 593.82,-548.85"/>
</g>
<!-- 6 -->
<g id="node35" class="node">
<title>6</title>
<path fill="none" stroke="#70d856" stroke-width="2" d="M516,-476C516,-476 422,-476 422,-476 416,-476 410,-470 410,-464 410,-464 410,-452 410,-452 410,-446 416,-440 422,-440 422,-440 516,-440 516,-440 522,-440 528,-446 528,-452 528,-452 528,-464 528,-464 528,-470 522,-476 516,-476"/>
<text text-anchor="middle" x="469" y="-455.5" font-family="sans" font-size="10.00">correct_nan_vertices</text>
</g>
<!-- 7&#45;&gt;6 -->
<g id="edge26" class="edge">
<title>7&#45;&gt;6</title>
<path fill="none" stroke="grey" stroke-width="2" d="M525.46,-511.7C516.2,-503.05 504.84,-492.45 494.74,-483.03"/>
<polygon fill="grey" stroke="grey" stroke-width="2" points="497.02,-480.37 487.33,-476.1 492.25,-485.49 497.02,-480.37"/>
</g>
<!-- 6&#45;&gt;5 -->
<g id="edge25" class="edge">
<title>6&#45;&gt;5</title>
<path fill="none" stroke="grey" stroke-width="2" d="M450.21,-439.7C440.83,-431.05 429.32,-420.45 419.09,-411.03"/>
<polygon fill="grey" stroke="grey" stroke-width="2" points="421.3,-408.3 411.57,-404.1 416.55,-413.45 421.3,-408.3"/>
</g>
<!-- 5&#45;&gt;60 -->
<g id="edge132" class="edge">
<title>5&#45;&gt;60</title>
<path fill="none" stroke="grey" stroke-width="2" d="M447.75,-382.97C524.85,-379.64 669.65,-371.65 792,-355 840.98,-348.33 895.99,-337.2 936.22,-328.37"/>
<polygon fill="grey" stroke="grey" stroke-width="2" points="937.11,-331.75 946.11,-326.17 935.59,-324.92 937.11,-331.75"/>
</g>
<!-- 4 -->
<g id="node37" class="node">
<title>4</title>
<path fill="none" stroke="#c6d856" stroke-width="2" d="M402.5,-332C402.5,-332 297.5,-332 297.5,-332 291.5,-332 285.5,-326 285.5,-320 285.5,-320 285.5,-308 285.5,-308 285.5,-302 291.5,-296 297.5,-296 297.5,-296 402.5,-296 402.5,-296 408.5,-296 414.5,-302 414.5,-308 414.5,-308 414.5,-320 414.5,-320 414.5,-326 408.5,-332 402.5,-332"/>
<text text-anchor="middle" x="350" y="-311.5" font-family="sans" font-size="10.00">calculate_surface_area</text>
</g>
<!-- 5&#45;&gt;4 -->
<g id="edge23" class="edge">
<title>5&#45;&gt;4</title>
<path fill="none" stroke="grey" stroke-width="2" d="M382.37,-367.7C377.37,-359.56 371.31,-349.69 365.79,-340.7"/>
<polygon fill="grey" stroke="grey" stroke-width="2" points="368.72,-338.79 360.51,-332.1 362.76,-342.46 368.72,-338.79"/>
</g>
<!-- 40 -->
<g id="node39" class="node">
<title>40</title>
<path fill="none" stroke="#56d8d0" stroke-width="2" d="M214.5,-332C214.5,-332 143.5,-332 143.5,-332 137.5,-332 131.5,-326 131.5,-320 131.5,-320 131.5,-308 131.5,-308 131.5,-302 137.5,-296 143.5,-296 143.5,-296 214.5,-296 214.5,-296 220.5,-296 226.5,-302 226.5,-308 226.5,-308 226.5,-320 226.5,-320 226.5,-326 220.5,-332 214.5,-332"/>
<text text-anchor="middle" x="179" y="-311.5" font-family="sans" font-size="10.00">smooth_surface</text>
</g>
<!-- 5&#45;&gt;40 -->
<g id="edge77" class="edge">
<title>5&#45;&gt;40</title>
<path fill="none" stroke="grey" stroke-width="2" d="M338.27,-372.45C318.76,-367.56 296.74,-361.55 277,-355 260.53,-349.54 242.88,-342.66 227.16,-336.16"/>
<polygon fill="grey" stroke="grey" stroke-width="2" points="228.23,-332.81 217.65,-332.18 225.53,-339.27 228.23,-332.81"/>
</g>
<!-- 41 -->
<g id="node41" class="node">
<title>41</title>
<path fill="none" stroke="#d87d56" stroke-width="2" d="M578,-260C578,-260 420,-260 420,-260 414,-260 408,-254 408,-248 408,-248 408,-236 408,-236 408,-230 414,-224 420,-224 420,-224 578,-224 578,-224 584,-224 590,-230 590,-236 590,-236 590,-248 590,-248 590,-254 584,-260 578,-260"/>
<text text-anchor="middle" x="499" y="-239.5" font-family="sans" font-size="10.00">calculate_thickness_from_surface</text>
</g>
<!-- 5&#45;&gt;41 -->
<g id="edge78" class="edge">
<title>5&#45;&gt;41</title>
<path fill="none" stroke="grey" stroke-width="2" d="M412.01,-367.84C416.14,-363.79 420.35,-359.37 424,-355 447.18,-327.25 469.7,-292.21 483.91,-268.78"/>
<polygon fill="grey" stroke="grey" stroke-width="2" points="486.97,-270.48 489.11,-260.1 480.97,-266.88 486.97,-270.48"/>
</g>
<!-- 5&#45;&gt;2 -->
<g id="edge18" class="edge">
<title>5&#45;&gt;2</title>
<path fill="none" stroke="grey" stroke-width="2" d="M447.86,-369.02C497.48,-351.3 567.43,-317.36 599,-260 626.7,-209.67 570.11,-153.11 531.32,-122.22"/>
<polygon fill="grey" stroke="grey" stroke-width="2" points="533.39,-119.4 523.34,-116.04 529.1,-124.93 533.39,-119.4"/>
</g>
<!-- 5&#45;&gt;45 -->
<g id="edge85" class="edge">
<title>5&#45;&gt;45</title>
<path fill="none" stroke="grey" stroke-width="2" d="M338.22,-384.34C269.72,-382.6 157.16,-376.45 122,-355 78.75,-328.62 73.62,-308.51 59,-260 40.27,-197.85 112.38,-147.64 163.64,-120.66"/>
<polygon fill="grey" stroke="grey" stroke-width="2" points="165.33,-123.73 172.63,-116.05 162.13,-117.5 165.33,-123.73"/>
</g>
<!-- 3 -->
<g id="node38" class="node">
<title>3</title>
<path fill="none" stroke="#565bd8" stroke-width="2" d="M377.5,-260C377.5,-260 280.5,-260 280.5,-260 274.5,-260 268.5,-254 268.5,-248 268.5,-248 268.5,-236 268.5,-236 268.5,-230 274.5,-224 280.5,-224 280.5,-224 377.5,-224 377.5,-224 383.5,-224 389.5,-230 389.5,-236 389.5,-236 389.5,-248 389.5,-248 389.5,-254 383.5,-260 377.5,-260"/>
<text text-anchor="middle" x="329" y="-239.5" font-family="sans" font-size="10.00">calculate_gyrification</text>
</g>
<!-- 4&#45;&gt;3 -->
<g id="edge22" class="edge">
<title>4&#45;&gt;3</title>
<path fill="none" stroke="grey" stroke-width="2" d="M344.81,-295.7C342.47,-287.9 339.65,-278.51 337.05,-269.83"/>
<polygon fill="grey" stroke="grey" stroke-width="2" points="340.36,-268.68 334.13,-260.1 333.65,-270.69 340.36,-268.68"/>
</g>
<!-- 44 -->
<g id="node44" class="node">
<title>44</title>
<path fill="none" stroke="#56d86b" stroke-width="2" d="M391,-188C391,-188 267,-188 267,-188 261,-188 255,-182 255,-176 255,-176 255,-164 255,-164 255,-158 261,-152 267,-152 267,-152 391,-152 391,-152 397,-152 403,-158 403,-164 403,-164 403,-176 403,-176 403,-182 397,-188 391,-188"/>
<text text-anchor="middle" x="329" y="-167.5" font-family="sans" font-size="10.00">create_dscalar_metric_cifti</text>
</g>
<!-- 3&#45;&gt;44 -->
<g id="edge83" class="edge">
<title>3&#45;&gt;44</title>
<path fill="none" stroke="grey" stroke-width="2" d="M329,-223.7C329,-215.98 329,-206.71 329,-198.11"/>
<polygon fill="grey" stroke="grey" stroke-width="2" points="332.5,-198.1 329,-188.1 325.5,-198.1 332.5,-198.1"/>
</g>
<!-- 3&#45;&gt;2 -->
<g id="edge21" class="edge">
<title>3&#45;&gt;2</title>
<path fill="none" stroke="grey" stroke-width="2" d="M359.32,-223.92C375.56,-214.22 395.55,-201.37 412,-188 436.21,-168.32 460.78,-142.53 477.61,-123.78"/>
<polygon fill="grey" stroke="grey" stroke-width="2" points="480.3,-126.02 484.32,-116.22 475.07,-121.37 480.3,-126.02"/>
</g>
<!-- 3&#45;&gt;45 -->
<g id="edge88" class="edge">
<title>3&#45;&gt;45</title>
<path fill="none" stroke="grey" stroke-width="2" d="M291.73,-223.83C275.89,-214.99 258.28,-202.92 246,-188 231.13,-169.94 222.03,-144.79 216.85,-125.84"/>
<polygon fill="grey" stroke="grey" stroke-width="2" points="220.21,-124.86 214.36,-116.03 213.43,-126.58 220.21,-124.86"/>
</g>
<!-- 39 -->
<g id="node40" class="node">
<title>39</title>
<path fill="none" stroke="#5692d8" stroke-width="2" d="M238,-260C238,-260 80,-260 80,-260 74,-260 68,-254 68,-248 68,-248 68,-236 68,-236 68,-230 74,-224 80,-224 80,-224 238,-224 238,-224 244,-224 250,-230 250,-236 250,-236 250,-248 250,-248 250,-254 244,-260 238,-260"/>
<text text-anchor="middle" x="159" y="-239.5" font-family="sans" font-size="10.00">calculate_curvature_from_surface</text>
</g>
<!-- 40&#45;&gt;39 -->
<g id="edge76" class="edge">
<title>40&#45;&gt;39</title>
<path fill="none" stroke="grey" stroke-width="2" d="M174.06,-295.7C171.83,-287.9 169.15,-278.51 166.67,-269.83"/>
<polygon fill="grey" stroke="grey" stroke-width="2" points="170,-268.76 163.89,-260.1 163.27,-270.68 170,-268.76"/>
</g>
<!-- 39&#45;&gt;44 -->
<g id="edge82" class="edge">
<title>39&#45;&gt;44</title>
<path fill="none" stroke="grey" stroke-width="2" d="M200.59,-223.88C224.03,-214.22 253.5,-202.09 278.3,-191.88"/>
<polygon fill="grey" stroke="grey" stroke-width="2" points="279.63,-195.11 287.55,-188.07 276.97,-188.64 279.63,-195.11"/>
</g>
<!-- 39&#45;&gt;2 -->
<g id="edge15" class="edge">
<title>39&#45;&gt;2</title>
<path fill="none" stroke="grey" stroke-width="2" d="M170.69,-223.96C185.67,-203.51 213.6,-169.77 246,-152 302.37,-121.08 374.89,-108.17 427.82,-102.8"/>
<polygon fill="grey" stroke="grey" stroke-width="2" points="428.18,-106.28 437.8,-101.85 427.51,-99.31 428.18,-106.28"/>
</g>
<!-- 39&#45;&gt;45 -->
<g id="edge84" class="edge">
<title>39&#45;&gt;45</title>
<path fill="none" stroke="grey" stroke-width="2" d="M165.27,-223.87C174.21,-199.46 190.7,-154.43 201.25,-125.64"/>
<polygon fill="grey" stroke="grey" stroke-width="2" points="204.55,-126.78 204.71,-116.19 197.98,-124.38 204.55,-126.78"/>
</g>
<!-- 41&#45;&gt;44 -->
<g id="edge81" class="edge">
<title>41&#45;&gt;44</title>
<path fill="none" stroke="grey" stroke-width="2" d="M457.41,-223.88C433.97,-214.22 404.5,-202.09 379.7,-191.88"/>
<polygon fill="grey" stroke="grey" stroke-width="2" points="381.03,-188.64 370.45,-188.07 378.37,-195.11 381.03,-188.64"/>
</g>
<!-- 41&#45;&gt;2 -->
<g id="edge16" class="edge">
<title>41&#45;&gt;2</title>
<path fill="none" stroke="grey" stroke-width="2" d="M499,-223.87C499,-199.67 499,-155.21 499,-126.39"/>
<polygon fill="grey" stroke="grey" stroke-width="2" points="502.5,-126.19 499,-116.19 495.5,-126.19 502.5,-126.19"/>
</g>
<!-- 42 -->
<g id="node43" class="node">
<title>42</title>
<path fill="none" stroke="#d8bc56" stroke-width="2" d="M738,-188C738,-188 672,-188 672,-188 666,-188 660,-182 660,-176 660,-176 660,-164 660,-164 660,-158 666,-152 672,-152 672,-152 738,-152 738,-152 744,-152 750,-158 750,-164 750,-164 750,-176 750,-176 750,-182 744,-188 738,-188"/>
<text text-anchor="middle" x="705" y="-167.5" font-family="sans" font-size="10.00">nii_to_label_gii</text>
</g>
<!-- 43&#45;&gt;42 -->
<g id="edge79" class="edge">
<title>43&#45;&gt;42</title>
<path fill="none" stroke="grey" stroke-width="2" d="M714.79,-223.7C713.35,-215.98 711.63,-206.71 710.04,-198.11"/>
<polygon fill="grey" stroke="grey" stroke-width="2" points="713.44,-197.3 708.18,-188.1 706.56,-198.58 713.44,-197.3"/>
</g>
<!-- 43&#45;&gt;51 -->
<g id="edge106" class="edge">
<title>43&#45;&gt;51</title>
<path fill="none" stroke="grey" stroke-width="2" d="M788.08,-254.75C820.56,-262.62 858.43,-275.45 888,-296 934.83,-328.55 997.42,-467.56 1045,-499 1049.96,-502.28 1055.27,-505.2 1060.77,-507.8"/>
<polygon fill="grey" stroke="grey" stroke-width="2" points="1059.63,-511.12 1070.2,-511.89 1062.41,-504.7 1059.63,-511.12"/>
</g>
<!-- 42&#45;&gt;2 -->
<g id="edge17" class="edge">
<title>42&#45;&gt;2</title>
<path fill="none" stroke="grey" stroke-width="2" d="M659.79,-153.64C630.17,-143.57 591.11,-130.3 558.91,-119.36"/>
<polygon fill="grey" stroke="grey" stroke-width="2" points="559.75,-115.95 549.16,-116.04 557.5,-122.58 559.75,-115.95"/>
</g>
<!-- 44&#45;&gt;2 -->
<g id="edge19" class="edge">
<title>44&#45;&gt;2</title>
<path fill="none" stroke="grey" stroke-width="2" d="M370.59,-151.88C394.03,-142.22 423.5,-130.09 448.3,-119.88"/>
<polygon fill="grey" stroke="grey" stroke-width="2" points="449.63,-123.11 457.55,-116.07 446.97,-116.64 449.63,-123.11"/>
</g>
<!-- 44&#45;&gt;45 -->
<g id="edge86" class="edge">
<title>44&#45;&gt;45</title>
<path fill="none" stroke="grey" stroke-width="2" d="M300.13,-151.88C284.71,-142.72 265.52,-131.34 248.9,-121.48"/>
<polygon fill="grey" stroke="grey" stroke-width="2" points="250.36,-118.28 239.98,-116.19 246.79,-124.3 250.36,-118.28"/>
</g>
<!-- 1 -->
<g id="node47" class="node">
<title>1</title>
<path fill="none" stroke="#d8ac56" stroke-width="2" d="M541,-44C541,-44 457,-44 457,-44 451,-44 445,-38 445,-32 445,-32 445,-20 445,-20 445,-14 451,-8 457,-8 457,-8 541,-8 541,-8 547,-8 553,-14 553,-20 553,-20 553,-32 553,-32 553,-38 547,-44 541,-44"/>
<text text-anchor="middle" x="499" y="-23.5" font-family="sans" font-size="10.00">merge_lr_spec_file</text>
</g>
<!-- 2&#45;&gt;1 -->
<g id="edge14" class="edge">
<title>2&#45;&gt;1</title>
<path fill="none" stroke="grey" stroke-width="2" d="M499,-79.7C499,-71.98 499,-62.71 499,-54.11"/>
<polygon fill="grey" stroke="grey" stroke-width="2" points="502.5,-54.1 499,-44.1 495.5,-54.1 502.5,-54.1"/>
</g>
<!-- 45&#45;&gt;1 -->
<g id="edge13" class="edge">
<title>45&#45;&gt;1</title>
<path fill="none" stroke="grey" stroke-width="2" d="M280.35,-80.14C327.33,-68.72 388.97,-53.74 434.83,-42.6"/>
<polygon fill="grey" stroke="grey" stroke-width="2" points="435.76,-45.97 444.65,-40.21 434.11,-39.17 435.76,-45.97"/>
</g>
<!-- 1&#45;&gt;0 -->
<g id="edge7" class="edge">
<title>1&#45;&gt;0</title>
<path fill="none" stroke="grey" stroke-width="2" d="M553.05,-35.04C726.93,-60.89 1269.14,-141.51 1416.64,-163.44"/>
<polygon fill="grey" stroke="grey" stroke-width="2" points="1416.55,-166.97 1426.96,-164.98 1417.58,-160.05 1416.55,-166.97"/>
</g>
<!-- 30 -->
<g id="node48" class="node">
<title>30</title>
<path fill="none" stroke="#8fd856" stroke-width="2" d="M1244,-1052C1244,-1052 1144,-1052 1144,-1052 1138,-1052 1132,-1046 1132,-1040 1132,-1040 1132,-1028 1132,-1028 1132,-1022 1138,-1016 1144,-1016 1144,-1016 1244,-1016 1244,-1016 1250,-1016 1256,-1022 1256,-1028 1256,-1028 1256,-1040 1256,-1040 1256,-1046 1250,-1052 1244,-1052"/>
<text text-anchor="middle" x="1194" y="-1031.5" font-family="sans" font-size="10.00">prep_segs_for_greedy</text>
</g>
<!-- 29 -->
<g id="node50" class="node">
<title>29</title>
<path fill="none" stroke="#56d8b1" stroke-width="2" d="M1394,-980C1394,-980 1302,-980 1302,-980 1296,-980 1290,-974 1290,-968 1290,-968 1290,-956 1290,-956 1290,-950 1296,-944 1302,-944 1302,-944 1394,-944 1394,-944 1400,-944 1406,-950 1406,-956 1406,-956 1406,-968 1406,-968 1406,-974 1400,-980 1394,-980"/>
<text text-anchor="middle" x="1348" y="-959.5" font-family="sans" font-size="10.00">template_shape_reg</text>
</g>
<!-- 30&#45;&gt;29 -->
<g id="edge62" class="edge">
<title>30&#45;&gt;29</title>
<path fill="none" stroke="grey" stroke-width="2" d="M1231.67,-1015.88C1252.63,-1006.35 1278.9,-994.41 1301.18,-984.28"/>
<polygon fill="grey" stroke="grey" stroke-width="2" points="1302.79,-987.39 1310.45,-980.07 1299.9,-981.02 1302.79,-987.39"/>
</g>
<!-- 15 -->
<g id="node49" class="node">
<title>15</title>
<path fill="none" stroke="#d89c56" stroke-width="2" d="M1291.5,-1124C1291.5,-1124 1182.5,-1124 1182.5,-1124 1176.5,-1124 1170.5,-1118 1170.5,-1112 1170.5,-1112 1170.5,-1100 1170.5,-1100 1170.5,-1094 1176.5,-1088 1182.5,-1088 1182.5,-1088 1291.5,-1088 1291.5,-1088 1297.5,-1088 1303.5,-1094 1303.5,-1100 1303.5,-1100 1303.5,-1112 1303.5,-1112 1303.5,-1118 1297.5,-1124 1291.5,-1124"/>
<text text-anchor="middle" x="1237" y="-1103.5" font-family="sans" font-size="10.00">import_template_shape</text>
</g>
<!-- 15&#45;&gt;30 -->
<g id="edge64" class="edge">
<title>15&#45;&gt;30</title>
<path fill="none" stroke="grey" stroke-width="2" d="M1226.37,-1087.7C1221.37,-1079.56 1215.31,-1069.69 1209.79,-1060.7"/>
<polygon fill="grey" stroke="grey" stroke-width="2" points="1212.72,-1058.79 1204.51,-1052.1 1206.76,-1062.46 1212.72,-1058.79"/>
</g>
<!-- 14 -->
<g id="node51" class="node">
<title>14</title>
<path fill="none" stroke="#d8c356" stroke-width="2" d="M1248,-908C1248,-908 1144,-908 1144,-908 1138,-908 1132,-902 1132,-896 1132,-896 1132,-884 1132,-884 1132,-878 1138,-872 1144,-872 1144,-872 1248,-872 1248,-872 1254,-872 1260,-878 1260,-884 1260,-884 1260,-896 1260,-896 1260,-902 1254,-908 1248,-908"/>
<text text-anchor="middle" x="1196" y="-887.5" font-family="sans" font-size="10.00">template_shape_inject</text>
</g>
<!-- 15&#45;&gt;14 -->
<g id="edge46" class="edge">
<title>15&#45;&gt;14</title>
<path fill="none" stroke="grey" stroke-width="2" d="M1248.89,-1087.72C1255.01,-1077.76 1261.84,-1064.73 1265,-1052 1268.85,-1036.47 1268.99,-1031.49 1265,-1016 1255.36,-978.59 1231.88,-940.4 1214.99,-916.24"/>
<polygon fill="grey" stroke="grey" stroke-width="2" points="1217.76,-914.11 1209.1,-908.01 1212.07,-918.18 1217.76,-914.11"/>
</g>
<!-- 29&#45;&gt;14 -->
<g id="edge44" class="edge">
<title>29&#45;&gt;14</title>
<path fill="none" stroke="grey" stroke-width="2" d="M1310.82,-943.88C1290.13,-934.35 1264.2,-922.41 1242.22,-912.28"/>
<polygon fill="grey" stroke="grey" stroke-width="2" points="1243.61,-909.07 1233.06,-908.07 1240.68,-915.43 1243.61,-909.07"/>
</g>
<!-- 31 -->
<g id="node52" class="node">
<title>31</title>
<path fill="none" stroke="#56d89a" stroke-width="2" d="M1409.5,-908C1409.5,-908 1290.5,-908 1290.5,-908 1284.5,-908 1278.5,-902 1278.5,-896 1278.5,-896 1278.5,-884 1278.5,-884 1278.5,-878 1284.5,-872 1290.5,-872 1290.5,-872 1409.5,-872 1409.5,-872 1415.5,-872 1421.5,-878 1421.5,-884 1421.5,-884 1421.5,-896 1421.5,-896 1421.5,-902 1415.5,-908 1409.5,-908"/>
<text text-anchor="middle" x="1350" y="-887.5" font-family="sans" font-size="10.00">inject_init_laplace_coords</text>
</g>
<!-- 29&#45;&gt;31 -->
<g id="edge65" class="edge">
<title>29&#45;&gt;31</title>
<path fill="none" stroke="grey" stroke-width="2" d="M1348.49,-943.7C1348.71,-935.98 1348.98,-926.71 1349.23,-918.11"/>
<polygon fill="grey" stroke="grey" stroke-width="2" points="1352.72,-918.2 1349.51,-908.1 1345.73,-918 1352.72,-918.2"/>
</g>
<!-- 13 -->
<g id="node53" class="node">
<title>13</title>
<path fill="none" stroke="#d87556" stroke-width="2" d="M1259.5,-836C1259.5,-836 1154.5,-836 1154.5,-836 1148.5,-836 1142.5,-830 1142.5,-824 1142.5,-824 1142.5,-812 1142.5,-812 1142.5,-806 1148.5,-800 1154.5,-800 1154.5,-800 1259.5,-800 1259.5,-800 1265.5,-800 1271.5,-806 1271.5,-812 1271.5,-812 1271.5,-824 1271.5,-824 1271.5,-830 1265.5,-836 1259.5,-836"/>
<text text-anchor="middle" x="1207" y="-815.5" font-family="sans" font-size="10.00">reinsert_subject_labels</text>
</g>
<!-- 14&#45;&gt;13 -->
<g id="edge42" class="edge">
<title>14&#45;&gt;13</title>
<path fill="none" stroke="grey" stroke-width="2" d="M1198.72,-871.7C1199.93,-863.98 1201.39,-854.71 1202.74,-846.11"/>
<polygon fill="grey" stroke="grey" stroke-width="2" points="1206.22,-846.53 1204.31,-836.1 1199.3,-845.44 1206.22,-846.53"/>
</g>
<!-- 31&#45;&gt;12 -->
<g id="edge40" class="edge">
<title>31&#45;&gt;12</title>
<path fill="none" stroke="grey" stroke-width="2" d="M1400.21,-871.98C1453.16,-853.4 1538.52,-821.63 1609,-787 1619.63,-781.78 1630.81,-775.46 1640.92,-769.4"/>
<polygon fill="grey" stroke="grey" stroke-width="2" points="1642.78,-772.37 1649.5,-764.18 1639.14,-766.39 1642.78,-772.37"/>
</g>
<!-- 31&#45;&gt;47 -->
<g id="edge94" class="edge">
<title>31&#45;&gt;47</title>
<path fill="none" stroke="grey" stroke-width="2" d="M1421.51,-875.74C1501.51,-859.7 1634.15,-829.46 1743,-787 1755.82,-782 1769.25,-775.34 1781.14,-768.88"/>
<polygon fill="grey" stroke="grey" stroke-width="2" points="1782.86,-771.93 1789.9,-764.02 1779.46,-765.81 1782.86,-771.93"/>
</g>
<!-- 13&#45;&gt;12 -->
<g id="edge41" class="edge">
<title>13&#45;&gt;12</title>
<path fill="none" stroke="grey" stroke-width="2" d="M1271.58,-808.86C1298.29,-805.72 1329.6,-802.33 1358,-800 1413.67,-795.43 1555.56,-803.24 1609,-787 1621.56,-783.18 1634.2,-776.53 1645.08,-769.73"/>
<polygon fill="grey" stroke="grey" stroke-width="2" points="1647.31,-772.45 1653.75,-764.04 1643.47,-766.6 1647.31,-772.45"/>
</g>
<!-- 13&#45;&gt;34 -->
<g id="edge69" class="edge">
<title>13&#45;&gt;34</title>
<path fill="none" stroke="grey" stroke-width="2" d="M1271.55,-809.83C1325.37,-803.54 1397.66,-794.29 1426,-787 1444.81,-782.16 1464.87,-774.97 1482.29,-768.01"/>
<polygon fill="grey" stroke="grey" stroke-width="2" points="1483.74,-771.2 1491.68,-764.18 1481.1,-764.71 1483.74,-771.2"/>
</g>
<!-- 50 -->
<g id="node54" class="node">
<title>50</title>
<path fill="none" stroke="#56d89a" stroke-width="2" d="M1249.5,-764C1249.5,-764 1182.5,-764 1182.5,-764 1176.5,-764 1170.5,-758 1170.5,-752 1170.5,-752 1170.5,-740 1170.5,-740 1170.5,-734 1176.5,-728 1182.5,-728 1182.5,-728 1249.5,-728 1249.5,-728 1255.5,-728 1261.5,-734 1261.5,-740 1261.5,-740 1261.5,-752 1261.5,-752 1261.5,-758 1255.5,-764 1249.5,-764"/>
<text text-anchor="middle" x="1216" y="-743.5" font-family="sans" font-size="10.00">unflip_postproc</text>
</g>
<!-- 13&#45;&gt;50 -->
<g id="edge101" class="edge">
<title>13&#45;&gt;50</title>
<path fill="none" stroke="grey" stroke-width="2" d="M1209.22,-799.7C1210.22,-791.98 1211.41,-782.71 1212.51,-774.11"/>
<polygon fill="grey" stroke="grey" stroke-width="2" points="1216,-774.47 1213.8,-764.1 1209.05,-773.58 1216,-774.47"/>
</g>
<!-- 49 -->
<g id="node56" class="node">
<title>49</title>
<path fill="none" stroke="#566bd8" stroke-width="2" d="M1248,-476C1248,-476 1066,-476 1066,-476 1060,-476 1054,-470 1054,-464 1054,-464 1054,-452 1054,-452 1054,-446 1060,-440 1066,-440 1066,-440 1248,-440 1248,-440 1254,-440 1260,-446 1260,-452 1260,-452 1260,-464 1260,-464 1260,-470 1254,-476 1248,-476"/>
<text text-anchor="middle" x="1157" y="-455.5" font-family="sans" font-size="10.00">combine_tissue_subfield_labels_corobl</text>
</g>
<!-- 13&#45;&gt;49 -->
<g id="edge99" class="edge">
<title>13&#45;&gt;49</title>
<path fill="none" stroke="grey" stroke-width="2" d="M1176.98,-799.68C1171.66,-795.89 1166.42,-791.61 1162,-787 1084.33,-705.93 1061.23,-679.13 1031,-571 1023.94,-545.75 1016.49,-533.84 1031,-512 1040.13,-498.25 1053.61,-488.06 1068.39,-480.51"/>
<polygon fill="grey" stroke="grey" stroke-width="2" points="1070.16,-483.54 1077.73,-476.14 1067.19,-477.2 1070.16,-483.54"/>
</g>
<!-- 50&#45;&gt;49 -->
<g id="edge98" class="edge">
<title>50&#45;&gt;49</title>
<path fill="none" stroke="grey" stroke-width="2" d="M1203.87,-727.88C1180.85,-696.31 1127.97,-628.09 1071,-584 1061.1,-576.34 1052.5,-581.71 1046,-571 1032.39,-548.59 1032.01,-534.18 1046,-512 1054.63,-498.31 1067.88,-488.09 1082.25,-480.47"/>
<polygon fill="grey" stroke="grey" stroke-width="2" points="1083.86,-483.58 1091.32,-476.05 1080.79,-477.29 1083.86,-483.58"/>
</g>
<!-- 51&#45;&gt;49 -->
<g id="edge100" class="edge">
<title>51&#45;&gt;49</title>
<path fill="none" stroke="grey" stroke-width="2" d="M1159.26,-511.7C1158.93,-503.98 1158.53,-494.71 1158.16,-486.11"/>
<polygon fill="grey" stroke="grey" stroke-width="2" points="1161.66,-485.95 1157.73,-476.1 1154.66,-486.25 1161.66,-485.95"/>
</g>
<!-- 49&#45;&gt;53 -->
<g id="edge108" class="edge">
<title>49&#45;&gt;53</title>
<path fill="none" stroke="grey" stroke-width="2" d="M1154.28,-439.7C1153.07,-431.98 1151.61,-422.71 1150.26,-414.11"/>
<polygon fill="grey" stroke="grey" stroke-width="2" points="1153.7,-413.44 1148.69,-404.1 1146.78,-414.53 1153.7,-413.44"/>
</g>
<!-- 49&#45;&gt;48 -->
<g id="edge95" class="edge">
<title>49&#45;&gt;48</title>
<path fill="none" stroke="grey" stroke-width="2" d="M1204.7,-439.97C1232.08,-430.19 1266.66,-417.84 1295.53,-407.52"/>
<polygon fill="grey" stroke="grey" stroke-width="2" points="1296.85,-410.77 1305.09,-404.11 1294.5,-404.18 1296.85,-410.77"/>
</g>
<!-- 52 -->
<g id="node62" class="node">
<title>52</title>
<path fill="none" stroke="#d89c56" stroke-width="2" d="M1394,-476C1394,-476 1290,-476 1290,-476 1284,-476 1278,-470 1278,-464 1278,-464 1278,-452 1278,-452 1278,-446 1284,-440 1290,-440 1290,-440 1394,-440 1394,-440 1400,-440 1406,-446 1406,-452 1406,-452 1406,-464 1406,-464 1406,-470 1400,-476 1394,-476"/>
<text text-anchor="middle" x="1342" y="-455.5" font-family="sans" font-size="10.00">create_native_crop_ref</text>
</g>
<!-- 53&#45;&gt;52 -->
<g id="edge107" class="edge">
<title>53&#45;&gt;52</title>
<path fill="none" stroke="grey" stroke-width="2" d="M1193.91,-404.11C1221.33,-413.9 1255.91,-426.25 1284.76,-436.56"/>
<polygon fill="grey" stroke="grey" stroke-width="2" points="1283.71,-439.9 1294.3,-439.97 1286.06,-433.31 1283.71,-439.9"/>
</g>
<!-- 16&#45;&gt;30 -->
<g id="edge63" class="edge">
<title>16&#45;&gt;30</title>
<path fill="none" stroke="grey" stroke-width="2" d="M923.94,-972.41C974.6,-983.77 1060.63,-1003.08 1121.98,-1016.84"/>
<polygon fill="grey" stroke="grey" stroke-width="2" points="1121.46,-1020.31 1131.99,-1019.09 1122.99,-1013.48 1121.46,-1020.31"/>
</g>
<!-- 16&#45;&gt;14 -->
<g id="edge45" class="edge">
<title>16&#45;&gt;14</title>
<path fill="none" stroke="grey" stroke-width="2" d="M923.7,-951.7C974.11,-940.47 1059.86,-921.35 1121.69,-907.57"/>
<polygon fill="grey" stroke="grey" stroke-width="2" points="1122.78,-910.91 1131.78,-905.32 1121.26,-904.08 1122.78,-910.91"/>
</g>
<!-- 16&#45;&gt;31 -->
<g id="edge66" class="edge">
<title>16&#45;&gt;31</title>
<path fill="none" stroke="grey" stroke-width="2" d="M923.67,-956.27C993.01,-948.2 1136.64,-930.56 1268.61,-908"/>
<polygon fill="grey" stroke="grey" stroke-width="2" points="1269.24,-911.44 1278.5,-906.29 1268.05,-904.54 1269.24,-911.44"/>
</g>
<!-- 16&#45;&gt;13 -->
<g id="edge43" class="edge">
<title>16&#45;&gt;13</title>
<path fill="none" stroke="grey" stroke-width="2" d="M921.2,-943.87C980.82,-917.82 1094.16,-868.3 1158.75,-840.08"/>
<polygon fill="grey" stroke="grey" stroke-width="2" points="1160.15,-843.29 1167.91,-836.08 1157.35,-836.88 1160.15,-843.29"/>
</g>
<!-- 65 -->
<g id="node59" class="node">
<title>65</title>
<path fill="none" stroke="#88d856" stroke-width="2" d="M892,-908C892,-908 816,-908 816,-908 810,-908 804,-902 804,-896 804,-896 804,-884 804,-884 804,-878 810,-872 816,-872 816,-872 892,-872 892,-872 898,-872 904,-878 904,-884 904,-884 904,-896 904,-896 904,-902 898,-908 892,-908"/>
<text text-anchor="middle" x="854" y="-887.5" font-family="sans" font-size="10.00">unflip_nnunet_nii</text>
</g>
<!-- 16&#45;&gt;65 -->
<g id="edge139" class="edge">
<title>16&#45;&gt;65</title>
<path fill="none" stroke="grey" stroke-width="2" d="M875.08,-943.7C871.93,-935.81 868.12,-926.3 864.62,-917.55"/>
<polygon fill="grey" stroke="grey" stroke-width="2" points="867.81,-916.09 860.84,-908.1 861.31,-918.69 867.81,-916.09"/>
</g>
<!-- 16&#45;&gt;64 -->
<g id="edge138" class="edge">
<title>16&#45;&gt;64</title>
<path fill="none" stroke="grey" stroke-width="2" d="M895.57,-943.72C908.04,-925.62 923.14,-896.49 913,-872 908.46,-861.03 900.41,-851.14 891.95,-842.96"/>
<polygon fill="grey" stroke="grey" stroke-width="2" points="894.25,-840.33 884.48,-836.23 889.56,-845.53 894.25,-840.33"/>
</g>
<!-- 65&#45;&gt;64 -->
<g id="edge136" class="edge">
<title>65&#45;&gt;64</title>
<path fill="none" stroke="grey" stroke-width="2" d="M855.48,-871.7C856.14,-863.98 856.94,-854.71 857.68,-846.11"/>
<polygon fill="grey" stroke="grey" stroke-width="2" points="861.17,-846.37 858.53,-836.1 854.19,-845.77 861.17,-846.37"/>
</g>
<!-- 63 -->
<g id="node61" class="node">
<title>63</title>
<path fill="none" stroke="#56d8a2" stroke-width="2" d="M905,-764C905,-764 837,-764 837,-764 831,-764 825,-758 825,-752 825,-752 825,-740 825,-740 825,-734 831,-728 837,-728 837,-728 905,-728 905,-728 911,-728 917,-734 917,-740 917,-740 917,-752 917,-752 917,-758 911,-764 905,-764"/>
<text text-anchor="middle" x="871" y="-743.5" font-family="sans" font-size="10.00">qc_nnunet_dice</text>
</g>
<!-- 64&#45;&gt;63 -->
<g id="edge135" class="edge">
<title>64&#45;&gt;63</title>
<path fill="none" stroke="grey" stroke-width="2" d="M862.72,-799.7C863.93,-791.98 865.39,-782.71 866.74,-774.11"/>
<polygon fill="grey" stroke="grey" stroke-width="2" points="870.22,-774.53 868.31,-764.1 863.3,-773.44 870.22,-774.53"/>
</g>
<!-- 63&#45;&gt;0 -->
<g id="edge5" class="edge">
<title>63&#45;&gt;0</title>
<path fill="none" stroke="grey" stroke-width="2" d="M869.16,-727.79C865.64,-687.6 861.29,-585.38 898,-512 939.64,-428.78 964.19,-404 1050,-368 1087.01,-352.47 1380.01,-380.51 1411,-355 1457.27,-316.92 1459.4,-239.49 1456.83,-198.27"/>
<polygon fill="grey" stroke="grey" stroke-width="2" points="1460.3,-197.84 1456.05,-188.13 1453.32,-198.37 1460.3,-197.84"/>
</g>
<!-- 52&#45;&gt;56 -->
<g id="edge126" class="edge">
<title>52&#45;&gt;56</title>
<path fill="none" stroke="grey" stroke-width="2" d="M1406.25,-458C1601.54,-458 1796.82,-458 1992.11,-458"/>
<polygon fill="grey" stroke="grey" stroke-width="2" points="1992.3,-461.5 2002.3,-458 1992.3,-454.5 1992.3,-461.5"/>
</g>
<!-- 52&#45;&gt;48 -->
<g id="edge96" class="edge">
<title>52&#45;&gt;48</title>
<path fill="none" stroke="grey" stroke-width="2" d="M1344.72,-439.7C1345.93,-431.98 1347.39,-422.71 1348.74,-414.11"/>
<polygon fill="grey" stroke="grey" stroke-width="2" points="1352.22,-414.53 1350.31,-404.1 1345.3,-413.44 1352.22,-414.53"/>
</g>
<!-- 52&#45;&gt;54 -->
<g id="edge117" class="edge">
<title>52&#45;&gt;54</title>
<path fill="none" stroke="grey" stroke-width="2" d="M1406.29,-444.32C1462.05,-433.33 1543.39,-417.29 1605.86,-404.97"/>
<polygon fill="grey" stroke="grey" stroke-width="2" points="1606.59,-408.4 1615.72,-403.03 1605.23,-401.53 1606.59,-408.4"/>
</g>
<!-- 52&#45;&gt;57 -->
<g id="edge128" class="edge">
<title>52&#45;&gt;57</title>
<path fill="none" stroke="grey" stroke-width="2" d="M1387.5,-439.88C1413.38,-430.14 1445.97,-417.87 1473.24,-407.61"/>
<polygon fill="grey" stroke="grey" stroke-width="2" points="1474.52,-410.87 1482.65,-404.07 1472.06,-404.31 1474.52,-410.87"/>
</g>
<!-- 48&#45;&gt;62 -->
<g id="edge134" class="edge">
<title>48&#45;&gt;62</title>
<path fill="none" stroke="grey" stroke-width="2" d="M1350.53,-367.7C1349.43,-359.98 1348.1,-350.71 1346.87,-342.11"/>
<polygon fill="grey" stroke="grey" stroke-width="2" points="1350.32,-341.51 1345.44,-332.1 1343.39,-342.5 1350.32,-341.51"/>
</g>
<!-- 48&#45;&gt;59 -->
<g id="edge130" class="edge">
<title>48&#45;&gt;59</title>
<path fill="none" stroke="grey" stroke-width="2" d="M1297.43,-367.91C1288.33,-364.2 1279.2,-359.9 1271,-355 1263.68,-350.63 1256.46,-344.98 1250.01,-339.31"/>
<polygon fill="grey" stroke="grey" stroke-width="2" points="1252.04,-336.42 1242.32,-332.22 1247.3,-341.57 1252.04,-336.42"/>
</g>
<!-- 48&#45;&gt;0 -->
<g id="edge3" class="edge">
<title>48&#45;&gt;0</title>
<path fill="none" stroke="grey" stroke-width="2" d="M1435.44,-367.72C1440.58,-364.21 1445.21,-360.01 1449,-355 1483.62,-309.22 1472.12,-237.1 1462.18,-198.14"/>
<polygon fill="grey" stroke="grey" stroke-width="2" points="1465.45,-196.82 1459.45,-188.08 1458.69,-198.65 1465.45,-196.82"/>
</g>
<!-- 54&#45;&gt;0 -->
<g id="edge1" class="edge">
<title>54&#45;&gt;0</title>
<path fill="none" stroke="grey" stroke-width="2" d="M1677.53,-367.85C1634.42,-329.89 1530.88,-238.7 1481.32,-195.06"/>
<polygon fill="grey" stroke="grey" stroke-width="2" points="1483.39,-192.21 1473.57,-188.23 1478.76,-197.47 1483.39,-192.21"/>
</g>
<!-- 57&#45;&gt;59 -->
<g id="edge131" class="edge">
<title>57&#45;&gt;59</title>
<path fill="none" stroke="grey" stroke-width="2" d="M1457.88,-369.38C1454.89,-368.88 1451.92,-368.42 1449,-368 1409.74,-362.37 1307.53,-370.44 1271,-355 1262.56,-351.43 1254.62,-345.62 1247.83,-339.51"/>
<polygon fill="grey" stroke="grey" stroke-width="2" points="1250.04,-336.78 1240.43,-332.33 1245.16,-341.8 1250.04,-336.78"/>
</g>
<!-- 57&#45;&gt;0 -->
<g id="edge9" class="edge">
<title>57&#45;&gt;0</title>
<path fill="none" stroke="grey" stroke-width="2" d="M1525.44,-367.99C1520.54,-338 1508.39,-274.14 1487,-224 1483.07,-214.77 1477.66,-205.29 1472.37,-196.95"/>
<polygon fill="grey" stroke="grey" stroke-width="2" points="1475.17,-194.83 1466.74,-188.4 1469.32,-198.68 1475.17,-194.83"/>
</g>
</g>
</svg>
