<?xml version="1.0" encoding="UTF-8" standalone="no"?>
<!DOCTYPE svg PUBLIC "-//W3C//DTD SVG 1.1//EN"
 "http://www.w3.org/Graphics/SVG/1.1/DTD/svg11.dtd">
<!-- Generated by graphviz version 2.43.0 (0)
 -->
<!-- Title: snakemake_dag Pages: 1 -->
<svg width="3060pt" height="1307pt"
 viewBox="0.00 0.00 3060.00 1307.00" xmlns="http://www.w3.org/2000/svg" xmlns:xlink="http://www.w3.org/1999/xlink">
<g id="graph0" class="graph" transform="scale(1 1) rotate(0) translate(4 1303)">
<title>snakemake_dag</title>
<polygon fill="white" stroke="transparent" points="-4,4 -4,-1303 3056,-1303 3056,4 -4,4"/>
<g id="clust1" class="cluster">
<title>cluster_0</title>
<polygon fill="white" stroke="blue" points="461,-944 461,-1003 770,-1003 770,-944 461,-944"/>
<text text-anchor="middle" x="615.5" y="-987.8" font-family="Times,serif" font-size="14.00">preproc_t1</text>
</g>
<g id="clust2" class="cluster">
<title>cluster_1</title>
<polygon fill="white" stroke="blue" points="1988,-440 1988,-715 2398,-715 2398,-440 1988,-440"/>
<text text-anchor="middle" x="2193" y="-699.8" font-family="Times,serif" font-size="14.00">warps</text>
</g>
<g id="clust3" class="cluster">
<title>cluster_2</title>
<polygon fill="white" stroke="blue" points="1333,-224 1333,-355 1794,-355 1794,-224 1333,-224"/>
<text text-anchor="middle" x="1563.5" y="-339.8" font-family="Times,serif" font-size="14.00">qc</text>
</g>
<g id="clust4" class="cluster">
<title>cluster_3</title>
<polygon fill="white" stroke="blue" points="997,-584 997,-787 1421,-787 1421,-584 997,-584"/>
<text text-anchor="middle" x="1209" y="-771.8" font-family="Times,serif" font-size="14.00">autotop</text>
</g>
<g id="clust5" class="cluster">
<title>cluster_4</title>
<polygon fill="white" stroke="blue" points="2768,-944 2768,-1291 3044,-1291 3044,-944 2768,-944"/>
<text text-anchor="middle" x="2906" y="-1275.8" font-family="Times,serif" font-size="14.00">preproc_t2</text>
</g>
<g id="clust6" class="cluster">
<title>cluster_5</title>
<polygon fill="white" stroke="blue" points="28,-8 28,-715 788,-715 788,-8 28,-8"/>
<text text-anchor="middle" x="408" y="-699.8" font-family="Times,serif" font-size="14.00">gifti</text>
</g>
<g id="clust7" class="cluster">
<title>cluster_6</title>
<polygon fill="white" stroke="blue" points="1755,-728 1755,-1147 2045,-1147 2045,-728 1755,-728"/>
<text text-anchor="middle" x="1900" y="-1131.8" font-family="Times,serif" font-size="14.00">shape_inject</text>
</g>
<g id="clust8" class="cluster">
<title>cluster_7</title>
<polygon fill="white" stroke="blue" points="1700,-368 1700,-571 1912,-571 1912,-368 1700,-368"/>
<text text-anchor="middle" x="1806" y="-555.8" font-family="Times,serif" font-size="14.00">subfields</text>
</g>
<g id="clust9" class="cluster">
<title>cluster_8</title>
<polygon fill="white" stroke="blue" points="2648,-728 2648,-1003 2768,-1003 2768,-728 2648,-728"/>
<text text-anchor="middle" x="2708" y="-987.8" font-family="Times,serif" font-size="14.00">nnunet</text>
</g>
<g id="clust10" class="cluster">
<title>cluster_9</title>
<polygon fill="white" stroke="blue" points="1188,-368 1188,-499 1700,-499 1700,-368 1188,-368"/>
<text text-anchor="middle" x="1444" y="-483.8" font-family="Times,serif" font-size="14.00">resample_final_to_crop_native</text>
</g>
<!-- 23 -->
<g id="node1" class="node">
<title>23</title>
<path fill="none" stroke="#56d863" stroke-width="2" d="M758.5,-980C758.5,-980 615.5,-980 615.5,-980 609.5,-980 603.5,-974 603.5,-968 603.5,-968 603.5,-956 603.5,-956 603.5,-950 609.5,-944 615.5,-944 615.5,-944 758.5,-944 758.5,-944 764.5,-944 770.5,-950 770.5,-956 770.5,-956 770.5,-968 770.5,-968 770.5,-974 764.5,-980 758.5,-980"/>
<text text-anchor="middle" x="687" y="-959.5" font-family="sans" font-size="10.00">convert_template_xfm_ras2itk</text>
</g>
<!-- 22 -->
<g id="node25" class="node">
<title>22</title>
<path fill="none" stroke="#5673d8" stroke-width="2" d="M2892,-1124C2892,-1124 2780,-1124 2780,-1124 2774,-1124 2768,-1118 2768,-1112 2768,-1112 2768,-1100 2768,-1100 2768,-1094 2774,-1088 2780,-1088 2780,-1088 2892,-1088 2892,-1088 2898,-1088 2904,-1094 2904,-1100 2904,-1100 2904,-1112 2904,-1112 2904,-1118 2898,-1124 2892,-1124"/>
<text text-anchor="middle" x="2836" y="-1103.5" font-family="sans" font-size="10.00">compose_t2_xfm_corobl</text>
</g>
<!-- 23&#45;&gt;22 -->
<g id="edge54" class="edge">
<title>23&#45;&gt;22</title>
<path fill="none" stroke="grey" stroke-width="2" d="M699.42,-980.33C715.93,-1001.75 747.34,-1037.18 784,-1052 807.31,-1061.42 2385.37,-1095.44 2757.85,-1103.35"/>
<polygon fill="grey" stroke="grey" stroke-width="2" points="2757.92,-1106.85 2767.99,-1103.57 2758.07,-1099.85 2757.92,-1106.85"/>
</g>
<!-- 34 -->
<g id="node2" class="node">
<title>34</title>
<path fill="none" stroke="#d85656" stroke-width="2" d="M573.5,-980C573.5,-980 472.5,-980 472.5,-980 466.5,-980 460.5,-974 460.5,-968 460.5,-968 460.5,-956 460.5,-956 460.5,-950 466.5,-944 472.5,-944 472.5,-944 573.5,-944 573.5,-944 579.5,-944 585.5,-950 585.5,-956 585.5,-956 585.5,-968 585.5,-968 585.5,-974 579.5,-980 573.5,-980"/>
<text text-anchor="middle" x="523" y="-959.5" font-family="sans" font-size="10.00">template_xfm_itk2ras</text>
</g>
<!-- 5 -->
<g id="node32" class="node">
<title>5</title>
<path fill="none" stroke="#d8d356" stroke-width="2" d="M455.5,-404C455.5,-404 370.5,-404 370.5,-404 364.5,-404 358.5,-398 358.5,-392 358.5,-392 358.5,-380 358.5,-380 358.5,-374 364.5,-368 370.5,-368 370.5,-368 455.5,-368 455.5,-368 461.5,-368 467.5,-374 467.5,-380 467.5,-380 467.5,-392 467.5,-392 467.5,-398 461.5,-404 455.5,-404"/>
<text text-anchor="middle" x="413" y="-383.5" font-family="sans" font-size="10.00">warp_gii_to_native</text>
</g>
<!-- 34&#45;&gt;5 -->
<g id="edge25" class="edge">
<title>34&#45;&gt;5</title>
<path fill="none" stroke="grey" stroke-width="2" d="M460.43,-957.21C321.61,-947.08 0,-913.44 0,-819 0,-819 0,-819 0,-529 0,-456.32 231.62,-412.86 347.95,-395.62"/>
<polygon fill="grey" stroke="grey" stroke-width="2" points="348.77,-399.03 358.16,-394.13 347.76,-392.11 348.77,-399.03"/>
</g>
<!-- 31 -->
<g id="node3" class="node">
<title>31</title>
<path fill="none" stroke="#56d8b1" stroke-width="2" d="M2312,-620C2312,-620 2202,-620 2202,-620 2196,-620 2190,-614 2190,-608 2190,-608 2190,-596 2190,-596 2190,-590 2196,-584 2202,-584 2202,-584 2312,-584 2312,-584 2318,-584 2324,-590 2324,-596 2324,-596 2324,-608 2324,-608 2324,-614 2318,-620 2312,-620"/>
<text text-anchor="middle" x="2257" y="-599.5" font-family="sans" font-size="10.00">create_native_coord_ref</text>
</g>
<!-- 8 -->
<g id="node6" class="node">
<title>8</title>
<path fill="none" stroke="#5692d8" stroke-width="2" d="M2102,-548C2102,-548 2018,-548 2018,-548 2012,-548 2006,-542 2006,-536 2006,-536 2006,-524 2006,-524 2006,-518 2012,-512 2018,-512 2018,-512 2102,-512 2102,-512 2108,-512 2114,-518 2114,-524 2114,-524 2114,-536 2114,-536 2114,-542 2108,-548 2102,-548"/>
<text text-anchor="middle" x="2060" y="-527.5" font-family="sans" font-size="10.00">create_warps_hipp</text>
</g>
<!-- 31&#45;&gt;8 -->
<g id="edge35" class="edge">
<title>31&#45;&gt;8</title>
<path fill="none" stroke="grey" stroke-width="2" d="M2189.69,-590.41C2168.22,-585.82 2144.69,-579.51 2124,-571 2112.85,-566.41 2101.44,-559.95 2091.41,-553.56"/>
<polygon fill="grey" stroke="grey" stroke-width="2" points="2093.26,-550.59 2082.98,-548.01 2089.4,-556.43 2093.26,-550.59"/>
</g>
<!-- 42 -->
<g id="node7" class="node">
<title>42</title>
<path fill="none" stroke="#56d8d0" stroke-width="2" d="M2245.5,-548C2245.5,-548 2144.5,-548 2144.5,-548 2138.5,-548 2132.5,-542 2132.5,-536 2132.5,-536 2132.5,-524 2132.5,-524 2132.5,-518 2138.5,-512 2144.5,-512 2144.5,-512 2245.5,-512 2245.5,-512 2251.5,-512 2257.5,-518 2257.5,-524 2257.5,-524 2257.5,-536 2257.5,-536 2257.5,-542 2251.5,-548 2245.5,-548"/>
<text text-anchor="middle" x="2195" y="-527.5" font-family="sans" font-size="10.00">create_warps_dentate</text>
</g>
<!-- 31&#45;&gt;42 -->
<g id="edge87" class="edge">
<title>31&#45;&gt;42</title>
<path fill="none" stroke="grey" stroke-width="2" d="M2241.67,-583.7C2234.24,-575.3 2225.18,-565.07 2217.02,-555.86"/>
<polygon fill="grey" stroke="grey" stroke-width="2" points="2219.4,-553.27 2210.15,-548.1 2214.16,-557.91 2219.4,-553.27"/>
</g>
<!-- 9 -->
<g id="node4" class="node">
<title>9</title>
<path fill="none" stroke="#d6d856" stroke-width="2" d="M2127,-692C2127,-692 2049,-692 2049,-692 2043,-692 2037,-686 2037,-680 2037,-680 2037,-668 2037,-668 2037,-662 2043,-656 2049,-656 2049,-656 2127,-656 2127,-656 2133,-656 2139,-662 2139,-668 2139,-668 2139,-680 2139,-680 2139,-686 2133,-692 2127,-692"/>
<text text-anchor="middle" x="2088" y="-671.5" font-family="sans" font-size="10.00">create_unfold_ref</text>
</g>
<!-- 10 -->
<g id="node5" class="node">
<title>10</title>
<path fill="none" stroke="#566bd8" stroke-width="2" d="M2139.5,-620C2139.5,-620 2020.5,-620 2020.5,-620 2014.5,-620 2008.5,-614 2008.5,-608 2008.5,-608 2008.5,-596 2008.5,-596 2008.5,-590 2014.5,-584 2020.5,-584 2020.5,-584 2139.5,-584 2139.5,-584 2145.5,-584 2151.5,-590 2151.5,-596 2151.5,-596 2151.5,-608 2151.5,-608 2151.5,-614 2145.5,-620 2139.5,-620"/>
<text text-anchor="middle" x="2080" y="-599.5" font-family="sans" font-size="10.00">create_unfold_coord_map</text>
</g>
<!-- 9&#45;&gt;10 -->
<g id="edge37" class="edge">
<title>9&#45;&gt;10</title>
<path fill="none" stroke="grey" stroke-width="2" d="M2086.02,-655.7C2085.14,-647.98 2084.08,-638.71 2083.1,-630.11"/>
<polygon fill="grey" stroke="grey" stroke-width="2" points="2086.57,-629.64 2081.95,-620.1 2079.61,-630.44 2086.57,-629.64"/>
</g>
<!-- 9&#45;&gt;8 -->
<g id="edge30" class="edge">
<title>9&#45;&gt;8</title>
<path fill="none" stroke="grey" stroke-width="2" d="M2040.96,-655.97C2025.05,-647.7 2009.04,-635.99 2000,-620 1992.13,-606.07 1993.42,-598.59 2000,-584 2005.18,-572.52 2014.21,-562.52 2023.72,-554.4"/>
<polygon fill="grey" stroke="grey" stroke-width="2" points="2026.09,-556.99 2031.74,-548.03 2021.73,-551.51 2026.09,-556.99"/>
</g>
<!-- 9&#45;&gt;42 -->
<g id="edge84" class="edge">
<title>9&#45;&gt;42</title>
<path fill="none" stroke="grey" stroke-width="2" d="M2119.34,-655.96C2133.65,-646.86 2149.85,-634.54 2161,-620 2175.09,-601.61 2183.94,-576.7 2189.07,-557.91"/>
<polygon fill="grey" stroke="grey" stroke-width="2" points="2192.47,-558.74 2191.54,-548.18 2185.68,-557.01 2192.47,-558.74"/>
</g>
<!-- 51 -->
<g id="node8" class="node">
<title>51</title>
<path fill="none" stroke="#68d856" stroke-width="2" d="M2386,-476C2386,-476 2228,-476 2228,-476 2222,-476 2216,-470 2216,-464 2216,-464 2216,-452 2216,-452 2216,-446 2222,-440 2228,-440 2228,-440 2386,-440 2386,-440 2392,-440 2398,-446 2398,-452 2398,-452 2398,-464 2398,-464 2398,-470 2392,-476 2386,-476"/>
<text text-anchor="middle" x="2307" y="-455.5" font-family="sans" font-size="10.00">compose_warps_native_to_unfold</text>
</g>
<!-- 9&#45;&gt;51 -->
<g id="edge116" class="edge">
<title>9&#45;&gt;51</title>
<path fill="none" stroke="grey" stroke-width="2" d="M2139.02,-669.77C2205.69,-664.35 2316.92,-650.85 2342,-620 2373.8,-580.88 2345.22,-519.31 2324.33,-484.75"/>
<polygon fill="grey" stroke="grey" stroke-width="2" points="2327.23,-482.79 2318.96,-476.17 2321.3,-486.5 2327.23,-482.79"/>
</g>
<!-- 52 -->
<g id="node9" class="node">
<title>52</title>
<path fill="none" stroke="#d88556" stroke-width="2" d="M2185.5,-476C2185.5,-476 2000.5,-476 2000.5,-476 1994.5,-476 1988.5,-470 1988.5,-464 1988.5,-464 1988.5,-452 1988.5,-452 1988.5,-446 1994.5,-440 2000.5,-440 2000.5,-440 2185.5,-440 2185.5,-440 2191.5,-440 2197.5,-446 2197.5,-452 2197.5,-452 2197.5,-464 2197.5,-464 2197.5,-470 2191.5,-476 2185.5,-476"/>
<text text-anchor="middle" x="2093" y="-455.5" font-family="sans" font-size="10.00">compose_warps_unfold_to_crop_native</text>
</g>
<!-- 9&#45;&gt;52 -->
<g id="edge117" class="edge">
<title>9&#45;&gt;52</title>
<path fill="none" stroke="grey" stroke-width="2" d="M2139.16,-669.32C2203.68,-663.48 2309.12,-649.59 2333,-620 2373.03,-570.39 2276.78,-517.62 2267,-512 2243.34,-498.42 2233.26,-506.42 2207,-499 2187.23,-493.41 2165.91,-486.25 2147.11,-479.53"/>
<polygon fill="grey" stroke="grey" stroke-width="2" points="2148.12,-476.17 2137.53,-476.07 2145.74,-482.76 2148.12,-476.17"/>
</g>
<!-- 32 -->
<g id="node29" class="node">
<title>32</title>
<path fill="none" stroke="#56d8b9" stroke-width="2" d="M757,-620C757,-620 651,-620 651,-620 645,-620 639,-614 639,-608 639,-608 639,-596 639,-596 639,-590 645,-584 651,-584 651,-584 757,-584 757,-584 763,-584 769,-590 769,-596 769,-596 769,-608 769,-608 769,-614 763,-620 757,-620"/>
<text text-anchor="middle" x="704" y="-599.5" font-family="sans" font-size="10.00">constrain_surf_to_bbox</text>
</g>
<!-- 9&#45;&gt;32 -->
<g id="edge68" class="edge">
<title>9&#45;&gt;32</title>
<path fill="none" stroke="grey" stroke-width="2" d="M2036.96,-670.72C1880.72,-663.69 1395.2,-641.56 993,-620 920.44,-616.11 837.67,-611.19 779.36,-607.65"/>
<polygon fill="grey" stroke="grey" stroke-width="2" points="779.32,-604.14 769.13,-607.02 778.89,-611.13 779.32,-604.14"/>
</g>
<!-- 39 -->
<g id="node38" class="node">
<title>39</title>
<path fill="none" stroke="#d89c56" stroke-width="2" d="M776,-260C776,-260 660,-260 660,-260 654,-260 648,-254 648,-248 648,-248 648,-236 648,-236 648,-230 654,-224 660,-224 660,-224 776,-224 776,-224 782,-224 788,-230 788,-236 788,-236 788,-248 788,-248 788,-254 782,-260 776,-260"/>
<text text-anchor="middle" x="718" y="-239.5" font-family="sans" font-size="10.00">resample_atlas_to_refvol</text>
</g>
<!-- 9&#45;&gt;39 -->
<g id="edge75" class="edge">
<title>9&#45;&gt;39</title>
<path fill="none" stroke="grey" stroke-width="2" d="M2054.46,-655.84C2035.33,-645.81 2011.05,-632.67 1990,-620 1965.29,-605.12 1963.37,-593.1 1936,-584 1834.64,-550.29 1798.04,-602.6 1696,-571 1647.8,-556.07 1647.38,-526.33 1599,-512 1504.57,-484.04 1250.67,-526.14 1156,-499 985.89,-450.25 813.02,-320.34 746.49,-266.69"/>
<polygon fill="grey" stroke="grey" stroke-width="2" points="748.51,-263.83 738.55,-260.24 744.1,-269.26 748.51,-263.83"/>
</g>
<!-- 0 -->
<g id="node62" class="node">
<title>0</title>
<path fill="none" stroke="#8fd856" stroke-width="2" d="M1760,-188C1760,-188 1730,-188 1730,-188 1724,-188 1718,-182 1718,-176 1718,-176 1718,-164 1718,-164 1718,-158 1724,-152 1730,-152 1730,-152 1760,-152 1760,-152 1766,-152 1772,-158 1772,-164 1772,-164 1772,-176 1772,-176 1772,-182 1766,-188 1760,-188"/>
<text text-anchor="middle" x="1745" y="-167.5" font-family="sans" font-size="10.00">all</text>
</g>
<!-- 9&#45;&gt;0 -->
<g id="edge1" class="edge">
<title>9&#45;&gt;0</title>
<path fill="none" stroke="grey" stroke-width="2" d="M2139.15,-668.35C2206.62,-661.29 2320.61,-645.89 2353,-620 2437.77,-552.25 2426,-495.52 2426,-387 2426,-387 2426,-387 2426,-313 2426,-180.43 1925.21,-170.81 1782.52,-170.75"/>
<polygon fill="grey" stroke="grey" stroke-width="2" points="1782.11,-167.25 1772.12,-170.77 1782.12,-174.25 1782.11,-167.25"/>
</g>
<!-- 10&#45;&gt;8 -->
<g id="edge32" class="edge">
<title>10&#45;&gt;8</title>
<path fill="none" stroke="grey" stroke-width="2" d="M2075.06,-583.7C2072.83,-575.9 2070.15,-566.51 2067.67,-557.83"/>
<polygon fill="grey" stroke="grey" stroke-width="2" points="2071,-556.76 2064.89,-548.1 2064.27,-558.68 2071,-556.76"/>
</g>
<!-- 10&#45;&gt;42 -->
<g id="edge85" class="edge">
<title>10&#45;&gt;42</title>
<path fill="none" stroke="grey" stroke-width="2" d="M2108.13,-583.88C2123.17,-574.72 2141.87,-563.34 2158.06,-553.48"/>
<polygon fill="grey" stroke="grey" stroke-width="2" points="2160.04,-556.38 2166.76,-548.19 2156.4,-550.4 2160.04,-556.38"/>
</g>
<!-- 8&#45;&gt;51 -->
<g id="edge114" class="edge">
<title>8&#45;&gt;51</title>
<path fill="none" stroke="grey" stroke-width="2" d="M2114.03,-514.23C2117.39,-513.44 2120.74,-512.69 2124,-512 2160.54,-504.31 2170.99,-508.89 2207,-499 2224.94,-494.08 2244.03,-486.94 2260.68,-480.05"/>
<polygon fill="grey" stroke="grey" stroke-width="2" points="2262.32,-483.16 2270.17,-476.04 2259.6,-476.71 2262.32,-483.16"/>
</g>
<!-- 8&#45;&gt;52 -->
<g id="edge118" class="edge">
<title>8&#45;&gt;52</title>
<path fill="none" stroke="grey" stroke-width="2" d="M2068.16,-511.7C2071.91,-503.73 2076.45,-494.1 2080.62,-485.26"/>
<polygon fill="grey" stroke="grey" stroke-width="2" points="2083.84,-486.64 2084.94,-476.1 2077.51,-483.66 2083.84,-486.64"/>
</g>
<!-- 7 -->
<g id="node30" class="node">
<title>7</title>
<path fill="none" stroke="#56b9d8" stroke-width="2" d="M757.5,-548C757.5,-548 650.5,-548 650.5,-548 644.5,-548 638.5,-542 638.5,-536 638.5,-536 638.5,-524 638.5,-524 638.5,-518 644.5,-512 650.5,-512 650.5,-512 757.5,-512 757.5,-512 763.5,-512 769.5,-518 769.5,-524 769.5,-524 769.5,-536 769.5,-536 769.5,-542 763.5,-548 757.5,-548"/>
<text text-anchor="middle" x="704" y="-527.5" font-family="sans" font-size="10.00">warp_gii_unfold2native</text>
</g>
<!-- 8&#45;&gt;7 -->
<g id="edge28" class="edge">
<title>8&#45;&gt;7</title>
<path fill="none" stroke="grey" stroke-width="2" d="M2038,-548.17C2023.4,-559.01 2003.25,-571.76 1983,-577.5 1953.28,-585.93 1735.88,-578.23 1705,-577.5 1359.16,-569.3 946.68,-545.18 779.71,-534.82"/>
<polygon fill="grey" stroke="grey" stroke-width="2" points="779.75,-531.32 769.55,-534.19 779.31,-538.3 779.75,-531.32"/>
</g>
<!-- 42&#45;&gt;51 -->
<g id="edge113" class="edge">
<title>42&#45;&gt;51</title>
<path fill="none" stroke="grey" stroke-width="2" d="M2222.4,-511.88C2236.91,-502.81 2254.92,-491.55 2270.59,-481.76"/>
<polygon fill="grey" stroke="grey" stroke-width="2" points="2272.87,-484.46 2279.5,-476.19 2269.16,-478.52 2272.87,-484.46"/>
</g>
<!-- 42&#45;&gt;52 -->
<g id="edge121" class="edge">
<title>42&#45;&gt;52</title>
<path fill="none" stroke="grey" stroke-width="2" d="M2170.05,-511.88C2156.96,-502.89 2140.74,-491.76 2126.56,-482.03"/>
<polygon fill="grey" stroke="grey" stroke-width="2" points="2128.27,-478.96 2118.05,-476.19 2124.31,-484.73 2128.27,-478.96"/>
</g>
<!-- 42&#45;&gt;7 -->
<g id="edge27" class="edge">
<title>42&#45;&gt;7</title>
<path fill="none" stroke="grey" stroke-width="2" d="M2171.71,-548.18C2156.29,-559.03 2135.08,-571.77 2114,-577.5 2070.14,-589.41 1750.43,-578.58 1705,-577.5 1359.16,-569.3 946.68,-545.18 779.71,-534.82"/>
<polygon fill="grey" stroke="grey" stroke-width="2" points="779.75,-531.32 769.55,-534.19 779.31,-538.3 779.75,-531.32"/>
</g>
<!-- 51&#45;&gt;0 -->
<g id="edge3" class="edge">
<title>51&#45;&gt;0</title>
<path fill="none" stroke="grey" stroke-width="2" d="M2274.34,-439.99C2199.85,-401.23 2011.56,-303.58 1853,-224 1829.2,-212.06 1802.33,-198.87 1781.34,-188.63"/>
<polygon fill="grey" stroke="grey" stroke-width="2" points="1782.66,-185.38 1772.14,-184.15 1779.6,-191.68 1782.66,-185.38"/>
</g>
<!-- 52&#45;&gt;0 -->
<g id="edge7" class="edge">
<title>52&#45;&gt;0</title>
<path fill="none" stroke="grey" stroke-width="2" d="M2073.74,-439.82C2029.48,-400.51 1916.7,-301.46 1818,-224 1805.19,-213.94 1790.74,-203.31 1778.09,-194.23"/>
<polygon fill="grey" stroke="grey" stroke-width="2" points="1779.85,-191.18 1769.67,-188.22 1775.78,-196.88 1779.85,-191.18"/>
</g>
<!-- 54 -->
<g id="node10" class="node">
<title>54</title>
<path fill="none" stroke="#d8bc56" stroke-width="2" d="M1547.5,-332C1547.5,-332 1458.5,-332 1458.5,-332 1452.5,-332 1446.5,-326 1446.5,-320 1446.5,-320 1446.5,-308 1446.5,-308 1446.5,-302 1452.5,-296 1458.5,-296 1458.5,-296 1547.5,-296 1547.5,-296 1553.5,-296 1559.5,-302 1559.5,-308 1559.5,-308 1559.5,-320 1559.5,-320 1559.5,-326 1553.5,-332 1547.5,-332"/>
<text text-anchor="middle" x="1503" y="-311.5" font-family="sans" font-size="10.00">qc_reg_to_template</text>
</g>
<!-- 54&#45;&gt;0 -->
<g id="edge2" class="edge">
<title>54&#45;&gt;0</title>
<path fill="none" stroke="grey" stroke-width="2" d="M1513.46,-295.73C1526.44,-275.7 1550.4,-243.01 1579,-224 1618.67,-197.64 1672.34,-183.65 1707.78,-176.79"/>
<polygon fill="grey" stroke="grey" stroke-width="2" points="1708.51,-180.22 1717.71,-174.97 1707.24,-173.33 1708.51,-180.22"/>
</g>
<!-- 58 -->
<g id="node11" class="node">
<title>58</title>
<path fill="none" stroke="#d8d356" stroke-width="2" d="M1781.5,-332C1781.5,-332 1678.5,-332 1678.5,-332 1672.5,-332 1666.5,-326 1666.5,-320 1666.5,-320 1666.5,-308 1666.5,-308 1666.5,-302 1672.5,-296 1678.5,-296 1678.5,-296 1781.5,-296 1781.5,-296 1787.5,-296 1793.5,-302 1793.5,-308 1793.5,-308 1793.5,-320 1793.5,-320 1793.5,-326 1787.5,-332 1781.5,-332"/>
<text text-anchor="middle" x="1730" y="-311.5" font-family="sans" font-size="10.00">get_subfield_vols_subj</text>
</g>
<!-- 57 -->
<g id="node12" class="node">
<title>57</title>
<path fill="none" stroke="#56d8a9" stroke-width="2" d="M1686,-260C1686,-260 1600,-260 1600,-260 1594,-260 1588,-254 1588,-248 1588,-248 1588,-236 1588,-236 1588,-230 1594,-224 1600,-224 1600,-224 1686,-224 1686,-224 1692,-224 1698,-230 1698,-236 1698,-236 1698,-248 1698,-248 1698,-254 1692,-260 1686,-260"/>
<text text-anchor="middle" x="1643" y="-239.5" font-family="sans" font-size="10.00">plot_subj_subfields</text>
</g>
<!-- 58&#45;&gt;57 -->
<g id="edge128" class="edge">
<title>58&#45;&gt;57</title>
<path fill="none" stroke="grey" stroke-width="2" d="M1708.49,-295.7C1697.54,-286.88 1684.05,-276.03 1672.18,-266.47"/>
<polygon fill="grey" stroke="grey" stroke-width="2" points="1674.24,-263.65 1664.26,-260.1 1669.86,-269.1 1674.24,-263.65"/>
</g>
<!-- 57&#45;&gt;0 -->
<g id="edge9" class="edge">
<title>57&#45;&gt;0</title>
<path fill="none" stroke="grey" stroke-width="2" d="M1667.95,-223.88C1681.04,-214.89 1697.26,-203.76 1711.44,-194.03"/>
<polygon fill="grey" stroke="grey" stroke-width="2" points="1713.69,-196.73 1719.95,-188.19 1709.73,-190.96 1713.69,-196.73"/>
</g>
<!-- 55 -->
<g id="node13" class="node">
<title>55</title>
<path fill="none" stroke="#56d8a2" stroke-width="2" d="M1636.5,-332C1636.5,-332 1589.5,-332 1589.5,-332 1583.5,-332 1577.5,-326 1577.5,-320 1577.5,-320 1577.5,-308 1577.5,-308 1577.5,-302 1583.5,-296 1589.5,-296 1589.5,-296 1636.5,-296 1636.5,-296 1642.5,-296 1648.5,-302 1648.5,-308 1648.5,-308 1648.5,-320 1648.5,-320 1648.5,-326 1642.5,-332 1636.5,-332"/>
<text text-anchor="middle" x="1613" y="-311.5" font-family="sans" font-size="10.00">qc_subfield</text>
</g>
<!-- 55&#45;&gt;0 -->
<g id="edge5" class="edge">
<title>55&#45;&gt;0</title>
<path fill="none" stroke="grey" stroke-width="2" d="M1648.65,-299.2C1685.22,-284.88 1737.15,-264.02 1740,-260 1752.54,-242.28 1752.84,-217.26 1750.55,-198.26"/>
<polygon fill="grey" stroke="grey" stroke-width="2" points="1753.97,-197.51 1749.02,-188.14 1747.05,-198.55 1753.97,-197.51"/>
</g>
<!-- 56 -->
<g id="node14" class="node">
<title>56</title>
<path fill="none" stroke="#88d856" stroke-width="2" d="M1416.5,-332C1416.5,-332 1345.5,-332 1345.5,-332 1339.5,-332 1333.5,-326 1333.5,-320 1333.5,-320 1333.5,-308 1333.5,-308 1333.5,-302 1339.5,-296 1345.5,-296 1345.5,-296 1416.5,-296 1416.5,-296 1422.5,-296 1428.5,-302 1428.5,-308 1428.5,-308 1428.5,-320 1428.5,-320 1428.5,-326 1422.5,-332 1416.5,-332"/>
<text text-anchor="middle" x="1381" y="-311.5" font-family="sans" font-size="10.00">qc_subfield_surf</text>
</g>
<!-- 56&#45;&gt;0 -->
<g id="edge10" class="edge">
<title>56&#45;&gt;0</title>
<path fill="none" stroke="grey" stroke-width="2" d="M1428.75,-298.17C1431.87,-297.38 1434.97,-296.65 1438,-296 1496.97,-283.34 1658.99,-296.51 1707,-260 1726.47,-245.19 1736.09,-218.43 1740.76,-198.11"/>
<polygon fill="grey" stroke="grey" stroke-width="2" points="1744.22,-198.66 1742.78,-188.17 1737.36,-197.27 1744.22,-198.66"/>
</g>
<!-- 12 -->
<g id="node15" class="node">
<title>12</title>
<path fill="none" stroke="#ced856" stroke-width="2" d="M1409,-764C1409,-764 1317,-764 1317,-764 1311,-764 1305,-758 1305,-752 1305,-752 1305,-740 1305,-740 1305,-734 1311,-728 1317,-728 1317,-728 1409,-728 1409,-728 1415,-728 1421,-734 1421,-740 1421,-740 1421,-752 1421,-752 1421,-758 1415,-764 1409,-764"/>
<text text-anchor="middle" x="1363" y="-743.5" font-family="sans" font-size="10.00">laplace_coords_hipp</text>
</g>
<!-- 12&#45;&gt;31 -->
<g id="edge66" class="edge">
<title>12&#45;&gt;31</title>
<path fill="none" stroke="grey" stroke-width="2" d="M1421.16,-742.17C1497.04,-738.54 1633.92,-732.22 1751,-728 1776.55,-727.08 2189.97,-729.53 2211,-715 2238.66,-695.88 2249.72,-656.93 2254.12,-630.39"/>
<polygon fill="grey" stroke="grey" stroke-width="2" points="2257.62,-630.61 2255.58,-620.21 2250.69,-629.61 2257.62,-630.61"/>
</g>
<!-- 12&#45;&gt;8 -->
<g id="edge31" class="edge">
<title>12&#45;&gt;8</title>
<path fill="none" stroke="grey" stroke-width="2" d="M1418.57,-727.94C1546.31,-688.72 1860.29,-592.32 1995.9,-550.68"/>
<polygon fill="grey" stroke="grey" stroke-width="2" points="1997.21,-553.94 2005.74,-547.66 1995.15,-547.25 1997.21,-553.94"/>
</g>
<!-- 11 -->
<g id="node19" class="node">
<title>11</title>
<path fill="none" stroke="#59d856" stroke-width="2" d="M1289.5,-692C1289.5,-692 1232.5,-692 1232.5,-692 1226.5,-692 1220.5,-686 1220.5,-680 1220.5,-680 1220.5,-668 1220.5,-668 1220.5,-662 1226.5,-656 1232.5,-656 1232.5,-656 1289.5,-656 1289.5,-656 1295.5,-656 1301.5,-662 1301.5,-668 1301.5,-668 1301.5,-680 1301.5,-680 1301.5,-686 1295.5,-692 1289.5,-692"/>
<text text-anchor="middle" x="1261" y="-671.5" font-family="sans" font-size="10.00">unflip_coords</text>
</g>
<!-- 12&#45;&gt;11 -->
<g id="edge38" class="edge">
<title>12&#45;&gt;11</title>
<path fill="none" stroke="grey" stroke-width="2" d="M1338.05,-727.88C1324.96,-718.89 1308.74,-707.76 1294.56,-698.03"/>
<polygon fill="grey" stroke="grey" stroke-width="2" points="1296.27,-694.96 1286.05,-692.19 1292.31,-700.73 1296.27,-694.96"/>
</g>
<!-- 47 -->
<g id="node51" class="node">
<title>47</title>
<path fill="none" stroke="#d86656" stroke-width="2" d="M1899.5,-548C1899.5,-548 1712.5,-548 1712.5,-548 1706.5,-548 1700.5,-542 1700.5,-536 1700.5,-536 1700.5,-524 1700.5,-524 1700.5,-518 1706.5,-512 1712.5,-512 1712.5,-512 1899.5,-512 1899.5,-512 1905.5,-512 1911.5,-518 1911.5,-524 1911.5,-524 1911.5,-536 1911.5,-536 1911.5,-542 1905.5,-548 1899.5,-548"/>
<text text-anchor="middle" x="1806" y="-527.5" font-family="sans" font-size="10.00">label_subfields_from_vol_coords_corobl</text>
</g>
<!-- 12&#45;&gt;47 -->
<g id="edge97" class="edge">
<title>12&#45;&gt;47</title>
<path fill="none" stroke="grey" stroke-width="2" d="M1410.65,-727.95C1416.68,-724.35 1422.36,-720.07 1427,-715 1468.9,-669.29 1427.14,-623.43 1475,-584 1507.39,-557.31 1608.35,-543.87 1690.34,-537.22"/>
<polygon fill="grey" stroke="grey" stroke-width="2" points="1690.8,-540.7 1700.49,-536.43 1690.25,-533.72 1690.8,-540.7"/>
</g>
<!-- 50 -->
<g id="node60" class="node">
<title>50</title>
<path fill="none" stroke="#bed856" stroke-width="2" d="M1338,-404C1338,-404 1200,-404 1200,-404 1194,-404 1188,-398 1188,-392 1188,-392 1188,-380 1188,-380 1188,-374 1194,-368 1200,-368 1200,-368 1338,-368 1338,-368 1344,-368 1350,-374 1350,-380 1350,-380 1350,-392 1350,-392 1350,-398 1344,-404 1338,-404"/>
<text text-anchor="middle" x="1269" y="-383.5" font-family="sans" font-size="10.00">resample_coords_native_crop</text>
</g>
<!-- 12&#45;&gt;50 -->
<g id="edge106" class="edge">
<title>12&#45;&gt;50</title>
<path fill="none" stroke="grey" stroke-width="2" d="M1360.09,-727.96C1356.09,-708.74 1347.33,-677.38 1330,-656 1292.26,-609.45 1269.18,-611.62 1216,-584 1128.83,-538.73 1066.48,-580.73 1012,-499 997.45,-477.18 995.44,-460.33 1012,-440 1032.83,-414.44 1112.27,-400.84 1177.39,-393.85"/>
<polygon fill="grey" stroke="grey" stroke-width="2" points="1178.12,-397.29 1187.7,-392.78 1177.4,-390.33 1178.12,-397.29"/>
</g>
<!-- 43 -->
<g id="node16" class="node">
<title>43</title>
<path fill="none" stroke="#565bd8" stroke-width="2" d="M1275,-764C1275,-764 1167,-764 1167,-764 1161,-764 1155,-758 1155,-752 1155,-752 1155,-740 1155,-740 1155,-734 1161,-728 1167,-728 1167,-728 1275,-728 1275,-728 1281,-728 1287,-734 1287,-740 1287,-740 1287,-752 1287,-752 1287,-758 1281,-764 1275,-764"/>
<text text-anchor="middle" x="1221" y="-743.5" font-family="sans" font-size="10.00">laplace_coords_dentate</text>
</g>
<!-- 43&#45;&gt;31 -->
<g id="edge67" class="edge">
<title>43&#45;&gt;31</title>
<path fill="none" stroke="grey" stroke-width="2" d="M1287.12,-729.23C1290.11,-728.76 1293.08,-728.35 1296,-728 1343,-722.38 2104.53,-733.74 2148,-715 2158.97,-710.27 2206.41,-659.06 2234.97,-627.55"/>
<polygon fill="grey" stroke="grey" stroke-width="2" points="2237.68,-629.77 2241.79,-620 2232.49,-625.08 2237.68,-629.77"/>
</g>
<!-- 43&#45;&gt;42 -->
<g id="edge88" class="edge">
<title>43&#45;&gt;42</title>
<path fill="none" stroke="grey" stroke-width="2" d="M1287.02,-729.01C1420.78,-697.13 1733.7,-625.21 2000,-584 2054.32,-575.59 2070.59,-587.57 2123,-571 2136.26,-566.81 2149.83,-560.03 2161.56,-553.24"/>
<polygon fill="grey" stroke="grey" stroke-width="2" points="2163.37,-556.23 2170.14,-548.08 2159.77,-550.23 2163.37,-556.23"/>
</g>
<!-- 43&#45;&gt;11 -->
<g id="edge39" class="edge">
<title>43&#45;&gt;11</title>
<path fill="none" stroke="grey" stroke-width="2" d="M1230.89,-727.7C1235.49,-719.64 1241.06,-709.89 1246.15,-700.98"/>
<polygon fill="grey" stroke="grey" stroke-width="2" points="1249.3,-702.52 1251.23,-692.1 1243.23,-699.05 1249.3,-702.52"/>
</g>
<!-- 43&#45;&gt;50 -->
<g id="edge112" class="edge">
<title>43&#45;&gt;50</title>
<path fill="none" stroke="grey" stroke-width="2" d="M1287.38,-728.57C1298.41,-724.54 1307.44,-719.94 1311,-715 1326.33,-693.73 1325.76,-677.67 1311,-656 1261.8,-583.76 1212.9,-604.75 1128,-584 1101.09,-577.42 1026.22,-587.55 1004,-571 956.1,-535.32 935.68,-485.82 974,-440 999.64,-409.34 1100.72,-396.4 1177.47,-390.94"/>
<polygon fill="grey" stroke="grey" stroke-width="2" points="1177.91,-394.42 1187.65,-390.25 1177.44,-387.44 1177.91,-394.42"/>
</g>
<!-- 30 -->
<g id="node17" class="node">
<title>30</title>
<path fill="none" stroke="#d89c56" stroke-width="2" d="M1124.5,-764C1124.5,-764 1009.5,-764 1009.5,-764 1003.5,-764 997.5,-758 997.5,-752 997.5,-752 997.5,-740 997.5,-740 997.5,-734 1003.5,-728 1009.5,-728 1009.5,-728 1124.5,-728 1124.5,-728 1130.5,-728 1136.5,-734 1136.5,-740 1136.5,-740 1136.5,-752 1136.5,-752 1136.5,-758 1130.5,-764 1124.5,-764"/>
<text text-anchor="middle" x="1067" y="-743.5" font-family="sans" font-size="10.00">prep_equivolume_coords</text>
</g>
<!-- 29 -->
<g id="node18" class="node">
<title>29</title>
<path fill="none" stroke="#56d8d8" stroke-width="2" d="M1111,-692C1111,-692 1023,-692 1023,-692 1017,-692 1011,-686 1011,-680 1011,-680 1011,-668 1011,-668 1011,-662 1017,-656 1023,-656 1023,-656 1111,-656 1111,-656 1117,-656 1123,-662 1123,-668 1123,-668 1123,-680 1123,-680 1123,-686 1117,-692 1111,-692"/>
<text text-anchor="middle" x="1067" y="-671.5" font-family="sans" font-size="10.00">equivolume_coords</text>
</g>
<!-- 30&#45;&gt;29 -->
<g id="edge63" class="edge">
<title>30&#45;&gt;29</title>
<path fill="none" stroke="grey" stroke-width="2" d="M1067,-727.7C1067,-719.98 1067,-710.71 1067,-702.11"/>
<polygon fill="grey" stroke="grey" stroke-width="2" points="1070.5,-702.1 1067,-692.1 1063.5,-702.1 1070.5,-702.1"/>
</g>
<!-- 29&#45;&gt;8 -->
<g id="edge36" class="edge">
<title>29&#45;&gt;8</title>
<path fill="none" stroke="grey" stroke-width="2" d="M1120.02,-655.93C1146.46,-646.63 1178.57,-634.15 1206,-620 1231.64,-606.78 1232.48,-592.63 1260,-584 1329.56,-562.18 1843.87,-581.56 1916,-571 1944.46,-566.83 1975.27,-558.78 2001.06,-550.98"/>
<polygon fill="grey" stroke="grey" stroke-width="2" points="2002.15,-554.3 2010.68,-548.01 2000.09,-547.61 2002.15,-554.3"/>
</g>
<!-- 28 -->
<g id="node20" class="node">
<title>28</title>
<path fill="none" stroke="#56c1d8" stroke-width="2" d="M1107,-620C1107,-620 1009,-620 1009,-620 1003,-620 997,-614 997,-608 997,-608 997,-596 997,-596 997,-590 1003,-584 1009,-584 1009,-584 1107,-584 1107,-584 1113,-584 1119,-590 1119,-596 1119,-596 1119,-608 1119,-608 1119,-614 1113,-620 1107,-620"/>
<text text-anchor="middle" x="1058" y="-599.5" font-family="sans" font-size="10.00">unflip_coords_equivol</text>
</g>
<!-- 29&#45;&gt;28 -->
<g id="edge62" class="edge">
<title>29&#45;&gt;28</title>
<path fill="none" stroke="grey" stroke-width="2" d="M1064.78,-655.7C1063.78,-647.98 1062.59,-638.71 1061.49,-630.11"/>
<polygon fill="grey" stroke="grey" stroke-width="2" points="1064.95,-629.58 1060.2,-620.1 1058,-630.47 1064.95,-629.58"/>
</g>
<!-- 29&#45;&gt;47 -->
<g id="edge101" class="edge">
<title>29&#45;&gt;47</title>
<path fill="none" stroke="grey" stroke-width="2" d="M1091.22,-655.96C1122.39,-635.01 1178.98,-600.25 1233,-584 1315.74,-559.11 1548.27,-543.66 1690.39,-536.25"/>
<polygon fill="grey" stroke="grey" stroke-width="2" points="1690.66,-539.75 1700.46,-535.74 1690.3,-532.75 1690.66,-539.75"/>
</g>
<!-- 29&#45;&gt;50 -->
<g id="edge111" class="edge">
<title>29&#45;&gt;50</title>
<path fill="none" stroke="grey" stroke-width="2" d="M1018.56,-655.94C981.67,-640.12 933.38,-612.67 910,-571 881.51,-520.22 869.93,-484.06 908,-440 942.16,-400.46 1082.24,-389.87 1177.51,-387.34"/>
<polygon fill="grey" stroke="grey" stroke-width="2" points="1177.83,-390.83 1187.74,-387.09 1177.66,-383.83 1177.83,-390.83"/>
</g>
<!-- 11&#45;&gt;31 -->
<g id="edge65" class="edge">
<title>11&#45;&gt;31</title>
<path fill="none" stroke="grey" stroke-width="2" d="M1301.51,-672.29C1428.61,-669.72 1830.67,-658.84 2161,-620 2167.12,-619.28 2173.45,-618.42 2179.79,-617.48"/>
<polygon fill="grey" stroke="grey" stroke-width="2" points="2180.4,-620.92 2189.75,-615.93 2179.33,-614.01 2180.4,-620.92"/>
</g>
<!-- 11&#45;&gt;8 -->
<g id="edge34" class="edge">
<title>11&#45;&gt;8</title>
<path fill="none" stroke="grey" stroke-width="2" d="M1260.05,-655.66C1259.98,-634.91 1263.45,-600.86 1285,-584 1312.61,-562.39 1881.31,-576.09 1916,-571 1944.45,-566.82 1975.26,-558.76 2001.05,-550.97"/>
<polygon fill="grey" stroke="grey" stroke-width="2" points="2002.15,-554.29 2010.68,-548 2000.09,-547.6 2002.15,-554.29"/>
</g>
<!-- 11&#45;&gt;42 -->
<g id="edge86" class="edge">
<title>11&#45;&gt;42</title>
<path fill="none" stroke="grey" stroke-width="2" d="M1267.26,-655.83C1276.04,-634.57 1294.24,-599.31 1323,-584 1362.23,-563.11 2080.06,-582.5 2123,-571 2136.76,-567.32 2150.71,-560.44 2162.62,-553.42"/>
<polygon fill="grey" stroke="grey" stroke-width="2" points="2164.62,-556.3 2171.3,-548.07 2160.95,-550.34 2164.62,-556.3"/>
</g>
<!-- 11&#45;&gt;47 -->
<g id="edge99" class="edge">
<title>11&#45;&gt;47</title>
<path fill="none" stroke="grey" stroke-width="2" d="M1251.09,-655.92C1241.01,-636.08 1229.21,-603.55 1247,-584 1276.21,-551.89 1535.3,-538.81 1690.3,-533.82"/>
<polygon fill="grey" stroke="grey" stroke-width="2" points="1690.48,-537.31 1700.36,-533.5 1690.25,-530.32 1690.48,-537.31"/>
</g>
<!-- 11&#45;&gt;50 -->
<g id="edge108" class="edge">
<title>11&#45;&gt;50</title>
<path fill="none" stroke="grey" stroke-width="2" d="M1220.29,-666.98C1154.95,-657 1029.76,-636.5 988,-620 896.7,-583.92 795.2,-513.74 860,-440 880.65,-416.51 1063.64,-400.39 1177.75,-392.53"/>
<polygon fill="grey" stroke="grey" stroke-width="2" points="1178.15,-396.01 1187.89,-391.84 1177.67,-389.03 1178.15,-396.01"/>
</g>
<!-- 28&#45;&gt;8 -->
<g id="edge33" class="edge">
<title>28&#45;&gt;8</title>
<path fill="none" stroke="grey" stroke-width="2" d="M1119.23,-592.79C1146.64,-589.45 1179.38,-585.94 1209,-584 1365.8,-573.75 1760.5,-593.65 1916,-571 1944.46,-566.85 1975.27,-558.8 2001.06,-551"/>
<polygon fill="grey" stroke="grey" stroke-width="2" points="2002.16,-554.32 2010.68,-548.03 2000.09,-547.63 2002.16,-554.32"/>
</g>
<!-- 28&#45;&gt;47 -->
<g id="edge98" class="edge">
<title>28&#45;&gt;47</title>
<path fill="none" stroke="grey" stroke-width="2" d="M1119.26,-586.36C1123.89,-585.48 1128.51,-584.68 1133,-584 1327.1,-554.52 1555.34,-540.93 1689.93,-535.05"/>
<polygon fill="grey" stroke="grey" stroke-width="2" points="1690.42,-538.53 1700.26,-534.61 1690.12,-531.54 1690.42,-538.53"/>
</g>
<!-- 28&#45;&gt;50 -->
<g id="edge107" class="edge">
<title>28&#45;&gt;50</title>
<path fill="none" stroke="grey" stroke-width="2" d="M996.72,-597.53C977.94,-593.4 958.86,-585.56 946,-571 907.34,-527.24 898.09,-484.42 936,-440 966.52,-404.23 1089.86,-392.49 1177.51,-388.7"/>
<polygon fill="grey" stroke="grey" stroke-width="2" points="1177.9,-392.18 1187.75,-388.28 1177.61,-385.19 1177.9,-392.18"/>
</g>
<!-- 21 -->
<g id="node21" class="node">
<title>21</title>
<path fill="none" stroke="#566bd8" stroke-width="2" d="M3003,-1268C3003,-1268 2963,-1268 2963,-1268 2957,-1268 2951,-1262 2951,-1256 2951,-1256 2951,-1244 2951,-1244 2951,-1238 2957,-1232 2963,-1232 2963,-1232 3003,-1232 3003,-1232 3009,-1232 3015,-1238 3015,-1244 3015,-1244 3015,-1256 3015,-1256 3015,-1262 3009,-1268 3003,-1268"/>
<text text-anchor="middle" x="2983" y="-1247.5" font-family="sans" font-size="10.00">import_t2</text>
</g>
<!-- 20 -->
<g id="node22" class="node">
<title>20</title>
<path fill="none" stroke="#56a9d8" stroke-width="2" d="M2998,-1196C2998,-1196 2968,-1196 2968,-1196 2962,-1196 2956,-1190 2956,-1184 2956,-1184 2956,-1172 2956,-1172 2956,-1166 2962,-1160 2968,-1160 2968,-1160 2998,-1160 2998,-1160 3004,-1160 3010,-1166 3010,-1172 3010,-1172 3010,-1184 3010,-1184 3010,-1190 3004,-1196 2998,-1196"/>
<text text-anchor="middle" x="2983" y="-1175.5" font-family="sans" font-size="10.00">n4_t2</text>
</g>
<!-- 21&#45;&gt;20 -->
<g id="edge53" class="edge">
<title>21&#45;&gt;20</title>
<path fill="none" stroke="grey" stroke-width="2" d="M2983,-1231.7C2983,-1223.98 2983,-1214.71 2983,-1206.11"/>
<polygon fill="grey" stroke="grey" stroke-width="2" points="2986.5,-1206.1 2983,-1196.1 2979.5,-1206.1 2986.5,-1206.1"/>
</g>
<!-- 19 -->
<g id="node23" class="node">
<title>19</title>
<path fill="none" stroke="#78d856" stroke-width="2" d="M3032,-1124C3032,-1124 2934,-1124 2934,-1124 2928,-1124 2922,-1118 2922,-1112 2922,-1112 2922,-1100 2922,-1100 2922,-1094 2928,-1088 2934,-1088 2934,-1088 3032,-1088 3032,-1088 3038,-1088 3044,-1094 3044,-1100 3044,-1100 3044,-1112 3044,-1112 3044,-1118 3038,-1124 3032,-1124"/>
<text text-anchor="middle" x="2983" y="-1103.5" font-family="sans" font-size="10.00">avg_aligned_or_cp_t2</text>
</g>
<!-- 20&#45;&gt;19 -->
<g id="edge52" class="edge">
<title>20&#45;&gt;19</title>
<path fill="none" stroke="grey" stroke-width="2" d="M2983,-1159.7C2983,-1151.98 2983,-1142.71 2983,-1134.11"/>
<polygon fill="grey" stroke="grey" stroke-width="2" points="2986.5,-1134.1 2983,-1124.1 2979.5,-1134.1 2986.5,-1134.1"/>
</g>
<!-- 24 -->
<g id="node24" class="node">
<title>24</title>
<path fill="none" stroke="#56d85b" stroke-width="2" d="M2868,-1052C2868,-1052 2780,-1052 2780,-1052 2774,-1052 2768,-1046 2768,-1040 2768,-1040 2768,-1028 2768,-1028 2768,-1022 2774,-1016 2780,-1016 2780,-1016 2868,-1016 2868,-1016 2874,-1016 2880,-1022 2880,-1028 2880,-1028 2880,-1040 2880,-1040 2880,-1046 2874,-1052 2868,-1052"/>
<text text-anchor="middle" x="2824" y="-1031.5" font-family="sans" font-size="10.00">reg_t2_to_template</text>
</g>
<!-- 19&#45;&gt;24 -->
<g id="edge56" class="edge">
<title>19&#45;&gt;24</title>
<path fill="none" stroke="grey" stroke-width="2" d="M2944.1,-1087.88C2922.37,-1078.31 2895.1,-1066.3 2872.04,-1056.15"/>
<polygon fill="grey" stroke="grey" stroke-width="2" points="2873.33,-1052.89 2862.77,-1052.07 2870.51,-1059.3 2873.33,-1052.89"/>
</g>
<!-- 18 -->
<g id="node26" class="node">
<title>18</title>
<path fill="none" stroke="#56c1d8" stroke-width="2" d="M3018,-1052C3018,-1052 2910,-1052 2910,-1052 2904,-1052 2898,-1046 2898,-1040 2898,-1040 2898,-1028 2898,-1028 2898,-1022 2904,-1016 2910,-1016 2910,-1016 3018,-1016 3018,-1016 3024,-1016 3030,-1022 3030,-1028 3030,-1028 3030,-1040 3030,-1040 3030,-1046 3024,-1052 3018,-1052"/>
<text text-anchor="middle" x="2964" y="-1031.5" font-family="sans" font-size="10.00">warp_t2_to_corobl_crop</text>
</g>
<!-- 19&#45;&gt;18 -->
<g id="edge50" class="edge">
<title>19&#45;&gt;18</title>
<path fill="none" stroke="grey" stroke-width="2" d="M2978.3,-1087.7C2976.19,-1079.9 2973.64,-1070.51 2971.28,-1061.83"/>
<polygon fill="grey" stroke="grey" stroke-width="2" points="2974.64,-1060.84 2968.64,-1052.1 2967.88,-1062.67 2974.64,-1060.84"/>
</g>
<!-- 49 -->
<g id="node53" class="node">
<title>49</title>
<path fill="none" stroke="#56d892" stroke-width="2" d="M1889,-404C1889,-404 1751,-404 1751,-404 1745,-404 1739,-398 1739,-392 1739,-392 1739,-380 1739,-380 1739,-374 1745,-368 1751,-368 1751,-368 1889,-368 1889,-368 1895,-368 1901,-374 1901,-380 1901,-380 1901,-392 1901,-392 1901,-398 1895,-404 1889,-404"/>
<text text-anchor="middle" x="1820" y="-383.5" font-family="sans" font-size="10.00">resample_subfields_to_native</text>
</g>
<!-- 19&#45;&gt;49 -->
<g id="edge105" class="edge">
<title>19&#45;&gt;49</title>
<path fill="none" stroke="grey" stroke-width="2" d="M2921.92,-1090.13C2918.91,-1089.41 2915.92,-1088.7 2913,-1088 2744.56,-1047.86 2544,-1136.15 2544,-963 2544,-963 2544,-963 2544,-529 2544,-476.11 2512.31,-463.64 2465,-440 2370.37,-392.71 2065.99,-386.32 1911.62,-386.24"/>
<polygon fill="grey" stroke="grey" stroke-width="2" points="1911.22,-382.74 1901.22,-386.24 1911.22,-389.74 1911.22,-382.74"/>
</g>
<!-- 53 -->
<g id="node61" class="node">
<title>53</title>
<path fill="none" stroke="#afd856" stroke-width="2" d="M1496,-404C1496,-404 1380,-404 1380,-404 1374,-404 1368,-398 1368,-392 1368,-392 1368,-380 1368,-380 1368,-374 1374,-368 1380,-368 1380,-368 1496,-368 1496,-368 1502,-368 1508,-374 1508,-380 1508,-380 1508,-392 1508,-392 1508,-398 1502,-404 1496,-404"/>
<text text-anchor="middle" x="1438" y="-383.5" font-family="sans" font-size="10.00">resample_native_to_crop</text>
</g>
<!-- 19&#45;&gt;53 -->
<g id="edge122" class="edge">
<title>19&#45;&gt;53</title>
<path fill="none" stroke="grey" stroke-width="2" d="M2921.68,-1089.35C2918.75,-1088.84 2915.85,-1088.39 2913,-1088 2656.99,-1053.33 2002.03,-1113.07 1751,-1052 1661.95,-1030.34 1565,-1054.64 1565,-963 1565,-963 1565,-963 1565,-673 1565,-568.92 1493.88,-460.45 1458.08,-412.45"/>
<polygon fill="grey" stroke="grey" stroke-width="2" points="1460.66,-410.06 1451.83,-404.2 1455.08,-414.29 1460.66,-410.06"/>
</g>
<!-- 24&#45;&gt;23 -->
<g id="edge55" class="edge">
<title>24&#45;&gt;23</title>
<path fill="none" stroke="grey" stroke-width="2" d="M2767.86,-1031.62C2608.55,-1027.67 2140.05,-1015.75 1751,-1003 1392.66,-991.25 966.54,-974.35 781.05,-966.84"/>
<polygon fill="grey" stroke="grey" stroke-width="2" points="780.92,-963.33 770.79,-966.42 780.64,-970.33 780.92,-963.33"/>
</g>
<!-- 24&#45;&gt;54 -->
<g id="edge124" class="edge">
<title>24&#45;&gt;54</title>
<path fill="none" stroke="grey" stroke-width="2" d="M2767.86,-1028.97C2722.65,-1024.76 2663.53,-1016.8 2644,-1003 2597.53,-970.17 2582,-947.9 2582,-891 2582,-891 2582,-891 2582,-817 2582,-682.19 2114.92,-747.16 1984,-715 1800.28,-669.87 1761.71,-633.07 1579,-584 1405.57,-537.42 1296.83,-638.7 1184,-499 1147.42,-453.71 1143.9,-410.21 1184,-368 1203.46,-347.51 1411.01,-363.39 1438,-355 1450.26,-351.19 1462.55,-344.53 1473.09,-337.73"/>
<polygon fill="grey" stroke="grey" stroke-width="2" points="1475.17,-340.55 1481.49,-332.05 1471.25,-334.75 1475.17,-340.55"/>
</g>
<!-- 22&#45;&gt;34 -->
<g id="edge70" class="edge">
<title>22&#45;&gt;34</title>
<path fill="none" stroke="grey" stroke-width="2" d="M2767.97,-1103.44C2409.32,-1095.19 753.65,-1056.88 728,-1052 665.94,-1040.2 599.9,-1007.41 560.04,-985.1"/>
<polygon fill="grey" stroke="grey" stroke-width="2" points="561.64,-981.99 551.22,-980.09 558.19,-988.07 561.64,-981.99"/>
</g>
<!-- 22&#45;&gt;51 -->
<g id="edge115" class="edge">
<title>22&#45;&gt;51</title>
<path fill="none" stroke="grey" stroke-width="2" d="M2767.75,-1104.32C2670.64,-1101.92 2499.32,-1091.96 2454,-1052 2423.27,-1024.91 2430,-1003.97 2430,-963 2430,-963 2430,-963 2430,-601 2430,-548.61 2381.58,-506.06 2345.5,-481.63"/>
<polygon fill="grey" stroke="grey" stroke-width="2" points="2347.37,-478.67 2337.09,-476.11 2343.53,-484.52 2347.37,-478.67"/>
</g>
<!-- 22&#45;&gt;52 -->
<g id="edge120" class="edge">
<title>22&#45;&gt;52</title>
<path fill="none" stroke="grey" stroke-width="2" d="M2767.82,-1103.1C2679.36,-1099.22 2531.62,-1087.47 2492,-1052 2461.47,-1024.68 2468,-1003.97 2468,-963 2468,-963 2468,-963 2468,-601 2468,-476.46 2328.15,-527.88 2207,-499 2186.14,-494.03 2163.76,-486.65 2144.41,-479.58"/>
<polygon fill="grey" stroke="grey" stroke-width="2" points="2145.47,-476.24 2134.87,-476.03 2143.03,-482.8 2145.47,-476.24"/>
</g>
<!-- 22&#45;&gt;18 -->
<g id="edge51" class="edge">
<title>22&#45;&gt;18</title>
<path fill="none" stroke="grey" stroke-width="2" d="M2867.31,-1087.88C2884.2,-1078.64 2905.25,-1067.13 2923.38,-1057.21"/>
<polygon fill="grey" stroke="grey" stroke-width="2" points="2925.47,-1060.06 2932.57,-1052.19 2922.11,-1053.92 2925.47,-1060.06"/>
</g>
<!-- 22&#45;&gt;49 -->
<g id="edge104" class="edge">
<title>22&#45;&gt;49</title>
<path fill="none" stroke="grey" stroke-width="2" d="M2767.77,-1101.58C2688.42,-1096.2 2563.96,-1082.97 2530,-1052 2499.73,-1024.39 2506,-1003.97 2506,-963 2506,-963 2506,-963 2506,-529 2506,-468.16 2458.05,-463.65 2402,-440 2315.93,-403.68 2052.56,-392.19 1911.48,-388.6"/>
<polygon fill="grey" stroke="grey" stroke-width="2" points="1911.21,-385.09 1901.12,-388.34 1911.04,-392.09 1911.21,-385.09"/>
</g>
<!-- 44 -->
<g id="node59" class="node">
<title>44</title>
<path fill="none" stroke="#56b1d8" stroke-width="2" d="M1687.5,-404C1687.5,-404 1538.5,-404 1538.5,-404 1532.5,-404 1526.5,-398 1526.5,-392 1526.5,-392 1526.5,-380 1526.5,-380 1526.5,-374 1532.5,-368 1538.5,-368 1538.5,-368 1687.5,-368 1687.5,-368 1693.5,-368 1699.5,-374 1699.5,-380 1699.5,-380 1699.5,-392 1699.5,-392 1699.5,-398 1693.5,-404 1687.5,-404"/>
<text text-anchor="middle" x="1613" y="-383.5" font-family="sans" font-size="10.00">resample_subfields_native_crop</text>
</g>
<!-- 22&#45;&gt;44 -->
<g id="edge92" class="edge">
<title>22&#45;&gt;44</title>
<path fill="none" stroke="grey" stroke-width="2" d="M2767.9,-1103.9C2413.68,-1097.73 798,-1064.06 798,-963 798,-963 798,-963 798,-529 798,-369.91 1336.17,-429.63 1516.32,-403.94"/>
<polygon fill="grey" stroke="grey" stroke-width="2" points="1517.06,-407.37 1526.4,-402.35 1515.97,-400.45 1517.06,-407.37"/>
</g>
<!-- 22&#45;&gt;50 -->
<g id="edge110" class="edge">
<title>22&#45;&gt;50</title>
<path fill="none" stroke="grey" stroke-width="2" d="M2767.72,-1103.89C2513.29,-1099.55 1632.36,-1082.36 1581,-1052 1541.17,-1028.46 1527,-1009.27 1527,-963 1527,-963 1527,-963 1527,-673 1527,-546.03 1385.06,-450.07 1311.74,-408.97"/>
<polygon fill="grey" stroke="grey" stroke-width="2" points="1313.18,-405.76 1302.73,-404 1309.8,-411.89 1313.18,-405.76"/>
</g>
<!-- 17 -->
<g id="node27" class="node">
<title>17</title>
<path fill="none" stroke="#56d87b" stroke-width="2" d="M2953.5,-980C2953.5,-980 2918.5,-980 2918.5,-980 2912.5,-980 2906.5,-974 2906.5,-968 2906.5,-968 2906.5,-956 2906.5,-956 2906.5,-950 2912.5,-944 2918.5,-944 2918.5,-944 2953.5,-944 2953.5,-944 2959.5,-944 2965.5,-950 2965.5,-956 2965.5,-956 2965.5,-968 2965.5,-968 2965.5,-974 2959.5,-980 2953.5,-980"/>
<text text-anchor="middle" x="2936" y="-959.5" font-family="sans" font-size="10.00">lr_flip_t2</text>
</g>
<!-- 18&#45;&gt;17 -->
<g id="edge49" class="edge">
<title>18&#45;&gt;17</title>
<path fill="none" stroke="grey" stroke-width="2" d="M2957.08,-1015.7C2953.93,-1007.81 2950.12,-998.3 2946.62,-989.55"/>
<polygon fill="grey" stroke="grey" stroke-width="2" points="2949.81,-988.09 2942.84,-980.1 2943.31,-990.69 2949.81,-988.09"/>
</g>
<!-- 16 -->
<g id="node54" class="node">
<title>16</title>
<path fill="none" stroke="#56d88a" stroke-width="2" d="M2719.5,-980C2719.5,-980 2660.5,-980 2660.5,-980 2654.5,-980 2648.5,-974 2648.5,-968 2648.5,-968 2648.5,-956 2648.5,-956 2648.5,-950 2654.5,-944 2660.5,-944 2660.5,-944 2719.5,-944 2719.5,-944 2725.5,-944 2731.5,-950 2731.5,-956 2731.5,-956 2731.5,-968 2731.5,-968 2731.5,-974 2725.5,-980 2719.5,-980"/>
<text text-anchor="middle" x="2690" y="-959.5" font-family="sans" font-size="10.00">run_inference</text>
</g>
<!-- 18&#45;&gt;16 -->
<g id="edge48" class="edge">
<title>18&#45;&gt;16</title>
<path fill="none" stroke="grey" stroke-width="2" d="M2897.83,-1017.55C2894.85,-1017 2891.9,-1016.48 2889,-1016 2833.89,-1006.92 2817.37,-1019.48 2764,-1003 2750.43,-998.81 2736.5,-992.03 2724.43,-985.24"/>
<polygon fill="grey" stroke="grey" stroke-width="2" points="2726.01,-982.11 2715.61,-980.08 2722.48,-988.15 2726.01,-982.11"/>
</g>
<!-- 60 -->
<g id="node56" class="node">
<title>60</title>
<path fill="none" stroke="#56a2d8" stroke-width="2" d="M2744,-836C2744,-836 2680,-836 2680,-836 2674,-836 2668,-830 2668,-824 2668,-824 2668,-812 2668,-812 2668,-806 2674,-800 2680,-800 2680,-800 2744,-800 2744,-800 2750,-800 2756,-806 2756,-812 2756,-812 2756,-824 2756,-824 2756,-830 2750,-836 2744,-836"/>
<text text-anchor="middle" x="2712" y="-815.5" font-family="sans" font-size="10.00">qc_nnunet_f3d</text>
</g>
<!-- 18&#45;&gt;60 -->
<g id="edge133" class="edge">
<title>18&#45;&gt;60</title>
<path fill="none" stroke="grey" stroke-width="2" d="M2920.02,-1016C2912.38,-1012.22 2904.73,-1007.87 2898,-1003 2833.76,-956.57 2834.75,-926.29 2777,-872 2766.26,-861.91 2753.86,-851.51 2742.78,-842.63"/>
<polygon fill="grey" stroke="grey" stroke-width="2" points="2744.63,-839.63 2734.62,-836.16 2740.28,-845.12 2744.63,-839.63"/>
</g>
<!-- 17&#45;&gt;16 -->
<g id="edge47" class="edge">
<title>17&#45;&gt;16</title>
<path fill="none" stroke="grey" stroke-width="2" d="M2906.49,-962C2851.67,-962 2796.85,-962 2742.04,-962"/>
<polygon fill="grey" stroke="grey" stroke-width="2" points="2741.8,-958.5 2731.8,-962 2741.8,-965.5 2741.8,-958.5"/>
</g>
<!-- 33 -->
<g id="node28" class="node">
<title>33</title>
<path fill="none" stroke="#70d856" stroke-width="2" d="M671,-692C671,-692 567,-692 567,-692 561,-692 555,-686 555,-680 555,-680 555,-668 555,-668 555,-662 561,-656 567,-656 567,-656 671,-656 671,-656 677,-656 683,-662 683,-668 683,-668 683,-680 683,-680 683,-686 677,-692 671,-692"/>
<text text-anchor="middle" x="619" y="-671.5" font-family="sans" font-size="10.00">cp_template_to_unfold</text>
</g>
<!-- 33&#45;&gt;32 -->
<g id="edge69" class="edge">
<title>33&#45;&gt;32</title>
<path fill="none" stroke="grey" stroke-width="2" d="M640.01,-655.7C650.72,-646.88 663.89,-636.03 675.5,-626.47"/>
<polygon fill="grey" stroke="grey" stroke-width="2" points="677.74,-629.16 683.23,-620.1 673.29,-623.76 677.74,-629.16"/>
</g>
<!-- 2 -->
<g id="node41" class="node">
<title>2</title>
<path fill="none" stroke="#88d856" stroke-width="2" d="M548,-116C548,-116 450,-116 450,-116 444,-116 438,-110 438,-104 438,-104 438,-92 438,-92 438,-86 444,-80 450,-80 450,-80 548,-80 548,-80 554,-80 560,-86 560,-92 560,-92 560,-104 560,-104 560,-110 554,-116 548,-116"/>
<text text-anchor="middle" x="499" y="-95.5" font-family="sans" font-size="10.00">create_spec_file_hipp</text>
</g>
<!-- 33&#45;&gt;2 -->
<g id="edge17" class="edge">
<title>33&#45;&gt;2</title>
<path fill="none" stroke="grey" stroke-width="2" d="M620.4,-655.69C624.9,-595.5 637.01,-389.91 608,-224 602.19,-190.77 604.88,-178.49 584,-152 574.2,-139.56 560.62,-129.27 547.18,-121.17"/>
<polygon fill="grey" stroke="grey" stroke-width="2" points="548.84,-118.08 538.42,-116.16 545.36,-124.16 548.84,-118.08"/>
</g>
<!-- 41 -->
<g id="node42" class="node">
<title>41</title>
<path fill="none" stroke="#56d86b" stroke-width="2" d="M268,-116C268,-116 154,-116 154,-116 148,-116 142,-110 142,-104 142,-104 142,-92 142,-92 142,-86 148,-80 154,-80 154,-80 268,-80 268,-80 274,-80 280,-86 280,-92 280,-92 280,-104 280,-104 280,-110 274,-116 268,-116"/>
<text text-anchor="middle" x="211" y="-95.5" font-family="sans" font-size="10.00">create_spec_file_dentate</text>
</g>
<!-- 33&#45;&gt;41 -->
<g id="edge79" class="edge">
<title>33&#45;&gt;41</title>
<path fill="none" stroke="grey" stroke-width="2" d="M554.74,-671.06C401.82,-664.7 29,-638.2 29,-531 29,-531 29,-531 29,-241 29,-196.68 41.15,-181.75 74,-152 90.47,-137.08 111.61,-126.18 132.32,-118.28"/>
<polygon fill="grey" stroke="grey" stroke-width="2" points="133.58,-121.55 141.79,-114.87 131.2,-114.97 133.58,-121.55"/>
</g>
<!-- 32&#45;&gt;7 -->
<g id="edge29" class="edge">
<title>32&#45;&gt;7</title>
<path fill="none" stroke="grey" stroke-width="2" d="M704,-583.7C704,-575.98 704,-566.71 704,-558.11"/>
<polygon fill="grey" stroke="grey" stroke-width="2" points="707.5,-558.1 704,-548.1 700.5,-558.1 707.5,-558.1"/>
</g>
<!-- 6 -->
<g id="node31" class="node">
<title>6</title>
<path fill="none" stroke="#d8ac56" stroke-width="2" d="M748,-476C748,-476 654,-476 654,-476 648,-476 642,-470 642,-464 642,-464 642,-452 642,-452 642,-446 648,-440 654,-440 654,-440 748,-440 748,-440 754,-440 760,-446 760,-452 760,-452 760,-464 760,-464 760,-470 754,-476 748,-476"/>
<text text-anchor="middle" x="701" y="-455.5" font-family="sans" font-size="10.00">correct_nan_vertices</text>
</g>
<!-- 7&#45;&gt;6 -->
<g id="edge26" class="edge">
<title>7&#45;&gt;6</title>
<path fill="none" stroke="grey" stroke-width="2" d="M703.26,-511.7C702.93,-503.98 702.53,-494.71 702.16,-486.11"/>
<polygon fill="grey" stroke="grey" stroke-width="2" points="705.66,-485.95 701.73,-476.1 698.66,-486.25 705.66,-485.95"/>
</g>
<!-- 6&#45;&gt;5 -->
<g id="edge24" class="edge">
<title>6&#45;&gt;5</title>
<path fill="none" stroke="grey" stroke-width="2" d="M641.68,-442.58C593.92,-430.97 526.89,-414.68 477.75,-402.74"/>
<polygon fill="grey" stroke="grey" stroke-width="2" points="478.4,-399.3 467.86,-400.33 476.75,-406.1 478.4,-399.3"/>
</g>
<!-- 5&#45;&gt;56 -->
<g id="edge127" class="edge">
<title>5&#45;&gt;56</title>
<path fill="none" stroke="grey" stroke-width="2" d="M467.82,-381.04C637.04,-368.8 1150.19,-331.69 1323.28,-319.17"/>
<polygon fill="grey" stroke="grey" stroke-width="2" points="1323.74,-322.65 1333.46,-318.44 1323.23,-315.67 1323.74,-322.65"/>
</g>
<!-- 4 -->
<g id="node33" class="node">
<title>4</title>
<path fill="none" stroke="#9fd856" stroke-width="2" d="M402.5,-332C402.5,-332 297.5,-332 297.5,-332 291.5,-332 285.5,-326 285.5,-320 285.5,-320 285.5,-308 285.5,-308 285.5,-302 291.5,-296 297.5,-296 297.5,-296 402.5,-296 402.5,-296 408.5,-296 414.5,-302 414.5,-308 414.5,-308 414.5,-320 414.5,-320 414.5,-326 408.5,-332 402.5,-332"/>
<text text-anchor="middle" x="350" y="-311.5" font-family="sans" font-size="10.00">calculate_surface_area</text>
</g>
<!-- 5&#45;&gt;4 -->
<g id="edge23" class="edge">
<title>5&#45;&gt;4</title>
<path fill="none" stroke="grey" stroke-width="2" d="M397.43,-367.7C389.8,-359.22 380.48,-348.86 372.12,-339.58"/>
<polygon fill="grey" stroke="grey" stroke-width="2" points="374.69,-337.2 365.39,-332.1 369.48,-341.88 374.69,-337.2"/>
</g>
<!-- 36 -->
<g id="node35" class="node">
<title>36</title>
<path fill="none" stroke="#d88d56" stroke-width="2" d="M214.5,-332C214.5,-332 143.5,-332 143.5,-332 137.5,-332 131.5,-326 131.5,-320 131.5,-320 131.5,-308 131.5,-308 131.5,-302 137.5,-296 143.5,-296 143.5,-296 214.5,-296 214.5,-296 220.5,-296 226.5,-302 226.5,-308 226.5,-308 226.5,-320 226.5,-320 226.5,-326 220.5,-332 214.5,-332"/>
<text text-anchor="middle" x="179" y="-311.5" font-family="sans" font-size="10.00">smooth_surface</text>
</g>
<!-- 5&#45;&gt;36 -->
<g id="edge72" class="edge">
<title>5&#45;&gt;36</title>
<path fill="none" stroke="grey" stroke-width="2" d="M358.42,-375.33C333.08,-370.27 302.72,-363.36 276,-355 259.3,-349.77 241.48,-342.84 225.72,-336.21"/>
<polygon fill="grey" stroke="grey" stroke-width="2" points="226.78,-332.85 216.21,-332.14 224.03,-339.29 226.78,-332.85"/>
</g>
<!-- 37 -->
<g id="node37" class="node">
<title>37</title>
<path fill="none" stroke="#d8bc56" stroke-width="2" d="M578,-260C578,-260 420,-260 420,-260 414,-260 408,-254 408,-248 408,-248 408,-236 408,-236 408,-230 414,-224 420,-224 420,-224 578,-224 578,-224 584,-224 590,-230 590,-236 590,-236 590,-248 590,-248 590,-254 584,-260 578,-260"/>
<text text-anchor="middle" x="499" y="-239.5" font-family="sans" font-size="10.00">calculate_thickness_from_surface</text>
</g>
<!-- 5&#45;&gt;37 -->
<g id="edge73" class="edge">
<title>5&#45;&gt;37</title>
<path fill="none" stroke="grey" stroke-width="2" d="M423.37,-367.87C438.29,-343.24 465.91,-297.64 483.32,-268.88"/>
<polygon fill="grey" stroke="grey" stroke-width="2" points="486.4,-270.56 488.59,-260.19 480.42,-266.93 486.4,-270.56"/>
</g>
<!-- 5&#45;&gt;2 -->
<g id="edge21" class="edge">
<title>5&#45;&gt;2</title>
<path fill="none" stroke="grey" stroke-width="2" d="M461.2,-367.92C506.02,-349.15 570.09,-314.25 599,-260 625.94,-209.44 569.98,-153.18 531.42,-122.36"/>
<polygon fill="grey" stroke="grey" stroke-width="2" points="533.53,-119.57 523.49,-116.18 529.23,-125.09 533.53,-119.57"/>
</g>
<!-- 5&#45;&gt;41 -->
<g id="edge83" class="edge">
<title>5&#45;&gt;41</title>
<path fill="none" stroke="grey" stroke-width="2" d="M358.26,-384.84C285.2,-383.71 160.51,-378.3 122,-355 78.65,-328.78 73.62,-308.51 59,-260 40.27,-197.85 112.38,-147.64 163.64,-120.66"/>
<polygon fill="grey" stroke="grey" stroke-width="2" points="165.33,-123.73 172.63,-116.05 162.13,-117.5 165.33,-123.73"/>
</g>
<!-- 3 -->
<g id="node34" class="node">
<title>3</title>
<path fill="none" stroke="#c6d856" stroke-width="2" d="M377.5,-260C377.5,-260 280.5,-260 280.5,-260 274.5,-260 268.5,-254 268.5,-248 268.5,-248 268.5,-236 268.5,-236 268.5,-230 274.5,-224 280.5,-224 280.5,-224 377.5,-224 377.5,-224 383.5,-224 389.5,-230 389.5,-236 389.5,-236 389.5,-248 389.5,-248 389.5,-254 383.5,-260 377.5,-260"/>
<text text-anchor="middle" x="329" y="-239.5" font-family="sans" font-size="10.00">calculate_gyrification</text>
</g>
<!-- 4&#45;&gt;3 -->
<g id="edge22" class="edge">
<title>4&#45;&gt;3</title>
<path fill="none" stroke="grey" stroke-width="2" d="M344.81,-295.7C342.47,-287.9 339.65,-278.51 337.05,-269.83"/>
<polygon fill="grey" stroke="grey" stroke-width="2" points="340.36,-268.68 334.13,-260.1 333.65,-270.69 340.36,-268.68"/>
</g>
<!-- 40 -->
<g id="node40" class="node">
<title>40</title>
<path fill="none" stroke="#569ad8" stroke-width="2" d="M391,-188C391,-188 267,-188 267,-188 261,-188 255,-182 255,-176 255,-176 255,-164 255,-164 255,-158 261,-152 267,-152 267,-152 391,-152 391,-152 397,-152 403,-158 403,-164 403,-164 403,-176 403,-176 403,-182 397,-188 391,-188"/>
<text text-anchor="middle" x="329" y="-167.5" font-family="sans" font-size="10.00">create_dscalar_metric_cifti</text>
</g>
<!-- 3&#45;&gt;40 -->
<g id="edge78" class="edge">
<title>3&#45;&gt;40</title>
<path fill="none" stroke="grey" stroke-width="2" d="M329,-223.7C329,-215.98 329,-206.71 329,-198.11"/>
<polygon fill="grey" stroke="grey" stroke-width="2" points="332.5,-198.1 329,-188.1 325.5,-198.1 332.5,-198.1"/>
</g>
<!-- 3&#45;&gt;2 -->
<g id="edge18" class="edge">
<title>3&#45;&gt;2</title>
<path fill="none" stroke="grey" stroke-width="2" d="M359.32,-223.92C375.56,-214.22 395.55,-201.37 412,-188 436.21,-168.32 460.78,-142.53 477.61,-123.78"/>
<polygon fill="grey" stroke="grey" stroke-width="2" points="480.3,-126.02 484.32,-116.22 475.07,-121.37 480.3,-126.02"/>
</g>
<!-- 3&#45;&gt;41 -->
<g id="edge81" class="edge">
<title>3&#45;&gt;41</title>
<path fill="none" stroke="grey" stroke-width="2" d="M291.73,-223.83C275.89,-214.99 258.28,-202.92 246,-188 231.13,-169.94 222.03,-144.79 216.85,-125.84"/>
<polygon fill="grey" stroke="grey" stroke-width="2" points="220.21,-124.86 214.36,-116.03 213.43,-126.58 220.21,-124.86"/>
</g>
<!-- 35 -->
<g id="node36" class="node">
<title>35</title>
<path fill="none" stroke="#68d856" stroke-width="2" d="M238,-260C238,-260 80,-260 80,-260 74,-260 68,-254 68,-248 68,-248 68,-236 68,-236 68,-230 74,-224 80,-224 80,-224 238,-224 238,-224 244,-224 250,-230 250,-236 250,-236 250,-248 250,-248 250,-254 244,-260 238,-260"/>
<text text-anchor="middle" x="159" y="-239.5" font-family="sans" font-size="10.00">calculate_curvature_from_surface</text>
</g>
<!-- 36&#45;&gt;35 -->
<g id="edge71" class="edge">
<title>36&#45;&gt;35</title>
<path fill="none" stroke="grey" stroke-width="2" d="M174.06,-295.7C171.83,-287.9 169.15,-278.51 166.67,-269.83"/>
<polygon fill="grey" stroke="grey" stroke-width="2" points="170,-268.76 163.89,-260.1 163.27,-270.68 170,-268.76"/>
</g>
<!-- 35&#45;&gt;40 -->
<g id="edge76" class="edge">
<title>35&#45;&gt;40</title>
<path fill="none" stroke="grey" stroke-width="2" d="M200.59,-223.88C224.03,-214.22 253.5,-202.09 278.3,-191.88"/>
<polygon fill="grey" stroke="grey" stroke-width="2" points="279.63,-195.11 287.55,-188.07 276.97,-188.64 279.63,-195.11"/>
</g>
<!-- 35&#45;&gt;2 -->
<g id="edge15" class="edge">
<title>35&#45;&gt;2</title>
<path fill="none" stroke="grey" stroke-width="2" d="M170.69,-223.96C185.67,-203.51 213.6,-169.77 246,-152 302.37,-121.08 374.89,-108.17 427.82,-102.8"/>
<polygon fill="grey" stroke="grey" stroke-width="2" points="428.18,-106.28 437.8,-101.85 427.51,-99.31 428.18,-106.28"/>
</g>
<!-- 35&#45;&gt;41 -->
<g id="edge80" class="edge">
<title>35&#45;&gt;41</title>
<path fill="none" stroke="grey" stroke-width="2" d="M165.27,-223.87C174.21,-199.46 190.7,-154.43 201.25,-125.64"/>
<polygon fill="grey" stroke="grey" stroke-width="2" points="204.55,-126.78 204.71,-116.19 197.98,-124.38 204.55,-126.78"/>
</g>
<!-- 37&#45;&gt;40 -->
<g id="edge77" class="edge">
<title>37&#45;&gt;40</title>
<path fill="none" stroke="grey" stroke-width="2" d="M457.41,-223.88C433.97,-214.22 404.5,-202.09 379.7,-191.88"/>
<polygon fill="grey" stroke="grey" stroke-width="2" points="381.03,-188.64 370.45,-188.07 378.37,-195.11 381.03,-188.64"/>
</g>
<!-- 37&#45;&gt;2 -->
<g id="edge16" class="edge">
<title>37&#45;&gt;2</title>
<path fill="none" stroke="grey" stroke-width="2" d="M499,-223.87C499,-199.67 499,-155.21 499,-126.39"/>
<polygon fill="grey" stroke="grey" stroke-width="2" points="502.5,-126.19 499,-116.19 495.5,-126.19 502.5,-126.19"/>
</g>
<!-- 38 -->
<g id="node39" class="node">
<title>38</title>
<path fill="none" stroke="#b6d856" stroke-width="2" d="M738,-188C738,-188 672,-188 672,-188 666,-188 660,-182 660,-176 660,-176 660,-164 660,-164 660,-158 666,-152 672,-152 672,-152 738,-152 738,-152 744,-152 750,-158 750,-164 750,-164 750,-176 750,-176 750,-182 744,-188 738,-188"/>
<text text-anchor="middle" x="705" y="-167.5" font-family="sans" font-size="10.00">nii_to_label_gii</text>
</g>
<!-- 39&#45;&gt;38 -->
<g id="edge74" class="edge">
<title>39&#45;&gt;38</title>
<path fill="none" stroke="grey" stroke-width="2" d="M714.79,-223.7C713.35,-215.98 711.63,-206.71 710.04,-198.11"/>
<polygon fill="grey" stroke="grey" stroke-width="2" points="713.44,-197.3 708.18,-188.1 706.56,-198.58 713.44,-197.3"/>
</g>
<!-- 39&#45;&gt;47 -->
<g id="edge100" class="edge">
<title>39&#45;&gt;47</title>
<path fill="none" stroke="grey" stroke-width="2" d="M788.24,-242.78C893.55,-243.92 1085.41,-252.17 1136,-296 1206.74,-357.28 1118.31,-441.3 1192,-499 1213.18,-515.58 1649.18,-509.89 1676,-512 1680.72,-512.37 1685.52,-512.79 1690.37,-513.26"/>
<polygon fill="grey" stroke="grey" stroke-width="2" points="1690.08,-516.74 1700.38,-514.26 1690.78,-509.78 1690.08,-516.74"/>
</g>
<!-- 38&#45;&gt;2 -->
<g id="edge19" class="edge">
<title>38&#45;&gt;2</title>
<path fill="none" stroke="grey" stroke-width="2" d="M659.79,-153.64C630.17,-143.57 591.11,-130.3 558.91,-119.36"/>
<polygon fill="grey" stroke="grey" stroke-width="2" points="559.75,-115.95 549.16,-116.04 557.5,-122.58 559.75,-115.95"/>
</g>
<!-- 40&#45;&gt;2 -->
<g id="edge20" class="edge">
<title>40&#45;&gt;2</title>
<path fill="none" stroke="grey" stroke-width="2" d="M370.59,-151.88C394.03,-142.22 423.5,-130.09 448.3,-119.88"/>
<polygon fill="grey" stroke="grey" stroke-width="2" points="449.63,-123.11 457.55,-116.07 446.97,-116.64 449.63,-123.11"/>
</g>
<!-- 40&#45;&gt;41 -->
<g id="edge82" class="edge">
<title>40&#45;&gt;41</title>
<path fill="none" stroke="grey" stroke-width="2" d="M300.13,-151.88C284.71,-142.72 265.52,-131.34 248.9,-121.48"/>
<polygon fill="grey" stroke="grey" stroke-width="2" points="250.36,-118.28 239.98,-116.19 246.79,-124.3 250.36,-118.28"/>
</g>
<!-- 1 -->
<g id="node43" class="node">
<title>1</title>
<path fill="none" stroke="#d85e56" stroke-width="2" d="M541,-44C541,-44 457,-44 457,-44 451,-44 445,-38 445,-32 445,-32 445,-20 445,-20 445,-14 451,-8 457,-8 457,-8 541,-8 541,-8 547,-8 553,-14 553,-20 553,-20 553,-32 553,-32 553,-38 547,-44 541,-44"/>
<text text-anchor="middle" x="499" y="-23.5" font-family="sans" font-size="10.00">merge_lr_spec_file</text>
</g>
<!-- 2&#45;&gt;1 -->
<g id="edge14" class="edge">
<title>2&#45;&gt;1</title>
<path fill="none" stroke="grey" stroke-width="2" d="M499,-79.7C499,-71.98 499,-62.71 499,-54.11"/>
<polygon fill="grey" stroke="grey" stroke-width="2" points="502.5,-54.1 499,-44.1 495.5,-54.1 502.5,-54.1"/>
</g>
<!-- 41&#45;&gt;1 -->
<g id="edge13" class="edge">
<title>41&#45;&gt;1</title>
<path fill="none" stroke="grey" stroke-width="2" d="M280.35,-80.14C327.33,-68.72 388.97,-53.74 434.83,-42.6"/>
<polygon fill="grey" stroke="grey" stroke-width="2" points="435.76,-45.97 444.65,-40.21 434.11,-39.17 435.76,-45.97"/>
</g>
<!-- 1&#45;&gt;0 -->
<g id="edge6" class="edge">
<title>1&#45;&gt;0</title>
<path fill="none" stroke="grey" stroke-width="2" d="M553.03,-33.16C763.96,-57.2 1529.2,-144.41 1707.63,-164.74"/>
<polygon fill="grey" stroke="grey" stroke-width="2" points="1707.48,-168.25 1717.82,-165.9 1708.28,-161.29 1707.48,-168.25"/>
</g>
<!-- 26 -->
<g id="node44" class="node">
<title>26</title>
<path fill="none" stroke="#d8a456" stroke-width="2" d="M2004,-1052C2004,-1052 1904,-1052 1904,-1052 1898,-1052 1892,-1046 1892,-1040 1892,-1040 1892,-1028 1892,-1028 1892,-1022 1898,-1016 1904,-1016 1904,-1016 2004,-1016 2004,-1016 2010,-1016 2016,-1022 2016,-1028 2016,-1028 2016,-1040 2016,-1040 2016,-1046 2010,-1052 2004,-1052"/>
<text text-anchor="middle" x="1954" y="-1031.5" font-family="sans" font-size="10.00">prep_segs_for_greedy</text>
</g>
<!-- 25 -->
<g id="node46" class="node">
<title>25</title>
<path fill="none" stroke="#61d856" stroke-width="2" d="M2000,-980C2000,-980 1908,-980 1908,-980 1902,-980 1896,-974 1896,-968 1896,-968 1896,-956 1896,-956 1896,-950 1902,-944 1908,-944 1908,-944 2000,-944 2000,-944 2006,-944 2012,-950 2012,-956 2012,-956 2012,-968 2012,-968 2012,-974 2006,-980 2000,-980"/>
<text text-anchor="middle" x="1954" y="-959.5" font-family="sans" font-size="10.00">template_shape_reg</text>
</g>
<!-- 26&#45;&gt;25 -->
<g id="edge57" class="edge">
<title>26&#45;&gt;25</title>
<path fill="none" stroke="grey" stroke-width="2" d="M1954,-1015.7C1954,-1007.98 1954,-998.71 1954,-990.11"/>
<polygon fill="grey" stroke="grey" stroke-width="2" points="1957.5,-990.1 1954,-980.1 1950.5,-990.1 1957.5,-990.1"/>
</g>
<!-- 15 -->
<g id="node45" class="node">
<title>15</title>
<path fill="none" stroke="#56d8d0" stroke-width="2" d="M1915.5,-1124C1915.5,-1124 1806.5,-1124 1806.5,-1124 1800.5,-1124 1794.5,-1118 1794.5,-1112 1794.5,-1112 1794.5,-1100 1794.5,-1100 1794.5,-1094 1800.5,-1088 1806.5,-1088 1806.5,-1088 1915.5,-1088 1915.5,-1088 1921.5,-1088 1927.5,-1094 1927.5,-1100 1927.5,-1100 1927.5,-1112 1927.5,-1112 1927.5,-1118 1921.5,-1124 1915.5,-1124"/>
<text text-anchor="middle" x="1861" y="-1103.5" font-family="sans" font-size="10.00">import_template_shape</text>
</g>
<!-- 15&#45;&gt;26 -->
<g id="edge58" class="edge">
<title>15&#45;&gt;26</title>
<path fill="none" stroke="grey" stroke-width="2" d="M1883.99,-1087.7C1895.81,-1078.8 1910.39,-1067.82 1923.18,-1058.2"/>
<polygon fill="grey" stroke="grey" stroke-width="2" points="1925.39,-1060.91 1931.28,-1052.1 1921.18,-1055.32 1925.39,-1060.91"/>
</g>
<!-- 14 -->
<g id="node47" class="node">
<title>14</title>
<path fill="none" stroke="#56d89a" stroke-width="2" d="M1871,-908C1871,-908 1767,-908 1767,-908 1761,-908 1755,-902 1755,-896 1755,-896 1755,-884 1755,-884 1755,-878 1761,-872 1767,-872 1767,-872 1871,-872 1871,-872 1877,-872 1883,-878 1883,-884 1883,-884 1883,-896 1883,-896 1883,-902 1877,-908 1871,-908"/>
<text text-anchor="middle" x="1819" y="-887.5" font-family="sans" font-size="10.00">template_shape_inject</text>
</g>
<!-- 15&#45;&gt;14 -->
<g id="edge44" class="edge">
<title>15&#45;&gt;14</title>
<path fill="none" stroke="grey" stroke-width="2" d="M1857.63,-1087.85C1850.35,-1050.75 1833.09,-962.81 1824.32,-918.1"/>
<polygon fill="grey" stroke="grey" stroke-width="2" points="1827.74,-917.37 1822.38,-908.23 1820.87,-918.72 1827.74,-917.37"/>
</g>
<!-- 25&#45;&gt;14 -->
<g id="edge45" class="edge">
<title>25&#45;&gt;14</title>
<path fill="none" stroke="grey" stroke-width="2" d="M1920.98,-943.88C1902.92,-934.51 1880.35,-922.81 1861.05,-912.8"/>
<polygon fill="grey" stroke="grey" stroke-width="2" points="1862.64,-909.69 1852.15,-908.19 1859.42,-915.9 1862.64,-909.69"/>
</g>
<!-- 27 -->
<g id="node48" class="node">
<title>27</title>
<path fill="none" stroke="#56d0d8" stroke-width="2" d="M2032.5,-908C2032.5,-908 1913.5,-908 1913.5,-908 1907.5,-908 1901.5,-902 1901.5,-896 1901.5,-896 1901.5,-884 1901.5,-884 1901.5,-878 1907.5,-872 1913.5,-872 1913.5,-872 2032.5,-872 2032.5,-872 2038.5,-872 2044.5,-878 2044.5,-884 2044.5,-884 2044.5,-896 2044.5,-896 2044.5,-902 2038.5,-908 2032.5,-908"/>
<text text-anchor="middle" x="1973" y="-887.5" font-family="sans" font-size="10.00">inject_init_laplace_coords</text>
</g>
<!-- 25&#45;&gt;27 -->
<g id="edge60" class="edge">
<title>25&#45;&gt;27</title>
<path fill="none" stroke="grey" stroke-width="2" d="M1958.7,-943.7C1960.81,-935.9 1963.36,-926.51 1965.72,-917.83"/>
<polygon fill="grey" stroke="grey" stroke-width="2" points="1969.12,-918.67 1968.36,-908.1 1962.36,-916.84 1969.12,-918.67"/>
</g>
<!-- 13 -->
<g id="node49" class="node">
<title>13</title>
<path fill="none" stroke="#567bd8" stroke-width="2" d="M1872.5,-836C1872.5,-836 1767.5,-836 1767.5,-836 1761.5,-836 1755.5,-830 1755.5,-824 1755.5,-824 1755.5,-812 1755.5,-812 1755.5,-806 1761.5,-800 1767.5,-800 1767.5,-800 1872.5,-800 1872.5,-800 1878.5,-800 1884.5,-806 1884.5,-812 1884.5,-812 1884.5,-824 1884.5,-824 1884.5,-830 1878.5,-836 1872.5,-836"/>
<text text-anchor="middle" x="1820" y="-815.5" font-family="sans" font-size="10.00">reinsert_subject_labels</text>
</g>
<!-- 14&#45;&gt;13 -->
<g id="edge42" class="edge">
<title>14&#45;&gt;13</title>
<path fill="none" stroke="grey" stroke-width="2" d="M1819.25,-871.7C1819.36,-863.98 1819.49,-854.71 1819.61,-846.11"/>
<polygon fill="grey" stroke="grey" stroke-width="2" points="1823.11,-846.15 1819.76,-836.1 1816.11,-846.05 1823.11,-846.15"/>
</g>
<!-- 27&#45;&gt;12 -->
<g id="edge41" class="edge">
<title>27&#45;&gt;12</title>
<path fill="none" stroke="grey" stroke-width="2" d="M1901.32,-873.95C1856.67,-864.14 1798.18,-850.5 1747,-836 1698.32,-822.21 1687.95,-812.8 1639,-800 1569.01,-781.7 1487.51,-766.82 1431.31,-757.54"/>
<polygon fill="grey" stroke="grey" stroke-width="2" points="1431.55,-754.03 1421.12,-755.87 1430.42,-760.94 1431.55,-754.03"/>
</g>
<!-- 27&#45;&gt;43 -->
<g id="edge89" class="edge">
<title>27&#45;&gt;43</title>
<path fill="none" stroke="grey" stroke-width="2" d="M1901.5,-873.73C1898.29,-873.13 1895.11,-872.55 1892,-872 1628.48,-825.65 1550.33,-870.13 1296,-787 1282.48,-782.58 1268.5,-775.81 1256.33,-769.1"/>
<polygon fill="grey" stroke="grey" stroke-width="2" points="1257.83,-765.93 1247.41,-764.01 1254.37,-772.01 1257.83,-765.93"/>
</g>
<!-- 13&#45;&gt;12 -->
<g id="edge40" class="edge">
<title>13&#45;&gt;12</title>
<path fill="none" stroke="grey" stroke-width="2" d="M1755.48,-805.83C1743.68,-803.84 1731.48,-801.83 1720,-800 1619.74,-784.04 1503.38,-767.05 1431.46,-756.73"/>
<polygon fill="grey" stroke="grey" stroke-width="2" points="1431.58,-753.21 1421.18,-755.25 1430.58,-760.14 1431.58,-753.21"/>
</g>
<!-- 13&#45;&gt;30 -->
<g id="edge64" class="edge">
<title>13&#45;&gt;30</title>
<path fill="none" stroke="grey" stroke-width="2" d="M1755.26,-817.58C1609.55,-818.33 1259.72,-816.84 1146,-787 1131.02,-783.07 1115.59,-776.04 1102.39,-768.95"/>
<polygon fill="grey" stroke="grey" stroke-width="2" points="1104.08,-765.89 1093.64,-764.08 1100.68,-772 1104.08,-765.89"/>
</g>
<!-- 46 -->
<g id="node50" class="node">
<title>46</title>
<path fill="none" stroke="#56d8b1" stroke-width="2" d="M1843.5,-764C1843.5,-764 1776.5,-764 1776.5,-764 1770.5,-764 1764.5,-758 1764.5,-752 1764.5,-752 1764.5,-740 1764.5,-740 1764.5,-734 1770.5,-728 1776.5,-728 1776.5,-728 1843.5,-728 1843.5,-728 1849.5,-728 1855.5,-734 1855.5,-740 1855.5,-740 1855.5,-752 1855.5,-752 1855.5,-758 1849.5,-764 1843.5,-764"/>
<text text-anchor="middle" x="1810" y="-743.5" font-family="sans" font-size="10.00">unflip_postproc</text>
</g>
<!-- 13&#45;&gt;46 -->
<g id="edge96" class="edge">
<title>13&#45;&gt;46</title>
<path fill="none" stroke="grey" stroke-width="2" d="M1817.53,-799.7C1816.43,-791.98 1815.1,-782.71 1813.87,-774.11"/>
<polygon fill="grey" stroke="grey" stroke-width="2" points="1817.32,-773.51 1812.44,-764.1 1810.39,-774.5 1817.32,-773.51"/>
</g>
<!-- 45 -->
<g id="node52" class="node">
<title>45</title>
<path fill="none" stroke="#5682d8" stroke-width="2" d="M1900,-476C1900,-476 1718,-476 1718,-476 1712,-476 1706,-470 1706,-464 1706,-464 1706,-452 1706,-452 1706,-446 1712,-440 1718,-440 1718,-440 1900,-440 1900,-440 1906,-440 1912,-446 1912,-452 1912,-452 1912,-464 1912,-464 1912,-470 1906,-476 1900,-476"/>
<text text-anchor="middle" x="1809" y="-455.5" font-family="sans" font-size="10.00">combine_tissue_subfield_labels_corobl</text>
</g>
<!-- 13&#45;&gt;45 -->
<g id="edge93" class="edge">
<title>13&#45;&gt;45</title>
<path fill="none" stroke="grey" stroke-width="2" d="M1851.76,-799.71C1856.67,-796 1861.32,-791.75 1865,-787 1942.52,-686.8 2010.82,-617.04 1940,-512 1930.69,-498.19 1917.1,-487.97 1902.16,-480.42"/>
<polygon fill="grey" stroke="grey" stroke-width="2" points="1903.25,-477.07 1892.7,-476.05 1900.31,-483.42 1903.25,-477.07"/>
</g>
<!-- 46&#45;&gt;45 -->
<g id="edge94" class="edge">
<title>46&#45;&gt;45</title>
<path fill="none" stroke="grey" stroke-width="2" d="M1811.3,-727.79C1814.75,-694.82 1827.06,-622.57 1870,-584 1887.4,-568.37 1906.65,-589.47 1921,-571 1937.09,-550.29 1935.03,-534.16 1921,-512 1912.33,-498.3 1899.06,-488.08 1884.64,-480.47"/>
<polygon fill="grey" stroke="grey" stroke-width="2" points="1886.08,-477.27 1875.56,-476.06 1883.03,-483.57 1886.08,-477.27"/>
</g>
<!-- 47&#45;&gt;45 -->
<g id="edge95" class="edge">
<title>47&#45;&gt;45</title>
<path fill="none" stroke="grey" stroke-width="2" d="M1806.74,-511.7C1807.07,-503.98 1807.47,-494.71 1807.84,-486.11"/>
<polygon fill="grey" stroke="grey" stroke-width="2" points="1811.34,-486.25 1808.27,-476.1 1804.34,-485.95 1811.34,-486.25"/>
</g>
<!-- 45&#45;&gt;49 -->
<g id="edge103" class="edge">
<title>45&#45;&gt;49</title>
<path fill="none" stroke="grey" stroke-width="2" d="M1811.72,-439.7C1812.93,-431.98 1814.39,-422.71 1815.74,-414.11"/>
<polygon fill="grey" stroke="grey" stroke-width="2" points="1819.22,-414.53 1817.31,-404.1 1812.3,-413.44 1819.22,-414.53"/>
</g>
<!-- 45&#45;&gt;44 -->
<g id="edge90" class="edge">
<title>45&#45;&gt;44</title>
<path fill="none" stroke="grey" stroke-width="2" d="M1761.3,-439.97C1733.92,-430.19 1699.34,-417.84 1670.47,-407.52"/>
<polygon fill="grey" stroke="grey" stroke-width="2" points="1671.5,-404.18 1660.91,-404.11 1669.15,-410.77 1671.5,-404.18"/>
</g>
<!-- 48 -->
<g id="node58" class="node">
<title>48</title>
<path fill="none" stroke="#56a9d8" stroke-width="2" d="M1665,-476C1665,-476 1561,-476 1561,-476 1555,-476 1549,-470 1549,-464 1549,-464 1549,-452 1549,-452 1549,-446 1555,-440 1561,-440 1561,-440 1665,-440 1665,-440 1671,-440 1677,-446 1677,-452 1677,-452 1677,-464 1677,-464 1677,-470 1671,-476 1665,-476"/>
<text text-anchor="middle" x="1613" y="-455.5" font-family="sans" font-size="10.00">create_native_crop_ref</text>
</g>
<!-- 49&#45;&gt;48 -->
<g id="edge102" class="edge">
<title>49&#45;&gt;48</title>
<path fill="none" stroke="grey" stroke-width="2" d="M1769.4,-404.11C1740.31,-413.95 1703.6,-426.36 1673.06,-436.69"/>
<polygon fill="grey" stroke="grey" stroke-width="2" points="1671.72,-433.45 1663.37,-439.97 1673.97,-440.08 1671.72,-433.45"/>
</g>
<!-- 16&#45;&gt;26 -->
<g id="edge59" class="edge">
<title>16&#45;&gt;26</title>
<path fill="none" stroke="grey" stroke-width="2" d="M2648.41,-966.96C2528.09,-978.4 2178.55,-1011.64 2026.29,-1026.12"/>
<polygon fill="grey" stroke="grey" stroke-width="2" points="2025.74,-1022.66 2016.12,-1027.09 2026.4,-1029.63 2025.74,-1022.66"/>
</g>
<!-- 16&#45;&gt;14 -->
<g id="edge46" class="edge">
<title>16&#45;&gt;14</title>
<path fill="none" stroke="grey" stroke-width="2" d="M2648.27,-960.56C2529.5,-958.82 2179.74,-950.2 1893,-908 1892.9,-907.99 1892.8,-907.97 1892.69,-907.95"/>
<polygon fill="grey" stroke="grey" stroke-width="2" points="1893.49,-904.54 1883.06,-906.37 1892.36,-911.45 1893.49,-904.54"/>
</g>
<!-- 16&#45;&gt;27 -->
<g id="edge61" class="edge">
<title>16&#45;&gt;27</title>
<path fill="none" stroke="grey" stroke-width="2" d="M2648.35,-956.93C2533.09,-945.68 2208.32,-913.97 2055.04,-899.01"/>
<polygon fill="grey" stroke="grey" stroke-width="2" points="2055.04,-895.49 2044.75,-898 2054.36,-902.46 2055.04,-895.49"/>
</g>
<!-- 16&#45;&gt;13 -->
<g id="edge43" class="edge">
<title>16&#45;&gt;13</title>
<path fill="none" stroke="grey" stroke-width="2" d="M2648.33,-954.2C2511,-931.78 2071.37,-860.03 1894.62,-831.18"/>
<polygon fill="grey" stroke="grey" stroke-width="2" points="1895.07,-827.71 1884.63,-829.55 1893.94,-834.61 1895.07,-827.71"/>
</g>
<!-- 61 -->
<g id="node55" class="node">
<title>61</title>
<path fill="none" stroke="#56d863" stroke-width="2" d="M2756,-908C2756,-908 2680,-908 2680,-908 2674,-908 2668,-902 2668,-896 2668,-896 2668,-884 2668,-884 2668,-878 2674,-872 2680,-872 2680,-872 2756,-872 2756,-872 2762,-872 2768,-878 2768,-884 2768,-884 2768,-896 2768,-896 2768,-902 2762,-908 2756,-908"/>
<text text-anchor="middle" x="2718" y="-887.5" font-family="sans" font-size="10.00">unflip_nnunet_nii</text>
</g>
<!-- 16&#45;&gt;61 -->
<g id="edge134" class="edge">
<title>16&#45;&gt;61</title>
<path fill="none" stroke="grey" stroke-width="2" d="M2696.92,-943.7C2700.07,-935.81 2703.88,-926.3 2707.38,-917.55"/>
<polygon fill="grey" stroke="grey" stroke-width="2" points="2710.69,-918.69 2711.16,-908.1 2704.19,-916.09 2710.69,-918.69"/>
</g>
<!-- 16&#45;&gt;60 -->
<g id="edge131" class="edge">
<title>16&#45;&gt;60</title>
<path fill="none" stroke="grey" stroke-width="2" d="M2676.43,-943.72C2663.96,-925.62 2648.86,-896.49 2659,-872 2663.54,-861.03 2671.59,-851.14 2680.05,-842.96"/>
<polygon fill="grey" stroke="grey" stroke-width="2" points="2682.44,-845.53 2687.52,-836.23 2677.75,-840.33 2682.44,-845.53"/>
</g>
<!-- 61&#45;&gt;60 -->
<g id="edge132" class="edge">
<title>61&#45;&gt;60</title>
<path fill="none" stroke="grey" stroke-width="2" d="M2716.52,-871.7C2715.86,-863.98 2715.06,-854.71 2714.32,-846.11"/>
<polygon fill="grey" stroke="grey" stroke-width="2" points="2717.81,-845.77 2713.47,-836.1 2710.83,-846.37 2717.81,-845.77"/>
</g>
<!-- 59 -->
<g id="node57" class="node">
<title>59</title>
<path fill="none" stroke="#97d856" stroke-width="2" d="M2740,-764C2740,-764 2672,-764 2672,-764 2666,-764 2660,-758 2660,-752 2660,-752 2660,-740 2660,-740 2660,-734 2666,-728 2672,-728 2672,-728 2740,-728 2740,-728 2746,-728 2752,-734 2752,-740 2752,-740 2752,-752 2752,-752 2752,-758 2746,-764 2740,-764"/>
<text text-anchor="middle" x="2706" y="-743.5" font-family="sans" font-size="10.00">qc_nnunet_dice</text>
</g>
<!-- 60&#45;&gt;59 -->
<g id="edge130" class="edge">
<title>60&#45;&gt;59</title>
<path fill="none" stroke="grey" stroke-width="2" d="M2710.52,-799.7C2709.86,-791.98 2709.06,-782.71 2708.32,-774.11"/>
<polygon fill="grey" stroke="grey" stroke-width="2" points="2711.81,-773.77 2707.47,-764.1 2704.83,-774.37 2711.81,-773.77"/>
</g>
<!-- 59&#45;&gt;0 -->
<g id="edge11" class="edge">
<title>59&#45;&gt;0</title>
<path fill="none" stroke="grey" stroke-width="2" d="M2692.85,-727.69C2674.65,-701.95 2644,-651.42 2644,-603 2644,-603 2644,-603 2644,-313 2644,-185.8 2496.65,-249.3 2372,-224 2151.69,-179.28 1880.42,-172.21 1782.48,-171.16"/>
<polygon fill="grey" stroke="grey" stroke-width="2" points="1782.24,-167.65 1772.21,-171.06 1782.17,-174.65 1782.24,-167.65"/>
</g>
<!-- 48&#45;&gt;52 -->
<g id="edge119" class="edge">
<title>48&#45;&gt;52</title>
<path fill="none" stroke="grey" stroke-width="2" d="M1639.82,-476.21C1657.48,-487.07 1681.59,-499.81 1705,-505.5 1748.62,-516.1 1862.46,-511.1 1907,-505.5 1947.81,-500.37 1992.49,-489.15 2027.83,-478.9"/>
<polygon fill="grey" stroke="grey" stroke-width="2" points="2028.94,-482.23 2037.54,-476.04 2026.96,-475.51 2028.94,-482.23"/>
</g>
<!-- 48&#45;&gt;44 -->
<g id="edge91" class="edge">
<title>48&#45;&gt;44</title>
<path fill="none" stroke="grey" stroke-width="2" d="M1613,-439.7C1613,-431.98 1613,-422.71 1613,-414.11"/>
<polygon fill="grey" stroke="grey" stroke-width="2" points="1616.5,-414.1 1613,-404.1 1609.5,-414.1 1616.5,-414.1"/>
</g>
<!-- 48&#45;&gt;50 -->
<g id="edge109" class="edge">
<title>48&#45;&gt;50</title>
<path fill="none" stroke="grey" stroke-width="2" d="M1548.7,-443.92C1495.66,-433.12 1419.77,-417.68 1360.42,-405.6"/>
<polygon fill="grey" stroke="grey" stroke-width="2" points="1360.79,-402.11 1350.29,-403.54 1359.39,-408.97 1360.79,-402.11"/>
</g>
<!-- 48&#45;&gt;53 -->
<g id="edge123" class="edge">
<title>48&#45;&gt;53</title>
<path fill="none" stroke="grey" stroke-width="2" d="M1570.19,-439.88C1546.05,-430.22 1515.72,-418.09 1490.19,-407.88"/>
<polygon fill="grey" stroke="grey" stroke-width="2" points="1491.26,-404.53 1480.67,-404.07 1488.66,-411.03 1491.26,-404.53"/>
</g>
<!-- 44&#45;&gt;58 -->
<g id="edge129" class="edge">
<title>44&#45;&gt;58</title>
<path fill="none" stroke="grey" stroke-width="2" d="M1641.62,-367.88C1656.92,-358.72 1675.94,-347.34 1692.42,-337.48"/>
<polygon fill="grey" stroke="grey" stroke-width="2" points="1694.48,-340.33 1701.27,-332.19 1690.89,-334.32 1694.48,-340.33"/>
</g>
<!-- 44&#45;&gt;55 -->
<g id="edge125" class="edge">
<title>44&#45;&gt;55</title>
<path fill="none" stroke="grey" stroke-width="2" d="M1613,-367.7C1613,-359.98 1613,-350.71 1613,-342.11"/>
<polygon fill="grey" stroke="grey" stroke-width="2" points="1616.5,-342.1 1613,-332.1 1609.5,-342.1 1616.5,-342.1"/>
</g>
<!-- 44&#45;&gt;0 -->
<g id="edge4" class="edge">
<title>44&#45;&gt;0</title>
<path fill="none" stroke="grey" stroke-width="2" d="M1699.68,-368.71C1701.13,-368.47 1702.57,-368.23 1704,-368 1724.81,-364.62 1784.15,-370.9 1798,-355 1836.25,-311.1 1820.28,-277.79 1798,-224 1793.46,-213.03 1785.41,-203.14 1776.95,-194.96"/>
<polygon fill="grey" stroke="grey" stroke-width="2" points="1779.25,-192.33 1769.48,-188.23 1774.56,-197.53 1779.25,-192.33"/>
</g>
<!-- 50&#45;&gt;0 -->
<g id="edge12" class="edge">
<title>50&#45;&gt;0</title>
<path fill="none" stroke="grey" stroke-width="2" d="M1266.7,-367.84C1263.32,-334.61 1261.27,-261.48 1302,-224 1331.69,-196.68 1606.55,-178.72 1707.79,-172.98"/>
<polygon fill="grey" stroke="grey" stroke-width="2" points="1708.08,-176.47 1717.87,-172.42 1707.69,-169.48 1708.08,-176.47"/>
</g>
<!-- 53&#45;&gt;55 -->
<g id="edge126" class="edge">
<title>53&#45;&gt;55</title>
<path fill="none" stroke="grey" stroke-width="2" d="M1508.13,-369.72C1537.64,-363.15 1565.94,-356.6 1569,-355 1576.89,-350.88 1584.46,-344.99 1591.03,-339"/>
<polygon fill="grey" stroke="grey" stroke-width="2" points="1593.49,-341.49 1598.24,-332.02 1588.62,-336.46 1593.49,-341.49"/>
</g>
<!-- 53&#45;&gt;0 -->
<g id="edge8" class="edge">
<title>53&#45;&gt;0</title>
<path fill="none" stroke="grey" stroke-width="2" d="M1367.72,-369.12C1348.4,-364.06 1331.9,-358.81 1329,-355 1293.71,-308.69 1290.52,-267.69 1329,-224 1353.9,-195.73 1610.42,-178.53 1707.79,-172.98"/>
<polygon fill="grey" stroke="grey" stroke-width="2" points="1707.99,-176.47 1717.78,-172.42 1707.6,-169.48 1707.99,-176.47"/>
</g>
</g>
</svg>
